<svg width="512" height="512" viewBox="0 0 512 512" fill="none" xmlns="http://www.w3.org/2000/svg">
    <path
        d="M258 380L314.141 412.081C317.943 414.253 322.785 412.965 325.005 409.191L429.391 231.735C430.425 229.978 430.748 227.893 430.297 225.906L401.741 100.262C401.267 98.175 399.976 96.3649 398.157 95.2367L327.279 51.2746C324.173 49.3479 320.156 49.7717 317.52 52.3042L271 97M258 380L83 281M258 380L429 229M258 380L229 415L192.462 457.776C189.895 460.781 185.52 461.462 182.162 459.379L111.907 415.803C110.05 414.651 108.745 412.791 108.295 410.653L81.6299 283.992C81.2243 282.065 81.5434 280.057 82.5263 278.351L184.692 101.007C186.12 98.5277 188.763 97 191.624 97H271M271 97L83 281M271 97H399M83 281L186 459M83 281L429 229M83 281L399 97M430 229H429M429 229L323 51M400 97H399M111 414L317 413"
        stroke="black" stroke-width="9" stroke-miterlimit="11.4737" stroke-linejoin="bevel" />
</svg>