<svg viewBox="0 0 40.5 40.5" xmlns="http://www.w3.org/2000/svg"><path d="m40.5 20.25h-40.5a20.25 20.25 0 0 1 40.5 0z" fill="#cc092f"/><path d="m40.5 20.25a20.25 20.25 0 0 1 -40.5 0z"/><g fill="#ffcb00"><path d="m19.46 11.6.75 2.31h2.43l-1.96 1.43.75 2.31-1.97-1.43-1.96 1.43.75-2.31-1.96-1.43h2.42z"/><path d="m22.5 27.37-1.5-.95a8.66 8.66 0 0 1 -8.58-1.33l-1 1.09a12.33 12.33 0 0 0 1.26.88l-.44.92 1.76.82.43-.92a9.9 9.9 0 0 0 1.7.45l-.08 1 1.95.17.08-1a9.56 9.56 0 0 0 1.87-.21l.3 1 1.84-.56-.3-1c.21-.12.47-.24.71-.36z"/><path d="m28.89 20.23.17-1.91-1-.09a10.52 10.52 0 0 0 -.23-2l1-.3-.58-1.83-1 .3a10.07 10.07 0 0 0 -1-1.79l.79-.65-1.24-1.51-.78.66a9.8 9.8 0 0 0 -1.59-1.28l.48-.9-1.7-.93-.48.91a10.27 10.27 0 0 0 -1.73-.51l-.3 1.44a8.68 8.68 0 0 1 3.61 15.26l2 1.54.53-.45-.66-.78a10.38 10.38 0 0 0 1.27-1.6l.9.47.89-1.7-.91-.47a10 10 0 0 0 .56-2z"/><path d="m17.45 21.63a.07.07 0 0 1 0-.11.08.08 0 0 1 .11 0l9.59 7.27.2-.25-9.97-7.64a8 8 0 0 1 -1.79-2.44v-.18s-2.08 2.88.55 4.69 10.35 6.64 10.35 6.64l.51-.71z"/><path d="m30.28 30.83c-.7-.51-2.74-2.16-2.74-2.16l-.85 1.08a25.71 25.71 0 0 1 2.44 1.79c.17.17.15.47.52.75a.89.89 0 0 0 1.05 0c.71-.77-.11-1.24-.42-1.46zm-1.85-.7a.18.18 0 0 1 -.19-.19.19.19 0 1 1 .37 0 .18.18 0 0 1 -.18.19zm.55.49a.18.18 0 0 1 -.17-.19.18.18 0 0 1 .17-.18.18.18 0 0 1 .19.18.18.18 0 0 1 -.17.19zm.63.43a.18.18 0 0 1 -.19-.19.18.18 0 0 1 .19-.17.18.18 0 0 1 .17.17.18.18 0 0 1 -.17.19z"/></g></svg>