<svg xmlns="http://www.w3.org/2000/svg" viewBox="0 0 40.5 40.5"><defs><style>.cls-1{fill:#cc092f;}.cls-2{fill:#ffcb00;}</style></defs><g id="Ebene_2" data-name="Ebene 2"><g id="Ńëîé_1" data-name="Ńëîé 1"><path class="cls-1" d="M40.5,20.25H0a20.25,20.25,0,0,1,40.5,0Z"/><path d="M40.5,20.25a20.25,20.25,0,0,1-40.5,0Z"/><polygon class="cls-2" points="19.46 11.6 20.21 13.91 22.64 13.91 20.68 15.34 21.43 17.65 19.46 16.22 17.5 17.65 18.25 15.34 16.29 13.91 18.71 13.91 19.46 11.6"/><path class="cls-2" d="M22.5,27.37,21,26.42a8.66,8.66,0,0,1-8.58-1.33l-1,1.09a12.33,12.33,0,0,0,1.26.88l-.44.92L14,28.8l.43-.92a9.9,9.9,0,0,0,1.7.45l-.08,1L18,29.5l.08-1a9.56,9.56,0,0,0,1.87-.21l.3,1,1.84-.56-.3-1C22,27.61,22.26,27.49,22.5,27.37Z"/><path class="cls-2" d="M28.89,20.23l.17-1.91-1-.09a10.52,10.52,0,0,0-.23-2l1-.3-.58-1.83-1,.3a10.07,10.07,0,0,0-1-1.79l.79-.65L25.8,10.45l-.78.66a9.8,9.8,0,0,0-1.59-1.28l.48-.9L22.21,8l-.48.91A10.27,10.27,0,0,0,20,8.4l-.3,1.44A8.68,8.68,0,0,1,23.31,25.1l2,1.54.53-.45-.66-.78a10.38,10.38,0,0,0,1.27-1.6l.9.47.89-1.7-.91-.47a10,10,0,0,0,.56-2Z"/><path class="cls-2" d="M17.45,21.63a.07.07,0,0,1,0-.11.08.08,0,0,1,.11,0l9.59,7.27h0l.2-.25L17.38,20.9a8,8,0,0,1-1.79-2.44l0-.18s-2.08,2.88.55,4.69,10.35,6.64,10.35,6.64L27,28.9Z"/><path class="cls-2" d="M30.28,30.83c-.7-.51-2.74-2.16-2.74-2.16l-.85,1.08a25.71,25.71,0,0,1,2.44,1.79c.17.17.15.47.52.75a.89.89,0,0,0,1.05,0C31.41,31.52,30.59,31.05,30.28,30.83Zm-1.85-.7a.18.18,0,0,1-.19-.19.19.19,0,1,1,.37,0A.18.18,0,0,1,28.43,30.13Zm.55.49a.18.18,0,0,1-.17-.19.18.18,0,0,1,.17-.18.18.18,0,0,1,.19.18A.18.18,0,0,1,29,30.62Zm.63.43a.18.18,0,0,1-.19-.19.18.18,0,0,1,.19-.17.18.18,0,0,1,.17.17A.18.18,0,0,1,29.61,31.05Z"/></g></g></svg>