<svg viewBox="0 0 40.5 40.5" xmlns="http://www.w3.org/2000/svg"><circle cx="20.25" cy="20.25" fill="#e41e20" r="20.25"/><path d="m31.18 24.77c-.76-.69-1.15.07-1.15.07h-1.53l.91-.67a.63.63 0 0 0 .92-.34c.1-.34.65-.2.65-.2a.6.6 0 0 0 -.85-.17c-.84-.38-.86.39-.86.39l-1.27.86-2.51-.71s.39-.37.51-.51-.06-.36-.17-.38a3.23 3.23 0 0 1 -2.83-2.72c.12-.67.45-.08.51 0 .67 1.52 1.2 1.53 1.31 1.51.65-.16.25-.42.15-.5-.5-.41-.78-1.22-.67-1.4.47-.69.7.14.76.34.51 1.84 1.54 2.07 1.75 2 .73-.28.42-.65.24-.73-1.19-.49-1.38-1.2-1.32-1.74s.39-.29.48-.19c.35.4 1.46 1.55 1.93 2.08 1.28 1.46 2.41 1 2.72.5.48-.76-.37-.72-.6-.7-1.41.18-2.84-1.56-3.26-2.56-.24-.64.26-.29.33-.22 2.27 2.68 3.56 1.56 3.67 1.34.38-.72-.31-.76-.5-.68-1.28.54-3.06-1-3.34-1.84s.3-.48.41-.39c2.87 2.33 3.38.84 3.38.82.32-.89-.47-.74-.72-.71a3.55 3.55 0 0 1 -2.92-1.44c-.18-.18 0-.43.2-.32 2.24 1.44 3.26.74 3.41.49.49-.81-.32-.91-.52-.79-1.17.75-2.55-.22-3.15-.72-.3-.25 0-.59.14-.54 2.34 1.28 3.58.36 3.66-.48s-.46-.57-.58-.44a2.27 2.27 0 0 1 -3.09 0c-.36-.47-.07-.54 0-.51 3.25.68 3.62-1 3.62-1.1.09-.77-.52-.68-.66-.53a3.3 3.3 0 0 1 -2.83.84c-.56-.22-.22-.73 0-.71 1.08.1 3.66-1.11 3.6-2.32 0-.94-.61-1-.75-.74a4.08 4.08 0 0 1 -3.15 2.21c-.15-.36-.29-.37-.41-.33a12.6 12.6 0 0 0 -1.78.78c-.85.44-.93.56-.89 1.46s-.68 1.16-.68 1.16-.95.29-1.09-.89 1-1.94 1.48-2.21a9.9 9.9 0 0 1 2-.56c.5-.13.55-.43.55-.43-.91.52-1.32 0-1.32 0s.64 0 .86 0a2.47 2.47 0 0 0 .97-.2c.42-.2.58-.36.6-.47.09-.7-.4-.25-.47-.15a1.08 1.08 0 0 1 -.56.44 2.9 2.9 0 0 1 -1.16.07c.75-.91 1.16-.25 1.16-.25.17-.94-1.13-.66-1.13-.66-.5-.69-1.52-.35-2.12-.1a5.75 5.75 0 0 1 -1.56.3c.27.19.74.57.74.57-.94.49-1.09.86-1.09.86a1.86 1.86 0 0 1 .78.07c-1.11.28-1.28.66-1.28.66a1.57 1.57 0 0 1 .46.12c-.19.15-1 1-1 1s-.83-.87-1-1a1.68 1.68 0 0 1 .47-.12s-.17-.38-1.28-.66a1.86 1.86 0 0 1 .78-.07s-.15-.37-1.09-.86c0 0 .47-.38.74-.57a5.8 5.8 0 0 1 -1.57-.3c-.59-.25-1.61-.59-2.11.1 0 0-1.3-.28-1.13.66 0 0 .4-.66 1.16.25a3 3 0 0 1 -1.24-.04 1.11 1.11 0 0 1 -.55-.44c-.08-.1-.57-.55-.47.15 0 .11.17.27.59.47a2.57 2.57 0 0 0 .93.14h.85s-.4.56-1.31 0c0 0 0 .3.54.43a9.81 9.81 0 0 1 2 .56c.47.27 1.63 1 1.48 2.21s-1.06.93-1.06.93-.73-.16-.68-1.16 0-1-.9-1.46a13.1 13.1 0 0 0 -1.77-.78c-.13 0-.26 0-.42.33a4.09 4.09 0 0 1 -3.14-2.23c-.14-.23-.71-.2-.75.74-.05 1.26 2.53 2.44 3.66 2.34.17 0 .52.49 0 .71a3.31 3.31 0 0 1 -2.93-.79c-.14-.15-.75-.24-.66.53 0 .06.38 1.78 3.62 1.1.13 0 .42 0 .05.51a2.26 2.26 0 0 1 -3.08 0c-.13-.13-.65-.31-.58.44s1.31 1.76 3.65.48c.11 0 .44.29.14.54-.59.5-2 1.47-3.14.72-.2-.12-1 0-.52.79.15.25 1.17 1 3.4-.49a.19.19 0 0 1 .2.32 3.53 3.53 0 0 1 -2.92 1.44c-.25 0-1-.18-.72.71 0 0 .51 1.51 3.39-.82.11-.09.58-.34.41.39s-2.07 2.34-3.31 1.81c-.19-.08-.88 0-.5.68.11.22 1.4 1.34 3.67-1.34.06-.07.57-.42.33.22-.38 1-1.82 2.71-3.24 2.55-.23 0-1.09-.06-.6.7.31.48 1.43 1 2.72-.5.47-.53 1.58-1.68 1.93-2.08.08-.1.41-.37.47.19s-.12 1.25-1.32 1.74c-.17.08-.49.45.24.73.21.08 1.25-.15 1.76-2 .05-.2.29-1 .75-.34.12.18-.16 1-.66 1.4-.11.08-.5.34.15.5.11 0 .63 0 1.31-1.51.05-.11.38-.7.5 0a3.23 3.23 0 0 1 -2.81 2.7c-.1 0-.42.09-.16.38.11.14.51.51.51.51l-2.55.73-1.24-.85s0-.77-.85-.39c0 0-.56-.34-.85.17 0 0 .54-.14.65.2a.62.62 0 0 0 .92.34l.91.67h-1.56s-.39-.76-1.15-.07a.57.57 0 0 0 -.54.5s.37-.33.58-.14a.65.65 0 0 0 1 0h1.54l-.91.52s-1-.35-1.07.62c0 0-.31.24-.1.79 0 0 .24-.59.44-.6s.76.24.89-.5l1.23-.71 1.23.47s0 .58.91.42c0 0 .27 0 .39.47a.59.59 0 0 0 -.18-.79s-.1-.71-.87-.43l-1.08-.36s2.4-.64 2.69-.62l.57.56a.33.33 0 0 0 .49-.05 5.72 5.72 0 0 0 .61-1c.24-.52.94-1.76 1.57-1.69 0 0 .55 0 .44.87a4 4 0 0 1 -2.16 2.67 1.05 1.05 0 0 1 -.68 0c-.19 0-1 .06-.53.54a1.15 1.15 0 0 0 .9.36.92.92 0 0 0 .84-.36c.12-.11.37-.45.61-.28s0 .5-.23.68a2 2 0 0 1 -1.25.73c-.72.05-.61.41-.37.58s1.09.39 2.08-.69c.06-.07.39-.32.33.13a1.63 1.63 0 0 1 -.92 1.27 1 1 0 0 1 -.5.06c-.25 0-.32.25-.06.54s1.1.62 1.82-1c.05-.1.29-.47.44.06s0 .86-.72 1.68a.18.18 0 0 0 -.05.16 5.69 5.69 0 0 0 1.54 2 5.65 5.65 0 0 0 1.55-2 .17.17 0 0 0 -.06-.16c-.68-.82-.85-1.22-.72-1.68s.4-.16.44-.06c.73 1.64 1.57 1.32 1.83 1s.19-.56-.07-.54a.92.92 0 0 1 -.49-.06 1.63 1.63 0 0 1 -.92-1.27c-.06-.45.27-.2.33-.13 1 1.08 1.7.95 2.07.69s.36-.53-.36-.58a2.09 2.09 0 0 1 -1.26-.73c-.2-.18-.46-.51-.22-.68s.48.17.6.28a.94.94 0 0 0 .85.36 1.14 1.14 0 0 0 .89-.36c.43-.48-.33-.58-.52-.54a1 1 0 0 1 -.68 0 3.91 3.91 0 0 1 -2.19-2.69c-.11-.88.44-.87.44-.87.62-.07 1.33 1.17 1.57 1.69a5.72 5.72 0 0 0 .61 1 .32.32 0 0 0 .48.05l.58-.56c.29 0 2.69.62 2.69.62l-1.08.36a.59.59 0 0 0 -.88.43.6.6 0 0 0 -.18.79c.13-.51.4-.47.4-.47.91.16.9-.42.9-.42l1.23-.47 1.24.71c.13.74.72.48.88.5s.44.6.44.6c.22-.55-.09-.79-.09-.79 0-1-1.07-.62-1.07-.62l-.92-.52h1.54a.66.66 0 0 0 1 0c.2-.19.57.14.57.14-.08-.53-.49-.51-.49-.51zm-6.94-16.44c.26 0 .46.1.46.22s-.2.23-.46.23-.45-.1-.45-.23.21-.22.45-.22zm-8 .45c-.25 0-.45-.1-.45-.23s.2-.22.45-.22.46.1.46.22-.19.23-.44.23z"/></svg>