<svg xmlns="http://www.w3.org/2000/svg" viewBox="0 0 40.5 40.5"><defs><style>.cls-1{fill:#0018a8;}.cls-2{fill:#d0103a;}.cls-3{fill:#fedf00;}.cls-4{fill:#c7b37f;}.cls-5{fill:#633;}.cls-6{fill:#d52b1e;}.cls-7{fill:#fff;}.cls-8{fill:#2666a1;}</style></defs><title>AND</title><g id="Layer_2" data-name="Layer 2"><g id="Ñëîé_1" data-name="Ñëîé 1"><path class="cls-1" d="M13,1.36V39.14A20.25,20.25,0,0,1,13,1.36Z"/><path class="cls-2" d="M40.5,20.25a20.24,20.24,0,0,1-13,18.89V1.36A20.26,20.26,0,0,1,40.5,20.25Z"/><path class="cls-3" d="M27.54,1.36V39.14a20.22,20.22,0,0,1-14.58,0V1.36a20.22,20.22,0,0,1,14.58,0Z"/><path class="cls-4" d="M25.88,21.88a.33.33,0,0,0-.13-.3s0-.18-.23-.18a.25.25,0,0,0-.23.18,1,1,0,0,1-.15-1.37c.13.16.51.09.51-.15a.41.41,0,0,0-.21-.34,1.2,1.2,0,0,0,.84-1.25,1.18,1.18,0,0,0-1-1.27.79.79,0,0,0-.42.11c0-.19,0-.35-.2-.35s-.13.25-.13.25l0,0a.54.54,0,0,1,.13-.71c.24-.2.7-.57.7-1a.35.35,0,0,0-.3-.39.33.33,0,0,0-.33-.26.46.46,0,0,0-.38-.27.27.27,0,0,0-.22.08s-.11-.16-.24-.16a.2.2,0,0,0-.18.1.3.3,0,0,0-.25-.13.38.38,0,0,0-.28.19c-.09,0-.35.08-.35.31s.28.28.28.28-.11.26-.8.26c-.38,0-.5-.16-.53-.3a.3.3,0,0,1,.05-.27,1.38,1.38,0,0,0,.19-.68c0-.47-.24-.58-.5-.58a1.11,1.11,0,0,0-.73.27.82.82,0,0,1-.53.15.84.84,0,0,1-.54-.15,1.11,1.11,0,0,0-.73-.27c-.25,0-.49.11-.49.58a1.28,1.28,0,0,0,.19.68.37.37,0,0,1,.05.27c0,.14-.15.3-.54.3-.68,0-.8-.26-.8-.26s.28,0,.28-.28-.25-.31-.35-.31A.38.38,0,0,0,17,14.5a.3.3,0,0,0-.25.13.2.2,0,0,0-.18-.1c-.13,0-.23.16-.23.16a.28.28,0,0,0-.23-.08.44.44,0,0,0-.37.27.33.33,0,0,0-.34.26.35.35,0,0,0-.3.39c0,.38.47.72.69.94s.27.56.14.72v0S16,17,15.8,17s-.21.16-.21.35a.73.73,0,0,0-.41-.11,1.18,1.18,0,0,0-1,1.27A1.2,1.2,0,0,0,15,19.72a.41.41,0,0,0-.2.34c0,.24.38.31.5.15a1,1,0,0,1-.14,1.37.25.25,0,0,0-.24-.18c-.24,0-.22.18-.22.18a.33.33,0,0,0-.13.3s-.13,0-.13.29.33.32.55.25a1.3,1.3,0,0,0-.47.91,1.56,1.56,0,0,0,1.28,1.6,5.39,5.39,0,0,0,1.54.18c.77,0,1.3.16,1.49.48a.46.46,0,0,0-.27.41c0,.3.4.38.4.38a.48.48,0,0,0,.74,0s.36.39.53.39.52-.39.52-.39a.49.49,0,0,0,.75,0s.39-.08.39-.38a.46.46,0,0,0-.27-.41c.2-.32.73-.47,1.49-.48a5.34,5.34,0,0,0,1.54-.18,1.56,1.56,0,0,0,1.28-1.6,1.3,1.3,0,0,0-.46-.91c.21.07.54-.06.54-.25S25.88,21.88,25.88,21.88Z"/><path class="cls-5" d="M20.22,26.78c-.16,0-.46-.31-.53-.37a.53.53,0,0,1-.37.17.65.65,0,0,1-.38-.18c-.05,0-.41-.11-.41-.4a.48.48,0,0,1,.27-.42c-.19-.29-.69-.44-1.47-.45A5.43,5.43,0,0,1,15.79,25a1.6,1.6,0,0,1-1.3-1.62,1.27,1.27,0,0,1,.43-.88.6.6,0,0,1-.39-.09.24.24,0,0,1-.11-.19c0-.22.09-.28.12-.3a.35.35,0,0,1,.13-.3.15.15,0,0,1,0-.11.24.24,0,0,1,.2-.07.26.26,0,0,1,.24.16,1,1,0,0,0,.14-1.32.32.32,0,0,1-.34.06.24.24,0,0,1-.18-.23.44.44,0,0,1,.18-.34,1.2,1.2,0,0,1-.81-1.25,1.19,1.19,0,0,1,1-1.28.75.75,0,0,1,.4.1c0-.17,0-.34.22-.34a.12.12,0,0,1,.1,0,.28.28,0,0,1,0,.17c.1-.15.11-.4-.17-.68l-.13-.13c-.24-.21-.55-.5-.55-.82a.35.35,0,0,1,.3-.4.37.37,0,0,1,.34-.27.46.46,0,0,1,.38-.27.31.31,0,0,1,.23.08.34.34,0,0,1,.23-.15.22.22,0,0,1,.18.08.31.31,0,0,1,.25-.12.37.37,0,0,1,.29.19c.1,0,.36.09.36.33s-.21.27-.28.29.22.24.78.24c.3,0,.48-.1.52-.29a.35.35,0,0,0,0-.26,1.25,1.25,0,0,1-.2-.69c0-.39.17-.59.51-.59a1.11,1.11,0,0,1,.74.27.78.78,0,0,0,.53.14.76.76,0,0,0,.52-.14,1.11,1.11,0,0,1,.74-.27c.34,0,.51.2.51.59a1.36,1.36,0,0,1-.19.69.35.35,0,0,0-.05.26c0,.19.22.29.52.29.57,0,.74-.18.78-.24s-.27-.09-.27-.29.25-.32.35-.33a.39.39,0,0,1,.29-.19.31.31,0,0,1,.25.12.22.22,0,0,1,.18-.08.36.36,0,0,1,.24.15.29.29,0,0,1,.22-.08.48.48,0,0,1,.39.27.36.36,0,0,1,.33.27.35.35,0,0,1,.31.4c0,.36-.41.71-.65.92l-.06.05a.53.53,0,0,0-.14.66.27.27,0,0,1,0-.17.14.14,0,0,1,.11,0c.18,0,.21.17.22.34a.7.7,0,0,1,.4-.1,1.19,1.19,0,0,1,1,1.28,1.2,1.2,0,0,1-.82,1.25.41.41,0,0,1,.18.34.23.23,0,0,1-.18.23.32.32,0,0,1-.34-.06,1,1,0,0,0,.14,1.32.26.26,0,0,1,.24-.16.24.24,0,0,1,.2.07.15.15,0,0,1,0,.11.32.32,0,0,1,.13.3s.13.08.13.3a.24.24,0,0,1-.11.19.63.63,0,0,1-.4.09,1.27,1.27,0,0,1,.43.88A1.59,1.59,0,0,1,24.65,25a5.52,5.52,0,0,1-1.55.18c-.78,0-1.27.16-1.46.45a.48.48,0,0,1,.26.42c0,.29-.36.39-.41.4a.61.61,0,0,1-.37.18.55.55,0,0,1-.38-.17C20.68,26.47,20.38,26.78,20.22,26.78Zm-.53-.41h0s.35.38.52.38.51-.37.51-.38h0a.52.52,0,0,0,.36.18.57.57,0,0,0,.36-.18h0s.39-.08.39-.37a.45.45,0,0,0-.26-.4s0,0,0,0h0c.19-.31.7-.47,1.5-.48a5.43,5.43,0,0,0,1.54-.18,1.56,1.56,0,0,0,1.27-1.59,1.35,1.35,0,0,0-.46-.9s0,0,0,0h0a.48.48,0,0,0,.43-.07.21.21,0,0,0,.1-.16c0-.24-.12-.27-.12-.27s0,0,0,0a.32.32,0,0,0-.12-.29,0,0,0,0,1,0,0,.12.12,0,0,0,0-.1.24.24,0,0,0-.18-.06.24.24,0,0,0-.22.16s0,0,0,0,0,0,0,0a1,1,0,0,1-.15-1.39h0a.3.3,0,0,0,.32.06.22.22,0,0,0,.16-.2.38.38,0,0,0-.2-.33v0a0,0,0,0,1,0,0,1.15,1.15,0,0,0,.82-1.23,1.16,1.16,0,0,0-1-1.25.78.78,0,0,0-.41.11h0s0,0,0,0c0-.23-.06-.33-.19-.33a.1.1,0,0,0-.08,0,.26.26,0,0,0,0,.19s0,0,0,0h0l0,0a.55.55,0,0,1,.13-.73l.06,0c.24-.2.64-.55.64-.89a.33.33,0,0,0-.29-.37h0a.33.33,0,0,0-.31-.26h0a.41.41,0,0,0-.36-.26.28.28,0,0,0-.21.07h0s-.1-.15-.22-.15a.2.2,0,0,0-.17.09h0a.29.29,0,0,0-.24-.13.33.33,0,0,0-.26.19h0c-.08,0-.33.08-.33.3s.26.26.27.26h0s-.13.28-.82.28c-.39,0-.52-.17-.55-.31a.42.42,0,0,1,.05-.29,1.27,1.27,0,0,0,.19-.67c0-.38-.16-.56-.48-.56a1.15,1.15,0,0,0-.72.26.77.77,0,0,1-.54.15.78.78,0,0,1-.55-.15,1.1,1.1,0,0,0-.72-.26c-.32,0-.48.18-.48.56a1.27,1.27,0,0,0,.19.67.34.34,0,0,1,.05.29c0,.14-.15.31-.55.31-.69,0-.81-.26-.82-.28h0s.26,0,.26-.26-.24-.3-.33-.3h0a.36.36,0,0,0-.27-.19.25.25,0,0,0-.23.13h0a.18.18,0,0,0-.17-.09c-.12,0-.22.15-.22.15h0a.28.28,0,0,0-.21-.07.43.43,0,0,0-.36.26h0a.33.33,0,0,0-.31.26h0s-.28,0-.28.37.31.59.54.8l.14.13c.3.3.27.58.15.74l0,0h0s0,0,0,0a.3.3,0,0,0,0-.19.11.11,0,0,0-.08,0c-.14,0-.19.1-.19.33,0,0,0,0,0,0h0a.72.72,0,0,0-.4-.11,1.16,1.16,0,0,0-1,1.25A1.16,1.16,0,0,0,15,19.7h0s0,0,0,0a.4.4,0,0,0-.2.33.22.22,0,0,0,.16.2.3.3,0,0,0,.32-.06h0a1,1,0,0,1-.15,1.39s0,0,0,0a0,0,0,0,1,0,0,.24.24,0,0,0-.22-.16.21.21,0,0,0-.17.06.16.16,0,0,0,0,.1,0,0,0,0,1,0,0,.34.34,0,0,0-.12.29s0,0,0,0-.11,0-.11.27a.18.18,0,0,0,.1.16.46.46,0,0,0,.42.07h0a0,0,0,0,1,0,0,1.31,1.31,0,0,0-.46.9,1.56,1.56,0,0,0,1.27,1.59,5.35,5.35,0,0,0,1.53.18q1.22,0,1.5.48h0a.45.45,0,0,0-.26.4c0,.29.38.37.38.37h0a.57.57,0,0,0,.36.18.48.48,0,0,0,.36-.18Z"/><path class="cls-5" d="M25.29,21.58A1.16,1.16,0,0,1,25,21.3a.81.81,0,0,1-.12-.37.86.86,0,0,1,0-.39,1,1,0,0,1,.19-.33,1.51,1.51,0,0,0-.14.35,1.1,1.1,0,0,0,0,.36,1.08,1.08,0,0,0,.1.35A1.6,1.6,0,0,0,25.29,21.58Z"/><path class="cls-5" d="M17.36,15.28a.62.62,0,0,0,.19-.12.31.31,0,0,0,.05-.1.31.31,0,0,0,0-.1.29.29,0,0,0-.11-.18.5.5,0,0,0-.21-.09.42.42,0,0,1,.24.05l.09.09a.61.61,0,0,1,.05.12.57.57,0,0,1,0,.13.28.28,0,0,1-.08.11A.36.36,0,0,1,17.36,15.28Z"/><path class="cls-5" d="M15.22,24.69A2.57,2.57,0,0,0,16,25a4.89,4.89,0,0,0,.78.11l.39,0h.4a2.58,2.58,0,0,1,.78.16,2.7,2.7,0,0,0-.39-.08l-.39,0h-.4l-.4,0A4.31,4.31,0,0,1,16,25l-.38-.12A2.37,2.37,0,0,1,15.22,24.69Z"/><path class="cls-5" d="M20.22,26.77l0,0h0l0,0,0,0,.12-.11a1.65,1.65,0,0,0,.24-.22h0l.08.07,0,0h0a.34.34,0,0,0,.19.05.41.41,0,0,0,.19-.05.48.48,0,0,0,.16-.12h0a.58.58,0,0,0,.24-.11l.05,0,0-.05,0,0V26s0,0,0-.06a.11.11,0,0,0,0-.06s0,0,0-.06a.52.52,0,0,0-.19-.2.48.48,0,0,1,.23.17l0,.06s0,0,0,0a0,0,0,0,1,0,0,.22.22,0,0,1,0,.08v.11a.06.06,0,0,0,0,0s0,.05,0,.07l-.05.06,0,0-.13.08-.14,0h0a.62.62,0,0,1-.18.14.54.54,0,0,1-.22.05.38.38,0,0,1-.21-.05h0l0,0-.05,0-.08-.07h0a1.31,1.31,0,0,1-.24.23.42.42,0,0,1-.14.09A.33.33,0,0,1,20.22,26.77Z"/><path class="cls-5" d="M21.61,25.59a1,1,0,0,1,.13-.16l0,0,0,0,.09-.06a1.74,1.74,0,0,1,.38-.14,2.79,2.79,0,0,1,.4-.07l.41,0a7.26,7.26,0,0,0,.8,0,4,4,0,0,0,.78-.15,2,2,0,0,0,.7-.37,1.42,1.42,0,0,0,.26-.29,1.19,1.19,0,0,0,.17-.36,1.59,1.59,0,0,0,.08-.39v-.24a.43.43,0,0,0,0,0v-.05s0,0,0-.05a1.25,1.25,0,0,0-.15-.36,1.89,1.89,0,0,0-.25-.31,1.54,1.54,0,0,1,.28.29,1.16,1.16,0,0,1,.18.37s0,0,0,.05v.05a.09.09,0,0,1,0,.05v.05a.43.43,0,0,0,0,0v.16a1.89,1.89,0,0,1-.08.4,1.56,1.56,0,0,1-.17.37,1.38,1.38,0,0,1-.28.31,2,2,0,0,1-.72.38,3.67,3.67,0,0,1-.79.15,7.32,7.32,0,0,1-.81,0,4.26,4.26,0,0,0-.8.09,1.66,1.66,0,0,0-.38.11A.84.84,0,0,0,21.61,25.59Z"/><path class="cls-5" d="M25.46,22.42a.49.49,0,0,0,.24,0l.11,0,.1-.07a.24.24,0,0,0,.06-.09v-.12a.49.49,0,0,0,0-.11.05.05,0,0,0,0,0s0,0,0,0h0s0,0,0,0V21.8s0-.05,0-.08l0-.07s0,0-.05,0h0v0a.17.17,0,0,0,0-.07l0-.06-.07,0h0s.06,0,.08,0,.05,0,.07.06a.29.29,0,0,1,0,.09v0l.07.06a.35.35,0,0,1,.05.08.29.29,0,0,1,0,.09.28.28,0,0,1,0,.09l0,0,0,0,0,0A.09.09,0,0,1,26,22a.5.5,0,0,1,0,.13v.1a0,0,0,0,1,0,0,.24.24,0,0,1-.07.12l-.12.07a.53.53,0,0,1-.12,0A.42.42,0,0,1,25.46,22.42Z"/><path class="cls-5" d="M25.44,19.72a1.2,1.2,0,0,0,.64-.53,1.3,1.3,0,0,0,.14-.39v-.31a.31.31,0,0,0,0-.1,1.41,1.41,0,0,0-.07-.41l0-.1,0-.09L26,17.7l0-.05,0,0a1,1,0,0,0-.32-.27,1.07,1.07,0,0,0-.39-.14,1.52,1.52,0,0,1,.21,0l.1,0,.05,0,.05,0a1.27,1.27,0,0,1,.34.27l0,0,0,.05.06.09a.41.41,0,0,0,.05.09l0,.11a2,2,0,0,1,.08.42v.22a.09.09,0,0,0,0,0v.06s0,.07,0,.1a1.21,1.21,0,0,1-.16.41,1.1,1.1,0,0,1-.29.32A1.38,1.38,0,0,1,25.44,19.72Z"/><path class="cls-5" d="M24.51,17.21a.48.48,0,0,1-.13-.3.28.28,0,0,1,0-.09.08.08,0,0,1,0,0s0,0,0,0a1.09,1.09,0,0,1,.08-.15.63.63,0,0,1,.11-.12l.12-.11a2.39,2.39,0,0,0,.23-.22,1.59,1.59,0,0,0,.2-.24.79.79,0,0,0,.13-.28.76.76,0,0,0,0-.15.57.57,0,0,0,0-.14.52.52,0,0,0-.1-.11L25,15.17h0s0,0,0,0a1,1,0,0,1,0-.1L24.89,15l-.09-.06a.23.23,0,0,0-.11,0,.31.31,0,0,1,.22.06L25,15l0,.06s0,0,0,.05l0,0a.49.49,0,0,1,.17.06.28.28,0,0,1,.11.13.54.54,0,0,1,0,.33.85.85,0,0,1-.13.31l-.21.25-.24.22-.12.1-.1.12a.54.54,0,0,0-.07.13s0,0,0,.08,0,.05,0,.07A.41.41,0,0,0,24.51,17.21Z"/><path class="cls-5" d="M20.72,15.54a.13.13,0,0,1,0-.14c0-.06.06-.09.13-.09s.18.08.18.08h0s0-.06-.15-.06a.09.09,0,0,0-.1.07.09.09,0,0,0,0,.1Z"/><path class="cls-5" d="M23,15.32c0-.06.09-.09.12-.14l.05-.07a.08.08,0,0,0,0,0,0,0,0,0,0,0,0,.14.14,0,0,0,0-.07.1.1,0,0,0-.07,0,.1.1,0,0,0-.07,0A.07.07,0,0,0,23,15a.1.1,0,0,1,0-.09.13.13,0,0,1,.1,0,.12.12,0,0,1,.09,0,.18.18,0,0,1,0,.1v.05s0,0,0,.05l-.06.07C23.14,15.25,23.05,15.33,23,15.32Z"/><path class="cls-5" d="M24,15.51h0a0,0,0,0,1,0,0,.54.54,0,0,0,.15-.76,0,0,0,0,1,0,0,0,0,0,0,1,0,0,.58.58,0,0,1-.15.82Z"/><path class="cls-5" d="M23.52,15.5h0a0,0,0,0,1,0,0,.66.66,0,0,0,.27-.43.59.59,0,0,0-.12-.39,0,0,0,0,1,0,0h0a.71.71,0,0,1,.13.43.69.69,0,0,1-.29.45Z"/><path class="cls-5" d="M24.34,15.78h0s0,0,0,0a.76.76,0,0,0,.35-.85s0,0,0,0,0,0,0,0a.81.81,0,0,1-.36.9Z"/><path class="cls-5" d="M24.53,17.52c-.26,0-.41-.22-.41-.59a1,1,0,0,1,.41-.77h0c.63-.59.46-1,.46-1a0,0,0,0,1,0,0,0,0,0,0,1,0,0s.19.44-.46,1l0,0a1,1,0,0,0-.4.74c0,.36.14.56.38.56a.35.35,0,0,0,.3-.18h0s0,0,0,0A.38.38,0,0,1,24.53,17.52Z"/><path class="cls-5" d="M25.05,15.13a.39.39,0,0,1,0,.15v.08s0,.05,0,.08a.19.19,0,0,1,0,.07l0,.07a.83.83,0,0,1-.07.13.57.57,0,0,1-.08.13l-.09.11-.11.11-.1.1.1-.11.09-.11.09-.12.07-.12a1.39,1.39,0,0,0,.06-.13l0-.07a.64.64,0,0,1,0-.07.15.15,0,0,1,0-.07v-.07s0,0,0-.07,0-.05,0-.07h0s0,0,0,0,0,0,0,0Z"/><path class="cls-5" d="M24.8,18.45a.61.61,0,0,1-.35-.11.8.8,0,0,1-.33-.57.44.44,0,0,1,.16-.37h0a0,0,0,0,1,0,0,.46.46,0,0,0-.15.35.77.77,0,0,0,.32.55.63.63,0,0,0,.63,0h0a0,0,0,0,1,0,0A.81.81,0,0,1,24.8,18.45Z"/><path class="cls-5" d="M24.83,18.78c-.5,0-.71-.33-.71-.5a.21.21,0,0,1,.12-.2h0a0,0,0,0,1,0,0,.2.2,0,0,0-.1.17c0,.12.17.46.68.46a.57.57,0,0,0,.59-.42s0,0,0,0,0,0,0,0A.62.62,0,0,1,24.83,18.78Z"/><path class="cls-5" d="M24.5,19.34h0a.56.56,0,0,1-.37-.54.34.34,0,0,1,.12-.29h0a0,0,0,0,1,0,0s-.11.06-.11.26a.53.53,0,0,0,.36.51,0,0,0,0,1,0,0A0,0,0,0,1,24.5,19.34Z"/><path class="cls-5" d="M24.38,20.22h0a.58.58,0,0,1-.25-.49.63.63,0,0,1,.22-.51h0s0,0,0,0a.57.57,0,0,0-.21.48.53.53,0,0,0,.23.46s0,0,0,0Z"/><path class="cls-5" d="M24.44,21.79h0a1,1,0,0,1-.31-.83,1.32,1.32,0,0,1,.39-.94h0v0a1.34,1.34,0,0,0-.38.92,1,1,0,0,0,.3.8,0,0,0,0,1,0,0Z"/><path class="cls-5" d="M25,18.17h0a.33.33,0,0,1-.28-.15.71.71,0,0,1,0-.55h0a0,0,0,0,1,0,0,.67.67,0,0,0,0,.52.31.31,0,0,0,.53,0,.33.33,0,0,0-.08-.35s0,0,0,0,0,0,0,0c.15.18.13.3.09.38A.36.36,0,0,1,25,18.17Z"/><path class="cls-5" d="M25.44,19.73c-.5,0-.76-.15-.76-.44a.35.35,0,0,1,.34-.37.24.24,0,0,1,.26.22c0,.09-.08.15-.16.19a.7.7,0,0,0,.36-.19.82.82,0,0,0,.22-.61c0-.81-.53-.88-.55-.88s0,0,0,0l0,0s.58.08.58.92a.88.88,0,0,1-.23.64.76.76,0,0,1-.5.21s0,0,0,0,0,0,0,0,.24-.07.24-.21S25.1,19,25,19a.33.33,0,0,0-.31.34c0,.34.4.41.73.41l0,0S25.45,19.73,25.44,19.73Z"/><path class="cls-5" d="M24.94,17.9h-.05c-.05,0-.05-.11-.05-.12a.18.18,0,0,1,.06-.15.3.3,0,0,1,.25,0s0,0,0,0h0a.31.31,0,0,0-.22,0,.17.17,0,0,0-.05.13.14.14,0,0,0,0,.1.14.14,0,0,0,.1,0,0,0,0,0,1,0,0s0,0,0,0Z"/><path class="cls-5" d="M25.28,19.46a.38.38,0,0,1-.32-.12.19.19,0,0,1,0-.19h0s0,0,0,0,0,.11,0,.15a.33.33,0,0,0,.29.11c.17,0,.67-.17.67-.93s-.47-1-.72-1a.33.33,0,0,0-.33.18h0s0,0,0,0a.37.37,0,0,1,.36-.2c.26,0,.75.31.75,1.05S25.46,19.46,25.28,19.46Z"/><path class="cls-5" d="M25.46,22.44h0a1.6,1.6,0,0,1-1-1.44,1.29,1.29,0,0,1,.72-1.31s0,0,0,0,0,0,0,0a1.25,1.25,0,0,0-.7,1.28,1.57,1.57,0,0,0,1,1.41,0,0,0,0,1,0,0Z"/><path class="cls-5" d="M25.14,20.22h0a.39.39,0,0,1-.05-.25h0a0,0,0,0,1,0,0,.37.37,0,0,0,0,.22,0,0,0,0,1,0,0Z"/><path class="cls-5" d="M25.62,22.2a1.27,1.27,0,0,1-1-1.17c0-.7.41-1.14.58-1.14s.17.11.17.11a0,0,0,0,1,0,0h0s0-.09-.14-.09-.54.4-.54,1.11a1.25,1.25,0,0,0,.93,1.14.11.11,0,0,0,.08,0,.16.16,0,0,0,0-.1s0,0,0,0,0,0,0,0a.14.14,0,0,1,0,.13A.12.12,0,0,1,25.62,22.2Z"/><path class="cls-5" d="M25.15,19.93a1,1,0,0,0-.25.31,1.42,1.42,0,0,0-.14.36,1.32,1.32,0,0,0-.06.39,1,1,0,0,0,0,.39.76.76,0,0,1-.08-.39,1.4,1.4,0,0,1,.05-.41,1.34,1.34,0,0,1,.16-.37,1,1,0,0,1,.13-.16A.61.61,0,0,1,25.15,19.93Z"/><path class="cls-5" d="M25.38,20h0s0-.09-.14-.09l-.07,0h0a0,0,0,0,1,0,0l.09,0c.17,0,.17.11.17.11a0,0,0,0,1,0,0Z"/><path class="cls-5" d="M25.48,22.17h0a.3.3,0,0,1,0-.29.21.21,0,0,1,.2-.1.36.36,0,0,1,.22.1s0,0,0,0,0,0,0,0a.32.32,0,0,0-.2-.09.19.19,0,0,0-.17.08.25.25,0,0,0,0,.26s0,0,0,0Z"/><path class="cls-5" d="M25.44,22h0a.24.24,0,0,1-.1-.26.3.3,0,0,1,.25-.2.27.27,0,0,1,.18,0,0,0,0,0,1,0,0,0,0,0,0,1,0,0h0a.26.26,0,0,0-.16,0,.25.25,0,0,0-.22.17.21.21,0,0,0,.09.22v0Z"/><path class="cls-5" d="M25.34,21.85h0a.38.38,0,0,1-.05-.26l0,0v0a.42.42,0,0,0,.05.25,0,0,0,0,1,0,0Z"/><path class="cls-5" d="M25.34,21.85h0a.85.85,0,0,1-.38-.36s0,0,0,0,0,0,0,0a.8.8,0,0,0,.36.34s0,0,0,0A0,0,0,0,1,25.34,21.85Z"/><path class="cls-5" d="M24.5,23.47a.51.51,0,0,1-.36-.23.62.62,0,0,1-.07-.58c.2-.64,1-.49,1-.48s0,0,0,0h0s-.75-.15-.95.46a.59.59,0,0,0,.07.56.5.5,0,0,0,.33.21.3.3,0,0,0,.3-.25c0-.16-.11-.19-.2-.2a.12.12,0,0,0-.12,0,.14.14,0,0,0,0,.14s0,0,0,0h0q-.06-.12,0-.18A.14.14,0,0,1,24.6,23a.22.22,0,0,1,.23.23A.33.33,0,0,1,24.5,23.47Z"/><path class="cls-5" d="M24.41,23.43h.14a.31.31,0,0,0,.13-.06.28.28,0,0,0,.09-.1s0-.05,0-.07h0v0s0,0,0,0a.14.14,0,0,0,0-.06.1.1,0,0,0-.05,0,.26.26,0,0,0-.12-.05.12.12,0,0,0-.12.05.15.15,0,0,0,0,.07s0,0,0,.07l0,0s0,0,0,0a.11.11,0,0,1,0-.08L24.5,23h.17l.08,0a.17.17,0,0,1,.06.06.11.11,0,0,1,0,.08s0,0,0,0v0s0,.06,0,.08a.32.32,0,0,1-.11.12.3.3,0,0,1-.15.05h-.08Z"/><path class="cls-5" d="M25.26,22.54h0a.91.91,0,0,0-1.05-.08h0a0,0,0,0,1,0,0,.92.92,0,0,1,1.09.07,0,0,0,0,1,0,0Z"/><path class="cls-5" d="M20.22,25.77a0,0,0,0,1,0,0c0-.67,1.29-1,1.73-1.05a15.84,15.84,0,0,1,1.73-.06c.77,0,1.56-.36,1.56-1.07s-.51-.71-.52-.71a.21.21,0,0,0-.23.18,0,0,0,0,1,0,0s0,0,0,0a.25.25,0,0,1,.26-.21s.55,0,.55.74-.8,1.11-1.59,1.11a16.45,16.45,0,0,0-1.73.05c-.5.05-1.7.41-1.7,1C20.23,25.76,20.23,25.77,20.22,25.77Z"/><path class="cls-5" d="M21.49,26.38a.55.55,0,0,1-.57-.47c0-.64,1-1,2.53-1a2.46,2.46,0,0,0,1.62-.49,1.21,1.21,0,0,0,.46-.86.92.92,0,0,0-.88-1,.44.44,0,0,0-.34.13.78.78,0,0,0-.18.49s0,0,0,0,0,0,0,0a.82.82,0,0,1,.18-.51.53.53,0,0,1,.37-.14.94.94,0,0,1,.91,1,1.26,1.26,0,0,1-.47.88,2.43,2.43,0,0,1-1.64.51c-1.54,0-2.5.38-2.5,1a.53.53,0,0,0,.54.44,0,0,0,0,1,0,0Z"/><path class="cls-5" d="M20.75,26.39h0a.52.52,0,0,1-.2-.48c0-.36.23-.61.79-.85h0s0,0,0,0c-.55.24-.77.47-.77.82s.19.45.19.45,0,0,0,0S20.76,26.39,20.75,26.39Z"/><path class="cls-5" d="M20.58,26.14a.38.38,0,0,1-.38-.39,0,0,0,0,1,0,0s0,0,0,0a.35.35,0,0,0,.35.36s0,0,0,0Z"/><path class="cls-5" d="M21.45,26.1a.23.23,0,0,1-.25-.23.26.26,0,0,1,.09-.21.46.46,0,0,1,.32-.09,0,0,0,0,1,0,0,0,0,0,0,1,0,0,.41.41,0,0,0-.3.07.24.24,0,0,0-.08.19.19.19,0,0,0,.22.2.11.11,0,0,0,.11-.07.16.16,0,0,0,0-.16v0h0a.2.2,0,0,1,0,.2A.13.13,0,0,1,21.45,26.1Z"/><path class="cls-5" d="M21.31,26.05h.11s.08,0,.11,0a.05.05,0,0,0,0,0s0,0,0,0a.13.13,0,0,0,0-.06s0,0,0-.05l.05.05a.13.13,0,0,1,0,.06.13.13,0,0,1,0,.13h-.14A.22.22,0,0,1,21.31,26.05Z"/><path class="cls-5" d="M16.31,22.53a1.48,1.48,0,0,0,.66.87l.26.11.27.07a2.54,2.54,0,0,0,.55,0,5,5,0,0,0,.56-.07,3.63,3.63,0,0,1,.57,0,1.84,1.84,0,0,1,.57.09,1.25,1.25,0,0,1,.47.31L20,23.74a1.12,1.12,0,0,0-.25-.11,2.1,2.1,0,0,0-.56-.07,5.46,5.46,0,0,0-.56,0,5,5,0,0,1-.56.07,2.69,2.69,0,0,1-.57,0l-.28-.08a1.23,1.23,0,0,1-.26-.12,1.31,1.31,0,0,1-.42-.39A1.48,1.48,0,0,1,16.31,22.53Z"/><path class="cls-5" d="M20.23,24l-.05-.05A2.06,2.06,0,0,1,22,23.56l.26,0a1.81,1.81,0,0,0,1.43-.37,1.36,1.36,0,0,0,.43-.81V15.75h.06v6.67a1.38,1.38,0,0,1-.45.85,1.85,1.85,0,0,1-1.48.39l-.26,0A1.94,1.94,0,0,0,20.23,24Z"/><path class="cls-5" d="M19.35,14.71a.22.22,0,0,1,0-.13.18.18,0,0,1,.14,0,.84.84,0,0,1,.23.12.77.77,0,0,0,.46.15.74.74,0,0,0,.45-.15l.11-.07.12,0H21l.06,0a.14.14,0,0,1,0,.13.17.17,0,0,0-.06-.1h-.1a1.06,1.06,0,0,0-.21.11.87.87,0,0,1-.49.16.84.84,0,0,1-.49-.16l-.11-.06-.11-.05h-.1A.17.17,0,0,0,19.35,14.71Z"/><path class="cls-5" d="M22.25,15.78A2.35,2.35,0,0,1,21,15.43a.27.27,0,0,1,0,.25.29.29,0,0,1-.23.1.33.33,0,0,1-.33-.32.34.34,0,0,1,.37-.37,1.42,1.42,0,0,1,.6.18.61.61,0,0,1,.13-.57l.07-.11a.48.48,0,0,0,.09-.36.21.21,0,0,0-.14-.17.57.57,0,0,0-.45.13,1.67,1.67,0,0,1-.81.25h-.09a1.67,1.67,0,0,1-.81-.25.54.54,0,0,0-.44-.13.21.21,0,0,0-.14.17.47.47,0,0,0,.08.36l.07.11a.58.58,0,0,1,.14.57,1.37,1.37,0,0,1,.6-.18.34.34,0,0,1,.36.37.33.33,0,0,1-.32.32.3.3,0,0,1-.24-.1.34.34,0,0,1,0-.25,2.3,2.3,0,0,1-1.25.35c-.78,0-1.28-.44-1.28-.75a.36.36,0,0,1,.38-.36v0s-.35,0-.35.33.49.72,1.25.72a2.28,2.28,0,0,0,1.27-.37l0,0,0,.05a.28.28,0,0,0,0,.26.23.23,0,0,0,.21.09.3.3,0,0,0,.29-.29.31.31,0,0,0-.33-.34,1.45,1.45,0,0,0-.62.2l0,0,0,0a.62.62,0,0,0-.12-.59l-.08-.1a.54.54,0,0,1-.08-.39.22.22,0,0,1,.16-.19.54.54,0,0,1,.47.14,1.69,1.69,0,0,0,.8.24h.08a1.65,1.65,0,0,0,.79-.24.56.56,0,0,1,.48-.14.24.24,0,0,1,.16.19.51.51,0,0,1-.09.39.86.86,0,0,1-.07.1.57.57,0,0,0-.12.59v0l0,0a1.38,1.38,0,0,0-.61-.2.31.31,0,0,0-.34.34.3.3,0,0,0,.3.29.23.23,0,0,0,.2-.09.26.26,0,0,0,0-.26v-.05h0a2.32,2.32,0,0,0,1.29.39c.76,0,1.24-.42,1.24-.72a.34.34,0,0,0-.35-.33v0a.36.36,0,0,1,.39.36C23.53,15.34,23,15.78,22.25,15.78Z"/><path class="cls-5" d="M20.73,15.77l.12-.07a.34.34,0,0,0,.08-.09.56.56,0,0,0,0-.12.31.31,0,0,0,0-.13.2.2,0,0,1,.08.13.28.28,0,0,1,0,.15.29.29,0,0,1-.11.11A.23.23,0,0,1,20.73,15.77Z"/><path class="cls-5" d="M18.35,15.76l.31-.07A1.4,1.4,0,0,0,19,15.6l.29-.11c.09-.05.23-.15.28-.14a1.51,1.51,0,0,1-.26.18l-.14.07-.15.06-.07,0-.08,0-.15,0A1.72,1.72,0,0,1,18.35,15.76Z"/><path class="cls-5" d="M19,15.3a.53.53,0,0,0,0-.25.43.43,0,0,0-.09-.22l-.07-.11-.07-.11a.87.87,0,0,1-.1-.24.61.61,0,0,1,0-.14.29.29,0,0,1,.05-.13l0,0,.07,0H19a.75.75,0,0,1,.25.09l.11.06.11.06a2.77,2.77,0,0,0,.49.15l.12,0h.12l.25,0A2.46,2.46,0,0,0,21,14.2l.11-.06.12-.06a.53.53,0,0,1,.25-.05.31.31,0,0,0-.13,0l-.11,0-.1.07-.11.08a1.17,1.17,0,0,1-.24.09l-.26.07-.25,0h-.14l-.12,0a2.88,2.88,0,0,1-.5-.15l-.06,0-.06,0-.11-.07a.9.9,0,0,0-.23-.08h-.11a.15.15,0,0,0-.09.06.36.36,0,0,0,0,.11.24.24,0,0,0,0,.12.65.65,0,0,0,.08.22c0,.07.1.14.15.21a.59.59,0,0,1,.07.26A.7.7,0,0,1,19,15.3Z"/><path class="cls-5" d="M19.71,15.54v0a.1.1,0,0,0,0-.1s0-.07-.09-.07-.16.06-.16.06h0s0-.08.19-.08a.11.11,0,0,1,.12.09A.12.12,0,0,1,19.71,15.54Z"/><path class="cls-5" d="M17.35,15.29a.3.3,0,0,1-.18-.23c0-.1,0-.17.13-.17s.13,0,.13.12h0c0-.06,0-.09-.1-.09s-.1.05-.1.14a.26.26,0,0,0,.17.2Z"/><path class="cls-5" d="M16.47,15.5a.58.58,0,0,1-.13-.82l0,0a.55.55,0,0,0,.14.77Z"/><path class="cls-5" d="M16.91,15.49h0a.7.7,0,0,1-.28-.45.66.66,0,0,1,.13-.42h0s0,0,0,0a.53.53,0,0,0-.13.4.67.67,0,0,0,.27.42s0,0,0,0Z"/><path class="cls-5" d="M16.09,15.77h0a.8.8,0,0,1-.35-.9h0a0,0,0,0,1,0,0,.76.76,0,0,0,.34.86s0,0,0,0Z"/><path class="cls-5" d="M15.9,17.52a.36.36,0,0,1-.32-.2,0,0,0,0,1,0,0h0a.32.32,0,0,0,.29.18c.25,0,.38-.2.38-.56a1,1,0,0,0-.39-.74l0,0c-.66-.6-.48-1-.47-1a0,0,0,0,1,0,0s0,0,0,0-.18.41.46,1h0a1,1,0,0,1,.4.77C16.31,17.3,16.16,17.52,15.9,17.52Z"/><path class="cls-5" d="M16.3,16.93a.76.76,0,0,1,0,.3.42.42,0,0,1-.17.25.39.39,0,0,1-.3,0,.32.32,0,0,1-.22-.2.41.41,0,0,0,.23.16.29.29,0,0,0,.13,0,.29.29,0,0,0,.13,0,.26.26,0,0,0,.09-.09l0-.06a.14.14,0,0,0,0-.06A1.28,1.28,0,0,0,16.3,16.93Z"/><path class="cls-5" d="M16.15,17.41a.48.48,0,0,1,.17.4.8.8,0,0,1-.18.41.61.61,0,0,1-.17.15.54.54,0,0,1-.21.08.83.83,0,0,1-.44-.08.9.9,0,0,0,.43,0,.77.77,0,0,0,.46-.4.66.66,0,0,0,.06-.2A.48.48,0,0,0,16.15,17.41Z"/><path class="cls-5" d="M16.19,18.09a.2.2,0,0,1,.09.09.24.24,0,0,1,0,.12.44.44,0,0,1-.1.23.77.77,0,0,1-.19.17,1.13,1.13,0,0,1-.24.08h-.25a.68.68,0,0,1-.24-.08.58.58,0,0,1-.29-.38.65.65,0,0,0,.31.34.9.9,0,0,0,.22.06h.24a.69.69,0,0,0,.4-.22.44.44,0,0,0,.11-.2A.22.22,0,0,0,16.19,18.09Z"/><path class="cls-5" d="M16.18,18.53s.07,0,.1.08a.5.5,0,0,1,0,.13.53.53,0,0,1,0,.25.34.34,0,0,1-.06.12.39.39,0,0,1-.08.1.7.7,0,0,1-.23.11.7.7,0,0,0,.19-.15.41.41,0,0,0,.12-.2.36.36,0,0,0,0-.11.49.49,0,0,0,0-.12.36.36,0,0,0,0-.11A.17.17,0,0,0,16.18,18.53Z"/><path class="cls-5" d="M16.09,19.23a.49.49,0,0,1,.18.22.67.67,0,0,1,.06.28.58.58,0,0,1-.07.28.46.46,0,0,1-.2.19.65.65,0,0,0,.16-.21.61.61,0,0,0,0-.13.15.15,0,0,0,0-.07v-.06a.75.75,0,0,0,0-.26A.7.7,0,0,0,16.09,19.23Z"/><path class="cls-5" d="M15.92,20a1.42,1.42,0,0,1,.29.39,1.55,1.55,0,0,1,.08.23,1,1,0,0,1,0,.24,1.16,1.16,0,0,1-.06.49.88.88,0,0,1-.1.22.73.73,0,0,1-.17.18,1,1,0,0,0,.22-.42.35.35,0,0,0,0-.11s0-.08,0-.12V21s0,0,0-.06V20.9a1.23,1.23,0,0,0-.1-.46A1.52,1.52,0,0,0,15.92,20Z"/><path class="cls-5" d="M15.76,17.47a.47.47,0,0,1,.06.2.67.67,0,0,1,0,.2.4.4,0,0,1-.09.2.3.3,0,0,1-.19.1H15.5a.06.06,0,0,1-.06,0,.19.19,0,0,1-.1,0,.28.28,0,0,1-.16-.14l0-.05s0,0,0-.06,0,0,0,0a.43.43,0,0,1,0-.05.59.59,0,0,1,.13-.18s-.08.12-.1.19a.28.28,0,0,0,0,.18.36.36,0,0,0,.14.11l.09,0h.09a.28.28,0,0,0,.24-.24.67.67,0,0,0,0-.2C15.79,17.61,15.76,17.53,15.76,17.47Z"/><path class="cls-5" d="M15,19.73s0,0,0,0,0,0,0,0c.34,0,.74-.07.74-.41a.33.33,0,0,0-.31-.34c-.09,0-.23.06-.23.19s.24.2.25.21h0a0,0,0,0,1,0,0,.76.76,0,0,1-.5-.21.87.87,0,0,1-.22-.64c0-.84.57-.92.57-.92l0,0s0,0,0,0-.55.07-.55.88a.86.86,0,0,0,.21.62.76.76,0,0,0,.36.18c-.07,0-.15-.1-.15-.19a.24.24,0,0,1,.26-.22.35.35,0,0,1,.34.37C15.76,19.58,15.49,19.73,15,19.73Z"/><path class="cls-5" d="M15.29,17.63a.51.51,0,0,0-.26.14.55.55,0,0,0-.17.23,1.2,1.2,0,0,0-.11.56,1.35,1.35,0,0,0,.05.29.6.6,0,0,0,.13.25.74.74,0,0,0,.5.26h-.15l-.14,0a.64.64,0,0,1-.25-.18.68.68,0,0,1-.15-.26,1.06,1.06,0,0,1-.05-.31c0-.1,0-.2,0-.3a.19.19,0,0,0,0-.07s0-.05,0-.08l0-.07v0h0v0a.74.74,0,0,1,.2-.23A.57.57,0,0,1,15.29,17.63Z"/><path class="cls-5" d="M15.42,18.94a.3.3,0,0,1,.18,0l.08.06a.41.41,0,0,1,.05.09.43.43,0,0,1,0,.19.31.31,0,0,1-.06.19.4.4,0,0,1-.16.13.64.64,0,0,1-.18.06,1.22,1.22,0,0,1-.38,0,2.2,2.2,0,0,0,.37-.07.44.44,0,0,0,.16-.06.36.36,0,0,0,.13-.11.25.25,0,0,0,.06-.16.32.32,0,0,0,0-.17A.35.35,0,0,0,15.42,18.94Z"/><path class="cls-5" d="M15.5,17.9l-.09,0a0,0,0,0,1,0,0s0,0,0,0,.08,0,.1,0a.12.12,0,0,0,.05-.1.15.15,0,0,0-.06-.13.31.31,0,0,0-.22,0h0a0,0,0,0,1,0,0s.16-.06.25,0a.18.18,0,0,1,.07.15.17.17,0,0,1-.06.12Z"/><path class="cls-5" d="M15.16,19.46c-.19,0-.71-.18-.71-1s.49-1.05.76-1.05a.37.37,0,0,1,.36.2s0,0,0,0,0,0,0,0a.37.37,0,0,0-.33-.18c-.26,0-.73.3-.73,1s.5.93.68.93a.33.33,0,0,0,.29-.11.16.16,0,0,0,0-.15,0,0,0,0,1,0,0h0a.2.2,0,0,1,0,.19A.36.36,0,0,1,15.16,19.46Z"/><path class="cls-4" d="M20.22,15.77H16.3v6.65c0,.1.2,1.37,1.89,1.21.51-.05,1.48-.3,2,.28.55-.58,1.51-.33,2-.28,1.69.16,1.9-1.11,1.9-1.21V15.77Z"/><path class="cls-5" d="M20.22,23.94v0a2,2,0,0,0-1.76-.31l-.26,0a1.79,1.79,0,0,1-1.47-.38,1.41,1.41,0,0,1-.44-.84V15.75h7.87v6.67a1.35,1.35,0,0,1-.44.84,1.79,1.79,0,0,1-1.47.38l-.25,0a2,2,0,0,0-1.76.31Zm-1.07-.42a1.46,1.46,0,0,1,1.07.37A2,2,0,0,1,22,23.58l.25,0a1.81,1.81,0,0,0,1.45-.37,1.32,1.32,0,0,0,.43-.82V15.78H16.31v6.64a1.38,1.38,0,0,0,.43.82,1.81,1.81,0,0,0,1.45.37l.25,0A5.09,5.09,0,0,1,19.15,23.52Z"/><path class="cls-5" d="M14.93,22.45a3.15,3.15,0,0,1,.33-.22,2.6,2.6,0,0,0,.36-.3,1.49,1.49,0,0,0,.34-.77A1.47,1.47,0,0,0,16,21a1.7,1.7,0,0,0,0-.22,1.89,1.89,0,0,0-.1-.41,1.2,1.2,0,0,0-.22-.36,2.68,2.68,0,0,0-.34-.27c.07,0,.13.06.19.1l.17.14a1.24,1.24,0,0,1,.24.37s0,.07,0,.1l0,.11a1.43,1.43,0,0,1,0,.22A1.5,1.5,0,0,1,16,21a1.7,1.7,0,0,1,0,.22,1.45,1.45,0,0,1-.12.42,1.34,1.34,0,0,1-.25.37A1.69,1.69,0,0,1,14.93,22.45Z"/><path class="cls-5" d="M15.29,20.22h0s0,0,0,0a.44.44,0,0,0,.05-.22s0,0,0,0h0c0,.09,0,.24,0,.25Z"/><path class="cls-5" d="M14.82,22.2a.12.12,0,0,1-.11,0,.18.18,0,0,1,0-.13s0,0,0,0v0a.12.12,0,0,0,0,.1s0,0,.08,0A1.25,1.25,0,0,0,15.75,21c0-.71-.41-1.11-.55-1.11s-.14.08-.14.09h0a0,0,0,0,1,0,0s0-.11.17-.11.58.44.58,1.14A1.27,1.27,0,0,1,14.82,22.2Z"/><path class="cls-5" d="M14.5,21.94c0-.07.11-.09.17-.13l.1,0A.21.21,0,0,1,15,22a.35.35,0,0,1-.07.21h0a.69.69,0,0,0,0-.2.19.19,0,0,0,0-.08.13.13,0,0,0-.07-.06.31.31,0,0,0-.19,0,.81.81,0,0,0-.18.1Z"/><path class="cls-5" d="M14.67,21.6c0-.06.12-.06.19-.06a.31.31,0,0,1,.18.09.27.27,0,0,1,.07.08.25.25,0,0,1,0,.12.24.24,0,0,1-.05.1L15,22h0s0-.05,0-.08a.26.26,0,0,0,0-.08.27.27,0,0,0-.06-.16.32.32,0,0,0-.16-.09.3.3,0,0,0-.18,0h0Z"/><path class="cls-5" d="M15.13,21.52l0,.08s0,.06,0,.08a.28.28,0,0,1,0,.09.15.15,0,0,1-.05.06s0,0,0-.07,0-.05,0-.08S15.1,21.46,15.13,21.52Z"/><path class="cls-5" d="M15.1,21.85h0s0,0,0,0a.75.75,0,0,0,.36-.34h0s0,0,0,0a.8.8,0,0,1-.38.36Z"/><path class="cls-5" d="M15.93,23.47a.33.33,0,0,1-.33-.28.22.22,0,0,1,.23-.23A.16.16,0,0,1,16,23a.19.19,0,0,1,0,.18h0a0,0,0,0,1,0,0c0-.06,0-.11,0-.14a.11.11,0,0,0-.12,0c-.08,0-.2,0-.2.2a.3.3,0,0,0,.3.25.52.52,0,0,0,.34-.21.59.59,0,0,0,.06-.56c-.19-.61-.94-.46-.95-.46h0v0s.79-.16,1,.48a.57.57,0,0,1-.07.58A.5.5,0,0,1,15.93,23.47Z"/><path class="cls-5" d="M16.33,22.62a.59.59,0,0,1,.06.14l0,.07v.08s0,.05,0,.07,0,.05,0,.08l-.06.14a.58.58,0,0,1-.22.22.42.42,0,0,1-.15,0,.27.27,0,0,1-.15,0,.33.33,0,0,0,.14,0,.56.56,0,0,0,.24-.15l.05-.05,0-.06a.5.5,0,0,0,.08-.26.22.22,0,0,0,0-.08v-.07A.7.7,0,0,0,16.33,22.62Z"/><path class="cls-5" d="M15.17,22.54h0v0a.91.91,0,0,1,1.09-.07s0,0,0,0h0a.9.9,0,0,0-1.05.08Z"/><path class="cls-5" d="M20.22,25.77a0,0,0,0,1,0,0c0-.61-1.2-1-1.7-1a16.24,16.24,0,0,0-1.72-.05c-.8,0-1.6-.38-1.6-1.11s.54-.74.55-.74A.27.27,0,0,1,16,23a0,0,0,0,1,0,0,0,0,0,0,1,0,0,.21.21,0,0,0-.23-.18s-.51,0-.51.71.78,1.07,1.56,1.07a15.74,15.74,0,0,1,1.72.06c.45,0,1.73.38,1.73,1.05C20.23,25.76,20.23,25.77,20.22,25.77Z"/><path class="cls-5" d="M16,23a.23.23,0,0,0-.14-.16l-.11,0-.11,0a.59.59,0,0,0-.32.3,1.15,1.15,0,0,0-.07.45.82.82,0,0,0,.14.45.57.57,0,0,1-.13-.21.86.86,0,0,1-.06-.23.49.49,0,0,1,0-.12s0-.08,0-.12v-.06s0,0,0-.06,0,0,0-.06l0-.06a.5.5,0,0,1,.15-.2.57.57,0,0,1,.21-.13l.12,0a.28.28,0,0,1,.13,0A.22.22,0,0,1,16,23Z"/><path class="cls-5" d="M19,26.4a0,0,0,0,1,0,0h0a.54.54,0,0,0,.54-.46c0-.62-1-1-2.5-1a2.47,2.47,0,0,1-1.65-.51,1.24,1.24,0,0,1-.46-.88.93.93,0,0,1,.9-1,.51.51,0,0,1,.37.14.76.76,0,0,1,.18.51,0,0,0,0,1,0,0h0s0,0,0,0a.81.81,0,0,0-.17-.49.48.48,0,0,0-.35-.13.91.91,0,0,0-.87,1,1.23,1.23,0,0,0,.45.86,2.49,2.49,0,0,0,1.63.49c1.56,0,2.53.4,2.53,1A.57.57,0,0,1,19,26.4Z"/><path class="cls-5" d="M18.88,25.19a1.31,1.31,0,0,1,.4.22.61.61,0,0,1,.15.17.47.47,0,0,1,.09.22v.12a.5.5,0,0,1,0,.12.52.52,0,0,1-.14.19.51.51,0,0,1-.42.15.62.62,0,0,0,.39-.18.58.58,0,0,0,.11-.18.44.44,0,0,0,0-.1v-.11a.71.71,0,0,0-.22-.37l-.17-.14Z"/><path class="cls-5" d="M19,26.38a.56.56,0,0,0,.32.15.42.42,0,0,0,.32-.09.68.68,0,0,0,.12-.12.42.42,0,0,0,.09-.14.67.67,0,0,0,0-.34.76.76,0,0,0-.11-.32,1.43,1.43,0,0,0-.26-.23l-.32-.17L18.83,25a4.21,4.21,0,0,1,.66.28.81.81,0,0,1,.28.24.73.73,0,0,1,.14.34v.1a.28.28,0,0,1,0,.09.58.58,0,0,1,0,.18.91.91,0,0,1-.11.16.74.74,0,0,1-.13.12.38.38,0,0,1-.17.08.61.61,0,0,1-.19,0,.51.51,0,0,1-.17-.07A.49.49,0,0,1,19,26.38Z"/><path class="cls-5" d="M19.83,26.13l.15-.05A.34.34,0,0,0,20.1,26a.28.28,0,0,0,.08-.12v-.07a.22.22,0,0,0,0-.08h0v.14h0a.31.31,0,0,1-.07.14.42.42,0,0,1-.14.09s-.15.05-.16,0Z"/><rect class="cls-6" x="20.86" y="16.16" width="0.5" height="3.33"/><rect class="cls-3" x="20.39" y="16.16" width="0.47" height="3.33"/><rect class="cls-3" x="21.36" y="16.16" width="0.45" height="3.33"/><rect class="cls-6" x="21.81" y="16.16" width="0.49" height="3.33"/><rect class="cls-3" x="22.31" y="16.16" width="0.45" height="3.33"/><rect class="cls-6" x="22.76" y="16.16" width="0.49" height="3.33"/><rect class="cls-3" x="23.25" y="16.16" width="0.47" height="3.33"/><path class="cls-5" d="M19,26.1a.14.14,0,0,1-.14-.09.23.23,0,0,1,0-.2s0,0,0,0,0,0,0,0a.16.16,0,0,0,0,.16.12.12,0,0,0,.11.07c.21,0,.22-.15.22-.2a.24.24,0,0,0-.07-.19.43.43,0,0,0-.31-.07s0,0,0,0,0,0,0,0a.48.48,0,0,1,.33.09.29.29,0,0,1,.08.21A.22.22,0,0,1,19,26.1Z"/><path class="cls-5" d="M23.74,19.51H20.38V16.14h3.36Zm-3.33,0h3.3V16.17h-3.3Z"/><polygon class="cls-6" points="19.58 16.16 19.08 16.16 18.62 16.16 18.13 16.16 17.67 16.16 17.18 16.16 16.71 16.16 16.71 19.49 17.18 19.49 17.67 19.49 18.13 19.49 18.62 19.49 19.08 19.49 19.58 19.49 20.04 19.49 20.04 16.16 19.58 16.16"/><path class="cls-5" d="M20.06,19.51H16.69V16.14h3.37Zm-3.33,0H20V16.17h-3.3Z"/><path class="cls-7" d="M19.62,18.48a.29.29,0,0,0-.3.2c-.06.14-.1.49-.34.49s-.25-.34-.25-.34l.15.05a8.43,8.43,0,0,0,.47-1.34l-1-1.25-1,1.25a7.81,7.81,0,0,0,.48,1.34l.15-.05s0,.34-.25.34-.29-.35-.34-.49a.32.32,0,0,0-.61.13.35.35,0,0,0,.28.32l.13-.13s-.19-.1-.19-.21a.12.12,0,0,1,.11-.12s.16,0,.27.37.37.35.37.35.46,0,.46-.61h.26c0,.59.45.61.45.61s.27.06.38-.35.26-.37.26-.37.12,0,.12.12-.2.21-.2.21l.13.13a.35.35,0,0,0,.29-.32A.31.31,0,0,0,19.62,18.48Z"/><path class="cls-3" d="M18.49,16.72l.65.85a4.75,4.75,0,0,1-.36,1.08,1.07,1.07,0,0,0-.29,0Z"/><path class="cls-3" d="M18.25,16.72l-.65.85A4.75,4.75,0,0,0,18,18.65a1.07,1.07,0,0,1,.29,0Z"/><polygon class="cls-3" points="16.92 19.26 17.67 18.46 17.75 18.65 17.05 19.39 16.92 19.26"/><path class="cls-3" d="M19,17.05l.19-.21v-.07h-.09v-.09h.13a.85.85,0,0,1,0-.13h-.12l0-.09h.15a.3.3,0,0,1,.3-.17.38.38,0,0,1,.37.38.28.28,0,0,1-.27.29c-.14,0-.17-.06-.17-.06l.06-.14s.21.12.21-.13c0,0,0-.18-.19-.18s-.24.21-.24.44l-.25.3Z"/><path class="cls-3" d="M17.1,19.84V23a.9.9,0,0,1-.39-.73V19.84Z"/><path class="cls-6" d="M17.5,19.84v3.32a1.16,1.16,0,0,1-.4-.2V19.84Z"/><path class="cls-3" d="M17.84,19.84v3.38a1.72,1.72,0,0,1-.34-.06V19.84Z"/><path class="cls-6" d="M18.23,19.84v3.37h-.39V19.84Z"/><path class="cls-3" d="M18.58,19.84v3.34l-.35,0V19.84Z"/><path class="cls-6" d="M19,19.84v3.3l-.39,0V19.84Z"/><path class="cls-3" d="M19.31,19.84v3.29H19v-3.3Z"/><path class="cls-6" d="M19.7,19.84V23.2a2.26,2.26,0,0,0-.39-.07V19.84Z"/><path class="cls-3" d="M20,19.84v3.48a1.83,1.83,0,0,0-.34-.12V19.84Z"/><path class="cls-5" d="M20.06,23.34h0l-.35-.12-.38-.06H19l-.25,0-.14,0-.35,0h-.39a1,1,0,0,1-.35-.06,1.34,1.34,0,0,1-.4-.19,1,1,0,0,1-.4-.75V19.82h3.37Zm-.87-.23h.12a2.85,2.85,0,0,1,.39.06,2.41,2.41,0,0,1,.33.11V19.85h-3.3v2.38a.92.92,0,0,0,.38.72,1.18,1.18,0,0,0,.39.19,1.86,1.86,0,0,0,.34.06h.39l.35,0,.14,0,.25,0Z"/><path class="cls-3" d="M22.5,23.22c-.54,0-.93-.09-1.25-.09a2.31,2.31,0,0,0-.86.19V19.84h3.33v2.39A1.1,1.1,0,0,1,22.5,23.22Z"/><path class="cls-5" d="M20.38,23.34V19.82h3.36v2.41a.93.93,0,0,1-.34.7,1.36,1.36,0,0,1-.9.31,5.51,5.51,0,0,1-.78-.06l-.47,0a2.4,2.4,0,0,0-.85.18Zm0-3.49v3.44a2.28,2.28,0,0,1,.84-.18h0a4.47,4.47,0,0,1,.47,0,5.78,5.78,0,0,0,.78.05,1.08,1.08,0,0,0,1.21-1V19.85Z"/><path class="cls-6" d="M22.46,21l0,0v0s0,0,0,0a0,0,0,0,0,0,0s0,0,.06,0a.07.07,0,0,1,0,.06s0,0,0,0a.06.06,0,0,1,0,0s.07,0,.08,0,0-.05,0-.07a.07.07,0,0,0,0,0l-.06,0a.47.47,0,0,1-.15.06h0s0,0,0,0S22.44,21,22.46,21Z"/><path class="cls-6" d="M22.61,21.23l.09-.13a.18.18,0,0,1,.12-.09s.05,0,.05,0a.05.05,0,0,1,0,0,.47.47,0,0,0-.17.2.2.2,0,0,1,0,.08.24.24,0,0,1-.12,0s0,0-.05,0,0,0,0,0A.24.24,0,0,0,22.61,21.23Z"/><path class="cls-8" d="M21.12,20.14s0,0,0-.05V20h0s0,0,0,0,0,.09.06.13.05.08,0,.08A.07.07,0,0,1,21.12,20.14Z"/><path class="cls-8" d="M21.23,20.73s0,0,0-.05a0,0,0,0,1,0,0s0,0,0,0a0,0,0,0,1,0,0,.08.08,0,0,0,0,0s0,0,0,0l-.05,0,0,0s0,0,0,0h0Z"/><path class="cls-8" d="M22.46,21.36a.08.08,0,0,1,.09,0,.11.11,0,0,1,0,.07H22.4s0,0,0,0A.1.1,0,0,1,22.46,21.36Z"/><path class="cls-8" d="M21.24,20.83a0,0,0,0,1,0,0,0,0,0,0,1,0,0l0,0A0,0,0,0,1,21.24,20.83Z"/><path class="cls-6" d="M22.44,20.67h0c.08,0,0,0,.3,0H23a.19.19,0,0,0,.12-.09.18.18,0,0,0,0-.16.23.23,0,0,0-.12-.09.42.42,0,0,0-.29,0l-.3.06a3.1,3.1,0,0,0-.43,0l-.16,0a.66.66,0,0,1-.2,0h-.05a.05.05,0,0,1,0,0c0-.05.09-.06.08-.1s-.05,0-.07,0-.05,0-.08,0-.08-.07-.14-.08-.1,0-.13.09l-.12.1-.06.05,0,0h0s0,0,0,0v0l0,0,0,0,0,0h.08l.09,0a.18.18,0,0,0,.1,0,.13.13,0,0,1,.09,0c0,.06,0,.13,0,.18l.05.05s0,.06,0,.09-.05,0-.06.07,0,.08.05.12a.15.15,0,0,1,.06.11s0,0,0,0l0,0a.09.09,0,0,0,.06,0,.22.22,0,0,0,.05-.08.12.12,0,0,0,0-.08s-.06,0-.07,0a.08.08,0,0,1,0,0,.08.08,0,0,0,0,0,.06.06,0,0,0,0,0c0-.06-.06-.13-.06-.17h0s0,0,0,.05a.21.21,0,0,0,.1.14.05.05,0,0,0,0,0,.07.07,0,0,0,0-.06.36.36,0,0,0,0-.09.05.05,0,0,1,0,0s0,0,0,0a.48.48,0,0,1,.09.27c0,.06,0,.13,0,.2a.32.32,0,0,1,0,.14l0,0s0,0,0,0h.06a.14.14,0,0,0,0-.09.34.34,0,0,0,0-.1,1.64,1.64,0,0,1,0-.22,1.27,1.27,0,0,0,.06-.18.29.29,0,0,1,0-.09h0v0S22,20.92,22,21s0,0,0,0h0a1.2,1.2,0,0,0,.59-.12s0,0,0,0a0,0,0,0,0,0,0H22.5s0,0,0,0a.26.26,0,0,1,.15,0,.57.57,0,0,1,.13.08.46.46,0,0,1,.15.16.32.32,0,0,1,0,.17.22.22,0,0,1-.05.16l0,0a.08.08,0,0,1,0,0h0s.07,0,.1,0l0,0a1.28,1.28,0,0,0,.07-.28l0-.14a.14.14,0,0,0,0-.12l0,0c0-.05,0-.1,0-.15a.05.05,0,0,0,0,0s0,0-.05,0H22.8a.8.8,0,0,0-.15,0,.55.55,0,0,0-.18.06h-.06s0,0,0,0h0v0h0s-.1,0-.1-.06h0c0-.05.09,0,.09,0h0s.05,0,.07,0a.74.74,0,0,1,.21,0,.8.8,0,0,0,.26,0s.05,0,.06,0a0,0,0,0,0,0-.06s-.05,0-.05-.06,0,0,0,0l.05,0a.18.18,0,0,1,.05.07.1.1,0,0,1-.05.08.34.34,0,0,1-.2.06.58.58,0,0,1-.23,0l-.06,0-.08,0h0s0,0,0,0h0s-.1,0-.1.05h.08a0,0,0,0,1,0,0S22.42,20.67,22.44,20.67Zm-1.37-.18h0l0,0-.05,0s0,0,0,0h.07s0,0,0,0S21.08,20.48,21.07,20.49Zm.17-.15h0l-.05,0,0,0s0,0,0,0a0,0,0,0,1,0,0s0,0,0,0A.05.05,0,0,1,21.24,20.34Z"/><path class="cls-8" d="M21.45,20.44s0-.05,0-.08a.06.06,0,0,1,.07,0,.06.06,0,0,1,0,.06.26.26,0,0,1-.07.18.39.39,0,0,1-.1.08.11.11,0,0,1-.08,0c-.05,0,0,0,0-.06A.35.35,0,0,0,21.45,20.44Z"/><path class="cls-8" d="M22.83,21.45h.05l.05,0,0,0h-.13s0,0,0,0A.07.07,0,0,1,22.83,21.45Z"/><path class="cls-8" d="M21.56,21.27s0,0,0,0h0a0,0,0,0,1,0,0,.31.31,0,0,1,0,.13h0s-.05-.05,0-.07A.14.14,0,0,1,21.56,21.27Z"/><path class="cls-8" d="M21.74,21.46a.11.11,0,0,1,.08,0l0,0a0,0,0,0,1,0,0h-.16s0,0,0,0A.09.09,0,0,1,21.74,21.46Z"/><path class="cls-8" d="M21.37,20a.08.08,0,0,1,0-.07.28.28,0,0,0,0,.12l0,.05a.08.08,0,0,1,0,.08s-.06,0-.08,0,0-.06,0-.08S21.37,20.06,21.37,20Z"/><path class="cls-6" d="M22.46,22.5s0,0,0,0v0a0,0,0,0,0,0,0,.06.06,0,0,0,0,0,0,0,0,0,1,.06,0,.05.05,0,0,1,0,.05s0,0,0,0,0,0,0,0,.07,0,.08-.05,0,0,0-.07a.09.09,0,0,0,0,0s0,0-.06,0l-.15.05h0s0,0,0,0S22.44,22.49,22.46,22.5Z"/><path class="cls-6" d="M22.61,22.72l.09-.13a.16.16,0,0,1,.12-.08s.05,0,.05,0a.08.08,0,0,1,0,0,.47.47,0,0,0-.17.2.25.25,0,0,1,0,.07.17.17,0,0,1-.12,0,.07.07,0,0,1-.05,0s0,0,0,0A.36.36,0,0,0,22.61,22.72Z"/><path class="cls-8" d="M21.12,21.64s0,0,0-.06V21.5h0s0,.1.06.14.05.07,0,.08A.08.08,0,0,1,21.12,21.64Z"/><path class="cls-8" d="M21.23,22.23s0,0,0-.06l0,0,0,0a0,0,0,0,1,0,.05s0,0,0,.05,0,0,0,0l-.05,0,0,0s0,0,0,0h0Z"/><circle class="cls-8" cx="21.22" cy="22.32" r="0.02"/><path class="cls-6" d="M22.44,22.16h0c.08,0,0,0,.3,0H23a.2.2,0,0,0,.12-.1.16.16,0,0,0,0-.15.2.2,0,0,0-.12-.1.48.48,0,0,0-.29,0,1.59,1.59,0,0,1-.3.06,3.09,3.09,0,0,0-.43,0l-.16,0a.67.67,0,0,1-.2,0h-.05s0,0,0,0,.09-.05.08-.1a0,0,0,0,0-.07,0l-.08,0c-.05,0-.08-.07-.14-.09s-.1.05-.13.09l-.12.11-.06,0,0,0h0a0,0,0,0,0,0,0v0s0,0,0,0,0,0,0,0l0,0h.08l.09,0h.1a.13.13,0,0,1,.09.05c0,.05,0,.13,0,.18a.1.1,0,0,1,.05,0,.07.07,0,0,1,0,.09.17.17,0,0,0-.06.08.13.13,0,0,0,.05.11.17.17,0,0,1,.06.11s0,0,0,0a.05.05,0,0,0,0,0s0,0,.06,0a.18.18,0,0,0,.05-.07s0-.07,0-.08-.06,0-.07,0a.08.08,0,0,1,0-.05l0,0s0,0,0-.05-.06-.12-.06-.16h0s0,0,0,0a.25.25,0,0,0,.1.15s0,0,0,0a.06.06,0,0,0,0-.06.2.2,0,0,0,0-.08l0,0s0,0,0,0a.48.48,0,0,1,.09.27c0,.07,0,.14,0,.21a.31.31,0,0,1,0,.13.05.05,0,0,0,0,0,0,0,0,0,0,0,0h.06a.17.17,0,0,0,0-.1.33.33,0,0,0,0-.1,1.49,1.49,0,0,1,0-.21,1.39,1.39,0,0,0,.06-.19.19.19,0,0,1,0-.08h0a0,0,0,0,1,0,0h0s0,0,0,0-.05.12-.05.16a0,0,0,0,0,0,0h0a1.48,1.48,0,0,0,.59-.12,0,0,0,0,0,0,0s0,0,0,0,0,0,0,0H22.5a0,0,0,0,1,0-.05.21.21,0,0,1,.15,0,.57.57,0,0,1,.13.08.43.43,0,0,1,.15.15.33.33,0,0,1,0,.17.22.22,0,0,1-.05.16l0,0h0s0,0,0,0,.05.05.1.05h0s0,0,0,0a1,1,0,0,0,.08-.29l0-.13a.13.13,0,0,0,0-.12l0-.05s0-.1,0-.15a.05.05,0,0,0,0-.05H22.8a.8.8,0,0,0-.15,0,1,1,0,0,0-.18.05h0s-.05,0-.05,0h0s-.1,0-.1-.07h0s.09,0,.09,0h0s.05,0,.07-.05a.74.74,0,0,1,.21,0,.6.6,0,0,0,.26,0A.06.06,0,0,0,23,22s0,0,0-.06-.05,0-.05-.05a0,0,0,0,1,0,0s0,0,.05,0a.15.15,0,0,1,.05.06A.1.1,0,0,1,23,22a.29.29,0,0,1-.2.07.58.58,0,0,1-.23,0l-.06,0h-.11l0,0h0s-.1,0-.1.06h.08a0,0,0,0,1,0,0S22.42,22.16,22.44,22.16ZM21.07,22s0,0,0,0l0,0-.05,0s0,0,0,0h.07l0,0A0,0,0,0,1,21.07,22Zm.17-.14s0,0,0,0h-.05l0,0,0,0h0a0,0,0,0,1,0,0Z"/><path class="cls-8" d="M21.45,21.94s0-.06,0-.09.05,0,.07,0a.07.07,0,0,1,0,.06.24.24,0,0,1-.07.18.19.19,0,0,1-.1.08s-.06,0-.08,0,0,0,0-.06A.31.31,0,0,0,21.45,21.94Z"/><path class="cls-8" d="M21.56,22.77s0,0,0,0h0a0,0,0,0,1,0,0,.31.31,0,0,1,0,.13h0s-.05-.05,0-.07A.14.14,0,0,1,21.56,22.77Z"/><path class="cls-8" d="M21.74,22.93a.12.12,0,0,1,.08,0h0a.06.06,0,0,1,0,0h-.16s0,0,0,0A.07.07,0,0,1,21.74,22.93Z"/><path class="cls-8" d="M22.83,22.94h.05l.05,0,0,0h-.13s0,0,0,0A.07.07,0,0,1,22.83,22.94Z"/><path class="cls-8" d="M22.44,22.85a.12.12,0,0,1,.1,0,.08.08,0,0,1,0,.07h-.13s0,0-.05,0,0,0,0,0Z"/><path class="cls-8" d="M21.37,21.52a.11.11,0,0,1,0-.08.25.25,0,0,0,0,.12l0,.05a.08.08,0,0,1,0,.08s-.06,0-.08,0,0-.05,0-.07S21.37,21.56,21.37,21.52Z"/><path class="cls-5" d="M16.38,24h0v-.18a1,1,0,0,0,0-.18v-.12a0,0,0,0,0,0,0s0,0,0,0,0,0,0,0h0l.07,0,.08,0h0s0,0,0,0h0s0,0,0,0a1.34,1.34,0,0,0,0,.32l.1-.14.06-.09s0,0,0,0v0l0,0s0,0,0,0,0,0,0,0h0l0,0h.06s0,0,0,0h0l0,0-.07.08-.11.15Z"/><path class="cls-5" d="M16.8,23.65l0,0h0l.09,0v0h0s0,0,0,0a.49.49,0,0,0,0,.12l-.05.17s0,.07,0,.08,0,0,0,0,0,0,0,0h0l-.07,0-.07,0h0s0,0,0,0h.05a.16.16,0,0,0,0-.06s0-.08.05-.15,0-.13,0-.15a.13.13,0,0,0,0,0l0,0a0,0,0,0,1,0,0S16.79,23.65,16.8,23.65Z"/><path class="cls-5" d="M17.18,24l.06,0a.28.28,0,0,1,0,.1v.09s0,0,0,0,0,0,0,0h0l-.11,0a.11.11,0,0,1,0-.08c0-.05,0-.09,0-.11a.08.08,0,0,0,0,0l0,0h0a.54.54,0,0,0,0,.15.11.11,0,0,0,0,.05l0,0h0s0,0,0,0l-.09,0H16.9s0,0,0,0a0,0,0,0,0,0,0s0,0,0-.08V24l0-.12a.66.66,0,0,0,0-.13l0,0h0l.14,0h.05l.09.06a.12.12,0,0,1,0,.1l0,.06-.05,0Zm-.08,0h.07l0,0s0,0,0-.05a.11.11,0,0,0,0-.08.1.1,0,0,0,0,0h0Z"/><path class="cls-5" d="M17.46,23.84l.22.06.13,0h.06s0,0,0,.07v.07s0,0,0,0,0,0,0-.05a.08.08,0,0,0,0,0,.1.1,0,0,0-.07,0s0,.08,0,.13l0,.17c0,.05,0,.08,0,.09a0,0,0,0,0,0,0l0,0h0a0,0,0,0,1,0,0h0l-.06,0h-.14s0,0,0,0h.06a.05.05,0,0,0,0,0s0-.06,0-.12,0-.19.05-.26h-.07l-.05,0,0,.05h0l0-.05A.14.14,0,0,1,17.46,23.84Z"/><path class="cls-5" d="M18,24.48h0l0-.18a1.28,1.28,0,0,0,0-.17A.44.44,0,0,0,18,24s0,0,0,0,0,0,0,0,0,0,0,0H18l.09,0h0s0,0,0,0,0,0,0,0a1.44,1.44,0,0,0,0,.32c0-.05.05-.1.08-.16l.05-.09s0,0,0,0a0,0,0,0,0,0,0s0,0,0,0a0,0,0,0,1,0,0,0,0,0,0,1,0,0h.12s0,0,0,0h0s0,0,0,0,0,0,0,0l-.06.09-.08.16Z"/><path class="cls-5" d="M18.6,24.08h0a0,0,0,0,1,0,0s0,0,0,0v.1h0v0a.21.21,0,0,0,0-.07.09.09,0,0,0-.06,0h-.05l0,.05s0,0,0,.05l.06.05a.21.21,0,0,1,.1.08.16.16,0,0,1,0,.1.19.19,0,0,1,0,.08l-.06.05h-.08l-.05,0,0,0a0,0,0,0,1,0,0l0,0v-.16h0a0,0,0,0,1,0,0,.3.3,0,0,0,0,.1s0,0,.06.05.05,0,.06,0a.05.05,0,0,0,0-.05.06.06,0,0,0,0-.06l-.06-.06a.14.14,0,0,1-.07,0,.09.09,0,0,1,0-.06.17.17,0,0,1,0-.07.13.13,0,0,1,.05-.09.18.18,0,0,1,.11,0Z"/><path class="cls-5" d="M19.08,24.62h0l0-.18c0-.05,0-.1,0-.17a.39.39,0,0,0,0-.12s0,0,0,0h0s0,0,0,0h.2s0,0,0,0a0,0,0,0,0,0,0,1.69,1.69,0,0,0,.05.31l.07-.16,0-.1v-.07h0s0,0,0,0h.13s0,0,0,0h0l0,0a.82.82,0,0,1,0,.11l-.07.16A1.16,1.16,0,0,1,19.08,24.62Z"/><path class="cls-5" d="M19.48,24.15l.23.34v-.25s0,0,0,0l0,0h0s0,0,0,0h.14l0,0s0,0,0,.07v.36s0,0,0,0h0s0,0,0-.05l-.11-.16-.09-.15a1.23,1.23,0,0,0,0,.18s0,.07,0,.09,0,0,0,0l0,0s0,0,0,0h-.16a0,0,0,0,1,0,0h0a0,0,0,0,0,.05,0,.56.56,0,0,0,0-.07c0-.12,0-.2,0-.23a.24.24,0,0,0,0-.08s0,0,0,0h0s0,0,0,0h.1Z"/><path class="cls-5" d="M19.89,24.17h.18s0,0,0,0h0s0,0,0,0a.38.38,0,0,0,0,.13v.18s0,.07,0,.08l0,0s0,0,0,0,0,0,0,0h-.19a0,0,0,0,1,0,0l0,0s0,0,0-.07a1.18,1.18,0,0,1,0-.16.58.58,0,0,0,0-.15s0,0,0-.05h0s0,0,0,0Z"/><path class="cls-5" d="M20.14,24.17h.42v.13h0l0,0s0,0,0-.05l0,0h-.08v.14a1,1,0,0,0,0,.17.25.25,0,0,0,0,.1s0,0,0,0h0s0,0,0,0h-.21s0,0,0,0h.05a.05.05,0,0,0,0,0v-.13c0-.11,0-.19,0-.26h-.07l-.05,0,0,.06a0,0,0,0,1,0,0h0v-.05S20.14,24.19,20.14,24.17Z"/><path class="cls-5" d="M20.77,24.14h0l.13.33a.36.36,0,0,0,0,.12s0,0,0,0h0a0,0,0,0,1,0,0h-.19a0,0,0,0,1,0,0s0,0,0,0a.17.17,0,0,0,0-.05.24.24,0,0,0,0-.08H20.7c0,.06,0,.1,0,.12s0,0,0,0h0a0,0,0,0,1,0,0h-.13s0,0,0,0h0l0,0a.05.05,0,0,0,0,0,.22.22,0,0,0,0-.08Q20.71,24.37,20.77,24.14Zm0,.13,0,.17h.11l0-.07Z"/><path class="cls-5" d="M21.57,24.09l0,.1h0s0,0,0,0l-.06-.06a.16.16,0,0,0-.1,0h-.05a1.18,1.18,0,0,0,0,.19l.05,0a0,0,0,0,0,0,0,.07.07,0,0,0,0-.05h0v.12a.28.28,0,0,1,0,.06h0a0,0,0,0,1,0,0s0,0,0-.05H21.4v.14s0,0,0,.05,0,0,0,0h.06s0,0,0,0H21.3s0,0,0,0a1.49,1.49,0,0,0,0-.23c0-.09,0-.14,0-.16l0,0h0s0,0,0,0Z"/><path class="cls-5" d="M21.85,24a.18.18,0,0,1,.11,0,.16.16,0,0,1,.09.07.61.61,0,0,1,.05.12.26.26,0,0,1,0,.19.16.16,0,0,1-.14.1.17.17,0,0,1-.15,0,.24.24,0,0,1-.09-.17.31.31,0,0,1,0-.19A.23.23,0,0,1,21.85,24Zm.15.24a.34.34,0,0,0-.06-.17.11.11,0,0,0-.09,0,.09.09,0,0,0-.06.07.31.31,0,0,0,0,.17.34.34,0,0,0,.06.16.08.08,0,0,0,.08.05.1.1,0,0,0,.07-.07A.31.31,0,0,0,22,24.27Z"/><path class="cls-5" d="M22.39,24.19a.08.08,0,0,1,.07,0,.14.14,0,0,1,.06.08.19.19,0,0,0,0,.08h0s0,0,0,0h0l-.12,0,0-.07a.41.41,0,0,0,0-.1s0,0,0,0h-.06a.9.9,0,0,1,0,.15s0,0,0,0h.05s0,0,0,0l-.09,0h-.08a0,0,0,0,1,0,0h0l0,0a.44.44,0,0,0,0-.09v-.07l0-.13a.5.5,0,0,0,0-.12s0,0,0,0h0s0,0,0,0l.14,0h0a.13.13,0,0,1,.11,0,.12.12,0,0,1,.06.08.17.17,0,0,1,0,.07.09.09,0,0,1,0,.05Zm-.08,0h0l.05,0,0-.05a.13.13,0,0,0,0-.06.06.06,0,0,0,0-.06.07.07,0,0,0-.06,0l0,0Z"/><path class="cls-5" d="M22.56,23.9l.23,0,.12,0H23s0,0,0,.06l0,.05v0s0,0,0,0l0,0-.05,0h-.08l0,.14a1,1,0,0,1,0,.17l0,.09,0,0H23s0,0,0,0h-.08l-.08,0h-.06s0,0,0,0a.05.05,0,0,0,0,0,.07.07,0,0,0,0-.05.49.49,0,0,1,0-.13l-.07-.24-.07,0,0,0a.08.08,0,0,0,0,.06,0,0,0,0,1,0,0h0V24A.25.25,0,0,1,22.56,23.9Z"/><path class="cls-5" d="M23,23.79h.08l.09,0h0s0,0,0,0v0a.49.49,0,0,0,0,.12l.05.18a.67.67,0,0,0,0,.07h.05s0,0,0,0h0l-.08,0-.06,0h0s0,0,0,0l0,0a.26.26,0,0,0,0-.07l0-.15,0-.15s0,0,0,0h0A0,0,0,0,1,23,23.79Z"/><path class="cls-5" d="M23.49,23.65a.22.22,0,0,1,.11,0,.21.21,0,0,1,.1.06.3.3,0,0,1,.06.11.34.34,0,0,1,0,.2.2.2,0,0,1-.12.12.18.18,0,0,1-.16,0,.25.25,0,0,1-.11-.15.31.31,0,0,1,0-.19A.2.2,0,0,1,23.49,23.65Zm.18.21a.34.34,0,0,0-.08-.16.09.09,0,0,0-.09,0,.1.1,0,0,0-.06.08.37.37,0,0,0,0,.17.35.35,0,0,0,.08.15.09.09,0,0,0,.09,0s.05,0,.06-.07A.37.37,0,0,0,23.67,23.86Z"/><path class="cls-5" d="M24.05,23.72h.07a.22.22,0,0,1,.07.07.25.25,0,0,0,0,.07h.06s0,0,0,0l-.11,0a.1.1,0,0,1-.05-.07s0-.07-.06-.09,0,0,0,0H24l.06.15s0,0,0,0h.05L24,24l0,0h0s0,0,0,0h0a0,0,0,0,0,0,0s0,0,0-.09l0-.06,0-.13c0-.06,0-.1-.05-.11s0,0-.05,0,0,0,0,0,0,0,0,0l.13-.06.05,0h.11a.09.09,0,0,1,.06.07.15.15,0,0,1,0,.07l0,.05A.1.1,0,0,1,24.05,23.72Zm-.09,0h0l0,0a.08.08,0,0,0,0-.05.07.07,0,0,0,0,0,.16.16,0,0,0,0-.07.06.06,0,0,0-.06,0l0,0Z"/></g></g></svg>