<svg viewBox="0 0 40.5 40.5" xmlns="http://www.w3.org/2000/svg"><path d="m39.34 13.5h-38.18a21.93 21.93 0 0 1 1.55-3.37 20.25 20.25 0 0 1 35.08 0 21.93 21.93 0 0 1 1.55 3.37z" fill="#74acdf"/><path d="m40.5 20.25a20.19 20.19 0 0 1 -1.16 6.75h-38.18a20.22 20.22 0 0 1 0-13.5h38.18a20.19 20.19 0 0 1 1.16 6.75z" fill="#fff"/><path d="m39.34 27a20.24 20.24 0 0 1 -36.61 3.39 20.1 20.1 0 0 1 -1.57-3.39z" fill="#74acdf"/><path d="m20.16 14.67-.11 3.33h.4l-.11-3.37a.09.09 0 1 0 -.18.04z" fill="#f6b40e"/><path d="m20.48 18.07h-.48l.11-3.41a.12.12 0 0 1 .24 0zm-.39-.07h.32l-.1-3.34a.07.07 0 0 0 -.06-.06s-.05 0-.06.06z" fill="#86350a"/><path d="m20.25 16.51-.07 1.61h.13z" fill="#86350a"/><path d="m18 15.13 1.19 3.15.37-.15-1.4-3.07a.09.09 0 1 0 -.16.07z" fill="#f6b40e"/><path d="m19.2 18.33-1.2-3.19a.12.12 0 0 1 .07-.16.11.11 0 0 1 .15.06l1.41 3.11zm-1.14-3.22 1.18 3.13.3-.13-1.38-3a.05.05 0 0 0 -.07 0 .06.06 0 0 0 -.03 0z" fill="#86350a"/><path d="m18.82 16.79.55 1.52.13-.05z" fill="#86350a"/><path d="m16.23 16.37 2.31 2.46.28-.28-2.46-2.31c-.08-.08-.2.04-.13.13z" fill="#f6b40e"/><path d="m18.54 18.88-2.33-2.49a.12.12 0 0 1 .17-.18l2.49 2.34zm-2.28-2.54 2.28 2.44.24-.23-2.44-2.29a.06.06 0 0 0 -.08 0s-.03.05 0 .08z" fill="#86350a"/><path d="m17.6 17.61 1.1 1.18.09-.09z" fill="#86350a"/><path d="m15.05 18.2 3.08 1.39.15-.37-3.16-1.22a.09.09 0 0 0 -.07.2z" fill="#f6b40e"/><path d="m18.15 19.64-3.15-1.41a.12.12 0 0 1 .09-.23l3.19 1.2zm-3.08-1.47 3 1.37.13-.3-3.13-1.18a.05.05 0 0 0 -.07 0 0 0 0 0 0 .07.11z" fill="#86350a"/><path d="m16.79 18.82 1.47.68.05-.12z" fill="#86350a"/><path d="m14.66 20.34 3.38.11v-.4l-3.38.11c-.11.01-.11.18 0 .18z" fill="#f6b40e"/><path d="m18.07 20.49-3.37-.11a.13.13 0 0 1 -.12-.13.12.12 0 0 1 .12-.12l3.37-.13zm-3.41-.18 3.34.11v-.33l-3.34.11a0 0 0 0 0 -.05.05s.01.06.05.06z" fill="#86350a"/><path d="m16.5 20.25 1.62.07v-.13z" fill="#86350a"/><path d="m15.12 22.47 3.16-1.19-.15-.36-3.08 1.39a.09.09 0 0 0 .07.16z" fill="#f6b40e"/><path d="m15.09 22.51a.12.12 0 0 1 -.05-.23l3.11-1.41.17.43-3.19 1.21zm3-1.55-3 1.38a0 0 0 0 0 0 .07s0 .05.07 0l3.13-1.18z" fill="#86350a"/><path d="m16.79 21.69 1.52-.56-.05-.12z" fill="#86350a"/><path d="m16.36 24.27 2.46-2.27-.28-.28-2.31 2.46a.09.09 0 0 0 .13.09z" fill="#f6b40e"/><path d="m16.3 24.33a.18.18 0 0 1 -.09 0 .12.12 0 0 1 0-.17l2.33-2.49.33.33-2.49 2.33a.09.09 0 0 1 -.08 0zm2.24-2.6-2.28 2.43a.06.06 0 0 0 .08.08l2.44-2.24z" fill="#86350a"/><path d="m17.6 22.9 1.19-1.1-.09-.09z" fill="#86350a"/><path d="m18.19 25.45 1.4-3.08-.37-.15-1.22 3.16a.09.09 0 0 0 .19.07z" fill="#f6b40e"/><path d="m18.11 25.54a.12.12 0 0 1 -.07-.16l1.2-3.19.43.18-1.41 3.1a.12.12 0 0 1 -.15.07zm1.13-3.27-1.18 3.12a.06.06 0 0 0 0 .07s.06 0 .07 0l1.38-3.05z" fill="#86350a"/><path d="m18.82 23.71.68-1.46-.13-.05z" fill="#86350a"/><path d="m20.34 25.84.11-3.37h-.4l.11 3.37a.09.09 0 0 0 .18 0z" fill="#f6b40e"/><path d="m20.25 26a.12.12 0 0 1 -.12-.12l-.13-3.45h.46l-.11 3.41a.12.12 0 0 1 -.1.16zm-.16-3.46.1 3.34s0 .05.06.05a.06.06 0 0 0 .06-.05l.1-3.34z" fill="#86350a"/><path d="m20.25 24 .06-1.62h-.13z" fill="#86350a"/><path d="m22.47 25.38-1.19-3.16-.37.15 1.39 3.08a.09.09 0 0 0 .17-.07z" fill="#f6b40e"/><path d="m22.38 25.54a.14.14 0 0 1 -.11-.08l-1.4-3.1.43-.18 1.2 3.19a.12.12 0 0 1 -.07.16zm-1.38-3.15 1.38 3.05s0 0 .07 0a.06.06 0 0 0 0-.07l-1.18-3.12z" fill="#86350a"/><path d="m21.68 23.71-.56-1.51-.12.05z" fill="#86350a"/><path d="m24.26 24.14-2.26-2.46-.28.28 2.47 2.31a.09.09 0 0 0 .07-.13z" fill="#f6b40e"/><path d="m24.2 24.33a.12.12 0 0 1 -.09 0l-2.48-2.33.33-.33 2.33 2.49a.11.11 0 0 1 0 .17.12.12 0 0 1 -.09 0zm-2.48-2.33 2.44 2.28a.05.05 0 0 0 .08 0 .08.08 0 0 0 0-.08l-2.24-2.47z" fill="#86350a"/><path d="m22.9 22.9-1.1-1.19-.09.09z" fill="#86350a"/><path d="m25.45 22.31-3.08-1.39-.15.36 3.16 1.19a.09.09 0 0 0 .07-.16z" fill="#f6b40e"/><path d="m25.41 22.51-3.2-1.21.18-.43 3.11 1.41a.12.12 0 0 1 .06.16.12.12 0 0 1 -.15.07zm-3.15-1.25 3.13 1.18s.06 0 .07 0a0 0 0 0 0 0-.07l-3-1.38z" fill="#86350a"/><path d="m23.71 21.69-1.47-.68-.05.12z" fill="#86350a"/><path d="m25.84 20.16-3.38-.11v.4l3.38-.11c.16 0 .16-.17 0-.18z" fill="#f6b40e"/><path d="m22.43 20.49v-.49l3.38.11a.12.12 0 0 1 .12.12.13.13 0 0 1 -.12.13zm.07-.4v.33l3.34-.11a.06.06 0 0 0 .05-.06.05.05 0 0 0 -.05-.05z" fill="#86350a"/><path d="m20.49 18a3 3 0 0 0 .12-.75 2.1 2.1 0 0 1 .3-.93 1.55 1.55 0 0 0 .12-1 .65.65 0 0 1 .38-.61 0 0 0 0 1 .06.06.7.7 0 0 0 -.18.44 4.42 4.42 0 0 1 0 1 7 7 0 0 0 -.3.85v.93s-.34.26-.34.26z" fill="#f6b40e"/><path d="m20.81 18.5a.35.35 0 0 1 -.23-.15l-.12-.35a3 3 0 0 0 .11-.74 2.23 2.23 0 0 1 .31-1 1.35 1.35 0 0 0 .13-.78.86.86 0 0 1 0-.16.7.7 0 0 1 .4-.65.1.1 0 0 1 .09 0 .08.08 0 0 1 0 .09.43.43 0 0 0 0 .07.51.51 0 0 0 -.13.36 2.36 2.36 0 0 0 0 .25 2.53 2.53 0 0 1 0 .78 1.69 1.69 0 0 1 -.13.36 1.77 1.77 0 0 0 -.17.49v.58.35s0 .38-.13.42zm-.18-.19s.14.14.2.11.09-.06.08-.35 0-.26 0-.36a3.59 3.59 0 0 1 0-.58 1.63 1.63 0 0 1 .17-.5 2.09 2.09 0 0 0 .13-.35 2.75 2.75 0 0 0 0-.76 2.54 2.54 0 0 1 0-.26.63.63 0 0 1 .14-.4v-.06a.64.64 0 0 0 -.37.58v.16a1.31 1.31 0 0 1 -.13.81 2.08 2.08 0 0 0 -.3.92 3 3 0 0 1 -.11.75z" fill="#86350a"/><path d="m21 16.59a2.29 2.29 0 0 0 -.12.37v.18a1.15 1.15 0 0 0 0 .19v.39s0 .26-.06.38h-.13c0-.12.07-.24.09-.36s0-.25 0-.38 0-.13 0-.2 0-.12.05-.18.09-.27.17-.39z" fill="#86350a"/><path d="m19.61 18.08a2.72 2.72 0 0 0 -.18-.73 2.11 2.11 0 0 1 -.07-1 1.63 1.63 0 0 0 -.26-.93.68.68 0 0 1 .12-.71 0 0 0 0 1 .08 0 .69.69 0 0 0 0 .48 4.18 4.18 0 0 1 .39 1 7.08 7.08 0 0 0 0 .9 8.34 8.34 0 0 0 .31.88c.29.63-.21.37-.21.37z" fill="#f6b40e"/><path d="m20 18.43a.53.53 0 0 1 -.2-.06l-.24-.27a3.08 3.08 0 0 0 -.18-.73 2 2 0 0 1 -.07-1 1.33 1.33 0 0 0 -.19-.77l-.07-.14a.71.71 0 0 1 .13-.76s.05 0 .09 0 0 0 0 .08 0 0 0 .07a.52.52 0 0 0 0 .39l.11.23a3.1 3.1 0 0 1 .29.72 2.6 2.6 0 0 1 0 .39 1.52 1.52 0 0 0 0 .51 3.3 3.3 0 0 0 .18.55l.12.32c.11.23.12.37.05.44a.15.15 0 0 1 -.02.03zm-.16-.12c.05 0 .18.08.23 0s.05-.09-.07-.36l-.12-.33a4.6 4.6 0 0 1 -.19-.55 1.66 1.66 0 0 1 0-.53 1.61 1.61 0 0 0 0-.38 2.69 2.69 0 0 0 -.28-.7l-.11-.24a.65.65 0 0 1 0-.43.13.13 0 0 0 0-.06.65.65 0 0 0 -.11.68c0 .05.05.09.07.14a1.3 1.3 0 0 1 .19.81 2.17 2.17 0 0 0 .07 1 3.63 3.63 0 0 1 .19.73z" fill="#86350a"/><path d="m19.52 16.6a2.53 2.53 0 0 0 0 .38v.18a1.34 1.34 0 0 0 .07.18 3.68 3.68 0 0 1 .15.35 1.89 1.89 0 0 1 .09.38h-.13a2.2 2.2 0 0 0 -.05-.37c0-.12-.08-.24-.12-.36a1.33 1.33 0 0 1 -.05-.19 1.23 1.23 0 0 1 0-.19 2.41 2.41 0 0 1 .04-.36z" fill="#86350a"/><path d="m18.83 18.49a2.65 2.65 0 0 0 -.44-.6 2.13 2.13 0 0 1 -.45-.88 1.54 1.54 0 0 0 -.59-.76.68.68 0 0 1 -.17-.71 0 0 0 0 1 .09 0 .68.68 0 0 0 .18.43 4.57 4.57 0 0 1 .73.73 6.62 6.62 0 0 0 .39.81 7.75 7.75 0 0 0 .62.7c.51.47-.05.42-.05.42z" fill="#f6b40e"/><path d="m19.18 18.68h-.05l-.32-.16a2.65 2.65 0 0 0 -.44-.6 2.24 2.24 0 0 1 -.45-.89 1.3 1.3 0 0 0 -.46-.64.65.65 0 0 1 -.12-.11.71.71 0 0 1 -.18-.74.1.1 0 0 1 .08 0 .09.09 0 0 1 .07.06.64.64 0 0 1 0 .07.54.54 0 0 0 .16.35 1.72 1.72 0 0 0 .19.17 3.15 3.15 0 0 1 .54.56 3.52 3.52 0 0 1 .16.35 1.42 1.42 0 0 0 .23.46 4.26 4.26 0 0 0 .38.44l.24.25q.27.25.21.39c-.03.03-.17.04-.24.04zm0-.07c.05 0 .19 0 .22-.06s0-.11-.2-.31l-.27-.24a5 5 0 0 1 -.39-.43 2.15 2.15 0 0 1 -.24-.48 1.47 1.47 0 0 0 -.15-.34 2.49 2.49 0 0 0 -.53-.55l-.19-.2a.58.58 0 0 1 -.18-.39.18.18 0 0 1 0-.06.63.63 0 0 0 .15.67l.12.1a1.27 1.27 0 0 1 .48.68 2.07 2.07 0 0 0 .44.86 3.22 3.22 0 0 1 .45.61z" fill="#86350a"/><path d="m18.17 17.15a2.69 2.69 0 0 0 .17.34l.11.16.13.14c.09.09.19.17.28.27l.23.31-.12.07a3.37 3.37 0 0 0 -.19-.32 3.23 3.23 0 0 0 -.25-.29l-.12-.15-.09-.17a2.28 2.28 0 0 1 -.15-.36z" fill="#86350a"/><path d="m18.27 19.17a2.85 2.85 0 0 0 -.65-.39 2.12 2.12 0 0 1 -.74-.64 1.63 1.63 0 0 0 -.84-.48.66.66 0 0 1 -.42-.59 0 0 0 0 1 .07 0 .81.81 0 0 0 .34.33 4.9 4.9 0 0 1 .95.39 8.13 8.13 0 0 0 .67.61c.2.11.24.12.84.4s.12.41.12.41z" fill="#f6b40e"/><path d="m18.61 19.23h-.36a3.27 3.27 0 0 0 -.63-.38 2.16 2.16 0 0 1 -.76-.65 1.26 1.26 0 0 0 -.67-.41l-.19-.09a.72.72 0 0 1 -.44-.63.08.08 0 0 1 .05-.07.1.1 0 0 1 .09 0 .43.43 0 0 1 0 .07.58.58 0 0 0 .29.26l.24.08a2.87 2.87 0 0 1 .71.31 2.42 2.42 0 0 1 .28.27 1.64 1.64 0 0 0 .39.34 5.34 5.34 0 0 0 .52.25l.32.14c.23.09.34.18.34.28s-.21.2-.23.2zm-.33-.09h.32s.18-.08.18-.14 0-.11-.3-.21l-.32-.15a3.06 3.06 0 0 1 -.52-.26 1.6 1.6 0 0 1 -.41-.35 1.63 1.63 0 0 0 -.23-.23 2.4 2.4 0 0 0 -.69-.3l-.31-.09a.66.66 0 0 1 -.32-.29v-.05a.62.62 0 0 0 .4.56l.15.05a1.41 1.41 0 0 1 .7.44 2 2 0 0 0 .74.63 2.71 2.71 0 0 1 .61.39z" fill="#86350a"/><path d="m17.14 18.18a3.23 3.23 0 0 0 .29.25l.16.11.17.07c.12.05.24.09.36.15a3.79 3.79 0 0 1 .34.2l-.09.11a1.66 1.66 0 0 0 -.3-.22 3.47 3.47 0 0 0 -.33-.18l-.17-.09-.16-.12z" fill="#86350a"/><path d="m18 20a2.73 2.73 0 0 0 -.74-.11 2.18 2.18 0 0 1 -.94-.31 1.6 1.6 0 0 0 -1-.12.67.67 0 0 1 -.62-.38s0-.08.06-.06a.73.73 0 0 0 .44.18 5.06 5.06 0 0 1 1 0 6.51 6.51 0 0 0 .85.3 7.71 7.71 0 0 0 .93 0c.7 0 .27.34.27.34z" fill="#f6b40e"/><path d="m18 20.05a2.73 2.73 0 0 0 -.74-.11 2.06 2.06 0 0 1 -.94-.31 1.27 1.27 0 0 0 -.78-.12h-.16a.71.71 0 0 1 -.65-.41.1.1 0 0 1 0-.09.09.09 0 0 1 .09 0h.06a.55.55 0 0 0 .36.14h.26a2.88 2.88 0 0 1 .78 0 1.42 1.42 0 0 1 .36.14 1.88 1.88 0 0 0 .49.16h.57.35q.38 0 .42.12c.05.12-.11.26-.13.28zm-2.24-.63a1.14 1.14 0 0 1 .58.14 2.08 2.08 0 0 0 .92.3 3.35 3.35 0 0 1 .74.14l.31-.1s.13-.14.11-.2-.07-.09-.36-.08h-.35a3.59 3.59 0 0 1 -.58 0 1.46 1.46 0 0 1 -.51-.16 1.83 1.83 0 0 0 -.35-.14 2.68 2.68 0 0 0 -.75 0h-.27a.62.62 0 0 1 -.4-.14.64.64 0 0 0 .59.36h.39z" fill="#86350a"/><path d="m16.59 19.53a2.53 2.53 0 0 0 .36.12 1.08 1.08 0 0 0 .19 0h.18.39a1.76 1.76 0 0 1 .39.06v.13a2.42 2.42 0 0 0 -.36-.1h-.38-.19l-.19-.05a2.17 2.17 0 0 1 -.39-.16z" fill="#86350a"/><path d="m18.08 20.89a2.64 2.64 0 0 0 -.73.18 2.11 2.11 0 0 1 -1 .07 1.58 1.58 0 0 0 -.93.26.66.66 0 0 1 -.72-.12 0 0 0 0 1 0-.07.76.76 0 0 0 .48 0 4.83 4.83 0 0 1 .94-.39 7.33 7.33 0 0 0 .91 0 8.58 8.58 0 0 0 .87-.31c.64-.29.38.21.38.21z" fill="#f6b40e"/><path d="m15.18 21.49a.73.73 0 0 1 -.48-.18.08.08 0 0 1 .06-.14h.08a.56.56 0 0 0 .38 0l.23-.11a2.87 2.87 0 0 1 .73-.28 1.67 1.67 0 0 1 .38 0 1.56 1.56 0 0 0 .52 0 5.36 5.36 0 0 0 .54-.19l.33-.12c.23-.1.37-.12.44-.05s0 .29 0 .31l-.27.23a3.08 3.08 0 0 0 -.72.18 2.14 2.14 0 0 1 -1 .08 1.23 1.23 0 0 0 -.76.18l-.15.07a.63.63 0 0 1 -.31.02zm-.42-.25s0 0 0 0a.64.64 0 0 0 .68.11l.14-.07a1.27 1.27 0 0 1 .8-.19 2.2 2.2 0 0 0 1-.07 3.47 3.47 0 0 1 .73-.19l.24-.21c0-.05.07-.18 0-.22s-.1-.06-.36.06l-.33.13a4.15 4.15 0 0 1 -.56.18 1.42 1.42 0 0 1 -.53 0 2.32 2.32 0 0 0 -.37 0 2.75 2.75 0 0 0 -.71.28l-.23.11a.59.59 0 0 1 -.43 0z" fill="#86350a"/><path d="m16.59 21a2.34 2.34 0 0 0 .41 0h.19l.17-.07.36-.15a2.34 2.34 0 0 1 .38-.09v.13a2.2 2.2 0 0 0 -.37.06 3 3 0 0 0 -.37.11l-.18.05-.18-.04a2.41 2.41 0 0 1 -.41 0z" fill="#86350a"/><path d="m18.49 21.67a2.7 2.7 0 0 0 -.61.45 2.12 2.12 0 0 1 -.88.44 1.62 1.62 0 0 0 -.75.59.68.68 0 0 1 -.71.17 0 0 0 0 1 0-.09.67.67 0 0 0 .44-.18 4.19 4.19 0 0 1 .73-.73 5.94 5.94 0 0 0 .81-.39 6.9 6.9 0 0 0 .69-.62c.48-.51.43.05.43.05z" fill="#f6b40e"/><path d="m15.76 23.39a.59.59 0 0 1 -.23 0s0 0 0-.08a.08.08 0 0 1 0-.07h.08a.56.56 0 0 0 .39-.24l.17-.19a2.84 2.84 0 0 1 .56-.54 2 2 0 0 1 .35-.15 2.19 2.19 0 0 0 .46-.23 4.45 4.45 0 0 0 .43-.38 3.33 3.33 0 0 1 .26-.24c.17-.19.29-.25.38-.22s.11.27.1.3l-.16.32a3.15 3.15 0 0 0 -.6.44 1.94 1.94 0 0 1 -.89.45 1.22 1.22 0 0 0 -.63.47l-.11.12a.75.75 0 0 1 -.56.24zm2.76-2.26s-.13 0-.28.2l-.26.25a4.47 4.47 0 0 1 -.44.38 1.8 1.8 0 0 1 -.48.24 2 2 0 0 0 -.34.15 2.69 2.69 0 0 0 -.54.53l-.18.19a.56.56 0 0 1 -.38.18h-.07a.65.65 0 0 0 .67-.16l.11-.12a1.28 1.28 0 0 1 .66-.48 2 2 0 0 0 .87-.44 4 4 0 0 1 .6-.45l.15-.28c0-.06 0-.2-.06-.22z" fill="#86350a"/><path d="m17.15 22.33a3.59 3.59 0 0 0 .34-.17l.16-.11a.8.8 0 0 0 .13-.13l.27-.27a2.35 2.35 0 0 1 .32-.23l.07.11a3.37 3.37 0 0 0 -.32.19l-.29.25-.16.12a.91.91 0 0 1 -.17.09 2.17 2.17 0 0 1 -.35.15z" fill="#86350a"/><path d="m19.16 22.24a3.05 3.05 0 0 0 -.39.64 1.93 1.93 0 0 1 -.64.75 1.64 1.64 0 0 0 -.47.84.68.68 0 0 1 -.59.42s-.06-.06 0-.08a.71.71 0 0 0 .33-.34 4.62 4.62 0 0 1 .4-.95c.18-.25.42-.36.6-.67a7 7 0 0 0 .4-.84c.25-.65.42-.11.42-.11z" fill="#f6b40e"/><path d="m17.07 24.92a.08.08 0 0 1 -.07-.05.07.07 0 0 1 0-.09h.06a.55.55 0 0 0 .26-.28 1.72 1.72 0 0 0 .09-.25 3 3 0 0 1 .31-.71 1.76 1.76 0 0 1 .26-.28 1.64 1.64 0 0 0 .34-.39 3.43 3.43 0 0 0 .25-.51l.15-.32c.09-.24.18-.35.27-.35s.2.21.21.24v.36a2.7 2.7 0 0 0 -.38.64 2.11 2.11 0 0 1 -.66.75 1.33 1.33 0 0 0 -.41.67.75.75 0 0 1 0 .16.69.69 0 0 1 -.62.44zm1.93-3.2s-.11 0-.21.3-.11.24-.14.32c-.14.3-.17.37-.26.53a2 2 0 0 1 -.35.4 1.68 1.68 0 0 0 -.26.27 3 3 0 0 0 -.3.7l-.08.24a.66.66 0 0 1 -.29.32h-.06a.64.64 0 0 0 .56-.4 1.31 1.31 0 0 0 .05-.15 1.31 1.31 0 0 1 .43-.7 2 2 0 0 0 .63-.73 3.22 3.22 0 0 1 .39-.65v-.32s-.07-.18-.14-.18z" fill="#86350a"/><path d="m18.18 23.36a3.47 3.47 0 0 0 .25-.29.86.86 0 0 0 .1-.16.89.89 0 0 0 .08-.17l.14-.36a1.85 1.85 0 0 1 .21-.33l.1.08a2.1 2.1 0 0 0 -.22.3c-.06.1-.11.22-.17.34a1.4 1.4 0 0 1 -.1.16l-.12.16a2.29 2.29 0 0 1 -.27.27z" fill="#86350a"/><path d="m20 22.5a3 3 0 0 0 -.12.75 2.1 2.1 0 0 1 -.3.93 1.55 1.55 0 0 0 -.12 1 .66.66 0 0 1 -.39.61s-.07 0 0-.06a.73.73 0 0 0 .18-.44 4.42 4.42 0 0 1 0-1 7.63 7.63 0 0 0 .3-.85c0-.23 0-.27 0-.93s.34-.26.34-.26z" fill="#f6b40e"/><path d="m19.07 25.79a.09.09 0 0 1 -.06 0 .07.07 0 0 1 0-.09.21.21 0 0 1 0-.06.53.53 0 0 0 .13-.36 2.54 2.54 0 0 0 0-.26 2.89 2.89 0 0 1 0-.78 3 3 0 0 1 .14-.36 1.36 1.36 0 0 0 .16-.48 3.49 3.49 0 0 0 0-.58c0-.09 0-.21 0-.35s0-.39.12-.42.27.12.28.14l.11.34a2.73 2.73 0 0 0 -.11.74 2.23 2.23 0 0 1 -.31.95 1.19 1.19 0 0 0 -.13.77 1 1 0 0 1 0 .17.7.7 0 0 1 -.4.64zm.62-3.71s-.09.07-.08.36 0 .26 0 .35a3.59 3.59 0 0 1 0 .58 1.7 1.7 0 0 1 -.17.51 1.81 1.81 0 0 0 -.13.35 2.74 2.74 0 0 0 0 .76v.26a.6.6 0 0 1 -.15.4v.05a.64.64 0 0 0 .37-.58c0-.05 0-.11 0-.16a1.36 1.36 0 0 1 .14-.82 2 2 0 0 0 .3-.92 2.78 2.78 0 0 1 .03-.72l-.1-.31s-.15-.11-.21-.11z" fill="#86350a"/><path d="m19.53 23.91c0-.11.08-.24.11-.36a1.16 1.16 0 0 0 0-.18 1.28 1.28 0 0 0 0-.19c0-.13 0-.26 0-.39s0-.26.06-.39h.13a2.37 2.37 0 0 0 -.09.36v.38a1.25 1.25 0 0 1 0 .19 1.05 1.05 0 0 1 0 .19 3.65 3.65 0 0 1 -.21.39z" fill="#86350a"/><path d="m20.88 22.42a3 3 0 0 0 .19.73 2.25 2.25 0 0 1 .07 1 1.51 1.51 0 0 0 .26.93.69.69 0 0 1 -.12.72s-.08 0-.08 0a.72.72 0 0 0 0-.47 4.93 4.93 0 0 1 -.4-.95 5.57 5.57 0 0 0 0-.9 8.34 8.34 0 0 0 -.31-.88c-.29-.63.21-.37.21-.37z" fill="#f6b40e"/><path d="m21.25 25.83a.07.07 0 0 1 0-.08s0 0 0-.07a.52.52 0 0 0 0-.39l-.11-.23a2.37 2.37 0 0 1 -.29-.73 2.44 2.44 0 0 1 0-.38 1.52 1.52 0 0 0 0-.51 3 3 0 0 0 -.18-.55c0-.09-.08-.19-.13-.33s-.11-.37 0-.43.28 0 .31 0l.24.27a2.54 2.54 0 0 0 .18.72 2.2 2.2 0 0 1 .07 1 1.23 1.23 0 0 0 .19.76l.07.15a.71.71 0 0 1 -.13.75.05.05 0 0 1 -.22.05zm-.78-3.68a.07.07 0 0 0 -.06 0s-.05.09.07.36l.12.33a4.6 4.6 0 0 1 .19.55 2 2 0 0 1 0 .53 1.53 1.53 0 0 0 0 .37 2.62 2.62 0 0 0 .28.71l.11.23a.64.64 0 0 1 0 .43.2.2 0 0 0 0 .07s0 0 0 0a0 0 0 0 0 0 0 .61.61 0 0 0 .12-.67l-.07-.15a1.32 1.32 0 0 1 -.2-.8 1.89 1.89 0 0 0 -.07-1 3.38 3.38 0 0 1 -.18-.73l-.21-.25a.71.71 0 0 0 -.1.02z" fill="#86350a"/><path d="m21 23.91a2.43 2.43 0 0 0 0-.38 1.16 1.16 0 0 0 0-.18 1.27 1.27 0 0 0 -.06-.18c-.05-.12-.11-.23-.15-.35a2.79 2.79 0 0 1 -.1-.39h.14a2.35 2.35 0 0 0 .05.37c0 .12.08.24.12.36a1.05 1.05 0 0 1 .05.19 1.11 1.11 0 0 1 0 .19 2.41 2.41 0 0 1 -.05.37z" fill="#86350a"/><path d="m21.67 22a2.55 2.55 0 0 0 .44.61 2.18 2.18 0 0 1 .45.88 1.59 1.59 0 0 0 .59.76.64.64 0 0 1 .16.7 0 0 0 0 1 -.08 0 .76.76 0 0 0 -.19-.44 4.89 4.89 0 0 1 -.72-.72 7.52 7.52 0 0 0 -.39-.82 8.39 8.39 0 0 0 -.62-.69c-.51-.47.05-.43.05-.43z" fill="#f6b40e"/><path d="m23.27 25a.11.11 0 0 1 -.07 0s0 0 0-.07a.52.52 0 0 0 -.16-.35l-.19-.18a2.59 2.59 0 0 1 -.54-.56 1.58 1.58 0 0 1 -.16-.35 1.52 1.52 0 0 0 -.25-.49c-.11-.14-.15-.18-.38-.43l-.24-.26c-.18-.16-.25-.29-.21-.38s.27-.1.29-.1l.32.16a2.65 2.65 0 0 0 .44.6 2.24 2.24 0 0 1 .45.89 1.3 1.3 0 0 0 .46.64l.12.1a.71.71 0 0 1 .17.75.08.08 0 0 1 -.05.03zm-1.95-3.1c-.06 0-.17 0-.19.06s0 .11.2.31l.24.25a5.7 5.7 0 0 1 .43.48 1.54 1.54 0 0 1 .24.48 2.11 2.11 0 0 0 .16.34 2.92 2.92 0 0 0 .52.54l.2.18a.63.63 0 0 1 .18.39s0 0 0 .06a0 0 0 0 0 0 0s0 0 0 0a.65.65 0 0 0 -.15-.67l-.12-.1a1.33 1.33 0 0 1 -.49-.67 2.1 2.1 0 0 0 -.43-.87 3 3 0 0 1 -.45-.6l-.29-.14z" fill="#86350a"/><path d="m22.33 23.35a2.79 2.79 0 0 0 -.18-.34 1.3 1.3 0 0 0 -.1-.15.86.86 0 0 0 -.13-.14c-.09-.09-.19-.17-.28-.27a2.35 2.35 0 0 1 -.23-.32l.12-.06a3.37 3.37 0 0 0 .19.32c.07.1.16.19.24.29a.79.79 0 0 1 .12.15 1 1 0 0 1 .1.17 2.17 2.17 0 0 1 .15.35z" fill="#86350a"/><path d="m22.23 21.34a2.85 2.85 0 0 0 .65.39 2.12 2.12 0 0 1 .74.64 1.54 1.54 0 0 0 .84.47.66.66 0 0 1 .42.59 0 0 0 0 1 -.08 0 .7.7 0 0 0 -.34-.33 5.09 5.09 0 0 1 -.94-.39c-.26-.19-.37-.43-.68-.61a7.33 7.33 0 0 0 -.83-.4c-.66-.24-.12-.41-.12-.41z" fill="#f6b40e"/><path d="m24.84 23.51a.06.06 0 0 1 -.06 0s0 0 0-.06a.58.58 0 0 0 -.29-.26l-.24-.09a2.55 2.55 0 0 1 -.71-.31 1.41 1.41 0 0 1 -.28-.26 1.64 1.64 0 0 0 -.39-.34 5.34 5.34 0 0 0 -.52-.25l-.35-.18c-.23-.08-.34-.17-.34-.27s.21-.2.23-.21h.36a2.76 2.76 0 0 0 .64.39 2.13 2.13 0 0 1 .76.65 1.29 1.29 0 0 0 .67.41h.15a.72.72 0 0 1 .45.62.09.09 0 0 1 -.05.08zm-2.94-2.16c-.06 0-.18.07-.18.14s0 .11.3.21l.32.15a4.36 4.36 0 0 1 .52.25 1.83 1.83 0 0 1 .41.35 1.68 1.68 0 0 0 .27.26 2.71 2.71 0 0 0 .69.3l.25.09a.59.59 0 0 1 .31.29v.05s0 0 0 0a.64.64 0 0 0 -.4-.56l-.15-.05a1.31 1.31 0 0 1 -.7-.43 2 2 0 0 0 -.74-.63 2.71 2.71 0 0 1 -.64-.39z" fill="#86350a"/><path d="m23.35 22.32a2.37 2.37 0 0 0 -.29-.25l-.15-.1-.17-.08c-.12-.05-.24-.08-.36-.14a2.39 2.39 0 0 1 -.34-.21l.08-.1a2.86 2.86 0 0 0 .3.22c.11.07.23.12.34.18a.91.91 0 0 1 .17.09l.15.12a2.29 2.29 0 0 1 .27.27z" fill="#86350a"/><path d="m22.5 20.5a2.73 2.73 0 0 0 .74.11 2.08 2.08 0 0 1 .94.31 1.58 1.58 0 0 0 .95.11.69.69 0 0 1 .62.39 0 0 0 0 1 -.07 0 .68.68 0 0 0 -.44-.17 5 5 0 0 1 -1 0 6.51 6.51 0 0 0 -.85-.3 5.93 5.93 0 0 0 -.93-.05c-.7 0-.27-.34-.27-.34z" fill="#f6b40e"/><path d="m25.71 21.51h-.06a.61.61 0 0 0 -.37-.13h-.28a2.89 2.89 0 0 1 -.78 0 1.69 1.69 0 0 1 -.36-.14 1.88 1.88 0 0 0 -.49-.16 3.44 3.44 0 0 0 -.57 0h-.35q-.37 0-.42-.12c-.05-.12.11-.26.13-.28l.34-.12a3.32 3.32 0 0 0 .73.11 2.09 2.09 0 0 1 1 .31 1.27 1.27 0 0 0 .77.02h.16a.72.72 0 0 1 .65.4.09.09 0 0 1 0 .09.06.06 0 0 1 -.1.02zm-.47-.25a.63.63 0 0 1 .41.15h.05s0 0 0 0a.64.64 0 0 0 -.59-.36h-.11a1.31 1.31 0 0 1 -.81-.13 2.15 2.15 0 0 0 -.92-.31 2.78 2.78 0 0 1 -.74-.11l-.31.11s-.14.13-.11.19.06.09.36.08h.35.58a1.7 1.7 0 0 1 .51.17 2 2 0 0 0 .34.13 2.73 2.73 0 0 0 .76 0z" fill="#86350a"/><path d="m23.91 21a2.53 2.53 0 0 0 -.36-.12h-.19a.6.6 0 0 0 -.19 0h-.38a2.44 2.44 0 0 1 -.39-.06v-.13a2.37 2.37 0 0 0 .36.09h.38.19.19a2.17 2.17 0 0 1 .39.22z" fill="#86350a"/><path d="m22.42 19.62a2.72 2.72 0 0 0 .73-.18 2.07 2.07 0 0 1 1-.08 1.54 1.54 0 0 0 .93-.25.64.64 0 0 1 .71.12s0 .08 0 .07a.7.7 0 0 0 -.48 0 5.34 5.34 0 0 1 -1 .39 7.18 7.18 0 0 0 -.9.05 8.58 8.58 0 0 0 -.87.31c-.64.28-.38-.22-.38-.22z" fill="#f6b40e"/><path d="m22.23 20.18a.16.16 0 0 1 -.12 0c-.09-.1 0-.29 0-.31l.27-.23a3.21 3.21 0 0 0 .72-.18 2.11 2.11 0 0 1 1-.08 1.33 1.33 0 0 0 .77-.18l.14-.08a.72.72 0 0 1 .76.13.07.07 0 0 1 0 .09.06.06 0 0 1 -.08 0h-.07a.56.56 0 0 0 -.38 0 1.56 1.56 0 0 0 -.24.11 2.68 2.68 0 0 1 -.72.28 1.71 1.71 0 0 1 -.39 0 1.87 1.87 0 0 0 -.51 0 4.68 4.68 0 0 0 -.54.18l-.33.13a.87.87 0 0 1 -.28.14zm0-.32c0 .05-.07.18 0 .23s.1.06.36-.06l.33-.13a5.3 5.3 0 0 1 .55-.19 1.68 1.68 0 0 1 .54 0h.37a3.1 3.1 0 0 0 .7-.28l.24-.12a.65.65 0 0 1 .43 0h.06a.65.65 0 0 0 -.68-.11l-.14.07a1.41 1.41 0 0 1 -.8.19 1.93 1.93 0 0 0 -1 .07 2.63 2.63 0 0 1 -.73.18z" fill="#86350a"/><path d="m23.91 19.52a2.34 2.34 0 0 0 -.38 0h-.19a.85.85 0 0 0 -.17.06l-.36.16a2.34 2.34 0 0 1 -.38.09v-.14a2.2 2.2 0 0 0 .37-.05l.36-.11.19-.06h.19z" fill="#86350a"/><path d="m22 18.84a3.19 3.19 0 0 0 .61-.45 2 2 0 0 1 .87-.44 1.55 1.55 0 0 0 .76-.6.69.69 0 0 1 .71-.16 0 0 0 0 1 0 .08.76.76 0 0 0 -.44.19 5.58 5.58 0 0 1 -.73.73 5.42 5.42 0 0 0 -.81.39 6.9 6.9 0 0 0 -.69.62c-.48.5-.43-.06-.43-.06z" fill="#f6b40e"/><path d="m22 19.44h-.05c-.12-.05-.11-.27-.1-.29l.15-.32a2.82 2.82 0 0 0 .59-.45 2.24 2.24 0 0 1 .89-.45 1.2 1.2 0 0 0 .64-.46l.11-.12a.69.69 0 0 1 .74-.17.08.08 0 0 1 .05.07.08.08 0 0 1 -.05.08h-.08a.54.54 0 0 0 -.35.16l-.17.19a2.58 2.58 0 0 1 -.56.54 1.53 1.53 0 0 1 -.35.16 1.8 1.8 0 0 0 -.46.23 3.49 3.49 0 0 0 -.43.38l-.26.24c-.14.14-.25.21-.31.21zm-.09-.29c0 .06 0 .19.06.22s.11 0 .31-.2l.26-.24a4.47 4.47 0 0 1 .44-.38 1.4 1.4 0 0 1 .47-.24 3.49 3.49 0 0 0 .34-.15 3 3 0 0 0 .55-.53l.17-.2a.73.73 0 0 1 .39-.18h.1a.62.62 0 0 0 -.67.16.65.65 0 0 0 -.11.12 1.38 1.38 0 0 1 -.67.48 2 2 0 0 0 -.86.43 2.54 2.54 0 0 1 -.61.45z" fill="#86350a"/><path d="m23.35 18.18a2.16 2.16 0 0 0 -.34.17.91.91 0 0 0 -.16.11 1.49 1.49 0 0 0 -.14.12 3.5 3.5 0 0 1 -.27.28 1.78 1.78 0 0 1 -.31.23l-.07-.09a1.5 1.5 0 0 0 .32-.19c.1-.07.19-.16.29-.24a1 1 0 0 1 .16-.12l.16-.1a2.67 2.67 0 0 1 .36-.17z" fill="#86350a"/><path d="m21.33 18.27a2.9 2.9 0 0 0 .39-.64 2.05 2.05 0 0 1 .64-.75 1.63 1.63 0 0 0 .48-.84.66.66 0 0 1 .59-.42 0 0 0 0 1 0 .08.66.66 0 0 0 -.34.34 4.06 4.06 0 0 1 -.39.95c-.18.25-.42.36-.6.67a7 7 0 0 0 -.4.84c-.25.65-.42.11-.42.11z" fill="#f6b40e"/><path d="m21.49 18.85c-.12 0-.19-.21-.2-.23v-.36a2.7 2.7 0 0 0 .38-.64 2.25 2.25 0 0 1 .65-.76 1.14 1.14 0 0 0 .41-.67l.06-.15a.69.69 0 0 1 .62-.44.08.08 0 0 1 .07.05.1.1 0 0 1 0 .09h-.06a.56.56 0 0 0 -.27.28l-.08.24a3.13 3.13 0 0 1 -.31.72 2.4 2.4 0 0 1 -.27.28 1.65 1.65 0 0 0 -.33.39 4.44 4.44 0 0 0 -.26.51l-.14.32c-.09.26-.18.37-.27.37zm-.14-.24c0 .05.07.17.14.18s.1 0 .21-.3l.14-.33c.14-.3.17-.36.26-.52a1.55 1.55 0 0 1 .35-.4 2.11 2.11 0 0 0 .25-.24 3 3 0 0 0 .31-.7l.08-.25a.63.63 0 0 1 .29-.31h.06a.65.65 0 0 0 -.56.4l-.05.15a1.3 1.3 0 0 1 -.43.71 2.2 2.2 0 0 0 -.64.73 3.45 3.45 0 0 1 -.38.65z" fill="#86350a"/><path d="m22.32 17.15a2.26 2.26 0 0 0 -.25.29.86.86 0 0 0 -.1.16.53.53 0 0 0 -.08.17c-.05.11-.09.24-.15.36a2.23 2.23 0 0 1 -.2.33l-.11-.08.23-.3.17-.34.1-.17a.79.79 0 0 1 .12-.15 1.72 1.72 0 0 1 .27-.27z" fill="#86350a"/><path d="m24 20.25-1.62-.06v.13z" fill="#86350a"/><path d="m25.38 18-3.16 1.19.15.37 3.08-1.39c.1-.02.03-.17-.07-.17z" fill="#f6b40e"/><path d="m22.35 19.64-.18-.44 3.2-1.2a.11.11 0 0 1 .15.07.12.12 0 0 1 -.06.16zm-.09-.4.13.3 3-1.37a0 0 0 0 0 0-.07.05.05 0 0 0 -.07 0z" fill="#86350a"/><path d="m23.71 18.82-1.52.56.05.12z" fill="#86350a"/><path d="m24.14 16.24-2.47 2.31.28.28 2.31-2.46c.08-.09-.04-.21-.12-.13z" fill="#f6b40e"/><path d="m22 18.88-.33-.33 2.48-2.34a.12.12 0 0 1 .17 0 .11.11 0 0 1 0 .17zm-.24-.33.23.23 2.29-2.44a.06.06 0 0 0 0-.07.06.06 0 0 0 -.08 0z" fill="#86350a"/><path d="m22.9 17.61-1.19 1.09.09.09z" fill="#86350a"/><path d="m22.3 15.06-1.39 3.07.37.15 1.19-3.15a.09.09 0 0 0 -.17-.07z" fill="#f6b40e"/><path d="m21.3 18.33-.43-.18 1.4-3.15a.13.13 0 0 1 .16-.06.12.12 0 0 1 .07.16zm-.3-.22.3.13 1.18-3.13a.06.06 0 0 0 0-.07.07.07 0 0 0 -.08 0z" fill="#86350a"/><path d="m21.68 16.79-.68 1.47.12.05z" fill="#86350a"/><circle cx="20.25" cy="20.25" fill="#86350a" r="2.29"/><circle cx="20.25" cy="20.25" fill="#f6b40e" r="2.18"/><g fill="#86350a"><path d="m20.54 20.54s-.34-.49-.08-.85c.06-.08.51-.49 1.16.06a.77.77 0 0 0 -.94-.33c-.11 0-.61.2-.23 1.13z"/><path d="m20.57 20a.75.75 0 0 0 .84 0s-.07.17-.43.17-.41-.17-.41-.17z"/><path d="m20.49 19.88a1.11 1.11 0 0 0 .29-.17.67.67 0 0 1 .79.21s0 .08-.06 0a.6.6 0 0 0 -.51-.24.37.37 0 0 0 -.31.14c-.14.13-.2.08-.2.08s-.04-.01 0-.02z"/><path d="m20.63 20a.58.58 0 0 0 .39.14.68.68 0 0 0 .41-.15.52.52 0 0 0 -.8.01zm.07 0a.44.44 0 0 1 .66 0 .54.54 0 0 1 -.34.13.5.5 0 0 1 -.32-.13z"/><path d="m21.17 19.93a.16.16 0 0 1 -.16.16.16.16 0 0 1 -.15-.16.15.15 0 0 1 .15-.15.16.16 0 0 1 .16.15z"/><path d="m20 20.54s.33-.49.07-.85c-.05-.08-.5-.49-1.15.06a.76.76 0 0 1 .94-.33c.11 0 .6.2.22 1.13z"/><path d="m19.94 20a.76.76 0 0 1 -.85 0s.08.17.43.17.42-.17.42-.17z"/><path d="m20 19.88a1.1 1.1 0 0 1 -.3-.17c-.1-.09-.46-.11-.79.21 0 0 0 .08.06 0a.64.64 0 0 1 .51-.24.35.35 0 0 1 .31.14c.14.13.21.08.21.08s.05-.01 0-.02z"/><path d="m19.07 20a.72.72 0 0 0 .42.15.61.61 0 0 0 .39-.14.53.53 0 0 0 -.81-.01zm.42.12a.54.54 0 0 1 -.34-.13.43.43 0 0 1 .65 0 .49.49 0 0 1 -.31.08z"/><path d="m19.34 19.93a.16.16 0 0 0 .15.16.16.16 0 0 0 .16-.16.16.16 0 0 0 -.16-.15.15.15 0 0 0 -.15.15z"/><path d="m20.74 20.68a.17.17 0 0 0 -.1-.09s.07.11 0 .15-.17-.07-.17-.07a.23.23 0 0 1 -.22.13.21.21 0 0 1 -.21-.13s-.06.16-.18.07 0-.15 0-.15a.14.14 0 0 0 -.09.09c0 .07 0 .19.11.19a.2.2 0 0 0 .12-.07s0 .07.21.07.22-.07.22-.07a.18.18 0 0 0 .16.07c.15 0 .17-.12.15-.19z"/><path d="m20.54 21.05c-.09-.05-.16-.05-.2 0h-.09-.09s-.1 0-.19 0a1.88 1.88 0 0 0 -.25.2.31.31 0 0 0 .11.08.69.69 0 0 1 .22.16.42.42 0 0 0 .15.07h.1a.34.34 0 0 0 .15-.07.82.82 0 0 1 .22-.16.43.43 0 0 0 .12-.08 1.88 1.88 0 0 0 -.25-.2zm.07.25a.41.41 0 0 0 -.2.15s0 0-.16 0-.13 0-.16 0a.42.42 0 0 0 -.19-.15c-.11 0-.12-.05-.12-.05.22-.22.33-.18.37-.15a.18.18 0 0 0 .2 0s.15-.07.37.15c0 0-.01.02-.11.05z"/><path d="m20.37 21.24a.26.26 0 0 1 -.24 0 .74.74 0 0 0 -.27 0 1.16 1.16 0 0 1 .23 0 .71.71 0 0 0 .16.05.65.65 0 0 0 .15-.05 1.25 1.25 0 0 1 .24 0 .76.76 0 0 0 -.27 0z"/><path d="m20.25 21.6a.32.32 0 0 1 .31.22.31.31 0 0 0 -.31-.28.3.3 0 0 0 -.3.28.31.31 0 0 1 .3-.22z"/></g></svg>