<svg xmlns="http://www.w3.org/2000/svg" viewBox="0 0 40.5 40.5"><defs><style>.cls-1{fill:#fcd116;}.cls-2{fill:#ce1126;}.cls-3{fill:#fff;}.cls-4{fill:#0072c6;}</style></defs><g id="Ebene_2" data-name="Ebene 2"><g id="Ńëîé_1" data-name="Ńëîé 1"><path d="M39.69,14.58l-.9,1.2-6.66,8.88L20.25,40.5,8.37,24.66,1.71,15.78l-.9-1.2a20.25,20.25,0,0,1,38.88,0Z"/><polygon class="cls-1" points="33.34 15.78 26.61 14.59 32.34 10.88 25.63 12.28 29.5 6.62 23.81 10.52 25.25 3.79 21.5 9.51 20.25 2.8 19 9.51 15.25 3.79 16.69 10.52 11 6.62 14.74 12.08 7.99 10.68 13.89 14.49 6.97 15.78 33.34 15.78"/><path class="cls-2" d="M20.25,40.5A20.25,20.25,0,0,1,0,20.25a20,20,0,0,1,.81-5.67l.9,1.2,6.66,8.88Z"/><path class="cls-2" d="M40.5,20.25A20.25,20.25,0,0,1,20.25,40.5L32.13,24.66l6.66-8.88.9-1.2A20,20,0,0,1,40.5,20.25Z"/><polygon class="cls-3" points="8.37 24.66 20.25 40.5 32.13 24.66 8.37 24.66"/><polygon class="cls-4" points="32.13 24.66 38.79 15.78 1.71 15.78 8.37 24.66 32.13 24.66"/></g></g></svg>