<svg viewBox="0 0 40.5 40.5" xmlns="http://www.w3.org/2000/svg"><path d="m39.69 14.58-.9 1.2-6.66 8.88-11.88 15.84-11.88-15.84-6.66-8.88-.9-1.2a20.25 20.25 0 0 1 38.88 0z"/><path d="m33.34 15.78-6.73-1.19 5.73-3.71-6.71 1.4 3.87-5.66-5.69 3.9 1.44-6.73-3.75 5.72-1.25-6.71-1.25 6.71-3.75-5.72 1.44 6.73-5.69-3.9 3.74 5.46-6.75-1.4 5.9 3.81-6.92 1.29z" fill="#fcd116"/><path d="m20.25 40.5a20.25 20.25 0 0 1 -20.25-20.25 20 20 0 0 1 .81-5.67l.9 1.2 6.66 8.88z" fill="#ce1126"/><path d="m40.5 20.25a20.25 20.25 0 0 1 -20.25 20.25l11.88-15.84 6.66-8.88.9-1.2a20 20 0 0 1 .81 5.67z" fill="#ce1126"/><path d="m8.37 24.66 11.88 15.84 11.88-15.84z" fill="#fff"/><path d="m32.13 24.66 6.66-8.88h-37.08l6.66 8.88z" fill="#0072c6"/></svg>