<svg xmlns="http://www.w3.org/2000/svg" viewBox="0 0 40.5 40.5"><defs><style>.cls-1{fill:#012169;}.cls-2{fill:#fff;}.cls-3{fill:#cf142b;}</style></defs><g id="Ebene_2" data-name="Ebene 2"><g id="Ńëîé_1" data-name="Ńëîé 1"><path class="cls-1" d="M40.5,20.25a20.25,20.25,0,0,1-40.5,0v0c0-.13,0-.28,0-.42s0-.47,0-.71H0a1,1,0,0,1,0-.17c0-.47.07-.93.14-1.39,0-.21,0-.44.09-.66s0-.26.07-.38,0-.19.05-.28.07-.32.11-.49c.12-.52.27-1.05.43-1.56.07-.22.14-.45.22-.66a.67.67,0,0,1,.06-.15c.09-.26.18-.51.29-.77a2.12,2.12,0,0,0,.14-.31l.06-.15a1.24,1.24,0,0,1,.1-.2l0-.1a5,5,0,0,1,.3-.62c.15-.3.29-.59.47-.89l.08-.13A20.24,20.24,0,0,1,40.5,20.25Z"/><path class="cls-2" d="M20.59,12.57v3.91H.35c0-.09,0-.19.05-.28s.07-.32.11-.49c.12-.52.27-1.05.43-1.56.07-.22.14-.45.22-.66a.67.67,0,0,1,.06-.15c.09-.26.18-.51.29-.77Z"/><rect class="cls-2" x="2.97" y="12.57" width="11.73" height="3.92" transform="translate(23.37 5.69) rotate(90)"/><path class="cls-3" d="M20.59,13.34v2.37H10v4.68H7.64V15.71H.51c.12-.52.27-1.05.43-1.56.07-.22.14-.45.22-.66a.67.67,0,0,1,.06-.15H7.64V8.67H10v4.67Z"/><polygon class="cls-2" points="10.79 12.26 17.96 8.66 20.59 8.66 20.59 9.98 15.42 12.57 10.79 12.57 10.79 12.26"/><polygon class="cls-3" points="11 12.57 18.84 8.66 20.59 8.66 12.78 12.57 11 12.57"/><polygon class="cls-2" points="10.79 16.8 17.96 20.4 20.59 20.4 20.59 19.08 15.42 16.49 10.79 16.49 10.79 16.8"/><path class="cls-2" d="M6.87,16.48v.31L0,20.24v0c0-.13,0-.28,0-.42s0-.47,0-.71H0a1,1,0,0,1,0-.17c0-.47.07-.93.14-1.39l2.06-1Z"/><path class="cls-3" d="M6.67,16.48,0,19.8c0-.24,0-.47,0-.71H0a1,1,0,0,1,0-.17l4.84-2.43Z"/><path class="cls-2" d="M6.87,12.26v.31H2.25l-.6-.31.06-.15a1.24,1.24,0,0,1,.1-.2l0-.1a5,5,0,0,1,.3-.62c.15-.3.29-.59.47-.89l.08-.13Z"/><polygon class="cls-2" points="8.84 22.8 9.53 24.87 11.58 24.12 10.4 25.96 12.26 27.09 10.09 27.32 10.36 29.47 8.84 27.93 7.31 29.47 7.58 27.32 5.42 27.09 7.27 25.96 6.09 24.12 8.14 24.87 8.84 22.8"/><polygon class="cls-2" points="26.48 17.32 26.8 18.28 27.75 17.93 27.21 18.79 28.07 19.31 27.06 19.42 27.18 20.42 26.48 19.7 25.77 20.42 25.89 19.42 24.89 19.31 25.75 18.79 25.2 17.93 26.15 18.28 26.48 17.32"/><polygon class="cls-2" points="32.35 10.94 32.67 11.9 33.62 11.55 33.08 12.4 33.94 12.93 32.93 13.04 33.06 14.04 32.35 13.32 31.64 14.04 31.77 13.04 30.76 12.93 31.62 12.4 31.07 11.55 32.02 11.9 32.35 10.94"/><polygon class="cls-2" points="37.57 15.74 37.9 16.7 38.85 16.35 38.3 17.21 39.16 17.73 38.16 17.84 38.28 18.84 37.57 18.12 36.86 18.84 36.99 17.84 35.98 17.73 36.84 17.21 36.3 16.35 37.25 16.7 37.57 15.74"/><polygon class="cls-2" points="32.35 26.63 32.68 27.59 33.63 27.24 33.08 28.09 33.94 28.62 32.94 28.73 33.06 29.73 32.35 29.01 31.64 29.73 31.77 28.73 30.76 28.62 31.62 28.09 31.08 27.24 32.03 27.59 32.35 26.63"/><polygon class="cls-2" points="34.71 20.43 34.97 21.06 35.64 21.11 35.13 21.55 35.28 22.2 34.71 21.86 34.13 22.2 34.29 21.55 33.78 21.11 34.45 21.06 34.71 20.43"/><path class="cls-3" d="M4.91,12.57H3.13l-1.32-.66,0-.1a5,5,0,0,1,.3-.62Z"/><polygon class="cls-3" points="20.59 20.4 12.76 16.49 14.55 16.49 20.59 19.51 20.59 20.4"/></g></g></svg>