<svg xmlns="http://www.w3.org/2000/svg" viewBox="0 0 40.5 40.5"><defs><style>.cls-1{fill:#00b9e4;}.cls-2{fill:#ed2939;}.cls-3{fill:#3f9c35;}.cls-4{fill:#fff;}</style></defs><g id="Ebene_2" data-name="Ebene 2"><g id="Ńëîé_1" data-name="Ńëîé 1"><path class="cls-1" d="M39.34,13.5H1.16a20.25,20.25,0,0,1,38.18,0Z"/><path class="cls-2" d="M40.5,20.25A20,20,0,0,1,39.34,27H1.16a20.22,20.22,0,0,1,0-13.5H39.34A20,20,0,0,1,40.5,20.25Z"/><path class="cls-3" d="M39.34,27A20.25,20.25,0,0,1,1.16,27Z"/><path class="cls-4" d="M20.24,25.3a5.05,5.05,0,1,1,3.57-8.63,6.08,6.08,0,1,0,0,7.16A5.06,5.06,0,0,1,20.24,25.3Z"/><polygon class="cls-4" points="25.64 16.89 26.29 18.7 28.02 17.87 27.2 19.61 29.01 20.25 27.2 20.89 28.02 22.63 26.29 21.8 25.64 23.61 25 21.8 23.26 22.63 24.09 20.89 22.28 20.25 24.09 19.61 23.26 17.87 25 18.7 25.64 16.89"/></g></g></svg>