<svg viewBox="0 0 40.5 40.5" xmlns="http://www.w3.org/2000/svg"><path d="m40.5 20.25a20 20 0 0 1 -1.65 8 20.73 20.73 0 0 1 -2.79 4.64 20.24 20.24 0 0 1 -31.62 0 20.73 20.73 0 0 1 -2.79-4.64 20.27 20.27 0 0 1 0-16 20.73 20.73 0 0 1 2.79-4.65 20.24 20.24 0 0 1 31.62 0 20.73 20.73 0 0 1 2.79 4.64 20 20 0 0 1 1.65 8.01z" fill="#fff"/><path d="m36.06 7.6-1.55.93-6 3.62a11.54 11.54 0 0 0 -16.44 0l-6.07-3.62-1.56-.93a20.24 20.24 0 0 1 31.62 0z" fill="#ce1126"/><path d="m36.06 32.9a20.24 20.24 0 0 1 -31.62 0l1.56-.9 6-3.62a11.54 11.54 0 0 0 16.44 0l6 3.62z" fill="#ce1126"/><g fill="#1eb53a"><path d="m40.5 20.25a20 20 0 0 1 -1.65 8l-7.6-4.53a11.48 11.48 0 0 0 0-7l7.6-4.53a20 20 0 0 1 1.65 8.06z"/><path d="m8.71 20.25a11.37 11.37 0 0 0 .54 3.48l-7.6 4.53a20.27 20.27 0 0 1 0-16l7.6 4.53a11.37 11.37 0 0 0 -.54 3.46z"/><path d="m20.25 11.62.78 1.34h1.55l-.78 1.34.78 1.35h-1.55l-.78 1.34-.78-1.34h-1.55l.78-1.35-.78-1.34h1.55z"/></g><path d="m20.25 12.08.64 1.11h1.28l-.64 1.11.64 1.11h-1.28l-.64 1.12-.64-1.12h-1.28l.64-1.11-.64-1.11h1.28z" fill="#ce1126"/><path d="m15.1 20.54.77 1.35h1.56l-.78 1.34.78 1.35h-1.56l-.77 1.34-.78-1.34h-1.55l.77-1.35-.77-1.34h1.55z" fill="#1eb53a"/><path d="m15.1 21.01.64 1.11h1.28l-.64 1.11.64 1.11h-1.28l-.64 1.11-.64-1.11h-1.29l.64-1.11-.64-1.11h1.29z" fill="#ce1126"/><path d="m25.4 20.54-.77 1.35h-1.56l.78 1.34-.78 1.35h1.56l.77 1.34.78-1.34h1.55l-.78-1.35.78-1.34h-1.55z" fill="#1eb53a"/><path d="m25.4 21.01-.64 1.11h-1.28l.64 1.11-.64 1.11h1.28l.64 1.11.65-1.11h1.28l-.64-1.11.64-1.11h-1.28z" fill="#ce1126"/></svg>