<svg xmlns="http://www.w3.org/2000/svg" viewBox="0 0 40.5 40.5"><defs><style>.cls-1{fill:#fff;}.cls-2{fill:#ce1126;}.cls-3{fill:#1eb53a;}</style></defs><g id="Ebene_2" data-name="Ebene 2"><g id="Ńëîé_1" data-name="Ńëîé 1"><path class="cls-1" d="M40.5,20.25a20,20,0,0,1-1.65,8,20.73,20.73,0,0,1-2.79,4.64,20.24,20.24,0,0,1-31.62,0,20.73,20.73,0,0,1-2.79-4.64,20.27,20.27,0,0,1,0-16A20.73,20.73,0,0,1,4.44,7.6a20.24,20.24,0,0,1,31.62,0,20.73,20.73,0,0,1,2.79,4.64A20,20,0,0,1,40.5,20.25Z"/><path class="cls-2" d="M36.06,7.6l-1.55.93-6,3.62a11.54,11.54,0,0,0-16.44,0L6,8.53,4.44,7.6a20.24,20.24,0,0,1,31.62,0Z"/><path class="cls-2" d="M36.06,32.9a20.24,20.24,0,0,1-31.62,0L6,32l6-3.62a11.54,11.54,0,0,0,16.44,0l6,3.62Z"/><path class="cls-3" d="M40.5,20.25a20,20,0,0,1-1.65,8l-7.6-4.53a11.48,11.48,0,0,0,0-7l7.6-4.53A20,20,0,0,1,40.5,20.25Z"/><path class="cls-3" d="M8.71,20.25a11.37,11.37,0,0,0,.54,3.48l-7.6,4.53a20.27,20.27,0,0,1,0-16l7.6,4.53A11.37,11.37,0,0,0,8.71,20.25Z"/><polygon class="cls-3" points="20.25 11.62 21.03 12.96 22.58 12.96 21.8 14.3 22.58 15.65 21.03 15.65 20.25 16.99 19.47 15.65 17.92 15.65 18.7 14.3 17.92 12.96 19.47 12.96 20.25 11.62"/><polygon class="cls-2" points="20.25 12.08 20.89 13.19 22.17 13.19 21.53 14.3 22.17 15.41 20.89 15.41 20.25 16.53 19.61 15.41 18.33 15.41 18.97 14.3 18.33 13.19 19.61 13.19 20.25 12.08"/><polygon class="cls-3" points="15.1 20.54 15.87 21.89 17.43 21.89 16.65 23.23 17.43 24.58 15.87 24.58 15.1 25.92 14.32 24.58 12.77 24.58 13.54 23.23 12.77 21.89 14.32 21.89 15.1 20.54"/><polygon class="cls-2" points="15.1 21.01 15.74 22.12 17.02 22.12 16.38 23.23 17.02 24.34 15.74 24.34 15.1 25.45 14.46 24.34 13.17 24.34 13.81 23.23 13.17 22.12 14.46 22.12 15.1 21.01"/><polygon class="cls-3" points="25.4 20.54 24.63 21.89 23.07 21.89 23.85 23.23 23.07 24.58 24.63 24.58 25.4 25.92 26.18 24.58 27.73 24.58 26.95 23.23 27.73 21.89 26.18 21.89 25.4 20.54"/><polygon class="cls-2" points="25.4 21.01 24.76 22.12 23.48 22.12 24.12 23.23 23.48 24.34 24.76 24.34 25.4 25.45 26.05 24.34 27.33 24.34 26.69 23.23 27.33 22.12 26.05 22.12 25.4 21.01"/></g></g></svg>