<svg xmlns="http://www.w3.org/2000/svg" viewBox="0 0 40.5 40.5"><defs><style>.cls-1{fill:#009e49;}.cls-2{fill:#ef2b2d;}.cls-3{fill:#fcd116;}</style></defs><g id="Ebene_2" data-name="Ebene 2"><g id="Ńëîé_1" data-name="Ńëîé 1"><path class="cls-1" d="M40.5,20.25a20.24,20.24,0,0,1-9.91,17.4,1.91,1.91,0,0,1-.21.14A20.21,20.21,0,0,1,20.25,40.5a19.92,19.92,0,0,1-6.07-.93,19.37,19.37,0,0,1-4-1.78,1.35,1.35,0,0,1-.22-.14A20.24,20.24,0,0,1,0,20.25Z"/><path class="cls-2" d="M40.5,20.25H0a20,20,0,0,1,.81-5.67A20.38,20.38,0,0,1,9.88,2.85a2.07,2.07,0,0,1,.25-.15A20.37,20.37,0,0,1,20.25,0,20.33,20.33,0,0,1,30.38,2.7l.24.15a20.38,20.38,0,0,1,9.07,11.73A20,20,0,0,1,40.5,20.25Z"/><polygon class="cls-3" points="20.25 13.5 21.77 18.16 26.67 18.16 22.7 21.05 24.21 25.71 20.25 22.83 16.29 25.71 17.8 21.05 13.83 18.16 18.73 18.16 20.25 13.5"/></g></g></svg>