<svg viewBox="0 0 40.5 40.5" xmlns="http://www.w3.org/2000/svg"><path d="m40.5 20.25a20.24 20.24 0 0 1 -9.91 17.4 1.91 1.91 0 0 1 -.21.14 20.21 20.21 0 0 1 -10.13 2.71 19.92 19.92 0 0 1 -6.07-.93 19.37 19.37 0 0 1 -4-1.78 1.35 1.35 0 0 1 -.22-.14 20.24 20.24 0 0 1 -9.96-17.4z" fill="#009e49"/><path d="m40.5 20.25h-40.5a20 20 0 0 1 .81-5.67 20.38 20.38 0 0 1 9.07-11.73 2.07 2.07 0 0 1 .25-.15 20.37 20.37 0 0 1 10.12-2.7 20.33 20.33 0 0 1 10.13 2.7l.24.15a20.38 20.38 0 0 1 9.07 11.73 20 20 0 0 1 .81 5.67z" fill="#ef2b2d"/><path d="m20.25 13.5 1.52 4.66h4.9l-3.97 2.89 1.51 4.66-3.96-2.88-3.96 2.88 1.51-4.66-3.97-2.89h4.9z" fill="#fcd116"/></svg>