<svg xmlns="http://www.w3.org/2000/svg" viewBox="0 0 40.5 40.5"><defs><style>.cls-1{fill:#00778b;}.cls-2{fill:#ffc72c;}</style></defs><g id="Ebene_2" data-name="Ebene 2"><g id="Ńëîé_1" data-name="Ńëîé 1"><path class="cls-1" d="M39.34,13.5H1.16A20,20,0,0,1,3.05,9.58,20.24,20.24,0,0,1,39.34,13.5Z"/><path class="cls-2" d="M40.5,20.25A20,20,0,0,1,39.34,27H1.16a20.22,20.22,0,0,1,0-13.5H39.34A20,20,0,0,1,40.5,20.25Z"/><path class="cls-1" d="M39.34,27A20.24,20.24,0,0,1,3.05,30.92,20,20,0,0,1,1.16,27Z"/><path d="M21.48,20.25,9.81,27,3.05,30.92a20.17,20.17,0,0,1,0-21.34L9.81,13.5Z"/></g></g></svg>