<svg xmlns="http://www.w3.org/2000/svg" viewBox="0 0 40.5 40.5"><defs><style>.cls-1{fill:#002395;}.cls-2{fill:#fecb00;}.cls-3{fill:#fff;}</style></defs><g id="Ebene_2" data-name="Ebene 2"><g id="Ńëîé_1" data-name="Ńëîé 1"><path class="cls-1" d="M40.5,20.25a20.14,20.14,0,0,1-6,14.42,18.89,18.89,0,0,1-3.24,2.59,18.65,18.65,0,0,1-2.95,1.59A19.66,19.66,0,0,1,25,40,20.27,20.27,0,0,1,0,20.25a20,20,0,0,1,.2-2.81,19.49,19.49,0,0,1,1.84-6A16.92,16.92,0,0,1,3.23,9.29a20.25,20.25,0,0,1,37.27,11Z"/><path class="cls-2" d="M34.45,5.83V34.67a18.89,18.89,0,0,1-3.24,2.59l-28-28A20.22,20.22,0,0,1,34.45,5.83Z"/><path class="cls-3" d="M28.26,38.85A19.66,19.66,0,0,1,25,40l-1.5-1.1h2.82l.88-2.68L28,38.85Z"/><polygon class="cls-3" points="22.07 31.12 22.95 33.8 25.77 33.8 23.49 35.46 24.36 38.15 22.07 36.49 19.79 38.15 20.66 35.46 18.38 33.8 21.2 33.8 22.07 31.12"/><polygon class="cls-3" points="17.05 26.04 17.92 28.73 20.74 28.73 18.46 30.39 19.33 33.08 17.05 31.41 14.76 33.08 15.63 30.39 13.35 28.73 16.17 28.73 17.05 26.04"/><polygon class="cls-3" points="11.96 21 12.83 23.68 15.65 23.68 13.37 25.34 14.24 28.03 11.96 26.37 9.67 28.03 10.55 25.34 8.26 23.68 11.09 23.68 11.96 21"/><polygon class="cls-3" points="6.89 15.91 7.77 18.6 10.59 18.6 8.3 20.26 9.18 22.95 6.89 21.29 4.61 22.95 5.48 20.26 3.2 18.6 6.02 18.6 6.89 15.91"/><path class="cls-3" d="M3.27,15.21l.87,2.69L1.86,16.24.2,17.44a19.49,19.49,0,0,1,1.84-6l.69,2.14H5.56Z"/></g></g></svg>