<svg xmlns="http://www.w3.org/2000/svg" viewBox="0 0 40.5 40.5"><defs><style>.cls-1{fill:#fff;}.cls-2{fill:#c8313e;}.cls-3{fill:#4aa657;}</style></defs><g id="Ebene_2" data-name="Ebene 2"><g id="Ńëîé_1" data-name="Ńëîé 1"><path class="cls-1" d="M9,3.42V37.08c-.13-.09-.27-.17-.39-.27s-.27-.18-.39-.28h0l-.36-.29c-.14-.1-.26-.2-.39-.31l-.08-.06-.31-.27c-.14-.11-.26-.23-.39-.34s0,0-.06-.06-.23-.21-.34-.32a4.64,4.64,0,0,1-.39-.38c-.13-.13-.25-.27-.39-.4l-.21-.23-.18-.2c-.14-.15-.27-.32-.39-.46s-.27-.31-.39-.48l-.15-.19-.25-.32-.24-.34-.15-.21c-.09-.15-.2-.3-.29-.46s-.29-.43-.42-.66a.75.75,0,0,0-.07-.12c-.11-.18-.2-.37-.31-.54l-.08-.17a4.74,4.74,0,0,1-.26-.5L2,28.93c-.07-.12-.12-.26-.18-.38a5,5,0,0,1-.21-.48,1.08,1.08,0,0,1-.07-.18c-.1-.23-.19-.46-.27-.67a1.15,1.15,0,0,0-.06-.17,4.16,4.16,0,0,1-.16-.5,5,5,0,0,1-.2-.66c-.16-.54-.3-1.09-.42-1.64a2.83,2.83,0,0,0-.07-.36c0-.21-.06-.43-.1-.66s-.06-.43-.08-.66a19.29,19.29,0,0,1,0-4.64c0-.23,0-.45.08-.66s.06-.45.1-.66a2.83,2.83,0,0,0,.07-.36c.12-.55.26-1.1.42-1.64A5,5,0,0,1,1,14a4.16,4.16,0,0,1,.16-.5,1.15,1.15,0,0,0,.06-.17c.08-.21.17-.44.27-.67a1.08,1.08,0,0,1,.07-.18A5,5,0,0,1,1.78,12c.06-.12.11-.26.18-.38l.13-.28a4.74,4.74,0,0,1,.26-.5l.08-.17c.11-.17.2-.36.31-.54A.75.75,0,0,0,2.81,10c.13-.23.27-.44.42-.66s.2-.31.29-.46l.15-.21.24-.34L4.16,8c0-.06.11-.12.15-.18s.25-.31.39-.48S5,7,5.09,6.84l.18-.2.21-.23c.14-.13.26-.27.39-.4a4.64,4.64,0,0,1,.39-.38c.11-.11.22-.22.34-.32l.06-.06c.13-.11.25-.23.39-.34l.31-.27.08-.06c.13-.11.25-.21.39-.31L8.19,4h0c.12-.1.26-.19.39-.28S8.87,3.51,9,3.42Z"/><rect class="cls-2" x="4.3" y="9.3" width="0.39" height="0.66"/><rect class="cls-2" x="4.3" y="9.96" width="0.39" height="0.66"/><rect class="cls-2" x="4.3" y="12.61" width="0.39" height="0.66"/><rect class="cls-2" x="4.3" y="13.28" width="0.39" height="0.66"/><rect class="cls-2" x="4.3" y="13.94" width="0.39" height="0.66"/><rect class="cls-2" x="4.3" y="14.61" width="0.39" height="0.66"/><rect class="cls-2" x="4.3" y="16.6" width="0.39" height="0.66"/><rect class="cls-2" x="4.3" y="19.92" width="0.39" height="0.66"/><rect class="cls-2" x="4.3" y="19.25" width="0.39" height="0.66"/><path class="cls-2" d="M4.31,7.78V8H4.16C4.21,7.9,4.27,7.84,4.31,7.78Z"/><path class="cls-2" d="M3.91,8.29v.34H3.67Z"/><path class="cls-2" d="M3.52,8.84V9.3H3.23C3.32,9.14,3.43,9,3.52,8.84Z"/><path class="cls-2" d="M2.74,10.08v.54H2.43C2.54,10.45,2.63,10.26,2.74,10.08Z"/><path class="cls-2" d="M3.13,10v.66H2.74v-.54A.75.75,0,0,0,2.81,10Z"/><path class="cls-2" d="M2.35,10.79v.5H2.09A4.74,4.74,0,0,1,2.35,10.79Z"/><path class="cls-2" d="M2.74,10.62v.67H2.35v-.5l.08-.17Z"/><rect class="cls-2" x="2.74" y="10.62" width="0.39" height="0.66"/><rect class="cls-2" x="3.13" y="10.62" width="0.39" height="0.66"/><path class="cls-2" d="M2,11.57V12H1.78C1.84,11.83,1.89,11.69,2,11.57Z"/><path class="cls-2" d="M2.35,11.29V12H2v-.38l.13-.28Z"/><rect class="cls-2" x="2.35" y="11.29" width="0.39" height="0.66"/><rect class="cls-2" x="2.74" y="11.29" width="0.39" height="0.66"/><rect class="cls-2" x="3.13" y="11.29" width="0.39" height="0.66"/><rect class="cls-2" x="3.52" y="11.29" width="0.39" height="0.66"/><path class="cls-2" d="M1.57,12.43v.18H1.5A1.08,1.08,0,0,1,1.57,12.43Z"/><path class="cls-2" d="M2,12v.66H1.57v-.18A5,5,0,0,1,1.78,12Z"/><rect class="cls-2" x="1.96" y="11.95" width="0.39" height="0.66"/><rect class="cls-2" x="2.35" y="11.95" width="0.39" height="0.66"/><rect class="cls-2" x="2.74" y="11.95" width="0.39" height="0.66"/><rect class="cls-2" x="3.13" y="11.95" width="0.39" height="0.66"/><rect class="cls-2" x="3.52" y="11.95" width="0.39" height="0.66"/><rect class="cls-2" x="3.91" y="11.95" width="0.39" height="0.66"/><path class="cls-2" d="M1.57,12.61v.67H1.23c.08-.21.17-.44.27-.67Z"/><rect class="cls-2" x="2.74" y="12.61" width="0.39" height="0.66"/><rect class="cls-2" x="3.13" y="12.61" width="0.39" height="0.66"/><rect class="cls-2" x="3.52" y="12.61" width="0.39" height="0.66"/><rect class="cls-2" x="3.91" y="12.61" width="0.39" height="0.66"/><path class="cls-2" d="M1.17,13.45V14H1A4.16,4.16,0,0,1,1.17,13.45Z"/><path class="cls-2" d="M1.57,13.28V14h-.4v-.5a1.15,1.15,0,0,0,.06-.17Z"/><rect class="cls-2" x="1.57" y="13.28" width="0.39" height="0.66"/><rect class="cls-2" x="1.96" y="13.28" width="0.39" height="0.66"/><rect class="cls-2" x="3.13" y="13.28" width="0.39" height="0.66"/><rect class="cls-2" x="3.52" y="13.28" width="0.39" height="0.66"/><rect class="cls-2" x="3.91" y="13.28" width="0.39" height="0.66"/><path class="cls-2" d="M1.17,14v.66H.81A5,5,0,0,1,1,14Z"/><rect class="cls-2" x="1.17" y="13.94" width="0.39" height="0.66"/><rect class="cls-2" x="1.57" y="13.94" width="0.39" height="0.66"/><rect class="cls-2" x="3.52" y="13.94" width="0.39" height="0.66"/><rect class="cls-2" x="3.91" y="13.94" width="0.39" height="0.66"/><rect class="cls-2" x="1.17" y="14.61" width="0.39" height="0.66"/><rect class="cls-2" x="3.13" y="14.61" width="0.39" height="0.66"/><rect class="cls-2" x="3.52" y="14.61" width="0.39" height="0.66"/><rect class="cls-2" x="3.91" y="14.61" width="0.39" height="0.66"/><rect class="cls-2" x="3.13" y="15.27" width="0.39" height="0.66"/><rect class="cls-2" x="2.74" y="15.27" width="0.39" height="0.66"/><rect class="cls-2" x="3.52" y="15.27" width="0.39" height="0.66"/><rect class="cls-2" x="3.91" y="15.27" width="0.39" height="0.66"/><path class="cls-2" d="M.39,16.25v.36H.32A2.83,2.83,0,0,0,.39,16.25Z"/><rect class="cls-2" x="2.35" y="15.93" width="0.39" height="0.66"/><rect class="cls-2" x="2.74" y="15.93" width="0.39" height="0.66"/><rect class="cls-2" x="3.13" y="15.93" width="0.39" height="0.66"/><rect class="cls-2" x="3.52" y="15.93" width="0.39" height="0.66"/><path class="cls-2" d="M.39,16.61v.66H.22c0-.23.06-.45.1-.66Z"/><rect class="cls-2" x="0.39" y="16.6" width="0.39" height="0.66"/><rect class="cls-2" x="1.96" y="16.6" width="0.39" height="0.66"/><rect class="cls-2" x="2.35" y="16.6" width="0.39" height="0.66"/><rect class="cls-2" x="2.74" y="16.6" width="0.39" height="0.66"/><rect class="cls-2" x="3.13" y="16.6" width="0.39" height="0.66"/><path class="cls-2" d="M.39,17.27v.66H.14c0-.23,0-.45.08-.66Z"/><rect class="cls-2" x="0.39" y="17.26" width="0.39" height="0.66"/><rect class="cls-2" x="0.78" y="17.26" width="0.39" height="0.66"/><rect class="cls-2" x="1.57" y="17.26" width="0.39" height="0.66"/><rect class="cls-2" x="1.96" y="17.26" width="0.39" height="0.66"/><rect class="cls-2" x="2.35" y="17.26" width="0.39" height="0.66"/><rect class="cls-2" x="2.74" y="17.26" width="0.39" height="0.66"/><rect class="cls-2" x="0.39" y="17.93" width="0.39" height="0.66"/><rect class="cls-2" x="0.78" y="17.93" width="0.39" height="0.66"/><rect class="cls-2" x="1.17" y="17.93" width="0.39" height="0.66"/><rect class="cls-2" x="1.57" y="17.93" width="0.39" height="0.66"/><rect class="cls-2" x="1.96" y="17.93" width="0.39" height="0.66"/><rect class="cls-2" x="2.35" y="17.93" width="0.39" height="0.66"/><rect class="cls-2" x="3.52" y="17.93" width="0.39" height="0.66"/><rect class="cls-2" x="0.78" y="18.59" width="0.39" height="0.66"/><rect class="cls-2" x="1.17" y="18.59" width="0.39" height="0.66"/><rect class="cls-2" x="1.57" y="18.59" width="0.39" height="0.66"/><rect class="cls-2" x="1.96" y="18.59" width="0.39" height="0.66"/><rect class="cls-2" x="3.52" y="18.59" width="0.39" height="0.66"/><rect class="cls-2" x="3.91" y="18.59" width="0.39" height="0.66"/><rect class="cls-2" x="1.17" y="19.25" width="0.39" height="0.66"/><rect class="cls-2" x="1.57" y="19.25" width="0.39" height="0.66"/><rect class="cls-2" x="1.96" y="19.25" width="0.39" height="0.66"/><rect class="cls-2" x="3.91" y="19.25" width="0.39" height="0.66"/><rect class="cls-2" x="1.57" y="19.92" width="0.39" height="0.66"/><rect class="cls-2" x="1.96" y="19.92" width="0.39" height="0.66"/><rect class="cls-2" x="2.74" y="19.92" width="0.39" height="0.66"/><rect class="cls-2" x="4.3" y="30.54" width="0.39" height="0.66"/><rect class="cls-2" x="4.3" y="29.88" width="0.39" height="0.66"/><rect class="cls-2" x="4.3" y="27.22" width="0.39" height="0.66"/><rect class="cls-2" x="4.3" y="26.56" width="0.39" height="0.66"/><rect class="cls-2" x="4.3" y="25.89" width="0.39" height="0.66"/><rect class="cls-2" x="4.3" y="25.23" width="0.39" height="0.66"/><rect class="cls-2" x="4.3" y="23.24" width="0.39" height="0.66"/><rect class="cls-2" x="4.3" y="19.92" width="0.39" height="0.66"/><rect class="cls-2" x="4.3" y="20.58" width="0.39" height="0.66"/><path class="cls-2" d="M4.31,32.53v.19l-.15-.19Z"/><path class="cls-2" d="M3.91,31.87v.34l-.24-.34Z"/><path class="cls-2" d="M3.52,31.2v.46c-.09-.15-.2-.3-.29-.46Z"/><path class="cls-2" d="M2.74,29.88v.54c-.11-.18-.2-.37-.31-.54Z"/><path class="cls-2" d="M3.13,29.88v.66H2.81a.75.75,0,0,0-.07-.12v-.54Z"/><path class="cls-2" d="M2.35,29.21v.5a4.74,4.74,0,0,1-.26-.5Z"/><path class="cls-2" d="M2.74,29.21v.67H2.43l-.08-.17v-.5Z"/><rect class="cls-2" x="2.74" y="29.21" width="0.39" height="0.66"/><rect class="cls-2" x="3.13" y="29.21" width="0.39" height="0.66"/><path class="cls-2" d="M2,28.55v.38c-.07-.12-.12-.26-.18-.38Z"/><path class="cls-2" d="M2.35,28.55v.66H2.09L2,28.93v-.38Z"/><rect class="cls-2" x="2.35" y="28.55" width="0.39" height="0.66"/><rect class="cls-2" x="2.74" y="28.55" width="0.39" height="0.66"/><rect class="cls-2" x="3.13" y="28.55" width="0.39" height="0.66"/><rect class="cls-2" x="3.52" y="28.55" width="0.39" height="0.66"/><path class="cls-2" d="M1.57,27.89v.18a1.08,1.08,0,0,1-.07-.18Z"/><path class="cls-2" d="M2,27.89v.66H1.78a5,5,0,0,1-.21-.48v-.18Z"/><rect class="cls-2" x="1.96" y="27.89" width="0.39" height="0.66"/><rect class="cls-2" x="2.35" y="27.89" width="0.39" height="0.66"/><rect class="cls-2" x="2.74" y="27.89" width="0.39" height="0.66"/><rect class="cls-2" x="3.13" y="27.89" width="0.39" height="0.66"/><rect class="cls-2" x="3.52" y="27.89" width="0.39" height="0.66"/><rect class="cls-2" x="3.91" y="27.89" width="0.39" height="0.66"/><path class="cls-2" d="M1.57,27.22v.67H1.5c-.1-.23-.19-.46-.27-.67Z"/><rect class="cls-2" x="2.74" y="27.22" width="0.39" height="0.66"/><rect class="cls-2" x="3.13" y="27.22" width="0.39" height="0.66"/><rect class="cls-2" x="3.52" y="27.22" width="0.39" height="0.66"/><rect class="cls-2" x="3.91" y="27.22" width="0.39" height="0.66"/><path class="cls-2" d="M1.17,26.55v.5a4.16,4.16,0,0,1-.16-.5Z"/><polygon class="cls-2" points="1.23 27.22 1.57 27.22 1.57 26.55 1.17 26.55 1.17 27.05 1.23 27.22"/><rect class="cls-2" x="1.57" y="26.56" width="0.39" height="0.66"/><rect class="cls-2" x="1.96" y="26.56" width="0.39" height="0.66"/><rect class="cls-2" x="3.13" y="26.56" width="0.39" height="0.66"/><rect class="cls-2" x="3.52" y="26.56" width="0.39" height="0.66"/><rect class="cls-2" x="3.91" y="26.56" width="0.39" height="0.66"/><path class="cls-2" d="M1.17,25.89v.66H1a5,5,0,0,1-.2-.66Z"/><rect class="cls-2" x="1.17" y="25.89" width="0.39" height="0.66"/><rect class="cls-2" x="1.57" y="25.89" width="0.39" height="0.66"/><rect class="cls-2" x="3.52" y="25.89" width="0.39" height="0.66"/><rect class="cls-2" x="3.91" y="25.89" width="0.39" height="0.66"/><rect class="cls-2" x="1.17" y="25.23" width="0.39" height="0.66"/><rect class="cls-2" x="3.13" y="25.23" width="0.39" height="0.66"/><rect class="cls-2" x="3.52" y="25.23" width="0.39" height="0.66"/><rect class="cls-2" x="3.91" y="25.23" width="0.39" height="0.66"/><rect class="cls-2" x="3.13" y="24.57" width="0.39" height="0.66"/><rect class="cls-2" x="2.74" y="24.57" width="0.39" height="0.66"/><rect class="cls-2" x="3.52" y="24.57" width="0.39" height="0.66"/><rect class="cls-2" x="3.91" y="24.57" width="0.39" height="0.66"/><path class="cls-2" d="M.39,23.89v.36a2.83,2.83,0,0,0-.07-.36Z"/><rect class="cls-2" x="2.35" y="23.9" width="0.39" height="0.66"/><rect class="cls-2" x="2.74" y="23.9" width="0.39" height="0.66"/><rect class="cls-2" x="3.13" y="23.9" width="0.39" height="0.66"/><rect class="cls-2" x="3.52" y="23.9" width="0.39" height="0.66"/><path class="cls-2" d="M.39,23.23v.66H.32c0-.21-.06-.43-.1-.66Z"/><rect class="cls-2" x="0.39" y="23.24" width="0.39" height="0.66"/><rect class="cls-2" x="1.96" y="23.24" width="0.39" height="0.66"/><rect class="cls-2" x="2.35" y="23.24" width="0.39" height="0.66"/><rect class="cls-2" x="2.74" y="23.24" width="0.39" height="0.66"/><rect class="cls-2" x="3.13" y="23.24" width="0.39" height="0.66"/><path class="cls-2" d="M.39,22.57v.66H.22c0-.21-.06-.43-.08-.66Z"/><rect class="cls-2" x="0.39" y="22.57" width="0.39" height="0.66"/><rect class="cls-2" x="0.78" y="22.57" width="0.39" height="0.66"/><rect class="cls-2" x="1.57" y="22.57" width="0.39" height="0.66"/><rect class="cls-2" x="1.96" y="22.57" width="0.39" height="0.66"/><rect class="cls-2" x="2.35" y="22.57" width="0.39" height="0.66"/><rect class="cls-2" x="2.74" y="22.57" width="0.39" height="0.66"/><rect class="cls-2" x="0.39" y="21.91" width="0.39" height="0.66"/><rect class="cls-2" x="0.78" y="21.91" width="0.39" height="0.66"/><rect class="cls-2" x="1.17" y="21.91" width="0.39" height="0.66"/><rect class="cls-2" x="1.57" y="21.91" width="0.39" height="0.66"/><rect class="cls-2" x="1.96" y="21.91" width="0.39" height="0.66"/><rect class="cls-2" x="2.35" y="21.91" width="0.39" height="0.66"/><rect class="cls-2" x="3.52" y="21.91" width="0.39" height="0.66"/><rect class="cls-2" x="0.78" y="21.25" width="0.39" height="0.66"/><rect class="cls-2" x="1.17" y="21.25" width="0.39" height="0.66"/><rect class="cls-2" x="1.57" y="21.25" width="0.39" height="0.66"/><rect class="cls-2" x="1.96" y="21.25" width="0.39" height="0.66"/><rect class="cls-2" x="3.52" y="21.25" width="0.39" height="0.66"/><rect class="cls-2" x="3.91" y="21.25" width="0.39" height="0.66"/><rect class="cls-2" x="1.17" y="20.58" width="0.39" height="0.66"/><rect class="cls-2" x="1.57" y="20.58" width="0.39" height="0.66"/><rect class="cls-2" x="1.96" y="20.58" width="0.39" height="0.66"/><rect class="cls-2" x="3.91" y="20.58" width="0.39" height="0.66"/><rect class="cls-2" x="1.57" y="19.92" width="0.39" height="0.66"/><rect class="cls-2" x="1.96" y="19.92" width="0.39" height="0.66"/><rect class="cls-2" x="2.74" y="19.92" width="0.39" height="0.66"/><rect class="cls-2" x="4.3" y="9.3" width="0.39" height="0.66"/><rect class="cls-2" x="4.3" y="9.96" width="0.39" height="0.66"/><rect class="cls-2" x="4.3" y="12.61" width="0.39" height="0.66"/><rect class="cls-2" x="4.3" y="13.28" width="0.39" height="0.66"/><rect class="cls-2" x="4.3" y="13.94" width="0.39" height="0.66"/><rect class="cls-2" x="4.3" y="14.61" width="0.39" height="0.66"/><rect class="cls-2" x="4.3" y="16.6" width="0.39" height="0.66"/><rect class="cls-2" x="4.3" y="19.92" width="0.39" height="0.66"/><rect class="cls-2" x="4.3" y="19.25" width="0.39" height="0.66"/><path class="cls-2" d="M8.22,4h0Z"/><path class="cls-2" d="M8.61,3.69V4H8.22C8.34,3.87,8.48,3.78,8.61,3.69Z"/><path class="cls-2" d="M7.83,4.27v.37H7.44V4.58C7.57,4.47,7.69,4.37,7.83,4.27Z"/><path class="cls-2" d="M8.22,4v.66H7.83V4.27L8.19,4Z"/><path class="cls-2" d="M7.44,4.58v.06H7.36Z"/><rect class="cls-2" x="7.44" y="4.65" width="0.39" height="0.66"/><path class="cls-2" d="M7.44,4.64v.67H7.05v-.4l.31-.27Z"/><path class="cls-2" d="M7.05,4.91v.4H6.66V5.25C6.79,5.14,6.91,5,7.05,4.91Z"/><path class="cls-2" d="M6.66,5.25v.06H6.6Z"/><rect class="cls-2" x="8.61" y="4.65" width="0.39" height="0.66"/><rect class="cls-2" x="7.04" y="5.31" width="0.39" height="0.66"/><rect class="cls-2" x="6.65" y="5.31" width="0.39" height="0.66"/><path class="cls-2" d="M6.66,5.31V6h-.4V5.63c.11-.11.22-.22.34-.32Z"/><rect class="cls-2" x="7.83" y="5.98" width="0.39" height="0.66"/><rect class="cls-2" x="6.65" y="5.98" width="0.39" height="0.66"/><path class="cls-2" d="M5.87,6v.63H5.48V6.41C5.62,6.28,5.74,6.14,5.87,6Z"/><rect class="cls-2" x="8.22" y="6.64" width="0.39" height="0.66"/><rect class="cls-2" x="7.83" y="6.64" width="0.39" height="0.66"/><rect class="cls-2" x="7.44" y="6.64" width="0.39" height="0.66"/><rect class="cls-2" x="5.87" y="6.64" width="0.39" height="0.66"/><rect class="cls-2" x="5.48" y="6.64" width="0.39" height="0.66"/><path class="cls-2" d="M5.48,6.64V7.3H5.09V6.84l.18-.2Z"/><rect class="cls-2" x="8.61" y="7.3" width="0.39" height="0.66"/><rect class="cls-2" x="8.22" y="7.3" width="0.39" height="0.66"/><rect class="cls-2" x="7.44" y="7.3" width="0.39" height="0.66"/><rect class="cls-2" x="7.04" y="7.3" width="0.39" height="0.66"/><rect class="cls-2" x="6.26" y="7.3" width="0.39" height="0.66"/><rect class="cls-2" x="5.87" y="7.3" width="0.39" height="0.66"/><rect class="cls-2" x="5.09" y="7.3" width="0.39" height="0.66"/><rect class="cls-2" x="4.7" y="7.3" width="0.39" height="0.66"/><rect class="cls-2" x="8.22" y="7.97" width="0.39" height="0.66"/><rect class="cls-2" x="7.83" y="7.97" width="0.39" height="0.66"/><rect class="cls-2" x="7.44" y="7.97" width="0.39" height="0.66"/><rect class="cls-2" x="5.87" y="7.97" width="0.39" height="0.66"/><rect class="cls-2" x="5.48" y="7.97" width="0.39" height="0.66"/><rect class="cls-2" x="5.09" y="7.97" width="0.39" height="0.66"/><rect class="cls-2" x="7.83" y="8.63" width="0.39" height="0.66"/><rect class="cls-2" x="6.65" y="8.63" width="0.39" height="0.66"/><rect class="cls-2" x="5.48" y="8.63" width="0.39" height="0.66"/><rect class="cls-2" x="7.04" y="9.3" width="0.39" height="0.66"/><rect class="cls-2" x="6.65" y="9.3" width="0.39" height="0.66"/><rect class="cls-2" x="6.26" y="9.3" width="0.39" height="0.66"/><rect class="cls-2" x="8.61" y="9.96" width="0.39" height="0.66"/><rect class="cls-2" x="7.44" y="9.96" width="0.39" height="0.66"/><rect class="cls-2" x="7.04" y="9.96" width="0.39" height="0.66"/><rect class="cls-2" x="6.65" y="9.96" width="0.39" height="0.66"/><rect class="cls-2" x="6.26" y="9.96" width="0.39" height="0.66"/><rect class="cls-2" x="5.87" y="9.96" width="0.39" height="0.66"/><rect class="cls-2" x="7.83" y="10.62" width="0.39" height="0.66"/><rect class="cls-2" x="7.44" y="10.62" width="0.39" height="0.66"/><rect class="cls-2" x="7.04" y="10.62" width="0.39" height="0.66"/><rect class="cls-2" x="6.65" y="10.62" width="0.39" height="0.66"/><rect class="cls-2" x="6.26" y="10.62" width="0.39" height="0.66"/><rect class="cls-2" x="5.87" y="10.62" width="0.39" height="0.66"/><rect class="cls-2" x="5.48" y="10.62" width="0.39" height="0.66"/><rect class="cls-2" x="8.22" y="11.29" width="0.39" height="0.66"/><rect class="cls-2" x="7.83" y="11.29" width="0.39" height="0.66"/><rect class="cls-2" x="7.44" y="11.29" width="0.39" height="0.66"/><rect class="cls-2" x="7.04" y="11.29" width="0.39" height="0.66"/><rect class="cls-2" x="6.65" y="11.29" width="0.39" height="0.66"/><rect class="cls-2" x="6.26" y="11.29" width="0.39" height="0.66"/><rect class="cls-2" x="5.87" y="11.29" width="0.39" height="0.66"/><rect class="cls-2" x="5.48" y="11.29" width="0.39" height="0.66"/><rect class="cls-2" x="5.09" y="11.29" width="0.39" height="0.66"/><rect class="cls-2" x="8.61" y="11.95" width="0.39" height="0.66"/><rect class="cls-2" x="8.22" y="11.95" width="0.39" height="0.66"/><rect class="cls-2" x="7.83" y="11.95" width="0.39" height="0.66"/><rect class="cls-2" x="7.44" y="11.95" width="0.39" height="0.66"/><rect class="cls-2" x="7.04" y="11.95" width="0.39" height="0.66"/><rect class="cls-2" x="6.65" y="11.95" width="0.39" height="0.66"/><rect class="cls-2" x="6.26" y="11.95" width="0.39" height="0.66"/><rect class="cls-2" x="5.87" y="11.95" width="0.39" height="0.66"/><rect class="cls-2" x="5.48" y="11.95" width="0.39" height="0.66"/><rect class="cls-2" x="5.09" y="11.95" width="0.39" height="0.66"/><rect class="cls-2" x="4.7" y="11.95" width="0.39" height="0.66"/><rect class="cls-2" x="8.61" y="12.61" width="0.39" height="0.66"/><rect class="cls-2" x="8.22" y="12.61" width="0.39" height="0.66"/><rect class="cls-2" x="7.83" y="12.61" width="0.39" height="0.66"/><rect class="cls-2" x="7.44" y="12.61" width="0.39" height="0.66"/><rect class="cls-2" x="5.87" y="12.61" width="0.39" height="0.66"/><rect class="cls-2" x="5.48" y="12.61" width="0.39" height="0.66"/><rect class="cls-2" x="5.09" y="12.61" width="0.39" height="0.66"/><rect class="cls-2" x="4.7" y="12.61" width="0.39" height="0.66"/><rect class="cls-2" x="8.22" y="13.28" width="0.39" height="0.66"/><rect class="cls-2" x="7.83" y="13.28" width="0.39" height="0.66"/><rect class="cls-2" x="7.44" y="13.28" width="0.39" height="0.66"/><rect class="cls-2" x="7.04" y="13.28" width="0.39" height="0.66"/><rect class="cls-2" x="6.65" y="13.28" width="0.39" height="0.66"/><rect class="cls-2" x="5.48" y="13.28" width="0.39" height="0.66"/><rect class="cls-2" x="5.09" y="13.28" width="0.39" height="0.66"/><rect class="cls-2" x="4.7" y="13.28" width="0.39" height="0.66"/><rect class="cls-2" x="7.83" y="13.94" width="0.39" height="0.66"/><rect class="cls-2" x="7.44" y="13.94" width="0.39" height="0.66"/><rect class="cls-2" x="7.04" y="13.94" width="0.39" height="0.66"/><rect class="cls-2" x="5.09" y="13.94" width="0.39" height="0.66"/><rect class="cls-2" x="4.7" y="13.94" width="0.39" height="0.66"/><rect class="cls-2" x="8.61" y="14.61" width="0.39" height="0.66"/><rect class="cls-2" x="7.44" y="14.61" width="0.39" height="0.66"/><rect class="cls-2" x="5.48" y="14.61" width="0.39" height="0.66"/><rect class="cls-2" x="5.09" y="14.61" width="0.39" height="0.66"/><rect class="cls-2" x="4.7" y="14.61" width="0.39" height="0.66"/><rect class="cls-2" x="5.48" y="15.27" width="0.39" height="0.66"/><rect class="cls-2" x="5.87" y="15.27" width="0.39" height="0.66"/><rect class="cls-2" x="5.09" y="15.27" width="0.39" height="0.66"/><rect class="cls-2" x="4.7" y="15.27" width="0.39" height="0.66"/><rect class="cls-2" x="8.61" y="15.93" width="0.39" height="0.66"/><rect class="cls-2" x="6.26" y="15.93" width="0.39" height="0.66"/><rect class="cls-2" x="5.87" y="15.93" width="0.39" height="0.66"/><rect class="cls-2" x="5.48" y="15.93" width="0.39" height="0.66"/><rect class="cls-2" x="5.09" y="15.93" width="0.39" height="0.66"/><rect class="cls-2" x="8.61" y="16.6" width="0.39" height="0.66"/><rect class="cls-2" x="8.22" y="16.6" width="0.39" height="0.66"/><rect class="cls-2" x="6.65" y="16.6" width="0.39" height="0.66"/><rect class="cls-2" x="6.26" y="16.6" width="0.39" height="0.66"/><rect class="cls-2" x="5.87" y="16.6" width="0.39" height="0.66"/><rect class="cls-2" x="5.48" y="16.6" width="0.39" height="0.66"/><rect class="cls-2" x="8.61" y="17.26" width="0.39" height="0.66"/><rect class="cls-2" x="8.22" y="17.26" width="0.39" height="0.66"/><rect class="cls-2" x="7.83" y="17.26" width="0.39" height="0.66"/><rect class="cls-2" x="7.04" y="17.26" width="0.39" height="0.66"/><rect class="cls-2" x="6.65" y="17.26" width="0.39" height="0.66"/><rect class="cls-2" x="6.26" y="17.26" width="0.39" height="0.66"/><rect class="cls-2" x="5.87" y="17.26" width="0.39" height="0.66"/><rect class="cls-2" x="8.22" y="17.93" width="0.39" height="0.66"/><rect class="cls-2" x="7.83" y="17.93" width="0.39" height="0.66"/><rect class="cls-2" x="7.44" y="17.93" width="0.39" height="0.66"/><rect class="cls-2" x="7.04" y="17.93" width="0.39" height="0.66"/><rect class="cls-2" x="6.65" y="17.93" width="0.39" height="0.66"/><rect class="cls-2" x="6.26" y="17.93" width="0.39" height="0.66"/><rect class="cls-2" x="5.09" y="17.93" width="0.39" height="0.66"/><rect class="cls-2" x="7.83" y="18.59" width="0.39" height="0.66"/><rect class="cls-2" x="7.44" y="18.59" width="0.39" height="0.66"/><rect class="cls-2" x="7.04" y="18.59" width="0.39" height="0.66"/><rect class="cls-2" x="6.65" y="18.59" width="0.39" height="0.66"/><rect class="cls-2" x="5.09" y="18.59" width="0.39" height="0.66"/><rect class="cls-2" x="4.7" y="18.59" width="0.39" height="0.66"/><rect class="cls-2" x="7.44" y="19.25" width="0.39" height="0.66"/><rect class="cls-2" x="7.04" y="19.25" width="0.39" height="0.66"/><rect class="cls-2" x="6.65" y="19.25" width="0.39" height="0.66"/><rect class="cls-2" x="4.7" y="19.25" width="0.39" height="0.66"/><rect class="cls-2" x="7.04" y="19.92" width="0.39" height="0.66"/><rect class="cls-2" x="6.65" y="19.92" width="0.39" height="0.66"/><rect class="cls-2" x="5.87" y="19.92" width="0.39" height="0.66"/><rect class="cls-2" x="4.3" y="30.54" width="0.39" height="0.66"/><rect class="cls-2" x="4.3" y="29.88" width="0.39" height="0.66"/><rect class="cls-2" x="4.3" y="27.22" width="0.39" height="0.66"/><rect class="cls-2" x="4.3" y="26.56" width="0.39" height="0.66"/><rect class="cls-2" x="4.3" y="25.89" width="0.39" height="0.66"/><rect class="cls-2" x="4.3" y="25.23" width="0.39" height="0.66"/><rect class="cls-2" x="4.3" y="23.24" width="0.39" height="0.66"/><rect class="cls-2" x="4.3" y="19.92" width="0.39" height="0.66"/><rect class="cls-2" x="4.3" y="20.58" width="0.39" height="0.66"/><path class="cls-2" d="M8.22,36.52h0Z"/><path class="cls-2" d="M8.61,36.52v.29c-.13-.09-.27-.18-.39-.28h.39Z"/><path class="cls-2" d="M7.83,35.86v.37c-.14-.1-.26-.2-.39-.31v-.06Z"/><path class="cls-2" d="M8.22,35.86v.66h0l-.36-.29v-.37Z"/><path class="cls-2" d="M7.44,35.86v.06l-.08-.06Z"/><rect class="cls-2" x="7.44" y="35.19" width="0.39" height="0.66"/><path class="cls-2" d="M7.44,35.19v.67H7.36l-.31-.27v-.4Z"/><path class="cls-2" d="M7.05,35.19v.4c-.14-.11-.26-.23-.39-.34v-.06Z"/><path class="cls-2" d="M6.66,35.19v.06s0,0-.06-.06Z"/><rect class="cls-2" x="8.61" y="35.19" width="0.39" height="0.66"/><rect class="cls-2" x="7.04" y="34.52" width="0.39" height="0.66"/><rect class="cls-2" x="6.65" y="34.52" width="0.39" height="0.66"/><path class="cls-2" d="M6.66,34.52v.67H6.6c-.12-.1-.23-.21-.34-.32v-.35Z"/><rect class="cls-2" x="7.83" y="33.86" width="0.39" height="0.66"/><rect class="cls-2" x="6.65" y="33.86" width="0.39" height="0.66"/><path class="cls-2" d="M5.87,33.86v.63c-.13-.13-.25-.27-.39-.4v-.23Z"/><rect class="cls-2" x="8.22" y="33.2" width="0.39" height="0.66"/><rect class="cls-2" x="7.83" y="33.2" width="0.39" height="0.66"/><rect class="cls-2" x="7.44" y="33.2" width="0.39" height="0.66"/><rect class="cls-2" x="5.87" y="33.2" width="0.39" height="0.66"/><rect class="cls-2" x="5.48" y="33.2" width="0.39" height="0.66"/><path class="cls-2" d="M5.48,33.2v.66H5.27l-.18-.2V33.2Z"/><rect class="cls-2" x="8.61" y="32.53" width="0.39" height="0.66"/><rect class="cls-2" x="8.22" y="32.53" width="0.39" height="0.66"/><rect class="cls-2" x="7.44" y="32.53" width="0.39" height="0.66"/><rect class="cls-2" x="7.04" y="32.53" width="0.39" height="0.66"/><rect class="cls-2" x="6.26" y="32.53" width="0.39" height="0.66"/><rect class="cls-2" x="5.87" y="32.53" width="0.39" height="0.66"/><rect class="cls-2" x="5.09" y="32.53" width="0.39" height="0.66"/><rect class="cls-2" x="4.7" y="32.53" width="0.39" height="0.66"/><rect class="cls-2" x="8.22" y="31.87" width="0.39" height="0.66"/><rect class="cls-2" x="7.83" y="31.87" width="0.39" height="0.66"/><rect class="cls-2" x="7.44" y="31.87" width="0.39" height="0.66"/><rect class="cls-2" x="5.87" y="31.87" width="0.39" height="0.66"/><rect class="cls-2" x="5.48" y="31.87" width="0.39" height="0.66"/><rect class="cls-2" x="5.09" y="31.87" width="0.39" height="0.66"/><rect class="cls-2" x="7.83" y="31.2" width="0.39" height="0.66"/><rect class="cls-2" x="6.65" y="31.2" width="0.39" height="0.66"/><rect class="cls-2" x="5.48" y="31.2" width="0.39" height="0.66"/><rect class="cls-2" x="7.04" y="30.54" width="0.39" height="0.66"/><rect class="cls-2" x="6.65" y="30.54" width="0.39" height="0.66"/><rect class="cls-2" x="6.26" y="30.54" width="0.39" height="0.66"/><rect class="cls-2" x="8.61" y="29.88" width="0.39" height="0.66"/><rect class="cls-2" x="7.44" y="29.88" width="0.39" height="0.66"/><rect class="cls-2" x="7.04" y="29.88" width="0.39" height="0.66"/><rect class="cls-2" x="6.65" y="29.88" width="0.39" height="0.66"/><rect class="cls-2" x="6.26" y="29.88" width="0.39" height="0.66"/><rect class="cls-2" x="5.87" y="29.88" width="0.39" height="0.66"/><rect class="cls-2" x="7.83" y="29.21" width="0.39" height="0.66"/><rect class="cls-2" x="7.44" y="29.21" width="0.39" height="0.66"/><rect class="cls-2" x="7.04" y="29.21" width="0.39" height="0.66"/><rect class="cls-2" x="6.65" y="29.21" width="0.39" height="0.66"/><rect class="cls-2" x="6.26" y="29.21" width="0.39" height="0.66"/><rect class="cls-2" x="5.87" y="29.21" width="0.39" height="0.66"/><rect class="cls-2" x="5.48" y="29.21" width="0.39" height="0.66"/><rect class="cls-2" x="8.22" y="28.55" width="0.39" height="0.66"/><rect class="cls-2" x="7.83" y="28.55" width="0.39" height="0.66"/><rect class="cls-2" x="7.44" y="28.55" width="0.39" height="0.66"/><rect class="cls-2" x="7.04" y="28.55" width="0.39" height="0.66"/><rect class="cls-2" x="6.65" y="28.55" width="0.39" height="0.66"/><rect class="cls-2" x="6.26" y="28.55" width="0.39" height="0.66"/><rect class="cls-2" x="5.87" y="28.55" width="0.39" height="0.66"/><rect class="cls-2" x="5.48" y="28.55" width="0.39" height="0.66"/><rect class="cls-2" x="5.09" y="28.55" width="0.39" height="0.66"/><rect class="cls-2" x="8.61" y="27.89" width="0.39" height="0.66"/><rect class="cls-2" x="8.22" y="27.89" width="0.39" height="0.66"/><rect class="cls-2" x="7.83" y="27.89" width="0.39" height="0.66"/><rect class="cls-2" x="7.44" y="27.89" width="0.39" height="0.66"/><rect class="cls-2" x="7.04" y="27.89" width="0.39" height="0.66"/><rect class="cls-2" x="6.65" y="27.89" width="0.39" height="0.66"/><rect class="cls-2" x="6.26" y="27.89" width="0.39" height="0.66"/><rect class="cls-2" x="5.87" y="27.89" width="0.39" height="0.66"/><rect class="cls-2" x="5.48" y="27.89" width="0.39" height="0.66"/><rect class="cls-2" x="5.09" y="27.89" width="0.39" height="0.66"/><rect class="cls-2" x="4.7" y="27.89" width="0.39" height="0.66"/><rect class="cls-2" x="8.61" y="27.22" width="0.39" height="0.66"/><rect class="cls-2" x="8.22" y="27.22" width="0.39" height="0.66"/><rect class="cls-2" x="7.83" y="27.22" width="0.39" height="0.66"/><rect class="cls-2" x="7.44" y="27.22" width="0.39" height="0.66"/><rect class="cls-2" x="5.87" y="27.22" width="0.39" height="0.66"/><rect class="cls-2" x="5.48" y="27.22" width="0.39" height="0.66"/><rect class="cls-2" x="5.09" y="27.22" width="0.39" height="0.66"/><rect class="cls-2" x="4.7" y="27.22" width="0.39" height="0.66"/><rect class="cls-2" x="8.22" y="26.56" width="0.39" height="0.66"/><rect class="cls-2" x="7.83" y="26.56" width="0.39" height="0.66"/><rect class="cls-2" x="7.44" y="26.56" width="0.39" height="0.66"/><rect class="cls-2" x="7.04" y="26.56" width="0.39" height="0.66"/><rect class="cls-2" x="6.65" y="26.56" width="0.39" height="0.66"/><rect class="cls-2" x="5.48" y="26.56" width="0.39" height="0.66"/><rect class="cls-2" x="5.09" y="26.56" width="0.39" height="0.66"/><rect class="cls-2" x="4.7" y="26.56" width="0.39" height="0.66"/><rect class="cls-2" x="7.83" y="25.89" width="0.39" height="0.66"/><rect class="cls-2" x="7.44" y="25.89" width="0.39" height="0.66"/><rect class="cls-2" x="7.04" y="25.89" width="0.39" height="0.66"/><rect class="cls-2" x="5.09" y="25.89" width="0.39" height="0.66"/><rect class="cls-2" x="4.7" y="25.89" width="0.39" height="0.66"/><rect class="cls-2" x="8.61" y="25.23" width="0.39" height="0.66"/><rect class="cls-2" x="7.44" y="25.23" width="0.39" height="0.66"/><rect class="cls-2" x="5.48" y="25.23" width="0.39" height="0.66"/><rect class="cls-2" x="5.09" y="25.23" width="0.39" height="0.66"/><rect class="cls-2" x="4.7" y="25.23" width="0.39" height="0.66"/><rect class="cls-2" x="5.48" y="24.57" width="0.39" height="0.66"/><rect class="cls-2" x="5.87" y="24.57" width="0.39" height="0.66"/><rect class="cls-2" x="5.09" y="24.57" width="0.39" height="0.66"/><rect class="cls-2" x="4.7" y="24.57" width="0.39" height="0.66"/><rect class="cls-2" x="8.61" y="23.9" width="0.39" height="0.66"/><rect class="cls-2" x="6.26" y="23.9" width="0.39" height="0.66"/><rect class="cls-2" x="5.87" y="23.9" width="0.39" height="0.66"/><rect class="cls-2" x="5.48" y="23.9" width="0.39" height="0.66"/><rect class="cls-2" x="5.09" y="23.9" width="0.39" height="0.66"/><rect class="cls-2" x="8.61" y="23.24" width="0.39" height="0.66"/><rect class="cls-2" x="8.22" y="23.24" width="0.39" height="0.66"/><rect class="cls-2" x="6.65" y="23.24" width="0.39" height="0.66"/><rect class="cls-2" x="6.26" y="23.24" width="0.39" height="0.66"/><rect class="cls-2" x="5.87" y="23.24" width="0.39" height="0.66"/><rect class="cls-2" x="5.48" y="23.24" width="0.39" height="0.66"/><rect class="cls-2" x="8.61" y="22.57" width="0.39" height="0.66"/><rect class="cls-2" x="8.22" y="22.57" width="0.39" height="0.66"/><rect class="cls-2" x="7.83" y="22.57" width="0.39" height="0.66"/><rect class="cls-2" x="7.04" y="22.57" width="0.39" height="0.66"/><rect class="cls-2" x="6.65" y="22.57" width="0.39" height="0.66"/><rect class="cls-2" x="6.26" y="22.57" width="0.39" height="0.66"/><rect class="cls-2" x="5.87" y="22.57" width="0.39" height="0.66"/><rect class="cls-2" x="8.22" y="21.91" width="0.39" height="0.66"/><rect class="cls-2" x="7.83" y="21.91" width="0.39" height="0.66"/><rect class="cls-2" x="7.44" y="21.91" width="0.39" height="0.66"/><rect class="cls-2" x="7.04" y="21.91" width="0.39" height="0.66"/><rect class="cls-2" x="6.65" y="21.91" width="0.39" height="0.66"/><rect class="cls-2" x="6.26" y="21.91" width="0.39" height="0.66"/><rect class="cls-2" x="5.09" y="21.91" width="0.39" height="0.66"/><rect class="cls-2" x="7.83" y="21.25" width="0.39" height="0.66"/><rect class="cls-2" x="7.44" y="21.25" width="0.39" height="0.66"/><rect class="cls-2" x="7.04" y="21.25" width="0.39" height="0.66"/><rect class="cls-2" x="6.65" y="21.25" width="0.39" height="0.66"/><rect class="cls-2" x="5.09" y="21.25" width="0.39" height="0.66"/><rect class="cls-2" x="4.7" y="21.25" width="0.39" height="0.66"/><rect class="cls-2" x="7.44" y="20.58" width="0.39" height="0.66"/><rect class="cls-2" x="7.04" y="20.58" width="0.39" height="0.66"/><rect class="cls-2" x="6.65" y="20.58" width="0.39" height="0.66"/><rect class="cls-2" x="4.7" y="20.58" width="0.39" height="0.66"/><rect class="cls-2" x="7.04" y="19.92" width="0.39" height="0.66"/><rect class="cls-2" x="6.65" y="19.92" width="0.39" height="0.66"/><rect class="cls-2" x="5.87" y="19.92" width="0.39" height="0.66"/><path class="cls-2" d="M40.5,20.25A20,20,0,0,1,39.35,27s0,0,0,0H9V3.42A20.24,20.24,0,0,1,40.5,20.25Z"/><path class="cls-3" d="M39.35,27s0,0,0,0A20.24,20.24,0,0,1,9,37.08V27Z"/></g></g></svg>