<svg viewBox="0 0 40.5 40.5" xmlns="http://www.w3.org/2000/svg"><path d="m9 3.42v33.66c-.13-.09-.27-.17-.39-.27s-.27-.18-.39-.28l-.36-.29c-.14-.1-.26-.2-.39-.31l-.08-.06-.31-.27c-.14-.11-.26-.23-.39-.34s0 0-.06-.06-.23-.21-.34-.32a4.64 4.64 0 0 1 -.39-.38c-.13-.13-.25-.27-.39-.4l-.21-.23-.18-.2c-.14-.15-.27-.32-.39-.46s-.27-.31-.39-.48l-.15-.19-.25-.32-.24-.34-.15-.21c-.09-.15-.2-.3-.29-.46s-.29-.43-.42-.66a.75.75 0 0 0 -.07-.12c-.11-.18-.2-.37-.31-.54l-.08-.17a4.74 4.74 0 0 1 -.26-.5l-.12-.29c-.07-.12-.12-.26-.18-.38a5 5 0 0 1 -.21-.48 1.08 1.08 0 0 1 -.07-.18c-.1-.23-.19-.46-.27-.67a1.15 1.15 0 0 0 -.06-.17 4.16 4.16 0 0 1 -.16-.5 5 5 0 0 1 -.2-.66c-.16-.54-.3-1.09-.42-1.64a2.83 2.83 0 0 0 -.07-.36c0-.21-.06-.43-.1-.66s-.06-.43-.08-.66a19.29 19.29 0 0 1 0-4.64c0-.23 0-.45.08-.66s.06-.45.1-.66a2.83 2.83 0 0 0 .07-.36c.12-.55.26-1.1.42-1.64a5 5 0 0 1 .15-.61 4.16 4.16 0 0 1 .16-.5 1.15 1.15 0 0 0 .06-.17c.08-.21.17-.44.27-.67a1.08 1.08 0 0 1 .07-.18 5 5 0 0 1 .22-.48c.06-.12.11-.26.18-.38l.13-.28a4.74 4.74 0 0 1 .26-.5l.08-.17c.11-.17.2-.36.31-.54a.75.75 0 0 0 .07-.13c.13-.23.27-.44.42-.66s.2-.31.29-.46l.15-.21.24-.34.25-.33c0-.06.11-.12.15-.18s.25-.31.39-.48.3-.34.39-.5l.18-.2.21-.23c.14-.13.26-.27.39-.4a4.64 4.64 0 0 1 .39-.38c.11-.11.22-.22.34-.32l.06-.06c.13-.11.25-.23.39-.34l.31-.27.08-.06c.13-.11.25-.21.39-.31l.36-.27c.12-.1.26-.19.39-.28s.29-.21.42-.3z" fill="#fff"/><g fill="#c8313e"><path d="m4.3 9.3h.39v.66h-.39z"/><path d="m4.3 9.96h.39v.66h-.39z"/><path d="m4.3 12.61h.39v.66h-.39z"/><path d="m4.3 13.28h.39v.66h-.39z"/><path d="m4.3 13.94h.39v.66h-.39z"/><path d="m4.3 14.61h.39v.66h-.39z"/><path d="m4.3 16.6h.39v.66h-.39z"/><path d="m4.3 19.92h.39v.66h-.39z"/><path d="m4.3 19.25h.39v.66h-.39z"/><path d="m4.31 7.78v.22h-.15c.05-.1.11-.16.15-.22z"/><path d="m3.91 8.29v.34h-.24z"/><path d="m3.52 8.84v.46h-.29c.09-.16.2-.3.29-.46z"/><path d="m2.74 10.08v.54h-.31c.11-.17.2-.36.31-.54z"/><path d="m3.13 10v.66h-.39v-.54a.75.75 0 0 0 .07-.12z"/><path d="m2.35 10.79v.5h-.26a4.74 4.74 0 0 1 .26-.5z"/><path d="m2.74 10.62v.67h-.39v-.5l.08-.17z"/><path d="m2.74 10.62h.39v.66h-.39z"/><path d="m3.13 10.62h.39v.66h-.39z"/><path d="m2 11.57v.43h-.22c.06-.17.11-.31.22-.43z"/><path d="m2.35 11.29v.71h-.35v-.38l.13-.28z"/><path d="m2.35 11.29h.39v.66h-.39z"/><path d="m2.74 11.29h.39v.66h-.39z"/><path d="m3.13 11.29h.39v.66h-.39z"/><path d="m3.52 11.29h.39v.66h-.39z"/><path d="m1.57 12.43v.18h-.07a1.08 1.08 0 0 1 .07-.18z"/><path d="m2 12v.66h-.43v-.18a5 5 0 0 1 .21-.48z"/><path d="m1.96 11.95h.39v.66h-.39z"/><path d="m2.35 11.95h.39v.66h-.39z"/><path d="m2.74 11.95h.39v.66h-.39z"/><path d="m3.13 11.95h.39v.66h-.39z"/><path d="m3.52 11.95h.39v.66h-.39z"/><path d="m3.91 11.95h.39v.66h-.39z"/><path d="m1.57 12.61v.67h-.34c.08-.21.17-.44.27-.67z"/><path d="m2.74 12.61h.39v.66h-.39z"/><path d="m3.13 12.61h.39v.66h-.39z"/><path d="m3.52 12.61h.39v.66h-.39z"/><path d="m3.91 12.61h.39v.66h-.39z"/><path d="m1.17 13.45v.55h-.17a4.16 4.16 0 0 1 .17-.55z"/><path d="m1.57 13.28v.72h-.4v-.5a1.15 1.15 0 0 0 .06-.17z"/><path d="m1.57 13.28h.39v.66h-.39z"/><path d="m1.96 13.28h.39v.66h-.39z"/><path d="m3.13 13.28h.39v.66h-.39z"/><path d="m3.52 13.28h.39v.66h-.39z"/><path d="m3.91 13.28h.39v.66h-.39z"/><path d="m1.17 14v.66h-.36a5 5 0 0 1 .19-.66z"/><path d="m1.17 13.94h.39v.66h-.39z"/><path d="m1.57 13.94h.39v.66h-.39z"/><path d="m3.52 13.94h.39v.66h-.39z"/><path d="m3.91 13.94h.39v.66h-.39z"/><path d="m1.17 14.61h.39v.66h-.39z"/><path d="m3.13 14.61h.39v.66h-.39z"/><path d="m3.52 14.61h.39v.66h-.39z"/><path d="m3.91 14.61h.39v.66h-.39z"/><path d="m3.13 15.27h.39v.66h-.39z"/><path d="m2.74 15.27h.39v.66h-.39z"/><path d="m3.52 15.27h.39v.66h-.39z"/><path d="m3.91 15.27h.39v.66h-.39z"/><path d="m.39 16.25v.36h-.07a2.83 2.83 0 0 0 .07-.36z"/><path d="m2.35 15.93h.39v.66h-.39z"/><path d="m2.74 15.93h.39v.66h-.39z"/><path d="m3.13 15.93h.39v.66h-.39z"/><path d="m3.52 15.93h.39v.66h-.39z"/><path d="m.39 16.61v.66h-.17c0-.23.06-.45.1-.66z"/><path d="m.39 16.6h.39v.66h-.39z"/><path d="m1.96 16.6h.39v.66h-.39z"/><path d="m2.35 16.6h.39v.66h-.39z"/><path d="m2.74 16.6h.39v.66h-.39z"/><path d="m3.13 16.6h.39v.66h-.39z"/><path d="m.39 17.27v.66h-.25c0-.23 0-.45.08-.66z"/><path d="m.39 17.26h.39v.66h-.39z"/><path d="m.78 17.26h.39v.66h-.39z"/><path d="m1.57 17.26h.39v.66h-.39z"/><path d="m1.96 17.26h.39v.66h-.39z"/><path d="m2.35 17.26h.39v.66h-.39z"/><path d="m2.74 17.26h.39v.66h-.39z"/><path d="m.39 17.93h.39v.66h-.39z"/><path d="m.78 17.93h.39v.66h-.39z"/><path d="m1.17 17.93h.39v.66h-.39z"/><path d="m1.57 17.93h.39v.66h-.39z"/><path d="m1.96 17.93h.39v.66h-.39z"/><path d="m2.35 17.93h.39v.66h-.39z"/><path d="m3.52 17.93h.39v.66h-.39z"/><path d="m.78 18.59h.39v.66h-.39z"/><path d="m1.17 18.59h.39v.66h-.39z"/><path d="m1.57 18.59h.39v.66h-.39z"/><path d="m1.96 18.59h.39v.66h-.39z"/><path d="m3.52 18.59h.39v.66h-.39z"/><path d="m3.91 18.59h.39v.66h-.39z"/><path d="m1.17 19.25h.39v.66h-.39z"/><path d="m1.57 19.25h.39v.66h-.39z"/><path d="m1.96 19.25h.39v.66h-.39z"/><path d="m3.91 19.25h.39v.66h-.39z"/><path d="m1.57 19.92h.39v.66h-.39z"/><path d="m1.96 19.92h.39v.66h-.39z"/><path d="m2.74 19.92h.39v.66h-.39z"/><path d="m4.3 30.54h.39v.66h-.39z"/><path d="m4.3 29.88h.39v.66h-.39z"/><path d="m4.3 27.22h.39v.66h-.39z"/><path d="m4.3 26.56h.39v.66h-.39z"/><path d="m4.3 25.89h.39v.66h-.39z"/><path d="m4.3 25.23h.39v.66h-.39z"/><path d="m4.3 23.24h.39v.66h-.39z"/><path d="m4.3 19.92h.39v.66h-.39z"/><path d="m4.3 20.58h.39v.66h-.39z"/><path d="m4.31 32.53v.19l-.15-.19z"/><path d="m3.91 31.87v.34l-.24-.34z"/><path d="m3.52 31.2v.46c-.09-.15-.2-.3-.29-.46z"/><path d="m2.74 29.88v.54c-.11-.18-.2-.37-.31-.54z"/><path d="m3.13 29.88v.66h-.32a.75.75 0 0 0 -.07-.12v-.54z"/><path d="m2.35 29.21v.5a4.74 4.74 0 0 1 -.26-.5z"/><path d="m2.74 29.21v.67h-.31l-.08-.17v-.5z"/><path d="m2.74 29.21h.39v.66h-.39z"/><path d="m3.13 29.21h.39v.66h-.39z"/><path d="m2 28.55v.38c-.07-.12-.12-.26-.18-.38z"/><path d="m2.35 28.55v.66h-.26l-.09-.28v-.38z"/><path d="m2.35 28.55h.39v.66h-.39z"/><path d="m2.74 28.55h.39v.66h-.39z"/><path d="m3.13 28.55h.39v.66h-.39z"/><path d="m3.52 28.55h.39v.66h-.39z"/><path d="m1.57 27.89v.18a1.08 1.08 0 0 1 -.07-.18z"/><path d="m2 27.89v.66h-.22a5 5 0 0 1 -.21-.48v-.18z"/><path d="m1.96 27.89h.39v.66h-.39z"/><path d="m2.35 27.89h.39v.66h-.39z"/><path d="m2.74 27.89h.39v.66h-.39z"/><path d="m3.13 27.89h.39v.66h-.39z"/><path d="m3.52 27.89h.39v.66h-.39z"/><path d="m3.91 27.89h.39v.66h-.39z"/><path d="m1.57 27.22v.67h-.07c-.1-.23-.19-.46-.27-.67z"/><path d="m2.74 27.22h.39v.66h-.39z"/><path d="m3.13 27.22h.39v.66h-.39z"/><path d="m3.52 27.22h.39v.66h-.39z"/><path d="m3.91 27.22h.39v.66h-.39z"/><path d="m1.17 26.55v.5a4.16 4.16 0 0 1 -.16-.5z"/><path d="m1.23 27.22h.34v-.67h-.4v.5z"/><path d="m1.57 26.56h.39v.66h-.39z"/><path d="m1.96 26.56h.39v.66h-.39z"/><path d="m3.13 26.56h.39v.66h-.39z"/><path d="m3.52 26.56h.39v.66h-.39z"/><path d="m3.91 26.56h.39v.66h-.39z"/><path d="m1.17 25.89v.66h-.17a5 5 0 0 1 -.2-.66z"/><path d="m1.17 25.89h.39v.66h-.39z"/><path d="m1.57 25.89h.39v.66h-.39z"/><path d="m3.52 25.89h.39v.66h-.39z"/><path d="m3.91 25.89h.39v.66h-.39z"/><path d="m1.17 25.23h.39v.66h-.39z"/><path d="m3.13 25.23h.39v.66h-.39z"/><path d="m3.52 25.23h.39v.66h-.39z"/><path d="m3.91 25.23h.39v.66h-.39z"/><path d="m3.13 24.57h.39v.66h-.39z"/><path d="m2.74 24.57h.39v.66h-.39z"/><path d="m3.52 24.57h.39v.66h-.39z"/><path d="m3.91 24.57h.39v.66h-.39z"/><path d="m.39 23.89v.36a2.83 2.83 0 0 0 -.07-.36z"/><path d="m2.35 23.9h.39v.66h-.39z"/><path d="m2.74 23.9h.39v.66h-.39z"/><path d="m3.13 23.9h.39v.66h-.39z"/><path d="m3.52 23.9h.39v.66h-.39z"/><path d="m.39 23.23v.66h-.07c0-.21-.06-.43-.1-.66z"/><path d="m.39 23.24h.39v.66h-.39z"/><path d="m1.96 23.24h.39v.66h-.39z"/><path d="m2.35 23.24h.39v.66h-.39z"/><path d="m2.74 23.24h.39v.66h-.39z"/><path d="m3.13 23.24h.39v.66h-.39z"/><path d="m.39 22.57v.66h-.17c0-.21-.06-.43-.08-.66z"/><path d="m.39 22.57h.39v.66h-.39z"/><path d="m.78 22.57h.39v.66h-.39z"/><path d="m1.57 22.57h.39v.66h-.39z"/><path d="m1.96 22.57h.39v.66h-.39z"/><path d="m2.35 22.57h.39v.66h-.39z"/><path d="m2.74 22.57h.39v.66h-.39z"/><path d="m.39 21.91h.39v.66h-.39z"/><path d="m.78 21.91h.39v.66h-.39z"/><path d="m1.17 21.91h.39v.66h-.39z"/><path d="m1.57 21.91h.39v.66h-.39z"/><path d="m1.96 21.91h.39v.66h-.39z"/><path d="m2.35 21.91h.39v.66h-.39z"/><path d="m3.52 21.91h.39v.66h-.39z"/><path d="m.78 21.25h.39v.66h-.39z"/><path d="m1.17 21.25h.39v.66h-.39z"/><path d="m1.57 21.25h.39v.66h-.39z"/><path d="m1.96 21.25h.39v.66h-.39z"/><path d="m3.52 21.25h.39v.66h-.39z"/><path d="m3.91 21.25h.39v.66h-.39z"/><path d="m1.17 20.58h.39v.66h-.39z"/><path d="m1.57 20.58h.39v.66h-.39z"/><path d="m1.96 20.58h.39v.66h-.39z"/><path d="m3.91 20.58h.39v.66h-.39z"/><path d="m1.57 19.92h.39v.66h-.39z"/><path d="m1.96 19.92h.39v.66h-.39z"/><path d="m2.74 19.92h.39v.66h-.39z"/><path d="m4.3 9.3h.39v.66h-.39z"/><path d="m4.3 9.96h.39v.66h-.39z"/><path d="m4.3 12.61h.39v.66h-.39z"/><path d="m4.3 13.28h.39v.66h-.39z"/><path d="m4.3 13.94h.39v.66h-.39z"/><path d="m4.3 14.61h.39v.66h-.39z"/><path d="m4.3 16.6h.39v.66h-.39z"/><path d="m4.3 19.92h.39v.66h-.39z"/><path d="m4.3 19.25h.39v.66h-.39z"/><path d="m8.61 3.69v.31h-.39c.12-.13.26-.22.39-.31z"/><path d="m7.83 4.27v.37h-.39v-.06c.13-.11.25-.21.39-.31z"/><path d="m8.22 4v.66h-.39v-.39l.36-.27z"/><path d="m7.44 4.58v.06h-.08z"/><path d="m7.44 4.65h.39v.66h-.39z"/><path d="m7.44 4.64v.67h-.39v-.4l.31-.27z"/><path d="m7.05 4.91v.4h-.39v-.06c.13-.11.25-.25.39-.34z"/><path d="m6.66 5.25v.06h-.06z"/><path d="m8.61 4.65h.39v.66h-.39z"/><path d="m7.04 5.31h.39v.66h-.39z"/><path d="m6.65 5.31h.39v.66h-.39z"/><path d="m6.66 5.31v.69h-.4v-.37c.11-.11.22-.22.34-.32z"/><path d="m7.83 5.98h.39v.66h-.39z"/><path d="m6.65 5.98h.39v.66h-.39z"/><path d="m5.87 6v.63h-.39v-.22c.14-.13.26-.27.39-.41z"/><path d="m8.22 6.64h.39v.66h-.39z"/><path d="m7.83 6.64h.39v.66h-.39z"/><path d="m7.44 6.64h.39v.66h-.39z"/><path d="m5.87 6.64h.39v.66h-.39z"/><path d="m5.48 6.64h.39v.66h-.39z"/><path d="m5.48 6.64v.66h-.39v-.46l.18-.2z"/><path d="m8.61 7.3h.39v.66h-.39z"/><path d="m8.22 7.3h.39v.66h-.39z"/><path d="m7.44 7.3h.39v.66h-.39z"/><path d="m7.04 7.3h.39v.66h-.39z"/><path d="m6.26 7.3h.39v.66h-.39z"/><path d="m5.87 7.3h.39v.66h-.39z"/><path d="m5.09 7.3h.39v.66h-.39z"/><path d="m4.7 7.3h.39v.66h-.39z"/><path d="m8.22 7.97h.39v.66h-.39z"/><path d="m7.83 7.97h.39v.66h-.39z"/><path d="m7.44 7.97h.39v.66h-.39z"/><path d="m5.87 7.97h.39v.66h-.39z"/><path d="m5.48 7.97h.39v.66h-.39z"/><path d="m5.09 7.97h.39v.66h-.39z"/><path d="m7.83 8.63h.39v.66h-.39z"/><path d="m6.65 8.63h.39v.66h-.39z"/><path d="m5.48 8.63h.39v.66h-.39z"/><path d="m7.04 9.3h.39v.66h-.39z"/><path d="m6.65 9.3h.39v.66h-.39z"/><path d="m6.26 9.3h.39v.66h-.39z"/><path d="m8.61 9.96h.39v.66h-.39z"/><path d="m7.44 9.96h.39v.66h-.39z"/><path d="m7.04 9.96h.39v.66h-.39z"/><path d="m6.65 9.96h.39v.66h-.39z"/><path d="m6.26 9.96h.39v.66h-.39z"/><path d="m5.87 9.96h.39v.66h-.39z"/><path d="m7.83 10.62h.39v.66h-.39z"/><path d="m7.44 10.62h.39v.66h-.39z"/><path d="m7.04 10.62h.39v.66h-.39z"/><path d="m6.65 10.62h.39v.66h-.39z"/><path d="m6.26 10.62h.39v.66h-.39z"/><path d="m5.87 10.62h.39v.66h-.39z"/><path d="m5.48 10.62h.39v.66h-.39z"/><path d="m8.22 11.29h.39v.66h-.39z"/><path d="m7.83 11.29h.39v.66h-.39z"/><path d="m7.44 11.29h.39v.66h-.39z"/><path d="m7.04 11.29h.39v.66h-.39z"/><path d="m6.65 11.29h.39v.66h-.39z"/><path d="m6.26 11.29h.39v.66h-.39z"/><path d="m5.87 11.29h.39v.66h-.39z"/><path d="m5.48 11.29h.39v.66h-.39z"/><path d="m5.09 11.29h.39v.66h-.39z"/><path d="m8.61 11.95h.39v.66h-.39z"/><path d="m8.22 11.95h.39v.66h-.39z"/><path d="m7.83 11.95h.39v.66h-.39z"/><path d="m7.44 11.95h.39v.66h-.39z"/><path d="m7.04 11.95h.39v.66h-.39z"/><path d="m6.65 11.95h.39v.66h-.39z"/><path d="m6.26 11.95h.39v.66h-.39z"/><path d="m5.87 11.95h.39v.66h-.39z"/><path d="m5.48 11.95h.39v.66h-.39z"/><path d="m5.09 11.95h.39v.66h-.39z"/><path d="m4.7 11.95h.39v.66h-.39z"/><path d="m8.61 12.61h.39v.66h-.39z"/><path d="m8.22 12.61h.39v.66h-.39z"/><path d="m7.83 12.61h.39v.66h-.39z"/><path d="m7.44 12.61h.39v.66h-.39z"/><path d="m5.87 12.61h.39v.66h-.39z"/><path d="m5.48 12.61h.39v.66h-.39z"/><path d="m5.09 12.61h.39v.66h-.39z"/><path d="m4.7 12.61h.39v.66h-.39z"/><path d="m8.22 13.28h.39v.66h-.39z"/><path d="m7.83 13.28h.39v.66h-.39z"/><path d="m7.44 13.28h.39v.66h-.39z"/><path d="m7.04 13.28h.39v.66h-.39z"/><path d="m6.65 13.28h.39v.66h-.39z"/><path d="m5.48 13.28h.39v.66h-.39z"/><path d="m5.09 13.28h.39v.66h-.39z"/><path d="m4.7 13.28h.39v.66h-.39z"/><path d="m7.83 13.94h.39v.66h-.39z"/><path d="m7.44 13.94h.39v.66h-.39z"/><path d="m7.04 13.94h.39v.66h-.39z"/><path d="m5.09 13.94h.39v.66h-.39z"/><path d="m4.7 13.94h.39v.66h-.39z"/><path d="m8.61 14.61h.39v.66h-.39z"/><path d="m7.44 14.61h.39v.66h-.39z"/><path d="m5.48 14.61h.39v.66h-.39z"/><path d="m5.09 14.61h.39v.66h-.39z"/><path d="m4.7 14.61h.39v.66h-.39z"/><path d="m5.48 15.27h.39v.66h-.39z"/><path d="m5.87 15.27h.39v.66h-.39z"/><path d="m5.09 15.27h.39v.66h-.39z"/><path d="m4.7 15.27h.39v.66h-.39z"/><path d="m8.61 15.93h.39v.66h-.39z"/><path d="m6.26 15.93h.39v.66h-.39z"/><path d="m5.87 15.93h.39v.66h-.39z"/><path d="m5.48 15.93h.39v.66h-.39z"/><path d="m5.09 15.93h.39v.66h-.39z"/><path d="m8.61 16.6h.39v.66h-.39z"/><path d="m8.22 16.6h.39v.66h-.39z"/><path d="m6.65 16.6h.39v.66h-.39z"/><path d="m6.26 16.6h.39v.66h-.39z"/><path d="m5.87 16.6h.39v.66h-.39z"/><path d="m5.48 16.6h.39v.66h-.39z"/><path d="m8.61 17.26h.39v.66h-.39z"/><path d="m8.22 17.26h.39v.66h-.39z"/><path d="m7.83 17.26h.39v.66h-.39z"/><path d="m7.04 17.26h.39v.66h-.39z"/><path d="m6.65 17.26h.39v.66h-.39z"/><path d="m6.26 17.26h.39v.66h-.39z"/><path d="m5.87 17.26h.39v.66h-.39z"/><path d="m8.22 17.93h.39v.66h-.39z"/><path d="m7.83 17.93h.39v.66h-.39z"/><path d="m7.44 17.93h.39v.66h-.39z"/><path d="m7.04 17.93h.39v.66h-.39z"/><path d="m6.65 17.93h.39v.66h-.39z"/><path d="m6.26 17.93h.39v.66h-.39z"/><path d="m5.09 17.93h.39v.66h-.39z"/><path d="m7.83 18.59h.39v.66h-.39z"/><path d="m7.44 18.59h.39v.66h-.39z"/><path d="m7.04 18.59h.39v.66h-.39z"/><path d="m6.65 18.59h.39v.66h-.39z"/><path d="m5.09 18.59h.39v.66h-.39z"/><path d="m4.7 18.59h.39v.66h-.39z"/><path d="m7.44 19.25h.39v.66h-.39z"/><path d="m7.04 19.25h.39v.66h-.39z"/><path d="m6.65 19.25h.39v.66h-.39z"/><path d="m4.7 19.25h.39v.66h-.39z"/><path d="m7.04 19.92h.39v.66h-.39z"/><path d="m6.65 19.92h.39v.66h-.39z"/><path d="m5.87 19.92h.39v.66h-.39z"/><path d="m4.3 30.54h.39v.66h-.39z"/><path d="m4.3 29.88h.39v.66h-.39z"/><path d="m4.3 27.22h.39v.66h-.39z"/><path d="m4.3 26.56h.39v.66h-.39z"/><path d="m4.3 25.89h.39v.66h-.39z"/><path d="m4.3 25.23h.39v.66h-.39z"/><path d="m4.3 23.24h.39v.66h-.39z"/><path d="m4.3 19.92h.39v.66h-.39z"/><path d="m4.3 20.58h.39v.66h-.39z"/><path d="m8.61 36.52v.29c-.13-.09-.27-.18-.39-.28h.39z"/><path d="m7.83 35.86v.37c-.14-.1-.26-.2-.39-.31v-.06z"/><path d="m8.22 35.86v.66l-.36-.29v-.37z"/><path d="m7.44 35.86v.06l-.08-.06z"/><path d="m7.44 35.19h.39v.66h-.39z"/><path d="m7.44 35.19v.67h-.08l-.31-.27v-.4z"/><path d="m7.05 35.19v.4c-.14-.11-.26-.23-.39-.34v-.06z"/><path d="m6.66 35.19v.06s0 0-.06-.06z"/><path d="m8.61 35.19h.39v.66h-.39z"/><path d="m7.04 34.52h.39v.66h-.39z"/><path d="m6.65 34.52h.39v.66h-.39z"/><path d="m6.66 34.52v.67h-.06c-.12-.1-.23-.21-.34-.32v-.35z"/><path d="m7.83 33.86h.39v.66h-.39z"/><path d="m6.65 33.86h.39v.66h-.39z"/><path d="m5.87 33.86v.63c-.13-.13-.25-.27-.39-.4v-.23z"/><path d="m8.22 33.2h.39v.66h-.39z"/><path d="m7.83 33.2h.39v.66h-.39z"/><path d="m7.44 33.2h.39v.66h-.39z"/><path d="m5.87 33.2h.39v.66h-.39z"/><path d="m5.48 33.2h.39v.66h-.39z"/><path d="m5.48 33.2v.66h-.21l-.18-.2v-.46z"/><path d="m8.61 32.53h.39v.66h-.39z"/><path d="m8.22 32.53h.39v.66h-.39z"/><path d="m7.44 32.53h.39v.66h-.39z"/><path d="m7.04 32.53h.39v.66h-.39z"/><path d="m6.26 32.53h.39v.66h-.39z"/><path d="m5.87 32.53h.39v.66h-.39z"/><path d="m5.09 32.53h.39v.66h-.39z"/><path d="m4.7 32.53h.39v.66h-.39z"/><path d="m8.22 31.87h.39v.66h-.39z"/><path d="m7.83 31.87h.39v.66h-.39z"/><path d="m7.44 31.87h.39v.66h-.39z"/><path d="m5.87 31.87h.39v.66h-.39z"/><path d="m5.48 31.87h.39v.66h-.39z"/><path d="m5.09 31.87h.39v.66h-.39z"/><path d="m7.83 31.2h.39v.66h-.39z"/><path d="m6.65 31.2h.39v.66h-.39z"/><path d="m5.48 31.2h.39v.66h-.39z"/><path d="m7.04 30.54h.39v.66h-.39z"/><path d="m6.65 30.54h.39v.66h-.39z"/><path d="m6.26 30.54h.39v.66h-.39z"/><path d="m8.61 29.88h.39v.66h-.39z"/><path d="m7.44 29.88h.39v.66h-.39z"/><path d="m7.04 29.88h.39v.66h-.39z"/><path d="m6.65 29.88h.39v.66h-.39z"/><path d="m6.26 29.88h.39v.66h-.39z"/><path d="m5.87 29.88h.39v.66h-.39z"/><path d="m7.83 29.21h.39v.66h-.39z"/><path d="m7.44 29.21h.39v.66h-.39z"/><path d="m7.04 29.21h.39v.66h-.39z"/><path d="m6.65 29.21h.39v.66h-.39z"/><path d="m6.26 29.21h.39v.66h-.39z"/><path d="m5.87 29.21h.39v.66h-.39z"/><path d="m5.48 29.21h.39v.66h-.39z"/><path d="m8.22 28.55h.39v.66h-.39z"/><path d="m7.83 28.55h.39v.66h-.39z"/><path d="m7.44 28.55h.39v.66h-.39z"/><path d="m7.04 28.55h.39v.66h-.39z"/><path d="m6.65 28.55h.39v.66h-.39z"/><path d="m6.26 28.55h.39v.66h-.39z"/><path d="m5.87 28.55h.39v.66h-.39z"/><path d="m5.48 28.55h.39v.66h-.39z"/><path d="m5.09 28.55h.39v.66h-.39z"/><path d="m8.61 27.89h.39v.66h-.39z"/><path d="m8.22 27.89h.39v.66h-.39z"/><path d="m7.83 27.89h.39v.66h-.39z"/><path d="m7.44 27.89h.39v.66h-.39z"/><path d="m7.04 27.89h.39v.66h-.39z"/><path d="m6.65 27.89h.39v.66h-.39z"/><path d="m6.26 27.89h.39v.66h-.39z"/><path d="m5.87 27.89h.39v.66h-.39z"/><path d="m5.48 27.89h.39v.66h-.39z"/><path d="m5.09 27.89h.39v.66h-.39z"/><path d="m4.7 27.89h.39v.66h-.39z"/><path d="m8.61 27.22h.39v.66h-.39z"/><path d="m8.22 27.22h.39v.66h-.39z"/><path d="m7.83 27.22h.39v.66h-.39z"/><path d="m7.44 27.22h.39v.66h-.39z"/><path d="m5.87 27.22h.39v.66h-.39z"/><path d="m5.48 27.22h.39v.66h-.39z"/><path d="m5.09 27.22h.39v.66h-.39z"/><path d="m4.7 27.22h.39v.66h-.39z"/><path d="m8.22 26.56h.39v.66h-.39z"/><path d="m7.83 26.56h.39v.66h-.39z"/><path d="m7.44 26.56h.39v.66h-.39z"/><path d="m7.04 26.56h.39v.66h-.39z"/><path d="m6.65 26.56h.39v.66h-.39z"/><path d="m5.48 26.56h.39v.66h-.39z"/><path d="m5.09 26.56h.39v.66h-.39z"/><path d="m4.7 26.56h.39v.66h-.39z"/><path d="m7.83 25.89h.39v.66h-.39z"/><path d="m7.44 25.89h.39v.66h-.39z"/><path d="m7.04 25.89h.39v.66h-.39z"/><path d="m5.09 25.89h.39v.66h-.39z"/><path d="m4.7 25.89h.39v.66h-.39z"/><path d="m8.61 25.23h.39v.66h-.39z"/><path d="m7.44 25.23h.39v.66h-.39z"/><path d="m5.48 25.23h.39v.66h-.39z"/><path d="m5.09 25.23h.39v.66h-.39z"/><path d="m4.7 25.23h.39v.66h-.39z"/><path d="m5.48 24.57h.39v.66h-.39z"/><path d="m5.87 24.57h.39v.66h-.39z"/><path d="m5.09 24.57h.39v.66h-.39z"/><path d="m4.7 24.57h.39v.66h-.39z"/><path d="m8.61 23.9h.39v.66h-.39z"/><path d="m6.26 23.9h.39v.66h-.39z"/><path d="m5.87 23.9h.39v.66h-.39z"/><path d="m5.48 23.9h.39v.66h-.39z"/><path d="m5.09 23.9h.39v.66h-.39z"/><path d="m8.61 23.24h.39v.66h-.39z"/><path d="m8.22 23.24h.39v.66h-.39z"/><path d="m6.65 23.24h.39v.66h-.39z"/><path d="m6.26 23.24h.39v.66h-.39z"/><path d="m5.87 23.24h.39v.66h-.39z"/><path d="m5.48 23.24h.39v.66h-.39z"/><path d="m8.61 22.57h.39v.66h-.39z"/><path d="m8.22 22.57h.39v.66h-.39z"/><path d="m7.83 22.57h.39v.66h-.39z"/><path d="m7.04 22.57h.39v.66h-.39z"/><path d="m6.65 22.57h.39v.66h-.39z"/><path d="m6.26 22.57h.39v.66h-.39z"/><path d="m5.87 22.57h.39v.66h-.39z"/><path d="m8.22 21.91h.39v.66h-.39z"/><path d="m7.83 21.91h.39v.66h-.39z"/><path d="m7.44 21.91h.39v.66h-.39z"/><path d="m7.04 21.91h.39v.66h-.39z"/><path d="m6.65 21.91h.39v.66h-.39z"/><path d="m6.26 21.91h.39v.66h-.39z"/><path d="m5.09 21.91h.39v.66h-.39z"/><path d="m7.83 21.25h.39v.66h-.39z"/><path d="m7.44 21.25h.39v.66h-.39z"/><path d="m7.04 21.25h.39v.66h-.39z"/><path d="m6.65 21.25h.39v.66h-.39z"/><path d="m5.09 21.25h.39v.66h-.39z"/><path d="m4.7 21.25h.39v.66h-.39z"/><path d="m7.44 20.58h.39v.66h-.39z"/><path d="m7.04 20.58h.39v.66h-.39z"/><path d="m6.65 20.58h.39v.66h-.39z"/><path d="m4.7 20.58h.39v.66h-.39z"/><path d="m7.04 19.92h.39v.66h-.39z"/><path d="m6.65 19.92h.39v.66h-.39z"/><path d="m5.87 19.92h.39v.66h-.39z"/><path d="m40.5 20.25a20 20 0 0 1 -1.15 6.75s0 0 0 0h-30.35v-23.58a20.24 20.24 0 0 1 31.5 16.83z"/></g><path d="m39.35 27s0 0 0 0a20.24 20.24 0 0 1 -30.35 10.08v-10.08z" fill="#4aa657"/></svg>