<svg viewBox="0 0 40.5 40.5" xmlns="http://www.w3.org/2000/svg"><circle cx="20.25" cy="20.25" fill="#009b3a" r="20.25"/><path d="m20.25 8.58 18.25 11.67-18.25 11.65-18.24-11.65z" fill="#fedf00"/><path d="m28 20.25a6.58 6.58 0 0 1 -.08 1.09 7.29 7.29 0 0 1 -.27 1.23 7.72 7.72 0 0 1 -14.85-4.24 7 7 0 0 1 .41-1.19 7.72 7.72 0 0 1 14.79 3.11z" fill="#002776"/><path d="m27.89 21.34a7.29 7.29 0 0 1 -.27 1.23 17.64 17.64 0 0 0 -14.85-4.24 7 7 0 0 1 .41-1.19 18.53 18.53 0 0 1 14.71 4.2z" fill="#fff"/><path d="m13.78 17.35a.21.21 0 0 0 -.23-.08.28.28 0 0 0 -.2.13.39.39 0 0 0 0 .27.38.38 0 0 0 .11.24.26.26 0 0 0 .24.09.34.34 0 0 0 .2-.13.5.5 0 0 0 .06-.28.41.41 0 0 0 -.18-.24zm0 .47a.12.12 0 0 1 -.1.07.14.14 0 0 1 -.14 0 .58.58 0 0 1 -.07-.19c0-.18 0-.27.14-.29a.15.15 0 0 1 .13.06.26.26 0 0 1 .06.17.34.34 0 0 1 -.06.18z" fill="#009b3a"/><path d="m14.74 17.58c.1 0 .14-.11.12-.19a.18.18 0 0 0 -.06-.15.27.27 0 0 0 -.19 0h-.31v.7h.13v-.28h.19l.13.29h.13zm0-.11s0 0-.09 0h-.17v-.2h.16s.08 0 .1 0a.07.07 0 0 1 0 .07s-.01.12-.04.13z" fill="#009b3a"/><path d="m15.8 17.27a.34.34 0 0 0 -.25-.11h-.25v.71h.22a.32.32 0 0 0 .26-.1.34.34 0 0 0 .1-.26.38.38 0 0 0 -.08-.24zm-.13.43a.19.19 0 0 1 -.13.07h-.11v-.5h.12a.15.15 0 0 1 .14.06.43.43 0 0 1 .05.18.27.27 0 0 1 -.07.19z" fill="#009b3a"/><path d="m16.78 17.28v-.11h-.53v.71h.54v-.1h-.41v-.19h.34v-.09h-.33v-.19z" fill="#009b3a"/><path d="m17.68 17.27-.18.43-.11-.46h-.2l-.06.72h.1l.06-.62.14.64h.07l.25-.59-.07.62h.14l.07-.7z" fill="#009b3a"/><path d="m19.22 17.62v-.1l-.48-.08-.1.64.47.08v-.1l-.32-.06v-.18l.3.05v-.09h-.3v-.18z" fill="#009b3a"/><path d="m20.71 17.87a.27.27 0 0 0 -.18-.1l-.27-.07-.17.69h.12l.07-.27h.17a.22.22 0 0 0 .18 0 .21.21 0 0 0 .09-.15.16.16 0 0 0 -.01-.1zm-.16.19a.16.16 0 0 1 -.1 0h-.15l.06-.21h.13a.15.15 0 0 1 .1.05.28.28 0 0 1 0 .09.15.15 0 0 1 -.04.07z" fill="#009b3a"/><path d="m21.65 18.29a.16.16 0 0 0 0-.15.3.3 0 0 0 -.16-.12l-.3-.08-.21.68h.12l.09-.29.18.06v.31h.14v-.34a.18.18 0 0 0 .14-.07zm-.13 0a.07.07 0 0 1 -.05.07h-.11-.15l.07-.2h.16a.18.18 0 0 1 .08.05.11.11 0 0 1 0 .04z" fill="#009b3a"/><path d="m22.38 18.32a.23.23 0 0 0 -.24 0 .35.35 0 0 0 -.18.21.5.5 0 0 0 0 .27.28.28 0 0 0 .42.15.39.39 0 0 0 .16-.22.39.39 0 0 0 0-.26.28.28 0 0 0 -.16-.15zm0 .4a.46.46 0 0 1 -.12.18.14.14 0 0 1 -.14 0 .12.12 0 0 1 -.08-.1.41.41 0 0 1 0-.21c0-.16.13-.23.24-.19a.18.18 0 0 1 .1.11.51.51 0 0 1 .03.21z" fill="#009b3a"/><path d="m23.13 19.12.13.05a.11.11 0 0 1 -.08.09.09.09 0 0 1 -.12 0c-.1 0-.12-.14 0-.31s.06-.13.12-.14a.15.15 0 0 1 .13 0 .15.15 0 0 1 .08.18h.11a.2.2 0 0 0 0-.17.24.24 0 0 0 -.14-.12.28.28 0 0 0 -.25 0 .53.53 0 0 0 -.18.21.39.39 0 0 0 0 .26.23.23 0 0 0 .14.19.18.18 0 0 0 .22 0v.11h.05l.15-.34-.32-.13z" fill="#009b3a"/><path d="m24.17 19.12-.27-.12-.33.64.12.05.12-.26.17.08v.31l.12.06v-.34a.19.19 0 0 0 .2-.11.18.18 0 0 0 0-.16.26.26 0 0 0 -.13-.15zm0 .24s0 0-.07.05a.23.23 0 0 1 -.11 0l-.13-.07.09-.19.15.07a.14.14 0 0 1 .07.06.17.17 0 0 1 .01.08z" fill="#009b3a"/><path d="m25.18 19.78.05-.1-.46-.25-.36.6.47.27.05-.09-.35-.2.1-.18.32.17v-.1l-.29-.17.1-.16z" fill="#009b3a"/><path d="m25.76 20.11c0 .05.08.09.07.14h.12a.21.21 0 0 0 0-.15.34.34 0 0 0 -.12-.12.22.22 0 0 0 -.17 0 .18.18 0 0 0 -.15.08.19.19 0 0 0 0 .1s0 .05 0 .08l.07.09.09.1a.09.09 0 0 1 0 .08.13.13 0 0 1 0 0 .11.11 0 0 1 -.07 0 .13.13 0 0 1 -.11 0 .16.16 0 0 1 -.08-.19h-.12a.28.28 0 0 0 0 .18.27.27 0 0 0 .13.13.33.33 0 0 0 .2.06.15.15 0 0 0 .15-.1.16.16 0 0 0 0-.12s0-.08-.08-.14l-.08-.09c0-.05-.07-.09 0-.12a.05.05 0 0 1 .05 0 .18.18 0 0 1 .1-.01z" fill="#009b3a"/><path d="m26.58 20.55a.29.29 0 0 0 -.19-.06.14.14 0 0 0 -.13.08.12.12 0 0 0 0 .09s0 .05 0 .08a.27.27 0 0 0 .06.09l.09.11s0 0 0 .08 0 0 0 .05a.1.1 0 0 1 -.08 0 .14.14 0 0 1 -.09 0 .15.15 0 0 1 -.08-.19h-.11a.15.15 0 0 0 -.05.12.44.44 0 0 0 .12.15.32.32 0 0 0 .2.07.19.19 0 0 0 .16-.08.19.19 0 0 0 0-.12.2.2 0 0 0 -.08-.15l-.06-.1c-.06-.05-.06-.09 0-.13a.07.07 0 0 1 .06 0h.1a.14.14 0 0 1 0 .15h.11a.12.12 0 0 0 0-.14.69.69 0 0 0 -.03-.1z" fill="#009b3a"/><path d="m27.35 21.14a.24.24 0 0 0 -.23-.05.34.34 0 0 0 -.23.15.38.38 0 0 0 -.11.25.26.26 0 0 0 .11.22.24.24 0 0 0 .23.05.39.39 0 0 0 .24-.15.42.42 0 0 0 .1-.25.25.25 0 0 0 -.11-.22zm-.09.39c-.07.07-.12.12-.18.12a.13.13 0 0 1 -.12 0 .13.13 0 0 1 -.05-.12.28.28 0 0 1 .09-.18c.11-.15.2-.18.28-.11a.12.12 0 0 1 .06.14.37.37 0 0 1 -.08.15z" fill="#009b3a"/><g fill="#fff"><path d="m22.64 17.52.07.23h.24l-.19.14.07.23-.19-.14-.19.14.07-.23-.19-.14h.24z"/><path d="m22.35 19.64.05.16h.16l-.13.09.05.16-.13-.1-.13.1.05-.16-.13-.09h.16z"/><path d="m24.85 22.3.05.15h.16l-.13.1.05.15-.13-.09-.13.09.05-.15-.13-.1h.16z"/><path d="m26.71 22.81.05.15h.16l-.13.1.05.15-.13-.1-.13.1.05-.15-.13-.1h.16z"/><path d="m24.87 24.42.05.15h.16l-.13.1.05.15-.13-.09-.13.09.05-.15-.13-.1h.16z"/><path d="m24.08 24.25.05.16h.16l-.13.09.05.16-.13-.1-.13.1.05-.16-.14-.09h.17z"/><path d="m23.21 24.54.05.15h.17l-.13.09.04.16-.13-.1-.13.1.05-.16-.13-.09h.16z"/><path d="m24.11 25.8.05.15h.16l-.13.1.05.15-.13-.09-.13.09.04-.15-.13-.1h.17z"/><path d="m21.95 24.33.05.16h.16l-.12.09.04.15-.13-.09-.13.09.05-.15-.13-.09h.16z"/><path d="m20.25 26.16.03.09h.09l-.07.05.02.09-.07-.06-.07.06.02-.09-.07-.05h.09z"/><path d="m19.87 22.57.03.1h.11l-.09.07.03.1-.08-.06-.09.06.03-.1-.08-.07h.1z"/><path d="m15.41 21.48.03.11h.11l-.09.06.04.11-.09-.07-.09.07.03-.11-.08-.06h.1z"/><path d="m19.48 21.94.05.15h.16l-.13.1.05.15-.13-.09-.13.09.05-.15-.13-.1h.16z"/><path d="m16.03 23.4.05.15h.17l-.14.1.05.15-.13-.09-.13.09.05-.15-.13-.1h.16z"/><path d="m17.32 20.29.06.19h.21l-.17.13.07.19-.17-.12-.17.12.07-.19-.17-.13h.2z"/><path d="m16.25 22.57.06.2h.21l-.17.12.06.2-.16-.13-.17.13.06-.2-.17-.12h.21z"/><path d="m13.71 22.5.06.2h.21l-.17.12.07.2-.17-.13-.17.13.07-.2-.17-.12h.2z"/><path d="m20.25 21.2.06.2h.21l-.17.12.07.2-.17-.12-.17.12.07-.2-.17-.12h.21z"/><path d="m21.15 21.88.06.2h.21l-.17.12.07.2-.17-.12-.17.12.07-.2-.17-.12h.21z"/><path d="m22.56 25.14.07.2h.21l-.17.12.06.2-.17-.12-.16.12.06-.2-.17-.12h.21z"/><path d="m24.11 24.95.06.2h.21l-.17.12.06.2-.16-.12-.17.12.06-.2-.17-.12h.21z"/><path d="m25.49 23.97.06.19h.21l-.17.13.07.19-.17-.12-.17.12.07-.19-.17-.13h.21z"/><path d="m25.96 23.35.06.2h.21l-.17.12.07.2-.17-.12-.17.12.07-.2-.17-.12h.2z"/><path d="m13.96 18.55.08.23h.24l-.2.14.08.22-.2-.14-.19.14.08-.22-.2-.14h.24z"/><path d="m14.65 21.78.07.23h.24l-.19.14.08.22-.2-.14-.19.14.07-.22-.19-.14h.24z"/><path d="m17.17 24.01.07.23h.24l-.19.14.07.22-.19-.14-.19.14.07-.22-.19-.14h.23z"/><path d="m20.25 23.37.08.23h.24l-.2.14.08.23-.2-.14-.19.14.08-.23-.2-.14h.24z"/><path d="m25.65 22.61.07.23h.24l-.19.14.07.23-.19-.14-.2.14.08-.23-.2-.14h.24z"/><path d="m25.06 23.4.07.23h.24l-.19.14.07.22-.19-.14-.19.14.07-.22-.19-.14h.23z"/></g></svg>