<svg xmlns="http://www.w3.org/2000/svg" viewBox="0 0 40.5 40.5"><defs><style>.cls-1{fill:#009b3a;}.cls-2{fill:#fedf00;}.cls-3{fill:#002776;}.cls-4{fill:#fff;}</style></defs><g id="Ebene_2" data-name="Ebene 2"><g id="Ńëîé_1" data-name="Ńëîé 1"><circle class="cls-1" cx="20.25" cy="20.25" r="20.25"/><polygon class="cls-2" points="20.25 8.58 38.5 20.25 20.25 31.9 2.01 20.25 20.25 8.58"/><path class="cls-3" d="M28,20.25a6.58,6.58,0,0,1-.08,1.09,7.29,7.29,0,0,1-.27,1.23,7.72,7.72,0,0,1-14.85-4.24,7,7,0,0,1,.41-1.19A7.72,7.72,0,0,1,28,20.25Z"/><path class="cls-4" d="M27.89,21.34a7.29,7.29,0,0,1-.27,1.23,17.64,17.64,0,0,0-14.85-4.24h0a7,7,0,0,1,.41-1.19A18.53,18.53,0,0,1,27.89,21.34Z"/><path class="cls-1" d="M13.78,17.35a.21.21,0,0,0-.23-.08.28.28,0,0,0-.2.13.39.39,0,0,0,0,.27.38.38,0,0,0,.11.24.26.26,0,0,0,.24.09.34.34,0,0,0,.2-.13.5.5,0,0,0,.06-.28A.41.41,0,0,0,13.78,17.35Zm0,.47a.12.12,0,0,1-.1.07.14.14,0,0,1-.14,0,.58.58,0,0,1-.07-.19c0-.18,0-.27.14-.29a.15.15,0,0,1,.13.06.26.26,0,0,1,.06.17A.34.34,0,0,1,13.74,17.82Z"/><path class="cls-1" d="M14.74,17.58c.1,0,.14-.11.12-.19a.18.18,0,0,0-.06-.15.27.27,0,0,0-.19,0l-.31,0,0,.7h.13l0-.28.19,0,.13.29h.13Zm0-.11s0,0-.09,0h-.17v-.2l.16,0s.08,0,.1,0a.07.07,0,0,1,0,.07S14.73,17.46,14.7,17.47Z"/><path class="cls-1" d="M15.8,17.27a.34.34,0,0,0-.25-.11H15.3v.71h.22a.32.32,0,0,0,.26-.1.34.34,0,0,0,.1-.26A.38.38,0,0,0,15.8,17.27Zm-.13.43a.19.19,0,0,1-.13.07h-.11v-.5h.12a.15.15,0,0,1,.14.06.43.43,0,0,1,.05.18A.27.27,0,0,1,15.67,17.7Z"/><path class="cls-1" d="M16.78,17.28v-.11l-.53,0,0,.71h.54v-.1l-.41,0v-.19h.34v-.09h-.33v-.19Z"/><path class="cls-1" d="M17.68,17.27l-.18.43-.11-.46-.2,0-.06.72h.1l.06-.62.14.64h.07l.25-.59-.07.62h.14l.07-.7Z"/><path class="cls-1" d="M19.22,17.62l0-.1-.48-.08-.1.64.47.08v-.1L18.79,18l0-.18.3.05v-.09l-.3,0,0-.18Z"/><path class="cls-1" d="M20.71,17.87a.27.27,0,0,0-.18-.1l-.27-.07-.17.69.12,0,.07-.27.17,0a.22.22,0,0,0,.18,0,.21.21,0,0,0,.09-.15A.16.16,0,0,0,20.71,17.87Zm-.16.19a.16.16,0,0,1-.1,0l-.15,0,.06-.21.13,0a.15.15,0,0,1,.1.05.28.28,0,0,1,0,.09A.15.15,0,0,1,20.55,18.06Z"/><path class="cls-1" d="M21.65,18.29a.16.16,0,0,0,0-.15.3.3,0,0,0-.16-.12l-.3-.08-.21.68.12,0,.09-.29.18.06v.31l.14,0,0-.34A.18.18,0,0,0,21.65,18.29Zm-.13,0a.07.07,0,0,1-.05.07h-.11l-.15,0,.07-.2.16,0a.18.18,0,0,1,.08.05A.11.11,0,0,1,21.52,18.25Z"/><path class="cls-1" d="M22.38,18.32a.23.23,0,0,0-.24,0,.35.35,0,0,0-.18.21.5.5,0,0,0,0,.27.28.28,0,0,0,.42.15.39.39,0,0,0,.16-.22.39.39,0,0,0,0-.26A.28.28,0,0,0,22.38,18.32Zm0,.4a.46.46,0,0,1-.12.18.14.14,0,0,1-.14,0,.12.12,0,0,1-.08-.1.41.41,0,0,1,0-.21c0-.16.13-.23.24-.19a.18.18,0,0,1,.1.11A.51.51,0,0,1,22.41,18.72Z"/><path class="cls-1" d="M23.13,19.12l.13.05a.11.11,0,0,1-.08.09.09.09,0,0,1-.12,0c-.1,0-.12-.14,0-.31s.06-.13.12-.14a.15.15,0,0,1,.13,0,.15.15,0,0,1,.08.18l.11,0a.2.2,0,0,0,0-.17.24.24,0,0,0-.14-.12.28.28,0,0,0-.25,0,.53.53,0,0,0-.18.21.39.39,0,0,0,0,.26.23.23,0,0,0,.14.19.18.18,0,0,0,.22,0v.11l.05,0,.15-.34L23.17,19Z"/><path class="cls-1" d="M24.17,19.12,23.9,19l-.33.64.12.05.12-.26.17.08,0,.31.12.06,0-.34a.19.19,0,0,0,.2-.11.18.18,0,0,0,0-.16A.26.26,0,0,0,24.17,19.12Zm0,.24s0,0-.07.05a.23.23,0,0,1-.11,0l-.13-.07.09-.19.15.07a.14.14,0,0,1,.07.06A.17.17,0,0,1,24.18,19.36Z"/><path class="cls-1" d="M25.18,19.78l.05-.1-.46-.25-.36.6.47.27.05-.09-.35-.2.1-.18L25,20l0-.1-.29-.17.1-.16Z"/><path class="cls-1" d="M25.76,20.11c0,.05.08.09.07.14l.12,0a.21.21,0,0,0,0-.15.34.34,0,0,0-.12-.12.22.22,0,0,0-.17,0,.18.18,0,0,0-.15.08.19.19,0,0,0,0,.1s0,.05,0,.08l.07.09.09.1a.09.09,0,0,1,0,.08.13.13,0,0,1,0,0,.11.11,0,0,1-.07,0,.13.13,0,0,1-.11,0,.16.16,0,0,1-.08-.19l-.12,0a.28.28,0,0,0,0,.18.27.27,0,0,0,.13.13.33.33,0,0,0,.2.06.15.15,0,0,0,.15-.1.16.16,0,0,0,0-.12s0-.08-.08-.14l-.08-.09c0-.05-.07-.09,0-.12a.05.05,0,0,1,.05,0A.18.18,0,0,1,25.76,20.11Z"/><path class="cls-1" d="M26.58,20.55a.29.29,0,0,0-.19-.06.14.14,0,0,0-.13.08.12.12,0,0,0,0,.09s0,.05,0,.08a.27.27,0,0,0,.06.09l.09.11s0,0,0,.08,0,0,0,.05a.1.1,0,0,1-.08,0,.14.14,0,0,1-.09,0,.15.15,0,0,1-.08-.19l-.11,0A.15.15,0,0,0,26,21a.44.44,0,0,0,.12.15.32.32,0,0,0,.2.07.19.19,0,0,0,.16-.08.19.19,0,0,0,0-.12.2.2,0,0,0-.08-.15l-.06-.1c-.06-.05-.06-.09,0-.13a.07.07,0,0,1,.06,0l.1,0a.14.14,0,0,1,0,.15l.11,0a.12.12,0,0,0,0-.14A.69.69,0,0,0,26.58,20.55Z"/><path class="cls-1" d="M27.35,21.14a.24.24,0,0,0-.23-.05.34.34,0,0,0-.23.15.38.38,0,0,0-.11.25.26.26,0,0,0,.11.22.24.24,0,0,0,.23.05.39.39,0,0,0,.24-.15.42.42,0,0,0,.1-.25A.25.25,0,0,0,27.35,21.14Zm-.09.39c-.07.07-.12.12-.18.12a.13.13,0,0,1-.12,0,.13.13,0,0,1-.05-.12.28.28,0,0,1,.09-.18c.11-.15.2-.18.28-.11a.12.12,0,0,1,.06.14A.37.37,0,0,1,27.26,21.53Z"/><polygon class="cls-4" points="22.64 17.52 22.71 17.75 22.95 17.75 22.76 17.89 22.83 18.12 22.64 17.98 22.45 18.12 22.52 17.89 22.33 17.75 22.57 17.75 22.64 17.52"/><polygon class="cls-4" points="22.35 19.64 22.4 19.8 22.56 19.8 22.43 19.89 22.48 20.05 22.35 19.95 22.22 20.05 22.27 19.89 22.14 19.8 22.3 19.8 22.35 19.64"/><polygon class="cls-4" points="24.85 22.3 24.9 22.45 25.06 22.45 24.93 22.55 24.98 22.7 24.85 22.61 24.72 22.7 24.77 22.55 24.64 22.45 24.8 22.45 24.85 22.3"/><polygon class="cls-4" points="26.71 22.81 26.76 22.96 26.92 22.96 26.79 23.06 26.84 23.21 26.71 23.11 26.58 23.21 26.63 23.06 26.5 22.96 26.66 22.96 26.71 22.81"/><polygon class="cls-4" points="24.87 24.42 24.92 24.57 25.08 24.57 24.95 24.67 25 24.82 24.87 24.73 24.74 24.82 24.79 24.67 24.66 24.57 24.82 24.57 24.87 24.42"/><polygon class="cls-4" points="24.08 24.25 24.13 24.41 24.29 24.41 24.16 24.5 24.21 24.66 24.08 24.56 23.95 24.66 24 24.5 23.86 24.41 24.03 24.41 24.08 24.25"/><polygon class="cls-4" points="23.21 24.54 23.26 24.69 23.43 24.69 23.3 24.78 23.34 24.94 23.21 24.84 23.08 24.94 23.13 24.78 23 24.69 23.16 24.69 23.21 24.54"/><polygon class="cls-4" points="24.11 25.8 24.16 25.95 24.32 25.95 24.19 26.05 24.24 26.2 24.11 26.11 23.98 26.2 24.02 26.05 23.89 25.95 24.06 25.95 24.11 25.8"/><polygon class="cls-4" points="21.95 24.33 22 24.49 22.16 24.49 22.04 24.58 22.08 24.73 21.95 24.64 21.82 24.73 21.87 24.58 21.74 24.49 21.9 24.49 21.95 24.33"/><polygon class="cls-4" points="20.25 26.16 20.28 26.25 20.37 26.25 20.3 26.3 20.32 26.39 20.25 26.33 20.18 26.39 20.2 26.3 20.13 26.25 20.22 26.25 20.25 26.16"/><polygon class="cls-4" points="19.87 22.57 19.9 22.67 20.01 22.67 19.92 22.74 19.95 22.84 19.87 22.78 19.78 22.84 19.81 22.74 19.73 22.67 19.83 22.67 19.87 22.57"/><polygon class="cls-4" points="15.41 21.48 15.44 21.59 15.55 21.59 15.46 21.65 15.5 21.76 15.41 21.69 15.32 21.76 15.35 21.65 15.27 21.59 15.37 21.59 15.41 21.48"/><polygon class="cls-4" points="19.48 21.94 19.53 22.09 19.69 22.09 19.56 22.19 19.61 22.34 19.48 22.25 19.35 22.34 19.4 22.19 19.27 22.09 19.43 22.09 19.48 21.94"/><polygon class="cls-4" points="16.03 23.4 16.08 23.55 16.25 23.55 16.11 23.65 16.16 23.8 16.03 23.71 15.9 23.8 15.95 23.65 15.82 23.55 15.98 23.55 16.03 23.4"/><polygon class="cls-4" points="17.32 20.29 17.38 20.48 17.59 20.48 17.42 20.61 17.49 20.8 17.32 20.68 17.15 20.8 17.22 20.61 17.05 20.48 17.25 20.48 17.32 20.29"/><polygon class="cls-4" points="16.25 22.57 16.31 22.77 16.52 22.77 16.35 22.89 16.41 23.09 16.25 22.96 16.08 23.09 16.14 22.89 15.97 22.77 16.18 22.77 16.25 22.57"/><polygon class="cls-4" points="13.71 22.5 13.77 22.7 13.98 22.7 13.81 22.82 13.88 23.02 13.71 22.89 13.54 23.02 13.61 22.82 13.44 22.7 13.64 22.7 13.71 22.5"/><polygon class="cls-4" points="20.25 21.2 20.31 21.4 20.52 21.4 20.35 21.52 20.42 21.72 20.25 21.6 20.08 21.72 20.15 21.52 19.98 21.4 20.19 21.4 20.25 21.2"/><polygon class="cls-4" points="21.15 21.88 21.21 22.08 21.42 22.08 21.25 22.2 21.32 22.4 21.15 22.28 20.98 22.4 21.05 22.2 20.88 22.08 21.09 22.08 21.15 21.88"/><polygon class="cls-4" points="22.56 25.14 22.63 25.34 22.84 25.34 22.67 25.46 22.73 25.66 22.56 25.54 22.4 25.66 22.46 25.46 22.29 25.34 22.5 25.34 22.56 25.14"/><polygon class="cls-4" points="24.11 24.95 24.17 25.15 24.38 25.15 24.21 25.27 24.27 25.47 24.11 25.35 23.94 25.47 24 25.27 23.83 25.15 24.04 25.15 24.11 24.95"/><polygon class="cls-4" points="25.49 23.97 25.55 24.16 25.76 24.16 25.59 24.29 25.66 24.48 25.49 24.36 25.32 24.48 25.39 24.29 25.22 24.16 25.43 24.16 25.49 23.97"/><polygon class="cls-4" points="25.96 23.35 26.02 23.55 26.23 23.55 26.06 23.67 26.13 23.87 25.96 23.75 25.79 23.87 25.86 23.67 25.69 23.55 25.89 23.55 25.96 23.35"/><polygon class="cls-4" points="13.96 18.55 14.04 18.78 14.28 18.78 14.08 18.92 14.16 19.14 13.96 19 13.77 19.14 13.85 18.92 13.65 18.78 13.89 18.78 13.96 18.55"/><polygon class="cls-4" points="14.65 21.78 14.72 22.01 14.96 22.01 14.77 22.15 14.85 22.37 14.65 22.23 14.46 22.37 14.53 22.15 14.34 22.01 14.58 22.01 14.65 21.78"/><polygon class="cls-4" points="17.17 24.01 17.24 24.24 17.48 24.24 17.29 24.38 17.36 24.6 17.17 24.46 16.98 24.6 17.05 24.38 16.86 24.24 17.09 24.24 17.17 24.01"/><polygon class="cls-4" points="20.25 23.37 20.33 23.6 20.57 23.6 20.37 23.74 20.45 23.97 20.25 23.83 20.06 23.97 20.14 23.74 19.94 23.6 20.18 23.6 20.25 23.37"/><polygon class="cls-4" points="25.65 22.61 25.72 22.84 25.96 22.84 25.77 22.98 25.84 23.21 25.65 23.07 25.45 23.21 25.53 22.98 25.33 22.84 25.57 22.84 25.65 22.61"/><polygon class="cls-4" points="25.06 23.4 25.13 23.63 25.37 23.63 25.18 23.77 25.25 23.99 25.06 23.85 24.87 23.99 24.94 23.77 24.75 23.63 24.98 23.63 25.06 23.4"/></g></g></svg>