<svg xmlns="http://www.w3.org/2000/svg" viewBox="0 0 40.5 40.5"><defs><style>.cls-1{fill:#00267f;}.cls-2{fill:#ffc726;}.cls-3{fill:#231f20;}</style></defs><g id="Ebene_2" data-name="Ebene 2"><g id="Ńëîé_1" data-name="Ńëîé 1"><path class="cls-1" d="M40.5,20.25A20.24,20.24,0,0,1,27,39.34V1.16A20.23,20.23,0,0,1,40.5,20.25Z"/><path class="cls-2" d="M27,1.16V39.34a20.22,20.22,0,0,1-13.5,0V1.16a20.22,20.22,0,0,1,13.5,0Z"/><path class="cls-1" d="M13.5,1.16V39.34a20.25,20.25,0,0,1,0-38.18Z"/><path class="cls-3" d="M26,15.58c-1.32.09-3.39,1.72-3,1.57.65-.24.91-.47.39.51a25.1,25.1,0,0,0-1,4.52L20.94,22V16.91a2.79,2.79,0,0,1,1.12.2,9.73,9.73,0,0,1-1.81-3.37,9.73,9.73,0,0,1-1.81,3.37,2.79,2.79,0,0,1,1.12-.2V22l-1.43.21a25.1,25.1,0,0,0-1-4.52c-.52-1-.26-.75.39-.51.41.15-1.66-1.48-3-1.57a0,0,0,0,0,0,.06c.37.6,3.06,4.92,2.63,7.93l2.46-.36v3.54h1.38V23.21l2.46.36c-.43-3,2.26-7.33,2.63-7.93A0,0,0,0,0,26,15.58Z"/></g></g></svg>