<svg viewBox="0 0 40.5 40.5" xmlns="http://www.w3.org/2000/svg"><path d="m40.5 20.25a20.42 20.42 0 0 1 -.5 4.66 20.26 20.26 0 0 1 -39.37.24 20.5 20.5 0 0 1 -.27-8.49 20 20 0 0 1 3.84-8.76 20.26 20.26 0 0 1 35.71 7.44 20.44 20.44 0 0 1 .59 4.91z" fill="#f7e017"/><path d="m40 24.91a20.08 20.08 0 0 1 -3.66 7.68l-35.75-7.44a20.5 20.5 0 0 1 -.27-8.49z"/><path d="m40.5 20.25a20.42 20.42 0 0 1 -.5 4.66l-39.68-8.25a20 20 0 0 1 3.88-8.76l35.71 7.44a20.44 20.44 0 0 1 .59 4.91z" fill="#fff"/><path d="m21.84 11.48a3.19 3.19 0 0 1 -3 0 3.18 3.18 0 0 1 -.55 1.79l.69-.48.42.46.5-.56.45.45.45-.45.49.56.42-.46.7.48a3.1 3.1 0 0 1 -.57-1.79z" fill="#cf1126"/><path d="m21.74 11.32a1.9 1.9 0 0 0 -1.1-.2v.39h-.64v-.39a1.9 1.9 0 0 0 -1.1.2.05.05 0 0 0 0 .08 2.22 2.22 0 0 0 1.42.37 2.24 2.24 0 0 0 1.42-.37.06.06 0 0 0 0-.08z" fill="#cf1126"/><path d="m22 9.5-1.46-.76v-.05c.11 0 .18-.08.18-.14s-.16-.16-.36-.16-.37.07-.37.16.07.11.18.14v2.73h.34v-1.29l1.23.59-.74-.93z" fill="#cf1126"/><path d="m27.25 15.1a3.46 3.46 0 0 1 -2.84-.58c-2.19-1.52-3.41-.52-3.72-.21a0 0 0 0 1 -.08 0v-1.11s0 0-.06 0l-.21.15a.06.06 0 0 0 0 0 .08.08 0 0 0 0 0l-.2-.15a0 0 0 0 0 -.07 0v1.08a0 0 0 0 1 -.07 0c-.3-.32-1.54-1.36-3.72.21a3.46 3.46 0 0 1 -2.84.58 0 0 0 0 0 -.05.05 1.31 1.31 0 0 0 1.3 1 2.21 2.21 0 0 0 1-.34 2.06 2.06 0 0 1 1.2-.34s.09.06-.16.11a4.81 4.81 0 0 0 -1.36.54 2.19 2.19 0 0 1 -.66.17.09.09 0 0 0 -.06.07c0 .14.16.48.73.47a1 1 0 0 0 .66-.22 3.24 3.24 0 0 1 1.54-.68s.19.1-.17.16a2.57 2.57 0 0 0 -.84.33 5.31 5.31 0 0 0 -.78.54c0 .06.1.42.67.42a1.8 1.8 0 0 0 1-.5 3 3 0 0 1 1-.59 0 0 0 0 1 0 .07 4 4 0 0 1 -.39.25 5.09 5.09 0 0 0 -1 .73.22.22 0 0 0 -.05.08c0 .12 0 .4.48.4.68 0 1.21-.52 2-1.34 0 0 .15 0 0 .14s-.29.3-.29.5a.26.26 0 0 0 .24.29h.29s.13 0 0 .16a.69.69 0 0 0 -.17.43c0 .14.24.54.39.54s.22-.3.37-.3.22.3.37.3.39-.4.39-.54a.69.69 0 0 0 -.17-.43c-.12-.13 0-.16 0-.16s.19 0 .29 0a.27.27 0 0 0 .24-.29c0-.2-.14-.32-.29-.5s0-.17 0-.14c.79.82 1.33 1.34 2 1.34s.51-.28.48-.4a.14.14 0 0 0 -.05-.08 4.7 4.7 0 0 0 -1-.73 4 4 0 0 1 -.39-.25s0-.08 0-.07a2.89 2.89 0 0 1 1 .59 1.77 1.77 0 0 0 1 .5c.56 0 .7-.36.67-.42a5 5 0 0 0 -.79-.54 2.42 2.42 0 0 0 -.78-.39c-.36-.06-.23-.15-.17-.16a3.24 3.24 0 0 1 1.54.68.94.94 0 0 0 .66.22c.57 0 .71-.33.72-.47s0-.06-.06-.07a2.19 2.19 0 0 1 -.65-.17 4.93 4.93 0 0 0 -1.34-.5c-.25 0-.2-.1-.16-.11a2.06 2.06 0 0 1 1.2.34 2.21 2.21 0 0 0 1 .34 1.29 1.29 0 0 0 1.29-1s-.05-.01-.08 0z" fill="#cf1126"/><path d="m21.21 18.78c.05-.05.38-.28 0-.28a.54.54 0 0 0 -.53.26c-.05 0-.21.1-.21-.13s-.15-.32-.15-.32-.15 0-.15.32-.17.17-.21.13a.55.55 0 0 0 -.54-.26c-.37 0 0 .23 0 .28a1 1 0 0 1 .32.83 3.1 3.1 0 0 1 -.25.92 1.72 1.72 0 0 0 0 1.06c0 .13.17.45.38.45s.3-.52.47-.52.37.52.47.52.35-.32.38-.45a1.72 1.72 0 0 0 0-1.06 3.1 3.1 0 0 1 -.25-.92 1 1 0 0 1 .27-.83z" fill="#cf1126"/><path d="m21 22.9a1.27 1.27 0 0 1 .38-.85s0-.1-.07-.09a1 1 0 0 0 -.57.4s-.11 0-.11 0c0-.53-.31-.6-.31-.6s-.3.07-.31.6c0 .05-.08.06-.11 0a1 1 0 0 0 -.58-.4.06.06 0 0 0 -.06.09 1.32 1.32 0 0 1 .37.85c0 .44-.52 1.2-.52 1.83s.2 1.12.52 1.17c.08 0 .37-1.17.69-1.17s.6 1.18.69 1.17c.32 0 .52-.47.52-1.17s-.53-1.39-.53-1.83z" fill="#cf1126"/><path d="m21.76 25.62a4.3 4.3 0 0 0 -.88.55c-.26.16-.14-.2-.14-.2.16-.49-.41-1-.41-1s-.57.48-.42 1c0 0 .13.36-.14.2a4 4 0 0 0 -.87-.55 1.27 1.27 0 0 1 -.49-.24 2 2 0 0 0 3.84 0 1.27 1.27 0 0 1 -.49.24z" fill="#cf1126"/><path d="m28.19 21.7a7.88 7.88 0 0 1 -9.67 7.66 7.73 7.73 0 0 1 -5.84-5.83 7.9 7.9 0 0 1 1.74-7 6.88 6.88 0 1 0 12.78 3.47 6.82 6.82 0 0 0 -1-3.53 7.83 7.83 0 0 1 1.99 5.23z" fill="#cf1126"/><path d="m29.06 29.91a.11.11 0 0 1 -.06-.16c.43-.58.13-.85-.07-1a1.29 1.29 0 0 0 -1.3 0c-.06 0-.15-.07-.1-.13a1 1 0 0 0 -.05-1.26c-.41-.46-1-.12-1.27.1a8.18 8.18 0 0 1 -11.77 0c-.23-.22-.86-.56-1.27-.1a1 1 0 0 0 0 1.26c0 .06 0 .16-.11.13a1.27 1.27 0 0 0 -1.29 0c-.2.16-.51.43-.07 1a.11.11 0 0 1 -.07.16c-.26.07-.8 0-.71.89 0 0 1.49-.48 2-.19a8.63 8.63 0 0 1 1.45.91 1.23 1.23 0 0 0 .69.18c.62 0 .62-.34.62-.92a8.19 8.19 0 0 0 4.64 1.32 8.14 8.14 0 0 0 4.68-1.32c0 .58 0 .92.63.92a1.23 1.23 0 0 0 .69-.18 8.91 8.91 0 0 1 1.44-.91c.57-.29 2.06.19 2.06.19.05-.88-.49-.8-.76-.89z" fill="#cf1126"/><path d="m29.54 25.21v-4.47a.65.65 0 0 1 .13-.38 2.23 2.23 0 0 1 .63-.54.44.44 0 0 0 .15-.12c.21-.22.78-.85.92-1s.62-.26.46.12a3.73 3.73 0 0 0 -.66 1.76s0 .18.15 0a1.86 1.86 0 0 1 .92-.7.64.64 0 0 0 .38-.52 2.22 2.22 0 0 1 .51-1 .23.23 0 0 0 .06-.16c0-.24 0-.85.35-1.12a.07.07 0 0 1 .11 0 1.24 1.24 0 0 1 .05.64 11 11 0 0 1 -.48 2.28 8 8 0 0 1 -1.32 1.35 1.07 1.07 0 0 0 -.29.85v2.92a2.22 2.22 0 0 1 -1.07.36 1.83 1.83 0 0 1 -1-.27z" fill="#cf1126"/><path d="m32 18.54a1.13 1.13 0 0 0 .08-.24c0-.3 0-.45 0-.58.19-.36 0-.44-.07-.38-.29.22-.33.84-.33 1a.06.06 0 0 0 .05.06c.06 0 .15 0 .17.08s.1.07.1.06z" fill="#cf1126"/><path d="m31.55 19.65c-.1.06.34-.61.43-.81a2.42 2.42 0 0 0 .24-.45c0-.09 0-.37 0-.37a1 1 0 0 1 .08-.37c.08-.18.21-.4.33-.4s0 .25 0 .34a4.09 4.09 0 0 0 0 .62.16.16 0 0 1 -.05.09 1.77 1.77 0 0 0 -.57 1 .13.13 0 0 1 -.09.1 3 3 0 0 0 -.37.25z" fill="#cf1126"/><path d="m31.36 20.3c0 .09 0-.5.65-.77a.16.16 0 0 0 .09-.09 2 2 0 0 1 .61-1.09.15.15 0 0 0 0-.11c0-.25 0-1.1.34-1.12.13 0 .23.08 0 .5v.54a.15.15 0 0 1 0 .11 2.51 2.51 0 0 0 -.52 1.16.23.23 0 0 1 -.11.17 7.34 7.34 0 0 0 -1.06.7z" fill="#cf1126"/><path d="m31.59 25.27a1.73 1.73 0 0 1 -2 .07c-.09 0-.35.12 0 .42a1.38 1.38 0 0 0 1.08.3 1.33 1.33 0 0 0 1-.38c.27-.32.01-.46-.08-.41z" fill="#cf1126"/><path d="m32 26.4a3 3 0 0 1 -1.39.32 3.05 3.05 0 0 1 -1.4-.28c-.09-.05-.36.1-.06.41s1.16.33 1.46.33c.3 0 1.12 0 1.44-.37s.04-.46-.05-.41z" fill="#cf1126"/><path d="m31.76 25.85a2.12 2.12 0 0 1 -1.16.31 1.86 1.86 0 0 1 -1.17-.28c-.09-.05-.42.08-.13.39a1.87 1.87 0 0 0 1.3.33 1.88 1.88 0 0 0 1.29-.37c.3-.32-.04-.44-.13-.38z" fill="#cf1126"/><path d="m11.12 25.21v-4.47a.65.65 0 0 0 -.13-.38 2.3 2.3 0 0 0 -.64-.54.79.79 0 0 1 -.15-.12c-.2-.22-.78-.85-.91-1s-.63-.26-.46.12.72 1.11.66 1.76c0 0 0 .18-.15 0a1.86 1.86 0 0 0 -.93-.7.66.66 0 0 1 -.41-.55 2 2 0 0 0 -.51-1 .28.28 0 0 1 -.05-.16c0-.24 0-.85-.35-1.12a.09.09 0 0 0 -.12 0 1.29 1.29 0 0 0 0 .64 11 11 0 0 0 .47 2.31 8 8 0 0 0 1.32 1.35 1.11 1.11 0 0 1 .29.85v2.92a2.22 2.22 0 0 0 1.07.36 1.88 1.88 0 0 0 1-.27z" fill="#cf1126"/><path d="m8.64 18.54a.57.57 0 0 1 -.08-.24c0-.3 0-.45 0-.58-.19-.36 0-.44.07-.38.29.22.32.84.33 1a.06.06 0 0 1 -.05.06c-.06 0-.16 0-.17.08s-.09.07-.1.06z" fill="#cf1126"/><path d="m9.1 19.65c.11.06-.33-.61-.42-.81a2 2 0 0 1 -.24-.45 2.21 2.21 0 0 1 0-.37 1 1 0 0 0 -.08-.37c-.08-.18-.21-.4-.33-.4s0 .25 0 .34a6 6 0 0 1 0 .62.12.12 0 0 0 .05.09 1.83 1.83 0 0 1 .57 1 .12.12 0 0 0 .09.1 2.82 2.82 0 0 1 .36.25z" fill="#cf1126"/><path d="m9.3 20.3c0 .09 0-.5-.65-.77a.12.12 0 0 1 -.09-.09 2 2 0 0 0 -.56-1.09.16.16 0 0 1 0-.11c0-.25 0-1.1-.34-1.12-.12 0-.22.08 0 .5.05.12 0 .1 0 .54a.21.21 0 0 0 0 .11 2.51 2.51 0 0 1 .53 1.16.2.2 0 0 0 .11.17 8.66 8.66 0 0 1 1 .7z" fill="#cf1126"/><path d="m9.07 25.27a1.82 1.82 0 0 0 1 .36 1.8 1.8 0 0 0 1-.29c.1 0 .35.12 0 .42a1.35 1.35 0 0 1 -1.07.3 1.36 1.36 0 0 1 -1-.38c-.29-.32 0-.46.07-.41z" fill="#cf1126"/><path d="m8.66 26.4a3 3 0 0 0 1.39.32 3.08 3.08 0 0 0 1.4-.28c.09-.05.35.1 0 .41s-1.15.33-1.45.33c-.3 0-1.12 0-1.45-.37s.02-.46.11-.41z" fill="#cf1126"/><path d="m8.89 25.85a2.15 2.15 0 0 0 1.17.31 1.89 1.89 0 0 0 1.17-.28c.09-.05.42.08.12.39a1.85 1.85 0 0 1 -1.29.33 1.86 1.86 0 0 1 -1.28-.37c-.31-.32.02-.44.11-.38z" fill="#cf1126"/><g fill="#f7e017"><path d="m13.63 24a.43.43 0 0 0 -.21.19.57.57 0 0 0 -.05.31 1.93 1.93 0 0 0 .06.41.34.34 0 0 0 .05.14.45.45 0 0 0 .11.13.49.49 0 0 0 .3.19.1.1 0 0 0 .12 0 .2.2 0 0 0 0-.13 1 1 0 0 1 -.01-.24.25.25 0 0 1 0-.17.23.23 0 0 1 .18-.07 1.06 1.06 0 0 1 .31.05.52.52 0 0 1 .15.07l.15.1a.79.79 0 0 1 .18.14.33.33 0 0 1 .09.21.25.25 0 0 1 0 .08.54.54 0 0 1 -.12.09.6.6 0 0 1 -.15.09.09.09 0 0 1 -.1 0 .09.09 0 0 1 0-.12.87.87 0 0 0 .09-.11.21.21 0 0 0 -.07-.23.89.89 0 0 0 -.27-.15.33.33 0 0 0 -.14 0 .11.11 0 0 0 -.12.08.29.29 0 0 0 0 .09.88.88 0 0 1 0 .28.19.19 0 0 1 0 .08.13.13 0 0 1 -.06.07.16.16 0 0 1 -.12 0h-.1a.41.41 0 0 1 -.15-.07 1.5 1.5 0 0 1 -.34-.27.31.31 0 0 1 -.07-.09l-.09-.15a.93.93 0 0 1 -.11-.55.72.72 0 0 1 0-.25l.09-.13a.67.67 0 0 1 .58-.21s.07 0 .07 0 0 0-.07 0z"/><path d="m16.6 26.1a.11.11 0 0 0 -.12-.06.36.36 0 0 0 -.12.08c-.09.1-.16.2-.24.3a.87.87 0 0 1 -.27.27.44.44 0 0 1 -.37 0 0 0 0 0 1 0 0 1.36 1.36 0 0 0 .24-.24.11.11 0 0 0 0-.08c0-.06-.08-.09-.14-.09-.23 0-.41.18-.63.21-.05 0-.11 0-.12 0s0-.09.07-.12.29-.39.48-.55a.16.16 0 0 0 .07-.07.06.06 0 0 0 0-.09.27.27 0 0 0 -.19.06.71.71 0 0 0 -.1.14.89.89 0 0 1 -.21.26.42.42 0 0 1 -.32.09.28.28 0 0 1 -.23-.21s0-.08 0-.11a.13.13 0 0 0 -.19 0c-.05 0-.05.11-.05.18a.06.06 0 0 1 0 0l.07.06c.08.05.18 0 .26.1a.21.21 0 0 1 .11.16.17.17 0 0 0 0 .07s.1 0 .15 0a.18.18 0 0 1 .09.22 2.5 2.5 0 0 0 -.09.25.15.15 0 0 0 0 .09.06.06 0 0 0 .07 0s0 0 0 0l.09-.15s0 0 0 0h.62a.47.47 0 0 0 .17 0 .54.54 0 0 0 .16-.1c.09-.09.17-.21.26-.3s.27-.17.33-.31a.1.1 0 0 0 .15-.06zm-1.41.67h-.08s0 0 0 0a.07.07 0 0 1 .06-.09s.08 0 .08.07a.05.05 0 0 1 -.06.02zm.19-.18a.14.14 0 0 1 -.09 0s0 0 0 0 .14-.09.17 0a.07.07 0 0 1 0 .05z"/><path d="m16.47 26.48c-.16.2-.34.39-.52.59a.38.38 0 0 0 -.09.15.23.23 0 0 0 0 .18.13.13 0 0 0 .07.06.57.57 0 0 0 .69-.09.82.82 0 0 0 0 .27.51.51 0 0 0 .38.36.83.83 0 0 0 .49 0 .46.46 0 0 0 .24-.19.57.57 0 0 0 0-.26 1.32 1.32 0 0 0 0-.28.05.05 0 0 0 0-.06.27.27 0 0 0 -.11.25.44.44 0 0 1 -.05.28.33.33 0 0 1 -.27.11.41.41 0 0 1 -.32-.1.19.19 0 0 1 -.07-.12.28.28 0 0 1 .11-.22.26.26 0 0 0 .07-.23.17.17 0 0 0 -.17.08.27.27 0 0 1 -.15.11s0-.09 0-.13-.09-.07-.14-.05a.4.4 0 0 0 -.13.13.28.28 0 0 1 -.12.12.16.16 0 0 1 -.16 0 .16.16 0 0 1 0-.16s0-.06.06-.09l.2-.24c.11-.13.22-.26.34-.38a.35.35 0 0 0 .15-.23s-.24 0-.26 0 0 0 0 .05a.14.14 0 0 1 0 .06z"/><path d="m15.9 27.64a.07.07 0 0 0 0 0 .05.05 0 0 0 0 0s0-.09 0-.11.01.08 0 .11z"/><path d="m17.55 26.76a.08.08 0 0 0 0 0s0 0 0 0h.07s0 0 0 0a.07.07 0 0 0 0-.05c.01.02-.03.03-.07.05z"/><path d="m18.79 27.27s0 0 0 .05h.08v-.02a.07.07 0 0 0 -.08-.03z"/><path d="m22.16 27.88a.85.85 0 0 0 -.22 0l-.46-.11a.58.58 0 0 0 -.23 0 .18.18 0 0 0 -.16.14.06.06 0 0 0 0 .07.08.08 0 0 0 .07 0h.21a.44.44 0 0 1 .16 0 .14.14 0 0 1 .09.12c0 .08-.09.13-.16.15a1 1 0 0 1 -.62.1.64.64 0 0 0 -.23 0c-.05 0-.1 0-.16 0s-.1-.1-.16-.13a.14.14 0 0 0 -.14 0 1.48 1.48 0 0 0 -.13.08.26.26 0 0 1 -.15 0h-.05a.11.11 0 0 0 -.07-.06h-.12-.13a2.62 2.62 0 0 1 -.28 0 .32.32 0 0 1 -.14 0 .12.12 0 0 1 -.06-.12c0-.05.06-.09.05-.15a.09.09 0 0 0 -.08 0h-.1a.54.54 0 0 1 -.22.05.25.25 0 0 1 -.2-.1c-.09-.11 0-.3-.17-.38a.17.17 0 0 0 -.17 0 .29.29 0 0 0 -.15.09.52.52 0 0 0 -.17.19.26.26 0 0 0 0 .24c0 .05.11.09.11.15s-.05.11-.1.14a1.29 1.29 0 0 1 -1.07 0 .85.85 0 0 0 -.31-.09.14.14 0 0 0 0 .19.41.41 0 0 0 .11.07 1.92 1.92 0 0 0 .61.17 1.21 1.21 0 0 0 1-.46.32.32 0 0 1 .14-.23.26.26 0 0 1 .15 0 .59.59 0 0 1 .32.11c0 .07 0 .16.06.18h.06a2.26 2.26 0 0 1 .45 0 .37.37 0 0 1 .25.09l.07.06h.09a3.42 3.42 0 0 1 .84 0 2.66 2.66 0 0 0 .37.07 1 1 0 0 0 .24 0 .88.88 0 0 0 .23-.07s0 0 .07-.05a.41.41 0 0 1 .11-.07s0 0 0 0a.69.69 0 0 0 .13-.11s0-.08.09-.1.2 0 .29-.07.09-.15.04-.16zm-4-.1a.1.1 0 0 1 0 0h-.08a.1.1 0 0 1 0 0 .06.06 0 0 1 0-.06s.08-.09.12-.06.01.08-.01.12z"/><path d="m23.32 27.7a8.51 8.51 0 0 0 -.3-1s0-.06-.05-.07-.06 0-.09 0a.23.23 0 0 0 -.08.11.31.31 0 0 0 .06.16 3.3 3.3 0 0 1 .3.73 1 1 0 0 1 0 .17.58.58 0 0 1 0 .32.27.27 0 0 1 -.1.11.18.18 0 0 1 -.1 0h-.55a.32.32 0 0 0 -.14 0l-.1.07a.2.2 0 0 1 -.25 0s-.06-.09-.1 0a.29.29 0 0 0 0 .18s0 .07 0 .09a.1.1 0 0 0 .07 0h.11a.2.2 0 0 1 .15.05s0 .1 0 .15a.21.21 0 0 0 .13.13.31.31 0 0 0 .19 0 .25.25 0 0 0 .18-.15c0-.08 0-.19.11-.23h.24a.46.46 0 0 0 .23-.14.69.69 0 0 0 .11-.13.67.67 0 0 0 -.02-.55zm-.73 1a.12.12 0 0 1 -.1 0s0 0 0-.06 0-.05 0-.07a.12.12 0 0 1 .11-.13c.05 0 .11.06.14.1a.22.22 0 0 1 -.15.15z"/><path d="m26.45 25s0-.06-.07-.06-.07.07-.07.13a.65.65 0 0 1 0 .34.32.32 0 0 1 -.2.14 2.27 2.27 0 0 1 -.25.06.74.74 0 0 0 -.46.44 1.47 1.47 0 0 1 -.06.14.14.14 0 0 1 -.12.07s-.08 0-.12-.07a.41.41 0 0 0 -.25-.11.22.22 0 0 0 -.23.12c0 .07 0 .18-.12.19s-.11-.06-.16-.12a.1.1 0 0 0 -.1 0 .2.2 0 0 0 0 .11c0 .14.13.26.16.39a.36.36 0 0 1 -.17.4.28.28 0 0 1 -.43-.17s0-.09 0-.13a.09.09 0 0 0 -.11-.06.16.16 0 0 0 0 .1s0 .08-.07.07 0 0-.05-.05a1.55 1.55 0 0 1 0-.21.14.14 0 0 0 -.14-.12c-.07 0-.1.11-.1.18a.85.85 0 0 0 0 .17 4.47 4.47 0 0 0 .19.46.86.86 0 0 1 .06.23v.22s0 0 0 0a2.17 2.17 0 0 1 0-.36s0-.07.05-.08h.08.19.17a.5.5 0 0 0 .36-.21.67.67 0 0 0 .11-.41.57.57 0 0 1 0-.13.13.13 0 0 1 .08-.11h.3a.38.38 0 0 1 .1 0 .15.15 0 0 1 .08.13.38.38 0 0 1 0 .15 1.35 1.35 0 0 1 -.46.75.74.74 0 0 0 -.13.12.19.19 0 0 0 -.05.16.53.53 0 0 0 .24-.11.91.91 0 0 0 .21-.18 1.28 1.28 0 0 0 .17-.22l.05-.12a.91.91 0 0 1 .07-.14.5.5 0 0 0 0-.21 1.5 1.5 0 0 1 0-.37s0 0 0-.06a.23.23 0 0 1 .18-.12h.23a.3.3 0 0 0 .2-.08c.11-.1 0-.26.08-.39a1 1 0 0 1 .4-.31.22.22 0 0 0 .1-.09.16.16 0 0 0 .05-.09.55.55 0 0 0 .01-.38zm-1.54 1.46a.2.2 0 0 1 -.11 0 0 0 0 0 1 0 0 .1.1 0 0 1 .05-.12.12.12 0 0 1 .14 0s.07.06.07.09a.13.13 0 0 1 -.15.05zm.88-.29h-.06-.06a.06.06 0 0 1 0-.06.17.17 0 0 1 0-.12c0-.05.1-.1.15-.05a.14.14 0 0 1 -.03.25z"/><path d="m23.81 26.21a.08.08 0 0 0 0 .08.09.09 0 0 0 .11-.06.08.08 0 0 0 0-.09s-.09.04-.11.07z"/><path d="m26 24.44a.07.07 0 0 0 0-.09.14.14 0 0 0 -.08-.05.23.23 0 0 0 -.18.06.25.25 0 0 0 -.08.17.29.29 0 0 0 .07.25.29.29 0 0 1 .11.11v.22s.11 0 .12-.06a.09.09 0 0 0 0-.05.3.3 0 0 1 .05-.19l.07-.08a.23.23 0 0 0 .07-.1.09.09 0 0 0 0-.1.11.11 0 0 0 -.12 0 .75.75 0 0 1 -.12.07s-.07 0-.07 0 0-.05.05-.07.04-.04.11-.09z"/><path d="m26 24.21s0 0 0 .06.2.18.3.27a2.05 2.05 0 0 1 .34.38s.08.12.15.12a.19.19 0 0 0 .1-.05.61.61 0 0 0 .23-.22v-.09c.07-.12.23-.17.29-.29a.49.49 0 0 0 0-.21.8.8 0 0 0 -.27-.52l-.17-.14c-.06-.05-.11-.11-.17-.15a1.85 1.85 0 0 1 -.27-.19s-.07-.09-.11-.07 0 .05 0 .08a.36.36 0 0 0 .17.26c.09.06.19.1.27.16a1.06 1.06 0 0 1 .15.15.83.83 0 0 1 .27.51.11.11 0 0 1 0 .06c-.09 0-.16-.05-.22-.11l-.32-.31s-.05 0-.07 0a.17.17 0 0 0 0 .14.57.57 0 0 0 .08.13l.13.18a.67.67 0 0 1 .09.14.22.22 0 0 1 0 .16.32.32 0 0 1 -.11.12.13.13 0 0 1 -.07 0c-.07 0-.11-.06-.14-.12a2.44 2.44 0 0 0 -.49-.62l-.1-.07s-.1 0-.1 0a.29.29 0 0 0 .04.24z"/><path d="m26.69 22.79a0 0 0 0 1 0 0 .08.08 0 0 1 .09 0l.06.07c.12.15.28.26.41.4a1.22 1.22 0 0 1 .15.17.29.29 0 0 1 .08.14.05.05 0 0 1 -.08 0 .12.12 0 0 1 -.05 0 3.27 3.27 0 0 0 -.35-.3l-.19-.15c-.05 0-.13-.07-.14-.14s.02-.14.02-.19z"/><path d="m15 28.72a.24.24 0 0 0 -.26-.15.7.7 0 0 0 -.3.12.86.86 0 0 1 -.29.14.43.43 0 0 1 -.31-.08l-.12-.14-.13-.18a.54.54 0 0 0 -.15-.15.2.2 0 0 0 -.15 0h-.08a0 0 0 0 0 0 .05.57.57 0 0 1 .26.25v.12a.43.43 0 0 0 .31.19h.38a.22.22 0 0 1 .11.05c.05.05 0 .14 0 .21s0 0 0 .05.08 0 .13 0a1.27 1.27 0 0 0 .33-.24.69.69 0 0 0 .27-.06.23.23 0 0 0 0-.18zm-.25.21a.1.1 0 0 1 0 .05h-.05a.09.09 0 0 1 -.06 0 .17.17 0 0 1 0-.07s0-.11.07-.12.08 0 .1.06a.09.09 0 0 1 -.06.08z"/><path d="m15.42 29.36v-.06-.07a2.07 2.07 0 0 1 0-.22.32.32 0 0 1 .12-.21.3.3 0 0 1 .16 0s0 0 0 0a.13.13 0 0 1 0 .1 1.22 1.22 0 0 0 -.12.19v.07a1.33 1.33 0 0 1 -.25.45s-.07.08-.12.06 0 0 0-.07a.54.54 0 0 1 .09-.12z"/><path d="m14.66 29.47a.24.24 0 0 1 .18.13.85.85 0 0 0 .6.36h.09a.33.33 0 0 0 .1-.06.59.59 0 0 0 .24-.28c0-.13 0-.29.05-.4a.37.37 0 0 1 .22-.12.14.14 0 0 1 .09 0s.05 0 .05.06 0 .05 0 .06l-.06.05a.26.26 0 0 0 -.07.1 1.34 1.34 0 0 0 -.12.24.36.36 0 0 1 0 .11c0 .06-.08.11-.11.17a.53.53 0 0 0 0 .22.19.19 0 0 0 0 .08.31.31 0 0 0 .08.11.72.72 0 0 0 .19.11 2.21 2.21 0 0 0 .89.13c.09 0 .2 0 .23.09s0 .06 0 .09.14.09.23.08h.21.07s0 .09 0 .14a.15.15 0 0 0 .18.06c.07 0 .13-.07.21-.1a.16.16 0 0 1 .2.06s0 .07 0 .11.19.14.28.07a.41.41 0 0 0 .14-.31.87.87 0 0 0 0-.36.31.31 0 0 1 0-.19.32.32 0 0 1 .12-.14s.08 0 .11 0 0 .06 0 .09a5.94 5.94 0 0 1 -.08.71.58.58 0 0 1 -.19.35.85.85 0 0 1 -.35.11.23.23 0 0 1 -.18 0 .18.18 0 0 1 -.06-.09.31.31 0 0 0 -.07-.09.19.19 0 0 0 -.15 0 .8.8 0 0 0 -.15 0c-.08 0-.23.09-.3 0a.11.11 0 0 1 0-.08v-.14a.13.13 0 0 0 -.08-.08.25.25 0 0 0 -.17 0c-.09 0-.19 0-.24-.05s0-.08-.07-.12a.22.22 0 0 0 -.16 0 3.21 3.21 0 0 1 -.82-.15.78.78 0 0 1 -.34-.17c-.07-.07-.11-.17-.2-.22a.71.71 0 0 0 -.21 0 1 1 0 0 1 -.28-.12.67.67 0 0 1 -.25-.19.29.29 0 0 1 -.05-.43z"/><path d="m19.47 31.27s0-.05 0-.07v-.15a.57.57 0 0 0 0-.13v-.14-.41a.49.49 0 0 1 0-.12.24.24 0 0 1 .11-.09h.05s.05 0 .06.06a.14.14 0 0 1 0 .09v.23.07c0 .16 0 .33-.07.5a.13.13 0 0 1 0 .06.51.51 0 0 1 -.1.21s-.05.07-.07 0 .02-.08.02-.11z"/><path d="m18.71 31.6h-.06s0 0 0 .06a.37.37 0 0 0 .15 0h.61.16a1 1 0 0 0 .27-.09.45.45 0 0 0 .2-.12.41.41 0 0 0 .05-.09l.08-.14a1.42 1.42 0 0 0 .08-.18.34.34 0 0 0 0-.2.37.37 0 0 0 -.15 0 .1.1 0 0 0 -.1.16.17.17 0 0 0 0 .14 1.09 1.09 0 0 1 0 .18.27.27 0 0 1 -.05.18.42.42 0 0 1 -.14.09l-.13.05h-.12c-.1 0-.19 0-.28 0a1.67 1.67 0 0 0 -.32 0z"/><path d="m20.46 31a.31.31 0 0 0 0-.1v-.27a.13.13 0 0 0 0-.06.43.43 0 0 0 0-.07.21.21 0 0 1 0-.16l.08-.08s.06 0 .09 0a.07.07 0 0 1 0 .05.13.13 0 0 1 0 .06v.41a3.33 3.33 0 0 1 0 .55.66.66 0 0 1 0 .15s0 .12-.08.13 0-.09 0-.12a1.21 1.21 0 0 0 0-.19z"/><path d="m21.29 31.31a.19.19 0 0 0 .1-.13.22.22 0 0 0 0-.11.44.44 0 0 0 -.23-.27s-.09 0-.11-.06a.11.11 0 0 1 0-.11.86.86 0 0 1 .07-.1.24.24 0 0 1 .08-.06.15.15 0 0 1 .13 0 .52.52 0 0 1 .1.11l.08.09a.67.67 0 0 1 .12.39.49.49 0 0 1 0 .12.75.75 0 0 1 -.07.12l-.1.12a.39.39 0 0 1 -.1.08h-.11a.53.53 0 0 0 -.17.08c-.07 0-.15.11-.24.1a.21.21 0 0 1 0-.11l.06-.09s0-.07.05-.1a.15.15 0 0 1 .14-.06.8.8 0 0 0 .2-.01z"/><path d="m22.62 30.72a.33.33 0 0 0 0 .32.42.42 0 0 0 .33.13 1.51 1.51 0 0 0 .78-.17 1.46 1.46 0 0 0 .57-.56.47.47 0 0 0 .06-.2.17.17 0 0 0 -.09-.17c-.07 0-.18 0-.23-.08a.25.25 0 0 1 0-.17 2 2 0 0 0 0-.25.23.23 0 0 0 0-.11.08.08 0 0 0 -.09-.05.13.13 0 0 0 -.07.06.35.35 0 0 0 -.07.12c0 .09 0 .18.05.27a.25.25 0 0 1 -.06.2 1.85 1.85 0 0 1 -.14.14.17.17 0 0 0 -.06.18.14.14 0 0 0 .15 0l.11-.1a.21.21 0 0 1 .26.08.27.27 0 0 1 0 .23.52.52 0 0 1 -.17.16 1.67 1.67 0 0 1 -.78.28.45.45 0 0 1 -.2 0 .23.23 0 0 1 -.14-.13.35.35 0 0 1 0-.2s0-.25-.06-.16a.89.89 0 0 0 -.15.18z"/><path d="m23.44 29.62a0 0 0 0 0 0 0 .07.07 0 0 0 .06 0s.05-.09 0-.1-.06.04-.06.1z"/><path d="m23.29 31.33a.05.05 0 0 0 0 0 .11.11 0 0 0 .08 0s0-.11 0-.13-.08.08-.08.13z"/><path d="m23.66 31.22s0 0 0 0a.09.09 0 0 0 .07 0 .07.07 0 0 0 0 0 .06.06 0 0 0 0 0 .1.1 0 0 0 -.1-.05s.01.01.03.05z"/><path d="m25.69 28.85a.59.59 0 0 0 0-.23.26.26 0 0 0 -.14-.17.28.28 0 0 0 -.28 0 .44.44 0 0 0 -.14.25 1.37 1.37 0 0 0 0 .29.21.21 0 0 0 .07.18.19.19 0 0 0 .15 0 .79.79 0 0 0 .22-.06.73.73 0 0 1 -.08.38 1.91 1.91 0 0 1 -.24.32.86.86 0 0 0 -.14.13l-.14.12-.25.2s-.06.06-.05.09a.11.11 0 0 0 .08 0 1.13 1.13 0 0 0 .53-.3 2.81 2.81 0 0 0 .35-.5.69.69 0 0 0 .1-.19.85.85 0 0 0 0-.23c-.03-.04-.03-.13-.04-.28zm-.21 0a.21.21 0 0 1 -.07.13s0 0 0 0a.12.12 0 0 1 -.14-.06.3.3 0 0 1 0-.1c0-.07.06-.21.17-.18s0 0 .06.05a.32.32 0 0 1 -.02.15z"/><path d="m26.55 28.81a.1.1 0 0 0 .05 0 .07.07 0 0 0 0-.14.08.08 0 0 0 -.05.14z"/><path d="m25.79 29.6a.91.91 0 0 0 .11-.16 1.2 1.2 0 0 0 .07-.6.46.46 0 0 1 .06-.28.51.51 0 0 1 .2-.12 1.19 1.19 0 0 0 .42-.28s.05 0 .07 0 0 0 0 .05a.3.3 0 0 1 -.1.19 2.76 2.76 0 0 1 -.39.28.16.16 0 0 0 -.09.09.13.13 0 0 0 0 .06 1.93 1.93 0 0 0 0 .24v.19a.84.84 0 0 1 -.48.73.07.07 0 0 1 -.07 0c-.09 0 0-.13.05-.16z"/></g></svg>