<svg xmlns="http://www.w3.org/2000/svg" viewBox="0 0 40.5 40.5"><defs><style>.cls-1{fill:#f7e017;}.cls-2{fill:#fff;}.cls-3{fill:#cf1126;}</style></defs><g id="Ebene_2" data-name="Ebene 2"><g id="Ńëîé_1" data-name="Ńëîé 1"><path class="cls-1" d="M40.5,20.25A20.42,20.42,0,0,1,40,24.91a20.26,20.26,0,0,1-39.37.24,20.5,20.5,0,0,1-.27-8.49A20,20,0,0,1,4.2,7.9a20.26,20.26,0,0,1,35.71,7.44A20.44,20.44,0,0,1,40.5,20.25Z"/><path d="M40,24.91a20.08,20.08,0,0,1-3.66,7.68L.59,25.15a20.5,20.5,0,0,1-.27-8.49Z"/><path class="cls-2" d="M40.5,20.25A20.42,20.42,0,0,1,40,24.91L.32,16.66A20,20,0,0,1,4.2,7.9l35.71,7.44A20.44,20.44,0,0,1,40.5,20.25Z"/><path class="cls-3" d="M21.84,11.48a3.19,3.19,0,0,1-3,0,3.18,3.18,0,0,1-.55,1.79l.69-.48.42.46.5-.56.45.45.45-.45.49.56.42-.46.7.48A3.1,3.1,0,0,1,21.84,11.48Z"/><path class="cls-3" d="M21.74,11.32a1.9,1.9,0,0,0-1.1-.2v.39H20v-.39a1.9,1.9,0,0,0-1.1.2.05.05,0,0,0,0,.08,2.22,2.22,0,0,0,1.42.37,2.24,2.24,0,0,0,1.42-.37A.06.06,0,0,0,21.74,11.32Z"/><path class="cls-3" d="M22,9.5l-1.46-.76V8.69h0c.11,0,.18-.08.18-.14s-.16-.16-.36-.16-.37.07-.37.16.07.11.18.14v2.73h.34V10.13l1.23.59L21,9.79Z"/><path class="cls-3" d="M27.25,15.1a3.46,3.46,0,0,1-2.84-.58C22.22,13,21,14,20.69,14.31a0,0,0,0,1-.08,0V13.2s0,0-.06,0l-.21.15a.06.06,0,0,0,0,0,.08.08,0,0,0,0,0l-.2-.15a0,0,0,0,0-.07,0v1.08a0,0,0,0,1-.07,0c-.3-.32-1.54-1.36-3.72.21a3.46,3.46,0,0,1-2.84.58,0,0,0,0,0-.05.05,1.31,1.31,0,0,0,1.3,1,2.21,2.21,0,0,0,1-.34,2.06,2.06,0,0,1,1.2-.34s.09.06-.16.11a4.81,4.81,0,0,0-1.36.54,2.19,2.19,0,0,1-.66.17.09.09,0,0,0-.06.07c0,.14.16.48.73.47a1,1,0,0,0,.66-.22,3.24,3.24,0,0,1,1.54-.68s.19.1-.17.16a2.57,2.57,0,0,0-.84.33,5.31,5.31,0,0,0-.78.54c0,.06.1.42.67.42a1.8,1.8,0,0,0,1-.5,3,3,0,0,1,1-.59,0,0,0,0,1,0,.07,4,4,0,0,1-.39.25,5.09,5.09,0,0,0-1,.73.22.22,0,0,0-.05.08c0,.12,0,.4.48.4.68,0,1.21-.52,2-1.34,0,0,.15,0,0,.14s-.29.3-.29.5a.26.26,0,0,0,.24.29c.1,0,.23,0,.29,0s.13,0,0,.16a.69.69,0,0,0-.17.43c0,.14.24.54.39.54s.22-.3.37-.3.22.3.37.3.39-.4.39-.54a.69.69,0,0,0-.17-.43c-.12-.13,0-.16,0-.16s.19,0,.29,0a.27.27,0,0,0,.24-.29c0-.2-.14-.32-.29-.5s0-.17,0-.14c.79.82,1.33,1.34,2,1.34s.51-.28.48-.4a.14.14,0,0,0-.05-.08,4.7,4.7,0,0,0-1-.73,4,4,0,0,1-.39-.25s0-.08,0-.07a2.89,2.89,0,0,1,1,.59,1.77,1.77,0,0,0,1,.5c.56,0,.7-.36.67-.42a5,5,0,0,0-.79-.54A2.42,2.42,0,0,0,23.3,16c-.36-.06-.23-.15-.17-.16a3.24,3.24,0,0,1,1.54.68.94.94,0,0,0,.66.22c.57,0,.71-.33.72-.47s0-.06-.06-.07a2.19,2.19,0,0,1-.65-.17A4.93,4.93,0,0,0,24,15.53c-.25,0-.2-.1-.16-.11a2.06,2.06,0,0,1,1.2.34,2.21,2.21,0,0,0,1,.34,1.29,1.29,0,0,0,1.29-1S27.28,15.09,27.25,15.1Z"/><path class="cls-3" d="M21.21,18.78c.05-.05.38-.28,0-.28a.54.54,0,0,0-.53.26c-.05,0-.21.1-.21-.13s-.15-.32-.15-.32-.15,0-.15.32-.17.17-.21.13a.55.55,0,0,0-.54-.26c-.37,0,0,.23,0,.28a1,1,0,0,1,.32.83,3.1,3.1,0,0,1-.25.92,1.72,1.72,0,0,0,0,1.06c0,.13.17.45.38.45s.3-.52.47-.52.37.52.47.52.35-.32.38-.45a1.72,1.72,0,0,0,0-1.06,3.1,3.1,0,0,1-.25-.92A1,1,0,0,1,21.21,18.78Z"/><path class="cls-3" d="M21,22.9a1.27,1.27,0,0,1,.38-.85s0-.1-.07-.09a1,1,0,0,0-.57.4s-.11,0-.11,0c0-.53-.31-.6-.31-.6s-.3.07-.31.6c0,.05-.08.06-.11,0a1,1,0,0,0-.58-.4.06.06,0,0,0-.06.09,1.32,1.32,0,0,1,.37.85c0,.44-.52,1.2-.52,1.83s.2,1.12.52,1.17c.08,0,.37-1.17.69-1.17s.6,1.18.69,1.17c.32,0,.52-.47.52-1.17S21,23.34,21,22.9Z"/><path class="cls-3" d="M21.76,25.62a4.3,4.3,0,0,0-.88.55c-.26.16-.14-.2-.14-.2.16-.49-.41-1-.41-1s-.57.48-.42,1c0,0,.13.36-.14.2a4,4,0,0,0-.87-.55,1.27,1.27,0,0,1-.49-.24,2,2,0,0,0,3.84,0A1.27,1.27,0,0,1,21.76,25.62Z"/><path class="cls-3" d="M28.19,21.7a7.88,7.88,0,0,1-9.67,7.66,7.73,7.73,0,0,1-5.84-5.83,7.9,7.9,0,0,1,1.74-7A6.88,6.88,0,1,0,27.2,20a6.82,6.82,0,0,0-1-3.53A7.83,7.83,0,0,1,28.19,21.7Z"/><path class="cls-3" d="M29.06,29.91a.11.11,0,0,1-.06-.16c.43-.58.13-.85-.07-1a1.29,1.29,0,0,0-1.3,0c-.06,0-.15-.07-.1-.13a1,1,0,0,0-.05-1.26c-.41-.46-1-.12-1.27.1a8.18,8.18,0,0,1-11.77,0c-.23-.22-.86-.56-1.27-.1a1,1,0,0,0,0,1.26c0,.06,0,.16-.11.13a1.27,1.27,0,0,0-1.29,0c-.2.16-.51.43-.07,1a.11.11,0,0,1-.07.16c-.26.07-.8,0-.71.89,0,0,1.49-.48,2-.19a8.63,8.63,0,0,1,1.45.91,1.23,1.23,0,0,0,.69.18c.62,0,.62-.34.62-.92a8.19,8.19,0,0,0,4.64,1.32A8.14,8.14,0,0,0,25,30.78c0,.58,0,.92.63.92a1.23,1.23,0,0,0,.69-.18,8.91,8.91,0,0,1,1.44-.91c.57-.29,2.06.19,2.06.19C29.87,29.92,29.33,30,29.06,29.91Z"/><path class="cls-3" d="M29.54,25.21l0-4.47a.65.65,0,0,1,.13-.38,2.23,2.23,0,0,1,.63-.54.44.44,0,0,0,.15-.12c.21-.22.78-.85.92-1s.62-.26.46.12a3.73,3.73,0,0,0-.66,1.76s0,.18.15,0a1.86,1.86,0,0,1,.92-.7.64.64,0,0,0,.38-.52,2.22,2.22,0,0,1,.51-1,.23.23,0,0,0,.06-.16c0-.24,0-.85.35-1.12a.07.07,0,0,1,.11,0,1.24,1.24,0,0,1,.05.64A11,11,0,0,1,33.22,20a8,8,0,0,1-1.32,1.35,1.07,1.07,0,0,0-.29.85v2.92a2.22,2.22,0,0,1-1.07.36A1.83,1.83,0,0,1,29.54,25.21Z"/><path class="cls-3" d="M32,18.54a1.13,1.13,0,0,0,.08-.24c0-.3,0-.45,0-.58.19-.36,0-.44-.07-.38-.29.22-.33.84-.33,1a.06.06,0,0,0,.05.06c.06,0,.15,0,.17.08S32,18.55,32,18.54Z"/><path class="cls-3" d="M31.55,19.65c-.1.06.34-.61.43-.81a2.42,2.42,0,0,0,.24-.45c0-.09,0-.37,0-.37a1,1,0,0,1,.08-.37c.08-.18.21-.4.33-.4s0,.25,0,.34a4.09,4.09,0,0,0,0,.62.16.16,0,0,1-.05.09,1.77,1.77,0,0,0-.57,1,.13.13,0,0,1-.09.1A3,3,0,0,0,31.55,19.65Z"/><path class="cls-3" d="M31.36,20.3c0,.09,0-.5.65-.77a.16.16,0,0,0,.09-.09,2,2,0,0,1,.61-1.09.15.15,0,0,0,0-.11c0-.25,0-1.1.34-1.12.13,0,.23.08,0,.5,0,.12,0,.1,0,.54a.15.15,0,0,1,0,.11,2.51,2.51,0,0,0-.52,1.16.23.23,0,0,1-.11.17A7.34,7.34,0,0,0,31.36,20.3Z"/><path class="cls-3" d="M31.59,25.27a1.73,1.73,0,0,1-2,.07c-.09,0-.35.12,0,.42a1.38,1.38,0,0,0,1.08.3,1.33,1.33,0,0,0,1-.38C31.94,25.36,31.68,25.22,31.59,25.27Z"/><path class="cls-3" d="M32,26.4a3,3,0,0,1-1.39.32h0a3.05,3.05,0,0,1-1.4-.28c-.09-.05-.36.1-.06.41s1.16.33,1.46.33h0c.3,0,1.12,0,1.44-.37S32.09,26.35,32,26.4Z"/><path class="cls-3" d="M31.76,25.85a2.12,2.12,0,0,1-1.16.31h0a1.86,1.86,0,0,1-1.17-.28c-.09-.05-.42.08-.13.39a1.87,1.87,0,0,0,1.3.33h0a1.88,1.88,0,0,0,1.29-.37C32.19,25.91,31.85,25.79,31.76,25.85Z"/><path class="cls-3" d="M11.12,25.21l0-4.47a.65.65,0,0,0-.13-.38,2.3,2.3,0,0,0-.64-.54.79.79,0,0,1-.15-.12c-.2-.22-.78-.85-.91-1s-.63-.26-.46.12.72,1.11.66,1.76c0,0,0,.18-.15,0a1.86,1.86,0,0,0-.93-.7A.66.66,0,0,1,8,19.33a2,2,0,0,0-.51-1,.28.28,0,0,1-.05-.16c0-.24,0-.85-.35-1.12a.09.09,0,0,0-.12,0,1.29,1.29,0,0,0,0,.64A11,11,0,0,0,7.44,20a8,8,0,0,0,1.32,1.35,1.11,1.11,0,0,1,.29.85v2.92a2.22,2.22,0,0,0,1.07.36A1.88,1.88,0,0,0,11.12,25.21Z"/><path class="cls-3" d="M8.64,18.54a.57.57,0,0,1-.08-.24c0-.3,0-.45,0-.58-.19-.36,0-.44.07-.38.29.22.32.84.33,1a.06.06,0,0,1-.05.06c-.06,0-.16,0-.17.08S8.65,18.55,8.64,18.54Z"/><path class="cls-3" d="M9.1,19.65c.11.06-.33-.61-.42-.81a2,2,0,0,1-.24-.45,2.21,2.21,0,0,1,0-.37,1,1,0,0,0-.08-.37c-.08-.18-.21-.4-.33-.4s0,.25,0,.34a6,6,0,0,1,0,.62.12.12,0,0,0,.05.09,1.83,1.83,0,0,1,.57,1,.12.12,0,0,0,.09.1A2.82,2.82,0,0,1,9.1,19.65Z"/><path class="cls-3" d="M9.3,20.3c0,.09,0-.5-.65-.77a.12.12,0,0,1-.09-.09A2,2,0,0,0,8,18.35a.16.16,0,0,1,0-.11c0-.25,0-1.1-.34-1.12-.12,0-.22.08,0,.5.05.12,0,.1,0,.54a.21.21,0,0,0,0,.11,2.51,2.51,0,0,1,.53,1.16.2.2,0,0,0,.11.17A8.66,8.66,0,0,1,9.3,20.3Z"/><path class="cls-3" d="M9.07,25.27a1.82,1.82,0,0,0,1,.36,1.8,1.8,0,0,0,1-.29c.1,0,.35.12,0,.42a1.35,1.35,0,0,1-1.07.3A1.36,1.36,0,0,1,9,25.68C8.71,25.36,9,25.22,9.07,25.27Z"/><path class="cls-3" d="M8.66,26.4a3,3,0,0,0,1.39.32h0a3.08,3.08,0,0,0,1.4-.28c.09-.05.35.1,0,.41s-1.15.33-1.45.33h0c-.3,0-1.12,0-1.45-.37S8.57,26.35,8.66,26.4Z"/><path class="cls-3" d="M8.89,25.85a2.15,2.15,0,0,0,1.17.31h0a1.89,1.89,0,0,0,1.17-.28c.09-.05.42.08.12.39a1.85,1.85,0,0,1-1.29.33h0a1.86,1.86,0,0,1-1.28-.37C8.47,25.91,8.8,25.79,8.89,25.85Z"/><path class="cls-1" d="M13.63,24a.43.43,0,0,0-.21.19.57.57,0,0,0-.05.31,1.93,1.93,0,0,0,.06.41.34.34,0,0,0,.05.14.45.45,0,0,0,.11.13.49.49,0,0,0,.3.19.1.1,0,0,0,.12,0,.2.2,0,0,0,0-.13A1,1,0,0,1,14,25a.25.25,0,0,1,0-.17.23.23,0,0,1,.18-.07,1.06,1.06,0,0,1,.31.05.52.52,0,0,1,.15.07l.15.1a.79.79,0,0,1,.18.14.33.33,0,0,1,.09.21.25.25,0,0,1,0,.08.54.54,0,0,1-.12.09.6.6,0,0,1-.15.09.09.09,0,0,1-.1,0,.09.09,0,0,1,0-.12.87.87,0,0,0,.09-.11.21.21,0,0,0-.07-.23.89.89,0,0,0-.27-.15.33.33,0,0,0-.14,0,.11.11,0,0,0-.12.08.29.29,0,0,0,0,.09.88.88,0,0,1,0,.28.19.19,0,0,1,0,.08l0,0a.13.13,0,0,1-.06.07.16.16,0,0,1-.12,0H13.9a.41.41,0,0,1-.15-.07,1.5,1.5,0,0,1-.34-.27.31.31,0,0,1-.07-.09L13.25,25a.93.93,0,0,1-.11-.55.72.72,0,0,1,0-.25l.09-.13a.67.67,0,0,1,.58-.21s.07,0,.07,0,0,0-.07,0Z"/><path class="cls-1" d="M16.6,26.1a.11.11,0,0,0-.12-.06.36.36,0,0,0-.12.08c-.09.1-.16.2-.24.3a.87.87,0,0,1-.27.27.44.44,0,0,1-.37,0,0,0,0,0,1,0,0v0a1.36,1.36,0,0,0,.24-.24.11.11,0,0,0,0-.08c0-.06-.08-.09-.14-.09-.23,0-.41.18-.63.21-.05,0-.11,0-.12,0s0-.09.07-.12.29-.39.48-.55a.16.16,0,0,0,.07-.07.06.06,0,0,0,0-.09l0,0a.27.27,0,0,0-.19.06.71.71,0,0,0-.1.14.89.89,0,0,1-.21.26.42.42,0,0,1-.32.09.28.28,0,0,1-.23-.21s0-.08,0-.11a.13.13,0,0,0-.19,0c-.05,0-.05.11-.05.18a.06.06,0,0,1,0,0l0,0,0,0,.07.06c.08.05.18,0,.26.1a.21.21,0,0,1,.11.16.17.17,0,0,0,0,.07s.1,0,.15,0a.18.18,0,0,1,.09.22,2.5,2.5,0,0,0-.09.25.15.15,0,0,0,0,.09.06.06,0,0,0,.07,0s0,0,0,0l.09-.15s0,0,0,0h0l.62,0a.47.47,0,0,0,.17,0,.54.54,0,0,0,.16-.1c.09-.09.17-.21.26-.3s.27-.17.33-.31A.1.1,0,0,0,16.6,26.1Zm-1.41.67h-.08s0,0,0,0a.07.07,0,0,1,.06-.09s.08,0,.08.07A.05.05,0,0,1,15.19,26.77Zm.19-.18a.14.14,0,0,1-.09,0s0,0,0,0,0,0,0,0l0,0s.14-.09.17,0h0a.07.07,0,0,1,0,.05v0Z"/><path class="cls-1" d="M16.47,26.48c-.16.2-.34.39-.52.59a.38.38,0,0,0-.09.15.23.23,0,0,0,0,.18.13.13,0,0,0,.07.06.57.57,0,0,0,.69-.09.82.82,0,0,0,0,.27A.51.51,0,0,0,17,28a.83.83,0,0,0,.49,0,.46.46,0,0,0,.24-.19.57.57,0,0,0,0-.26,1.32,1.32,0,0,0,0-.28.05.05,0,0,0,0-.06h0a.27.27,0,0,0-.11.25.44.44,0,0,1-.05.28.33.33,0,0,1-.27.11.41.41,0,0,1-.32-.1.19.19,0,0,1-.07-.12.28.28,0,0,1,.11-.22.26.26,0,0,0,.07-.23.17.17,0,0,0-.17.08.27.27,0,0,1-.15.11s0-.09,0-.13-.09-.07-.14-.05a.4.4,0,0,0-.13.13.28.28,0,0,1-.12.12.16.16,0,0,1-.16,0,.16.16,0,0,1,0-.16s0-.06.06-.09l.2-.24c.11-.13.22-.26.34-.38a.35.35,0,0,0,.15-.23s-.24,0-.26,0,0,0,0,.05a.14.14,0,0,1,0,.06Z"/><path class="cls-1" d="M15.9,27.64v0a.07.07,0,0,0,0,0h0a.05.05,0,0,0,0,0s0-.09,0-.11S15.91,27.61,15.9,27.64Z"/><path class="cls-1" d="M17.55,26.76a.08.08,0,0,0,0,0s0,0,0,0l0,0h.07s0,0,0,0a.07.07,0,0,0,0-.05C17.63,26.73,17.59,26.74,17.55,26.76Z"/><path class="cls-1" d="M18.79,27.27l0,0h0v0s0,0,0,.05l0,0h.08l0,0h0V27.3A.07.07,0,0,0,18.79,27.27Z"/><path class="cls-1" d="M22.16,27.88a.85.85,0,0,0-.22,0l-.46-.11a.58.58,0,0,0-.23,0,.18.18,0,0,0-.16.14.06.06,0,0,0,0,.07.08.08,0,0,0,.07,0h.21a.44.44,0,0,1,.16,0,.14.14,0,0,1,.09.12c0,.08-.09.13-.16.15a1,1,0,0,1-.62.1.64.64,0,0,0-.23,0c-.05,0-.1,0-.16,0s-.1-.1-.16-.13a.14.14,0,0,0-.14,0,1.48,1.48,0,0,0-.13.08.26.26,0,0,1-.15,0l-.05,0v0a.11.11,0,0,0-.07-.06l-.12,0H19.5a2.62,2.62,0,0,1-.28,0,.32.32,0,0,1-.14,0,.12.12,0,0,1-.06-.12c0-.05.06-.09.05-.15a.09.09,0,0,0-.08,0l-.1,0a.54.54,0,0,1-.22.05.25.25,0,0,1-.2-.1c-.09-.11,0-.3-.17-.38a.17.17,0,0,0-.17,0,.29.29,0,0,0-.15.09.52.52,0,0,0-.17.19.26.26,0,0,0,0,.24c0,.05.11.09.11.15s-.05.11-.1.14a1.29,1.29,0,0,1-1.07,0,.85.85,0,0,0-.31-.09.14.14,0,0,0,0,.19.41.41,0,0,0,.11.07,1.92,1.92,0,0,0,.61.17,1.21,1.21,0,0,0,1-.46A.32.32,0,0,1,18.3,28a.26.26,0,0,1,.15,0,.59.59,0,0,1,.32.11c0,.07,0,.16.06.18h.06a2.26,2.26,0,0,1,.45,0,.37.37,0,0,1,.25.09l.07.06h.09a3.42,3.42,0,0,1,.84,0,2.66,2.66,0,0,0,.37.07,1,1,0,0,0,.24,0,.88.88,0,0,0,.23-.07s0,0,.07-.05a.41.41,0,0,1,.11-.07s0,0,0,0a.69.69,0,0,0,.13-.11s0-.08.09-.1.2,0,.29-.07S22.21,27.89,22.16,27.88Zm-4-.1a.1.1,0,0,1,0,0h-.08a.1.1,0,0,1,0,0,.06.06,0,0,1,0-.06v0h0s.08-.09.12-.06S18.21,27.74,18.19,27.78Z"/><path class="cls-1" d="M23.32,27.7a8.51,8.51,0,0,0-.3-1s0-.06-.05-.07-.06,0-.09,0a.23.23,0,0,0-.08.11.31.31,0,0,0,.06.16,3.3,3.3,0,0,1,.3.73,1,1,0,0,1,0,.17.58.58,0,0,1,0,.32.27.27,0,0,1-.1.11.18.18,0,0,1-.1,0l-.55,0a.32.32,0,0,0-.14,0l-.1.07a.2.2,0,0,1-.25,0s-.06-.09-.1,0a.29.29,0,0,0,0,.18s0,.07,0,.09a.1.1,0,0,0,.07,0H22a.2.2,0,0,1,.15.05s0,.1,0,.15a.21.21,0,0,0,.13.13.31.31,0,0,0,.19,0,.25.25,0,0,0,.18-.15c0-.08,0-.19.11-.23H23a.46.46,0,0,0,.23-.14.69.69,0,0,0,.11-.13A.67.67,0,0,0,23.32,27.7Zm-.73,1,0,0,0,0a.12.12,0,0,1-.1,0l0,0s0,0,0-.06,0-.05,0-.07a.12.12,0,0,1,.11-.13c.05,0,.11.06.14.1A.22.22,0,0,1,22.59,28.69Z"/><path class="cls-1" d="M26.45,25s0-.06-.07-.06-.07.07-.07.13a.65.65,0,0,1,0,.34.32.32,0,0,1-.2.14,2.27,2.27,0,0,1-.25.06.74.74,0,0,0-.46.44,1.47,1.47,0,0,1-.06.14.14.14,0,0,1-.12.07s-.08,0-.12-.07a.41.41,0,0,0-.25-.11.22.22,0,0,0-.23.12c0,.07,0,.18-.12.19s-.11-.06-.16-.12l0,0a.1.1,0,0,0-.1,0,.2.2,0,0,0,0,.11c0,.14.13.26.16.39a.36.36,0,0,1-.17.4A.28.28,0,0,1,23.8,27s0-.09,0-.13a.09.09,0,0,0-.11-.06.16.16,0,0,0,0,.1s0,.08-.07.07,0,0-.05-.05a1.55,1.55,0,0,1,0-.21.14.14,0,0,0-.14-.12c-.07,0-.1.11-.1.18a.85.85,0,0,0,0,.17,4.47,4.47,0,0,0,.19.46.86.86,0,0,1,.06.23c0,.07,0,.16,0,.22l0,0s0,0,0,0a2.17,2.17,0,0,1,0-.36s0-.07.05-.08h.08l.19,0h.17a.5.5,0,0,0,.36-.21.67.67,0,0,0,.11-.41.57.57,0,0,1,0-.13.13.13,0,0,1,.08-.11h.3a.38.38,0,0,1,.1,0,.15.15,0,0,1,.08.13.38.38,0,0,1,0,.15,1.35,1.35,0,0,1-.46.75.74.74,0,0,0-.13.12.19.19,0,0,0-.05.16.53.53,0,0,0,.24-.11.91.91,0,0,0,.21-.18,1.28,1.28,0,0,0,.17-.22l.05-.12a.91.91,0,0,1,.07-.14.5.5,0,0,0,0-.21,1.5,1.5,0,0,1,0-.37s0,0,0-.06a.23.23,0,0,1,.18-.12h.23a.3.3,0,0,0,.2-.08c.11-.1,0-.26.08-.39a1,1,0,0,1,.4-.31.22.22,0,0,0,.1-.09.16.16,0,0,0,.05-.09A.55.55,0,0,0,26.45,25Zm-1.54,1.46a.2.2,0,0,1-.11,0l0,0a0,0,0,0,1,0,0,.1.1,0,0,1,.05-.12.12.12,0,0,1,.14,0s.07.06.07.09A.13.13,0,0,1,24.91,26.48Zm.88-.29,0,0-.06,0h-.06a.06.06,0,0,1,0-.06.17.17,0,0,1,0-.12c0-.05.1-.1.15-.05A.14.14,0,0,1,25.79,26.19Z"/><path class="cls-1" d="M23.81,26.21l0,0a.08.08,0,0,0,0,.08l0,0h0a.09.09,0,0,0,.11-.06.08.08,0,0,0,0-.09l0,0S23.83,26.18,23.81,26.21Z"/><path class="cls-1" d="M26,24.44a.07.07,0,0,0,0-.09.14.14,0,0,0-.08-.05.23.23,0,0,0-.18.06.25.25,0,0,0-.08.17.29.29,0,0,0,.07.25.29.29,0,0,1,.11.11c0,.07,0,.15,0,.22s.11,0,.12-.06a.09.09,0,0,0,0-.05.3.3,0,0,1,.05-.19l.07-.08a.23.23,0,0,0,.07-.1.09.09,0,0,0,0-.1.11.11,0,0,0-.12,0,.75.75,0,0,1-.12.07s-.07,0-.07,0,0-.05.05-.07S25.93,24.49,26,24.44Z"/><path class="cls-1" d="M26,24.21s0,0,0,.06.2.18.3.27a2.05,2.05,0,0,1,.34.38s.08.12.15.12a.19.19,0,0,0,.1-.05.61.61,0,0,0,.23-.22l0-.09c.07-.12.23-.17.29-.29a.49.49,0,0,0,0-.21.8.8,0,0,0-.27-.52l-.17-.14c-.06-.05-.11-.11-.17-.15a1.85,1.85,0,0,1-.27-.19s-.07-.09-.11-.07,0,.05,0,.08a.36.36,0,0,0,.17.26c.09.06.19.1.27.16a1.06,1.06,0,0,1,.15.15.83.83,0,0,1,.27.51.11.11,0,0,1,0,.06l0,0c-.09,0-.16-.05-.22-.11l-.32-.31s-.05,0-.07,0l0,0a.17.17,0,0,0,0,.14.57.57,0,0,0,.08.13l.13.18a.67.67,0,0,1,.09.14.22.22,0,0,1,0,.16.32.32,0,0,1-.11.12.13.13,0,0,1-.07,0c-.07,0-.11-.06-.14-.12a2.44,2.44,0,0,0-.49-.62l-.1-.07s-.1,0-.1,0A.29.29,0,0,0,26,24.21Z"/><path class="cls-1" d="M26.69,22.79a0,0,0,0,1,0,0,0,0,0,0,1,0,0,.08.08,0,0,1,.09,0l.06.07c.12.15.28.26.41.4a1.22,1.22,0,0,1,.15.17.29.29,0,0,1,.08.14.05.05,0,0,1-.08,0,.12.12,0,0,1-.05,0,3.27,3.27,0,0,0-.35-.3l-.19-.15c-.05,0-.13-.07-.14-.14S26.69,22.84,26.69,22.79Z"/><path class="cls-1" d="M15,28.72a.24.24,0,0,0-.26-.15.7.7,0,0,0-.3.12.86.86,0,0,1-.29.14.43.43,0,0,1-.31-.08l-.12-.14-.13-.18a.54.54,0,0,0-.15-.15.2.2,0,0,0-.15,0h-.08a0,0,0,0,0,0,.05l0,0a.57.57,0,0,1,.26.25l0,.12a.43.43,0,0,0,.31.19c.13,0,.26,0,.38,0a.22.22,0,0,1,.11.05c.05.05,0,.14,0,.21s0,0,0,.05.08,0,.13,0a1.27,1.27,0,0,0,.33-.24A.69.69,0,0,0,15,28.9.23.23,0,0,0,15,28.72Zm-.25.21a.1.1,0,0,1,0,.05l-.05,0a.09.09,0,0,1-.06,0,.17.17,0,0,1,0-.07s0-.11.07-.12.08,0,.1.06A.09.09,0,0,1,14.75,28.93Z"/><path class="cls-1" d="M15.42,29.36l0-.06v-.07a2.07,2.07,0,0,1,0-.22.32.32,0,0,1,.12-.21.3.3,0,0,1,.16,0s0,0,0,0,0,0,0,0a.13.13,0,0,1,0,.1,1.22,1.22,0,0,0-.12.19l0,.07a1.33,1.33,0,0,1-.25.45s-.07.08-.12.06,0,0,0-.07a.54.54,0,0,1,.09-.12Z"/><path class="cls-1" d="M14.66,29.47a.24.24,0,0,1,.18.13.85.85,0,0,0,.6.36h.09a.33.33,0,0,0,.1-.06.59.59,0,0,0,.24-.28c0-.13,0-.29.05-.4a.37.37,0,0,1,.22-.12.14.14,0,0,1,.09,0s.05,0,.05.06,0,.05,0,.06l-.06.05a.26.26,0,0,0-.07.1,1.34,1.34,0,0,0-.12.24.36.36,0,0,1,0,.11c0,.06-.08.11-.11.17a.53.53,0,0,0,0,.22.19.19,0,0,0,0,.08.31.31,0,0,0,.08.11.72.72,0,0,0,.19.11,2.21,2.21,0,0,0,.89.13c.09,0,.2,0,.23.09s0,.06,0,.09.14.09.23.08l.21,0h.07s0,.09,0,.14A.15.15,0,0,0,18,31c.07,0,.13-.07.21-.1a.16.16,0,0,1,.2.06s0,.07,0,.11.19.14.28.07a.41.41,0,0,0,.14-.31.87.87,0,0,0,0-.36.31.31,0,0,1,0-.19.32.32,0,0,1,.12-.14s.08,0,.11,0,0,.06,0,.09a5.94,5.94,0,0,1-.08.71.58.58,0,0,1-.19.35.85.85,0,0,1-.35.11.23.23,0,0,1-.18,0,.18.18,0,0,1-.06-.09.31.31,0,0,0-.07-.09.19.19,0,0,0-.15,0,.8.8,0,0,0-.15,0c-.08,0-.23.09-.3,0a.11.11,0,0,1,0-.08V31a.13.13,0,0,0-.08-.08.25.25,0,0,0-.17,0c-.09,0-.19,0-.24-.05s0-.08-.07-.12a.22.22,0,0,0-.16,0,3.21,3.21,0,0,1-.82-.15.78.78,0,0,1-.34-.17c-.07-.07-.11-.17-.2-.22a.71.71,0,0,0-.21,0,1,1,0,0,1-.28-.12.67.67,0,0,1-.25-.19A.29.29,0,0,1,14.66,29.47Z"/><path class="cls-1" d="M19.47,31.27s0-.05,0-.07v-.15a.57.57,0,0,0,0-.13v-.14l0-.41a.49.49,0,0,1,0-.12.24.24,0,0,1,.11-.09l.05,0s.05,0,.06.06a.14.14,0,0,1,0,.09l0,.23v.07c0,.16,0,.33-.07.5a.13.13,0,0,1,0,.06.51.51,0,0,1-.1.21s-.05.07-.07,0S19.47,31.3,19.47,31.27Z"/><path class="cls-1" d="M18.71,31.6h-.06s0,0,0,.06l0,0a.37.37,0,0,0,.15,0l.61,0,.16,0a1,1,0,0,0,.27-.09.45.45,0,0,0,.2-.12.41.41,0,0,0,.05-.09l.08-.14a1.42,1.42,0,0,0,.08-.18.34.34,0,0,0,0-.2l0,0h0a.37.37,0,0,0-.15,0A.1.1,0,0,0,20,31a.17.17,0,0,0,0,.14,1.09,1.09,0,0,1,0,.18.27.27,0,0,1-.05.18.42.42,0,0,1-.14.09l-.13.05h-.12c-.1,0-.19,0-.28,0a1.67,1.67,0,0,0-.32,0Z"/><path class="cls-1" d="M20.46,31a.31.31,0,0,0,0-.1v-.27a.13.13,0,0,0,0-.06.43.43,0,0,0,0-.07.21.21,0,0,1,0-.16v0l0,0,.08-.08s.06,0,.09,0a.07.07,0,0,1,0,.05.13.13,0,0,1,0,.06c0,.14,0,.27,0,.41a3.33,3.33,0,0,1,0,.55.66.66,0,0,1,0,.15s0,.12-.08.13,0-.09,0-.12a1.21,1.21,0,0,0,0-.19Z"/><path class="cls-1" d="M21.29,31.31a.19.19,0,0,0,.1-.13.22.22,0,0,0,0-.11.44.44,0,0,0-.23-.27s-.09,0-.11-.06a.11.11,0,0,1,0-.11.86.86,0,0,1,.07-.1.24.24,0,0,1,.08-.06.15.15,0,0,1,.13,0,.52.52,0,0,1,.1.11l.08.09a.67.67,0,0,1,.12.39.49.49,0,0,1,0,.12.75.75,0,0,1-.07.12l-.1.12a.39.39,0,0,1-.1.08l-.11,0a.53.53,0,0,0-.17.08c-.07,0-.15.11-.24.1a.21.21,0,0,1,0-.11l.06-.09s0-.07.05-.1a.15.15,0,0,1,.14-.06A.8.8,0,0,0,21.29,31.31Z"/><path class="cls-1" d="M22.62,30.72a.33.33,0,0,0,0,.32.42.42,0,0,0,.33.13,1.51,1.51,0,0,0,.78-.17,1.46,1.46,0,0,0,.57-.56.47.47,0,0,0,.06-.2.17.17,0,0,0-.09-.17c-.07,0-.18,0-.23-.08a.25.25,0,0,1,0-.17,2,2,0,0,0,0-.25.23.23,0,0,0,0-.11.08.08,0,0,0-.09-.05.13.13,0,0,0-.07.06.35.35,0,0,0-.07.12c0,.09,0,.18.05.27a.25.25,0,0,1-.06.2,1.85,1.85,0,0,1-.14.14.17.17,0,0,0-.06.18.14.14,0,0,0,.15,0l.11-.1a.21.21,0,0,1,.26.08.27.27,0,0,1,0,.23.52.52,0,0,1-.17.16,1.67,1.67,0,0,1-.78.28.45.45,0,0,1-.2,0,.23.23,0,0,1-.14-.13.35.35,0,0,1,0-.2s0-.25-.06-.16A.89.89,0,0,0,22.62,30.72Z"/><path class="cls-1" d="M23.44,29.62h0a0,0,0,0,0,0,0,.07.07,0,0,0,.06,0l0,0s.05-.09,0-.1S23.44,29.56,23.44,29.62Z"/><path class="cls-1" d="M23.29,31.33h0a.05.05,0,0,0,0,0h0a.11.11,0,0,0,.08,0s0-.11,0-.13S23.29,31.28,23.29,31.33Z"/><path class="cls-1" d="M23.66,31.22s0,0,0,0a.09.09,0,0,0,.07,0,.07.07,0,0,0,0,0,.06.06,0,0,0,0,0v0a.1.1,0,0,0-.1-.05S23.64,31.18,23.66,31.22Z"/><path class="cls-1" d="M25.69,28.85a.59.59,0,0,0,0-.23.26.26,0,0,0-.14-.17.28.28,0,0,0-.28,0,.44.44,0,0,0-.14.25,1.37,1.37,0,0,0,0,.29.21.21,0,0,0,.07.18.19.19,0,0,0,.15,0,.79.79,0,0,0,.22-.06.73.73,0,0,1-.08.38,1.91,1.91,0,0,1-.24.32.86.86,0,0,0-.14.13l-.14.12-.25.2s-.06.06-.05.09a.11.11,0,0,0,.08,0,1.13,1.13,0,0,0,.53-.3,2.81,2.81,0,0,0,.35-.5.69.69,0,0,0,.1-.19.85.85,0,0,0,0-.23C25.7,29.09,25.7,29,25.69,28.85Zm-.21,0a.21.21,0,0,1-.07.13s0,0,0,0a.12.12,0,0,1-.14-.06.3.3,0,0,1,0-.1c0-.07.06-.21.17-.18s0,0,.06.05A.32.32,0,0,1,25.48,28.84Z"/><path class="cls-1" d="M26.55,28.81a.1.1,0,0,0,.05,0h0a.07.07,0,0,0,0-.14A.08.08,0,0,0,26.55,28.81Z"/><path class="cls-1" d="M25.79,29.6a.91.91,0,0,0,.11-.16,1.2,1.2,0,0,0,.07-.6.46.46,0,0,1,.06-.28.51.51,0,0,1,.2-.12,1.19,1.19,0,0,0,.42-.28s.05,0,.07,0,0,0,0,.05a.3.3,0,0,1-.1.19,2.76,2.76,0,0,1-.39.28.16.16,0,0,0-.09.09.13.13,0,0,0,0,.06,1.93,1.93,0,0,0,0,.24v.19a.84.84,0,0,1-.48.73.07.07,0,0,1-.07,0c-.09,0,0-.13.05-.16Z"/></g></g></svg>