<svg xmlns="http://www.w3.org/2000/svg" viewBox="0 0 40.5 40.5"><defs><style>.cls-1{fill:#75aadb;}.cls-2{fill:#fff;}</style></defs><g id="Ebene_2" data-name="Ebene 2"><g id="Ńëîé_1" data-name="Ńëîé 1"><path class="cls-1" d="M40.5,20.25a19.53,19.53,0,0,1-.28,3.36c-.1.57-.22,1.14-.35,1.69a20.26,20.26,0,0,1-39.24,0C.5,24.75.38,24.18.28,23.61a20.3,20.3,0,0,1,0-6.72c.1-.57.22-1.14.35-1.69a20.26,20.26,0,0,1,39.24,0c.13.55.25,1.12.35,1.69A19.53,19.53,0,0,1,40.5,20.25Z"/><path class="cls-2" d="M40.5,20.25a19.53,19.53,0,0,1-.28,3.36c-.1.57-.22,1.14-.35,1.69H.63C.5,24.75.38,24.18.28,23.61a20.3,20.3,0,0,1,0-6.72c.1-.57.22-1.14.35-1.69H39.87c.13.55.25,1.12.35,1.69A19.53,19.53,0,0,1,40.5,20.25Z"/><path d="M40.5,20.25a19.53,19.53,0,0,1-.28,3.36H.28a20.3,20.3,0,0,1,0-6.72H40.22A19.53,19.53,0,0,1,40.5,20.25Z"/></g></g></svg>