<svg viewBox="0 0 40.5 40.5" xmlns="http://www.w3.org/2000/svg"><path d="m37.79 10.13h-35.08a20.36 20.36 0 0 1 12.48-9.5 20.64 20.64 0 0 1 10.12 0 20.36 20.36 0 0 1 12.48 9.5z" fill="#003082"/><path d="m40.5 20.25h-40.5a20.14 20.14 0 0 1 2.71-10.12h35.08a20.14 20.14 0 0 1 2.71 10.12z" fill="#fff"/><path d="m40.5 20.25a20.21 20.21 0 0 1 -2.71 10.13h-35.08a20.21 20.21 0 0 1 -2.71-10.13z" fill="#289728"/><path d="m37.79 30.38a20.38 20.38 0 0 1 -12.48 9.49 20.64 20.64 0 0 1 -10.12 0 20.38 20.38 0 0 1 -12.48-9.49z" fill="#ffce00"/><path d="m10.81 2.76.79 2.42h2.54l-2.06 1.49.79 2.43-2.06-1.5-2.06 1.5.79-2.43-2.06-1.49h2.54z" fill="#ffce00"/><path d="m25.31.63v39.24a20.64 20.64 0 0 1 -10.12 0v-39.24a20.64 20.64 0 0 1 10.12 0z" fill="#d21034"/></svg>