<svg xmlns="http://www.w3.org/2000/svg" viewBox="0 0 40.5 40.5"><defs><style>.cls-1{fill:#003082;}.cls-2{fill:#fff;}.cls-3{fill:#289728;}.cls-4{fill:#ffce00;}.cls-5{fill:#d21034;}</style></defs><g id="Ebene_2" data-name="Ebene 2"><g id="Ńëîé_1" data-name="Ńëîé 1"><path class="cls-1" d="M37.79,10.13H2.71A20.36,20.36,0,0,1,15.19.63a20.64,20.64,0,0,1,10.12,0A20.36,20.36,0,0,1,37.79,10.13Z"/><path class="cls-2" d="M40.5,20.25H0A20.14,20.14,0,0,1,2.71,10.13H37.79A20.14,20.14,0,0,1,40.5,20.25Z"/><path class="cls-3" d="M40.5,20.25a20.21,20.21,0,0,1-2.71,10.13H2.71A20.21,20.21,0,0,1,0,20.25Z"/><path class="cls-4" d="M37.79,30.38a20.38,20.38,0,0,1-12.48,9.49,20.64,20.64,0,0,1-10.12,0A20.38,20.38,0,0,1,2.71,30.38Z"/><polygon class="cls-4" points="10.81 2.76 11.6 5.18 14.14 5.18 12.08 6.67 12.87 9.1 10.81 7.6 8.75 9.1 9.54 6.67 7.48 5.18 10.02 5.18 10.81 2.76"/><path class="cls-5" d="M25.31.63V39.87a20.64,20.64,0,0,1-10.12,0V.63a20.64,20.64,0,0,1,10.12,0Z"/></g></g></svg>