<svg xmlns="http://www.w3.org/2000/svg" viewBox="0 0 40.5 40.5"><defs><style>.cls-1{fill:#fff;}.cls-2{fill:red;}</style></defs><g id="Ebene_2" data-name="Ebene 2"><g id="Ńëîé_1" data-name="Ńëîé 1"><path class="cls-1" d="M30.38,2.71V37.79a20.27,20.27,0,0,1-20.25,0V2.71a20.27,20.27,0,0,1,20.25,0Z"/><path class="cls-2" d="M24.38,23.7l3.8-3.08-.82-.38a.36.36,0,0,1-.2-.43l.69-2.46-2.22.47a.33.33,0,0,1-.38-.23l-.29-1-1.83,2a.31.31,0,0,1-.54-.26l.77-4.2-1.17.59a.41.41,0,0,1-.54-.17L20.25,12l-1.4,2.58a.41.41,0,0,1-.54.17l-1.17-.59.77,4.2a.31.31,0,0,1-.54.26l-1.83-2-.29,1a.33.33,0,0,1-.38.23l-2.22-.47.69,2.46a.36.36,0,0,1-.2.43l-.82.38,3.8,3.08a.52.52,0,0,1,.17.57l-.33,1,3.69-.51a.34.34,0,0,1,.39.35l-.11,4h.64l-.11-4a.34.34,0,0,1,.39-.35l3.69.51-.33-1A.52.52,0,0,1,24.38,23.7Z"/><path class="cls-2" d="M10.13,2.71V37.79a20.25,20.25,0,0,1,0-35.08Z"/><path class="cls-2" d="M40.5,20.25A20.28,20.28,0,0,1,30.38,37.79V2.71A20.28,20.28,0,0,1,40.5,20.25Z"/></g></g></svg>