<svg viewBox="0 0 40.5 40.5" xmlns="http://www.w3.org/2000/svg"><circle cx="20.25" cy="20.25" fill="#de2910" r="20.25"/><g fill="#ffde00"><path d="m22.04 2.96-.13 1.43 1.31.56-1.4.32-.13 1.42-.73-1.23-1.39.32.94-1.08-.73-1.22 1.31.56z"/><path d="m21.96 17.09-.06 1.43 1.34.5-1.38.39-.06 1.43-.79-1.2-1.38.39.89-1.12-.79-1.19 1.34.5z"/><path d="m26.73 7.46-.67 1.26.99 1.03-1.41-.25-.67 1.26-.2-1.41-1.41-.25 1.29-.63-.2-1.42.99 1.03z"/><path d="m27.17 14.21-1.13.88.49 1.35-1.19-.81-1.13.88.4-1.37-1.18-.8 1.43-.05.39-1.38.49 1.35z"/><path d="m11.12 4.83 1.34 4.15h4.37l-3.53 2.57 1.35 4.16-3.53-2.57-3.54 2.57 1.35-4.16-3.53-2.57h4.37z"/></g></svg>