<svg xmlns="http://www.w3.org/2000/svg" viewBox="0 0 40.5 40.5"><defs><style>.cls-1{fill:#007a5e;}.cls-2{fill:#ce1126;}.cls-3{fill:#fcd116;}</style></defs><g id="Ebene_2" data-name="Ebene 2"><g id="Ńëîé_1" data-name="Ńëîé 1"><path class="cls-1" d="M13.5,1.16V39.34a20.25,20.25,0,0,1,0-38.18Z"/><path class="cls-2" d="M27,1.16V39.34a20.22,20.22,0,0,1-13.5,0V1.16a20.22,20.22,0,0,1,13.5,0Z"/><path class="cls-3" d="M40.5,20.25A20.24,20.24,0,0,1,27,39.34V1.16A20.24,20.24,0,0,1,40.5,20.25Z"/><polygon class="cls-3" points="20.25 16.7 21.05 19.15 23.62 19.15 21.54 20.67 22.34 23.12 20.25 21.61 18.16 23.12 18.96 20.67 16.88 19.15 19.45 19.15 20.25 16.7"/></g></g></svg>