<svg xmlns="http://www.w3.org/2000/svg" viewBox="0 0 40.5 40.5"><defs><style>.cls-1{fill:#009543;}.cls-2{fill:#dc241f;}.cls-3{fill:#ed2939;}.cls-4{fill:#fbde4a;}</style></defs><g id="Ebene_2" data-name="Ebene 2"><g id="Ńëîé_1" data-name="Ńëîé 1"><path class="cls-1" d="M28.58,1.8,1.8,28.58A19.84,19.84,0,0,1,0,20.25,20.25,20.25,0,0,1,20.25,0,19.84,19.84,0,0,1,28.58,1.8Z"/><path class="cls-2" d="M40.5,20.25A20.25,20.25,0,0,1,20.25,40.5a19.84,19.84,0,0,1-8.33-1.8L38.7,11.92A19.84,19.84,0,0,1,40.5,20.25Z"/><path class="cls-3" d="M38.7,11.92,11.92,38.7A20.28,20.28,0,0,1,1.8,28.58L28.58,1.8A20.28,20.28,0,0,1,38.7,11.92Z"/><path class="cls-4" d="M38.7,11.92,11.92,38.7A20.28,20.28,0,0,1,1.8,28.58L28.58,1.8A20.28,20.28,0,0,1,38.7,11.92Z"/></g></g></svg>