<svg viewBox="0 0 40.5 40.5" xmlns="http://www.w3.org/2000/svg"><path d="m28.58 1.8-26.78 26.78a19.84 19.84 0 0 1 -1.8-8.33 20.25 20.25 0 0 1 20.25-20.25 19.84 19.84 0 0 1 8.33 1.8z" fill="#009543"/><path d="m40.5 20.25a20.25 20.25 0 0 1 -20.25 20.25 19.84 19.84 0 0 1 -8.33-1.8l26.78-26.78a19.84 19.84 0 0 1 1.8 8.33z" fill="#dc241f"/><path d="m38.7 11.92-26.78 26.78a20.28 20.28 0 0 1 -10.12-10.12l26.78-26.78a20.28 20.28 0 0 1 10.12 10.12z" fill="#ed2939"/><path d="m38.7 11.92-26.78 26.78a20.28 20.28 0 0 1 -10.12-10.12l26.78-26.78a20.28 20.28 0 0 1 10.12 10.12z" fill="#fbde4a"/></svg>