<svg xmlns="http://www.w3.org/2000/svg" viewBox="0 0 40.5 40.5"><defs><style>.cls-1{fill:#ffc61e;}.cls-2{fill:#fff;}.cls-3{fill:#ce1126;}.cls-4{fill:#3a75c4;}.cls-5{fill:#3d8e33;}</style></defs><g id="Ebene_2" data-name="Ebene 2"><g id="Ńëîé_1" data-name="Ńëîé 1"><path class="cls-1" d="M37.79,10.13H2.71a19.81,19.81,0,0,1,2-2.85,20.22,20.22,0,0,1,33.06,2.85Z"/><path class="cls-2" d="M40.5,20.25H0A20.14,20.14,0,0,1,2.71,10.13H37.79A20.14,20.14,0,0,1,40.5,20.25Z"/><path class="cls-3" d="M40.5,20.25a20.21,20.21,0,0,1-2.71,10.13H2.71A20.21,20.21,0,0,1,0,20.25Z"/><path class="cls-4" d="M37.79,30.38a20.36,20.36,0,0,1-35.08,0Z"/><path class="cls-5" d="M26.35,20.25,9.48,30.38,4.73,33.22a20.19,20.19,0,0,1-2-23.09,19.81,19.81,0,0,1,2-2.85l4.75,2.85Z"/><path class="cls-2" d="M4.65,20.25a7.54,7.54,0,0,1,5.87-7.35,7.63,7.63,0,0,0-1.67-.19,7.54,7.54,0,0,0,0,15.08,7.63,7.63,0,0,0,1.67-.19A7.54,7.54,0,0,1,4.65,20.25Z"/><polygon class="cls-2" points="10.52 13.48 10.83 14.42 11.82 14.42 11.02 15.01 11.32 15.95 10.52 15.37 9.72 15.95 10.02 15.01 9.22 14.42 10.21 14.42 10.52 13.48"/><polygon class="cls-2" points="10.52 17.08 10.83 18.02 11.82 18.02 11.02 18.61 11.32 19.55 10.52 18.97 9.72 19.55 10.02 18.61 9.22 18.02 10.21 18.02 10.52 17.08"/><polygon class="cls-2" points="10.52 20.68 10.83 21.62 11.82 21.62 11.02 22.2 11.32 23.14 10.52 22.56 9.72 23.14 10.02 22.2 9.22 21.62 10.21 21.62 10.52 20.68"/><polygon class="cls-2" points="10.52 24.28 10.83 25.22 11.82 25.22 11.02 25.8 11.32 26.75 10.52 26.16 9.72 26.75 10.02 25.8 9.22 25.22 10.21 25.22 10.52 24.28"/></g></g></svg>