<svg viewBox="0 0 40.5 40.5" xmlns="http://www.w3.org/2000/svg"><path d="m37.79 10.13h-35.08a19.81 19.81 0 0 1 2-2.85 20.22 20.22 0 0 1 33.06 2.85z" fill="#ffc61e"/><path d="m40.5 20.25h-40.5a20.14 20.14 0 0 1 2.71-10.12h35.08a20.14 20.14 0 0 1 2.71 10.12z" fill="#fff"/><path d="m40.5 20.25a20.21 20.21 0 0 1 -2.71 10.13h-35.08a20.21 20.21 0 0 1 -2.71-10.13z" fill="#ce1126"/><path d="m37.79 30.38a20.36 20.36 0 0 1 -35.08 0z" fill="#3a75c4"/><path d="m26.35 20.25-16.87 10.13-4.75 2.84a20.19 20.19 0 0 1 -2-23.09 19.81 19.81 0 0 1 2-2.85l4.75 2.85z" fill="#3d8e33"/><g fill="#fff"><path d="m4.65 20.25a7.54 7.54 0 0 1 5.87-7.35 7.63 7.63 0 0 0 -1.67-.19 7.54 7.54 0 0 0 0 15.08 7.63 7.63 0 0 0 1.67-.19 7.54 7.54 0 0 1 -5.87-7.35z"/><path d="m10.52 13.48.31.94h.99l-.8.59.3.94-.8-.58-.8.58.3-.94-.8-.59h.99z"/><path d="m10.52 17.08.31.94h.99l-.8.59.3.94-.8-.58-.8.58.3-.94-.8-.59h.99z"/><path d="m10.52 20.68.31.94h.99l-.8.58.3.94-.8-.58-.8.58.3-.94-.8-.58h.99z"/><path d="m10.52 24.28.31.94h.99l-.8.58.3.95-.8-.59-.8.59.3-.95-.8-.58h.99z"/></g></svg>