<svg xmlns="http://www.w3.org/2000/svg" viewBox="0 0 40.5 40.5"><defs><style>.cls-1{fill:#003893;}.cls-2{fill:#fff;}.cls-3{fill:#cf2027;}.cls-4{fill:#f7d116;}</style></defs><g id="Ebene_2" data-name="Ebene 2"><g id="Ńëîé_1" data-name="Ńëîé 1"><path class="cls-1" d="M40.5,20.25a19.85,19.85,0,0,1-.28,3.38A19,19,0,0,1,39.34,27a19.86,19.86,0,0,1-1.55,3.38,20.26,20.26,0,0,1-35.08,0A19.86,19.86,0,0,1,1.16,27a19,19,0,0,1-.88-3.37A19.85,19.85,0,0,1,0,20.25a20.25,20.25,0,0,1,40.5,0Z"/><path class="cls-2" d="M40.5,20.25a19.85,19.85,0,0,1-.28,3.38H.28A19.85,19.85,0,0,1,0,20.25Z"/><path class="cls-3" d="M40.22,23.63A19,19,0,0,1,39.34,27H1.16a19,19,0,0,1-.88-3.37Z"/><path class="cls-2" d="M39.34,27a19.86,19.86,0,0,1-1.55,3.38H2.71A19.86,19.86,0,0,1,1.16,27Z"/><polygon class="cls-4" points="15.33 13.17 15.78 14.56 17.25 14.56 16.06 15.42 16.52 16.82 15.33 15.96 14.14 16.82 14.6 15.42 13.41 14.56 14.88 14.56 15.33 13.17"/><polygon class="cls-4" points="15.33 33.42 15.78 34.81 17.25 34.81 16.06 35.67 16.52 37.07 15.33 36.21 14.14 37.07 14.6 35.67 13.41 34.81 14.88 34.81 15.33 33.42"/><polygon class="cls-4" points="21.27 15.08 21.72 16.48 23.19 16.48 22 17.34 22.46 18.73 21.27 17.87 20.09 18.73 20.54 17.34 19.35 16.48 20.82 16.48 21.27 15.08"/><polygon class="cls-4" points="24.96 20.16 25.41 21.56 26.88 21.56 25.69 22.42 26.14 23.81 24.96 22.95 23.77 23.81 24.23 22.42 23.04 21.56 24.5 21.56 24.96 20.16"/><polygon class="cls-4" points="24.96 26.41 25.41 27.81 26.88 27.81 25.69 28.67 26.14 30.06 24.96 29.2 23.77 30.06 24.23 28.67 23.04 27.81 24.5 27.81 24.96 26.41"/><polygon class="cls-4" points="21.27 31.47 21.72 32.86 23.19 32.86 22 33.72 22.46 35.12 21.27 34.26 20.09 35.12 20.54 33.72 19.35 32.86 20.82 32.86 21.27 31.47"/><polygon class="cls-4" points="9.39 15.08 8.94 16.48 7.47 16.48 8.66 17.34 8.21 18.73 9.39 17.87 10.58 18.73 10.12 17.34 11.31 16.48 9.84 16.48 9.39 15.08"/><polygon class="cls-4" points="5.7 20.16 5.25 21.56 3.79 21.56 4.97 22.42 4.52 23.81 5.7 22.95 6.89 23.81 6.44 22.42 7.62 21.56 6.16 21.56 5.7 20.16"/><polygon class="cls-4" points="5.7 26.41 5.25 27.81 3.79 27.81 4.97 28.67 4.52 30.06 5.7 29.2 6.89 30.06 6.44 28.67 7.62 27.81 6.16 27.81 5.7 26.41"/><polygon class="cls-4" points="9.39 31.47 8.94 32.86 7.47 32.86 8.66 33.72 8.21 35.12 9.39 34.26 10.58 35.12 10.12 33.72 11.31 32.86 9.84 32.86 9.39 31.47"/></g></g></svg>