<svg viewBox="0 0 40.5 40.5" xmlns="http://www.w3.org/2000/svg" xmlns:xlink="http://www.w3.org/1999/xlink"><radialGradient id="a" cx="11.81" cy="20.54" gradientUnits="userSpaceOnUse" r=".07"><stop offset="0" stop-color="#f0cd73"/><stop offset="1" stop-color="#dca842"/></radialGradient><radialGradient id="b" cx="11.97" cy="20.74" r=".12" xlink:href="#a"/><radialGradient id="c" cx="12.09" cy="21.02" r=".11" xlink:href="#a"/><radialGradient id="d" cx="12.11" cy="21.29" r=".11" xlink:href="#a"/><radialGradient id="e" cx="12.09" cy="21.57" r=".1" xlink:href="#a"/><radialGradient id="f" cx="12.05" cy="21.82" r=".1" xlink:href="#a"/><radialGradient id="g" cx="12" cy="22.03" r=".09" xlink:href="#a"/><radialGradient id="h" cx="11.95" cy="22.21" r=".08" xlink:href="#a"/><radialGradient id="i" cx="11.88" cy="22.37" r=".07" xlink:href="#a"/><radialGradient id="j" cx="11.81" cy="22.52" r=".06" xlink:href="#a"/><radialGradient id="k" cx="11.73" cy="22.65" r=".06" xlink:href="#a"/><radialGradient id="l" cx="11.65" cy="22.78" r=".05" xlink:href="#a"/><radialGradient id="m" cx="11.56" cy="22.88" r=".05" xlink:href="#a"/><radialGradient id="n" cx="11.47" cy="22.97" r=".04" xlink:href="#a"/><radialGradient id="o" cx="11.38" cy="23.06" r=".04" xlink:href="#a"/><radialGradient id="p" cx="11.28" cy="23.15" r=".03" xlink:href="#a"/><radialGradient id="q" cx="11.19" cy="23.22" r=".03" xlink:href="#a"/><radialGradient id="r" cx="11.12" cy="23.28" r=".03" xlink:href="#a"/><radialGradient id="s" cx="11.05" cy="23.33" r=".02" xlink:href="#a"/><radialGradient id="t" cx="10.93" cy="23.41" r=".01" xlink:href="#a"/><radialGradient id="u" cx="-197.96" cy="-257.27" gradientTransform="matrix(.99 .11 -.11 .99 179.41 299.01)" r=".12" xlink:href="#a"/><radialGradient id="v" cx="-197.81" cy="-257.01" gradientTransform="matrix(.99 .11 -.11 .99 179.41 299.01)" r=".11" xlink:href="#a"/><radialGradient id="w" cx="-197.76" cy="-256.74" gradientTransform="matrix(.99 .11 -.11 .99 179.41 299.01)" r=".11" xlink:href="#a"/><radialGradient id="x" cx="-197.76" cy="-256.45" gradientTransform="matrix(.99 .11 -.11 .99 179.41 299.01)" r=".1" xlink:href="#a"/><radialGradient id="y" cx="-197.77" cy="-256.2" gradientTransform="matrix(.99 .11 -.11 .99 179.41 299.01)" r=".1" xlink:href="#a"/><radialGradient id="z" cx="-197.82" cy="-255.95" gradientTransform="matrix(.99 .11 -.11 .99 179.41 299.01)" r=".09" xlink:href="#a"/><radialGradient id="A" cx="-197.89" cy="-255.73" gradientTransform="matrix(.99 .11 -.11 .99 179.41 299.01)" r=".08" xlink:href="#a"/><radialGradient id="B" cx="-197.97" cy="-255.55" gradientTransform="matrix(.99 .11 -.11 .99 179.41 299.01)" r=".07" xlink:href="#a"/><radialGradient id="C" cx="-198.05" cy="-255.4" gradientTransform="matrix(.99 .11 -.11 .99 179.41 299.01)" r=".06" xlink:href="#a"/><radialGradient id="D" cx="-198.13" cy="-255.25" gradientTransform="matrix(.99 .11 -.11 .99 179.41 299.01)" r=".06" xlink:href="#a"/><radialGradient id="E" cx="-198.22" cy="-255.09" gradientTransform="matrix(.99 .11 -.11 .99 179.41 299.01)" r=".05" xlink:href="#a"/><radialGradient id="F" cx="-198.3" cy="-254.98" gradientTransform="matrix(.99 .11 -.11 .99 179.41 299.01)" r=".05" xlink:href="#a"/><radialGradient id="G" cx="-198.4" cy="-254.87" gradientTransform="matrix(.99 .11 -.11 .99 179.41 299.01)" r=".04" xlink:href="#a"/><radialGradient id="H" cx="-198.49" cy="-254.77" gradientTransform="matrix(.99 .11 -.11 .99 179.41 299.01)" r=".04" xlink:href="#a"/><radialGradient id="I" cx="-198.59" cy="-254.68" gradientTransform="matrix(.99 .11 -.11 .99 179.41 299.01)" r=".03" xlink:href="#a"/><radialGradient id="J" cx="-198.67" cy="-254.6" gradientTransform="matrix(.99 .11 -.11 .99 179.41 299.01)" r=".03" xlink:href="#a"/><radialGradient id="K" cx="-198.75" cy="-254.54" gradientTransform="matrix(.99 .11 -.11 .99 179.41 299.01)" r=".03" xlink:href="#a"/><radialGradient id="L" cx="-198.81" cy="-254.49" gradientTransform="matrix(.99 .11 -.11 .99 179.41 299.01)" r=".02" xlink:href="#a"/><radialGradient id="M" cx="-198.93" cy="-254.4" gradientTransform="matrix(.99 .11 -.11 .99 179.41 299.01)" r=".01" xlink:href="#a"/><radialGradient id="N" cx="-465.27" cy="-533.05" gradientTransform="matrix(.97 .24 -.24 .97 336.83 649.62)" r=".12" xlink:href="#a"/><radialGradient id="O" cx="-465.08" cy="-532.81" gradientTransform="matrix(.97 .24 -.24 .97 336.83 649.62)" r=".11" xlink:href="#a"/><radialGradient id="P" cx="-465.01" cy="-532.54" gradientTransform="matrix(.97 .24 -.24 .97 336.83 649.62)" r=".11" xlink:href="#a"/><radialGradient id="Q" cx="-464.98" cy="-532.25" gradientTransform="matrix(.97 .24 -.24 .97 336.83 649.62)" r=".1" xlink:href="#a"/><radialGradient id="R" cx="-464.96" cy="-531.99" gradientTransform="matrix(.97 .24 -.24 .97 336.83 649.62)" r=".1" xlink:href="#a"/><radialGradient id="S" cx="-465.01" cy="-531.71" gradientTransform="matrix(.97 .24 -.24 .97 336.83 649.62)" r=".09" xlink:href="#a"/><radialGradient id="T" cx="-465.07" cy="-531.46" gradientTransform="matrix(.97 .24 -.24 .97 336.83 649.62)" r=".08" xlink:href="#a"/><radialGradient id="U" cx="-465.12" cy="-531.26" gradientTransform="matrix(.97 .24 -.24 .97 336.83 649.62)" r=".07" xlink:href="#a"/><radialGradient id="V" cx="-465.22" cy="-531.05" gradientTransform="matrix(.97 .24 -.24 .97 336.83 649.62)" r=".06" xlink:href="#a"/><radialGradient id="W" cx="-465.29" cy="-530.88" gradientTransform="matrix(.97 .24 -.24 .97 336.83 649.62)" r=".06" xlink:href="#a"/><radialGradient id="X" cx="-465.38" cy="-530.73" gradientTransform="matrix(.97 .24 -.24 .97 336.83 649.62)" r=".05" xlink:href="#a"/><radialGradient id="Y" cx="-465.47" cy="-530.6" gradientTransform="matrix(.97 .24 -.24 .97 336.83 649.62)" r=".05" xlink:href="#a"/><radialGradient id="Z" cx="-465.57" cy="-530.48" gradientTransform="matrix(.97 .24 -.24 .97 336.83 649.62)" r=".04" xlink:href="#a"/><radialGradient id="aa" cx="-465.66" cy="-530.37" gradientTransform="matrix(.97 .24 -.24 .97 336.83 649.62)" r=".04" xlink:href="#a"/><radialGradient id="ab" cx="-465.76" cy="-530.27" gradientTransform="matrix(.97 .24 -.24 .97 336.83 649.62)" r=".03" xlink:href="#a"/><radialGradient id="ac" cx="-465.84" cy="-530.18" gradientTransform="matrix(.97 .24 -.24 .97 336.83 649.62)" r=".03" xlink:href="#a"/><radialGradient id="ad" cx="-465.92" cy="-530.12" gradientTransform="matrix(.97 .24 -.24 .97 336.83 649.62)" r=".03" xlink:href="#a"/><radialGradient id="ae" cx="-465.99" cy="-530.06" gradientTransform="matrix(.97 .24 -.24 .97 336.83 649.62)" r=".02" xlink:href="#a"/><radialGradient id="af" cx="226.56" cy="-1274.56" gradientTransform="matrix(.73 .18 -.18 .73 -381.06 907.57)" r=".02" xlink:href="#a"/><radialGradient id="ag" cx="226.49" cy="-1274.64" gradientTransform="matrix(.73 .18 -.18 .73 -381.06 907.57)" r=".02" xlink:href="#a"/><radialGradient id="ah" cx="226.42" cy="-1274.73" gradientTransform="matrix(.73 .18 -.18 .73 -381.06 907.57)" r=".02" xlink:href="#a"/><radialGradient id="ai" cx="-466.1" cy="-529.97" gradientTransform="matrix(.97 .24 -.24 .97 336.83 649.62)" r=".01" xlink:href="#a"/><radialGradient id="aj" cx="8.99" cy="24.52" r=".1" xlink:href="#a"/><radialGradient id="ak" cx="9.25" cy="24.52" r=".06" xlink:href="#a"/><radialGradient id="al" cx="8.75" cy="24.52" r=".06" xlink:href="#a"/><radialGradient id="am" cx="8.99" cy="24.29" r=".06" xlink:href="#a"/><radialGradient id="an" cx="8.99" cy="24.78" r=".06" xlink:href="#a"/><radialGradient id="ao" cx="-5136.34" cy="20.54" gradientTransform="matrix(-1 0 0 1 -5130.17 0)" r=".07" xlink:href="#a"/><radialGradient id="ap" cx="-5136.18" cy="20.74" gradientTransform="matrix(-1 0 0 1 -5130.17 0)" r=".12" xlink:href="#a"/><radialGradient id="aq" cx="-5136.06" cy="21.02" gradientTransform="matrix(-1 0 0 1 -5130.17 0)" r=".11" xlink:href="#a"/><radialGradient id="ar" cx="-5136.04" cy="21.29" gradientTransform="matrix(-1 0 0 1 -5130.17 0)" r=".11" xlink:href="#a"/><radialGradient id="as" cx="-5136.06" cy="21.57" gradientTransform="matrix(-1 0 0 1 -5130.17 0)" r=".1" xlink:href="#a"/><radialGradient id="at" cx="-5136.1" cy="21.82" gradientTransform="matrix(-1 0 0 1 -5130.17 0)" r=".1" xlink:href="#a"/><radialGradient id="au" cx="-5136.15" cy="22.03" gradientTransform="matrix(-1 0 0 1 -5130.17 0)" r=".09" xlink:href="#a"/><radialGradient id="av" cx="-5136.2" cy="22.21" gradientTransform="matrix(-1 0 0 1 -5130.17 0)" r=".08" xlink:href="#a"/><radialGradient id="aw" cx="-5136.27" cy="22.37" gradientTransform="matrix(-1 0 0 1 -5130.17 0)" r=".07" xlink:href="#a"/><radialGradient id="ax" cx="-5136.33" cy="22.52" gradientTransform="matrix(-1 0 0 1 -5130.17 0)" r=".06" xlink:href="#a"/><radialGradient id="ay" cx="-5136.42" cy="22.65" gradientTransform="matrix(-1 0 0 1 -5130.17 0)" r=".06" xlink:href="#a"/><radialGradient id="az" cx="-5136.5" cy="22.78" gradientTransform="matrix(-1 0 0 1 -5130.17 0)" r=".05" xlink:href="#a"/><radialGradient id="aA" cx="-5136.58" cy="22.88" gradientTransform="matrix(-1 0 0 1 -5130.17 0)" r=".05" xlink:href="#a"/><radialGradient id="aB" cx="-5136.68" cy="22.97" gradientTransform="matrix(-1 0 0 1 -5130.17 0)" r=".04" xlink:href="#a"/><radialGradient id="aC" cx="-5136.77" cy="23.06" gradientTransform="matrix(-1 0 0 1 -5130.17 0)" r=".04" xlink:href="#a"/><radialGradient id="aD" cx="-5136.87" cy="23.15" gradientTransform="matrix(-1 0 0 1 -5130.17 0)" r=".03" xlink:href="#a"/><radialGradient id="aE" cx="-5136.95" cy="23.22" gradientTransform="matrix(-1 0 0 1 -5130.17 0)" r=".03" xlink:href="#a"/><radialGradient id="aF" cx="-5137.03" cy="23.28" gradientTransform="matrix(-1 0 0 1 -5130.17 0)" r=".03" xlink:href="#a"/><radialGradient id="aG" cx="-5137.09" cy="23.33" gradientTransform="matrix(-1 0 0 1 -5130.17 0)" r=".02" xlink:href="#a"/><radialGradient id="aH" cx="-5137.21" cy="23.41" gradientTransform="matrix(-1 0 0 1 -5130.17 0)" r=".01" xlink:href="#a"/><radialGradient id="aI" cx="-5312.13" cy="333.22" gradientTransform="matrix(-.99 .11 .11 .99 -5309.58 299.01)" r=".12" xlink:href="#a"/><radialGradient id="aJ" cx="-5311.98" cy="333.48" gradientTransform="matrix(-.99 .11 .11 .99 -5309.58 299.01)" r=".11" xlink:href="#a"/><radialGradient id="aK" cx="-5311.93" cy="333.75" gradientTransform="matrix(-.99 .11 .11 .99 -5309.58 299.01)" r=".11" xlink:href="#a"/><radialGradient id="aL" cx="-5311.94" cy="334.05" gradientTransform="matrix(-.99 .11 .11 .99 -5309.58 299.01)" r=".1" xlink:href="#a"/><radialGradient id="aM" cx="-5311.94" cy="334.3" gradientTransform="matrix(-.99 .11 .11 .99 -5309.58 299.01)" r=".1" xlink:href="#a"/><radialGradient id="aN" cx="-5312" cy="334.54" gradientTransform="matrix(-.99 .11 .11 .99 -5309.58 299.01)" r=".09" xlink:href="#a"/><radialGradient id="aO" cx="-5312.06" cy="334.76" gradientTransform="matrix(-.99 .11 .11 .99 -5309.58 299.01)" r=".08" xlink:href="#a"/><radialGradient id="aP" cx="-5312.14" cy="334.94" gradientTransform="matrix(-.99 .11 .11 .99 -5309.58 299.01)" r=".07" xlink:href="#a"/><radialGradient id="aQ" cx="-5312.22" cy="335.09" gradientTransform="matrix(-.99 .11 .11 .99 -5309.58 299.01)" r=".06" xlink:href="#a"/><radialGradient id="aR" cx="-5312.3" cy="335.25" gradientTransform="matrix(-.99 .11 .11 .99 -5309.58 299.01)" r=".06" xlink:href="#a"/><radialGradient id="aS" cx="-5312.39" cy="335.4" gradientTransform="matrix(-.99 .11 .11 .99 -5309.58 299.01)" r=".05" xlink:href="#a"/><radialGradient id="aT" cx="-5312.47" cy="335.51" gradientTransform="matrix(-.99 .11 .11 .99 -5309.58 299.01)" r=".05" xlink:href="#a"/><radialGradient id="aU" cx="-5312.57" cy="335.62" gradientTransform="matrix(-.99 .11 .11 .99 -5309.58 299.01)" r=".04" xlink:href="#a"/><radialGradient id="aV" cx="-5312.66" cy="335.72" gradientTransform="matrix(-.99 .11 .11 .99 -5309.58 299.01)" r=".04" xlink:href="#a"/><radialGradient id="aW" cx="-5312.76" cy="335.81" gradientTransform="matrix(-.99 .11 .11 .99 -5309.58 299.01)" r=".03" xlink:href="#a"/><radialGradient id="aX" cx="-5312.84" cy="335.89" gradientTransform="matrix(-.99 .11 .11 .99 -5309.58 299.01)" r=".03" xlink:href="#a"/><radialGradient id="aY" cx="-5312.92" cy="335.95" gradientTransform="matrix(-.99 .11 .11 .99 -5309.58 299.01)" r=".03" xlink:href="#a"/><radialGradient id="aZ" cx="-5312.98" cy="336.01" gradientTransform="matrix(-.99 .11 .11 .99 -5309.58 299.01)" r=".02" xlink:href="#a"/><radialGradient id="a0" cx="-5313.1" cy="336.09" gradientTransform="matrix(-.99 .11 .11 .99 -5309.58 299.01)" r=".01" xlink:href="#a"/><radialGradient id="a1" cx="-5463.83" cy="698.32" gradientTransform="matrix(-.97 .24 .24 .97 -5466.99 649.62)" r=".12" xlink:href="#a"/><radialGradient id="a2" cx="-5463.64" cy="698.56" gradientTransform="matrix(-.97 .24 .24 .97 -5466.99 649.62)" r=".11" xlink:href="#a"/><radialGradient id="a3" cx="-5463.57" cy="698.82" gradientTransform="matrix(-.97 .24 .24 .97 -5466.99 649.62)" r=".11" xlink:href="#a"/><radialGradient id="a4" cx="-5463.54" cy="699.11" gradientTransform="matrix(-.97 .24 .24 .97 -5466.99 649.62)" r=".1" xlink:href="#a"/><radialGradient id="a5" cx="-5463.52" cy="699.38" gradientTransform="matrix(-.97 .24 .24 .97 -5466.99 649.62)" r=".1" xlink:href="#a"/><radialGradient id="a6" cx="-5463.57" cy="699.65" gradientTransform="matrix(-.97 .24 .24 .97 -5466.99 649.62)" r=".09" xlink:href="#a"/><radialGradient id="a7" cx="-5463.63" cy="699.9" gradientTransform="matrix(-.97 .24 .24 .97 -5466.99 649.62)" r=".08" xlink:href="#a"/><radialGradient id="a8" cx="-5463.68" cy="700.11" gradientTransform="matrix(-.97 .24 .24 .97 -5466.99 649.62)" r=".07" xlink:href="#a"/><radialGradient id="a9" cx="-5463.78" cy="700.31" gradientTransform="matrix(-.97 .24 .24 .97 -5466.99 649.62)" r=".06" xlink:href="#a"/><radialGradient id="ba" cx="-5463.85" cy="700.49" gradientTransform="matrix(-.97 .24 .24 .97 -5466.99 649.62)" r=".06" xlink:href="#a"/><radialGradient id="bb" cx="-5463.94" cy="700.63" gradientTransform="matrix(-.97 .24 .24 .97 -5466.99 649.62)" r=".05" xlink:href="#a"/><radialGradient id="bc" cx="-5464.03" cy="700.77" gradientTransform="matrix(-.97 .24 .24 .97 -5466.99 649.62)" r=".05" xlink:href="#a"/><radialGradient id="bd" cx="-5464.13" cy="700.88" gradientTransform="matrix(-.97 .24 .24 .97 -5466.99 649.62)" r=".04" xlink:href="#a"/><radialGradient id="be" cx="-5464.22" cy="701" gradientTransform="matrix(-.97 .24 .24 .97 -5466.99 649.62)" r=".04" xlink:href="#a"/><radialGradient id="bf" cx="-5464.32" cy="701.1" gradientTransform="matrix(-.97 .24 .24 .97 -5466.99 649.62)" r=".03" xlink:href="#a"/><radialGradient id="bg" cx="-5464.4" cy="701.18" gradientTransform="matrix(-.97 .24 .24 .97 -5466.99 649.62)" r=".03" xlink:href="#a"/><radialGradient id="bh" cx="-5464.48" cy="701.25" gradientTransform="matrix(-.97 .24 .24 .97 -5466.99 649.62)" r=".03" xlink:href="#a"/><radialGradient id="bi" cx="-5464.55" cy="701.31" gradientTransform="matrix(-.97 .24 .24 .97 -5466.99 649.62)" r=".02" xlink:href="#a"/><radialGradient id="bj" cx="-6465.39" cy="374.06" gradientTransform="matrix(-.73 .18 .18 .73 -4749.1 907.57)" r=".02" xlink:href="#a"/><radialGradient id="bk" cx="-5464.67" cy="701.39" gradientTransform="matrix(-.97 .24 .24 .97 -5466.99 649.62)" r=".01" xlink:href="#a"/><radialGradient id="bl" cx="221.21" cy="-1273.43" gradientTransform="matrix(.73 .18 -.18 .73 -381.06 907.57)" r=".02" xlink:href="#a"/><radialGradient id="bm" cx="221.18" cy="-1273.33" gradientTransform="matrix(.73 .18 -.18 .73 -381.06 907.57)" r=".02" xlink:href="#a"/><path d="m40.5 20.25a20.08 20.08 0 0 1 -1.16 6.75h-38.18a20.25 20.25 0 0 1 0-13.51h38.18a20.19 20.19 0 0 1 1.16 6.76z" fill="#ce1126"/><ellipse cx="9" cy="20.24" fill="#fff" rx="5.05" ry="5.9"/><path d="m6.43 20.57.04-1.11-.23-.86.94-.65 1.2-.41 1.33.03.88.25.66.5.54.19-.25.78.07.75.18.71-2.94.22z" fill="#89c5e3"/><path d="m7.5 20.15s0 0 0 0l.25-.35-.31.29.23-.56-.35.47h-.05l.08-.52-.13.51-.06-.51v.51h-.16l-.18-.51.18.52-.19-.25.12.3-.22-.05.08.13h-.11l.06.07a.51.51 0 0 0 0 .13.41.41 0 0 0 .41.41.41.41 0 0 0 .42-.41.31.31 0 0 0 0-.13l.11-.13z" fill="#fcdd09"/><path d="m6.47 20.34h5.22l.74.95-.52 1.62-2.15 1.27-.79.34-1.2-.39-1.63-1.18-.43-1.96z" fill="#0f47af"/><path d="m11.87 21.68a.47.47 0 0 1 -.28.09c-1.3.07-2.62-.33-3.9-.08a5.58 5.58 0 0 1 -1.47 0c0-.06-.09-.13-.06-.19a.17.17 0 0 1 .06-.06c.16-.11.37-.14.52-.25s.11-.09.18-.13a.23.23 0 0 1 .21-.06 2.55 2.55 0 0 1 .4-.48 1.65 1.65 0 0 0 .24-.52c0-.13.09-.26.13-.4a.2.2 0 0 1 .1-.2.13.13 0 0 1 .13.07.41.41 0 0 1 0 .09v.17a2 2 0 0 0 .15.29c0 .09.08.19.13.29a2.75 2.75 0 0 0 .39.63s0 0 0 0a1.17 1.17 0 0 1 .24-.21c.05 0 .07-.06.1-.11l.12-.14a.18.18 0 0 0 .07-.08.2.2 0 0 0 0-.11.82.82 0 0 1 .09-.19 1 1 0 0 0 .08-.35c0-.08.09-.13.14-.2a.13.13 0 0 1 .05-.07.12.12 0 0 1 .08 0 .14.14 0 0 1 0 .09c0 .13.07.26.11.39a1.73 1.73 0 0 0 .11.32 2.31 2.31 0 0 0 .27.42v-.1a.86.86 0 0 1 0-.17c0-.07.09-.13.12-.2s0-.19.07-.28 0-.05 0-.08a.25.25 0 0 1 0-.11s0 0 0 0a.09.09 0 0 1 .07 0v.06.07a.57.57 0 0 1 0 .14 1.88 1.88 0 0 0 .14.42 1.81 1.81 0 0 0 .28.33 1.91 1.91 0 0 1 .41.49v.06a.36.36 0 0 1 .52.35z" fill="#509164"/><path d="m11.91 21.52a.16.16 0 0 1 -.11.14.4.4 0 0 1 -.19 0l-3.82-.23a1 1 0 0 1 -.43-.09.22.22 0 0 1 0-.22.21.21 0 0 1 .21-.07h.08a.1.1 0 0 0 .1-.05.31.31 0 0 0 0-.12s.06 0 .08 0 0 .06.06.08.08 0 .07 0 0 0 0 0 0-.1.06-.1a.19.19 0 0 1 .12.07.27.27 0 0 0 .11.1.08.08 0 0 0 .11 0s0-.08-.06-.1-.08 0-.09-.08a.18.18 0 0 1 0-.12s0-.1 0-.11h.13a.45.45 0 0 0 -.1-.14s.09 0 .1-.05a.21.21 0 0 0 0-.13l-.2-.3a.14.14 0 0 1 0-.11s.07 0 .08 0 0-.12 0-.18a.12.12 0 0 1 0-.14v.17a2 2 0 0 0 .15.29c0 .09.08.19.13.29a2.75 2.75 0 0 0 .39.63s0 0 0 0l.11.05a.53.53 0 0 0 .17.08 1.11 1.11 0 0 0 .25.05h.06a0 0 0 0 1 0 .06s0 0-.05 0a.81.81 0 0 1 -.39-.1.83.83 0 0 1 -.39-.27c0-.05-.05-.11-.08-.17a.88.88 0 0 0 -.05-.15.25.25 0 0 0 0-.07.08.08 0 0 0 -.08 0c-.05 0 0 .1 0 .14l.11.11v.22a.31.31 0 0 0 .2.17l.28.12a1.15 1.15 0 0 0 .31.11.6.6 0 0 0 .44-.12l-.1-.05a.14.14 0 0 1 0-.11s0 0 .06-.07a.06.06 0 0 0 0-.08.12.12 0 0 1 .13.09c0-.13.14-.26.27-.25v-.15s.08 0 .1.05.05.08.09.07 0-.1 0-.14-.11-.06-.11-.12a.12.12 0 0 1 -.15-.05.14.14 0 0 0 0-.21h-.15a.22.22 0 0 0 0-.19h.12a.74.74 0 0 1 -.12-.48.14.14 0 0 1 0 .09c0 .13.07.26.11.39a1.73 1.73 0 0 0 .11.32 2.31 2.31 0 0 0 .27.42 1 1 0 0 0 .54.45 5 5 0 0 0 .69.17c.15.05.26.09.27.19z" fill="#034418"/><path d="m11.48 20.74a1.81 1.81 0 0 1 -.28-.33 1.88 1.88 0 0 1 -.14-.42 1.52 1.52 0 0 0 -.06-.2.12.12 0 0 0 0 .08.5.5 0 0 0 0 .13.28.28 0 0 1 0 .13.76.76 0 0 0 0 .15.23.23 0 0 0 .08.12.13.13 0 0 1 .05.12c0 .05-.06.08-.06.13a.29.29 0 0 0 0 .1.24.24 0 0 1 0 .09.45.45 0 0 1 0 .11c0 .07-.06.13 0 .19s.09.08.15.09l.5.12a.4.4 0 0 0 .11 0 .12.12 0 0 0 .05-.1 1.91 1.91 0 0 0 -.4-.51zm-.05.44a0 0 0 0 1 0 0s0 0 0 0c-.05 0-.14-.1-.08-.15s.06 0 .09 0 0 0 .07.07-.07.05-.08.08zm.13-.1s0 0-.05 0a.13.13 0 0 0 -.09-.07c-.05 0 0-.09 0-.1a.1.1 0 0 1 .12.07.09.09 0 0 0 0 .05v.05s.04-.01.02 0z" fill="#034418"/><path d="m11.26 21.78a11.37 11.37 0 0 1 -1.26-.09 7.78 7.78 0 0 0 -2.26 0 3.36 3.36 0 0 1 -1.05 0h-.42s-.09-.12 0-.19 0-.05.06-.07a1.36 1.36 0 0 1 .25-.11 1.34 1.34 0 0 0 .27-.13l.08-.06-.02-.13a.29.29 0 0 1 .21 0 1.79 1.79 0 0 1 .25-.31l.15-.16a1.56 1.56 0 0 0 .25-.53c0-.13.08-.26.13-.4s0-.13.11-.15a.16.16 0 0 1 .15.06 1 1 0 0 1 0 .1s0 .05 0 .08a.29.29 0 0 0 0 .09 1.11 1.11 0 0 0 .09.19l.06.09c0 .07 0 .13.08.19a.36.36 0 0 0 0 .11 2.82 2.82 0 0 0 .39.62.82.82 0 0 1 .24-.2s.05-.05.08-.08a.81.81 0 0 1 .12-.14s0 0 .06-.07a.17.17 0 0 0 0-.07s0 0 0 0a.42.42 0 0 1 .06-.14.17.17 0 0 1 0-.05 1.13 1.13 0 0 0 .09-.35.34.34 0 0 1 .08-.14.18.18 0 0 0 0-.07s0-.05.06-.06a.11.11 0 0 1 .08 0 .25.25 0 0 1 0 .09c0 .13.07.26.11.39a1.73 1.73 0 0 0 .11.32 1.76 1.76 0 0 0 .27.42v-.05a.2.2 0 0 0 0-.09.5.5 0 0 1 0-.13.6.6 0 0 1 .06-.11.41.41 0 0 0 0-.09.74.74 0 0 0 0-.14.74.74 0 0 1 0-.14s0 0 0 0 0 0 0-.05a.27.27 0 0 1 0-.11s0 0 0 0 0 0 .07 0a.05.05 0 0 1 0 0v.06a.83.83 0 0 1 0 .15v.08a1.09 1.09 0 0 0 .13.34 1.44 1.44 0 0 0 .27.33 1.7 1.7 0 0 1 .36.45v.06a.37.37 0 0 1 -.05.4.54.54 0 0 1 -.28.08zm-2.61-.18a11.36 11.36 0 0 1 1.3.09 11.19 11.19 0 0 0 1.64.07.36.36 0 0 0 .27-.08.35.35 0 0 0 .05-.39s0 0 0-.06a1.73 1.73 0 0 0 -.37-.44 2.22 2.22 0 0 1 -.28-.33 1.12 1.12 0 0 1 -.12-.35v-.08s0-.1-.05-.14a.13.13 0 0 0 0-.07s0 0 0 0a.07.07 0 0 0 -.05 0 .42.42 0 0 0 0 .1.08.08 0 0 1 0 .05s0 0 0 0v.13a.57.57 0 0 1 0 .14.31.31 0 0 1 0 .1.21.21 0 0 0 -.06.1.31.31 0 0 0 0 .13.29.29 0 0 1 0 .1s0 0 0 0a2.31 2.31 0 0 1 -.27-.42 1.51 1.51 0 0 1 -.11-.32c0-.13-.07-.26-.11-.39a.36.36 0 0 0 0-.09.07.07 0 0 0 -.06 0 .09.09 0 0 0 -.06.06l-.06.07s-.07.08-.07.13a1.19 1.19 0 0 1 -.09.36v.05a.35.35 0 0 0 0 .13.08.08 0 0 0 0 0 .17.17 0 0 1 0 .07s0 .05-.06.08l-.13.15a.27.27 0 0 1 -.07.08.71.71 0 0 0 -.24.2s0 0 0 0a3.2 3.2 0 0 1 -.4-.63v-.1a1.08 1.08 0 0 0 -.87-.1l-.06-.1a1.11 1.11 0 0 1 -.09-.19.29.29 0 0 1 0-.09s0-.05 0-.08a.19.19 0 0 0 0-.09.14.14 0 0 0 -.23-.04c-.06 0-.09.08-.12.14s-.08.28-.12.4a1.67 1.67 0 0 1 -.25.54 1.22 1.22 0 0 1 -.15.17.93.93 0 0 0 -.25.31.27.27 0 0 0 -.21.05l-.1.07a.27.27 0 0 1 -.08.07 1.13 1.13 0 0 1 -.27.13 1 1 0 0 0 -.24.11l-.06.06v.18h.42a3.36 3.36 0 0 0 1.05 0 5.2 5.2 0 0 1 1.03-.04z"/><path d="m8.44 21.32a.14.14 0 0 1 -.11-.07 0 0 0 0 0 0 0 .26.26 0 0 0 -.09-.05h-.05-.08a.07.07 0 0 0 -.11-.14.17.17 0 0 0 -.1 0l-.17.08h-.06v.06s-.09 0-.14 0h-.16-.12-.15l-.23.07a1.66 1.66 0 0 0 -.31.12.28.28 0 0 1 -.13 0h-.1a.34.34 0 0 0 -.14 0 .2.2 0 0 0 -.08 0 .14.14 0 0 0 0 .14.65.65 0 0 0 .09.23h5.73a.35.35 0 0 0 -.15-.33.48.48 0 0 0 -.2-.07h-.21a.28.28 0 0 0 -.13 0 .14.14 0 0 0 -.11.06s0 0 0 0 0 0 0-.05a.13.13 0 0 0 -.16 0v-.06a.49.49 0 0 1 -.24-.14c-.07-.05-.14-.1-.21-.08s-.08.05-.12.07a.61.61 0 0 1 -.13 0h-.21a.09.09 0 0 0 -.11 0 .18.18 0 0 1 -.1 0s-.05 0-.08 0h-.07a.4.4 0 0 1 -.37 0h-.08a.4.4 0 0 0 -.19 0h-.34a.55.55 0 0 0 -.18 0 .29.29 0 0 1 -.1.16z" fill="#078930"/><path d="m11.91 21.93h-5.74a.76.76 0 0 1 -.08-.21.24.24 0 0 1 0-.14.18.18 0 0 1 .09 0 .32.32 0 0 1 .14 0h.1.11a2.85 2.85 0 0 1 .31-.12l.23-.07a.8.8 0 0 1 .15 0h.12.16s.11 0 .14 0 0 0 0 0 0 0 .06 0l.17-.09a.16.16 0 0 1 .1 0 .09.09 0 0 1 .06 0 0 0 0 0 1 0 0h.1a.26.26 0 0 1 .09.05 0 0 0 0 0 0 0 .1.1 0 0 0 .1.06h.1a.55.55 0 0 1 .18 0h.21a1.25 1.25 0 0 1 .19 0h.06a.4.4 0 0 0 .37 0h.06s0 0 .08 0 .09 0 .11 0h.21.13.07a.28.28 0 0 1 .22.08.47.47 0 0 0 .24.13v.07a.13.13 0 0 1 .16 0 .05.05 0 0 0 0 0 0 0 0 0 0 0 0 .14.14 0 0 1 .11-.07h.13.21a.52.52 0 0 1 .21.07.34.34 0 0 1 .14.33zm-5.73 0h5.72a.32.32 0 0 0 -.14-.32.5.5 0 0 0 -.2-.08h-.21-.13a.17.17 0 0 0 -.1.06s0 0 0 0a.12.12 0 0 0 -.15 0v-.07a.55.55 0 0 1 -.25-.13.21.21 0 0 0 -.2-.08.15.15 0 0 0 -.07 0h-.05a.31.31 0 0 1 -.13 0h-.21s-.08 0-.11 0a.11.11 0 0 1 -.08 0h-.23a.07.07 0 0 0 -.06 0 .38.38 0 0 1 -.37 0h-.05a.63.63 0 0 0 -.19 0h-.25a.55.55 0 0 0 -.18 0h-.1a.12.12 0 0 1 -.11-.07s0 0 0 0l-.09-.05h-.14s0 0 0 0h-.05a.29.29 0 0 0 -.1 0l-.17.09h-.06s0 0 0 0a.14.14 0 0 1 -.14 0h-.16-.12a.8.8 0 0 0 -.15 0l-.23.07c-.1 0-.21.07-.31.12h-.12-.16-.13a.18.18 0 0 0 -.08 0 .19.19 0 0 0 0 .13.6.6 0 0 0 .08.21z"/><path d="m12.73 20.08h-.11l-.41.1a.33.33 0 0 1 -.17 0 .42.42 0 0 1 -.35-.44.44.44 0 0 1 .46-.45.25.25 0 0 0 .25.25c.16 0 .16-.17.16-.17a.74.74 0 0 0 -.07-.21 1.6 1.6 0 0 0 -.1-.23l-.07-.16c0-.05 0-.1-.07-.15a.46.46 0 0 0 -.23-.18.14.14 0 0 1 -.08-.12c0-.13.21 0 .21 0 0-.25-.53-.36-.81-.4s-.3-.17-.3-.17a.11.11 0 0 0 .16-.11c0-.19-.31-.17-.31-.17a3.46 3.46 0 0 0 -1.18-.38c.18-.24-.05-.32-.14-.32h-1.16c-.09 0-.32.08-.14.32a3.46 3.46 0 0 0 -1.18.38s-.31 0-.31.17a.11.11 0 0 0 .16.11s0 .12-.3.17-.81.15-.81.4c0 0 .21-.14.21 0a.14.14 0 0 1 -.08.12.65.65 0 0 0 -.16.09l-.06.07-.06.09a.77.77 0 0 0 -.07.16l-.09.25s0 0 0 .05v.06a.42.42 0 0 1 0 .1s0 0 0 .06 0 .17.16.17a.25.25 0 0 0 .25-.25.44.44 0 0 1 .46.45.42.42 0 0 1 -.35.44.33.33 0 0 1 -.17 0l-.41-.1h-.21c-.17 0-.55.16-.55 1.05a3 3 0 0 0 1.76 2.34 5.61 5.61 0 0 1 1.31 1.2.61.61 0 0 0 .46.23c.17 0 .22-.07.22-.07a2.18 2.18 0 0 0 .55.17 2.18 2.18 0 0 0 .54-.13s.05.07.22.07a.61.61 0 0 0 .46-.23 5.61 5.61 0 0 1 1.31-1.2 3 3 0 0 0 1.76-2.34c-.01-.93-.39-1.07-.56-1.09zm-1 1.4c0 1.85-2 2.25-2.26 2.31a1.18 1.18 0 0 0 -.47.31 1.18 1.18 0 0 0 -.51-.31c-.25-.06-2.26-.46-2.26-2.31a2.51 2.51 0 0 1 .32-1.16 2.48 2.48 0 0 0 0-1.63l1.14-.69.85-.24.46.24.45-.3.85.24 1.19.74a2.48 2.48 0 0 0 0 1.63 2.51 2.51 0 0 1 .27 1.17z" fill="#dca842"/><path d="m9 25a2.14 2.14 0 0 1 -.53-.13.33.33 0 0 1 -.23.07.62.62 0 0 1 -.47-.24l-.13-.14a4.82 4.82 0 0 0 -1.18-1.05c-.53-.3-1.77-1.13-1.77-2.36 0-.9.4-1.05.57-1.07h.11l.42.1h.16a.4.4 0 0 0 .33-.42.45.45 0 0 0 -.11-.31.53.53 0 0 0 -.32-.12.24.24 0 0 1 -.26.25.17.17 0 0 1 -.12-.05.19.19 0 0 1 -.06-.14.14.14 0 0 1 0-.06.49.49 0 0 1 0-.11v-.06a0 0 0 0 0 0 0l.15-.16v-.1a1.11 1.11 0 0 1 .07-.16.41.41 0 0 1 0-.09.46.46 0 0 1 .07-.07l.16-.1a.1.1 0 0 0 .07-.1s0 0 0 0a.35.35 0 0 0 -.17.06s0 0 0 0c0-.24.45-.36.82-.42a.41.41 0 0 0 .27-.12h-.04a.17.17 0 0 1 0-.13.14.14 0 0 1 0-.11.42.42 0 0 1 .27-.08 3.29 3.29 0 0 1 1.16-.37.2.2 0 0 1 0-.21.25.25 0 0 1 .21-.12h1.12a.25.25 0 0 1 .21.12.2.2 0 0 1 0 .21 3.29 3.29 0 0 1 1.16.37.42.42 0 0 1 .27.08.14.14 0 0 1 .05.11.17.17 0 0 1 -.05.13h-.09a.41.41 0 0 0 .27.12c.37.06.82.18.82.42a.35.35 0 0 0 -.17-.06s0 0 0 0a.1.1 0 0 0 .07.1.57.57 0 0 1 .24.19v.08.07l.08.16.09.23a.43.43 0 0 1 .06.18.19.19 0 0 1 -.06.14.17.17 0 0 1 -.12.05.24.24 0 0 1 -.26-.25.5.5 0 0 0 -.32.13.41.41 0 0 0 -.11.3.4.4 0 0 0 .33.42h.16l.42-.1h.11c.17 0 .57.17.57 1.07 0 1.23-1.24 2.06-1.77 2.36a4.82 4.82 0 0 0 -1.18 1.05l-.13.14a.62.62 0 0 1 -.47.24.33.33 0 0 1 -.23-.07 2.14 2.14 0 0 1 -.52.13zm-.54-.17a2.19 2.19 0 0 0 .53.13 2.19 2.19 0 0 0 .53-.13s0 0 0 0 .05.06.21.06a.63.63 0 0 0 .45-.22l.12-.14a5.34 5.34 0 0 1 1.19-1.06c.53-.3 1.76-1.12 1.76-2.33 0-.87-.38-1-.54-1a.21.21 0 0 0 -.11 0l-.41.1a.54.54 0 0 1 -.18 0 .42.42 0 0 1 -.35-.45.45.45 0 0 1 .12-.33.55.55 0 0 1 .35-.14 0 0 0 0 1 0 0 .22.22 0 0 0 .23.23.17.17 0 0 0 .1 0 .22.22 0 0 0 0-.12.49.49 0 0 0 0-.16l-.08-.27-.08-.17v-.06-.08a.53.53 0 0 0 -.23-.18.15.15 0 0 1 -.09-.13.09.09 0 0 1 0-.07h.18c0-.16-.32-.28-.79-.36-.28 0-.32-.17-.32-.17s0 0 0 0a.16.16 0 0 0 .1 0 .13.13 0 0 0 0-.1.14.14 0 0 0 0-.09.49.49 0 0 0 -.26-.07s0 0 0 0a3.5 3.5 0 0 0 -1.17-.37.2.2 0 0 0 .06-.2.21.21 0 0 0 -.18-.09h-1.19a.21.21 0 0 0 -.18.09.2.2 0 0 0 .06.2 3.5 3.5 0 0 0 -1.17.37s0 0 0 0a.49.49 0 0 0 -.26.07.14.14 0 0 0 0 .09.13.13 0 0 0 0 .1.16.16 0 0 0 .1 0s0 0 0 0 0 .13-.32.17c-.47.08-.75.2-.79.36.05 0 .13-.07.18 0a.09.09 0 0 1 0 .07.15.15 0 0 1 -.09.13.56.56 0 0 0 -.15.1l-.07.06a.41.41 0 0 0 0 .09 1 1 0 0 0 -.07.15.3.3 0 0 1 0 .1.75.75 0 0 1 0 .16v.06a1 1 0 0 0 0 .1.11.11 0 0 0 0 .05.22.22 0 0 0 0 .12.17.17 0 0 0 .1 0 .22.22 0 0 0 .23-.23 0 0 0 0 1 0 0 .55.55 0 0 1 .35.14.45.45 0 0 1 .12.33.42.42 0 0 1 -.45.46.54.54 0 0 1 -.18 0l-.41-.1a.21.21 0 0 0 -.11 0c-.16 0-.54.16-.54 1 0 1.21 1.23 2 1.76 2.33a5.34 5.34 0 0 1 1.19 1.06l.12.14a.63.63 0 0 0 .45.22c.16 0 .21-.06.21-.06a0 0 0 0 1 -.04.02zm.54-.71a0 0 0 0 1 0 0 1.22 1.22 0 0 0 -.5-.3c-.68-.14-2.26-.66-2.26-2.32a2.48 2.48 0 0 1 .32-1.16 2.43 2.43 0 0 0 0-1.62s0 0 0 0l1.19-.75.85-.24.4.27.44-.29.85.24 1.19.75s0 0 0 0a2.43 2.43 0 0 0 -.05 1.62 2.46 2.46 0 0 1 .32 1.16c0 1.66-1.58 2.18-2.26 2.32a1.22 1.22 0 0 0 -.5.3 0 0 0 0 1 .01.02zm-2.48-5.42a2.39 2.39 0 0 1 0 1.63 2.61 2.61 0 0 0 -.32 1.15c0 1.63 1.56 2.15 2.24 2.29a1.19 1.19 0 0 1 .5.3 1.19 1.19 0 0 1 .5-.3c.68-.14 2.24-.66 2.24-2.29a2.61 2.61 0 0 0 -.32-1.15 2.39 2.39 0 0 1 0-1.63l-1.07-.7-.85-.23-.44.23s0 0 0 0l-.44-.29-.87.29z"/><path d="m10.73 17.41s-.7-.05-1.08-.1-.4-.28-.4-.28a.27.27 0 0 1 .2-.26 0 0 0 0 1 0 0 .23.23 0 0 0 -.18.21s0 .22.38.26l1.08.09s0 0 0 0 .01.08 0 .08z"/><path d="m9.71 17.13c-.05 0-.26 0-.26-.13a.08.08 0 0 1 0-.07.11.11 0 0 1 .07 0s0 0 0 0h-.02a.07.07 0 0 0 0 .05s.13.08.22.09a0 0 0 0 1 0 0s0 .06-.01.06z"/><path d="m11.83 18.07s-.53 0-.69 0-.39-.16-.39-.31a.39.39 0 0 1 .13-.26s0 0 0 0a.32.32 0 0 0 -.12.23c0 .13.2.27.36.28h.69z"/><path d="m11.06 17.82a.25.25 0 0 1 -.06-.18.1.1 0 0 1 .07-.05s0 0 0 0a.07.07 0 0 0 -.05 0s0 .11.06.13 0 0 0 0z"/><path d="m9.78 24.74h-.1c.42.08.76-.4.87-.56a4.17 4.17 0 0 1 1.08-.88 2.61 2.61 0 0 0 1.4-2 .89.89 0 0 0 -.24-.73.39.39 0 0 0 -.32-.06 1.72 1.72 0 0 1 -.29 0c-.17 0-.66-.11-.66-.59a.67.67 0 0 1 .59-.7.56.56 0 0 1 .38.13 0 0 0 0 1 0 0 .51.51 0 0 0 -.35-.12.64.64 0 0 0 -.56.67c0 .45.47.56.63.56a1.06 1.06 0 0 0 .29 0 .42.42 0 0 1 .34.08.89.89 0 0 1 .26.75 2.64 2.64 0 0 1 -1.43 2.08 4 4 0 0 0 -1.07.87c-.13.06-.43.5-.82.5z"/><path d="m12.2 19.47a.15.15 0 0 1 .07-.15h-.1s0 0 0 0a1.05 1.05 0 0 1 .19 0 0 0 0 0 1 0 0s-.12 0-.12.13a0 0 0 0 1 0 0z"/><path d="m11.6 18.74a2.49 2.49 0 0 0 -.19 1c0 .55.49 1.09.49 1.8a2.33 2.33 0 0 1 -1.64 2.17s-1.07.24-1.07.44a.94.94 0 0 1 .3.06s.09-.25 1.52-.59a2.67 2.67 0 0 0 1.86-2.39c0-.2.05-.64-.51-.64a.77.77 0 0 1 -.87-.79 1.63 1.63 0 0 1 .32-.88z" fill="#825123"/><path d="m9.49 24.18a1.13 1.13 0 0 0 -.29-.05 0 0 0 0 1 0 0c0-.21 1-.44 1.08-.46a2.3 2.3 0 0 0 1.63-2.15 2.4 2.4 0 0 0 -.27-1 2.19 2.19 0 0 1 -.22-.79 2.57 2.57 0 0 1 .19-1 0 0 0 0 1 0 0l.21.14a0 0 0 0 1 0 0 1.55 1.55 0 0 0 -.33.87.76.76 0 0 0 .86.77.52.52 0 0 1 .4.14.64.64 0 0 1 .13.47v.05a2.67 2.67 0 0 1 -1.88 2.41c-1.38.34-1.5.58-1.5.59zm-.28-.1a1.29 1.29 0 0 1 .28.06c0-.07.28-.29 1.51-.59a2.63 2.63 0 0 0 1.85-2.37v-.05a.61.61 0 0 0 -.11-.45.52.52 0 0 0 -.38-.12.79.79 0 0 1 -.89-.81 1.59 1.59 0 0 1 .32-.87l-.18-.12a2.42 2.42 0 0 0 -.19.93 1.94 1.94 0 0 0 .23.77 2.71 2.71 0 0 1 .27 1 2.34 2.34 0 0 1 -1.66 2.18c-.4.13-1 .36-1.05.44z"/><path d="m9.76 24.61a0 0 0 0 1 0 0 1.37 1.37 0 0 0 .66-.42c.15-.19.55-.59.55-.6a0 0 0 0 1 0 0s-.4.4-.56.6a1.36 1.36 0 0 1 -.67.42z"/><path d="m9.68 24.62a.2.2 0 0 1 -.11 0 .1.1 0 0 1 0-.09.2.2 0 0 1 0-.09.09.09 0 0 1 .06 0c.05 0 .09 0 .09.11s0 0 0 0a0 0 0 0 1 0 0s0-.08-.06-.08a.35.35 0 0 0 0 .07.08.08 0 0 0 0 .06.25.25 0 0 0 .17 0s.05 0 .05-.06c0-.2-.26-.32-.32-.34s0 0 0 0c.19.07.39.21.35.39a.12.12 0 0 1 -.09.08z"/><path d="m9 24.12a0 0 0 0 1 0 0h.2a0 0 0 0 1 0 0 .54.54 0 0 0 -.2 0z"/><path d="m9.53 24.84a.66.66 0 0 1 -.15-.32c0-.18.11-.28.33-.28a0 0 0 0 1 0 0c-.2 0-.29.08-.29.24a.69.69 0 0 0 .14.3s0 0 0 0z"/><path d="m9.07 25s0 0 0 0a.36.36 0 0 0 .16-.11.46.46 0 0 1 .23-.12 0 0 0 0 1 0 0 .51.51 0 0 0 -.2.12.54.54 0 0 1 -.18.11z"/><path d="m11.87 20.54a.07.07 0 0 1 -.06.07.07.07 0 0 1 0-.14.07.07 0 0 1 .06.07z" fill="url(#a)"/><path d="m11.81 20.61a.07.07 0 1 1 .07-.07.07.07 0 0 1 -.07.07zm0-.13a.07.07 0 0 0 -.07.06s0 .06.07.06a.06.06 0 0 0 .06-.06.06.06 0 0 0 -.06-.06z"/><path d="m12.09 20.74a.12.12 0 0 1 -.12.12.12.12 0 0 1 -.12-.12.12.12 0 0 1 .12-.12.13.13 0 0 1 .12.12z" fill="url(#b)"/><path d="m12 20.86a.12.12 0 1 1 0-.24.12.12 0 1 1 0 .24zm0-.23a.11.11 0 1 0 0 .22.11.11 0 0 0 0-.22z"/><path d="m12.2 21a.12.12 0 0 1 -.11.12.12.12 0 0 1 -.09-.12.11.11 0 0 1 .12-.11.11.11 0 0 1 .08.11z" fill="url(#c)"/><path d="m12.09 21.14a.12.12 0 0 1 -.09-.14.12.12 0 0 1 .12-.12.12.12 0 0 1 .11.12.11.11 0 0 1 -.14.14zm0-.23a.11.11 0 1 0 .11.11.11.11 0 0 0 -.11-.11z"/><path d="m12.21 21.29a.1.1 0 0 1 -.1.11.11.11 0 0 1 0-.22.1.1 0 0 1 .1.11z" fill="url(#d)"/><path d="m12.11 21.41a.12.12 0 0 1 -.12-.12.11.11 0 0 1 .12-.11.11.11 0 0 1 .11.11.11.11 0 0 1 -.11.12zm0-.22a.11.11 0 0 0 -.11.1.11.11 0 0 0 .11.11.11.11 0 0 0 .1-.11.11.11 0 0 0 -.1-.1z"/><circle cx="12.09" cy="21.57" fill="url(#e)" r=".1"/><path d="m12.09 21.68a.11.11 0 1 1 .11-.11.11.11 0 0 1 -.11.11zm0-.21a.1.1 0 0 0 -.1.1.09.09 0 0 0 .1.1.1.1 0 0 0 .1-.1.11.11 0 0 0 -.1-.1z"/><circle cx="12.05" cy="21.82" fill="url(#f)" r=".1"/><path d="m12.05 21.92a.1.1 0 0 1 0-.2.1.1 0 1 1 0 .2zm0-.2a.1.1 0 0 0 0 .2.1.1 0 1 0 0-.2z"/><path d="m12.09 22a.09.09 0 1 1 -.09-.09.09.09 0 0 1 .09.09z" fill="url(#g)"/><path d="m12 22.12a.09.09 0 0 1 -.1-.09.1.1 0 0 1 .1-.1.1.1 0 0 1 .09.1.09.09 0 0 1 -.09.09zm0-.18a.09.09 0 0 0 -.09.09.08.08 0 0 0 .09.08.08.08 0 0 0 .08-.08.09.09 0 0 0 -.08-.09z"/><path d="m12 22.21a.08.08 0 0 1 -.08.08.09.09 0 0 1 -.08-.08.08.08 0 0 1 .08-.08.07.07 0 0 1 .08.08z" fill="url(#h)"/><path d="m12 22.29a.09.09 0 0 1 -.08-.08.08.08 0 0 1 .08-.08.07.07 0 0 1 .08.08.08.08 0 0 1 -.08.08zm0-.16a.08.08 0 0 0 -.07.08.07.07 0 0 0 .07.07.08.08 0 0 0 .08-.07.09.09 0 0 0 -.08-.08z"/><path d="m12 22.37a.07.07 0 0 1 -.14 0 .07.07 0 0 1 .14 0z" fill="url(#i)"/><path d="m11.88 22.44a.07.07 0 1 1 .07-.07.07.07 0 0 1 -.07.07zm0-.13a.05.05 0 0 0 -.06.06.06.06 0 0 0 .06.06.06.06 0 0 0 .06-.06.06.06 0 0 0 -.06-.06z"/><path d="m11.87 22.52a.06.06 0 0 1 -.06.06.06.06 0 0 1 -.06-.06.07.07 0 0 1 .06-.07s.06.03.06.07z" fill="url(#j)"/><path d="m11.81 22.58a.06.06 0 0 1 -.06-.06.07.07 0 0 1 .06-.07.07.07 0 0 1 .07.07.07.07 0 0 1 -.07.06zm0-.12a.06.06 0 1 0 .06.06.06.06 0 0 0 -.06-.06z"/><path d="m11.78 22.65a.06.06 0 0 1 0 .06.06.06 0 1 1 0-.12.06.06 0 0 1 0 .06z" fill="url(#k)"/><path d="m11.73 22.71s-.07 0-.07-.06a.07.07 0 0 1 .07-.06.06.06 0 0 1 .06.06.06.06 0 0 1 -.06.06zm0-.11a.05.05 0 1 0 0 .1.05.05 0 0 0 0-.1z"/><circle cx="11.65" cy="22.78" fill="url(#l)" r=".05"/><path d="m11.65 22.83a.06.06 0 0 1 -.06 0 .06.06 0 1 1 .12 0 .06.06 0 0 1 -.06 0zm0-.1a0 0 0 0 0 -.05.05.05.05 0 0 0 .1 0 0 0 0 0 0 -.05-.05z"/><path d="m11.61 22.88a.05.05 0 0 1 0 .05.06.06 0 0 1 -.05-.05.05.05 0 0 1 .05-.05 0 0 0 0 1 0 .05z" fill="url(#m)"/><path d="m11.56 22.93a0 0 0 0 1 -.05-.05.06.06 0 0 1 .05-.06.06.06 0 0 1 .06.06.06.06 0 0 1 -.06.05zm0-.1a0 0 0 0 0 0 .05 0 0 0 0 0 0-.05z"/><path d="m11.51 23a0 0 0 0 1 -.08 0 0 0 0 0 1 .08 0z" fill="url(#n)"/><path d="m11.47 23a.05.05 0 1 1 0-.05 0 0 0 0 1 0 .05zm0-.09a0 0 0 1 0 0 .08 0 0 0 0 0 0-.08 0 0 0 0 0 0 .02z"/><path d="m11.42 23.06a0 0 0 0 1 -.08 0 0 0 0 0 1 .08 0z" fill="url(#o)"/><path d="m11.38 23.1a0 0 0 1 1 0-.08 0 0 0 0 1 0 .08zm0-.07s0 0 0 0a0 0 0 1 0 0-.06z"/><path d="m11.32 23.15s0 0 0 0a0 0 0 0 1 0 0s0 0 0 0a0 0 0 0 1 0 0z" fill="url(#p)"/><path d="m11.28 23.19a0 0 0 1 1 0-.08 0 0 0 0 1 0 .08zm0-.07a0 0 0 1 0 0 .06 0 0 0 0 0 0-.06z"/><circle cx="11.19" cy="23.22" fill="url(#q)" r=".03"/><path d="m11.19 23.26a0 0 0 0 1 0 0s0 0 0 0a0 0 0 0 1 0 0zm0-.06a0 0 0 0 0 0 0s0 0 0 0a0 0 0 0 0 0 0s.02 0 0 0z"/><path d="m11.14 23.28a0 0 0 0 1 0 0s0 0 0 0a0 0 0 0 1 0 0s0-.01 0 0z" fill="url(#r)"/><path d="m11.12 23.31a0 0 0 0 1 0-.06 0 0 0 0 1 0 .06zm0 0a0 0 0 0 0 0 0 0 0 0 0 0 0-.01z"/><path d="m11.07 23.32s0 0 0 0a0 0 0 0 1 0 0 0 0 0 0 1 -.07 0z" fill="url(#s)"/><path d="m11.05 23.35s0 0 0 0a0 0 0 0 1 0 0s0 0 0 0a0 0 0 0 1 0 0zm0 0a0 0 0 0 0 0 0s0 0 0 0a0 0 0 0 0 0 0z"/><circle cx="10.93" cy="23.41" fill="url(#t)" r=".01"/><path d="m10.93 23.42a0 0 0 0 1 0 0z"/><path d="m12.39 20.74a.13.13 0 0 1 -.14.11.12.12 0 0 1 -.1-.14.12.12 0 0 1 .13-.1.13.13 0 0 1 .11.13z" fill="url(#u)"/><path d="m12.27 20.85a.12.12 0 0 1 -.1-.14.11.11 0 0 1 .13-.1.11.11 0 0 1 .11.13.13.13 0 0 1 -.14.11zm0-.24a.13.13 0 0 0 -.12.1.16.16 0 0 0 0 .09.1.1 0 0 0 .07 0 .11.11 0 0 0 .13-.1.12.12 0 0 0 -.1-.13z"/><path d="m12.5 21a.12.12 0 0 1 -.13.1.13.13 0 0 1 -.1-.13.12.12 0 0 1 .13-.1.11.11 0 0 1 .1.13z" fill="url(#v)"/><path d="m12.39 21.12a.12.12 0 0 1 -.1-.13.11.11 0 0 1 .13-.1.09.09 0 0 1 .08 0 .1.1 0 0 1 0 .09.09.09 0 0 1 0 .08zm0-.23a.11.11 0 0 0 -.11.1.1.1 0 0 0 .09.12.08.08 0 0 0 .08 0 .12.12 0 0 0 .05-.11.11.11 0 0 0 0-.08.12.12 0 0 0 -.07-.05z"/><path d="m12.51 21.3a.1.1 0 0 1 -.12.09.1.1 0 0 1 -.09-.12.11.11 0 1 1 .21 0z" fill="url(#w)"/><path d="m12.4 21.4s-.06 0-.07 0a.11.11 0 0 1 0-.08.12.12 0 0 1 0-.08.15.15 0 0 1 .09 0 .1.1 0 0 1 .07 0 .16.16 0 0 1 0 .09.16.16 0 0 1 0 .07.13.13 0 0 1 -.09 0zm0-.22h-.06a.1.1 0 0 0 0 .07.11.11 0 0 0 0 .08h.07a.11.11 0 0 0 .08 0 .08.08 0 0 0 0-.07.19.19 0 0 0 0-.07.13.13 0 0 0 -.07 0z"/><path d="m12.47 21.58a.11.11 0 0 1 -.11.1.12.12 0 0 1 -.1-.12.1.1 0 0 1 .12-.09.1.1 0 0 1 .09.11z" fill="url(#x)"/><path d="m12.37 21.68a.12.12 0 0 1 -.08 0 .11.11 0 0 1 0-.08.1.1 0 0 1 0-.07.11.11 0 0 1 .08 0s.06 0 .07 0a.16.16 0 0 1 0 .09.12.12 0 0 1 -.07.06zm0-.21h-.06a.08.08 0 0 0 0 .07.08.08 0 0 0 0 .07.08.08 0 0 0 .07 0 .1.1 0 0 0 .11-.09.19.19 0 0 0 0-.07h-.07z"/><path d="m12.43 21.83a.1.1 0 1 1 -.09-.11.1.1 0 0 1 .09.11z" fill="url(#y)"/><path d="m12.33 21.92a.1.1 0 1 1 .11-.09.09.09 0 0 1 -.11.09zm0-.2a.11.11 0 0 0 -.1.09.1.1 0 0 0 .09.1.08.08 0 0 0 .1-.08.08.08 0 0 0 -.08-.1z"/><path d="m12.34 22.07a.09.09 0 0 1 -.18 0 .09.09 0 0 1 .1-.08.08.08 0 0 1 .08.08z" fill="url(#z)"/><path d="m12.25 22.15a.07.07 0 0 1 -.06 0 .07.07 0 0 1 0-.07.09.09 0 0 1 0-.07h.07a.1.1 0 0 1 .08.11.08.08 0 0 1 -.09.03zm0-.18h-.05a.09.09 0 0 0 0 .06.07.07 0 0 0 0 .06.09.09 0 0 0 .06 0 .09.09 0 0 0 .1-.07.1.1 0 0 0 -.08-.1z"/><path d="m12.24 22.28a.08.08 0 0 1 -.09.07.08.08 0 1 1 0-.16.08.08 0 0 1 .09.09z" fill="url(#A)"/><path d="m12.16 22.35a.07.07 0 0 1 -.07-.09.07.07 0 0 1 .09-.07.07.07 0 0 1 .07.09.08.08 0 0 1 -.09.07zm0-.16a.07.07 0 0 0 -.07.07.06.06 0 0 0 .06.08.08.08 0 0 0 .09-.06.1.1 0 0 0 -.07-.09z"/><path d="m12.13 22.44a.07.07 0 0 1 -.13 0 .06.06 0 0 1 .07-.06.07.07 0 0 1 .06.06z" fill="url(#B)"/><path d="m12.06 22.51a.08.08 0 1 1 0-.15s.07 0 .06.08a.08.08 0 0 1 0 0zm0-.14a.05.05 0 0 0 0 0 .06.06 0 0 0 0 0 .05.05 0 0 0 .05 0s0 0 0 0a.08.08 0 0 0 0 0s0 0 0 0z"/><path d="m12 22.59a.06.06 0 1 1 0-.07.05.05 0 0 1 0 .07z" fill="url(#C)"/><path d="m12 22.65a.08.08 0 0 1 -.06-.08.07.07 0 0 1 .14 0 .09.09 0 0 1 -.08.08zm0-.13a.06.06 0 0 0 -.06.05.07.07 0 0 0 .05.07.08.08 0 0 0 .07-.05.07.07 0 0 0 0-.07z"/><path d="m11.92 22.73a.06.06 0 0 1 -.06.05.05.05 0 0 1 0-.06 0 0 0 0 1 .06 0 .06.06 0 0 1 0 .01z" fill="url(#D)"/><path d="m11.86 22.78a.06.06 0 0 1 -.06-.06.07.07 0 0 1 .07-.06s.06 0 .06.07a.08.08 0 0 1 -.07.05zm0-.11a.05.05 0 0 0 0 0 .06.06 0 1 0 .11 0 .06.06 0 0 0 -.05-.06z"/><path d="m11.81 22.87a.06.06 0 0 1 -.06.05s-.05 0 0-.06a.06.06 0 0 1 .06-.05 0 0 0 0 1 0 .06z" fill="url(#E)"/><path d="m11.76 22.92s0 0 0 0a.08.08 0 0 1 0 0 .05.05 0 0 1 0 0s0 0 0 0a.05.05 0 0 1 0 0zm0-.11s0 0 0 0a0 0 0 0 0 0 0 .06.06 0 0 0 0 0z"/><path d="m11.72 23a.06.06 0 0 1 -.06.05.07.07 0 0 1 0-.06s0 0 .05 0a.05.05 0 0 1 .01.01z" fill="url(#F)"/><path d="m11.67 23s0 0 0 0zm0-.09a0 0 0 0 0 0 0s0 0 0 0h.07s0 0 0 0z"/><path d="m11.6 23.07a0 0 0 0 1 0 0s0 0 0-.05a0 0 0 0 1 0 0s.01-.02 0 .05z" fill="url(#G)"/><path d="m11.56 23.11s0 0 0-.05a.05.05 0 0 1 0 0 .07.07 0 0 1 0 .06.07.07 0 0 1 0-.01zm0-.09a0 0 0 0 0 0 0s0 0 0 0a.05.05 0 0 0 0-.05z"/><path d="m11.5 23.16s0 0-.05 0 0 0 0 0a0 0 0 0 1 .05 0z" fill="url(#H)"/><path d="m11.46 23.2a.07.07 0 0 1 0-.05 0 0 0 0 1 0 0 0 0 0 0 1 0 .05zm0-.08s0 0 0 0z"/><path d="m11.38 23.24a0 0 0 0 1 0 0s0 0 0 0a0 0 0 0 1 0 0s.01-.02 0 0z" fill="url(#I)"/><path d="m11.35 23.27a0 0 0 0 1 0 0s0 0 0 0a0 0 0 0 1 0 0zm0-.07a0 0 0 0 0 0 0s0 0 0 0a0 0 0 0 1 0 0 0 0 0 0 0 0 0z"/><path d="m11.29 23.31s0 0 0 0a0 0 0 0 1 0 0z" fill="url(#J)"/><path d="m11.26 23.34s0 0 0 0a0 0 0 0 1 0 0s0 0 0 0a0 0 0 0 1 0 0zm0-.06s0 0 0 0z"/><path d="m11.19 23.36a0 0 0 0 1 0 0s.01-.02 0 0z" fill="url(#K)"/><path d="m11.17 23.38s0 0 0 0zm0-.05a0 0 0 0 0 0 0z"/><path d="m11.12 23.4a0 0 0 0 1 0 0s0-.01 0 0z" fill="url(#L)"/><path d="m11.1 23.43s0 0 0 0a0 0 0 0 1 0 0zm0-.05s0 0 0 0a0 0 0 0 0 0 0z"/><path d="m11 23.47s0 0 0 0z" fill="url(#M)"/><path d="m11 23.48s0 0 0 0z"/><path d="m12.68 20.77a.13.13 0 0 1 -.15.09.12.12 0 0 1 -.08-.15.11.11 0 0 1 .14-.08.12.12 0 0 1 .09.14z" fill="url(#N)"/><path d="m12.56 20.86a.13.13 0 0 1 -.09-.15.11.11 0 0 1 .06-.07.1.1 0 0 1 .09 0 .16.16 0 0 1 .08.06.13.13 0 0 1 0 .09.16.16 0 0 1 -.06.08zm0-.23h-.06a.18.18 0 0 0 -.05.07.11.11 0 0 0 .08.14.14.14 0 0 0 .09 0 .12.12 0 0 0 .05-.07.14.14 0 0 0 0-.09.18.18 0 0 0 -.07-.05z"/><path d="m12.79 21.05a.11.11 0 0 1 -.14.08.11.11 0 0 1 -.08-.14.12.12 0 0 1 .14-.08.11.11 0 0 1 .08.14z" fill="url(#O)"/><path d="m12.68 21.14a.13.13 0 0 1 -.09-.15.12.12 0 0 1 .15-.08.11.11 0 0 1 .08.14.12.12 0 0 1 -.14.09zm0-.23a.13.13 0 0 0 -.11.09.12.12 0 0 0 .08.13.12.12 0 0 0 .14-.08.11.11 0 0 0 -.08-.13z"/><path d="m12.8 21.32a.12.12 0 0 1 -.13.08.11.11 0 0 1 .05-.21.11.11 0 0 1 .08.13z" fill="url(#P)"/><path d="m12.69 21.41a.11.11 0 0 1 -.08-.13.13.13 0 0 1 .05-.07.15.15 0 0 1 .09 0 .11.11 0 0 1 .08.14.12.12 0 0 1 -.14.06zm0-.22a.12.12 0 0 0 -.05.07.12.12 0 0 0 .08.13.1.1 0 0 0 .12-.08.11.11 0 0 0 -.07-.13z"/><path d="m12.75 21.61a.11.11 0 0 1 -.13.08.11.11 0 0 1 -.07-.13.1.1 0 0 1 .12-.08.11.11 0 0 1 .08.13z" fill="url(#Q)"/><path d="m12.65 21.69a.12.12 0 0 1 -.07-.05.11.11 0 0 1 0-.08.1.1 0 0 1 .13-.08.1.1 0 0 1 .08.13s0 .05-.05.07zm0-.21a.1.1 0 0 0 -.1.08.11.11 0 0 0 0 .08s0 0 .06 0a.11.11 0 0 0 .08 0 .08.08 0 0 0 0-.06.09.09 0 0 0 -.07-.12z"/><path d="m12.7 21.87a.11.11 0 0 1 -.12.07.1.1 0 0 1 -.08-.12.1.1 0 0 1 .12-.07.1.1 0 0 1 .08.12z" fill="url(#R)"/><path d="m12.6 22a.18.18 0 0 1 -.07-.05.11.11 0 0 1 0-.08.11.11 0 0 1 .13-.08.11.11 0 0 1 .07.13.06.06 0 0 1 0 .06zm0-.2a.1.1 0 0 0 -.09.07.08.08 0 0 0 0 .07s0 0 .06.05h.07s0 0 0-.06a.09.09 0 0 0 -.07-.12z"/><path d="m12.58 22.12a.1.1 0 0 1 -.11.07.09.09 0 1 1 .11-.07z" fill="url(#S)"/><path d="m12.49 22.19a.09.09 0 0 1 -.07-.11.09.09 0 1 1 .18 0 .09.09 0 0 1 -.11.11zm0-.18a.08.08 0 0 0 -.08.07.07.07 0 0 0 .06.1.08.08 0 0 0 .1-.06.08.08 0 0 0 -.06-.1z"/><path d="m12.45 22.35a.08.08 0 1 1 -.15 0 .08.08 0 0 1 .09-.06.08.08 0 0 1 .06.06z" fill="url(#T)"/><path d="m12.37 22.41a.07.07 0 0 1 0 0 .13.13 0 0 1 0-.06.1.1 0 0 1 0 0 .07.07 0 0 1 .06 0 .07.07 0 0 1 .06.1.05.05 0 0 1 0 0zm0-.15a.13.13 0 0 0 0 .06.05.05 0 0 0 0 0 0 0 0 0 0 .05 0 .07.07 0 0 0 0-.13z"/><path d="m12.34 22.53a.07.07 0 0 1 -.08 0 .06.06 0 0 1 0-.08.07.07 0 0 1 .08-.05.07.07 0 0 1 0 .13z" fill="url(#U)"/><path d="m12.27 22.59a.08.08 0 0 1 -.06-.09.07.07 0 0 1 .09-.05.07.07 0 0 1 .05.08s-.04.06-.08.06zm0-.14a.07.07 0 0 0 -.06.05.07.07 0 0 0 0 .08.05.05 0 0 0 .07 0s0-.07 0-.07z"/><path d="m12.19 22.71a.06.06 0 0 1 -.07 0s-.06 0 0-.07a.06.06 0 0 1 .08-.05.06.06 0 0 1 -.01.12z" fill="url(#V)"/><path d="m12.13 22.76a.07.07 0 0 1 0-.08s0-.06.08-.05a.05.05 0 0 1 0 0 .06.06 0 0 1 -.06.1zm0-.13a.06.06 0 0 0 -.06.05.08.08 0 0 0 0 .07.06.06 0 0 0 .07 0 .09.09 0 0 0 0-.05z"/><path d="m12.07 22.86s0 .05-.07 0a.06.06 0 0 1 0-.11s.08.08.07.11z" fill="url(#W)"/><path d="m12 22.91s0 0 0 0 0 0 0-.05 0 0 0 0a.06.06 0 0 1 .05.08zm0-.12s0 0 0 0a.06.06 0 0 0 0-.07z"/><path d="m12 23a.07.07 0 0 1 -.07 0 .06.06 0 0 1 0-.07.07.07 0 0 1 .07 0 .08.08 0 0 1 0 .07z" fill="url(#X)"/><path d="m11.89 23s0 0 0 0a.06.06 0 0 1 .11 0 0 0 0 0 1 0 0zm0-.1s0 0 0 0 0-.06 0-.06z"/><path d="m11.82 23.08a0 0 0 0 1 -.06 0 0 0 0 0 1 0-.06s0 0 .06 0a0 0 0 0 1 0 .06z" fill="url(#Y)"/><path d="m11.78 23.13s0 0 0-.06a.06.06 0 0 1 .07 0 .07.07 0 0 1 0 .07.07.07 0 0 1 -.07-.01zm0-.1a.05.05 0 0 0 0 0 .06.06 0 0 0 0 .06.05.05 0 0 0 .06 0z"/><path d="m11.69 23.17a0 0 0 0 1 0 0 0 0 0 1 1 0-.08s.01.06 0 .08z" fill="url(#Z)"/><path d="m11.65 23.21a.05.05 0 0 1 0-.06.05.05 0 1 1 .1 0s0 0 0 0zm0-.09s0 0 0 0a.05.05 0 0 0 0 .05.05.05 0 0 0 0-.05z"/><path d="m11.57 23.26s0 0 0 0 0 0 0-.05 0 0 0 0 .01.03 0 .05z" fill="url(#aa)"/><path d="m11.53 23.29a0 0 0 0 1 0 0 0 0 0 0 1 .06 0s0 0 0 .05a.05.05 0 0 1 -.06-.05zm0-.08a0 0 0 0 0 0 0s0 0 0 0a.05.05 0 0 0 0-.05z"/><path d="m11.45 23.33s0 0 0 0a.05.05 0 0 1 0 0s0-.02 0 0z" fill="url(#ab)"/><path d="m11.42 23.36s0 0 0 0a0 0 0 0 1 0 0zm0-.06s0 0 0 0z"/><path d="m11.34 23.39s0 0 0 0 .01-.01 0 0z" fill="url(#ac)"/><path d="m11.32 23.42s0 0 0 0a0 0 0 0 1 0 0s0 0 0 0a0 0 0 0 1 0 0zm0-.06s0 0 0 0z"/><path d="m11.25 23.44s0 0 0 0 0-.02 0 0z" fill="url(#ad)"/><path d="m11.23 23.46s0 0 0 0zm0-.05a0 0 0 0 0 0 0s0 0 0 0z"/><path d="m11.16 23.48s0 0 0 0a0 0 0 0 1 0 0s.01-.01 0 0z" fill="url(#ae)"/><path d="m11.14 23.5s0 0 0 0 .02 0 0 0zm0 0s0 0 0 0z"/><path d="m11.08 23.51a0 0 0 0 1 0 0s0 0 0 0 0-.01 0 0z" fill="url(#af)"/><path d="m11.07 23.52s0 0 0 0a0 0 0 0 1 0 0s0 0 0 0z"/><path d="m11 23.44s0 0 0 0 0-.01 0 0z" fill="url(#ag)"/><path d="m11 23.45s0 0 0 0a0 0 0 0 1 0 0s0 0 0 0zm0 0s0 0 0 0z"/><path d="m11 23.36a0 0 0 0 1 0 0s0 0 0 0a0 0 0 0 1 0 0s0-.01 0 0z" fill="url(#ah)"/><path d="m11 23.38a0 0 0 0 1 0 0z"/><path d="m11 23.53a0 0 0 0 1 0 0z" fill="url(#ai)"/><path d="m11 23.54s0 0 0 0z"/><path d="m9.09 24.52a.1.1 0 1 1 -.2 0 .1.1 0 0 1 .2 0z" fill="url(#aj)"/><path d="m9 24.64a.12.12 0 0 1 -.12-.12.12.12 0 0 1 .24 0 .12.12 0 0 1 -.12.12zm0-.2a.09.09 0 0 0 -.09.08.09.09 0 0 0 .18 0 .09.09 0 0 0 -.09-.08z"/><path d="m9.31 24.52a.06.06 0 0 1 -.06.06.05.05 0 0 1 -.06-.06.06.06 0 0 1 .06-.06.06.06 0 0 1 .06.06z" fill="url(#ak)"/><path d="m9.25 24.6a.07.07 0 0 1 -.08-.08.07.07 0 0 1 .08-.07.07.07 0 0 1 .07.07.07.07 0 0 1 -.07.08zm0-.12a0 0 0 0 0 -.05 0 0 0 0 0 0 .05.05 0 0 0 0 0 0-.05z"/><path d="m8.81 24.52a.06.06 0 0 1 -.12 0 .06.06 0 0 1 .12 0z" fill="url(#al)"/><path d="m8.75 24.6a.08.08 0 0 1 -.08-.08.08.08 0 0 1 .16 0 .08.08 0 0 1 -.08.08zm0-.12a0 0 0 0 0 0 0s0 .05 0 .05a0 0 0 0 0 0-.05z"/><path d="m9.05 24.29a.06.06 0 0 1 -.12 0 .06.06 0 0 1 .12 0z" fill="url(#am)"/><path d="m9 24.37a.09.09 0 0 1 -.08-.08.08.08 0 0 1 .16 0 .09.09 0 0 1 -.08.08zm0-.13a0 0 0 0 0 0 .05 0 0 0 0 0 .08 0 0 0 0 0 0 -.08-.05z"/><path d="m9.05 24.78a.06.06 0 1 1 -.05-.06.06.06 0 0 1 .05.06z" fill="url(#an)"/><path d="m9 24.86a.08.08 0 1 1 .08-.08.09.09 0 0 1 -.08.08zm0-.12a0 0 0 1 0 0 .08 0 0 0 0 0 0-.08z"/><path d="m11.53 18.32-.09.24.11.04.1-.12v-.11z" fill="#fff"/><path d="m11.55 18.61h-.11l.09-.25.12.05s0 0 0 0v.11l-.1.12zm-.09-.06h.08l.09-.11v-.09h-.09z"/><path d="m9.23 17.65v.23l.21-.02.01-.16-.06-.06z" fill="#fff"/><path d="m9.23 17.9v-.23a0 0 0 0 1 0 0h.17l.07.06v.16s0 0 0 0h-.21zm0-.23v.19h.17v-.13l-.06-.05z"/><path d="m11.85 18.47-.08.24-.13-.07-.01-.14.09-.09z" fill="#fff"/><path d="m11.77 18.73-.13-.06v-.14a0 0 0 0 1 0 0l.09-.09.13.07s0 0 0 0l-.09.23zm-.11-.1.1.05.07-.2-.11-.05-.07.08z"/><path d="m9.43 17.52v-.05s0 0 0 0 0 0 0-.05a0 0 0 0 1 0 0 .09.09 0 0 1 0 .1.22.22 0 0 1 -.05.08l-.07.08s-.07 0 0 0z" fill="#078930"/><path d="m9.36 17.67s0 0 0 0 0 0 0-.06l.06-.06s0 0 0-.05 0 0 0 0a.06.06 0 0 1 0 0s0 0 0 0a.09.09 0 0 1 0 .11.33.33 0 0 1 -.06.1l-.07.07zm.14-.3a.17.17 0 0 1 0 .07s0 0-.05.05l-.06.06a0 0 0 0 0 0 0h.05l.06-.08a.24.24 0 0 0 .06-.08s0-.06 0-.07z"/><path d="m11.08 18.15a.41.41 0 0 1 .28.09s0 0 0 0a.46.46 0 0 1 -.28.08s-.28-.05-.26-.1.08-.07.11-.08a.35.35 0 0 1 .15.01z" fill="#078930"/><path d="m11.13 18.38s-.24 0-.28-.09.07-.06.12-.08h.15a.45.45 0 0 1 .29.1s0 0 0 0a0 0 0 0 1 0 0 .35.35 0 0 1 -.28.07zm0-.21a.31.31 0 0 0 -.13 0 .29.29 0 0 0 -.11.06s.18.07.26.08a.34.34 0 0 0 .25-.07.38.38 0 0 0 -.3-.07z"/><path d="m11.14 18s0 0 0 0a.46.46 0 0 1 -.29.13s-.33 0-.26-.14.11-.06.15-.07a.61.61 0 0 1 .19 0 .46.46 0 0 1 .21.08z" fill="#078930"/><path d="m10.86 18.22c-.06 0-.24 0-.28-.08a.07.07 0 0 1 0-.08.26.26 0 0 1 .15-.07.62.62 0 0 1 .19 0 .8.8 0 0 1 .21.05 0 0 0 0 1 0 0 .43.43 0 0 1 -.3.13zm0-.21h-.16a.26.26 0 0 0 -.13.06s0 0 0 0 .2.07.25.07a.5.5 0 0 0 .28-.12.71.71 0 0 0 -.2 0z"/><path d="m10.83 17.87s0 0 0 0a.46.46 0 0 1 -.29.15.47.47 0 0 1 -.16 0s-.1-.07-.1-.12.1-.06.14-.07h.19a.79.79 0 0 1 .22.04z" fill="#078930"/><path d="m10.53 18.07a.32.32 0 0 1 -.16 0s-.11-.07-.11-.13.09-.07.14-.08a.61.61 0 0 1 .19 0 .78.78 0 0 1 .22 0s0 0 0 0a.46.46 0 0 1 -.31.15zm0-.23h-.13s-.1 0-.1 0 .07.09.09.1a.28.28 0 0 0 .15 0 .47.47 0 0 0 .28-.14.8.8 0 0 0 -.21-.05z"/><path d="m10.64 17.67s0 .06-.06.07l-.2.11a.49.49 0 0 1 -.21 0 .33.33 0 0 1 -.16-.07s0-.09.07-.1a.75.75 0 0 1 .36-.07z" fill="#078930"/><path d="m10.21 17.9a.32.32 0 0 1 -.17-.08.06.06 0 0 1 0-.05s.06-.06.09-.08a.86.86 0 0 1 .36-.07.64.64 0 0 1 .2 0 .16.16 0 0 1 -.07.09.93.93 0 0 1 -.2.1.39.39 0 0 1 -.21.09zm.2-.25a.88.88 0 0 0 -.32.07s-.07 0-.07.05 0 0 0 0a.18.18 0 0 0 .14.06.41.41 0 0 0 .21 0l.19-.1v-.05h-.18z"/><path d="m10 17.51a.5.5 0 0 1 .32 0s0 .06-.05.09a.52.52 0 0 1 -.25.14.4.4 0 0 1 -.24 0s0 0 0 0a.39.39 0 0 1 .1-.08z" fill="#078930"/><path d="m9.94 17.78a.41.41 0 0 1 -.18-.05s0 0 0-.05a.09.09 0 0 1 0-.05.39.39 0 0 1 .1-.08.52.52 0 0 1 .13-.06.53.53 0 0 1 .33 0 .21.21 0 0 1 -.06.1.45.45 0 0 1 -.26.14zm.18-.27h-.12-.12l-.1.07s0 0 0 0a.37.37 0 0 0 .23 0 .54.54 0 0 0 .24-.14.15.15 0 0 0 0-.06.47.47 0 0 0 -.13.13z"/><path d="m9.59 17.46a.62.62 0 0 1 .41-.06.14.14 0 0 1 0 .06.1.1 0 0 1 0 .05.57.57 0 0 1 -.11.11.18.18 0 0 1 -.07.05h-.1c-.05 0-.14 0-.17 0s0-.11.06-.13z" fill="#078930"/><path d="m9.6 17.7a.23.23 0 0 1 -.16 0s0-.09.06-.15l.08-.06a.6.6 0 0 1 .39-.07.11.11 0 0 1 0 .08v.05l-.12.11a.16.16 0 0 1 -.08.05.18.18 0 0 1 -.1 0zm.27-.29a.52.52 0 0 0 -.27.07.18.18 0 0 0 -.07.05s-.07.09-.06.11.1 0 .15 0h.09.07l.11-.11v-.05s0 0 0 0z"/><path d="m11.59 17h.33a1.35 1.35 0 0 0 -.44-.19h-.07l-.41-.24v-.07a.53.53 0 0 0 -.39-.13 0 0 0 0 1 0 0v-.37a2.16 2.16 0 0 0 -1.61-.43 2.16 2.16 0 0 0 -1.58.43v.34a0 0 0 0 1 0 0 .53.53 0 0 0 -.42.16v.07l-.42.21h-.07a1.35 1.35 0 0 0 -.44.19h.33a.62.62 0 0 0 -.28.34 1.6 1.6 0 0 0 .46-.16 1.94 1.94 0 0 1 .33-.15h.09a1.29 1.29 0 0 0 .25.06.11.11 0 0 0 .09-.1v-.2s.6 0 1 0 .43-.24.43-.24.1 0 .14 0 .14 0 .14 0 0 .22.43.24 1 0 1 0v.24a.11.11 0 0 0 .09.1 1.29 1.29 0 0 0 .43-.1h.11a1.94 1.94 0 0 1 .34.18 1.6 1.6 0 0 0 .46.16.62.62 0 0 0 -.32-.34zm-1.81-.74s0-.14-.18-.14a1.37 1.37 0 0 0 -.47.12.18.18 0 0 0 -.28 0 1.37 1.37 0 0 0 -.47-.12c-.19 0-.18.14-.18.14s-.37 0-.37-.1 1-.24 1.16-.24 1.16.1 1.16.24-.37.09-.37.09z" fill="#89c5e3"/><path d="m6.11 17.35a0 0 0 0 1 0 0 .65.65 0 0 1 .22-.35h-.33s0 0 0 0a1.27 1.27 0 0 1 .45-.2h.06l.42-.2v-.1h.07s.1-.13.4-.14a0 0 0 0 0 0 0v-.36a2.18 2.18 0 0 1 1.6-.45 2.18 2.18 0 0 1 1.59.43v.35c.3 0 .4.13.4.14v.06l.42.2h.06a1.27 1.27 0 0 1 .45.2s0 0 0 0h-.29a.65.65 0 0 1 .24.32 0 0 0 0 1 0 0 1.32 1.32 0 0 1 -.47-.17 2.64 2.64 0 0 0 -.33-.17.14.14 0 0 0 -.07.09 1.49 1.49 0 0 1 -.25.06.13.13 0 0 1 -.11-.12v-.18c-.1 0-.63 0-1 0a.55.55 0 0 1 -.39-.13.44.44 0 0 1 -.05-.09.43.43 0 0 1 -.26 0 .44.44 0 0 1 0 .09.55.55 0 0 1 -.39.13c-.39 0-.92 0-1 0v.24a.13.13 0 0 1 -.11.12 1.49 1.49 0 0 1 -.44-.12.14.14 0 0 0 -.11 0 2.64 2.64 0 0 0 -.33.17 1.32 1.32 0 0 1 -.47.17zm.28-.35s0 0 0 0a.64.64 0 0 0 -.26.31 1.63 1.63 0 0 0 .42-.16 2.59 2.59 0 0 1 .35-.15.2.2 0 0 1 .1 0 .77.77 0 0 0 .24.06.08.08 0 0 0 .12-.06v-.2s.61 0 1 0a.52.52 0 0 0 .37-.13.16.16 0 0 0 0-.1s.06 0 .12 0 .12 0 .12 0a0 0 0 0 1 0 0 .16.16 0 0 0 0 .1.52.52 0 0 0 .37.13h1v.2a.08.08 0 0 0 .07.08.71.71 0 0 0 .59-.08.2.2 0 0 1 .13 0 2.59 2.59 0 0 1 .34.17 1.63 1.63 0 0 0 .42.16.64.64 0 0 0 -.26-.31s0 0 0 0h.29a1.29 1.29 0 0 0 -.38-.15s-.06 0-.08 0l-.42-.2v-.08a.54.54 0 0 0 -.37-.12.05.05 0 0 1 0-.05v-.42a2.31 2.31 0 0 0 -1.67-.41 2.31 2.31 0 0 0 -1.57.41v.33a.06.06 0 0 1 0 .06.54.54 0 0 0 -.37.12v.08l-.42.2s0 0-.08 0a1.29 1.29 0 0 0 -.38.15zm3.4-.7a.11.11 0 0 0 0-.07.18.18 0 0 0 -.14-.05 1.29 1.29 0 0 0 -.46.12s0 0 0 0a.16.16 0 0 0 -.26 0s0 0 0 0a1.29 1.29 0 0 0 -.46-.12.18.18 0 0 0 -.14.05.11.11 0 0 0 0 .07s-.29 0-.36-.08a0 0 0 0 1 0 0c0-.17 1-.26 1.17-.26s1.17.09 1.17.26a0 0 0 0 1 0 0 .68.68 0 0 1 -.52.05zm-.79-.37c-.25 0-1.14.11-1.14.22a0 0 0 0 1 0 0 .63.63 0 0 0 .32.06.12.12 0 0 1 0-.08.22.22 0 0 1 .16 0 1.38 1.38 0 0 1 .46.11.2.2 0 0 1 .3 0 1.38 1.38 0 0 1 .46-.11.22.22 0 0 1 .16 0 .12.12 0 0 1 0 .08.63.63 0 0 0 .32-.06 0 0 0 0 1 0 0c.09-.15-.8-.22-1.04-.22z"/><path d="m9.55 17.65a.27.27 0 0 1 .2-.12.21.21 0 0 0 -.2.12z"/><path d="m9.83 17.71a.17.17 0 0 1 .11-.06h.06-.08a.12.12 0 0 0 -.09.06z"/><path d="m10.16 17.82a.13.13 0 0 1 .06-.05h.07.11-.2s-.03.03-.04.05z"/><path d="m10.4 18a.54.54 0 0 1 .22 0 .54.54 0 0 0 -.22 0z"/><path d="m10.68 18.14a.4.4 0 0 1 .24-.05.34.34 0 0 0 -.24.05z"/><path d="m10.93 18.31a.53.53 0 0 1 .18 0 .47.47 0 0 0 -.18 0z"/><path d="m7.25 17.41s0 0 0 0l1.08-.09c.36 0 .38-.25.38-.26a.23.23 0 0 0 -.18-.21 0 0 0 0 1 0 0 .27.27 0 0 1 .2.25s0 .25-.4.29-1.08.1-1.08.1z"/><path d="m8.27 17.13s0 0 0 0a0 0 0 0 1 0 0c.09 0 .22-.05.22-.09a.07.07 0 0 0 0-.05h-.06s0 0 0 0a.11.11 0 0 1 .07 0 .08.08 0 0 1 0 .07c0 .09-.21.12-.26.13z"/><path d="m6.15 18.07a0 0 0 0 1 0 0h.69c.16 0 .36-.15.36-.28a.32.32 0 0 0 -.12-.23s0 0 0 0a.39.39 0 0 1 .13.26c0 .15-.21.3-.39.31s-.69 0-.69 0z"/><path d="m6.93 17.81a0 0 0 0 1 0 0c0-.05.08-.12.06-.15s0 0 0 0 .07 0 .08 0 0 .16-.06.18z"/><path d="m8.2 24.74c-.39 0-.69-.44-.8-.59a4 4 0 0 0 -1.07-.87 2.65 2.65 0 0 1 -1.42-2.08.89.89 0 0 1 .26-.75.42.42 0 0 1 .34-.08 1.06 1.06 0 0 0 .29 0c.16 0 .63-.11.63-.56a.64.64 0 0 0 -.56-.67.51.51 0 0 0 -.35.12 0 0 0 0 1 0 0 .56.56 0 0 1 .38-.13.67.67 0 0 1 .59.7c0 .48-.49.59-.66.59a1.72 1.72 0 0 1 -.29 0 .39.39 0 0 0 -.32.06.89.89 0 0 0 -.24.73 2.61 2.61 0 0 0 1.4 2 4.17 4.17 0 0 1 1.08.88c.11.16.45.64.87.56z"/><path d="m5.78 19.47a0 0 0 0 1 0 0c0-.11-.12-.13-.12-.13s0 0 0 0a1.05 1.05 0 0 1 .19 0s0 0 0 0h-.1a.15.15 0 0 1 .07.15z"/><path d="m6.38 18.74a2.49 2.49 0 0 1 .19 1c0 .55-.49 1.09-.49 1.8a2.33 2.33 0 0 0 1.64 2.17s1.07.24 1.07.44a.94.94 0 0 0 -.3.06s-.09-.3-1.49-.64a2.67 2.67 0 0 1 -1.86-2.39c0-.2-.05-.64.51-.64a.77.77 0 0 0 .87-.79 1.63 1.63 0 0 0 -.32-.88z" fill="#825123"/><path d="m8.49 24.18s0 0 0 0-.12-.24-1.5-.58a2.67 2.67 0 0 1 -1.88-2.4v-.05a.64.64 0 0 1 .13-.47.52.52 0 0 1 .4-.14.76.76 0 0 0 .86-.77 1.67 1.67 0 0 0 -.32-.87l.21-.14a0 0 0 0 1 0 0 2.57 2.57 0 0 1 .19 1 2.19 2.19 0 0 1 -.22.79 2.4 2.4 0 0 0 -.27 1 2.3 2.3 0 0 0 1.63 2.15c.11 0 1.08.25 1.08.46a0 0 0 0 1 0 0 1.13 1.13 0 0 0 -.29.05zm-2.3-5.3a1.59 1.59 0 0 1 .32.87.79.79 0 0 1 -.89.81.52.52 0 0 0 -.38.12.61.61 0 0 0 -.11.45v.05a2.63 2.63 0 0 0 1.87 2.37c1.23.3 1.47.52 1.51.59a1.29 1.29 0 0 1 .28-.06c0-.13-.65-.31-1-.41a2.34 2.34 0 0 1 -1.66-2.18 2.71 2.71 0 0 1 .27-1 1.94 1.94 0 0 0 .23-.77 2.42 2.42 0 0 0 -.19-.93z"/><path d="m8.22 24.61a1.36 1.36 0 0 1 -.67-.42c-.16-.2-.56-.6-.56-.6a0 0 0 0 1 0 0h.01s.4.41.55.6a1.37 1.37 0 0 0 .66.42 0 0 0 0 1 0 0z"/><path d="m8.3 24.62h-.08a.12.12 0 0 1 -.09-.08c0-.18.16-.32.35-.39s0 0 0 0-.37.14-.32.34c0 0 0 .05.05.06a.25.25 0 0 0 .17 0 .08.08 0 0 0 0-.06.35.35 0 0 0 0-.07s-.06 0-.06.08a0 0 0 0 1 0 0s0 0 0 0 0-.11.09-.11a.09.09 0 0 1 .06 0 .2.2 0 0 1 0 .09.1.1 0 0 1 0 .09.2.2 0 0 1 -.17.05z"/><path d="m9 24.12a.54.54 0 0 0 -.2 0 0 0 0 0 1 0 0h.2a0 0 0 0 1 0 0 0 0 0 0 1 0-.04z"/><path d="m8.45 24.84s0 0 0 0a.69.69 0 0 0 .14-.3c0-.16-.09-.24-.29-.24a0 0 0 0 1 0 0c.22 0 .33.1.33.28a.66.66 0 0 1 -.15.32z"/><path d="m8.91 25a.54.54 0 0 1 -.18-.11.51.51 0 0 0 -.2-.12 0 0 0 0 1 0 0 .46.46 0 0 1 .23.12.36.36 0 0 0 .16.11s0 0 0 0z"/><path d="m6.11 20.54a.07.07 0 0 0 .06.07.07.07 0 1 0 0-.14.07.07 0 0 0 -.06.07z" fill="url(#ao)"/><path d="m6.17 20.61a.07.07 0 1 1 .07-.07.07.07 0 0 1 -.07.07zm0-.13a.06.06 0 0 0 -.06.06.06.06 0 0 0 .06.06s.07 0 .07-.06a.07.07 0 0 0 -.07-.06z"/><path d="m5.89 20.74a.12.12 0 0 0 .12.12.12.12 0 0 0 .12-.12.12.12 0 0 0 -.13-.12.13.13 0 0 0 -.11.12z" fill="url(#ap)"/><path d="m6 20.86a.12.12 0 1 1 0-.24.12.12 0 1 1 0 .24zm0-.23a.11.11 0 0 0 0 .22.11.11 0 1 0 0-.22z"/><path d="m5.78 21a.12.12 0 0 0 .11.12.12.12 0 0 0 .11-.12.11.11 0 0 0 -.12-.11.11.11 0 0 0 -.1.11z" fill="url(#aq)"/><path d="m5.89 21.14a.11.11 0 0 1 -.11-.14.12.12 0 0 1 .11-.12.12.12 0 0 1 .11.12.12.12 0 0 1 -.11.14zm0-.23a.11.11 0 1 0 .11.09.11.11 0 0 0 -.11-.09z"/><path d="m5.76 21.29a.11.11 0 1 0 .11-.11.11.11 0 0 0 -.11.11z" fill="url(#ar)"/><path d="m5.87 21.41a.11.11 0 0 1 -.11-.12.11.11 0 0 1 .11-.11.11.11 0 0 1 .12.11.12.12 0 0 1 -.12.12zm0-.22a.11.11 0 0 0 -.1.1.11.11 0 0 0 .1.11.11.11 0 0 0 .13-.11.11.11 0 0 0 -.13-.1z"/><path d="m5.79 21.57a.11.11 0 0 0 .1.11.11.11 0 0 0 .11-.11.1.1 0 0 0 -.11-.1.1.1 0 0 0 -.1.1z" fill="url(#as)"/><path d="m5.89 21.68a.11.11 0 1 1 .11-.11.11.11 0 0 1 -.11.11zm0-.21a.11.11 0 0 0 -.1.1.1.1 0 0 0 .1.1.09.09 0 0 0 .1-.1.1.1 0 0 0 -.1-.1z"/><circle cx="5.93" cy="21.82" fill="url(#at)" r=".1"/><path d="m5.93 21.92a.1.1 0 1 1 0-.2.1.1 0 1 1 0 .2zm0-.2a.1.1 0 0 0 0 .2.1.1 0 0 0 0-.2z"/><path d="m5.89 22a.09.09 0 1 0 .11-.06.09.09 0 0 0 -.11.06z" fill="url(#au)"/><path d="m6 22.12a.09.09 0 0 1 -.11-.12.1.1 0 0 1 .09-.1.1.1 0 0 1 .1.1.09.09 0 0 1 -.08.12zm0-.18a.09.09 0 0 0 -.1.06.08.08 0 0 0 .08.08.08.08 0 0 0 .09-.08.09.09 0 0 0 -.07-.06z"/><path d="m6 22.21a.08.08 0 0 0 .08.08.09.09 0 0 0 .08-.08.08.08 0 0 0 -.16-.08.07.07 0 0 0 0 .08z" fill="url(#av)"/><path d="m6 22.29a.09.09 0 0 1 -.09-.08.08.08 0 0 1 .09-.08.08.08 0 0 1 .08.08.09.09 0 0 1 -.08.08zm0-.16a.09.09 0 0 0 -.08.08.08.08 0 0 0 .08.07.07.07 0 0 0 .07-.07.08.08 0 0 0 -.07-.08z"/><path d="m6 22.37a.07.07 0 0 0 .14 0 .07.07 0 1 0 -.14 0z" fill="url(#aw)"/><path d="m6.1 22.44a.07.07 0 1 1 .07-.07.07.07 0 0 1 -.07.07zm0-.13a.06.06 0 0 0 -.06.06.06.06 0 0 0 .06.06.06.06 0 0 0 .06-.06.05.05 0 0 0 -.06-.06z"/><circle cx="6.17" cy="22.52" fill="url(#ax)" r=".06"/><path d="m6.17 22.58a.07.07 0 0 1 -.07-.06.07.07 0 0 1 .07-.07.07.07 0 0 1 .06.07.06.06 0 0 1 -.06.06zm0-.12a.06.06 0 1 0 .06.06.06.06 0 0 0 -.06-.06z"/><path d="m6.2 22.65a.06.06 0 0 0 0 .06.06.06 0 1 0 0-.12.06.06 0 0 0 0 .06z" fill="url(#ay)"/><path d="m6.25 22.71a.06.06 0 0 1 -.06-.06.06.06 0 0 1 .06-.06.07.07 0 0 1 .07.06s-.03.06-.07.06zm0-.11a0 0 0 1 0 0 .1.05.05 0 1 0 0-.1z"/><circle cx="6.33" cy="22.78" fill="url(#az)" r=".05"/><path d="m6.33 22.83a.06.06 0 0 1 -.06 0 .06.06 0 1 1 .12 0 .06.06 0 0 1 -.06 0zm0-.1a0 0 0 0 0 0 .05.05.05 0 0 0 .1 0 0 0 0 0 0 -.1-.05z"/><path d="m6.37 22.88a.05.05 0 0 0 0 .05.06.06 0 0 0 0-.05.05.05 0 0 0 0-.05 0 0 0 0 0 0 .05z" fill="url(#aA)"/><path d="m6.42 22.93a.06.06 0 0 1 -.06-.05.06.06 0 0 1 .06-.06.06.06 0 0 1 0 .06 0 0 0 0 1 0 .05zm0-.1a0 0 0 0 0 0 .05 0 0 0 0 0 0-.05z"/><path d="m6.47 23a0 0 0 1 0 .08 0 0 0 0 0 0 -.08 0z" fill="url(#aB)"/><path d="m6.51 23a.05.05 0 1 1 0-.05 0 0 0 0 1 0 .05zm0-.09a0 0 0 0 0 0 .08 0 0 0 0 0 0-.08 0 0 0 0 0 0 .02z"/><path d="m6.56 23.06a0 0 0 0 0 .08 0 0 0 0 0 0 -.08 0z" fill="url(#aC)"/><path d="m6.6 23.1a0 0 0 0 1 0-.08 0 0 0 1 1 0 .08zm0-.07a0 0 0 0 0 0 .06s0 0 0 0 .02-.09 0-.09z"/><path d="m6.67 23.15a0 0 0 0 0 .06 0s0 0 0 0-.06-.02-.06 0z" fill="url(#aD)"/><path d="m6.7 23.19a0 0 0 0 1 0-.08 0 0 0 0 1 0 .08zm0-.07a0 0 0 1 0 0 .06 0 0 0 0 0 0-.06z"/><path d="m6.76 23.22a0 0 0 0 0 0 0z" fill="url(#aE)"/><path d="m6.79 23.26a0 0 0 0 1 0 0s0 0 0 0a0 0 0 0 1 0 0zm0-.06s0 0 0 0a0 0 0 0 0 0 0s0 0 0 0a0 0 0 0 0 0 0z"/><path d="m6.84 23.28a0 0 0 0 0 0 0s0 0 0 0a0 0 0 0 0 0 0s0-.01 0 0z" fill="url(#aF)"/><path d="m6.86 23.31a0 0 0 1 1 0-.06 0 0 0 0 1 0 .06zm0 0a0 0 0 0 0 0 0 0 0 0 0 0 0-.01z"/><path d="m6.91 23.32s0 0 0 0a0 0 0 0 0 0 0 0 0 0 0 0 .09 0z" fill="url(#aG)"/><path d="m6.93 23.35a0 0 0 0 1 0 0s0 0 0 0a0 0 0 0 1 0 0s.01 0 0 0zm0 0a0 0 0 0 0 0 0s0 0 0 0a0 0 0 0 0 0-.04z"/><circle cx="7.05" cy="23.41" fill="url(#aH)" r=".01"/><path d="m7.05 23.42h-.05a0 0 0 0 1 0 0z"/><path d="m5.59 20.74a.13.13 0 0 0 .14.11.12.12 0 0 0 .1-.14.12.12 0 0 0 -.13-.1.13.13 0 0 0 -.11.13z" fill="url(#aI)"/><path d="m5.71 20.85a.13.13 0 0 1 -.12-.11.16.16 0 0 1 0-.09.12.12 0 0 1 .08 0 .11.11 0 0 1 .13.1.12.12 0 0 1 -.1.14zm0-.24a.14.14 0 0 0 -.08.05.08.08 0 0 0 0 .08.11.11 0 0 0 .13.1.12.12 0 0 0 .1-.13.12.12 0 0 0 0-.07.09.09 0 0 0 -.15-.03z"/><path d="m5.48 21a.12.12 0 0 0 .13.1.13.13 0 0 0 .1-.13.12.12 0 0 0 -.13-.1.11.11 0 0 0 -.1.13z" fill="url(#aJ)"/><path d="m5.59 21.12h-.07a.12.12 0 0 1 0-.08.1.1 0 0 1 .1-.13.12.12 0 0 1 .13.1.15.15 0 0 1 0 .09.12.12 0 0 1 -.08 0zm-.11-.12a.12.12 0 0 0 0 .07.08.08 0 0 0 .08 0 .13.13 0 0 0 .07 0 .08.08 0 0 0 0-.08.11.11 0 0 0 -.12-.1.13.13 0 0 0 -.1.13z"/><path d="m5.47 21.3a.1.1 0 0 0 .12.09.1.1 0 0 0 .09-.12.11.11 0 1 0 -.21 0z" fill="url(#aK)"/><path d="m5.58 21.4a.13.13 0 0 1 -.08 0 .16.16 0 0 1 0-.07.16.16 0 0 1 0-.09.1.1 0 0 1 .07 0 .15.15 0 0 1 .09 0 .12.12 0 0 1 0 .08.11.11 0 0 1 0 .08s0 0-.07 0zm-.11-.11a.08.08 0 0 0 0 .07.11.11 0 0 0 .08 0h.07a.11.11 0 0 0 0-.08.1.1 0 0 0 0-.07.11.11 0 0 0 -.08 0 .13.13 0 0 0 -.07 0 .19.19 0 0 0 0 .07z"/><path d="m5.51 21.58a.11.11 0 0 0 .11.1.12.12 0 0 0 .1-.12.1.1 0 0 0 -.12-.09.1.1 0 0 0 -.09.11z" fill="url(#aL)"/><path d="m5.61 21.68a.12.12 0 0 1 -.11-.09.13.13 0 0 1 .1-.13.11.11 0 0 1 .08 0 .1.1 0 0 1 0 .07.11.11 0 0 1 0 .08.12.12 0 0 1 -.08 0zm-.1-.1a.1.1 0 0 0 .11.09.08.08 0 0 0 .07 0 .08.08 0 0 0 0-.07.08.08 0 0 0 0-.07h-.07a.12.12 0 0 0 -.09.11z"/><path d="m5.55 21.83a.1.1 0 1 0 .09-.11.1.1 0 0 0 -.09.11z" fill="url(#aM)"/><path d="m5.65 21.92a.09.09 0 0 1 -.1-.09.1.1 0 1 1 .2 0 .06.06 0 0 1 0 .07.08.08 0 0 1 -.07 0zm0-.2a.08.08 0 0 0 -.08.1.08.08 0 0 0 .1.08.09.09 0 0 0 .07 0 .19.19 0 0 0 0-.07.11.11 0 0 0 -.09-.11z"/><path d="m5.64 22.07a.09.09 0 1 0 .18 0 .09.09 0 0 0 -.1-.08.08.08 0 0 0 -.08.08z" fill="url(#aN)"/><path d="m5.73 22.15a.07.07 0 0 1 -.06 0 .07.07 0 0 1 0-.06.1.1 0 0 1 .05-.09h.07a.09.09 0 0 1 0 .07.07.07 0 0 1 0 .07.07.07 0 0 1 -.06 0zm0-.18a.1.1 0 0 0 -.08.1v.06a.06.06 0 0 0 .06 0 .09.09 0 0 0 .06 0 .07.07 0 0 0 0-.06.09.09 0 0 0 0-.06z"/><path d="m5.74 22.28a.08.08 0 0 0 .09.07.08.08 0 0 0 0-.16.08.08 0 0 0 -.09.09z" fill="url(#aO)"/><path d="m5.82 22.35s0 0-.05 0a.05.05 0 0 1 0 0 .06.06 0 0 1 0-.06.09.09 0 0 1 .06 0 .07.07 0 0 1 .09.07.07.07 0 0 1 -.07.09zm0-.16a.14.14 0 0 0 0 .06.07.07 0 0 0 .06 0 .06.06 0 0 0 .06-.08.07.07 0 0 0 -.12.02z"/><path d="m5.85 22.44a.07.07 0 0 0 .13 0 .06.06 0 0 0 -.07-.06.07.07 0 0 0 -.06.06z" fill="url(#aP)"/><path d="m5.92 22.51a.08.08 0 0 1 0 0s0 0 0-.05a.08.08 0 0 1 .08.07s0 0 0 .05zm0-.14s0 0 0 0a.08.08 0 0 0 0 0s0 0 0 0a.05.05 0 0 0 0 0 .06.06 0 0 0 0 0 .05.05 0 0 0 0 0z"/><path d="m6 22.59a.06.06 0 1 0 0-.07.05.05 0 0 0 0 .07z" fill="url(#aQ)"/><path d="m6 22.65a.09.09 0 0 1 -.07-.06.07.07 0 1 1 .14 0 .08.08 0 0 1 -.06.08zm0-.13a.07.07 0 0 0 0 .07.08.08 0 0 0 0 0 .07.07 0 0 0 .05-.07.08.08 0 0 0 0 0z"/><path d="m6.06 22.73a.06.06 0 0 0 .06.05.05.05 0 0 0 0-.06 0 0 0 0 0 -.06 0 .06.06 0 0 0 0 .01z" fill="url(#aR)"/><path d="m6.12 22.78a.08.08 0 0 1 -.07-.05s0-.07.06-.07a.07.07 0 0 1 .07.06.06.06 0 0 1 -.06.06zm-.06-.05a.06.06 0 1 0 .11 0 .06.06 0 0 0 -.11 0z"/><path d="m6.17 22.87a.06.06 0 0 0 .06.05s0 0 0-.06a.06.06 0 0 0 -.06-.05 0 0 0 0 0 0 .06z" fill="url(#aS)"/><path d="m6.22 22.92a.05.05 0 0 1 0 0s0 0 0 0 .06 0 .07.05a.08.08 0 0 1 0 0s0 0 0 0zm0-.11a.06.06 0 0 0 0 0 0 0 0 0 0 0 0s0 0 0 0z"/><path d="m6.26 23a.06.06 0 0 0 .06.05.07.07 0 0 0 0-.06s0 0-.05 0a.05.05 0 0 0 -.01.01z" fill="url(#aT)"/><path d="m6.31 23s0 0 0 0zm0-.09s0 0 0 0a0 0 0 0 0 0 0s0 0 0 0h.07s0 0 0 0a0 0 0 0 0 0 0z"/><path d="m6.38 23.07a0 0 0 0 0 0 0s0 0 0-.05a0 0 0 0 0 0 0s-.01-.02 0 .05z" fill="url(#aU)"/><path d="m6.42 23.11a.07.07 0 0 1 0 0 .06.06 0 0 1 0 0 .05.05 0 0 1 0 0 0 0 0 0 1 0 0zm0-.09a.05.05 0 0 0 0 .05s0 0 0 0a0 0 0 0 0 0 0z"/><path d="m6.48 23.16s0 0 0 0a0 0 0 0 0 0 0z" fill="url(#aV)"/><path d="m6.52 23.2s0 0 0 0a0 0 0 0 1 0 0 .07.07 0 0 1 0 .05zm0-.08a0 0 0 0 0 0 0s0 0 0 0z"/><path d="m6.6 23.24a0 0 0 0 0 0 0s0 0 0 0a0 0 0 0 0 0 0s-.01-.02 0 0z" fill="url(#aW)"/><path d="m6.63 23.27a0 0 0 0 1 0 0s0 0 0 0a0 0 0 0 1 0 0zm0-.07a0 0 0 0 0 0 0 0 0 0 0 1 0 0s0 0 0 0a0 0 0 0 0 0 0z"/><path d="m6.69 23.31s0 0 0 0a0 0 0 0 0 0 0z" fill="url(#aX)"/><path d="m6.72 23.34a0 0 0 0 1 0 0s0 0 0 0zm0 0s0 0 0 0z"/><path d="m6.79 23.36a0 0 0 0 0 0 0s-.01-.02 0 0z" fill="url(#aY)"/><path d="m6.81 23.38s0 0 0 0zm0-.05a0 0 0 0 0 0 0z"/><path d="m6.86 23.4a0 0 0 0 0 0 0s0-.01 0 0z" fill="url(#aZ)"/><path d="m6.88 23.43a0 0 0 0 1 0 0s0 0 0 0zm0-.05a0 0 0 0 0 0 0s0 0 0 0z"/><path d="m7 23.47s0 0 0 0z" fill="url(#a0)"/><path d="m7 23.48s0 0 0 0z"/><path d="m5.3 20.77a.13.13 0 0 0 .15.09.12.12 0 0 0 .08-.15.11.11 0 0 0 -.14-.08.12.12 0 0 0 -.09.14z" fill="url(#a1)"/><path d="m5.42 20.86h-.06a.16.16 0 0 1 -.06-.08.13.13 0 0 1 0-.09.16.16 0 0 1 .08-.06.1.1 0 0 1 .09 0 .11.11 0 0 1 .06.07.13.13 0 0 1 -.09.15zm-.11-.09a.12.12 0 0 0 .05.07.14.14 0 0 0 .09 0 .11.11 0 0 0 .08-.14.18.18 0 0 0 0-.07.14.14 0 0 0 -.09 0 .18.18 0 0 0 -.07.05.14.14 0 0 0 0 .09z"/><path d="m5.19 21.05a.11.11 0 0 0 .14.08.11.11 0 0 0 .08-.13.12.12 0 0 0 -.14-.08.11.11 0 0 0 -.08.13z" fill="url(#a2)"/><path d="m5.3 21.14a.12.12 0 0 1 -.11-.09.1.1 0 0 1 0-.09s0-.05.07-.05a.12.12 0 0 1 .15.08.13.13 0 0 1 0 .09.11.11 0 0 1 -.07.06zm0-.23a.07.07 0 0 0 -.06 0 .11.11 0 0 0 0 .08.12.12 0 0 0 .14.08.1.1 0 0 0 .06-.05.13.13 0 0 0 0-.08.13.13 0 0 0 -.14-.03z"/><path d="m5.18 21.32a.12.12 0 0 0 .13.08.11.11 0 1 0 0-.21.11.11 0 0 0 -.13.13z" fill="url(#a3)"/><path d="m5.29 21.41a.12.12 0 0 1 -.11-.09.11.11 0 0 1 .08-.14.15.15 0 0 1 .09 0 .13.13 0 0 1 .05.07.11.11 0 0 1 -.08.13zm0-.22a.11.11 0 0 0 -.07.13.1.1 0 0 0 .12.08.12.12 0 0 0 .08-.13.12.12 0 0 0 0-.07z"/><path d="m5.23 21.61a.11.11 0 0 0 .13.08.11.11 0 0 0 .07-.13.1.1 0 0 0 -.12-.08.11.11 0 0 0 -.08.13z" fill="url(#a4)"/><path d="m5.33 21.69s0 0 0-.07a.1.1 0 0 1 .08-.13.11.11 0 0 1 .13.08.11.11 0 0 1 0 .08.12.12 0 0 1 -.07.05zm0-.21a.09.09 0 0 0 -.07.12.08.08 0 0 0 0 .06.11.11 0 0 0 .08 0s0 0 .06 0a.11.11 0 0 0 0-.08.1.1 0 0 0 -.07-.1z"/><path d="m5.28 21.87a.11.11 0 0 0 .12.07.1.1 0 0 0 .08-.12.1.1 0 0 0 -.12-.07.1.1 0 0 0 -.08.12z" fill="url(#a5)"/><path d="m5.38 22a.1.1 0 0 1 -.1-.08.11.11 0 0 1 .07-.13.11.11 0 0 1 .13.08.11.11 0 0 1 0 .08.18.18 0 0 1 -.08.05zm-.09-.08a.09.09 0 0 0 .11.07s0 0 .06-.05a.08.08 0 0 0 0-.07.09.09 0 0 0 -.11-.07.09.09 0 0 0 -.07.12z"/><path d="m5.4 22.12a.1.1 0 0 0 .11.07.09.09 0 1 0 -.11-.07z" fill="url(#a6)"/><path d="m5.49 22.19a.09.09 0 0 1 -.09-.07.09.09 0 0 1 .18 0 .06.06 0 0 1 0 .07.07.07 0 0 1 -.06 0zm-.08-.07a.08.08 0 0 0 .1.06s0 0 .06 0a.06.06 0 0 0 0-.06.08.08 0 0 0 -.1-.06.08.08 0 0 0 -.06.1z"/><path d="m5.53 22.35a.08.08 0 1 0 .15 0 .08.08 0 0 0 -.09-.06.08.08 0 0 0 -.06.06z" fill="url(#a7)"/><path d="m5.61 22.41h-.05a.1.1 0 0 1 0 0 .13.13 0 0 1 0-.06s0 0 .06 0a.07.07 0 0 1 .06 0 .1.1 0 0 1 0 0 .13.13 0 0 1 0 .06.07.07 0 0 1 0 0zm0-.15a.05.05 0 0 0 0 0 .13.13 0 0 0 0 .06.08.08 0 0 0 0 0 0 0 0 0 0 0 0 .05.05 0 0 0 0 0 .13.13 0 0 0 0-.06.08.08 0 0 0 0 0z"/><path d="m5.64 22.53a.07.07 0 0 0 .08 0 .06.06 0 0 0 0-.08.07.07 0 0 0 -.08-.05.07.07 0 0 0 0 .13z" fill="url(#a8)"/><path d="m5.71 22.59s-.07 0-.07-.06a.07.07 0 0 1 .05-.08.07.07 0 0 1 .09.05.08.08 0 0 1 -.06.09zm-.06-.06a.05.05 0 0 0 .07 0 .07.07 0 0 0 0-.08s0 0 0 0-.05 0 0 .07z"/><path d="m5.79 22.71a.06.06 0 0 0 .07 0s.06 0 0-.07a.06.06 0 0 0 -.08-.05.06.06 0 0 0 .01.12z" fill="url(#a9)"/><path d="m5.85 22.76a.08.08 0 0 1 -.07-.05.08.08 0 0 1 0-.08s.08 0 .08.05a.07.07 0 0 1 0 .08zm-.06-.05a.06.06 0 0 0 .07 0 .08.08 0 0 0 0-.07.06.06 0 0 0 -.07 0s0 0 0 .07z"/><path d="m5.91 22.86s0 .05.07 0a.06.06 0 1 0 0-.11s-.08.08-.07.11z" fill="url(#ba)"/><path d="m6 22.91a.06.06 0 0 1 0-.08s.06 0 .07 0 0 0 0 .05 0 0 0 0zm0-.05s0 0 0 0a0 0 0 0 0 -.06 0 .06.06 0 0 0 0 .07z"/><path d="m6 23a.07.07 0 0 0 .07 0 .06.06 0 0 0 0-.07.07.07 0 0 0 -.07 0 .08.08 0 0 0 0 .07z" fill="url(#bb)"/><path d="m6.09 23a0 0 0 0 1 0 0 .06.06 0 0 1 .11 0s0 0 0 0zm0-.1s-.09.1-.09.1.11-.08.09-.08z"/><path d="m6.16 23.08a0 0 0 0 0 .06 0 0 0 0 0 0 0-.06s0 0-.06 0a0 0 0 0 0 0 .06z" fill="url(#bc)"/><path d="m6.2 23.13a.06.06 0 0 1 0-.11.06.06 0 0 1 .07 0s0 .06 0 .06zm0-.1a.05.05 0 0 0 0 0 .05.05 0 0 0 .06 0 .06.06 0 0 0 0-.06.05.05 0 0 0 -.06.03z"/><path d="m6.29 23.17a0 0 0 0 0 0 0 0 0 0 1 0 0-.08s-.01.06 0 .08z" fill="url(#bd)"/><path d="m6.33 23.21a.05.05 0 0 1 0 0 .06.06 0 0 1 0-.06s0 0 0 0a.05.05 0 0 1 0 .06zm0 0a0 0 0 1 0 .08 0 0 0 0 0 0 0 0 .05.05 0 0 0 0 .05z"/><path d="m6.41 23.26s0 0 0 0 0 0 0-.05 0 0 0 0-.01.03 0 .05z" fill="url(#be)"/><path d="m6.45 23.29a.05.05 0 0 1 0 0s0-.05 0-.05a0 0 0 0 1 0 0zm0-.08a.05.05 0 0 0 0 .05s0 0 0 0z"/><path d="m6.53 23.33s0 0 0 0a.05.05 0 0 0 0 0s0-.02 0 0z" fill="url(#bf)"/><path d="m6.56 23.36a0 0 0 0 1 0 0s0 0 0 0zm0-.06s0 0 0 0z"/><path d="m6.64 23.39s0 0 0 0-.01-.01 0 0z" fill="url(#bg)"/><path d="m6.67 23.42s0 0 0 0a.05.05 0 0 1 0 0 0 0 0 0 1 0 0s0 0 0 0zm0 0s0 0 0 0z"/><path d="m6.73 23.44s0 0 0 0 0-.02 0 0z" fill="url(#bh)"/><path d="m6.75 23.46s0 0 0 0zm0 0s0 0 0 0a0 0 0 0 0 0 0s0 0 0 0z"/><path d="m6.82 23.48s0 0 0 0a0 0 0 0 0 0 0s-.01-.01 0 0z" fill="url(#bi)"/><path d="m6.84 23.5s0 0 0 0zm0 0s0 0 0 0z"/><path d="m6.9 23.51a0 0 0 0 0 0 0s0 0 0 0 0-.01 0 0z" fill="url(#bj)"/><path d="m6.91 23.52s0 0 0 0zm0 0a0 0 0 0 0 0-.03z"/><path d="m7 23.53a0 0 0 0 0 0 0z" fill="url(#bk)"/><path d="m7 23.54s0 0 0 0z"/><path d="m9.37 17.31h-.14l-.24.26-.24-.26h-.14l.32.32-.25.23h.09l.22-.18.22.18h.09l-.25-.23z" fill="#078930"/><path d="m9.34 17.88h-.14l-.2-.18-.21.18h-.15l.26-.25-.34-.34h.2l.23.25.23-.25h.2l-.34.34zm-.13 0-.21-.25.3-.3h-.06l-.24.26-.25-.26h-.1l.3.3-.23.21.28-.19z"/><path d="m6.45 18.32.09.24-.11.04-.1-.12v-.11z" fill="#fff"/><path d="m6.43 18.61-.1-.12v-.11s0 0 0 0l.12-.05.09.25h-.11zm-.08-.14.09.11h.08l-.08-.21h-.09z"/><path d="m8.75 17.65v.23l-.21-.02-.01-.16.06-.06z" fill="#fff"/><path d="m8.75 17.9h-.21s0 0 0 0v-.16l.07-.06h.17a0 0 0 0 1 0 0v.23zm-.19-.06h.17v-.19h-.13l-.06.05z"/><path d="m6.13 18.47.08.24.13-.07.01-.14-.09-.09z" fill="#fff"/><path d="m6.21 18.73-.09-.23s0 0 0 0l.13-.07.09.09a0 0 0 0 1 0 0v.14l-.13.06zm-.06-.25.07.2.1-.05v-.12l-.07-.08z"/><path d="m8.55 17.52v-.05s0 0 0 0 0 0 0-.05a0 0 0 0 0 0 0 .09.09 0 0 0 0 .1.22.22 0 0 0 .05.08l.07.08s.07 0 0 0z" fill="#078930"/><path d="m8.62 17.67h-.05l-.07-.07a.33.33 0 0 1 -.06-.1.09.09 0 0 1 0-.11.08.08 0 0 1 0 0 .06.06 0 0 1 0 0s0 0 0 0v.05l.06.06s0 .05 0 .06.14.11.12.11zm-.14-.3s0 .05 0 .07a.24.24 0 0 0 .06.08l.06.08a0 0 0 0 0 0 0l-.06-.06v-.05a.17.17 0 0 1 0-.07z"/><path d="m6.9 18.15a.41.41 0 0 0 -.28.09s0 0 0 0a.46.46 0 0 0 .28.08s.28-.05.26-.1-.08-.07-.11-.08a.35.35 0 0 0 -.15.01z" fill="#078930"/><path d="m6.85 18.38a.35.35 0 0 1 -.25-.09 0 0 0 0 1 0 0s0 0 0 0a.45.45 0 0 1 .29-.1h.14c.06 0 .12 0 .13.08 0 .06-.28.09-.28.09zm-.23-.12a.34.34 0 0 0 .25.07c.08 0 .25-.05.26-.08a.29.29 0 0 0 -.13-.05.31.31 0 0 0 -.13 0 .33.33 0 0 0 -.27.09z"/><path d="m6.84 18s0 0 0 0a.46.46 0 0 0 .29.13s.32 0 .26-.14-.12.01-.16.01a.61.61 0 0 0 -.23 0 .46.46 0 0 0 -.16 0z" fill="#078930"/><path d="m7.12 18.22a.43.43 0 0 1 -.3-.13 0 0 0 0 1 0 0 .8.8 0 0 1 .18-.09.62.62 0 0 1 .19 0 .26.26 0 0 1 .15.07.07.07 0 0 1 0 .08c.02.06-.16.07-.22.07zm-.29-.16a.5.5 0 0 0 .28.12s.22 0 .25-.07 0 0 0 0a.26.26 0 0 0 -.12-.11.55.55 0 0 0 -.24 0 .71.71 0 0 0 -.2 0z"/><path d="m7.15 17.87s0 0 0 0a.46.46 0 0 0 .29.15.47.47 0 0 0 .16 0s.1-.07.1-.12-.1-.06-.14-.07h-.19a.79.79 0 0 0 -.22.04z" fill="#078930"/><path d="m7.45 18.07a.46.46 0 0 1 -.31-.15s0 0 0-.05a.78.78 0 0 1 .22 0 .69.69 0 0 1 .2 0s.13 0 .14.08-.07.11-.11.13a.32.32 0 0 1 -.14-.01zm-.3-.18a.47.47 0 0 0 .28.14.28.28 0 0 0 .15 0s.09-.05.09-.1-.07 0-.1 0h-.2a.8.8 0 0 0 -.21.05z"/><path d="m7.34 17.67s0 .06.06.07l.2.11a.49.49 0 0 0 .21 0 .33.33 0 0 0 .19-.04s0-.09-.07-.1a.75.75 0 0 0 -.36-.07z" fill="#078930"/><path d="m7.77 17.9a.39.39 0 0 1 -.18 0 .93.93 0 0 1 -.2-.1.16.16 0 0 1 -.07-.09.64.64 0 0 1 .2 0 .86.86 0 0 1 .36.07s.08 0 .09.08a.06.06 0 0 1 0 .05.32.32 0 0 1 -.17.08zm-.41-.22v.05l.19.1a.41.41 0 0 0 .21 0 .18.18 0 0 0 .24-.03s0 0 0 0 0 0-.07-.05a.84.84 0 0 0 -.35-.07z"/><path d="m8 17.51a.5.5 0 0 0 -.32 0s0 .06 0 .09a.52.52 0 0 0 .25.14.4.4 0 0 0 .24 0s0 0 0 0a.39.39 0 0 0 -.1-.08z" fill="#078930"/><path d="m8 17.78a.45.45 0 0 1 -.26-.14.21.21 0 0 1 -.06-.1.53.53 0 0 1 .33 0h-.01a.52.52 0 0 1 .13.06.39.39 0 0 1 .1.08.09.09 0 0 1 0 .05s0 0 0 .05a.41.41 0 0 1 -.23 0zm-.35-.24a.15.15 0 0 0 0 .06.54.54 0 0 0 .24.14.37.37 0 0 0 .23 0s0 0 0 0l-.1-.07h-.12.1a.48.48 0 0 0 -.31-.13z"/><path d="m8.39 17.46a.63.63 0 0 0 -.39-.06.14.14 0 0 0 0 .06.1.1 0 0 0 0 .05.57.57 0 0 0 .11.11.18.18 0 0 0 .07.05h.1.17s0-.11-.06-.13z" fill="#078930"/><path d="m8.38 17.7a.18.18 0 0 1 -.1 0 .16.16 0 0 1 -.08-.05l-.12-.11v-.05a.11.11 0 0 1 0-.08h-.08a.6.6 0 0 1 .39.07l.08.06c.07.06.09.12.06.15a.23.23 0 0 1 -.15.01zm-.38-.29s0 0 0 0v.05l.11.11h.07.09.15s0-.06-.06-.11a.18.18 0 0 0 -.07-.05.54.54 0 0 0 -.29 0z"/><path d="m8.43 17.65a.21.21 0 0 0 -.17-.1.27.27 0 0 1 .2.12z"/><path d="m8.15 17.71a.12.12 0 0 0 -.08-.05h-.07-.08.11a.17.17 0 0 1 .11.06z"/><path d="m7.82 17.82h-.21.11.07a.13.13 0 0 1 .06.05z"/><path d="m7.58 18a.54.54 0 0 0 -.21-.05.54.54 0 0 1 .22 0z"/><path d="m7.3 18.14a.34.34 0 0 0 -.22 0 .4.4 0 0 1 .24.05z"/><path d="m7.05 18.31a.47.47 0 0 0 -.17 0 .53.53 0 0 1 .18 0z"/><path d="m12.17 18.86c-.07-.14-.36-.25-.47-.3s0 0 0 0 .3-.06 0-.19-.18 0-.13.11 0 0 0 0a1.75 1.75 0 0 1 -.88-.4 2.41 2.41 0 0 0 -1.27-.49c-.26 0-.18.08-.12.12a0 0 0 0 1 0 .07.72.72 0 0 1 -.31 0 .72.72 0 0 1 -.31 0 0 0 0 0 1 0-.07c.06 0 .14-.12-.12-.12a2.41 2.41 0 0 0 -1.27.49 1.75 1.75 0 0 1 -.88.4s0 0 0 0 .15-.25-.13-.11-.08.18 0 .19 0 0 0 0-.4.16-.47.3v.28a.79.79 0 0 1 .44-.14.17.17 0 0 0 .12 0 .1.1 0 0 0 0-.12 0 0 0 0 1 0 0 .09.09 0 0 1 .09 0s0 0 0 0a.07.07 0 0 0 .08.05 2.16 2.16 0 0 0 .87-.38 1.51 1.51 0 0 1 1.15-.42s0 .14.33.14.33-.14.33-.14a1.51 1.51 0 0 1 1.15.42 2.16 2.16 0 0 0 .87.38.07.07 0 0 0 .08-.05s0 0 .05 0a.09.09 0 0 1 .09 0 0 0 0 0 1 0 0 .1.1 0 0 0 0 .12.17.17 0 0 0 .12 0 .79.79 0 0 1 .44.16v-.28z" fill="#fff"/><path d="m12.17 19.15a.73.73 0 0 0 -.43-.15.25.25 0 0 1 -.13 0 .12.12 0 0 1 0-.15.09.09 0 0 0 -.06 0 .07.07 0 0 0 0 .05.1.1 0 0 1 -.1.06 2.3 2.3 0 0 1 -.88-.38 1.46 1.46 0 0 0 -1.1-.4.09.09 0 0 1 0 .05.42.42 0 0 1 -.32.09.42.42 0 0 1 -.32-.09.09.09 0 0 1 0-.05 1.46 1.46 0 0 0 -1.1.4 2.3 2.3 0 0 1 -.88.38.1.1 0 0 1 -.1-.06.07.07 0 0 0 0-.05.09.09 0 0 0 -.06 0 .12.12 0 0 1 0 .15.25.25 0 0 1 -.13 0 .73.73 0 0 0 -.43.15s0 0 0 0v-.26a0 0 0 0 1 0 0c.06-.13.29-.23.42-.28-.06 0-.16 0-.17-.09s0-.09.15-.14.18-.06.2 0 0 .08 0 .17a1.75 1.75 0 0 0 .87-.39 2.42 2.42 0 0 1 1.28-.5c.13 0 .18 0 .2.06s0 .06-.08.09 0 0 0 0a.51.51 0 0 0 .23 0h.14a.51.51 0 0 0 .23 0s0 0 0 0-.08-.07-.08-.09.07-.06.2-.06a2.42 2.42 0 0 1 1.28.5 1.75 1.75 0 0 0 .87.39c-.06-.09-.07-.14 0-.17s.09 0 .2 0 .16.1.15.14-.11.08-.17.09c.13.05.36.15.42.28a0 0 0 0 1 0 0v.26zm-.43-.15a.85.85 0 0 1 .42.14v-.22c-.06-.12-.29-.22-.41-.27h-.05a.05.05 0 0 1 0 0c.08 0 .14 0 .14-.06s0 0-.12-.1-.16 0-.17 0 0 0 0 .13a0 0 0 0 1 0 0s0 0 0 0a1.78 1.78 0 0 1 -.89-.41 2.41 2.41 0 0 0 -1.26-.48c-.15 0-.16 0-.16 0s0 0 .05.05a.05.05 0 0 1 0 .05 0 0 0 0 1 0 .05.38.38 0 0 1 -.25 0h-.11a.38.38 0 0 1 -.25 0 0 0 0 0 1 0-.05.05.05 0 0 1 0-.05c.05 0 .05-.05.05-.05s0 0-.16 0a2.41 2.41 0 0 0 -1.26.48 1.78 1.78 0 0 1 -.89.41s0 0 0 0a0 0 0 0 1 0 0c.06-.1 0-.13 0-.13s0 0-.17 0-.13.09-.12.1.06.05.14.06a.05.05 0 0 1 0 0c-.12 0-.35.15-.41.27v.22a.9.9 0 0 1 .39-.14.2.2 0 0 0 .11 0 .09.09 0 0 0 0-.1 0 0 0 0 1 0 0 .11.11 0 0 1 .1 0s0 0 .07.07 0 0 .06 0a2.35 2.35 0 0 0 .86-.37 1.54 1.54 0 0 1 1.21-.6 0 0 0 0 1 0 0s0 0 0 .05.1.07.29.07.26 0 .29-.07 0-.05 0-.05a0 0 0 0 1 0 0 1.54 1.54 0 0 1 1.14.41 2.35 2.35 0 0 0 .86.37s.06 0 .06 0 0-.07.07-.07a.11.11 0 0 1 .1 0 0 0 0 0 1 0 0 .09.09 0 0 0 0 .1.14.14 0 0 0 .11 0z"/><path d="m6.53 18.79-.15-.31.03-.01.15.31z"/><path d="m6.4 18.82-.13-.27.03-.02.13.27z"/><path d="m8.51 17.89h.3v.04h-.3z" transform="matrix(.01989544 -.99980207 .99980207 .01989544 -9.42 26.21)"/><path d="m10.56 16.39a1.79 1.79 0 0 0 -.5-.29s0 0 0 0a1.67 1.67 0 0 1 .51.3s0 0 0 0z"/><path d="m9.5 16.53c-.3 0-.37 0-.37 0v-.26s0 0 0 0v.24a1.57 1.57 0 0 0 .35 0h.27v-.19s0 0 0 0a0 0 0 0 1 0 0v.22s-.09-.01-.25-.01z"/><path d="m9.13 16.51a0 0 0 0 1 0 0 1 1 0 0 1 .56-.14.25.25 0 0 1 .12.11 0 0 0 0 1 0 0 .13.13 0 0 0 -.1-.09c-.18-.06-.52.13-.52.13z"/><path d="m9.69 16.61a1.8 1.8 0 0 1 -.57-.1s0 0 0 0a1.76 1.76 0 0 0 1.42-.13s0 0 0 0a1.66 1.66 0 0 1 -.85.23z"/><path d="m10.6 17a0 0 0 0 1 0 0s0 0 0 0a.12.12 0 0 1 .1 0h.08a.27.27 0 0 0 .16 0s0 0 0 0v-.27a0 0 0 0 1 0 0s0 0 0 0v.27a.05.05 0 0 1 0 .05.28.28 0 0 1 -.18 0h-.06a.1.1 0 0 0 -.07 0s0 0 0 0z"/><path d="m11 16.86a.75.75 0 0 0 -.38-.09 0 0 0 0 1 0 0 .77.77 0 0 1 .4.1s0 0 0 0z"/><path d="m7.42 16.39s0 0 0 0a1.81 1.81 0 0 1 .51-.3s0 0 0 0a1.79 1.79 0 0 0 -.5.29z"/><path d="m8.48 16.53c-.16 0-.25 0-.29-.06v-.22a0 0 0 0 1 0 0s0 0 0 0v.19s0 0 .27 0a1.57 1.57 0 0 0 .35 0v-.24s0 0 0 0v.26s-.03.07-.33.07z"/><path d="m8.85 16.51s-.34-.19-.52-.13a.13.13 0 0 0 -.1.09 0 0 0 0 1 0 0 .25.25 0 0 1 .12-.11 1 1 0 0 1 .56.14 0 0 0 0 1 0 0z"/><path d="m8.29 16.61a1.66 1.66 0 0 1 -.88-.23s0 0 0 0a1.76 1.76 0 0 0 1.42.13s0 0 0 0a1.8 1.8 0 0 1 -.54.1z"/><path d="m7.37 17a0 0 0 0 0 0-.05h-.17a.31.31 0 0 1 -.19 0 .06.06 0 0 1 0-.05v-.27s0 0 0 0a0 0 0 0 1 0 0v.27a0 0 0 0 0 0 0 .3.3 0 0 0 .16 0h.08s0 0 .06 0a.08.08 0 0 1 0 .08s.07.02.06.02z"/><path d="m7 16.86s0 0 0 0a.77.77 0 0 1 .4-.1 0 0 0 0 1 0 0 .75.75 0 0 0 -.38.09z"/><path d="m9.3 17.76h.04v.3h-.04z" transform="matrix(1 -.02 .02 1 -.37 .2)"/><path d="m11.45 18.79-.03-.01.15-.31.03.01z"/><path d="m11.48 18.66h.3v.04h-.3z" transform="matrix(.42893513 -.90333529 .90333529 .42893513 -10.23 21.17)"/><path d="m9 17.55h.04v.09h-.04z" transform="matrix(.69928915 -.71483892 .71483892 .69928915 -9.87 11.74)"/><path d="m9 17.69-.07-.05.06.05a0 0 0 0 1 0 0z"/><path d="m7.71 16.11v-.23h.06l.13.2h-.06zm.08-.1-.06-.1v.11z"/><path d="m7.91 16-.07-.21h.06l.1.14v-.17h.06l.07.22h-.05v-.08-.07.17l-.1-.14v.07l.02.07z"/><path d="m8.17 16-.05-.22h.12-.06v.07h.06-.04v.07h.06z"/><path d="m8.38 15.8v.11h-.05v-.22h.09v.06a.08.08 0 0 1 0 .06h.01v-.08z"/><path d="m8.53 15.89v-.23h.05v.23z"/><path d="m8.76 15.85h-.11s0 0 0 0v-.1a.05.05 0 0 1 0-.06h.07v-.06.15-.06a.08.08 0 0 1 .04.13z"/><path d="m8.81 15.86v-.23h.07l.06.22h-.01-.07zm.1-.07v-.12z"/><path d="m9.22 15.85h-.06-.06a.08.08 0 0 1 0-.05v-.1a.05.05 0 0 1 0-.06c.05 0 .07 0 .07.06h.02v-.05.16-.06h.05a.08.08 0 0 1 -.02.1z"/><path d="m9.27 15.86v-.22h.11-.03v.07h.05-.06v.07h.06z"/><path d="m9.43 15.88v-.22l.05.15v-.14h.05v.23l-.06-.15v.06.08z"/><path d="m9.66 15.92v-.19h.13v.19z"/><path d="m9.87 15.86v.11h-.05l.05-.21h.09s0 0 0 0a0 0 0 0 1 0 0 .18.18 0 0 1 0 .06.06.06 0 0 1 0 0h-.09a.73.73 0 0 0 0-.08zm0 0h.05z"/><path d="m10 16 .12-.2h.07v.23zm.13 0v-.11l-.13.11z"/><path d="m10.15 16.06.08-.21-.07.18h.06z"/><path d="m6.68 18.51h.09.05s0 0 0 0a0 0 0 0 1 0 0s0 0 0 .05v-.09.12h-.05zm.13 0a.05.05 0 0 0 0 0v.08h.05a0 0 0 0 0 0 0z"/><path d="m6.89 18.44.11-.06h-.07v.08h.07-.07v.09h.07v.13z"/><path d="m7 18.36h.08s.06 0 .07 0 0 0 0 0a0 0 0 0 1 0 .05v.1zm.14 0s0 0 0 0l.05.1a0 0 0 0 0 0 0s0 0 0 0z"/><path d="m7.32 18.2.11.17s0 .05 0 .06 0 0 0 .05a.11.11 0 0 1 -.07 0s0 0 0 0l-.11-.17.11.18s0 0 0 0z"/><path d="m7.41 18.14h.07a.09.09 0 0 1 .06 0 .05.05 0 0 1 0 0s0 0 0 0a0 0 0 0 1 0 0 .06.06 0 0 1 .07 0 .07.07 0 0 1 0 .06.23.23 0 0 1 0 .05h-.06zm.13 0s0 0 0 0v.08zm.07.1.06.09s0 0 0 0z"/><path d="m7.61 18 .13.21h.06l-.11.07z"/><path d="m7.77 17.91.13.24z"/><path d="m7.92 17.92a.08.08 0 0 1 0 0s0 0 0 0a.08.08 0 0 1 .08 0s0 0 0 0a0 0 0 0 0 0 0 .08.08 0 0 0 0 0v.08s0 0 0 0a.11.11 0 0 0 0-.05.08.08 0 0 1 0 .07s0 0 0 0a.12.12 0 0 1 0 0z"/><path d="m8.18 17.75h.05l.13.25h-.14zm0 .19h.06l-.06-.13z"/><path d="m8.82 17.86h.08.06a.07.07 0 0 1 .04.14v.12s0 .05 0 .06h-.2zm.11.09s0 0 0 0v.22h-.03s0 0 0 0z"/><path d="m9 17.88h.13-.05v.12h.07-.06v.1h.07-.11z"/><path d="m9.5 17.79s0 0 0 0a0 0 0 0 1 0 0h.06s.06 0 .07 0v.08h-.02v-.06a0 0 0 0 0 0 0s0 0 0 0v.12s0 0 0 0a.1.1 0 0 0 0 0h.05s0 .05 0 .07h-.09a.08.08 0 0 1 -.06 0 .14.14 0 0 1 0-.07z"/><path d="m9.74 17.81a.09.09 0 0 1 0-.06h.06a.1.1 0 0 1 .07.05.11.11 0 0 1 0 .05v.11a.09.09 0 0 1 0 .06s0 0-.06 0a.09.09 0 0 1 -.06 0 .15.15 0 0 1 0-.07zm.12 0a0 0 0 0 0 0 0v.12s0 0 0 0z"/><path d="m10 17.88a.08.08 0 0 1 0 0h.06s.06 0 .06.07 0 0 0 0a.08.08 0 0 0 0 0 0 0 0 0 0 0 0s0 0 0 0a.1.1 0 0 1 0 .1.08.08 0 0 1 0 0s0 0-.06 0-.06 0-.06-.06a.43.43 0 0 0 0-.05.08.08 0 0 0 0 0 0 0 0 0 0 0 0 .1.1 0 0 0 0 .06.14.14 0 0 1 0-.12z"/><path d="m10.21 17.89.12.08-.13.21.12-.21z"/><path d="m10.42 18h.05l-.11.26v-.05l-.06-.05zm-.12.16.06-.13z"/><path d="m10.65 18.2.08.05s0 0 0 0v.05-.08s0 0 0 0l-.07.11zm.06.12s0 0 0 0a0 0 0 0 0 0 0v.08h.06z"/><path d="m10.84 18.32h.05l-.13.24z"/><path d="m10.91 18.44s0 0 0 0h.09s.05 0 .05.06a.11.11 0 0 1 0 .05.08.08 0 0 0 0 0v.1a.43.43 0 0 1 0 .05s0 0 0 0a.05.05 0 0 0 0 0 .11.11 0 0 1 0 .05.06.06 0 0 1 -.07 0 .07.07 0 0 1 -.05 0s0 0 0-.07z"/><path d="m11.17 18.47h.06v.28-.05h-.08-.05zm-.06.18h.06v-.15z"/><path d="m9.29 21.48h.11a.31.31 0 0 1 -.18.07s0 0 0 0 0-.06 0-.06 0 0 .05 0z" fill="#fff"/><path d="m9.21 21.56s0-.05 0-.07h.11a.21.21 0 0 0 .11 0 .4.4 0 0 1 -.18.07zm0-.1v.05s0 0 0 0a.38.38 0 0 0 .16-.06h-.17z"/><path d="m9.69 21.55h.12l-.08.05h-.11s0-.06 0-.07.06.02.07.02z" fill="#fff"/><path d="m9.67 21.63h-.05a.06.06 0 0 1 0-.06s0 0 .06 0h.13zm0-.09s0 0 0 .06h.11s0 0 0 0h-.14z"/><path d="m9.6 21.49-.03 1.39h.07l-.02-1.39z" fill="#704d25"/><path d="m9.64 22.88h-.07v-1.39zm-.06 0h.05v-1.38z"/><path d="m9.5 22a.21.21 0 0 1 0-.23h.28a.26.26 0 0 0 0 .15.09.09 0 0 0 0 .07.1.1 0 0 0 0 .05h-.05a.09.09 0 0 0 -.07 0h-.09-.07z" fill="#fff"/><path d="m9.88 22.06h-.05s-.05 0-.07 0h-.09-.18a.21.21 0 0 1 0-.23h.29a.27.27 0 0 0 0 .15v.07s0 0 0 .05zm-.31-.06h.19.08v-.07a.27.27 0 0 1 0-.15h-.3a.18.18 0 0 0 0 .21h.07z"/><path d="m9.41 22.1s0 0 0 0h.43s0 0 0 0a.31.31 0 0 0 0 .1.09.09 0 0 0 0 .08 0 0 0 0 1 0 0l-.11-.06h-.1a.42.42 0 0 0 -.22.08.29.29 0 0 1 0-.2z" fill="#fff"/><path d="m9.89 22.34-.11-.05h-.15a.41.41 0 0 0 -.22.07.39.39 0 0 1 0-.24s0 0 0 0h.38a0 0 0 0 1 0 0s0 0 0 0a0 0 0 0 0 0 0 .33.33 0 0 0 0 .1s0 .06 0 .07zm-.24-.08h.13.11s0 0 0-.08v-.1a.08.08 0 0 1 0 0h-.44s0 0 0 0a.36.36 0 0 0 0 .23.41.41 0 0 1 .22-.07z"/><path d="m9.4 22.46.11-.1h.3.08a.15.15 0 0 0 -.06.09.25.25 0 0 0 0 .12.22.22 0 0 0 0 .08l.05.06h-.06l-.1-.07a.35.35 0 0 0 -.2-.05.48.48 0 0 0 -.2.07.39.39 0 0 1 .08-.2z" fill="#fff"/><path d="m9.88 22.75-.1-.07a.34.34 0 0 0 -.2 0 .32.32 0 0 0 -.19.07.31.31 0 0 1 .07-.2l.12-.1h.32a.22.22 0 0 0 -.07.09.45.45 0 0 0 0 .12.25.25 0 0 0 0 .08v.05zm-.34-.16a.34.34 0 0 1 .18 0l.1.07a.25.25 0 0 1 0-.08.23.23 0 0 1 0-.12.15.15 0 0 1 .06-.09h-.37a.52.52 0 0 0 -.11.1.25.25 0 0 0 -.07.19.34.34 0 0 1 .19-.07z"/><path d="m9.15 21.43-.02 1.45h.08l-.02-1.45z" fill="#704d25"/><path d="m9.22 22.88h-.09v-1.45zm-.08 0h.07v-1.43z"/><path d="m8.92 22.47a.22.22 0 0 1 .08-.07h.14l.31.05a.14.14 0 0 0 -.07.06.15.15 0 0 0 0 .09.17.17 0 0 0 0 .12.14.14 0 0 0 .07.1.62.62 0 0 0 -.28-.14.65.65 0 0 0 -.31 0 .08.08 0 0 1 0-.08s.05-.09.06-.13z" fill="#fff"/><path d="m9.45 22.83a.08.08 0 0 1 0 0 .88.88 0 0 0 -.24-.11.65.65 0 0 0 -.31 0 .14.14 0 0 1 0-.07.25.25 0 0 0 0-.12l.1-.13h.14a1.54 1.54 0 0 1 .31.05.14.14 0 0 0 -.07.06.29.29 0 0 0 0 .09.53.53 0 0 0 0 .12v.07zm-.45-.18h.17a.64.64 0 0 1 .22.1s0 0 0-.05a.53.53 0 0 1 0-.12s0-.06 0-.09a.17.17 0 0 1 .06-.06 1.35 1.35 0 0 0 -.29 0 .2.2 0 0 0 -.11 0l-.08.05a.33.33 0 0 1 0 .13.14.14 0 0 0 0 .06z"/><path d="m8.78 21.47h.05.11-.08-.09s0 0 0 0z" fill="#fff"/><path d="m8.76 21.55s0 0 0 0h.21a.2.2 0 0 1 -.08 0h-.1zm0-.08h.11.06-.18z"/><path d="m8.7 21.44-.01 1.42h.06l-.02-1.42z" fill="#704d25"/><path d="m8.76 22.86h-.08v-1.42zm-.07 0h.06v-1.41z"/><path d="m8.36 22.71a1.93 1.93 0 0 0 0-.42s.06 0 .06 0h.06.13.25.14s0 0 0 0a.57.57 0 0 0 0 .14.76.76 0 0 0 0 .26.45.45 0 0 0 -.26-.23h-.16-.13s-.08.21-.09.25z" fill="#fff"/><path d="m8.93 22.86a.46.46 0 0 0 -.27-.22h-.08a.35.35 0 0 0 -.11 0 .2.2 0 0 0 -.1.07 1.5 1.5 0 0 0 0-.42h.06.13a1 1 0 0 0 .25 0h.19a0 0 0 0 1 0 0 .35.35 0 0 0 0 .14.57.57 0 0 0 0 .26zm-.36-.26h.09a.46.46 0 0 1 .25.2.87.87 0 0 1 0-.23.58.58 0 0 1 0-.14h.09a0 0 0 0 0 0 0h-.11a1.17 1.17 0 0 1 -.26 0h-.12-.06a1.58 1.58 0 0 1 0 .38l.08-.05z"/><path d="m8.94 22.36a.27.27 0 0 1 0-.2.25.25 0 0 1 .06-.16c.15 0 .29.05.44.06s0 0 0 .05a.5.5 0 0 0 0 .24.54.54 0 0 0 -.33-.08.33.33 0 0 0 -.17.09z" fill="#fff"/><path d="m9.46 22.38a.67.67 0 0 0 -.33-.08.33.33 0 0 0 -.19.06.23.23 0 0 1 0-.2.26.26 0 0 1 .06-.16l.44.07s0 0 0 0a.45.45 0 0 0 0 .23zm-.31-.09a.66.66 0 0 1 .3.07.55.55 0 0 1 0-.22.09.09 0 0 1 0-.05 2.65 2.65 0 0 1 -.45-.09.33.33 0 0 0 -.12.16.31.31 0 0 0 0 .19.42.42 0 0 1 .19-.06z"/><path d="m8.47 22a.11.11 0 0 1 .08 0 1.49 1.49 0 0 1 .45 0 .93.93 0 0 0 0 .33.38.38 0 0 0 -.17-.08h-.2a.41.41 0 0 0 -.22 0 .82.82 0 0 1 .06-.25z" fill="#fff"/><path d="m9 22.37a.53.53 0 0 0 -.17-.08 1.38 1.38 0 0 0 -.2 0 .41.41 0 0 0 -.22 0 .78.78 0 0 1 .11-.2.08.08 0 0 1 .08 0 1.19 1.19 0 0 1 .4-.09.93.93 0 0 0 0 .33zm-.48-.14h.11.2a.4.4 0 0 1 .16.08 1.73 1.73 0 0 1 .01-.31 1.49 1.49 0 0 0 -.42 0s-.06 0-.07 0a.84.84 0 0 0 -.11.21h.1z"/><path d="m8.93 21.92a.41.41 0 0 0 0-.11.29.29 0 0 0 0-.09h-.09s-.08 0-.11 0-.08.07-.1.1 0 0 0 0 0 0 0 .05 0 0 0 0h.05a.57.57 0 0 1 .18 0s.07.04.07.05z" fill="#fff"/><path d="m8.93 21.93h-.09a.37.37 0 0 0 -.18 0h-.07a0 0 0 0 1 0 0 .06.06 0 0 1 0 0 .05.05 0 0 1 0 0 .26.26 0 0 1 .1-.11.18.18 0 0 1 .1 0 .16.16 0 0 1 .09 0 .13.13 0 0 1 0 .09v.11zm-.24-.08h.15.09v-.1a.11.11 0 0 0 0-.08.14.14 0 0 0 -.08-.05.14.14 0 0 0 -.09 0s-.07.07-.09.1a.06.06 0 0 0 0 0h.1z"/><path d="m8.31 22.07a1.3 1.3 0 0 1 .41-.4 3.11 3.11 0 0 0 -.47 1 .15.15 0 0 0 -.08-.11h-.06s0 0-.06 0 0-.1 0-.11a2 2 0 0 1 .13-.25z" fill="#fff"/><path d="m8.25 22.68a.12.12 0 0 0 -.08-.1h-.17s0-.06 0-.1l.14-.25.09-.13a1.33 1.33 0 0 1 .41-.41 3.09 3.09 0 0 0 -.46 1zm-.14-.12h.06a.14.14 0 0 1 .08.09 3.27 3.27 0 0 1 .46-1 1.34 1.34 0 0 0 -.4.39s-.05.09-.08.14-.1.18-.14.25v.09h.07z"/><path d="m7.77 22.47.63.31.14.08.14.11s0 0 0 0a.29.29 0 0 1 .32.03s.07 0 .11 0 .05 0 .09 0 .1 0 .14 0c.05 0 .1.06.16.05h.05a0 0 0 0 1 .05 0s0 0 .07.06.06 0 .08 0l.22-.2a.69.69 0 0 1 .17-.1.27.27 0 0 0 -.12 0 .61.61 0 0 0 -.18.09h-1.14l-.29-.1-.2-.08c-.15-.15-.3-.19-.44-.25z" fill="#704d25"/><path d="m8.76 23.06s0 0 0 0a.45.45 0 0 0 -.13-.1l-.14-.09q-.32-.16-.63-.3l.19.07.25.09.18.07a1.31 1.31 0 0 0 .28.09h1.11a1 1 0 0 1 .18-.09.27.27 0 0 1 .12 0h-.06-.11l-.22.2a.08.08 0 0 1 -.08 0s0 0 0 0a.06.06 0 0 0 -.05 0s-.06 0-.09 0a.07.07 0 0 0 -.07 0h-.31-.18a.26.26 0 0 0 -.21 0zm-.86-.53c.17.07.34.16.5.24l.15.09.13.1v.05a.29.29 0 0 1 .32-.01h.1.05.07a.09.09 0 0 0 .07 0s.06 0 .09 0 .05 0 .07 0h.05a.11.11 0 0 1 .07 0s0 0 0 0a.08.08 0 0 0 .08 0l.21-.2a.67.67 0 0 1 .11-.07h.05-.1l-.18.09h-1.04a2.29 2.29 0 0 1 -.28-.09l-.17-.07-.25-.11z"/><path d="m7.9 22.53c.16-.24.33-.47.5-.7a1.35 1.35 0 0 1 .32-.31 1.3 1.3 0 0 0 -.31.31c-.18.22-.34.46-.5.7z"/><path d="m9 21.93a.29.29 0 0 1 0-.13.23.23 0 0 1 .06-.12s0-.05 0-.05h.05l.31.06a.31.31 0 0 0 0 .28h-.23a.49.49 0 0 0 -.19-.04z" fill="#fff"/><path d="m9.46 22-.23-.06a.45.45 0 0 0 -.23 0 .2.2 0 0 1 0-.13.61.61 0 0 1 .05-.12.17.17 0 0 1 .06-.06h.05l.31.06a.32.32 0 0 0 0 .27zm-.34-.08h.11l.22.06a.36.36 0 0 1 0-.27l-.3-.06h-.04v.05a.34.34 0 0 0 -.11.1.24.24 0 0 0 0 .12z"/><path d="m9.89 22.81a2 2 0 0 1 0-.35v-.17a1.25 1.25 0 0 0 -.08-.5 1.3 1.3 0 0 1 .08.51.91.91 0 0 1 0 .17v.35z"/><path d="m10.21 22.41c-.11.05-.21 0-.32 0 .11 0 .21.05.32 0z" fill="#002b7f"/><path d="m10.21 22.45c-.11.05-.21-.05-.32 0 .11 0 .21.05.32 0z" fill="#fff"/><path d="m10.21 22.49c-.11.05-.21 0-.32 0 .11-.05.21.05.32 0z" fill="#ce1126"/><path d="m10.21 22.53c-.11 0-.21-.05-.32 0 .11 0 .21.05.32 0z" fill="#fff"/><path d="m10.21 22.57c-.11 0-.21-.05-.32 0 .11-.05.21 0 .32 0z" fill="#002b7f"/><path d="m9.07 19.92-.07.08s0 0 0 0z" fill="#fff"/><path d="m9 20h.09zm0 0a0 0 0 0 0 0 0h.06z"/><path d="m9.21 20s0 0 0 0z" fill="#fff"/><path d="m9.2 20s0 0 0 0z"/><path d="m9.18 19.93-.01.5h.02v-.5z" fill="#704d25"/><path d="m9.19 20.43v-.5zm0 0v-.5z"/><path d="m9.14 20.11a.09.09 0 0 1 0-.09h.1v.06s0 0 0 0h-.1z" fill="#fff"/><path d="m9.28 20.13h-.14a.09.09 0 0 1 0-.09h.11a.13.13 0 0 0 0 .06s0 0 0 0zm-.11 0h.09a0 0 0 0 1 0 0v-.13h-.1a.06.06 0 0 0 0 .07z"/><path d="m9.11 20.15h.17a0 0 0 0 0 0 0h-.09-.08a.11.11 0 0 1 0 0z" fill="#fff"/><path d="m9.28 20.24h-.09-.08s0-.06 0-.08h.14zm-.08 0s0 0 0 0h-.09a.11.11 0 0 0 0 .08h.08z"/><path d="m9.1 20.28h.14a.05.05 0 0 0 0 0s0 0 0 0h-.09-.07a.19.19 0 0 1 .02 0z" fill="#fff"/><path d="m9.28 20.38h-.13-.07a.1.1 0 0 1 0-.07h.14v.07zm-.12-.06h.06a0 0 0 0 1 0 0s0 0 0 0a.05.05 0 0 1 0 0h-.08a.08.08 0 0 1 0 0 .19.19 0 0 0 0 .07h.07z"/><path d="m9.02 19.91-.01.52h.03l-.01-.52z" fill="#704d25"/><path d="m9 20.43v-.52zm0 0v-.52z"/><path d="m8.93 20.28s0 0 .06 0h.11s0 0 0 0a.06.06 0 0 0 0 0 .05.05 0 0 0 0 0 .19.19 0 0 0 -.1-.05h-.09s0 0 0 0 .02.07.02.05z" fill="#fff"/><path d="m9.12 20.41h-.09-.12s0 0 0 0h.13a0 0 0 0 1 0 0 .06.06 0 0 0 0 0 0 0 0 0 0 0 0zm-.12-.06h.08v-.06a0 0 0 0 1 0 0h-.1.02a0 0 0 0 0 0 0 .43.43 0 0 1 0 0s0 0 0 0z"/><path d="m8.88 20h.08zm0 0h.05s0 0 0 0h-.06z"/><path d="m8.85 19.91v.51h.02v-.51z" fill="#704d25"/><path d="m8.87 20.42v-.51zm0 0v-.51z"/><path d="m8.73 20.37a.76.76 0 0 0 0-.15h.27s0 0 0 0a.07.07 0 0 0 0 0 .14.14 0 0 0 0 .09.16.16 0 0 0 -.1-.08h-.14z" fill="#fff"/><path d="m8.94 20.42a.12.12 0 0 0 -.09-.08h-.08a.76.76 0 0 0 0-.15h.09.09.05a.07.07 0 0 0 0 0 .14.14 0 0 0 0 .09zm-.13-.09a.16.16 0 0 1 .09.07.19.19 0 0 1 0-.08.13.13 0 0 1 0-.06h-.16a.66.66 0 0 1 0 .14z"/><path d="m8.94 20.24a.17.17 0 0 1 0-.07l.06-.06h.15a.14.14 0 0 0 0 .09.27.27 0 0 0 -.12 0z" fill="#fff"/><path d="m9.13 20.25a.21.21 0 0 0 -.12 0h-.07a.09.09 0 0 1 0-.07s0-.05.05-.06h.01.15a.14.14 0 0 0 0 .09zm-.11 0h.1a.11.11 0 0 1 0-.08h-.15l-.05.06a.17.17 0 0 0 0 .07h.07z"/><path d="m8.77 20.12a.38.38 0 0 1 .15 0h.08a.37.37 0 0 0 0 .11h-.06-.21a.2.2 0 0 1 .04-.11z" fill="#fff"/><path d="m8.94 20.24h-.06-.07-.08a.25.25 0 0 1 0-.07.38.38 0 0 1 .15 0h.12a.37.37 0 0 0 0 .11zm-.17 0h.11s0 0 .06 0a.49.49 0 0 1 0-.12h-.17v.08z"/><path d="m8.94 20.08a0 0 0 0 0 0 0h-.08s0 0 0 0h.12z" fill="#fff"/><path d="m8.94 20.09h-.12.07a0 0 0 0 1 0 0zm-.09 0h.08s0 0 0 0z"/><path d="m8.71 20.14a.54.54 0 0 1 .15-.14 1.37 1.37 0 0 0 -.17.37s0 0 0 0v-.09z" fill="#fff"/><path d="m8.69 20.36s0 0 0 0h-.08a.08.08 0 0 1 0 0 .41.41 0 0 1 0-.09v-.05a.53.53 0 0 1 .25-.22 1.24 1.24 0 0 0 -.17.37zm0-.05s0 0 0 0a0 0 0 0 1 0 0 1.25 1.25 0 0 1 .16-.31.62.62 0 0 0 -.14.14v.05.09s0 0 0 0z"/><path d="m8.52 20.28.22.11h.06a.09.09 0 0 1 .07 0h.13.06s0 0 .06 0l.08-.07h.06-.07-.34-.1-.07z" fill="#704d25"/><path d="m8.87 20.49h-.06l-.22-.1h.07.09.07.1.42.07l-.08.08a0 0 0 0 0 0 0h-.46zm-.3-.19.18.09h.05a.12.12 0 0 1 .08 0h.12a0 0 0 0 1 0 0 0 0 0 0 0 0 0h.07s0 0 0 0h.05s0 0 0 0l.08-.07a.05.05 0 0 1 0 0s-.05 0-.07 0h-.28-.1-.07-.09z"/><path d="m8.56 20.3.18-.25a.43.43 0 0 1 .12-.11.63.63 0 0 0 -.12.11l-.17.25z"/><path d="m9 20.09s0 0 0-.05 0 0 0 0h.11a.09.09 0 0 0 0 .1h-.09z" fill="#fff"/><path d="m9.13 20.11h-.09a.11.11 0 0 0 -.08 0h.04a0 0 0 0 1 0-.11s0 0 0 0h.11a.09.09 0 0 0 0 .1zm-.13 0h.08a.12.12 0 0 1 0-.1l-.08-.01s0 0 0 0v.05z"/><path d="m9.28 20.4v-.18a.4.4 0 0 0 0-.19.4.4 0 0 1 0 .19z"/><path d="m9.39 20.26s-.07 0-.11 0 .08 0 .11 0z" fill="#002b7f"/><path d="m9.39 20.28s-.07 0-.11 0 .08 0 .11 0z" fill="#fff"/><path d="m9.39 20.29s-.07 0-.11 0 .08 0 .11 0z" fill="#ce1126"/><path d="m9.39 20.3s-.07 0-.11 0 .08 0 .11 0z" fill="#fff"/><path d="m9.39 20.32s-.07 0-.11 0 .08 0 .11 0z" fill="#002b7f"/><g fill="#fff"><path d="m7.9 19.28a.21.21 0 0 1 0-.06.06.06 0 0 1 0-.07s.1 0 .14 0 0 0 .05 0 0 0 .07 0 .08 0 .12 0a.08.08 0 0 1 .07.07.12.12 0 0 1 0 .1h-.05-.06-.06s-.09.05-.13 0a.43.43 0 0 1 -.15-.04z"/><path d="m9.83 19.44-.09-.07s-.05 0-.06-.06 0-.06 0-.07.09 0 .12 0 0-.07.07-.08h.06.07s.05 0 .06 0 0 0 0 .06 0 0 0 0a0 0 0 0 1 0 0s0 0 0 0a0 0 0 0 0 0 0h-.05a.2.2 0 0 1 -.18.22z"/><path d="m10.8 19.64a.16.16 0 0 1 0-.07.07.07 0 0 1 0-.05s.05 0 .07 0h.05a0 0 0 0 1 0 0s0 0 0 0 0 0 .07 0 0 0 0 0 0 0 0 .05h-.06-.09a.05.05 0 0 1 0 0s0 0 0 0z"/><path d="m8.99 18.39.05.16h.17l-.13.1.05.17-.14-.11-.14.11.05-.17-.13-.1h.17z"/><path d="m9.69 18.44.03.17.17.02-.14.08.03.17-.13-.11-.14.08.06-.15-.12-.12.17.02z"/><path d="m10.38 18.62v.17l.16.06-.17.05-.01.17-.09-.15-.17.05.11-.13-.09-.15.16.06z"/><path d="m11.03 18.91-.03.17.15.08-.17.02-.04.17-.07-.16-.17.02.13-.11-.07-.16.15.08z"/><path d="m8.29 18.44-.03.17-.18.02.15.08-.03.17.13-.11.14.08-.07-.15.13-.12-.17.02z"/><path d="m7.59 18.62.01.17-.16.06.17.05.01.17.09-.15.17.05-.11-.13.09-.15-.16.06z"/><path d="m6.95 18.91.03.17-.15.08.17.02.04.17.07-.16.17.02-.13-.11.07-.16-.15.08z"/></g><path d="m35.36 6.76h-30.22a20.26 20.26 0 0 1 30.2 0z" fill="#002b7f"/><path d="m39.34 13.5h-38.18a20.25 20.25 0 0 1 4-6.74h30.2a20.45 20.45 0 0 1 3.98 6.74z" fill="#fff"/><path d="m39.34 27a20.23 20.23 0 0 1 -4 6.74h-30.2a20.52 20.52 0 0 1 -4-6.74z" fill="#fff"/><path d="m35.34 33.75a20.25 20.25 0 0 1 -30.17 0z" fill="#002b7f"/><path d="m7 23.37s0 0 0 0 0-.01 0 0z" fill="url(#bl)"/><path d="m7 23.38s0 0 0 0a0 0 0 0 0 0 0s0 0 0 0zm0 0a0 0 0 0 0 0 0z"/><path d="m7 23.43a0 0 0 0 1 0 0s0 0 0 0z" fill="url(#bm)"/><path d="m6.94 23.45a0 0 0 0 1 0 0s0 0 0 0h.06zm0 0s0 0 0 0z"/></svg>