<svg xmlns="http://www.w3.org/2000/svg" viewBox="0 0 40.5 40.5"><defs><style>.cls-1{fill:#002a8f;}.cls-2{fill:#fff;}.cls-3{fill:#cf142b;}</style></defs><g id="Ebene_2" data-name="Ebene 2"><g id="Ńëîé_1" data-name="Ńëîé 1"><path class="cls-1" d="M36.45,8.1H4.05a20.25,20.25,0,0,1,32.4,0Z"/><path class="cls-2" d="M40.09,16.2H.41a20.23,20.23,0,0,1,2-5.45A21.28,21.28,0,0,1,4.05,8.1h32.4A20,20,0,0,1,40.09,16.2Z"/><path class="cls-1" d="M40.5,20.25a20,20,0,0,1-.41,4.05H.41a20.21,20.21,0,0,1,0-8.1H40.09A20,20,0,0,1,40.5,20.25Z"/><path class="cls-2" d="M40.09,24.3a20,20,0,0,1-3.64,8.1H4.05a21.28,21.28,0,0,1-1.69-2.65A20.23,20.23,0,0,1,.41,24.3Z"/><path class="cls-1" d="M36.45,32.4a20.25,20.25,0,0,1-32.4,0Z"/><path class="cls-3" d="M18.76,20.25l-7,4.05L2.36,29.75A20.23,20.23,0,0,1,.41,24.3a20.21,20.21,0,0,1,0-8.1,20.23,20.23,0,0,1,2-5.45l9.41,5.45Z"/><polygon class="cls-2" points="6.79 15.65 7.78 18.69 10.97 18.69 8.39 20.56 9.37 23.6 6.79 21.72 4.21 23.6 5.19 20.56 2.61 18.69 5.8 18.69 6.79 15.65"/></g></g></svg>