<svg xmlns="http://www.w3.org/2000/svg" viewBox="0 0 40.5 40.5"><defs><style>.cls-1{fill:#fff;}.cls-2{fill:#d57800;}.cls-3{fill:#4e5b31;}</style></defs><g id="Ebene_2" data-name="Ebene 2"><g id="Ńëîé_1" data-name="Ńëîé 1"><circle class="cls-1" cx="20.25" cy="20.25" r="20.25"/><path class="cls-2" d="M12.72,15.76h0l0-.05h0s0-.07.11-.07l.1,0c.06,0,.12-.1.19-.1h.1a.66.66,0,0,1,.38.13h.11a1.14,1.14,0,0,1,.79.28h0l.11,0h.06l.39.18s0,.05.09.05h.29c.16,0,.74-.33.84-.62h0a2.3,2.3,0,0,0,.12-.43h0s0-.05,0-.09v0h0l.08-.59a.09.09,0,0,0,0,0h0c0-.09.05-.44.05-.54a.49.49,0,0,0-.18-.45h0a.18.18,0,0,1,0-.09c0-.09.06-.07.06-.18s0-.07,0-.1h0a1.09,1.09,0,0,1-.05-.17v0h0s0,0,0-.06v-.05h.05a.4.4,0,0,1,.15,0h0l.05,0a2.94,2.94,0,0,0,.59.39h0a.44.44,0,0,0,.24.09h.2c.13,0,.24.11.35.18h.12a1.49,1.49,0,0,0,.33-.06h0c.14,0,.1-.1.28-.1a.77.77,0,0,1,.35.13l.06,0h.13a1,1,0,0,0,.31-.07h0a.25.25,0,0,1,.14,0c.19,0,0,.11.19.11h.1c.12,0,0,.06.11.1h0c.06,0,0-.06.12-.06l.1,0h0s0,0,.07,0,.05-.08.18-.08a1,1,0,0,1,.23.11h0a.23.23,0,0,0,.11,0c.08,0,.15,0,.2,0h.08l.09.06h.35a1.21,1.21,0,0,0,.21,0h.16l.23,0h.36l.13,0h0s.08,0,.12,0h.08a.31.31,0,0,1,.11,0h0c.09,0,.19-.11.4-.11h.17c.23,0,.42-.16.58-.16h.16a.4.4,0,0,0,.23,0h0a.44.44,0,0,1,.15-.05s.05,0,.05.06v0h0a2.61,2.61,0,0,0,.68-.38h0a.15.15,0,0,0,.07-.05h0s.05,0,.07,0h0a2.7,2.7,0,0,1,.63-.19,1.62,1.62,0,0,1,.23,0h.49a1.26,1.26,0,0,0,.36-.09h0l.51-.19.24-.08h0a5.31,5.31,0,0,0,1.66-.78h0a.74.74,0,0,0,.52-.32v0L31,10.8a.46.46,0,0,0,.07-.14h0s0,0,0-.05h.1c.16,0,.05,0,.16.08h.28a.55.55,0,0,0,.34-.18h.15c.13,0,0-.08.15-.08l.1,0h.11s.12-.16.23-.16h0a.08.08,0,0,0,.08-.05v0h0s0,0,0-.05,0-.06,0-.06.07,0,.11,0h0c.14,0,.11-.36.3-.36h.06c.19,0,.05-.14.3-.14h.16c.11,0,.25-.3.43-.3s0,.08.18.08a.16.16,0,0,0,.14-.07h0a.17.17,0,0,1,.13-.05h.12a.18.18,0,0,0,.14-.14s0,0,0-.05S34.94,9,35,9a.14.14,0,0,1,.11,0h0c.1,0,.39-.29.49-.29l.09,0c.09,0,.09-.09.18-.09H36a.14.14,0,0,1-.07.08h0s0,0,0,.06,0,0,0,.06-.08.12-.08.15h0v.08c0,.12,0,.25-.13.27h-.07s-.21,0-.22,0h0c0,.08,0,.09-.09.09h-.12a5.23,5.23,0,0,0-.9.48h0c-.06,0-.14,0-.17.08h0c0,.11-.17.18-.17.25v.05c0,.37-.66.43-.71.54h0l-.1.07c-.49.36,0,.33-1.17.75-.12,0-1.69.74-2,1.8h0s0,.07-.1.09h0c-.11,0-.1.1-.38.1h-.15c-.09,0-.23-.06-.31-.06H28.8c-.13,0-.31.2-.42.36h0a5.37,5.37,0,0,0-.37.65v.07a.38.38,0,0,1,0,.17h0c-.05.09-.05,0-.05.18a1.66,1.66,0,0,0,.11.47c0,.16-.13,0-.13.15l.45.46,1.18,1.22c.46.67.5.71.5.71h0v0s-.05,0-.08.09h0v0c0,.13.24.12.24.21s0,0-.05.08h0a0,0,0,0,1,0,0s0-.06-.06-.06l-.1,0c-.17,0-.54-.32-.62-.32a1,1,0,0,1-.19.05c-.07,0-.05-.05-.12-.05s-.07,0-.09,0-.13-.05-.21-.05h0c-.06,0-.08.13-.17.13h-.23c-.07,0-.05.06-.13.06h-.05c-.22,0,0,.23-.24.25h0c-.11,0-.16.19-.34.19a.39.39,0,0,1-.34-.21h0c0-.05-.13-.17-.19-.17h0l-.21,0h0a1.52,1.52,0,0,0-.59-.06c-.47,0-.92,0-1.1.43h0c-.1.13-.11.17-.11.25s0,.08,0,.11h0v.13a1.92,1.92,0,0,1,0,.3s0,.07,0,.11v.07h0c0,.17-.24.22-.3.46h0s0,0,0,.07,0,0,0,.05h0c0,.06,0,.06-.11.06l-.44-.06c-.15,0-.43.28-.46.33h0s-.05,0-.05.06h0s0,0-.1,0h0c-.5,0-1.49.77-1.63.77h-.13c-.15,0,0,.09-.19.09h-.06c-.13,0-.09.1-.17.1s-.16-.07-.27-.07a.3.3,0,0,0-.29.23v0a.13.13,0,0,1-.09,0c-.19,0-1.08-.11-1.19-.11a3.55,3.55,0,0,0-1.28.48h0l-.2.15c-.09.07-.19.11-.23.22h0c0,.18,0,0-.07.17h0v.15a1.09,1.09,0,0,0,0,.18h0a2.55,2.55,0,0,0,.3.5c0,.07,0,.08-.08.08s-.18-.09-.29-.09h-.11c-.07,0,0-.05-.12-.05S17.05,24,17,24l-.15,0c-.06,0-.11.06-.15.06l-.07,0v0c0-.11.1,0,.1-.14s-.18-.21-.18-.4v0a.18.18,0,0,0-.06-.14h0s-.23-.3-.23-.3v0l0,0h0v0h-.08c-.05,0-.11-.07-.13-.1v0a.08.08,0,0,0-.08,0h-.08c-.08,0-.11-.06-.19-.06s-.15,0-.18,0h-.05a.08.08,0,0,0-.06,0h-.08l-.24.11h0s0,0-.16,0h-.11l-.09,0,0,0c-.07,0-.16.16-.24.16h-.15c-.21,0-.16.1-.33.1s-.16-.12-.26-.12h-.13L13,22.69c-.14-.06-.13,0-.23-.15h0l-.22-.14a.57.57,0,0,0-.31-.15h0a1.44,1.44,0,0,0-.23-.07c-.12,0,0,0-.12,0s-.1-.09-.14-.12h-.09s-.12.07-.13.07h0c-.08,0-.51-.41-.58-.44h0s0,0-.05,0-.13-.14-.16-.2,0,0,0,0-.08-.05-.12-.05h-.09c-.06,0-.06,0-.06,0a.1.1,0,0,1,0-.08s0,0,0-.06h0a.15.15,0,0,0,0-.07h0s0,0,0,0v0c0-.1-.09-.17-.09-.24s0-.1,0-.14-.1-.12-.1-.25v-.1a.38.38,0,0,0-.38-.31H9.72A.13.13,0,0,1,9.6,20a.21.21,0,0,0,0-.08.2.2,0,0,0,0-.14h0a2.37,2.37,0,0,1-.27-.28c0-.11.16,0,.16-.21v-.08c0-.11,0-.14-.19-.31h0s-.05,0-.05-.09.1-.11.1-.13-.06,0-.06-.09.06,0,.06-.11,0,0,0-.09h0a2.27,2.27,0,0,0-.45-.79s0,0,0,0,0,0,0-.1.06-.14.06-.37c0,0,0-.07,0-.1a.3.3,0,0,1,0-.13h0s0-.08.07-.08h0a.28.28,0,0,1,.08.06H9l.62.58a1,1,0,0,0,.55.2h.26a.73.73,0,0,0,.21-.06h0a1.9,1.9,0,0,0,.77-.63h0v0h0a1.24,1.24,0,0,0,.21-.53h0c.09-.27.36-.13.36-.43v-.1a.1.1,0,0,1,.1-.07h0a.16.16,0,0,1,.09.05h0a.11.11,0,0,0,.1.06c.14,0,.1-.12.3-.12Z"/><path class="cls-3" d="M21.46,32.26s.84-1.64,2.06-1.59C23.52,30.67,23.63,32,21.46,32.26Z"/><path class="cls-3" d="M21.75,32.78s1.84-.91,2.54-.05A2.53,2.53,0,0,1,21.75,32.78Z"/><path class="cls-3" d="M23.1,32a2.48,2.48,0,0,1,2.17-.59S25.19,32.24,23.1,32Z"/><path class="cls-3" d="M24,30.94s-.2-.44.39-.51C24.35,30.43,24.46,31,24,30.94Z"/><path class="cls-3" d="M24.84,32.65s-.2-.53.42-.54C25.26,32.11,25.36,32.71,24.84,32.65Z"/><path class="cls-3" d="M24.84,30.77s.48-1.59,1.88-1.33C26.72,29.44,26.61,30.41,24.84,30.77Z"/><path class="cls-3" d="M26,30.89s1.05-1.28,2.19-1.11C28.19,29.78,28,30.82,26,30.89Z"/><path class="cls-3" d="M25.55,31.69s.44-.76,2.39-.34C27.94,31.35,26.52,32.47,25.55,31.69Z"/><path class="cls-3" d="M28,31.05s-.25-.3.27-.47C28.23,30.58,28.33,31.05,28,31.05Z"/><path class="cls-3" d="M27.12,29.63s-.21-.54.42-.52C27.54,29.11,27.61,29.67,27.12,29.63Z"/><path class="cls-3" d="M27.76,29.38s.63-2.29,1.74-2A3.91,3.91,0,0,1,27.76,29.38Z"/><path class="cls-3" d="M28.74,29.43s.63-1.6,1.62-1.57C30.36,27.86,30.49,28.76,28.74,29.43Z"/><path class="cls-3" d="M28.41,30.27a2.28,2.28,0,0,1,2.36-.64S30.82,30.63,28.41,30.27Z"/><path class="cls-3" d="M30.06,29.28s-.13-.45.65-.4C30.71,28.88,30.78,29.46,30.06,29.28Z"/><path class="cls-3" d="M30,27.47a11.22,11.22,0,0,1,0-1.18c0-.18.07-.29.5-.51a8.39,8.39,0,0,0-.08,1A1.82,1.82,0,0,1,30,27.47Z"/><path class="cls-3" d="M30.72,27.43a1.87,1.87,0,0,1,.26-.78c.29-.55.88-1.3,1.54-1.38a1.41,1.41,0,0,1-.13,1.13A2.35,2.35,0,0,1,30.72,27.43Z"/><path class="cls-3" d="M30.67,28.4c0-.15.2-.95,1.72-.93,0,0-.14.73-.48.86S30.67,28.54,30.67,28.4Z"/><path class="cls-3" d="M21.17,34.11l.52-.48-.92-.71.4-.19L21,32.51l-.73.31-.72-.31-.19.22.4.19-.92.71.52.48s-.12,0-.08.09.13,0,.13,0l.86-1,.87,1s.09.07.13,0S21.17,34.11,21.17,34.11Z"/><path class="cls-3" d="M19,32.26S18.2,30.62,17,30.67C17,30.67,16.88,32,19,32.26Z"/><path class="cls-3" d="M18.76,32.78s-1.85-.91-2.54-.05A2.53,2.53,0,0,0,18.76,32.78Z"/><path class="cls-3" d="M17.41,32a2.49,2.49,0,0,0-2.18-.59S15.31,32.24,17.41,32Z"/><path class="cls-3" d="M16.55,30.94s.2-.44-.4-.51C16.15,30.43,16.05,31,16.55,30.94Z"/><path class="cls-3" d="M15.67,32.65s.2-.53-.42-.54C15.25,32.11,15.15,32.71,15.67,32.65Z"/><path class="cls-3" d="M15.67,30.77s-.48-1.59-1.89-1.33C13.78,29.44,13.9,30.41,15.67,30.77Z"/><path class="cls-3" d="M14.51,30.89s-1.06-1.28-2.19-1.11C12.32,29.78,12.54,30.82,14.51,30.89Z"/><path class="cls-3" d="M15,31.69s-.45-.76-2.4-.34C12.56,31.35,14,32.47,15,31.69Z"/><path class="cls-3" d="M12.55,31.05s.25-.3-.27-.47C12.28,30.58,12.18,31.05,12.55,31.05Z"/><path class="cls-3" d="M13.38,29.63s.21-.54-.42-.52C13,29.11,12.89,29.67,13.38,29.63Z"/><path class="cls-3" d="M12.74,29.38s-.63-2.29-1.73-2A3.92,3.92,0,0,0,12.74,29.38Z"/><path class="cls-3" d="M11.77,29.43s-.63-1.6-1.62-1.57C10.15,27.86,10,28.76,11.77,29.43Z"/><path class="cls-3" d="M12.1,30.27a2.29,2.29,0,0,0-2.37-.64S9.69,30.63,12.1,30.27Z"/><path class="cls-3" d="M10.45,29.28s.13-.45-.65-.4C9.8,28.88,9.72,29.46,10.45,29.28Z"/><path class="cls-3" d="M10.47,27.47s0-.89,0-1.18-.07-.29-.5-.51a9.24,9.24,0,0,1,.07,1A1.75,1.75,0,0,0,10.47,27.47Z"/><path class="cls-3" d="M9.79,27.43a2.09,2.09,0,0,0-.26-.78c-.3-.55-.89-1.3-1.54-1.38a1.41,1.41,0,0,0,.13,1.13A2.32,2.32,0,0,0,9.79,27.43Z"/><path class="cls-3" d="M9.84,28.4c0-.15-.21-.95-1.72-.93,0,0,.14.73.48.86S9.84,28.54,9.84,28.4Z"/></g></g></svg>