<svg viewBox="0 0 40.5 40.5" xmlns="http://www.w3.org/2000/svg"><path d="m40.5 20.25c0 .57 0 1.12-.08 1.67a19.24 19.24 0 0 1 -.54 3.34 20.29 20.29 0 0 1 -14.62 14.61 18.48 18.48 0 0 1 -3.34.55c-.55 0-1.1.08-1.67.08s-1.12 0-1.67-.08a18.45 18.45 0 0 1 -3.35-.55 20.29 20.29 0 0 1 -14.61-14.61 19.24 19.24 0 0 1 -.54-3.34c0-.55-.08-1.1-.08-1.67s0-1.12.08-1.67a19.35 19.35 0 0 1 .54-3.35 20.26 20.26 0 0 1 14.61-14.6 18.45 18.45 0 0 1 3.35-.55c.55 0 1.1-.08 1.67-.08s1.12 0 1.67.08a18.48 18.48 0 0 1 3.34.55 20.29 20.29 0 0 1 14.62 14.6 19.35 19.35 0 0 1 .54 3.35c.05.55.08 1.1.08 1.67z" fill="#006b3f"/><path d="m21.92.08v40.34c-.55 0-1.1.08-1.67.08s-1.12 0-1.67-.08v-40.34c.55 0 1.1-.08 1.67-.08s1.12 0 1.67.08z"/><path d="m18.58.08v40.34a18.45 18.45 0 0 1 -3.35-.55v-39.24a18.45 18.45 0 0 1 3.35-.55z" fill="#fcd116"/><path d="m25.26.63v39.24a18.48 18.48 0 0 1 -3.34.55v-40.34a18.48 18.48 0 0 1 3.34.55z" fill="#fff"/><path d="m40.5 20.25c0 .57 0 1.12-.08 1.67h-40.34c0-.55-.08-1.1-.08-1.67s0-1.12.08-1.67h40.34c.05.55.08 1.1.08 1.67z"/><path d="m40.42 18.58h-40.34a19.35 19.35 0 0 1 .54-3.35h39.26a19.35 19.35 0 0 1 .54 3.35z" fill="#fcd116"/><path d="m40.42 21.92a19.24 19.24 0 0 1 -.54 3.34h-39.26a19.24 19.24 0 0 1 -.54-3.34z" fill="#fff"/><circle cx="20.24" cy="20.24" fill="#d41c30" r="10.12"/><path d="m22.67 23.12-.32.13-.14.7v1.66l.24.26s.5.15.48-2.05z" fill="#006b3f"/><path d="m22.43 25.89-.23-.26a0 0 0 0 1 0 0v-1.66l.14-.7s0 0 0 0l.33-.13.21.69c0 1.44-.19 1.9-.37 2a.21.21 0 0 1 -.08.06zm0 0a.16.16 0 0 0 .1 0c.13-.1.36-.5.34-2l-.2-.67-.29.12-.14.68v1.65z"/><path d="m22.1 24-.14-.7-.32-.13-.21.7c-.11 2.24.47 2 .47 2l.24-.26z" fill="#006b3f"/><path d="m21.87 25.92a.26.26 0 0 1 -.14-.05c-.18-.14-.39-.6-.32-2l.21-.69.32.13s0 0 0 0l.13.69v1.67l-.23.26h-.05zm-.45-2c-.07 1.47.16 1.88.3 2a.2.2 0 0 0 .14 0l.23-.25v-1.65l-.09-.72-.3-.12z"/><path d="m22.16 26.36c.22-.1.4-1 .31-3.85l-.51.73-.42.91s.35 2.33.62 2.21z" fill="#006b3f"/><path d="m22.14 26.38c-.27-.15-.57-2.13-.58-2.21l.42-.92.51-.74c.07 2.45 0 3.75-.32 3.88zm-.58-2.22a7.15 7.15 0 0 0 .56 2.17c.16-.07.39-.65.3-3.77l-.47.68z"/><path d="m22.74 24.48h-4a.12.12 0 0 1 -.11-.09.49.49 0 0 0 -.51-.47.58.58 0 0 0 -.59.39.1.1 0 0 1 -.09.07h-.12a.07.07 0 0 0 -.06.1c.06.17.23.57.42.63a4.48 4.48 0 0 0 1 0h4.07z" fill="#9c4a00"/><path d="m18.34 25.24a3 3 0 0 1 -.64 0c-.19-.06-.35-.43-.43-.65a.08.08 0 0 1 0-.08.08.08 0 0 1 .06 0h.13a.07.07 0 0 0 .07-.06.59.59 0 0 1 .61-.4.51.51 0 0 1 .53.49.1.1 0 0 0 .09.07h4s0 0 0 0v.69a0 0 0 0 1 0 0h-4.07-.34zm-.19-1.24a.55.55 0 0 0 -.57.38.13.13 0 0 1 -.1.08h-.13s0 0 0 0a0 0 0 0 0 0 0c.06.17.23.57.41.62a3.85 3.85 0 0 0 .85 0h.11 4v-.58h-3.95a.12.12 0 0 1 -.13-.1.48.48 0 0 0 -.49-.4z"/><path d="m20.27 24s-.65.37-.65.84.58.72.83.72.13-.24.07-.29-.51-.17-.51-.41a.44.44 0 0 1 .34-.4.16.16 0 0 0 .11-.12l.07-.33z" fill="#fcd116"/><path d="m20.45 25.61c-.26 0-.85-.25-.85-.74s.63-.84.66-.86h.3l-.08.35a.17.17 0 0 1 -.13.14.43.43 0 0 0 -.32.38c0 .15.17.22.32.29a.61.61 0 0 1 .18.1.27.27 0 0 1 .08.25.16.16 0 0 1 -.16.09zm-.18-1.56c-.06 0-.63.39-.63.82s.57.7.81.7a.12.12 0 0 0 .12-.06.24.24 0 0 0 -.07-.2.65.65 0 0 0 -.17-.09c-.15-.07-.34-.15-.34-.33a.45.45 0 0 1 .35-.42.16.16 0 0 0 .1-.11l.07-.3z"/><path d="m20.59 24s-.64.37-.64.84.58.72.82.72.13-.24.08-.29-.51-.17-.51-.41a.44.44 0 0 1 .34-.4.19.19 0 0 0 .11-.12l.07-.33z" fill="#fcd116"/><path d="m20.77 25.61c-.25 0-.84-.25-.84-.74s.63-.84.65-.86h.31l-.08.35a.2.2 0 0 1 -.13.14.42.42 0 0 0 -.32.38c0 .15.17.22.31.29a.56.56 0 0 1 .19.1.26.26 0 0 1 .07.25s-.05.09-.16.09zm-.17-1.56c-.06 0-.63.39-.63.82s.57.7.8.7q.11 0 .12-.06c0-.06 0-.17-.06-.2l-.17-.09c-.16-.07-.34-.15-.34-.33a.45.45 0 0 1 .35-.42.16.16 0 0 0 .1-.11l.06-.3z"/><path d="m20.93 24s-.64.37-.64.84.58.72.82.72.13-.24.07-.29-.51-.17-.51-.41a.45.45 0 0 1 .34-.4.2.2 0 0 0 .12-.12l.07-.34z" fill="#fcd116"/><path d="m21.11 25.61c-.25 0-.84-.25-.84-.74s.62-.84.65-.86h.3l-.07.35a.2.2 0 0 1 -.13.14.43.43 0 0 0 -.33.38c0 .15.17.22.32.29a.85.85 0 0 1 .19.1.29.29 0 0 1 .07.25s-.05.09-.16.09zm-.18-1.56c-.06 0-.62.39-.62.82s.57.7.8.7q.11 0 .12-.06c0-.06 0-.17-.06-.2l-.17-.09c-.15-.07-.34-.15-.34-.33a.46.46 0 0 1 .36-.42.14.14 0 0 0 .09-.11l.07-.3z"/><path d="m21.32 24s-.65.37-.65.84.58.72.83.72.13-.24.07-.29-.51-.17-.51-.41a.44.44 0 0 1 .34-.4.16.16 0 0 0 .11-.12l.07-.33z" fill="#fcd116"/><path d="m21.5 25.61c-.26 0-.85-.25-.85-.74s.63-.84.66-.86h.3l-.08.35a.17.17 0 0 1 -.12.14.43.43 0 0 0 -.33.38c0 .15.17.22.32.29a.61.61 0 0 1 .18.1.27.27 0 0 1 .08.25.16.16 0 0 1 -.16.09zm-.18-1.56c-.06 0-.63.39-.63.82s.57.7.81.7a.12.12 0 0 0 .12-.06.27.27 0 0 0 -.06-.2l-.18-.09c-.15-.07-.34-.15-.34-.33a.45.45 0 0 1 .36-.42.17.17 0 0 0 .09-.11l.07-.3z"/><path d="m20.5 23.67c0 .33-.12.6-.27.6s-.23-.27-.23-.6.12-.59.28-.59.22.26.22.59z" fill="#006b3f"/><path d="m20.23 24.29c-.17 0-.3-.27-.3-.62s.13-.61.3-.61.3.27.3.61-.14.62-.3.62zm0-1.19c-.14 0-.26.26-.26.57s.12.58.26.58.25-.27.25-.58-.11-.57-.25-.57z"/><path d="m21.06 23.72c0 .33-.14.59-.31.59s-.3-.26-.3-.59.14-.6.3-.6.31.27.31.6z" fill="#006b3f"/><path d="m20.75 24.34c-.18 0-.32-.28-.32-.62s.14-.62.32-.62.33.27.33.62-.14.62-.33.62zm0-1.2c-.15 0-.28.26-.28.58s.13.57.28.57.25-.29.25-.57-.09-.58-.25-.58z"/><path d="m21.26 23.65c0 .33-.13.59-.28.59s-.28-.26-.28-.59.13-.6.28-.6.28.27.28.6z" fill="#006b3f"/><path d="m21 24.27c-.17 0-.3-.28-.3-.62s.13-.62.3-.62.3.27.3.62-.15.62-.3.62zm0-1.2c-.14 0-.26.27-.26.58s.12.57.26.57.26-.26.26-.57-.14-.58-.26-.58z"/><path d="m21.75 23.8c0 .32-.12.59-.28.59s-.27-.27-.27-.59.12-.6.27-.6.28.27.28.6z" fill="#006b3f"/><path d="m21.47 24.41c-.16 0-.29-.27-.29-.61s.13-.62.29-.62.3.27.3.62-.13.61-.3.61zm0-1.19c-.14 0-.25.26-.25.58s.11.57.25.57.26-.26.26-.57-.12-.58-.26-.58z"/><path d="m20.15 22.86c0 .43-.12.79-.28.79s-.27-.36-.27-.79.12-.79.27-.79.28.35.28.79z" fill="#006b3f"/><path d="m19.87 23.67c-.16 0-.3-.36-.3-.81s.14-.81.3-.81.3.36.3.81-.17.81-.3.81zm0-1.58c-.12 0-.25.31-.25.77s.13.77.25.77.26-.31.26-.77-.13-.77-.26-.77z"/><path d="m20.73 23.1c0 .33-.15.6-.33.6s-.33-.27-.33-.6.14-.59.33-.59.33.26.33.59z" fill="#006b3f"/><path d="m20.4 23.72c-.2 0-.35-.28-.35-.62s.15-.62.35-.62.35.28.35.62-.16.62-.35.62zm0-1.19c-.17 0-.31.25-.31.57s.14.58.31.58.31-.26.31-.58-.14-.57-.31-.57z"/><path d="m20 22.08c0 .44-.12.79-.27.79s-.28-.35-.28-.79.12-.78.28-.78.27.35.27.78z" fill="#006b3f"/><path d="m19.75 22.89c-.17 0-.3-.35-.3-.81s.13-.81.3-.81.3.36.3.81-.14.81-.3.81zm0-1.57c-.13 0-.26.31-.26.76s.13.77.26.77.25-.31.25-.77-.13-.76-.25-.76z"/><path d="m21.52 23.05c0 .37-.13.67-.28.67s-.28-.3-.28-.67.13-.68.28-.68.28.3.28.68z" fill="#006b3f"/><path d="m21.24 23.74c-.17 0-.3-.3-.3-.69s.13-.7.3-.7.3.31.3.7-.13.69-.3.69zm0-1.35c-.14 0-.26.3-.26.66s.12.65.26.65.26-.3.26-.65-.12-.66-.26-.66z"/><circle cx="20.63" cy="17.17" fill="#006b3f" r=".33"/><path d="m20.63 17.53a.36.36 0 1 1 0-.71.36.36 0 0 1 0 .71zm0-.67a.32.32 0 1 0 .31.31.31.31 0 0 0 -.31-.31z"/><path d="m22.21 23.12c0 .37-.13.68-.29.68s-.29-.31-.29-.68.13-.67.29-.67.29.3.29.67z" fill="#006b3f"/><path d="m21.92 23.82c-.18 0-.31-.31-.31-.7s.13-.69.31-.69.31.3.31.69-.13.7-.31.7zm0-1.35c-.15 0-.27.3-.27.65s.12.65.27.65.27-.29.27-.65-.12-.65-.27-.65z"/><path d="m20.93 21.72v1l-.43.57a4.6 4.6 0 0 1 -1.58-6l.94-.15.28.43a4.38 4.38 0 0 0 -.06.55s0 .09 0 .13 0 .38 0 .61a6.54 6.54 0 0 0 .85 2.86z" fill="#9461c9"/><path d="m20.46 23.27a5.3 5.3 0 0 1 -1.46-1.56 4.48 4.48 0 0 1 -.09-4.49l.93-.15s0 0 0 0l.28.43a0 0 0 0 1 0 0 4.73 4.73 0 0 0 -.06.55.57.57 0 0 1 0 .13v.61a6.57 6.57 0 0 0 .94 2.92l-.05 1-.43.57zm-1.56-6a4.46 4.46 0 0 0 .1 4.42 5 5 0 0 0 1.47 1.53l.41-.55v-.94a6.68 6.68 0 0 1 -.88-2.93c0-.2 0-.41 0-.61s0-.09 0-.13c0-.31.05-.51.05-.55l-.26-.41z"/><circle cx="20.15" cy="17.56" fill="#006b3f" r=".33"/><path d="m20.15 17.92a.36.36 0 1 1 0-.71.36.36 0 0 1 0 .71zm0-.67a.31.31 0 0 0 -.32.31.32.32 0 1 0 .63 0 .31.31 0 0 0 -.31-.31z"/><ellipse cx="21.59" cy="22.83" fill="#006b3f" rx=".28" ry=".67"/><path d="m21.59 23.52c-.16 0-.29-.31-.29-.69s.13-.7.29-.7.3.31.3.7-.13.69-.3.69zm0-1.35c-.13 0-.25.3-.25.66s.12.65.25.65.26-.3.26-.65-.12-.66-.26-.66z"/><ellipse cx="21.18" cy="22.4" fill="#006b3f" rx=".28" ry=".67"/><path d="m21.18 23.1c-.16 0-.3-.31-.3-.7s.14-.69.3-.69.3.31.3.69-.13.7-.3.7zm0-1.35c-.14 0-.25.3-.25.65s.11.66.25.66.26-.3.26-.66-.12-.65-.26-.65z"/><path d="m23.18 24.57a7.23 7.23 0 0 0 -.87-1.57l-.1-.09a6.81 6.81 0 0 1 -2.21-4.11 3.84 3.84 0 0 1 0-.61s0-.09 0-.13a.73.73 0 0 1 .24-.52c.16-.11.46-.19.58-.05l.1.11a6.69 6.69 0 0 1 2.16 5 4.11 4.11 0 0 1 .05.84 2.7 2.7 0 0 1 .05 1.13z" fill="#006b3f"/><path d="m23.18 24.59a7 7 0 0 0 -.86-1.52.38.38 0 0 0 -.12-.07 6.89 6.89 0 0 1 -2.2-4.2 4.08 4.08 0 0 1 0-.61c0-.05 0-.1 0-.14a.7.7 0 0 1 .25-.53c.17-.11.47-.2.61 0l.09.1a6.93 6.93 0 0 1 1.17 1.38 6.23 6.23 0 0 1 1 3.66 3.67 3.67 0 0 1 .05.84 2.45 2.45 0 0 1 0 1.11 0 0 0 0 1 0 0zm-.86-1.59a7 7 0 0 1 .85 1.49 3 3 0 0 0 0-1 4.17 4.17 0 0 0 0-.84 6.75 6.75 0 0 0 -2.16-5l-.09-.11c-.12-.13-.41 0-.56.06a.64.64 0 0 0 -.23.5.57.57 0 0 0 0 .14 4.76 4.76 0 0 0 0 .6 6.76 6.76 0 0 0 2.16 4.12z"/><path d="m22.11 22.85s0 0 0 0a1.73 1.73 0 0 0 -.24-.36 2.18 2.18 0 0 1 -.45-.72v-.05a.25.25 0 0 1 0-.09 0 0 0 0 1 0 0 .11.11 0 0 0 0 .08.14.14 0 0 0 0 .06 2.4 2.4 0 0 0 .44.71 1.47 1.47 0 0 1 .25.36s0 0 0 0z"/><path d="m23.17 23.49a4.93 4.93 0 0 0 -.87-1.38c-.3-.38-.54-.68-.54-.89s0 0 0 0c0 .19.25.5.53.86a4.84 4.84 0 0 1 .88 1.4s0 0 0 0z"/><path d="m23.13 22.78s0 0 0 0a9.42 9.42 0 0 0 -1.13-1.78 0 0 0 0 1 0 0 9.59 9.59 0 0 1 1.13 1.73 0 0 0 0 1 0 0z"/><path d="m23.13 22.34a2 2 0 0 1 -.14-.47 1.48 1.48 0 0 0 -.34-.71l-.14-.16-.14-.18a0 0 0 0 1 0 0s0 0 0 0l.13.18c0 .05.09.1.13.16a1.5 1.5 0 0 1 .34.72 2 2 0 0 0 .14.47s0 0 0 0z"/><circle cx="20.23" cy="17.12" fill="#006b3f" r=".33"/><path d="m20.23 17.47a.36.36 0 1 1 0-.71.36.36 0 0 1 0 .71zm0-.66a.31.31 0 1 0 .31.31.31.31 0 0 0 -.31-.31z"/><path d="m20 17.13a.33.33 0 1 1 -.33-.33.33.33 0 0 1 .33.33z" fill="#006b3f"/><path d="m19.71 17.48a.34.34 0 0 1 -.35-.35.35.35 0 0 1 .35-.36.36.36 0 0 1 .36.36.35.35 0 0 1 -.36.35zm0-.66a.31.31 0 1 0 .31.31.31.31 0 0 0 -.31-.31z"/><path d="m19.55 17.15a.34.34 0 1 1 -.33-.33.34.34 0 0 1 .33.33z" fill="#006b3f"/><path d="m19.22 17.51a.36.36 0 1 1 0-.71.36.36 0 0 1 0 .71zm0-.67a.31.31 0 1 0 .31.31.31.31 0 0 0 -.31-.31z"/><path d="m19.68 16.88a.34.34 0 0 1 -.33.34.34.34 0 0 1 0-.67.33.33 0 0 1 .33.33z" fill="#006b3f"/><path d="m19.35 17.24a.36.36 0 1 1 0-.71.36.36 0 0 1 0 .71zm0-.67a.31.31 0 1 0 .31.31.31.31 0 0 0 -.31-.31z"/><circle cx="20.41" cy="16.58" fill="#006b3f" r=".33"/><path d="m20.41 16.93a.35.35 0 0 1 -.36-.35.36.36 0 1 1 .71 0 .35.35 0 0 1 -.35.35zm0-.66a.31.31 0 1 0 .31.31.31.31 0 0 0 -.31-.31z"/><path d="m20.25 16.65a.34.34 0 1 1 -.34-.34.34.34 0 0 1 .34.34z" fill="#006b3f"/><path d="m19.91 17a.36.36 0 0 1 0-.71.36.36 0 1 1 0 .71zm0-.67a.32.32 0 1 0 .32.32.31.31 0 0 0 -.32-.32z"/><path d="m21 23c0 .33-.13.6-.28.6s-.28-.27-.28-.6.13-.59.28-.59.28.25.28.59z" fill="#006b3f"/><path d="m20.75 23.6c-.17 0-.3-.27-.3-.62s.13-.61.3-.61.3.27.3.61-.13.62-.3.62zm0-1.19c-.14 0-.26.26-.26.57s.12.58.26.58.25-.26.25-.56-.11-.59-.25-.59z"/><ellipse cx="20.78" cy="22.15" fill="#006b3f" rx=".28" ry=".67"/><path d="m20.78 22.85c-.17 0-.3-.31-.3-.7s.13-.69.3-.69.3.3.3.69-.08.7-.3.7zm0-1.35c-.14 0-.25.3-.25.65s.11.65.25.65.26-.29.26-.65-.12-.65-.26-.65z"/><path d="m20.79 17a.65.65 0 0 0 .26.78c.46.36 1.24.89 1.71.24 0 0-.66-.13-.86-.46s-1.11-.56-1.11-.56z" fill="#9461c9"/><path d="m22.19 18.37a2.13 2.13 0 0 1 -1.19-.55.68.68 0 0 1 -.27-.81s0 0 0 0 .93.22 1.13.57.84.45.85.45a0 0 0 0 1 0 0s0 0 0 0a.72.72 0 0 1 -.48.31zm-1.39-1.37a.64.64 0 0 0 .26.75 1.93 1.93 0 0 0 1.23.53.64.64 0 0 0 .44-.27 1.44 1.44 0 0 1 -.85-.46c-.18-.26-.95-.48-1.08-.55z"/><circle cx="19.45" cy="16.63" fill="#006b3f" r=".33"/><path d="m19.45 17a.35.35 0 0 1 -.35-.35.36.36 0 1 1 .71 0 .35.35 0 0 1 -.36.35zm0-.66a.31.31 0 1 0 .31.31.31.31 0 0 0 -.31-.33z"/><path d="m20.68 16.51s-.26.51.39.93c0 0 .92.86 1.53.11a2.78 2.78 0 0 1 -1-.52 2.59 2.59 0 0 0 -.92-.52z" fill="#9461c9"/><path d="m22 17.88a1.6 1.6 0 0 1 -.94-.43c-.65-.42-.4-.95-.39-.95s0 0 0 0a2.7 2.7 0 0 1 1 .52 2.6 2.6 0 0 0 .95.52.8.8 0 0 1 -.57.32zm-1.3-1.35c0 .09-.18.52.39.89a1.54 1.54 0 0 0 1 .42.75.75 0 0 0 .51-.28 2.64 2.64 0 0 1 -.93-.52 2.75 2.75 0 0 0 -.98-.51z"/><path d="m20.42 16.43s1.18 1.63 2 .64c0 0-1.56-.62-1.52-1.07s-.48.43-.48.43z" fill="#9461c9"/><path d="m21.83 17.41c-.7 0-1.36-.93-1.38-1s0 0 0 0c.09-.15.39-.61.51-.57s0 .1 0 .15c0 .43 1.5 1.05 1.51 1.05s0 0 0 0a.87.87 0 0 1 -.64.37zm-1.38-1c.08.1.7.91 1.34.94a.81.81 0 0 0 .64-.29c-.22-.09-1.55-.65-1.51-1.08 0-.1 0-.11 0-.11s-.29.28-.47.56z"/><path d="m20.5 16.32s.84 1 1.63.23a1.93 1.93 0 0 1 -.88-.61c-.25-.39-.75.38-.75.38z" fill="#9461c9"/><path d="m21.47 16.86a1.5 1.5 0 0 1 -.94-.53s0 0 0 0 .37-.52.62-.5a.19.19 0 0 1 .17.12 1.89 1.89 0 0 0 .86.6s0 0 0 0a.94.94 0 0 1 -.71.31zm-.94-.54a1.44 1.44 0 0 0 .9.5.91.91 0 0 0 .66-.26 1.84 1.84 0 0 1 -.85-.61c0-.07-.08-.1-.14-.1-.22 0-.51.39-.57.47z"/><path d="m20.52 15a1 1 0 0 0 -.63-.16c-1.34 0-1.13 1-1.13 1l.26.52a2.14 2.14 0 0 0 2.25-.26 1.23 1.23 0 0 0 .78.1c-.2.02-1.29-1.02-1.53-1.2zm-.8.73c-.16 0-.29-.08-.29-.17s.13-.17.29-.17.3.07.3.17-.13.19-.3.19z" fill="#9461c9"/><path d="m19.88 16.61a1.72 1.72 0 0 1 -.87-.23l-.26-.52a.84.84 0 0 1 .15-.63 1.22 1.22 0 0 1 1-.37.9.9 0 0 1 .62.16 4.68 4.68 0 0 1 .43.36 4.88 4.88 0 0 0 1.09.82s0 0 0 0a1.31 1.31 0 0 1 -.79-.09 2.49 2.49 0 0 1 -1.37.5zm-.88-.26a2.16 2.16 0 0 0 2.22-.26 0 0 0 0 1 0 0 1.09 1.09 0 0 0 .66.1 7.43 7.43 0 0 1 -1-.8l-.37-.39a1 1 0 0 0 -.6-.15 1.19 1.19 0 0 0 -1 .35.8.8 0 0 0 -.15.6zm.68-.58c-.18 0-.31-.08-.31-.19s.13-.2.31-.2.32.09.32.2-.1.19-.28.19zm0-.34c-.15 0-.27.07-.27.15s.12.15.27.15.28-.07.28-.15-.09-.15-.24-.15z"/><circle cx="19.72" cy="15.58" r=".09"/><path d="m18.39 16.4a.47.47 0 0 0 .52.11c.28-.09.33-.22.32-.34s-.14-.24-.38-.13a.94.94 0 0 0 -.46.36z" fill="#fcd116"/><path d="m18.73 16.57a.5.5 0 0 1 -.36-.16 1.05 1.05 0 0 1 .47-.37.32.32 0 0 1 .29 0 .22.22 0 0 1 .12.16q0 .24-.33.36a.46.46 0 0 1 -.19.01zm-.31-.17a.45.45 0 0 0 .49.09c.22-.07.32-.18.3-.31a.2.2 0 0 0 -.1-.13.27.27 0 0 0 -.26 0 1 1 0 0 0 -.43.35z"/><path d="m18.94 15.65s-1.22-.24-.61 1.15a1.34 1.34 0 0 1 .68-.75c.09-.05.15-.38-.07-.4z" fill="#fcd116"/><path d="m18.34 16.86v-.06c-.2-.46-.23-.79-.08-1a.77.77 0 0 1 .71-.19.17.17 0 0 1 .16.15.31.31 0 0 1 -.09.29 1.31 1.31 0 0 0 -.67.73zm.4-1.21a.6.6 0 0 0 -.48.19c-.13.17-.11.48.07.9a1.34 1.34 0 0 1 .67-.74c.05 0 .09-.15.07-.25a.12.12 0 0 0 -.13-.11z"/><path d="m20.62 19.21a.37.37 0 0 1 -.21-.14l-.41-.57.41.56a.31.31 0 0 0 .17.12.21.21 0 0 0 0-.13c0-.14-.15-.32-.27-.48a1.5 1.5 0 0 1 -.17-.23 0 0 0 0 1 0 0s0 0 0 0l.16.22a1 1 0 0 1 .28.51s0 .17-.07.17z"/><path d="m20.82 18.94a.27.27 0 0 1 -.16-.07 0 0 0 0 1 0 0s0 0 0 0a.24.24 0 0 0 .13.06s0 0 0-.15a.73.73 0 0 0 -.18-.4 1.24 1.24 0 0 1 -.17-.27s0 0 0 0a1.48 1.48 0 0 0 .16.27.7.7 0 0 1 .19.42c.1.08.1.14.03.14z"/><path d="m21.08 18.78s-.06 0-.17-.1l-.07-.07s0 0 0 0l.07.07c.1.09.1.09.14.09s0 0 0-.1a1.45 1.45 0 0 0 -.27-.73l-.05-.08s0 0 0 0l.05.08a1.55 1.55 0 0 1 .27.75c.11.01.11.09.03.09z"/><path d="m20.84 19.73c-.19 0-.5-.32-.54-.82s0 0 0 0c0 .51.35.78.5.78h.07c.06-.06.06-.22.06-.33a.7.7 0 0 0 -.14-.4s0 0 0 0a.78.78 0 0 1 .15.43.6.6 0 0 1 -.07.36.17.17 0 0 1 -.03-.02z"/><path d="m21.29 19.51c-.11 0-.2-.1-.31-.22a0 0 0 0 1 0 0c.1.11.18.21.27.21s.12-.07.12-.23 0-.15-.18-.31l-.14-.16a0 0 0 0 1 0 0l.15.16c.14.17.18.22.18.34s.07.21-.09.21z"/><path d="m21.71 19.33a.37.37 0 0 1 -.21-.13l-.07-.05s0 0 0 0l.08.06c.06 0 .13.11.19.11s0-.06 0-.11a1.59 1.59 0 0 0 -.27-.68 1.84 1.84 0 0 1 -.2-.45s0 0 0 0a2 2 0 0 0 .2.44 1.66 1.66 0 0 1 .27.7v.14a.09.09 0 0 1 .01-.03z"/><path d="m21 20.44c-.17 0-.65-.78-.67-1 0 .21.49.95.63.95s.07-.09.07-.19a2.45 2.45 0 0 0 -.03-.6 0 0 0 0 1 0 0s0 0 0 0a2.76 2.76 0 0 1 .13.63c0 .06 0 .21-.13.21z"/><path d="m21.35 20.27a.24.24 0 0 1 -.19-.1l-.07-.06a0 0 0 0 1 0 0l.07.06a.19.19 0 0 0 .16.08c.08 0 .11 0 .11-.18a1.14 1.14 0 0 0 -.12-.55s0 0 0 0a1.18 1.18 0 0 1 .14.58c.06.01.06.17-.1.17z"/><path d="m21.72 20a.33.33 0 0 1 -.18-.1l-.08-.05a0 0 0 0 1 0 0l.07.06a.29.29 0 0 0 .16.09c.07 0 .09 0 .1-.05a.61.61 0 0 0 0-.14.61.61 0 0 0 -.1-.4 0 0 0 0 1 0 0 .79.79 0 0 1 .11.42.39.39 0 0 1 0 .16.13.13 0 0 1 -.08.01z"/><path d="m21.44 21.65c-.38 0-.81-1-.81-1.39a.41.41 0 0 1 0-.11v-.1a0 0 0 0 1 0 0v.11a.31.31 0 0 0 0 .1c0 .38.42 1.34.77 1.34.1 0 .12-.16.12-.31a2.08 2.08 0 0 0 -.43-1.11s0 0 0 0a0 0 0 0 1 0 0 2.08 2.08 0 0 1 .44 1.13c.07.22.02.34-.09.34z"/><path d="m21.85 21.24a.31.31 0 0 1 -.23-.12.19.19 0 0 0 -.07-.06s0 0 0 0a.27.27 0 0 1 .08.07.27.27 0 0 0 .2.11s.17-.04.17-.24a1.53 1.53 0 0 0 -.35-1s0 0 0 0a1.64 1.64 0 0 1 .35 1c0 .2-.07.24-.15.24z"/><path d="m22.31 20.84a.44.44 0 0 1 -.31-.14v-.05s0 0 0 0l.06.05a.4.4 0 0 0 .25.13c.12 0 .13-.28.13-.36a2.72 2.72 0 0 0 -.7-1.5 0 0 0 0 1 0 0s0 0 0 0a2.84 2.84 0 0 1 .71 1.54c.03.05.02.33-.14.33z"/><path d="m22.78 21.32s0 0 0 0a1.15 1.15 0 0 0 -.29-.89 0 0 0 0 1 0 0 1.25 1.25 0 0 1 .31.92z"/><path d="m22.31 23c-.58.15-1.38-1.31-1.38-1.31a6.54 6.54 0 0 1 -.93-2.89 6.81 6.81 0 0 0 2.17 4.14z" fill="#d41c30"/><path d="m22.23 23.06c-.58 0-1.28-1.27-1.31-1.33a6.54 6.54 0 0 1 -.92-2.93v-.16l.06.16a6.72 6.72 0 0 0 2.16 4.12l.1.1h-.12zm-2.13-3.84a6.57 6.57 0 0 0 .9 2.49s.77 1.38 1.32 1.31l-.12-.02a6.84 6.84 0 0 1 -2.1-3.78z"/><circle cx="22.72" cy="24.82" fill="#9c4a00" r=".35"/><path d="m22.72 25.19a.36.36 0 0 1 -.37-.37.37.37 0 0 1 .37-.37.38.38 0 0 1 .37.37.37.37 0 0 1 -.37.37zm0-.69a.32.32 0 0 0 -.33.32.33.33 0 0 0 .33.33.32.32 0 0 0 .32-.33.32.32 0 0 0 -.32-.32z"/><path d="m20.24 11.27.32.98h1.04l-.84.61.32.99-.84-.61-.83.61.32-.99-.84-.61h1.03z" fill="#006b3f"/><path d="m21.12 13.9-.88-.64-.87.64.33-1-.88-.64h1.09l.33-1 .34 1h1.08l-.87.64zm-.88-.69.8.58-.3-.94.8-.58h-1l-.31-.93-.3.93h-.93l.8.58-.3.94z"/><path d="m14.97 12.98.84.61.83-.61-.32.99.84.6h-1.03l-.32.99-.32-.99h-1.04l.84-.6z" fill="#006b3f"/><path d="m15.81 15.63-.34-1h-1.08l.87-.64-.33-1 .88.63.87-.63-.33 1 .88.64h-1.09zm-1.29-1.08h1l.31.94.3-.94h1l-.83-.55.3-.93-.79.58-.81-.65.3.93z"/><path d="m11.71 17.47h1.03l.32-.99.32.99h1.04l-.84.61.32.98-.84-.61-.84.61.32-.98z" fill="#006b3f"/><path d="m13.94 19.12-.88-.64-.88.64.34-1-.88-.64h1.09l.33-1 .34 1h1.08l-.88.64zm-2.17-1.63.8.58-.31.94.8-.58.8.58-.3-.94.79-.58h-1l-.31-.94-.3.94z"/><path d="m11.71 23.02.83-.61-.32-.98.84.6.84-.6-.32.98.84.61h-1.04l-.32.98-.32-.98z" fill="#006b3f"/><path d="m13.06 24.07-.33-1h-1.09l.88-.64-.34-1 .88.64.88-.64-.34 1 .88.64h-1.08zm-1.29-1.07h1l.3.93.31-.93h1l-.79-.58.3-.94-.8.58-.8-.58.31.94z"/><path d="m14.97 27.51.32-.99-.84-.61h1.04l.32-.98.32.98h1.03l-.84.61.32.99-.83-.61z" fill="#006b3f"/><path d="m16.68 27.56-.87-.64-.88.64.33-1-.87-.64h1.08l.34-1 .33 1h1.09l-.88.64zm-.87-.69.79.58-.3-.94.8-.58h-1l-.3-.93-.31.93h-1l.79.58-.3.94z"/><path d="m20.24 29.22-.32-.98h-1.03l.84-.61-.32-.99.83.61.84-.61-.32.99.84.61h-1.04z" fill="#006b3f"/><path d="m20.24 29.29-.33-1h-1.09l.88-.64-.33-1 .87.64.88-.64-.33 1 .87.64h-1.08zm-1.24-1.07h1l.3.93.31-.93h1l-.8-.58.3-.94-.8.58-.79-.58.3.94z"/><path d="m25.52 27.51-.84-.61-.83.61.32-.99-.84-.61h1.03l.32-.98.32.98h1.04l-.84.61z" fill="#006b3f"/><path d="m25.56 27.56-.88-.64-.87.64.33-1-.88-.64h1.09l.33-1 .34 1h1.08l-.87.64zm-.88-.69.8.58-.3-.94.79-.58h-.97l-.32-.93-.3.93h-1l.8.58-.3.94z"/><path d="m28.78 23.02h-1.03l-.32.98-.32-.98h-1.04l.84-.61-.32-.98.84.6.84-.6-.32.98z" fill="#006b3f"/><path d="m27.43 24.07-.34-1h-1.09l.87-.64-.33-1 .88.64.87-.64-.33 1 .88.64h-1.08zm-1.29-1.07h1l.31.93.3-.93h1l-.8-.58.3-.94-.79.58-.8-.58.3.94z"/><path d="m28.78 17.47-.83.61.32.98-.84-.61-.84.61.32-.98-.84-.61h1.04l.32-.99.32.99z" fill="#006b3f"/><path d="m28.3 19.12-.87-.64-.88.64.33-1-.88-.67h1.08l.34-1 .33 1h1.09l-.88.64zm-2.16-1.63.79.58-.3.94.8-.58.79.58-.3-.94.8-.58h-1l-.3-.94-.31.94z"/><path d="m25.52 12.98-.32.99.84.6h-1.04l-.32.99-.32-.99h-1.03l.84-.6-.32-.99.83.61z" fill="#006b3f"/><path d="m24.68 15.63-.33-1h-1.09l.88-.64-.33-1 .87.63.88-.63-.33 1 .87.64h-1.1zm-1.29-1.08h1l.3.94.31-.94h1l-.82-.55.3-.93-.8.58-.79-.65.3.93z"/></svg>