<svg xmlns="http://www.w3.org/2000/svg" viewBox="0 0 40.5 40.5"><defs><style>.cls-1{fill:#006b3f;}.cls-2{fill:#fcd116;}.cls-3{fill:#fff;}.cls-4{fill:#d41c30;}.cls-5{fill:#9c4a00;}.cls-6{fill:#9461c9;}</style></defs><g id="Ebene_2" data-name="Ebene 2"><g id="Ńëîé_1" data-name="Ńëîé 1"><path class="cls-1" d="M40.5,20.25c0,.57,0,1.12-.08,1.67a19.24,19.24,0,0,1-.54,3.34A20.29,20.29,0,0,1,25.26,39.87a18.48,18.48,0,0,1-3.34.55c-.55,0-1.1.08-1.67.08s-1.12,0-1.67-.08a18.45,18.45,0,0,1-3.35-.55A20.29,20.29,0,0,1,.62,25.26a19.24,19.24,0,0,1-.54-3.34c0-.55-.08-1.1-.08-1.67s0-1.12.08-1.67a19.35,19.35,0,0,1,.54-3.35A20.26,20.26,0,0,1,15.23.63,18.45,18.45,0,0,1,18.58.08c.55,0,1.1-.08,1.67-.08s1.12,0,1.67.08a18.48,18.48,0,0,1,3.34.55,20.29,20.29,0,0,1,14.62,14.6,19.35,19.35,0,0,1,.54,3.35C40.47,19.13,40.5,19.68,40.5,20.25Z"/><path d="M21.92.08V40.42c-.55,0-1.1.08-1.67.08s-1.12,0-1.67-.08V.08c.55,0,1.1-.08,1.67-.08S21.37,0,21.92.08Z"/><path class="cls-2" d="M18.58.08V40.42a18.45,18.45,0,0,1-3.35-.55V.63A18.45,18.45,0,0,1,18.58.08Z"/><path class="cls-3" d="M25.26.63V39.87a18.48,18.48,0,0,1-3.34.55V.08A18.48,18.48,0,0,1,25.26.63Z"/><path d="M40.5,20.25c0,.57,0,1.12-.08,1.67H.08c0-.55-.08-1.1-.08-1.67s0-1.12.08-1.67H40.42C40.47,19.13,40.5,19.68,40.5,20.25Z"/><path class="cls-2" d="M40.42,18.58H.08a19.35,19.35,0,0,1,.54-3.35H39.88A19.35,19.35,0,0,1,40.42,18.58Z"/><path class="cls-3" d="M40.42,21.92a19.24,19.24,0,0,1-.54,3.34H.62a19.24,19.24,0,0,1-.54-3.34Z"/><circle class="cls-4" cx="20.24" cy="20.24" r="10.12"/><path class="cls-1" d="M22.67,23.12l-.32.13-.14.7,0,1.66.24.26s.5.15.48-2.05Z"/><path d="M22.43,25.89h0l-.23-.26a0,0,0,0,1,0,0l0-1.66.14-.7s0,0,0,0l.33-.13h0l0,0,.21.69h0c0,1.44-.19,1.9-.37,2A.21.21,0,0,1,22.43,25.89Zm0,0a.16.16,0,0,0,.1,0c.13-.1.36-.5.34-2l-.2-.67-.29.12-.14.68,0,1.65Z"/><path class="cls-1" d="M22.1,24l-.14-.7-.32-.13-.21.7c-.11,2.24.47,2,.47,2l.24-.26Z"/><path d="M21.87,25.92a.26.26,0,0,1-.14-.05c-.18-.14-.39-.6-.32-2h0l.21-.69v0h0l.32.13s0,0,0,0l.13.69,0,1.67h0l-.23.26h-.05Zm0,0Zm-.45-2c-.07,1.47.16,1.88.3,2a.2.2,0,0,0,.14,0l.23-.25,0-1.65L22,23.3l-.3-.12Z"/><path class="cls-1" d="M22.16,26.36c.22-.1.4-1,.31-3.85l-.51.73-.42.91S21.89,26.48,22.16,26.36Z"/><path d="M22.14,26.38h0c-.27-.15-.57-2.13-.58-2.21h0l.42-.92.51-.74h0l0,0c.07,2.45,0,3.75-.32,3.88h0Zm-.58-2.22a7.15,7.15,0,0,0,.56,2.17h0c.16-.07.39-.65.3-3.77l-.47.68Z"/><path class="cls-5" d="M22.74,24.48l-4,0a.12.12,0,0,1-.11-.09.49.49,0,0,0-.51-.47.58.58,0,0,0-.59.39.1.1,0,0,1-.09.07l-.12,0a.07.07,0,0,0-.06.1c.06.17.23.57.42.63a4.48,4.48,0,0,0,1,0l4.07,0Z"/><path d="M18.34,25.24a3,3,0,0,1-.64,0c-.19-.06-.35-.43-.43-.65a.08.08,0,0,1,0-.08.08.08,0,0,1,.06,0l.13,0a.07.07,0,0,0,.07-.06.59.59,0,0,1,.61-.4.51.51,0,0,1,.53.49.1.1,0,0,0,.09.07l4,0h0s0,0,0,0v.69a0,0,0,0,1,0,0l-4.07,0h-.34ZM18.15,24a.55.55,0,0,0-.57.38.13.13,0,0,1-.1.08l-.13,0s0,0,0,0a0,0,0,0,0,0,0c.06.17.23.57.41.62a3.85,3.85,0,0,0,.85,0h.11l4,0V24.5l-3.95,0h0a.12.12,0,0,1-.13-.1A.48.48,0,0,0,18.15,24Z"/><path class="cls-2" d="M20.27,24s-.65.37-.65.84.58.72.83.72.13-.24.07-.29-.51-.17-.51-.41a.44.44,0,0,1,.34-.4.16.16,0,0,0,.11-.12l.07-.33Z"/><path d="M20.45,25.61c-.26,0-.85-.25-.85-.74s.63-.84.66-.86h.3l-.08.35a.17.17,0,0,1-.13.14.43.43,0,0,0-.32.38c0,.15.17.22.32.29a.61.61,0,0,1,.18.1.27.27,0,0,1,.08.25A.16.16,0,0,1,20.45,25.61Zm-.18-1.56c-.06,0-.63.39-.63.82s.57.7.81.7a.12.12,0,0,0,.12-.06.24.24,0,0,0-.07-.2.65.65,0,0,0-.17-.09c-.15-.07-.34-.15-.34-.33a.45.45,0,0,1,.35-.42.16.16,0,0,0,.1-.11l.07-.3Z"/><path class="cls-2" d="M20.59,24s-.64.37-.64.84.58.72.82.72.13-.24.08-.29-.51-.17-.51-.41a.44.44,0,0,1,.34-.4.19.19,0,0,0,.11-.12l.07-.33Z"/><path d="M20.77,25.61c-.25,0-.84-.25-.84-.74s.63-.84.65-.86h.31l-.08.35a.2.2,0,0,1-.13.14.42.42,0,0,0-.32.38c0,.15.17.22.31.29a.56.56,0,0,1,.19.1.26.26,0,0,1,.07.25S20.88,25.61,20.77,25.61Zm-.17-1.56c-.06,0-.63.39-.63.82s.57.7.8.7q.11,0,.12-.06c0-.06,0-.17-.06-.2l-.17-.09c-.16-.07-.34-.15-.34-.33a.45.45,0,0,1,.35-.42.16.16,0,0,0,.1-.11l.06-.3Z"/><path class="cls-2" d="M20.93,24s-.64.37-.64.84.58.72.82.72.13-.24.07-.29-.51-.17-.51-.41a.45.45,0,0,1,.34-.4.2.2,0,0,0,.12-.12L21.2,24Z"/><path d="M21.11,25.61c-.25,0-.84-.25-.84-.74s.62-.84.65-.86h.3l-.07.35a.2.2,0,0,1-.13.14.43.43,0,0,0-.33.38c0,.15.17.22.32.29a.85.85,0,0,1,.19.1.29.29,0,0,1,.07.25S21.22,25.61,21.11,25.61Zm-.18-1.56c-.06,0-.62.39-.62.82s.57.7.8.7q.11,0,.12-.06c0-.06,0-.17-.06-.2L21,25.22c-.15-.07-.34-.15-.34-.33a.46.46,0,0,1,.36-.42.14.14,0,0,0,.09-.11l.07-.3Z"/><path class="cls-2" d="M21.32,24s-.65.37-.65.84.58.72.83.72.13-.24.07-.29-.51-.17-.51-.41a.44.44,0,0,1,.34-.4.16.16,0,0,0,.11-.12l.07-.33Z"/><path d="M21.5,25.61c-.26,0-.85-.25-.85-.74s.63-.84.66-.86h.3l-.08.35a.17.17,0,0,1-.12.14.43.43,0,0,0-.33.38c0,.15.17.22.32.29a.61.61,0,0,1,.18.1.27.27,0,0,1,.08.25A.16.16,0,0,1,21.5,25.61Zm-.18-1.56c-.06,0-.63.39-.63.82s.57.7.81.7a.12.12,0,0,0,.12-.06.27.27,0,0,0-.06-.2l-.18-.09c-.15-.07-.34-.15-.34-.33a.45.45,0,0,1,.36-.42.17.17,0,0,0,.09-.11l.07-.3Z"/><path class="cls-1" d="M20.5,23.67c0,.33-.12.6-.27.6S20,24,20,23.67s.12-.59.28-.59S20.5,23.34,20.5,23.67Z"/><path d="M20.23,24.29c-.17,0-.3-.27-.3-.62s.13-.61.3-.61.3.27.3.61S20.39,24.29,20.23,24.29Zm0-1.19c-.14,0-.26.26-.26.57s.12.58.26.58.25-.27.25-.58S20.37,23.1,20.23,23.1Z"/><path class="cls-1" d="M21.06,23.72c0,.33-.14.59-.31.59s-.3-.26-.3-.59.14-.6.3-.6S21.06,23.39,21.06,23.72Z"/><path d="M20.75,24.34c-.18,0-.32-.28-.32-.62s.14-.62.32-.62.33.27.33.62S20.94,24.34,20.75,24.34Zm0-1.2c-.15,0-.28.26-.28.58s.13.57.28.57S21,24,21,23.72,20.91,23.14,20.75,23.14Z"/><path class="cls-1" d="M21.26,23.65c0,.33-.13.59-.28.59s-.28-.26-.28-.59.13-.6.28-.6S21.26,23.32,21.26,23.65Z"/><path d="M21,24.27c-.17,0-.3-.28-.3-.62s.13-.62.3-.62.3.27.3.62S21.15,24.27,21,24.27Zm0-1.2c-.14,0-.26.27-.26.58s.12.57.26.57.26-.26.26-.57S21.12,23.07,21,23.07Z"/><path class="cls-1" d="M21.75,23.8c0,.32-.12.59-.28.59s-.27-.27-.27-.59.12-.6.27-.6S21.75,23.47,21.75,23.8Z"/><path d="M21.47,24.41c-.16,0-.29-.27-.29-.61s.13-.62.29-.62.3.27.3.62S21.64,24.41,21.47,24.41Zm0-1.19c-.14,0-.25.26-.25.58s.11.57.25.57.26-.26.26-.57S21.61,23.22,21.47,23.22Z"/><path class="cls-1" d="M20.15,22.86c0,.43-.12.79-.28.79s-.27-.36-.27-.79.12-.79.27-.79S20.15,22.42,20.15,22.86Z"/><path d="M19.87,23.67c-.16,0-.3-.36-.3-.81s.14-.81.3-.81.3.36.3.81S20,23.67,19.87,23.67Zm0-1.58c-.12,0-.25.31-.25.77s.13.77.25.77.26-.31.26-.77S20,22.09,19.87,22.09Z"/><path class="cls-1" d="M20.73,23.1c0,.33-.15.6-.33.6s-.33-.27-.33-.6.14-.59.33-.59S20.73,22.77,20.73,23.1Z"/><path d="M20.4,23.72c-.2,0-.35-.28-.35-.62s.15-.62.35-.62.35.28.35.62S20.59,23.72,20.4,23.72Zm0-1.19c-.17,0-.31.25-.31.57s.14.58.31.58.31-.26.31-.58S20.57,22.53,20.4,22.53Z"/><path class="cls-1" d="M20,22.08c0,.44-.12.79-.27.79s-.28-.35-.28-.79.12-.78.28-.78S20,21.65,20,22.08Z"/><path d="M19.75,22.89c-.17,0-.3-.35-.3-.81s.13-.81.3-.81.3.36.3.81S19.91,22.89,19.75,22.89Zm0-1.57c-.13,0-.26.31-.26.76s.13.77.26.77.25-.31.25-.77S19.87,21.32,19.75,21.32Z"/><path class="cls-1" d="M21.52,23.05c0,.37-.13.67-.28.67s-.28-.3-.28-.67.13-.68.28-.68S21.52,22.67,21.52,23.05Z"/><path d="M21.24,23.74c-.17,0-.3-.3-.3-.69s.13-.7.3-.7.3.31.3.7S21.41,23.74,21.24,23.74Zm0-1.35c-.14,0-.26.3-.26.66s.12.65.26.65.26-.3.26-.65S21.38,22.39,21.24,22.39Z"/><circle class="cls-1" cx="20.63" cy="17.17" r="0.33"/><path d="M20.63,17.53a.36.36,0,1,1,0-.71.36.36,0,0,1,0,.71Zm0-.67a.32.32,0,1,0,.31.31A.31.31,0,0,0,20.63,16.86Z"/><path class="cls-1" d="M22.21,23.12c0,.37-.13.68-.29.68s-.29-.31-.29-.68.13-.67.29-.67S22.21,22.75,22.21,23.12Z"/><path d="M21.92,23.82c-.18,0-.31-.31-.31-.7s.13-.69.31-.69.31.3.31.69S22.1,23.82,21.92,23.82Zm0-1.35c-.15,0-.27.3-.27.65s.12.65.27.65.27-.29.27-.65S22.07,22.47,21.92,22.47Z"/><path class="cls-6" d="M20.93,21.72l0,1-.43.57a4.6,4.6,0,0,1-1.58-6l.94-.15.28.43a4.38,4.38,0,0,0-.06.55h0s0,.09,0,.13,0,.38,0,.61A6.54,6.54,0,0,0,20.93,21.72Z"/><path d="M20.46,23.27h0A5.3,5.3,0,0,1,19,21.71a4.48,4.48,0,0,1-.09-4.49h0l.93-.15s0,0,0,0l.28.43a0,0,0,0,1,0,0,4.73,4.73,0,0,0-.06.55.57.57,0,0,1,0,.13c0,.2,0,.41,0,.61A6.57,6.57,0,0,0,21,21.71h0l-.05,1h0l-.43.57Zm-1.56-6A4.46,4.46,0,0,0,19,21.69a5,5,0,0,0,1.47,1.53l.41-.55,0-.94A6.68,6.68,0,0,1,20,18.8c0-.2,0-.41,0-.61s0-.09,0-.13c0-.31.05-.51.05-.55l-.26-.41Z"/><circle class="cls-1" cx="20.15" cy="17.56" r="0.33"/><path d="M20.15,17.92a.36.36,0,1,1,0-.71.36.36,0,0,1,0,.71Zm0-.67a.31.31,0,0,0-.32.31.32.32,0,1,0,.63,0A.31.31,0,0,0,20.15,17.25Z"/><ellipse class="cls-1" cx="21.59" cy="22.83" rx="0.28" ry="0.67"/><path d="M21.59,23.52c-.16,0-.29-.31-.29-.69s.13-.7.29-.7.3.31.3.7S21.76,23.52,21.59,23.52Zm0-1.35c-.13,0-.25.3-.25.66s.12.65.25.65.26-.3.26-.65S21.73,22.17,21.59,22.17Z"/><ellipse class="cls-1" cx="21.18" cy="22.4" rx="0.28" ry="0.67"/><path d="M21.18,23.1c-.16,0-.3-.31-.3-.7s.14-.69.3-.69.3.31.3.69S21.35,23.1,21.18,23.1Zm0-1.35c-.14,0-.25.3-.25.65s.11.66.25.66.26-.3.26-.66S21.32,21.75,21.18,21.75Z"/><path class="cls-1" d="M23.18,24.57A7.23,7.23,0,0,0,22.31,23h0l-.1-.09A6.81,6.81,0,0,1,20,18.8h0a3.84,3.84,0,0,1,0-.61s0-.09,0-.13h0a.73.73,0,0,1,.24-.52c.16-.11.46-.19.58-.05l.1.11a6.69,6.69,0,0,1,2.16,5,4.11,4.11,0,0,1,.05.84A2.7,2.7,0,0,1,23.18,24.57Z"/><path d="M23.18,24.59l0,0a7,7,0,0,0-.86-1.52h0A.38.38,0,0,0,22.2,23,6.89,6.89,0,0,1,20,18.8a4.08,4.08,0,0,1,0-.61c0-.05,0-.1,0-.14a.7.7,0,0,1,.25-.53c.17-.11.47-.2.61,0l.09.1A6.93,6.93,0,0,1,22.12,19a6.23,6.23,0,0,1,1,3.66,3.67,3.67,0,0,1,.05.84,2.45,2.45,0,0,1,0,1.11,0,0,0,0,1,0,0ZM22.32,23h0a7,7,0,0,1,.85,1.49,3,3,0,0,0,0-1h0a4.17,4.17,0,0,0,0-.84h0a6.75,6.75,0,0,0-2.16-5l-.09-.11c-.12-.13-.41,0-.56.06a.64.64,0,0,0-.23.5.57.57,0,0,0,0,.14,4.76,4.76,0,0,0,0,.6h0a6.76,6.76,0,0,0,2.16,4.12Z"/><path d="M22.11,22.85s0,0,0,0a1.73,1.73,0,0,0-.24-.36,2.18,2.18,0,0,1-.45-.72l0-.05a.25.25,0,0,1,0-.09,0,0,0,0,1,0,0h0a.11.11,0,0,0,0,.08.14.14,0,0,0,0,.06,2.4,2.4,0,0,0,.44.71,1.47,1.47,0,0,1,.25.36s0,0,0,0Z"/><path d="M23.17,23.49h0a4.93,4.93,0,0,0-.87-1.38c-.3-.38-.54-.68-.54-.89h0l0,0s0,0,0,0h0c0,.19.25.5.53.86a4.84,4.84,0,0,1,.88,1.4s0,0,0,0Z"/><path d="M23.13,22.78s0,0,0,0A9.42,9.42,0,0,0,22,21a0,0,0,0,1,0,0h0a9.59,9.59,0,0,1,1.13,1.73,0,0,0,0,1,0,0Z"/><path d="M23.13,22.34l0,0a2,2,0,0,1-.14-.47,1.48,1.48,0,0,0-.34-.71L22.51,21l-.14-.18a0,0,0,0,1,0,0s0,0,0,0l.13.18c0,.05.09.1.13.16a1.5,1.5,0,0,1,.34.72,2,2,0,0,0,.14.47s0,0,0,0Z"/><circle class="cls-1" cx="20.23" cy="17.12" r="0.33"/><path d="M20.23,17.47a.36.36,0,1,1,0-.71.36.36,0,0,1,0,.71Zm0-.66a.31.31,0,1,0,.31.31A.31.31,0,0,0,20.23,16.81Z"/><path class="cls-1" d="M20,17.13a.33.33,0,1,1-.33-.33A.33.33,0,0,1,20,17.13Z"/><path d="M19.71,17.48a.34.34,0,0,1-.35-.35.35.35,0,0,1,.35-.36.36.36,0,0,1,.36.36A.35.35,0,0,1,19.71,17.48Zm0-.66a.31.31,0,1,0,.31.31A.31.31,0,0,0,19.71,16.82Z"/><path class="cls-1" d="M19.55,17.15a.34.34,0,1,1-.33-.33A.34.34,0,0,1,19.55,17.15Z"/><path d="M19.22,17.51a.36.36,0,1,1,0-.71.36.36,0,0,1,0,.71Zm0-.67a.31.31,0,1,0,.31.31A.31.31,0,0,0,19.22,16.84Z"/><path class="cls-1" d="M19.68,16.88a.34.34,0,0,1-.33.34.34.34,0,0,1,0-.67A.33.33,0,0,1,19.68,16.88Z"/><path d="M19.35,17.24a.36.36,0,1,1,0-.71.36.36,0,0,1,0,.71Zm0-.67a.31.31,0,1,0,.31.31A.31.31,0,0,0,19.35,16.57Z"/><circle class="cls-1" cx="20.41" cy="16.58" r="0.33"/><path d="M20.41,16.93a.35.35,0,0,1-.36-.35.36.36,0,1,1,.71,0A.35.35,0,0,1,20.41,16.93Zm0-.66a.31.31,0,1,0,.31.31A.31.31,0,0,0,20.41,16.27Z"/><path class="cls-1" d="M20.25,16.65a.34.34,0,1,1-.34-.34A.34.34,0,0,1,20.25,16.65Z"/><path d="M19.91,17a.36.36,0,0,1,0-.71.36.36,0,1,1,0,.71Zm0-.67a.32.32,0,1,0,.32.32A.31.31,0,0,0,19.91,16.33Z"/><path class="cls-1" d="M21,23c0,.33-.13.6-.28.6s-.28-.27-.28-.6.13-.59.28-.59S21,22.66,21,23Z"/><path d="M20.75,23.6c-.17,0-.3-.27-.3-.62s.13-.61.3-.61.3.27.3.61S20.92,23.6,20.75,23.6Zm0-1.19c-.14,0-.26.26-.26.57s.12.58.26.58S21,23.3,21,23,20.89,22.41,20.75,22.41Z"/><ellipse class="cls-1" cx="20.78" cy="22.15" rx="0.28" ry="0.67"/><path d="M20.78,22.85c-.17,0-.3-.31-.3-.7s.13-.69.3-.69.3.3.3.69S21,22.85,20.78,22.85Zm0-1.35c-.14,0-.25.3-.25.65s.11.65.25.65.26-.29.26-.65S20.92,21.5,20.78,21.5Z"/><path class="cls-6" d="M20.79,17a.65.65,0,0,0,.26.78c.46.36,1.24.89,1.71.24,0,0-.66-.13-.86-.46S20.79,17,20.79,17Z"/><path d="M22.19,18.37A2.13,2.13,0,0,1,21,17.82a.68.68,0,0,1-.27-.81s0,0,0,0,.93.22,1.13.57.84.45.85.45a0,0,0,0,1,0,0s0,0,0,0a.72.72,0,0,1-.48.31ZM20.8,17a.64.64,0,0,0,.26.75,1.93,1.93,0,0,0,1.23.53.64.64,0,0,0,.44-.27,1.44,1.44,0,0,1-.85-.46C21.7,17.29,20.93,17.07,20.8,17Z"/><circle class="cls-1" cx="19.45" cy="16.63" r="0.33"/><path d="M19.45,17a.35.35,0,0,1-.35-.35.36.36,0,1,1,.71,0A.35.35,0,0,1,19.45,17Zm0-.66a.31.31,0,1,0,.31.31A.31.31,0,0,0,19.45,16.32Z"/><path class="cls-6" d="M20.68,16.51s-.26.51.39.93c0,0,.92.86,1.53.11a2.78,2.78,0,0,1-1-.52A2.59,2.59,0,0,0,20.68,16.51Z"/><path d="M22,17.88a1.6,1.6,0,0,1-.94-.43c-.65-.42-.4-.95-.39-.95s0,0,0,0a2.7,2.7,0,0,1,1,.52,2.6,2.6,0,0,0,.95.52h0v0a.8.8,0,0,1-.57.32Zm-1.3-1.35c0,.09-.18.52.39.89a1.54,1.54,0,0,0,1,.42.75.75,0,0,0,.51-.28,2.64,2.64,0,0,1-.93-.52A2.75,2.75,0,0,0,20.69,16.53Z"/><path class="cls-6" d="M20.42,16.43s1.18,1.63,2,.64c0,0-1.56-.62-1.52-1.07S20.42,16.43,20.42,16.43Z"/><path d="M21.83,17.41h0c-.7,0-1.36-.93-1.38-1s0,0,0,0c.09-.15.39-.61.51-.57s0,.1,0,.15c0,.43,1.5,1.05,1.51,1.05s0,0,0,0,0,0,0,0A.87.87,0,0,1,21.83,17.41Zm-1.38-1c.08.1.7.91,1.34.94a.81.81,0,0,0,.64-.29c-.22-.09-1.55-.65-1.51-1.08,0-.1,0-.11,0-.11S20.63,16.15,20.45,16.43Z"/><path class="cls-6" d="M20.5,16.32s.84,1,1.63.23a1.93,1.93,0,0,1-.88-.61C21,15.55,20.5,16.32,20.5,16.32Z"/><path d="M21.47,16.86h0a1.5,1.5,0,0,1-.94-.53s0,0,0,0,.37-.52.62-.5a.19.19,0,0,1,.17.12,1.89,1.89,0,0,0,.86.6h0s0,0,0,0A.94.94,0,0,1,21.47,16.86Zm-.94-.54a1.44,1.44,0,0,0,.9.5.91.91,0,0,0,.66-.26,1.84,1.84,0,0,1-.85-.61c0-.07-.08-.1-.14-.1h0C20.88,15.85,20.59,16.24,20.53,16.32Z"/><path class="cls-6" d="M20.52,15a1,1,0,0,0-.63-.16c-1.34,0-1.13,1-1.13,1l.26.52a2.14,2.14,0,0,0,2.25-.26,1.23,1.23,0,0,0,.78.1C21.85,16.22,20.76,15.18,20.52,15Zm-.8.73c-.16,0-.29-.08-.29-.17s.13-.17.29-.17.3.07.3.17S19.89,15.75,19.72,15.75Z"/><path d="M19.88,16.61a1.72,1.72,0,0,1-.87-.23h0l-.26-.52h0a.84.84,0,0,1,.15-.63,1.22,1.22,0,0,1,1-.37h0a.9.9,0,0,1,.62.16h0a4.68,4.68,0,0,1,.43.36,4.88,4.88,0,0,0,1.09.82l0,0s0,0,0,0a1.31,1.31,0,0,1-.79-.09A2.49,2.49,0,0,1,19.88,16.61ZM19,16.35a2.16,2.16,0,0,0,2.22-.26,0,0,0,0,1,0,0,1.09,1.09,0,0,0,.66.1,7.43,7.43,0,0,1-1-.8L20.51,15h0a1,1,0,0,0-.6-.15h0a1.19,1.19,0,0,0-1,.35.8.8,0,0,0-.15.6Zm.68-.58c-.18,0-.31-.08-.31-.19s.13-.2.31-.2.32.09.32.2S19.9,15.77,19.72,15.77Zm0-.34c-.15,0-.27.07-.27.15s.12.15.27.15.28-.07.28-.15S19.87,15.43,19.72,15.43Z"/><circle cx="19.72" cy="15.58" r="0.09"/><path class="cls-2" d="M18.39,16.4a.47.47,0,0,0,.52.11c.28-.09.33-.22.32-.34s-.14-.24-.38-.13A.94.94,0,0,0,18.39,16.4Z"/><path d="M18.73,16.57a.5.5,0,0,1-.36-.16h0a1.05,1.05,0,0,1,.47-.37.32.32,0,0,1,.29,0,.22.22,0,0,1,.12.16q0,.24-.33.36A.46.46,0,0,1,18.73,16.57Zm-.31-.17a.45.45,0,0,0,.49.09c.22-.07.32-.18.3-.31a.2.2,0,0,0-.1-.13.27.27,0,0,0-.26,0A1,1,0,0,0,18.42,16.4Z"/><path class="cls-2" d="M18.94,15.65s-1.22-.24-.61,1.15a1.34,1.34,0,0,1,.68-.75C19.1,16,19.16,15.67,18.94,15.65Z"/><path d="M18.34,16.86l0-.06c-.2-.46-.23-.79-.08-1a.77.77,0,0,1,.71-.19h0a.17.17,0,0,1,.16.15.31.31,0,0,1-.09.29,1.31,1.31,0,0,0-.67.73Zm.4-1.21a.6.6,0,0,0-.48.19c-.13.17-.11.48.07.9A1.34,1.34,0,0,1,19,16c.05,0,.09-.15.07-.25a.12.12,0,0,0-.13-.11h0Z"/><path d="M20.62,19.21a.37.37,0,0,1-.21-.14L20,18.5l0,0,.41.56a.31.31,0,0,0,.17.12h0a.21.21,0,0,0,0-.13c0-.14-.15-.32-.27-.48a1.5,1.5,0,0,1-.17-.23,0,0,0,0,1,0,0s0,0,0,0l.16.22a1,1,0,0,1,.28.51s0,.17-.07.17h0Z"/><path d="M20.82,18.94a.27.27,0,0,1-.16-.07,0,0,0,0,1,0,0s0,0,0,0a.24.24,0,0,0,.13.06s0,0,0-.15a.73.73,0,0,0-.18-.4,1.24,1.24,0,0,1-.17-.27s0,0,0,0h0a1.48,1.48,0,0,0,.16.27.7.7,0,0,1,.19.42C20.89,18.88,20.89,18.94,20.82,18.94Z"/><path d="M21.08,18.78s-.06,0-.17-.1l-.07-.07s0,0,0,0h0l.07.07c.1.09.1.09.14.09s0,0,0-.1a1.45,1.45,0,0,0-.27-.73l-.05-.08s0,0,0,0h0l.05.08a1.55,1.55,0,0,1,.27.75C21.16,18.7,21.16,18.78,21.08,18.78Z"/><path d="M20.84,19.73c-.19,0-.5-.32-.54-.82,0,0,0,0,0,0s0,0,0,0c0,.51.35.78.5.78l.07,0c.06-.06.06-.22.06-.33h0a.7.7,0,0,0-.14-.4s0,0,0,0h0a.78.78,0,0,1,.15.43h0a.6.6,0,0,1-.07.36A.17.17,0,0,1,20.84,19.73Z"/><path d="M21.29,19.51c-.11,0-.2-.1-.31-.22a0,0,0,0,1,0,0,0,0,0,0,1,0,0c.1.11.18.21.27.21s.12-.07.12-.23,0-.15-.18-.31l-.14-.16a0,0,0,0,1,0,0h0l.15.16c.14.17.18.22.18.34S21.45,19.51,21.29,19.51Z"/><path d="M21.71,19.33a.37.37,0,0,1-.21-.13l-.07-.05s0,0,0,0,0,0,0,0l.08.06c.06,0,.13.11.19.11h0s0-.06,0-.11v0a1.59,1.59,0,0,0-.27-.68,1.84,1.84,0,0,1-.2-.45s0,0,0,0,0,0,0,0a2,2,0,0,0,.2.44,1.66,1.66,0,0,1,.27.7v0c0,.06,0,.11,0,.14A.09.09,0,0,1,21.71,19.33Z"/><path d="M21,20.44c-.17,0-.65-.78-.67-1,0,0,0,0,0,0l0,0c0,.21.49.95.63.95s.07-.09.07-.19A2.45,2.45,0,0,0,21,19.6a0,0,0,0,1,0,0s0,0,0,0a2.76,2.76,0,0,1,.13.63C21.13,20.29,21.13,20.44,21,20.44Z"/><path d="M21.35,20.27a.24.24,0,0,1-.19-.1l-.07-.06a0,0,0,0,1,0,0h0l.07.06a.19.19,0,0,0,.16.08c.08,0,.11,0,.11-.18a1.14,1.14,0,0,0-.12-.55s0,0,0,0,0,0,0,0a1.18,1.18,0,0,1,.14.58C21.51,20.11,21.51,20.27,21.35,20.27Z"/><path d="M21.72,20a.33.33,0,0,1-.18-.1l-.08-.05a0,0,0,0,1,0,0,0,0,0,0,1,0,0l.07.06a.29.29,0,0,0,.16.09c.07,0,.09,0,.1-.05a.61.61,0,0,0,0-.14v0a.61.61,0,0,0-.1-.4,0,0,0,0,1,0,0h0a.79.79,0,0,1,.11.42v0a.39.39,0,0,1,0,.16A.13.13,0,0,1,21.72,20Z"/><path d="M21.44,21.65c-.38,0-.81-1-.81-1.39a.41.41,0,0,1,0-.11v-.1a0,0,0,0,1,0,0,0,0,0,0,1,0,0v.11a.31.31,0,0,0,0,.1c0,.38.42,1.34.77,1.34.1,0,.12-.16.12-.31a2.08,2.08,0,0,0-.43-1.11s0,0,0,0,0,0,0,0a0,0,0,0,1,0,0l0,0a2.08,2.08,0,0,1,.44,1.13C21.6,21.53,21.55,21.65,21.44,21.65Z"/><path d="M21.85,21.24a.31.31,0,0,1-.23-.12.19.19,0,0,0-.07-.06s0,0,0,0,0,0,0,0a.27.27,0,0,1,.08.07.27.27,0,0,0,.2.11S22,21.2,22,21A1.53,1.53,0,0,0,21.65,20s0,0,0,0,0,0,0,0A1.64,1.64,0,0,1,22,21C22,21.2,21.93,21.24,21.85,21.24Z"/><path d="M22.31,20.84A.44.44,0,0,1,22,20.7L22,20.65s0,0,0,0,0,0,0,0l.06.05a.4.4,0,0,0,.25.13c.12,0,.13-.28.13-.36a2.72,2.72,0,0,0-.7-1.5,0,0,0,0,1,0,0s0,0,0,0a2.84,2.84,0,0,1,.71,1.54C22.48,20.56,22.47,20.84,22.31,20.84Z"/><path d="M22.78,21.32s0,0,0,0v0a1.15,1.15,0,0,0-.29-.89,0,0,0,0,1,0,0h0a1.25,1.25,0,0,1,.31.92v0Z"/><path class="cls-4" d="M22.31,23c-.58.15-1.38-1.31-1.38-1.31A6.54,6.54,0,0,1,20,18.8h0a6.81,6.81,0,0,0,2.17,4.14Z"/><path d="M22.23,23.06c-.58,0-1.28-1.27-1.31-1.33A6.54,6.54,0,0,1,20,18.8v-.16l.06.16a6.72,6.72,0,0,0,2.16,4.12l.1.1,0,0h-.12ZM20.1,19.22A6.57,6.57,0,0,0,21,21.71s.77,1.38,1.32,1.31L22.2,23A6.84,6.84,0,0,1,20.1,19.22Z"/><circle class="cls-5" cx="22.72" cy="24.82" r="0.35"/><path d="M22.72,25.19a.36.36,0,0,1-.37-.37.37.37,0,0,1,.37-.37.38.38,0,0,1,.37.37A.37.37,0,0,1,22.72,25.19Zm0-.69a.32.32,0,0,0-.33.32.33.33,0,0,0,.33.33.32.32,0,0,0,.32-.33A.32.32,0,0,0,22.72,24.5Z"/><polygon class="cls-1" points="20.24 11.27 20.56 12.25 21.6 12.25 20.76 12.86 21.08 13.85 20.24 13.24 19.41 13.85 19.73 12.86 18.89 12.25 19.92 12.25 20.24 11.27"/><path d="M21.12,13.9l-.88-.64-.87.64.33-1-.88-.64h1.09l.33-1,.34,1h1.08l-.87.64Zm-.88-.69.8.58-.3-.94.8-.58h-1l-.31-.93-.3.93H19l.8.58-.3.94Z"/><polygon class="cls-1" points="14.97 12.98 15.81 13.59 16.64 12.98 16.32 13.97 17.16 14.57 16.13 14.57 15.81 15.56 15.49 14.57 14.45 14.57 15.29 13.97 14.97 12.98"/><path d="M15.81,15.63l-.34-1H14.39l.87-.64-.33-1,.88.63.87-.63-.33,1,.88.64H16.14Zm-1.29-1.08h1l.31.94.3-.94h1L16.3,14l.3-.93-.79.58L15,13l.3.93Z"/><polygon class="cls-1" points="11.71 17.47 12.74 17.47 13.06 16.48 13.38 17.47 14.42 17.47 13.58 18.08 13.9 19.06 13.06 18.45 12.22 19.06 12.54 18.08 11.71 17.47"/><path d="M13.94,19.12l-.88-.64-.88.64.34-1-.88-.64h1.09l.33-1,.34,1h1.08l-.88.64Zm-2.17-1.63.8.58-.31.94.8-.58.8.58-.3-.94.79-.58h-1l-.31-.94-.3.94Z"/><polygon class="cls-1" points="11.71 23.02 12.54 22.41 12.22 21.43 13.06 22.03 13.9 21.43 13.58 22.41 14.42 23.02 13.38 23.02 13.06 24 12.74 23.02 11.71 23.02"/><path d="M13.06,24.07l-.33-1H11.64l.88-.64-.34-1,.88.64.88-.64-.34,1,.88.64H13.4ZM11.77,23h1l.3.93.31-.93h1l-.79-.58.3-.94-.8.58-.8-.58.31.94Z"/><polygon class="cls-1" points="14.97 27.51 15.29 26.52 14.45 25.91 15.49 25.91 15.81 24.93 16.13 25.91 17.16 25.91 16.32 26.52 16.64 27.51 15.81 26.9 14.97 27.51"/><path d="M16.68,27.56l-.87-.64-.88.64.33-1-.87-.64h1.08l.34-1,.33,1h1.09l-.88.64Zm-.87-.69.79.58-.3-.94.8-.58h-1l-.3-.93-.31.93h-1l.79.58-.3.94Z"/><polygon class="cls-1" points="20.24 29.22 19.92 28.24 18.89 28.24 19.73 27.63 19.41 26.64 20.24 27.25 21.08 26.64 20.76 27.63 21.6 28.24 20.56 28.24 20.24 29.22"/><path d="M20.24,29.29l-.33-1H18.82l.88-.64-.33-1,.87.64.88-.64-.33,1,.87.64H20.58ZM19,28.22h1l.3.93.31-.93h1l-.8-.58.3-.94-.8.58-.79-.58.3.94Z"/><polygon class="cls-1" points="25.52 27.51 24.68 26.9 23.85 27.51 24.17 26.52 23.33 25.91 24.36 25.91 24.68 24.93 25 25.91 26.04 25.91 25.2 26.52 25.52 27.51"/><path d="M25.56,27.56l-.88-.64-.87.64.33-1-.88-.64h1.09l.33-1,.34,1H26.1l-.87.64Zm-.88-.69.8.58-.3-.94.79-.58H25L24.68,25l-.3.93h-1l.8.58-.3.94Z"/><polygon class="cls-1" points="28.78 23.02 27.75 23.02 27.43 24 27.11 23.02 26.07 23.02 26.91 22.41 26.59 21.43 27.43 22.03 28.27 21.43 27.95 22.41 28.78 23.02"/><path d="M27.43,24.07l-.34-1H26l.87-.64-.33-1,.88.64.87-.64-.33,1,.88.64H27.76ZM26.14,23h1l.31.93.3-.93h1l-.8-.58.3-.94-.79.58-.8-.58.3.94Z"/><polygon class="cls-1" points="28.78 17.47 27.95 18.08 28.27 19.06 27.43 18.45 26.59 19.06 26.91 18.08 26.07 17.47 27.11 17.47 27.43 16.48 27.75 17.47 28.78 17.47"/><path d="M28.3,19.12l-.87-.64-.88.64.33-1L26,17.45h1.08l.34-1,.33,1h1.09l-.88.64Zm-2.16-1.63.79.58-.3.94.8-.58.79.58-.3-.94.8-.58h-1l-.3-.94-.31.94Z"/><polygon class="cls-1" points="25.52 12.98 25.2 13.97 26.04 14.57 25 14.57 24.68 15.56 24.36 14.57 23.33 14.57 24.17 13.97 23.85 12.98 24.68 13.59 25.52 12.98"/><path d="M24.68,15.63l-.33-1H23.26l.88-.64-.33-1,.87.63.88-.63-.33,1,.87.64H25Zm-1.29-1.08h1l.3.94.31-.94h1L25.18,14l.3-.93-.8.58L23.89,13l.3.93Z"/></g></g></svg>