<svg xmlns="http://www.w3.org/2000/svg" viewBox="0 0 40.5 40.5"><defs><style>.cls-1{fill:#c60c30;}.cls-2{fill:#fff;}</style></defs><g id="Ebene_2" data-name="Ebene 2"><g id="Ńëîé_1" data-name="Ńëîé 1"><path class="cls-1" d="M40.5,20.25a21.14,21.14,0,0,1-.2,2.89,20.28,20.28,0,0,1-20,17.36H18v-.14a19.92,19.92,0,0,1-5.76-1.53A20.3,20.3,0,0,1,.2,23.14a21,21,0,0,1,0-5.78,20.3,20.3,0,0,1,12-15.69A19.92,19.92,0,0,1,18,.14V0h2.3a20.28,20.28,0,0,1,20,17.36A21.14,21.14,0,0,1,40.5,20.25Z"/><path class="cls-2" d="M40.5,20.25a21.14,21.14,0,0,1-.2,2.89H18V40.36a19.92,19.92,0,0,1-5.76-1.53V23.14H.2a21,21,0,0,1,0-5.78h12V1.67A19.92,19.92,0,0,1,18,.14V17.36H40.3A21.14,21.14,0,0,1,40.5,20.25Z"/></g></g></svg>