<svg xmlns="http://www.w3.org/2000/svg" viewBox="0 0 40.5 40.5"><defs><style>.cls-1{fill:#fff;}.cls-2{fill:#002d62;}.cls-3{fill:#ce1126;}.cls-4{fill:#006300;}.cls-5{fill:#00873f;}.cls-6{fill:#eac102;}.cls-7{fill:#020000;}.cls-8{fill:olive;}.cls-9{fill:#008f4c;}.cls-10{fill:#ff0;}.cls-11{fill:red;}</style></defs><g id="Ebene_2" data-name="Ebene 2"><g id="Ńëîé_1" data-name="Ńëîé 1"><path class="cls-1" d="M40.5,20.25A20.21,20.21,0,0,1,24.3,40.09a20.21,20.21,0,0,1-8.1,0A20.25,20.25,0,0,1,16.2.41a20.21,20.21,0,0,1,8.1,0A20.24,20.24,0,0,1,40.5,20.25Z"/><path class="cls-2" d="M16.2.41V16.19H.41A20.26,20.26,0,0,1,16.2.41Z"/><path class="cls-3" d="M40.09,16.19H24.3V.41A20.26,20.26,0,0,1,40.09,16.19Z"/><path class="cls-3" d="M16.2,24.33V40.09A20.28,20.28,0,0,1,.41,24.33Z"/><path class="cls-2" d="M40.09,24.33A20.28,20.28,0,0,1,24.3,40.09V24.33Z"/><path class="cls-4" d="M18.91,22.53h0s0,0,0,0-.08.12-.11.15l0,0h0a.17.17,0,0,0,0-.06h0a.58.58,0,0,0-.22-.22h0s0,0,0,0a.62.62,0,0,1,0,.16v0h-.06a.07.07,0,0,0-.07-.07h0s-.05,0-.05.06a.52.52,0,0,0-.26-.17l-.07,0h-.11s0,0,0,0,.12,0,.12.12h0a.17.17,0,0,0-.09,0h0s0-.12,0-.13,0-.09.07-.09h0c.15,0,.24-.24.24-.31s0,0,0,0S18,22,18,22s0-.14,0-.16.07-.11.07-.18h0c-.14,0-.29.23-.32.24h0s-.14-.15-.17-.15-.07.24-.07.28c0,.37.26.31.26.46s-.07,0-.08,0a1,1,0,0,1-.28-.61.18.18,0,0,1,.16-.16c.06,0,.06,0,.12,0s.3-.22.36-.38h0c-.23,0-.26.15-.26,0s.24,0,.24-.07a.61.61,0,0,0-.44-.31c-.11,0-.28.07-.08-.07h0a.58.58,0,0,0,.29.1.4.4,0,0,0,.36-.3h0a.33.33,0,0,1-.13,0h-.07s0,0,0,0a.71.71,0,0,0,.11-.28h0l-.22,0h0s-.06-.2-.09-.2h0s-.25.18-.25.3v0s0,.14,0,.23-.07.15-.07.11a1,1,0,0,0,0-.19h0a.11.11,0,0,0,0-.08s0-.09-.07-.09a.11.11,0,0,0-.07,0,.22.22,0,0,0,0-.1s0,0,0,0a.81.81,0,0,0,.17-.33v0s0,0,0,0,.11.2.32.2A.73.73,0,0,0,18,20.2s0,0,0,0h0l-.07,0h0a.9.9,0,0,0,.16-.17h0s0,0,0,0l-.14,0-.06,0a.21.21,0,0,0-.12,0c-.16,0-.34.2-.34.2h0s.16-.32.27-.32h.13a.61.61,0,0,0,.43-.31,0,0,0,0,0,0,0l-.09,0h0s0,0,0,0a1.43,1.43,0,0,0,0-.21s0,0,0,0h0s-.06.13-.22.13,0,0,0,0v0a.42.42,0,0,0,0-.12h0l-.15.12a.52.52,0,0,0-.12.18.28.28,0,0,0,0,.09,1.64,1.64,0,0,1,0,.23s0,0,0,.05l0,.05-.07.11a.27.27,0,0,0-.06.12s0,0,0,0l-.06,0-.14.1h0a.22.22,0,0,0,0-.05h0s0,0,0,0,0,0,0-.05v-.05h0a.14.14,0,0,0,.07,0,.4.4,0,0,0,.33-.41V19.6s0,0,0,0l0,0c-.11.11-.18,0-.3.17h0v0a.14.14,0,0,0,0-.06v0h.11a.33.33,0,0,0,.3-.29V19.3l0-.11v0c0-.12-.08.07-.16.07s-.15.07-.18.08h0v0a.24.24,0,0,1,.21-.24h.06c.22,0,.44-.41.44-.45h0a.71.71,0,0,1-.17.05s0,0,0,0v-.15h0a.71.71,0,0,0-.37.23h0s0-.15-.07-.23l0,0h0a1.09,1.09,0,0,0-.18.43V19a.48.48,0,0,0,.11.26h0a.14.14,0,0,1,0,.06h0a.31.31,0,0,0-.07-.08h0a.06.06,0,0,0,0,0,.12.12,0,0,0-.07-.07.11.11,0,0,0-.08,0,.1.1,0,0,0,0,.09.1.1,0,0,0,.08.05l0,0s.06.06.07.1a.5.5,0,0,1,0,.12,1.46,1.46,0,0,1-.05.2v0h0a0,0,0,0,1,0,0,1.76,1.76,0,0,0,0-.23.31.31,0,0,0-.13-.2l-.07,0a.64.64,0,0,1,0-.07s0-.05,0-.06l0,0,0,.05a1.6,1.6,0,0,0,0,.23.3.3,0,0,0,.05.19.83.83,0,0,0-.06.21.59.59,0,0,0,0,.13h0v0a.18.18,0,0,1-.05-.07,0,0,0,0,0,0,0h0l0,0,0,.09,0-.09-.08-.06a.33.33,0,0,1-.13-.19s0,0,0,0a.36.36,0,0,0,0,.11v.07s0,0,0,.06a.58.58,0,0,0,0,.19.36.36,0,0,0,.12.15.36.36,0,0,1-.19-.08.34.34,0,0,0,0,.1.49.49,0,0,0,0,.11.35.35,0,0,0,.05.08.44.44,0,0,0,.15.12.21.21,0,0,0,.11,0c.06,0,.12,0,.17,0a.15.15,0,0,1,.11.11l-.07,0-.07,0a.08.08,0,0,0-.07,0,1.54,1.54,0,0,0-.3,0,.74.74,0,0,0,.33.22.16.16,0,0,0,.1,0,.37.37,0,0,0,.14,0,.33.33,0,0,1,.06.1.13.13,0,0,1,0,.06l0,.18a1.09,1.09,0,0,0-.17-.13l-.07,0s0,0,0,0h0v0a.27.27,0,0,0-.11-.1.57.57,0,0,0-.13-.08l-.13,0-.14,0a.56.56,0,0,0,.08.2.91.91,0,0,0,.13.19.15.15,0,0,1-.11,0l-.07,0h-.06s0,0,0,0v0l.15.13a.45.45,0,0,0,.18.07.61.61,0,0,0,.27,0,.21.21,0,0,0,0,.06l0,0,.06,0a.31.31,0,0,1,.15.1.38.38,0,0,1,.06.13s0,.07,0,.1,0,0,0,0,0,0,0,0L17,21.63a.07.07,0,0,0,0-.09.08.08,0,0,0-.07-.05s-.07,0-.08,0a.25.25,0,0,0-.15-.08.55.55,0,0,0-.18,0l-.18,0a.48.48,0,0,0,.18.22.3.3,0,0,0,.19.1s.06,0,.09,0a.61.61,0,0,1,.19,0h0l0,0,.14.19a.57.57,0,0,0-.28-.11.11.11,0,0,0-.06-.07.07.07,0,0,0-.09,0,.07.07,0,0,0,0,.09,0,0,0,0,0,0,0l0,0h0s0,0,0,0a.07.07,0,0,0,0,.05h0s0,0,0,0h0l-.07,0h0s0,0,0,0,0,0,0,0h0a.2.2,0,0,1,.16.11.16.16,0,0,0,.07.07l.09.05a.45.45,0,0,0,.16,0h.07s0,0,0,0a.16.16,0,0,1,0,.07l0,0-.07,0h-.1a.21.21,0,0,1-.11,0l-.07,0h0a.48.48,0,0,0,.4.38.26.26,0,0,0,.14,0,1.77,1.77,0,0,0,.15.18h0s-.05,0-.08.06-.05,0-.05,0,.27.11.32.11h.13c.15,0,.12-.16.22-.16l.1.18a.09.09,0,0,0,.06,0c.09,0,.16-.08.31-.08h0s.14-.12.14-.42C18.94,22.71,18.94,22.54,18.91,22.53ZM17,20.2s0,0,0,0,0,0,0,0a.05.05,0,0,1,0,0l0,0a1.09,1.09,0,0,0-.05.17.09.09,0,0,0,0-.06.05.05,0,0,1,0,0,.77.77,0,0,1,0-.15s0,0,0-.06a.28.28,0,0,0,0-.09.13.13,0,0,0,0-.06s0,0,0,0h0l.1.05,0,0A.09.09,0,0,1,17,20.2Zm0-.12h0a.54.54,0,0,0,0-.28.12.12,0,0,0-.05-.07l-.08-.05s0,0,0-.05l0-.05a.27.27,0,0,0,.22.1l0,.05C17,19.85,17,20,17,20.08Zm.15.2a.48.48,0,0,1,.11-.09h0a.86.86,0,0,1-.12.3l0-.09v0s0,0,0,0S17.14,20.29,17.16,20.28Zm-.11.7s.05-.12.09-.22.1.1.1.15,0-.07-.07-.07a.08.08,0,0,0-.09.09.07.07,0,0,0,.06.07h0l.07,0s0,0,0,0,0,0,0,0l-.14.26Zm.1,1.07H17l0,0,0,0a.14.14,0,0,0,0-.07.38.38,0,0,1,.22.16A.19.19,0,0,0,17.15,22.05Zm.12-.12h0s-.13-.41-.15-.53h0a1.43,1.43,0,0,1,.12-.21h0c.08,0,.09.14.19.21l-.06.06s-.11-.23-.14-.23h0s0,.14,0,.25a.86.86,0,0,0,.14.36S17.28,21.93,17.27,21.93Zm1.06.73h.05v0h0S18.33,22.68,18.33,22.66Zm.12.18h0l-.07,0s0,0,0,0v0h.1a0,0,0,0,0,0,0,.43.43,0,0,1,0,.05Z"/><path class="cls-5" d="M16.72,21.12s0,0-.06,0h-.09l-.16.05a.29.29,0,0,1-.16,0c.05,0,.08.06.12.09l.08,0a.45.45,0,0,0,.11,0h.09l.11,0,0-.06,0,0h-.11l-.09,0h-.08v0s0,0,0,0l.13,0,0-.05a0,0,0,0,1,0,0l0,0h0a.15.15,0,0,0,.09,0S16.73,21.13,16.72,21.12Z"/><path class="cls-1" d="M20.19,18H18l.45.46v3c0,.78.53.82.82.82h.57a.42.42,0,0,1,.36.21.4.4,0,0,1,.35-.21h.57c.29,0,.82,0,.82-.82v-3l.45-.46Z"/><path class="cls-3" d="M22.38,18l-.45.46v1.31H20.54V18Z"/><path class="cls-2" d="M21.93,20.51v.95c0,.78-.53.82-.82.82h-.57V20.51Z"/><polygon class="cls-6" points="20.48 19.54 21.13 18.41 21.18 18.44 20.51 19.59 20.48 19.54"/><path d="M20.51,19.6l0-.06h0l.66-1.12.05,0h0Zm0-.06,0,.05.67-1.15-.05,0Z"/><path class="cls-6" d="M21.17,18.38a.11.11,0,0,0,0-.09l.21-.22-.06.3s-.07,0-.1,0h0Z"/><path d="M21.19,18.4h0a.11.11,0,0,0,0-.09h0l.21-.23-.06.32h0s-.06,0-.09,0Zm0,0,0,0a.11.11,0,0,1,.1,0l.05-.29-.2.21a.11.11,0,0,1,0,.09Z"/><polygon points="21.18 18.41 21.17 18.4 21.34 18.07 21.35 18.07 21.18 18.41"/><path class="cls-6" d="M21.22,18.43s0,0-.06,0,0,0,0-.05h.06S21.22,18.42,21.22,18.43Z"/><path d="M21.2,18.44h0l0,0v0h.06s0,0,0,0v0h0S21.21,18.44,21.2,18.44Zm-.06-.07h0s0,0,0,0l0,0h0s0,0,0,0h0s0,0,0,0l0,0Z"/><polygon class="cls-2" points="20.98 19.23 21.45 18.61 21.45 18.98 20.98 19.46 20.98 19.23"/><path d="M21.42,18.63l-.45.59h0v.26l0,0,.45-.45h0v-.4Zm0,.34-.45.46v-.2l.45-.58Z"/><polygon class="cls-1" points="20.8 19.49 20.8 19.62 20.99 19.41 20.99 19.23 20.8 19.49"/><path class="cls-1" d="M21.57,18.86s0,.68,0,1.34v.85c0,.51-.23.76-.55.76a.56.56,0,0,1-.54-.44h0c0-.08,0-.14,0-.14l-.16-1.15.36-.28.34-.35Z"/><path class="cls-2" d="M21.57,18.86s0,.68,0,1.34l-.59.57V19.45Z"/><path class="cls-3" d="M21.56,20.53v.52c0,.51-.23.76-.55.76a.56.56,0,0,1-.54-.44.42.42,0,0,0,.25.1c.13,0,.23-.1.27-.39A3.72,3.72,0,0,0,21.56,20.53Z"/><path d="M21,21.82a.57.57,0,0,1-.55-.44h0a1.16,1.16,0,0,1,0-.15l-.17-1.16.37-.28,1-1v0s0,.68,0,1.34v.85C21.57,21.54,21.37,21.82,21,21.82Zm-.53-.46h0a.53.53,0,0,0,.52.42c.34,0,.54-.27.54-.74V20.2c0-.58,0-1.17,0-1.31l-.91.92-.36.27.17,1.15A.53.53,0,0,0,20.48,21.36Z"/><polygon class="cls-6" points="20.58 19.7 21.51 18.49 21.55 18.52 20.61 19.76 20.58 19.7"/><path d="M20.61,19.76l0-.06h0l.93-1.21,0,0h0Zm0-.06,0,.05.94-1.23,0,0Z"/><path class="cls-6" d="M21.55,18.46a.09.09,0,0,0,0-.09l.24-.19-.1.29a.09.09,0,0,0-.1,0l0,0Z"/><path d="M21.57,18.49l0,0h0a.13.13,0,0,0,0-.09h0l.24-.19-.09.3h0s-.06,0-.09,0Zm0,0v0a.1.1,0,0,1,.1,0l.09-.27-.22.18a.13.13,0,0,1,0,.09Z"/><polygon points="21.56 18.48 21.55 18.48 21.77 18.18 21.77 18.18 21.56 18.48"/><path class="cls-6" d="M21.59,18.52s0,0-.06,0,0-.05,0-.06,0,0,.06,0S21.6,18.51,21.59,18.52Z"/><path d="M21.58,18.53h0l0,0s0-.05,0-.06,0,0,.07,0,0,.05,0,.06Zm-.06-.08a0,0,0,0,0,0,0s0,0,0,0l0,0h0s0,0,0-.05Z"/><polygon class="cls-6" points="20.6 19.81 21.58 18.79 21.62 18.83 20.62 19.87 20.6 19.81"/><path d="M20.62,19.88l0-.08h0l1-1,0,0h0Zm0-.07,0,.05,1-1,0,0Z"/><path class="cls-6" d="M21.63,18.76s0,0,0-.09l.26-.16-.14.28a.08.08,0,0,0-.1,0l0,0Z"/><path d="M21.75,18.8h0a.09.09,0,0,0-.09,0h0l0,0h0a.11.11,0,0,0,0-.09h0l.26-.16Zm-.12,0v0a.09.09,0,0,1,.1,0l.13-.27-.25.15a.12.12,0,0,1,0,.1Z"/><polygon points="21.63 18.79 21.62 18.79 21.88 18.51 21.88 18.52 21.63 18.79"/><path class="cls-6" d="M21.66,18.83s0,0-.06,0,0,0,0-.06,0,0,.06,0S21.67,18.82,21.66,18.83Z"/><path d="M21.65,18.84a.05.05,0,0,1,0,0s0,0,0-.06,0,0,.06,0,0,0,0,0,0,0,0,0Zm-.06-.09h0s0,0,0,0,0,0,.06,0v0l0,0Z"/><path class="cls-3" d="M20.71,20.92a.31.31,0,0,1-.21,0c-.12-.05-.05-.53-.05-.53l.26-.1Z"/><path class="cls-3" d="M18,18l.45.46v1.31h1.39V18Z"/><path class="cls-2" d="M18.44,20.51v.95c0,.78.53.82.82.82h.57V20.51Z"/><polygon class="cls-6" points="19.98 19.67 19.24 18.41 19.19 18.44 19.94 19.73 19.98 19.67"/><path d="M19.94,19.73h0l-.75-1.29,0,0h0L20,19.67Zm-.74-1.29.74,1.28,0,0-.73-1.25Z"/><path class="cls-6" d="M19.2,18.38a.11.11,0,0,1,0-.09L19,18.07l.06.3s.07,0,.1,0h0Z"/><path d="M19.18,18.4h0s-.1,0-.1,0h0L19,18.06l.22.23h0a.16.16,0,0,0,0,.09h0Zm-.07,0s.05,0,.07,0l0,0h0a.11.11,0,0,1,0-.09l-.2-.21,0,.29Z"/><polygon points="19.2 18.41 19.02 18.07 19.03 18.07 19.2 18.4 19.2 18.41"/><path class="cls-6" d="M19.16,18.43s0,0,.06,0,0,0,0-.05h-.06S19.15,18.42,19.16,18.43Z"/><path d="M19.18,18.44h0v0s0,0,0,0h.06s0,0,0,0l0,0Zm.05-.07,0,0,0,0v0h0s0,0,0,0h0s0,0,0,0,0,0,0,0h0Z"/><polygon class="cls-2" points="18.92 18.98 18.92 18.61 19.39 19.23 19.39 19.46 18.92 18.98"/><path d="M19.4,19.22,19,18.63l0-.06V19h0l.45.45,0,0v-.26Zm0,.21L18.93,19v-.32l.45.58Z"/><polygon class="cls-1" points="19.57 19.49 19.57 19.62 19.38 19.41 19.38 19.23 19.57 19.49"/><path class="cls-1" d="M18.8,18.86s0,.68,0,1.34v.85c0,.51.23.76.55.76a.56.56,0,0,0,.54-.44h0c0-.08,0-.14,0-.14l.17-1.15-.37-.28-.34-.35Z"/><path class="cls-3" d="M18.81,20.53v.52c0,.51.23.76.55.76a.56.56,0,0,0,.54-.44.42.42,0,0,1-.25.1c-.13,0-.23-.1-.26-.39A4.16,4.16,0,0,1,18.81,20.53Z"/><path class="cls-2" d="M18.8,18.86s0,.68,0,1.34l.6.57V19.49l0,0Z"/><path d="M19.36,21.82c-.35,0-.56-.28-.56-.77V20.2c0-.66,0-1.34,0-1.34v0l.95,1,.37.28h0l-.17,1.15a.43.43,0,0,1,0,.15h0A.57.57,0,0,1,19.36,21.82Zm-.55-2.93c0,.14,0,.73,0,1.31v.33c0,.22,0,.36,0,.52,0,.47.19.74.53.74a.54.54,0,0,0,.53-.42h0a1.32,1.32,0,0,0,0-.13l.16-1.15-.35-.27Z"/><polygon class="cls-6" points="19.79 19.7 18.86 18.49 18.82 18.52 19.76 19.76 19.79 19.7"/><path d="M19.76,19.76h0l-1-1.24.05,0h0l.93,1.21Zm-.94-1.24.94,1.23,0-.05-.93-1.21Z"/><path class="cls-6" d="M18.82,18.46a.09.09,0,0,1,0-.09l-.24-.19.1.29a.09.09,0,0,1,.1,0l0,0Z"/><path d="M18.8,18.49h0a.09.09,0,0,0-.1,0h0l-.1-.3.24.2h0a.13.13,0,0,0,0,.09h0Zm-.06,0a.07.07,0,0,1,.06,0l0,0h0a.13.13,0,0,1,0-.09l-.22-.18.09.27Z"/><polygon points="18.82 18.48 18.6 18.18 18.61 18.18 18.82 18.48 18.82 18.48"/><path class="cls-6" d="M18.78,18.52s0,0,.06,0a.11.11,0,0,0,0-.06s0,0-.06,0S18.77,18.51,18.78,18.52Z"/><path d="M18.79,18.53h0s0,0,0-.06.06,0,.07,0,0,0,0,.06l0,0Zm.06-.08,0,0s0,0,0,.05h0l0,0s0,0,0,0S18.86,18.45,18.85,18.45Z"/><polygon class="cls-6" points="19.77 19.81 18.79 18.79 18.75 18.83 19.75 19.87 19.77 19.81"/><path d="M19.75,19.88h0l-1-1,0,0h0l1,1Zm-1-1.05,1,1,0-.06-1-1Z"/><path class="cls-6" d="M18.74,18.76a.16.16,0,0,1,0-.09l-.26-.16.14.28s.06,0,.1,0l0,0Z"/><path d="M18.63,18.8h0l-.13-.28h0l.26.16h0c0,.06,0,.09,0,.09h0l0,0h0a.11.11,0,0,0-.1,0Zm.05,0,.05,0v0h0a.12.12,0,0,1,0-.1l-.25-.15.13.27Z"/><polygon points="18.75 18.79 18.49 18.52 18.5 18.51 18.75 18.79 18.75 18.79"/><path class="cls-6" d="M18.71,18.83s0,0,.06,0,0,0,0-.06,0,0-.06,0S18.7,18.82,18.71,18.83Z"/><path d="M18.73,18.84h0v0s0,0,0,0,.05,0,.06,0,0,0,0,.06A.05.05,0,0,1,18.73,18.84Zm.05-.09,0,0,0,0s0,0,0,0,0,0,.05,0,0,0,0,0Z"/><path class="cls-3" d="M19.66,20.92a.31.31,0,0,0,.21,0c.12-.05,0-.54,0-.54l-.22-.09Z"/><path class="cls-2" d="M19.93,21s-.17.19-.3.16.05.13.15.13a.44.44,0,0,0,.21-.1Z"/><polygon class="cls-6" points="20.27 18.62 20.27 18.42 20.19 18.42 20.1 18.42 20.1 18.62 19.89 18.62 19.89 18.78 20.1 18.78 20.1 19.54 20.19 19.54 20.28 19.54 20.28 18.78 20.48 18.78 20.48 18.62 20.27 18.62"/><path d="M20.29,19.54h-.2v-.75h-.21v-.18h.21v-.2h.19v.2h.21v.18h-.2Zm-.18,0h.16v-.76h.2v-.14h-.21v-.2h-.15v.2H19.9v.14h.21Z"/><path class="cls-3" d="M19.94,20.81l-.11.73s0,.07.14.07.09-.86.09-.86l-.09,0Z"/><path d="M20,21.62c-.14,0-.15-.08-.15-.08l.11-.73,0,0,.11,0h0s0,.76-.07.86Zm-.13-.08s0,.06.13.06a0,0,0,0,0,0,0,2.6,2.6,0,0,0,.07-.83l-.08,0,0,0Z"/><path class="cls-2" d="M20,21.8s0,.14.13.14.16-.17.16-.21-.05-.08-.05-.08H20l0,.09Z"/><path d="M20.09,22A.15.15,0,0,1,20,21.9a.12.12,0,0,1,0-.11h0l0-.06,0-.09h.2a.26.26,0,0,1,.06.09h0a.21.21,0,0,1,0,.16A.17.17,0,0,1,20.09,22ZM20,21.8a.12.12,0,0,0,0,.09.11.11,0,0,0,.1,0,.16.16,0,0,0,.12,0,.22.22,0,0,0,0-.15h0s0-.06,0-.07H20Z"/><path class="cls-2" d="M20,20.83l0,.23s0,0,0,0l.06,0c.06,0,.07-.28.07-.28l0-.16-.07.06Z"/><path class="cls-2" d="M20.33,21.75h0a.78.78,0,0,0-.21,0,.21.21,0,0,0-.15.09l.06-1,.08-.06.17-.13,0,0,.08-.06.12,1.05C20.52,21.77,20.38,21.76,20.33,21.75Z"/><path d="M20,21.81h0l.06-1h0l.37-.29h0s.09.8.12,1.06a.24.24,0,0,1-.05.2.13.13,0,0,1-.13,0h0a1,1,0,0,0-.18,0,.2.2,0,0,0-.14.08Zm.07-1-.06,1a.21.21,0,0,1,.14-.07.84.84,0,0,1,.18,0h0a.14.14,0,0,0,.12,0,.26.26,0,0,0,0-.19c0-.24-.1-.92-.11-1Z"/><path class="cls-3" d="M20.09,21.36s0,.11.06.13h.05s.1,0,.12,0,0-.07,0-.07l0-.21-.17,0Z"/><path d="M20.17,21.5h0c-.08,0-.08-.1-.07-.15h0l.07-.15.19,0,0,.22h0s0,.08,0,.08h0l-.1,0Zm-.07-.14s0,.1,0,.12h.05c.09,0,.11,0,.12,0a.11.11,0,0,0,0-.06l0-.19-.14,0Z"/><path class="cls-2" d="M20.53,21.1a.56.56,0,0,0,.21.08s0,.13-.15.13a.44.44,0,0,1-.21-.1Z"/><path class="cls-3" d="M20.33,21.27h0c-.17,0-.21.09-.21.09V20.7l.17-.13,0,0,0,.28S20.52,21.28,20.33,21.27Z"/><path d="M20.07,21.41l0-.72.22-.17,0,.29s.13.34,0,.44a.08.08,0,0,1-.07,0h0c-.16,0-.2.08-.2.08Zm0-.71v.62a.24.24,0,0,1,.2-.06h0a.05.05,0,0,0,.05,0c.06-.07,0-.32-.05-.41h0l0-.26Z"/><path class="cls-3" d="M20.47,21.24s.12,0,.1-.13-.14-.67-.14-.67l-.14,0,.06.55Z"/><path d="M20.46,21.25,20.34,21l-.07-.55.16-.05h0s.11.49.14.67-.11.14-.11.14Zm-.1-.23.11.21s.11,0,.09-.12-.12-.59-.14-.66l-.12,0Z"/><path class="cls-1" d="M20.33,21.75l0-.48,0-.7,0,0,.08-.06.12,1.05C20.52,21.77,20.38,21.76,20.33,21.75Z"/><path d="M20.36,21.77h0a0,0,0,0,1,0,0l-.06-1.18h0l.12-.09h0s.09.8.12,1.06a.24.24,0,0,1-.05.2A.14.14,0,0,1,20.36,21.77Zm0,0a.12.12,0,0,0,.11,0,.26.26,0,0,0,0-.19c0-.24-.1-.92-.11-1l-.1.08Z"/><polygon class="cls-1" points="19.42 19.99 19.47 19.96 20.42 19.39 20.96 20.19 19.91 20.87 19.42 19.99"/><polygon points="19.4 19.99 19.9 20.89 20.98 20.19 20.42 19.39 20.41 19.4 20.95 20.18 19.91 20.85 19.44 19.99 19.47 19.96 19.46 19.95 19.4 19.99"/><path class="cls-7" d="M19.45,20v-.09h.1c.06,0,.09-.05.11-.07a.43.43,0,0,1,.16-.13.24.24,0,0,1,.14,0l0,0a.3.3,0,0,1,.07-.11.74.74,0,0,1,.18-.09c.08,0,.09-.16.09-.16l.59.91-1,.64L19.45,20Z"/><path class="cls-1" d="M19.48,19.89a.32.32,0,0,0,.13,0,1.79,1.79,0,0,1,.14-.13.23.23,0,0,1,.2-.08s0,0,0,0c.13.17.45.73.45.73a.36.36,0,0,0-.19.06.73.73,0,0,0-.16.16.13.13,0,0,1-.16,0Z"/><path class="cls-1" d="M20.34,19.3l.49.74v0a.14.14,0,0,1-.06.11c-.07,0-.14,0-.19.08a.28.28,0,0,0-.14.17L20,19.7a.06.06,0,0,1,0,0,.24.24,0,0,1,.11-.16l.14-.07C20.32,19.41,20.34,19.3,20.34,19.3Z"/><path class="cls-1" d="M19.46,19.91V20l.45.79a.32.32,0,0,0,0-.08Z"/><path d="M19.6,20h0l0,0h0v0h0Z"/><path d="M19.65,20h0v0h0Z"/><path d="M19.69,19.94Z"/><path d="M19.71,19.94Zm0,0Z"/><path d="M19.73,19.92Z"/><path d="M19.77,19.89Z"/><path d="M19.78,19.9h0Zm0,0h0Z"/><path d="M19.63,20.07h0l0,0h0v0h0Z"/><path d="M19.68,20.05h0v0h0v0h0Z"/><path d="M19.71,20h0v0h0Zm0,0Z"/><path d="M19.73,20Z"/><path d="M19.78,20Zm0,0h0Zm0,0h0Z"/><path d="M19.82,20h0v0h0Zm0,0h0Z"/><path d="M19.8,20h0v0h0Z"/><path d="M19.82,19.94h0Zm0,0Z"/><path d="M19.85,20h0a0,0,0,0,1,0,0h0Zm0,0h0Z"/><path d="M19.71,20.13h0Z"/><path d="M19.74,20.14h0Zm0,0h0Z"/><path d="M19.76,20.1Zm0,0h0Zm0,0Z"/><path d="M19.81,20.1h0Z"/><path d="M19.8,20.09h0Z"/><path d="M19.86,20h0s0,0,0,0h0Z"/><path d="M19.88,20h0Zm0,0h0Z"/><path d="M19.9,20h0Z"/><path d="M19.94,20h0v0Z"/><path d="M20,20Z"/><path d="M20,20Zm0,0h0Z"/><path d="M20,20Z"/><path d="M19.81,20.29h0s0,0,0,0h0s0,0,0,0h0Z"/><path d="M19.81,20.24h0v0Zm0,0h0Z"/><path d="M19.83,20.23Zm0,0h0Z"/><path d="M19.88,20.2Z"/><path d="M19.89,20.2h0v0h0Z"/><path d="M19.92,20.18h0Z"/><path d="M20,20.15h0v0h0Z"/><path d="M20,20.14h0v0h0v0h0S20,20.15,20,20.14Zm0,0h0Z"/><path d="M20.1,20.12h0l0,0h0v0h0v0Z"/><path d="M20.11,20.06h0v0h0Z"/><path d="M20.13,20.05Z"/><path d="M20.15,20h0v0h0Z"/><path d="M19.83,20.41h0v0h0Z"/><path d="M19.86,20.4h0v0h0Z"/><path d="M19.93,20.4h0v0h0v0h0Z"/><path d="M20,20.33h0v0h0Zm0,0h0Z"/><path d="M20,20.34h0Zm0,0h0Z"/><path d="M20,20.31h0a0,0,0,0,1,0,0h0Z"/><path d="M20,20.28Zm0,0h0v0h0Z"/><path d="M20.05,20.3Zm0,0h0Z"/><path d="M20.1,20.24h0v0h0Z"/><path d="M20.14,20.26h0s0,0,0,0h0Zm0,0Z"/><path d="M20.15,20.24Z"/><path d="M20.15,20.23Z"/><path d="M20.2,20.2h0Z"/><path d="M20.23,20.19h0Zm0,0h0Z"/><path d="M19.87,20.47h0v0h0v0Z"/><path d="M19.89,20.49v0h0Zm0,0h0Z"/><path d="M19.93,20.45Z"/><path d="M20,20.42Zm0,0Z"/><path d="M20,20.43Z"/><path d="M20,20.39h0v0h0Zm0,0h0Z"/><path d="M20,20.37Zm0,0h0v0h0Z"/><path d="M20.05,20.39s0,0,0,0h0Zm0,0Z"/><path d="M20.09,20.36h0Z"/><path d="M20.12,20.33h0v0h0v0h0Zm0,0h0Z"/><path d="M20.13,20.33Z"/><path d="M20.19,20.31h0a0,0,0,0,1,0,0h0Zm0,0Z"/><path d="M20.19,20.28h0v0h0Z"/><path d="M20.24,20.28Zm0,0Z"/><path d="M19.91,20.54Z"/><path d="M20,20.53h0v0h0Zm0,0h0Z"/><path d="M20,20.51h0s0,0,0,0h0l0,0h0Zm0,0h0Z"/><path d="M20,20.48Zm0,0h0v0h0Z"/><path d="M20,20.49Zm0,0h0Z"/><path d="M20,20.47Z"/><path d="M20.11,20.44h0v0h0Z"/><path d="M20.11,20.43Z"/><path d="M20.16,20.42Zm0,0h0Z"/><path d="M20.15,20.39h0Zm0,0Z"/><path d="M20.17,20.38h0v0h0Zm0,0Z"/><path d="M20.2,20.39h0Zm0,0h0Z"/><path d="M20.08,19.71Z"/><path d="M20.09,19.7Zm0,0Z"/><path d="M20.11,19.7h0v0h0Z"/><path d="M20.14,19.7h0Zm0,0h0Z"/><path d="M20.17,19.67Z"/><path d="M20.18,19.67h0Zm0,0h0Z"/><path d="M20.2,19.64Z"/><path d="M20.21,19.64Z"/><path d="M20.23,19.64h0Zm0,0h0Z"/><path d="M20.26,19.61Z"/><path d="M20.1,19.78Zm0,0h0Z"/><path d="M20.15,19.77Zm0,0h0Z"/><path d="M20.14,19.76h0Z"/><path d="M20.16,19.75h0Z"/><path d="M20.2,19.72h0Zm0,0h0Z"/><path d="M20.21,19.71Z"/><path d="M20.26,19.7Zm0,0Z"/><path d="M20.28,19.68h0Z"/><path d="M20.3,19.67h0Zm0,0h0Z"/><path d="M20.3,19.66Z"/><path d="M20.34,19.65Zm0,0h0Z"/><path d="M20.33,19.62Zm0,0Z"/><path d="M20.36,19.63Z"/><path d="M20.16,19.84Zm0,0h0Z"/><path d="M20.15,19.83Z"/><path d="M20.19,19.81Z"/><path d="M20.22,19.77Zm0,0Z"/><path d="M20.25,19.77Zm0,0Z"/><path d="M20.27,19.76Zm0,0Z"/><path d="M20.28,19.74h0v0h0Z"/><path d="M20.31,19.74Zm0,0h0Z"/><path d="M20.32,19.72h0v0Zm0,0Z"/><path d="M20.35,19.71h0Z"/><path d="M20.36,19.7h0Zm0,0h0Z"/><path d="M20.21,20Z"/><path d="M20.24,19.92Zm0,0h0v0h0Z"/><path d="M20.27,19.93Z"/><path d="M20.29,19.9h0v0h0Zm0,0Z"/><path d="M20.3,19.88Zm0,0h0v0h0Z"/><path d="M20.33,19.89Z"/><path d="M20.35,19.88Z"/><path d="M20.35,19.86Zm0,0h0v0h0Z"/><path d="M20.36,19.87h0Zm0,0Z"/><path d="M20.39,19.83Zm0,0h0v0h0Z"/><path d="M20.39,19.83h0v0h0Z"/><path d="M20.42,19.84h0Zm0,0Z"/><path d="M20.45,19.82Z"/><path d="M20.31,20.14Z"/><path d="M20.33,20.13h0v0h0Z"/><path d="M20.36,20.13h0Z"/><path d="M20.39,20.12h0v0h0v0h0Z"/><path d="M20.44,20.07h0Z"/><path d="M20.44,20.07h0Zm0,0h0Z"/><path d="M20.46,20.05Z"/><path d="M20.49,20.05h0Zm0,0h0Z"/><path d="M20.53,20h0Z"/><path d="M20.55,20h0Zm0,0h0Z"/><path d="M20.55,20h0Z"/><path d="M20.58,20h0Zm0,0h0Z"/><path d="M20.58,20Zm0,0Z"/><path d="M20.61,20Z"/><path d="M20.61,20h0Z"/><path d="M20.64,20h0Zm0,0h0Z"/><path d="M20.34,20.2h0v0h0Z"/><path d="M20.38,20.19h0Zm0,0h0Z"/><path d="M20.38,20.17Z"/><path d="M20.4,20.15h0v0h0Zm0,0Z"/><path d="M20.42,20.15Zm0,0h0Z"/><path d="M20.44,20.12h0v0h0Zm0,0Z"/><path d="M20.48,20.14h0v0Z"/><path d="M20.48,20.11h0v0h0Z"/><path d="M20.51,20.08h0v0h0Z"/><path d="M20.54,20.08h0Zm0,0h0Z"/><path d="M20.56,20.06h0v0h0Z"/><path d="M20.61,20.05Zm0,0h0Z"/><path d="M20.6,20Z"/><path d="M20.62,20h0v0h0Zm0,0h0Z"/><path d="M20.64,20Zm0,0h0Z"/><path d="M20.67,20h0v0h0Zm0,0h0Z"/><path d="M20.7,20h0Zm0,0h0Z"/><path d="M20.73,20Z"/><path d="M20.37,20.25h0v0h0v0h0Z"/><path d="M20.4,20.24Zm0,0h0Z"/><path d="M20.42,20.23Z"/><path d="M20.44,20.22Zm0,0h0Z"/><path d="M20.46,20.19h0v0h0Z"/><path d="M20.47,20.17h0Zm0,0h0v0h0Z"/><path d="M20.48,20.18h0v0h0Zm0,0h0Z"/><path d="M20.51,20.17Z"/><path d="M20.55,20.16Zm0,0h0Z"/><path d="M20.56,20.14Z"/><path d="M20.57,20.15Z"/><path d="M20.18,19.9Z"/><path d="M20.21,19.9Zm0,0Z"/><path d="M20.21,19.88h0Z"/><path d="M20.25,19.87h0Zm0,0h0Z"/><path d="M20.24,19.84Zm0,0h0v0h0Z"/><path d="M20.27,19.85h0Z"/><path d="M20.28,19.84h0v0h0Z"/><path d="M20.32,19.83h0Zm0,0h0Z"/><path d="M20.32,19.81Z"/><path d="M20.34,19.79h0v0h0Zm0,0Z"/><path d="M20.36,19.79Zm0,0Z"/><path d="M20.38,19.76h0v0h0Zm0,0Z"/><path d="M20.43,19.76Zm0,0h0Z"/><path d="M20.42,19.75Z"/><path d="M20.44,19.74Zm0,0h0Z"/><path d="M20.46,19.73Z"/><path d="M20.52,19.71Zm0,0Z"/><path d="M20.51,19.69Z"/><path d="M20.54,19.67Z"/><path d="M20.57,19.67h0Zm0,0h0Z"/><path class="cls-2" d="M23,17.38s.87.27,1,.46l-.42,0,.21.35a2,2,0,0,0-.68-.3c-.21,0-.71-.14-.78-.37,0-.06,0-.11.1-.21s.42,0,.42,0Z"/><path d="M23.78,18.23l-.07-.05a2.09,2.09,0,0,0-.67-.29c-.18,0-.72-.13-.8-.39,0-.07,0-.13.11-.22s.42,0,.43,0h0l.18.13c.07,0,.88.27,1,.46l0,0-.41,0Zm-1.21-1a.3.3,0,0,0-.2,0c-.09.09-.1.14-.09.18.07.23.59.33.76.36a2.1,2.1,0,0,1,.63.26l-.19-.31.41,0A3.66,3.66,0,0,0,23,17.4h0l-.18-.12Z"/><path class="cls-2" d="M20.63,16.73l0,.22c0,.08,0,.19.24.19l.67,0a2.32,2.32,0,0,1,.83.2c.33.14.4.22.42.3a1.65,1.65,0,0,0,.28-.34.14.14,0,0,0-.05-.19,1.9,1.9,0,0,0-.7-.34,3.48,3.48,0,0,0-1.13-.16C20.7,16.59,20.63,16.73,20.63,16.73Z"/><path d="M22.74,17.66v0c0-.09-.09-.16-.4-.29a2.28,2.28,0,0,0-.83-.2h-.67a.26.26,0,0,1-.23-.09.13.13,0,0,1,0-.12l0-.23h0s.08-.15.53-.15h0a3.78,3.78,0,0,1,1.12.15h0a2,2,0,0,1,.71.34.17.17,0,0,1,.05.22,1.73,1.73,0,0,1-.28.35ZM21.5,17.1a2.28,2.28,0,0,1,.84.2c.3.13.39.2.42.29a1.54,1.54,0,0,0,.25-.31A.12.12,0,0,0,23,17.1a2.12,2.12,0,0,0-.69-.34h0a3.7,3.7,0,0,0-1.11-.15h0c-.39,0-.48.11-.49.12s0,.17,0,.22a.17.17,0,0,0,0,.1.25.25,0,0,0,.2.07h.67Z"/><path d="M21,17.05a.31.31,0,0,1-.16,0h0a.36.36,0,0,0-.21,0v0a.44.44,0,0,1,.22.05l0,0h0A.26.26,0,0,0,21,17a.11.11,0,0,0,.12-.11h0A.15.15,0,0,1,21,17.05Z"/><path d="M22.69,17.68h0a.38.38,0,0,1-.16-.11l0,0a.45.45,0,0,0-.2-.12v0a.43.43,0,0,1,.23.13l0,0a.5.5,0,0,0,.14.1h.05l0,0h0a.07.07,0,0,1,0,0Z"/><path class="cls-2" d="M17.4,17.38s-.86.27-1,.46l.41,0-.21.35a2.1,2.1,0,0,1,.69-.3c.21,0,.71-.14.78-.37,0-.06,0-.11-.1-.21s-.42,0-.42,0Z"/><path d="M16.59,18.23l.23-.39-.41,0v0c.1-.19.91-.44,1-.46l.18-.13h0s.33-.06.44,0,.13.15.1.22c-.07.26-.61.35-.79.39a2.33,2.33,0,0,0-.68.29Zm.3-.43-.19.31a2.14,2.14,0,0,1,.62-.26c.18,0,.7-.13.77-.36,0,0,0-.09-.1-.18s-.31,0-.4,0l-.18.12a3.11,3.11,0,0,0-.93.42Z"/><path class="cls-2" d="M19.74,16.73l0,.22c0,.08,0,.19-.24.19l-.67,0a2.36,2.36,0,0,0-.84.2c-.33.14-.39.22-.41.3a1.65,1.65,0,0,1-.28-.34.14.14,0,0,1,.05-.19,1.9,1.9,0,0,1,.7-.34,3.48,3.48,0,0,1,1.13-.16C19.67,16.59,19.74,16.73,19.74,16.73Z"/><path d="M17.63,17.66l0,0a2.18,2.18,0,0,1-.28-.35.17.17,0,0,1,.06-.22,2,2,0,0,1,.7-.34h0a3.78,3.78,0,0,1,1.12-.15h0c.46,0,.53.14.53.15h0l0,.23a.13.13,0,0,1,0,.12.28.28,0,0,1-.23.09h-.67a2.28,2.28,0,0,0-.83.2c-.31.13-.38.2-.4.29Zm1.59-1.05h0a3.7,3.7,0,0,0-1.11.15h0a2.34,2.34,0,0,0-.69.34.13.13,0,0,0,0,.18,1.54,1.54,0,0,0,.25.31c0-.09.12-.16.42-.29a2.28,2.28,0,0,1,.84-.2h.67a.28.28,0,0,0,.2-.07.12.12,0,0,0,0-.1c0-.05,0-.19,0-.22S19.62,16.61,19.22,16.61Z"/><path class="cls-2" d="M20.8,16.21H19.57c-.4,0-.42.17-.42.23a1.11,1.11,0,0,0,.08.46c.09-.22.95-.19.95-.19s.86,0,1,.19a1.11,1.11,0,0,0,.08-.46C21.22,16.38,21.19,16.23,20.8,16.21Z"/><path d="M21.14,17l0,0c-.07-.17-.7-.19-.94-.18s-.86,0-.94.18v0l0,0a1.19,1.19,0,0,1-.08-.47c0-.11.08-.23.44-.25H20.8c.36,0,.44.14.44.25a1.19,1.19,0,0,1-.08.47Zm-1-.73h-.61c-.18,0-.4.05-.4.21a1.37,1.37,0,0,0,.06.42c.17-.19.92-.17.95-.17s.79,0,1,.17a1.37,1.37,0,0,0,.06-.42c0-.16-.22-.2-.4-.21h-.62Z"/><path d="M19.36,17.05a.14.14,0,0,1-.15-.14h0a.1.1,0,0,0,.11.11.27.27,0,0,0,.15,0h0l0,0a.44.44,0,0,1,.22-.05v0a.34.34,0,0,0-.21,0h0A.32.32,0,0,1,19.36,17.05Z"/><path d="M17.68,17.68h0a.07.07,0,0,1,0,0h0s0,0,.08,0a.5.5,0,0,0,.14-.1l0,0a.43.43,0,0,1,.23-.13v0a.55.55,0,0,0-.21.12l0,0a.3.3,0,0,1-.15.11Z"/><path class="cls-6" d="M19.59,16.45a.45.45,0,0,1,0-.08s0,0,0,0h.09c.05,0,.07,0,.08,0a.07.07,0,0,1,0,0,.1.1,0,0,1-.09.1h0a.07.07,0,0,0,.05-.07.09.09,0,0,0,0-.05h-.06l0,.15a.19.19,0,0,0,0,.08s0,0,0,0h-.07a0,0,0,0,0,0,0,.54.54,0,0,1,0-.08Z"/><path class="cls-6" d="M19.82,16.51h0l0,0v0a0,0,0,0,0,0,0h-.07s0,0,0,0l.09-.24s0,0,0,0h0l.1.23,0,0h-.08s0,0,0,0l0-.08h-.09Zm.08,0h0l0-.09h0l0,.09h.07Z"/><path class="cls-6" d="M20.09,16.33H20v0h0s0,0,0-.05h.24v.05h0s0,0-.05,0h-.05v.23s0,0,0,0h-.07s0,0,0,0v-.23Z"/><path class="cls-6" d="M20.3,16.42v-.08s0,0,0,0h.1a.1.1,0,0,1,.07,0,.08.08,0,0,1,0,.05s0,.05,0,.08a.49.49,0,0,0,.08.1s0,0,0,0h-.07s0,0,0-.06l0-.05h0v.09l0,0h-.08s0,0,0,0,0,0,0-.08Zm0,0h.06s0,0,0-.05,0-.07-.05-.07h0Z"/><path class="cls-6" d="M20.58,16.43v-.08s0,0,0,0h.07s0,0,0,0a.45.45,0,0,1,0,.08v.07s0,.06,0,.08,0,0,0,0h-.06v-.15Z"/><path class="cls-6" d="M20.75,16.52h0l0,.05a0,0,0,0,0,0,0s0,0,0,0h-.07s0,0,0,0l.11-.23h0l.08.24s0,0,0,0h-.07l0-.08h-.08Zm.07,0h0l0-.09h0l-.05.09h.07Z"/><path class="cls-6" d="M21.35,16.89c0,.05,0,.07,0,.08h.07a0,0,0,0,0,0,0h0v0H21.3s0,0,0,0v-.21s0,0,0,0h.07l0,0v.14Z"/><path class="cls-6" d="M21.51,16.83v-.07s0,0,0,0h.07s0,0,0,0V17h-.05a0,0,0,0,0,0,0v-.14Z"/><path class="cls-6" d="M21.66,16.85v-.08s0,0,0,0h.07c.06,0,.07.05.06.06a.07.07,0,0,1,0,.06.07.07,0,0,1,.05.08.07.07,0,0,1-.09.07h-.08l0,0a.23.23,0,0,1,0-.07Zm.07,0h0V17h0s0,0,0,0A.1.1,0,0,0,21.73,16.89Zm0,0h0s0,0,0,0,0,0,0,0,0-.06,0-.06h0Z"/><path class="cls-6" d="M21.87,16.88a.17.17,0,0,0,0-.07s0,0,0,0h0a0,0,0,0,1,0,0h0l.08,0h0v.05h0v0h-.06l0,.09H22V17h0v0h-.06V17s0,0,0,0h0s0,0,0,0h0a.06.06,0,0,1,0,0s0,0,0,0h-.11l0,0a.56.56,0,0,0,0-.07Z"/><path class="cls-6" d="M22.08,16.92c0-.05,0-.06,0-.07s0,0,0,0h0l.05,0,0,0s0,0,0,.05,0,0-.06.06l0,.11s0,0,0,0h-.06a.08.08,0,0,1,0-.06.39.39,0,0,1,0-.06h0a.45.45,0,0,1,0,.08v0h0a.45.45,0,0,1,0-.08Zm0,0h0s0,0,0-.05a0,0,0,0,0,0-.07h0Z"/><path class="cls-6" d="M22.37,16.94l0,0s0,0,0,0h0l0,0h0s0,0,0,0l0,0,.11,0h0l0,0h0s0,0,0,0l0,0-.06.13,0,.08a0,0,0,0,0,0,0h0l-.05,0h0a.24.24,0,0,0,0-.07Z"/><path class="cls-6" d="M22.47,17.15h0l0,0,0,0h0l0,0h0s0,0,0,0l.17-.16h0v0s0,.17,0,.22,0,.05,0,.05h0s0,0,0,0l-.05,0h0v-.08h0Zm.07,0h0l0-.09h0l-.06.06h0Z"/><path class="cls-6" d="M22.7,17.2l.05-.06v0h0l0,0,0,0s.07.06.07.11a.11.11,0,0,1,0,.09.16.16,0,0,1-.09.06.2.2,0,0,1-.11,0s0,0,0,0l0,0h0a0,0,0,0,0,0,0l.05-.06Zm0,.06s0,0-.05,0,0,0,0,0a0,0,0,0,0,0,0,.13.13,0,0,0,.08,0,.19.19,0,0,0,.07-.06.1.1,0,0,0,0-.08.13.13,0,0,0-.05-.09h0l-.05,0Z"/><path class="cls-6" d="M18.06,17s0-.06,0-.07a0,0,0,0,0,0,0h0l0,0a.15.15,0,0,1,.13,0,.1.1,0,0,1,.05.07.15.15,0,0,1,0,.11.14.14,0,0,1-.08.07H18.1s0,0,0,0a.25.25,0,0,0,0-.07Zm.05,0,0,.07a0,0,0,0,0,0,0h0a.09.09,0,0,0,.06,0,.14.14,0,0,0,0-.09.11.11,0,0,0-.06-.08.08.08,0,0,0-.08,0h0l0,.07Z"/><path class="cls-6" d="M18.33,16.9a.17.17,0,0,1,0-.07s0,0,0,0h0l0,0h0s0,0,0,0,0,0,0,.07l0,.06,0,.07h0s0,0,0,0a.12.12,0,0,1,0-.07Z"/><path class="cls-6" d="M18.44,16.9c0-.06,0-.15.09-.16a.11.11,0,0,1,.14.1.13.13,0,0,1-.08.17A.14.14,0,0,1,18.44,16.9Zm.2,0c0-.08-.07-.12-.11-.11s-.07,0-.05.13.06.12.11.11S18.66,17,18.64,16.86Z"/><path class="cls-6" d="M18.75,17h0a.11.11,0,0,1,0-.05s0,0,0,0h0s0,0,.05,0,0,0,0,0,0,0,0-.05h0a.18.18,0,0,1-.05-.08.08.08,0,0,1,.06-.08h.05v0h0a0,0,0,0,0,0,0h0s0,0,0,0,0,0,0,.05h0s.06.05.06.09a.07.07,0,0,1,0,.06l0,0Z"/><path class="cls-4" d="M21.18,23.53l-.49.21-.21.05.12.17.43.19a.08.08,0,0,1,0,.09h0a.07.07,0,0,1-.11,0,7.09,7.09,0,0,1-.76-.42,4.92,4.92,0,0,1-.82.43s-.08,0-.11,0a0,0,0,0,1,0-.05s0,0,0-.05L19.7,24l-.17-.24h-.09l0-.08-.28-.12L20,23.4l.52,0Z"/><path class="cls-3" d="M23.12,23.61a.19.19,0,0,0,.16.08c.1,0,.23-.17.29-.23a1.07,1.07,0,0,0,.27-.44,1.09,1.09,0,0,1,.29-.5.64.64,0,0,0-.4.16l.09-.41a1.69,1.69,0,0,0-.48.61c-.14.37-.19.54-.19.54Z"/><path d="M23.28,23.7a.2.2,0,0,1-.17-.08h0l0-.19a3.49,3.49,0,0,1,.19-.55,1.58,1.58,0,0,1,.48-.61l0,0-.09.4a.62.62,0,0,1,.37-.13h0l0,0a1,1,0,0,0-.28.48,1,1,0,0,1-.25.42l0,0,0,0C23.48,23.58,23.37,23.7,23.28,23.7Zm-.14-.1a.18.18,0,0,0,.14.07c.08,0,.19-.12.25-.2l0,0,0,0a1,1,0,0,0,.24-.41,1.08,1.08,0,0,1,.27-.47.73.73,0,0,0-.35.15l0,0,.09-.4a1.59,1.59,0,0,0-.43.57,5.2,5.2,0,0,0-.19.54Z"/><path class="cls-3" d="M21.83,23.73s-.17.23,0,.38a.67.67,0,0,0,.39.18.63.63,0,0,0,.61-.2,1.56,1.56,0,0,0,.34-.51c.05-.13.22-.44.4-.39,0,0,0-.13-.26-.34a.12.12,0,0,0-.1,0,.43.43,0,0,0-.28.21l-.26.4-.3.31-.3-.09Z"/><path d="M22.32,24.32h-.14a.63.63,0,0,1-.39-.19c-.15-.15,0-.39,0-.4h0l.23-.08.29.09.29-.3s.21-.3.27-.4a.41.41,0,0,1,.28-.22.12.12,0,0,1,.12,0c.27.21.27.35.27.35v0h0c-.16,0-.32.23-.38.38h0a1.55,1.55,0,0,1-.34.5A.6.6,0,0,1,22.32,24.32Zm-.48-.57s-.14.22,0,.34a.6.6,0,0,0,.36.18h0a.58.58,0,0,0,.59-.2,1.29,1.29,0,0,0,.33-.49h0s.18-.42.4-.4a.77.77,0,0,0-.25-.3.16.16,0,0,0-.09,0,.39.39,0,0,0-.26.21c-.06.1-.26.4-.27.4h0l-.31.31-.3-.09Z"/><path d="M22.3,24.23h0c-.11,0-.24-.12-.31-.18s-.17-.12-.23-.1v0c.08,0,.23.08.27.11s.18.17.28.17a.16.16,0,0,0,.14-.07l0,0A.19.19,0,0,1,22.3,24.23Z"/><path d="M23.19,23.65h0a.17.17,0,0,1,.09-.14h0l.07,0,.16-.11a.13.13,0,0,0,0-.15l0,0a.18.18,0,0,1,0,.2.69.69,0,0,1-.17.11l-.06,0h0A.13.13,0,0,0,23.19,23.65Z"/><path class="cls-3" d="M17.25,23.61a.19.19,0,0,1-.16.08c-.1,0-.23-.17-.29-.23a1.19,1.19,0,0,1-.27-.44,1.09,1.09,0,0,0-.29-.5.64.64,0,0,1,.4.16l-.09-.41a1.69,1.69,0,0,1,.48.61,4.25,4.25,0,0,1,.19.54Z"/><path d="M17.09,23.7c-.09,0-.2-.12-.28-.2l0,0,0,0a1,1,0,0,1-.24-.42,1.07,1.07,0,0,0-.29-.48l0,0h0a.61.61,0,0,1,.37.13l-.09-.4,0,0a1.66,1.66,0,0,1,.49.61,5.75,5.75,0,0,1,.19.55l0,.19h0A.2.2,0,0,1,17.09,23.7Zm-.8-1.16a1.08,1.08,0,0,1,.26.47,1,1,0,0,0,.24.41l0,0,0,0c.07.08.17.2.25.2a.17.17,0,0,0,.14-.07l0-.18a3.92,3.92,0,0,0-.19-.53,1.59,1.59,0,0,0-.43-.57l.09.4,0,0A.75.75,0,0,0,16.29,22.54Z"/><path class="cls-4" d="M24.27,21.7a2.16,2.16,0,0,0-.44,0,1.5,1.5,0,0,0,.13-.11.38.38,0,0,1,.13-.09.22.22,0,0,1,.08,0h.11a0,0,0,0,1,0,0l-.14,0,.11-.12s0,0,0-.05,0,0,0,0,0,0,0,0-.15.16-.24.19a2.13,2.13,0,0,1-.25,0l.24-.18a.61.61,0,0,1,.14-.07.28.28,0,0,0,.12,0v0a2.07,2.07,0,0,0-.33.1.8.8,0,0,1-.2.07,1.25,1.25,0,0,1,.23-.23L24,21l.07-.05.08,0,.07-.05,0,0v0h-.06a1,1,0,0,0-.13.09l-.14.09a1.73,1.73,0,0,1-.3.16c.2-.23.48-.37.67-.61a7.11,7.11,0,0,0-.72.5,1.22,1.22,0,0,1,.29-.42c.12-.12.26-.22.39-.33s.06,0,.06-.08a3,3,0,0,0-.85.78.38.38,0,0,1-.11.11,2.17,2.17,0,0,1,.44-.52,1.16,1.16,0,0,0,.33-.59,5.86,5.86,0,0,1-.62.7,4.16,4.16,0,0,1,.8-1.07.9.9,0,0,0-.43.23c-.05.05-.09.11-.14.17l-.07.09,0,.05,0,0a.5.5,0,0,1,.08-.27,1.09,1.09,0,0,0,.08-.15.86.86,0,0,1,.1-.16,2,2,0,0,1,.2-.31,3.13,3.13,0,0,0-.52.73.83.83,0,0,1,.16-.39c.07-.12.15-.24.23-.36a1.24,1.24,0,0,0-.34.38,4,4,0,0,0-.23.46,1.33,1.33,0,0,1,.1-.34,2.06,2.06,0,0,1,.12-.26,2,2,0,0,1,.17-.23,1.17,1.17,0,0,0,.17-.26,1.26,1.26,0,0,0-.34.35.58.58,0,0,1-.1.12,2.44,2.44,0,0,0,.1-.24A1.55,1.55,0,0,1,23.8,19a.15.15,0,0,0,.06-.1,2.16,2.16,0,0,0-.56.64,2.27,2.27,0,0,1,.28-.79.32.32,0,0,0-.15.13.39.39,0,0,0-.06.11.15.15,0,0,1-.07.09c.09-.14.1-.33.19-.47s0,0,0,0a0,0,0,0,0,0,0,.91.91,0,0,0-.16.24.42.42,0,0,1-.09.16.45.45,0,0,1,.08-.22l.05-.08a.58.58,0,0,0-.16.19,1.4,1.4,0,0,0-.09.17.57.57,0,0,1,0,.14s-.05.07-.05.11a1.51,1.51,0,0,1,.05-.47l0-.11a.37.37,0,0,0,0-.11,1.89,1.89,0,0,0-.18.52,1.07,1.07,0,0,1-.14-.35,1.07,1.07,0,0,0-.35-.52,2,2,0,0,1,.18.52.51.51,0,0,1-.14-.18.78.78,0,0,0-.11-.2.51.51,0,0,0,0,.13,1,1,0,0,0,.18.41l0,.06a.31.31,0,0,1,.06.13.33.33,0,0,1-.16-.17c0-.08-.07-.16-.1-.23a2.44,2.44,0,0,0-.1-.24,1.4,1.4,0,0,0,.05.41l-.23-.12s0,0,0,0,0,0,0,0h0l.05.06c.08.07.21.11.25.21h0a1.58,1.58,0,0,0,.24.39c-.13-.14-.29-.26-.43-.39a1,1,0,0,0,.15.21v0c.06.07.13.12.19.19a.93.93,0,0,1,.13.15l.05.1a2.14,2.14,0,0,0-.65-.58l.06.06c.12.14.25.26.37.39a1.52,1.52,0,0,1,.31.44c-.19-.16-.33-.37-.53-.52a6.63,6.63,0,0,1,.57.74c-.11-.11-.19-.24-.3-.34a1.53,1.53,0,0,0-.21-.14l-.08,0c0,.09.14.14.22.2a1,1,0,0,1,.27.34.58.58,0,0,0-.21-.17L22.33,20l-.09-.05v0a3.52,3.52,0,0,1,.37.27,1.12,1.12,0,0,1,.29.36,1.73,1.73,0,0,1,.11.32.78.78,0,0,1,0,.21c-.06-.17-.12-.34-.19-.52a.37.37,0,0,0-.05-.11.12.12,0,0,0-.11,0,.09.09,0,0,0-.07,0s0,0,0,.06a0,0,0,0,1,0,0l-.07,0a.41.41,0,0,0-.05.09c-.05.1-.06.22-.11.33a.11.11,0,0,0,0,.11s0-.07.06-.11a.48.48,0,0,1,.13-.23,1.28,1.28,0,0,1-.06.33s0,0,0,0l0,0a1.83,1.83,0,0,1,.11-.33.25.25,0,0,1,.08.1l0,.12a4.44,4.44,0,0,1,.07.49,1.31,1.31,0,0,0-.22-.4.23.23,0,0,0-.11.17.18.18,0,0,0-.07-.05l-.05,0s0,0-.05.07a.76.76,0,0,0,0,.26s0,.09,0,.12,0-.19,0-.28,0-.05,0-.05l0,0a.44.44,0,0,1,.07.19.82.82,0,0,1,0,.44,1.41,1.41,0,0,1-.19.39,1,1,0,0,1-.2.24,1.58,1.58,0,0,0,.23-.53,1.2,1.2,0,0,0,.06-.33h0s0,0,0,0-.06.22-.1.32a4,4,0,0,1-.17.36l-.16.26a.41.41,0,0,0,0-.22h0l-.14.37c0-.07,0-.14,0-.21a.5.5,0,0,0,0-.21c0,.05,0,.1-.05.16s0,.05,0,.08l0,.05s0,0,0,0a1.7,1.7,0,0,1,0-.22,0,0,0,0,0,0,0,.82.82,0,0,1-.1.3,1.24,1.24,0,0,1-.22.34,1,1,0,0,0,.6,0,3.31,3.31,0,0,1,.77,0L22.31,23l.59,0-.49-.11.68,0s0,0,0,0l0,0-.24-.05.55,0h0s0,0,0,0l-.44-.11.08-.05a3.49,3.49,0,0,1,.69-.23h.05a0,0,0,0,0,0-.05,3,3,0,0,1-.52.08l.21-.1.1,0,.13,0h0s0,0,0,0h-.06c.22-.07.44-.1.65-.19a.87.87,0,0,1-.23,0l-.2,0a.65.65,0,0,1-.24,0,1.46,1.46,0,0,1,.44-.16s.07,0,.09,0c-.18,0-.35.11-.53.1a1.15,1.15,0,0,1,.36-.11,1.12,1.12,0,0,1,.31-.05h0a0,0,0,0,0,0,0S24.28,21.7,24.27,21.7Zm-1.59,0a.62.62,0,0,1-.07-.19,1.06,1.06,0,0,0,0-.25.14.14,0,0,0,0,.06s0,0,0,.07a.41.41,0,0,0-.09-.23.23.23,0,0,1,.07-.1c.06.14.11.29.16.44a.19.19,0,0,1,0,.08A.31.31,0,0,1,22.68,21.73Z"/><path class="cls-8" d="M21.62,23.15a.8.8,0,0,1-.3-.06h0a1.46,1.46,0,0,0,.22-.35.58.58,0,0,0,.09-.29,0,0,0,0,1,0,0h0v.19h0l0,0a.94.94,0,0,0,0-.09s0,0,0,0a.3.3,0,0,1,0-.1h0a.49.49,0,0,1,0,.21l0,.06s0,.06,0,.08l.11-.3a0,0,0,0,1,0,0h0s0,0,0,0a.55.55,0,0,1,0,.18c.05-.07.09-.15.14-.23a2.6,2.6,0,0,0,.16-.35l.06-.19a.57.57,0,0,0,0-.14s0,0,0,0h0v0a1.14,1.14,0,0,1-.06.33,1.83,1.83,0,0,1-.21.5.78.78,0,0,0,.16-.21,1.65,1.65,0,0,0,.2-.4.92.92,0,0,0,0-.43.38.38,0,0,0-.07-.18l0,0h0s0,0,0,0,0,.18,0,.28h0a.16.16,0,0,1,0-.12.46.46,0,0,1,0-.26s0-.07.05-.07a0,0,0,0,1,.05,0,.18.18,0,0,1,.07.05.23.23,0,0,1,.11-.17h0a2.16,2.16,0,0,1,.2.36,3.64,3.64,0,0,0-.07-.44.23.23,0,0,0,0-.11l-.06-.1a1.59,1.59,0,0,0-.12.32.06.06,0,0,1,0,0l0,0h0a1.2,1.2,0,0,0,.06-.32.94.94,0,0,0-.12.22h0a.17.17,0,0,1-.06.1h0a.15.15,0,0,1,0-.11h0a1.77,1.77,0,0,0,.06-.17,1.09,1.09,0,0,1,.05-.17l0-.08.07,0,0,0s0,0,0,0l0,0a.1.1,0,0,1,.07,0,.12.12,0,0,1,.11.05.24.24,0,0,1,.06.11c.06.16.12.32.17.48a.86.86,0,0,0,0-.17h0a1.75,1.75,0,0,0-.12-.32,1.11,1.11,0,0,0-.28-.35,2.72,2.72,0,0,0-.37-.27h0v0h0l.08.05.13.06.12.06a.52.52,0,0,1,.18.13.79.79,0,0,0-.25-.29.1.1,0,0,0-.05,0,.69.69,0,0,1-.17-.17h0l0,0,.05,0a.9.9,0,0,1,.2.14,1,1,0,0,1,.17.18l.1.12a1.72,1.72,0,0,0-.31-.4l-.24-.29h0a1.81,1.81,0,0,1,.32.3l.19.2a1.57,1.57,0,0,0-.29-.42l-.17-.17-.21-.21-.05-.07h0a2.64,2.64,0,0,1,.57.48,1.34,1.34,0,0,0-.11-.14l-.09-.08-.1-.11h0L22.22,19h0l.08.07.28.25a1.57,1.57,0,0,1-.18-.31h0a.38.38,0,0,0-.15-.13l-.11-.08a.1.1,0,0,1,0-.06h0s0,0,0-.05l0,0h0l.21.12a1.62,1.62,0,0,1-.05-.4h0c0,.08.07.15.1.23l0,.05a1,1,0,0,0,.07.18.36.36,0,0,0,.15.17.34.34,0,0,0-.06-.12l0,0,0,0a1.38,1.38,0,0,1-.18-.41s0-.08,0-.13h0a.86.86,0,0,1,.1.16l0,0a.48.48,0,0,0,.12.16,2,2,0,0,0-.17-.49h0a1.23,1.23,0,0,1,.35.52l0,.1a1.17,1.17,0,0,0,.09.24,1.73,1.73,0,0,1,.18-.51h0a.14.14,0,0,1,0,.11.29.29,0,0,1,0,.09v0a1.18,1.18,0,0,0-.05.42s0,0,0,0l0,0a.32.32,0,0,0,0-.09s0,0,0-.05a.89.89,0,0,1,.08-.17.78.78,0,0,1,.16-.2h0l0,0,0,0a.7.7,0,0,0-.08.2.39.39,0,0,0,.08-.14.8.8,0,0,1,.13-.19l0-.05h0v0l0,0h0a.77.77,0,0,0-.1.25,1.07,1.07,0,0,1-.07.19.16.16,0,0,0,0-.07v0a.59.59,0,0,1,0-.08.93.93,0,0,1,.15-.13h0a2.3,2.3,0,0,0-.27.76,1.91,1.91,0,0,1,.55-.62h0s0,.08-.06.11a1.22,1.22,0,0,0-.24.32.36.36,0,0,1,0,.09.61.61,0,0,1-.05.12l.06-.08v0a1.26,1.26,0,0,1,.35-.34h0a1.7,1.7,0,0,1-.18.26,1.53,1.53,0,0,0-.17.23,1.89,1.89,0,0,0-.11.25h0a1.76,1.76,0,0,0-.1.3l0-.06c.06-.12.12-.25.19-.36a1.31,1.31,0,0,1,.33-.39h0l-.18.29-.05.07a1,1,0,0,0-.15.36,2.88,2.88,0,0,1,.5-.7h0l-.2.31-.09.16,0,.05-.06.1a.46.46,0,0,0-.08.25v0h0l0,0,.08-.1,0,0,.1-.12a.76.76,0,0,1,.43-.23h0a4.31,4.31,0,0,0-.78,1,4.8,4.8,0,0,0,.59-.68h0a1.05,1.05,0,0,1-.33.59l-.09.09a1.86,1.86,0,0,0-.33.41.43.43,0,0,0,.09-.1,3.11,3.11,0,0,1,.84-.78h0a.15.15,0,0,1-.06.1l-.05,0a3,3,0,0,0-.33.29,1.28,1.28,0,0,0-.29.39,6.33,6.33,0,0,1,.71-.48h0a2.5,2.5,0,0,1-.34.31,2.79,2.79,0,0,0-.32.28,1.84,1.84,0,0,0,.28-.15l0,0,.09-.06,0,0,.09,0,.06,0h0s0,0,0,0l0,0,0,0,0,0-.08,0,0,0L24,21l-.05.05a1.45,1.45,0,0,0-.22.21l.15-.05h0a1.39,1.39,0,0,1,.33-.1h0l-.07,0h-.05l-.13.07-.23.16H24a.46.46,0,0,0,.16-.11l.09-.08h0s0,0,0,0a.09.09,0,0,1,0,.05l-.1.12h0l.12,0a0,0,0,0,1,0,0h-.19a.25.25,0,0,0-.12.08l0,0-.07.07a2.79,2.79,0,0,1,.41,0s0,0,0,0a0,0,0,0,1,0,0h0a1.67,1.67,0,0,0-.31.05,1.83,1.83,0,0,0-.33.11.71.71,0,0,0,.24-.06,1.09,1.09,0,0,1,.26-.05h0s-.05,0-.09,0a1.26,1.26,0,0,0-.42.16.86.86,0,0,0,.22,0l.07,0,.13,0h.08a.38.38,0,0,0,.15,0h0a2,2,0,0,1-.42.13l-.17.05h0v0s0,0,0,0l-.12,0h-.11a.82.82,0,0,0-.19.09,4,4,0,0,0,.5-.08h0a.05.05,0,0,1,0,.05l-.05,0a3.56,3.56,0,0,0-.68.22.18.18,0,0,0-.07.05h0l.21.05.21.05,0,0v0a0,0,0,0,1,0,0h-.48l.17,0h0s0,0,0,.05h0l-.63,0,.44.09h-.09l-.47,0,.13.05.22.08h0a3.3,3.3,0,0,0-.77,0h0A2.58,2.58,0,0,1,21.62,23.15Zm-.29-.07a1.14,1.14,0,0,0,.58,0h0a3.46,3.46,0,0,1,.72,0L22.47,23,22.31,23h0l.5,0h0l-.44-.09h0l.68,0v0h0l-.24-.06h0l.55,0h0l0,0-.2-.05-.23-.05h0l.07,0a3.64,3.64,0,0,1,.69-.22l.05,0s0,0,0,0a3.12,3.12,0,0,1-.52.08h0a1.07,1.07,0,0,1,.22-.1l0,0h.05l.12,0h-.05l.23-.06a2.47,2.47,0,0,0,.36-.11H24a.31.31,0,0,0-.13,0h-.07a.65.65,0,0,1-.24,0h0a1.12,1.12,0,0,1,.44-.17.11.11,0,0,0,.08,0,1,1,0,0,0-.25.06,1.08,1.08,0,0,1-.27.05h0a1.52,1.52,0,0,1,.36-.12,1.67,1.67,0,0,1,.31-.05h0v0h0a1.61,1.61,0,0,0-.44,0h0l.09-.07,0,0a.29.29,0,0,1,.13-.08h.17l-.11-.05h0l.11-.13a.05.05,0,0,0,0,0v0h0l-.09.07a.45.45,0,0,1-.16.12l-.13,0h-.13a2.27,2.27,0,0,1,.25-.18.56.56,0,0,1,.13-.07l.05,0,.07,0h0a1.19,1.19,0,0,0-.32.1h0a.58.58,0,0,1-.17.06h0a1,1,0,0,1,.24-.23L24,21l.05,0,0,0,.07-.05h0l0,0,0,0s0,0,0,0l0,0a.26.26,0,0,0-.09.05l-.05,0L24,21l0,0a1.68,1.68,0,0,1-.3.16h0a2.43,2.43,0,0,1,.34-.3,2.8,2.8,0,0,0,.31-.28,6.45,6.45,0,0,0-.69.47h0a1.34,1.34,0,0,1,.3-.41c.1-.1.22-.2.33-.29l0,0a.19.19,0,0,0,.06-.07,3,3,0,0,0-.83.77.68.68,0,0,1-.12.12h0a1.89,1.89,0,0,1,.35-.44l.09-.09a1,1,0,0,0,.33-.56,5.68,5.68,0,0,1-.61.69h0a4.25,4.25,0,0,1,.79-1.06.82.82,0,0,0-.4.23.52.52,0,0,0-.1.11l0,0-.08.09,0,.05h0l0,0h0a.5.5,0,0,1,.08-.27l.07-.11,0,0,.09-.17a1.43,1.43,0,0,1,.16-.24,3.51,3.51,0,0,0-.47.67h0a.83.83,0,0,1,.16-.39l0-.08.16-.25a1.17,1.17,0,0,0-.3.35c-.07.12-.13.24-.19.36l-.05.1h0a1.33,1.33,0,0,1,.1-.34h0l.12-.25a1.53,1.53,0,0,1,.17-.23,2.49,2.49,0,0,0,.17-.24,1.29,1.29,0,0,0-.33.33v0a.22.22,0,0,1-.09.1h0a.69.69,0,0,0,.07-.15.3.3,0,0,1,0-.08A1.07,1.07,0,0,1,23.8,19a.2.2,0,0,0,.06-.09,1.88,1.88,0,0,0-.55.64h0a2.5,2.5,0,0,1,.27-.78.5.5,0,0,0-.13.12.59.59,0,0,0,0,.08v0a.3.3,0,0,1-.07.1h0a1,1,0,0,0,.08-.22,1,1,0,0,1,.11-.25h0s0,0,0,0v0l0,0a.8.8,0,0,0-.13.19.65.65,0,0,1-.09.16h0a.53.53,0,0,1,.08-.22l0-.05h0a1,1,0,0,0-.22.34s0,0,0,.06a.11.11,0,0,1,0,.08.05.05,0,0,1,0,0,.14.14,0,0,0,0,.07h0a2.5,2.5,0,0,1,.05-.47v0a.29.29,0,0,0,0-.09.27.27,0,0,0,0-.09,1.78,1.78,0,0,0-.18.5h0a.82.82,0,0,1-.1-.26l0-.09a1.07,1.07,0,0,0-.33-.5,1.89,1.89,0,0,1,.17.49h0a.36.36,0,0,1-.14-.18l0,0-.08-.14a.36.36,0,0,0,0,.11,1.32,1.32,0,0,0,.17.41l0,0,0,0a.37.37,0,0,1,.07.14h0a.43.43,0,0,1-.17-.18l-.08-.18v-.05l-.09-.21a1.48,1.48,0,0,0,0,.38h0l-.22-.13h0s0,0,0,0v0l.05.06.1.07a.44.44,0,0,1,.16.14h0a2,2,0,0,0,.25.39h0c-.11-.11-.24-.21-.36-.32l-.05,0,.13.18,0,0,.1.1.09.08a1,1,0,0,1,.12.16l.06.1h0a2,2,0,0,0-.62-.55l0,0,.21.21.17.17a1.57,1.57,0,0,1,.31.45h0a2.18,2.18,0,0,1-.22-.21,2.47,2.47,0,0,0-.28-.28,2.65,2.65,0,0,0,.21.26,2.09,2.09,0,0,1,.33.45h0l-.13-.15a1.37,1.37,0,0,0-.16-.18,1.28,1.28,0,0,0-.21-.14l0,0h0a.73.73,0,0,0,.16.14l.05,0a1,1,0,0,1,.28.34h0a.56.56,0,0,0-.22-.17L22.45,20,22.32,20l-.07-.05h0a2.72,2.72,0,0,1,.37.27,1.32,1.32,0,0,1,.29.35,2,2,0,0,1,.11.32h0a.65.65,0,0,1,0,.21h0l-.19-.51a.39.39,0,0,0-.06-.11.1.1,0,0,0-.1-.05l-.06,0s0,0,0,0a.05.05,0,0,1,0,0l0,0-.07,0-.05.08c0,.05,0,.11-.05.16a.49.49,0,0,1-.06.17h0s0,.06,0,.09a.16.16,0,0,0,.05-.09h0a.58.58,0,0,1,.14-.24h0a1.28,1.28,0,0,1-.06.33l0,0s0,0,0,0a1.84,1.84,0,0,1,.12-.32h0a.26.26,0,0,1,.07.1.56.56,0,0,1,0,.12c0,.16.05.33.07.49h0a1.81,1.81,0,0,0-.22-.41.21.21,0,0,0-.1.17h0l-.07-.05h0s-.05,0-.05.06a.76.76,0,0,0,0,.26.17.17,0,0,0,0,.1v-.26s0-.05,0-.05a.05.05,0,0,1,0,0,.47.47,0,0,1,.07.19,1,1,0,0,1,0,.44,2,2,0,0,1-.19.39,1,1,0,0,1-.21.25h0a1.64,1.64,0,0,0,.23-.53.88.88,0,0,0,.06-.33h0s0,0,0,0,0,.09,0,.14a.82.82,0,0,1-.06.19,2.48,2.48,0,0,1-.16.35l-.17.27h0a.41.41,0,0,0,0-.22h0l-.14.37h0l0-.15,0-.06a.58.58,0,0,0,0-.19l0,.08a.14.14,0,0,1,0,.06l0,.09,0,0h0v0h0v-.22s0,0,0,0h0a.65.65,0,0,1-.09.3A1.41,1.41,0,0,1,21.33,23.08Zm1.35-1.34h0a.52.52,0,0,1-.08-.19v-.11a.53.53,0,0,0,0-.13.06.06,0,0,0,0,0h0a.13.13,0,0,1,0,.06h0a.31.31,0,0,0-.09-.22h0a.28.28,0,0,1,.08-.11h0a4.43,4.43,0,0,1,.15.43.29.29,0,0,1,0,.09.28.28,0,0,1,0,.13Zm-.09-.45h0a.38.38,0,0,1,0,.15v.1a.56.56,0,0,0,.07.18.21.21,0,0,0,0-.11.19.19,0,0,0,0-.08,4.43,4.43,0,0,0-.15-.43.31.31,0,0,0-.07.09.32.32,0,0,1,.09.17h0a.07.07,0,0,1,0-.06Z"/><path class="cls-9" d="M21.76,23l.1,0a2.42,2.42,0,0,1,.6,0,.11.11,0,0,1,.08,0,3.47,3.47,0,0,0-.72,0h-.07s0,0-.05,0S21.74,23,21.76,23Z"/><path class="cls-3" d="M18.55,23.73s.16.23,0,.38a.67.67,0,0,1-.38.18.64.64,0,0,1-.62-.2,1.47,1.47,0,0,1-.33-.51c-.06-.13-.22-.44-.41-.39,0,0,0-.13.26-.34a.12.12,0,0,1,.1,0,.43.43,0,0,1,.28.21l.26.4.3.31.3-.09Z"/><path d="M18.05,24.32a.61.61,0,0,1-.49-.22,1.76,1.76,0,0,1-.34-.5h0c-.06-.15-.22-.42-.38-.38h0v0s0-.14.27-.35a.13.13,0,0,1,.12,0,.41.41,0,0,1,.28.22c.06.1.25.38.27.4l.29.3.29-.09.23.08h0s.17.25,0,.4a.63.63,0,0,1-.39.19h-.14Zm-1.18-1.15c.21,0,.38.39.38.4h0a1.29,1.29,0,0,0,.33.49.58.58,0,0,0,.59.2h0a.58.58,0,0,0,.36-.18c.12-.12,0-.31,0-.34l-.2-.07-.3.09-.31-.32s-.21-.3-.27-.4a.37.37,0,0,0-.26-.21.16.16,0,0,0-.09,0c-.18.15-.23.25-.24.3Z"/><path class="cls-3" d="M22.75,23.54a4.52,4.52,0,0,0-2.56-.61c-.32,0-2,0-2.57.61a.11.11,0,0,0,0,.11,1.49,1.49,0,0,0,.33.48s.45-.64,2.27-.64,2.26.64,2.26.64a1.49,1.49,0,0,0,.33-.48A.09.09,0,0,0,22.75,23.54Z"/><path d="M22.45,24.16l0,0s-.46-.63-2.24-.63-2.25.62-2.25.63v0l0,0a1.36,1.36,0,0,1-.34-.49.13.13,0,0,1,0-.13,4.42,4.42,0,0,1,2.58-.61,4.41,4.41,0,0,1,2.57.61h0a.13.13,0,0,1,0,.13,1.36,1.36,0,0,1-.34.49Zm-2.26-.69c1.65,0,2.17.52,2.26.63a1.11,1.11,0,0,0,.31-.46.08.08,0,0,0,0-.09h0a4.39,4.39,0,0,0-2.55-.6,4.38,4.38,0,0,0-2.55.6.09.09,0,0,0,0,.09,1.25,1.25,0,0,0,.31.46C18,24,18.53,23.47,20.19,23.47Z"/><path class="cls-3" d="M20.76,23.63a4.08,4.08,0,0,0,.43.12l-.14.09.08.18-.44-.14Z"/><path d="M21.13,24h0l-.44-.14h0l.08-.25h0a3.82,3.82,0,0,0,.42.12,0,0,0,0,0,0,0s0,0,0,0l-.13.08.08.17h0Zm-.42-.16.4.13L21,23.84h0l.12-.07-.39-.12Z"/><path class="cls-3" d="M19.56,23.65a3.54,3.54,0,0,1-.45.13l.14.08-.08.18.4-.12Z"/><path d="M19.17,24.05h0l.08-.17-.13-.08h0c.14,0,.44-.13.44-.13h0v.27h0l-.41.12Zm0-.26.12.06v0l-.07.16.37-.12v-.24Z"/><path d="M18.07,24.23a.19.19,0,0,1-.16-.09l0,0h0a.16.16,0,0,0,.14.07c.1,0,.23-.12.29-.17s.18-.14.26-.11v0c-.06,0-.19.06-.23.1s-.2.18-.31.18Z"/><path d="M17.19,23.65a.16.16,0,0,0-.08-.11h0l-.06,0a.69.69,0,0,1-.17-.11.16.16,0,0,1,0-.2l0,0h0a.13.13,0,0,0,0,.15.76.76,0,0,0,.16.11l.06,0h0a.17.17,0,0,1,.09.14Z"/><path class="cls-6" d="M18.36,23.58v0h0l0,0h0v0l0-.14v0h0l0,0h.11s0,0,0,0a.08.08,0,0,1,0,0l0,0,0,0,0,0,0,0h0v0l0,0,0,0h0Zm0-.07h0l0,0s0,0,0,0,0,0,0,0H18.3Z"/><path class="cls-6" d="M18.48,23.33h0l.07,0h0v.06h0l0,0h-.05l0,.1h0v0h0v.08h0v0h0l0,.07v0h.06v-.05h0l0,.07h0l-.07,0h-.06v0l0-.14v0h0Z"/><path class="cls-6" d="M18.75,23.47v0h0v0l0-.14v0h.13s0,0,0,0a.08.08,0,0,1,0,.07.07.07,0,0,1,0,0h0Zm0-.07h0a0,0,0,0,0,0,0,0,0,0,0,0,0-.05.05.05,0,0,0,0,0H18.7Z"/><path class="cls-6" d="M18.82,23.24h.08v0l0,.1a.16.16,0,0,0,0,.06,0,0,0,0,0,0,0,.05.05,0,0,0,0,0,.08.08,0,0,0,0-.07l0-.1v0h0v0h0l0,.1a.14.14,0,0,1,0,.09.09.09,0,0,1-.06,0h-.07a.15.15,0,0,1,0-.08l0-.1v0h0Z"/><path class="cls-6" d="M19.07,23.19h.15s0,0,0,0a.09.09,0,0,1,0,.07h0a.05.05,0,0,1,0,0,.07.07,0,0,1,0,.06.06.06,0,0,1-.06,0h-.07v0l0-.14v0h0Zm.09.1h0s0,0,0,0a0,0,0,0,0,0,0s0,0,0,0h-.05Zm0,0,0,.11h0l0,0v0a.05.05,0,0,0,0,0h-.05Z"/><path class="cls-6" d="M19.36,23.2l0,.14v0h.06l0-.05h0v.07h-.13v0l0-.14v0h0v0Z"/><path class="cls-6" d="M19.56,23.32v0h0v0l0-.15h0v0h.05v0Z"/><path class="cls-6" d="M19.76,23.17h0l0-.06h0s0,0-.05,0a.17.17,0,0,0,0,.08l0,.08a.09.09,0,0,0,.06,0l.05,0h0a.09.09,0,0,1-.07,0,.11.11,0,0,1-.08,0,.19.19,0,0,1,0-.09.15.15,0,0,1,0-.1.14.14,0,0,1,.08,0h.06Z"/><path class="cls-6" d="M19.85,23.27v.06h0v0l.07-.22h0l.08.22v0h-.06v0Zm0-.1v0l0,.07h.05l0-.06Z"/><path class="cls-6" d="M20.13,23.35h0v-.19h0v0h.07a.11.11,0,0,1,.12.12.15.15,0,0,1,0,.1.1.1,0,0,1-.09,0h-.06Zm0,0h0a.05.05,0,0,0,0,0,.15.15,0,0,0,0-.08.2.2,0,0,0,0-.09l0,0h0Z"/><path class="cls-6" d="M20.57,23.22a.14.14,0,0,1,0,.11.11.11,0,0,1-.08,0,.09.09,0,0,1-.08,0,.15.15,0,0,1,0-.1.18.18,0,0,1,0-.1.12.12,0,0,1,.09,0,.09.09,0,0,1,.08,0A.2.2,0,0,1,20.57,23.22Zm-.18,0a.2.2,0,0,0,0,.09s0,0,0,0l.05,0a.2.2,0,0,0,0-.09.22.22,0,0,0,0-.09.05.05,0,0,0-.05,0s0,0-.05,0A.2.2,0,0,0,20.39,23.22Z"/><path class="cls-6" d="M20.8,23.12h.05v0l0,.14v0h0V23.2l-.08.17h0l0-.18v.15h0v-.21h.05l0,.17v0Z"/><path class="cls-6" d="M21,23.34v0H20.9v0l0-.14v0H21v0h0Z"/><path class="cls-6" d="M21,23.39h0v0l0-.14v0h0l.08.17v0l0-.09v0h0v0l0,.2h0l-.09-.19v.15Z"/><path class="cls-6" d="M21.31,23.4v0h0v0l0-.14v0h.05v0h0Z"/><path class="cls-6" d="M21.55,23.32h0v-.06h0l-.06,0a.1.1,0,0,0,0,.08.11.11,0,0,0,0,.08.08.08,0,0,0,.05.05h0a.13.13,0,0,1-.07-.06.31.31,0,0,1,0-.1.15.15,0,0,1,.06-.09.1.1,0,0,1,.09,0l.05,0h0Z"/><path class="cls-6" d="M21.61,23.44l0,0v0h0l.13-.2h0v.25h0v-.05Zm.06-.09v0l0,.05.05,0v-.09Z"/><path class="cls-6" d="M21.79,23.55h0v0l0-.14v0h0l0,0h.06l.06.18v0l0-.1v0h0v0l-.06.2h0l-.06-.2v0l0,.11Z"/><path class="cls-6" d="M22,23.57l0,0h0l0,0h0l.14-.19h0v.25h0l-.05,0h0v-.05Zm.06-.09h0l0,.06.05,0v-.09Z"/><path class="cls-3" d="M20.14,23.63h.12c.11,0,.27-.1.44-.1s.11,0,.11.14v0s0,.08,0,.09a.28.28,0,0,1,0,.08.16.16,0,0,1-.16.16c-.11,0-.38-.17-.44-.17s-.31.16-.49.16a.16.16,0,0,1-.14-.17v0a1.09,1.09,0,0,1,0-.13c0-.16,0-.16.1-.16a3.46,3.46,0,0,1,.34.07Z"/><path d="M20.61,24.06a.87.87,0,0,1-.28-.1l-.16-.07A.74.74,0,0,0,20,24a.76.76,0,0,1-.28.09c-.08,0-.15-.1-.15-.18v-.06s0-.06,0-.11.05-.17.11-.17a.81.81,0,0,1,.19,0l.15,0h.29a.59.59,0,0,0,.17,0,.76.76,0,0,1,.27-.06c.07,0,.12.06.12.15v0a.1.1,0,0,1,0,.07,0,0,0,0,1,0,0,.54.54,0,0,1,0,.08A.18.18,0,0,1,20.61,24.06Zm-.44-.19a.59.59,0,0,1,.17.07.75.75,0,0,0,.27.1.15.15,0,0,0,.15-.15.17.17,0,0,0,0-.07h0l0,0s0,0,0-.06v0c0-.08,0-.13-.1-.13a.92.92,0,0,0-.26.05.45.45,0,0,1-.18,0H20l-.15,0-.19,0c-.05,0-.09,0-.09.15s0,.09,0,.11v.06c0,.07.06.16.13.16a.65.65,0,0,0,.28-.09A.65.65,0,0,1,20.17,23.87Z"/><path d="M19.86,23.68c-.23,0-.25,0-.28-.06h0s0,.05.26.05H20s0,0,0,0a0,0,0,0,1,0,0h-.17Z"/><path d="M20.25,23.68h0s0,0,0,0h.15c.09,0,.29,0,.31-.07a0,0,0,0,1,0,0s0,0,0,0-.32.07-.33.07h-.15Z"/><path d="M19.64,24h0a.83.83,0,0,1,.46-.17s0,0,0,0h0a.82.82,0,0,0-.45.16Z"/><path d="M20.69,23.93h0a1,1,0,0,0-.4-.12h0c.06,0,.38.06.41.12h0Z"/><path d="M19.71,24s-.05,0-.05,0h0c0-.06.3-.14.36-.14h0s0,0,0,0h0a.85.85,0,0,0-.35.13h0a1.52,1.52,0,0,0,.31-.11h0a0,0,0,0,1,0,0h0A2.29,2.29,0,0,1,19.71,24Z"/><path d="M20.61,24a1.19,1.19,0,0,1-.29-.11l0,0s0,0,0,0h0l0,0a1.23,1.23,0,0,0,.28.12l0,0s-.29-.13-.35-.13h0a0,0,0,0,1,0,0s0,0,0,0h0s.37.08.37.15S20.65,24,20.61,24Z"/><path class="cls-3" d="M20,23.85s0,0,0,0-.06-.1-.06-.17.16-.07.25-.08h0c.06,0,.08.27.08.3v0s-.21.05-.24.05-.06,0-.06-.06h0S20,23.86,20,23.85Z"/><path d="M20.07,24S20,24,20,23.88h0s0,0,0,0h0s0,0,0,0a.15.15,0,0,0,0-.08.14.14,0,0,1,0-.09c0-.08.12-.09.23-.09h0c.08,0,.09.31.09.31v0h0C20.32,23.94,20.13,24,20.07,24Zm.16-.38h0c-.09,0-.21,0-.21.07a.19.19,0,0,0,0,.08.13.13,0,0,1,0,.09s0,0,0,0h0a0,0,0,0,0,0,0h0s0,.05.05.05.23,0,.23,0h0v0C20.3,23.8,20.28,23.57,20.23,23.57Z"/><path class="cls-10" d="M19.36,24.18h0s-.07,0-.07.05,0,0,.06,0,.06,0,.06,0a.08.08,0,0,0,0-.05Z"/><path class="cls-10" d="M21,24.18s-.07,0-.07,0,.05.05.08.05.05,0,.05,0a.06.06,0,0,0-.06-.05Z"/><path class="cls-5" d="M18.9,22.87a.16.16,0,0,1-.08.12,0,0,0,0,1,0,0s0,0,0,0,0,0,0-.06l0-.1s0-.06,0-.09,0,0,0,.06l0-.07v0s.07-.11.11-.15h0v.15A.86.86,0,0,1,18.9,22.87Z"/><path class="cls-5" d="M18,22.48l.07.06a.67.67,0,0,1,.11.18s0,0,0,.06,0,0,0,0l0,0,0,0-.07-.11c-.05-.06-.12-.12-.17-.19h0l.07,0h0s.09,0,.13.07.05,0,.08.07a.15.15,0,0,1,0,.09s0,.1,0,.14l-.12-.2a.41.41,0,0,0-.05-.09A.11.11,0,0,0,18,22.48Z"/><path class="cls-5" d="M17.87,23a0,0,0,0,0,0,0H18a.1.1,0,0,0-.05.08s0,0,.06,0l.05-.05.07,0,.13,0L18.2,23a.5.5,0,0,1-.07.08s-.05,0-.08,0h-.12l-.14,0-.08,0,0,0h0s.08-.05.08-.06h0l.09-.05.09,0H18l.11,0h.06a.14.14,0,0,0,.09,0s0,0,0,0h-.08a1.57,1.57,0,0,1-.3.05h0Z"/><path class="cls-5" d="M18.22,22.87c-.07-.06-.09-.16-.15-.22a.35.35,0,0,0-.13-.08h-.18l-.18,0a.61.61,0,0,0,.13.22.38.38,0,0,1,.1.12l.16-.07h0v0a.12.12,0,0,0-.1,0l-.12,0h.13l-.12-.08.13.06v-.09s0,0,0,0v0a.12.12,0,0,0,0,.08l.08,0Z"/><path class="cls-11" d="M18.31,22.61s0,0,0,0h.06s0,0,0,0l0,0h0S18.32,22.6,18.31,22.61Z"/><path class="cls-11" d="M18.4,22.71a0,0,0,0,0,0,0h0s0-.07,0-.07S18.39,22.68,18.4,22.71Z"/><path class="cls-5" d="M17.6,22.7a.3.3,0,0,1-.15.05l-.08,0a.46.46,0,0,1-.16-.11.35.35,0,0,1-.05-.08.3.3,0,0,0,0-.08h0l.07,0a.21.21,0,0,0,.11,0h.1l.07,0,0,0,.06.09v0s0,0,0,0-.05,0-.07,0l0,0-.05-.06a.12.12,0,0,0,0,.08l-.13-.06a.24.24,0,0,0,.11.09.29.29,0,0,0,.13,0h0a0,0,0,0,1,0,0Z"/><path class="cls-5" d="M17.39,22.34h-.07a.3.3,0,0,1-.23-.09L17,22.16a.21.21,0,0,0-.1-.06s0,0,0,0h.25l.09,0a.45.45,0,0,1,.13.1.24.24,0,0,1,.07.16.54.54,0,0,0-.24-.21.14.14,0,0,0-.09,0s0,0,0,0l.09,0a.23.23,0,0,0-.11,0h.14s0,0,0,0l.09.08A.09.09,0,0,1,17.39,22.34Z"/><path class="cls-5" d="M17.69,22.4a.12.12,0,0,0-.06-.06.36.36,0,0,1-.14-.16.55.55,0,0,1,0-.18.65.65,0,0,1,0-.2l.13.11a.06.06,0,0,1,0,.08.3.3,0,0,0,0,.1s0,0,0,.05v0a0,0,0,0,0,0,0,.23.23,0,0,1-.05-.15.07.07,0,0,0,0-.05h0a.33.33,0,0,0,0,.17.76.76,0,0,0,.08.11S17.7,22.36,17.69,22.4Z"/><path class="cls-5" d="M17.74,22.37a.49.49,0,0,0-.06-.13.28.28,0,0,1,0-.13.29.29,0,0,1,0-.09.36.36,0,0,1,.11-.16.44.44,0,0,1,.15-.12.34.34,0,0,0,0,.2.5.5,0,0,1,0,.12.21.21,0,0,1-.05.13.54.54,0,0,1-.09.12v-.23a.14.14,0,0,1,0-.07l0-.09a.23.23,0,0,0-.06.12s0,0,0,0a0,0,0,0,0,0,0c0,.05,0,.1,0,.16a.43.43,0,0,0,0,.05v.19Z"/><path class="cls-5" d="M17.91,22.17a.19.19,0,0,0,0-.1l.14-.05a.59.59,0,0,1-.07.16.17.17,0,0,1-.14.08.18.18,0,0,1,.07-.08.11.11,0,0,0,.06-.09A.34.34,0,0,0,17.91,22.17Z"/><path class="cls-11" d="M16.81,21.88a.08.08,0,0,0,0,.05h0a.06.06,0,0,0,.06,0,.07.07,0,0,0,0-.1C16.83,21.8,16.81,21.85,16.81,21.88Z"/><path class="cls-11" d="M16.93,22a.07.07,0,0,0,0,.05.05.05,0,0,0,0,0h0A.05.05,0,0,0,17,22s0-.06-.05-.06S16.94,22,16.93,22Z"/><path class="cls-5" d="M16.81,21.56a.35.35,0,0,0-.16-.08h-.09l-.13,0,.05,0,.06.08a.27.27,0,0,0,.08.07h.25a.11.11,0,0,1,.08,0,.52.52,0,0,0-.13-.06.41.41,0,0,0-.19,0,0,0,0,0,1,0,0h.06l-.1,0,0,0v0h0l.21.07.1.05s0,0,0,0,0,0,0,0Z"/><path class="cls-11" d="M17,21.62h0s0,0,0,0a.09.09,0,0,0,0-.05,0,0,0,0,0,0,0h-.07s0,0,0,0l0,0h0Z"/><path class="cls-5" d="M17.28,21.69c0-.05-.05-.08-.07-.13a.11.11,0,0,0,0,0,.27.27,0,0,1,0-.09.35.35,0,0,1,0-.14l.07.11a.61.61,0,0,1,.05.12.51.51,0,0,1,0,.21,1.83,1.83,0,0,0-.07-.32C17.24,21.5,17.3,21.59,17.28,21.69Z"/><path class="cls-5" d="M17.42,21.71l.14-.12s0,0,0,0a0,0,0,0,0,0,0l0-.1,0-.18a.18.18,0,0,0-.1,0l-.08.06-.06,0a.2.2,0,0,0,0,.08.44.44,0,0,0,0,.23l.06-.09,0-.06,0,0s0-.08,0-.12h0s0,0,0,.05a.18.18,0,0,1,.06-.09l-.19.35h0Z"/><path class="cls-5" d="M17.69,21.42a.31.31,0,0,1,.19,0l-.13-.15,0,0a.08.08,0,0,0,0,.05.06.06,0,0,0,0,0l0,0s0,0,0,0Z"/><path class="cls-5" d="M17.32,21.18l.05,0a.25.25,0,0,0,.17,0s0,0,0,0,0,0,0,0-.06.06-.09,0l0,0,0-.06,0,0Z"/><path class="cls-5" d="M17.37,21.18h0a.42.42,0,0,1,.15,0h0l.08-.05a.37.37,0,0,0-.2-.05.49.49,0,0,1-.17,0h0l0,0,0,0Z"/><path class="cls-5" d="M17.42,21.73a.38.38,0,0,0,.11-.08l0,0s0,0,.05,0l.13-.07a.42.42,0,0,1,.15,0l-.1.17a.2.2,0,0,1-.09.11.16.16,0,0,1-.1,0l-.09,0h-.08l0,0a.23.23,0,0,1,.11,0l.1,0a.1.1,0,0,0,.06-.09.35.35,0,0,1-.11.1.13.13,0,0,0,0-.06s0,.05-.06.06-.05,0-.08,0S17.44,21.71,17.42,21.73Z"/><path class="cls-5" d="M17.09,21.49a1.17,1.17,0,0,1-.05-.2.35.35,0,0,0,0-.11.36.36,0,0,0-.07-.1.41.41,0,0,0-.19-.13,1,1,0,0,0,0,.24.31.31,0,0,0,.13.2.29.29,0,0,0,.13.05,3.9,3.9,0,0,1-.19-.35l.08.09a.06.06,0,0,0,0,0,.07.07,0,0,1,0-.05.68.68,0,0,1,0,.15.21.21,0,0,0,0,.06A1.18,1.18,0,0,1,17.09,21.49Z"/><path class="cls-5" d="M16.73,21.07a.36.36,0,0,0,0-.11l-.06-.08-.06-.05-.07,0-.24-.07a1.28,1.28,0,0,0,.16.28l0,0h0l.13,0s-.06-.07-.11-.07-.05,0-.06,0h.05a.52.52,0,0,1-.11-.1c.08,0,.13.1.2.14l.12.08Z"/><path class="cls-11" d="M17.14,21l0,0a0,0,0,0,0,0,0v0s0,0,0,0a0,0,0,0,1,.07,0A.06.06,0,0,1,17.14,21Z"/><path class="cls-11" d="M17.27,20.73a.07.07,0,0,0,0-.05s0,0-.05,0a0,0,0,0,0,0,.05.05.05,0,0,0,0,.05C17.25,20.83,17.28,20.77,17.27,20.73Z"/><path class="cls-5" d="M16.69,20.73h.09a.1.1,0,0,0,.07-.07.41.41,0,0,0-.22,0l0,0a.24.24,0,0,1-.14-.05.34.34,0,0,1,.14,0l.08,0h.11a.39.39,0,0,0-.25-.1h-.14s0,0,0,0h0a.46.46,0,0,1,.07.07.31.31,0,0,0,.11.09Z"/><path class="cls-5" d="M17,20.84a.08.08,0,0,0,0-.06.21.21,0,0,1,0-.06s0,0,0-.08,0-.07,0-.1l0-.11a.53.53,0,0,1,.08-.17l.08.21,0,.09a.28.28,0,0,1,0,.09.42.42,0,0,1-.09.19s0-.1,0-.14,0,0,0-.05,0,0,0,0a0,0,0,0,0,0-.05.09.09,0,0,0,0,.06v-.15h0a0,0,0,0,0,0,0s0,0,0,.06v.06a.65.65,0,0,1,0,.14v.05A.15.15,0,0,0,17,20.84Z"/><path class="cls-5" d="M17.38,20.77s0-.07,0-.11a.14.14,0,0,1,0-.06.32.32,0,0,1,.08-.12.29.29,0,0,1,.12-.1l.05.18v0a0,0,0,0,1,0,0,.27.27,0,0,0-.12.09.18.18,0,0,1,0-.1s0,0,0,0h0l0,0a1.21,1.21,0,0,0-.05.18s0,.09,0,.08,0,0,0,0A.08.08,0,0,0,17.38,20.77Z"/><path class="cls-5" d="M17.45,20.88s0-.08.05-.12a.27.27,0,0,1,.08-.1l.12-.07.2,0a.68.68,0,0,1-.13.27l-.1.09-.05,0h-.07a.29.29,0,0,0-.13,0l.26-.2,0,0h0s0,0,0,0l-.09.05,0-.07a0,0,0,0,0,0,0s0,0,0,.05a.1.1,0,0,1-.05,0Z"/><path class="cls-5" d="M18,20.86a.3.3,0,0,1-.21,0h0a.17.17,0,0,1-.11.09c.06,0,.12,0,.17,0h0a1.16,1.16,0,0,1-.37,0c.05,0,.09.06.15.08a.11.11,0,0,0,.08,0h.06a.18.18,0,0,0,.07,0l.08-.06A.22.22,0,0,1,18,20.86Z"/><path class="cls-5" d="M16.29,20.19a.41.41,0,0,0,.1.13s.05.06.08.07a.27.27,0,0,0,.12,0l.11,0h0l-.09-.07-.11,0-.14-.08.15.06v0a0,0,0,0,1,0,0s0,0,0,0h0s0,0,0,0h0a.05.05,0,0,1,.05,0l.06,0-.07-.08a.22.22,0,0,0-.09-.1c-.05,0-.1,0-.15,0l-.05,0s0,0-.05,0,0,0,0,0S16.28,20.17,16.29,20.19Z"/><path class="cls-5" d="M16.53,20.12a.4.4,0,0,1-.22-.22.37.37,0,0,1,0-.31,1.13,1.13,0,0,0,.1.13l.06.05a.22.22,0,0,1,.05.08.14.14,0,0,1,0,.06V20l0,.12a.31.31,0,0,1-.05-.1.36.36,0,0,1,0-.1s0,0,0,0h0a.13.13,0,0,0,0,.06.49.49,0,0,1-.06-.17s0,0,0,0a.26.26,0,0,0,.07.16A.51.51,0,0,1,16.53,20.12Z"/><path class="cls-5" d="M16.78,20.34a.27.27,0,0,0-.08-.07.31.31,0,0,1-.09-.22.51.51,0,0,1,0-.24.16.16,0,0,0,.06.08.42.42,0,0,1,.12.25.08.08,0,0,1,0,.07s0,.09,0,.13a.56.56,0,0,0,0-.12.14.14,0,0,1,0-.06s0,0,0,0a.09.09,0,0,0,0-.05h0l0,.05,0-.09s0-.05,0-.06S16.75,20.22,16.78,20.34Z"/><path class="cls-5" d="M16.94,20.07l-.05,0A.24.24,0,0,1,16.8,20s0,0,0-.06,0-.13,0-.2a.14.14,0,0,1,0-.06.21.21,0,0,0,.09.1.32.32,0,0,1,.08.31.22.22,0,0,0-.05-.08l0,0a0,0,0,0,1,0,0,.06.06,0,0,1,0,0s0,0,0,0h0v.06l0-.13h0s0,0,0,0a.61.61,0,0,0,.05.18Z"/><path class="cls-5" d="M17.42,19.67l-.21.1-.06.06s0,.05,0,.07l0,.11a.12.12,0,0,0,.09-.05.21.21,0,0,0,0-.11h0a0,0,0,0,1,0,0h0s0,.05,0,.06a.1.1,0,0,0,.05-.06s0,0,0,0,0,0,0,0l-.08.13a.2.2,0,0,1-.06.07l-.06,0-.06,0a.3.3,0,0,0,.19,0,.36.36,0,0,0,.1-.15A.34.34,0,0,0,17.42,19.67Z"/><path class="cls-5" d="M17.59,20a.15.15,0,0,1,.07,0,.17.17,0,0,1,.1,0l.1,0A.24.24,0,0,0,18,20l-.11.12a.53.53,0,0,1-.15.08h-.09a.47.47,0,0,1-.15-.06l-.06,0a3.49,3.49,0,0,0,.44-.05h-.09s0,0,0,0a.46.46,0,0,1-.23.05h-.07s0,0,0,0Z"/><path class="cls-5" d="M17.53,20.23h.29a.09.09,0,0,0-.06,0l.06,0a1,1,0,0,0,.16.06l-.14.06-.09,0h-.1l-.07,0A.12.12,0,0,1,17.53,20.23Z"/><path class="cls-5" d="M16.83,19.54a.4.4,0,0,1-.08-.26.75.75,0,0,1,0-.16s0,0,0,.06a.2.2,0,0,0,.08.08.26.26,0,0,1,.09.09.16.16,0,0,1,0,.13.29.29,0,0,1,0,.09.14.14,0,0,0,0,.09l0,0a1,1,0,0,1-.06-.16.28.28,0,0,0-.1-.14l.07.13h0s0,0,0,0l0,0a.21.21,0,0,1,0,.07s0,.05,0,.06-.05,0-.06,0Z"/><path class="cls-5" d="M17.13,19.61c.05-.08.06-.19.12-.27a.46.46,0,0,1,.17-.09l.12,0,0,.12a.61.61,0,0,1-.07.14l-.06.08a.48.48,0,0,1-.23.07.76.76,0,0,1,.09-.09l.05-.05h.05l.07-.08a0,0,0,0,0,0,0,0,0,0,0,0,0,0,1.22,1.22,0,0,1-.15.17l-.08.06S17.14,19.58,17.13,19.61Z"/><path class="cls-5" d="M17.56,19.5a.29.29,0,0,1,.07-.16c0-.05.1-.07.13-.12a1,1,0,0,1,0,.24,1.83,1.83,0,0,1,.3-.18,1.8,1.8,0,0,1,0,.19.42.42,0,0,1,0,.1l-.09.08a.29.29,0,0,1-.13.05.21.21,0,0,1,.15-.15h-.06a.2.2,0,0,0,.08-.12.44.44,0,0,0-.12.15,1.67,1.67,0,0,1-.12.16v-.09l-.12.09a.46.46,0,0,1,.07-.16.39.39,0,0,0,.06-.17l-.06.11s0,0,0-.05,0,.07,0,.11-.05.06-.05.09,0-.06,0-.08Z"/><path class="cls-5" d="M17.9,19.68a.26.26,0,0,0,.12-.11s0,0,0-.05a.12.12,0,0,1,.1,0l-.05.07a1.25,1.25,0,0,1-.09.12.38.38,0,0,1-.27.08h-.07s0,0,0,0A1.8,1.8,0,0,0,17.9,19.68Z"/><path class="cls-11" d="M17,19.18a.1.1,0,0,0,0,0s0,0,.06,0a.07.07,0,0,0,0-.05.06.06,0,0,0-.05-.06A.06.06,0,0,0,17,19.18Z"/><path class="cls-5" d="M17.12,19a.4.4,0,0,1,0-.24.88.88,0,0,1,.1-.22h0a2.21,2.21,0,0,0,.05.25.25.25,0,0,1,0,.07.27.27,0,0,1,0,.12.89.89,0,0,1-.08.17v-.2a.86.86,0,0,1,0-.16v0a0,0,0,0,0,0,0h0v.08h0s0,0,0,0,0,0,0,0v0a.28.28,0,0,1,0,.09V19s0,0,0,.05,0,0,0,0A.36.36,0,0,1,17.12,19Z"/><path class="cls-5" d="M17.35,18.91a.66.66,0,0,1,0-.14.23.23,0,0,1,.08-.11l.07,0a.58.58,0,0,1,.18-.08,1,1,0,0,1-.06.23.34.34,0,0,1-.1.16.51.51,0,0,1-.21.06c.06,0,.08-.11.13-.15l.05,0a.36.36,0,0,0,.08-.15.76.76,0,0,0-.08.11s0,0,0,0h0a0,0,0,0,0,0,0h0v0s0,0,0,0a0,0,0,0,1,0,0A.47.47,0,0,0,17.35,18.91Z"/><path class="cls-5" d="M17.54,19l.06-.05.07-.08.07-.07s0,0,0,0h0l-.06.06a.3.3,0,0,0,0-.1v0h0l.14,0-.05.1a.71.71,0,0,1-.1.14l-.08.06-.07,0H17.5s0,0,0,0Z"/><path class="cls-5" d="M18.58,23l0,0-.07-.06,0,0h-.11a.51.51,0,0,0,.09.27h.09L18.45,23a.1.1,0,0,1,0-.09.3.3,0,0,0,.1.14h0V23a.3.3,0,0,1,0,.1l.11,0Z"/><path class="cls-5" d="M18.71,23l0,0,0,0a.17.17,0,0,1,0-.07v-.14a.25.25,0,0,0-.05-.15,1,1,0,0,1,0,.17l-.06-.05a0,0,0,0,0,0,0l0,0a.05.05,0,0,1,0,0s0,0,0,.05,0,0,0,0l-.07,0s0-.05,0-.08a.29.29,0,0,1,0-.09.29.29,0,0,0,0-.09.83.83,0,0,0,0-.15h0a.58.58,0,0,1,.22.22h0s0,.08,0,.13A.25.25,0,0,1,18.71,23Z"/><path class="cls-9" d="M21.56,22.73l0-.09c0-.05,0-.1,0-.13a1.09,1.09,0,0,1-.07.24,1.51,1.51,0,0,1-.09.18s0,0,0,0,0,0,0,0a.93.93,0,0,1,.05-.1Z"/><path class="cls-9" d="M21.76,22.45a.34.34,0,0,1,0,.17l-.06.14,0,.07,0,0s0,0,0,0,0,0,0-.05l0-.07a1,1,0,0,1,.07-.15Z"/><path class="cls-9" d="M21.83,22.54v.09l0,.09a1.22,1.22,0,0,1-.07.17l0,.07s0,0,0,0,0,0,0,0l.09-.18Z"/><path class="cls-9" d="M22.2,22a1.31,1.31,0,0,1-.15.46l-.14.25-.09.12s-.07.1-.09.07,0-.05,0-.06l.05-.07a1.09,1.09,0,0,1,.08-.15l.16-.29c.05-.09.09-.19.14-.29Z"/><path class="cls-9" d="M22.08,22.67a2,2,0,0,0,.47-1.08,1,1,0,0,0,0-.24,1.28,1.28,0,0,1,0,.55,1.25,1.25,0,0,1-.12.34,2.85,2.85,0,0,1-.26.41A.07.07,0,0,1,22.08,22.67Z"/><path class="cls-9" d="M22.33,21.25s0,0,0,0h.05l0,0s0,0,0,.06a.49.49,0,0,1,0,.11,2.25,2.25,0,0,1,.08.24l.06.24.06.24h0a2.52,2.52,0,0,0-.19-.81h0l-.06-.1,0,0,0,0,0,0h0l0,.07v.09h0v.07s0-.05,0-.07a0,0,0,0,1,0,0,.06.06,0,0,1,0,0Z"/><path class="cls-9" d="M22.34,21a.94.94,0,0,1,.17-.31s0,0,0,0a.06.06,0,0,1,.07,0,.2.2,0,0,1,.08.15,4.68,4.68,0,0,1,.08.54c0,.12,0,.25,0,.38v.13a.88.88,0,0,0,0,.28,4.84,4.84,0,0,0,0-.85,1.49,1.49,0,0,0-.19-.69.09.09,0,0,0-.06-.06.08.08,0,0,0-.07,0l-.05.06A1.26,1.26,0,0,0,22.34,21Z"/><path class="cls-9" d="M22.53,20.8a.59.59,0,0,1,.06-.14l.05-.05s0,0,0,0a.08.08,0,0,1,.08,0,.2.2,0,0,1,0,.08,1.86,1.86,0,0,1,.11.58c0,.19,0,.39.05.58a1.14,1.14,0,0,0,0-.32l0-.33a3.55,3.55,0,0,0-.08-.47,1,1,0,0,0-.08-.18.2.2,0,0,0-.08-.08h0a.05.05,0,0,0,0,0A1.15,1.15,0,0,0,22.53,20.8Z"/><path class="cls-9" d="M23.11,20.64a.41.41,0,0,1,.08.27,2.17,2.17,0,0,0-.51-.69l0,0s0,0,0,0,0,0,.05,0l.12.1a1.2,1.2,0,0,1,.22.23Z"/><path class="cls-9" d="M22.65,19.94c.07.07.13.15.19.22s.11.13.15.2a.44.44,0,0,1,.06.25.81.81,0,0,1-.1-.21.85.85,0,0,0-.24-.32l-.14-.14-.08-.07s0,0-.06-.07h0l0,0,.06,0Z"/><path class="cls-9" d="M22.84,20l.07.11.12.23s0,.09.06.05a.06.06,0,0,0,0,0v0a1.59,1.59,0,0,0-.07-.2,1.46,1.46,0,0,0-.22-.35,3.82,3.82,0,0,0-.55-.51.05.05,0,0,0,0,0Z"/><path class="cls-9" d="M23.05,20.15a2.46,2.46,0,0,0-.34-.56.93.93,0,0,0-.13-.15c-.06-.07-.13-.12-.19-.19v0l.07.05a1.64,1.64,0,0,1,.3.29l.14.18a.76.76,0,0,1,.12.19A.49.49,0,0,1,23.05,20.15Z"/><path class="cls-9" d="M22.88,19.16l-.24-.07L22.42,19h0c0-.1-.17-.14-.25-.21l-.05-.06h0l0,0,.07.06.17.1.19.1A2.52,2.52,0,0,1,22.88,19.16Z"/><path class="cls-9" d="M22.49,19c.05.1.11.19.17.29l.07.11a.5.5,0,0,1-.12-.13,2.16,2.16,0,0,1-.18-.3.44.44,0,0,1-.06-.16.24.24,0,0,1,0-.08,0,0,0,0,0,0,0V18.6h0a0,0,0,0,1,0,0s0,0,0,0l0,.08,0,.09h0A.87.87,0,0,0,22.49,19Z"/><path class="cls-9" d="M22.88,19.17a.91.91,0,0,1-.23-.21l0,0,0-.06a1,1,0,0,1-.18-.41h0l0,.06.06.12a2.39,2.39,0,0,0,.13.21A1.89,1.89,0,0,0,22.88,19.17Z"/><path class="cls-9" d="M22.69,18.58a.88.88,0,0,1,.07.23l.06.28a.35.35,0,0,1-.06-.14,3.12,3.12,0,0,0-.17-.46,1.39,1.39,0,0,1-.06-.13l0,.05s0,0,0,0A.54.54,0,0,1,22.69,18.58Z"/><path class="cls-9" d="M22.93,19.2a.76.76,0,0,0,0,.26.84.84,0,0,0,.16.33v-.07a.64.64,0,0,1,0-.07.59.59,0,0,0,0-.13,2.72,2.72,0,0,1,0-.28A2.81,2.81,0,0,1,23,19a.13.13,0,0,0,0-.06s0-.06,0-.08h0a.1.1,0,0,0,0,.07c0,.1-.05.19-.07.28Z"/><path class="cls-9" d="M23.05,19.93a1.3,1.3,0,0,1,0-.44,1.5,1.5,0,0,1,.15-.42l.17-.34h0a.06.06,0,0,1,0,0s0,0,0,.05a1.07,1.07,0,0,0-.1.22c0,.09-.05.18-.08.28a3,3,0,0,0-.12.54A.09.09,0,0,1,23.05,19.93Z"/><path class="cls-9" d="M23.19,19.71a3.16,3.16,0,0,1,.47-.62v0s0,0,0,0l-.06.08a3.21,3.21,0,0,0-.19.31.56.56,0,0,0-.05.08s0,0,0,0l0,0-.08.17-.06.1s0,0,0,.05,0,0,0,0a.55.55,0,0,1,.1-.25Z"/><path class="cls-9" d="M23.77,19.23a2.75,2.75,0,0,0-.6.84.56.56,0,0,0-.06.21.45.45,0,0,0,.15-.21A4,4,0,0,1,23.77,19.23Z"/><path class="cls-9" d="M23.72,19.58a1.11,1.11,0,0,0-.31.48l-.11.24-.05.11s0,.08,0,.12a1,1,0,0,0,0,.3.55.55,0,0,0,.06-.18,3.51,3.51,0,0,1,.3-.73A1.86,1.86,0,0,1,23.72,19.58Z"/><path class="cls-9" d="M23.2,21.1s0-.07,0-.11a.34.34,0,0,1,0-.1,1.6,1.6,0,0,1,.05-.21,1.54,1.54,0,0,1,.08-.19c0-.06.06-.12.08-.18l.09-.21a4.19,4.19,0,0,1,.31-.5,7.27,7.27,0,0,0-.52,1.26C23.28,20.94,23.24,21,23.2,21.1Z"/><path class="cls-9" d="M23.39,20.53l.32-.41a1.57,1.57,0,0,1,.33-.3l.15-.09a6.46,6.46,0,0,0-.8,1,.63.63,0,0,1-.11.12A.76.76,0,0,1,23.39,20.53Z"/><path class="cls-9" d="M23.23,21l.35-.33a3.7,3.7,0,0,0,.33-.36l.13-.17a.78.78,0,0,1-.14.29c-.06.08-.14.15-.21.23l-.25.23a.59.59,0,0,1-.2.12h0Z"/><path class="cls-9" d="M23.21,21.48a4,4,0,0,1,.83-1,2,2,0,0,0-.49.47,3.59,3.59,0,0,0-.37.5,1.31,1.31,0,0,0-.18.5.52.52,0,0,0,.06-.13A2,2,0,0,1,23.21,21.48Z"/><path class="cls-9" d="M23.3,21.29v-.13a.36.36,0,0,0,0-.11.31.31,0,0,1,0,.12s0,.09,0,.13a1,1,0,0,1,0,.25s0,.05,0,0,0,0,0-.06a.8.8,0,0,0,0-.15A.28.28,0,0,1,23.3,21.29Z"/><path class="cls-9" d="M23,21.9a1.39,1.39,0,0,1,.56-.66l.29-.17L24,21l0,0,.06,0A.1.1,0,0,1,24,21c-.17.12-.34.25-.49.38A2.61,2.61,0,0,0,23,21.9Z"/><path class="cls-9" d="M23.14,21.76s0,0,0,0,0,0,0,0l.1,0,.16-.12.29-.21.14-.1.07-.05,0,0s0,0,0,0h0l0,0-.08,0-.13.07-.26.17-.25.19Z"/><path class="cls-9" d="M23.61,21.68a2.46,2.46,0,0,1,.63-.21,1,1,0,0,0-.39,0,2.78,2.78,0,0,0-.38.12,1.26,1.26,0,0,0-.26.13l-.13.1-.06.07s0,0,0,0l0,0c.12,0,.24-.1.36-.15Z"/><path class="cls-9" d="M23.83,21.69a1.19,1.19,0,0,0,.35-.39,6.39,6.39,0,0,1-1.33,1l-.27.16a.11.11,0,0,0-.07.06.22.22,0,0,0,.16,0l.15-.06a1.1,1.1,0,0,0,.21-.14c.07,0,.13-.1.2-.15l.4-.3Z"/><path class="cls-9" d="M24.11,21.75a2.27,2.27,0,0,1-.25.06l-.34.06-.29.05-.14,0H23a.06.06,0,0,1,0,0h.07l.12,0,.12,0,.49-.07Z"/><path class="cls-9" d="M23.05,22.11l.7-.21a1.42,1.42,0,0,1-.45.16,2.85,2.85,0,0,1-.39.11l-.11,0s0,0,0,0h.07Z"/><path class="cls-9" d="M24,22a3.29,3.29,0,0,1-.54.14l-.66.12s0,0-.05,0,0,0,0,0,0,0,.06,0l.13,0,.26-.05.26-.05L23.7,22,24,22Z"/><path class="cls-9" d="M22.53,22.56l.33-.09.56-.13a5.52,5.52,0,0,1-.53.18c-.11,0-.21.09-.32.12a1,1,0,0,1-.17,0h-.08l.05-.05Z"/><path class="cls-9" d="M22.43,22.66a3.68,3.68,0,0,1,.74,0l.06,0h-.87s0,0,0,0,0,0,0,0Z"/><path class="cls-9" d="M23,22.78a.07.07,0,0,1-.06,0h-.44l-.27,0h-.11s0,0,0,0l.07,0a1,1,0,0,1,.25,0h.25l.26,0Z"/><path class="cls-9" d="M21.93,22.94l.26,0,.26,0a2.85,2.85,0,0,1,.29,0,1.83,1.83,0,0,1-.47,0L22,23h-.2s0,0,0,0l0,0A.61.61,0,0,1,21.93,22.94Z"/><path class="cls-9" d="M23.09,21.79a.18.18,0,0,0-.07.05l-.06.08a.24.24,0,0,0-.06.08.5.5,0,0,1-.29.22h0s0,0,0,0a1.14,1.14,0,0,0,.49-.25.79.79,0,0,0,.12-.15s0-.05,0-.06l0,0Z"/><path d="M20.19,22.52l0,0a.37.37,0,0,0-.34-.21h-.57c-.36,0-.83-.08-.83-.83v-3L18,18h4.45l-.46.48v3a.73.73,0,0,1-.84.83h-.57a.37.37,0,0,0-.34.21ZM18,18l.43.44v3a.71.71,0,0,0,.81.81h.57a.43.43,0,0,1,.36.2.39.39,0,0,1,.35-.2h.57a.71.71,0,0,0,.81-.81v-3l.43-.44Z"/></g></g></svg>