<svg xmlns="http://www.w3.org/2000/svg" viewBox="0 0 40.5 40.5"><defs><style>.cls-1{fill:#006233;}.cls-2{fill:#fff;}.cls-3{fill:#d21034;}</style></defs><g id="Ebene_2" data-name="Ebene 2"><g id="Ńëîé_1" data-name="Ńëîé 1"><path class="cls-1" d="M20.25,0V40.5a20.25,20.25,0,0,1,0-40.5Z"/><path class="cls-2" d="M40.5,20.25A20.25,20.25,0,0,1,20.25,40.5V0A20.25,20.25,0,0,1,40.5,20.25Z"/><path class="cls-3" d="M22.56,28.29a8,8,0,1,1,6.31-13,10.1,10.1,0,1,0,0,10A8,8,0,0,1,22.56,28.29Z"/><polygon class="cls-3" points="25.67 15.62 25.67 19.14 29.02 20.22 25.67 21.31 25.67 24.83 23.6 21.98 20.25 23.07 22.32 20.22 20.25 17.38 23.6 18.46 25.67 15.62"/></g></g></svg>