<svg xmlns="http://www.w3.org/2000/svg" viewBox="0 0 40.5 40.5"><defs><style>.cls-1{fill:#ce1126;}.cls-2{fill:#fff;}.cls-3{fill:#c09300;}</style></defs><g id="Ebene_2" data-name="Ebene 2"><g id="Ńëîé_1" data-name="Ńëîé 1"><path class="cls-1" d="M39.34,13.5H1.16a20.25,20.25,0,0,1,38.18,0Z"/><path class="cls-2" d="M40.5,20.25A20,20,0,0,1,39.34,27H1.16a20.22,20.22,0,0,1,0-13.5H39.34A19.9,19.9,0,0,1,40.5,20.25Z"/><path d="M39.34,27A20.25,20.25,0,0,1,1.16,27Z"/><polygon class="cls-3" points="18.39 21.58 18.46 19.35 19.27 19.75 18.39 21.58"/><polygon class="cls-3" points="20.63 21.16 20.28 21.86 19.93 21.16 19.32 24.14 19.63 24.47 19.89 24.29 20.13 22.58 20.06 24.27 20.28 24.55 20.5 24.27 20.43 22.58 20.67 24.29 20.93 24.47 21.25 24.14 20.63 21.16"/><polygon class="cls-3" points="18.13 22.35 17.7 22.75 17.9 17.76 18.3 17.94 18.13 22.35"/><path class="cls-3" d="M25,24.77h0l-4.65-4.33-4.66,4.33s0,0,0,0a.05.05,0,0,1,0-.05c0-.07.33-7.16.33-7.7s.23-1,.61-1a2.8,2.8,0,0,1,1.46.48,2.55,2.55,0,0,0,1.17.28.05.05,0,0,1,0,0,0,0,0,0,1,0,0l-.06.09a.71.71,0,0,0,.34-.09h.06a.08.08,0,0,1,0,0V17a.8.8,0,0,0,.47-.25l0,0,0,0,.21.27.21-.27,0,0,0,0A.8.8,0,0,0,21,17v-.15a.05.05,0,0,1,0,0h.05a.78.78,0,0,0,.35.09l-.06-.09a0,0,0,0,1,0,0,.05.05,0,0,1,0,0,2.55,2.55,0,0,0,1.18-.28A2.77,2.77,0,0,1,24.07,16c.37.06.61.45.61,1s.33,7.63.33,7.7a.05.05,0,0,1,0,.05Zm-8.38-8.69h-.1c-.32.05-.52.4-.52.93s-.28,6.63-.33,7.58l4.6-4.28a.09.09,0,0,1,.07,0l4.6,4.28c0-1-.32-7.08-.32-7.58s-.2-.88-.53-.93a2.65,2.65,0,0,0-1.39.47,2.49,2.49,0,0,1-1.14.29l.06.1a0,0,0,0,1,0,.05.05.05,0,0,1,0,0,1,1,0,0,1-.41-.06v.12s0,0,0,.05h0a1.1,1.1,0,0,1-.56-.26l-.21.27a0,0,0,0,1-.08,0L20,16.88a1.05,1.05,0,0,1-.55.26h-.05a0,0,0,0,1,0-.05V17A1,1,0,0,1,19,17s0,0,0,0A0,0,0,0,1,19,17l.05-.1a2.43,2.43,0,0,1-1.13-.29A3.15,3.15,0,0,0,16.58,16.08Z"/><polygon class="cls-2" points="18.96 19.63 17.48 24.7 19.34 24.77 20.16 20.79 18.96 19.63"/><path class="cls-3" d="M19.34,24.82h0l-1.87-.07,0,0a0,0,0,0,1,0-.05l1.48-5.06s0,0,0,0,0,0,0,0l1.21,1.16s0,0,0,0l-.82,4S19.37,24.82,19.34,24.82Zm-1.8-.17,1.76.07.81-3.91L19,19.73Z"/><polygon class="cls-3" points="22.82 17.67 23.24 17.34 23.49 23.36 23.02 22.92 22.82 17.67"/><polygon class="cls-3" points="23.43 17.18 23.93 16.74 24.25 24.07 23.68 23.54 23.43 17.18"/><polygon class="cls-3" points="24.09 16.63 24.62 16.9 24.96 24.72 24.4 24.2 24.09 16.63"/><polygon class="cls-3" points="22.41 22.35 22.84 22.75 22.64 17.76 22.24 17.94 22.41 22.35"/><polygon class="cls-3" points="17.71 17.67 17.3 17.34 17.05 23.36 17.52 22.92 17.71 17.67"/><polygon class="cls-3" points="22.18 21.58 22.1 19.35 21.29 19.75 22.18 21.58"/><polygon class="cls-3" points="17.11 17.18 16.61 16.74 16.28 24.07 16.86 23.54 17.11 17.18"/><polygon class="cls-3" points="16.45 16.63 15.91 16.9 15.58 24.72 16.14 24.2 16.45 16.63"/><polygon class="cls-2" points="21.61 19.63 23.09 24.7 21.22 24.77 20.4 20.79 21.61 19.63"/><path class="cls-3" d="M21.22,24.82a.05.05,0,0,1,0,0l-.82-4s0,0,0,0l1.21-1.16s0,0,.05,0,0,0,0,0l1.48,5.06a0,0,0,0,1,0,.05l0,0-1.87.07Zm-.77-4,.81,3.91L23,24.65l-1.44-4.92Z"/><path class="cls-3" d="M21.53,24.73h0a.05.05,0,0,1,0-.07l.17-.48s0,0,0,0l.05,0,.29.38.46-1.64L22,22.45l-.16.48s0,0,0,0l0,0-.33-.4-.33,1.58s0,0-.06,0,0,0,0-.06l.34-1.68s0,0,0,0a0,0,0,0,1,0,0l.33.4.16-.47a0,0,0,0,1,0,0,0,0,0,0,1,.05,0l.55.53s0,0,0,0l-.5,1.77a0,0,0,0,1,0,0s0,0-.05,0l-.3-.38-.14.39A.05.05,0,0,1,21.53,24.73Z"/><path class="cls-3" d="M22.84,24.77s0,0,0,0l-.92-1.33-.18.5s0,0,0,0a.05.05,0,0,1-.05,0l-.87-1.25a0,0,0,0,1,0-.07,0,0,0,0,1,.07,0l.82,1.18.18-.5a.08.08,0,0,1,0,0,.05.05,0,0,1,.05,0l1,1.4a.06.06,0,0,1,0,.08Z"/><path class="cls-3" d="M20.78,22.7h0a.06.06,0,0,1,0-.07l.31-.86s0,0,0,0l.05,0,.25.28.14-1.58a.06.06,0,0,1,.06-.05s.05,0,0,.06l-.14,1.69a.1.1,0,0,1,0,.05s0,0-.05,0l-.28-.3-.27.79A.05.05,0,0,1,20.78,22.7Z"/><path class="cls-3" d="M21.08,21.83h0l-.45-.51a.06.06,0,0,1,0-.07,0,0,0,0,1,.07,0l.44.5a0,0,0,0,1,0,.07Z"/><path class="cls-3" d="M22,22h0s0,0,0-.06l.2-.44a0,0,0,0,1,.06,0,0,0,0,0,1,0,.06L22,22A.05.05,0,0,1,22,22Z"/><path class="cls-3" d="M19,24.73a.05.05,0,0,1-.05,0l-.14-.39-.3.38a0,0,0,0,1-.05,0,0,0,0,0,1,0,0L18,22.9a0,0,0,0,1,0,0l.55-.53a0,0,0,0,1,.05,0,0,0,0,0,1,0,0l.16.47.33-.4a0,0,0,0,1,.05,0,0,0,0,0,1,0,0l.35,1.68a.08.08,0,0,1,0,.06s-.06,0-.06,0l-.33-1.58-.32.4-.05,0a.08.08,0,0,1,0,0l-.16-.48-.47.45.46,1.64.3-.38,0,0s0,0,0,0l.18.48a.06.06,0,0,1,0,.07Z"/><path class="cls-3" d="M17.72,24.77h0a.06.06,0,0,1,0-.08l1-1.4a.05.05,0,0,1,.05,0s0,0,0,0l.18.5.82-1.18a0,0,0,0,1,.07,0,0,0,0,0,1,0,.07L19,23.93a.05.05,0,0,1-.05,0l0,0-.18-.5-.91,1.33S17.74,24.77,17.72,24.77Z"/><path class="cls-3" d="M19.78,22.7a.05.05,0,0,1-.05,0l-.27-.79-.27.3s0,0-.06,0a.05.05,0,0,1,0-.05L19,20.46a.07.07,0,0,1,0-.06.06.06,0,0,1,.06.05L19.19,22l.25-.28,0,0,0,0,.3.86a.06.06,0,0,1,0,.07Z"/><path class="cls-3" d="M19.48,21.83h0a0,0,0,0,1,0-.07l.44-.5a.05.05,0,0,1,.08.06l-.44.51Z"/><path class="cls-3" d="M18.59,22s0,0,0,0l-.19-.44a0,0,0,0,1,0-.06.07.07,0,0,1,.07,0l.18.43s0,0,0,.05S18.6,22,18.59,22Z"/><path class="cls-2" d="M24.25,25.32c-.23-.3-.4-.31-.4-.31v-.18l-.12-.25-.46.05s-2.23.31-3,.31-3-.31-3-.31l-.46-.05-.12.25V25s-.16,0-.4.31h-.15l.12.07s.07.36.25.42a1.57,1.57,0,0,0,.13.36,11.71,11.71,0,0,0,3.62.39,11.71,11.71,0,0,0,3.62-.39,1.16,1.16,0,0,0,.13-.36c.18-.06.25-.42.25-.42l.12-.07Z"/><path class="cls-3" d="M20.28,26.65c-1.55,0-3.55-.2-3.69-.44a1.49,1.49,0,0,1-.14-.33.75.75,0,0,1-.24-.44l-.09-.05a.08.08,0,0,1,0-.1.09.09,0,0,1,.08-.06h.11a.77.77,0,0,1,.36-.29v-.12s0,0,0,0l.12-.25a.08.08,0,0,1,.09,0l.46,0s2.24.31,3,.31,2.95-.31,3-.31l.46,0a.08.08,0,0,1,.09,0l.12.25s0,0,0,0v.12a1,1,0,0,1,.35.29h.11a.1.1,0,0,1,.09.06.09.09,0,0,1,0,.1l-.08.05a.83.83,0,0,1-.25.44,1.49,1.49,0,0,1-.14.33C23.83,26.45,21.84,26.65,20.28,26.65Zm-3.91-1.27c0,.11.09.32.19.35a.11.11,0,0,1,.06.07,1.06,1.06,0,0,0,.12.32,12.81,12.81,0,0,0,3.54.36,12.91,12.91,0,0,0,3.55-.36A1.52,1.52,0,0,0,24,25.8a.08.08,0,0,1,.05-.07c.1,0,.17-.24.19-.35h0c-.2-.25-.34-.27-.34-.27a.09.09,0,0,1-.07-.09l0-.16-.08-.17-.4,0c-.08,0-2.24.31-3,.31s-2.9-.3-3-.31l-.4,0-.08.17V25a.12.12,0,0,1-.09.09s-.13,0-.33.27Z"/><path class="cls-2" d="M22.27,17.9a3.26,3.26,0,0,1-2-.58,3.26,3.26,0,0,1-2,.58,5,5,0,0,0,2,4.17A5,5,0,0,0,22.27,17.9Z"/><path class="cls-3" d="M20.28,22.11h0a5.11,5.11,0,0,1-2-4.2l0,0h0a3.2,3.2,0,0,0,2-.57h0a3.13,3.13,0,0,0,2,.57s0,0,0,0l0,0a5.11,5.11,0,0,1-2,4.2Zm-2-4.16a5.05,5.05,0,0,0,2,4.07A5,5,0,0,0,22.23,18a3.31,3.31,0,0,1-1.95-.58A3.28,3.28,0,0,1,18.33,18Z"/><path class="cls-3" d="M20.93,21.27V17.88a2.77,2.77,0,0,0,1.16.19A4.67,4.67,0,0,1,20.93,21.27Z"/><path class="cls-3" d="M19.63,21.27V17.88a2.77,2.77,0,0,1-1.16.19A4.67,4.67,0,0,0,19.63,21.27Z"/><path class="cls-2" d="M17.07,24.32s-.44-.07-.35.51l.47-.22Z"/><path class="cls-3" d="M16.72,24.88h0s0,0,0,0a.55.55,0,0,1,.1-.48.4.4,0,0,1,.31-.09s0,0,0,0l.11.29a0,0,0,0,1,0,.06l-.47.22Zm.31-.51a.27.27,0,0,0-.19.07.4.4,0,0,0-.08.31l.36-.17L17,24.37Z"/><path class="cls-3" d="M20.28,21.9h0a4.68,4.68,0,0,1-1.83-3.83l0,0s0,0,0,0a3,3,0,0,0,1.78-.52,0,0,0,0,1,0,0,2.84,2.84,0,0,0,.64.34,2.75,2.75,0,0,0,1.13.18s0,0,0,0l0,0A4.76,4.76,0,0,1,21,21.3h0a4.61,4.61,0,0,1-.65.59Zm-1.77-3.79a4.58,4.58,0,0,0,1.77,3.69,3.31,3.31,0,0,0,.62-.56h0a4.64,4.64,0,0,0,1.15-3.13,2.69,2.69,0,0,1-1.13-.19,3.33,3.33,0,0,1-.64-.33A3,3,0,0,1,18.51,18.11Zm2.42,3.16h0Z"/><path class="cls-2" d="M19.93,24.71s.48,0,.12.58c0,0-.29-.35-.43-.38S19.93,24.71,19.93,24.71Z"/><path class="cls-3" d="M20.05,25.34a.05.05,0,0,1,0,0,1.4,1.4,0,0,0-.4-.36c-.06,0-.06-.05-.07-.06s0-.09.37-.24h0a.37.37,0,0,1,.27.17.53.53,0,0,1-.12.49.05.05,0,0,1,0,0Zm-.37-.46a1.59,1.59,0,0,1,.36.32c.09-.14.11-.25.07-.33a.21.21,0,0,0-.17-.11A1.62,1.62,0,0,0,19.68,24.88Z"/><path class="cls-2" d="M17.05,24.66a7.22,7.22,0,0,0,2.72.34s.36-.29,0-.42a6.75,6.75,0,0,1-2.6-.33S17,24.19,17.05,24.66Z"/><path class="cls-3" d="M19.43,25.06a7.21,7.21,0,0,1-2.4-.35l0,0c0-.23,0-.37.08-.44a.15.15,0,0,1,.13,0,6.87,6.87,0,0,0,2.58.33h0a.24.24,0,0,1,.17.18c0,.15-.16.31-.18.33h-.37Zm-2.33-.44a7.23,7.23,0,0,0,2.65.33c.05,0,.15-.15.13-.23s0-.06-.09-.09a7,7,0,0,1-2.61-.33h0S17.08,24.4,17.1,24.62Z"/><path class="cls-3" d="M17.54,24.58h0a2.32,2.32,0,0,0-.34-.12s-.05,0,0-.05a.05.05,0,0,1,.05-.05,2.33,2.33,0,0,1,.37.13,0,0,0,0,1,0,.06A.05.05,0,0,1,17.54,24.58Z"/><path class="cls-3" d="M18.12,24.74h0l-.39-.11s-.05,0,0-.06a.06.06,0,0,1,.06,0l.4.11a.05.05,0,0,1,0,.07S18.14,24.74,18.12,24.74Z"/><path class="cls-3" d="M19.11,24.83h-.4a0,0,0,0,1,0-.1h.4a.05.05,0,1,1,0,.1Z"/><path class="cls-3" d="M19.27,24.88s0,0-.05-.05a0,0,0,0,1,.05,0l.42,0a.05.05,0,0,1,0,0,0,0,0,0,1,0,.05l-.41,0Z"/><path class="cls-2" d="M18.43,24.64s-.43.14-.06.55v.15l.05-.16S18.85,24.89,18.43,24.64Z"/><path class="cls-3" d="M18.38,25.39h0s0,0-.05-.05v-.13a.46.46,0,0,1-.14-.39.34.34,0,0,1,.23-.23s0,0,0,0a.38.38,0,0,1,.22.29.48.48,0,0,1-.2.33l0,.14A0,0,0,0,1,18.38,25.39Zm0-.7a.26.26,0,0,0-.14.15.37.37,0,0,0,.12.3h0s.17-.12.17-.26A.28.28,0,0,0,18.42,24.69Z"/><path class="cls-2" d="M23.49,24.32s.44-.07.35.51l-.46-.22Z"/><path class="cls-3" d="M23.84,24.88h0l-.47-.22a0,0,0,0,1,0-.06l.11-.29,0,0a.39.39,0,0,1,.31.09.55.55,0,0,1,.1.48s0,0,0,0Zm-.4-.3.36.17a.4.4,0,0,0-.08-.31.25.25,0,0,0-.2-.07Z"/><path class="cls-2" d="M20.63,24.71s-.47,0-.12.58c0,0,.29-.35.43-.38S20.63,24.71,20.63,24.71Z"/><path class="cls-3" d="M20.51,25.34h0a.05.05,0,0,1,0,0c-.13-.21-.17-.37-.11-.49a.34.34,0,0,1,.27-.17h0c.38.15.37.2.37.24S21,25,21,25a1.4,1.4,0,0,0-.4.36A.05.05,0,0,1,20.51,25.34Zm.12-.58a.23.23,0,0,0-.18.11c0,.08,0,.19.07.33a1.59,1.59,0,0,1,.36-.32A2,2,0,0,0,20.63,24.76Z"/><path class="cls-2" d="M23.51,24.66A7.19,7.19,0,0,1,20.8,25s-.37-.29,0-.42a6.75,6.75,0,0,0,2.6-.33S23.56,24.19,23.51,24.66Z"/><path class="cls-3" d="M21.14,25.06h-.38s-.21-.18-.18-.33a.24.24,0,0,1,.17-.18h0a6.88,6.88,0,0,0,2.58-.33.13.13,0,0,1,.12,0c.08.07.1.21.08.44a.05.05,0,0,1,0,0A7.18,7.18,0,0,1,21.14,25.06ZM20.82,25a7.16,7.16,0,0,0,2.64-.33c0-.23,0-.29,0-.31h0a7.05,7.05,0,0,1-2.61.33.18.18,0,0,0-.1.09C20.67,24.8,20.77,24.91,20.82,25Zm2.69-.29Z"/><path class="cls-3" d="M23,24.58a.05.05,0,0,1-.05,0,0,0,0,0,1,0-.06,2.33,2.33,0,0,1,.37-.13.06.06,0,0,1,.06.05.05.05,0,0,1-.05.05,2.32,2.32,0,0,0-.34.12Z"/><path class="cls-3" d="M22.45,24.74s-.05,0-.05,0a.06.06,0,0,1,0-.07l.4-.11a.05.05,0,0,1,.06,0,0,0,0,0,1,0,.06l-.4.11Z"/><path class="cls-3" d="M21.86,24.83h-.41a.05.05,0,1,1,0-.1h.41a0,0,0,0,1,0,.1Z"/><path class="cls-3" d="M21.29,24.88h0l-.42,0a0,0,0,0,1-.05-.05.05.05,0,0,1,.05,0l.42,0a0,0,0,0,1,.05,0A.05.05,0,0,1,21.29,24.88Z"/><path class="cls-2" d="M22.13,24.64s.43.14.06.55v.15l-.05-.16S21.71,24.89,22.13,24.64Z"/><path class="cls-3" d="M22.18,25.39a.07.07,0,0,1-.05,0l0-.14a.48.48,0,0,1-.2-.33.38.38,0,0,1,.22-.29s0,0,0,0a.34.34,0,0,1,.23.23.43.43,0,0,1-.14.39v.13a0,0,0,0,1-.05.05Zm0-.7a.32.32,0,0,0-.15.19c0,.11.12.22.17.26h0a.37.37,0,0,0,.12-.3A.31.31,0,0,0,22.14,24.69Z"/><path class="cls-3" d="M20,14.68l-.29,0a.38.38,0,0,0-.61-.27.32.32,0,0,1,.55-.19,2.27,2.27,0,0,1,.38.36A0,0,0,0,1,20,14.68Z"/><path class="cls-3" d="M20,13.85a.12.12,0,0,0-.11.1s-.83-.28-.87.22c0,0,.17-.46.68,0a1.63,1.63,0,0,0,.42.27.1.1,0,0,0,.12,0,.59.59,0,0,1,.38-.15.68.68,0,0,1,.43.15C21,14.14,20.8,13.88,20,13.85Zm.19.44a.09.09,0,0,1-.09-.08.09.09,0,0,1,.18,0A.09.09,0,0,1,20.2,14.29Z"/><path class="cls-3" d="M21.43,16.85s0,0,0,0a3.57,3.57,0,0,1-.33-1.29v-.28a4.49,4.49,0,0,0,0-.81v0c-.05-.2-.21-.46-1-.49,0,0-.06,0-.06,0a.05.05,0,0,1,0,0h-.05s-.48-.15-.69,0a.24.24,0,0,0-.11.19.75.75,0,0,0,0,.2.48.48,0,0,1,.38,0,.51.51,0,0,1,.25.36,1.92,1.92,0,0,1,0,.38,3.28,3.28,0,0,1-.63,1.75,0,0,0,0,1-.07,0,0,0,0,0,1,0-.06,3.07,3.07,0,0,0,.62-1.7,1.61,1.61,0,0,0,0-.35c0-.16-.1-.26-.19-.29a.45.45,0,0,0-.35.05h0s0,0,0,0a.84.84,0,0,1-.05-.29.34.34,0,0,1,.15-.27,1.05,1.05,0,0,1,.74,0A.19.19,0,0,1,20,13.8c.86,0,1,.34,1.1.57v.05a4,4,0,0,1,0,.84v.27a3.81,3.81,0,0,0,.32,1.25.06.06,0,0,1,0,.07Z"/><path class="cls-3" d="M21.07,16.92l0,0a3.36,3.36,0,0,1-.35-1.46,0,0,0,0,1,.05,0h0a.05.05,0,0,1,.05,0,3.29,3.29,0,0,0,.34,1.41.07.07,0,0,1,0,.07Z"/><path class="cls-3" d="M20.52,16.85s-.05,0-.05,0a11.91,11.91,0,0,1-.06-1.42.05.05,0,0,1,.05-.05.06.06,0,0,1,.05.06,11.74,11.74,0,0,0,.06,1.4s0,.05,0,.05Z"/><path class="cls-3" d="M19.46,16.92l0,0a0,0,0,0,1,0-.07c.45-.32.51-1.45.51-1.47s0,0,0,0a0,0,0,0,1,.05,0c0,.05-.06,1.19-.55,1.54Z"/><path class="cls-3" d="M20,16.85h0a0,0,0,0,1,0-.06,5.16,5.16,0,0,0,.2-1.42,0,0,0,0,1,0,0s.05,0,.05,0a5.09,5.09,0,0,1-.21,1.46S20,16.85,20,16.85Z"/><path class="cls-3" d="M17.19,25.21a.06.06,0,0,1-.06.05.05.05,0,1,1,0-.1A.06.06,0,0,1,17.19,25.21Z"/><path class="cls-3" d="M17.21,25.77a.08.08,0,0,1-.08.07.07.07,0,0,1-.07-.07.08.08,0,0,1,.07-.08A.09.09,0,0,1,17.21,25.77Z"/><circle class="cls-3" cx="17.33" cy="25.81" r="0.07"/><path class="cls-3" d="M17.68,25.89a.08.08,0,0,1-.07.08.09.09,0,0,1-.08-.08.08.08,0,0,1,.08-.07A.07.07,0,0,1,17.68,25.89Z"/><path class="cls-3" d="M17.86,25.42l-.12.09.05,0,0,.14-.2,0,.07-.28c0-.11-.08,0-.08,0l-.11.07.05,0-.05.16-.14,0,.15-.54c0-.12-.1,0-.1,0a.72.72,0,0,0-.21,0c-.09,0,0,.09,0,.1s.14,0,.12,0a.06.06,0,0,1,.08,0l-.08.28c-.29,0-.26.25-.26.25l.87.22s.07-.29.08-.38S17.86,25.42,17.86,25.42Zm-.71.12a.06.06,0,0,1,0-.06.05.05,0,0,1,0-.05.06.06,0,1,1,0,.11Z"/><path class="cls-3" d="M18.85,25.38h0l0,.5c-.06.34-.1,0-.1,0a.11.11,0,0,1-.13-.1c.34,0,0-.22,0-.22,0-.36-.28,0-.28,0s-.18.12-.08.13.07.08.07.08a.18.18,0,0,1-.22,0l0-.19c0-.12-.1,0-.1,0s0,.11,0,.11c0,.31-.19.2-.22.25s0,.08.18.08.14-.11.14-.11a.26.26,0,0,1,.18,0,.09.09,0,0,0,.11,0c.1-.25.1,0,.1,0h.14s0,.21.14.23A.18.18,0,0,0,19,26l.06-.76Zm-.33.3a.06.06,0,1,1,.06-.06A.06.06,0,0,1,18.52,25.68Z"/><path class="cls-3" d="M19,26l.08-.71.17.12h-.07l-.06.6A.07.07,0,0,1,19,26Z"/><path class="cls-3" d="M20.4,26h-.08a.33.33,0,0,0-.05-.2h-.52c0-.2-.14-.13-.14-.13l-.06.11h.06v.17c-.08.12-.15,0-.15,0v-.09s0-.18-.13,0,0,.1,0,.1c0,.32-.24.31-.24.31s0,.06.18.06.18-.2.18-.2H20c.14.4.31,0,.31,0h.3a.06.06,0,0,0,.05-.06v-.25a0,0,0,0,0,0,0A.23.23,0,0,0,20.4,26Zm-.16.1s-.1.15-.11-.06c0,0,0,0,0,0h-.33s-.13,0,0-.1h.45S20.25,25.91,20.24,26.07Zm.32-.09a.06.06,0,0,1-.06-.06.06.06,0,0,1,.06-.05,0,0,0,0,1,.05.05A.06.06,0,0,1,20.56,26Z"/><circle class="cls-3" cx="20.86" cy="25.48" r="0.06"/><path class="cls-3" d="M20.93,25.67a.06.06,0,0,1-.08,0s-.05,0,0-.07a.06.06,0,0,1,.07,0S20.93,25.63,20.93,25.67Z"/><path class="cls-3" d="M23.45,25.85a.06.06,0,0,1-.08,0,.07.07,0,0,1-.05-.08.08.08,0,0,1,.08-.06A.07.07,0,0,1,23.45,25.85Z"/><path class="cls-3" d="M21.15,26.19a.1.1,0,0,1-.09.08.07.07,0,0,1,0-.14S21.15,26.16,21.15,26.19Z"/><path class="cls-3" d="M21.31,26.18a.07.07,0,0,1-.07.07s-.09,0-.09-.06a.1.1,0,0,1,.09-.08A.08.08,0,0,1,21.31,26.18Z"/><path class="cls-3" d="M21.35,25.69c-.12.07,0,.09,0,.09s0,.17,0,.17h-.18l0-.48s0-.17-.1-.1,0,.11,0,.11v.3c-.18,0-.14.29-.14.29h.57v-.3S21.47,25.61,21.35,25.69ZM21,26a0,0,0,1,1,.05,0A0,0,0,0,1,21,26Z"/><path class="cls-3" d="M21.47,26.17s.36-.15.08-.32c0,0,0-.34.16-.1a.31.31,0,0,1,0,.42S21.44,26.26,21.47,26.17Z"/><path class="cls-3" d="M23.45,25.55c-.14.13-.18-.09-.18-.09a.65.65,0,0,0-.07-.34c-.08-.17-.25-.1-.32-.06s0,.15.05.12c.21-.14.22.1.22.21a.91.91,0,0,0,.05.25h-.08c-.2-.21-.31.1-.31.1h-.07a.21.21,0,0,0-.24-.2l0-.08s0-.15-.12-.08,0,.11,0,.11v.08c-.18,0-.16.25-.16.25s-.07,0-.07,0,0-.17-.09-.17a.2.2,0,0,0-.11.06c-.3.3,0,.25,0,.25.17.06-.07.12-.1.15s0,.05,0,.05.18,0,.22-.08a.2.2,0,0,0,0-.13.7.7,0,0,1,.29,0c.26.42.32-.1.32-.1h.09c.16.25.32-.06.32-.06s.21-.1.28-.07.2,0,.19-.06S23.53,25.49,23.45,25.55ZM22,25.87a0,0,0,0,1,0-.05.05.05,0,0,1,.1,0A0,0,0,0,1,22,25.87Zm.38-.06a.06.06,0,0,1-.05-.06,0,0,0,0,1,.05-.05.06.06,0,0,1,.06.05A.06.06,0,0,1,22.37,25.81Zm.14-.09a.06.06,0,0,1,.06,0,0,0,0,0,1,.05,0,.06.06,0,0,1-.05.06A.06.06,0,0,1,22.51,25.72Zm.11.25a.06.06,0,0,1-.05-.06.05.05,0,0,1,.1,0A.06.06,0,0,1,22.62,26Zm.38-.19a.06.06,0,0,1-.06-.06.06.06,0,0,1,.06,0,0,0,0,0,1,.05,0A.06.06,0,0,1,23,25.78Z"/><path class="cls-3" d="M18.6,22a.05.05,0,0,1,0,0,0,0,0,0,1,0-.07l.8-.71a0,0,0,0,1,.07,0,0,0,0,0,1,0,.07l-.79.71Z"/><path class="cls-3" d="M22,22a.05.05,0,0,1,0,0l-.79-.7a0,0,0,0,1,0-.07,0,0,0,0,1,.07,0l.79.71A0,0,0,0,1,22,22Z"/></g></g></svg>