<svg viewBox="0 0 40.5 40.5" xmlns="http://www.w3.org/2000/svg"><path d="m39.34 13.5h-38.18a20.25 20.25 0 0 1 38.18 0z" fill="#ce1126"/><path d="m40.5 20.25a20 20 0 0 1 -1.16 6.75h-38.18a20.22 20.22 0 0 1 0-13.5h38.18a19.9 19.9 0 0 1 1.16 6.75z" fill="#fff"/><path d="m39.34 27a20.25 20.25 0 0 1 -38.18 0z"/><path d="m18.39 21.58.07-2.23.81.4z" fill="#c09300"/><path d="m20.63 21.16-.35.7-.35-.7-.61 2.98.31.33.26-.18.24-1.71-.07 1.69.22.28.22-.28-.07-1.69.24 1.71.26.18.32-.33z" fill="#c09300"/><path d="m18.13 22.35-.43.4.2-4.99.4.18z" fill="#c09300"/><path d="m25 24.77-4.65-4.33-4.66 4.33s0 0 0 0a.05.05 0 0 1 0-.05c0-.07.33-7.16.33-7.7s.23-1 .61-1a2.8 2.8 0 0 1 1.46.48 2.55 2.55 0 0 0 1.17.28.05.05 0 0 1 0 0 0 0 0 0 1 0 0l-.06.09a.71.71 0 0 0 .34-.09h.06a.08.08 0 0 1 0 0v.22a.8.8 0 0 0 .47-.25l.21.27.21-.27a.8.8 0 0 0 .51.25v-.15a.05.05 0 0 1 0 0h.05a.78.78 0 0 0 .35.09l-.06-.09a0 0 0 0 1 0 0 .05.05 0 0 1 0 0 2.55 2.55 0 0 0 1.18-.28 2.77 2.77 0 0 1 1.55-.57c.37.06.61.45.61 1s.33 7.63.33 7.7a.05.05 0 0 1 0 .05zm-8.38-8.69h-.1c-.32.05-.52.4-.52.93s-.28 6.63-.33 7.58l4.6-4.28a.09.09 0 0 1 .07 0l4.6 4.28c0-1-.32-7.08-.32-7.58s-.2-.88-.53-.93a2.65 2.65 0 0 0 -1.39.47 2.49 2.49 0 0 1 -1.14.29l.06.1a0 0 0 0 1 0 .05.05.05 0 0 1 0 0 1 1 0 0 1 -.41-.06v.12s0 0 0 .05a1.1 1.1 0 0 1 -.56-.26l-.21.27a0 0 0 0 1 -.08 0l-.36-.23a1.05 1.05 0 0 1 -.55.26h-.05a0 0 0 0 1 0-.05v-.09a1 1 0 0 1 -.4 0s0 0 0 0a0 0 0 0 1 0 0l.05-.1a2.43 2.43 0 0 1 -1.13-.29 3.15 3.15 0 0 0 -1.34-.53z" fill="#c09300"/><path d="m18.96 19.63-1.48 5.07 1.86.07.82-3.98z" fill="#fff"/><path d="m19.34 24.82-1.87-.07a0 0 0 0 1 0-.05l1.48-5.06s0 0 0 0l1.21 1.16s0 0 0 0l-.82 4s.03.02 0 .02zm-1.8-.17 1.76.07.81-3.91-1.11-1.08z" fill="#c09300"/><path d="m22.82 17.67.42-.33.25 6.02-.47-.44z" fill="#c09300"/><path d="m23.43 17.18.5-.44.32 7.33-.57-.53z" fill="#c09300"/><path d="m24.09 16.63.53.27.34 7.82-.56-.52z" fill="#c09300"/><path d="m22.41 22.35.43.4-.2-4.99-.4.18z" fill="#c09300"/><path d="m17.71 17.67-.41-.33-.25 6.02.47-.44z" fill="#c09300"/><path d="m22.18 21.58-.08-2.23-.81.4z" fill="#c09300"/><path d="m17.11 17.18-.5-.44-.33 7.33.58-.53z" fill="#c09300"/><path d="m16.45 16.63-.54.27-.33 7.82.56-.52z" fill="#c09300"/><path d="m21.61 19.63 1.48 5.07-1.87.07-.82-3.98z" fill="#fff"/><path d="m21.22 24.82a.05.05 0 0 1 0 0l-.82-4s0 0 0 0l1.21-1.16s0 0 .05 0 0 0 0 0l1.48 5.06a0 0 0 0 1 0 .05l-1.87.07zm-.77-4 .81 3.91 1.74-.08-1.44-4.92z" fill="#c09300"/><path d="m21.53 24.73a.05.05 0 0 1 0-.07l.17-.48s0 0 0 0h.05l.29.38.46-1.64-.5-.47-.16.48s0 0 0 0l-.33-.4-.33 1.58s0 0-.06 0 0 0 0-.06l.34-1.68s0 0 0 0a0 0 0 0 1 0 0l.33.4.16-.47a0 0 0 0 1 0 0 0 0 0 0 1 .05 0l.55.53s0 0 0 0l-.5 1.77a0 0 0 0 1 0 0s0 0-.05 0l-.3-.38-.14.39a.05.05 0 0 1 -.03.12z" fill="#c09300"/><path d="m22.84 24.77s0 0 0 0l-.92-1.33-.18.5s0 0 0 0a.05.05 0 0 1 -.05 0l-.87-1.25a0 0 0 0 1 0-.07 0 0 0 0 1 .07 0l.82 1.18.18-.5a.08.08 0 0 1 0 0 .05.05 0 0 1 .05 0l1 1.4a.06.06 0 0 1 0 .08z" fill="#c09300"/><path d="m20.78 22.7a.06.06 0 0 1 0-.07l.31-.86s0 0 0 0h.05l.25.28.14-1.58a.06.06 0 0 1 .06-.05s.05 0 0 .06l-.14 1.69a.1.1 0 0 1 0 .05s0 0-.05 0l-.28-.3-.27.79a.05.05 0 0 1 -.07-.01z" fill="#c09300"/><path d="m21.08 21.83-.45-.51a.06.06 0 0 1 0-.07 0 0 0 0 1 .07 0l.44.5a0 0 0 0 1 0 .07z" fill="#c09300"/><path d="m22 22s0 0 0-.06l.2-.44a0 0 0 0 1 .06 0 0 0 0 0 1 0 .06l-.26.44a.05.05 0 0 1 0 0z" fill="#c09300"/><path d="m19 24.73a.05.05 0 0 1 -.05 0l-.14-.39-.3.38a0 0 0 0 1 -.05 0l-.46-1.82a0 0 0 0 1 0 0l.55-.53a0 0 0 0 1 .05 0l.16.47.33-.4a0 0 0 0 1 .05 0l.35 1.68a.08.08 0 0 1 0 .06s-.06 0-.06 0l-.33-1.58-.32.4h-.05a.08.08 0 0 1 0 0l-.16-.48-.47.45.46 1.64.3-.38s0 0 0 0l.18.48a.06.06 0 0 1 0 .07z" fill="#c09300"/><path d="m17.72 24.77a.06.06 0 0 1 0-.08l1-1.4a.05.05 0 0 1 .05 0s0 0 0 0l.18.5.82-1.18a0 0 0 0 1 .07 0 0 0 0 0 1 0 .07l-.84 1.25a.05.05 0 0 1 -.05 0l-.18-.5-.91 1.33s-.12.01-.14.01z" fill="#c09300"/><path d="m19.78 22.7a.05.05 0 0 1 -.05 0l-.27-.79-.27.3s0 0-.06 0a.05.05 0 0 1 0-.05l-.13-1.7a.07.07 0 0 1 0-.06.06.06 0 0 1 .06.05l.13 1.55.25-.28.3.86a.06.06 0 0 1 0 .07z" fill="#c09300"/><path d="m19.48 21.83a0 0 0 0 1 0-.07l.44-.5a.05.05 0 0 1 .08.06l-.44.51z" fill="#c09300"/><path d="m18.59 22s0 0 0 0l-.19-.44a0 0 0 0 1 0-.06.07.07 0 0 1 .07 0l.18.43s0 0 0 .05-.05.02-.06.02z" fill="#c09300"/><path d="m24.25 25.32c-.23-.3-.4-.31-.4-.31v-.18l-.12-.25-.46.05s-2.23.31-3 .31-3-.31-3-.31l-.46-.05-.12.25v.17s-.16 0-.4.31h-.15l.12.07s.07.36.25.42a1.57 1.57 0 0 0 .13.36 11.71 11.71 0 0 0 3.62.39 11.71 11.71 0 0 0 3.62-.39 1.16 1.16 0 0 0 .13-.36c.18-.06.25-.42.25-.42l.12-.07z" fill="#fff"/><path d="m20.28 26.65c-1.55 0-3.55-.2-3.69-.44a1.49 1.49 0 0 1 -.14-.33.75.75 0 0 1 -.24-.44l-.09-.05a.08.08 0 0 1 0-.1.09.09 0 0 1 .08-.06h.11a.77.77 0 0 1 .36-.29v-.12s0 0 0 0l.12-.25a.08.08 0 0 1 .09 0h.46s2.24.31 3 .31 2.95-.31 3-.31h.46a.08.08 0 0 1 .09 0l.12.25s0 0 0 0v.12a1 1 0 0 1 .35.29h.11a.1.1 0 0 1 .09.06.09.09 0 0 1 0 .1l-.08.05a.83.83 0 0 1 -.25.44 1.49 1.49 0 0 1 -.14.33c-.26.24-2.25.44-3.81.44zm-3.91-1.27c0 .11.09.32.19.35a.11.11 0 0 1 .06.07 1.06 1.06 0 0 0 .12.32 12.81 12.81 0 0 0 3.54.36 12.91 12.91 0 0 0 3.55-.36 1.52 1.52 0 0 0 .17-.32.08.08 0 0 1 .05-.07c.1 0 .17-.24.19-.35-.2-.25-.34-.27-.34-.27a.09.09 0 0 1 -.07-.09v-.16l-.08-.17h-.4c-.08 0-2.24.31-3 .31s-2.9-.3-3-.31h-.4l-.08.17v.14a.12.12 0 0 1 -.09.09s-.13 0-.33.27z" fill="#c09300"/><path d="m22.27 17.9a3.26 3.26 0 0 1 -2-.58 3.26 3.26 0 0 1 -2 .58 5 5 0 0 0 2 4.17 5 5 0 0 0 2-4.17z" fill="#fff"/><path d="m20.28 22.11a5.11 5.11 0 0 1 -2-4.2 3.2 3.2 0 0 0 2-.57 3.13 3.13 0 0 0 2 .57s0 0 0 0a5.11 5.11 0 0 1 -2 4.2zm-2-4.16a5.05 5.05 0 0 0 2 4.07 5 5 0 0 0 1.95-4.02 3.31 3.31 0 0 1 -1.95-.58 3.28 3.28 0 0 1 -1.95.58z" fill="#c09300"/><path d="m20.93 21.27v-3.39a2.77 2.77 0 0 0 1.16.19 4.67 4.67 0 0 1 -1.16 3.2z" fill="#c09300"/><path d="m19.63 21.27v-3.39a2.77 2.77 0 0 1 -1.16.19 4.67 4.67 0 0 0 1.16 3.2z" fill="#c09300"/><path d="m17.07 24.32s-.44-.07-.35.51l.47-.22z" fill="#fff"/><path d="m16.72 24.88s0 0 0 0a.55.55 0 0 1 .1-.48.4.4 0 0 1 .31-.09s0 0 0 0l.11.29a0 0 0 0 1 0 .06l-.47.22zm.31-.51a.27.27 0 0 0 -.19.07.4.4 0 0 0 -.08.31l.36-.17-.12-.21z" fill="#c09300"/><path d="m20.28 21.9a4.68 4.68 0 0 1 -1.83-3.83s0 0 0 0a3 3 0 0 0 1.78-.52 0 0 0 0 1 0 0 2.84 2.84 0 0 0 .64.34 2.75 2.75 0 0 0 1.13.18s0 0 0 0a4.76 4.76 0 0 1 -1 3.23 4.61 4.61 0 0 1 -.65.59zm-1.77-3.79a4.58 4.58 0 0 0 1.77 3.69 3.31 3.31 0 0 0 .62-.56 4.64 4.64 0 0 0 1.15-3.13 2.69 2.69 0 0 1 -1.13-.19 3.33 3.33 0 0 1 -.64-.33 3 3 0 0 1 -1.77.52z" fill="#c09300"/><path d="m19.93 24.71s.48 0 .12.58c0 0-.29-.35-.43-.38s.31-.2.31-.2z" fill="#fff"/><path d="m20.05 25.34a.05.05 0 0 1 0 0 1.4 1.4 0 0 0 -.4-.36c-.06 0-.06-.05-.07-.06s0-.09.37-.24a.37.37 0 0 1 .27.17.53.53 0 0 1 -.12.49.05.05 0 0 1 0 0zm-.37-.46a1.59 1.59 0 0 1 .36.32c.09-.14.11-.25.07-.33a.21.21 0 0 0 -.17-.11 1.62 1.62 0 0 0 -.26.12z" fill="#c09300"/><path d="m17.05 24.66a7.22 7.22 0 0 0 2.72.34s.36-.29 0-.42a6.75 6.75 0 0 1 -2.6-.33s-.17-.06-.12.41z" fill="#fff"/><path d="m19.43 25.06a7.21 7.21 0 0 1 -2.4-.35c0-.23 0-.37.08-.44a.15.15 0 0 1 .13 0 6.87 6.87 0 0 0 2.58.33.24.24 0 0 1 .17.18c0 .15-.16.31-.18.33h-.37zm-2.33-.44a7.23 7.23 0 0 0 2.65.33c.05 0 .15-.15.13-.23s0-.06-.09-.09a7 7 0 0 1 -2.61-.33s-.1.1-.08.32z" fill="#c09300"/><path d="m17.54 24.58a2.32 2.32 0 0 0 -.34-.12s-.05 0 0-.05a.05.05 0 0 1 .05-.05 2.33 2.33 0 0 1 .37.13 0 0 0 0 1 0 .06.05.05 0 0 1 -.08.03z" fill="#c09300"/><path d="m18.12 24.74-.39-.11s-.05 0 0-.06a.06.06 0 0 1 .06 0l.4.11a.05.05 0 0 1 0 .07s-.05-.01-.07-.01z" fill="#c09300"/><path d="m19.11 24.83h-.4a0 0 0 0 1 0-.1h.4a.05.05 0 1 1 0 .1z" fill="#c09300"/><path d="m19.27 24.88s0 0-.05-.05a0 0 0 0 1 .05 0h.42a.05.05 0 0 1 0 0 0 0 0 0 1 0 .05h-.41z" fill="#c09300"/><path d="m18.43 24.64s-.43.14-.06.55v.15l.05-.16s.43-.29.01-.54z" fill="#fff"/><path d="m18.38 25.39s0 0-.05-.05v-.13a.46.46 0 0 1 -.14-.39.34.34 0 0 1 .23-.23s0 0 0 0a.38.38 0 0 1 .22.29.48.48 0 0 1 -.2.33v.14a0 0 0 0 1 -.06.04zm0-.7a.26.26 0 0 0 -.14.15.37.37 0 0 0 .12.3s.17-.12.17-.26a.28.28 0 0 0 -.11-.19z" fill="#c09300"/><path d="m23.49 24.32s.44-.07.35.51l-.46-.22z" fill="#fff"/><path d="m23.84 24.88-.47-.22a0 0 0 0 1 0-.06l.11-.29a.39.39 0 0 1 .31.09.55.55 0 0 1 .1.48s0 0 0 0zm-.4-.3.36.17a.4.4 0 0 0 -.08-.31.25.25 0 0 0 -.2-.07z" fill="#c09300"/><path d="m20.63 24.71s-.47 0-.12.58c0 0 .29-.35.43-.38s-.31-.2-.31-.2z" fill="#fff"/><path d="m20.51 25.34a.05.05 0 0 1 0 0c-.13-.21-.17-.37-.11-.49a.34.34 0 0 1 .27-.17c.38.15.37.2.37.24s-.04.08-.04.08a1.4 1.4 0 0 0 -.4.36.05.05 0 0 1 -.09-.02zm.12-.58a.23.23 0 0 0 -.18.11c0 .08 0 .19.07.33a1.59 1.59 0 0 1 .36-.32 2 2 0 0 0 -.25-.12z" fill="#c09300"/><path d="m23.51 24.66a7.19 7.19 0 0 1 -2.71.34s-.37-.29 0-.42a6.75 6.75 0 0 0 2.6-.33s.16-.06.11.41z" fill="#fff"/><path d="m21.14 25.06h-.38s-.21-.18-.18-.33a.24.24 0 0 1 .17-.18 6.88 6.88 0 0 0 2.58-.33.13.13 0 0 1 .12 0c.08.07.1.21.08.44a.05.05 0 0 1 0 0 7.18 7.18 0 0 1 -2.39.4zm-.32-.06a7.16 7.16 0 0 0 2.64-.33c0-.23 0-.29 0-.31a7.05 7.05 0 0 1 -2.61.33.18.18 0 0 0 -.1.09c-.08.02.02.13.07.22z" fill="#c09300"/><path d="m23 24.58a.05.05 0 0 1 -.05 0 0 0 0 0 1 0-.06 2.33 2.33 0 0 1 .37-.13.06.06 0 0 1 .06.05.05.05 0 0 1 -.05.05 2.32 2.32 0 0 0 -.34.12z" fill="#c09300"/><path d="m22.45 24.74s-.05 0-.05 0a.06.06 0 0 1 0-.07l.4-.11a.05.05 0 0 1 .06 0 0 0 0 0 1 0 .06l-.4.11z" fill="#c09300"/><path d="m21.86 24.83h-.41a.05.05 0 1 1 0-.1h.41a0 0 0 0 1 0 .1z" fill="#c09300"/><path d="m21.29 24.88h-.42a0 0 0 0 1 -.05-.05.05.05 0 0 1 .05 0h.42a0 0 0 0 1 .05 0 .05.05 0 0 1 -.05.05z" fill="#c09300"/><path d="m22.13 24.64s.43.14.06.55v.15l-.05-.16s-.43-.29-.01-.54z" fill="#fff"/><g fill="#c09300"><path d="m22.18 25.39a.07.07 0 0 1 -.05 0v-.14a.48.48 0 0 1 -.2-.33.38.38 0 0 1 .22-.29s0 0 0 0a.34.34 0 0 1 .23.23.43.43 0 0 1 -.14.39v.13a0 0 0 0 1 -.05.05zm0-.7a.32.32 0 0 0 -.15.19c0 .11.12.22.17.26a.37.37 0 0 0 .12-.3.31.31 0 0 0 -.18-.15z"/><path d="m20 14.68h-.29a.38.38 0 0 0 -.61-.27.32.32 0 0 1 .55-.19 2.27 2.27 0 0 1 .38.36 0 0 0 0 1 -.03.1z"/><path d="m20 13.85a.12.12 0 0 0 -.11.1s-.83-.28-.87.22c0 0 .17-.46.68 0a1.63 1.63 0 0 0 .42.27.1.1 0 0 0 .12 0 .59.59 0 0 1 .38-.15.68.68 0 0 1 .43.15c-.05-.3-.25-.56-1.05-.59zm.19.44a.09.09 0 0 1 -.09-.08.09.09 0 0 1 .18 0 .09.09 0 0 1 -.08.08z"/><path d="m21.43 16.85s0 0 0 0a3.57 3.57 0 0 1 -.33-1.29v-.28a4.49 4.49 0 0 0 0-.81c-.05-.2-.21-.46-1-.49h-.06a.05.05 0 0 1 0 0h-.05s-.48-.15-.69 0a.24.24 0 0 0 -.11.19.75.75 0 0 0 0 .2.48.48 0 0 1 .38 0 .51.51 0 0 1 .25.36 1.92 1.92 0 0 1 0 .38 3.28 3.28 0 0 1 -.63 1.75 0 0 0 0 1 -.07 0 0 0 0 0 1 0-.06 3.07 3.07 0 0 0 .62-1.7 1.61 1.61 0 0 0 0-.35c0-.16-.1-.26-.19-.29a.45.45 0 0 0 -.35.05s0 0 0 0a.84.84 0 0 1 -.05-.29.34.34 0 0 1 .15-.27 1.05 1.05 0 0 1 .74 0 .19.19 0 0 1 -.04-.15c.86 0 1 .34 1.1.57v.05a4 4 0 0 1 0 .84v.27a3.81 3.81 0 0 0 .32 1.25.06.06 0 0 1 0 .07z"/><path d="m21.07 16.92a3.36 3.36 0 0 1 -.35-1.46 0 0 0 0 1 .05 0 .05.05 0 0 1 .05 0 3.29 3.29 0 0 0 .34 1.41.07.07 0 0 1 0 .07z"/><path d="m20.52 16.85s-.05 0-.05 0a11.91 11.91 0 0 1 -.06-1.42.05.05 0 0 1 .05-.05.06.06 0 0 1 .05.06 11.74 11.74 0 0 0 .06 1.4s0 .05 0 .05z"/><path d="m19.46 16.92a0 0 0 0 1 0-.07c.45-.32.51-1.45.51-1.47s0 0 0 0a0 0 0 0 1 .05 0c0 .05-.06 1.19-.55 1.54z"/><path d="m20 16.85a0 0 0 0 1 0-.06 5.16 5.16 0 0 0 .2-1.42 0 0 0 0 1 0 0s.05 0 .05 0a5.09 5.09 0 0 1 -.21 1.46s-.04.02-.04.02z"/><path d="m17.19 25.21a.06.06 0 0 1 -.06.05.05.05 0 1 1 0-.1.06.06 0 0 1 .06.05z"/><path d="m17.21 25.77a.08.08 0 0 1 -.08.07.07.07 0 0 1 -.07-.07.08.08 0 0 1 .07-.08.09.09 0 0 1 .08.08z"/><circle cx="17.33" cy="25.81" r=".07"/><path d="m17.68 25.89a.08.08 0 0 1 -.07.08.09.09 0 0 1 -.08-.08.08.08 0 0 1 .08-.07.07.07 0 0 1 .07.07z"/><path d="m17.86 25.42-.12.09h.05v.14h-.2l.07-.28c0-.11-.08 0-.08 0l-.11.07h.05l-.05.16h-.14l.15-.54c0-.12-.1 0-.1 0a.72.72 0 0 0 -.21 0c-.09 0 0 .09 0 .1s.14 0 .12 0a.06.06 0 0 1 .08 0l-.08.28c-.29 0-.26.25-.26.25l.87.22s.07-.29.08-.38-.12-.11-.12-.11zm-.71.12a.06.06 0 0 1 0-.06.05.05 0 0 1 0-.05.06.06 0 1 1 0 .11z"/><path d="m18.85 25.38v.5c-.06.34-.1 0-.1 0a.11.11 0 0 1 -.13-.1c.34 0 0-.22 0-.22 0-.36-.28 0-.28 0s-.18.12-.08.13.07.08.07.08a.18.18 0 0 1 -.22 0v-.19c0-.12-.1 0-.1 0s0 .11 0 .11c0 .31-.19.2-.22.25s0 .08.18.08.14-.11.14-.11a.26.26 0 0 1 .18 0 .09.09 0 0 0 .11 0c.1-.25.1 0 .1 0h.14s0 .21.14.23a.18.18 0 0 0 .22-.14l.06-.76zm-.33.3a.06.06 0 1 1 .06-.06.06.06 0 0 1 -.06.06z"/><path d="m19 26 .08-.71.17.12h-.07l-.06.6a.07.07 0 0 1 -.12-.01z"/><path d="m20.4 26h-.08a.33.33 0 0 0 -.05-.2h-.52c0-.2-.14-.13-.14-.13l-.06.11h.06v.17c-.08.12-.15 0-.15 0v-.09s0-.18-.13 0 0 .1 0 .1c0 .32-.24.31-.24.31s0 .06.18.06.18-.2.18-.2h.55c.14.4.31 0 .31 0h.3a.06.06 0 0 0 .05-.06v-.25a0 0 0 0 0 0 0 .23.23 0 0 0 -.26.18zm-.16.1s-.1.15-.11-.06h-.33s-.13 0 0-.1h.45s0-.03-.01.13zm.32-.09a.06.06 0 0 1 -.06-.06.06.06 0 0 1 .06-.05 0 0 0 0 1 .05.05.06.06 0 0 1 -.05.05z"/><circle cx="20.86" cy="25.48" r=".06"/><path d="m20.93 25.67a.06.06 0 0 1 -.08 0s-.05 0 0-.07a.06.06 0 0 1 .07 0s.01.03.01.07z"/><path d="m23.45 25.85a.06.06 0 0 1 -.08 0 .07.07 0 0 1 -.05-.08.08.08 0 0 1 .08-.06.07.07 0 0 1 .05.14z"/><path d="m21.15 26.19a.1.1 0 0 1 -.09.08.07.07 0 0 1 0-.14s.09.03.09.06z"/><path d="m21.31 26.18a.07.07 0 0 1 -.07.07s-.09 0-.09-.06a.1.1 0 0 1 .09-.08.08.08 0 0 1 .07.07z"/><path d="m21.35 25.69c-.12.07 0 .09 0 .09s0 .17 0 .17h-.18v-.48s0-.17-.1-.1 0 .11 0 .11v.3c-.18 0-.14.29-.14.29h.57v-.3s-.03-.16-.15-.08zm-.35.31a0 0 0 1 1 .05 0 0 0 0 0 1 -.05 0z"/><path d="m21.47 26.17s.36-.15.08-.32c0 0 0-.34.16-.1a.31.31 0 0 1 0 .42s-.27.09-.24 0z"/><path d="m23.45 25.55c-.14.13-.18-.09-.18-.09a.65.65 0 0 0 -.07-.34c-.08-.17-.25-.1-.32-.06s0 .15.05.12c.21-.14.22.1.22.21a.91.91 0 0 0 .05.25h-.08c-.2-.21-.31.1-.31.1h-.07a.21.21 0 0 0 -.24-.2v-.08s0-.15-.12-.08 0 .11 0 .11v.08c-.18 0-.16.25-.16.25s-.07 0-.07 0 0-.17-.09-.17a.2.2 0 0 0 -.11.06c-.3.3 0 .25 0 .25.17.06-.07.12-.1.15s0 .05 0 .05.18 0 .22-.08a.2.2 0 0 0 0-.13.7.7 0 0 1 .29 0c.26.42.32-.1.32-.1h.09c.16.25.32-.06.32-.06s.21-.1.28-.07.2 0 .19-.06-.03-.17-.11-.11zm-1.45.32a0 0 0 0 1 0-.05.05.05 0 0 1 .1 0 0 0 0 0 1 -.1.05zm.38-.06a.06.06 0 0 1 -.05-.06 0 0 0 0 1 .05-.05.06.06 0 0 1 .06.05.06.06 0 0 1 -.07.06zm.14-.09a.06.06 0 0 1 .06 0 0 0 0 0 1 .05 0 .06.06 0 0 1 -.05.06.06.06 0 0 1 -.07-.06zm.11.25a.06.06 0 0 1 -.05-.06.05.05 0 0 1 .1 0 .06.06 0 0 1 -.06.09zm.38-.19a.06.06 0 0 1 -.06-.06.06.06 0 0 1 .06 0 0 0 0 0 1 .05 0 .06.06 0 0 1 -.06.06z"/><path d="m18.6 22a.05.05 0 0 1 0 0 0 0 0 0 1 0-.07l.8-.71a0 0 0 0 1 .07 0 0 0 0 0 1 0 .07l-.79.71z"/><path d="m22 22a.05.05 0 0 1 0 0l-.79-.7a0 0 0 0 1 0-.07 0 0 0 0 1 .07 0l.79.71a0 0 0 0 1 -.07.06z"/></g></svg>