<svg viewBox="0 0 40.5 40.5" xmlns="http://www.w3.org/2000/svg"><path d="m40.5 20.25h-40.5a20.25 20.25 0 0 1 40.5 0z" fill="#12ad2b"/><path d="m40.5 20.25a20.25 20.25 0 0 1 -40.5 0z" fill="#4189dd"/><path d="m40.5 20.25a20.12 20.12 0 0 1 -2.13 9l-29.85 7.5a20.24 20.24 0 0 1 0-33l29.85 7.47a20.12 20.12 0 0 1 2.13 9.03z" fill="#ea0437"/><path d="m12.76 13a4.69 4.69 0 0 1 -.1-1.24s0-.06 0-.08v-.06a1.79 1.79 0 0 1 .66.37 1 1 0 0 1 .25.28 1.19 1.19 0 0 1 .11.38 1.43 1.43 0 0 1 0 .29 1.81 1.81 0 0 1 -.36.89.42.42 0 0 0 -.08.18.54.54 0 0 0 0 .22c.09.46.19.92.29 1.38 0 0 .06 0 .08-.07.15-.28.23-.59.39-.85a1.81 1.81 0 0 1 1.66-.74 1.69 1.69 0 0 0 -.43.37 1.54 1.54 0 0 0 -.21.47l-.21.64a.56.56 0 0 0 .38-.06 1.14 1.14 0 0 0 .32-.22 1.11 1.11 0 0 0 .46-.65.29.29 0 0 1 .14.15 1.47 1.47 0 0 1 0 .66 2 2 0 0 1 0 .24 1.58 1.58 0 0 1 -.7.83 3.62 3.62 0 0 0 -.32.22 1.05 1.05 0 0 1 -.3.22 1 1 0 0 0 .34 0 1.6 1.6 0 0 0 .66-.21.91.91 0 0 0 .41-.34.92.92 0 0 1 -.06.69 1.25 1.25 0 0 1 -.26.3 1.55 1.55 0 0 1 -.53.39 1.31 1.31 0 0 1 -.27.06 1.68 1.68 0 0 1 -.86 0 3.35 3.35 0 0 0 -.89-.18.52.52 0 0 0 -.22 0 .38.38 0 0 0 -.12.1 1.35 1.35 0 0 0 -.29.72 1.21 1.21 0 0 0 0 .19c0 .12 0 .24-.05.35a9 9 0 0 0 -.17 1 .65.65 0 0 0 0 .34c0-.17.08-.33.12-.5a4 4 0 0 1 .93-1.73 7.72 7.72 0 0 0 0 1.8c0 .06 0 .13.09.15a.2.2 0 0 0 .19-.09l.54-.58c.06-.07.13-.14.19-.22a3.66 3.66 0 0 0 .26-.42.8.8 0 0 0 .2-.64c.06.15.24.22.34.35a.78.78 0 0 1 .13.36 1.14 1.14 0 0 1 0 .52 1 1 0 0 1 -.16.31l-.21.32a2.23 2.23 0 0 1 -.2.3 2.84 2.84 0 0 1 -.53.51 6.56 6.56 0 0 0 .88.09 1.18 1.18 0 0 0 .42 0 1.59 1.59 0 0 0 .72-.52 1.78 1.78 0 0 1 -.22 1.09 1.4 1.4 0 0 1 -.91.49 3.7 3.7 0 0 1 -1 0 2.44 2.44 0 0 0 -1 0 .82.82 0 0 0 -.64.65 1.9 1.9 0 0 0 .2.73 3.53 3.53 0 0 1 .14.56 20.52 20.52 0 0 0 .53 2 1.94 1.94 0 0 0 .14-.76 3.86 3.86 0 0 1 .68-1.68 1 1 0 0 1 .39-.41.36.36 0 0 1 .48.16c.05.15-.05.31-.11.45a1.41 1.41 0 0 0 -.13.6 4.49 4.49 0 0 0 1.28-1.36c0 .22.07.43.09.66a1 1 0 0 1 0 .42 1.27 1.27 0 0 1 -.2.31l-.88 1.1a1.28 1.28 0 0 0 1.09-.9 1.6 1.6 0 0 1 -.32 1.59 1.64 1.64 0 0 1 -.35.29 2.54 2.54 0 0 1 -1.44.43c-.09.11-.25.17-.35.27a1.24 1.24 0 0 0 -.28.5 4 4 0 0 0 -.2 1.57l1.39-.47.71-.23c.49-.14 1-.22 1.48-.35a.81.81 0 0 0 .35-.16l.33-.32c.07-.06.13-.13.19-.19.45-.52.49-1.28.88-1.84s.91-.73 1.16-1.24a4.67 4.67 0 0 1 .09.74.61.61 0 0 1 -.11.42 2.08 2.08 0 0 0 .67-1.07 7.23 7.23 0 0 1 .06-1.05c.07-.19.21-.35.29-.53a1.77 1.77 0 0 0 .1-.65 1.67 1.67 0 0 0 0-.38 2.26 2.26 0 0 0 -.17-.43 2.6 2.6 0 0 1 -.21-1 .86.86 0 0 1 0-.27 2.19 2.19 0 0 1 .23-.49.8.8 0 0 1 .4-.35 3.15 3.15 0 0 0 .16 1.33 2.34 2.34 0 0 0 .09.24 3.49 3.49 0 0 0 .71 1.19q0-.44.06-.87a1 1 0 0 0 0-.24 1.17 1.17 0 0 0 -.06-.2c-.24-.58-.54-1.13-.78-1.71a2.55 2.55 0 0 1 -.19-.72c0-.13 0-.25 0-.38a2.16 2.16 0 0 0 -.09-.62c-.3-.28-.6-.6-.9-.89a2.73 2.73 0 0 1 -.34-.34 2.93 2.93 0 0 1 -.54-2 .65.65 0 0 1 .05-.21.2.2 0 0 1 .18-.1.24.24 0 0 1 .12.07 1.83 1.83 0 0 1 .47.45 7.83 7.83 0 0 1 .36.78.67.67 0 0 0 .7.4.56.56 0 0 0 -.09-.35 5.93 5.93 0 0 0 -1.31-1.85 1.81 1.81 0 0 0 -.73.22 2.24 2.24 0 0 1 -1.65-.12 4.51 4.51 0 0 1 -1-.73 4.87 4.87 0 0 0 1.66-.05 1 1 0 0 0 -.37-.21 4.42 4.42 0 0 0 -2.06-.31 3.86 3.86 0 0 1 -.76.1 2.82 2.82 0 0 1 -1.69-.84.92.92 0 0 1 -.31-.34c.39 0 .73.34 1.12.29a.38.38 0 0 0 -.15-.33l-.44-.49.6.06a2 2 0 0 0 .54 0c.32-.06.61-.29.94-.28a1.31 1.31 0 0 1 .75.35c.28.22.55.44.81.67a2.36 2.36 0 0 0 .76.49 3.84 3.84 0 0 1 -1.56-2.9c.16 0 .29.15.42.25a15.77 15.77 0 0 1 1.45 1.26c.11.11.22.22.32.34s.17.23.25.35.2.28.26.37.19.26.28.4a3.3 3.3 0 0 0 .52.65c.17.14.36.24.53.37a2.4 2.4 0 0 1 .93 1.66 4.94 4.94 0 0 0 -.67-3.08 1.17 1.17 0 0 1 .76.31 2.13 2.13 0 0 1 .31.29 2.14 2.14 0 0 1 .37.83 18.91 18.91 0 0 1 .39 2.1c.06.43.12.86.17 1.3a.93.93 0 0 0 .34-.77 6.68 6.68 0 0 0 -.14-1.89 3 3 0 0 1 .95 1.88 8.54 8.54 0 0 1 .12 1.75 3.4 3.4 0 0 1 -.08.63l-.12.73c0 .1 0 .2-.06.3s-.1.32-.15.48l-.51 1.38a1.86 1.86 0 0 0 .8-1 4.25 4.25 0 0 0 .23-1.24 3.32 3.32 0 0 1 .56 1.09 3.21 3.21 0 0 1 .05.69 1.46 1.46 0 0 1 0 .42 1.39 1.39 0 0 1 -.12.28 19.06 19.06 0 0 1 -2.17 3.67 2.86 2.86 0 0 0 .69-.37c.1-.09.19-.2.29-.3s.35-.41.53-.61a7.07 7.07 0 0 0 .67-.86 7.84 7.84 0 0 0 .41-.82 5.52 5.52 0 0 1 -.14 1.46c-.07.16-.18.3-.27.46s-.09.19-.13.28a6 6 0 0 1 -1.75 2.09 13.64 13.64 0 0 1 -1.52 1c-.1.06-.74.36-.72.44s.74-.15.84-.16a2 2 0 0 1 1 .1 4.76 4.76 0 0 1 -2.07 1.42 16.08 16.08 0 0 1 -3.2.93c-.56.11-1.13.18-1.7.25h-.34a2.45 2.45 0 0 1 -.38 0 4.07 4.07 0 0 1 -.78 0c.19.08.37.16.54.25a1.14 1.14 0 0 1 .23.15l.15.15a3.5 3.5 0 0 1 .24.3 1.4 1.4 0 0 1 .16.4.83.83 0 0 1 0 .22s0 .1 0 .11h-4.3c0-.11.07-.24.1-.36s.07-.2.12-.3a2 2 0 0 1 1.11-.85q-1.3-.09-2.58-.3c-.23 0-.47 0-.7-.08a6.93 6.93 0 0 1 -.75-.2 5.8 5.8 0 0 1 -1.41-.7 4.94 4.94 0 0 1 -.71-.59c-.07-.06-.13-.13-.2-.18a1.81 1.81 0 0 0 -.57-.29l-.92-.36a3 3 0 0 0 -1-.26 1.79 1.79 0 0 1 1-.35 3.22 3.22 0 0 1 .62.11 7.14 7.14 0 0 1 1.39.54 1.1 1.1 0 0 1 -.37-.22c-.37-.3-.82-.48-1.21-.75-.16-.12-.31-.26-.48-.37l-.43-.28a4.78 4.78 0 0 1 -2.1-3.6c.2.25.43.51.62.77a6.52 6.52 0 0 0 1.15 1.23l.37.26.79.51c-.2-.22-.33-.47-.51-.71l-.56-.75c-.14-.19-.28-.37-.4-.57s-.13-.23-.19-.34a9.16 9.16 0 0 1 -.66-1.4 3.66 3.66 0 0 1 -.19-1.54 1.21 1.21 0 0 1 .06-.38c.1-.22.18-.44.3-.65a.32.32 0 0 1 .1.2 6.87 6.87 0 0 0 .8 2 8.19 8.19 0 0 1 -.26-1.48 4 4 0 0 0 0-.5c0-.17-.07-.34-.1-.51a3 3 0 0 1 0-.42v-1.47a3.64 3.64 0 0 1 0-.74c0-.18.1-.35.15-.53s.06-.4.12-.6a.82.82 0 0 1 .32-.49 1.33 1.33 0 0 1 .26.62 14.43 14.43 0 0 1 .2 2.95 3.45 3.45 0 0 0 .19-1.36c0-.3 0-.6 0-.89a8.73 8.73 0 0 1 .18-2.21c0-.16.09-.31.14-.46a2.58 2.58 0 0 1 .71-1.27 3 3 0 0 1 .65-.37c0 .18 0 .35-.07.53s-.07.27-.1.41 0 .33-.07.5-.06.41-.11.62-.06.21-.08.31a1.26 1.26 0 0 1 -.05.28 3.41 3.41 0 0 0 -.14.55 2.36 2.36 0 0 1 .22-.38l.37-.5a1.38 1.38 0 0 1 .22-.22c.12-.1.28-.16.4-.26a1.83 1.83 0 0 0 .33-.49 8 8 0 0 1 1.3-1.65 7.27 7.27 0 0 1 1-.93 2.41 2.41 0 0 1 1.26-.48 1.78 1.78 0 0 1 -.28.48 10.54 10.54 0 0 1 -1.24 1.26 2.36 2.36 0 0 1 .48-.35 12.34 12.34 0 0 1 2.89-1.11 3.41 3.41 0 0 1 .46-.1 2.7 2.7 0 0 1 1.34.27 2 2 0 0 1 -.9.58l-.27.08-1.34.35a3.73 3.73 0 0 0 -1.22.4 4.14 4.14 0 0 0 1.49.15 2 2 0 0 0 .54-.07 1.57 1.57 0 0 0 .49-.27c-.09.06-.14.22-.22.3a1.74 1.74 0 0 1 -.32.28 1.85 1.85 0 0 1 -.79.33 5.23 5.23 0 0 1 -1.12 0 1.9 1.9 0 0 0 -1.1.23.68.68 0 0 0 -.24.29 3.55 3.55 0 0 0 1.59-.11 1.59 1.59 0 0 1 -1 .58h-.42a5.31 5.31 0 0 0 -2.27.58 2.64 2.64 0 0 0 -.35.23 1.29 1.29 0 0 0 -.21.19 4.13 4.13 0 0 0 -.71.95 1.57 1.57 0 0 0 -.12.3c0 .18 0 .39-.09.56l.24-.24a1 1 0 0 0 .14-.15l.11-.15a6.08 6.08 0 0 1 1.09-1.25 1 1 0 0 1 .15.77 1.8 1.8 0 0 1 -.28.74 1.75 1.75 0 0 1 -.18.29 8.24 8.24 0 0 1 -1.16.85 2.91 2.91 0 0 0 -.65.86 2.39 2.39 0 0 0 -.32 1 2.24 2.24 0 0 0 .52-.67 2.38 2.38 0 0 1 .17-.47s0 0 .06.06a3.58 3.58 0 0 1 0 .73 1.48 1.48 0 0 1 0 .21 1.89 1.89 0 0 1 -.09.21c-.07.16-.13.31-.19.47s-.13.29-.19.44a4.87 4.87 0 0 0 -.31 1.73 1.6 1.6 0 0 1 -.08.58 2.29 2.29 0 0 0 .3-.72 1.62 1.62 0 0 1 .09-.38c0-.09.07-.17.1-.26a1.26 1.26 0 0 0 0-.28 2.85 2.85 0 0 1 .21-.81v.44s0 .22 0 .33a2.43 2.43 0 0 0 .17.54 5.65 5.65 0 0 1 .29 1.05 2 2 0 0 1 -.12 1.08c0 .1-.1.2-.15.3a1.8 1.8 0 0 0 -.02 1.13 6.1 6.1 0 0 0 .33.84 7.43 7.43 0 0 0 .07-1.25.82.82 0 0 0 0-.22 1 1 0 0 1 -.12-.37l.49.67a2.37 2.37 0 0 1 .22.33 3.58 3.58 0 0 1 .24.72 1.47 1.47 0 0 0 .34.67 3.69 3.69 0 0 0 .11-.79 1.69 1.69 0 0 0 .18.47c.07.16.14.32.22.48a6.84 6.84 0 0 0 .53.9 3.61 3.61 0 0 0 .62.78l.89.78a1.64 1.64 0 0 0 .25.21 2.82 2.82 0 0 0 .49.25 3.59 3.59 0 0 0 .35.12c.26.05.53 0 .79.07a2.82 2.82 0 0 1 .61.23c.23.09.48.07.71.16 0-.61-.05-1.19-.08-1.81v-.58c0-.62-.06-1.23-.12-1.85 0 0-.08 0-.12 0l-.2.07a3.25 3.25 0 0 1 -.42.11 4.12 4.12 0 0 1 -.86.1 1.71 1.71 0 0 1 -.84-.09 2.26 2.26 0 0 1 -.35-.28l-.29-.26c-.06-.06-.12-.11-.18-.18a1.57 1.57 0 0 1 -.23-.71l-.1-.57c0 .05.05.07.09.11l.35.32a.65.65 0 0 0 .16.13l.16.08.3.13.23.09h.16a2.1 2.1 0 0 1 .33.06s.22.07.16 0-.22-.13-.29-.17l-.31-.16a1.45 1.45 0 0 1 -.26-.17l-.17-.16c-.12-.13-.27-.22-.39-.35a1.8 1.8 0 0 1 -.45-1.16c.25.13.47.3.71.45a3.18 3.18 0 0 0 .88.4c-.17-.23-.36-.5-.51-.75l-.11-.21a1.54 1.54 0 0 1 -.14-.76 3.77 3.77 0 0 1 .7.41l.16.15.35.31a4.71 4.71 0 0 1 1 1.13c0-.38 0-.78 0-1.16 0-.11 0-.23-.05-.34s0-.24 0-.36c0-.63 0-1.27 0-1.91 0 0-.1 0-.14 0a3.08 3.08 0 0 1 -.74.11.9.9 0 0 1 -.4-.05.7.7 0 0 1 -.17-.09 2.52 2.52 0 0 1 -.33-.24 1.75 1.75 0 0 1 -.5-.84 4.9 4.9 0 0 1 -.13-1 2.35 2.35 0 0 1 .33.37 1 1 0 0 0 .38.33.3.3 0 0 0 .13 0 .13.13 0 0 0 .1-.09s0-.1 0-.14a1 1 0 0 1 -.13-.28l-.2-.5a.86.86 0 0 1 -.07-.21 1.32 1.32 0 0 1 -.05-.26v-.24a2.83 2.83 0 0 1 0-.29 3.38 3.38 0 0 1 0-.9 3.72 3.72 0 0 1 .27.57 1.18 1.18 0 0 0 .07.2 1 1 0 0 0 .11.21 2.62 2.62 0 0 0 .9.94 1.36 1.36 0 0 0 -.22-.41 1.39 1.39 0 0 1 -.2-.82.36.36 0 0 1 0-.11.21.21 0 0 1 .15-.09.46.46 0 0 1 .38.12 1.49 1.49 0 0 1 .24.32l.13.21a2.3 2.3 0 0 1 .26.52c.11.38 0 .8.12 1.18a1.37 1.37 0 0 1 .26-.37 2.77 2.77 0 0 0 .22-.37l.2-.36a1.51 1.51 0 0 0 .11-.22 1.88 1.88 0 0 0 .1-.67 1.23 1.23 0 0 0 0-.33 1.29 1.29 0 0 0 -.08-.26l-.15-.39c-.21 0-.42 0-.64 0a1.42 1.42 0 0 1 -.58-.25 1.85 1.85 0 0 1 -.14-.14 1.35 1.35 0 0 1 -.36-.58l.3.11a1.12 1.12 0 0 0 .8.09 1.32 1.32 0 0 0 .25-.16.75.75 0 0 0 .16-.15.29.29 0 0 0 .05-.2c-.25 0-.48.13-.73.15a1.11 1.11 0 0 1 -.48 0l-.17-.09a3 3 0 0 1 -.62-.44s.05-.09.07-.11a1.57 1.57 0 0 1 .79-.2 2.52 2.52 0 0 1 .81.15 1.34 1.34 0 0 1 .39.16z" fill="#ffc726"/></svg>