<svg viewBox="0 0 40.5 40.5" xmlns="http://www.w3.org/2000/svg"><path d="m39.34 13.5h-38.18a20.25 20.25 0 0 1 38.18 0z" fill="#078930"/><path d="m40.5 20.25a20.19 20.19 0 0 1 -1.16 6.75h-38.18a20.22 20.22 0 0 1 0-13.5h38.18a20.19 20.19 0 0 1 1.16 6.75z" fill="#fcdd09"/><path d="m39.34 27a20.25 20.25 0 0 1 -38.18 0z" fill="#da121a"/><circle cx="20.25" cy="20.25" fill="#0f47af" r="13.55"/><g fill="#fcdd09"><path d="m19.6 11.48-.66 2-1.11 3.42h-7.83l1.2.87h6.33l-.81 2.5.74.55.84-2.56.15-.49.28-.87.1-.29 1-3.13.2-.61zm-2.23 9.7-.74-.55-3.45-2.5h-1.49l4.64 3.38-1.78 5.49-.63 1.94 1.21-.87.35-1.07.11-.35 1.5-4.59 2.12 1.54.74-.54zm8.74 6.35-.72-.53-.48-.35-3.91-2.84 2.11-1.54-.27-.87-2.58 1.86-.74.55-3.42 2.47-.23.72-.24.72 1-.72 3.65-2.65 3.62 2.65 2.67 1.94zm4.37-10.61h-1.48l-1.19.87-3.91 2.84-.81-2.5h-.92l1 3.05.28.88 1.31 4 1.21.89-1.76-5.46zm-7.81 0-1.11-3.42-1.31-4-.47 1.43.47 1.42.38 1.17 1.12 3.42h-2.63l-.29.87h8.37l1.2-.87z"/><path d="m21.95 13.66h5.85v.43h-5.85z" transform="matrix(.58905533 -.80809271 .80809271 .58905533 -.99 25.81)"/><path d="m12.7 13.67h5.84v.43h-5.84z" transform="matrix(-.58651373 -.80993929 .80993929 -.58651373 13.54 34.68)"/><path d="m9.84 22.47h5.85v.43h-5.85z" transform="matrix(-.95154075 .3075227 -.3075227 -.95154075 31.88 40.35)"/><path d="m17.33 27.91h5.85v.43h-5.85z" transform="matrix(-.0015708 .99999877 -.99999877 -.0015708 48.4 7.92)"/><path d="m24.82 22.47h5.85v.43h-5.85z" transform="matrix(.95056994 .31051053 -.31051053 .95056994 8.41 -7.49)"/></g></svg>