<svg xmlns="http://www.w3.org/2000/svg" viewBox="0 0 40.5 40.5"><defs><style>.cls-1{fill:#078930;}.cls-2{fill:#fcdd09;}.cls-3{fill:#da121a;}.cls-4{fill:#0f47af;}</style></defs><g id="Ebene_2" data-name="Ebene 2"><g id="Ńëîé_1" data-name="Ńëîé 1"><path class="cls-1" d="M39.34,13.5H1.16a20.25,20.25,0,0,1,38.18,0Z"/><path class="cls-2" d="M40.5,20.25A20.19,20.19,0,0,1,39.34,27H1.16a20.22,20.22,0,0,1,0-13.5H39.34A20.19,20.19,0,0,1,40.5,20.25Z"/><path class="cls-3" d="M39.34,27A20.25,20.25,0,0,1,1.16,27Z"/><circle class="cls-4" cx="20.25" cy="20.25" r="13.55"/><path class="cls-2" d="M19.6,11.48l-.66,2-1.11,3.42H10l1.2.87h6.33l-.81,2.5.74.55.84-2.56.15-.49.28-.87.1-.29,1-3.13.2-.61Zm-2.23,9.7-.74-.55-3.45-2.5H11.69l4.64,3.38L14.55,27l-.63,1.94,1.21-.87L15.48,27l.11-.35,1.5-4.59,2.12,1.54.74-.54Zm8.74,6.35L25.39,27l-.48-.35L21,23.81l2.11-1.54-.27-.87-2.58,1.86-.74.55-3.42,2.47-.23.72-.24.72,1-.72,3.65-2.65L23.9,27l2.67,1.94Zm4.37-10.61H29l-1.19.87-3.91,2.84-.81-2.5h-.92l1,3.05.28.88,1.31,4,1.21.89-1.76-5.46Zm-7.81,0L21.56,13.5l-1.31-4-.47,1.43.47,1.42.38,1.17,1.12,3.42H19.12l-.29.87H27.2l1.2-.87Z"/><rect class="cls-2" x="21.95" y="13.66" width="5.85" height="0.43" transform="translate(-0.99 25.81) rotate(-53.91)"/><rect class="cls-2" x="12.7" y="13.67" width="5.84" height="0.43" transform="translate(13.54 34.68) rotate(-125.91)"/><rect class="cls-2" x="9.84" y="22.47" width="5.85" height="0.43" transform="translate(31.88 40.35) rotate(162.09)"/><rect class="cls-2" x="17.33" y="27.91" width="5.85" height="0.43" transform="translate(48.4 7.92) rotate(90.09)"/><rect class="cls-2" x="24.82" y="22.47" width="5.85" height="0.43" transform="translate(8.41 -7.49) rotate(18.09)"/></g></g></svg>