<svg viewBox="0 0 40.5 40.5" xmlns="http://www.w3.org/2000/svg"><path d="m40.5 20.25a19.8 19.8 0 0 1 -.76 5.47 20.24 20.24 0 0 1 -17.74 14.7v.08h-1.75a20.23 20.23 0 0 1 -19.49-14.78 20.06 20.06 0 0 1 0-10.94 20.23 20.23 0 0 1 19.49-14.78h1.75v.08a20.24 20.24 0 0 1 17.74 14.7 19.8 19.8 0 0 1 .76 5.47z" fill="#fff"/><path d="m39.74 14.78a20.06 20.06 0 0 1 0 10.94h-17.74v14.78h-1.75a20.18 20.18 0 0 1 -9.18-2.2v-12.58h-10.31a20.06 20.06 0 0 1 0-10.94h10.31v-12.58a20.18 20.18 0 0 1 9.18-2.2h1.75v14.78z" fill="#003580"/></svg>