<svg xmlns="http://www.w3.org/2000/svg" viewBox="0 0 40.5 40.5"><defs><style>.cls-1{fill:#68bfe5;}.cls-2{fill:#002868;}.cls-3{fill:#fff;}.cls-4{fill:#cf142b;}.cls-5{fill:#964b36;}.cls-6{fill:#00a651;}.cls-7{fill:#d21034;}.cls-8{fill:#fff200;}.cls-9{fill:#ffd100;}</style></defs><g id="Ebene_2" data-name="Ebene 2"><g id="Ńëîé_1" data-name="Ńëîé 1"><path class="cls-1" d="M40.5,20.25a20.25,20.25,0,0,1-40.5,0H0a7,7,0,0,1,0-.79c0-.16,0-.32,0-.47a6.25,6.25,0,0,1,.1-1c0-.5.12-1,.2-1.49,0-.13,0-.25.06-.37s.13-.53.19-.8a23.13,23.13,0,0,1,.8-2.48c.11-.27.22-.54.34-.81A.22.22,0,0,1,1.78,12a6.67,6.67,0,0,1,.37-.76c.17-.36.36-.71.56-1.06A22.28,22.28,0,0,1,4.14,8,20.25,20.25,0,0,1,40.5,20.25Z"/><path class="cls-2" d="M20.25,8V20.24H0a7,7,0,0,1,0-.79c0-.16,0-.32,0-.47a6.25,6.25,0,0,1,.1-1c0-.5.12-1,.2-1.49,0-.13,0-.25.06-.37s.13-.53.19-.8a23.13,23.13,0,0,1,.8-2.48c.11-.27.22-.54.34-.81A.22.22,0,0,1,1.78,12a6.67,6.67,0,0,1,.37-.76c.17-.36.36-.71.56-1.06A22.28,22.28,0,0,1,4.14,8Z"/><path class="cls-3" d="M20.25,12.06v4.09H.4c.07-.27.13-.53.19-.8a23.13,23.13,0,0,1,.8-2.48c.11-.27.22-.54.34-.81Z"/><rect class="cls-3" x="5.93" y="7.98" width="4.09" height="12.25"/><path class="cls-4" d="M20.25,12.87v2.48h-11v4.89H6.74V15.35H.59a23.13,23.13,0,0,1,.8-2.48H6.74V8H9.22v4.89Z"/><polygon class="cls-3" points="10.02 11.73 17.5 7.98 20.25 7.98 20.25 9.35 14.85 12.06 10.02 12.06 10.02 11.73"/><polygon class="cls-4" points="10.24 12.06 18.42 7.98 20.25 7.98 12.1 12.06 10.24 12.06"/><polygon class="cls-3" points="10.02 16.48 17.5 20.23 20.25 20.23 20.25 18.86 14.85 16.15 10.02 16.15 10.02 16.48"/><path class="cls-3" d="M5.93,16.15v.33l-5.9,3c0-.16,0-.32,0-.47a6.25,6.25,0,0,1,.1-1c0-.5.12-1,.2-1.49l.75-.37Z"/><path class="cls-4" d="M5.71,16.15,0,19a6.25,6.25,0,0,1,.1-1l3.71-1.86Z"/><path class="cls-3" d="M5.93,11.73v.33H1.73A.22.22,0,0,1,1.78,12a6.67,6.67,0,0,1,.37-.76c.17-.36.36-.71.56-1.06Z"/><path class="cls-4" d="M3.89,12.06H2L1.78,12a6.67,6.67,0,0,1,.37-.76Z"/><polygon class="cls-4" points="20.25 20.23 12.07 16.15 13.94 16.15 20.25 19.3 20.25 20.23"/><rect class="cls-3" x="32.98" y="16.89" width="4.48" height="3.97"/><rect class="cls-3" x="27.6" y="16.95" width="4.48" height="3.97"/><path class="cls-3" d="M32,21.83V26.5l-.14-.06c-3.42-1.47-4.21-2.79-4.34-3.93v-.68Z"/><path class="cls-3" d="M37.44,21.77V23c-.3,1-1.29,2.18-4.25,3.45l-.23.09V21.77Z"/><path class="cls-5" d="M29.65,19.49c0,.12-.07.11-.07.28s.06.23.18.23.14-.12.14-.23-.15-.21-.22-.26Z"/><path d="M29.76,20c-.12,0-.19-.09-.19-.24a.36.36,0,0,1,0-.18.81.81,0,0,0,0-.11,0,0,0,0,1,0,0s0,0,0,0h0l0,0c.08,0,.2.12.2.25S29.83,20,29.76,20Zm-.1-.49a.34.34,0,0,1,0,.08.52.52,0,0,0,0,.17c0,.05,0,.21.16.21s.12-.07.12-.21-.1-.18-.18-.22l0,0Z"/><path class="cls-5" d="M29.73,19.31a.23.23,0,0,0-.12.24v.06h0a.13.13,0,0,0,.12.09.15.15,0,0,0,.17-.16c0-.07,0-.19-.07-.21Z"/><path d="M29.73,19.72a.15.15,0,0,1-.14-.11h0v0a.26.26,0,0,1,.13-.26h.11c.09,0,.09.21.09.23A.17.17,0,0,1,29.73,19.72Zm0-.39c-.07,0-.1.1-.1.22v.06a.12.12,0,0,0,.1.07c.06,0,.16,0,.16-.14s0-.18-.07-.19l-.05,0Z"/><path class="cls-5" d="M29.73,19.08a.19.19,0,0,0-.11.19c0,.07,0,.11.12.11s.13,0,.13-.11-.08-.2-.13-.2Z"/><path d="M29.74,19.4a.13.13,0,0,1-.14-.13.21.21,0,0,1,.12-.21h0c.06,0,.15.07.15.21S29.87,19.4,29.74,19.4Zm0-.32h0a.18.18,0,0,0-.1.18c0,.06,0,.09.1.09s.11,0,.11-.09-.07-.18-.11-.18Z"/><path class="cls-5" d="M29.74,18.85a.17.17,0,0,0-.09.17.1.1,0,0,0,.11.11c.08,0,.11-.06.11-.13s-.07-.15-.11-.15h0Z"/><path d="M29.76,19.15a.13.13,0,0,1-.13-.13.22.22,0,0,1,.09-.19h.05s.12.09.12.17A.14.14,0,0,1,29.76,19.15Zm0-.28a.15.15,0,0,0-.07.15.09.09,0,0,0,.09.1c.07,0,.09-.07.09-.12a.14.14,0,0,0-.09-.13h0Z"/><path class="cls-5" d="M29.05,19.93h0s0,.08,0,.13,0,.11.07.11.19,0,.19-.13a.15.15,0,0,0-.15-.17s-.1,0-.1.05Z"/><path d="M29.11,20.2c-.06,0-.09,0-.09-.13s0-.11,0-.13h0s.11-.06.12-.06a.17.17,0,0,1,.17.18C29.32,20.15,29.24,20.2,29.11,20.2Zm0-.27h0a.51.51,0,0,0,0,.13c0,.09,0,.09.06.09s.17,0,.17-.11a.14.14,0,0,0-.13-.15Z"/><path class="cls-5" d="M29.05,19.75c-.05.06-.07,0-.07.13s0,.09.1.09.17,0,.17-.1h0a.14.14,0,0,0-.14-.14h0a.06.06,0,0,0-.05,0Z"/><path d="M29.08,20c-.08,0-.12,0-.12-.1s0-.08,0-.1l0,0v0h0a.11.11,0,0,1,.06,0h0a.15.15,0,0,1,.15.16h0C29.26,20,29.14,20,29.08,20Zm0-.23h0l0,0s0,0,0,.08,0,.07.08.07.15,0,.15-.08h0c0-.06-.05-.13-.12-.13h0S29.07,19.74,29.07,19.75Zm0,0Z"/><path class="cls-6" d="M28.91,18l-.3.44,0,.37.19.18h0s0-.81.18-.94S28.91,18,28.91,18Z"/><path d="M28.78,19h0l-.2-.17v0l0-.37h0l.3-.44h0c.1,0,.12,0,.12,0s0,0-.05.08a2.45,2.45,0,0,0-.17.93h0a0,0,0,0,1,0,0A0,0,0,0,1,28.8,19Zm-.18-.2.17.14a2.24,2.24,0,0,1,.17-.92l0,0-.06,0-.29.44Z"/><path class="cls-6" d="M28.61,18.38s.46-1,1-.66c0,0-.51,0-1,.94Z"/><path d="M28.61,18.68h0s0,0,0,0v-.28h0s.28-.58.66-.71a.46.46,0,0,1,.36,0v0a0,0,0,0,1,0,0s-.51,0-1,.93Zm0-.3v.2c.37-.72.75-.85.91-.88a.42.42,0,0,0-.27,0C28.92,17.81,28.65,18.34,28.63,18.38Z"/><path class="cls-5" d="M28.92,19.68s0,0,0,.05a.11.11,0,0,0,.09.09.18.18,0,0,0,.17-.14h0c0-.08,0-.16-.13-.16a.14.14,0,0,0-.12.15Z"/><path d="M29,19.84a.13.13,0,0,1-.11-.11.43.43,0,0,1,0-.05h0a.16.16,0,0,1,.14-.16.15.15,0,0,1,.15.17h0A.2.2,0,0,1,29,19.84Zm-.07-.14v0s0,.07.07.07.15-.05.15-.12h0c0-.05,0-.14-.11-.14a.13.13,0,0,0-.1.13h0S28.94,19.69,28.93,19.7Z"/><path class="cls-5" d="M28.77,19.56l0,0,.09.08h0s.16-.08.16-.14v-.05a.18.18,0,0,0-.08-.15h0a.35.35,0,0,0-.22.21Z"/><path d="M28.91,19.7h0l-.08-.07,0,0a0,0,0,0,1,0,0h0v0a.35.35,0,0,1,.24-.22h0a.17.17,0,0,1,.09.16v.05C29.09,19.61,29,19.7,28.91,19.7Zm-.12-.15h0l0,0,0,0,.07.05s.15-.07.15-.12v-.05a.14.14,0,0,0-.07-.13A.35.35,0,0,0,28.79,19.55Z"/><path class="cls-5" d="M28.74,19.09h0v.06c0,.08.06.2.15.2a.07.07,0,0,0,.08-.08h0a.22.22,0,0,0-.2-.2h0Z"/><path d="M28.88,19.38c-.1,0-.16-.13-.16-.22v-.08h0s0,0,0,0h0a.25.25,0,0,1,.22.22h0A.09.09,0,0,1,28.88,19.38Zm-.12-.29h0v.06c0,.07.05.18.13.18s.07,0,.07-.06A.22.22,0,0,0,28.76,19.09Z"/><path class="cls-6" d="M28.77,19.56s-.5-.21-.53.28c0,0-.37-.77.72-.5A.32.32,0,0,1,28.77,19.56Z"/><path d="M28.24,19.85h0s-.13-.29,0-.46.35-.15.73-.06c0,0,0,0,0,0a.31.31,0,0,1-.19.23s0,0-.08,0-.24,0-.34,0a.29.29,0,0,0-.1.25Zm.32-.55a.36.36,0,0,0-.31.11.4.4,0,0,0,0,.35.3.3,0,0,1,.11-.2.42.42,0,0,1,.36,0h.07a.31.31,0,0,0,.17-.19A2.09,2.09,0,0,0,28.56,19.3Z"/><path class="cls-6" d="M28.71,19.16a1.39,1.39,0,0,1-.28-.76c0-.15-.39-.79-.39.06,0,0-.49-.65.2-.67a.5.5,0,0,1,.44.58,1,1,0,0,0,.12.74Z"/><path d="M28.71,19.18h0a1.46,1.46,0,0,1-.29-.77c0-.09-.16-.36-.26-.35s-.1,0-.1.41c0,0,0,0,0,0h0s-.24-.33-.14-.54.17-.15.36-.16a.48.48,0,0,1,.31.15.57.57,0,0,1,.15.45s0,.06,0,.09a.85.85,0,0,0,.13.64v0h0l-.09,0ZM28.16,18c.12,0,.27.29.29.39a1.75,1.75,0,0,0,.26.74l.07,0a.93.93,0,0,1-.13-.65.34.34,0,0,0,0-.1.5.5,0,0,0-.14-.42.39.39,0,0,0-.28-.13c-.18,0-.29.05-.33.14s.05.36.11.46c0-.26.05-.39.13-.4Z"/><rect class="cls-7" x="27.47" y="13.79" width="10.08" height="3.32"/><path class="cls-6" d="M29.76,18.53s-.39-.73-.73-.78c-.08,0-.24-.09-.2-.26a.25.25,0,0,0,.13.09.88.88,0,0,1,.83.72l0,.12Z"/><path d="M29.76,18.55h0s-.38-.72-.71-.77a.33.33,0,0,1-.2-.12.2.2,0,0,1,0-.17,0,0,0,0,1,0,0h0a.26.26,0,0,0,.12.08.9.9,0,0,1,.85.74l0,.11v0l-.08.11Zm-.92-1a.18.18,0,0,0,0,.1.33.33,0,0,0,.18.1c.31.05.65.63.72.77l0-.08,0-.11a.87.87,0,0,0-.81-.72A.2.2,0,0,1,28.84,17.53Z"/><path d="M28.76,19.58h0c-.22-.18-.28-.2-.49-.18l0,0s0,0,0,0a.54.54,0,0,1,.51.2s0,0,0,0Z"/><path class="cls-6" d="M28.92,19.3s-.28-.49-.52-.54-.4.32-.35.48c0,0-.3-.54.14-.65s.81.59.8.69S28.92,19.3,28.92,19.3Z"/><path d="M29,19.35a.06.06,0,0,1-.05-.05h0s-.28-.47-.51-.52a.24.24,0,0,0-.22.09.45.45,0,0,0-.11.37,0,0,0,0,1,0,0s0,0,0,0a.65.65,0,0,1-.08-.5.31.31,0,0,1,.23-.18.5.5,0,0,1,.45.13,1.26,1.26,0,0,1,.37.58s0,.06,0,.07Zm0-.06,0,0a0,0,0,0,0,0,0,1.16,1.16,0,0,0-.35-.55.48.48,0,0,0-.42-.13.3.3,0,0,0-.21.16.55.55,0,0,0,0,.38.58.58,0,0,1,.13-.3.25.25,0,0,1,.25-.09C28.65,18.8,28.92,19.26,28.94,19.29Z"/><path d="M28.4,18.33h0a.64.64,0,0,0-.38-.47s0,0,0,0h0a.71.71,0,0,1,.41.49,0,0,0,0,1,0,0Z"/><path class="cls-6" d="M29.73,18.58s.08-.79.56-1a1.28,1.28,0,0,1,.64,0l-.63.23c-.24.08-.37.58-.36.73S29.73,18.58,29.73,18.58Z"/><path d="M29.83,18.61l-.11,0v0s.09-.79.57-1a1.42,1.42,0,0,1,.65,0,0,0,0,0,1,0,0s0,0,0,0l-.63.22c-.24.08-.36.58-.36.72a.11.11,0,0,1,0,.1A.11.11,0,0,1,29.83,18.61Zm-.08-.05s.11,0,.14,0a.06.06,0,0,0,0-.06c0-.17.12-.67.37-.76l.57-.2a1,1,0,0,0-.56.05C29.86,17.79,29.76,18.46,29.75,18.56Z"/><path class="cls-6" d="M30.25,18.56s.3.12.07.6a.61.61,0,0,0-.31-.58l.12-.09Z"/><path d="M30.32,19.18h0s0,0,0,0a.6.6,0,0,0-.3-.57h0v0l.12-.08h0l.12.07a.24.24,0,0,1,.14.15.59.59,0,0,1-.06.47ZM30,18.57a.62.62,0,0,1,.3.5.58.58,0,0,0,0-.36.23.23,0,0,0-.12-.13h0l-.11-.06Z"/><path class="cls-6" d="M29.68,18.6s.35-.4.57,0c0,0-.25-.09-.41.33Z"/><path d="M29.84,18.91h0l-.15-.29v0a.55.55,0,0,1,.37-.2.3.3,0,0,1,.23.16v0h0s-.25-.08-.39.32Zm-.13-.31.13.25c.12-.29.29-.32.37-.31a.22.22,0,0,0-.17-.11A.51.51,0,0,0,29.71,18.6Z"/><path class="cls-6" d="M29.43,18.45s.59,0,.43.59c0,0-.38-.47-.47-.49S29.43,18.45,29.43,18.45Z"/><path d="M29.86,19.06h0a2.4,2.4,0,0,0-.45-.48.06.06,0,0,1-.05,0s.06-.09.08-.11h0a.58.58,0,0,1,.41.21.47.47,0,0,1,0,.41Zm-.43-.6a.18.18,0,0,0-.05.07h0c.08,0,.36.36.45.46a.39.39,0,0,0,0-.34A.58.58,0,0,0,29.43,18.46Z"/><path class="cls-6" d="M29.43,18.45c-.23-.09-.41.21-.34.3a1.42,1.42,0,0,1,.22.8C29.65,19.17,29.43,18.45,29.43,18.45Z"/><path d="M29.31,19.57h0v0a1.38,1.38,0,0,0-.21-.78.21.21,0,0,1,0-.23.27.27,0,0,1,.32-.11,0,0,0,0,0,0,0,1.34,1.34,0,0,1-.13,1.13Zm0-1.12a.25.25,0,0,0-.2.11c0,.07-.07.15,0,.18a1.33,1.33,0,0,1,.22.76,1.3,1.3,0,0,0,.08-1Z"/><path class="cls-6" d="M31.2,18s.46-.44.41.37c0,0-.23-.55-.51-.12Z"/><path d="M31.61,18.37h0s-.11-.26-.26-.27-.14,0-.21.15h0v0l.11-.25h0s.18-.17.31-.11.14.21.12.49c0,0,0,0,0,0Zm-.29-.32h0c.12,0,.21.15.25.23,0-.27-.05-.36-.1-.39s-.25.08-.27.1l-.06.14A.27.27,0,0,1,31.32,18.05Z"/><path class="cls-6" d="M30.79,18.63s-.19-.7-.63-.9c0,0,.5-.2.68.56Z"/><path d="M30.79,18.65h0s-.19-.7-.62-.89c0,0,0,0,0,0a0,0,0,0,1,0,0,.46.46,0,0,1,.37,0,.75.75,0,0,1,.33.54h0l0,.34s0,0,0,0Zm-.58-.91a1.5,1.5,0,0,1,.57.81l0-.26a.73.73,0,0,0-.32-.52A.39.39,0,0,0,30.21,17.74Z"/><path class="cls-6" d="M30.86,18.86c.21.06.51.17.56.33,0,0,0-.5-.19-.5A.54.54,0,0,0,30.86,18.86Z"/><path d="M31.42,19.21l0,0c0-.11-.24-.23-.55-.31h0v0a.59.59,0,0,1,.39-.18h0a.17.17,0,0,1,.12,0c.12.13.09.46.09.47h0Zm-.53-.36a1.09,1.09,0,0,1,.52.27.6.6,0,0,0-.09-.37.1.1,0,0,0-.09,0h0A.57.57,0,0,0,30.89,18.85Z"/><path class="cls-6" d="M30.7,18.92s.06-1,.58-1a2.94,2.94,0,0,0-.25.84Z"/><path d="M30.7,18.93h0c0-.05.07-1,.6-1,0,0,0,0,0,0h0a3.05,3.05,0,0,0-.25.84s0,0,0,0l-.33.17Zm.56-1c-.43,0-.52.8-.54,1l.29-.16A2.59,2.59,0,0,1,31.26,17.92Z"/><path class="cls-6" d="M30.93,19.17s.37,0,.11.52a.6.6,0,0,0-.12-.31A.15.15,0,0,1,30.93,19.17Z"/><path d="M31,19.71h0l0,0a.58.58,0,0,0-.11-.29.18.18,0,0,1,0-.25h0a.22.22,0,0,1,.19.08c.07.09.05.25-.05.47Zm-.11-.53a.15.15,0,0,0,0,.19.49.49,0,0,1,.11.26c.07-.18.08-.31,0-.38A.19.19,0,0,0,30.93,19.18Z"/><path class="cls-5" d="M30.28,19.83c-.05,0-.14.21-.14.27s.05.12.15.12.19-.22.19-.3a.09.09,0,0,0-.1-.1h-.1Z"/><path d="M30.29,20.24a.15.15,0,0,1-.16-.14c0-.05.08-.28.15-.28h.1a.12.12,0,0,1,.12.12C30.5,20,30.44,20.24,30.29,20.24Zm0-.39a.53.53,0,0,0-.12.25s0,.1.13.1.17-.2.17-.28,0-.08-.08-.08h-.1Z"/><path class="cls-5" d="M30.34,19.57a.71.71,0,0,0-.11.25c0,.06.08.09.14.09s.18-.14.18-.22,0-.15-.13-.15h0Z"/><path d="M30.37,19.93c-.08,0-.15,0-.15-.11a.62.62,0,0,1,.11-.26h0s0,0,0,0h.05c.11,0,.15.08.15.17S30.48,19.93,30.37,19.93Zm.05-.38h0l0,0h0a.64.64,0,0,0-.11.24c0,.06.08.07.12.07s.16-.13.16-.2S30.52,19.55,30.42,19.55Z"/><path class="cls-6" d="M30.34,19.56l.26-.45s.41-.24.32.27c0,0-.23-.24-.39.23a.18.18,0,0,1-.11,0A.21.21,0,0,1,30.34,19.56Z"/><path d="M30.46,19.64h0l-.09-.05a0,0,0,0,1,0,0l.26-.45h0s.18-.1.29,0,.09.16.06.33h0a.16.16,0,0,0-.16-.06c-.08,0-.15.11-.2.27a0,0,0,0,1,0,0Zm-.1-.08.07,0a.13.13,0,0,0,.09,0c.05-.16.13-.26.22-.28a.18.18,0,0,1,.17,0c0-.14,0-.22-.05-.26s-.22,0-.24,0Z"/><path class="cls-6" d="M30.48,19.32c-.06.06.13-.76.75-.63,0,0-.31,0-.35.29C30.88,19,30.53,19.26,30.48,19.32Z"/><path d="M30.47,19.34h0s0-.15,0-.19a.69.69,0,0,1,.74-.48,0,0,0,0,1,0,0l0,0s-.29,0-.33.27h0s-.35.28-.4.34Zm0,0Zm.64-.62a.53.53,0,0,0-.38.17,1,1,0,0,0-.23.42l.37-.31a.4.4,0,0,1,.27-.28Z"/><path class="cls-5" d="M34.9,20.43s0-.08,0-.09,0,0,0,0v0s.08-.06.12-.09A.25.25,0,0,0,35.2,20a1.48,1.48,0,0,0,0-.21l0-.54a.26.26,0,0,1,0-.15.16.16,0,0,1,.09-.07.11.11,0,0,1,.14,0,.63.63,0,0,1,0,.24v.36s0,0,0,.05,0,0,0,0,0,0,0,.06V20a.8.8,0,0,0,0,.15.93.93,0,0,0,.13.15l.06.08a0,0,0,0,1,0,0s0,0-.05,0l0,0a.1.1,0,0,0-.09,0,0,0,0,0,1,0,0s0,0-.07,0l0,0h-.19v0a.05.05,0,0,0-.05,0,.07.07,0,0,1-.06,0l0,0H34.9Z"/><path d="M35.24,20.47h0s0,0,0,0h0s0,0,0,0a.07.07,0,0,1-.06,0h-.21a.13.13,0,0,1,0-.1h0a.31.31,0,0,1,.09-.07l0,0a.27.27,0,0,0,.1-.18.67.67,0,0,0,0-.2l0-.54a.21.21,0,0,1,0-.15.12.12,0,0,1,.09-.08.11.11,0,0,1,.14,0,.3.3,0,0,1,0,.21v.45a0,0,0,0,0,0,0v0a.13.13,0,0,0,0,.06V20a.58.58,0,0,0,0,.14.31.31,0,0,0,.09.11s0,0,0,0l.06.09s0,0,0,0a0,0,0,0,1,0,0h0l0,0h0a.06.06,0,0,0-.07,0h0l0,0h0s0,0,0,0h0a0,0,0,0,1,0,0Zm-.05,0h.24s0,0,0,0h0a.1.1,0,0,1,.1,0l0,0h.06s0,0,0,0a.24.24,0,0,0-.06-.09l0,0a.44.44,0,0,1-.08-.11.43.43,0,0,1,0-.14v-.15a.43.43,0,0,0,0-.05v0s0,0,0,0a.06.06,0,0,1,0,0h0v-.4a.46.46,0,0,0,0-.2.12.12,0,0,0-.13,0,.2.2,0,0,0-.08.08.34.34,0,0,0,0,.14l0,.53a1.62,1.62,0,0,1,0,.22.33.33,0,0,1-.11.18l0,0s-.07,0-.08.07h0l0,0a0,0,0,0,1,0,0h0a.11.11,0,0,0,0,.08h.28Z"/><path d="M35.09,20.37h0s0,0,0,0h0s0,0,0-.06l0,0h0v0h0s0,0,0,0a.17.17,0,0,1,0,.07h0s0,0,0,0a0,0,0,0,1,0,0h0a0,0,0,0,1,0,0v0h0a0,0,0,0,0,0,0h0s0,0,0,0l0,0h.06l0,0h0l0,0h0l0,0h0l.06,0v0h0l-.05,0h0l0,0,0,0s0,0,0,0l0,0h0a.08.08,0,0,1,0,0s0,0,0,0,0,0,0,0h0s0,0,0,0h0l0,0h0a.06.06,0,0,1,0,0h0s0,0,0,0Z"/><path d="M35.09,19a.05.05,0,0,0,0,0s0,.09,0,.14a0,0,0,0,0,0,0l0,0h.09l0,0a.07.07,0,0,0,.06,0,.09.09,0,0,0,.06,0l0-.06h.1l0,0,0-.06a.25.25,0,0,0,0-.07.49.49,0,0,0,0-.12.37.37,0,0,0-.16-.19l-.06,0h-.22l-.06,0a.22.22,0,0,0,0,.08A.17.17,0,0,0,35.09,19Z"/><path class="cls-6" d="M33.4,18.25a1.31,1.31,0,0,1,.52-.55l.12-.05a.68.68,0,0,1,.28,0h.2a1,1,0,0,1,.25.08,1.31,1.31,0,0,1,.27.12.55.55,0,0,1,.2.2h0v-.75l0,.16v.05a.45.45,0,0,0,0,.11h0l0,0h0a0,0,0,0,1,0,0v.22a1,1,0,0,0,0-.18.38.38,0,0,1,.09-.15.13.13,0,0,1,.07,0,.14.14,0,0,1,0,.09l0,.07a.66.66,0,0,0-.09.19s0,0,0,0,0,0,0,0l0,0h0s0,0,0,0l0,0,0,.07s0,.08,0,.09.06,0,.07,0a2.17,2.17,0,0,1,.36-.32l.16-.07a1.38,1.38,0,0,1,.39-.09.79.79,0,0,1,.48.18,2.1,2.1,0,0,1,.36.37.23.23,0,0,1,0,.14.19.19,0,0,1-.07.12.37.37,0,0,1,0-.11h-.07v-.06H37l0-.13-.11.08a.29.29,0,0,0,0-.09l-.11.11V18s0,0,0,0l-.1.18a.38.38,0,0,1,0-.15l0,.06a.36.36,0,0,1,0-.1l0,.09h0l0,0a.06.06,0,0,0,0,.06l-.1-.09,0,.11A.16.16,0,0,1,36.3,18l0,.08a1.17,1.17,0,0,1-.05-.11v.13L36,18l0,.1L36,18.07v.06l-.09,0v.07l-.12,0a.08.08,0,0,0,0,.05.33.33,0,0,1-.17,0,.19.19,0,0,1,.08.1.67.67,0,0,1,.7.15.78.78,0,0,1,.19.33,1.59,1.59,0,0,1,.07.38l-.18.08.06-.1v0h0l-.16-.1h0s0,0,0,0,0-.07,0-.11h0a.22.22,0,0,0,0-.08.07.07,0,0,1-.08-.06h0l0-.06,0,0a.77.77,0,0,0,0-.15.27.27,0,0,0-.07.08l-.05,0s0,0,0,0a0,0,0,0,0,0,0,0,0,0,0,0,0,0,0,0,0,0,0,0,0v0h0l-.05-.06s0,0,0,0l0,0s0,0-.07,0,0,0-.06,0l0,0h0l-.06-.05a.13.13,0,0,0,0,.06l.16.13a1.09,1.09,0,0,1,.47.86v.13a1.15,1.15,0,0,1-.1.23c0-.09,0-.17,0-.26a.75.75,0,0,0-.07.12.71.71,0,0,1,0-.25h0v-.07l-.06.07a.27.27,0,0,1,0-.12l0,0,0-.18,0,.05a1.21,1.21,0,0,0-.05-.18l-.06.06,0-.21-.05.06a.5.5,0,0,1-.08-.2.11.11,0,0,0,0,.08l0-.09a.11.11,0,0,1-.07.08.14.14,0,0,1-.11,0s0,0-.06,0,0,0,0,0a.62.62,0,0,0-.12.19L35,19l-.11.23a.8.8,0,0,1,0-.15.3.3,0,0,0-.05.15l0,0s-.06.07-.06.12l-.06,0a.45.45,0,0,0,0,.11l0,0a.5.5,0,0,1,0,.16l-.06,0a.29.29,0,0,0,0,.18.1.1,0,0,1-.06-.05.18.18,0,0,0,0,.22.07.07,0,0,0,0,.11.22.22,0,0,1-.06-.13.77.77,0,0,1,0-.15.93.93,0,0,1,.19-.64,1.25,1.25,0,0,1,.54-.45s.07,0,.06-.08a.07.07,0,0,0-.06,0l-.06,0-.07.05-.05,0s0,0,0,0l0,0,0-.05-.08.07h0v0s0,0,0-.07a.61.61,0,0,0,0,.12l0-.05a1,1,0,0,0-.07.15.08.08,0,0,1,0-.05.25.25,0,0,1,0,.07l0-.08a.37.37,0,0,0,0,.11l0,0,0,.06a.83.83,0,0,1,0-.15l0,.15,0-.1a.83.83,0,0,0,0,.15.37.37,0,0,1-.07-.14l0,.22-.07-.06a.91.91,0,0,0,0,.17s0,0,0,0a.45.45,0,0,0,0,.11l0,0a.41.41,0,0,0,0,.11.56.56,0,0,0-.05-.08l0,.14,0-.06,0,.05a2.33,2.33,0,0,1,.08-.46.68.68,0,0,1,.27-.37.77.77,0,0,1,.33-.12,1.59,1.59,0,0,1,.72,0,.31.31,0,0,0-.11-.09.1.1,0,0,1-.05,0s0-.05,0-.05h-.09s0,0,0-.06h-.16s0,0,0,0l-.11,0h0s0,0,0,0a.05.05,0,0,0-.08,0V18l0,.07,0-.07a1,1,0,0,1-.27.26.67.67,0,0,1,.08-.25s0,0,0,0h0l-.05.07,0-.06a.19.19,0,0,0,0,.07l0-.06-.06.08L34,18s0,.08,0,.12l0-.06a.14.14,0,0,0,0,.09l-.07-.06v.05h0l-.08,0v.06s0,0-.06,0h0s0,.09,0,.12l0,0h0a.11.11,0,0,0,0,.08s0,0,0,0,0,0,0,0v-.05Z"/><path d="M34.36,20h0a.3.3,0,0,1-.06-.14.77.77,0,0,1,0-.15,1,1,0,0,1,.19-.65,1.36,1.36,0,0,1,.55-.46s.06,0,0-.06,0,0,0,0l0,0-.07.05-.06,0s0,0,0,0h0s0,0,0,0l0,0-.06,0a0,0,0,0,1,0,0s0,0,0,0v0l0,.08h0l0,0a.43.43,0,0,0-.05.12h0s0,0,0,0v0l0,0h0l0-.06a.13.13,0,0,0,0,.08h0s0,0,0,0v0l0,0h0l0,0s0-.05,0-.08l0,.08v0h0a0,0,0,0,1,0,0v0l0,.09s0,0,0,0h0l0-.08,0,.15a0,0,0,0,1,0,0h0l0,0s0,.09,0,.13,0,0,0,0h0v.08s0,0,0,0h0v.05l0,0h0l0,0v.1h0a0,0,0,0,1,0,0l0,0,0,0h0s0,0,0,0v-.08a2.66,2.66,0,0,1,.07-.39A.87.87,0,0,1,34,18.4a1,1,0,0,1,.34-.12,1.63,1.63,0,0,1,.66,0l-.06,0h0l-.06,0a.07.07,0,0,1,0,0h-.07s0,0,0,0,0,0,0,0h-.15s0,0,0,0a0,0,0,0,0,0,0h-.09a0,0,0,0,0,0,0l0,0h0a0,0,0,0,1,0,0s0,0,0,0h0s0,0,0,0,0,0,0,0v0h0V18a1,1,0,0,1-.26.24s0,0,0,0h0A.61.61,0,0,1,34.2,18h0l0,.07h0v0s0,0,0,0,0,0,0,0l0,0,0,0h0l0,0a.19.19,0,0,0,0,.08s0,0,0,0h0l0,0a.13.13,0,0,0,0,.06h0s0,0,0,0l0,0v0s0,0,0,0h0l-.06,0v0s0,0,0,0h0a.1.1,0,0,0,0,0v.05a.1.1,0,0,1,0,.07h0l0,0a.14.14,0,0,0,0,.07l0,0h0s0,0,0,0v0h0v0a1.3,1.3,0,0,1,.53-.56l.13-.06a.9.9,0,0,1,.28,0h.2l.26.08c.09,0,.18.07.27.12a.66.66,0,0,1,.17.16v-.69a0,0,0,0,1,0,0h0l0,.17v.05a.29.29,0,0,0,0,.09l0,0s0,0,0,0h0a0,0,0,0,1,0,0v.1h0a.13.13,0,0,0,0-.06.37.37,0,0,1,.1-.17l.08,0s0,0,0,0a.14.14,0,0,1,0,.09.15.15,0,0,1,0,.06v0a1.19,1.19,0,0,0-.08.16l0,0a.06.06,0,0,1,0,.05h0s0,0,0,0,0,0,0,0h0l0,.06a.08.08,0,0,0,0,.07l0,0,.1-.1a1.09,1.09,0,0,1,.26-.22.61.61,0,0,1,.17-.07,1,1,0,0,1,.39-.1h0a.84.84,0,0,1,.49.18,3.32,3.32,0,0,1,.37.38h0a.66.66,0,0,1,0,.15.27.27,0,0,1-.07.13h0a0,0,0,0,1,0,0,.3.3,0,0,1,0-.1h-.06s0,0,0,0v0H37a0,0,0,0,1,0,0s0,0,0,0,0-.05,0-.08l-.07.05h0v0a0,0,0,0,1,0,0l-.07.08h0a0,0,0,0,1,0,0V18l-.09.17h0a0,0,0,0,1,0,0v-.07h0a0,0,0,0,1,0,0,.14.14,0,0,1,0-.06l0,.05h0s0,0,0,0l0,0a0,0,0,0,0,0,0v0h0L36.4,18l0,.07s0,0,0,0h0a.16.16,0,0,1,0-.07v0h0l0-.05v.08h0l-.09,0,0,0,0,.06s0,0,0,0a0,0,0,0,1,0,0l-.06,0v0h-.1v.06h0l-.09,0,0,0v0h0a.24.24,0,0,1-.12,0l0,.05a.69.69,0,0,1,.7.15.88.88,0,0,1,.2.34,1.89,1.89,0,0,1,.07.39,0,0,0,0,1,0,0l-.08,0-.11,0s0,0,0,0v0a.35.35,0,0,0,.06-.09h0L36.37,19s0,0,0,0a0,0,0,0,1,0,0v0l0-.05h-.06v-.08h0l0,0a.05.05,0,0,1,0,0h0v0l0,0h0a.49.49,0,0,0,0-.12l0,.06h0l0,0h0l0,0h0s0,0,0,0,0,0,0,0,0,0,0,0h0s0,0,0,0l0,0,0,0,0,0h-.06s0,0-.07,0h0l0,0,0,0a0,0,0,0,1,0,0h0l0,0v0a.61.61,0,0,0,.15.12,1.14,1.14,0,0,1,.48.88.53.53,0,0,1,0,.13.65.65,0,0,1-.09.23h0a.53.53,0,0,0,0-.13v-.08l0,.08h0l0,0a.93.93,0,0,1,0-.23h0s0,0,0,0v0l0,0h0l0-.1v0h0a0,0,0,0,1,0,0l0-.14,0,0h0a.75.75,0,0,0,0-.16l0,0h0a0,0,0,0,1,0,0l0-.17,0,0a0,0,0,0,1,0,0h0a.69.69,0,0,1-.07-.15v0a0,0,0,0,1,0,0h0l0-.06a.11.11,0,0,1-.07.06.13.13,0,0,1-.12,0h0l0,0h0a.67.67,0,0,0-.11.18h0l0,0-.09.21s0,0,0,0h0a.23.23,0,0,1,0-.11.18.18,0,0,0,0,.1s0,0,0,0,0,0,0,0l0,0,0,0s0,0,0,.07h0s0,0,0,0l0,0v.08s0,0,0,0h0l0,.13h0l0,0a.3.3,0,0,0,0,.16s0,0,0,0h0a.1.1,0,0,1-.05,0,.17.17,0,0,0,0,.18,0,0,0,0,1,0,0,0,0,0,0,1,0,0,.05.05,0,0,0,0,0,0,0,0,0,0,0,.05,0,0,0,0,1,0,0ZM35,18.45a.08.08,0,0,1,.07,0s0,.08-.08.1a1.44,1.44,0,0,0-.53.45,1,1,0,0,0-.19.63l0,.14a.14.14,0,0,0,0,.07h0a.08.08,0,0,1,0,0,.2.2,0,0,1,0-.22h0s0,0,0,0a.45.45,0,0,1,0-.16h0l0,0a.69.69,0,0,0,0-.13,0,0,0,0,1,0,0h0s0-.05,0-.08h0l0,0,0-.06,0,0h0a.61.61,0,0,1,0-.12h0s0,0,0,0l0,.1L35,19a0,0,0,0,1,0,0h0l0,0a.94.94,0,0,1,.12-.18h0s.06,0,.08,0h0a.1.1,0,0,0,.09,0,.11.11,0,0,0,.07-.06s0,0,0,0h0a.05.05,0,0,0,0,0s0,0,0,0a0,0,0,0,1,0,0h0a.49.49,0,0,0,.06.17l0,0h0v0l0,.17,0,0h0s0,0,0,0a.58.58,0,0,1,0,.14l0,0h0l0,.16h0s0,0,0,0h0s0,.06,0,.09l0,0h0s0,0,0,0v.05h0s0,0,0,0a0,0,0,0,1,0,0,.55.55,0,0,0,0,.18l0-.06h0s0,0,0,0a.62.62,0,0,0,0,.13v.06a.51.51,0,0,0,.07-.17s0-.07,0-.12a1.12,1.12,0,0,0-.47-.85.7.7,0,0,1-.16-.13h0s0,0,0-.06h0s0,0,0,0l.06,0v0h0l.06,0h0l0,0h0a0,0,0,0,1,0,0h0s0,0,0,0v0h0l0,0H36l0,0a.08.08,0,0,1,.07,0h0l0,0a.23.23,0,0,1,.07-.07h0s0,.08,0,.12h.05v.05h0v0s0,0,0,0h.05a0,0,0,0,1,0,0v.08h0s0,0,0,0,0,.06,0,.09V19h0l.16.09,0,0s0,0,0,0l0,0,.05,0,.06,0a1.84,1.84,0,0,0-.07-.37.77.77,0,0,0-.18-.32.68.68,0,0,0-.68-.15h0a.24.24,0,0,0-.08-.09s0,0,0,0h0a.3.3,0,0,0,.13,0s0,0,0,0h0l.1,0v0a0,0,0,0,1,0,0s0,0,0,0H36v0s0,0,0,0h0l0,0a.05.05,0,0,1,0,0s0,0,0,0a0,0,0,0,1,0,0l.08,0,.07,0,0-.11h0l0,.07v0s0,0,0,0h0s0,0,0,0a.19.19,0,0,0,0,.09l0-.07s0,0,0,0h0l.07.06v0s0,0,0,0h0l0,0,0-.09s0,0,0,0a0,0,0,0,1,0,0,.64.64,0,0,0,0,.07l0,0s0,0,0,0a0,0,0,0,1,0,0s0,.06,0,.08l.07-.12,0,0a0,0,0,0,1,0,0h0v.19l.08-.08h0a.09.09,0,0,1,0,.05l.07-.05s0,0,0,0,0,0,0,0l0,.1h.09s0,0,0,0v0h.07s0,0,0,.08a.28.28,0,0,0,.05-.09.33.33,0,0,0,0-.14,2.38,2.38,0,0,0-.35-.36.8.8,0,0,0-.47-.17h0a1.24,1.24,0,0,0-.38.09l-.16.07a1.09,1.09,0,0,0-.26.22l-.09.1s-.07.06-.1,0,0-.11,0-.12l0-.06h0s0,0,0,0h0v0l0,0h0s0,0,0,0h0v0a.82.82,0,0,1,.09-.19v0a.09.09,0,0,0,0-.05.14.14,0,0,0,0-.06l0,0a.24.24,0,0,0-.09.14.13.13,0,0,0,0,.06.29.29,0,0,1-.05.13h0s0,0,0,0v-.2h0a0,0,0,0,1,0,0,.11.11,0,0,1,0-.08V18h0s0,0,0,0h0s0,0,0,0a.57.57,0,0,0-.19-.19,2.06,2.06,0,0,0-.26-.12,1.17,1.17,0,0,0-.25-.07h-.2a.83.83,0,0,0-.27,0l-.12.06a1.23,1.23,0,0,0-.5.51h0a0,0,0,0,1,0,0h0v0a.19.19,0,0,1,0-.07l0,0h0l0,0v0a.13.13,0,0,1,0-.06,0,0,0,0,1,0,0h0l0,0v0s0,0,0,0h0l.08,0v0a0,0,0,0,1,0,0h0l0,0a.14.14,0,0,1,0-.06h0l0,0a.2.2,0,0,1,0-.08h0L34,18,34,18h0l0,0h0l0,0h0a0,0,0,0,1,0,0v0l0,0,0,0h.07v0a.83.83,0,0,0-.06.21,1.25,1.25,0,0,0,.23-.23,0,0,0,0,1,0,0h0v0s0,0,0,0,0,0,0,0V18h0l0,0h0s0,0,0,0h.14s0,0,0,0,0,0,0,0h.13a0,0,0,0,1,0,0s0,0,0,0H35s0,0,0,0h0v0l0,0h0l.12.1v0h0a1.59,1.59,0,0,0-.72,0,.93.93,0,0,0-.32.11.77.77,0,0,0-.26.36,1.34,1.34,0,0,0-.07.39h0v-.07a0,0,0,0,1,0,0h0l0,0a.11.11,0,0,0,0-.05s0,0,0,0h0s0,0,0-.07,0,0,0,0h0a.88.88,0,0,1,0-.16,0,0,0,0,1,0,0h0l0,0,0-.19s0,0,0,0l0,0,0,.1,0-.11h0v0l0-.08,0,0h0v0a.49.49,0,0,0,0,.11l0,0a0,0,0,0,1,0,0h0a.16.16,0,0,1,0-.07,0,0,0,0,1,0,0h0l0,.05a.05.05,0,0,0,0,0h0v0a.34.34,0,0,1,.06-.12h0v0l0-.09h0a.14.14,0,0,0,0,.07l.08-.06h0v0h0v0a0,0,0,0,0,0,0h0l.07-.05.07,0Zm.42-.61v0h0Z"/><path d="M35.17,18.86h0v-.11s0,0,0,0,0,0,0,0v.07a.09.09,0,0,1,0,.05Z"/><path d="M35.4,18.84h0s0,0,0,0v0a.19.19,0,0,1,0-.07s0,0,0,0h0s0,.05,0,.07,0,0,0,0S35.41,18.84,35.4,18.84Z"/><path d="M35.19,18.63h0a0,0,0,0,1,0,0v0H35a0,0,0,0,1,0,0,.16.16,0,0,1,.07,0h0l0,0a.08.08,0,0,1,0,0A0,0,0,0,1,35.19,18.63Z"/><path d="M35.34,18.6h0a0,0,0,0,1,0,0,.19.19,0,0,1,.09,0h.1a0,0,0,0,1,0,0h-.11a.11.11,0,0,0-.07,0Z"/><path d="M35.3,18.6s0,0,0,0a.22.22,0,0,1,0-.08h0a.61.61,0,0,1-.07-.1.22.22,0,0,0-.05-.08.09.09,0,0,1,0-.07,0,0,0,0,1,0,0s0,0,0,0h0a.14.14,0,0,1,0-.09h0l0,0s0,0,0,0l0,0a.06.06,0,0,0,0,0s0,0,0,0a0,0,0,0,1,0,0h0l0,0a0,0,0,0,0,0,0s0,0,0,.05,0,0,0,0,0,0,0,0h0a0,0,0,0,1,0,0h0l0,0v0h0s0,0,0,0h0s0,0,0,0a.24.24,0,0,1,.06.09l0,.08h0l0,0s0,0,0,0,0,0,0,0l0,.05a.45.45,0,0,0,0,.11s0,0,0,0Z"/><path d="M35.32,18.34h0l0,0a.16.16,0,0,1,.07-.09l0-.05h0a.07.07,0,0,1-.06-.06,0,0,0,0,1,0,0,.77.77,0,0,1,0-.15s0-.08,0-.11a.07.07,0,0,1,0,0s0,0,0,0a0,0,0,0,1,0,0s0,0,0,0,0,.08,0,.12a.68.68,0,0,0,0,.14v0s0,0,0,0h.1a0,0,0,0,1,0,0l-.07.07s0,.05,0,.08Z"/><path d="M35.34,18.16a0,0,0,0,1,0,0s0,0,0,0l0,0h0s0,0,0,0,0,0,0,0l0,0a.09.09,0,0,1-.06,0Z"/><path d="M30.72,25.38h0l-.27-.68a2.07,2.07,0,0,1-1-.41,1.47,1.47,0,0,1-.14-1.14v-.05c0-.06,0-.15-.19-.21h-.28a0,0,0,0,1,0,0s0,0,0,0l.28-.15a.47.47,0,0,1,.35-.19.35.35,0,0,1,.27.19,1.18,1.18,0,0,1,.07.2.85.85,0,0,0,.16.37c0-.12,0-.35.06-.45a2,2,0,0,1,.47-.27,1.64,1.64,0,0,0,.37-.2,0,0,0,0,1,0,0,0,0,0,0,1,0,0,2.9,2.9,0,0,1-.21.38l.08-.06h0s0,0,0,0a1,1,0,0,1-.06.22c.14,0,.61-.25.67-.41a0,0,0,0,1,0,0s0,0,0,0a1,1,0,0,1-.31.5.5.5,0,0,0,.15-.09h0s0,0,0,0a1.11,1.11,0,0,1-.41.38l.18-.06s0,0,0,0a0,0,0,0,1,0,0,.87.87,0,0,1-.38.23,1.6,1.6,0,0,0,.23,0s0,0,0,0a0,0,0,0,1,0,0,.62.62,0,0,1-.28.17v0s-.07.08-.18.12a2.18,2.18,0,0,1,.25.61,4.21,4.21,0,0,0,.61.54l0,0s0,0,0,0l-.11,0h0v0s0,0,0,0a0,0,0,0,1,0,0l0,0v.05h0l-.08,0-.1.07h0l-.09,0,0,0h-.05l-.07.08Zm-1.78-2.56h.19c.23.06.24.17.23.26v.05c0,.29-.11.84.13,1.1a2.08,2.08,0,0,0,1,.4s0,0,0,0l.27.65.05-.07h.06l0,0h0l.09,0,.1-.07s0,0,0,0l.07,0v0l0,0h0s0,0,0,0h.08l0,0a5.64,5.64,0,0,1-.59-.53v0a1.79,1.79,0,0,0-.26-.62v0h0c.16-.05.17-.09.18-.1s0,0,0,0l0,0a.49.49,0,0,0,.23-.11.71.71,0,0,1-.27-.07,0,0,0,0,1,0,0s0,0,0,0a.67.67,0,0,0,.34-.13,1.66,1.66,0,0,1-.27,0s0,0,0,0l0,0a1.1,1.1,0,0,0,.51-.33l-.31.13s0,0,0,0,0,0,0,0a.94.94,0,0,0,.45-.47,1.79,1.79,0,0,1-.64.32s0,0,0,0,0,0,0,0a.44.44,0,0,0,.06-.16l-.15.08h0s0,0,0,0a1.31,1.31,0,0,0,.23-.36,1.92,1.92,0,0,1-.29.15,2.68,2.68,0,0,0-.45.25c-.08.1,0,.4,0,.5s0,0,0,0h0a.86.86,0,0,1-.23-.46.69.69,0,0,0-.07-.19.31.31,0,0,0-.23-.17h0c-.16,0-.29.18-.3.18h0Z"/><path d="M30.1,23.49h0s0,0,0,0l0-.1a.08.08,0,0,1,0,0,.05.05,0,0,1,0,0s.06-.07.1-.08h.14a.19.19,0,0,0,.12-.07l0-.06.05-.06a.22.22,0,0,1,.09-.07,0,0,0,0,1,0,0s0,0,0,0a.27.27,0,0,0-.08.07l0,.06-.05.06a.3.3,0,0,1-.15.09h-.13a.24.24,0,0,0-.08.06v0a.08.08,0,0,0,0,0l0,.1Z"/><path d="M30.5,23.94a.18.18,0,0,1-.13,0l0,0h0l0,0a.17.17,0,0,0-.12,0,.1.1,0,0,0,0,0s0,0,0,0,0,0,0,0a.12.12,0,0,1,.06-.08.18.18,0,0,1,.16,0l0,0,0,0v0a.25.25,0,0,0,.14,0l0,0a0,0,0,0,1,0,0Z"/><path d="M30.85,25.3l0,0-.39-.74a0,0,0,0,1,0,0,0,0,0,0,1,0,0l.39.74a0,0,0,0,1,0,0Z"/><path d="M31.2,25.25s0,0,0,0l-.68-.76a0,0,0,0,1,0,0,0,0,0,0,1,0,0l.68.76s0,0,0,0A0,0,0,0,1,31.2,25.25Z"/><path d="M31.33,25.17h0l-.74-.72a0,0,0,0,1,0,0s0,0,0,0l.75.72a0,0,0,0,1,0,0Z"/><path d="M29.33,24.22v0h0l.07.05,0,.06s0,0,0,0h.08a0,0,0,0,0,0,0s0,0,0,0a.81.81,0,0,1-.1-.09.1.1,0,0,1,0-.05l0-.06C29.33,24.11,29.33,24.2,29.33,24.22Z"/><path d="M29.13,22.86l0,0,0,0a.08.08,0,0,0,0,0v0h0v0a.05.05,0,0,1,0,0,.08.08,0,0,1,0,0,.11.11,0,0,1,0,.07A.05.05,0,0,1,29.13,22.86Z"/><path d="M29.31,22.77s-.08,0-.08-.05,0-.06.08-.06.09,0,.09.06S29.36,22.77,29.31,22.77Zm0-.09s-.07,0-.07,0,0,0,.07,0,.07,0,.07,0S29.35,22.68,29.31,22.68Z"/><circle cx="29.31" cy="22.72" r="0.03"/><path class="cls-6" d="M28.59,22.61s0,0,0,0a.25.25,0,0,1,0-.09s0,0,0,0v-.07l.05,0,.07,0,.05,0a.11.11,0,0,1,0,.06.13.13,0,0,1,0,.06s0,0,0,0h-.11Z"/><path d="M28.63,22.63h0l0,0a.36.36,0,0,1,0-.09.14.14,0,0,1,0-.06v-.06h0l.06,0,.07,0,.05,0a.16.16,0,0,1,0,.07.13.13,0,0,1,0,.06h0a0,0,0,0,1,0,0h-.07Zm-.12-.25v.06a.43.43,0,0,1,0,0l.05.09,0,0h.1v0h0a.13.13,0,0,0,0-.06.09.09,0,0,0,0-.06l0,0-.08,0Z"/><path class="cls-6" d="M28.75,22.59a.19.19,0,0,1,0-.08.57.57,0,0,1,0-.13h0l.06.05,0,0a.13.13,0,0,1,0,.06.09.09,0,0,1,0,.07.14.14,0,0,1,0,.06h0l0,0h0A0,0,0,0,0,28.75,22.59Z"/><path d="M28.84,22.66h0l0,0h0l0,0s0,0,0,0h0a.19.19,0,0,1,0-.08.57.57,0,0,1,0-.13h0s0,0,0,0l.07.05,0,0a.13.13,0,0,1,0,.06s0,0,0,.07a.09.09,0,0,1,0,.07h0Zm-.08-.08v0h.09l0-.06v-.07s0,0,0-.05,0,0,0,0l-.07,0a0,0,0,0,0,0,0h0s0,.08,0,.12a.15.15,0,0,0,0,.07Z"/><path class="cls-6" d="M28.68,22.67l-.08.06h0v0a.28.28,0,0,0,0,.13l0,0,.06,0,.06-.06s0,0,0,0a.22.22,0,0,0,0-.08,0,0,0,0,0,0,0S28.7,22.65,28.68,22.67Z"/><path d="M28.6,22.9h0a.53.53,0,0,1,0-.13v0l0,0,.07-.06h0s.08-.06.11,0a0,0,0,0,1,0,0,.22.22,0,0,1,0,.08l0,0-.05,0-.06.05Zm.08-.23-.07.06s0,0,0,0h0a.24.24,0,0,0,0,.12h0l.05-.05.06-.05s0,0,0,0a.15.15,0,0,0,0-.07v0s-.06,0-.09,0Z"/><path class="cls-6" d="M28.75,22.89H28.7l0,0L28.6,23h.18l.08,0s0-.06,0-.07h-.13Z"/><path d="M28.71,23h-.06s0,0-.06,0h0l.07-.08s0,0,0,0h.18s0,0,0,0a.16.16,0,0,1,0,.07.15.15,0,0,1-.08,0Zm-.1,0h.17l.07,0a.11.11,0,0,0,0-.06H28.7l0,0Z"/><path class="cls-6" d="M28.85,23.13a.13.13,0,0,0,0,.09.24.24,0,0,1,.06.09,0,0,0,0,0,0,0,.29.29,0,0,1,0-.09s0,0,0,0v0s0,0,0-.05,0,0,0,0,0,0,0,0,0,0,0,0A.33.33,0,0,0,28.85,23.13Z"/><path d="M29,23.32h0a.35.35,0,0,0-.05-.08h0s-.05-.06,0-.1h0a.19.19,0,0,1,0-.08s0,0,0,0h0a0,0,0,0,1,0,0s0,0,.06,0h0l0,0v.05a.13.13,0,0,1,0,.06v0h0s0,0,0,.07v0a.05.05,0,0,1,0,0Zm0-.32s0,0,0,0h0l0,0a.13.13,0,0,0,0,.07h0a.14.14,0,0,0,.05.09h0a.18.18,0,0,1,.05.07h0v0a.64.64,0,0,1,0-.07v0a.07.07,0,0,1,0,0,.09.09,0,0,0,0-.05v0h0S29,23,28.94,23Zm-.09.13Z"/><path class="cls-6" d="M29.08,23.05s0,.06,0,.08h0a.41.41,0,0,0,0-.11.23.23,0,0,0,0-.11,0,0,0,0,0,0,0l0,0H29s0,0,0,0L29,23A.39.39,0,0,1,29.08,23.05Z"/><path d="M29.13,23.15h0a.14.14,0,0,1,0-.06v0h0A.28.28,0,0,0,29,23l0,0,0,0a0,0,0,0,1,0,0s0,0,0,0h.09l.05,0s0,0,0,0a.2.2,0,0,1,0,.11.37.37,0,0,1,0,.11ZM29,22.89h0l0,0h0a.44.44,0,0,1,.09.11h0v0l0,0V23a.34.34,0,0,0,0-.1l0,0H29Z"/><path d="M28.87,23h0A0,0,0,0,1,28.87,23Z"/><path d="M28.83,22.65h0a.14.14,0,0,0,0-.06v0l-.06,0s0,0,0,0h0a.15.15,0,0,1,.06.05v0s0,0,0,.06Z"/><path d="M29,23.11h0v0h0v0h0a0,0,0,0,0,0,0,.06.06,0,0,1,0,0h0v0h0Z"/><path d="M29.08,23H29l0,0h0a0,0,0,0,1,0,0l0,0,0,0h0l.05,0h0Z"/><path d="M28.93,23h0s0,0,0,0,0,0,0-.05h0s0,0,0,.05v0Z"/><path d="M28.9,22.92h0a0,0,0,0,1,0,0,0,0,0,0,1,0,0h0v0s0,0,0,0Z"/><path d="M29,22.76h0l-.21-.11h0l-.05,0a0,0,0,0,1,0,0h0l.07,0h0a.68.68,0,0,0,.21.1s0,0,0,0Z"/><path d="M28.73,22.89h0s0,0,0,0l.1,0s0,0,0,0,0,0,0,0l-.1,0h0Zm0,0Z"/><path d="M28.71,22.72h0l0,0a.06.06,0,0,0,0,0h0a.11.11,0,0,1,0,.05l0,0Z"/><path d="M28.7,22.61h0l0,0,0,0,0,0h0l0,0h0l0,0h0Z"/><path class="cls-5" d="M35.67,22.38a.65.65,0,0,1,.37-.14l.2,0,.12,0,.24.1s0,0,0,0,0,0,0,.06l0,.1a.11.11,0,0,1,0,.09.16.16,0,0,1-.1,0,.3.3,0,0,1-.15,0,.52.52,0,0,1-.11-.1l-.08-.07a.16.16,0,0,0-.09,0l-.09.05-.19.18a.52.52,0,0,1-.11.1.14.14,0,0,1-.14,0l-.06-.07,0-.05s0,0,0,0l0,0,0-.05.08-.09Z"/><path d="M35.57,22.86l-.07,0a.21.21,0,0,1-.06-.08h0s0,0,0,0h0s0,0,0-.05l0,0v0l0,0,.09-.1.1-.09h0a.57.57,0,0,1,.38-.14.51.51,0,0,1,.2,0l.13,0,.24.1,0,0a.06.06,0,0,1,0,.07.43.43,0,0,1,0,.11.25.25,0,0,1,0,.09.17.17,0,0,1-.12.05.25.25,0,0,1-.16,0l-.12-.11h0l-.07-.06-.08,0-.07,0a1.8,1.8,0,0,0-.2.19h0a.44.44,0,0,1-.11.09A.12.12,0,0,1,35.57,22.86Zm.11-.46-.1.09-.08.09,0,.05h0l0,0h0l0,0h0l.05.07a.13.13,0,0,0,.12,0,.39.39,0,0,0,.1-.08h0l.19-.18s.06-.05.09-.05a.14.14,0,0,1,.11,0,.46.46,0,0,1,.07.07h0l.11.1a.33.33,0,0,0,.14,0,.13.13,0,0,0,.09,0,.2.2,0,0,0,0-.08s0-.07,0-.1,0,0,0-.05h0l-.24-.09-.12-.05a.72.72,0,0,0-.19,0,.56.56,0,0,0-.36.14Z"/><path d="M36.4,22.74h0a.19.19,0,0,1,0-.08.09.09,0,0,1,0,0,.33.33,0,0,1,0-.06l.12-.1.09,0a0,0,0,0,1,0,0s0,0,0,0l-.07,0-.11.09,0,.05v0a.17.17,0,0,0,0,.07s0,0,0,0Z"/><path class="cls-8" d="M34.52,22.88v-.1s0,0,0-.06a.08.08,0,0,1,0,0,.67.67,0,0,1,.18-.25.52.52,0,0,1,.28-.06.07.07,0,0,1,.06,0s0,0,0,0a.2.2,0,0,1,0,.11.22.22,0,0,1-.07.09.91.91,0,0,0-.17.17.42.42,0,0,0,0,.1l-.06.12,0,.06a.2.2,0,0,1-.08,0h-.08C34.46,23.1,34.51,22.94,34.52,22.88Z"/><path d="M34.58,23.13h0c-.1,0-.07-.16-.06-.23v-.12s0,0,0-.06a.14.14,0,0,1,0-.06.6.6,0,0,1,.19-.25.53.53,0,0,1,.27-.06.11.11,0,0,1,.08,0,.06.06,0,0,1,0,.05.18.18,0,0,1,0,.12l-.08.09,0,0a.55.55,0,0,0-.12.14.25.25,0,0,0,0,.09h0a.5.5,0,0,1-.05.13l0,.06-.09,0Zm.45-.76h0a.51.51,0,0,0-.27.06.56.56,0,0,0-.18.24l0,.06a.43.43,0,0,0,0,.05v.1h0v0c0,.09,0,.19,0,.21h.08l.07,0a.1.1,0,0,0,0,0,.61.61,0,0,1,0-.12h0l0-.09a.89.89,0,0,1,.13-.14l0,0,.08-.09a.23.23,0,0,0,0-.11s0,0,0,0Zm-.51.51Z"/><path class="cls-8" d="M34.73,22.85a1.09,1.09,0,0,1,.08-.15s0,0,0,0a.58.58,0,0,1,.3-.18s0,0,.06,0a.05.05,0,0,1,0,0v0a.9.9,0,0,1-.09.32.46.46,0,0,0-.07.16.13.13,0,0,0,0,.06.19.19,0,0,1-.15.16l-.12,0-.09,0s0,0,0,0a.45.45,0,0,1,0-.2A.49.49,0,0,1,34.73,22.85Z"/><path d="M34.92,23.27l-.1,0-.09,0h0a.08.08,0,0,1,0-.05.45.45,0,0,1,0-.2.49.49,0,0,1,0-.11h0a.68.68,0,0,1,.08-.15l0-.05a.61.61,0,0,1,.31-.18h.06s0,0,0,0a.13.13,0,0,1,0,.06.75.75,0,0,1-.1.32v0a.43.43,0,0,0,0,.13v.06a.21.21,0,0,1-.16.17Zm-.18-.41a.42.42,0,0,0,0,.1.45.45,0,0,0,0,.2s0,0,0,0h0l.09,0,.11,0a.18.18,0,0,0,.14-.16V23a.5.5,0,0,1,0-.13l0,0a1,1,0,0,0,.09-.32v0l0,0h-.06a.61.61,0,0,0-.29.17l0,.05a.42.42,0,0,0-.08.15Z"/><path class="cls-8" d="M35,23.09A.41.41,0,0,1,35,23a.17.17,0,0,1,0-.07,1,1,0,0,0,0-.1l0-.08,0-.06.06-.06a.39.39,0,0,1,.1-.08.1.1,0,0,1,.12,0l0,0a.14.14,0,0,1,0,.06s0,.06,0,.09a1.18,1.18,0,0,1-.1.19.73.73,0,0,0-.09.32s0,.09,0,.11a.13.13,0,0,1-.16,0,.15.15,0,0,1-.06-.11A.48.48,0,0,1,35,23.09Z"/><path d="M35.16,23.36a.2.2,0,0,1-.11,0,.17.17,0,0,1-.06-.11.56.56,0,0,1,0-.13h0A.41.41,0,0,1,35,23a.17.17,0,0,1,0-.07,1,1,0,0,1,0-.1l.05-.08a.21.21,0,0,1,0-.06l0-.07a.31.31,0,0,1,.11-.08.12.12,0,0,1,.13,0l0,0a.14.14,0,0,1,0,.07s0,.06,0,.09a.61.61,0,0,1-.07.14l0,0a.73.73,0,0,0-.09.32h0a.21.21,0,0,1,0,.11ZM35,23.09a.49.49,0,0,0,0,.12.16.16,0,0,0,.05.1.15.15,0,0,0,.16,0,.19.19,0,0,0,0-.1h0a.79.79,0,0,1,.1-.33.17.17,0,0,1,0-.05.37.37,0,0,0,.07-.14.19.19,0,0,0,0-.08.13.13,0,0,0,0-.06s0,0,0,0a.13.13,0,0,0-.12,0,.19.19,0,0,0-.1.08l-.05.06a.21.21,0,0,1,0,.06l0,.08a.36.36,0,0,0,0,.09S35,23,35,23a.38.38,0,0,1,0,.1Z"/><path class="cls-8" d="M35.17,23.08a.67.67,0,0,1,.13-.25l.11-.16a0,0,0,0,1,0,0h0a.14.14,0,0,1,.09,0,.12.12,0,0,1,0,.1.25.25,0,0,1,0,.12,3.89,3.89,0,0,0-.16.44s0,.09-.06.11h0a.2.2,0,0,1-.15-.05.15.15,0,0,1,0-.07.17.17,0,0,1,0-.1A.49.49,0,0,1,35.17,23.08Z"/><path d="M35.32,23.43a.16.16,0,0,1-.13-.06.08.08,0,0,1,0-.07.11.11,0,0,1,0-.08v0a.41.41,0,0,1,0-.12h0a.79.79,0,0,1,.13-.26l.11-.15,0,0h.13a.11.11,0,0,1,.06.11.22.22,0,0,1,0,.12l-.06.16a1.36,1.36,0,0,0-.11.28h0s0,.09,0,.11h-.06Zm-.14-.35s0,.07,0,.12v0a.19.19,0,0,0,0,.08.11.11,0,0,0,0,.06.14.14,0,0,0,.13.05h0s0-.06.05-.1h0a1.42,1.42,0,0,1,.1-.29l.06-.15a.27.27,0,0,0,0-.12.15.15,0,0,0-.06-.09h-.11l0,0-.11.15a.82.82,0,0,0-.12.25Z"/><path class="cls-8" d="M35.83,23.66a.44.44,0,0,0,.15-.22,1.23,1.23,0,0,0,0-.27A.76.76,0,0,0,36,23v0s0,0,0,0a.19.19,0,0,1,.13,0,.13.13,0,0,1,0,.06.39.39,0,0,1,0,.26.68.68,0,0,1-.12.24l0,.06L36,23.7a.54.54,0,0,1-.12.09h-.08a.07.07,0,0,1-.06,0,.05.05,0,0,1,0-.09h0Z"/><path d="M35.75,23.81h-.06a.08.08,0,0,1,0-.11h0l.06,0h0a.4.4,0,0,0,.15-.22,1.27,1.27,0,0,0,0-.27A.61.61,0,0,0,36,23a0,0,0,0,1,0,0s0,0,0,0a.22.22,0,0,1,.14,0l0,.06a.39.39,0,0,1,0,.28,1.41,1.41,0,0,1-.13.24.21.21,0,0,1,0,.06s0,0,0,.05l0,0,0,0-.09.07h-.1Zm.32-.82h0a.05.05,0,0,0,0,0h0c0,.05,0,.1,0,.15a1.27,1.27,0,0,1,0,.27.4.4,0,0,1-.16.23h0l-.07,0h0l0,0s0,0,0,0,0,0,0,0l.08,0a.24.24,0,0,0,.08-.06l0,0,0,0,.06,0,0-.06a1.12,1.12,0,0,0,.13-.24.39.39,0,0,0,0-.26l0-.05A.17.17,0,0,0,36.07,23Zm-.24.67Z"/><path class="cls-8" d="M35.72,23.48l0-.06,0-.14,0-.13c0-.06,0-.13,0-.19a.11.11,0,0,1,0-.07.1.1,0,0,1,.07,0,.11.11,0,0,1,.08,0,.2.2,0,0,1,0,.08v.25a.44.44,0,0,1,0,.16.25.25,0,0,1,0,.07,1.22,1.22,0,0,1-.07.17.29.29,0,0,1-.14.13h-.14a.14.14,0,0,1-.08-.09s0,0,0,0l0,0A.61.61,0,0,0,35.72,23.48Z"/><path d="M35.74,23.76h-.07a.14.14,0,0,1-.08-.09s0-.05,0-.06,0,0,0,0h0a.18.18,0,0,0,.07-.1h0l0-.06,0-.13,0-.13v-.09a.34.34,0,0,1,0-.1.19.19,0,0,1,0-.08.12.12,0,0,1,.08,0,.11.11,0,0,1,.09,0,.15.15,0,0,1,0,.08v.25a.44.44,0,0,1,0,.16.14.14,0,0,1,0,.06h0l0,0a1.39,1.39,0,0,1-.06.13.24.24,0,0,1-.14.12l-.08,0Zm.22-.9h0a.11.11,0,0,0-.07,0,.15.15,0,0,0,0,.08.28.28,0,0,0,0,.09v.09a.78.78,0,0,1-.05.14l0,.13a.14.14,0,0,1,0,.06h0l-.07.11h0a.06.06,0,0,0,0,0,.11.11,0,0,0,.07.08h.13a.28.28,0,0,0,.14-.12.69.69,0,0,0,0-.13l0-.05h0a.08.08,0,0,1,0-.05,3484625891915.29,3484625891915.29,0,0,0,0-.32.28.28,0,0,1,0-.09.16.16,0,0,0,0-.07A.07.07,0,0,0,36,22.86Zm-.24.62Z"/><path class="cls-8" d="M35.49,23.42a.24.24,0,0,0,0-.08l.09-.27a.84.84,0,0,1,.11-.21l0,0h.07s0,0,0,0,0,0,0,0a1.29,1.29,0,0,1,0,.39.58.58,0,0,1-.17.35l0,0h0a.19.19,0,0,1-.13-.05A.33.33,0,0,1,35.49,23.42Z"/><path d="M35.64,23.65a.2.2,0,0,1-.14-.06.32.32,0,0,1,0-.17s0-.05,0-.08l.09-.27a.63.63,0,0,1,.12-.21l0,0h.11a.08.08,0,0,1,0,0,1.71,1.71,0,0,1,0,.39.53.53,0,0,1-.17.35s0,0,0,0Zm.15-.81h0l0,0a.44.44,0,0,0-.11.2l-.09.28s0,0,0,.07h0a.22.22,0,0,0,0,.16.17.17,0,0,0,.12.05h0l0,0a.55.55,0,0,0,.17-.34,1,1,0,0,0,0-.38s0,0,0,0h-.05Zm-.3.58Z"/><path class="cls-8" d="M35.36,23.28a.76.76,0,0,0,.06-.16s0,0,0-.05a.75.75,0,0,1,.13-.27l0,0s0,0,.07,0h0a0,0,0,0,1,0,0,.17.17,0,0,1,0,.12.82.82,0,0,1-.06.27.52.52,0,0,1-.06.13l-.09.16s0,0,0,0h0s-.13,0-.13-.05A.42.42,0,0,1,35.36,23.28Z"/><path d="M35.47,23.53h0s-.14,0-.14-.06a.5.5,0,0,1,0-.19h0l0-.07a.32.32,0,0,0,0-.09v-.05a.79.79,0,0,1,.13-.28l0,0h.1l0,0a.2.2,0,0,1,0,.13.78.78,0,0,1,0,.28l-.06.13-.09.16s0,0,0,0Zm-.1-.25a.36.36,0,0,0,0,.19s.09,0,.12,0h0s0,0,0,0l.09-.16.07-.13a1.08,1.08,0,0,0,.05-.27.25.25,0,0,0,0-.12l0,0H35.6l0,0a.84.84,0,0,0-.13.27h0v0l0,.09,0,.06Z"/><path class="cls-6" d="M34.2,23.73v0c0-.07,0-.14,0-.17,0-.28.2-.54.31-.54s0,.08,0,.13a3.52,3.52,0,0,1-.25.71h0a.11.11,0,0,1-.09-.06h0Z"/><path d="M34.29,23.83a.11.11,0,0,1-.1-.07h0v0a.49.49,0,0,0,0-.12v-.05c0-.28.2-.55.32-.55h0a.23.23,0,0,1,0,.12h0a3.13,3.13,0,0,1-.11.36c-.07.23-.13.35-.15.35ZM34.5,23c-.1,0-.3.24-.3.53v.05s0,.08,0,.12v0h0s0,.06.08.06h0a3.61,3.61,0,0,0,.25-.7h0s0-.09,0-.1S34.51,23,34.5,23Z"/><path class="cls-6" d="M34.33,23.82s0-.08,0-.13c0-.21.19-.67.34-.67s.1,0,.1.14l-.22.6c0,.06,0,.1-.11.1l0,0Z"/><path d="M34.43,23.87l-.06,0h0l0,0h0a.09.09,0,0,0,0-.05v-.08c0-.22.19-.68.35-.68s.11,0,.11.15h0l-.22.6h0S34.5,23.87,34.43,23.87Zm-.09-.06,0,0h.06c.06,0,.08,0,.1-.08h0l.21-.6c0-.08,0-.13-.09-.13s-.34.45-.34.66c0,0,0,0,0,.08S34.34,23.8,34.34,23.81Zm0,0Z"/><path class="cls-6" d="M34.48,23.82s0,0,0,0c0-.24.25-.68.36-.68s.07.06.07.12l-.24.56s0,.09,0,.09a.28.28,0,0,1-.12,0Z"/><path d="M34.61,23.88a.24.24,0,0,1-.13-.05h0v0c0-.25.25-.69.36-.69s.07.1.07.13h0c-.2.48-.23.56-.23.57h0v0S34.63,23.88,34.61,23.88Zm-.12-.07h0a.28.28,0,0,0,.12,0s0,0,0-.06v0s.22-.53.24-.57,0-.1-.06-.1-.35.44-.35.67a0,0,0,0,0,0,0Z"/><path class="cls-7" d="M33.19,16.19V26.44l-.65.26,0,0,0,0-.65-.26V16.19Z"/><path class="cls-6" d="M34.63,23.88v0c0-.19.13-.68.32-.68s.1,0,.1.12a4,4,0,0,1-.3.66h0S34.66,23.9,34.63,23.88Z"/><path d="M34.75,24h0l-.05,0,0,0h0v0c0-.2.13-.69.33-.69s.11,0,.11.13a2,2,0,0,1-.14.35C34.78,24,34.76,24,34.75,24Zm-.11-.07h0l0,0h0a4.76,4.76,0,0,0,.29-.65c0-.09,0-.11-.09-.11s-.31.47-.31.67Z"/><path class="cls-6" d="M34.84,24h0c0-.07.24-.65.49-.65,0,0,.06,0,.06.05s-.29.67-.38.67a.15.15,0,0,1-.1,0Z"/><path d="M35,24.09a.12.12,0,0,1-.1,0l0,0,0,0h0c0-.07.24-.66.5-.66h.05a.06.06,0,0,1,0,.05C35.36,23.52,35.07,24.09,35,24.09ZM34.84,24l0,0,0,0a.16.16,0,0,0,.09,0,1.56,1.56,0,0,0,.37-.66s0,0,0,0h0c-.23,0-.47.53-.48.63h0Z"/><path class="cls-6" d="M35.69,23.79l.09,0c.08,0,.13,0,.13.11s-.46.48-.64.48h-.05v0a5.2,5.2,0,0,1,.38-.44Z"/><path d="M35.27,24.37h-.06v0h0s.06-.1.35-.41l0,0,0-.05a.08.08,0,0,0,0,0h0l.1,0c.09,0,.14,0,.14.12S35.44,24.37,35.27,24.37Zm.51-.59-.09,0h0l0,0s0,0,0,.05l0,0-.35.39h.05a1.13,1.13,0,0,0,.63-.47C35.9,23.81,35.86,23.78,35.78,23.78Zm-.09,0Z"/><path class="cls-6" d="M34.77,24v-.09c0-.19.18-.61.36-.61h0c.06,0,.07.06.07.11a1.87,1.87,0,0,1-.4.59h0Z"/><path d="M34.77,24h0v-.09c0-.19.19-.62.37-.62h0s.07,0,.07.11-.32.6-.41.6h0Zm0,0Zm0,0h0a2,2,0,0,0,.39-.58c0-.06,0-.09-.06-.1h0c-.17,0-.36.42-.36.6v.08Z"/><path class="cls-6" d="M35.56,23.68h.16a0,0,0,0,1,.05,0c0,.07-.41.58-.59.58a.1.1,0,0,1-.08-.08h0a2.74,2.74,0,0,0,.3-.33,1.71,1.71,0,0,1,.11-.14Z"/><path d="M35.18,24.31a.1.1,0,0,1-.09-.09h0l.08-.09c.07-.08.18-.18.22-.24l0-.06.07-.09.06-.06h.16a.05.05,0,0,1,.06.06C35.78,23.8,35.36,24.31,35.18,24.31Zm-.07-.09h0s0,.08.07.08.59-.52.59-.58,0,0-.05,0h-.08s0,0,0,0h0l-.06,0-.06.09a.21.21,0,0,1,0,.06,1.55,1.55,0,0,1-.22.24l-.08.09Z"/><path class="cls-6" d="M35.45,23.58a.16.16,0,0,1,.13,0,.07.07,0,0,1,.07.06v0h0l-.1.16c0,.07-.33.42-.45.42h0s0,0,0-.08l.34-.51a.08.08,0,0,1,0,0Z"/><path d="M35.1,24.23h0a.11.11,0,0,1-.05-.09h0l.34-.52,0,0h0a.24.24,0,0,1,.14,0,.08.08,0,0,1,.08.06v0h0l-.1.16h0C35.51,23.87,35.23,24.23,35.1,24.23Zm0-.08s0,.06,0,.06h0c.11,0,.4-.34.44-.41h0l.1-.15h0v0a.06.06,0,0,0-.06-.05.24.24,0,0,0-.13,0h0l0,0Zm.39-.57Z"/><path class="cls-3" d="M28.09,15.83c0,.13-.06.23-.15.23s-.16-.1-.16-.23.07-.23.16-.23S28.09,15.71,28.09,15.83Z"/><path d="M27.94,16.08c-.1,0-.17-.11-.17-.25s.07-.24.17-.24.17.11.17.24S28,16.08,27.94,16.08Zm0-.46c-.08,0-.14.1-.14.21s.06.22.14.22.14-.1.14-.22S28,15.62,27.94,15.62Z"/><path class="cls-3" d="M28.64,15.83c0,.13.07.23.15.23s.16-.1.16-.23-.07-.23-.16-.23S28.64,15.71,28.64,15.83Z"/><path d="M28.79,16.08c-.09,0-.17-.11-.17-.25s.08-.24.17-.24.18.11.18.24S28.89,16.08,28.79,16.08Zm0-.46c-.07,0-.13.1-.13.21s.06.22.13.22.14-.1.14-.22S28.87,15.62,28.79,15.62Z"/><path class="cls-3" d="M28.85,15.63c0,.14-.22.25-.48.25s-.49-.11-.49-.25.22-.25.49-.25S28.85,15.49,28.85,15.63Z"/><path d="M28.37,15.9c-.29,0-.51-.12-.51-.27s.22-.27.51-.27.5.12.5.27S28.65,15.9,28.37,15.9Zm0-.5c-.26,0-.47.1-.47.23s.21.23.47.23.46-.11.46-.23S28.62,15.4,28.37,15.4Z"/><path class="cls-3" d="M28.85,16.12c0,.14-.22.25-.48.25s-.49-.11-.49-.25.22-.25.49-.25S28.85,16,28.85,16.12Z"/><path d="M28.37,16.39c-.29,0-.51-.12-.51-.27s.22-.27.51-.27.5.12.5.27S28.65,16.39,28.37,16.39Zm0-.5c-.26,0-.47.1-.47.23s.21.23.47.23.46-.1.46-.23S28.62,15.89,28.37,15.89Z"/><path class="cls-3" d="M28.85,15.85c0,.14-.22.25-.48.25s-.49-.11-.49-.25.22-.25.49-.25S28.85,15.71,28.85,15.85Z"/><path d="M28.37,16.12c-.29,0-.51-.12-.51-.27s.22-.27.51-.27.5.12.5.27S28.65,16.12,28.37,16.12Zm0-.5c-.26,0-.47.1-.47.23s.21.23.47.23.46-.11.46-.23S28.62,15.62,28.37,15.62Z"/><path class="cls-6" d="M35,24.11h0c0-.19.28-.68.44-.68s.08,0,.08.09h0c0,.07-.33.59-.47.59h0A0,0,0,0,1,35,24.11Z"/><path d="M35,24.13h0a0,0,0,0,1,0,0h0c0-.18.28-.68.45-.68h0s.08,0,.08.09h0C35.51,23.61,35.17,24.13,35,24.13Zm0,0h0c.13,0,.47-.53.47-.59h0c0-.08,0-.08-.07-.08h0C35.27,23.44,35,23.92,35,24.11Z"/><path class="cls-6" d="M34.75,24.83c.25-.07.57-.19.57-.43,0,0,0,0,0,0h0a2.34,2.34,0,0,0-.58.42h0s0,0,0,0Z"/><path d="M34.75,24.84h0s0,0,0,0h0a2.3,2.3,0,0,1,.58-.43h0s0,0,0,0c0,.26-.39.38-.57.44Zm.53-.47a2.78,2.78,0,0,0-.57.41s0,0,0,0h0c.27-.09.55-.2.55-.42,0,0,0,0,0,0Z"/><path class="cls-6" d="M34.67,24.76h0a1,1,0,0,0,.56-.43v0s0,0-.09,0a1.43,1.43,0,0,0-.54.46v0h0Z"/><path d="M34.67,24.77h0s0,0,0,0v0a1.41,1.41,0,0,1,.55-.47h0a.08.08,0,0,1,.07,0,0,0,0,0,1,0,0v0a1,1,0,0,1-.57.44h0Zm0,0h.06a1,1,0,0,0,.55-.42v0s0,0,0,0h-.07a1.37,1.37,0,0,0-.53.45v0Z"/><path class="cls-6" d="M34.6,24.71c.31-.1.57-.35.57-.48s-.05-.07-.08-.07h0a2,2,0,0,0-.46.54Z"/><path d="M34.6,24.72h0s.39-.55.47-.55h0a.11.11,0,0,1,.09.08c0,.13-.27.38-.57.48Zm0,0Zm.45-.54a2.55,2.55,0,0,0-.45.52c.29-.1.55-.34.55-.46a.09.09,0,0,0-.07-.06h0Z"/><path class="cls-6" d="M34.2,24.84a1.75,1.75,0,0,0,.33.05c.11,0,.27,0,.28-.07h0s0-.08-.11-.08h0c-.08,0-.3.05-.37.06Z"/><path d="M34.55,24.9h0a.8.8,0,0,1-.23,0l-.1,0s0,0,0,0h0l.06,0,.07,0h.06l.31-.05h0c.09,0,.12.05.12.09h0C34.81,24.9,34.66,24.9,34.55,24.9Zm-.32-.06h.07a.85.85,0,0,0,.23,0h0c.1,0,.25,0,.25-.06h0s0-.07-.1-.07h0l-.31.05h-.06l-.07,0Z"/><path class="cls-6" d="M34.21,24.83a1,1,0,0,0,.26,0c.08,0,.26-.05.26-.13a.08.08,0,0,0-.08-.08h0a2.43,2.43,0,0,1-.37.15Z"/><path d="M34.47,24.86a.72.72,0,0,1-.26,0h0l0,0a2.43,2.43,0,0,0,.37-.15h0a.1.1,0,0,1,.09.09C34.74,24.82,34.54,24.86,34.47,24.86Zm-.24,0a.93.93,0,0,0,.24,0c.09,0,.25-.05.25-.12a.07.07,0,0,0-.07-.07h0a2.45,2.45,0,0,1-.36.15Z"/><path class="cls-6" d="M34.55,24.69a1.17,1.17,0,0,0,.51-.56c0-.05-.08-.08-.13-.08h0l-.36.6a0,0,0,0,0,0,0Z"/><path d="M34.55,24.7h0v0s0,0,0,0l.18-.3c.18-.31.18-.31.19-.31h0c.06,0,.14,0,.14.09a1.23,1.23,0,0,1-.51.57Zm.37-.64-.36.6h0a1.24,1.24,0,0,0,.49-.55c0-.05-.08-.07-.12-.07Z"/><path class="cls-6" d="M34.52,24.66a.89.89,0,0,0,.41-.64s0-.05,0-.05-.42.62-.42.69h0a0,0,0,0,0,0,0Z"/><path d="M34.52,24.67h0s0,0,0,0h0c0-.08.31-.7.43-.7s0,0,0,.06a.93.93,0,0,1-.4.65Zm0,0h0a.91.91,0,0,0,.4-.64s0,0,0,0-.39.57-.41.67h0Z"/><path class="cls-6" d="M34.47,24.63a.67.67,0,0,0,.36-.68s0-.05-.07-.05-.34.69-.34.71h0Z"/><path d="M34.47,24.64h0s0,0,0,0a3.8,3.8,0,0,1,.14-.37c.15-.35.2-.35.21-.35s.08,0,.08.06a.65.65,0,0,1-.33.66l0,0Zm.29-.73a3,3,0,0,0-.33.7h0l0,0c.11-.06.31-.19.31-.64C34.82,23.93,34.82,23.91,34.76,23.91Z"/><path class="cls-6" d="M34.38,24.61c.17-.06.32-.47.32-.67s0-.1-.05-.1c-.22,0-.29.63-.29.73v0Z"/><path d="M34.38,24.62h0l0,0v0c0-.09.06-.74.3-.74a.06.06,0,0,1,.05,0s0,0,0,.07v0c0,.19-.15.62-.33.68Zm.27-.77c-.2,0-.28.6-.28.72v0h0c.17-.06.31-.47.31-.66v0s0-.05,0-.06Z"/><path class="cls-6" d="M34.34,24.59a1.75,1.75,0,0,0,.28-.74s0-.06-.09-.06h0c-.19,0-.24.32-.24.51a.58.58,0,0,0,.06.26S34.33,24.58,34.34,24.59Z"/><path d="M34.34,24.6h0s0,0,0,0a.66.66,0,0,1-.06-.27c0-.18,0-.52.25-.52h0c.09,0,.1,0,.1.07a1.79,1.79,0,0,1-.28.74Zm.19-.8h0c-.18,0-.23.33-.23.5a.75.75,0,0,0,0,.26h0a1.75,1.75,0,0,0,.28-.72S34.62,23.8,34.53,23.8Z"/><path class="cls-6" d="M34.33,24.51v0a2.1,2.1,0,0,1,.15-.68h0s-.09,0-.12,0c-.21,0-.22.36-.22.64v0a.16.16,0,0,0,.14.14s.06,0,.06,0h0Z"/><path d="M34.28,24.57a.18.18,0,0,1-.15-.15v0c0-.26,0-.65.23-.65.06,0,.13,0,.13,0h0a1.9,1.9,0,0,0-.15.67v0h0S34.31,24.57,34.28,24.57Zm.08-.81c-.21,0-.21.4-.21.64v0a.16.16,0,0,0,.13.13s0,0,0,0h0v0a2.08,2.08,0,0,1,.15-.67h0A.44.44,0,0,0,34.36,23.76Zm0,.75Z"/><path class="cls-6" d="M34.23,24.47c0-.07,0,0,0-.16a1.89,1.89,0,0,1,.12-.56,0,0,0,0,0,0,0h0c-.07,0-.24.09-.24.47,0,.17,0,.31.14.31s.06,0,.06,0Z"/><path d="M34.17,24.51c-.15,0-.15-.15-.15-.31,0-.36.15-.47.25-.48h0a0,0,0,0,1,0,0h0a1.67,1.67,0,0,0-.12.55.4.4,0,0,0,0,.11s0,0,0,0h0S34.21,24.51,34.17,24.51Zm.11-.77h0s-.23,0-.23.46c0,.19,0,.3.13.3s0,0,0,0h0s0,0,0,0,0,0,0-.12a1.75,1.75,0,0,1,.12-.56,0,0,0,0,0,0,0Z"/><path class="cls-6" d="M34.11,24.46a1,1,0,0,1,0-.25s0-.09,0-.13a1,1,0,0,1,.13-.33h0c-.16,0-.24.29-.24.46s0,.29.17.27Z"/><path d="M34.08,24.47l-.08,0a.38.38,0,0,1-.07-.26c0-.16.08-.47.25-.47h.06v0h0a.76.76,0,0,0-.13.32s0,0,0,.07v.06a1.29,1.29,0,0,0,0,.25h0Zm.1-.73c-.15,0-.23.27-.23.45s0,.21.06.24a.1.1,0,0,0,.09,0,1.77,1.77,0,0,1,0-.24v-.13a.79.79,0,0,1,.13-.33h0S34.21,23.74,34.18,23.74Z"/><path class="cls-3" d="M28.65,16s0,0,0,0a.11.11,0,0,1-.07,0s-.06,0-.06,0,0,0,0,0v.06s0,.07,0,.09.12,0,.16,0,0-.08,0-.13S28.66,16,28.65,16Z"/><path d="M28.56,16.3a.08.08,0,0,1-.07,0s0-.07,0-.1v-.08a.09.09,0,0,1,.07-.06h0l.06,0h0l0,0s0,0,0,0a.56.56,0,0,1,0,.12c0,.06,0,.11,0,.15A.16.16,0,0,1,28.56,16.3Zm.08-.28h0s-.05,0-.07,0h0a.07.07,0,0,0-.05,0h0v.06a.11.11,0,0,0,0,.08s.1,0,.13,0,0-.06,0-.12Z"/><path class="cls-3" d="M28.37,16.14a0,0,0,0,1,0,0l0,0h.1a0,0,0,0,1,0,0,.34.34,0,0,1,0,.1v.07h0l-.05,0a.05.05,0,0,1-.07,0A.5.5,0,0,1,28.37,16.14Z"/><path d="M28.44,16.31s-.05,0-.06,0a.27.27,0,0,1,0-.12h0s0,0,0,0l0,0a.18.18,0,0,1,.1,0h0s0,0,0,0a.22.22,0,0,1,0,.11v.05s0,0,0,0a0,0,0,0,1,0,0l-.06,0Zm-.05-.17a.36.36,0,0,0,0,.11s0,0,.05,0l0,0h0V16.2a.34.34,0,0,0,0-.1h-.1v0Z"/><path class="cls-3" d="M28.4,16.23a.09.09,0,0,0,0-.07s0,0,0,0h-.15a0,0,0,0,0,0,0l0,0a.17.17,0,0,0,0,.07.08.08,0,0,0,0,.08h.05a.14.14,0,0,0,.09,0s0,0,0,0S28.39,16.25,28.4,16.23Z"/><path d="M28.26,16.37l-.05,0a.12.12,0,0,1,0-.09.1.1,0,0,1,0-.07v0h0a0,0,0,0,1,0,0s.05,0,.06,0h.08l0,0s0,0,0,0a.08.08,0,0,1,0,.08h0v.06h0a.05.05,0,0,1,0,0s-.08,0-.1,0Zm0-.23h0v0s0,0,0,0h0a.13.13,0,0,0,0,.06s0,0,0,.06h0a.11.11,0,0,0,.08,0,0,0,0,0,1,0,0h0s0,0,0,0v0h0a.11.11,0,0,0,0,0v0h-.1Zm.12.09Z"/><path class="cls-6" d="M34.4,24.8l.09,0a.24.24,0,0,0,.11-.06.05.05,0,0,0,0,0l0,0h-.11l-.22.1s-.07.07,0,.07Z"/><path d="M34.26,24.84l0,0a.1.1,0,0,1,.05-.06,1.06,1.06,0,0,1,.21-.11h.12l0,0a.09.09,0,0,1,0,.05.21.21,0,0,1-.1.06h-.15l-.09,0Zm.28-.19h0a1.36,1.36,0,0,0-.21.1.14.14,0,0,0,0,0s0,0,0,0l.09,0h.14a.21.21,0,0,0,.1-.06s0,0,0,0l0,0h-.05Zm-.14.15Z"/><path class="cls-3" d="M28.11,16.24s0,0,0,0a.08.08,0,0,1,.07,0h0s0,.07,0,.1l0,0a.14.14,0,0,1,0,.06.07.07,0,0,1,0,.06l-.06,0c-.05,0-.05,0-.06-.06S28.12,16.29,28.11,16.24Z"/><path d="M28.2,16.46h0c-.06,0-.07,0-.08-.07a.71.71,0,0,1,0-.14.08.08,0,0,1,0-.07.11.11,0,0,1,.08,0h0a.13.13,0,0,1,0,.06v0s0,0,0,0h0a.14.14,0,0,1,0,.07.08.08,0,0,1,0,.07A.07.07,0,0,1,28.2,16.46Zm0-.27h-.05a.06.06,0,0,0,0,0h0a.59.59,0,0,0,0,.14s0,.05,0,.05h0a.08.08,0,0,0,0-.05l0-.05h0v0a.09.09,0,0,1,0-.05v0Z"/><path class="cls-3" d="M28.19,15.46a1.48,1.48,0,0,1,0-.21s0,0,0,0a0,0,0,0,0,0,0,.08.08,0,0,0,0,0,.09.09,0,0,0,0,0s0,0,0,.06A.83.83,0,0,0,28.19,15.46Z"/><path d="M28.19,15.48h0a.34.34,0,0,1-.09-.12h0s0,0,0-.06a.11.11,0,0,1,0-.06s0,0,.05,0a.06.06,0,0,1,.07,0,.07.07,0,0,1,0,.05v.06a.75.75,0,0,0,0,.15v0Zm0-.27h0l0,0a0,0,0,0,0,0,.08h0a.56.56,0,0,0,.05.08.34.34,0,0,1,0-.1v-.09Z"/><path class="cls-3" d="M28.25,15.34l0,0,0,0a.12.12,0,0,0,.05.05h0a.24.24,0,0,0,0-.23l0,0h-.06s0,0,0,0A.22.22,0,0,1,28.25,15.34Z"/><path d="M28.35,15.5h0s0,0-.06-.06l0,0a.08.08,0,0,1,0-.05h0a.07.07,0,0,1,0-.05,0,0,0,0,0,0,0s0,0,0-.06h.08l0,0a.28.28,0,0,1,0,.25h0Zm-.08-.16,0,0,0,.05a.08.08,0,0,0,0,0,.23.23,0,0,0,0-.2l0,0h0s0,0,0,0v.08Z"/><path class="cls-3" d="M28.46,15.42h0l0,0a0,0,0,0,0,0,0v-.12a.08.08,0,0,0,0,0s0,0-.07,0S28.41,15.37,28.46,15.42Z"/><path d="M28.48,15.45h0l0,0h0a.22.22,0,0,1-.07-.17.13.13,0,0,1,.05-.07.07.07,0,0,1,.1,0,.06.06,0,0,1,0,0v.16l0,0Zm0,0h0v0s0,0,0,0v-.15h-.05a.05.05,0,0,0,0,0A.19.19,0,0,0,28.47,15.41Z"/><path class="cls-3" d="M28.55,15.26v.13h0l0,0h.05l0,0a.18.18,0,0,0,.05-.07v0s0-.06,0-.08l-.06,0S28.56,15.22,28.55,15.26Z"/><path d="M28.6,15.44h0l0,0v0s0,0,0,0v-.11c0-.09.06-.1.08-.1l.07,0a.11.11,0,0,1,.06.09.08.08,0,0,1,0,0,.43.43,0,0,1,0,.07l0,0Zm0-.24s0,0,0,.06h0v.11h.06l0,0a.43.43,0,0,0,0-.07v0s0,0,0-.06l-.05,0Zm-.06.06Z"/><path class="cls-6" d="M34.21,24.81c.11,0,.28-.07.28-.18v0s0,0-.06,0-.09.06-.12.1A.53.53,0,0,0,34.21,24.81Z"/><path d="M34.21,24.82h0l.06-.08,0,0,0,0s.06-.08.11-.08.07,0,.07,0v0c0,.12-.17.17-.29.19Zm.22-.22a.11.11,0,0,0-.09.07l0,0,0,0,0,.06c.11,0,.25-.07.25-.17v0Z"/><path class="cls-6" d="M34.19,24.81c.16-.06.22-.15.22-.21a.08.08,0,0,0-.07-.08c-.09,0-.15.13-.15.24v0Z"/><path d="M34.19,24.81h0v0c0-.11.07-.25.16-.25a.09.09,0,0,1,.08.09c0,.06-.07.16-.22.21Zm.15-.28c-.08,0-.14.13-.14.23v0c.15-.05.21-.14.21-.19S34.36,24.53,34.34,24.53Z"/><path class="cls-6" d="M34.17,24.81a.34.34,0,0,0,.16-.29.07.07,0,0,0-.08-.08h0c-.07,0-.09.21-.09.29s0,0,0,.05Z"/><path d="M34.17,24.82h0l0,0s0,0,0-.06,0-.28.1-.29h0c.06,0,.08,0,.08.09a.35.35,0,0,1-.15.3Zm.08-.37h0c-.07,0-.09.17-.09.28a.09.09,0,0,0,0,.05v0a.36.36,0,0,0,.14-.28A.06.06,0,0,0,34.25,24.45Z"/><path class="cls-6" d="M34.16,24.82c.05-.07.08-.07.08-.16s0-.06,0-.09v0c0-.1,0-.1-.07-.1s-.07.08-.07.14h0a.65.65,0,0,0,.06.21S34.16,24.81,34.16,24.82Z"/><path d="M34.16,24.83h0v0l0-.07a.49.49,0,0,1,0-.14h0c0-.1,0-.15.08-.15s.08,0,.08.11v.13a.17.17,0,0,1,0,.13l0,0Zm0-.39s-.06.08-.06.13h0a.32.32,0,0,0,0,.14l0,.07h0l0,0a.21.21,0,0,0,0-.12v-.05a.06.06,0,0,1,0,0v0C34.22,24.44,34.2,24.44,34.16,24.44Z"/><path class="cls-6" d="M34.15,24.85s0-.07,0-.1-.07-.35-.14-.35h0s-.06,0-.06.08.17.24.19.31A.14.14,0,0,1,34.15,24.85Z"/><path d="M34.15,24.86h0s0,0,0,0v0l-.08-.11c-.06-.07-.12-.14-.12-.2a.08.08,0,0,1,.07-.09h0c.08,0,.14.2.14.36v.1ZM34,24.4s0,0,0,.08.06.12.11.19a.49.49,0,0,1,.08.12h0v0c0-.17-.07-.34-.13-.34h0Z"/><path class="cls-5" d="M34.11,24.85a.09.09,0,0,1,.06-.07.07.07,0,0,1,.06,0s0,0,0,0h0s0,0,0,0l0,0h0l0,0Z"/><path d="M34.18,24.92h0l0,0a0,0,0,0,1,0,0,.1.1,0,0,1,.06-.08.11.11,0,0,1,.08,0v.07s0,0,0,0a.05.05,0,0,1,0,0Zm0-.13h0a.06.06,0,0,0-.05.06h0v0l0,0h0l0,0v0h0a.06.06,0,0,0,0,0A.05.05,0,0,0,34.18,24.79Zm-.07.06Z"/><path class="cls-5" d="M34,24.84a.18.18,0,0,0-.1,0,.18.18,0,0,0-.09.08.86.86,0,0,0-.1.16,3.19,3.19,0,0,0-.11.33,1.3,1.3,0,0,1-.14.26.77.77,0,0,1,.26-.12l0,0c.12-.08.24-.15.35-.24a.46.46,0,0,0,.12-.12.32.32,0,0,0,0-.19.11.11,0,0,0,0-.08.13.13,0,0,0-.09,0l-.08,0S34,24.84,34,24.84Z"/><path d="M33.44,25.71h0s0,0,0,0a1.26,1.26,0,0,0,.13-.26.58.58,0,0,0,0-.14l.06-.19a1.16,1.16,0,0,1,.11-.16.2.2,0,0,1,.09-.09H34a.18.18,0,0,1,.1,0,.08.08,0,0,0,.07,0,.11.11,0,0,1,.09,0,.14.14,0,0,1,0,.09.39.39,0,0,1-.05.2.53.53,0,0,1-.13.13l-.35.23,0,0-.11,0a.41.41,0,0,0-.15.07Zm.53-.85h-.09L33.8,25l-.09.15a1.46,1.46,0,0,0-.07.19.83.83,0,0,1,0,.15,1.74,1.74,0,0,1-.1.19l.09,0,.1,0,0,0,.35-.23a.68.68,0,0,0,.12-.12.3.3,0,0,0,0-.18.1.1,0,0,0,0-.07l-.06,0a.15.15,0,0,1-.1,0s0,0-.07,0h0Z"/><path d="M33.62,25.61h0v0l.06,0,0,0a.49.49,0,0,0,.12-.13.33.33,0,0,0,0-.15.27.27,0,0,1,0-.12.35.35,0,0,1,.21-.22h0s0,0,0,0a.3.3,0,0,0-.19.19l0,.12a.49.49,0,0,1,0,.16.38.38,0,0,1-.12.13l0,0,0,.05Z"/><path class="cls-9" d="M31.72,14.07a.2.2,0,0,0,0,.22.34.34,0,0,0,.19.14.78.78,0,0,0,.31,0,1.58,1.58,0,0,1,.47-.1,1.14,1.14,0,0,1,.39.14,1.18,1.18,0,0,0,.49.12,1.89,1.89,0,0,0,.47-.11l.39-.15a2.14,2.14,0,0,1,.56-.11h.18c.16,0,.3.13.46.12a.24.24,0,0,0,.19-.12.72.72,0,0,0,.09-.2.24.24,0,0,1,.13.11.55.55,0,0,1,.07.31.71.71,0,0,1,0,.14.16.16,0,0,0,.08,0l0,0h0l0,0h.06a.11.11,0,0,1,.09.06.33.33,0,0,1,.06.1.32.32,0,0,1,0,.14s0,.06,0,.08,0,0,0,0l0,0a.15.15,0,0,1-.09.06h0s0,0,0,0a.1.1,0,0,1,0-.09.14.14,0,0,1,0-.08.2.2,0,0,0-.15,0,.84.84,0,0,0-.14.06l-.11.09-.14.14a.65.65,0,0,1-.35.15.49.49,0,0,1,.1.15c0,.06.07.11.13.13s0,0,.06,0l0,0h.05a1.6,1.6,0,0,0,.38,0h.08a.18.18,0,0,0,.07-.05h.06l.06,0a.36.36,0,0,1,.18,0l.11,0a.34.34,0,0,1,.1.16l0,.2a.38.38,0,0,0,.06.13c0,.06.15.09.21.16a.29.29,0,0,1,.07.2c-.05.08-.1.17-.2.2a.32.32,0,0,0-.09,0l-.07.06a.37.37,0,0,1-.23,0l-.26,0-.22,0c-.06,0-.12,0-.16-.05a.13.13,0,0,1,0-.18.33.33,0,0,1,.18-.08h.27l.07,0s.09,0,.1-.08a.12.12,0,0,0,0-.13s-.09-.06-.12-.1a.2.2,0,0,1,0-.15,1.17,1.17,0,0,1-.3.19.5.5,0,0,1-.34,0l-.1-.07a.18.18,0,0,1-.06-.09.66.66,0,0,0,0-.15.22.22,0,0,0,0,.21.31.31,0,0,0,.09.07.13.13,0,0,1-.12,0,1,1,0,0,1-.42-.48,1,1,0,0,1,0,.17v.09a.37.37,0,0,1-.07.14h0L34.93,16a.47.47,0,0,1-.06-.09.21.21,0,0,1,0-.11.34.34,0,0,1-.06.21.24.24,0,0,1-.06.09.13.13,0,0,1-.1,0l-.07,0s0,0,0,0a.05.05,0,0,0,0,0,2.35,2.35,0,0,1,.25.19.11.11,0,0,1,0,.08.15.15,0,0,1,0,.07.65.65,0,0,1-.18.15l-.06,0-.05.06-.07,0-.35.15a1.45,1.45,0,0,1-.31.11h-.21a.58.58,0,0,1-.19,0,.31.31,0,0,1-.1-.05.62.62,0,0,1-.18-.14.76.76,0,0,1-.13-.29.59.59,0,0,1,0-.13.28.28,0,0,1,.2-.21.51.51,0,0,1,.17,0h.09l.07.06c.09.11.14.27.26.35a.26.26,0,0,0,.24,0,.23.23,0,0,0,.15-.18.24.24,0,0,0-.06-.2.28.28,0,0,0-.17-.11s-.12,0-.14-.08,0,0,0-.07v-.11a.41.41,0,0,1,0-.11.23.23,0,0,1,.07-.07.59.59,0,0,1,.17-.1,2.69,2.69,0,0,1,.57-.05.76.76,0,0,0-.83.19l-.14.15a.3.3,0,0,1-.18.08s0,0-.06,0,0,0,0,.06-.1,0-.16.06a.18.18,0,0,0-.07.05,1,1,0,0,1-.44.2l-.05,0-.06.06s-.08,0-.11,0,0,0,0,0a.18.18,0,0,1-.1,0,2.3,2.3,0,0,0-.35.1.62.62,0,0,1-.38-.06s0,.09-.09.09a.2.2,0,0,1-.12-.06h0v0s0,0-.05,0,0,0,0-.05-.06,0-.08,0h-.06a.13.13,0,0,0,0,.06l0,0a0,0,0,0,1,0,0h0a.07.07,0,0,0,0,.06.17.17,0,0,1,0,.07.09.09,0,0,1-.1,0,.19.19,0,0,1-.11-.07l0-.05-.09-.18a.09.09,0,0,0-.05,0,.72.72,0,0,1-.38.13.24.24,0,0,0,0-.2s-.05.1-.1.14l-.06,0-.09.07c-.21.16-.51.14-.71.31,0,0-.08.06-.12,0s-.07-.07-.11-.1-.13,0-.19,0l-.09,0a.12.12,0,0,0-.1,0,1.59,1.59,0,0,1-.38,0,.37.37,0,0,1-.26-.17.23.23,0,0,1,0-.24l.08,0a.14.14,0,0,0,.09,0,.13.13,0,0,0,0-.06.17.17,0,0,1,.18-.08h0l0,0a.18.18,0,0,1,.16-.05h0v0a.34.34,0,0,1,0,.1.14.14,0,0,0,.05.08s.06,0,.09,0a.86.86,0,0,1,.29.14l.07,0,.06-.05a1,1,0,0,1,.26-.16l.15-.06s0,0,0,0v0a.19.19,0,0,1,0-.08.91.91,0,0,0,.07-.14.22.22,0,0,0,0-.14H29.6a.15.15,0,0,1-.07,0v0s0,0,0,0l0,0s0-.08,0-.12v0l0-.07-.2,0a.17.17,0,0,1-.12-.06l0,0,0,0a.7.7,0,0,1-.17-.13l0,0s0-.05-.06-.05l0,0h-.1a.09.09,0,0,0,0,.06.12.12,0,0,1-.06.06l-.09,0-.08,0H28.5a.12.12,0,0,1-.08,0h-.07s0,0,0,0h-.09l-.06-.05s0,0-.06,0l-.06,0a.28.28,0,0,1-.06-.09.14.14,0,0,1,0-.11.11.11,0,0,1,.09-.06.45.45,0,0,1,.37-.19h.11l0-.05A.36.36,0,0,1,29,14.7a.91.91,0,0,1,.3.14l.33.14.07,0h.07l.13,0,0-.05a.31.31,0,0,0,.05-.1,1.17,1.17,0,0,1,.19-.3.39.39,0,0,0,.08-.1s0-.06,0-.09a1.84,1.84,0,0,0,0-.33.63.63,0,0,1,.29.33.8.8,0,0,1,.41-.27h0a0,0,0,0,1,0,0,.19.19,0,0,1,0,.1c0,.12,0,.23,0,.35l.24,0a.37.37,0,0,1,.22.1,1.77,1.77,0,0,0-.38.15s-.08.05-.1.1.05.16,0,.23a.25.25,0,0,0,0,.07.16.16,0,0,0,0,.09s.05.08.09.1.14,0,.2.05l.07,0a.85.85,0,0,0,.22,0h.55a1.63,1.63,0,0,0,.3-.07,2.07,2.07,0,0,1,.43-.1c.16,0,.31-.1.47-.13l.11,0,.09,0a5,5,0,0,1,1.08-.24h.21l.23.08.29,0a.52.52,0,0,0,.18,0,.27.27,0,0,0,.08-.07.14.14,0,0,0,0-.12.35.35,0,0,0,0-.08s0-.09,0-.13-.15-.1-.24-.1a2.69,2.69,0,0,0-.79.15,4.52,4.52,0,0,1-.53.11.51.51,0,0,0-.22.06l-.06,0s-.08,0-.12,0-.21.08-.33.1a.42.42,0,0,1-.3-.1,2.41,2.41,0,0,0-.24-.21.25.25,0,0,0,.05.22.35.35,0,0,1-.2,0l-.09-.05a.94.94,0,0,0-.15-.06.19.19,0,0,0-.15,0,.06.06,0,0,0,0,.06.12.12,0,0,0,0,.08.21.21,0,0,1,0,.15h0A.29.29,0,0,1,32,15a.32.32,0,0,1-.07-.2s0-.05,0-.05h0l0,0,0,0c-.05,0,0-.1-.08-.1h0v0a.31.31,0,0,0-.05-.1.6.6,0,0,1-.06-.22.43.43,0,0,1,0-.16A.15.15,0,0,1,31.72,14.07Z"/><path d="M33.49,17.05a.47.47,0,0,1-.16,0L33.22,17a.79.79,0,0,1-.18-.14.75.75,0,0,1-.14-.3.77.77,0,0,1,0-.15.31.31,0,0,1,.22-.22.58.58,0,0,1,.18,0,.18.18,0,0,1,.1,0,.17.17,0,0,1,.08.06l.1.15a.53.53,0,0,0,.16.2.22.22,0,0,0,.21,0,.23.23,0,0,0,.14-.16.22.22,0,0,0-.06-.17.27.27,0,0,0-.16-.11h0a.2.2,0,0,1-.14-.08.22.22,0,0,1,0-.08s0-.07,0-.11a.31.31,0,0,1,0-.1l0,0-.09.1a.26.26,0,0,1-.2.08h0v0s0,0,0,0-.07.07-.12.07l-.05,0s0,0-.06,0h0a1.06,1.06,0,0,1-.44.21h0a0,0,0,0,0,0,0l0,0h-.06s0,0,0,0h0v0a.15.15,0,0,1-.11,0h0a.73.73,0,0,0-.2.05l-.15,0a.56.56,0,0,1-.36,0v0a.12.12,0,0,1-.1.05.15.15,0,0,1-.13-.05h0a.06.06,0,0,1-.06,0v0l0,0a0,0,0,0,0,0,0h-.05l0,0h0v0a.06.06,0,0,1,0,0s0,.05-.06.05h0s0,0,0,0,0,0,0,0v0a.13.13,0,0,1,0,.06.11.11,0,0,1-.13,0,.2.2,0,0,1-.12-.08l0-.06a.8.8,0,0,1-.08-.16l0,0h0a.56.56,0,0,1-.39.13s0,0,0,0a0,0,0,0,1,0,0,.21.21,0,0,0,0-.11v0l0,.07-.05,0h0l-.07,0,0,0a.91.91,0,0,1-.35.15,1.07,1.07,0,0,0-.36.16h0s-.08.07-.14.06a.14.14,0,0,1-.08-.07l0,0s0,0-.09,0h-.09l-.05,0,0,0H28.7a1.28,1.28,0,0,1-.39,0A.37.37,0,0,1,28,16.6a.27.27,0,0,1,0-.26,0,0,0,0,1,0,0h0a.2.2,0,0,0,.08,0s0,0,0,0,0,0,0,0v0c0-.08.12-.11.2-.1h.06a.2.2,0,0,1,.19-.07h0l0,0a.2.2,0,0,1,0,.07v0a.11.11,0,0,0,0,.07h.08a.42.42,0,0,1,.21.08l.09.05h0l.06,0,0,0h0a1.15,1.15,0,0,1,.27-.18l.15-.06h0a.46.46,0,0,1,0-.09l0-.05a.36.36,0,0,0,0-.09.19.19,0,0,0,0-.1h-.22l-.08,0,0,0a.07.07,0,0,1,0-.06h0a.43.43,0,0,0,0-.05v-.06l0,0,0,0-.17,0a.21.21,0,0,1-.13-.07l0,0h0l0,0a1.24,1.24,0,0,1-.18-.14l0,0,0,0a0,0,0,0,0,0,0h-.13s0,0,0,0v0a.11.11,0,0,1-.09.07.16.16,0,0,1-.1,0s-.05,0-.08,0h0l-.09,0h-.05l0,0h-.1l0,0h0l0,0h-.05a.12.12,0,0,1-.08,0,.27.27,0,0,1-.06-.1.19.19,0,0,1,0-.13.14.14,0,0,1,.09-.08.47.47,0,0,1,.39-.18h.09l0,0h0a.36.36,0,0,1,.34-.08,1,1,0,0,1,.26.11l.06,0a1.87,1.87,0,0,0,.32.15h0l.05,0h.06a.2.2,0,0,0,.11,0l0,0a.2.2,0,0,0,0-.08v0a.87.87,0,0,1,.2-.31h0a.22.22,0,0,0,.05-.08.13.13,0,0,0,0-.09,1.63,1.63,0,0,0,0-.31,0,0,0,0,1,0,0h0a.6.6,0,0,1,.29.3.76.76,0,0,1,.4-.25h0l0,0a.56.56,0,0,1,0,.12,3.11,3.11,0,0,1,0,.32.74.74,0,0,1,.21,0,.36.36,0,0,1,.24.1v0s0,0,0,0a2,2,0,0,0-.37.16s-.08,0-.09.08a.13.13,0,0,0,0,.1.29.29,0,0,1,0,.13,0,0,0,0,1,0,0v0s0,.05,0,.07.05.08.09.1l.1,0,.09,0,0,0h0l.21,0,.35,0h.2a1.34,1.34,0,0,0,.27-.07h0a2.18,2.18,0,0,1,.44-.11,1,1,0,0,0,.25-.07l.21-.06h0l.08,0,.08,0h0a4.5,4.5,0,0,1,1.09-.23.54.54,0,0,1,.22,0l.14,0,.09,0a1.35,1.35,0,0,0,.29,0,.3.3,0,0,0,.16,0,.13.13,0,0,0,.07-.06.1.1,0,0,0,0-.09.05.05,0,0,0,0,0l0,0a.26.26,0,0,1,0-.08s0,0,0-.06a.25.25,0,0,0-.22-.09,2.2,2.2,0,0,0-.63.12l-.15,0a5.12,5.12,0,0,1-.54.1h0a.47.47,0,0,0-.21.06h0l-.06,0a.14.14,0,0,1-.09,0h0a.39.39,0,0,0-.18,0,.39.39,0,0,1-.15.06.47.47,0,0,1-.31-.11l-.1-.08-.11-.1a.17.17,0,0,0,0,.15,0,0,0,0,1,0,0l0,0h0a.67.67,0,0,1-.2,0l-.09,0h0a.61.61,0,0,0-.14-.07.23.23,0,0,0-.13,0s0,0,0,0l0,0v0a.23.23,0,0,1,0,.16,0,0,0,0,1,0,0,.06.06,0,0,1,0,0A.3.3,0,0,1,32,15a.39.39,0,0,1-.08-.22v0h0l0,0s0,0-.07,0,0,0-.06-.06v0h0s0,0,0,0l0-.07,0,0a.46.46,0,0,1-.05-.23.33.33,0,0,1,0-.17.16.16,0,0,1,.14-.11h0a0,0,0,0,1,0,0,.17.17,0,0,0,0,.19.32.32,0,0,0,.17.12.52.52,0,0,0,.3,0l.18,0a.79.79,0,0,1,.3-.05.89.89,0,0,1,.31.11l.09,0a1.2,1.2,0,0,0,.48.11,1.41,1.41,0,0,0,.46-.11l.15-.05.24-.09a2.75,2.75,0,0,1,.57-.12h.18l.2.06a.5.5,0,0,0,.26.06.18.18,0,0,0,.16-.1.54.54,0,0,0,.1-.2v0h0a.44.44,0,0,1,.15.12.64.64,0,0,1,.07.33.31.31,0,0,0,0,.1l0,0h0a.05.05,0,0,1,0,0l0,0h.07s.08.05.1.07l.07.11a.39.39,0,0,1,0,.15V15l0,0a.26.26,0,0,1-.1.07h0s0,0,0,0a.11.11,0,0,1,0-.11.19.19,0,0,1,0-.07.13.13,0,0,0-.09,0,.31.31,0,0,0-.13.06l-.12.08-.07.07-.07.07a.64.64,0,0,1-.31.15.47.47,0,0,1,.06.09l0,0a.22.22,0,0,0,.11.12h.13a2.41,2.41,0,0,0,.38,0l.07,0,.05,0,0,0h.07l.06,0a.3.3,0,0,1,.19,0,.22.22,0,0,1,.11,0,.36.36,0,0,1,.12.18l0,.11s0,0,0,.08a.34.34,0,0,0,.06.12.26.26,0,0,0,.1.07.48.48,0,0,1,.11.09.28.28,0,0,1,.07.21s0,0,0,0-.1.19-.21.22H37l0,0,0,0a.29.29,0,0,1-.2,0h-.16a.33.33,0,0,1-.14,0h-.24a.19.19,0,0,1-.16-.05.17.17,0,0,1,0-.22.34.34,0,0,1,.2-.08h.26l.07,0s.08,0,.09-.07a.1.1,0,0,0,0-.1l0,0a.27.27,0,0,1-.08-.07.3.3,0,0,1,0-.1.87.87,0,0,1-.26.15.5.5,0,0,1-.36,0l-.08,0,0,0a.22.22,0,0,1-.14,0,1,1,0,0,1-.37-.36v0a.28.28,0,0,1,0,.09.46.46,0,0,1-.07.16l0,0h0a.74.74,0,0,1-.13-.12.71.71,0,0,1-.07-.09,1,1,0,0,1,0,.1.61.61,0,0,1-.07.1.17.17,0,0,1-.13,0h-.08s0,0,0,0l.1.07.15.12a.17.17,0,0,1,0,.11s0,0,0,.08a.65.65,0,0,1-.18.15h0l0,0,0,0,0,0-.07,0-.35.15a1.7,1.7,0,0,1-.32.1h-.25Zm-.2-.86h0a.45.45,0,0,0-.16,0,.24.24,0,0,0-.18.18.17.17,0,0,0,0,.12.62.62,0,0,0,.12.29.66.66,0,0,0,.17.12l.1.05a.55.55,0,0,0,.18,0h.2a1.32,1.32,0,0,0,.3-.1l.36-.15.06,0s0,0,0,0l0,0,.06,0h0a.8.8,0,0,0,.17-.15.08.08,0,0,0,0-.05.07.07,0,0,0,0-.06.49.49,0,0,0-.14-.11.39.39,0,0,1-.1-.08.07.07,0,0,1,0-.06.08.08,0,0,1,0,0,.07.07,0,0,1,.06,0h.07a.11.11,0,0,0,.08,0,.24.24,0,0,0,.06-.08.44.44,0,0,0,.06-.17v0l0,0s0,0,0,0v0a.09.09,0,0,0,0,.07l.06.09a.5.5,0,0,0,.11.1.33.33,0,0,0,.07-.13.22.22,0,0,0,0-.08.86.86,0,0,0,0-.16s0,0,0,0,0,0,0,0a.86.86,0,0,0,.4.46h0a.28.28,0,0,1,0-.24h0a.19.19,0,0,1,0,.12s0,0,0,0a.14.14,0,0,0,0,.08.15.15,0,0,0,.09.06.44.44,0,0,0,.32,0,1.08,1.08,0,0,0,.3-.18h0a0,0,0,0,1,0,0,.16.16,0,0,0,0,.12l.07.06s0,0,0,0a.15.15,0,0,1,.06.16.2.2,0,0,1-.12.1l-.08,0h-.26a.28.28,0,0,0-.17.07.11.11,0,0,0,0,.15.17.17,0,0,0,.12,0h.54a.31.31,0,0,0,.17,0l0,0a.08.08,0,0,1,0,0l.07,0h0a.39.39,0,0,0,.17-.19.24.24,0,0,0-.06-.18.26.26,0,0,0-.1-.07.31.31,0,0,1-.11-.09.31.31,0,0,1-.07-.14s0-.05,0-.08a.43.43,0,0,0,0-.11.28.28,0,0,0-.1-.15l-.09,0a.38.38,0,0,0-.17,0l0,0h-.09l0,0-.08,0a1.27,1.27,0,0,1-.39,0h-.15a.32.32,0,0,1-.14-.14l0,0a.25.25,0,0,0-.08-.12s0,0,0,0,0,0,0,0a.67.67,0,0,0,.33-.15l.06-.07.08-.07.12-.09.14-.07a.25.25,0,0,1,.17,0v.05a.1.1,0,0,0,0,.07.11.11,0,0,0,0,.06h0a.16.16,0,0,0,.08-.06l0,0v-.11a.3.3,0,0,0,0-.13.33.33,0,0,0-.06-.1s0,0-.07,0h0s0,0-.06,0h0a.18.18,0,0,1-.09.06h0s0,0,0,0v-.14a.52.52,0,0,0-.06-.3.26.26,0,0,0-.09-.09.66.66,0,0,1-.09.19.3.3,0,0,1-.21.13.68.68,0,0,1-.28-.07l-.19-.05H35a2.14,2.14,0,0,0-.56.11l-.24.09-.15,0a1.47,1.47,0,0,1-.48.11,1.17,1.17,0,0,1-.51-.11l-.09,0a.73.73,0,0,0-.28-.1.66.66,0,0,0-.28,0l-.19.05a.58.58,0,0,1-.32,0,.34.34,0,0,1-.2-.14.2.2,0,0,1,0-.18.1.1,0,0,0,0,0,.38.38,0,0,0,0,.15.46.46,0,0,0,.05.2l0,0s0,0,0,.08h0s.05,0,.06.07,0,0,0,0l0,0,.05,0h0s0,0,.06.07a.31.31,0,0,0,.06.19.26.26,0,0,0,.17.09.17.17,0,0,0,0-.12v0a.09.09,0,0,1,0-.09.1.1,0,0,1,.05-.08.27.27,0,0,1,.18,0l.15.07h0l.08.05h.14a.3.3,0,0,1,0-.21h0a.65.65,0,0,1,.16.13l.09.08a.36.36,0,0,0,.41,0,.36.36,0,0,1,.2-.06h.11l0,0h0a.48.48,0,0,1,.23-.07h0a3.58,3.58,0,0,0,.53-.11l.15,0a2.68,2.68,0,0,1,.64-.11.29.29,0,0,1,.27.12s0,.05,0,.07l0,.06,0,0a.09.09,0,0,1,0,0,.16.16,0,0,1,0,.15l-.08.07a.35.35,0,0,1-.2,0,.92.92,0,0,1-.29,0L35,15l-.13,0h-.21a4.35,4.35,0,0,0-1.07.23h0l-.09,0-.08,0h0a.66.66,0,0,0-.2.06,2.44,2.44,0,0,1-.26.06,2.18,2.18,0,0,0-.44.11h0a1.37,1.37,0,0,1-.29.07H32l-.34,0a.61.61,0,0,1-.23,0h0l-.05,0h-.07a.28.28,0,0,1-.13,0,.26.26,0,0,1-.1-.11.15.15,0,0,1,0-.1s0,0,0-.05,0,0,0,0a.12.12,0,0,0,0-.1.23.23,0,0,1,0-.14.23.23,0,0,1,.11-.11,2.41,2.41,0,0,1,.33-.15.49.49,0,0,0-.16,0,.87.87,0,0,0-.23,0h0s0,0,0,0,0-.23,0-.34l0-.1h0a.85.85,0,0,0-.4.26h0a.62.62,0,0,0-.24-.29,1.27,1.27,0,0,1,0,.28.18.18,0,0,1,0,.1.23.23,0,0,1-.07.1h0a.88.88,0,0,0-.18.29v0a.41.41,0,0,1-.05.09l-.05.05a.23.23,0,0,1-.14,0h-.07l-.06,0h0l-.33-.15,0,0a1.12,1.12,0,0,0-.25-.11.34.34,0,0,0-.29.06h0a.08.08,0,0,1,0,0,.17.17,0,0,1-.1,0h0a.43.43,0,0,0-.35.17h0a.18.18,0,0,0-.07.05.14.14,0,0,0,0,.09.22.22,0,0,0,.05.08l0,0h.08l.05.05h.07s0,0,0,0,0,0,0,0h.06l.08,0h.08l.08,0,.07,0s0,0,.05,0v0l0-.06h.12l0,0s.05,0,.07,0h0l0,0,.18.13,0,0,0,0h0a.2.2,0,0,0,.11.06l.2,0h0v0l0,.07,0,0v0a.15.15,0,0,1,0,.09h0l.06,0h.22a0,0,0,0,1,0,0,.21.21,0,0,1,0,.15.3.3,0,0,1,0,.1l0,0,0,.07h0a0,0,0,0,1,0,0l0,0-.15.06a.83.83,0,0,0-.25.16h0a.09.09,0,0,1-.06,0h0s0,0-.05,0h0l-.1-.05a.36.36,0,0,0-.18-.08h0a.15.15,0,0,1-.09,0,.11.11,0,0,1-.05-.1v0a.13.13,0,0,1,0-.06h0a.18.18,0,0,0-.15.05l0,0h-.07a.13.13,0,0,0-.14.06v0a.06.06,0,0,1,0,0,.09.09,0,0,1-.11,0,.09.09,0,0,1-.07,0,.23.23,0,0,0,0,.18.31.31,0,0,0,.24.16,1.53,1.53,0,0,0,.37,0h.12l.05,0,0,0H29a.17.17,0,0,1,.12,0,.12.12,0,0,1,.05,0l.06.05a.15.15,0,0,0,.08-.05h0a1,1,0,0,1,.37-.17,1,1,0,0,0,.34-.14l0,0a.18.18,0,0,1,.07-.05h0l0,0,0-.06a.27.27,0,0,1,.07-.08s0,0,0,0a0,0,0,0,1,0,0,.3.3,0,0,1,0,.16.47.47,0,0,0,.31-.11h0a.1.1,0,0,1,0,0s0,0,0,0l.09.18,0,.06a.21.21,0,0,0,.1.06.06.06,0,0,0,.06,0,.07.07,0,0,0,0-.05h0a.08.08,0,0,1,.05-.08h.06a.09.09,0,0,1,0-.07s0,0,0,0h.05l0,0h.08s0,0,0,0v0h0s0,0,0,0,0,0,0,0a.12.12,0,0,0,.1.05.07.07,0,0,0,.06,0,0,0,0,0,0,0,0,0,0,0,0,1,0,0h0a.46.46,0,0,0,.36.06l.14,0a.79.79,0,0,1,.22-.05h0a.08.08,0,0,0,.07,0h0s0,0,0,0h.07s0,0,0,0a0,0,0,0,0,0,0l0,0s0,0,.07,0a.94.94,0,0,0,.42-.19h0l.07,0,.07,0s.07,0,.07,0v0a.06.06,0,0,1,0-.05.08.08,0,0,1,.07,0,.2.2,0,0,0,.16-.07l.09-.09.05-.06a.81.81,0,0,1,.86-.2l0,0,0,0h-.21a1,1,0,0,0-.35,0,.42.42,0,0,0-.16.09.14.14,0,0,0-.06.07.22.22,0,0,0,0,.09V16a.07.07,0,0,0,0,0s.06.05.11.06h0a.47.47,0,0,1,.19.12.31.31,0,0,1,.06.22.27.27,0,0,1-.17.2.3.3,0,0,1-.26,0,.56.56,0,0,1-.18-.22l-.09-.13a.13.13,0,0,0-.06-.05ZM35.61,16a.16.16,0,0,0,0,.12l.05,0a.16.16,0,0,1,0-.07s0,0,0,0Zm-1.36-.45h0Zm-2.52-.86Z"/><path d="M36.11,16.8s0,0,0,0h0a.26.26,0,0,1,.16-.21h0s0,0,0,0a.23.23,0,0,0-.14.17h0S36.12,16.8,36.11,16.8Z"/><path d="M36.27,16.8h0s0,0,0,0v0a.28.28,0,0,1,.16-.14s0,0,0,0,0,0,0,0a.28.28,0,0,0-.15.13v0A0,0,0,0,1,36.27,16.8Z"/><path d="M33,16.59a0,0,0,0,1,0,0h0a.55.55,0,0,1,.17-.23h0s0,0,0,0a.52.52,0,0,0-.16.22h0A0,0,0,0,1,33,16.59Z"/><path d="M33.15,16.91a0,0,0,0,1,0,0v-.07a.28.28,0,0,1,.08-.19h0a0,0,0,0,1,0,0s0,0,0,0h0a.24.24,0,0,0-.07.17v.07Z"/><path d="M28.31,16.63h0s0,0,0,0a.11.11,0,0,0,0-.06.23.23,0,0,0-.06-.14s0,0,0,0,0,0,0,0a.21.21,0,0,1,.09.17.15.15,0,0,1,0,.08Z"/><path d="M28.47,16.58h0a.36.36,0,0,1-.11-.22.27.27,0,0,1,0-.11h0s0,0,0,0,0,.06,0,.1a.32.32,0,0,0,.1.2s0,0,0,0Z"/><path d="M28.61,16.54h0l0,0a.53.53,0,0,1-.11-.25s0,0,0,0,0,0,0,0a.53.53,0,0,0,.11.24l0,0s0,0,0,0Z"/><path d="M28.2,15.28h0a.68.68,0,0,1,0-.12c0-.05,0-.09.1-.13h0s0,0,0,0-.09.07-.09.1a.43.43,0,0,0,0,.11s0,0,0,0Z"/><path d="M28.34,15.31h0s0,0,0-.08v0s.06-.1.1-.14l0,0h0s0,0,0,0l0,0s-.08.07-.08.11v0s0,0,0,.06a0,0,0,0,1,0,0Z"/><path d="M28.53,15.28h0v0c0-.05,0-.08.1-.16h0v0c-.1.07-.1.1-.1.13s0,0,0,0l0,0Z"/><path d="M29,15.18h0s0,0,0,0,.14-.07.16-.13h0s0,0,0,0a.39.39,0,0,1-.19.15Z"/><path d="M29.88,16.31l-.12,0h0a0,0,0,0,1,0,0,0,0,0,0,1,0,0h.15c.09,0,.48-.09.48-.15s0,0,0,0a0,0,0,0,1,0,0,0,0,0,0,1,0,0,.07.07,0,0,1,0,.07C30.4,16.23,29.94,16.31,29.88,16.31Z"/><path d="M30.27,16.38h0a0,0,0,0,1,0,0,.43.43,0,0,1,0-.05s0,0,0-.07v0s0,0,0,0l0,0v0a.22.22,0,0,1,0,.08v0A0,0,0,0,1,30.27,16.38Z"/><path d="M31.08,16.45h0c-.1,0-.21-.16-.24-.41,0,0,0,0,0,0l0,0c0,.29.19.37.22.38s0,0,0,0Z"/><path d="M31.54,16.55s0,0,0,0a1.34,1.34,0,0,0-.19-.3c-.09-.12-.13-.17-.13-.19h0a0,0,0,0,1,0,0,0,0,0,0,1,0,0h0a.87.87,0,0,0,.11.17,1,1,0,0,1,.2.32A0,0,0,0,1,31.54,16.55Z"/><path d="M31.85,16.32h-.13a.54.54,0,0,1-.37-.08s0,0,0,0h0a.54.54,0,0,0,.35.08c.06,0,.11,0,.14,0s0,0,0,0Z"/><path d="M31.85,16.3s0,0,0,0l-.06-.09c-.17-.29-.2-.35-.71-.58,0,0,0,0,0,0s0,0,0,0c.52.23.56.3.74.59l.05.1s0,0,0,0Z"/><path d="M31.76,15.94h-.15a0,0,0,0,1,0,0h0a.32.32,0,0,0,.14,0h.09a.81.81,0,0,0,.27-.11l-.25-.14a1.22,1.22,0,0,1-.29-.18s0,0,0,0,0,0,0,0a2.72,2.72,0,0,0,.28.17c.22.11.28.15.28.17s0,0,0,0a.73.73,0,0,1-.3.12h-.09Z"/><path d="M30,15.93a0,0,0,0,1,0,0s0,0,0,0,0,0,0,0v0a.52.52,0,0,1-.12-.26h0v0h0a.23.23,0,0,1-.15.06c-.07,0-.11,0-.11-.07a.53.53,0,0,1,.14-.28h0c-.15,0-.28-.12-.28-.19a0,0,0,0,1,0,0h0a.29.29,0,0,0,.11,0,.28.28,0,0,0,.21-.06h0s0,0,0,0-.17.07-.24.07l-.11,0a.29.29,0,0,0,.23.14h.08v0a.53.53,0,0,0-.14.27s0,0,.07,0a.2.2,0,0,0,.13-.06s0,0,0,0,0,0,0,.06h0a.58.58,0,0,0,.1.24l0,0a.13.13,0,0,1,0,.06h0a.63.63,0,0,0,.15-.19c.07-.1.09-.13.12-.13h0s0,0,0,.07.06.16.15.16,0,0,0,0v0a.12.12,0,0,1,0-.1s0,0,0-.06a.09.09,0,0,0,0-.05h0l0,0h0s0,0,.07,0a.41.41,0,0,0,.19.09h0a.14.14,0,0,1-.08-.13v0c0-.07,0-.08,0-.08h0s0,0,0,0h0l0,0h0a.11.11,0,0,1,.09.06s0,0,.06,0h0v0a.43.43,0,0,1,0-.15.21.21,0,0,1,.05-.14L31,15s0,0,0,0,0,0,0,0a.15.15,0,0,1,0,.06.17.17,0,0,0,0,.12.46.46,0,0,0,0,.14v0s0,0,0,0h0s-.06,0-.08-.06-.05-.05-.07-.05h0s0,0,0,.11v0c0,.08.08.11.11.12l0,0s0,0-.08,0h0a.45.45,0,0,1-.21-.1s0,0,0,0v.05a.13.13,0,0,1,0,.09.1.1,0,0,0,0,.07v0a.19.19,0,0,1,0,.07h0c-.12,0-.17-.11-.2-.19s0,0,0-.05l-.08.11C30.15,15.84,30.09,15.93,30,15.93Z"/><path d="M29.32,15.45a0,0,0,0,1,0,0h0s.15-.05.15-.07h0v0a0,0,0,0,1,0,0v0h.13v-.07h0v0a.15.15,0,0,1,0,.08H29.5s0,0,0,0h0C29.51,15.41,29.36,15.45,29.32,15.45Zm.17-.16Z"/><path d="M31,14.85h0a.91.91,0,0,0-.73-.36h-.08a0,0,0,0,1,0,0h.06a.92.92,0,0,1,.76.38s0,0,0,0Z"/><path d="M31,15h0a2.13,2.13,0,0,0-.88-.37h0l0,0a2.12,2.12,0,0,1,.89.37s0,0,0,0Z"/><path d="M30.26,15.54a.36.36,0,0,1-.14,0A.2.2,0,0,1,30,15.4a.09.09,0,0,0,0-.05v0l0-.05v0A.31.31,0,0,1,30,15h0s0,0,0,0a.06.06,0,0,0,0,0v0a.54.54,0,0,1,.1-.18l.15-.13h0a0,0,0,0,1,0,0h0l-.14.12a.35.35,0,0,0-.09.17h0s0,0,0,.06l0,0v0a.34.34,0,0,0,0,.2l0,0s0,0,0,.06v0a.06.06,0,0,0,0,0,.15.15,0,0,0,.09.1.41.41,0,0,0,.15,0,.45.45,0,0,0,.23-.07l.06-.08a.23.23,0,0,1,.12-.12h0s.07-.05.1-.08l.07-.11a.22.22,0,0,0,0-.12s0,0,0,0h0a.2.2,0,0,1,0,.14.36.36,0,0,1-.08.12.19.19,0,0,1-.11.09H30.7a.27.27,0,0,0-.1.11.27.27,0,0,1-.07.08.36.36,0,0,1-.25.08Z"/><path d="M30.09,14.94h0s0,0,0,0,0,0,0,0h.14s0,0,0,0Z"/><path d="M30.62,15.32h0a.2.2,0,0,0,0-.11l0-.06s0,0,0,0h0a.15.15,0,0,1,.05.06.84.84,0,0,1,0,.12l0,0Z"/><path d="M30.48,15.28l0,0a0,0,0,0,1,0,0,0,0,0,0,1,0,0Z"/><path d="M30.15,15a0,0,0,0,1,0,0l0,0h0Z"/><path d="M30.15,15.08h0l0,0A0,0,0,0,1,30.15,15.08Z"/><path d="M30.09,15.05h0a0,0,0,0,1,0,0A0,0,0,0,1,30.05,15.05Z"/><path d="M30.1,15.11l0,0,0,0,0,0Z"/><path d="M30.43,15.32s0,0,0,0,0,0,0,0h0Z"/><path d="M30.41,15.25l0,0a0,0,0,0,1,0,0,0,0,0,0,1,0,0Z"/><path d="M30.46,15.23l0,0a0,0,0,0,1,0,0,0,0,0,0,1,0,0Z"/><path d="M30.65,15s0,0,0,0,0,0,0,0a0,0,0,1,1,.06,0Z"/><path d="M30.34,14.86a0,0,0,0,1,0,0s0,0,0,0a0,0,0,0,1,0,0S30.34,14.84,30.34,14.86Z"/><path d="M30.28,15.29h-.1l0,0a.14.14,0,0,1,0-.06.07.07,0,0,1,0-.06h0a.14.14,0,0,1,.18,0,.09.09,0,0,1,0,.09,0,0,0,0,1,0,0S30.3,15.29,30.28,15.29Zm-.07-.14h-.05s0,0,0,0,0,0,0,0h.14v0a.05.05,0,0,0,0-.05A.11.11,0,0,0,30.21,15.15Z"/><path d="M30.21,15.53h0s0,0,0,0a.13.13,0,0,1,.06,0h0l0,0h-.07a.13.13,0,0,1-.07-.06v-.08h0s0,0,0,0a.07.07,0,0,0,0,.05,0,0,0,0,0,0,0h.18s0,0,0,0,0,0-.05,0h0l0,0h0a.1.1,0,0,0-.05,0Z"/><path d="M30.09,15.31H30l-.05,0a0,0,0,0,1,0,0,0,0,0,0,1,0,0s0,0,0,0h0s0,0,0,0h.06s0,0,0,0h0l0,0s0,.05,0,.05h0Z"/><path d="M30.15,15.5h0a.07.07,0,0,1-.06,0s-.05-.06,0-.1a0,0,0,0,1,0,0l0,0h0s0,0,0,0l0,0v0a.11.11,0,0,0,0,.06.05.05,0,0,0,0,0h0l0,0,0,0s0,0,0,0a0,0,0,0,1,0,0,.07.07,0,0,1,0,.06l-.05,0Z"/><path d="M30.82,15a.22.22,0,0,1-.12-.05h0l0,0h-.07l0,0s0,0,0,0a0,0,0,0,1,0,0l0,0,0,0h.07l.05,0h0a.14.14,0,0,0,.11,0,0,0,0,0,1,0,0l0,0Z"/><path d="M30.33,15h0s0,0,0,0l0,0h0v0a.18.18,0,0,0,0-.13,0,0,0,0,1,0,0h0a.2.2,0,0,1,0,.15v0s0,0,0,0l0,0Z"/><path d="M30.32,15h0a.11.11,0,0,1-.09-.1.43.43,0,0,1,0,0l0,0h0l0,0a0,0,0,0,1,0,0h0l.05,0,0,0,0,0h0v0a.09.09,0,0,0,.06.07s0,0,0,0Zm0-.16h0Z"/><path d="M30.43,15.17l0,0s0-.05,0-.07h0V15h0v.11l0,0s0,0,0,0Z"/><path d="M30.62,15.06l-.06,0a.11.11,0,0,1,0-.08s0,0,0,0l0,0a0,0,0,0,0,0,0,0,0,0,0,0,0,0h.12s0,0,0,0h-.11Z"/><rect class="cls-7" x="27.47" y="20.6" width="10.08" height="1.36"/><path d="M27.47,13.79v8.33c0,.13,0,.26,0,.39.13,1.14.92,2.46,4.34,3.93l.14.06.51.2,0,0,0,0a4.08,4.08,0,0,0,.42-.17l.23-.09c3-1.27,4-2.43,4.25-3.45a3.05,3.05,0,0,0,.11-.87V13.79Zm9.91,8.33c0,1.15-.52,2.53-4.19,4.12l-.23.1-.45.19L32,26.3l-.14-.06c-3.67-1.59-4.18-3-4.18-4.12V14h9.73Z"/></g></g></svg>