<svg viewBox="0 0 40.5 40.5" xmlns="http://www.w3.org/2000/svg"><path d="m40.5 20.25a20.25 20.25 0 0 1 -40.5 0 7 7 0 0 1 0-.79c0-.16 0-.32 0-.47a6.25 6.25 0 0 1 .1-1c0-.5.12-1 .2-1.49 0-.13 0-.25.06-.37s.13-.53.19-.8a23.13 23.13 0 0 1 .8-2.48c.11-.27.22-.54.34-.81a.22.22 0 0 1 .09-.04 6.67 6.67 0 0 1 .37-.76c.17-.36.36-.71.56-1.06a22.28 22.28 0 0 1 1.43-2.18 20.25 20.25 0 0 1 36.36 12.25z" fill="#68bfe5"/><path d="m20.25 8v12.24h-20.25a7 7 0 0 1 0-.79c0-.16 0-.32 0-.47a6.25 6.25 0 0 1 .1-1c0-.5.12-1 .2-1.49 0-.13 0-.25.06-.37s.13-.53.19-.8a23.13 23.13 0 0 1 .8-2.48c.11-.27.22-.54.34-.81a.22.22 0 0 1 .09-.03 6.67 6.67 0 0 1 .37-.76c.17-.36.36-.71.56-1.06a22.28 22.28 0 0 1 1.43-2.18z" fill="#002868"/><path d="m20.25 12.06v4.09h-19.85c.07-.27.13-.53.19-.8a23.13 23.13 0 0 1 .8-2.48c.11-.27.22-.54.34-.81z" fill="#fff"/><path d="m5.93 7.98h4.09v12.25h-4.09z" fill="#fff"/><path d="m20.25 12.87v2.48h-11v4.89h-2.51v-4.89h-6.15a23.13 23.13 0 0 1 .8-2.48h5.35v-4.87h2.48v4.89z" fill="#cf142b"/><path d="m10.02 11.73 7.48-3.75h2.75v1.37l-5.4 2.71h-4.83z" fill="#fff"/><path d="m10.24 12.06 8.18-4.08h1.83l-8.15 4.08z" fill="#cf142b"/><path d="m10.02 16.48 7.48 3.75h2.75v-1.37l-5.4-2.71h-4.83z" fill="#fff"/><path d="m5.93 16.15v.33l-5.9 3c0-.16 0-.32 0-.47a6.25 6.25 0 0 1 .1-1c0-.5.12-1 .2-1.49l.75-.37z" fill="#fff"/><path d="m5.71 16.15-5.71 2.85a6.25 6.25 0 0 1 .1-1l3.71-1.86z" fill="#cf142b"/><path d="m5.93 11.73v.33h-4.2a.22.22 0 0 1 .05-.06 6.67 6.67 0 0 1 .37-.76c.17-.36.36-.71.56-1.06z" fill="#fff"/><path d="m3.89 12.06h-1.89l-.22-.06a6.67 6.67 0 0 1 .37-.76z" fill="#cf142b"/><path d="m20.25 20.23-8.18-4.08h1.87l6.31 3.15z" fill="#cf142b"/><g fill="#fff"><path d="m32.98 16.89h4.48v3.97h-4.48z"/><path d="m27.6 16.95h4.48v3.97h-4.48z"/><path d="m32 21.83v4.67l-.14-.06c-3.42-1.47-4.21-2.79-4.34-3.93v-.68z"/><path d="m37.44 21.77v1.23c-.3 1-1.29 2.18-4.25 3.45l-.23.09v-4.77z"/></g><path d="m29.65 19.49c0 .12-.07.11-.07.28s.06.23.18.23.14-.12.14-.23-.15-.21-.22-.26z" fill="#964b36"/><path d="m29.76 20c-.12 0-.19-.09-.19-.24a.36.36 0 0 1 0-.18.81.81 0 0 0 0-.11 0 0 0 0 1 0 0s0 0 0 0c.08 0 .2.12.2.25s.06.28-.01.28zm-.1-.49a.34.34 0 0 1 0 .08.52.52 0 0 0 0 .17c0 .05 0 .21.16.21s.12-.07.12-.21-.1-.18-.18-.22z"/><path d="m29.73 19.31a.23.23 0 0 0 -.12.24v.06a.13.13 0 0 0 .12.09.15.15 0 0 0 .17-.16c0-.07 0-.19-.07-.21z" fill="#964b36"/><path d="m29.73 19.72a.15.15 0 0 1 -.14-.11.26.26 0 0 1 .13-.26h.11c.09 0 .09.21.09.23a.17.17 0 0 1 -.19.14zm0-.39c-.07 0-.1.1-.1.22v.06a.12.12 0 0 0 .1.07c.06 0 .16 0 .16-.14s0-.18-.07-.19h-.05z"/><path d="m29.73 19.08a.19.19 0 0 0 -.11.19c0 .07 0 .11.12.11s.13 0 .13-.11-.08-.2-.13-.2z" fill="#964b36"/><path d="m29.74 19.4a.13.13 0 0 1 -.14-.13.21.21 0 0 1 .12-.21c.06 0 .15.07.15.21s0 .13-.13.13zm0-.32a.18.18 0 0 0 -.1.18c0 .06 0 .09.1.09s.11 0 .11-.09-.07-.18-.11-.18z"/><path d="m29.74 18.85a.17.17 0 0 0 -.09.17.1.1 0 0 0 .11.11c.08 0 .11-.06.11-.13s-.07-.15-.11-.15z" fill="#964b36"/><path d="m29.76 19.15a.13.13 0 0 1 -.13-.13.22.22 0 0 1 .09-.19h.05s.12.09.12.17a.14.14 0 0 1 -.13.15zm0-.28a.15.15 0 0 0 -.07.15.09.09 0 0 0 .09.1c.07 0 .09-.07.09-.12a.14.14 0 0 0 -.09-.13z"/><path d="m29.05 19.93s0 .08 0 .13 0 .11.07.11.19 0 .19-.13a.15.15 0 0 0 -.15-.17s-.1 0-.1.05z" fill="#964b36"/><path d="m29.11 20.2c-.06 0-.09 0-.09-.13s0-.11 0-.13.11-.06.12-.06a.17.17 0 0 1 .17.18c.01.09-.07.14-.2.14zm0-.27a.51.51 0 0 0 0 .13c0 .09 0 .09.06.09s.17 0 .17-.11a.14.14 0 0 0 -.13-.15z"/><path d="m29.05 19.75c-.05.06-.07 0-.07.13s0 .09.1.09.17 0 .17-.1a.14.14 0 0 0 -.14-.14.06.06 0 0 0 -.05 0z" fill="#964b36"/><path d="m29.08 20c-.08 0-.12 0-.12-.1s0-.08 0-.1a.11.11 0 0 1 .06 0 .15.15 0 0 1 .15.16c.09.04-.03.04-.09.04zm0-.23s0 0 0 .08 0 .07.08.07.15 0 .15-.08c0-.06-.05-.13-.12-.13s-.12.03-.12.04z"/><path d="m28.91 18-.3.44v.37l.19.18s0-.81.18-.94-.07-.05-.07-.05z" fill="#00a651"/><path d="m28.78 19-.2-.17v-.37l.3-.44h.12s0 0-.05.08a2.45 2.45 0 0 0 -.17.93 0 0 0 0 1 0 0 0 0 0 0 1 .02-.03zm-.18-.2.17.14a2.24 2.24 0 0 1 .17-.92h-.06l-.29.44z"/><path d="m28.61 18.38s.46-1 1-.66c0 0-.51 0-1 .94z" fill="#00a651"/><path d="m28.61 18.68s0 0 0 0v-.28s.28-.58.66-.71a.46.46 0 0 1 .36 0 0 0 0 0 1 0 0s-.51 0-1 .93zm0-.3v.2c.37-.72.75-.85.91-.88a.42.42 0 0 0 -.27 0c-.33.11-.6.64-.62.68z"/><path d="m28.92 19.68s0 0 0 .05a.11.11 0 0 0 .09.09.18.18 0 0 0 .17-.14c0-.08 0-.16-.13-.16a.14.14 0 0 0 -.12.15z" fill="#964b36"/><path d="m29 19.84a.13.13 0 0 1 -.11-.11.43.43 0 0 1 0-.05.16.16 0 0 1 .14-.16.15.15 0 0 1 .15.17.2.2 0 0 1 -.18.15zm-.07-.14s0 .07.07.07.15-.05.15-.12c0-.05 0-.14-.11-.14a.13.13 0 0 0 -.1.13s0 .05-.01.06z"/><path d="m28.77 19.56.09.08s.16-.08.16-.14v-.05a.18.18 0 0 0 -.08-.15.35.35 0 0 0 -.22.21z" fill="#964b36"/><path d="m28.91 19.7-.08-.07a0 0 0 0 1 0 0 .35.35 0 0 1 .24-.22.17.17 0 0 1 .09.16v.05c-.07-.01-.16.08-.25.08zm-.12-.15.07.05s.15-.07.15-.12v-.05a.14.14 0 0 0 -.07-.13.35.35 0 0 0 -.15.25z"/><path d="m28.74 19.09v.06c0 .08.06.2.15.2a.07.07 0 0 0 .08-.08.22.22 0 0 0 -.2-.2z" fill="#964b36"/><path d="m28.88 19.38c-.1 0-.16-.13-.16-.22v-.08s0 0 0 0a.25.25 0 0 1 .22.22.09.09 0 0 1 -.06.08zm-.12-.29v.06c0 .07.05.18.13.18s.07 0 .07-.06a.22.22 0 0 0 -.2-.18z"/><path d="m28.77 19.56s-.5-.21-.53.28c0 0-.37-.77.72-.5a.32.32 0 0 1 -.19.22z" fill="#00a651"/><path d="m28.24 19.85s-.13-.29 0-.46.35-.15.73-.06a.31.31 0 0 1 -.19.23s0 0-.08 0-.24 0-.34 0a.29.29 0 0 0 -.1.25zm.32-.55a.36.36 0 0 0 -.31.11.4.4 0 0 0 0 .35.3.3 0 0 1 .11-.2.42.42 0 0 1 .36 0h.07a.31.31 0 0 0 .17-.19 2.09 2.09 0 0 0 -.4-.07z"/><path d="m28.71 19.16a1.39 1.39 0 0 1 -.28-.76c0-.15-.39-.79-.39.06 0 0-.49-.65.2-.67a.5.5 0 0 1 .44.58 1 1 0 0 0 .12.74z" fill="#00a651"/><path d="m28.71 19.18a1.46 1.46 0 0 1 -.29-.77c0-.09-.16-.36-.26-.35s-.1 0-.1.41-.24-.33-.14-.54.17-.15.36-.16a.48.48 0 0 1 .31.15.57.57 0 0 1 .15.45s0 .06 0 .09a.85.85 0 0 0 .13.64h-.09zm-.55-1.18c.12 0 .27.29.29.39a1.75 1.75 0 0 0 .26.74h.07a.93.93 0 0 1 -.13-.65.34.34 0 0 0 0-.1.5.5 0 0 0 -.14-.42.39.39 0 0 0 -.28-.13c-.18 0-.29.05-.33.14s.05.36.11.46c0-.26.05-.39.13-.4z"/><path d="m27.47 13.79h10.08v3.32h-10.08z" fill="#d21034"/><path d="m29.76 18.53s-.39-.73-.73-.78c-.08 0-.24-.09-.2-.26a.25.25 0 0 0 .13.09.88.88 0 0 1 .83.72v.12z" fill="#00a651"/><path d="m29.76 18.55s-.38-.72-.71-.77a.33.33 0 0 1 -.2-.12.2.2 0 0 1 0-.17 0 0 0 0 1 0 0 .26.26 0 0 0 .12.08.9.9 0 0 1 .85.74v.11l-.08.11zm-.92-1a.18.18 0 0 0 0 .1.33.33 0 0 0 .18.1c.31.05.65.63.72.77v-.08-.11a.87.87 0 0 0 -.81-.72.2.2 0 0 1 -.09-.08z"/><path d="m28.76 19.58c-.22-.18-.28-.2-.49-.18s0 0 0 0a.54.54 0 0 1 .51.2s0 0 0 0z"/><path d="m28.92 19.3s-.28-.49-.52-.54-.4.32-.35.48c0 0-.3-.54.14-.65s.81.59.8.69-.07.02-.07.02z" fill="#00a651"/><path d="m29 19.35a.06.06 0 0 1 -.05-.05s-.28-.47-.51-.52a.24.24 0 0 0 -.22.09.45.45 0 0 0 -.11.37 0 0 0 0 1 0 0s0 0 0 0a.65.65 0 0 1 -.08-.5.31.31 0 0 1 .23-.18.5.5 0 0 1 .45.13 1.26 1.26 0 0 1 .37.58s0 .06 0 .07zm0-.06a0 0 0 0 0 0 0 1.16 1.16 0 0 0 -.35-.55.48.48 0 0 0 -.42-.13.3.3 0 0 0 -.21.16.55.55 0 0 0 0 .38.58.58 0 0 1 .13-.3.25.25 0 0 1 .25-.09c.25.04.52.5.54.53z"/><path d="m28.4 18.33a.64.64 0 0 0 -.38-.47s0 0 0 0a.71.71 0 0 1 .41.49 0 0 0 0 1 0 0z"/><path d="m29.73 18.58s.08-.79.56-1a1.28 1.28 0 0 1 .64 0l-.63.23c-.24.08-.37.58-.36.73s-.21.04-.21.04z" fill="#00a651"/><path d="m29.83 18.61h-.11s.09-.79.57-1a1.42 1.42 0 0 1 .65 0 0 0 0 0 1 0 0s0 0 0 0l-.63.22c-.24.08-.36.58-.36.72a.11.11 0 0 1 0 .1.11.11 0 0 1 -.12-.04zm-.08-.05s.11 0 .14 0a.06.06 0 0 0 0-.06c0-.17.12-.67.37-.76l.57-.2a1 1 0 0 0 -.56.05c-.41.2-.51.87-.52.97z"/><path d="m30.25 18.56s.3.12.07.6a.61.61 0 0 0 -.31-.58l.12-.09z" fill="#00a651"/><path d="m30.32 19.18s0 0 0 0a.6.6 0 0 0 -.3-.57l.12-.08.12.07a.24.24 0 0 1 .14.15.59.59 0 0 1 -.06.47zm-.32-.61a.62.62 0 0 1 .3.5.58.58 0 0 0 0-.36.23.23 0 0 0 -.12-.13l-.11-.06z"/><path d="m29.68 18.6s.35-.4.57 0c0 0-.25-.09-.41.33z" fill="#00a651"/><path d="m29.84 18.91-.15-.29a.55.55 0 0 1 .37-.2.3.3 0 0 1 .23.16s-.25-.08-.39.32zm-.13-.31.13.25c.12-.29.29-.32.37-.31a.22.22 0 0 0 -.17-.11.51.51 0 0 0 -.33.17z"/><path d="m29.43 18.45s.59 0 .43.59c0 0-.38-.47-.47-.49s.04-.1.04-.1z" fill="#00a651"/><path d="m29.86 19.06a2.4 2.4 0 0 0 -.45-.48.06.06 0 0 1 -.05 0s.06-.09.08-.11a.58.58 0 0 1 .41.21.47.47 0 0 1 0 .41zm-.43-.6a.18.18 0 0 0 -.05.07c.08 0 .36.36.45.46a.39.39 0 0 0 0-.34.58.58 0 0 0 -.4-.19z"/><path d="m29.43 18.45c-.23-.09-.41.21-.34.3a1.42 1.42 0 0 1 .22.8c.34-.38.12-1.1.12-1.1z" fill="#00a651"/><path d="m29.31 19.57a1.38 1.38 0 0 0 -.21-.78.21.21 0 0 1 0-.23.27.27 0 0 1 .32-.11 0 0 0 0 0 0 0 1.34 1.34 0 0 1 -.13 1.13zm0-1.12a.25.25 0 0 0 -.2.11c0 .07-.07.15 0 .18a1.33 1.33 0 0 1 .22.76 1.3 1.3 0 0 0 .08-1z"/><path d="m31.2 18s.46-.44.41.37c0 0-.23-.55-.51-.12z" fill="#00a651"/><path d="m31.61 18.37s-.11-.26-.26-.27-.14 0-.21.15l.11-.25s.18-.17.31-.11.14.21.12.49zm-.29-.32c.12 0 .21.15.25.23 0-.27-.05-.36-.1-.39s-.25.08-.27.1l-.06.14a.27.27 0 0 1 .18-.08z"/><path d="m30.79 18.63s-.19-.7-.63-.9c0 0 .5-.2.68.56z" fill="#00a651"/><path d="m30.79 18.65s-.19-.7-.62-.89a0 0 0 0 1 0 0 .46.46 0 0 1 .37 0 .75.75 0 0 1 .33.54v.34s0 0 0 0zm-.58-.91a1.5 1.5 0 0 1 .57.81v-.26a.73.73 0 0 0 -.32-.52.39.39 0 0 0 -.25-.03z"/><path d="m30.86 18.86c.21.06.51.17.56.33 0 0 0-.5-.19-.5a.54.54 0 0 0 -.37.17z" fill="#00a651"/><path d="m31.42 19.21c0-.11-.24-.23-.55-.31a.59.59 0 0 1 .39-.18.17.17 0 0 1 .12 0c.12.13.09.46.09.47zm-.53-.36a1.09 1.09 0 0 1 .52.27.6.6 0 0 0 -.09-.37.1.1 0 0 0 -.09 0 .57.57 0 0 0 -.34.1z"/><path d="m30.7 18.92s.06-1 .58-1a2.94 2.94 0 0 0 -.25.84z" fill="#00a651"/><path d="m30.7 18.93c0-.05.07-1 .6-1a3.05 3.05 0 0 0 -.25.84s0 0 0 0l-.33.17zm.56-1c-.43 0-.52.8-.54 1l.29-.16a2.59 2.59 0 0 1 .25-.85z"/><path d="m30.93 19.17s.37 0 .11.52a.6.6 0 0 0 -.12-.31.15.15 0 0 1 .01-.21z" fill="#00a651"/><path d="m31 19.71a.58.58 0 0 0 -.11-.29.18.18 0 0 1 0-.25.22.22 0 0 1 .19.08c.07.09.05.25-.05.47zm-.11-.53a.15.15 0 0 0 0 .19.49.49 0 0 1 .11.26c.07-.18.08-.31 0-.38a.19.19 0 0 0 -.07-.07z"/><path d="m30.28 19.83c-.05 0-.14.21-.14.27s.05.12.15.12.19-.22.19-.3a.09.09 0 0 0 -.1-.1h-.1z" fill="#964b36"/><path d="m30.29 20.24a.15.15 0 0 1 -.16-.14c0-.05.08-.28.15-.28h.1a.12.12 0 0 1 .12.12c0 .06-.06.3-.21.3zm0-.39a.53.53 0 0 0 -.12.25s0 .1.13.1.17-.2.17-.28 0-.08-.08-.08h-.1z"/><path d="m30.34 19.57a.71.71 0 0 0 -.11.25c0 .06.08.09.14.09s.18-.14.18-.22 0-.15-.13-.15z" fill="#964b36"/><path d="m30.37 19.93c-.08 0-.15 0-.15-.11a.62.62 0 0 1 .11-.26s0 0 0 0h.05c.11 0 .15.08.15.17s-.05.2-.16.2zm.05-.38a.64.64 0 0 0 -.11.24c0 .06.08.07.12.07s.16-.13.16-.2-.07-.11-.17-.11z"/><path d="m30.34 19.56.26-.45s.41-.24.32.27c0 0-.23-.24-.39.23a.18.18 0 0 1 -.11 0 .21.21 0 0 1 -.08-.05z" fill="#00a651"/><path d="m30.46 19.64-.09-.05a0 0 0 0 1 0 0l.26-.45s.18-.1.29 0 .09.16.06.33a.16.16 0 0 0 -.16-.06c-.08 0-.15.11-.2.27a0 0 0 0 1 0 0zm-.1-.08h.07a.13.13 0 0 0 .09 0c.05-.16.13-.26.22-.28a.18.18 0 0 1 .17 0c0-.14 0-.22-.05-.26s-.22 0-.24 0z"/><path d="m30.48 19.32c-.06.06.13-.76.75-.63 0 0-.31 0-.35.29 0 .02-.35.28-.4.34z" fill="#00a651"/><path d="m30.47 19.34s0-.15 0-.19a.69.69 0 0 1 .74-.48 0 0 0 0 1 0 0s-.29 0-.33.27-.35.28-.4.34zm.64-.62a.53.53 0 0 0 -.38.17 1 1 0 0 0 -.23.42l.37-.31a.4.4 0 0 1 .27-.28z"/><path d="m34.9 20.43s0-.08 0-.09 0 0 0 0 .08-.06.12-.09a.25.25 0 0 0 .18-.25 1.48 1.48 0 0 0 0-.21v-.54a.26.26 0 0 1 0-.15.16.16 0 0 1 .09-.07.11.11 0 0 1 .14 0 .63.63 0 0 1 0 .24v.36s0 0 0 .05 0 0 0 0 0 0 0 .06v.26a.8.8 0 0 0 0 .15.93.93 0 0 0 .13.15l.06.08a0 0 0 0 1 0 0s0 0-.05 0a.1.1 0 0 0 -.09 0 0 0 0 0 1 0 0s0 0-.07 0h-.19a.05.05 0 0 0 -.05 0 .07.07 0 0 1 -.06 0h-.21z" fill="#964b36"/><path d="m35.24 20.47s0 0 0 0a.07.07 0 0 1 -.06 0h-.21a.13.13 0 0 1 0-.1.31.31 0 0 1 .09-.07.27.27 0 0 0 .1-.18.67.67 0 0 0 0-.2v-.54a.21.21 0 0 1 0-.15.12.12 0 0 1 .09-.08.11.11 0 0 1 .14 0 .3.3 0 0 1 0 .21v.45a0 0 0 0 0 0 0 .13.13 0 0 0 0 .06v.13a.58.58 0 0 0 0 .14.31.31 0 0 0 .09.11s0 0 0 0l.06.09s0 0 0 0a0 0 0 0 1 0 0 .06.06 0 0 0 -.07 0s0 0 0 0a0 0 0 0 1 0 0zm-.05 0h.24s0 0 0 0a.1.1 0 0 1 .1 0h.06s0 0 0 0a.24.24 0 0 0 -.06-.09.44.44 0 0 1 -.08-.11.43.43 0 0 1 0-.14v-.15a.43.43 0 0 0 0-.05s0 0 0 0a.06.06 0 0 1 0 0v-.4a.46.46 0 0 0 0-.2.12.12 0 0 0 -.13 0 .2.2 0 0 0 -.08.08.34.34 0 0 0 0 .14v.53a1.62 1.62 0 0 1 0 .22.33.33 0 0 1 -.11.18s-.07 0-.08.07a0 0 0 0 1 0 0 .11.11 0 0 0 0 .08h.28z"/><path d="m35.09 20.37s0 0 0 0 0 0 0-.06 0 0 0 0a.17.17 0 0 1 0 .07s0 0 0 0a0 0 0 0 1 0 0 0 0 0 0 0 0 0s0 0 0 0h.06.06-.05s0 0 0 0a.08.08 0 0 1 0 0s0 0 0 0a.06.06 0 0 1 0 0s0 0 0 0z"/><path d="m35.09 19a.05.05 0 0 0 0 0s0 .09 0 .14a0 0 0 0 0 0 0h.09a.07.07 0 0 0 .06 0 .09.09 0 0 0 .06 0v-.06h.1v-.06a.25.25 0 0 0 0-.07.49.49 0 0 0 0-.12.37.37 0 0 0 -.16-.19h-.06-.22-.06a.22.22 0 0 0 0 .08.17.17 0 0 0 .19.28z"/><path d="m33.4 18.25a1.31 1.31 0 0 1 .52-.55l.12-.05a.68.68 0 0 1 .28 0h.2a1 1 0 0 1 .25.08 1.31 1.31 0 0 1 .27.12.55.55 0 0 1 .2.2v-.75.16.05a.45.45 0 0 0 0 .11 0 0 0 0 1 0 0v.22a1 1 0 0 0 0-.18.38.38 0 0 1 .09-.15.13.13 0 0 1 .07 0 .14.14 0 0 1 0 .09v.07a.66.66 0 0 0 -.09.19s0 0 0 0v.07s0 .08 0 .09.06 0 .07 0a2.17 2.17 0 0 1 .36-.32l.16-.07a1.38 1.38 0 0 1 .39-.09.79.79 0 0 1 .48.18 2.1 2.1 0 0 1 .36.37.23.23 0 0 1 0 .14.19.19 0 0 1 -.07.12.37.37 0 0 1 0-.11h-.07v-.06h.01v-.13l-.11.08a.29.29 0 0 0 0-.09l-.11.11v-.15s0 0 0 0l-.1.18a.38.38 0 0 1 0-.15v.06a.36.36 0 0 1 0-.1v.09a.06.06 0 0 0 0 .06l-.1-.09v.11a.16.16 0 0 1 -.28-.16v.08a1.17 1.17 0 0 1 -.05-.11v.13l-.25-.1v.1-.03.06h-.09v.07h-.12a.08.08 0 0 0 0 .05.33.33 0 0 1 -.17 0 .19.19 0 0 1 .08.1.67.67 0 0 1 .7.15.78.78 0 0 1 .19.33 1.59 1.59 0 0 1 .07.38l-.18.08.06-.1-.16-.1s0 0 0 0 0-.07 0-.11a.22.22 0 0 0 0-.08.07.07 0 0 1 -.08-.06v-.06a.77.77 0 0 0 0-.15.27.27 0 0 0 -.07.08h-.05s0 0 0 0a0 0 0 0 0 0 0l-.05-.06s0 0 0 0 0 0-.07 0 0 0-.06 0l-.06-.05a.13.13 0 0 0 0 .06l.16.13a1.09 1.09 0 0 1 .47.86v.13a1.15 1.15 0 0 1 -.1.23c0-.09 0-.17 0-.26a.75.75 0 0 0 -.07.12.71.71 0 0 1 0-.25v-.07l-.06.07a.27.27 0 0 1 0-.12v-.18.05a1.21 1.21 0 0 0 -.05-.18l-.06.06v-.21l-.05.06a.5.5 0 0 1 -.08-.2.11.11 0 0 0 0 .08v-.09a.11.11 0 0 1 -.07.08.14.14 0 0 1 -.11 0s0 0-.06 0 0 0 0 0a.62.62 0 0 0 -.12.19l-.74-.16-.11.23a.8.8 0 0 1 0-.15.3.3 0 0 0 -.05.15s-.06.07-.06.12h-.06a.45.45 0 0 0 0 .11.5.5 0 0 1 0 .16h-.06a.29.29 0 0 0 0 .18.1.1 0 0 1 -.06-.05.18.18 0 0 0 0 .22.07.07 0 0 0 0 .11.22.22 0 0 1 -.06-.13.77.77 0 0 1 0-.15.93.93 0 0 1 .19-.64 1.25 1.25 0 0 1 .54-.45s.07 0 .06-.08a.07.07 0 0 0 -.06 0h-.06l-.07.05h-.05s0 0 0 0v-.05l-.08.07s0 0 0-.07a.61.61 0 0 0 0 .12v-.05a1 1 0 0 0 -.07.15.08.08 0 0 1 0-.05.25.25 0 0 1 0 .07v-.08a.37.37 0 0 0 0 .11v.06a.83.83 0 0 1 0-.15v.15-.1a.83.83 0 0 0 0 .15.37.37 0 0 1 -.07-.14v.22l-.07-.06a.91.91 0 0 0 0 .17s0 0 0 0a.45.45 0 0 0 0 .11.41.41 0 0 0 0 .11.56.56 0 0 0 -.05-.08v.14-.06.05a2.33 2.33 0 0 1 .08-.46.68.68 0 0 1 .27-.37.77.77 0 0 1 .33-.12 1.59 1.59 0 0 1 .72 0 .31.31 0 0 0 -.11-.09.1.1 0 0 1 -.05 0s0-.05 0-.05h-.09s0 0 0-.06h-.16s0 0 0 0h-.11s0 0 0 0a.05.05 0 0 0 -.08 0v-.32.07-.07a1 1 0 0 1 -.27.26.67.67 0 0 1 .08-.25s0 0 0 0l-.05.07v-.06a.19.19 0 0 0 0 .07v-.06l-.06.08-1.25-.11s0 .08 0 .12v-.06a.14.14 0 0 0 0 .09l-.07-.06v.05h-.08v.06s0 0-.06 0 0 .09 0 .12a.11.11 0 0 0 0 .08s0 0 0 0v-.05z" fill="#00a651"/><path d="m34.36 20a.3.3 0 0 1 -.06-.14.77.77 0 0 1 0-.15 1 1 0 0 1 .19-.65 1.36 1.36 0 0 1 .55-.46s.06 0 0-.06 0 0 0 0l-.07.05h-.06s0 0 0 0h-.06a0 0 0 0 1 0 0s0 0 0 0v.08a.43.43 0 0 0 -.05.12s0 0 0 0v-.06a.13.13 0 0 0 0 .08s0 0 0 0 0-.05 0-.08v.08a0 0 0 0 1 0 0v.09s0 0 0 0v-.08.15a0 0 0 0 1 0 0s0 .09 0 .13 0 0 0 0v.08s0 0 0 0v.05.1a0 0 0 0 1 0 0s0 0 0 0v-.08a2.66 2.66 0 0 1 .07-.39.87.87 0 0 1 -.87-.46 1 1 0 0 1 .34-.12 1.63 1.63 0 0 1 .66 0h-.06-.06a.07.07 0 0 1 0 0h-.07s0 0 0 0h-.15s0 0 0 0a0 0 0 0 0 0 0h-.09a0 0 0 0 0 0 0 0 0 0 0 1 0 0s0 0 0 0v-.28a1 1 0 0 1 -.26.24s0 0 0 0a.61.61 0 0 1 -.11-.24v.07s0 0 0 0a.19.19 0 0 0 0 .08s0 0 0 0a.13.13 0 0 0 0 .06s0 0 0 0h-.06s0 0 0 0a.1.1 0 0 0 0 0v.05a.1.1 0 0 1 0 .07.14.14 0 0 0 0 .07s0 0 0 0a1.3 1.3 0 0 1 .53-.56l.13-.06a.9.9 0 0 1 .28 0h.2l.26.08c.09 0 .18.07.27.12a.66.66 0 0 1 .17.16v-.69a0 0 0 0 1 0 0v.17.05a.29.29 0 0 0 0 .09s0 0 0 0a0 0 0 0 1 0 0v.1a.13.13 0 0 0 0-.06.37.37 0 0 1 .1-.17h.08s0 0 0 0a.14.14 0 0 1 0 .09.15.15 0 0 1 0 .06 1.19 1.19 0 0 0 -.08.16.06.06 0 0 1 0 .05s0 0 0 0v.06a.08.08 0 0 0 0 .07l.1-.1a1.09 1.09 0 0 1 .26-.22.61.61 0 0 1 .17-.07 1 1 0 0 1 .39-.1.84.84 0 0 1 .49.18 3.32 3.32 0 0 1 .37.38.66.66 0 0 1 0 .15.27.27 0 0 1 -.07.13 0 0 0 0 1 0 0 .3.3 0 0 1 0-.1h-.06s0 0 0 0h-.73a0 0 0 0 1 0 0s0 0 0 0 0-.05 0-.08l-.07.05a0 0 0 0 1 0 0l-.07.08a0 0 0 0 1 0 0v-.42l-.09.17a0 0 0 0 1 0 0v-.07a0 0 0 0 1 0 0 .14.14 0 0 1 0-.06v.05s0 0 0 0a0 0 0 0 0 0 0l-.37-.09v.07s0 0 0 0a.16.16 0 0 1 0-.07v-.05.08h-.09v.06s0 0 0 0a0 0 0 0 1 0 0h-.06-.1v.06h-.09a.24.24 0 0 1 -.12 0v.05a.69.69 0 0 1 .7.15.88.88 0 0 1 .2.34 1.89 1.89 0 0 1 .07.39 0 0 0 0 1 0 0h-.08-.11s0 0 0 0a.35.35 0 0 0 .06-.09l-.41.01s0 0 0 0a0 0 0 0 1 0 0v-.05h-.06v-.08a.05.05 0 0 1 0 0 .49.49 0 0 0 0-.12v.06s0 0 0 0h-.06s0 0-.07 0a0 0 0 0 1 0 0 .61.61 0 0 0 .15.12 1.14 1.14 0 0 1 .48.88.53.53 0 0 1 0 .13.65.65 0 0 1 -.09.23.53.53 0 0 0 0-.13v-.08.08a.93.93 0 0 1 0-.23s0 0 0 0v-.1a0 0 0 0 1 0 0v-.14a.75.75 0 0 0 0-.16 0 0 0 0 1 0 0v-.17a0 0 0 0 1 0 0 .69.69 0 0 1 -.07-.15 0 0 0 0 1 0 0v-.06a.11.11 0 0 1 -.07.06.13.13 0 0 1 -.12 0 .67.67 0 0 0 -.11.18l-.09.21s0 0 0 0a.23.23 0 0 1 0-.11.18.18 0 0 0 0 .1s0 0 0 0 0 0 0 .07 0 0 0 0v.08s0 0 0 0v.13a.3.3 0 0 0 0 .16s0 0 0 0a.1.1 0 0 1 -.05 0 .17.17 0 0 0 0 .18 0 0 0 0 1 0 0 .05.05 0 0 0 0 0 0 0 0 0 0 0 .05 0 0 0 0 1 0 0zm.64-1.55a.08.08 0 0 1 .07 0s0 .08-.08.1a1.44 1.44 0 0 0 -.53.45 1 1 0 0 0 -.19.63v.14a.14.14 0 0 0 0 .07.08.08 0 0 1 0 0 .2.2 0 0 1 0-.22s0 0 0 0a.45.45 0 0 1 0-.16.69.69 0 0 0 0-.13 0 0 0 0 1 0 0s0-.05 0-.08v-.06a.61.61 0 0 1 0-.12s0 0 0 0v.1l.73-.17a0 0 0 0 1 0 0 .94.94 0 0 1 .12-.18s.06 0 .08 0a.1.1 0 0 0 .09 0 .11.11 0 0 0 .07-.06s0 0 0 0a.05.05 0 0 0 0 0s0 0 0 0a0 0 0 0 1 0 0 .49.49 0 0 0 .06.17v.17s0 0 0 0a.58.58 0 0 1 0 .14v.16s0 0 0 0 0 .06 0 .09 0 0 0 0v.05s0 0 0 0a0 0 0 0 1 0 0 .55.55 0 0 0 0 .18v-.06s0 0 0 0a.62.62 0 0 0 0 .13v.06a.51.51 0 0 0 .07-.17s0-.07 0-.12a1.12 1.12 0 0 0 -.47-.85.7.7 0 0 1 -.16-.13s0 0 0-.06 0 0 0 0h.06.06a0 0 0 0 1 0 0s0 0 0 0h1.02a.08.08 0 0 1 .07 0 .23.23 0 0 1 .07-.07s0 .08 0 .12h.05v.05s0 0 0 0h.05a0 0 0 0 1 0 0v.08s0 0 0 0 0 .06 0 .09v.21l.16.09s0 0 0 0h.05.06a1.84 1.84 0 0 0 -.07-.37.77.77 0 0 0 -.18-.32.68.68 0 0 0 -.68-.15.24.24 0 0 0 -.08-.09s0 0 0 0a.3.3 0 0 0 .13 0s0 0 0 0h.1a0 0 0 0 1 0 0s0 0 0 0h.27s0 0 0 0a.05.05 0 0 1 0 0s0 0 0 0a0 0 0 0 1 0 0h.08.07v-.11.07s0 0 0 0a.19.19 0 0 0 0 .09v-.07s0 0 0 0l.07.06s0 0 0 0v-.09s0 0 0 0a0 0 0 0 1 0 0 .64.64 0 0 0 0 .07s0 0 0 0a0 0 0 0 1 0 0s0 .06 0 .08l.07-.12a0 0 0 0 1 0 0v.19l.08-.08a.09.09 0 0 1 0 .05l.07-.05s0 0 0 0v.1h.09s0 0 0 0h.07s0 0 0 .08a.28.28 0 0 0 .05-.09.33.33 0 0 0 0-.14 2.38 2.38 0 0 0 -.35-.36.8.8 0 0 0 -.47-.17 1.24 1.24 0 0 0 -.38.09l-.16.07a1.09 1.09 0 0 0 -.26.22l-.09.1s-.07.06-.1 0 0-.11 0-.12v-.06s0 0 0 0a.82.82 0 0 1 .09-.19.09.09 0 0 0 0-.05.14.14 0 0 0 0-.06.24.24 0 0 0 -.09.14.13.13 0 0 0 0 .06.29.29 0 0 1 -.05.13s0 0 0 0v-.2a0 0 0 0 1 0 0 .11.11 0 0 1 0-.08v.28s0 0 0 0a.57.57 0 0 0 -.19-.19 2.06 2.06 0 0 0 -.26-.12 1.17 1.17 0 0 0 -.25-.07h-.2a.83.83 0 0 0 -.27 0l-.12.06a1.23 1.23 0 0 0 -.5.51 0 0 0 0 1 0 0 .19.19 0 0 1 0-.07.13.13 0 0 1 0-.06 0 0 0 0 1 0 0s0 0 0 0h.08a0 0 0 0 1 0 0 .14.14 0 0 1 0-.06.2.2 0 0 1 0-.08l.92.08a0 0 0 0 1 0 0h.07a.83.83 0 0 0 -.06.21 1.25 1.25 0 0 0 .23-.23 0 0 0 0 1 0 0s0 0 0 0v.02s0 0 0 0h.14s0 0 0 0h.13a0 0 0 0 1 0 0s0 0 0 0h.49s0 0 0 0l.12.1a1.59 1.59 0 0 0 -.72 0 .93.93 0 0 0 -.32.11.77.77 0 0 0 -.26.36 1.34 1.34 0 0 0 -.07.39v-.07a0 0 0 0 1 0 0 .11.11 0 0 0 0-.05s0 0 0 0 0 0 0-.07 0 0 0 0a.88.88 0 0 1 0-.16 0 0 0 0 1 0 0v-.19s0 0 0 0v.1-.11-.08a.49.49 0 0 0 0 .11 0 0 0 0 1 0 0 .16.16 0 0 1 0-.07 0 0 0 0 1 0 0v.05a.05.05 0 0 0 0 0 .34.34 0 0 1 .06-.12v-.09a.14.14 0 0 0 0 .07l.08-.06a0 0 0 0 0 0 0l.07-.05h.07z"/><path d="m35.17 18.86v-.11s0 0 0 0v.07a.09.09 0 0 1 0 .05z"/><path d="m35.4 18.84s0 0 0 0a.19.19 0 0 1 0-.07s0 0 0 0 0 .05 0 .07 0 0 0 0 .01 0 0 0z"/><path d="m35.19 18.63a0 0 0 0 1 0 0h-.19a0 0 0 0 1 0 0 .16.16 0 0 1 .07 0 .08.08 0 0 1 0 0 0 0 0 0 1 .12 0z"/><path d="m35.34 18.6a0 0 0 0 1 0 0 .19.19 0 0 1 .09 0h.1a0 0 0 0 1 0 0h-.11a.11.11 0 0 0 -.07 0z"/><path d="m35.3 18.6s0 0 0 0a.22.22 0 0 1 0-.08.61.61 0 0 1 -.07-.1.22.22 0 0 0 -.05-.08.09.09 0 0 1 0-.07 0 0 0 0 1 0 0s0 0 0 0a.14.14 0 0 1 0-.09s0 0 0 0a.06.06 0 0 0 0 0s0 0 0 0a0 0 0 0 1 0 0 0 0 0 0 0 0 0s0 0 0 .05 0 0 0 0a0 0 0 0 1 0 0s0 0 0 0a.24.24 0 0 1 .06.09v.08s0 0 0 0v.05a.45.45 0 0 0 0 .11s0 0 0 0z"/><path d="m35.32 18.34a.16.16 0 0 1 .07-.09v-.05a.07.07 0 0 1 -.06-.06 0 0 0 0 1 0 0 .77.77 0 0 1 0-.15s0-.08 0-.11a.07.07 0 0 1 0 0s0 0 0 0a0 0 0 0 1 0 0s0 0 0 0 0 .08 0 .12a.68.68 0 0 0 0 .14s0 0 0 0h.1a0 0 0 0 1 0 0l-.07.07s0 .05 0 .08z"/><path d="m35.34 18.16a0 0 0 0 1 0 0s0 0 0 0a.09.09 0 0 1 -.06 0z"/><path d="m30.72 25.38-.27-.68a2.07 2.07 0 0 1 -1-.41 1.47 1.47 0 0 1 -.14-1.14v-.05c0-.06 0-.15-.19-.21h-.28a0 0 0 0 1 0 0s0 0 0 0l.28-.15a.47.47 0 0 1 .35-.19.35.35 0 0 1 .27.19 1.18 1.18 0 0 1 .07.2.85.85 0 0 0 .16.37c0-.12 0-.35.06-.45a2 2 0 0 1 .47-.27 1.64 1.64 0 0 0 .37-.2 0 0 0 0 1 0 0 2.9 2.9 0 0 1 -.21.38l.08-.06s0 0 0 0a1 1 0 0 1 -.06.22c.14 0 .61-.25.67-.41a0 0 0 0 1 0 0s0 0 0 0a1 1 0 0 1 -.31.5.5.5 0 0 0 .15-.09s0 0 0 0a1.11 1.11 0 0 1 -.41.38l.18-.06s0 0 0 0a0 0 0 0 1 0 0 .87.87 0 0 1 -.38.23 1.6 1.6 0 0 0 .23 0s0 0 0 0a0 0 0 0 1 0 0 .62.62 0 0 1 -.28.17s-.07.08-.18.12a2.18 2.18 0 0 1 .25.61 4.21 4.21 0 0 0 .61.54s0 0 0 0h-.11s0 0 0 0a0 0 0 0 1 0 0v.05h-.08l-.1.07h-.09-.05l-.07.08zm-1.78-2.56h.19c.23.06.24.17.23.26v.05c0 .29-.11.84.13 1.1a2.08 2.08 0 0 0 1 .4s0 0 0 0l.27.65.05-.07h.06.09l.1-.07s0 0 0 0h.07s0 0 0 0h.08a5.64 5.64 0 0 1 -.59-.53 1.79 1.79 0 0 0 -.26-.62c.16-.05.17-.09.18-.1s0 0 0 0a.49.49 0 0 0 .23-.11.71.71 0 0 1 -.27-.07 0 0 0 0 1 0 0s0 0 0 0a.67.67 0 0 0 .34-.13 1.66 1.66 0 0 1 -.27 0s0 0 0 0a1.1 1.1 0 0 0 .51-.33l-.31.13s0 0 0 0a.94.94 0 0 0 .45-.47 1.79 1.79 0 0 1 -.64.32s0 0 0 0a.44.44 0 0 0 .06-.16l-.15.08s0 0 0 0a1.31 1.31 0 0 0 .23-.36 1.92 1.92 0 0 1 -.29.15 2.68 2.68 0 0 0 -.45.25c-.08.1 0 .4 0 .5s0 0 0 0a.86.86 0 0 1 -.23-.46.69.69 0 0 0 -.07-.19.31.31 0 0 0 -.23-.17c-.16 0-.29.18-.3.18z"/><path d="m30.1 23.49s0 0 0 0v-.1a.08.08 0 0 1 0 0 .05.05 0 0 1 0 0s.06-.07.1-.08h.14a.19.19 0 0 0 .12-.07v-.06l.05-.06a.22.22 0 0 1 .09-.07 0 0 0 0 1 0 0s0 0 0 0a.27.27 0 0 0 -.08.07v.06l-.05.06a.3.3 0 0 1 -.15.09h-.13a.24.24 0 0 0 -.08.06.08.08 0 0 0 0 0v.1z"/><path d="m30.5 23.94a.18.18 0 0 1 -.13 0 .17.17 0 0 0 -.12 0 .1.1 0 0 0 0 0s0 0 0 0a.12.12 0 0 1 .06-.08.18.18 0 0 1 .16 0 .25.25 0 0 0 .14 0 0 0 0 0 1 0 0z"/><path d="m30.85 25.3-.39-.74a0 0 0 0 1 0 0l.39.74a0 0 0 0 1 0 0z"/><path d="m31.2 25.25s0 0 0 0l-.68-.76a0 0 0 0 1 0 0l.68.76s0 0 0 0a0 0 0 0 1 0 0z"/><path d="m31.33 25.17-.74-.72a0 0 0 0 1 0 0s0 0 0 0l.75.72a0 0 0 0 1 0 0z"/><path d="m29.33 24.22.07.05v.06s0 0 0 0h.08a0 0 0 0 0 0 0s0 0 0 0a.81.81 0 0 1 -.1-.09.1.1 0 0 1 0-.05v-.06c-.05-.02-.05.07-.05.09z"/><path d="m29.13 22.86a.08.08 0 0 0 0 0 .05.05 0 0 1 0 0 .08.08 0 0 1 0 0 .11.11 0 0 1 0 .07.05.05 0 0 1 0-.07z"/><path d="m29.31 22.77s-.08 0-.08-.05 0-.06.08-.06.09 0 .09.06-.04.05-.09.05zm0-.09s-.07 0-.07 0 0 0 .07 0 .07 0 .07 0-.03 0-.07 0z"/><circle cx="29.31" cy="22.72" r=".03"/><path d="m28.59 22.61s0 0 0 0a.25.25 0 0 1 0-.09s0 0 0 0v-.07h.05.07.05a.11.11 0 0 1 0 .06.13.13 0 0 1 0 .06s0 0 0 0h-.11z" fill="#00a651"/><path d="m28.63 22.63a.36.36 0 0 1 0-.09.14.14 0 0 1 0-.06v-.06h.06.07.05a.16.16 0 0 1 0 .07.13.13 0 0 1 0 .06 0 0 0 0 1 0 0h-.07zm-.12-.25v.06a.43.43 0 0 1 0 0l.05.09h.1a.13.13 0 0 0 0-.06.09.09 0 0 0 0-.06h-.08z"/><path d="m28.75 22.59a.19.19 0 0 1 0-.08.57.57 0 0 1 0-.13l.06.05a.13.13 0 0 1 0 .06.09.09 0 0 1 0 .07.14.14 0 0 1 0 .06 0 0 0 0 0 -.06-.03z" fill="#00a651"/><path d="m28.84 22.66s0 0 0 0a.19.19 0 0 1 0-.08.57.57 0 0 1 0-.13s0 0 0 0l.07.05a.13.13 0 0 1 0 .06s0 0 0 .07a.09.09 0 0 1 0 .07zm-.08-.08h.09v-.06-.07s0 0 0-.05 0 0 0 0h-.07a0 0 0 0 0 0 0s0 .08 0 .12a.15.15 0 0 0 0 .07z"/><path d="m28.68 22.67-.08.06a.28.28 0 0 0 0 .13h.06l.06-.06s0 0 0 0a.22.22 0 0 0 0-.08 0 0 0 0 0 0 0s-.02-.07-.04-.05z" fill="#00a651"/><path d="m28.6 22.9a.53.53 0 0 1 0-.13l.07-.06s.08-.06.11 0a0 0 0 0 1 0 0 .22.22 0 0 1 0 .08h-.05l-.06.05zm.08-.23-.07.06s0 0 0 0a.24.24 0 0 0 0 .12l.05-.05.06-.05s0 0 0 0a.15.15 0 0 0 0-.07s-.06 0-.09 0z"/><path d="m28.75 22.89h-.05l-.1.11h.18.08s0-.06 0-.07h-.13z" fill="#00a651"/><path d="m28.71 23h-.06s0 0-.06 0l.07-.08s0 0 0 0h.18s0 0 0 0a.16.16 0 0 1 0 .07.15.15 0 0 1 -.08 0zm-.1 0h.17.07a.11.11 0 0 0 0-.06h-.15z"/><path d="m28.85 23.13a.13.13 0 0 0 0 .09.24.24 0 0 1 .06.09 0 0 0 0 0 0 0 .29.29 0 0 1 0-.09s0 0 0 0 0 0 0-.05 0 0 0 0a.33.33 0 0 0 -.06-.04z" fill="#00a651"/><path d="m29 23.32a.35.35 0 0 0 -.05-.08s-.05-.06 0-.1a.19.19 0 0 1 0-.08s0 0 0 0a0 0 0 0 1 0 0s0 0 .06 0v.05a.13.13 0 0 1 0 .06s0 0 0 .07a.05.05 0 0 1 0 0zm0-.32s0 0 0 0a.13.13 0 0 0 0 .07.14.14 0 0 0 .05.09.18.18 0 0 1 .05.07.64.64 0 0 1 0-.07.07.07 0 0 1 0 0 .09.09 0 0 0 0-.05s-.1-.11-.16-.11z"/><path d="m29.08 23.05s0 .06 0 .08a.41.41 0 0 0 0-.11.23.23 0 0 0 0-.11 0 0 0 0 0 0 0h-.08s0 0 0 0v.09a.39.39 0 0 1 .08.05z" fill="#00a651"/><path d="m29.13 23.15a.14.14 0 0 1 0-.06.28.28 0 0 0 -.13-.09 0 0 0 0 1 0 0s0 0 0 0h.09.05s0 0 0 0a.2.2 0 0 1 0 .11.37.37 0 0 1 0 .11zm-.13-.26a.44.44 0 0 1 .09.11.34.34 0 0 0 0-.1h-.09z"/><path d="m28.87 23a0 0 0 0 1 0 0z"/><path d="m28.83 22.65a.14.14 0 0 0 0-.06h-.06s0 0 0 0a.15.15 0 0 1 .06.05s0 0 0 .06z"/><path d="m29 23.11a0 0 0 0 0 0 0 .06.06 0 0 1 0 0z"/><path d="m29.08 23h-.08a0 0 0 0 1 0 0h.05z"/><path d="m28.93 23s0 0 0 0 0 0 0-.05 0 0 0 .05z"/><path d="m28.9 22.92a0 0 0 0 1 0 0s0 0 0 0z"/><path d="m29 22.76-.21-.11h-.05a0 0 0 0 1 0 0h.07a.68.68 0 0 0 .21.1s0 0 0 0z"/><path d="m28.73 22.89s0 0 0 0h.1s0 0 0 0z"/><path d="m28.71 22.72a.06.06 0 0 0 0 0 .11.11 0 0 1 0 .05z"/><path d="m35.67 22.38a.65.65 0 0 1 .37-.14h.2.12l.24.1s0 0 0 0 0 0 0 .06v.1a.11.11 0 0 1 0 .09.16.16 0 0 1 -.1 0 .3.3 0 0 1 -.15 0 .52.52 0 0 1 -.11-.1l-.08-.07a.16.16 0 0 0 -.09 0l-.09.05-.19.18a.52.52 0 0 1 -.11.1.14.14 0 0 1 -.14 0l-.06-.07v-.05s0 0 0 0v-.05l.08-.09z" fill="#964b36"/><path d="m35.57 22.86h-.07a.21.21 0 0 1 -.06-.08s0 0 0 0 0 0 0-.05l.09-.1.1-.09a.57.57 0 0 1 .38-.14.51.51 0 0 1 .2 0h.13l.24.1a.06.06 0 0 1 0 .07.43.43 0 0 1 0 .11.25.25 0 0 1 0 .09.17.17 0 0 1 -.12.05.25.25 0 0 1 -.16 0l-.12-.11-.07-.06h-.08-.07a1.8 1.8 0 0 0 -.2.19.44.44 0 0 1 -.11.09.12.12 0 0 1 -.08-.07zm.11-.46-.1.09-.08.09v.05l.05.07a.13.13 0 0 0 .12 0 .39.39 0 0 0 .1-.08l.19-.18s.06-.05.09-.05a.14.14 0 0 1 .11 0 .46.46 0 0 1 .07.07l.11.1a.33.33 0 0 0 .14 0 .13.13 0 0 0 .09 0 .2.2 0 0 0 0-.08s0-.07 0-.1 0 0 0-.05l-.24-.09-.12-.05a.72.72 0 0 0 -.19 0 .56.56 0 0 0 -.36.14z"/><path d="m36.4 22.74a.19.19 0 0 1 0-.08.09.09 0 0 1 0 0 .33.33 0 0 1 0-.06l.12-.1h.09a0 0 0 0 1 0 0s0 0 0 0h-.07l-.11.09v.05a.17.17 0 0 0 0 .07s0 0 0 0z"/><path d="m34.52 22.88v-.1s0 0 0-.06a.08.08 0 0 1 0 0 .67.67 0 0 1 .18-.25.52.52 0 0 1 .28-.06.07.07 0 0 1 .06 0s0 0 0 0a.2.2 0 0 1 0 .11.22.22 0 0 1 -.07.09.91.91 0 0 0 -.17.17.42.42 0 0 0 0 .1l-.06.12v.06a.2.2 0 0 1 -.08 0h-.08c-.12.04-.07-.12-.06-.18z" fill="#fff200"/><path d="m34.58 23.13c-.1 0-.07-.16-.06-.23v-.12s0 0 0-.06a.14.14 0 0 1 0-.06.6.6 0 0 1 .19-.25.53.53 0 0 1 .27-.06.11.11 0 0 1 .08 0 .06.06 0 0 1 0 .05.18.18 0 0 1 0 .12l-.08.09a.55.55 0 0 0 -.12.14.25.25 0 0 0 0 .09.5.5 0 0 1 -.05.13v.06h-.09zm.45-.76a.51.51 0 0 0 -.27.06.56.56 0 0 0 -.18.24v.06a.43.43 0 0 0 0 .05v.1.21h.08.07a.1.1 0 0 0 0 0 .61.61 0 0 1 0-.12v-.09a.89.89 0 0 1 .13-.14l.08-.09a.23.23 0 0 0 0-.11s0 0 0 0z"/><path d="m34.73 22.85a1.09 1.09 0 0 1 .08-.15s0 0 0 0a.58.58 0 0 1 .3-.18s0 0 .06 0a.05.05 0 0 1 0 0 .9.9 0 0 1 -.09.32.46.46 0 0 0 -.07.16.13.13 0 0 0 0 .06.19.19 0 0 1 -.15.16h-.12-.09s0 0 0 0a.45.45 0 0 1 0-.2.49.49 0 0 1 .08-.17z" fill="#fff200"/><path d="m34.92 23.27h-.1-.09a.08.08 0 0 1 0-.05.45.45 0 0 1 0-.2.49.49 0 0 1 0-.11.68.68 0 0 1 .08-.15v-.05a.61.61 0 0 1 .31-.18h.06s0 0 0 0a.13.13 0 0 1 0 .06.75.75 0 0 1 -.1.32.43.43 0 0 0 0 .13v.06a.21.21 0 0 1 -.16.17zm-.18-.41a.42.42 0 0 0 0 .1.45.45 0 0 0 0 .2s0 0 0 0h.09.11a.18.18 0 0 0 .14-.16.5.5 0 0 1 0-.13 1 1 0 0 0 .09-.32h-.06a.61.61 0 0 0 -.29.17v.05a.42.42 0 0 0 -.08.15z"/><path d="m35 23.09a.41.41 0 0 1 0-.09.17.17 0 0 1 0-.07 1 1 0 0 0 0-.1v-.08-.06l.06-.06a.39.39 0 0 1 .1-.08.1.1 0 0 1 .12 0 .14.14 0 0 1 0 .06s0 .06 0 .09a1.18 1.18 0 0 1 -.1.19.73.73 0 0 0 -.09.32s0 .09 0 .11a.13.13 0 0 1 -.16 0 .15.15 0 0 1 -.06-.11.48.48 0 0 1 .13-.12z" fill="#fff200"/><path d="m35.16 23.36a.2.2 0 0 1 -.11 0 .17.17 0 0 1 -.06-.11.56.56 0 0 1 0-.13.41.41 0 0 1 .01-.12.17.17 0 0 1 0-.07 1 1 0 0 1 0-.1l.05-.08a.21.21 0 0 1 0-.06v-.07a.31.31 0 0 1 .11-.08.12.12 0 0 1 .13 0 .14.14 0 0 1 0 .07s0 .06 0 .09a.61.61 0 0 1 -.07.14.73.73 0 0 0 -.09.32.21.21 0 0 1 0 .11zm-.16-.27a.49.49 0 0 0 0 .12.16.16 0 0 0 .05.1.15.15 0 0 0 .16 0 .19.19 0 0 0 0-.1.79.79 0 0 1 .1-.33.17.17 0 0 1 0-.05.37.37 0 0 0 .07-.14.19.19 0 0 0 0-.08.13.13 0 0 0 0-.06s0 0 0 0a.13.13 0 0 0 -.12 0 .19.19 0 0 0 -.1.08l-.05.06a.21.21 0 0 1 0 .06v.08a.36.36 0 0 0 0 .09s-.11.08-.11.08a.38.38 0 0 1 0 .1z"/><path d="m35.17 23.08a.67.67 0 0 1 .13-.25l.11-.16a0 0 0 0 1 0 0 .14.14 0 0 1 .09 0 .12.12 0 0 1 0 .1.25.25 0 0 1 0 .12 3.89 3.89 0 0 0 -.16.44s0 .09-.06.11a.2.2 0 0 1 -.15-.05.15.15 0 0 1 0-.07.17.17 0 0 1 0-.1.49.49 0 0 1 .04-.14z" fill="#fff200"/><path d="m35.32 23.43a.16.16 0 0 1 -.13-.06.08.08 0 0 1 0-.07.11.11 0 0 1 0-.08.41.41 0 0 1 0-.12.79.79 0 0 1 .13-.26l.11-.15h.13a.11.11 0 0 1 .06.11.22.22 0 0 1 0 .12l-.06.16a1.36 1.36 0 0 0 -.11.28s0 .09 0 .11h-.06zm-.14-.35s0 .07 0 .12a.19.19 0 0 0 0 .08.11.11 0 0 0 0 .06.14.14 0 0 0 .13.05s0-.06.05-.1a1.42 1.42 0 0 1 .1-.29l.06-.15a.27.27 0 0 0 0-.12.15.15 0 0 0 -.06-.09h-.11l-.11.15a.82.82 0 0 0 -.12.25z"/><path d="m35.83 23.66a.44.44 0 0 0 .15-.22 1.23 1.23 0 0 0 0-.27.76.76 0 0 0 .02-.17s0 0 0 0a.19.19 0 0 1 .13 0 .13.13 0 0 1 0 .06.39.39 0 0 1 0 .26.68.68 0 0 1 -.12.24v.06l-.01.08a.54.54 0 0 1 -.12.09h-.08a.07.07 0 0 1 -.06 0 .05.05 0 0 1 0-.09z" fill="#fff200"/><path d="m35.75 23.81h-.06a.08.08 0 0 1 0-.11h.06a.4.4 0 0 0 .15-.22 1.27 1.27 0 0 0 0-.27.61.61 0 0 0 .1-.21 0 0 0 0 1 0 0s0 0 0 0a.22.22 0 0 1 .14 0v.06a.39.39 0 0 1 0 .28 1.41 1.41 0 0 1 -.13.24.21.21 0 0 1 0 .06s0 0 0 .05l-.09.07h-.1zm.32-.82a.05.05 0 0 0 0 0v.15a1.27 1.27 0 0 1 0 .27.4.4 0 0 1 -.16.23h-.07s0 0 0 0h.08a.24.24 0 0 0 .08-.06h.06v-.06a1.12 1.12 0 0 0 .13-.24.39.39 0 0 0 0-.26v-.05a.17.17 0 0 0 -.12.03z"/><path d="m35.72 23.48v-.06-.14-.13c0-.06 0-.13 0-.19a.11.11 0 0 1 0-.07.1.1 0 0 1 .07 0 .11.11 0 0 1 .08 0 .2.2 0 0 1 0 .08v.25a.44.44 0 0 1 0 .16.25.25 0 0 1 0 .07 1.22 1.22 0 0 1 -.07.17.29.29 0 0 1 -.14.13h-.14a.14.14 0 0 1 -.08-.09s0 0 0 0a.61.61 0 0 0 .28-.18z" fill="#fff200"/><path d="m35.74 23.76h-.07a.14.14 0 0 1 -.08-.09s0-.05 0-.06 0 0 0 0a.18.18 0 0 0 .07-.1v-.06-.13-.13-.09a.34.34 0 0 1 0-.1.19.19 0 0 1 0-.08.12.12 0 0 1 .08 0 .11.11 0 0 1 .09 0 .15.15 0 0 1 0 .08v.25a.44.44 0 0 1 0 .16.14.14 0 0 1 0 .06 1.39 1.39 0 0 1 -.06.13.24.24 0 0 1 -.14.12h-.08zm.22-.9a.11.11 0 0 0 -.07 0 .15.15 0 0 0 0 .08.28.28 0 0 0 0 .09v.09a.78.78 0 0 1 -.05.14v.13a.14.14 0 0 1 0 .06l-.07.11a.06.06 0 0 0 0 0 .11.11 0 0 0 .07.08h.13a.28.28 0 0 0 .14-.12.69.69 0 0 0 0-.13v-.05a.08.08 0 0 1 0-.05 3484625891915.2896 3484625891915.2896 0 0 0 0-.32.28.28 0 0 1 0-.09.16.16 0 0 0 0-.07.07.07 0 0 0 -.11.05z"/><path d="m35.49 23.42a.24.24 0 0 0 0-.08l.09-.27a.84.84 0 0 1 .11-.21h.07s0 0 0 0a1.29 1.29 0 0 1 0 .39.58.58 0 0 1 -.17.35.19.19 0 0 1 -.13-.05.33.33 0 0 1 .03-.13z" fill="#fff200"/><path d="m35.64 23.65a.2.2 0 0 1 -.14-.06.32.32 0 0 1 0-.17s0-.05 0-.08l.09-.27a.63.63 0 0 1 .12-.21h.11a.08.08 0 0 1 0 0 1.71 1.71 0 0 1 0 .39.53.53 0 0 1 -.17.35s0 0 0 0zm.15-.81a.44.44 0 0 0 -.11.2l-.09.28s0 0 0 .07a.22.22 0 0 0 0 .16.17.17 0 0 0 .12.05.55.55 0 0 0 .17-.34 1 1 0 0 0 0-.38s0 0 0 0h-.05z"/><path d="m35.36 23.28a.76.76 0 0 0 .06-.16s0 0 0-.05a.75.75 0 0 1 .13-.27s0 0 .07 0a0 0 0 0 1 0 0 .17.17 0 0 1 0 .12.82.82 0 0 1 -.06.27.52.52 0 0 1 -.06.13l-.09.16s0 0 0 0-.13 0-.13-.05a.42.42 0 0 1 .08-.15z" fill="#fff200"/><path d="m35.47 23.53s-.14 0-.14-.06a.5.5 0 0 1 0-.19v-.07a.32.32 0 0 0 0-.09v-.05a.79.79 0 0 1 .13-.28h.1a.2.2 0 0 1 0 .13.78.78 0 0 1 0 .28l-.06.13-.09.16s0 0 0 0zm-.1-.25a.36.36 0 0 0 0 .19s.09 0 .12 0 0 0 0 0l.09-.16.07-.13a1.08 1.08 0 0 0 .05-.27.25.25 0 0 0 0-.12h-.1a.84.84 0 0 0 -.13.27v.09.06z"/><path d="m34.2 23.73c0-.07 0-.14 0-.17 0-.28.2-.54.31-.54s0 .08 0 .13a3.52 3.52 0 0 1 -.25.71.11.11 0 0 1 -.09-.06z" fill="#00a651"/><path d="m34.29 23.83a.11.11 0 0 1 -.1-.07.49.49 0 0 0 0-.12v-.05c0-.28.2-.55.32-.55a.23.23 0 0 1 0 .12 3.13 3.13 0 0 1 -.11.36c-.07.23-.13.35-.15.35zm.21-.83c-.1 0-.3.24-.3.53v.05s0 .08 0 .12 0 .06.08.06a3.61 3.61 0 0 0 .25-.7s0-.09 0-.1-.02.04-.03.04z"/><path d="m34.33 23.82s0-.08 0-.13c0-.21.19-.67.34-.67s.1 0 .1.14l-.22.6c0 .06 0 .1-.11.1z" fill="#00a651"/><path d="m34.43 23.87h-.06a.09.09 0 0 0 0-.05v-.08c0-.22.19-.68.35-.68s.11 0 .11.15l-.22.6s-.11.06-.18.06zm-.09-.06h.06c.06 0 .08 0 .1-.08l.21-.6c0-.08 0-.13-.09-.13s-.34.45-.34.66v.08s.06.06.06.07z"/><path d="m34.48 23.82s0 0 0 0c0-.24.25-.68.36-.68s.07.06.07.12l-.24.56s0 .09 0 .09a.28.28 0 0 1 -.12 0z" fill="#00a651"/><path d="m34.61 23.88a.24.24 0 0 1 -.13-.05c0-.25.25-.69.36-.69s.07.1.07.13c-.2.48-.23.56-.23.57s-.05.04-.07.04zm-.12-.07a.28.28 0 0 0 .12 0s0 0 0-.06.22-.53.24-.57 0-.1-.06-.1-.35.44-.35.67a0 0 0 0 0 0 0z"/><path d="m33.19 16.19v10.25l-.65.26-.65-.26v-10.25z" fill="#d21034"/><path d="m34.63 23.88c0-.19.13-.68.32-.68s.1 0 .1.12a4 4 0 0 1 -.3.66s-.09-.08-.12-.1z" fill="#00a651"/><path d="m34.75 24h-.05c0-.2.13-.69.33-.69s.11 0 .11.13a2 2 0 0 1 -.14.35c-.22.21-.24.21-.25.21zm-.11-.07a4.76 4.76 0 0 0 .29-.65c0-.09 0-.11-.09-.11s-.31.47-.31.67z"/><path d="m34.84 24c0-.07.24-.65.49-.65 0 0 .06 0 .06.05s-.29.67-.38.67a.15.15 0 0 1 -.1 0z" fill="#00a651"/><path d="m35 24.09a.12.12 0 0 1 -.1 0c0-.07.24-.66.5-.66h.05a.06.06 0 0 1 0 .05c-.09.04-.38.61-.45.61zm-.16-.09a.16.16 0 0 0 .09 0 1.56 1.56 0 0 0 .37-.66s0 0 0 0c-.23 0-.47.53-.48.63z"/><path d="m35.69 23.79h.09c.08 0 .13 0 .13.11s-.46.48-.64.48h-.05a5.2 5.2 0 0 1 .38-.44z" fill="#00a651"/><path d="m35.27 24.37h-.06s.06-.1.35-.41v-.05a.08.08 0 0 0 0 0h.1c.09 0 .14 0 .14.12s-.36.34-.53.34zm.51-.59h-.09s0 0 0 .05l-.35.39h.05a1.13 1.13 0 0 0 .63-.47c-.12.06-.16.03-.24.03z"/><path d="m34.77 24v-.09c0-.19.18-.61.36-.61.06 0 .07.06.07.11a1.87 1.87 0 0 1 -.4.59z" fill="#00a651"/><path d="m34.77 24v-.09c0-.19.19-.62.37-.62s.07 0 .07.11-.32.6-.41.6zm0 0a2 2 0 0 0 .39-.58c0-.06 0-.09-.06-.1-.17 0-.36.42-.36.6v.08z"/><path d="m35.56 23.68h.16a0 0 0 0 1 .05 0c0 .07-.41.58-.59.58a.1.1 0 0 1 -.08-.08 2.74 2.74 0 0 0 .3-.33 1.71 1.71 0 0 1 .11-.14z" fill="#00a651"/><path d="m35.18 24.31a.1.1 0 0 1 -.09-.09l.08-.09c.07-.08.18-.18.22-.24v-.06l.07-.09.06-.06h.16a.05.05 0 0 1 .06.06c.04.06-.38.57-.56.57zm-.07-.09s0 .08.07.08.59-.52.59-.58 0 0-.05 0h-.08s0 0 0 0h-.06l-.06.09a.21.21 0 0 1 0 .06 1.55 1.55 0 0 1 -.22.24l-.08.09z"/><path d="m35.45 23.58a.16.16 0 0 1 .13 0 .07.07 0 0 1 .07.06l-.1.16c0 .07-.33.42-.45.42s0 0 0-.08l.34-.51a.08.08 0 0 1 0 0z" fill="#00a651"/><path d="m35.1 24.23a.11.11 0 0 1 -.05-.09l.34-.52a.24.24 0 0 1 .14 0 .08.08 0 0 1 .08.06l-.1.16c0 .03-.28.39-.41.39zm0-.08s0 .06 0 .06c.11 0 .4-.34.44-.41l.1-.15a.06.06 0 0 0 -.06-.05.24.24 0 0 0 -.13 0z"/><path d="m28.09 15.83c0 .13-.06.23-.15.23s-.16-.1-.16-.23.07-.23.16-.23.15.11.15.23z" fill="#fff"/><path d="m27.94 16.08c-.1 0-.17-.11-.17-.25s.07-.24.17-.24.17.11.17.24-.11.25-.17.25zm0-.46c-.08 0-.14.1-.14.21s.06.22.14.22.14-.1.14-.22-.08-.21-.14-.21z"/><path d="m28.64 15.83c0 .13.07.23.15.23s.16-.1.16-.23-.07-.23-.16-.23-.15.11-.15.23z" fill="#fff"/><path d="m28.79 16.08c-.09 0-.17-.11-.17-.25s.08-.24.17-.24.18.11.18.24-.08.25-.18.25zm0-.46c-.07 0-.13.1-.13.21s.06.22.13.22.14-.1.14-.22-.06-.21-.14-.21z"/><path d="m28.85 15.63c0 .14-.22.25-.48.25s-.49-.11-.49-.25.22-.25.49-.25.48.11.48.25z" fill="#fff"/><path d="m28.37 15.9c-.29 0-.51-.12-.51-.27s.22-.27.51-.27.5.12.5.27-.22.27-.5.27zm0-.5c-.26 0-.47.1-.47.23s.21.23.47.23.46-.11.46-.23-.21-.23-.46-.23z"/><path d="m28.85 16.12c0 .14-.22.25-.48.25s-.49-.11-.49-.25.22-.25.49-.25.48.13.48.25z" fill="#fff"/><path d="m28.37 16.39c-.29 0-.51-.12-.51-.27s.22-.27.51-.27.5.12.5.27-.22.27-.5.27zm0-.5c-.26 0-.47.1-.47.23s.21.23.47.23.46-.1.46-.23-.21-.23-.46-.23z"/><path d="m28.85 15.85c0 .14-.22.25-.48.25s-.49-.11-.49-.25.22-.25.49-.25.48.11.48.25z" fill="#fff"/><path d="m28.37 16.12c-.29 0-.51-.12-.51-.27s.22-.27.51-.27.5.12.5.27-.22.27-.5.27zm0-.5c-.26 0-.47.1-.47.23s.21.23.47.23.46-.11.46-.23-.21-.23-.46-.23z"/><path d="m35 24.11c0-.19.28-.68.44-.68s.08 0 .08.09c0 .07-.33.59-.47.59a0 0 0 0 1 -.05 0z" fill="#00a651"/><path d="m35 24.13a0 0 0 0 1 0 0c0-.18.28-.68.45-.68s.08 0 .08.09c-.02.07-.36.59-.53.59zm0 0c.13 0 .47-.53.47-.59 0-.08 0-.08-.07-.08-.13-.02-.4.46-.4.65z"/><path d="m34.75 24.83c.25-.07.57-.19.57-.43a2.34 2.34 0 0 0 -.58.42s0 0 0 0z" fill="#00a651"/><path d="m34.75 24.84s0 0 0 0a2.3 2.3 0 0 1 .58-.43s0 0 0 0c0 .26-.39.38-.57.44zm.53-.47a2.78 2.78 0 0 0 -.57.41s0 0 0 0c.27-.09.55-.2.55-.42z"/><path d="m34.67 24.76a1 1 0 0 0 .56-.43s0 0-.09 0a1.43 1.43 0 0 0 -.54.46z" fill="#00a651"/><path d="m34.67 24.77s0 0 0 0a1.41 1.41 0 0 1 .55-.47.08.08 0 0 1 .07 0 0 0 0 0 1 0 0 1 1 0 0 1 -.57.44zm0 0h.06a1 1 0 0 0 .55-.42s0 0 0 0h-.07a1.37 1.37 0 0 0 -.53.45z"/><path d="m34.6 24.71c.31-.1.57-.35.57-.48s-.05-.07-.08-.07a2 2 0 0 0 -.46.54z" fill="#00a651"/><path d="m34.6 24.72s.39-.55.47-.55a.11.11 0 0 1 .09.08c0 .13-.27.38-.57.48zm.45-.54a2.55 2.55 0 0 0 -.45.52c.29-.1.55-.34.55-.46a.09.09 0 0 0 -.07-.06z"/><path d="m34.2 24.84a1.75 1.75 0 0 0 .33.05c.11 0 .27 0 .28-.07s0-.08-.11-.08c-.08 0-.3.05-.37.06z" fill="#00a651"/><path d="m34.55 24.9a.8.8 0 0 1 -.23 0h-.1s0 0 0 0h.06.07.06l.31-.05c.09 0 .12.05.12.09-.03-.04-.18-.04-.29-.04zm-.32-.06h.07a.85.85 0 0 0 .23 0c.1 0 .25 0 .25-.06s0-.07-.1-.07l-.31.05h-.06-.07z"/><path d="m34.21 24.83a1 1 0 0 0 .26 0c.08 0 .26-.05.26-.13a.08.08 0 0 0 -.08-.08 2.43 2.43 0 0 1 -.37.15z" fill="#00a651"/><path d="m34.47 24.86a.72.72 0 0 1 -.26 0 2.43 2.43 0 0 0 .37-.15.1.1 0 0 1 .09.09c.07.02-.13.06-.2.06zm-.24 0a.93.93 0 0 0 .24 0c.09 0 .25-.05.25-.12a.07.07 0 0 0 -.07-.07 2.45 2.45 0 0 1 -.36.15z"/><path d="m34.55 24.69a1.17 1.17 0 0 0 .51-.56c0-.05-.08-.08-.13-.08l-.36.6a0 0 0 0 0 0 0z" fill="#00a651"/><path d="m34.55 24.7s0 0 0 0l.18-.3c.18-.31.18-.31.19-.31.06 0 .14 0 .14.09a1.23 1.23 0 0 1 -.51.57zm.37-.64-.36.6a1.24 1.24 0 0 0 .49-.55c0-.05-.08-.07-.12-.07z"/><path d="m34.52 24.66a.89.89 0 0 0 .41-.64s0-.05 0-.05-.42.62-.42.69a0 0 0 0 0 0 0z" fill="#00a651"/><path d="m34.52 24.67s0 0 0 0c0-.08.31-.7.43-.7s0 0 0 .06a.93.93 0 0 1 -.4.65zm0 0a.91.91 0 0 0 .4-.64s0 0 0 0-.39.57-.41.67z"/><path d="m34.47 24.63a.67.67 0 0 0 .36-.68s0-.05-.07-.05-.34.69-.34.71z" fill="#00a651"/><path d="m34.47 24.64s0 0 0 0a3.8 3.8 0 0 1 .14-.37c.15-.35.2-.35.21-.35s.08 0 .08.06a.65.65 0 0 1 -.33.66zm.29-.73a3 3 0 0 0 -.33.7c.11-.06.31-.19.31-.64.08-.04.08-.06.02-.06z"/><path d="m34.38 24.61c.17-.06.32-.47.32-.67s0-.1-.05-.1c-.22 0-.29.63-.29.73z" fill="#00a651"/><path d="m34.38 24.62c0-.09.06-.74.3-.74a.06.06 0 0 1 .05 0s0 0 0 .07c0 .19-.15.62-.33.68zm.27-.77c-.2 0-.28.6-.28.72.17-.06.31-.47.31-.66s0-.05 0-.06z"/><path d="m34.34 24.59a1.75 1.75 0 0 0 .28-.74s0-.06-.09-.06c-.19 0-.24.32-.24.51a.58.58 0 0 0 .06.26s-.02.02-.01.03z" fill="#00a651"/><path d="m34.34 24.6s0 0 0 0a.66.66 0 0 1 -.06-.27c0-.18 0-.52.25-.52.09 0 .1 0 .1.07a1.79 1.79 0 0 1 -.28.74zm.19-.8c-.18 0-.23.33-.23.5a.75.75 0 0 0 0 .26 1.75 1.75 0 0 0 .28-.72s.04-.04-.05-.04z"/><path d="m34.33 24.51a2.1 2.1 0 0 1 .15-.68s-.09 0-.12 0c-.21 0-.22.36-.22.64a.16.16 0 0 0 .14.14s.06 0 .06 0z" fill="#00a651"/><path d="m34.28 24.57a.18.18 0 0 1 -.15-.15c0-.26 0-.65.23-.65h.13a1.9 1.9 0 0 0 -.15.67s-.03.13-.06.13zm.08-.81c-.21 0-.21.4-.21.64a.16.16 0 0 0 .13.13s0 0 0 0a2.08 2.08 0 0 1 .15-.67.44.44 0 0 0 -.07-.1z"/><path d="m34.23 24.47c0-.07 0 0 0-.16a1.89 1.89 0 0 1 .12-.56 0 0 0 0 0 0 0c-.07 0-.24.09-.24.47 0 .17 0 .31.14.31s.06 0 .06 0z" fill="#00a651"/><path d="m34.17 24.51c-.15 0-.15-.15-.15-.31 0-.36.15-.47.25-.48a0 0 0 0 1 0 0 1.67 1.67 0 0 0 -.12.55.4.4 0 0 0 0 .11s0 0 0 0 .06.13.02.13zm.11-.77s-.23 0-.23.46c0 .19 0 .3.13.3s0 0 0 0 0 0 0-.12a1.75 1.75 0 0 1 .12-.56 0 0 0 0 0 0 0z"/><path d="m34.11 24.46a1 1 0 0 1 0-.25s0-.09 0-.13a1 1 0 0 1 .13-.33c-.16 0-.24.29-.24.46s0 .29.17.27z" fill="#00a651"/><path d="m34.08 24.47h-.08a.38.38 0 0 1 -.07-.26c0-.16.08-.47.25-.47h.06a.76.76 0 0 0 -.13.32s0 0 0 .07v.06a1.29 1.29 0 0 0 0 .25zm.1-.73c-.15 0-.23.27-.23.45s0 .21.06.24a.1.1 0 0 0 .09 0 1.77 1.77 0 0 1 0-.24v-.13a.79.79 0 0 1 .13-.33s-.02.01-.05.01z"/><path d="m28.65 16s0 0 0 0a.11.11 0 0 1 -.07 0s-.06 0-.06 0v.06s0 .07 0 .09.12 0 .16 0 0-.08 0-.13-.02-.02-.03-.02z" fill="#fff"/><path d="m28.56 16.3a.08.08 0 0 1 -.07 0s0-.07 0-.1v-.08a.09.09 0 0 1 .07-.06h.06s0 0 0 0a.56.56 0 0 1 0 .12v.15a.16.16 0 0 1 -.06-.03zm.08-.28s-.05 0-.07 0a.07.07 0 0 0 -.05 0v.06a.11.11 0 0 0 0 .08s.1 0 .13 0 0-.06 0-.12z"/><path d="m28.37 16.14a0 0 0 0 1 0 0h.1a0 0 0 0 1 0 0 .34.34 0 0 1 0 .1v.07h-.05a.05.05 0 0 1 -.07 0 .5.5 0 0 1 .02-.17z" fill="#fff"/><path d="m28.44 16.31s-.05 0-.06 0a.27.27 0 0 1 0-.12s0 0 0 0a.18.18 0 0 1 .1 0s0 0 0 0a.22.22 0 0 1 0 .11v.05s0 0 0 0a0 0 0 0 1 0 0h-.06zm-.05-.17a.36.36 0 0 0 0 .11s0 0 .05 0v-.05a.34.34 0 0 0 0-.1h-.1z"/><path d="m28.4 16.23a.09.09 0 0 0 0-.07s0 0 0 0h-.15a0 0 0 0 0 0 0 .17.17 0 0 0 0 .07.08.08 0 0 0 0 .08h.05a.14.14 0 0 0 .09 0s0 0 0 0 0-.06.01-.08z" fill="#fff"/><path d="m28.26 16.37h-.05a.12.12 0 0 1 0-.09.1.1 0 0 1 0-.07 0 0 0 0 1 0 0s.05 0 .06 0h.08s0 0 0 0a.08.08 0 0 1 0 .08v.06a.05.05 0 0 1 0 0s-.08 0-.1 0zm0-.23s0 0 0 0a.13.13 0 0 0 0 .06s0 0 0 .06a.11.11 0 0 0 .08 0 0 0 0 0 1 0 0s0 0 0 0a.11.11 0 0 0 0 0h-.1z"/><path d="m34.4 24.8h.09a.24.24 0 0 0 .11-.06.05.05 0 0 0 0 0h-.11l-.22.1s-.07.07 0 .07z" fill="#00a651"/><path d="m34.26 24.84a.1.1 0 0 1 .05-.06 1.06 1.06 0 0 1 .21-.11h.12a.09.09 0 0 1 0 .05.21.21 0 0 1 -.1.06h-.15-.09zm.28-.19a1.36 1.36 0 0 0 -.21.1.14.14 0 0 0 0 0s0 0 0 0h.09.14a.21.21 0 0 0 .1-.06s0 0 0 0h-.05z"/><path d="m28.11 16.24s0 0 0 0a.08.08 0 0 1 .07 0s0 .07 0 .1a.14.14 0 0 1 0 .06.07.07 0 0 1 0 .06h-.06c-.05 0-.05 0-.06-.06s.06-.11.05-.16z" fill="#fff"/><path d="m28.2 16.46c-.06 0-.07 0-.08-.07a.71.71 0 0 1 0-.14.08.08 0 0 1 0-.07.11.11 0 0 1 .08 0 .13.13 0 0 1 0 .06s0 0 0 0a.14.14 0 0 1 0 .07.08.08 0 0 1 0 .07.07.07 0 0 1 0 .08zm0-.27h-.05a.06.06 0 0 0 0 0 .59.59 0 0 0 0 .14s0 .05 0 .05a.08.08 0 0 0 0-.05v-.05a.09.09 0 0 1 0-.05z"/><path d="m28.19 15.46a1.48 1.48 0 0 1 0-.21s0 0 0 0a0 0 0 0 0 0 0 .08.08 0 0 0 0 0 .09.09 0 0 0 0 0s0 0 0 .06a.83.83 0 0 0 0 .15z" fill="#fff"/><path d="m28.19 15.48a.34.34 0 0 1 -.09-.12s0 0 0-.06a.11.11 0 0 1 0-.06s0 0 .05 0a.06.06 0 0 1 .07 0 .07.07 0 0 1 0 .05v.06a.75.75 0 0 0 0 .15zm0-.27a0 0 0 0 0 0 .08.56.56 0 0 0 .05.08.34.34 0 0 1 0-.1v-.09z"/><path d="m28.25 15.34a.12.12 0 0 0 .05.05.24.24 0 0 0 0-.23h-.06s0 0 0 0a.22.22 0 0 1 .01.18z" fill="#fff"/><path d="m28.35 15.5s0 0-.06-.06a.08.08 0 0 1 0-.05.07.07 0 0 1 0-.05 0 0 0 0 0 0 0s0 0 0-.06h.08a.28.28 0 0 1 0 .25zm-.08-.16v.05a.08.08 0 0 0 0 0 .23.23 0 0 0 0-.2s0 0 0 0v.08z"/><path d="m28.46 15.42a0 0 0 0 0 0 0v-.12a.08.08 0 0 0 0 0s0 0-.07 0 .02.07.07.12z" fill="#fff"/><path d="m28.48 15.45a.22.22 0 0 1 -.07-.17.13.13 0 0 1 .05-.07.07.07 0 0 1 .1 0 .06.06 0 0 1 0 0v.16zm0 0s0 0 0 0v-.15h-.05a.05.05 0 0 0 0 0 .19.19 0 0 0 .04.11z"/><path d="m28.55 15.26v.13h.05a.18.18 0 0 0 .05-.07s0-.06 0-.08h-.06s-.03-.02-.04.02z" fill="#fff"/><path d="m28.6 15.44s0 0 0 0v-.11c0-.09.06-.1.08-.1h.07a.11.11 0 0 1 .06.09.08.08 0 0 1 0 0 .43.43 0 0 1 0 .07zm0-.24s0 0 0 .06v.11h.06a.43.43 0 0 0 0-.07s0 0 0-.06h-.05z"/><path d="m34.21 24.81c.11 0 .28-.07.28-.18s0 0-.06 0-.09.06-.12.1a.53.53 0 0 0 -.1.08z" fill="#00a651"/><path d="m34.21 24.82.06-.08s.06-.08.11-.08.07 0 .07 0c0 .12-.17.17-.29.19zm.22-.22a.11.11 0 0 0 -.09.07v.06c.11 0 .25-.07.25-.17z"/><path d="m34.19 24.81c.16-.06.22-.15.22-.21a.08.08 0 0 0 -.07-.08c-.09 0-.15.13-.15.24z" fill="#00a651"/><path d="m34.19 24.81c0-.11.07-.25.16-.25a.09.09 0 0 1 .08.09c0 .06-.07.16-.22.21zm.15-.28c-.08 0-.14.13-.14.23.15-.05.21-.14.21-.19s-.05-.04-.07-.04z"/><path d="m34.17 24.81a.34.34 0 0 0 .16-.29.07.07 0 0 0 -.08-.08c-.07 0-.09.21-.09.29s0 0 0 .05z" fill="#00a651"/><path d="m34.17 24.82s0 0 0-.06 0-.28.1-.29c.06 0 .08 0 .08.09a.35.35 0 0 1 -.15.3zm.08-.37c-.07 0-.09.17-.09.28a.09.09 0 0 0 0 .05.36.36 0 0 0 .14-.28.06.06 0 0 0 -.05-.05z"/><path d="m34.16 24.82c.05-.07.08-.07.08-.16s0-.06 0-.09c0-.1 0-.1-.07-.1s-.07.08-.07.14a.65.65 0 0 0 .06.21s0-.01 0 0z" fill="#00a651"/><path d="m34.16 24.83v-.07a.49.49 0 0 1 0-.14c0-.1 0-.15.08-.15s.08 0 .08.11v.13a.17.17 0 0 1 0 .13zm0-.39s-.06.08-.06.13a.32.32 0 0 0 0 .14v.07a.21.21 0 0 0 0-.12v-.05a.06.06 0 0 1 0 0c.12-.17.1-.17.06-.17z"/><path d="m34.15 24.85s0-.07 0-.1-.07-.35-.14-.35-.06 0-.06.08.17.24.19.31a.14.14 0 0 1 .01.06z" fill="#00a651"/><path d="m34.15 24.86s0 0 0 0l-.08-.11c-.06-.07-.12-.14-.12-.2a.08.08 0 0 1 .07-.09c.08 0 .14.2.14.36v.1zm-.15-.46s0 0 0 .08.06.12.11.19a.49.49 0 0 1 .08.12c0-.17-.07-.34-.13-.34z"/><path d="m34.11 24.85a.09.09 0 0 1 .06-.07.07.07 0 0 1 .06 0s0 0 0 0z" fill="#964b36"/><path d="m34.18 24.92a0 0 0 0 1 0 0 .1.1 0 0 1 .06-.08.11.11 0 0 1 .08 0v.07s0 0 0 0a.05.05 0 0 1 0 0zm0-.13a.06.06 0 0 0 -.05.06.05.05 0 0 0 .05-.06z"/><path d="m34 24.84a.18.18 0 0 0 -.1 0 .18.18 0 0 0 -.09.08.86.86 0 0 0 -.1.16 3.19 3.19 0 0 0 -.11.33 1.3 1.3 0 0 1 -.14.26.77.77 0 0 1 .26-.12c.12-.08.24-.15.35-.24a.46.46 0 0 0 .12-.12.32.32 0 0 0 0-.19.11.11 0 0 0 0-.08.13.13 0 0 0 -.09 0h-.08s-.02-.08-.02-.08z" fill="#964b36"/><path d="m33.44 25.71s0 0 0 0a1.26 1.26 0 0 0 .13-.26.58.58 0 0 0 0-.14l.06-.19a1.16 1.16 0 0 1 .11-.16.2.2 0 0 1 .09-.09h.17a.18.18 0 0 1 .1 0 .08.08 0 0 0 .07 0 .11.11 0 0 1 .09 0 .14.14 0 0 1 0 .09.39.39 0 0 1 -.05.2.53.53 0 0 1 -.13.13l-.35.23h-.11a.41.41 0 0 0 -.15.07zm.53-.85h-.09l-.08.14-.09.15a1.46 1.46 0 0 0 -.07.19.83.83 0 0 1 0 .15 1.74 1.74 0 0 1 -.1.19h.09.1l.35-.23a.68.68 0 0 0 .12-.12.3.3 0 0 0 0-.18.1.1 0 0 0 0-.07h-.06a.15.15 0 0 1 -.1 0s0 0-.07 0z"/><path d="m33.62 25.61h.06a.49.49 0 0 0 .12-.13.33.33 0 0 0 0-.15.27.27 0 0 1 0-.12.35.35 0 0 1 .21-.22s0 0 0 0a.3.3 0 0 0 -.19.19v.12a.49.49 0 0 1 0 .16.38.38 0 0 1 -.12.13v.05z"/><path d="m31.72 14.07a.2.2 0 0 0 0 .22.34.34 0 0 0 .19.14.78.78 0 0 0 .31 0 1.58 1.58 0 0 1 .47-.1 1.14 1.14 0 0 1 .39.14 1.18 1.18 0 0 0 .49.12 1.89 1.89 0 0 0 .47-.11l.39-.15a2.14 2.14 0 0 1 .56-.11h.18c.16 0 .3.13.46.12a.24.24 0 0 0 .19-.12.72.72 0 0 0 .09-.2.24.24 0 0 1 .13.11.55.55 0 0 1 .07.31.71.71 0 0 1 0 .14.16.16 0 0 0 .08 0h.06a.11.11 0 0 1 .09.06.33.33 0 0 1 .06.1.32.32 0 0 1 0 .14s0 .06 0 .08 0 0 0 0a.15.15 0 0 1 -.09.06s0 0 0 0a.1.1 0 0 1 0-.09.14.14 0 0 1 0-.08.2.2 0 0 0 -.15 0 .84.84 0 0 0 -.14.06l-.11.09-.14.14a.65.65 0 0 1 -.35.15.49.49 0 0 1 .1.15c0 .06.07.11.13.13s0 0 .06 0h.05a1.6 1.6 0 0 0 .38 0h.08a.18.18 0 0 0 .07-.05h.06.06a.36.36 0 0 1 .18 0h.11a.34.34 0 0 1 .1.16v.2a.38.38 0 0 0 .06.13c0 .06.15.09.21.16a.29.29 0 0 1 .07.2c-.05.08-.1.17-.2.2a.32.32 0 0 0 -.09 0l-.07.06a.37.37 0 0 1 -.23 0h-.26-.22c-.06 0-.12 0-.16-.05a.13.13 0 0 1 0-.18.33.33 0 0 1 .18-.08h.27.07s.09 0 .1-.08a.12.12 0 0 0 0-.13s-.09-.06-.12-.1a.2.2 0 0 1 0-.15 1.17 1.17 0 0 1 -.3.19.5.5 0 0 1 -.34 0l-.1-.07a.18.18 0 0 1 -.06-.09.66.66 0 0 0 0-.15.22.22 0 0 0 0 .21.31.31 0 0 0 .09.07.13.13 0 0 1 -.12 0 1 1 0 0 1 -.42-.48 1 1 0 0 1 0 .17v.09a.37.37 0 0 1 -.07.14l-.16.06a.47.47 0 0 1 -.06-.09.21.21 0 0 1 0-.11.34.34 0 0 1 -.06.21.24.24 0 0 1 -.06.09.13.13 0 0 1 -.1 0h-.07s0 0 0 0a.05.05 0 0 0 0 0 2.35 2.35 0 0 1 .25.19.11.11 0 0 1 0 .08.15.15 0 0 1 0 .07.65.65 0 0 1 -.18.15h-.06l-.05.06h-.07l-.35.15a1.45 1.45 0 0 1 -.31.11h-.21a.58.58 0 0 1 -.19 0 .31.31 0 0 1 -.1-.05.62.62 0 0 1 -.18-.14.76.76 0 0 1 -.13-.29.59.59 0 0 1 0-.13.28.28 0 0 1 .2-.21.51.51 0 0 1 .17 0h.09l.07.06c.09.11.14.27.26.35a.26.26 0 0 0 .24 0 .23.23 0 0 0 .15-.18.24.24 0 0 0 -.06-.2.28.28 0 0 0 -.17-.11s-.12 0-.14-.08 0 0 0-.07v-.11a.41.41 0 0 1 0-.11.23.23 0 0 1 .07-.07.59.59 0 0 1 .17-.1 2.69 2.69 0 0 1 .57-.05.76.76 0 0 0 -.83.19l-.14.15a.3.3 0 0 1 -.18.08s0 0-.06 0 0 0 0 .06-.1 0-.16.06a.18.18 0 0 0 -.07.05 1 1 0 0 1 -.44.2h-.05l-.06.06s-.08 0-.11 0 0 0 0 0a.18.18 0 0 1 -.1 0 2.3 2.3 0 0 0 -.35.1.62.62 0 0 1 -.38-.06s0 .09-.09.09a.2.2 0 0 1 -.12-.06s0 0-.05 0 0 0 0-.05-.06 0-.08 0h-.06a.13.13 0 0 0 0 .06 0 0 0 0 1 0 0 .07.07 0 0 0 0 .06.17.17 0 0 1 0 .07.09.09 0 0 1 -.1 0 .19.19 0 0 1 -.11-.07v-.05l-.09-.18a.09.09 0 0 0 -.05 0 .72.72 0 0 1 -.38.13.24.24 0 0 0 0-.2s-.05.1-.1.14h-.06l-.09.07c-.21.16-.51.14-.71.31 0 0-.08.06-.12 0s-.07-.07-.11-.1-.13 0-.19 0h-.09a.12.12 0 0 0 -.1 0 1.59 1.59 0 0 1 -.38 0 .37.37 0 0 1 -.26-.17.23.23 0 0 1 0-.24h.08a.14.14 0 0 0 .09 0 .13.13 0 0 0 0-.06.17.17 0 0 1 .18-.08.18.18 0 0 1 .16-.05.34.34 0 0 1 0 .1.14.14 0 0 0 .05.08s.06 0 .09 0a.86.86 0 0 1 .29.14h.07l.06-.05a1 1 0 0 1 .26-.16l.15-.06s0 0 0 0a.19.19 0 0 1 0-.08.91.91 0 0 0 .07-.14.22.22 0 0 0 0-.14h-.3a.15.15 0 0 1 -.07 0s0 0 0 0 0-.08 0-.12v-.07h-.2a.17.17 0 0 1 -.12-.06.7.7 0 0 1 -.17-.13s0-.05-.06-.05h-.1a.09.09 0 0 0 0 .06.12.12 0 0 1 -.06.06h-.09-.08-.15a.12.12 0 0 1 -.08 0h-.07s0 0 0 0h-.09l-.06-.05s0 0-.06 0h-.06a.28.28 0 0 1 -.06-.09.14.14 0 0 1 0-.11.11.11 0 0 1 .09-.06.45.45 0 0 1 .37-.19h.11v-.05a.36.36 0 0 1 .41-.06.91.91 0 0 1 .3.14l.33.14h.07.07.13v-.05a.31.31 0 0 0 .05-.1 1.17 1.17 0 0 1 .19-.3.39.39 0 0 0 .08-.1s0-.06 0-.09a1.84 1.84 0 0 0 0-.33.63.63 0 0 1 .29.33.8.8 0 0 1 .41-.27 0 0 0 0 1 0 0 .19.19 0 0 1 0 .1v.35h.24a.37.37 0 0 1 .22.1 1.77 1.77 0 0 0 -.38.15s-.08.05-.1.1.05.16 0 .23a.25.25 0 0 0 0 .07.16.16 0 0 0 0 .09s.05.08.09.1.14 0 .2.05h.07a.85.85 0 0 0 .22 0h.55a1.63 1.63 0 0 0 .3-.07 2.07 2.07 0 0 1 .43-.1c.16 0 .31-.1.47-.13h.11.09a5 5 0 0 1 1.08-.24h.21l.23.08h.29a.52.52 0 0 0 .18 0 .27.27 0 0 0 .08-.07.14.14 0 0 0 0-.12.35.35 0 0 0 0-.08s0-.09 0-.13-.15-.1-.24-.1a2.69 2.69 0 0 0 -.79.15 4.52 4.52 0 0 1 -.53.11.51.51 0 0 0 -.22.06h-.06s-.08 0-.12 0-.21.08-.33.1a.42.42 0 0 1 -.3-.1 2.41 2.41 0 0 0 -.24-.21.25.25 0 0 0 .05.22.35.35 0 0 1 -.2 0l-.09-.05a.94.94 0 0 0 -.15-.06.19.19 0 0 0 -.15 0 .06.06 0 0 0 0 .06.12.12 0 0 0 0 .08.21.21 0 0 1 0 .15.29.29 0 0 1 -.13.04.32.32 0 0 1 -.07-.2s0-.05 0-.05c-.05 0 0-.1-.08-.1a.31.31 0 0 0 -.05-.1.6.6 0 0 1 -.06-.22.43.43 0 0 1 0-.16.15.15 0 0 1 -.02-.1z" fill="#ffd100"/><path d="m33.49 17.05a.47.47 0 0 1 -.16 0l-.11-.05a.79.79 0 0 1 -.18-.14.75.75 0 0 1 -.14-.3.77.77 0 0 1 0-.15.31.31 0 0 1 .22-.22.58.58 0 0 1 .18 0 .18.18 0 0 1 .1 0 .17.17 0 0 1 .08.06l.1.15a.53.53 0 0 0 .16.2.22.22 0 0 0 .21 0 .23.23 0 0 0 .14-.16.22.22 0 0 0 -.06-.17.27.27 0 0 0 -.16-.11.2.2 0 0 1 -.14-.08.22.22 0 0 1 0-.08s0-.07 0-.11a.31.31 0 0 1 0-.1l-.09.1a.26.26 0 0 1 -.2.08s0 0 0 0-.07.07-.12.07h-.05s0 0-.06 0a1.06 1.06 0 0 1 -.44.21 0 0 0 0 0 0 0h-.06s0 0 0 0a.15.15 0 0 1 -.11 0 .73.73 0 0 0 -.2.05h-.15a.56.56 0 0 1 -.36 0 .12.12 0 0 1 -.1.05.15.15 0 0 1 -.13-.05.06.06 0 0 1 -.06 0 0 0 0 0 0 0 0h-.05a.06.06 0 0 1 0 0s0 .05-.06.05 0 0 0 0a.13.13 0 0 1 0 .06.11.11 0 0 1 -.13 0 .2.2 0 0 1 -.12-.08v-.06a.8.8 0 0 1 -.08-.16.56.56 0 0 1 -.39.13s0 0 0 0a0 0 0 0 1 0 0 .21.21 0 0 0 0-.11v.07h-.05-.07a.91.91 0 0 1 -.35.15 1.07 1.07 0 0 0 -.36.16s-.08.07-.14.06a.14.14 0 0 1 -.08-.07s0 0-.09 0h-.09-.05-.79a1.28 1.28 0 0 1 -.39 0 .37.37 0 0 1 -.31.1.27.27 0 0 1 0-.26 0 0 0 0 1 0 0 .2.2 0 0 0 .08 0s0 0 0 0c0-.08.12-.11.2-.1h.06a.2.2 0 0 1 .19-.07.2.2 0 0 1 0 .07.11.11 0 0 0 0 .07h.08a.42.42 0 0 1 .21.08l.09.05h.06a1.15 1.15 0 0 1 .27-.18l.15-.06a.46.46 0 0 1 0-.09v-.05a.36.36 0 0 0 0-.09.19.19 0 0 0 0-.1h-.22-.08a.07.07 0 0 1 0-.06.43.43 0 0 0 0-.05v-.06h-.17a.21.21 0 0 1 -.13-.07 1.24 1.24 0 0 1 -.18-.14 0 0 0 0 0 0 0h-.13s0 0 0 0a.11.11 0 0 1 -.09.07.16.16 0 0 1 -.1 0s-.05 0-.08 0h-.09-.05-.1-.05a.12.12 0 0 1 -.08 0 .27.27 0 0 1 -.06-.1.19.19 0 0 1 0-.13.14.14 0 0 1 .09-.08.47.47 0 0 1 .39-.18h.09a.36.36 0 0 1 .34-.08 1 1 0 0 1 .26.11h.06a1.87 1.87 0 0 0 .32.15h.05.06a.2.2 0 0 0 .11 0 .2.2 0 0 0 0-.08.87.87 0 0 1 .2-.31.22.22 0 0 0 .05-.08.13.13 0 0 0 0-.09 1.63 1.63 0 0 0 0-.31 0 0 0 0 1 0 0 .6.6 0 0 1 .29.3.76.76 0 0 1 .4-.25.56.56 0 0 1 0 .12 3.11 3.11 0 0 1 0 .32.74.74 0 0 1 .21 0 .36.36 0 0 1 .24.1s0 0 0 0a2 2 0 0 0 -.37.16s-.08 0-.09.08a.13.13 0 0 0 0 .1.29.29 0 0 1 0 .13 0 0 0 0 1 0 0s0 .05 0 .07.05.08.09.1h.1.09.21.35.2a1.34 1.34 0 0 0 .27-.07 2.18 2.18 0 0 1 .44-.11 1 1 0 0 0 .25-.07l.21-.06h.08.08a4.5 4.5 0 0 1 1.09-.23.54.54 0 0 1 .22 0h.14.09a1.35 1.35 0 0 0 .29 0 .3.3 0 0 0 .16 0 .13.13 0 0 0 .07-.06.1.1 0 0 0 0-.09.05.05 0 0 0 0 0 .26.26 0 0 1 0-.08s0 0 0-.06a.25.25 0 0 0 -.22-.09 2.2 2.2 0 0 0 -.63.12h-.15a5.12 5.12 0 0 1 -.54.1.47.47 0 0 0 -.21.06h-.06a.14.14 0 0 1 -.09 0 .39.39 0 0 0 -.18 0 .39.39 0 0 1 -.15.06.47.47 0 0 1 -.31-.11l-.1-.08-.11-.1a.17.17 0 0 0 0 .15 0 0 0 0 1 0 0 .67.67 0 0 1 -.2 0h-.09a.61.61 0 0 0 -.14-.07.23.23 0 0 0 -.13 0s0 0 0 0a.23.23 0 0 1 0 .16 0 0 0 0 1 0 0 .06.06 0 0 1 0 0 .3.3 0 0 1 .4.02.39.39 0 0 1 -.08-.22s0 0-.07 0 0 0-.06-.06 0 0 0 0v-.07a.46.46 0 0 1 -.05-.23.33.33 0 0 1 0-.17.16.16 0 0 1 .14-.11 0 0 0 0 1 0 0 .17.17 0 0 0 0 .19.32.32 0 0 0 .17.12.52.52 0 0 0 .3 0h.18a.79.79 0 0 1 .3-.05.89.89 0 0 1 .31.11h.09a1.2 1.2 0 0 0 .48.11 1.41 1.41 0 0 0 .46-.11l.15-.05.24-.09a2.75 2.75 0 0 1 .57-.12h.18l.2.06a.5.5 0 0 0 .26.06.18.18 0 0 0 .16-.1.54.54 0 0 0 .1-.2.44.44 0 0 1 .15.12.64.64 0 0 1 .07.33.31.31 0 0 0 0 .1.05.05 0 0 1 0 0h.07s.08.05.1.07l.07.11a.39.39 0 0 1 0 .15v.05a.26.26 0 0 1 -.1.07s0 0 0 0a.11.11 0 0 1 0-.11.19.19 0 0 1 0-.07.13.13 0 0 0 -.09 0 .31.31 0 0 0 -.13.06l-.12.08-.07.07-.07.07a.64.64 0 0 1 -.31.15.47.47 0 0 1 .06.09.22.22 0 0 0 .11.12h.13a2.41 2.41 0 0 0 .38 0h.07.05.07.06a.3.3 0 0 1 .19 0 .22.22 0 0 1 .11 0 .36.36 0 0 1 .12.18v.11s0 0 0 .08a.34.34 0 0 0 .06.12.26.26 0 0 0 .1.07.48.48 0 0 1 .11.09.28.28 0 0 1 .07.21s0 0 0 0-.1.19-.21.22h-.08a.29.29 0 0 1 -.2 0h-.16a.33.33 0 0 1 -.14 0h-.24a.19.19 0 0 1 -.16-.05.17.17 0 0 1 0-.22.34.34 0 0 1 .2-.08h.26.07s.08 0 .09-.07a.1.1 0 0 0 0-.1.27.27 0 0 1 -.08-.07.3.3 0 0 1 0-.1.87.87 0 0 1 -.26.15.5.5 0 0 1 -.36 0h-.08a.22.22 0 0 1 -.14 0 1 1 0 0 1 -.37-.36.28.28 0 0 1 0 .09.46.46 0 0 1 -.07.16.74.74 0 0 1 -.13-.12.71.71 0 0 1 -.07-.09 1 1 0 0 1 0 .1.61.61 0 0 1 -.07.1.17.17 0 0 1 -.13 0h-.08s0 0 0 0l.1.07.15.12a.17.17 0 0 1 0 .11s0 0 0 .08a.65.65 0 0 1 -.18.15h-.07l-.35.15a1.7 1.7 0 0 1 -.32.1h-.25zm-.2-.86a.45.45 0 0 0 -.16 0 .24.24 0 0 0 -.18.18.17.17 0 0 0 0 .12.62.62 0 0 0 .12.29.66.66 0 0 0 .17.12l.1.05a.55.55 0 0 0 .18 0h.2a1.32 1.32 0 0 0 .3-.1l.36-.15h.06s0 0 0 0h.06a.8.8 0 0 0 .17-.15.08.08 0 0 0 0-.05.07.07 0 0 0 0-.06.49.49 0 0 0 -.14-.11.39.39 0 0 1 -.1-.08.07.07 0 0 1 0-.06.08.08 0 0 1 0 0 .07.07 0 0 1 .06 0h.07a.11.11 0 0 0 .08 0 .24.24 0 0 0 .06-.08.44.44 0 0 0 .06-.17s0 0 0 0a.09.09 0 0 0 0 .07l.06.09a.5.5 0 0 0 .11.1.33.33 0 0 0 .07-.13.22.22 0 0 0 0-.08.86.86 0 0 0 0-.16s0 0 0 0a.86.86 0 0 0 .4.46.28.28 0 0 1 0-.24.19.19 0 0 1 0 .12s0 0 0 0a.14.14 0 0 0 0 .08.15.15 0 0 0 .09.06.44.44 0 0 0 .32 0 1.08 1.08 0 0 0 .3-.18 0 0 0 0 1 0 0 .16.16 0 0 0 0 .12l.07.06s0 0 0 0a.15.15 0 0 1 .06.16.2.2 0 0 1 -.12.1h-.08-.26a.28.28 0 0 0 -.17.07.11.11 0 0 0 0 .15.17.17 0 0 0 .12 0h.54a.31.31 0 0 0 .17 0 .08.08 0 0 1 0 0h.07a.39.39 0 0 0 .17-.19.24.24 0 0 0 -.06-.18.26.26 0 0 0 -.1-.07.31.31 0 0 1 -.11-.09.31.31 0 0 1 -.07-.14s0-.05 0-.08a.43.43 0 0 0 0-.11.28.28 0 0 0 -.1-.15h-.09a.38.38 0 0 0 -.17 0h-.09-.08a1.27 1.27 0 0 1 -.39 0h-.15a.32.32 0 0 1 -.14-.14.25.25 0 0 0 -.08-.12s0 0 0 0a.67.67 0 0 0 .33-.15l.06-.07.08-.07.12-.09.14-.07a.25.25 0 0 1 .17 0v.05a.1.1 0 0 0 0 .07.11.11 0 0 0 0 .06.16.16 0 0 0 .08-.06v-.11a.3.3 0 0 0 0-.13.33.33 0 0 0 -.06-.1s0 0-.07 0 0 0-.06 0a.18.18 0 0 1 -.09.06s0 0 0 0v-.14a.52.52 0 0 0 -.06-.3.26.26 0 0 0 -.09-.09.66.66 0 0 1 -.09.19.3.3 0 0 1 -.21.13.68.68 0 0 1 -.28-.07l-.19-.05h.17a2.14 2.14 0 0 0 -.56.11l-.24.09h-.15a1.47 1.47 0 0 1 -.48.11 1.17 1.17 0 0 1 -.51-.11h-.09a.73.73 0 0 0 -.28-.1.66.66 0 0 0 -.28 0l-.19.05a.58.58 0 0 1 -.32 0 .34.34 0 0 1 -.2-.14.2.2 0 0 1 0-.18.1.1 0 0 0 0 0 .38.38 0 0 0 0 .15.46.46 0 0 0 .05.2s0 0 0 .08.05 0 .06.07 0 0 0 0h.05s0 0 .06.07a.31.31 0 0 0 .06.19.26.26 0 0 0 .17.09.17.17 0 0 0 0-.12.09.09 0 0 1 0-.09.1.1 0 0 1 .05-.08.27.27 0 0 1 .18 0l.15.07.08.05h.14a.3.3 0 0 1 0-.21.65.65 0 0 1 .16.13l.09.08a.36.36 0 0 0 .41 0 .36.36 0 0 1 .2-.06h.11a.48.48 0 0 1 .23-.07 3.58 3.58 0 0 0 .53-.11h.15a2.68 2.68 0 0 1 .64-.11.29.29 0 0 1 .27.12s0 .05 0 .07v.06a.09.09 0 0 1 0 0 .16.16 0 0 1 0 .15l-.08.07a.35.35 0 0 1 -.2 0 .92.92 0 0 1 -.29 0l.03-.21h-.13-.21a4.35 4.35 0 0 0 -1.07.23h-.09-.08a.66.66 0 0 0 -.2.06 2.44 2.44 0 0 1 -.26.06 2.18 2.18 0 0 0 -.44.11 1.37 1.37 0 0 1 -.29.07h-.23-.34a.61.61 0 0 1 -.23 0h-.05-.07a.28.28 0 0 1 -.13 0 .26.26 0 0 1 -.1-.11.15.15 0 0 1 0-.1s0 0 0-.05 0 0 0 0a.12.12 0 0 0 0-.1.23.23 0 0 1 0-.14.23.23 0 0 1 .11-.11 2.41 2.41 0 0 1 .33-.15.49.49 0 0 0 -.16 0 .87.87 0 0 0 -.23 0s0 0 0 0 0-.23 0-.34v-.1a.85.85 0 0 0 -.4.26.62.62 0 0 0 -.24-.29 1.27 1.27 0 0 1 0 .28.18.18 0 0 1 0 .1.23.23 0 0 1 -.07.1.88.88 0 0 0 -.18.29.41.41 0 0 1 -.05.09l-.05.05a.23.23 0 0 1 -.14 0h-.07-.06l-.33-.15a1.12 1.12 0 0 0 -.25-.11.34.34 0 0 0 -.29.06.08.08 0 0 1 0 0 .17.17 0 0 1 -.1 0 .43.43 0 0 0 -.35.17.18.18 0 0 0 -.07.05.14.14 0 0 0 0 .09.22.22 0 0 0 .05.08h.08l.05.05h.07s0 0 0 0h.06.08.08.08.07s0 0 .05 0v-.06h.12s.05 0 .07 0l.18.13a.2.2 0 0 0 .11.06h.2v.07a.15.15 0 0 1 0 .09h.06.22a0 0 0 0 1 0 0 .21.21 0 0 1 0 .15.3.3 0 0 1 0 .1v.07a0 0 0 0 1 0 0l-.15.06a.83.83 0 0 0 -.25.16.09.09 0 0 1 -.06 0s0 0-.05 0l-.1-.05a.36.36 0 0 0 -.18-.08.15.15 0 0 1 -.09 0 .11.11 0 0 1 -.05-.1.13.13 0 0 1 0-.06.18.18 0 0 0 -.15.05h-.07a.13.13 0 0 0 -.14.06.06.06 0 0 1 0 0 .09.09 0 0 1 -.11 0 .09.09 0 0 1 -.07 0 .23.23 0 0 0 0 .18.31.31 0 0 0 .24.16 1.53 1.53 0 0 0 .37 0h.12.05-.42a.17.17 0 0 1 .12 0 .12.12 0 0 1 .05 0l.06.05a.15.15 0 0 0 .08-.05 1 1 0 0 1 .37-.17 1 1 0 0 0 .34-.14.18.18 0 0 1 .07-.05v-.06a.27.27 0 0 1 .07-.08s0 0 0 0a0 0 0 0 1 0 0 .3.3 0 0 1 0 .16.47.47 0 0 0 .31-.11.1.1 0 0 1 0 0s0 0 0 0l.09.18v.06a.21.21 0 0 0 .1.06.06.06 0 0 0 .06 0 .07.07 0 0 0 0-.05.08.08 0 0 1 .05-.08h.06a.09.09 0 0 1 0-.07s0 0 0 0h.05.08s0 0 0 0a.12.12 0 0 0 .1.05.07.07 0 0 0 .06 0 0 0 0 0 0 0 0 0 0 0 0 1 0 0 .46.46 0 0 0 .36.06h.14a.79.79 0 0 1 .22-.05.08.08 0 0 0 .07 0s0 0 0 0h.07s0 0 0 0a0 0 0 0 0 0 0s0 0 .07 0a.94.94 0 0 0 .42-.19h.07.07s.07 0 .07 0a.06.06 0 0 1 0-.05.08.08 0 0 1 .07 0 .2.2 0 0 0 .16-.07l.09-.09.05-.06a.81.81 0 0 1 .86-.2h-.21a1 1 0 0 0 -.35 0 .42.42 0 0 0 -.16.09.14.14 0 0 0 -.06.07.22.22 0 0 0 0 .09v.26a.07.07 0 0 0 0 0s.06.05.11.06a.47.47 0 0 1 .19.12.31.31 0 0 1 .06.22.27.27 0 0 1 -.17.2.3.3 0 0 1 -.26 0 .56.56 0 0 1 -.18-.22l-.09-.13a.13.13 0 0 0 -.06-.05zm2.32-.19a.16.16 0 0 0 0 .12h.05a.16.16 0 0 1 0-.07s0 0 0 0z"/><path d="m36.11 16.8s0 0 0 0a.26.26 0 0 1 .16-.21s0 0 0 0a.23.23 0 0 0 -.14.17s-.01.04-.02.04z"/><path d="m36.27 16.8s0 0 0 0a.28.28 0 0 1 .16-.14s0 0 0 0a.28.28 0 0 0 -.15.13 0 0 0 0 1 -.01.01z"/><path d="m33 16.59a0 0 0 0 1 0 0 .55.55 0 0 1 .17-.23s0 0 0 0a.52.52 0 0 0 -.16.22 0 0 0 0 1 -.01.01z"/><path d="m33.15 16.91a0 0 0 0 1 0 0v-.07a.28.28 0 0 1 .08-.19 0 0 0 0 1 0 0s0 0 0 0a.24.24 0 0 0 -.07.17v.07z"/><path d="m28.31 16.63s0 0 0 0a.11.11 0 0 0 0-.06.23.23 0 0 0 -.06-.14s0 0 0 0a.21.21 0 0 1 .09.17.15.15 0 0 1 0 .08z"/><path d="m28.47 16.58a.36.36 0 0 1 -.11-.22.27.27 0 0 1 0-.11s0 0 0 0 0 .06 0 .1a.32.32 0 0 0 .1.2s0 0 0 0z"/><path d="m28.61 16.54a.53.53 0 0 1 -.11-.25s0 0 0 0a.53.53 0 0 0 .11.24s0 0 0 0z"/><path d="m28.2 15.28a.68.68 0 0 1 0-.12c0-.05 0-.09.1-.13s0 0 0 0-.09.07-.09.1a.43.43 0 0 0 0 .11s0 0 0 0z"/><path d="m28.34 15.31s0 0 0-.08.06-.1.1-.14 0 0 0 0-.08.07-.08.11 0 0 0 .06a0 0 0 0 1 0 0z"/><path d="m28.53 15.28c0-.05 0-.08.1-.16-.1.07-.1.1-.1.13s0 0 0 0z"/><path d="m29 15.18s0 0 0 0 .14-.07.16-.13 0 0 0 0a.39.39 0 0 1 -.19.15z"/><path d="m29.88 16.31h-.12a0 0 0 0 1 0 0h.15c.09 0 .48-.09.48-.15s0 0 0 0a0 0 0 0 1 0 0 .07.07 0 0 1 0 .07c.01 0-.45.08-.51.08z"/><path d="m30.27 16.38a0 0 0 0 1 0 0 .43.43 0 0 1 0-.05s0 0 0-.07 0 0 0 0a.22.22 0 0 1 0 .08 0 0 0 0 1 0 .04z"/><path d="m31.08 16.45c-.1 0-.21-.16-.24-.41 0 .29.19.37.22.38s0 0 0 0z"/><path d="m31.54 16.55s0 0 0 0a1.34 1.34 0 0 0 -.19-.3c-.09-.12-.13-.17-.13-.19a0 0 0 0 1 0 0 .87.87 0 0 0 .11.17 1 1 0 0 1 .2.32 0 0 0 0 1 .01 0z"/><path d="m31.85 16.32h-.13a.54.54 0 0 1 -.37-.08s0 0 0 0a.54.54 0 0 0 .35.08h.14s0 0 0 0z"/><path d="m31.85 16.3s0 0 0 0l-.06-.09c-.17-.29-.2-.35-.71-.58s0 0 0 0c.52.23.56.3.74.59l.05.1s0 0 0 0z"/><path d="m31.76 15.94h-.15a0 0 0 0 1 0 0 .32.32 0 0 0 .14 0h.09a.81.81 0 0 0 .27-.11l-.25-.14a1.22 1.22 0 0 1 -.29-.18s0 0 0 0a2.72 2.72 0 0 0 .28.17c.22.11.28.15.28.17s0 0 0 0a.73.73 0 0 1 -.3.12h-.09z"/><path d="m30 15.93a0 0 0 0 1 0 0s0 0 0 0a.52.52 0 0 1 -.12-.26.23.23 0 0 1 -.15.06c-.07 0-.11 0-.11-.07a.53.53 0 0 1 .14-.28c-.15 0-.28-.12-.28-.19a0 0 0 0 1 0 0 .29.29 0 0 0 .11 0 .28.28 0 0 0 .21-.06s0 0 0 0-.17.07-.24.07h-.11a.29.29 0 0 0 .23.14h.08a.53.53 0 0 0 -.14.27s0 0 .07 0a.2.2 0 0 0 .13-.06s0 0 0 0 0 0 0 .06a.58.58 0 0 0 .1.24.13.13 0 0 1 0 .06.63.63 0 0 0 .15-.19c.07-.1.09-.13.12-.13s0 0 0 .07.06.16.15.16 0 0 0 0a.12.12 0 0 1 0-.1s0 0 0-.06a.09.09 0 0 0 0-.05s0 0 .07 0a.41.41 0 0 0 .19.09.14.14 0 0 1 -.08-.13c0-.07 0-.08 0-.08s0 0 0 0a.11.11 0 0 1 .09.06s0 0 .06 0a.43.43 0 0 1 0-.15.21.21 0 0 1 .05-.14l.28-.26s0 0 0 0a.15.15 0 0 1 0 .06.17.17 0 0 0 0 .12.46.46 0 0 0 0 .14s0 0 0 0-.06 0-.08-.06-.05-.05-.07-.05 0 0 0 .11c0 .08.08.11.11.12s0 0-.08 0a.45.45 0 0 1 -.21-.1s0 0 0 0v.05a.13.13 0 0 1 0 .09.1.1 0 0 0 0 .07.19.19 0 0 1 0 .07c-.12 0-.17-.11-.2-.19s0 0 0-.05l-.08.11c-.24.35-.3.44-.39.44z"/><path d="m29.32 15.45a0 0 0 0 1 0 0s.15-.05.15-.07a0 0 0 0 1 0 0h.13v-.07a.15.15 0 0 1 0 .08h-.1s0 0 0 0c.01.02-.14.06-.18.06z"/><path d="m31 14.85a.91.91 0 0 0 -.73-.36h-.08a0 0 0 0 1 0 0h.06a.92.92 0 0 1 .76.38s0 0 0 0z"/><path d="m31 15a2.13 2.13 0 0 0 -.88-.37 2.12 2.12 0 0 1 .89.37s0 0 0 0z"/><path d="m30.26 15.54a.36.36 0 0 1 -.14 0 .2.2 0 0 1 -.12-.14.09.09 0 0 0 0-.05v-.05a.31.31 0 0 1 0-.3s0 0 0 0a.06.06 0 0 0 0 0 .54.54 0 0 1 .1-.18l.15-.13a0 0 0 0 1 0 0l-.14.12a.35.35 0 0 0 -.09.17s0 0 0 .06a.34.34 0 0 0 0 .2s0 0 0 .06a.06.06 0 0 0 0 0 .15.15 0 0 0 .09.1.41.41 0 0 0 .15 0 .45.45 0 0 0 .23-.07l.06-.08a.23.23 0 0 1 .12-.12s.07-.05.1-.08l.07-.11a.22.22 0 0 0 0-.12s0 0 0 0a.2.2 0 0 1 0 .14.36.36 0 0 1 -.08.12.19.19 0 0 1 -.11.09h.05a.27.27 0 0 0 -.1.11.27.27 0 0 1 -.07.08.36.36 0 0 1 -.25.08z"/><path d="m30.09 14.94s0 0 0 0h.14s0 0 0 0z"/><path d="m30.62 15.32a.2.2 0 0 0 0-.11v-.06s0 0 0 0a.15.15 0 0 1 .05.06.84.84 0 0 1 0 .12z"/><path d="m30.48 15.28a0 0 0 0 1 0 0z"/><path d="m30.15 15a0 0 0 0 1 0 0z"/><path d="m30.15 15.08a0 0 0 0 1 0 0z"/><path d="m30.09 15.05a0 0 0 0 1 0 0 0 0 0 0 1 -.04 0z"/><path d="m30.43 15.32s0 0 0 0z"/><path d="m30.41 15.25a0 0 0 0 1 0 0z"/><path d="m30.46 15.23a0 0 0 0 1 0 0z"/><path d="m30.65 15s0 0 0 0a0 0 0 1 1 .06 0z"/><path d="m30.34 14.86a0 0 0 0 1 0 0s0 0 0 0a0 0 0 0 1 0 0s0-.02 0 0z"/><path d="m30.28 15.29h-.1a.14.14 0 0 1 0-.06.07.07 0 0 1 0-.06.14.14 0 0 1 .18 0 .09.09 0 0 1 0 .09 0 0 0 0 1 0 0s-.06.03-.08.03zm-.07-.14h-.05s0 0 0 0h.14a.05.05 0 0 0 0-.05.11.11 0 0 0 -.09.05z"/><path d="m30.21 15.53s0 0 0 0a.13.13 0 0 1 .06 0h-.07a.13.13 0 0 1 -.07-.06v-.08s0 0 0 0a.07.07 0 0 0 0 .05 0 0 0 0 0 0 0h.18s0 0 0 0 0 0-.05 0a.1.1 0 0 0 -.05 0z"/><path d="m30.09 15.31h-.09-.05a0 0 0 0 1 0 0s0 0 0 0h.06s0 0 0 0 0 .05 0 .05z"/><path d="m30.15 15.5a.07.07 0 0 1 -.06 0s-.05-.06 0-.1a0 0 0 0 1 0 0s0 0 0 0a.11.11 0 0 0 0 .06.05.05 0 0 0 0 0s0 0 0 0a0 0 0 0 1 0 0 .07.07 0 0 1 0 .06h-.05z"/><path d="m30.82 15a.22.22 0 0 1 -.12-.05h-.07s0 0 0 0a0 0 0 0 1 0 0h.07.05a.14.14 0 0 0 .11 0 0 0 0 0 1 0 0z"/><path d="m30.33 15s0 0 0 0a.18.18 0 0 0 0-.13 0 0 0 0 1 0 0 .2.2 0 0 1 0 .15s0 0 0 0z"/><path d="m30.32 15a.11.11 0 0 1 -.09-.1.43.43 0 0 1 0 0 0 0 0 0 1 0 0h.05a.09.09 0 0 0 .06.07s0 0 0 0z"/><path d="m30.43 15.17s0-.05 0-.07v-.1.11s0 0 0 0z"/><path d="m30.62 15.06h-.06a.11.11 0 0 1 0-.08s0 0 0 0a0 0 0 0 0 0 0h.12s0 0 0 0h-.11z"/><path d="m27.47 20.6h10.08v1.36h-10.08z" fill="#d21034"/><path d="m27.47 13.79v8.33.39c.13 1.14.92 2.46 4.34 3.93l.14.06.51.2a4.08 4.08 0 0 0 .42-.17l.23-.09c3-1.27 4-2.43 4.25-3.45a3.05 3.05 0 0 0 .11-.87v-8.33zm9.91 8.33c0 1.15-.52 2.53-4.19 4.12l-.23.1-.45.19-.51-.23-.14-.06c-3.67-1.59-4.18-3-4.18-4.12v-8.12h9.73z"/></svg>