<svg viewBox="0 0 40.5 40.5" xmlns="http://www.w3.org/2000/svg"><circle cx="20.25" cy="20.25" fill="#75b2dd" r="20.25"/><g fill="#fff"><path d="m20.25 3.97.92 2.84h2.98l-2.41 1.75.92 2.83-2.41-1.75-2.41 1.75.92-2.83-2.41-1.75h2.98z"/><path d="m20.25 36.53.92-2.84h2.98l-2.41-1.75.92-2.83-2.41 1.75-2.41-1.75.92 2.83-2.41 1.75h2.98z"/><path d="m36.53 20.24-2.84-.92v-2.98l-1.75 2.42-2.83-.92 1.75 2.41-1.75 2.41 2.83-.93 1.75 2.41v-2.98z"/><path d="m3.97 20.24 2.84-.92v-2.98l1.75 2.42 2.83-.92-1.75 2.41 1.75 2.41-2.83-.93-1.75 2.41v-2.98z"/></g></svg>