<svg xmlns="http://www.w3.org/2000/svg" viewBox="0 0 40.5 40.5"><defs><style>.cls-1{fill:#75b2dd;}.cls-2{fill:#fff;}</style></defs><g id="Ebene_2" data-name="Ebene 2"><g id="Ńëîé_1" data-name="Ńëîé 1"><circle class="cls-1" cx="20.25" cy="20.25" r="20.25"/><polygon class="cls-2" points="20.25 3.97 21.17 6.81 24.15 6.81 21.74 8.56 22.66 11.39 20.25 9.64 17.84 11.39 18.76 8.56 16.35 6.81 19.33 6.81 20.25 3.97"/><polygon class="cls-2" points="20.25 36.53 21.17 33.69 24.15 33.69 21.74 31.94 22.66 29.11 20.25 30.86 17.84 29.11 18.76 31.94 16.35 33.69 19.33 33.69 20.25 36.53"/><polygon class="cls-2" points="36.53 20.24 33.69 19.32 33.69 16.34 31.94 18.76 29.11 17.84 30.86 20.25 29.11 22.66 31.94 21.73 33.69 24.14 33.69 21.16 36.53 20.24"/><polygon class="cls-2" points="3.97 20.24 6.81 19.32 6.81 16.34 8.56 18.76 11.39 17.84 9.64 20.25 11.39 22.66 8.56 21.73 6.81 24.14 6.81 21.16 3.97 20.24"/></g></g></svg>