<svg xmlns="http://www.w3.org/2000/svg" viewBox="0 0 40.5 40.5"><defs><style>.cls-1{fill:#fff;}.cls-2{fill:#de2910;}</style></defs><g id="Ebene_2" data-name="Ebene 2"><g id="Ńëîé_1" data-name="Ńëîé 1"><path class="cls-1" d="M40.5,20.25a20.25,20.25,0,1,1-.23-3A20.23,20.23,0,0,1,40.5,20.25Z"/><path class="cls-2" d="M40.5,20.25a20.23,20.23,0,0,1-.23,3H.23a20.21,20.21,0,0,1,0-6.08h40A20.23,20.23,0,0,1,40.5,20.25Z"/><path class="cls-2" d="M23.29.23v40a20.21,20.21,0,0,1-6.08,0V.23a20.21,20.21,0,0,1,6.08,0Z"/><path class="cls-2" d="M36.12,10.08s0-.05,0-.05a9.66,9.66,0,0,1-2.14.29,9.43,9.43,0,0,1,.29-2.14,0,0,0,0,0,0,0,6.23,6.23,0,0,1-1,.07,5.05,5.05,0,0,1-1-.07.05.05,0,0,0,0,0,8.67,8.67,0,0,1,.32,2.14A10.65,10.65,0,0,1,30.33,10s0,0,0,0a6.23,6.23,0,0,1,.07,1,6.11,6.11,0,0,1-.07,1s0,.06,0,.05a8.84,8.84,0,0,1,2.17-.32,8.74,8.74,0,0,1-.32,2.17,0,0,0,0,0,0,.05c.13,0,.48-.05,1-.05s.84,0,1,.05a0,0,0,0,0,0-.05,10.57,10.57,0,0,1-.29-2.17,9.12,9.12,0,0,1,2.14.32s0,0,0,0a7.76,7.76,0,0,1,0-1A7.55,7.55,0,0,1,36.12,10.08Z"/><path class="cls-2" d="M4.38,10.08s0-.05,0-.05a9.66,9.66,0,0,0,2.14.29,9.43,9.43,0,0,0-.29-2.14,0,0,0,0,1,0,0,6.23,6.23,0,0,0,1,.07,5.05,5.05,0,0,0,1-.07.05.05,0,0,1,.05,0A8.67,8.67,0,0,0,8,10.32,10.65,10.65,0,0,0,10.17,10s.05,0,.05,0a6.23,6.23,0,0,0-.07,1,6.11,6.11,0,0,0,.07,1s0,.06-.05.05A8.84,8.84,0,0,0,8,11.75a8.74,8.74,0,0,0,.32,2.17,0,0,0,0,1-.05.05c-.13,0-.48-.05-1-.05s-.84,0-1,.05a0,0,0,0,1,0-.05,10.57,10.57,0,0,0,.29-2.17,9.12,9.12,0,0,0-2.14.32s0,0,0,0a7.76,7.76,0,0,0,0-1A7.55,7.55,0,0,0,4.38,10.08Z"/><path class="cls-2" d="M36.12,30.42s0,0,0,0a9.66,9.66,0,0,0-2.14-.29,9.43,9.43,0,0,0,.29,2.14,0,0,0,0,1,0,0,6.23,6.23,0,0,0-1-.07,5.05,5.05,0,0,0-1,.07.05.05,0,0,1,0,0,8.67,8.67,0,0,0,.32-2.14,10.65,10.65,0,0,0-2.17.28s0,0,0,0a6.23,6.23,0,0,0,.07-1,6.11,6.11,0,0,0-.07-1s0-.06,0-.05a8.84,8.84,0,0,0,2.17.32,8.74,8.74,0,0,0-.32-2.17,0,0,0,0,1,0,0c.13,0,.48,0,1,0s.84,0,1,0a0,0,0,0,1,0,0,10.57,10.57,0,0,0-.29,2.17,9.12,9.12,0,0,0,2.14-.32s0,0,0,0a7.76,7.76,0,0,0,0,1A7.55,7.55,0,0,0,36.12,30.42Z"/><path class="cls-2" d="M4.38,30.42s0,0,0,0a9.66,9.66,0,0,1,2.14-.29,9.43,9.43,0,0,1-.29,2.14,0,0,0,0,0,0,0,6.23,6.23,0,0,1,1-.07,5.05,5.05,0,0,1,1,.07.05.05,0,0,0,.05,0A8.67,8.67,0,0,1,8,30.18a10.65,10.65,0,0,1,2.17.28s.05,0,.05,0a6.23,6.23,0,0,1-.07-1,6.11,6.11,0,0,1,.07-1s0-.06-.05-.05A8.84,8.84,0,0,1,8,28.75a8.74,8.74,0,0,1,.32-2.17,0,0,0,0,0-.05,0c-.13,0-.48,0-1,0s-.84,0-1,0a0,0,0,0,0,0,0,10.57,10.57,0,0,1,.29,2.17,9.12,9.12,0,0,1-2.14-.32s0,0,0,0a7.76,7.76,0,0,1,0,1A7.55,7.55,0,0,1,4.38,30.42Z"/></g></g></svg>