<svg viewBox="0 0 40.5 40.5" xmlns="http://www.w3.org/2000/svg"><path d="m40.5 20.25a20.25 20.25 0 1 1 -.23-3 20.23 20.23 0 0 1 .23 3z" fill="#fff"/><g fill="#de2910"><path d="m40.5 20.25a20.23 20.23 0 0 1 -.23 3h-40.04a20.21 20.21 0 0 1 0-6.08h40a20.23 20.23 0 0 1 .27 3.08z"/><path d="m23.29.23v40a20.21 20.21 0 0 1 -6.08 0v-40a20.21 20.21 0 0 1 6.08 0z"/><path d="m36.12 10.08s0-.05 0-.05a9.66 9.66 0 0 1 -2.14.29 9.43 9.43 0 0 1 .29-2.14 0 0 0 0 0 0 0 6.23 6.23 0 0 1 -1 .07 5.05 5.05 0 0 1 -1-.07.05.05 0 0 0 0 0 8.67 8.67 0 0 1 .32 2.14 10.65 10.65 0 0 1 -2.26-.32s0 0 0 0a6.23 6.23 0 0 1 .07 1 6.11 6.11 0 0 1 -.07 1s0 .06 0 .05a8.84 8.84 0 0 1 2.17-.32 8.74 8.74 0 0 1 -.32 2.17 0 0 0 0 0 0 .05c.13 0 .48-.05 1-.05s.84 0 1 .05a0 0 0 0 0 0-.05 10.57 10.57 0 0 1 -.29-2.17 9.12 9.12 0 0 1 2.14.32s0 0 0 0a7.76 7.76 0 0 1 0-1 7.55 7.55 0 0 1 .09-.97z"/><path d="m4.38 10.08s0-.05 0-.05a9.66 9.66 0 0 0 2.14.29 9.43 9.43 0 0 0 -.29-2.14 0 0 0 0 1 0 0 6.23 6.23 0 0 0 1 .07 5.05 5.05 0 0 0 1-.07.05.05 0 0 1 .05 0 8.67 8.67 0 0 0 -.28 2.14 10.65 10.65 0 0 0 2.17-.32s.05 0 .05 0a6.23 6.23 0 0 0 -.07 1 6.11 6.11 0 0 0 .07 1s0 .06-.05.05a8.84 8.84 0 0 0 -2.17-.3 8.74 8.74 0 0 0 .32 2.17 0 0 0 0 1 -.05.05c-.13 0-.48-.05-1-.05s-.84 0-1 .05a0 0 0 0 1 0-.05 10.57 10.57 0 0 0 .29-2.17 9.12 9.12 0 0 0 -2.14.32s0 0 0 0a7.76 7.76 0 0 0 0-1 7.55 7.55 0 0 0 -.04-.99z"/><path d="m36.12 30.42s0 0 0 0a9.66 9.66 0 0 0 -2.14-.29 9.43 9.43 0 0 0 .29 2.14 0 0 0 0 1 0 0 6.23 6.23 0 0 0 -1-.07 5.05 5.05 0 0 0 -1 .07.05.05 0 0 1 0 0 8.67 8.67 0 0 0 .32-2.14 10.65 10.65 0 0 0 -2.17.28s0 0 0 0a6.23 6.23 0 0 0 .07-1 6.11 6.11 0 0 0 -.07-1s0-.06 0-.05a8.84 8.84 0 0 0 2.17.32 8.74 8.74 0 0 0 -.32-2.17 0 0 0 0 1 0 0h1s.84 0 1 0a0 0 0 0 1 0 0 10.57 10.57 0 0 0 -.29 2.17 9.12 9.12 0 0 0 2.14-.32s0 0 0 0a7.76 7.76 0 0 0 0 1 7.55 7.55 0 0 0 0 1.06z"/><path d="m4.38 30.42s0 0 0 0a9.66 9.66 0 0 1 2.14-.29 9.43 9.43 0 0 1 -.29 2.14 0 0 0 0 0 0 0 6.23 6.23 0 0 1 1-.07 5.05 5.05 0 0 1 1 .07.05.05 0 0 0 .05 0 8.67 8.67 0 0 1 -.28-2.09 10.65 10.65 0 0 1 2.17.28s.05 0 .05 0a6.23 6.23 0 0 1 -.07-1 6.11 6.11 0 0 1 .07-1s0-.06-.05-.05a8.84 8.84 0 0 1 -2.17.34 8.74 8.74 0 0 1 .32-2.17 0 0 0 0 0 -.05 0c-.13 0-.48 0-1 0s-.84 0-1 0a0 0 0 0 0 0 0 10.57 10.57 0 0 1 .29 2.17 9.12 9.12 0 0 1 -2.14-.32s0 0 0 0a7.76 7.76 0 0 1 0 1 7.55 7.55 0 0 1 -.04.99z"/></g></svg>