<svg xmlns="http://www.w3.org/2000/svg" viewBox="0 0 40.5 40.5"><defs><style>.cls-1{fill:#ce1126;}.cls-2{fill:#fcd116;}.cls-3{fill:#006b3f;}.cls-4{fill:#000800;}</style></defs><g id="Ebene_2" data-name="Ebene 2"><g id="Ńëîé_1" data-name="Ńëîé 1"><path class="cls-1" d="M39.34,13.5H1.16a20.25,20.25,0,0,1,38.18,0Z"/><path class="cls-2" d="M40.5,20.25A20,20,0,0,1,39.34,27H1.16a20.22,20.22,0,0,1,0-13.5H39.34A20,20,0,0,1,40.5,20.25Z"/><path class="cls-3" d="M39.34,27A20.25,20.25,0,0,1,1.16,27Z"/><polygon class="cls-4" points="20.25 13.5 21.93 18.66 27.35 18.66 22.96 21.84 24.64 27 20.25 23.81 15.86 27 17.54 21.84 13.15 18.66 18.57 18.66 20.25 13.5"/></g></g></svg>