<svg xmlns="http://www.w3.org/2000/svg" viewBox="0 0 40.5 40.5"><defs><style>.cls-1{fill:#3a7728;}.cls-2{fill:#0c1c8c;}.cls-3{fill:#fff;}.cls-4{fill:#ce1126;}</style></defs><g id="Ebene_2" data-name="Ebene 2"><g id="Ńëîé_1" data-name="Ńëîé 1"><path class="cls-1" d="M39.34,27A20.25,20.25,0,0,1,1.16,27Z"/><path class="cls-2" d="M40.5,20.25A19.82,19.82,0,0,1,40,24.84H.53a20.14,20.14,0,0,1,0-9.18H40A19.82,19.82,0,0,1,40.5,20.25Z"/><path class="cls-3" d="M40,24.84A15.76,15.76,0,0,1,39.34,27H1.16a15.76,15.76,0,0,1-.63-2.16Z"/><path class="cls-3" d="M40,15.66H.53a15.76,15.76,0,0,1,.63-2.16H39.34A15.76,15.76,0,0,1,40,15.66Z"/><path class="cls-4" d="M39.34,13.5H1.16a20.25,20.25,0,0,1,38.18,0Z"/></g></g></svg>