<svg viewBox="0 0 40.5 40.5" xmlns="http://www.w3.org/2000/svg"><path d="m39.34 27a20.25 20.25 0 0 1 -38.18 0z" fill="#3a7728"/><path d="m40.5 20.25a19.82 19.82 0 0 1 -.5 4.59h-39.47a20.14 20.14 0 0 1 0-9.18h39.47a19.82 19.82 0 0 1 .5 4.59z" fill="#0c1c8c"/><path d="m40 24.84a15.76 15.76 0 0 1 -.66 2.16h-38.18a15.76 15.76 0 0 1 -.63-2.16z" fill="#fff"/><path d="m40 15.66h-39.47a15.76 15.76 0 0 1 .63-2.16h38.18a15.76 15.76 0 0 1 .66 2.16z" fill="#fff"/><path d="m39.34 13.5h-38.18a20.25 20.25 0 0 1 38.18 0z" fill="#ce1126"/></svg>