<svg xmlns="http://www.w3.org/2000/svg" viewBox="0 0 40.5 40.5"><defs><style>.cls-1{fill:#3e9a00;}.cls-2{fill:#fff;}.cls-3{fill:#e32118;}.cls-4{fill:gold;}.cls-5{fill:#a36629;}.cls-6{fill:#73452b;}.cls-7{fill:#009a3b;}.cls-8{fill:#0073ce;}</style></defs><g id="Ebene_2" data-name="Ebene 2"><g id="Ńëîé_1" data-name="Ńëîé 1"><path class="cls-1" d="M39.34,13.5H1.16a20.25,20.25,0,0,1,38.18,0Z"/><path class="cls-2" d="M40.5,20.25A19.9,19.9,0,0,1,39.34,27H1.16a20.22,20.22,0,0,1,0-13.5H39.34A20,20,0,0,1,40.5,20.25Z"/><path class="cls-3" d="M39.34,27A20.23,20.23,0,0,1,1.16,27Z"/><path d="M20.26,24.92l-.05-.2a.68.68,0,0,0-.71-.46h-.3a2.54,2.54,0,0,1-1.87-.37,1.3,1.3,0,0,1-.36-1V16.15h6.57v6.77a1.38,1.38,0,0,1-.38,1,2.37,2.37,0,0,1-1.79.31l-.36,0a.69.69,0,0,0-.71.46Zm-.76-.76a.79.79,0,0,1,.75.41.82.82,0,0,1,.76-.41l.37,0a2.32,2.32,0,0,0,1.71-.28,1.3,1.3,0,0,0,.35-1V16.25H17.07v6.67a1.21,1.21,0,0,0,.33.91,2.51,2.51,0,0,0,1.79.34Z"/><polygon class="cls-4" points="21.13 14.25 21.31 14.59 21.69 14.6 21.49 14.93 21.67 15.27 21.29 15.25 21.08 15.58 20.9 15.24 20.52 15.22 20.72 14.9 20.54 14.56 20.93 14.57 21.13 14.25"/><path d="M21.08,15.64l-.2-.37h-.42l.22-.36-.19-.37h.42l.22-.36.2.38h.42l-.22.36.19.37H21.3Zm-.5-.45h.34l.16.31.19-.29h.34l-.16-.3.18-.3h-.34l-.16-.3-.19.29H20.6l.16.3Z"/><polygon class="cls-4" points="22.92 14.51 23.02 14.88 23.38 14.99 23.11 15.26 23.21 15.63 22.84 15.52 22.57 15.79 22.47 15.42 22.1 15.32 22.37 15.05 22.28 14.68 22.65 14.78 22.92 14.51"/><path d="M22.55,15.86l-.11-.41-.4-.11.3-.3-.11-.41.41.11.3-.29.1.41.41.11-.3.3.11.4-.41-.11Zm-.38-.56.33.09.08.34.25-.24.33.09-.09-.34.25-.24L23,14.91l-.09-.33-.24.24-.34-.09.09.33Z"/><polygon class="cls-4" points="24.59 15.04 24.61 15.43 24.95 15.6 24.63 15.81 24.65 16.19 24.31 16.02 23.99 16.23 23.97 15.85 23.62 15.67 23.95 15.46 23.92 15.08 24.27 15.25 24.59 15.04"/><path d="M24,16.29l0-.42-.37-.19.35-.23,0-.43.37.2.36-.24,0,.43.38.19-.36.23,0,.42-.38-.19Zm-.27-.62.31.15,0,.35.29-.19.3.15,0-.34.29-.19-.31-.15V15.1l-.29.19L24,15.14l0,.34Z"/><path class="cls-5" d="M21,23.25s.25.56-.37.37c0,0-.22.32-.43,0h0s-.25.3-.42,0c0,0-.42.17-.29-.17a9.36,9.36,0,0,0,.46-1.53A10.85,10.85,0,0,0,20,20.12c0-.61,0-.95-.48-1.19s.18-.17.18-.17.42.3.45.4v-.64l.3,0v.56a3.5,3.5,0,0,1,.53-.4c.16-.08.31.13.31.13s-.83.34-.83.94a16.28,16.28,0,0,0,.07,2.09A9.36,9.36,0,0,0,21,23.25Z"/><path d="M20.35,23.77h0a.23.23,0,0,1-.2-.13.32.32,0,0,1-.22.13h0c-.07,0-.13-.06-.19-.17s-.21.08-.29,0,0-.1,0-.2,0-.11.06-.18a6.74,6.74,0,0,0,.4-1.34c0-.08,0-.18,0-.29a9.84,9.84,0,0,0,.1-1.48v-.06c0-.58,0-.89-.47-1.12-.13-.06-.18-.11-.17-.14s.29-.05.35-.05h0a2.75,2.75,0,0,1,.44.37v-.6h0l.31,0h0v.54A3.35,3.35,0,0,1,21,18.7c.16-.08.31.13.32.13h0s-.82.35-.82.93v.32a12.84,12.84,0,0,0,.07,1.77A11.32,11.32,0,0,0,21,23.25s.11.25,0,.36-.19.08-.38,0A.34.34,0,0,1,20.35,23.77Zm-.2-.15h0a.22.22,0,0,0,.19.13h0c.12,0,.23-.14.23-.14h0c.18.06.3.05.36,0s0-.34,0-.34h0a10.6,10.6,0,0,1-.38-1.39,12.78,12.78,0,0,1-.07-1.77v-.32c0-.56.72-.9.82-.94s-.15-.19-.28-.12a2.94,2.94,0,0,0-.53.4h0v-.55l-.28,0v.63s0,0,0,0h0c0-.1-.41-.38-.45-.4s-.31,0-.32,0,0,.05.16.13c.44.22.46.55.48,1.13v.06A9.84,9.84,0,0,1,20,21.6c0,.11,0,.21,0,.29a6.56,6.56,0,0,1-.4,1.35c0,.07-.05.13-.06.18s0,.14,0,.18.27,0,.27,0h0c.05.11.11.16.17.17a.3.3,0,0,0,.23-.13h0Z"/><path class="cls-6" d="M21,23.25s.25.56-.37.37c0,0-.22.32-.43,0h0c0-.59.08-1.56.07-1.9,0-.51,0-1.54,0-2,0-.3,0-1.18,0-1.18l.3,0v.56a3.5,3.5,0,0,1,.53-.4c.16-.08.31.13.31.13s-.83.34-.83.94a16.28,16.28,0,0,0,.07,2.09A9.36,9.36,0,0,0,21,23.25Z"/><path d="M20.35,23.77h0a.25.25,0,0,1-.21-.13h0c0-.57.08-1.56.07-1.9v-.6c0-.51,0-1.09,0-1.43s0-1.17,0-1.18h0l.31,0h0v.54A3.35,3.35,0,0,1,21,18.7c.16-.08.31.13.32.13h0s-.82.35-.82.93v.32a12.84,12.84,0,0,0,.07,1.77A11.32,11.32,0,0,0,21,23.25s.11.25,0,.36-.19.08-.38,0A.34.34,0,0,1,20.35,23.77Zm-.19-.15a.22.22,0,0,0,.19.13h0c.12,0,.23-.14.23-.14h0c.18.06.3.05.36,0s0-.34,0-.34h0a10.6,10.6,0,0,1-.38-1.39,12.78,12.78,0,0,1-.07-1.77v-.32c0-.56.72-.9.82-.94s-.15-.19-.28-.12a2.94,2.94,0,0,0-.53.4h0v-.55l-.28,0c0,.1,0,.9,0,1.17s0,.92,0,1.43v.59C20.24,22.07,20.19,23.06,20.16,23.62Z"/><polygon class="cls-4" points="19.45 14.25 19.27 14.59 18.89 14.6 19.09 14.93 18.91 15.27 19.3 15.25 19.5 15.58 19.68 15.24 20.06 15.22 19.86 14.9 20.04 14.56 19.65 14.57 19.45 14.25"/><path d="M19.5,15.64l-.22-.35h-.42l.19-.37-.22-.36h.42l.2-.38.22.36h.42l-.19.37.22.36H19.7Zm-.19-.42.19.29.16-.31H20l-.18-.29.16-.3h-.34l-.19-.29-.16.3H19l.18.3-.16.3Z"/><polygon class="cls-4" points="17.66 14.51 17.57 14.88 17.2 14.99 17.47 15.26 17.37 15.63 17.74 15.52 18.01 15.79 18.11 15.42 18.48 15.32 18.21 15.05 18.3 14.68 17.93 14.78 17.66 14.51"/><path d="M18,15.86l-.3-.3-.41.11.11-.4-.3-.3.41-.11.1-.41.3.29.41-.11-.11.41.31.3-.41.11Zm-.28-.37.25.24.08-.34.33-.09-.24-.24.09-.33-.34.09-.24-.24-.09.33-.33.09.25.24-.09.34Z"/><polygon class="cls-4" points="15.99 15.04 15.97 15.43 15.63 15.6 15.95 15.81 15.93 16.19 16.27 16.02 16.59 16.23 16.61 15.85 16.96 15.67 16.64 15.46 16.66 15.08 16.32 15.25 15.99 15.04"/><path d="M16.62,16.29l-.35-.23-.38.19,0-.42-.36-.23.38-.19L16,15l.36.24.37-.2,0,.43.35.23-.37.19ZM16.27,16l.29.19,0-.35.31-.15-.29-.19,0-.34-.31.15L16,15.1v.35l-.31.15.29.19,0,.34Z"/><path class="cls-7" d="M22.84,18.22h0a.38.38,0,0,0-.43-.42c-.27,0-.08.06-.08-.14a.19.19,0,0,0-.17-.19h-.07l-.08,0h0c-.06-.12-.08-.22-.3-.22s-.1.09-.2.15h-.11c-.19,0-.13,0-.19.11v0a.29.29,0,0,0-.27-.24c-.11,0-.12,0-.12,0v-.08a.52.52,0,0,0-.53-.46.33.33,0,0,0-.36.23h0a1,1,0,0,0-.2,0c-.12,0-.17.05-.17.16s.05.06.07.12h-.1a.11.11,0,0,0-.1.11v.08h0l-.1,0a.28.28,0,0,0-.24.23s0,.05,0,.07a.24.24,0,0,1,0,.08h0a.12.12,0,0,0-.08,0c-.2,0-.2.09-.2.15v.18s-.23.08-.23.16.07.16.12.28h0c-.06,0-.13,0-.15.08v0s0,.07,0,.09h0s0,0-.06,0a.11.11,0,0,0-.12.11c0,.07,0,0-.18,0a.22.22,0,0,0-.24.23l-.13,0a.22.22,0,0,0-.19.13v0a.18.18,0,0,0,.19.16h.06c.08,0,.13.17.35.17h0a.35.35,0,0,0,.14-.06.54.54,0,0,0,.12-.18h0c.1,0,.15.13.28.13h.08s0,0,0,0a.37.37,0,0,0,.33.17c.15,0,.27-.06.27-.22s0-.16,0-.2h.11c.14,0,.21-.07.22-.16v-.1s0-.06,0-.06h.06c.15,0,.06-.11.15-.19h0s0,0,0,0h0a.48.48,0,0,0,.31.15c.23,0,.26-.1.4-.13h0a.51.51,0,0,0,.49.31h.19c.09,0,.2.28.34.28h.07c.33,0,.32-.16.44-.18h0a.35.35,0,0,0,.16,0c.16,0,.36,0,.41-.17h0v0s0,0,0,0h.05a.35.35,0,0,0,.2-.28A.32.32,0,0,0,22.84,18.22Z"/><path d="M19.18,19.61a.37.37,0,0,1-.34-.18h0s0,0,0,0h-.08a.33.33,0,0,1-.18-.07.24.24,0,0,0-.09-.06.62.62,0,0,1-.13.18.35.35,0,0,1-.14.06h0a.36.36,0,0,1-.27-.12.15.15,0,0,0-.08-.05h-.06a.19.19,0,0,1-.2-.17v0a.21.21,0,0,1,.2-.14h.12a.25.25,0,0,1,.07-.17.24.24,0,0,1,.18-.06.45.45,0,0,1,.17,0v0a.12.12,0,0,1,.13-.12h.06s0,0,0,0l0-.05v0c0-.06.08-.07.13-.08h0l-.06-.1a.32.32,0,0,1-.06-.18c0-.08.19-.15.23-.17h0v-.16c0-.06,0-.16.21-.16a.2.2,0,0,1,.07,0,.08.08,0,0,0,0-.06v-.07a.29.29,0,0,1,.25-.24l.1,0h0v-.07a.11.11,0,0,1,.11-.12h.09l0,0a.09.09,0,0,1,0-.08c0-.12.06-.17.18-.17h.19a.35.35,0,0,1,.37-.23.52.52,0,0,1,.54.47v.08s0,0,0,0h.1a.3.3,0,0,1,.28.23v0s0-.06.17-.06h.11a.15.15,0,0,0,.05-.07c0-.05,0-.08.15-.08a.26.26,0,0,1,.29.2l0,0,.07,0h.07a.21.21,0,0,1,.18.2.21.21,0,0,1,0,.14h.11a.48.48,0,0,1,.35.13.4.4,0,0,1,.09.29h0a.33.33,0,0,1,.29.36.35.35,0,0,1-.21.29h-.05s0,0,0,0h0v.05c-.05.15-.27.17-.42.17a.55.55,0,0,1-.16,0h0s-.06,0-.09.05a.41.41,0,0,1-.35.13h-.07c-.09,0-.17-.1-.24-.18s-.07-.09-.1-.1h-.19a.54.54,0,0,1-.5-.31l-.11,0a.44.44,0,0,1-.28.08.53.53,0,0,1-.31-.14h0a.16.16,0,0,0-.05.1s0,.09-.11.09h0s-.07,0-.07.05V19a.21.21,0,0,1-.23.17h-.09s0,.05,0,.08a.49.49,0,0,1,0,.12C19.46,19.53,19.36,19.61,19.18,19.61Zm-.36-.22s0,0,0,0h0a.34.34,0,0,0,.32.16c.1,0,.26,0,.26-.2a.49.49,0,0,0,0-.12s0-.06,0-.08a0,0,0,0,1,0,0h.1a.19.19,0,0,0,.21-.16h0v-.08s0-.08.06-.08h.06c.08,0,.08,0,.09-.08a.34.34,0,0,1,.05-.11h0a.47.47,0,0,0,.31.15.41.41,0,0,0,.27-.08l.13,0h0a.5.5,0,0,0,.48.31h.2s.07.06.11.11.14.17.22.17h.07a.39.39,0,0,0,.33-.12.15.15,0,0,1,.1-.06h0a.32.32,0,0,0,.15,0c.15,0,.35,0,.4-.16h0v0s0,0,0,0h0a.31.31,0,0,0,.2-.27.31.31,0,0,0-.27-.34h-.05a.39.39,0,0,0-.09-.29.42.42,0,0,0-.33-.12h-.15s0,0,0,0a.17.17,0,0,0,.06-.14.18.18,0,0,0-.16-.18h-.07l-.07,0h0v0a.25.25,0,0,0-.28-.19c-.1,0-.11,0-.13.06a.16.16,0,0,1-.06.09h-.12c-.12,0-.13,0-.15.05s0,0,0,.05h0c0-.13-.16-.23-.26-.23h-.12a.07.07,0,0,1,0-.05v-.08a.5.5,0,0,0-.52-.45.32.32,0,0,0-.35.23h-.21c-.11,0-.16,0-.16.15s0,.05,0,.06l0,.05v0h-.11a.09.09,0,0,0-.09.1v.08s0,0,0,0h0l-.1,0a.27.27,0,0,0-.23.22v.07a.24.24,0,0,1,0,.08s0,0,0,0h-.07c-.19,0-.19.07-.19.13v.18h0c-.07,0-.23.09-.23.15a.29.29,0,0,0,.06.17l.06.1h0s0,0,0,0h0s-.09,0-.11.06v0s0,0,0,0a.17.17,0,0,1,0,.05v0h-.07a.1.1,0,0,0-.11.1v0s0,0,0,0a.41.41,0,0,0-.17,0,.22.22,0,0,0-.17.06.25.25,0,0,0-.06.16h-.14a.21.21,0,0,0-.18.12v0a.17.17,0,0,0,.18.15h.06s.06,0,.1.06a.31.31,0,0,0,.25.11h0l.13-.05a.66.66,0,0,0,.12-.19h0a.3.3,0,0,1,.11.06.22.22,0,0,0,.16.07h.08Zm.62-.21Z"/><path d="M18.82,19.4h0a0,0,0,0,1,0,0c.11-.21.19-.22.29-.22h.05s0,0,0,0h0c-.09,0-.16,0-.27.21v0Z"/><path d="M19,19.19h0a.22.22,0,0,0-.2-.17c-.06,0-.07,0-.09,0l0,0h0a0,0,0,0,1,0,0l0,0s0,0,.1,0,.17.06.22.19,0,0,0,0Z"/><path d="M19,18.56h0a.21.21,0,0,0-.17-.06.27.27,0,0,0-.14,0h-.06s0,0,0,0h.06a.32.32,0,0,1,.15,0,.22.22,0,0,1,.18.06s0,0,0,0Z"/><path d="M19.38,18.75s0,0,0,0h0v0h.16s.08,0,.09,0h0v0h0s.06-.11.12-.11h0a0,0,0,0,1,0,0h0s-.09.06-.1.09h0v0h0v0s-.07,0-.11,0h-.14v0h0A0,0,0,0,1,19.38,18.75Z"/><path d="M19.31,18.23h0l0,0a.16.16,0,0,0-.17-.08H19a0,0,0,0,1,0,0h.11c.11,0,.12,0,.19.09l0,0h0a.2.2,0,0,0,.07-.1A.21.21,0,0,1,19.6,18h0v0H19.6c-.14,0-.17.05-.2.1a.26.26,0,0,1-.08.11Z"/><path d="M19.87,17.76h0s0,0,0,0h0v-.06a.2.2,0,0,0-.14-.2c-.08,0-.08,0-.09,0s0,0,0,.07h0a0,0,0,0,1,0,0l0,0c0-.07-.07-.12-.16-.12h0a0,0,0,0,1,0,0,.17.17,0,0,1,.17.13l0,0a.09.09,0,0,0,0,0s0-.05.11-.05a.22.22,0,0,1,.16.22v.06h0Z"/><path d="M20.48,17.62h0l0,0a.09.09,0,0,0-.08-.05h0a.33.33,0,0,0-.14,0h0v0h0a.33.33,0,0,1,.15,0h0a.13.13,0,0,1,.09.05l0,0v0a.35.35,0,0,1,.3-.3,0,0,0,0,1,0,0h0a.33.33,0,0,0-.28.28v0S20.5,17.62,20.48,17.62Z"/><path d="M20.75,18.68h0s0,0,0,0,0-.05,0-.07a.16.16,0,0,1,.09-.16h0a.14.14,0,0,0-.08.14s0,0,0,.06v0Z"/><path d="M21.1,17.94h0s0,0,0,0l0,0a.22.22,0,0,0,.07-.16.31.31,0,0,0,0-.08.17.17,0,0,1,0-.12h0s0,0,0,0a.15.15,0,0,0,0,.11.19.19,0,0,1,0,.08.3.3,0,0,1-.08.18l0,0Z"/><path d="M21.82,18.51h0l-.08-.08a.7.7,0,0,0-.15-.13h0l-.11,0h0s0,0,0,0h0l0,0,.12,0h0s.07,0,.16.14l.08.07.13-.1h.15s0,0,0,0H22l-.13.1Z"/><path d="M21.9,18h0a.76.76,0,0,1,.34-.13,0,0,0,0,1,0,0h0a.66.66,0,0,0-.32.12Z"/><path d="M21.44,19h0c.06-.12.1-.13.18-.15h.1s0,0,0,0h-.1c-.09,0-.12,0-.17.14Z"/><path d="M22.27,19.08h0V19a.25.25,0,0,0-.08-.18s0,0,0,0h0a.26.26,0,0,1,.09.19v.07Z"/><path d="M22.85,18.86h0a.22.22,0,0,0-.16-.05h-.06s0,0,0,0h0a.17.17,0,0,1-.05-.12s0,0-.13-.09v0s0,0,0,0,.15.07.14.11a.14.14,0,0,0,0,.1h0l0,0s0,0,.07,0a.21.21,0,0,1,.17.06s0,0,0,0Z"/><path d="M20.48,18.32h0l0,0c-.09-.12-.2-.26-.34-.26H20s0,0,0,0h.08c.15,0,.26.15.35.26l0,.05a.29.29,0,0,1,.25-.15h0a0,0,0,0,1,0,0,.28.28,0,0,0-.24.14Z"/><path d="M19.73,23.59h0a.17.17,0,0,1,0-.09,1.92,1.92,0,0,1,.18-.59,2.81,2.81,0,0,0,.22-.85v-.17a0,0,0,0,1,0,0h0v.17a2.57,2.57,0,0,1-.23.85,2.27,2.27,0,0,0-.17.59c0,.06,0,.07,0,.07s0,0,0,0Z"/><path d="M20.72,23.65h0v-.05a.45.45,0,0,0,0-.19,1.92,1.92,0,0,0-.17-.81.3.3,0,0,1,0-.08,0,0,0,0,1,0,0h0a.94.94,0,0,1,0,.09,1.71,1.71,0,0,1,.18.81.5.5,0,0,1,0,.2v0h0Z"/><path d="M20.58,23.63h0s-.07-.12-.07-.3V23a.93.93,0,0,0,0-.29,1.07,1.07,0,0,1,0-.35V22.2c0-.15,0-.3,0-.43a2.69,2.69,0,0,1,0-.4c0-.17,0-.29,0-.41s0-.29,0-.51,0-.32,0-.48h0c0,.16,0,.32,0,.48s0,.37,0,.51,0,.24,0,.41a2.56,2.56,0,0,0,0,.39c0,.14,0,.29,0,.44v.18a1.07,1.07,0,0,0,0,.35.89.89,0,0,1,0,.29v.3c0,.21,0,.27.06.28h0a0,0,0,0,1,0,0Z"/><path d="M20.5,19.88h0c0-.06,0-.39,0-.44a1.83,1.83,0,0,1,0-.33,0,0,0,0,1,0,0h0a1.83,1.83,0,0,0,0,.33c0,.05,0,.38,0,.43s0,0,0,0Z"/><path d="M22,25.54a0,0,0,0,1,0,0V24.9a0,0,0,0,1,0,0,0,0,0,0,1,0,0v.61S22.05,25.54,22,25.54Z"/><path d="M21.36,25.26s0,0,0,0v-.67s0,0,0,0a0,0,0,0,1,0,0v.67A0,0,0,0,1,21.36,25.26Z"/><path d="M24.88,23.37s0,0,0,0l-.12-.57a.05.05,0,0,1,0,0s0,0,0,0l.11.56a0,0,0,0,1,0,0Z"/><path d="M24.52,23.45h0L24,22.77a0,0,0,0,1,0-.05s0,0,0,0l.47.67s0,0,0,.05Z"/><path d="M20.25,26.27c-1.65,0-1.8-.42-1.81-.43h0v-.29a3.38,3.38,0,0,1-3-1.21.53.53,0,0,1-.12-.44,3.49,3.49,0,0,0,.21-.54h0a.64.64,0,0,1-.34-.84,5.51,5.51,0,0,0,.28-1.27,0,0,0,0,1,0,0,0,0,0,0,1,0,0,2.06,2.06,0,0,0,.58,1l.2.24c.13.18.17.28.12.34s-.33,0-.41-.06a.22.22,0,0,0-.2-.06.27.27,0,0,0-.1.13c.47,2.14,3.27,1.57,3.3,1.57s0,0,0,0a.18.18,0,0,1,.09.21.12.12,0,0,1-.11.09c-.32,0-.46.07-.51.13a.16.16,0,0,0,0,.12.13.13,0,0,0,0,.11c.29.28,1.68.23,1.69.23s1.4.05,1.7-.23A.16.16,0,0,0,22,24.9a.16.16,0,0,0-.05-.12.73.73,0,0,0-.52-.13.14.14,0,0,1-.11-.09.19.19,0,0,1,.09-.21s0,0,0,0,2.83.57,3.29-1.57c0,0,0-.1-.09-.13a.22.22,0,0,0-.2.06c-.08,0-.34.15-.42.06s0-.16.12-.34l.21-.24a2.13,2.13,0,0,0,.57-1s0,0,0,0l0,0a5.28,5.28,0,0,0,.27,1.27.65.65,0,0,1-.33.84h0a5,5,0,0,0,.21.54c.05.09,0,.26-.11.44a3.4,3.4,0,0,1-2.95,1.21v.29h0S21.9,26.27,20.25,26.27Zm-1.74-.45s.24.38,1.74.38S22,25.86,22,25.82v-.31a0,0,0,0,1,0,0A3.36,3.36,0,0,0,25,24.3c.11-.19.14-.33.11-.38a4.36,4.36,0,0,1-.22-.57s0,0,0,0l0,0a.58.58,0,0,0,.31-.76,5.39,5.39,0,0,1-.26-1.1,2.73,2.73,0,0,1-.54.81,1.92,1.92,0,0,0-.2.23c-.15.21-.13.25-.12.25s.19,0,.32-.07a.27.27,0,0,1,.26-.06.25.25,0,0,1,.14.18h0c-.46,2.14-3.13,1.68-3.36,1.63-.05,0-.07.09-.05.13s0,.05,0,.05a.82.82,0,0,1,.57.14.23.23,0,0,1,.07.17.26.26,0,0,1-.07.16c-.32.3-1.69.25-1.75.25s-1.42.05-1.74-.25a.21.21,0,0,1-.07-.16.23.23,0,0,1,.07-.17.77.77,0,0,1,.56-.14.08.08,0,0,0,.05-.05.13.13,0,0,0-.06-.13c-.22.05-2.9.51-3.35-1.63h0a.25.25,0,0,1,.13-.18.29.29,0,0,1,.27.06c.12.06.29.11.32.07s0,0-.12-.25l-.2-.23a2.58,2.58,0,0,1-.55-.81,4.33,4.33,0,0,1-.26,1.1.58.58,0,0,0,.31.76l0,0a0,0,0,0,1,0,0,5.24,5.24,0,0,1-.23.57.54.54,0,0,0,.12.38,3.34,3.34,0,0,0,2.92,1.18s0,0,0,0Zm3.52,0Z"/><path d="M18.47,25.54a0,0,0,0,1,0,0V24.9a0,0,0,0,1,0,0,0,0,0,0,1,0,0v.61S18.49,25.54,18.47,25.54Z"/><path d="M19.15,25.26s0,0,0,0v-.67s0,0,0,0a0,0,0,0,1,0,0v.67A0,0,0,0,1,19.15,25.26Z"/><path d="M15.62,23.37h0s0,0,0,0l.12-.56s0,0,0,0,0,0,0,0l-.11.57A.05.05,0,0,1,15.62,23.37Z"/><path d="M16,23.45h0a0,0,0,0,1,0-.05l.47-.67s0,0,0,0,0,0,0,.05l-.47.67Z"/><path d="M19.65,25.47h.17a.24.24,0,0,1,.16,0,.16.16,0,0,1,.06.13.19.19,0,0,1-.05.13.24.24,0,0,1-.18.06h0V26h-.12Zm.12.25h0c.07,0,.11,0,.11-.09s0-.08-.1-.08h-.05Z"/><path d="M20.2,25.87l0,.14H20l.17-.55h.16l.17.55H20.4l0-.14Zm.14-.09,0-.12,0-.1h0s0,.07,0,.1l0,.12Z"/><path d="M20.57,25.94l.26-.37H20.6v-.11H21v.07l-.25.37H21V26h-.43Z"/><path d="M22.24,24.82l.1,0,.06.28c0,.13,0,.18-.13.2h-.08V25.2h0s.07,0,.05-.1Z"/><path d="M22.56,24.76l0,.26c0,.08,0,.11.1.1s.08-.05.07-.13l0-.25.1,0,0,.25a.19.19,0,0,1-.16.24c-.11,0-.19,0-.21-.18l0-.25Z"/><path d="M23,25a.24.24,0,0,0,.12,0c.05,0,.07,0,.06-.07s0,0-.09,0a.16.16,0,0,1-.15-.11c0-.07,0-.14.14-.17a.24.24,0,0,1,.12,0v.09a.17.17,0,0,0-.1,0,.06.06,0,0,0-.06.05s0,0,.1.05.13,0,.14.1,0,.15-.15.18a.28.28,0,0,1-.13,0Z"/><path d="M23.4,24.67l-.12,0,0-.09.33-.11,0,.08-.12,0,.13.35-.1,0Z"/><path d="M23.72,24.44l.21.4-.09.05-.21-.4Z"/><path d="M24.33,24.57a.24.24,0,0,1-.09.08.21.21,0,0,1-.32,0,.23.23,0,0,1,.06-.34.24.24,0,0,1,.11,0l0,.07-.09,0a.14.14,0,0,0,0,.21.14.14,0,0,0,.2,0,.23.23,0,0,0,.07-.07Z"/><path d="M24.21,24.09l.29.35-.08.06-.29-.34Z"/><path d="M24.6,24.19l0,.11-.07.07L24.36,24l.09-.09.42.22-.07.08-.11-.06Zm0-.13-.09,0L24.46,24h0a.59.59,0,0,0,0,.08l.05.09Z"/><path d="M16.13,24l-.15.21q-.06.11,0,.15c.05,0,.09,0,.14-.05l.15-.22.08.06-.14.21a.18.18,0,0,1-.28.06c-.09-.06-.11-.15,0-.27l.14-.21Z"/><path d="M16.19,24.61l.25-.38.1.06v.19a1.1,1.1,0,0,1,0,.18h0l.1-.17.07-.11.08.05-.25.38-.09-.06v-.2c0-.05,0-.12,0-.17h0l-.1.16-.08.12Z"/><path d="M16.93,24.53l-.21.4-.09-.05.21-.4Z"/><path d="M17,24.58l.14,0a.34.34,0,0,1,.16.11.21.21,0,0,1,0,.19.2.2,0,0,1-.13.15A.35.35,0,0,1,17,25a.34.34,0,0,1-.1,0ZM17,25l0,0a.15.15,0,0,0,.2-.1.13.13,0,0,0-.09-.19h0Z"/><path d="M17.49,25.06l0,.11h-.11l.21-.43.13,0,.08.47-.11,0,0-.12Zm.12-.06v-.1s0-.06,0-.09h0l0,.09,0,.09Z"/><path d="M17.87,24.78H18a.33.33,0,0,1,.19.05.25.25,0,0,1,.07.18.22.22,0,0,1-.08.18.28.28,0,0,1-.21.05h-.11Zm.1.37h0c.1,0,.16,0,.16-.15s-.05-.15-.14-.15H18Z"/><path class="cls-8" d="M10,20.25,4.91,27,2.56,30.12A20.34,20.34,0,0,1,1.16,27a20.22,20.22,0,0,1,0-13.5,20.34,20.34,0,0,1,1.4-3.12L4.91,13.5Z"/></g></g></svg>