<svg xmlns="http://www.w3.org/2000/svg" viewBox="0 0 40.5 40.5"><defs><style>.cls-1{fill:#0d5eaf;}.cls-2{fill:#fff;}</style></defs><g id="Ebene_2" data-name="Ebene 2"><g id="Ńëîé_1" data-name="Ńëîé 1"><path class="cls-1" d="M33,4.5H7.55C8,4.12,8.51,3.75,9,3.42a19.17,19.17,0,0,1,4.5-2.26A20.19,20.19,0,0,1,20.25,0h2.24V.14A19.81,19.81,0,0,1,33,4.5Z"/><path class="cls-2" d="M37.08,9H3.42A19.46,19.46,0,0,1,7.55,4.5H33A19.46,19.46,0,0,1,37.08,9Z"/><path class="cls-1" d="M39.34,13.5H1.16A19,19,0,0,1,3.42,9H37.08A19,19,0,0,1,39.34,13.5Z"/><path class="cls-2" d="M40.36,18H.14a19.13,19.13,0,0,1,1-4.5H39.34A19.13,19.13,0,0,1,40.36,18Z"/><path class="cls-1" d="M40.5,20.25a16.68,16.68,0,0,1-.14,2.25H0V18H40.36A16.68,16.68,0,0,1,40.5,20.25Z"/><path class="cls-2" d="M40.36,22.5a19.13,19.13,0,0,1-1,4.5H1.16a19.13,19.13,0,0,1-1-4.5Z"/><path class="cls-1" d="M39.34,27a19,19,0,0,1-2.26,4.5H3.42A19,19,0,0,1,1.16,27Z"/><path class="cls-2" d="M37.08,31.5A19.46,19.46,0,0,1,33,36H7.55a19.46,19.46,0,0,1-4.13-4.5Z"/><path class="cls-1" d="M33,36a20.17,20.17,0,0,1-25.4,0Z"/><path class="cls-1" d="M22.49,0V22.5H0V18H.14a19.13,19.13,0,0,1,1-4.5A19,19,0,0,1,3.42,9,19.46,19.46,0,0,1,7.55,4.5C8,4.12,8.51,3.75,9,3.42a19.17,19.17,0,0,1,4.5-2.26A20.19,20.19,0,0,1,20.25,0Z"/><path class="cls-2" d="M22.49,9v4.5H1.16A19,19,0,0,1,3.42,9Z"/><path class="cls-2" d="M13.5,1.16V22.5H9V3.42A19.17,19.17,0,0,1,13.5,1.16Z"/></g></g></svg>