<svg xmlns="http://www.w3.org/2000/svg" viewBox="0 0 40.5 40.5"><defs><style>.cls-1{fill:#ce1126;}.cls-2{fill:#fcd116;}.cls-3{fill:#006a4e;}</style></defs><g id="Ebene_2" data-name="Ebene 2"><g id="Ńëîé_1" data-name="Ńëîé 1"><path class="cls-1" d="M40.5,20.25a20.11,20.11,0,0,1-2.28,9.33A19,19,0,0,1,37,31.67a20.23,20.23,0,0,1-33.42,0,19,19,0,0,1-1.26-2.09,20.23,20.23,0,0,1,0-18.66A19,19,0,0,1,3.54,8.83,20.23,20.23,0,0,1,37,8.83a19,19,0,0,1,1.26,2.09A20.11,20.11,0,0,1,40.5,20.25Z"/><path class="cls-2" d="M40.5,20.25a20.11,20.11,0,0,1-2.28,9.33A19,19,0,0,1,37,31.67H3.54a19,19,0,0,1-1.26-2.09,20.23,20.23,0,0,1,0-18.66A19,19,0,0,1,3.54,8.83H37a19,19,0,0,1,1.26,2.09A20.11,20.11,0,0,1,40.5,20.25Z"/><path class="cls-3" d="M20.25,20.25,18.9,21l-2,1L2.28,29.58a20.23,20.23,0,0,1,0-18.66l14.61,7.59,1.31.67Z"/><path class="cls-3" d="M40.5,20.25a20.11,20.11,0,0,1-2.28,9.33L23.61,22l-2-1-1.35-.7,2.05-1.07,1.31-.67,14.61-7.59A20.11,20.11,0,0,1,40.5,20.25Z"/><circle class="cls-1" cx="20.25" cy="20.25" r="3.8"/><polygon class="cls-2" points="20.25 16.8 21.02 19.18 23.53 19.18 21.5 20.66 22.28 23.04 20.25 21.57 18.22 23.04 19 20.66 16.97 19.18 19.48 19.18 20.25 16.8"/><polygon class="cls-2" points="9.69 4.57 10.15 5.97 11.62 5.97 10.43 6.84 10.89 8.24 9.69 7.38 8.5 8.24 8.96 6.84 7.76 5.97 9.24 5.97 9.69 4.57"/><polygon class="cls-2" points="20.25 4.57 20.71 5.97 22.18 5.97 20.99 6.84 21.44 8.24 20.25 7.38 19.06 8.24 19.51 6.84 18.32 5.97 19.79 5.97 20.25 4.57"/><polygon class="cls-2" points="30.81 4.57 31.26 5.97 32.74 5.97 31.54 6.84 32 8.24 30.81 7.38 29.61 8.24 30.07 6.84 28.88 5.97 30.35 5.97 30.81 4.57"/><polygon class="cls-2" points="9.69 31.85 10.15 33.26 11.62 33.26 10.43 34.12 10.89 35.52 9.69 34.66 8.5 35.52 8.96 34.12 7.76 33.26 9.24 33.26 9.69 31.85"/><polygon class="cls-2" points="20.25 31.85 20.71 33.26 22.18 33.26 20.99 34.12 21.44 35.52 20.25 34.66 19.06 35.52 19.51 34.12 18.32 33.26 19.79 33.26 20.25 31.85"/><polygon class="cls-2" points="30.81 31.85 31.26 33.26 32.74 33.26 31.54 34.12 32 35.52 30.81 34.66 29.61 35.52 30.07 34.12 28.88 33.26 30.35 33.26 30.81 31.85"/><path class="cls-1" d="M4.69,19.91l-.08.31-.31-.08a1.57,1.57,0,0,0,.32,1.45,4.81,4.81,0,0,0,1.3.88A7.45,7.45,0,0,0,5.69,21,1.61,1.61,0,0,0,4.69,19.91Z"/><path class="cls-2" d="M6.47,19.57A5.6,5.6,0,0,0,3.9,17.94a5.78,5.78,0,0,1-1-.64A6,6,0,0,1,3,18.48c-.09.87-.41,2.29,0,3.07A3.15,3.15,0,0,0,5.29,23a5.13,5.13,0,0,1-.68-2.75,5,5,0,0,1,2.05,2A3,3,0,0,0,6.47,19.57Z"/></g></g></svg>