<svg viewBox="0 0 40.5 40.5" xmlns="http://www.w3.org/2000/svg"><path d="m40.5 20.25a20.11 20.11 0 0 1 -2.28 9.33 19 19 0 0 1 -1.22 2.09 20.23 20.23 0 0 1 -33.42 0 19 19 0 0 1 -1.26-2.09 20.23 20.23 0 0 1 0-18.66 19 19 0 0 1 1.22-2.09 20.23 20.23 0 0 1 33.46 0 19 19 0 0 1 1.26 2.09 20.11 20.11 0 0 1 2.24 9.33z" fill="#ce1126"/><path d="m40.5 20.25a20.11 20.11 0 0 1 -2.28 9.33 19 19 0 0 1 -1.22 2.09h-33.46a19 19 0 0 1 -1.26-2.09 20.23 20.23 0 0 1 0-18.66 19 19 0 0 1 1.26-2.09h33.46a19 19 0 0 1 1.26 2.09 20.11 20.11 0 0 1 2.24 9.33z" fill="#fcd116"/><path d="m20.25 20.25-1.35.75-2 1-14.62 7.58a20.23 20.23 0 0 1 0-18.66l14.61 7.59 1.31.67z" fill="#006a4e"/><path d="m40.5 20.25a20.11 20.11 0 0 1 -2.28 9.33l-14.61-7.58-2-1-1.35-.7 2.05-1.07 1.31-.67 14.61-7.59a20.11 20.11 0 0 1 2.27 9.28z" fill="#006a4e"/><circle cx="20.25" cy="20.25" fill="#ce1126" r="3.8"/><g fill="#fcd116"><path d="m20.25 16.8.77 2.38h2.51l-2.03 1.48.78 2.38-2.03-1.47-2.03 1.47.78-2.38-2.03-1.48h2.51z"/><path d="m9.69 4.57.46 1.4h1.47l-1.19.87.46 1.4-1.2-.86-1.19.86.46-1.4-1.2-.87h1.48z"/><path d="m20.25 4.57.46 1.4h1.47l-1.19.87.45 1.4-1.19-.86-1.19.86.45-1.4-1.19-.87h1.47z"/><path d="m30.81 4.57.45 1.4h1.48l-1.2.87.46 1.4-1.19-.86-1.2.86.46-1.4-1.19-.87h1.47z"/><path d="m9.69 31.85.46 1.41h1.47l-1.19.86.46 1.4-1.2-.86-1.19.86.46-1.4-1.2-.86h1.48z"/><path d="m20.25 31.85.46 1.41h1.47l-1.19.86.45 1.4-1.19-.86-1.19.86.45-1.4-1.19-.86h1.47z"/><path d="m30.81 31.85.45 1.41h1.48l-1.2.86.46 1.4-1.19-.86-1.2.86.46-1.4-1.19-.86h1.47z"/></g><path d="m4.69 19.91-.08.31-.31-.08a1.57 1.57 0 0 0 .32 1.45 4.81 4.81 0 0 0 1.3.88 7.45 7.45 0 0 0 -.23-1.47 1.61 1.61 0 0 0 -1-1.09z" fill="#ce1126"/><path d="m6.47 19.57a5.6 5.6 0 0 0 -2.57-1.63 5.78 5.78 0 0 1 -1-.64 6 6 0 0 1 .1 1.18c-.09.87-.41 2.29 0 3.07a3.15 3.15 0 0 0 2.29 1.45 5.13 5.13 0 0 1 -.68-2.75 5 5 0 0 1 2.05 2 3 3 0 0 0 -.19-2.68z" fill="#fcd116"/></svg>