<svg xmlns="http://www.w3.org/2000/svg" viewBox="0 0 40.5 40.5"><defs><style>.cls-1{fill:#009e49;}.cls-2{fill:#fff;}.cls-3{fill:#fcd116;}.cls-4{fill:#ce1126;}</style></defs><g id="Ebene_2" data-name="Ebene 2"><g id="Ńëîé_1" data-name="Ńëîé 1"><path class="cls-1" d="M40.5,20.25A20.25,20.25,0,0,1,3.35,31.4c-.15-.23-.31-.47-.46-.73l-.11-.19c-.16-.28-.32-.56-.48-.86a20.24,20.24,0,0,1,0-18.74c.16-.3.32-.58.48-.86l.11-.19c.15-.26.31-.5.46-.73A20.25,20.25,0,0,1,40.5,20.25Z"/><path class="cls-2" d="M40.5,20.25,3.35,31.4c-.15-.23-.31-.47-.46-.73l-.11-.19c-.16-.28-.32-.56-.48-.86a20.24,20.24,0,0,1,0-18.74c.16-.3.32-.58.48-.86l.11-.19c.15-.26.31-.5.46-.73Z"/><path class="cls-3" d="M36.9,20.25l-33.3,10-.82.24c-.16-.28-.32-.56-.48-.86a20.24,20.24,0,0,1,0-18.74c.16-.3.32-.58.48-.86l.82.24Z"/><path d="M20.25,20.25,3.6,30.24l-.71.43-.11-.19c-.16-.28-.32-.56-.48-.86a20.24,20.24,0,0,1,0-18.74c.16-.3.32-.58.48-.86l.11-.19.71.43Z"/><path class="cls-4" d="M17.91,20.25,2.3,29.62a20.24,20.24,0,0,1,0-18.74Z"/></g></g></svg>