<svg viewBox="0 0 40.5 40.5" xmlns="http://www.w3.org/2000/svg"><path d="m39.34 13.5h-38.18a20.25 20.25 0 0 1 38.18 0z" fill="#0073cf"/><path d="m40.5 20.25a20 20 0 0 1 -1.16 6.75h-38.18a20.22 20.22 0 0 1 0-13.5h38.18a20 20 0 0 1 1.16 6.75z" fill="#fff"/><g fill="#0073cf"><path d="m39.34 27a20.25 20.25 0 0 1 -38.18 0z"/><path d="m20.25 17.92.52 1.61h1.69l-1.36.99.52 1.61-1.37-.99-1.37.99.52-1.61-1.36-.99h1.69z"/><path d="m31.37 14.3.52 1.61h1.7l-1.37.99.52 1.61-1.37-.99-1.37.99.53-1.61-1.37-.99h1.69z"/><path d="m31.37 21.05.52 1.61h1.7l-1.37.99.52 1.61-1.37-.99-1.37.99.53-1.61-1.37-.99h1.69z"/><path d="m9.13 14.3-.52 1.61h-1.7l1.37.99-.52 1.61 1.37-.99 1.37.99-.53-1.61 1.37-.99h-1.69z"/><path d="m9.13 21.05-.52 1.61h-1.7l1.37.99-.52 1.61 1.37-.99 1.37.99-.53-1.61 1.37-.99h-1.69z"/></g></svg>