<svg xmlns="http://www.w3.org/2000/svg" viewBox="0 0 40.5 40.5"><defs><style>.cls-1{fill:#0073cf;}.cls-2{fill:#fff;}</style></defs><g id="Ebene_2" data-name="Ebene 2"><g id="Ńëîé_1" data-name="Ńëîé 1"><path class="cls-1" d="M39.34,13.5H1.16a20.25,20.25,0,0,1,38.18,0Z"/><path class="cls-2" d="M40.5,20.25A20,20,0,0,1,39.34,27H1.16a20.22,20.22,0,0,1,0-13.5H39.34A20,20,0,0,1,40.5,20.25Z"/><path class="cls-1" d="M39.34,27A20.25,20.25,0,0,1,1.16,27Z"/><polygon class="cls-1" points="20.25 17.92 20.77 19.53 22.46 19.53 21.1 20.52 21.62 22.13 20.25 21.14 18.88 22.13 19.4 20.52 18.04 19.53 19.73 19.53 20.25 17.92"/><polygon class="cls-1" points="31.37 14.3 31.89 15.91 33.59 15.91 32.22 16.9 32.74 18.51 31.37 17.52 30 18.51 30.53 16.9 29.16 15.91 30.85 15.91 31.37 14.3"/><polygon class="cls-1" points="31.37 21.05 31.89 22.66 33.59 22.66 32.22 23.65 32.74 25.26 31.37 24.27 30 25.26 30.53 23.65 29.16 22.66 30.85 22.66 31.37 21.05"/><polygon class="cls-1" points="9.13 14.3 8.61 15.91 6.91 15.91 8.28 16.9 7.76 18.51 9.13 17.52 10.5 18.51 9.97 16.9 11.34 15.91 9.65 15.91 9.13 14.3"/><polygon class="cls-1" points="9.13 21.05 8.61 22.66 6.91 22.66 8.28 23.65 7.76 25.26 9.13 24.27 10.5 25.26 9.97 23.65 11.34 22.66 9.65 22.66 9.13 21.05"/></g></g></svg>