<svg xmlns="http://www.w3.org/2000/svg" viewBox="0 0 40.5 40.5"><defs><style>.cls-1{fill:red;}.cls-2{fill:#fff;}.cls-3{fill:#171796;}.cls-4{fill:#f7db17;}.cls-5{fill:#0093dd;}.cls-6{fill:#231f00;}</style></defs><g id="Ebene_2" data-name="Ebene 2"><g id="Ńëîé_1" data-name="Ńëîé 1"><path class="cls-1" d="M39.34,13.5H1.16a20.25,20.25,0,0,1,38.18,0Z"/><path class="cls-2" d="M40.5,20.25A19.82,19.82,0,0,1,39.34,27H1.16a20.22,20.22,0,0,1,0-13.5H39.34A20,20,0,0,1,40.5,20.25Z"/><path class="cls-3" d="M39.34,27A20.25,20.25,0,0,1,1.16,27Z"/><path class="cls-2" d="M28.28,7,26,7.82,24.32,6,22.17,7.19,20.25,5.62,18.33,7.19,16.18,6,14.54,7.82,12.22,7,10.81,9.23l1.85,4.18h0a18.27,18.27,0,0,1,15.13,0h0l1.84-4.18Z"/><path class="cls-3" d="M25.9,8l-1.06,4.2a19.51,19.51,0,0,0-3-.52l.35-4.31,2.13-1.22Z"/><path class="cls-4" d="M22.67,8.44h0v0l0,0,0,0a0,0,0,0,0,0,0h0V8.28h.17l.07,0,0,0a.15.15,0,0,1,0,.07h0a0,0,0,0,1,0,0l-.09,0h0Z"/><path d="M22.75,8.48h0l0,0h0v0h0l0,0h0l0,0a.05.05,0,0,1,0,0h.17l.08,0,0,0a.19.19,0,0,1,0,.08v0s0,0,0,0l-.1,0Zm-.06-.19H22.6s0,0,0,0v0h0s0,0,0,0h0l0,0h0a0,0,0,0,1,0,0h0l0,0h0l.09,0h0a.15.15,0,0,0,0-.07h0l-.06,0h-.07Z"/><path class="cls-4" d="M25,9.39a.14.14,0,0,1-.13.06.08.08,0,0,1,0,.07h0s0,0,0,0a0,0,0,0,1,0,0H24.8s0,0-.06,0a.11.11,0,0,1-.09,0,.2.2,0,0,0,0,.08s0,0,0,0h-.07s0,0,0,0a.21.21,0,0,1,0,.08h0l0,0a0,0,0,0,1,0,0s0,0,0,0h0a.09.09,0,0,1,0,.07.07.07,0,0,1-.06,0,.08.08,0,0,1,0,.08l0,0s0,0,0,.06,0,0,0,.05h0l0,0s-.06,0-.1.06a.22.22,0,0,0-.06.07l-.19.23s0,.05-.07.05h0a.07.07,0,0,1,0,.05.07.07,0,0,1,0,.06.32.32,0,0,1-.15.06h-.06a.1.1,0,0,1-.05,0v0h0s0,0,0,0h-.08s0,0,0,0h0a.1.1,0,0,0,.1,0l0,0a.2.2,0,0,1,0-.08l.06,0a.32.32,0,0,0,.14-.14.41.41,0,0,0,0-.09.07.07,0,0,1,0-.06v0h0l0,0s-.05,0-.06,0a.07.07,0,0,0-.06,0H24l-.07.07,0,0-.05,0a.32.32,0,0,0-.12.11,1.11,1.11,0,0,0-.07.16,0,0,0,0,1,0,0h-.09l0,0s0,0,0,0h-.18a.08.08,0,0,1-.05-.07.05.05,0,0,1,0-.05.09.09,0,0,0,.07,0v0l0,0a.39.39,0,0,1,.1-.08.2.2,0,0,0,.1-.08s0,0,0-.05a.47.47,0,0,0,.06-.09v0a.29.29,0,0,1,0-.16l-.07,0s-.05,0-.06,0a.06.06,0,0,1,0,0l0,0h0a0,0,0,0,0,0,0h-.12a.06.06,0,0,1-.06,0s0,0,0,.05,0,0,0,0v0s0,0,0,0,0,.05,0,.08,0,0,0,.07,0,0,0,0a0,0,0,0,1,0,0s0,0,0,0-.07.06-.07.1h0v0a.09.09,0,0,1,0,.06l-.05,0H22.9l0,0s0,0,0,0h0a.05.05,0,0,1,0,0h0s0,0,0,0l0,0,0,0s0,0,0,0a.38.38,0,0,0,0-.1s0,0,0-.06v0h0s0,0,0-.07,0-.05,0-.08a.19.19,0,0,0,0-.08.19.19,0,0,1,0-.07v0H23s0,0,0,0l0,0a.1.1,0,0,0,0,.07s-.07.07-.08.11,0,.05,0,.07,0,.05,0,.06l0,0,0,0v0s0,0,0,.06h0a.23.23,0,0,1-.11,0,.13.13,0,0,1-.1,0,.06.06,0,0,1,0-.06,0,0,0,0,1-.06,0s0,0,0,0h0l.11-.05h0a.27.27,0,0,0,.07-.08.1.1,0,0,1,0-.09v-.05l0,0,0-.09s0-.06,0-.08,0,0,0,0l0,0a0,0,0,0,0,0,0h0v0s0,0,0,0,0,0,0,0l0,0v0a0,0,0,0,0,0,0h0v0l0,0a.14.14,0,0,1,0-.06h-.07a0,0,0,0,1,0,0l0,0,.06-.07a.09.09,0,0,0,0-.07v0h0l.05-.05h0v0h0a0,0,0,0,1,0,0h0s0,0,0,0v0h-.06l0,0s0,0,0,0h0V9l0,0a.11.11,0,0,0,0-.08h-.05l0,0h-.06s0,0,0,0h0v0l0,0h0a0,0,0,0,1,0,0l0,0,0,0a.39.39,0,0,1,.08-.1l0,0s0,0,0,0a.16.16,0,0,1,0-.07.07.07,0,0,1,.07,0l0,0a1.1,1.1,0,0,1,.44-.23,1,1,0,0,1,.24,0h.15a.38.38,0,0,1,.13.06l.19.1.12.07a.73.73,0,0,0,.3.05.18.18,0,0,0,.1,0,.33.33,0,0,1-.13.07h0A.88.88,0,0,1,24,8.41l-.06,0-.26-.1a1,1,0,0,1,.29.19,2.34,2.34,0,0,0,.31.24.9.9,0,0,0,.4.09h.09a.52.52,0,0,1-.25.07h-.13a.42.42,0,0,1-.12,0A.94.94,0,0,1,24,8.67l-.15-.12a.68.68,0,0,0-.62-.09h.13l0,0h0l.13,0h0s0,0,0,0l-.05,0,0,0h-.09a.1.1,0,0,1-.07,0l0,0,0,0s0,.06,0,.08h0a0,0,0,0,1,0,0v.07l0,0s0,0,0,.06,0,0,0,0l.06,0a.16.16,0,0,1,0,.07s0,0,0,0l0,0a0,0,0,0,1,0,0l.06.06h0a.48.48,0,0,1,.33.08l.05,0s.1,0,.15,0l.12,0a.26.26,0,0,1,.15,0s.08.08.13.09a.51.51,0,0,0,.17,0s.08,0,.13,0a.25.25,0,0,0,.12,0l.05,0a0,0,0,0,1,.06,0A.07.07,0,0,1,25,9.39Z"/><path class="cls-1" d="M23.54,10.8h-.18a.08.08,0,0,1-.05-.07.05.05,0,0,1,0-.05.09.09,0,0,0,.07,0v0h0l.1,0h.05l0,0S23.55,10.79,23.54,10.8Z"/><path class="cls-1" d="M22.78,10.56h0a.23.23,0,0,1-.11,0,.13.13,0,0,1-.1,0,.06.06,0,0,1,0-.06,0,0,0,0,1-.06,0s0,0,0,0h0l.11-.05h0l0,0,.06,0h.05v0S22.79,10.54,22.78,10.56Z"/><path class="cls-1" d="M23,10.74a.09.09,0,0,1,0,.06l-.05,0H22.9l0,0s0,0,0,0h0a.05.05,0,0,1,0,0h0s0,0,0,0l0,0h0l.1,0H23Z"/><path class="cls-1" d="M24.11,10.89a.07.07,0,0,1,0,.06.32.32,0,0,1-.15.06h-.06a.1.1,0,0,1-.05,0v0h0s0,0,0,0h-.08s0,0,0,0h0a.1.1,0,0,0,.1,0h0l.15,0h0A.07.07,0,0,1,24.11,10.89Z"/><path class="cls-1" d="M24.76,8.79a.52.52,0,0,1-.25.07h-.13a.42.42,0,0,1-.12,0A.94.94,0,0,1,24,8.67l-.15-.12a.68.68,0,0,0-.62-.09l-.15,0-.18,0h0v0h0a1.1,1.1,0,0,1,.44-.23,1,1,0,0,1,.24,0h.15a.38.38,0,0,1,.13.06l.19.1.12.07a.73.73,0,0,0,.3.05.18.18,0,0,0,.1,0,.33.33,0,0,1-.13.07h0A.88.88,0,0,1,24,8.41l-.06,0-.26-.1a1,1,0,0,1,.29.19,2.34,2.34,0,0,0,.31.24.9.9,0,0,0,.4.09Z"/><path d="M23.9,11h0a.08.08,0,0,1-.06,0v0h0a0,0,0,0,0,0,0h-.08v0a0,0,0,0,1,0,0h0a.1.1,0,0,0,.09,0s0,0,0,0v0l0-.06,0,0h0a.32.32,0,0,0,.14-.14h0s0,0,0-.08a.07.07,0,0,1,0-.06h0s0,0,0,0h0s0,0,0,0H24l0,0,0,0h0l0,0h0a.25.25,0,0,0-.12.11.51.51,0,0,0-.07.15s0,0,0,0h-.07l0,0s0,0,0,.05h-.18a.09.09,0,0,1-.06-.07l0,0a.06.06,0,0,1,0,0h.08l0,0,.1-.07h0a.23.23,0,0,0,.09-.08v0l0,0,0,0v0a.32.32,0,0,1,0-.14h-.06a0,0,0,0,1-.07,0v0h0s0,0-.05,0h-.18s0,0,0,0h0l0,0h0v0a.05.05,0,0,1,0,0v0s0,0,0,0a0,0,0,0,0,0,0s0,0,0,0l0,0v0s0,0,0,0v0h0s0,0,0,0h0a.13.13,0,0,1,0,.06l0,0h0v0a.09.09,0,0,1,0,.06l-.06,0H22.9a.06.06,0,0,1-.06,0s0,0,0,0h0a.05.05,0,0,1-.05,0v0h0l0,0h0l0,0,0-.05s0,0,0,0a.08.08,0,0,0,0-.05.43.43,0,0,0,0,0l0,0s0,0,0,0h0v0h0s0,0,0,0v0a.09.09,0,0,1,0-.06l0,0a.22.22,0,0,0,0-.08v0a.43.43,0,0,0,0-.05h0v0H23v0l0,0h0s0,0,0,0v0s0,0,0,.06l0,0a.09.09,0,0,0,0,.05v0a.1.1,0,0,1,0,.07l0,0h0l0,0v0h0s0,0,0,.05v0h0a.35.35,0,0,1-.11,0,.12.12,0,0,1-.1,0s0,0,0-.05h0l-.05,0a0,0,0,0,1,0,0h0l.12-.05h0s.05,0,.06-.07a.12.12,0,0,1,0-.1h0v0h0l0,0h0l0-.08s0-.05,0-.07h0s0,0,0,0,0,0,0,0h0s0,0,0,0h0s0,0,0,0h0l0,0h0l0,0s0,0,0,0h0s0,0,0,0v0h0s0,0,0,0l0,0a.14.14,0,0,1,0-.06h0l0,0a0,0,0,0,1,0,0l0,0h0l0,0a.16.16,0,0,0,0-.07v0l.06,0h0v0h0s0,0,0,0l0,0h0s0,0,0,0v0h-.05v0a.08.08,0,0,1,0,0h0s0,0,0,0h0s0,0,0,0v0h0a.07.07,0,0,0,0-.06h0l0,0h-.07a0,0,0,0,1,0,0h0v0h0l0,0h-.05s0,0,0-.06h0l0,0v0h0a.31.31,0,0,1,.09-.11h0l0,0s0,0,0,0h0a.2.2,0,0,1,0-.08.08.08,0,0,1,.08,0l0,0a1.07,1.07,0,0,1,.45-.23.93.93,0,0,1,.23,0h.16a.52.52,0,0,1,.13.06l.19.1,0,0,.09,0a.79.79,0,0,0,.3.05.15.15,0,0,0,.09,0h0s0,0,0,0a.25.25,0,0,1-.12.07h-.06A.74.74,0,0,1,24,8.42h0l0,0-.12-.05.16.12.06,0a1.5,1.5,0,0,0,.25.19.78.78,0,0,0,.39.09h.1s0,0,0,0a.56.56,0,0,1-.26.07h-.14l-.12,0A1.3,1.3,0,0,1,24,8.68l-.07-.06-.08-.06a.67.67,0,0,0-.53-.11h.12l.12,0h0v0s0,0,0,0h0a.1.1,0,0,0-.05,0h0l0,0h-.09a.08.08,0,0,1-.08,0l0,0h0a.11.11,0,0,0,0,.06h0a.06.06,0,0,1,0,0v.06l0,0,0,0s0,0,0,0v0l0,0h0l.05,0,0,.06h0v0h0l0,0h0s0,.05.05.06h0a.46.46,0,0,1,.32.08h0l0,0a.25.25,0,0,0,.12,0h0l.11,0h0a.36.36,0,0,1,.15,0l.06,0,.07,0a.17.17,0,0,0,.1,0l.07,0h.13a.2.2,0,0,0,.11,0H25a0,0,0,0,1,.06,0,.08.08,0,0,1,0,.07h0a.16.16,0,0,1-.13.06.1.1,0,0,1,0,.07h0s0,0,0,0a.08.08,0,0,1,0,0H24.8l0,0h0s0,0-.08,0a.16.16,0,0,0,0,.07s0,0,0,0h-.07v0h0a.14.14,0,0,1,0,.09h0l0,0a0,0,0,0,1,0,0h0a.12.12,0,0,1,0,.08.06.06,0,0,1-.06,0,.11.11,0,0,1,0,.08h0v0s0,0,0,0h0a0,0,0,0,1,0,.05,0,0,0,0,1,0,0h0s0,0,0,0h0l-.07,0,0,0a.17.17,0,0,0-.06.06h0a1.81,1.81,0,0,1-.18.23.17.17,0,0,1-.06.06.05.05,0,0,1,0,0,.09.09,0,0,1,0,.07.23.23,0,0,1-.15,0ZM23.83,11h0l0,0h.06a.25.25,0,0,0,.14,0,.09.09,0,0,0,0-.06s0,0,0,0h0s0,0,.06-.05l.19-.23h0s0,0,.07-.06l0,0a.1.1,0,0,0,0,0h0l0,0h0v0h0a0,0,0,0,1,0-.05.08.08,0,0,1,0,0h0a.24.24,0,0,0,0-.08h0a.05.05,0,0,0,0,0,.2.2,0,0,0,0-.07h0s0,0,0,0h0v0h0s0,0,0,0,0,0,0-.07h0s0,0,0,0h.07v0a.3.3,0,0,1,0-.08h0s.07,0,.08,0h0l0,0h.05a0,0,0,0,0,0,0l0,0v0h0v0a.07.07,0,0,0,0-.06h0a.14.14,0,0,0,.11,0h0a.43.43,0,0,0,0-.05h-.1a.27.27,0,0,1-.13,0h-.12l-.07,0a.16.16,0,0,1-.1,0l-.09-.05a.1.1,0,0,0,0,0,.32.32,0,0,0-.14,0h0l-.1,0h0s-.08,0-.12,0l0,0h0a.55.55,0,0,0-.31-.07h-.06l-.06-.07h0s0,0,0,0h0v0h0s0,0,0-.06l0,0h0l0,0a0,0,0,0,1,0,0,0,0,0,0,0,0,0h0l0,0V8.75a0,0,0,0,0,0,0h0v0h0s0-.07,0-.07l0,0h0s.05,0,.06,0h.1s0,0,0,0h0l.05,0h0l-.13,0h-.19a.68.68,0,0,1,.62.09l.08.07.08.06a1,1,0,0,0,.27.14l.12,0h.13a.65.65,0,0,0,.2,0h0a.82.82,0,0,1-.4-.09A1,1,0,0,1,24,8.53l-.06,0a1,1,0,0,0-.29-.19h0l.26.1.05,0h0a.76.76,0,0,0,.36.06h0l.07,0h0a.82.82,0,0,1-.3-.05l-.09,0,0,0-.19-.1a.31.31,0,0,0-.13-.06h-.14a1,1,0,0,0-.24,0,1.1,1.1,0,0,0-.43.22l0,0h0a.07.07,0,0,0-.07,0,.33.33,0,0,0,0,.06h0a0,0,0,0,1,0,0s0,0,0,0h0a.2.2,0,0,0-.08.1h0v0l0,0v0s0,0,0,0h0s0,0,0,0h0l0,0h.12a0,0,0,0,1,.06,0h0a.14.14,0,0,1,0,.09h0V9h0s0,0,0,0h0s0,0,0,0h0a.08.08,0,0,1,0,0,0,0,0,0,1,0,0h0v0h0l-.06.05h0a.09.09,0,0,1,0,.07s0,0,0,.06l0,0v0s0,0,0,0h.07v0a.14.14,0,0,0,0,.06h0l0,0v0h0a0,0,0,0,1,0,0h0v0a0,0,0,0,1,0,0h0s0,0,0,0h0a0,0,0,0,1,0,.06h0v0h0s0,.06,0,.08l0,.09h0s0,0,0,0h0v0h0a.1.1,0,0,0,0,.08h0l-.07.08h0l-.12.05h0a0,0,0,0,0,.05,0h0a0,0,0,0,0,0,.05.12.12,0,0,0,.09,0,.17.17,0,0,0,.1,0h0a0,0,0,0,0,0,0v0a0,0,0,0,1,0,0l0-.05h0a.07.07,0,0,0,0-.06v0a0,0,0,0,1,0-.05s0,0,0-.06l0-.05v0a.08.08,0,0,1,0-.05v0h0l0,0h0a.08.08,0,0,1,.06,0v0h0a.43.43,0,0,0,0,.05v0a.28.28,0,0,1,0,.09l0,0,0,0v0a0,0,0,0,1,0,.05h0l0,.05h0s0,0,0,.05a.14.14,0,0,1,0,.06h0l0,0,0,0,0,0h0a.1.1,0,0,1-.05,0h0l0,0h.06a0,0,0,0,0,0,0l0,0H23l.05,0s0,0,0,0v0h0s0,0,0-.06l0,0h0a0,0,0,0,1,0,0h0v0h0a.08.08,0,0,1,0-.05l0,0v0a.43.43,0,0,0,0-.05h0v-.07l0,0h0s0,0,0,0h.25s0,0,0,0h0v0h.07l.05,0h0a.23.23,0,0,0,0,.14v0l0,.06s0,0,0,0v0a.28.28,0,0,1-.1.09h0l-.1.08,0,0h0a0,0,0,0,1-.06,0v0h0a.07.07,0,0,0,0,.06h.17a0,0,0,0,0,0,0l0,0h.09s0,0,0,0a1.11,1.11,0,0,1,.07-.16.29.29,0,0,1,.13-.12h0l0,0h0l0,0,0,0,0,0h0a.09.09,0,0,1,.07,0h0l0,0h0l0,0h0s0,0,0,0a.08.08,0,0,0,0,0h0a.41.41,0,0,1-.05.09h0s-.08.12-.15.14h0a.05.05,0,0,0,0,0s0,0,0,0v0l0,0a.16.16,0,0,1-.11,0h.07a.05.05,0,0,1,0,0h0ZM25,9.39Z"/><path class="cls-5" d="M29.5,9.24l-.64,1.45-.11.26-.44,1-.13.28-.43,1c-.92-.41-2.91-1-2.91-1l.27-1.05.07-.29.27-1.07.07-.26L25.9,8l2.31-.85Z"/><path class="cls-3" d="M18.7,11.69a19.64,19.64,0,0,0-3,.52l-.27-1.07-.26-1L14.59,8l1.62-1.85,2.13,1.22.18,2.16.09,1.07Z"/><path class="cls-5" d="M20.25,5.82,18.34,7.38l.36,4.31c.52,0,1-.07,1.55-.07s1,0,1.55.07l.35-4.31Z"/><path class="cls-5" d="M11,9.24l1.74,4c.93-.41,2.91-1,2.91-1L14.59,8l-2.3-.85Z"/><polygon class="cls-4" points="27.97 7.87 28.05 8.29 28.45 8.43 28.13 8.7 28.2 9.12 27.81 8.98 27.49 9.25 27.41 8.84 27.01 8.7 27.33 8.42 27.25 8.01 27.65 8.15 27.97 7.87"/><path class="cls-6" d="M27.48,9.27l-.08-.43L27,8.7l.33-.28L27.24,8h0l.4.14L28,7.85l.08.43.4.14-.32.28.08.43h0L27.81,9ZM27,8.69l.39.14h0l.07.39L27.8,9h0l.38.13-.08-.4.31-.27L28,8.29,28,7.89l-.31.27h0L27.26,8l.08.41Z"/><polygon class="cls-6" points="27.8 8.98 27.64 8.15 27.65 8.15 27.81 8.97 27.8 8.98"/><polygon class="cls-6" points="28.2 9.12 27.25 8.01 27.25 8.01 28.21 9.11 28.2 9.12"/><polygon class="cls-6" points="27.49 9.25 27.48 9.25 27.96 7.87 27.97 7.87 27.49 9.25"/><rect class="cls-6" x="27.72" y="8.14" width="0.01" height="0.84" transform="translate(10.51 31.92) rotate(-70.76)"/><polygon class="cls-6" points="27.41 8.84 27.41 8.83 28.04 8.28 28.05 8.29 27.41 8.84"/><polygon class="cls-6" points="27.01 8.7 27.01 8.69 28.44 8.42 28.45 8.43 27.01 8.7"/><path class="cls-2" d="M28.86,10.69l-.11.26-.44,1-.13.28a21,21,0,0,0-3.07-1.06l.07-.29.27-1.07.07-.26h0A14.93,14.93,0,0,1,28.86,10.69Z"/><polygon class="cls-4" points="12.7 8.38 12.62 8.8 12.22 8.94 12.54 9.21 12.47 9.62 12.86 9.48 13.18 9.76 13.26 9.35 13.66 9.21 13.34 8.93 13.42 8.52 13.02 8.66 12.7 8.38"/><path class="cls-6" d="M12.86,9.5l-.39.13h0l.08-.43-.32-.28.4-.14.08-.43.33.29.4-.14h0l-.08.43.33.28-.41.14-.08.43Zm.47-.56.08-.41L13,8.67h0l-.31-.27-.08.4-.38.14.31.27-.08.4.38-.13h0l.31.27.07-.4h0l.39-.14Z"/><polygon class="cls-6" points="12.87 9.49 13.03 8.66 13.02 8.66 12.86 9.48 12.87 9.49"/><polygon class="cls-6" points="12.47 9.63 13.42 8.52 13.41 8.52 12.46 9.62 12.47 9.63"/><polygon class="cls-6" points="13.18 9.76 13.19 9.76 12.71 8.38 12.7 8.38 13.18 9.76"/><polygon class="cls-6" points="12.55 9.21 13.34 8.94 13.34 8.93 12.54 9.21 12.55 9.21"/><rect class="cls-6" x="12.94" y="8.65" width="0.01" height="0.84" transform="translate(-2.4 12.85) rotate(-48.87)"/><polygon class="cls-6" points="13.66 9.21 13.66 9.2 12.23 8.93 12.22 8.94 13.66 9.21"/><path class="cls-1" d="M28.75,11l-.44,1a20.61,20.61,0,0,0-3.13-1.07l.27-1.07A26.24,26.24,0,0,1,28.75,11Z"/><path class="cls-1" d="M14.59,8a21.15,21.15,0,0,1,3.75-.63l.1,1.07a21,21,0,0,0-3.58.6Z"/><path class="cls-1" d="M18.61,10.61a20.59,20.59,0,0,0-3.23.53l-.26-1a21.08,21.08,0,0,1,3.4-.56Z"/><path class="cls-2" d="M14.45,10a1,1,0,0,1,0,.24,1.13,1.13,0,0,1-2.16.47,1.14,1.14,0,0,0,2.27-.16A1.12,1.12,0,0,0,14.45,10Z"/><path d="M13.45,11.73a1.16,1.16,0,0,1-1.14-1h0a1.12,1.12,0,0,0,2.14-.46,1,1,0,0,0,0-.24h0a1.18,1.18,0,0,1,.14.55A1.15,1.15,0,0,1,13.45,11.73Zm-1.1-.93a1.13,1.13,0,0,0,2.23-.22,1.12,1.12,0,0,0-.1-.48,1,1,0,0,1,0,.17,1.13,1.13,0,0,1-2.14.53Z"/><path d="M26.31,10.42h-.1l0,0,0,0,0,0h0s0,0,0,0l0,0a0,0,0,0,0,0,0h0a.1.1,0,0,0-.07,0h0l0,0,0,0-.08,0a0,0,0,0,0,0,0h-.06v0h0a.07.07,0,0,1-.06,0h-.15v0l0,0,0,0h0s0,0,0,0h.13s0,0,0,0h0l0,0a.05.05,0,0,1,0,0h0l0,0s0,0,0,0v0h-.37l0,0a0,0,0,0,0,0,0h0l0,0s0,0,.07,0l0,0h.41l0,0h.09l0,0,0,0h0a.15.15,0,0,0-.07,0h-.13a.12.12,0,0,0-.1,0h0s0,0,0,0h0l0,0h.07a.11.11,0,0,0,.07,0h0l0,0h.35a.18.18,0,0,1,.12,0h.06l.06,0A.3.3,0,0,0,27,11l-.06.05a.11.11,0,0,1-.1,0h-.1s0,0,0,0l0,0h0v0h0l0,0h0a0,0,0,0,0,0,0h0a.15.15,0,0,1,.09,0h.16s0,0,0,0l0,0h.08l0,0,.12,0a.26.26,0,0,1,.09.05l.05,0a.34.34,0,0,0,.09.08l.08,0a.11.11,0,0,0,0,.08,0,0,0,0,1,0,0H27.7a0,0,0,0,0,0,0v0s0,0,0,0h0s0,0,0,0h0a.41.41,0,0,0,.11-.07h0s0,0,0-.05l0,0a.09.09,0,0,1,0-.05l0-.07a.06.06,0,0,0,0,0s-.05,0-.07,0a.12.12,0,0,1-.09-.12V11l0-.05h.08l0,0,.06,0,.06,0a.39.39,0,0,0,.14.08h0a0,0,0,0,1,0,0l.08,0h.05l.1,0a.08.08,0,0,0,.07,0s0,0,0-.06a.12.12,0,0,0-.06-.06.78.78,0,0,0-.21-.09l-.1,0h-.2l-.18,0h0l0,0-.08,0a.44.44,0,0,0-.16-.06H27.2a1.1,1.1,0,0,1-.18,0l-.16,0h-.08l-.08,0h-.06l-.05,0-.1-.05-.06,0-.06,0Z"/><path class="cls-2" d="M26.85,10.87l.14,0s.09,0,.12,0l0,0,.08.08a.2.2,0,0,1-.11,0h-.16l-.05,0-.08,0h-.09s0,0,0,0A.16.16,0,0,1,26.85,10.87Z"/><path d="M20.73,9.67h0l0,0a0,0,0,0,1,0,0s0,0,.05,0h0v0h0S20.74,9.67,20.73,9.67Zm0-.08,0,0s0,0,0,0h0s0,0,0,0h0a0,0,0,0,0,0,0Z"/><path class="cls-4" d="M20.85,10.41c0-.12-.1-.12-.1-.12a.22.22,0,0,0,.18-.16h-.16a.39.39,0,0,0,.13-.31l-.08,0a.31.31,0,0,0-.13,0l0,0,.06-.13.14-.26a.53.53,0,0,1-.18.07.13.13,0,0,0,0,.07c-.11-.08-.17.07-.17.07s-.07-.1-.07-.1,0-.07,0-.07a1.08,1.08,0,0,0-.14-.15,1.16,1.16,0,0,0-.13.15s-.07,0,0,.07-.07,0-.07.1-.07-.15-.18-.07a.09.09,0,0,0,0-.07.53.53,0,0,1-.18-.07l.14.26,0,.13v0a.31.31,0,0,0-.13,0,.2.2,0,0,1-.08,0,.39.39,0,0,0,.13.31h-.17a.25.25,0,0,0,.19.16s-.08,0-.1.12a.12.12,0,0,1,0,.09s.07.07.21,0a.24.24,0,0,0-.07.19.18.18,0,0,0,.14,0,.14.14,0,0,0,0,.1.26.26,0,0,1,0,.07.21.21,0,0,0,.2,0A.38.38,0,0,0,20,11a.56.56,0,0,1,.13-.11l.06.07a.11.11,0,0,1,0,.07c.06,0,.12-.12.12-.12a.3.3,0,0,1,.1.09.38.38,0,0,0,0-.18c.06.08.19,0,.19,0l0-.07a.14.14,0,0,0,0-.1.18.18,0,0,0,.14,0,.24.24,0,0,0-.07-.19c.14.07.21,0,.21,0A.12.12,0,0,1,20.85,10.41Z"/><path d="M20.24,11h0v0l0,0-.05-.07A.72.72,0,0,0,20,11h0a.44.44,0,0,1,0-.15.24.24,0,0,1-.18,0h0l0-.06s0-.06,0-.07a.28.28,0,0,1-.12,0h0a.27.27,0,0,1,0-.17.2.2,0,0,1-.18,0h0s0-.08,0-.08a.16.16,0,0,1,.07-.12.3.3,0,0,1-.16-.16h.16a.42.42,0,0,1-.12-.3h0a.13.13,0,0,0,.07,0,.27.27,0,0,1,.13,0v0l-.05-.13-.14-.26h0a.33.33,0,0,0,.14.06h0a.06.06,0,0,1,0,.06.12.12,0,0,1,.08,0,.17.17,0,0,1,.08.06.08.08,0,0,1,0-.07h0v0a0,0,0,0,1,0,0l.14-.15h0l.14.15a0,0,0,0,1,0,0v0h0a.11.11,0,0,1,0,.07.17.17,0,0,1,.08-.06.12.12,0,0,1,.08,0,.06.06,0,0,1,0-.06h0a.39.39,0,0,0,.14-.06h0l-.14.27-.06.12v0a.27.27,0,0,1,.13,0,.13.13,0,0,0,.07,0h0a.42.42,0,0,1-.12.3h.15a.23.23,0,0,1-.16.16.14.14,0,0,1,.08.12h0s0,.06,0,.08h0a.21.21,0,0,1-.18,0,.27.27,0,0,1,0,.17h0a.28.28,0,0,1-.12,0,.56.56,0,0,1,0,.07h0a.39.39,0,0,0,0,.06h0a.24.24,0,0,1-.18,0,.44.44,0,0,1,0,.15h0a.32.32,0,0,0-.09-.09.31.31,0,0,1-.11.12Zm-.08-.16h0l.06.08a.08.08,0,0,1,0,.05h0a.28.28,0,0,0,.1-.12h0a.36.36,0,0,1,.09.08.32.32,0,0,0,0-.15s0,0,0,0h0a.16.16,0,0,0,.17,0l0-.06c0-.07,0-.09,0-.09s0,0,0,0h0a.21.21,0,0,0,.13,0,.2.2,0,0,0-.07-.17v0h0a.2.2,0,0,0,.19,0,.13.13,0,0,1,0-.09c0-.11-.09-.11-.09-.11h0s0,0,0,0h0a.22.22,0,0,0,.18-.15h-.15s0,0,0,0h0a.39.39,0,0,0,.13-.28l-.06,0h0a.31.31,0,0,0-.13,0h0l0,0h0l.06-.13.12-.23-.11,0h0s0,.06,0,.06h0a.08.08,0,0,0-.08,0c-.05,0-.08.08-.08.08h0c0-.06,0-.08,0-.09H20.4s0,0,0-.05h0l-.13-.14a1.49,1.49,0,0,0-.12.14h0s0,0,0,.05H20s0,0,0,.09h0s0-.07-.08-.08a.08.08,0,0,0-.08,0h0s0-.05,0-.06h0l-.11,0,.12.23.05.13h0v0h0a.31.31,0,0,0-.13,0h0l-.06,0a.39.39,0,0,0,.13.28h0a0,0,0,0,1,0,0h-.15a.21.21,0,0,0,.17.15h0s0,0,0,0h0s-.07,0-.09.11a.13.13,0,0,1,0,.09.2.2,0,0,0,.19,0h0v0a.2.2,0,0,0-.07.17.21.21,0,0,0,.13,0h0s0,0,0,.09l0,.06a.16.16,0,0,0,.17,0h0s0,0,0,0A.32.32,0,0,0,20,11l.13-.1Z"/><path d="M20.66,9.81s0,0,0,0a0,0,0,1,1,.06,0S20.67,9.81,20.66,9.81Zm0,0s0,0,0,0a0,0,0,0,0,0,0,0,0,0,0,0,0,0S20.67,9.77,20.66,9.77Z"/><path d="M20.72,10h0c.08-.08.07-.14.07-.14h0a.15.15,0,0,1-.05.14.14.14,0,0,0,.07-.11h0a.11.11,0,0,0,.08-.1h0a.12.12,0,0,1-.08.1.13.13,0,0,1-.1.12Z"/><path d="M20.69,10.22h0s0,0,0,0l0,0,0,0,0,0h0l-.05,0h0l0,0a0,0,0,0,0,0,0Z"/><path d="M20.73,10.24h0l0,0,0,0h.08l.07,0h0a.18.18,0,0,1-.07,0h0l0,0h0l0,0Z"/><path d="M20.32,9.89h0l0,0h0s0,0,0,0Z"/><path d="M20.41,9.89h0s0,0,0,0h0Z"/><path d="M20.47,9.89Z"/><path d="M20.52,9.92h0s0,0,.06,0h0l-.07,0h0Z"/><path d="M20.6,9.94h0l0,0s0,0,0,0h0a.09.09,0,0,1,0,.05l0,0Z"/><path d="M20.32,10.1h0l.13-.07h0l-.12.07Z"/><path d="M20.33,10.17h0l0,0v-.07a.08.08,0,0,0,0,0l0-.06h0l0,.07a0,0,0,0,0,0,0v.07l0,0h.07l0,0h.09l0,0s0,0,0,0h0a0,0,0,0,1,0,0l0,0h-.09l0,0h-.07Z"/><path d="M20.36,10.24h0v0a.06.06,0,0,1,0,0h0a.06.06,0,0,0,0,0h0c.05,0,.1-.05.1-.1h0c0,.06-.05.09-.11.11h0Z"/><path d="M20.84,10.43h0a.16.16,0,0,0-.12-.06h0a.18.18,0,0,1,.13.06h0Z"/><path d="M20.85,10.52h-.06l0,0h0Z"/><path d="M20.68,10.5h0l-.06,0h0l.06,0h0Z"/><path d="M20.75,10.68h0l0,0a.21.21,0,0,0-.09-.1v0h0a.29.29,0,0,1,.09.11l0,0h0Z"/><path d="M20.74,10.69h0l0,0s0,0,0-.05h0s0,0,.06.05l0,0h0Z"/><path d="M20.47,10.8h0v0h0v0h0l0,0h0l0,0h0v0Z"/><path d="M20.62,10.84h-.08l0,0h0l0,0h.07Z"/><path d="M20.65,10.84h0l-.05,0h0v0h0a.06.06,0,0,0,0,0h0s0,0,0,.05h0v0h0l0,0h0Z"/><path d="M20.34,10.91h0v0h0v0h0v0h0Z"/><path d="M20.39,10.9h0v0h0v0h0v0h0v0h0v0h0v0h0Z"/><path d="M20.42,10.93h0a.31.31,0,0,1,0-.09v0h0v0s0,.07,0,.09h0Z"/><path d="M20.31,10.59h0l.07,0,.05,0h0l-.06,0-.07,0Z"/><path d="M20.32,10.63h0l.08,0h0l-.07,0Z"/><path d="M20.47,10.16a0,0,0,0,1-.08,0,0,0,0,0,1,.08,0A0,0,0,0,1,20.47,10.16Z"/><path d="M20.24,9.6h0l0-.08h0l0-.08h0l.05.08h0l-.05.08Zm0-.08,0,.06,0-.06,0-.06Z"/><path d="M20.32,10.69h-.05l0,0h0l0,0h0Z"/><path d="M20.26,10.72h0Z"/><path d="M20.71,9.75h0a3.38,3.38,0,0,0-.46,0h0a3.38,3.38,0,0,0-.46,0h0a2.86,2.86,0,0,1,.46,0h0a2.86,2.86,0,0,1,.46,0h0Z"/><path d="M19.78,9.75h0l0,0a0,0,0,0,1,0,0h0a4.19,4.19,0,0,1,.48,0h0a4,4,0,0,1,.47,0h0a0,0,0,0,1,0,0l0,0h0a2.5,2.5,0,0,0-.47,0h0a2.5,2.5,0,0,0-.47,0h0Z"/><path d="M19.76,9.67l0,0v0h0s0,0,.05,0,0,.05,0,.06Zm0-.08h0a0,0,0,0,0,0,0h0s0,0,0,0a0,0,0,0,0,0,0Z"/><path d="M19.83,9.81s0,0,0,0a0,0,0,0,1,0,0s0,0,0,0A0,0,0,0,1,19.83,9.81Zm0,0s0,0,0,0a0,0,0,0,0,0,0,0,0,0,0,0,0,0S19.84,9.77,19.83,9.77Z"/><path d="M20.68,9.84h0c-.2,0-.43,0-.43,0h0s-.24,0-.43,0h0a2.6,2.6,0,0,1,.43,0h0a2.6,2.6,0,0,1,.43,0Z"/><path d="M19.82,9.88h0v0h0a2.34,2.34,0,0,1,.41,0h0a2.36,2.36,0,0,1,.41,0h0v0h0a2.34,2.34,0,0,0-.41,0h0a2.34,2.34,0,0,0-.41,0Z"/><path d="M19.77,10h0a.13.13,0,0,1-.1-.12.12.12,0,0,1-.08-.1h0a.12.12,0,0,0,.07.1h0a.14.14,0,0,0,.07.11.15.15,0,0,1-.05-.14h0s0,.06.07.14h0Z"/><path d="M19.8,10.22h0s0,0,0,0l0,0h0l0,0h0l.06,0,0,0,0,0s0,0,0,0Z"/><path d="M19.76,10.24h0l0,0h0l-.05,0h0a.13.13,0,0,1-.07,0h0a.14.14,0,0,0,.07,0h.08v0l0,0Z"/><path d="M20.17,9.89h0l0,0h0l0,0Z"/><path d="M20.08,9.89h0l0,0h0Z"/><polygon points="20.01 9.89 20.01 9.89 20 9.88 19.99 9.87 19.99 9.87 19.98 9.86 19.98 9.85 19.99 9.85 20 9.86 20 9.86 20.01 9.87 20.02 9.88 20.02 9.89 20.01 9.89"/><path d="M20,9.92h0s0,0-.06,0h0s.05,0,.06,0h0Z"/><path d="M19.89,9.94h0l0,0a.09.09,0,0,1,0-.05h0s0,0,0,0l0,0Z"/><path d="M20.19,10.09h0L20.07,10h0l.13.07h0Z"/><path d="M20.19,10.18h-.05l0,0H20l0,0h0l0,0h.08l0,0h0l0,0h.06a0,0,0,0,0,0,0h0v-.06a0,0,0,0,0,0,0l0-.06h0l0,.07a0,0,0,0,0,0,0v.08l0,0Z"/><path d="M20.16,10.24h0c-.06,0-.11-.05-.11-.11v0h0c0,.05.05.07.1.09l0,0h0s0,0,0,0h0a.09.09,0,0,1,0,.05v0Zm0,0Z"/><path d="M19.64,10.43h0a.18.18,0,0,1,.13-.06h0a.16.16,0,0,0-.13.06Z"/><path d="M19.64,10.52h0l0,0h-.06Z"/><path d="M19.81,10.5h0l.07,0h0l-.06,0h0Z"/><path d="M19.74,10.68h0l0,0a.29.29,0,0,1,.09-.11h0a.25.25,0,0,0-.08.1l0,0Z"/><path d="M19.75,10.69h0l0,0s0,0,0-.05h0l-.05.05,0,0Z"/><path d="M20,10.8h0v0h0l0,0h0v0h0v0Z"/><path d="M19.87,10.84h.07l0,0h0l0,0h-.08Z"/><path d="M19.83,10.84h0l.05,0h0v0h0s0,0,0-.05h0a.06.06,0,0,0,0,0h0v0h0l0,0h0Z"/><path d="M20.1,10.9h0v0h0v0h0v0h0v0h0v0h0s0,0,0,0Z"/><path d="M20.07,10.93h0V10.8h0v0a.31.31,0,0,1,0,.09h0Z"/><path d="M20.18,10.59h0l-.07,0-.06,0h0l.05,0,.07,0Z"/><path d="M20.17,10.63h0l-.07,0h0l.07,0h0Z"/><path d="M20.05,10.17a0,0,0,0,0,.08,0,0,0,0,1,0-.08,0Z"/><path d="M20.17,10.69h0l0,0h0l0,0h0Z"/><path d="M20.23,10.72h0Z"/><path d="M20.16,10.32h0l0,0a.12.12,0,0,1,0,0h0l0,0,0,0Z"/><path d="M20.27,10.54h-.11l0,0v-.08h0v.06h.17l0,0a0,0,0,0,0,0,0s0,0,0,0h0s0,0,0,0,0,0,0,0l0,0h-.06Z"/><polygon points="20.24 10.66 20.24 10.65 20.24 10.54 20.24 10.53 20.25 10.54 20.25 10.65 20.24 10.66"/><path d="M20.13,10.87h0v0s0,0,0,0h0s0,0,0,0v0Z"/><path d="M20.18,10.88h0v0a.09.09,0,0,1,0-.05h0s0,0,0,0v0h0Z"/><path d="M20.25,11h0v0a.21.21,0,0,0,0-.08.19.19,0,0,0,0-.08h0a.16.16,0,0,1,0,.09s0,.06,0,.09v0Z"/><path d="M19.87,10.32Z"/><path d="M21.61,7.75h0s0,0,0,0a0,0,0,0,1,0,0s0,0,.05,0v0s0,0,0,0h0A.05.05,0,0,1,21.61,7.75Zm0-.08s0,0,0,0v0a0,0,0,0,0,0,0h0a0,0,0,0,0,0,0Z"/><path class="cls-4" d="M21.71,8.5c0-.13-.1-.13-.1-.13a.21.21,0,0,0,.19-.15l-.16,0a.38.38,0,0,0,.13-.3.12.12,0,0,1-.07,0,.37.37,0,0,0-.14,0v0l.06-.13.15-.25a.45.45,0,0,1-.19.06.09.09,0,0,0,0,.07c-.11-.08-.18.07-.18.07s-.07-.1-.07-.1,0-.08,0-.08l-.14-.15L21,7.54s-.07,0,0,.08-.07,0-.07.1-.06-.15-.17-.08a.08.08,0,0,0,0-.07.42.42,0,0,1-.18-.08l.14.27.05.13v0a.5.5,0,0,0-.14,0l-.07,0a.41.41,0,0,0,.12.31h-.17a.24.24,0,0,0,.19.17s-.09,0-.11.12,0,.06,0,.08a.19.19,0,0,0,.21,0,.23.23,0,0,0-.08.19.2.2,0,0,0,.15,0,.13.13,0,0,0,0,.1.14.14,0,0,1,0,.07.2.2,0,0,0,.19,0,.37.37,0,0,0,0,.18A.56.56,0,0,1,21,8.93l.06.07s0,.06,0,.07.12-.12.12-.12a.41.41,0,0,1,.1.1.38.38,0,0,0,0-.18c.06.08.2,0,.2,0a.14.14,0,0,1,0-.07.18.18,0,0,0,0-.1.2.2,0,0,0,.15,0,.24.24,0,0,0-.07-.19c.14.07.21,0,.21,0A.12.12,0,0,1,21.71,8.5Z"/><path d="M21.09,9.08h0v0s0,0,0,0l0-.07a.64.64,0,0,0-.13.1h0a.27.27,0,0,1,0-.15.25.25,0,0,1-.19,0h0a.1.1,0,0,0,0-.06.12.12,0,0,1,0-.07c-.07,0-.12,0-.12,0h0a.34.34,0,0,1,.05-.17.17.17,0,0,1-.18,0h0a.08.08,0,0,0,0-.07.13.13,0,0,1,.08-.12.22.22,0,0,1-.16-.17h.16a.41.41,0,0,1-.11-.3h0l.07,0a.35.35,0,0,1,.13,0v0l-.05-.13-.14-.26h0l.14.06h0l0,.06a.09.09,0,0,1,.07,0,.11.11,0,0,1,.08.07s0-.06,0-.07h0a0,0,0,0,1,0,0s0,0,0,0l.14-.14h0s.11.11.13.15a.05.05,0,0,1,0,0s0,0,0,0h0s0,0,0,.07a.17.17,0,0,1,.08-.06.11.11,0,0,1,.08,0,.05.05,0,0,1,0,0l0,0a.3.3,0,0,0,.14-.05h0a0,0,0,0,1,0,0l-.16.26-.05.12v0a.24.24,0,0,1,.13,0l.07,0h0a.38.38,0,0,1-.13.29l.15,0h0a.21.21,0,0,1-.16.15.16.16,0,0,1,.07.13h0a.11.11,0,0,0,0,.08h0a.18.18,0,0,1-.19,0,.23.23,0,0,1,.05.16h0a.17.17,0,0,1-.12,0s0,0,0,.07h0a.18.18,0,0,0,0,.06h0a.24.24,0,0,1-.18,0,.47.47,0,0,1,0,.15h0A.24.24,0,0,0,21.21,9s-.07.1-.12.11ZM21,8.92h0l.06.08s0,0,0,.05h0A.33.33,0,0,0,21.2,9h0L21.3,9a.27.27,0,0,0,0-.15h0a.17.17,0,0,0,.17,0,.21.21,0,0,1,0-.06c0-.06,0-.09,0-.09v0h0a.15.15,0,0,0,.13,0,.2.2,0,0,0-.07-.17v0h0c.1,0,.17,0,.19,0a.13.13,0,0,1,0-.08c0-.11-.09-.12-.09-.12h0s0,0,0,0a.23.23,0,0,0,.18-.14h-.16v0a.36.36,0,0,0,.13-.27H21.7a.31.31,0,0,0-.13,0h0v0h0l.06-.13.13-.22a.27.27,0,0,1-.12,0h0s0,.06,0,.06h0s-.05,0-.07,0a.14.14,0,0,0-.09.08h0c0-.07,0-.09,0-.09h0s0,0,0,0a0,0,0,0,0,0,0h0a.58.58,0,0,0-.13-.14,1.59,1.59,0,0,0-.13.13h0l0,0s0,0,0,0v0h0s0,0,0,.09h0a.19.19,0,0,0-.08-.09.08.08,0,0,0-.08,0h0s0,0,0-.06h0l-.11,0,.12.22.05.14h0v0h0a.49.49,0,0,0-.13,0h0a.1.1,0,0,1-.06,0,.38.38,0,0,0,.12.29h-.16s0,.11.17.15h0s-.08,0-.09.11,0,0-.05.08a.19.19,0,0,0,.2,0h0v0a.22.22,0,0,0-.08.17.19.19,0,0,0,.13,0h0a.13.13,0,0,0,0,.09.12.12,0,0,1,0,.06.16.16,0,0,0,.17,0h0a.37.37,0,0,0,0,.16.45.45,0,0,1,.13-.1Z"/><path d="M21.54,7.89s0,0,0,0a0,0,0,0,1,0,0s0,0,0,0A0,0,0,0,1,21.54,7.89Zm0,0,0,0h0Z"/><path d="M21.59,8.13h0c.09-.07.07-.14.07-.14h0a.15.15,0,0,1-.05.14A.16.16,0,0,0,21.68,8h0a.11.11,0,0,0,.08-.09h0A.17.17,0,0,1,21.7,8a.15.15,0,0,1-.11.12Z"/><path d="M21.56,8.3h0s0,0,0,0l0,0h0l.05,0h0l-.06,0h0l0,0v0Z"/><path d="M21.6,8.32h0l0,0h0l.05,0h0a.09.09,0,0,0,.06,0h0a.16.16,0,0,1-.08,0h0l-.05,0h0l0,0Z"/><path d="M21.19,8h0l0,0h0l0,0Z"/><path d="M21.28,8h0v0h0V8Z"/><path d="M21.35,8h0Z"/><path d="M21.39,8h0l.07,0h0l-.06,0h0Z"/><path d="M21.48,8h0l0,0,0,0h0a.1.1,0,0,1,0,0l0,0Z"/><path d="M21.19,8.17h0a.52.52,0,0,1,.13-.06h0l-.12.06Z"/><path d="M21.2,8.25h0s0,0,0,0h0v0s0,0,0,0v0l0-.06h0l0,.07a0,0,0,0,0,0,0V8.2a0,0,0,0,0,0,0h0s0,0,0,0h0l0,0h.07l0,0s0,0,0,0h0l0,0,0,0H21.2Z"/><path d="M21.23,8.31h0s0,0,0,0v0h0a.08.08,0,0,0,0,0v0h0l0,0c.06,0,.11,0,.11-.09h0v0c0,.06-.06.08-.11.11h0Zm0,0Z"/><path d="M21.71,8.51h0a.15.15,0,0,0-.12-.07h0a.17.17,0,0,1,.12.07Z"/><path d="M21.71,8.61h0Z"/><path d="M21.54,8.59h0l-.06,0h0l.06,0h0v0h0Z"/><path d="M21.61,8.76h0l0,0a.19.19,0,0,0-.08-.1h0l0,0a.44.44,0,0,1,.09.11v0Z"/><path d="M21.6,8.77h0l0,0a.08.08,0,0,0-.05-.05h0a.08.08,0,0,1,0,.05l0,0Z"/><path d="M21.32,8.88h0v0h0v0h0a0,0,0,0,1,0,0h0l0,0h0v0Z"/><path d="M21.47,8.92h-.08l0,0h0l0,0h.07Z"/><path d="M21.5,8.92h0l-.06,0h0v0h0l0,0h0s0,0,0,.05h0v0h0l.05,0h0Z"/><path d="M21.19,9h0v0h0v0h0Z"/><path d="M21.24,9h0V9s0,0,0,0h0v0h0v0h0v0h0v0h0V9h0Z"/><path d="M21.27,9h0V9h0V8.87h0V9h0Z"/><path d="M21.17,8.66h0l.08,0,.05,0h0l-.06,0-.07,0Z"/><path d="M21.17,8.71h0l.07,0,0,0h0l0,0-.08,0Z"/><path d="M21.34,8.24a0,0,0,0,1,0,0,0,0,0,0,1-.05,0,.07.07,0,0,1,.05,0A0,0,0,0,1,21.34,8.24Z"/><path d="M21.13,7.67h0l-.05-.08h0l.06-.07h0l0,.07h0l-.05.07Zm0-.08,0,.06,0-.06,0-.06Z"/><path d="M21.18,8.76h-.05l0,0h0l0,0h.05Z"/><path d="M21.11,8.79h0Z"/><path d="M21.59,7.83h0a2.55,2.55,0,0,0-.46,0h0a2.86,2.86,0,0,0-.46,0h0a2.48,2.48,0,0,1,.46,0h0a2.55,2.55,0,0,1,.46,0Z"/><path d="M20.66,7.81h0l0,0a0,0,0,0,1,0,0h0a3.26,3.26,0,0,1,.48,0h0s.26,0,.47,0h0s0,0,0,0l0,0h0a3.07,3.07,0,0,0-.47,0h0a4.22,4.22,0,0,0-.47,0h0Z"/><path d="M20.64,7.73s0,0,0,0v0a0,0,0,0,1,0,0s0,0,.05,0,0,0,0,.06Zm0-.08h0a.08.08,0,0,0,0,0h0s0,0,0,0,0,0,0,0Z"/><path d="M20.71,7.87s0,0,0,0a0,0,0,0,1,0,0s0,0,0,0A0,0,0,0,1,20.71,7.87Zm0,0a0,0,0,0,0,0,0h0Z"/><path d="M21.55,7.93h0a2.49,2.49,0,0,0-.43,0h0a3.53,3.53,0,0,0-.43,0h0a3.53,3.53,0,0,1,.43,0h0a3.21,3.21,0,0,1,.43,0h0Z"/><path d="M20.7,7.94h0v0h0a3.36,3.36,0,0,1,.42,0h0a3.1,3.1,0,0,1,.42,0h0V8h0a3.1,3.1,0,0,0-.42,0h0a3.36,3.36,0,0,0-.42,0Z"/><path d="M20.64,8.1h0a.13.13,0,0,1-.1-.12.17.17,0,0,1-.08-.11h0c0,.07.07.09.07.1h0a.14.14,0,0,0,.07.11c-.06-.08-.05-.14,0-.14h0a.16.16,0,0,0,.06.15h0Z"/><path d="M20.67,8.28h0s0,0,0,0a0,0,0,0,0,0,0l0,0-.05,0h0l.06,0,0,0,0,0s0,0,0,0Z"/><path d="M20.62,8.3h0l0,0h0l0,0h0s-.06,0-.07-.05h0a.09.09,0,0,0,.06,0h0l0,0h0l0,0h0Z"/><path d="M21.05,8h0l0,0h0s0,0,0,0h0Z"/><path d="M21,8h0v0h0a0,0,0,0,1,0,0h0Z"/><polygon points="20.89 7.96 20.88 7.96 20.88 7.94 20.87 7.94 20.87 7.93 20.86 7.93 20.85 7.92 20.86 7.92 20.87 7.92 20.88 7.93 20.89 7.94 20.89 7.95 20.89 7.96 20.89 7.96"/><path d="M20.84,8h0l-.06,0h0l.07,0V8h0Z"/><path d="M20.76,8h0l0,0,0-.05h0l0,0,0,0h0Z"/><path d="M21.06,8.16h0l-.12-.07h0l.13.07h0Z"/><path d="M21.05,8.25H21l0,0h-.11l0,0s0,0,0,0h0l0,0,0,0H21l0,0h.08a0,0,0,0,0,0,0h0V8.1l0-.06h0l0,.07a0,0,0,0,0,0,0s0,0,0,0v0s0,0,0,0Z"/><path d="M21,8.31h0l0,0c-.05,0-.11,0-.11-.11h0c0,.06.05.08.1.1l0,0h0s0,0,0,0h0a.09.09,0,0,1,0,0h0Zm0,0Z"/><path d="M20.51,8.48h0a.16.16,0,0,1,.13-.06h0a.13.13,0,0,0-.13.06Z"/><path d="M20.5,8.58h.06l0,0h0Z"/><path d="M20.67,8.56h0l.07,0h0l-.06,0h0Z"/><path d="M20.59,8.74h0l0,0a.25.25,0,0,1,.08-.1l0,0h0a.25.25,0,0,0-.08.1l0,0Z"/><path d="M20.6,8.75h0l0,0a.12.12,0,0,1,.05-.05h0l-.05.05,0,0Z"/><path d="M20.87,8.87h0v0h0s0,0,0,0h0l0,0h0l0,0h0v0Z"/><path d="M20.72,8.9h.1v0h-.09Z"/><path d="M20.69,8.9h0a.11.11,0,0,0,0,0h0a.08.08,0,0,1,0,0h0s0,0,0,.05h0v0h0l-.05,0Z"/><path d="M21,9h0v0h0v0h0v0h0v0h0v0h0v0h0V9Z"/><path d="M20.91,9h0V8.86h0v0a.31.31,0,0,1,0,.09h0Z"/><path d="M21,8.66h0l-.07,0-.05,0h0l.06,0,.07,0Z"/><path d="M21,8.7h0l-.08,0,0,0h0l0,0,.07,0h0Z"/><path d="M20.91,8.23a0,0,0,0,0,.05,0,0,0,0,0,0,0,0,0,0,0,0,0,0,0A0,0,0,0,0,20.91,8.23Z"/><path d="M21,8.76h.05l0,0h0l0,0H21Z"/><path d="M21.08,8.79h0Z"/><path d="M21,8.39h0a0,0,0,0,1,0,0l0,0h0l-.05,0a0,0,0,0,0,0,0Z"/><path d="M21.13,8.62H21V8.51h0v0h0v0h.19a.06.06,0,0,0,0,0l0,0h0s0,0,0,0a0,0,0,0,1,0,.05h-.08Z"/><polygon points="21.1 8.73 21.09 8.72 21.09 8.61 21.1 8.6 21.11 8.61 21.11 8.72 21.1 8.73"/><path d="M21,8.94h0v0s0,0,0,0h0a.09.09,0,0,1,0,.05v0Z"/><path d="M21,9h0v0a.07.07,0,0,1,0-.05h0v.1h0Z"/><path d="M21.1,9.07h0V9a.19.19,0,0,0,0-.08.11.11,0,0,0,0-.08h0a.16.16,0,0,1,0,.09s0,.06,0,.09v0Z"/><path d="M20.74,8.38Z"/><path d="M19.89,7.72h0V7.66s0,0,.05,0h0a0,0,0,0,1,0,0h0S19.91,7.72,19.89,7.72Zm0-.08a0,0,0,0,0,0,0,0,0,0,0,0,0,0h0s0,0,0,0h0v0h0Z"/><path class="cls-4" d="M20,8.46c0-.13-.1-.12-.1-.12a.24.24,0,0,0,.18-.17H20a.43.43,0,0,0,.12-.32.17.17,0,0,1-.07,0,.5.5,0,0,0-.14,0v0l0-.13L20,7.48a.42.42,0,0,1-.18.08.09.09,0,0,0,0,.07c-.11-.07-.17.08-.17.08s-.08-.1-.08-.1,0-.07,0-.07a.9.9,0,0,0-.14-.14,1.16,1.16,0,0,0-.13.15s-.07,0,0,.07-.07,0-.07.11c0,0-.06-.15-.17-.07a.13.13,0,0,0,0-.07.46.46,0,0,1-.18-.06l.15.25.06.13v0a.37.37,0,0,0-.14,0,.17.17,0,0,1-.08,0,.4.4,0,0,0,.14.3l-.16,0a.23.23,0,0,0,.19.15s-.08,0-.09.13a.12.12,0,0,1,0,.09s.07.06.21,0a.24.24,0,0,0-.07.19.2.2,0,0,0,.15,0,.13.13,0,0,0,0,.1.14.14,0,0,1,0,.07.21.21,0,0,0,.2,0,.33.33,0,0,0,0,.17.56.56,0,0,1,.13-.11l.06.07s0,.05,0,.06.11-.12.11-.12a.3.3,0,0,1,.1.09.38.38,0,0,0,0-.18c.06.08.19,0,.19,0a.14.14,0,0,1,0-.07.18.18,0,0,0,0-.1c.09,0,.14,0,.14,0a.23.23,0,0,0-.07-.18.19.19,0,0,0,.21,0A.1.1,0,0,1,20,8.46Z"/><path d="M19.46,9.08h0v0a.09.09,0,0,0,0-.05l-.06-.06a.72.72,0,0,0-.12.11h0a.47.47,0,0,1,0-.15.24.24,0,0,1-.18,0h0a.1.1,0,0,0,0-.06.12.12,0,0,1,0-.07.17.17,0,0,1-.12,0h0a.24.24,0,0,1,0-.16c-.11,0-.18,0-.18,0h0a.11.11,0,0,0,0-.08.12.12,0,0,1,.06-.12.22.22,0,0,1-.16-.16h0l.15,0a.38.38,0,0,1-.13-.29h0a.11.11,0,0,0,.07,0l.13,0v0l-.06-.12-.15-.26h0a.34.34,0,0,0,.14.05l0,0a.1.1,0,0,1,0,0,.09.09,0,0,1,.07,0,.13.13,0,0,1,.08.06s0-.06,0-.07h0v0a.05.05,0,0,1,0,0l.13-.15h0l.14.14a0,0,0,0,1,0,0v0h0s0,0,0,.07l.08-.07h.08a.07.07,0,0,1,0-.06h0A.49.49,0,0,0,20,7.48h0l-.14.26,0,.13v0a.35.35,0,0,1,.13,0l.06,0h0a.41.41,0,0,1-.1.3h.15a.24.24,0,0,1-.16.17.13.13,0,0,1,.08.12h0a.08.08,0,0,0,0,.07h0a.17.17,0,0,1-.18,0,.26.26,0,0,1,.06.17h0a.2.2,0,0,1-.12,0,.12.12,0,0,1,0,.07h0a.1.1,0,0,0,0,.06h0a.25.25,0,0,1-.19,0,.27.27,0,0,1,0,.15h0s0,0-.1-.08-.06.11-.11.12Zm-.09-.16h0l.06.07a.06.06,0,0,1,0,0h0a.28.28,0,0,0,.1-.12h0a.36.36,0,0,1,.09.08.37.37,0,0,0,0-.16h0a.18.18,0,0,0,.18,0,.1.1,0,0,1,0-.06.17.17,0,0,0,0-.09h0a0,0,0,0,1,0,0,.21.21,0,0,0,.13,0,.2.2,0,0,0-.07-.17s0,0,0,0h0a.17.17,0,0,0,.19,0,.11.11,0,0,1,0-.08c0-.12-.09-.11-.09-.11h0a.25.25,0,0,0,.18-.15h-.17a.38.38,0,0,0,.12-.29l-.06,0h0a.61.61,0,0,0-.14,0h0v0h0l0-.13L20,7.52l-.11,0h0s0,.06,0,.06h0a.1.1,0,0,0-.07,0,.19.19,0,0,0-.08.09h0a.11.11,0,0,0,0-.09h-.05s0,0,0-.05h0a.8.8,0,0,0-.13-.13,1.49,1.49,0,0,0-.12.14h0a.09.09,0,0,0,0,0h0s0,0,0,.09,0,0,0,0h0s0-.07-.09-.08a.07.07,0,0,0-.07,0h0s0,0,0-.06h0l-.11,0,.13.22.06.13h0V8h0a.31.31,0,0,0-.13,0h-.07a.47.47,0,0,0,.14.28h-.16a.21.21,0,0,0,.18.14s0,0,0,0h0s-.07,0-.08.12a.14.14,0,0,1,0,.09.22.22,0,0,0,.19,0h0v0a.21.21,0,0,0-.06.17s.06,0,.13,0h0s0,0,0,0,0,0,0,.09a.21.21,0,0,1,0,.06.17.17,0,0,0,.17,0h0a.27.27,0,0,0,0,.15.69.69,0,0,1,.12-.1Z"/><path d="M19.83,7.86l0,0s0,0,0,0a0,0,0,0,1,0,0S19.85,7.86,19.83,7.86Zm0,0v0h0S19.84,7.82,19.83,7.82Z"/><path d="M19.9,8.09h0A.16.16,0,0,0,20,7.93h0a.16.16,0,0,1,0,.14A.14.14,0,0,0,20,8h0a.11.11,0,0,0,.07-.09h0A.21.21,0,0,1,20,8a.13.13,0,0,1-.1.12Z"/><path d="M19.88,8.27h0a0,0,0,0,1,0,0l0,0,0,0,.06,0h0s0,0-.05,0l0,0s0,0,0,0,0,0,0,0Z"/><path d="M19.92,8.29h0l0,0h0l.05,0h0a.09.09,0,0,0,.06,0h0s0,0-.07.06h0l-.05,0h0l0,0Z"/><path d="M19.49,8h0l0,0h0l0,0Z"/><path d="M19.59,8h0v0h0s0,0,0,0Z"/><path d="M19.65,8Z"/><path d="M19.7,8h0l.06,0h0l-.06,0V8Z"/><path d="M19.78,8h0l0,0a.08.08,0,0,0,0,0h0l0,0,0,0Z"/><path d="M19.5,8.17h0a.35.35,0,0,1,.12-.07h0l-.12.07Z"/><path d="M19.52,8.24h0a0,0,0,0,1,0,0V8.09l0-.07h0v.07a0,0,0,0,0,0,0v.06h0s0,0,0,0,0,0,.05,0h0l0,0h.09l0,0h0l0,0,0,0h-.09l0,0h0Z"/><path d="M19.55,8.3s0,0,0,0V8.23h0v.06h0c.06,0,.11,0,.1-.1h0v0c0,.06-.06.09-.11.11l0,0Zm0,0Z"/><path d="M20,8.47h0a.16.16,0,0,0-.12-.06h0a.14.14,0,0,1,.13.06Z"/><path d="M20.05,8.57h0Z"/><path d="M19.88,8.55h-.09l.07,0h0Z"/><path d="M20,8.72h0l0,0a.21.21,0,0,0-.09-.1h0l0,0a.21.21,0,0,1,.09.1l0,0Z"/><path d="M20,8.74h0l0,0-.05-.05h0a.1.1,0,0,1,.06,0l0,0Z"/><path d="M19.68,8.86h0v0h0l0,0h0v0h0v0Z"/><path d="M19.83,8.89h-.09v0h.08Z"/><path d="M19.86,8.89h0l-.05,0h0v0h0l0,0h0s0,0,0,.05h0a.11.11,0,0,0,.05,0h0Z"/><path d="M19.55,9h0v0h0v0h0Z"/><path d="M19.6,9h0v0h0v0h0v0h0v0h0v0h0v0h0Z"/><path d="M19.64,9h0a.31.31,0,0,1,0-.09v0h0v0s0,.07,0,.09h0Z"/><path d="M19.51,8.65h0l.07,0,.05,0h0l-.06,0-.07,0Z"/><path d="M19.52,8.7h0l.07,0,0,0h0l-.07,0Z"/><path d="M19.66,8.22a0,0,0,0,1,0,0s-.05,0-.05,0a0,0,0,0,1,0,0S19.66,8.19,19.66,8.22Z"/><path d="M19.41,7.67h0l0-.07h0l0-.07h0l.05.07h0l-.05.07Zm0-.08,0,.06,0-.07-.05,0Z"/><path d="M19.53,8.75h-.05l0,0h.09Z"/><path d="M19.46,8.78h0Z"/><path d="M19.88,7.8h0a2.48,2.48,0,0,0-.46,0h0a2.55,2.55,0,0,0-.46,0h0a3,3,0,0,1,.46-.05h0a4.13,4.13,0,0,1,.47,0h0Z"/><path d="M19,7.83h0s0,0,0,0,0,0,0,0h0a4,4,0,0,1,.48,0h0a4.39,4.39,0,0,1,.48,0h0v0a0,0,0,0,1,0,0h0a4.39,4.39,0,0,0-.48,0h0a3.76,3.76,0,0,0-.47,0h0Z"/><path d="M18.93,7.75a.05.05,0,0,1,0,0,.08.08,0,0,1,0,0l0,0s0,0,.05,0,0,0,0,.06Zm0-.08h0s0,0,0,0h0l0,0s0,0,0,0A0,0,0,0,0,18.91,7.67Z"/><path d="M19,7.89l0,0a0,0,0,0,1,.06,0S19,7.89,19,7.89Zm0,0s0,0,0,0h0S19,7.85,19,7.85Z"/><path d="M19.85,7.9h0a3.53,3.53,0,0,0-.43,0h0a2.42,2.42,0,0,0-.43,0h0a3.21,3.21,0,0,1,.43,0h0a2.75,2.75,0,0,1,.43,0h0Z"/><path d="M19,8h0v0h0a3,3,0,0,1,.42,0h0a2.64,2.64,0,0,1,.42,0h0v0h0a2.64,2.64,0,0,0-.42,0h0A3,3,0,0,0,19,8Z"/><path d="M19,8.13h0A.15.15,0,0,1,18.84,8a.14.14,0,0,1-.08-.1h0c0,.08.08.09.08.1h0a.16.16,0,0,0,.07.11A.15.15,0,0,1,18.88,8h0s0,.07.07.14h0Z"/><path d="M19,8.3h0v0l0,0h0l-.06,0h0l.05,0h0l0,0s0,0,0,0Z"/><path d="M19,8.32h0l0,0h-.09a.1.1,0,0,1-.07,0h0a.15.15,0,0,0,.06,0h0l0,0h0l0,0Z"/><path d="M19.35,8h0l0,0h0l0,0h0Z"/><path d="M19.25,8h0V8h0Z"/><polygon points="19.19 7.97 19.18 7.97 19.18 7.95 19.17 7.95 19.17 7.95 19.15 7.94 19.15 7.93 19.16 7.93 19.17 7.93 19.18 7.94 19.18 7.95 19.2 7.96 19.19 7.97 19.19 7.97"/><path d="M19.15,8h0l-.06,0h0l.07,0h0Z"/><path d="M19.06,8h0l0,0a.1.1,0,0,1,0,0h0l0,0,0,0h0Z"/><path d="M19.38,8.16h0l-.12-.06h0a.31.31,0,0,1,.13.06Z"/><path d="M19.37,8.25H19.3l0,0h-.1l0,0a0,0,0,0,1,0,0h0l0,0h.22l0,0V8.13a0,0,0,0,0,0,0l0-.07h0l0,.06s0,0,0,0a0,0,0,0,1,0,0v0h0s0,0,0,0Z"/><path d="M19.35,8.31h0c-.06,0-.12-.05-.12-.11h0c0,.05.06.07.11.09l0,0h0s0,0,0,0h0s0,0,0,0h0Zm0,0Z"/><path d="M18.84,8.51h0A.19.19,0,0,1,19,8.43h0a.17.17,0,0,0-.13.07Z"/><path d="M18.84,8.61h0Z"/><path d="M19,8.59h0l.07,0h0l-.06,0h0Z"/><path d="M18.94,8.76h0l0,0A.38.38,0,0,1,19,8.61l0,0h0l0,0a.25.25,0,0,0-.08.1v0Z"/><path d="M19,8.77h0l0,0s0,0,.05-.05h0a.1.1,0,0,0,0,.05l0,0Z"/><path d="M19.23,8.88h0v0h0v0h0v0h0v0Z"/><path d="M19.08,8.92h.07v0h-.08Z"/><path d="M19,8.92h0l.05,0h0v0h0s0,0,0-.05h0l0,0h0s0,0-.06.05h0Z"/><path d="M19.31,9h0v0h0v0h0v0h0v0h0v0h0a0,0,0,0,0,0,0Z"/><path d="M19.28,9h0V8.87h0V9h0Z"/><path d="M19.38,8.66h0l-.08,0-.05,0h0l.06,0,.07,0Z"/><path d="M19.37,8.7h0l-.07,0h0l.08,0h0Z"/><path d="M19.23,8.24a0,0,0,0,0,.05,0,0,0,0,0,0,0,0,0,0,0,0,0-.05-.05S19.23,8.22,19.23,8.24Z"/><path d="M19.37,8.76h0l0,0h0l0,0h-.05Z"/><path d="M19.43,8.79h0Z"/><path d="M19.35,8.39h0s0,0,0,0l0-.06h0l0,.06s0,0,0,0Z"/><path d="M19.47,8.61h-.13V8.51h0v0h0v0h.19a.06.06,0,0,0,0,0l0,0h0s0,0,0,0a.11.11,0,0,1,0,.05h0l0,0Z"/><polygon points="19.45 8.73 19.44 8.72 19.43 8.6 19.44 8.6 19.45 8.6 19.45 8.72 19.45 8.73"/><path d="M19.34,8.94h0a0,0,0,0,0,0,0v0h0a.09.09,0,0,1,0,.05v0Z"/><path d="M19.4,9h0v-.1h0a.09.09,0,0,0,0,.05v0Z"/><path d="M19.47,9.07h0V9s0-.06,0-.08l0-.09h0a.17.17,0,0,1,0,.1.25.25,0,0,1,0,.08v0Z"/><path d="M19.06,8.4Z"/><path d="M22.94,8.42h0l0,0,.05,0,.15-.06h.39l.13,0v0l-.13,0h-.39a.84.84,0,0,0-.14.06l0,0S23,8.4,22.94,8.42Z"/><path d="M22.73,8.87h0v0h0Z"/><path d="M22.83,8.85h0l0,0h0s0,0,0,0Z"/><path d="M22.81,9.1l0,0h0L22.86,9l0-.06h0l0,.06-.05.05Z"/><path d="M23,10S23,10,23,10a.11.11,0,0,1,0-.08h0A.22.22,0,0,0,23,10S23,10,23,10Z"/><path d="M22.75,8.36h0l0,0h0s0,0,0,0v0Z"/><path d="M22.64,8.32h0l0,0h0Z"/><path d="M22.69,8.37h0s0,0,0,0h0Z"/><path d="M22.63,8.73h0l0,0h0s0,0,0,0h0V8.65h0a0,0,0,0,0,0,0v.05Z"/><path d="M22.75,8.55h0s0,0,0,0h0s0,0,0,0Z"/><path d="M22.83,8.49h0l0,0h0l0,0Z"/><path d="M22.89,8.48h0l0,0h0l0,0Z"/><path d="M23,8.48h0l0,0h0Z"/><polygon points="22.72 8.65 22.72 8.64 22.72 8.61 22.72 8.6 22.73 8.61 22.73 8.64 22.72 8.65"/><path d="M22.77,8.62h0l0,0h0l0,0Z"/><path d="M22.76,8.72h0v0h0v0Z"/><path d="M22.72,8.83h0v0h0v0h0Z"/><path d="M22.81,8.79h0v0h0v0h0v0h0Z"/><path d="M22.9,8.72h0s0,0,0,0v0h0v0h0v0h0v0Z"/><path d="M23,8.62h0Z"/><path d="M23.19,8.47h0Z"/><path d="M23.2,8.54h0s0,0,0,0h0s0,0,0,0Z"/><path d="M23.22,8.57h0l0,0h0a0,0,0,0,1,0,0h0Z"/><path d="M23.42,8.55Z"/><path d="M23.47,8.59l-.13,0h0l.12,0h0Z"/><path d="M23.37,8.64Z"/><path d="M23.06,8.67h0l0,0v0h0s0,0,0,0h0l0,0Z"/><path d="M22.89,8.58h0l0,0h0l0,0Z"/><path d="M23.08,8.73h0s0,0,0,0h.09l.07,0h0l-.07,0h0Z"/><path d="M23.17,8.65h0Z"/><path d="M22.83,8.55h0l.06,0h0l-.05,0Z"/><path d="M23,8.72h0Z"/><path d="M23,8.81Z"/><path d="M23.12,8.77h0l0,0h0l0,0Z"/><path d="M22.9,9h0a0,0,0,0,1,0,0h0s0,0,0,0,0,0,0-.05h0l0,0h0l0,0h0a0,0,0,0,1,0,0h0l0,0s0,0,0,.05v0h0V9Z"/><path d="M22.79,9h0l0,0h0l0,0h0l0,0Z"/><path d="M22.83,9h0s0,0,0,0h0l0,0Z"/><path d="M23,9.05h0a0,0,0,0,1,0,0l0-.06h0l0,0v0a.09.09,0,0,0,0,0h0a.09.09,0,0,1,0,0v0l0,0h0L23,9a0,0,0,0,0,0,0Z"/><path d="M22.82,9.14h0v0a.15.15,0,0,0,.06,0l0,0L23,9h0l-.06.07,0,0a.18.18,0,0,1-.07.05h0Z"/><path d="M23.15,9h0a.38.38,0,0,0,0-.1h0a.34.34,0,0,1,0,.1Z"/><path d="M23.18,8.85h0v0h0a0,0,0,0,0,0,0h0v0h0Z"/><path d="M23.21,8.89h0s0,0,0,0h0a0,0,0,0,1,0,0h0Z"/><path d="M23.25,8.93h0v0s0,0,0,0h0a0,0,0,0,1,0,0v0Z"/><path d="M23.24,9.07h0a0,0,0,0,0,0,0h0a.23.23,0,0,0,0-.11h0a.27.27,0,0,1,0,.12h0Z"/><path d="M23.33,9.05h0V9s0,0,0,0h0V9h0Z"/><path d="M22.94,9.11h0v0a.07.07,0,0,1,0-.05h0a.09.09,0,0,0,0,.05v0Z"/><path d="M22.81,9.2h0l.06,0h0s0,0-.06,0Z"/><path d="M22.81,9.25h0a.15.15,0,0,0,.07,0h0a.12.12,0,0,1-.08,0Z"/><path d="M22.74,9.35h0l.07,0s0,0,0,0h0l0,0-.08,0Z"/><path d="M22.91,9.31h0a.08.08,0,0,1,0-.07v0l0,0h0l0,0a.08.08,0,0,0,0-.07h0a.08.08,0,0,1,0,.07l0,0h0l0,0s0,0,0,0a.13.13,0,0,0,0,.06Z"/><path d="M23.05,9.12h0a.07.07,0,0,1,0-.06h0a0,0,0,0,0,0,0V9h0V9a.06.06,0,0,1,0,0h0a.09.09,0,0,0,0,.06Z"/><path d="M23,9.51h0a.19.19,0,0,0,0-.08v0h0v0a.11.11,0,0,0,0,0,.08.08,0,0,1,0,0h0l0-.07h0l0,.06v0a0,0,0,0,0,0,0,.07.07,0,0,0,0,0h0v.06a.28.28,0,0,1,0,.09Z"/><path d="M22.7,9.55h0a.14.14,0,0,1,0-.06l.06-.07h0a.18.18,0,0,0-.05.07.08.08,0,0,0,0,.05Z"/><path d="M22.88,9.44h0a.17.17,0,0,0,0-.07h0a.15.15,0,0,1,0,.07Z"/><path d="M22.74,9.62h0v0a.1.1,0,0,1,.05-.06h0l0,0v0h0a.05.05,0,0,1,0,0l0,0h0l-.05.05v0Z"/><path d="M23.08,9.39h0a.33.33,0,0,1,0-.12v0a.09.09,0,0,1,0-.07h0l0,0h0a.12.12,0,0,1,.05-.07h0a.08.08,0,0,0,0,.06h0l0,0h0a.07.07,0,0,0,0,.06v0a.16.16,0,0,0,.05.11h0Z"/><path d="M23.22,9.24h0a.15.15,0,0,1,0-.07s0,0,0,0v0a0,0,0,0,0,0,0h0a0,0,0,0,1,0,.06h0l0,0a.15.15,0,0,0,0,.07Z"/><path d="M23.12,9.25h0V9.19h0l0,0h0l0,0h0a0,0,0,0,0,0,0v0Z"/><path d="M22.81,9.63h0l.06-.06a.09.09,0,0,0,0-.07h0a.13.13,0,0,1,0,.08l-.05.06h0Z"/><path d="M22.78,9.8h0a.18.18,0,0,1,.05-.07h0l0,0a.13.13,0,0,0,0-.06h0a.17.17,0,0,1,0,.07l0,0h0l0,.06Z"/><path d="M23,9.82h0a0,0,0,0,1,0,0h0a.21.21,0,0,1,0-.14v0l0,0h0a.21.21,0,0,0,.05-.13h0a.24.24,0,0,1,0,.14h0l0,0v0a.33.33,0,0,0,0,.14h0v0Z"/><path d="M23.15,9.42h0a.08.08,0,0,0,0,0v0h0v0s0,0,0,0Z"/><path d="M23.19,9.55h0s0,0,0,0h0a.33.33,0,0,0,0-.14h0v0a.1.1,0,0,1,0-.09h0a.15.15,0,0,0,0,.09,0,0,0,0,1,0,0h0a.38.38,0,0,1,0,.15h0v0Z"/><path d="M22.9,9.78h0v0h0v0h0v0Z"/><path d="M23.25,9.33h0V9.27l0,0h0a.05.05,0,0,0,0,0v.05Z"/><path d="M23.34,9.33h0a.08.08,0,0,0,0-.07v0a.14.14,0,0,1,0-.06h0a.43.43,0,0,0,0,.05v0s0,.06,0,.08Z"/><path d="M23.39,9.25h0l0,0v0a.28.28,0,0,1,0-.09h0a.25.25,0,0,0,0,.08h0l0,0Z"/><path d="M23.4,9.17h0v0h0a.13.13,0,0,0,0-.06h0a.13.13,0,0,1,0,.06h0v0Z"/><path d="M23.48,9.2h0a0,0,0,0,0,0,0h0a0,0,0,0,1,0,0Z"/><path d="M23.56,9.36h0a.32.32,0,0,0,0-.14h0a.41.41,0,0,1,0,.16Z"/><path d="M23.51,9.49h0v0h0a.13.13,0,0,1,0-.06v0a.19.19,0,0,0,0-.1h0a.17.17,0,0,1,0,.1v0a.13.13,0,0,0,0,.06h0v0Z"/><path d="M23.4,9.49h0a.13.13,0,0,0,0-.06l0,0h0l0,0v0a.34.34,0,0,0,0-.1h0a.22.22,0,0,1,0,.14Z"/><path d="M23.28,9.6h0l0,0v0s0-.06,0-.08h0a.18.18,0,0,1,0,.09.08.08,0,0,1,0,0l0,0Z"/><path d="M23.08,9.64h0l0,0h0v0h0v0h0v0l0,0Z"/><path d="M23,9.87h0a.14.14,0,0,1,0-.06l0,0a.43.43,0,0,0,0,0h0a.14.14,0,0,1,0,.06v0s0,0,0,0Z"/><path d="M23.13,9.9h0l0,0a.16.16,0,0,1,0-.07s0,0,0-.06l0-.05V9.6h0v.08s0,0,0,.05,0,0,0,.06a.16.16,0,0,0,0,.07l0,0h0Z"/><path d="M23.23,9.73h0a.25.25,0,0,1,0-.12h0a.2.2,0,0,0,0,.11h0Z"/><path d="M23.23,9.92h0a.18.18,0,0,0,0-.07h0s0,0,0,0v0s0,0,0-.06h0s0,0,0,.06v0a0,0,0,0,0,0,0h0l.05.07V9.84h0v.05a0,0,0,0,1,0,0Z"/><path d="M23,10h0a.17.17,0,0,1,0-.07h0a.17.17,0,0,0,0,.07v0Z"/><polygon points="22.82 10.11 22.81 10.11 22.81 10.05 22.82 10.05 22.82 10.05 22.82 10.11 22.82 10.11"/><polygon points="22.93 10.03 22.93 10.03 22.92 10.02 22.92 10.01 22.93 10 22.93 10 22.93 10.01 22.93 10.02 22.93 10.03"/><path d="M22.87,9.94h0V9.84h0v0h0v0h0Z"/><path d="M22.81,9.88h0l0,0h0v0h0l0,0h0Z"/><path d="M23,10.71Z"/><path d="M23,10.56h0s0,0,0,0l0,0h0l0,0Z"/><path d="M23.09,10.4h0a.06.06,0,0,0,0,0h0s0,0,0,0Z"/><path d="M23.11,10.3h0v0h0s0,0,0,0h0v0h0v0Z"/><path d="M23.14,10.14h0a.43.43,0,0,0,0,0l0,0a.19.19,0,0,1,0-.07v0h0v0a.19.19,0,0,0,0,.07v0l0,0h0a.18.18,0,0,0,0-.09h0a.18.18,0,0,1,0,.1Z"/><path d="M23.21,10h0l0,0h0a.05.05,0,0,1,0,0Z"/><path d="M23.26,10.19h0l0,0h0v0s0,0,0,0h0V10h0v0h0v0s0,0,0,0v0h0l0,0Z"/><path d="M23.33,10.17h0l0,0h0v0h0v0h0v0h0s0,0,0,0h0v0h0Z"/><path d="M23.43,10.15h0a.28.28,0,0,1,0-.09.09.09,0,0,1,0-.05h0v0h0v0h0s0,0,0,0a.28.28,0,0,0,0,.09h0Z"/><path d="M23.35,9.88h0a.07.07,0,0,0,0-.05v0h0a.08.08,0,0,1,0,0s0,0,0,0,0,0,0-.05h0a.12.12,0,0,0,0-.11h0a.16.16,0,0,1,0,.12h0a.08.08,0,0,0,0,0,0,0,0,0,0,0,0,.08.08,0,0,0,0,.05h0a.13.13,0,0,1,0,.06Z"/><path d="M23.52,9.74h0s0,0,0-.06a.18.18,0,0,0,0-.11h0v0h0l0,0h0a.21.21,0,0,1,0,.12.1.1,0,0,1,0,.07Z"/><path d="M23.38,10h0l0-.06h0v0a0,0,0,0,0,0,0V9.79h0v.05a.06.06,0,0,1,0,0v0h0a.12.12,0,0,1-.05,0Z"/><path d="M23.34,9.88h0v0a.1.1,0,0,1,0-.05v0l.06-.09h0l-.06.1h0l0,.06h0Z"/><path d="M23.7,9.37h0s0,0,0,0v0a0,0,0,0,1,0,0l0,0,0,0h0l0,0,0,0v.06a.05.05,0,0,0,0,0Z"/><path d="M23.71,9.28h0a.1.1,0,0,0,0,0h0l0,.06Z"/><path d="M23.67,9.44h0l0,0h0a.08.08,0,0,1,0,0h0a0,0,0,0,0,0,0h0l0,0Z"/><path d="M23.58,9.58h0v0s0,0,0,0h0v0h0s0,0,0,0h0v0Z"/><path d="M23.54,9.81h0a.05.05,0,0,1,0,0h0a.41.41,0,0,0,0-.11h0a.22.22,0,0,1,0,.11h0a.05.05,0,0,0,0,0Z"/><path d="M23.56,9.88h0a.05.05,0,0,1,0,0l.05-.07,0,0s0,0,0,0h0s0,0,0,0l0,0-.05.07s0,0,0,0Z"/><path d="M23.69,9.68h0V9.57h0l-.05-.07h0l.05.07v0a0,0,0,0,1,0,0v.08Z"/><path d="M23.79,9.38h0v0s0,0,0,0h0s0,0,0,0v0Z"/><path d="M23.83,9.33h0s0,0,0-.06h0v0h0v0h0a.19.19,0,0,1,0,.07Z"/><path d="M23.69,9.64h0a.25.25,0,0,0,0-.09h0v0h0a.14.14,0,0,0,0-.07h0a.31.31,0,0,1,.06.13h0a.22.22,0,0,0,0-.11.14.14,0,0,1,0,.06h0a.19.19,0,0,1,0,.1Z"/><path d="M23.84,9.43h0l0,0s0,0,0,0h0a0,0,0,0,1,0,0,0,0,0,0,1,0,0Z"/><path d="M23.52,10.15h0l0,0,.07-.07s0,0,.06,0h0l-.05,0-.08.06,0,0Z"/><path d="M23.63,10h0V9.91s0,0,0,0a.05.05,0,0,1,0,0h0a.19.19,0,0,0,0-.09h0a.12.12,0,0,1,0,.09h0l0,0V10Z"/><path d="M23.79,9.87h0a.13.13,0,0,1,0-.08l0,0,0,0v0s0,0,0,0a.19.19,0,0,0,0-.08h0a.28.28,0,0,1,0,.09v0h0l0,0,0,0,0,.06,0,0,0,0h0A.24.24,0,0,0,24,9.73h0s-.05.06-.09.07h0l0,0,0,0Z"/><path d="M24,9.6h0a.08.08,0,0,0,0,0h0l0,0a.11.11,0,0,1,0,0h0a.06.06,0,0,0,0,0v0h0a.14.14,0,0,1,0,.06Z"/><path d="M24,9.46h0a.4.4,0,0,0,0-.15h0a.37.37,0,0,1,0,.15Z"/><path d="M24,9.47h0a.19.19,0,0,0,0-.07,0,0,0,0,0,0,0h0v0h0v0a0,0,0,0,1,0,0s0,0,0,.07Z"/><path d="M23.66,10.16h0l.05,0h0l0,0h0l0,0Z"/><path d="M23.75,10.17h0a.17.17,0,0,1,0-.12s0,0,0,0l0,0s0,0,0,0l0,0,.05-.06h0l-.05.06,0,0s0,0,0,0l0,0a.05.05,0,0,0,0,0,.14.14,0,0,0,0,.11h0l0,0a.12.12,0,0,0,.05-.05v0h0l0-.05h0a.09.09,0,0,0,0,.05h0v0a.1.1,0,0,1-.05,0l-.06,0Z"/><path d="M23.49,10.68h0v0h0l0,0h0Z"/><path d="M23.55,10.64h0l0,0h0l0,0Z"/><path d="M23.64,10.58h0l0,0h0l0,0Z"/><path d="M23.82,10.43h0v0h0v0h0v0Z"/><path d="M23.77,10.31h0a.11.11,0,0,1,0-.05,0,0,0,0,1,0,0h0v0a.11.11,0,0,0,0,.05Z"/><path d="M23.89,10.3h0a.08.08,0,0,1,0-.05h0l0,0Z"/><path d="M24,10.3h0a.12.12,0,0,1-.06-.08v-.08h0l0,0h0l-.06.07h0a.23.23,0,0,1,.07-.07l0,0,0,0h0a.27.27,0,0,0,0,.09.13.13,0,0,0,.05.07h0Z"/><path d="M23.72,10.22h0v0l0,0h0l0,0h0Z"/><polygon points="23.87 10.18 23.87 10.18 23.87 10.07 23.87 10.07 23.87 10.07 23.88 10.07 23.88 10.18 23.87 10.18 23.87 10.18"/><path d="M23.71,10h0s0,0,0,0v0h0v0h0v0s0,0,0,0Z"/><path d="M23.55,10h0V10h0V10Z"/><path d="M24,9.84h0A.22.22,0,0,0,24,9.75s0,0,0,0h0s0,0,0,0a.16.16,0,0,1,0,.07h0l.05,0a.12.12,0,0,0,0-.05h0s0,0,0,.06l0,0h0Z"/><polygon points="24.01 9.56 24.01 9.55 24.01 9.51 24.01 9.51 24.02 9.51 24.02 9.55 24.01 9.56"/><path d="M23.93,9.73h0v0h0v0Z"/><path d="M23.79,9.67h0s0,0,0,0h0a0,0,0,0,0,0,0Z"/><path d="M24.16,9.92h0l0,0h0l0,0h0Z"/><path d="M24.09,10.08h0A.17.17,0,0,0,24,10h0a.16.16,0,0,1,.1.11s0,0,0,0v0l0-.08h0l0,.08v0s0,0,0,0v.07Z"/><path d="M24,10.14h0s0,0,0,0l0,0h0l0,0h0Z"/><path d="M24,10.29h0l.1-.11h0a.52.52,0,0,0-.1.11Z"/><path d="M24.14,10.32h0v0h0v0h0v0h0v0h0v0h0v0Z"/><path d="M24.19,10.38h0a.14.14,0,0,0,0-.06h0a.14.14,0,0,1,0,.06l0,0h0Z"/><path d="M24.21,10.44h0v0a.12.12,0,0,1,.05-.05h0l0,.05h0Z"/><path d="M24.2,10.56h0l0,0v0h0v0h0s0,0,0,0Z"/><path d="M24.12,10.7h0l0,0,0,0,0,0h0l0,0,0,0,0,0Z"/><path d="M24.3,10.52h0v0h0Z"/><path d="M24.35,10.53h0v0h0v0h0v-.05h0a.11.11,0,0,1,0,.05h0v0Z"/><path d="M24.33,10.4h0v0h0v0h0s0,0,0,0Z"/><path d="M24.42,10.44h0v0h0a.08.08,0,0,0,0,0h0a.17.17,0,0,1,0,.05h0v0Z"/><polygon points="24.22 10.22 24.21 10.22 24.21 10.21 24.22 10.15 24.23 10.15 24.23 10.15 24.23 10.15 24.22 10.21 24.22 10.22"/><path d="M24.15,10.17h0l0,0h0l0,0Z"/><path d="M24.29,10.27h0a0,0,0,0,1,0,0h0v0Z"/><path d="M24.34,10.21h0v-.06a.09.09,0,0,0,0-.05v0h0v0s0,0,0,.05v0h0l0,0h0a.09.09,0,0,0,0,.06Z"/><polygon points="24.41 10.21 24.41 10.2 24.41 10.1 24.41 10.1 24.42 10.1 24.42 10.2 24.41 10.21"/><path d="M24.5,10.29h0v0s0,0,0-.06v0h0a.08.08,0,0,0,0-.08h0a.11.11,0,0,1,0,.08h0v0a.13.13,0,0,0,0,.06v0Z"/><path d="M24.59,10.19h0v0h0v.07Z"/><path d="M24.57,10.07h0l.06,0h0l-.07,0Z"/><path d="M24.62,10h0l0,0v0h0v0l0,0h0Z"/><path d="M24.52,10h0v0h0v0h0v0h0v0Z"/><path d="M24.43,10h0V9.91h0l0,0h0l0,0V10s0,0,0,0h0v0h0a.22.22,0,0,0,0-.08h0a.22.22,0,0,1,0,.08v0h0v0h0a.43.43,0,0,0,0,0h0Z"/><path d="M24.33,10h0v0h0v0Z"/><path d="M24.2,10h0s0,0,0,0h0a.14.14,0,0,0,0-.06h0a.64.64,0,0,0,0,.07h0v0Z"/><path d="M24.12,9.42h0v0l0,0,0,0,0,0h0l0,0,0,0,0,0v0Z"/><path d="M24.12,9.34h0v0h0s0,0,0,0h0Z"/><path d="M24.23,9.48h0a0,0,0,0,0,0,0,.89.89,0,0,0-.08-.17h0a.76.76,0,0,1,.09.18,0,0,0,0,1,0,0Z"/><path d="M24.23,9.32h0v0h0v0h0s0,0,0,0Z"/><path d="M24.34,9.45h0a.08.08,0,0,0,0-.07v0h0l0,0,0,0h0s0,0,0,0l0,0h0v0a.19.19,0,0,1,0,.08Z"/><path d="M24.34,9.38h0a.05.05,0,0,0,0,0s0,0,0,0h0s0,0,0,.05l0,0Z"/><polygon points="24.37 9.48 24.37 9.48 24.37 9.45 24.37 9.45 24.38 9.45 24.38 9.48 24.37 9.48"/><path d="M24.45,9.51h0a.78.78,0,0,0,0-.14h0a.68.68,0,0,1,0,.14h0Z"/><path d="M24,9.83h0v0h0v0Z"/><path d="M24.19,9.85h0a.43.43,0,0,1,0-.05v0a.33.33,0,0,1,0-.06h0a.13.13,0,0,0,0-.08h0a.1.1,0,0,1,0,.08h0l0,.06v0a.43.43,0,0,1,0,.05Z"/><path d="M24.3,9.63h0v0h0a0,0,0,0,1,0,0Z"/><path d="M24.18,9.85h0a.17.17,0,0,1-.06-.06v0a0,0,0,0,1,0,0h0a.18.18,0,0,0,0-.1h0a.23.23,0,0,1,0,.11h0s0,0,0,0v0l.05.06h0Z"/><path d="M24.29,9.86h0a.17.17,0,0,0,0-.14h0a.17.17,0,0,1,0,.14s.05,0,.06-.06v0s0-.07,0-.1a.06.06,0,0,0,0,0h0l0,0h0a.08.08,0,0,0,0,0,.1.1,0,0,0,0-.05l0,0h0l0,0,0,.05a.14.14,0,0,1,0,.06h0l0,0a.08.08,0,0,1,0,0s0,.07,0,.1a0,0,0,0,0,0,0,.16.16,0,0,1-.08.06Z"/><path d="M24.5,9.43h0s0,0,0,0h0v0Z"/><path d="M24.59,9.48h0v0l0-.07h0l.05.07s0,0,0,0Z"/><path d="M24.55,9.58h0a.09.09,0,0,0,0-.07h0v0h0v0h0a.13.13,0,0,1,0,.08Z"/><path d="M24.48,9.74h0V9.68h0a.11.11,0,0,0,0-.08h0a.14.14,0,0,1,0,.09h0v.05Z"/><path d="M24.49,9.79h0a0,0,0,0,1,0,0h0a0,0,0,0,0,0,0Z"/><path d="M24.62,9.83h0l0,0,0,0h0v0h0v0h0l0,0h0Z"/><path d="M24.66,9.69h0v0h0Z"/><path d="M24.74,9.65h0a.18.18,0,0,0-.08-.07h0a.16.16,0,0,1,.07.07Z"/><path d="M24.79,9.63h0v0h0l0,0h0l0,0h0v0Z"/><path d="M24.84,9.53Z"/><path d="M24.8,9.44h0v0l0,0h0l0,0v0Z"/><path d="M24.71,9.46h0l0,0h0Z"/><path d="M24.7,9.39h0l0,0h0l0,0v0Z"/><path d="M24.94,9.41h0v0h0a0,0,0,0,0,0,0h0s0,0,0,0h0Z"/><path d="M24.89,9.38h0v0h0v0h0Z"/><polygon points="24.77 9.45 24.77 9.45 24.77 9.42 24.77 9.41 24.78 9.41 24.78 9.42 24.78 9.42 24.78 9.45 24.77 9.45 24.77 9.45"/><path d="M23.91,10.37h0Z"/><path d="M23,8.3h0Z"/><path d="M23.18,8.41h0s0,0,0,0l0,0h0l0,0s0,0,0,0Z"/><path d="M23.33,8.4h0a.13.13,0,0,0,0-.08l-.06-.05h0l.07.05a.11.11,0,0,1,0,.08Z"/><path d="M23.23,8.27h0l0,0h0l0,0,0,0Z"/><path d="M23.4,8.24h0V8.18l0,0a.05.05,0,0,0,0,0h0l.05,0,0,0a.15.15,0,0,1,0,.07Z"/><path d="M23.47,8.42h0s0,0,0-.05a.06.06,0,0,0,0-.06,0,0,0,0,1,0,0l0,0h0l0,0,0,0a.07.07,0,0,1,0,.06.1.1,0,0,1,0,.05Z"/><path d="M23.59,8.24h0a.08.08,0,0,0,0-.08h0a.1.1,0,0,1,0,.09Z"/><path d="M23.76,8.29h0v0h0v0h0v0l0,0h0l0,0v0h0v0h0l0,0Z"/><path d="M23.9,8.35h0l0,0s0,0,0,0h0a.08.08,0,0,1,0,.05l0,0Z"/><path d="M24,8.42h0l0,0h0v0h0v0h0l0,0Z"/><path d="M24.21,8.47h0l0,0h0a0,0,0,0,0,0,0h0a0,0,0,0,1,0,0v0l0,0Z"/><path d="M24.33,8.48h0l0,0v0h0s0,0,0,0,0,0,0,0,0,0,0,0Z"/><path d="M23.64,8.46h0a.12.12,0,0,0,.08-.06.14.14,0,0,0,0-.09h0a.09.09,0,0,1,0,.1.22.22,0,0,1-.07.06Z"/><path d="M23.77,8.52h.08a.08.08,0,0,0,0-.07h0a.09.09,0,0,1-.06.09Z"/><path d="M24,8.65H24l0,0a.09.09,0,0,0,0,0h0a.07.07,0,0,1,0,0l0,0H24Z"/><path d="M24.13,8.77h.11s0,0,0,0h0a0,0,0,0,1,0,0l0,0Z"/><path d="M24.32,8.84h0l.05,0a0,0,0,0,0,0,0h0v0h0v0h0s0,0,0,0l-.05,0Z"/><path d="M24.47,8.87h0s0,0,0,0,0,0,0,0h0l0,0,0,0Z"/><path d="M22.93,8.54s0,0,0,0,0,0,0,0a0,0,0,0,1,0,0A0,0,0,0,1,22.89,8.54Z"/><path class="cls-1" d="M20.25,30.73a7.87,7.87,0,0,1-7.86-7.86V13.5H28.11v9.37A7.87,7.87,0,0,1,20.25,30.73Z"/><path class="cls-2" d="M20.25,30.59a7.74,7.74,0,0,1-7.74-7.73V13.64H28v9.22A7.74,7.74,0,0,1,20.25,30.59Z"/><rect class="cls-1" x="18.76" y="13.94" width="2.97" height="3.27"/><rect class="cls-1" x="15.79" y="17.21" width="2.97" height="3.27"/><rect class="cls-1" x="21.73" y="17.21" width="2.97" height="3.27"/><rect class="cls-1" x="15.79" y="23.74" width="2.97" height="3.27"/><rect class="cls-1" x="21.73" y="23.74" width="2.97" height="3.27"/><rect class="cls-1" x="12.82" y="13.94" width="2.97" height="3.27"/><rect class="cls-1" x="24.7" y="13.94" width="2.97" height="3.27" transform="translate(52.38 31.15) rotate(180)"/><rect class="cls-1" x="18.76" y="20.47" width="2.97" height="3.27"/><path class="cls-1" d="M15.79,20.47v3.27H12.87a6.55,6.55,0,0,1,0-.89V20.47Z"/><path class="cls-1" d="M27.67,20.47v2.38a6.55,6.55,0,0,1-.05.89H24.7V20.47Z"/><path class="cls-1" d="M21.73,27v3.13a9.26,9.26,0,0,1-3,0V27Z"/><path class="cls-1" d="M15.79,27v1.8a7.46,7.46,0,0,1-1.7-1.8Z"/><path class="cls-1" d="M26.4,27a7.42,7.42,0,0,1-1.7,1.79V27Z"/></g></g></svg>