<svg xmlns="http://www.w3.org/2000/svg" viewBox="0 0 40.5 40.5"><defs><style>.cls-1{fill:#00209f;}.cls-2{fill:#d21034;}.cls-3{fill:#fff;}.cls-4{fill:#f1b517;}.cls-5{fill:#016a16;}.cls-6{fill:#0a328c;}.cls-7{fill:#d20014;}.cls-8{fill:#231f20;}.cls-9{fill:#503200;}.cls-10{fill:#1a7116;}</style></defs><g id="Ebene_2" data-name="Ebene 2"><g id="Ńëîé_1" data-name="Ńëîé 1"><path class="cls-1" d="M40.5,20.25H0a20.25,20.25,0,0,1,40.5,0Z"/><path class="cls-2" d="M40.5,20.25a20.25,20.25,0,0,1-40.5,0Z"/><rect class="cls-3" x="13.86" y="15.01" width="12.77" height="10.47"/><polygon class="cls-4" points="21.52 19.55 20.59 21.38 20.79 21.44 21.69 19.55 21.52 19.55"/><path d="M20.8,21.46l-.23-.08.94-1.84h.2Zm-.19-.09.18.06.88-1.86h-.14Z"/><path class="cls-4" d="M20.39,18.26h-.3l0-.14h.25A.59.59,0,0,0,20.39,18.26Z"/><path d="M20.41,18.28h-.33v0a.78.78,0,0,0,0-.14v0h.27v0a.59.59,0,0,1,0,.14Zm-.3,0h.27a.5.5,0,0,1,0-.12h-.23A.5.5,0,0,0,20.11,18.25Z"/><path class="cls-4" d="M20.43,18.54h-.38a2.36,2.36,0,0,0,0-.28h.3C20.41,18.36,20.42,18.45,20.43,18.54Z"/><path d="M20.45,18.55H20c0-.11,0-.2,0-.28h.32a1.88,1.88,0,0,1,0,.28Zm-.38,0h.35c0-.1,0-.18,0-.25H20.1C20.09,18.35,20.08,18.43,20.07,18.53Z"/><path class="cls-5" d="M26.63,24.11v1.37H13.86V24.11a1.59,1.59,0,0,1,.41-.21l2.85-1.11a3,3,0,0,1,1.49-.31,1.74,1.74,0,0,1,.54.19,2.19,2.19,0,0,1,.46.34l.1.11.09.11a.87.87,0,0,1,.09.11.31.31,0,0,1,.06.13.45.45,0,0,1,0,.16l.26.23.27-.23a.44.44,0,0,1,0-.16.52.52,0,0,1,.06-.13l.09-.11a1.09,1.09,0,0,0,.1-.11l.09-.11a2.19,2.19,0,0,1,.46-.34,1.74,1.74,0,0,1,.54-.19,3,3,0,0,1,1.49.31l2.85,1.11A1.83,1.83,0,0,1,26.63,24.11Z"/><polygon class="cls-4" points="18.97 19.55 19.89 21.38 19.69 21.44 18.79 19.55 18.97 19.55"/><path d="M19.68,21.46l-.91-1.92H19l.93,1.83Zm-.87-1.89.89,1.86.18-.06L19,19.57Z"/><polygon class="cls-4" points="19.98 20.54 19.72 19.36 19.5 19.36 19.99 21.44 19.98 20.54"/><path d="M20,21.56l-.52-2.21h.24L20,20.54Zm-.49-2.19L20,21.32v-.78l-.26-1.17Z"/><path class="cls-6" d="M19,20.26a.62.62,0,0,0-.14-.18c-.33-.33-.6-.71-.9-1.06a1.22,1.22,0,0,0-.17-.15.35.35,0,0,0-.22-.06.31.31,0,0,0-.2.17.66.66,0,0,0-.07.25c0,.12,0,.25-.05.37a.59.59,0,0,0,0,.19.44.44,0,0,0,.18.2l1.39,1.06c.06,0,.13.08.19,0s0-.08,0-.13a1.49,1.49,0,0,0,0-.21,1.25,1.25,0,0,1,0-.19C19,20.45,19.06,20.36,19,20.26Z"/><path d="M19,21.12a.29.29,0,0,1-.15-.06L17.43,20a.47.47,0,0,1-.18-.21.4.4,0,0,1,0-.19c0-.12,0-.25,0-.37a1.12,1.12,0,0,1,.08-.26.32.32,0,0,1,.21-.17.35.35,0,0,1,.23.06A1.25,1.25,0,0,1,18,19c.11.12.21.26.32.38a7.32,7.32,0,0,0,.58.67h0a.79.79,0,0,1,.14.17h0a.38.38,0,0,1,0,.21s0,.06,0,.1,0,.08,0,.12a.64.64,0,0,1,0,.07c0,.07,0,.14,0,.21a.21.21,0,0,1,0,.15Zm-1.36-2.3h0a.3.3,0,0,0-.19.15.78.78,0,0,0-.07.25c0,.12,0,.25,0,.38a.91.91,0,0,0,0,.17.5.5,0,0,0,.18.2L18.84,21c.07.06.13.07.17,0s0-.08,0-.12a1.49,1.49,0,0,0,0-.21s0,0,0-.07a.5.5,0,0,1,0-.12.41.41,0,0,1,0-.11.26.26,0,0,0,0-.19.65.65,0,0,0-.13-.16h0a7.32,7.32,0,0,1-.58-.67L18,19a1.14,1.14,0,0,0-.17-.15A.27.27,0,0,0,17.61,18.82Z"/><polygon class="cls-4" points="19.32 19.28 20.05 21.39 20.05 21.84 19.07 19.28 19.32 19.28"/><path d="M20.07,21.91l-1-2.65h.27l.75,2.12Zm-1-2.62L20,21.76v-.37l-.73-2.09Z"/><path class="cls-7" d="M19.1,20.34a.41.41,0,0,0-.17-.12.18.18,0,0,0-.16.05.34.34,0,0,0-.05.26,1.38,1.38,0,0,0,.49.89c.15.12.33.21.49.32A2.15,2.15,0,0,1,20,22s.09.08.14.06a.14.14,0,0,0,.05-.08.7.7,0,0,0,0-.35,1.1,1.1,0,0,0-.09-.14l-.12-.16c-.17-.22-.34-.43-.52-.63S19.21,20.44,19.1,20.34Z"/><path d="M20.09,22.05A.19.19,0,0,1,20,22a3,3,0,0,0-.27-.23l-.2-.13a3,3,0,0,1-.3-.19,1.4,1.4,0,0,1-.49-.9.34.34,0,0,1,.06-.27.18.18,0,0,1,.16-.05.31.31,0,0,1,.18.12l.31.33c.18.2.35.41.52.63l.12.16,0,0a.41.41,0,0,1,.07.11.52.52,0,0,1,0,.35.13.13,0,0,1-.06.09ZM18.9,20.23a.18.18,0,0,0-.12.05.35.35,0,0,0-.05.25,1.35,1.35,0,0,0,.49.88,2.9,2.9,0,0,0,.29.19,1.37,1.37,0,0,1,.2.13A3.11,3.11,0,0,1,20,22q.07.08.12.06s0,0,0-.08a.53.53,0,0,0,0-.33l-.07-.11,0,0-.12-.16c-.17-.22-.34-.43-.52-.63s-.2-.23-.31-.33a.28.28,0,0,0-.16-.11Z"/><path class="cls-6" d="M16.32,20.64c-.12-.06-.25-.13-.37-.07a.32.32,0,0,0-.12.36c0,.13.1.25.13.38s0,.32,0,.48a1.41,1.41,0,0,0,.25.61l.33.56a2.1,2.1,0,0,0,.22.3.71.71,0,0,0,.56.16.66.66,0,0,0,.45-.35c.06-.12.09-.26.2-.32a.77.77,0,0,1,.3-.06.51.51,0,0,0,.36-.26.46.46,0,0,0,.06-.28.32.32,0,0,0-.05-.19c0-.07-.14-.1-.21-.14l-.29-.16L17,21Z"/><path d="M17.2,23.44a.68.68,0,0,1-.45-.17,1.34,1.34,0,0,1-.22-.31l-.33-.56a1.44,1.44,0,0,1-.25-.61.74.74,0,0,1,0-.21,1.11,1.11,0,0,0,0-.26,1.66,1.66,0,0,0-.06-.21.64.64,0,0,1-.06-.18.31.31,0,0,1,.12-.37.41.41,0,0,1,.38.07l2.12,1.18,0,0a.31.31,0,0,1,.16.11.33.33,0,0,1,.05.2.52.52,0,0,1-.05.28.53.53,0,0,1-.38.27h-.09a.39.39,0,0,0-.2.05.38.38,0,0,0-.15.22s0,.07,0,.1a.64.64,0,0,1-.46.35Zm-1.15-2.88-.09,0a.29.29,0,0,0-.12.34,1,1,0,0,0,.06.18,1.72,1.72,0,0,1,.07.21,1.22,1.22,0,0,1,0,.27,1.48,1.48,0,0,0,0,.21,1.45,1.45,0,0,0,.25.6l.33.56a1.66,1.66,0,0,0,.22.3.63.63,0,0,0,.54.15.6.6,0,0,0,.45-.34.36.36,0,0,0,0-.09.48.48,0,0,1,.16-.23.41.41,0,0,1,.21,0h.1a.52.52,0,0,0,.35-.26.5.5,0,0,0,0-.46.44.44,0,0,0-.15-.1l-.06,0-2.11-1.18A.58.58,0,0,0,16.05,20.56Z"/><path class="cls-6" d="M17.06,19.68a.91.91,0,0,0-.28-.17.28.28,0,0,0-.3.09.43.43,0,0,0,0,.19,2.17,2.17,0,0,0,0,.36,2.7,2.7,0,0,0,.06.41.57.57,0,0,0,.07.22.28.28,0,0,0,.09.1l.12,0,.32.17.63.35q.36.19.72.42a.27.27,0,0,0,.15.05c.1,0,.15-.12.17-.22a1.45,1.45,0,0,0,0-.55A.41.41,0,0,0,18.7,21a1.3,1.3,0,0,0-.18-.15c-.31-.25-.62-.5-.94-.74Z"/><path d="M18.6,21.92a.33.33,0,0,1-.15-.05l-.72-.42-.63-.35L17,21.05l-.22-.12h-.05l-.08,0a.43.43,0,0,1-.09-.1,1,1,0,0,1-.08-.23c0-.13,0-.27,0-.41v-.06c0-.1,0-.2,0-.3a.53.53,0,0,1,0-.19.27.27,0,0,1,.31-.1.85.85,0,0,1,.29.17l1.46,1.16,0,0a.75.75,0,0,1,.13.11.41.41,0,0,1,.07.15h0a1.32,1.32,0,0,1,0,.56c0,.06-.06.21-.18.22Zm-1.91-2.41a.25.25,0,0,0-.2.1.37.37,0,0,0,0,.18,1.51,1.51,0,0,0,0,.3v.06a2.87,2.87,0,0,0,.05.41.52.52,0,0,0,.07.21.28.28,0,0,0,.09.1l.07,0,.05,0L17,21l.1.06.62.35c.24.13.49.27.72.42a.3.3,0,0,0,.15,0c.1,0,.14-.15.15-.21a1.1,1.1,0,0,0,0-.54h0a.25.25,0,0,0-.06-.14,1.31,1.31,0,0,0-.12-.11l-.06,0-1.46-1.16a.73.73,0,0,0-.28-.17Z"/><polygon class="cls-4" points="17.82 18.79 20.15 21.37 20.03 21.51 17.63 18.75 17.82 18.79"/><path class="cls-8" d="M20,21.53h0l-2.43-2.8.24.06h0l2.34,2.59Zm-2.36-2.76L20,21.49l.1-.12L17.81,18.8Z"/><path class="cls-7" d="M18.7,21a.22.22,0,0,0-.41.13,1.1,1.1,0,0,0,0,.54.27.27,0,0,0-.2.19.94.94,0,0,0,0,.29,1.8,1.8,0,0,0,.26.79,1.29,1.29,0,0,0,.56.39,3.29,3.29,0,0,0,.67.17.5.5,0,0,0,.32,0,.46.46,0,0,0,.21-.29,1.65,1.65,0,0,0,.09-.54,2.46,2.46,0,0,0,0-.28l0-.14s0-.08,0-.11S20,22,19.94,22l-.23-.18-.47-.37Z"/><path d="M19.8,23.52l-.18,0a4.33,4.33,0,0,1-.67-.16,1.3,1.3,0,0,1-.57-.4,1.84,1.84,0,0,1-.26-.8.57.57,0,0,1,0-.29.27.27,0,0,1,.19-.2,1.18,1.18,0,0,1,0-.53c0-.12.06-.19.13-.22s.21,0,.3.08h0l.54.4.46.38.24.18L20,22l.14.11a.3.3,0,0,1,0,.1v0l0,.13a1.42,1.42,0,0,1,0,.29,1.71,1.71,0,0,1-.09.55.42.42,0,0,1-.22.29A.32.32,0,0,1,19.8,23.52Zm-1.32-2.61-.06,0c-.06,0-.09.09-.11.2a1.19,1.19,0,0,0,0,.53v0h0a.25.25,0,0,0-.19.18.88.88,0,0,0,0,.28,1.62,1.62,0,0,0,.27.78,1.1,1.1,0,0,0,.55.39,3.21,3.21,0,0,0,.66.17.54.54,0,0,0,.31,0,.43.43,0,0,0,.21-.28,1.65,1.65,0,0,0,.09-.54,2.46,2.46,0,0,0,0-.28l0-.14v0a.11.11,0,0,0,0-.08L20,22,19.93,22l-.23-.18-.47-.37L18.69,21h0A.43.43,0,0,0,18.48,20.91Z"/><polygon class="cls-4" points="16.84 19.41 20.26 22.06 20.15 22.23 16.74 19.5 16.84 19.41"/><path class="cls-8" d="M20.15,22.25h0l-3.42-2.73.12-.12h0l3.44,2.66ZM16.76,19.5l3.39,2.71.09-.15-3.4-2.63Z"/><path class="cls-4" d="M19.75,22a.07.07,0,0,0,0-.07s-.05,0-.06,0a.19.19,0,0,0,0,.08l0,.13,0,.33,0,0s0,0,.05,0l.05,0s0,0,0,0l0-.12-.05-.24Z"/><path class="cls-8" d="M19.78,22.61a.07.07,0,0,1-.06,0s0,0,0,0l-.06-.33a.59.59,0,0,0,0-.13.27.27,0,0,1,0-.09.08.08,0,0,1,.09,0s0,.05,0,.08l.09.49h0a0,0,0,0,1,0,0,.11.11,0,0,1-.06,0ZM19.7,22a0,0,0,0,0,0,0,.11.11,0,0,0,0,.08.5.5,0,0,0,0,.12l.06.34s0,0,0,0,0,0,0,0l0,0v0h0L19.74,22s0-.05,0-.06Z"/><polygon class="cls-3" points="19.33 18.39 19.6 19.5 19.44 19.5 19.33 18.39"/><path d="M19.62,19.52h-.19l-.12-1.13h0Zm-.16,0h.12l-.22-.91Z"/><polygon class="cls-3" points="18.85 18.39 19.25 19.49 19.05 19.49 18.85 18.39"/><path d="M19.27,19.5H19l-.2-1.11h0Zm-.21,0h.17l-.34-.94Z"/><polygon class="cls-3" points="18.39 18.7 18.94 19.75 18.73 19.75 18.39 18.7"/><path d="M19,19.76h-.23l-.36-1.06h0Zm-.22,0h.18l-.47-.89Z"/><polygon class="cls-4" points="16.16 20.48 20.23 22.73 20.07 22.86 16.05 20.56 16.16 20.48"/><path class="cls-8" d="M20.08,22.88h0L16,20.56l.14-.09h0l4.09,2.26Zm-4-2.32,4,2.29.13-.12-4-2.23Z"/><polygon class="cls-4" points="16.96 17.9 17.44 18.21 17.44 18.45 17.18 18.43 16.96 17.9"/><path d="M17.46,18.46h-.28l-.25-.58.53.34Zm-.27,0,.24,0v-.22L17,17.94Z"/><polygon class="cls-4" points="17.61 18.29 17.23 18.58 17.46 18.78 17.77 18.53 17.61 18.29"/><path d="M17.46,18.79l-.25-.21.4-.31.18.27Zm-.21-.21.21.18.29-.23-.14-.22Z"/><polygon class="cls-4" points="15.86 18.72 16.39 18.93 16.39 19.15 16.15 19.17 15.86 18.72"/><path d="M16.15,19.19l-.32-.49.57.22v.24Zm-.25-.44.26.41.22,0v-.2Z"/><polygon class="cls-4" points="16.22 19.31 16.54 18.97 16.71 19.16 16.41 19.45 16.22 19.31"/><path d="M16.41,19.46l-.21-.15.34-.36.19.21Zm-.17-.15.17.12.28-.27L16.54,19Z"/><polygon class="cls-4" points="15.67 20.28 15.63 20.07 15.08 19.95 15.42 20.34 15.67 20.28"/><path d="M15.41,20.36,15,19.93l.61.13,0,.23Zm-.3-.39.31.36.24-.06,0-.19Z"/><polygon class="cls-4" points="16 20.28 15.79 20.1 15.52 20.48 15.76 20.59 16 20.28"/><path d="M15.77,20.6l-.27-.11.29-.41.23.2Zm-.23-.12.22.09.22-.29-.19-.16Z"/><path class="cls-6" d="M18,18.49a.29.29,0,0,0-.18,0l-.14.07a1.05,1.05,0,0,0-.27.2A1.92,1.92,0,0,1,17,19,.15.15,0,0,0,17,19s0,.05,0,.08a.24.24,0,0,0,.08.06s0,0,0,0l.22-.24a.68.68,0,0,1,.27-.18c.07,0,.15,0,.22,0a.65.65,0,0,0,.24-.06S18,18.51,18,18.49Z"/><path class="cls-7" d="M18.06,18.67a.07.07,0,0,0,0-.06s0,0-.05,0-.13.05-.2.06-.15,0-.23,0a.17.17,0,0,0-.14.07l-.11.13c-.07.09-.17.16-.24.25a.13.13,0,0,0,0,.07.18.18,0,0,0,.05.07l.1.06.06,0a.1.1,0,0,0,.05,0l0-.06a.88.88,0,0,1,.09-.2.22.22,0,0,1,.11-.12.26.26,0,0,1,.15,0c.07,0,.13,0,.19,0Z"/><path class="cls-5" d="M18.29,22.13s.06.07.1.08a.25.25,0,0,0,.16-.05.51.51,0,0,0,.14-.41.11.11,0,0,0,0-.07h-.4c-.08,0-.08.13-.07.2A.55.55,0,0,0,18.29,22.13Z"/><path class="cls-3" d="M18.42,22.22h0a.21.21,0,0,1-.11-.08h0a.49.49,0,0,1-.1-.26c0-.07,0-.18.08-.21a.14.14,0,0,1,.11,0h.3a.08.08,0,0,1,0,.08.5.5,0,0,1-.15.42A.24.24,0,0,1,18.42,22.22Zm-.12-.1s.06.07.09.07a.17.17,0,0,0,.15,0,.56.56,0,0,0,.14-.4s0,0,0-.06h-.39c-.07,0-.07.1-.06.19a.42.42,0,0,0,.09.24Z"/><path class="cls-6" d="M16.85,19.15a.25.25,0,0,0-.19,0l-.12.08a2.73,2.73,0,0,0-.23.25,1.35,1.35,0,0,1-.26.32l-.05.06s0,.05.05.07l.09,0s0,0,0,0l.17-.28a.69.69,0,0,1,.23-.22l.21-.07a.65.65,0,0,0,.22-.11C17,19.23,16.88,19.16,16.85,19.15Z"/><path class="cls-7" d="M17,19.3a.06.06,0,0,0,0-.06s0,0-.06,0-.11.08-.17.1-.17,0-.24,0a.22.22,0,0,0-.13.1,1,1,0,0,0-.07.15c-.06.1-.14.19-.2.29a.19.19,0,0,0,0,.08s0,0,.06.05l.11.05h.06a.07.07,0,0,0,0-.05.14.14,0,0,0,0-.06,1.6,1.6,0,0,1,.05-.21.29.29,0,0,1,.09-.15.32.32,0,0,1,.14,0c.07,0,.14,0,.19-.05A1.37,1.37,0,0,0,17,19.3Z"/><path class="cls-6" d="M16.11,20.16a.23.23,0,0,0-.18.05.32.32,0,0,0-.1.1,1.75,1.75,0,0,0-.18.29,1.39,1.39,0,0,1-.2.36s0,.05,0,.07,0,0,.06.06a.19.19,0,0,0,.1,0s0,0,0,0l.11-.3a.58.58,0,0,1,.19-.27l.19-.11c.06,0,.16-.08.19-.15S16.15,20.17,16.11,20.16Z"/><path class="cls-7" d="M16.27,20.29a.06.06,0,0,0,0-.06s0,0-.06,0-.1.1-.16.13-.16,0-.23,0a.28.28,0,0,0-.11.13.94.94,0,0,0,0,.16c0,.11-.1.21-.14.32a.08.08,0,0,0,0,.08s0,0,.06,0l.12,0h.06a.07.07,0,0,0,0-.06.13.13,0,0,0,0-.06,1.62,1.62,0,0,1,0-.22.28.28,0,0,1,.06-.16.25.25,0,0,1,.14-.06c.07,0,.14,0,.17-.08A1,1,0,0,0,16.27,20.29Z"/><polygon class="cls-4" points="19.8 23.44 18.75 23.11 18.35 22.35 16.92 22.29 16.91 22.86 18.14 23.07 18.3 23.31 19.8 23.77 19.8 23.44"/><path d="M19.82,23.79l-1.53-.47-.16-.24-1.23-.21v-.6l1.45.06.4.77,1.06.33ZM18.3,23.3l1.49.45v-.3l-1.05-.32h0l-.4-.76-1.4-.06,0,.55,1.23.2Z"/><polygon class="cls-9" points="18.77 23.6 17.35 21.46 17.25 21.51 18.66 23.67 18.77 23.6"/><path d="M18.65,23.69,17.23,21.5l.12-.06,1.44,2.17Zm-1.38-2.18,1.39,2.15.1-.06-1.42-2.12Z"/><path class="cls-3" d="M19.34,21.67h0a.3.3,0,0,0-.08.17.28.28,0,0,0,0,.12l.09.18,0,0s0,0,0,0a.58.58,0,0,1,.18-.17.15.15,0,0,0,.07,0s0-.05,0-.07-.06,0-.08,0a.56.56,0,0,1-.17-.09A.27.27,0,0,1,19.34,21.67Z"/><path d="M19.38,22.18h0s0,0,0,0L19.26,22a.28.28,0,0,1,0-.13.3.3,0,0,1,.08-.18h0s0,0,0,0h0a.46.46,0,0,0,.07.07.35.35,0,0,0,.16.08h0l.06,0s0,0,0,0a.11.11,0,0,1,0,.06L19.6,22h0a.46.46,0,0,0-.17.17S19.4,22.18,19.38,22.18Zm-.06-.51h0a.27.27,0,0,0-.08.16.56.56,0,0,0,0,.12l.09.18h0a.52.52,0,0,1,.18-.18h0l.05,0a.11.11,0,0,0,0-.05h-.08a.31.31,0,0,1-.18-.09.27.27,0,0,1-.07-.08Z"/><path class="cls-3" d="M19.88,21.91s0,0,0,0,0,0,0,0h0l-.11,0h0a0,0,0,0,0,0,0,.07.07,0,0,0,0,.05h0Z"/><path d="M19.73,22h0s0,0,0-.06,0,0,0-.05h.05l.1,0h0s0,0,0,0,0,0,0,0h0a.28.28,0,0,1-.13,0h0Zm0-.1h0v0s0,0,0,0h0a.27.27,0,0,0,.12,0h-.13Z"/><path class="cls-3" d="M19.73,21.84s0-.07-.05-.08a0,0,0,0,0,0,0,.08.08,0,0,0,0,0,.28.28,0,0,0,0,.09.16.16,0,0,0,0,.09s.07.05.09,0A.26.26,0,0,0,19.73,21.84Z"/><path d="M19.7,22a.16.16,0,0,1-.07,0,.13.13,0,0,1,0-.1.14.14,0,0,1,0-.09.06.06,0,0,1,0-.05,0,0,0,0,1,.05,0,.1.1,0,0,1,.06.08h0a.2.2,0,0,1,0,.17s0,0,0,0Zm0-.26h0s0,0,0,0,0,.06,0,.09a.13.13,0,0,0,0,.08l.06,0a0,0,0,0,0,0,0,.36.36,0,0,0,0-.15h0a.1.1,0,0,0,0-.07Z"/><path class="cls-4" d="M18.78,23.82a.07.07,0,0,0,0,.06A.3.3,0,0,0,19,24a.36.36,0,0,0,.2-.06s0,0,0,0a0,0,0,0,0,0-.05,0,0,0,0,0,0,0,.24.24,0,0,0-.14-.05v-.17h.15a.41.41,0,0,1,.07-.11V23a.86.86,0,0,0-.18-.14h0v-.14H19v.26h-.07v.82l-.09,0S18.78,23.79,18.78,23.82Zm.22-.68A.21.21,0,0,1,19,23s.06-.09.11-.07a.2.2,0,0,1,.08.12.86.86,0,0,1,0,.16.33.33,0,0,1,0,.1.14.14,0,0,1,0,.09l-.05,0a.07.07,0,0,1-.05,0A.38.38,0,0,1,19,23.14Z"/><path d="M19,24h0a.27.27,0,0,1-.19-.08.08.08,0,0,1,0-.07h0a.07.07,0,0,1,.06-.07l.09,0V22.9H19v-.26h.14l0,.16a1.77,1.77,0,0,1,.17.14h0v.52h0a.61.61,0,0,0-.07.1h-.15v.15a.33.33,0,0,1,.14,0l0,.05a.07.07,0,0,1,0,.06l0,0A.49.49,0,0,1,19,24Zm-.22-.15a.05.05,0,0,0,0,.05.26.26,0,0,0,.18.07.26.26,0,0,0,.19-.05s0,0,0,0,0,0,0,0a0,0,0,0,0,0,0,.21.21,0,0,0-.13-.05h0v-.2h.16l.07-.09V23a1.53,1.53,0,0,0-.17-.14h0v-.15H19v.26h-.07v.83h-.1s-.05,0-.05.05Zm.35-.38h0a.07.07,0,0,1-.06,0,.46.46,0,0,1-.1-.26h0A.32.32,0,0,1,19,23s.08-.1.13-.08a.18.18,0,0,1,.09.14.38.38,0,0,1,0,.1v.16a.14.14,0,0,1,0,.1Zm-.13-.3a.34.34,0,0,0,.09.24s0,0,0,0l0,0a.13.13,0,0,0,0-.08v-.25a.17.17,0,0,0-.08-.12s-.08,0-.09.06a.28.28,0,0,0,0,.13Z"/><polygon class="cls-4" points="18.86 22.2 15.86 21.91 15.8 22.35 18.85 22.66 18.86 22.2"/><path d="M18.86,22.67l-3.07-.31.06-.46h0l3,.29Zm-3-.33,3,.3v-.43l-3-.28Z"/><rect class="cls-4" x="15.75" y="21.84" width="0.15" height="0.59" transform="translate(30.46 45.07) rotate(-176.98)"/><path d="M15.9,22.45h-.18l0-.62h.17Zm-.15,0h.12l0-.57h-.12Z"/><rect class="cls-4" x="16.28" y="21.86" width="0.11" height="0.59" transform="translate(31.48 45.14) rotate(-177.01)"/><path d="M16.38,22.47h-.13l0-.62h.13Zm-.11,0h.08l0-.56H16.3Z"/><path class="cls-4" d="M18.75,22.73l0-.59h.15v.19a.17.17,0,0,1,.13-.07.17.17,0,0,1,.17.16.18.18,0,0,1-.17.17.17.17,0,0,1-.14-.09v.24Z"/><path d="M18.91,22.75h-.17l0-.62h.17v.17a.15.15,0,0,1,.12-.05.18.18,0,0,1,.18.17.18.18,0,0,1-.18.18.16.16,0,0,1-.13-.06Zm-.15,0h.12l0-.27,0,0a.16.16,0,0,0,.13.08.15.15,0,0,0,.15-.15.15.15,0,0,0-.27-.08l0,0v-.22h-.12Z"/><polygon class="cls-4" points="17.26 22.69 17.44 22.06 17.14 22.04 17.19 22.69 17.26 22.69"/><path d="M17.27,22.71h-.09L17.13,22l.32,0Zm-.07,0h.05l.17-.6-.26,0Z"/><polygon class="cls-4" points="17.16 22.71 16.76 22.2 16.59 22.41 17.12 22.8 17.16 22.71"/><path d="M17.13,22.82l-.56-.41.19-.23.42.53Zm-.52-.42.51.38,0-.07-.39-.48Z"/><polygon class="cls-4" points="17.09 22.81 16.42 22.76 16.47 22.97 17.12 22.86 17.09 22.81"/><path d="M16.46,23l-.06-.24.7.06,0,.07Zm0-.21,0,.18.62-.1,0,0Z"/><polygon class="cls-4" points="17.12 22.9 16.59 23.27 16.75 23.45 17.18 22.93 17.12 22.9"/><path d="M16.75,23.46l-.18-.19.55-.38.08,0Zm-.14-.18.14.15.41-.49,0,0Z"/><polygon class="cls-4" points="17.22 22.96 17.09 23.58 17.33 23.6 17.27 22.96 17.22 22.96"/><path d="M17.34,23.62l-.26,0,.13-.64h.08Zm-.23-.05.21,0L17.26,23h0Z"/><polygon class="cls-4" points="17.36 22.92 17.84 23.34 17.68 23.48 17.29 22.96 17.36 22.92"/><path d="M17.68,23.5,17.27,23l.09,0,.5.43ZM17.31,23l.38.5.13-.12-.47-.4Z"/><polygon class="cls-4" points="17.41 22.79 18.04 22.73 18.02 22.97 17.36 22.88 17.41 22.79"/><path d="M18,23l-.7-.09.06-.11.66-.06Zm-.66-.11L18,23l0-.2-.61.06Z"/><polygon class="cls-4" points="17.33 22.7 17.74 22.2 17.91 22.41 17.37 22.77 17.33 22.7"/><path d="M17.37,22.79l-.06-.09.43-.52.19.23Zm0-.09,0,.05.51-.35-.15-.18Z"/><circle class="cls-4" cx="17.25" cy="22.82" r="0.19"/><path d="M17.25,23a.2.2,0,0,1-.21-.2.21.21,0,1,1,.41,0A.2.2,0,0,1,17.25,23Zm0-.38a.18.18,0,0,0,0,.36.18.18,0,0,0,0-.36Z"/><path class="cls-4" d="M16.34,22.82a.91.91,0,1,0,.91-.91A.91.91,0,0,0,16.34,22.82Zm.17,0a.74.74,0,1,1,1.47,0,.74.74,0,0,1-1.47,0Z"/><path d="M17.25,23.74a.92.92,0,1,1,.92-.92A.92.92,0,0,1,17.25,23.74Zm0-1.81a.89.89,0,1,0,.89.89A.89.89,0,0,0,17.25,21.93Zm0,1.64a.75.75,0,1,1,.75-.75A.75.75,0,0,1,17.25,23.57Zm0-1.47a.72.72,0,1,0,.72.72A.73.73,0,0,0,17.25,22.1Z"/><path class="cls-3" d="M17.27,21.24a.2.2,0,0,0-.08-.1.09.09,0,0,0-.12,0,.1.1,0,0,0,0,.09.2.2,0,0,0,0,.08l.08.15a.15.15,0,0,0,0,.06s.06,0,.09,0,.08,0,.06-.1Z"/><path d="M17.24,21.53h0s0-.05-.06-.07l-.09-.14a.32.32,0,0,1,0-.09.11.11,0,0,1,0-.1.11.11,0,0,1,.14,0,.2.2,0,0,1,.08.1h0l0,.05.06.11c0,.05,0,.08-.05.1h0Zm-.11-.4-.05,0a.11.11,0,0,0,0,.08.59.59,0,0,0,0,.08l.08.14s0,.05.05.05,0,0,.07,0h0s.05,0,0-.07a.33.33,0,0,0-.06-.1l0-.06h0a.23.23,0,0,0-.08-.09Z"/><path class="cls-3" d="M18.51,23.62a.35.35,0,0,1,0,.17.24.24,0,0,1-.21.17.31.31,0,0,1-.26-.08.38.38,0,0,1-.12-.16,0,0,0,0,1,0,0l0,0h.11a.29.29,0,0,0,.1,0s.07,0,.07-.05-.14-.13-.05-.19.16,0,.22.07A.48.48,0,0,1,18.51,23.62Z"/><path d="M18.29,24a.38.38,0,0,1-.24-.09.48.48,0,0,1-.13-.16.06.06,0,0,1,0-.07l0,0a.2.2,0,0,1,.11,0h0l.06,0s.06,0,.06,0a.13.13,0,0,0,0-.07s-.05,0,0-.08a.05.05,0,0,1,0-.05c.08,0,.19,0,.23.07a.27.27,0,0,1,.09.12h0a.21.21,0,0,1,0,.17.26.26,0,0,1-.21.19ZM18,23.66H18l0,0s0,0,0,0a.33.33,0,0,0,.12.15.36.36,0,0,0,.25.08.23.23,0,0,0,.2-.16.23.23,0,0,0,0-.16.21.21,0,0,0-.08-.11s-.13-.1-.2-.06,0,0,0,0,0,0,0,.06a.14.14,0,0,1,.05.09.09.09,0,0,1-.09.06H18Z"/><path class="cls-3" d="M18.2,23.49l0,0h-.1s0,0,0,0,0-.13.06-.12S18.23,23.43,18.2,23.49Z"/><path d="M18.12,23.54h0l-.05,0s0,0,0,0a.14.14,0,0,1,0-.11.11.11,0,0,1,.07,0,.21.21,0,0,1,.11.07.08.08,0,0,1,0,.07h0a.1.1,0,0,1-.05,0Zm0-.16s0,0,0,0a.09.09,0,0,0,0,.09,0,0,0,0,0,0,0h.08l0,0a0,0,0,0,0,0,0,.13.13,0,0,0-.09-.06Z"/><circle class="cls-4" cx="17.9" cy="24" r="0.11"/><path d="M17.9,24.12a.12.12,0,0,1-.13-.12.13.13,0,0,1,.13-.12A.13.13,0,0,1,18,24,.12.12,0,0,1,17.9,24.12Zm0-.21a.09.09,0,0,0-.1.09.09.09,0,0,0,.1.1A.09.09,0,0,0,18,24,.09.09,0,0,0,17.9,23.91Z"/><circle class="cls-4" cx="17.64" cy="23.82" r="0.11"/><path d="M17.64,23.94a.12.12,0,0,1-.12-.12.12.12,0,1,1,.24,0A.12.12,0,0,1,17.64,23.94Zm0-.22a.09.09,0,0,0-.09.1.09.09,0,0,0,.09.09.1.1,0,0,0,.1-.09A.1.1,0,0,0,17.64,23.72Z"/><circle class="cls-4" cx="17.29" cy="23.95" r="0.11"/><path d="M17.29,24.07a.12.12,0,0,1-.12-.12.12.12,0,1,1,.24,0A.12.12,0,0,1,17.29,24.07Zm0-.22a.1.1,0,0,0-.1.1.1.1,0,0,0,.1.09.09.09,0,0,0,.09-.09A.09.09,0,0,0,17.29,23.85Z"/><circle class="cls-4" cx="16.52" cy="23.71" r="0.11"/><path d="M16.52,23.83a.12.12,0,0,1-.12-.12.12.12,0,1,1,.24,0A.12.12,0,0,1,16.52,23.83Zm0-.22a.09.09,0,0,0-.09.1.09.09,0,0,0,.09.09.1.1,0,0,0,.1-.09A.1.1,0,0,0,16.52,23.61Z"/><path class="cls-4" d="M16.18,23.71a.11.11,0,1,0,.11-.11A.11.11,0,0,0,16.18,23.71Z"/><path d="M16.29,23.83a.12.12,0,0,1-.12-.12.12.12,0,1,1,.24,0A.12.12,0,0,1,16.29,23.83Zm0-.22a.09.09,0,0,0-.09.1.09.09,0,0,0,.09.09.1.1,0,0,0,.1-.09A.1.1,0,0,0,16.29,23.61Z"/><circle class="cls-4" cx="16.41" cy="23.91" r="0.11"/><path d="M16.41,24a.13.13,0,0,1-.12-.13.13.13,0,0,1,.12-.12.12.12,0,0,1,.12.12A.12.12,0,0,1,16.41,24Zm0-.22a.09.09,0,0,0-.09.09.09.09,0,0,0,.09.1.1.1,0,0,0,.1-.1A.1.1,0,0,0,16.41,23.82Z"/><circle class="cls-4" cx="16.2" cy="23.91" r="0.11"/><path d="M16.2,24a.13.13,0,0,1-.13-.13.13.13,0,0,1,.13-.12.13.13,0,0,1,.12.12A.13.13,0,0,1,16.2,24Zm0-.22a.09.09,0,0,0-.1.09.09.09,0,0,0,.1.1.09.09,0,0,0,.09-.1A.09.09,0,0,0,16.2,23.82Z"/><circle class="cls-4" cx="16.63" cy="23.89" r="0.11"/><path d="M16.63,24a.12.12,0,0,1-.12-.13.12.12,0,1,1,.24,0A.12.12,0,0,1,16.63,24Zm0-.22a.1.1,0,0,0-.1.09.1.1,0,0,0,.1.1.09.09,0,0,0,.09-.1A.09.09,0,0,0,16.63,23.8Z"/><circle class="cls-4" cx="16.76" cy="24.07" r="0.11"/><path d="M16.76,24.19a.12.12,0,0,1-.12-.12.12.12,0,1,1,.24,0A.12.12,0,0,1,16.76,24.19Zm0-.22a.1.1,0,0,0-.1.1.1.1,0,0,0,.1.09.09.09,0,0,0,.09-.09A.09.09,0,0,0,16.76,24Z"/><circle class="cls-4" cx="16.53" cy="24.1" r="0.11"/><path d="M16.53,24.22a.12.12,0,0,1-.12-.12.13.13,0,0,1,.12-.12.13.13,0,0,1,.13.12A.12.12,0,0,1,16.53,24.22Zm0-.21a.09.09,0,0,0-.09.09.1.1,0,0,0,.09.1.1.1,0,0,0,.1-.1A.09.09,0,0,0,16.53,24Z"/><path class="cls-4" d="M16.2,24.11a.11.11,0,1,0,.11-.11A.11.11,0,0,0,16.2,24.11Z"/><path d="M16.31,24.23a.12.12,0,1,1,.12-.12A.12.12,0,0,1,16.31,24.23Zm0-.21a.1.1,0,0,0-.1.09.11.11,0,0,0,.1.1.1.1,0,0,0,.09-.1A.09.09,0,0,0,16.31,24Z"/><circle class="cls-4" cx="16.08" cy="24.09" r="0.11"/><path d="M16.08,24.21a.13.13,0,0,1-.13-.12.13.13,0,0,1,.13-.13.13.13,0,0,1,.12.13A.13.13,0,0,1,16.08,24.21Zm0-.22a.09.09,0,0,0-.1.1.09.09,0,0,0,.1.09.09.09,0,0,0,.09-.09A.09.09,0,0,0,16.08,24Z"/><path class="cls-7" d="M14.57,22.49s-.06,0-.06,0,0,0,0,0l.05,0a0,0,0,0,1,0,.08l-.09.07a.4.4,0,0,1-.19,0h-.38a.08.08,0,0,1,.05-.07l.08,0,.27-.05a.07.07,0,0,0,.08-.05s0,0,0-.06l0-.05a.09.09,0,0,1,0-.11.15.15,0,0,1,.09-.06.21.21,0,0,1,.17,0,.24.24,0,0,1,.11.09l.1.09s.05,0,0,0Z"/><path class="cls-9" d="M15.31,22.78l-.7-.6h0s0,0,0,.05l.72.63Z"/><path d="M15.29,22.89l-.74-.65s0,0,0,0a0,0,0,0,1,0,0,0,0,0,0,1,.07,0l.7.61Zm-.71-.71h0a0,0,0,0,0,0,0h0l.7.62,0-.05-.69-.6Z"/><path d="M16.05,23.36h0v0L15.52,23l.68.3s0,0,0,0,0,0,0,0l-.8-.35a0,0,0,0,0,0,0s0,0,0,0l.64.46Z"/><path d="M15.52,23.46h0a0,0,0,0,0,0,0L15.41,23l.09.08.14.36h0s0,0,0,0L15.53,23h0l-.13-.1h0a0,0,0,0,0,0,0l.13.51S15.51,23.46,15.52,23.46Z"/><polygon class="cls-4" points="15.93 23.35 15.37 22.82 15.35 22.68 15.15 22.88 15.32 22.92 15.83 23.41 15.93 23.35"/><path d="M15.82,23.42h0l-.51-.49-.19,0,.24-.24,0,.16.57.54Zm-.65-.55.16,0h0l.5.48.08,0-.55-.52,0-.12Z"/><path class="cls-4" d="M18.41,24.15s-.06,0-.07.05,0,0,0,.05l.06,0,.06,0c.05,0,.08.08.13.07s0-.05.07-.06.08,0,.12,0,.08-.06.13-.06.07.08.12.08.05,0,.07,0a.06.06,0,0,1,.07,0s0,0,0,.06a.12.12,0,0,0,.1,0l.09-.05a.14.14,0,0,1,.09,0l.06,0s0,0,.05,0,0,0,.06,0,.06,0,.09,0a0,0,0,0,0,0,0s0,0,.06,0l0,0H20s0,0,0,0,0,0,0,0l0,0s0,0,0,0,0,0,0,0a0,0,0,0,0,0,0l0,0s0,0-.05,0H19.8l-.14,0h-.15l-.09,0s-.05,0-.07,0a.09.09,0,0,0-.07,0c-.05,0-.07.1-.13.07S19.08,24,19,24s0,0-.07,0,0,0-.06,0a.11.11,0,0,0-.14,0s-.05.07-.1.07-.05,0-.08,0-.07,0-.1,0l-.06,0a.05.05,0,0,0-.05,0,0,0,0,0,0-.05,0,.05.05,0,0,0,.05,0S18.42,24.13,18.41,24.15Zm1.32,0a.06.06,0,0,1,.06-.05.05.05,0,0,1,0,.1A.06.06,0,0,1,19.73,24.17Zm-.18,0a.06.06,0,1,1,.06.06A.06.06,0,0,1,19.55,24.14Zm-.13,0a0,0,0,0,1,.08,0,0,0,0,0,1-.08,0A0,0,0,0,1,19.42,24.15Zm-.17,0a.06.06,0,0,1,.06-.06.06.06,0,1,1,0,.12A.06.06,0,0,1,19.25,24.15Zm-.26,0a.06.06,0,0,1,.06-.06.06.06,0,0,1,.05.06,0,0,0,0,1-.05.05A.06.06,0,0,1,19,24.14Zm-.23,0a.06.06,0,0,1,.06-.06.07.07,0,0,1,.07.06.07.07,0,0,1-.07.07A.07.07,0,0,1,18.76,24.13Zm-.24,0a.06.06,0,0,1,.12,0,.06.06,0,0,1-.12,0Z"/><path d="M19.3,24.3a.07.07,0,0,1-.06,0,0,0,0,0,1,0,0s0,0,0,0,0,0-.05,0h0a.08.08,0,0,1-.14,0s0,0,0,0l-.06,0a.1.1,0,0,1-.07,0h0s0,0-.06,0l-.06,0s0,0,0,0l0,0a.08.08,0,0,1-.08,0s0,0-.05,0,0,0,0,0l-.07,0s0,0,0,0a0,0,0,0,1,0,0,.1.1,0,0,1,.05,0s0,0,0,0h0s0,0,0,0-.05,0-.06-.05a0,0,0,0,1,0,0s0,0,.05,0a.09.09,0,0,1,.06,0l.05,0h.05a0,0,0,0,1,0,0h.05l0,0s0,0,.06,0l0,0a.12.12,0,0,1,.15,0h0s0,0,0,0l0,0,0,0a.1.1,0,0,1,.09,0l0,0s0,0,.06,0,0,0,.06,0a.12.12,0,0,1,.08,0v0a.06.06,0,0,0,.05,0l.06,0h.23l.09,0H20l.05,0v0a0,0,0,0,1,0,0h0v0h0s0,0,.05,0a.05.05,0,0,1,0,.05H19.9l0,0h0a.06.06,0,0,1-.06,0l0,0,0,0,0,0,0,0a.06.06,0,0,1-.07,0h0l0,0a.1.1,0,0,0-.09,0h0l-.06,0Zm-.12-.11h0s0,0,0,0,0,0,0,0a.08.08,0,0,0,.08,0l.06,0,0,0a.14.14,0,0,1,.11,0l0,0h0s0,0,.05,0,0,0,0,0l0,0a.15.15,0,0,1,.07,0s0,0,0,0,0,0,0,0,0,0,.07,0h0l0,0H20s0,0,0,0h0s0,0,0,0v0l0,0h0s0,0,0,0H19.8l-.09,0h-.08a.07.07,0,0,1,.06.07.08.08,0,0,1-.08.07.07.07,0,0,1-.07-.07.08.08,0,0,1,.07-.08h0l-.08,0h-.05a0,0,0,1,1-.05,0,.05.05,0,0,1,0,0h0a.15.15,0,0,1-.07,0h0a0,0,0,0,0-.05,0s0,0-.05,0,0,.05-.09,0,0,0,0,0-.05,0-.07,0l0,0-.05,0s0,0-.06,0h0a.11.11,0,0,0-.12,0l0,0a.1.1,0,0,1-.08,0l-.05,0h-.13a.15.15,0,0,1-.07,0,.09.09,0,0,0-.05,0h0v0s0,0,0,0,.05,0,.05.06h0a.1.1,0,0,1-.05,0s0,0,0,0h0s0,0,0,0a.07.07,0,0,0,.06,0l.07,0h0a.08.08,0,0,1,0-.05.08.08,0,0,1,.08-.07.07.07,0,0,1,.07.07.08.08,0,0,1-.07.08h0s0,0,.05,0l0,0a.09.09,0,0,1,.05,0,.06.06,0,0,1,.07,0l0,0a.09.09,0,0,0,.06,0,.15.15,0,0,1,.07,0,.1.1,0,0,1,.07,0,.05.05,0,0,0,.1,0h0A.07.07,0,0,1,19.18,24.19Zm-.6-.08a.05.05,0,0,0,0,.05.05.05,0,1,0,.1,0A.05.05,0,0,0,18.58,24.11Zm1,0a.05.05,0,1,0,.05.05A0,0,0,0,0,19.61,24.09Zm-.15,0s0,0,0,0a0,0,0,0,0,0,0s0,0,0,0A0,0,0,0,0,19.46,24.12Zm.33.12a.07.07,0,0,1,0-.14.07.07,0,0,1,0,.14Zm0-.11a0,0,0,0,0,0,.08,0,0,0,0,0,0-.08A0,0,0,0,0,19.79,24.13Zm-.48.09a.07.07,0,1,1,0-.14.07.07,0,1,1,0,.14Zm0-.12a0,0,0,0,0,0,0s0,.05,0,.05a.05.05,0,0,0,.05-.05A0,0,0,0,0,19.31,24.1Zm-.49.11a.08.08,0,0,1-.08-.08.09.09,0,0,1,.08-.08.08.08,0,0,1,.08.08A.07.07,0,0,1,18.82,24.21Zm0-.13a0,0,0,0,0-.05.05.06.06,0,0,0,.05.06.06.06,0,0,0,.06-.06A.06.06,0,0,0,18.82,24.08Zm.23.13a.07.07,0,1,1,.07-.07A.07.07,0,0,1,19.05,24.21Zm0-.11a0,0,0,1,0,0,.08,0,0,0,0,0,0-.08A0,0,0,0,0,19.05,24.1Z"/><path class="cls-4" d="M20.47,18.83H20l0-.29h.38A2.89,2.89,0,0,0,20.47,18.83Z"/><path d="M20.48,18.84H20l0-.29h.4a2.54,2.54,0,0,1,0,.29Zm-.45,0h.42l0-.26h-.36Z"/><path class="cls-4" d="M20.5,19.14H20l0-.31h.45Z"/><path d="M20.51,19.15H20a1.71,1.71,0,0,1,0-.31v0h.47v0l0,.31Zm-.51,0h.48l0-.29H20Z"/><polygon class="cls-4" points="20.5 20.54 20.77 19.36 20.98 19.36 20.49 21.44 20.5 20.54"/><path d="M20.48,21.56v-1l.26-1.18H21Zm0-1v.78L21,19.37h-.18Z"/><path class="cls-4" d="M20.52,19.42H20a2.64,2.64,0,0,1,0-.28h.51A2.64,2.64,0,0,0,20.52,19.42Z"/><path d="M20.53,19.43H20l0-.28h.53c0,.09,0,.18,0,.28Zm-.55,0h.52a2,2,0,0,0,0-.25H20C20,19.23,20,19.31,20,19.4Z"/><path class="cls-4" d="M20.53,19.67H20c0-.08,0-.17,0-.25h.55C20.52,19.5,20.53,19.59,20.53,19.67Z"/><path d="M20.54,19.68h-.6c0-.08,0-.17,0-.25v0h.57v0c0,.08,0,.17,0,.25Zm-.57,0h.55c0-.08,0-.15,0-.23H20C20,19.51,20,19.58,20,19.66Z"/><path class="cls-4" d="M20.54,20h-.6c0-.1,0-.21,0-.31h.58C20.53,19.77,20.54,19.88,20.54,20Z"/><path d="M20.55,20h-.62c0-.11,0-.21,0-.31h.6c0,.1,0,.2,0,.31ZM20,20h.57a2.62,2.62,0,0,1,0-.28H20A2.62,2.62,0,0,0,20,20Z"/><path class="cls-4" d="M20.55,20.28h-.61V20h.6C20.54,20.08,20.54,20.18,20.55,20.28Z"/><path d="M20.56,20.3h-.63V20h.62v0c0,.1,0,.2,0,.3Zm-.61,0h.58V20H20A2.53,2.53,0,0,0,20,20.27Z"/><path class="cls-6" d="M21.48,20.26a.52.52,0,0,1,.15-.18c.32-.33.6-.71.9-1.06a1.14,1.14,0,0,1,.16-.15.37.37,0,0,1,.22-.06.31.31,0,0,1,.2.17.67.67,0,0,1,.08.25c0,.12,0,.25,0,.37a.4.4,0,0,1,0,.19A.44.44,0,0,1,23,20l-1.39,1.06s-.13.08-.18,0,0-.08,0-.13a1.49,1.49,0,0,1,0-.21,1.25,1.25,0,0,0,0-.19C21.48,20.45,21.43,20.36,21.48,20.26Z"/><path d="M21.52,21.12h-.06a.17.17,0,0,1-.05-.15,1.49,1.49,0,0,1,0-.21s0-.05,0-.07a.5.5,0,0,0,0-.12.31.31,0,0,0,0-.1.31.31,0,0,1,0-.21h0a.46.46,0,0,1,.14-.17h0c.2-.21.39-.44.57-.67l.33-.38a.65.65,0,0,1,.17-.16.32.32,0,0,1,.23-.06.3.3,0,0,1,.2.17.61.61,0,0,1,.08.26c0,.12,0,.25.05.37a.58.58,0,0,1,0,.19.42.42,0,0,1-.18.21l-1.39,1.06A.27.27,0,0,1,21.52,21.12Zm0-.86a.31.31,0,0,0,0,.19s0,.07,0,.11,0,.08,0,.12a.64.64,0,0,1,0,.07c0,.07,0,.14,0,.21a.16.16,0,0,0,0,.12s.1,0,.17,0L23,20a.44.44,0,0,0,.18-.2.47.47,0,0,0,0-.17c0-.13,0-.26,0-.38A.78.78,0,0,0,23.1,19a.26.26,0,0,0-.19-.15.28.28,0,0,0-.21.05.75.75,0,0,0-.16.15l-.32.39c-.19.23-.38.46-.58.67h0a.7.7,0,0,0-.14.16Z"/><path class="cls-4" d="M20.54,20.59h-.6v-.31h.61C20.55,20.39,20.55,20.49,20.54,20.59Z"/><path d="M20.56,20.6h-.63c0-.11,0-.21,0-.31h.63v.31Zm-.61,0h.58V20.3H20Z"/><polygon class="cls-4" points="21.17 19.28 20.43 21.39 20.43 21.84 21.41 19.28 21.17 19.28"/><path d="M20.42,21.91v-.53l.74-2.11h.27Zm0-.52v.37l.95-2.47h-.21Z"/><path class="cls-7" d="M21.39,20.34a.38.38,0,0,1,.16-.12.18.18,0,0,1,.16.05.34.34,0,0,1,.05.26,1.38,1.38,0,0,1-.49.89c-.15.12-.33.21-.49.32a3.11,3.11,0,0,0-.28.23s-.08.08-.13.06a.14.14,0,0,1-.05-.08.6.6,0,0,1,0-.35l.1-.14.12-.16a7.79,7.79,0,0,1,.51-.63C21.17,20.56,21.28,20.44,21.39,20.34Z"/><path d="M20.4,22.05h0A.18.18,0,0,1,20.3,22a.68.68,0,0,1,0-.35l.07-.11,0,0,.12-.16a7.79,7.79,0,0,1,.51-.63l.32-.33a.28.28,0,0,1,.17-.12.21.21,0,0,1,.17.05.39.39,0,0,1,.06.27,1.37,1.37,0,0,1-.5.9,2.9,2.9,0,0,1-.29.19l-.2.13a3.11,3.11,0,0,0-.28.23S20.44,22.05,20.4,22.05Zm1-1.7-.31.33a7.79,7.79,0,0,0-.51.63l-.12.16,0,0a.6.6,0,0,0-.06.11.47.47,0,0,0,0,.33s0,.07,0,.08.07,0,.12-.06a3.11,3.11,0,0,1,.28-.23l.2-.13.3-.19a1.38,1.38,0,0,0,.48-.88.3.3,0,0,0-.05-.25.18.18,0,0,0-.14,0,.27.27,0,0,0-.17.11Z"/><path class="cls-4" d="M20.54,20.59v.24H20a1.93,1.93,0,0,1,0-.24Z"/><path d="M20.55,20.85h-.62v-.26h.63c0,.08,0,.17,0,.24Zm-.59,0h.57V20.6H20C20,20.68,20,20.75,20,20.82Z"/><path class="cls-4" d="M20.54,20.83c0,.09,0,.18,0,.27H20v-.27Z"/><path d="M20.54,21.11h-.6c0-.09,0-.18,0-.27h.62a2.44,2.44,0,0,1,0,.27Zm-.57,0h.55v-.23H20A1.69,1.69,0,0,0,20,21.08Z"/><path class="cls-6" d="M24.17,20.64c.11-.06.25-.13.36-.07a.31.31,0,0,1,.13.36c0,.13-.11.25-.13.38s0,.32,0,.48a1.53,1.53,0,0,1-.24.61c-.12.18-.23.37-.34.56a1.54,1.54,0,0,1-.22.3.69.69,0,0,1-.55.16.66.66,0,0,1-.46-.35c-.06-.12-.09-.26-.2-.32s-.2,0-.3-.06a.51.51,0,0,1-.36-.26.55.55,0,0,1-.06-.28.59.59,0,0,1,.05-.19c0-.07.15-.1.21-.14l.29-.16L23.51,21Z"/><path d="M23.28,23.44h-.11a.68.68,0,0,1-.47-.35.42.42,0,0,1,0-.1.51.51,0,0,0-.15-.22.46.46,0,0,0-.2-.05h-.1a.49.49,0,0,1-.37-.27.45.45,0,0,1-.06-.28.59.59,0,0,1,0-.2.31.31,0,0,1,.16-.11l.06,0,2.11-1.18a.42.42,0,0,1,.38-.07.32.32,0,0,1,.13.37l-.06.18a.86.86,0,0,0-.07.21,2.17,2.17,0,0,0,0,.26,1.48,1.48,0,0,1,0,.21,1.57,1.57,0,0,1-.25.61L24,23a1.34,1.34,0,0,1-.22.31A.68.68,0,0,1,23.28,23.44Zm1.15-2.88a.58.58,0,0,0-.26.09l-2.11,1.18-.06,0a.56.56,0,0,0-.15.1.46.46,0,0,0,0,.19.49.49,0,0,0,.05.27.54.54,0,0,0,.35.26h.1a.38.38,0,0,1,.21,0,.42.42,0,0,1,.16.23l0,.09a.63.63,0,0,0,1,.19,1.29,1.29,0,0,0,.22-.3l.33-.56a1.45,1.45,0,0,0,.25-.6,1.47,1.47,0,0,0,0-.21.82.82,0,0,1,0-.27,1.66,1.66,0,0,1,.06-.21,1,1,0,0,0,.06-.18.3.3,0,0,0-.11-.34Z"/><path class="cls-6" d="M23.43,19.68a.73.73,0,0,1,.28-.17.27.27,0,0,1,.29.09.45.45,0,0,1,.05.19c0,.12,0,.24,0,.36s0,.28-.05.41a.83.83,0,0,1-.08.22.28.28,0,0,1-.09.1l-.12,0-.32.17-.62.35q-.36.19-.72.42a.3.3,0,0,1-.16.05c-.09,0-.14-.12-.16-.22a1.14,1.14,0,0,1,0-.55.28.28,0,0,1,.06-.15,1.3,1.3,0,0,1,.18-.15l.94-.74Z"/><path d="M21.89,21.92h0c-.12,0-.16-.16-.18-.22a1.51,1.51,0,0,1,0-.56h0a.28.28,0,0,1,.06-.15l.13-.11.06,0,1.46-1.16a.73.73,0,0,1,.28-.17.27.27,0,0,1,.31.1.3.3,0,0,1,0,.19,1.51,1.51,0,0,1,0,.3v.06a2.7,2.7,0,0,1-.05.41.53.53,0,0,1-.08.23.28.28,0,0,1-.09.1l-.08,0h0l-.22.12-.1.05-.63.35-.71.42A.38.38,0,0,1,21.89,21.92Zm1.9-2.41h-.08a.73.73,0,0,0-.28.17L22,20.85l0,0-.13.11a.35.35,0,0,0-.06.14h0a1.23,1.23,0,0,0,0,.54c0,.06.05.19.15.21a.3.3,0,0,0,.15,0q.36-.23.72-.42l.63-.35.09-.06.22-.11.06,0,.07,0a.39.39,0,0,0,.08-.1.52.52,0,0,0,.07-.21,2.9,2.9,0,0,0,.06-.41v-.06a1.51,1.51,0,0,0,0-.3.37.37,0,0,0,0-.18A.22.22,0,0,0,23.79,19.51Z"/><polygon class="cls-4" points="22.66 18.79 20.33 21.37 20.45 21.51 22.85 18.75 22.66 18.79"/><path class="cls-8" d="M20.45,21.53l-.13-.16h0l2.34-2.58.23-.06Zm-.1-.16.1.12,2.37-2.72-.15,0Z"/><path class="cls-7" d="M21.79,21a.3.3,0,0,1,.28-.08.28.28,0,0,1,.12.21,1.23,1.23,0,0,1,0,.54.26.26,0,0,1,.19.19.57.57,0,0,1,0,.29,1.68,1.68,0,0,1-.26.79,1.24,1.24,0,0,1-.56.39,3,3,0,0,1-.67.17.47.47,0,0,1-.31,0,.44.44,0,0,1-.22-.29,1.65,1.65,0,0,1-.09-.54,2.46,2.46,0,0,1,0-.28l0-.14a.49.49,0,0,1,0-.11c.06-.06.15-.11.22-.17l.23-.18c.15-.13.31-.25.47-.37S21.6,21.12,21.79,21Z"/><path d="M20.69,23.52a.4.4,0,0,1-.15,0,.42.42,0,0,1-.22-.29,1.71,1.71,0,0,1-.09-.55,2.83,2.83,0,0,1,0-.29l0-.13v0a.17.17,0,0,1,0-.1l.14-.11.08-.06.23-.18.47-.38.54-.4c.08-.06.19-.13.29-.08s.11.1.13.22a1.18,1.18,0,0,1,0,.53.27.27,0,0,1,.19.2.7.7,0,0,1,0,.29,1.86,1.86,0,0,1-.27.8,1.32,1.32,0,0,1-.56.4,4.18,4.18,0,0,1-.68.16ZM22,20.91a.43.43,0,0,0-.21.09h0l-.54.41c-.14.11-.29.22-.46.37l-.24.18-.07.06-.14.11s0,.05,0,.08v0a.7.7,0,0,0,0,.14,1.27,1.27,0,0,0,0,.28,1.65,1.65,0,0,0,.09.54.42.42,0,0,0,.2.28.54.54,0,0,0,.31,0,3.47,3.47,0,0,0,.67-.17,1.2,1.2,0,0,0,.55-.39,1.72,1.72,0,0,0,.26-.78.88.88,0,0,0,0-.28.24.24,0,0,0-.18-.18h0v0a1.07,1.07,0,0,0,0-.53c0-.11-.06-.18-.12-.2Z"/><polygon class="cls-4" points="23.65 19.41 20.23 22.06 20.33 22.23 23.75 19.5 23.65 19.41"/><path class="cls-8" d="M20.33,22.25l-.12-.19h0l3.43-2.66.11.12Zm-.09-.19.1.15,3.38-2.71-.07-.07Z"/><path class="cls-4" d="M20.53,21.1c0,.1,0,.19,0,.29H20c0-.1,0-.19,0-.29Z"/><path d="M20.53,21.4H20c0-.1,0-.2,0-.29v0h.6v0c0,.09,0,.19,0,.29Zm-.55,0h.52c0-.08,0-.17,0-.26H20C20,21.2,20,21.29,20,21.37Z"/><path class="cls-4" d="M20.51,21.39c0,.11,0,.22,0,.32H20c0-.1,0-.21,0-.32Z"/><path d="M20.5,21.72H20c0-.11,0-.21,0-.32v0h.57v0l0,.32Zm-.49,0h.47c0-.09,0-.19,0-.29H20Z"/><path class="cls-4" d="M20.49,21.71a2.46,2.46,0,0,0,0,.26H20l0-.26Z"/><path d="M20.48,22H20a2.28,2.28,0,0,0,0-.26v0h.52v0a2.28,2.28,0,0,1,0,.26ZM20,22h.42l0-.23H20A1.64,1.64,0,0,0,20,22Z"/><path class="cls-4" d="M20.73,22s0-.06,0-.07a.06.06,0,0,1,.07,0s0,0,0,.08,0,.08,0,.13l-.06.33a0,0,0,0,1,0,0s0,0-.06,0l-.05,0a0,0,0,0,1,0,0l0-.12,0-.24Z"/><path class="cls-8" d="M20.71,22.61h0a.15.15,0,0,1-.06,0s0,0,0,0h0l.09-.49s0-.07.05-.08a.07.07,0,0,1,.08,0,.14.14,0,0,1,0,.09.59.59,0,0,1,0,.13l-.06.33a.06.06,0,0,1,0,0S20.73,22.61,20.71,22.61Zm.08-.63h0a.07.07,0,0,0,0,.06l-.09.49h0a0,0,0,0,0,0,0l.05,0a0,0,0,0,0,0,0v0l.06-.34a.5.5,0,0,1,0-.12V22Z"/><path class="cls-4" d="M20.47,22c0,.1,0,.2,0,.27h-.39c0-.07,0-.17,0-.27Z"/><path d="M20.45,22.26H20c0-.08,0-.18,0-.28v0h.48v0c0,.1,0,.2,0,.28Zm-.39,0h.36c0-.07,0-.16,0-.25H20C20,22.07,20.05,22.16,20.06,22.23Z"/><path class="cls-4" d="M20.44,22.24c0,.17,0,.26,0,.26h-.32l0-.26Z"/><path d="M20.41,22.52h-.34v0s0-.09,0-.25v0h.42v0c0,.16,0,.25,0,.25Zm-.32,0h.3s0-.11,0-.23h-.36A2,2,0,0,1,20.09,22.49Z"/><polygon class="cls-3" points="21.16 18.39 20.88 19.5 21.04 19.5 21.16 18.39"/><path d="M21.05,19.52h-.18l.27-1.13h0Zm-.15,0H21l.09-.91Z"/><polygon class="cls-3" points="21.64 18.39 21.23 19.49 21.43 19.49 21.64 18.39"/><path d="M21.45,19.5h-.24l.41-1.12h0Zm-.2,0h.17l.17-.94Z"/><polygon class="cls-3" points="22.1 18.7 21.54 19.75 21.75 19.75 22.1 18.7"/><path d="M21.76,19.76h-.24l.57-1.07h0Zm-.2,0h.18l.3-.89Z"/><polygon class="cls-4" points="24.33 20.48 20.26 22.73 20.41 22.86 24.43 20.56 24.33 20.48"/><path class="cls-8" d="M20.41,22.88l-.18-.15h0l4.08-2.25.13.09Zm-.13-.15.13.12,4-2.29-.08-.06Z"/><polygon class="cls-4" points="23.52 17.9 23.04 18.21 23.04 18.45 23.3 18.43 23.52 17.9"/><path d="M23,18.46v-.25l.52-.34-.24.58Zm0-.24v.22l.24,0,.21-.48Z"/><polygon class="cls-4" points="22.87 18.29 23.25 18.58 23.02 18.78 22.71 18.53 22.87 18.29"/><path d="M23,18.79l-.32-.25.17-.27.4.31Zm-.29-.26.29.23.21-.18-.35-.27Z"/><polygon class="cls-4" points="24.62 18.72 24.09 18.93 24.09 19.15 24.33 19.17 24.62 18.72"/><path d="M24.34,19.19l-.26,0v-.24l.57-.22Zm-.23-.05.21,0,.27-.41-.48.19Z"/><polygon class="cls-4" points="24.26 19.31 23.94 18.97 23.77 19.16 24.07 19.45 24.26 19.31"/><path d="M24.07,19.46l-.31-.3.18-.21.34.36Zm-.28-.3.28.27.17-.12-.3-.32Z"/><polygon class="cls-4" points="24.81 20.28 24.85 20.07 25.41 19.95 25.07 20.34 24.81 20.28"/><path d="M25.07,20.36l-.27-.07,0-.23.6-.13Zm-.24-.09.23.06.31-.36-.51.11Z"/><polygon class="cls-4" points="24.48 20.28 24.69 20.1 24.96 20.48 24.72 20.59 24.48 20.28"/><path d="M24.72,20.6l-.26-.32.24-.2.28.41Zm-.22-.32.23.29.21-.09-.25-.36Z"/><path class="cls-6" d="M22.54,18.49a.28.28,0,0,1,.18,0l.13.07a1.31,1.31,0,0,1,.28.2,1.53,1.53,0,0,0,.31.26s.06,0,.06.05,0,.05,0,.08a.24.24,0,0,1-.08.06s0,0,0,0l-.23-.24a.56.56,0,0,0-.27-.18c-.07,0-.14,0-.22,0a.6.6,0,0,1-.23-.06C22.37,18.6,22.5,18.51,22.54,18.49Z"/><path class="cls-7" d="M22.43,18.67s0,0,0-.06,0,0,.05,0,.13.05.2.06.15,0,.23,0a.21.21,0,0,1,.15.07,1.13,1.13,0,0,0,.1.13c.07.09.17.16.25.25a.21.21,0,0,1,0,.07s0,.05-.05.07l-.1.06-.05,0-.06,0s0,0,0-.06l-.09-.2a.23.23,0,0,0-.12-.12.25.25,0,0,0-.15,0,.19.19,0,0,1-.19,0A1.29,1.29,0,0,1,22.43,18.67Z"/><path class="cls-6" d="M23.64,19.15a.23.23,0,0,1,.18,0,.5.5,0,0,1,.12.08,2.73,2.73,0,0,1,.23.25,1.65,1.65,0,0,0,.26.32s.05,0,.05.06,0,.05-.05.07l-.08,0s0,0,0,0l-.17-.28a.61.61,0,0,0-.23-.22l-.21-.07c-.06,0-.18-.06-.22-.11S23.6,19.16,23.64,19.15Z"/><path class="cls-7" d="M23.5,19.3a.07.07,0,0,1,0-.06s0,0,.06,0,.11.08.18.1.16,0,.24,0a.23.23,0,0,1,.12.1l.08.15c0,.1.13.19.19.29a.11.11,0,0,1,0,.08s0,0-.06.05l-.11.05h-.06a.1.1,0,0,1,0-.05s0,0,0-.06a1.55,1.55,0,0,0,0-.21.38.38,0,0,0-.09-.15.4.4,0,0,0-.15,0c-.07,0-.14,0-.18-.05A1.37,1.37,0,0,1,23.5,19.3Z"/><path class="cls-6" d="M24.38,20.16a.25.25,0,0,1,.18.05.32.32,0,0,1,.1.1,1.75,1.75,0,0,1,.18.29A1.37,1.37,0,0,0,25,21a.13.13,0,0,1,0,.07s0,0-.06.06l-.09,0s0,0,0,0-.08-.2-.12-.3a.64.64,0,0,0-.18-.27l-.2-.11s-.16-.08-.19-.15S24.34,20.17,24.38,20.16Z"/><path class="cls-7" d="M24.21,20.29s0-.05,0-.06a0,0,0,0,1,.06,0c.07,0,.1.1.16.13s.16,0,.24,0a.26.26,0,0,1,.1.13s0,.11.05.16.09.21.13.32a.11.11,0,0,1,0,.08l-.07,0-.11,0h-.06a.08.08,0,0,1,0-.06V21a1.62,1.62,0,0,0,0-.22.28.28,0,0,0-.06-.16.25.25,0,0,0-.14-.06c-.06,0-.14,0-.17-.08A2,2,0,0,1,24.21,20.29Z"/><polygon class="cls-4" points="20.68 23.44 21.73 23.11 22.13 22.35 23.56 22.29 23.57 22.86 22.34 23.07 22.19 23.31 20.68 23.77 20.68 23.44"/><path d="M20.67,23.79v-.36l1-.33.4-.77h0l1.44-.06,0,.6h0l-1.23.2-.15.24Zm0-.34v.3l1.49-.45.16-.25h0l1.22-.2V22.3l-1.41.06-.4.77h0Z"/><path class="cls-6" d="M20.86,23.7c0,.06-.05.11-.13.15a.75.75,0,0,1-.24.08l-.15,0h-.1l-.25,0-.17-.05-.12-.06a.17.17,0,0,1-.08-.12.18.18,0,0,1,0-.09.83.83,0,0,1,.58-.17.88.88,0,0,1,.57.16A.14.14,0,0,1,20.86,23.7Z"/><path d="M20.24,24a1,1,0,0,1-.25,0,.69.69,0,0,1-.17-.05.39.39,0,0,1-.13-.06.19.19,0,0,1-.08-.13.13.13,0,0,1,0-.1.88.88,0,0,1,.59-.17.89.89,0,0,1,.58.16.16.16,0,0,1,.05.11.18.18,0,0,1-.13.16.67.67,0,0,1-.25.08l-.15,0Zm0-.5a.84.84,0,0,0-.57.16.13.13,0,0,0,0,.08.17.17,0,0,0,.06.11l.13.06.16,0a1,1,0,0,0,.25,0h.25a1,1,0,0,0,.23-.08c.08,0,.13-.09.13-.14a.14.14,0,0,0-.05-.09A.87.87,0,0,0,20.24,23.46Z"/><polygon class="cls-9" points="21.71 23.6 23.14 21.46 23.23 21.51 21.83 23.67 21.71 23.6"/><path d="M21.83,23.69l-.14-.08,1.44-2.17.12.06Zm-.1-.09.09.06,1.39-2.15-.07,0Z"/><path class="cls-4" d="M19.62,22.68v.95l.17.07h0l.17,0a1,1,0,0,0,.25,0h.25l.2-.06.17-.11v-.91Z"/><polygon class="cls-7" points="19.62 22.97 19.84 23.72 19.96 23.75 20.15 23.15 20.36 23.77 20.49 23.76 20.61 23.21 20.81 23.6 20.86 23.56 20.86 23.31 20.63 22.89 20.52 22.92 20.42 23.41 20.24 22.95 20.1 22.95 19.93 23.41 19.72 22.82 19.62 22.82 19.62 22.97"/><path d="M20.24,23.79l-.25,0a.69.69,0,0,1-.17-.05h0l-.18-.07v-1h1.26v.93l-.17.11a.65.65,0,0,1-.21.06l-.15,0Zm-.6-.17.16.07h0l.16,0a1,1,0,0,0,.25,0h.1l.15,0,.2,0,.16-.11v-.89H19.64Z"/><path class="cls-6" d="M20.86,22.68c0,.14-.28.25-.62.25s-.62-.11-.62-.25.28-.25.62-.25S20.86,22.54,20.86,22.68Z"/><path d="M20.24,23c-.35,0-.63-.12-.63-.27s.28-.27.63-.27.63.12.63.27S20.6,23,20.24,23Zm0-.51c-.33,0-.6.11-.6.24s.27.24.6.24.61-.11.61-.24S20.57,22.44,20.24,22.44Z"/><path class="cls-3" d="M20.71,22.67c0,.08-.21.14-.47.14s-.47-.06-.47-.14.21-.13.47-.13S20.71,22.6,20.71,22.67Z"/><rect class="cls-4" x="20.19" y="22.38" width="0.11" height="0.21"/><path d="M20.31,22.6h-.13v-.23h.13Zm-.11,0h.08v-.19H20.2Z"/><rect class="cls-4" x="20.1" y="22.76" width="0.14" height="0.19"/><path d="M20.25,23h-.16v-.21h.16Zm-.14,0h.12v-.16h-.12Z"/><rect class="cls-4" x="19.82" y="22.48" width="0.08" height="0.14"/><path d="M19.9,22.63h-.1v-.16h.1Zm-.07,0h.05v-.12h-.05Z"/><rect class="cls-4" x="20.62" y="22.5" width="0.08" height="0.14"/><path d="M20.7,22.65h-.1v-.16h.1Zm-.07,0h.05v-.11h-.05Z"/><polygon class="cls-4" points="20.63 22.75 20.52 22.75 20.52 22.92 20.63 22.89 20.63 22.75"/><path d="M20.51,22.93v-.19h.13v.16Zm0-.17v.14l.08,0v-.12Z"/><rect class="cls-4" x="20.76" y="22.67" width="0.09" height="0.12"/><path d="M20.87,22.81h-.12v-.15h.12Zm-.09,0h.07v-.09h-.07Z"/><rect class="cls-4" x="19.62" y="22.65" width="0.09" height="0.17"/><path d="M19.73,22.83h-.12v-.19h.12Zm-.09,0h.07v-.15h-.07Z"/><path class="cls-4" d="M20,23.75v.18l-.17-.05v-.17Z"/><path d="M20,23.94h0a.69.69,0,0,1-.17-.05h0v-.2l.19,0Zm-.17-.07.15,0v-.15l-.15,0Z"/><path class="cls-4" d="M20.49,23.76v.17l-.15,0v-.18Z"/><path d="M20.33,24v-.2l.17,0v.2h0l-.15,0Zm0-.17v.14h.12v-.15Z"/><path class="cls-4" d="M20.86,23.56v.14c0,.06-.05.11-.13.15v-.18l.08-.07Z"/><path d="M20.72,23.87v-.21l.15-.13v.17a.18.18,0,0,1-.13.16Zm0-.19v.15c.07,0,.11-.09.11-.13v-.11Z"/><path class="cls-4" d="M19.7,23.65v.17a.17.17,0,0,1-.08-.12v-.12l0,0Z"/><path d="M19.71,23.84h0a.19.19,0,0,1-.08-.13v-.15l.1.09Zm-.07-.23v.09a.12.12,0,0,0,0,.09v-.14Z"/><path class="cls-3" d="M21.15,21.67a0,0,0,0,1,0,0,0,0,0,0,1,0,0,.3.3,0,0,1,.08.17.28.28,0,0,1,0,.12l-.08.18s0,0,0,0,0,0,0,0A.42.42,0,0,0,20.9,22a.15.15,0,0,1-.07,0s0-.05,0-.07.06,0,.08,0a.39.39,0,0,0,.17-.09A.3.3,0,0,0,21.15,21.67Z"/><path d="M21.1,22.18a0,0,0,0,1,0,0A.46.46,0,0,0,20.9,22h0l-.06-.05s0,0,0-.06,0,0,0,0l.06,0h0a.38.38,0,0,0,.17-.08l.06-.07h0l0,0h0a.3.3,0,0,1,.08.18c0,.05,0,.09,0,.13l-.09.18s0,0,0,0Zm.06-.5a.3.3,0,0,1-.08.08.32.32,0,0,1-.17.09h-.09a.11.11,0,0,0,0,.05l.06,0h0a.45.45,0,0,1,.18.18h0L21.2,22a.28.28,0,0,0,0-.12.27.27,0,0,0-.08-.16h0Z"/><path class="cls-3" d="M20.61,21.91s0,0,0,0v0h0l.11,0h0a.06.06,0,0,1,0,0s0,0,0,.05h0Z"/><path d="M20.76,22h0a.31.31,0,0,1-.13,0h0s0,0,0,0,0,0,0,0h0l.11,0h0a.07.07,0,0,1,0,.05s0,.05,0,.06Zm-.15-.06a.28.28,0,0,0,.13,0h0v0s0,0,0,0,0,0,0,0h-.12Z"/><path class="cls-3" d="M20.75,21.84s0-.07.05-.08a0,0,0,0,1,.05,0,.06.06,0,0,1,0,0,.14.14,0,0,1,0,.09.29.29,0,0,1,0,.09s-.08.05-.1,0A.26.26,0,0,1,20.75,21.84Z"/><path d="M20.78,22h0l0,0a.32.32,0,0,1,0-.17h0a.1.1,0,0,1,.06-.08.06.06,0,0,1,.06,0s0,0,0,.05,0,.06,0,.09a.19.19,0,0,1,0,.1S20.81,22,20.78,22Zm0-.19a.27.27,0,0,0,0,.15h0l.06,0a.12.12,0,0,0,0-.08.28.28,0,0,0,0-.09,0,0,0,0,0,0,0h0a.07.07,0,0,0,0,.07Z"/><path class="cls-4" d="M21.65,23.76l-.1,0v-.82h-.06v-.26h-.12v.14h0l-.18.14v.51a1,1,0,0,1,.08.11h.15v.17a.3.3,0,0,0-.15.05s0,0,0,0a0,0,0,0,0,0,.05.05.05,0,0,0,0,0,.36.36,0,0,0,.2.06.33.33,0,0,0,.19-.08.06.06,0,0,0,0-.06A.06.06,0,0,0,21.65,23.76Zm-.25-.37s0,0-.06,0l0,0a.11.11,0,0,1,0-.09v-.1a.86.86,0,0,1,0-.16.18.18,0,0,1,.09-.12s.09,0,.11.07a.31.31,0,0,1,0,.13A.45.45,0,0,1,21.4,23.39Z"/><path d="M21.47,24a.45.45,0,0,1-.19,0,.1.1,0,0,1-.05,0,.08.08,0,0,1,0-.11.28.28,0,0,1,.13,0v-.15h-.15a.61.61,0,0,0-.07-.1h0V23h0l.18-.14h0v-.16h.14v.26h.07v.83l.08,0s.07,0,.07.07a.1.1,0,0,1,0,.07.28.28,0,0,1-.2.08Zm-.21-.42h.16v.2h0a.24.24,0,0,0-.14.05l0,0a0,0,0,0,0,0,0,.05.05,0,0,0,0,0,.34.34,0,0,0,.19.05.24.24,0,0,0,.18-.07.05.05,0,0,0,0-.05s0,0-.05-.05h-.1v-.83h-.07v-.26h-.09v.15h0a1,1,0,0,0-.17.14v.5Zm.08-.11-.05,0a.14.14,0,0,1,0-.1s0-.05,0-.07v-.09a.33.33,0,0,1,0-.1.22.22,0,0,1,.09-.14c.06,0,.11,0,.13.08a.32.32,0,0,1,0,.14.39.39,0,0,1-.09.26h0a.1.1,0,0,1-.07,0Zm0-.5h0a.14.14,0,0,0-.07.12.28.28,0,0,0,0,.09v.16a.1.1,0,0,0,0,.08l0,0,.05,0h0a.38.38,0,0,0,.08-.24.51.51,0,0,0,0-.13S21.4,22.94,21.37,22.94Z"/><polygon class="cls-4" points="21.63 22.2 24.62 21.91 24.68 22.35 21.64 22.66 21.63 22.2"/><path d="M21.63,22.67l0-.48h0l3-.29.07.46h0Zm0-.46v.43l3-.3-.06-.41Z"/><rect class="cls-4" x="24.58" y="21.84" width="0.15" height="0.59" transform="translate(-1.13 1.33) rotate(-3.02)"/><path d="M24.59,22.45l0-.62h.17l0,.62Zm0-.6,0,.57h.12l0-.56Z"/><rect class="cls-4" x="22.02" y="22.11" width="0.15" height="0.59" transform="translate(-1.15 1.2) rotate(-3.02)"/><path d="M22,22.72l0-.62h.17l0,.62Zm0-.59,0,.56h.12l0-.56Z"/><rect class="cls-4" x="24.1" y="21.86" width="0.11" height="0.59" transform="translate(-1.13 1.29) rotate(-3)"/><path d="M24.11,22.47l0-.62h.13l0,.62Zm0-.59,0,.56h.08l0-.57Z"/><path class="cls-4" d="M21.73,22.73l0-.59h-.14v.19a.17.17,0,0,0-.14-.07.16.16,0,0,0-.16.16.17.17,0,0,0,.16.17.19.19,0,0,0,.15-.09v.24Z"/><path d="M21.58,22.75l0-.21a.16.16,0,0,1-.13.06.17.17,0,0,1-.17-.18.17.17,0,0,1,.17-.17.13.13,0,0,1,.12.05v-.17h.18l0,.62Zm0-.3v.27h.12l0-.57h-.12v.22l0,0a.17.17,0,0,0-.13-.07.15.15,0,0,0-.15.15.15.15,0,0,0,.15.15.13.13,0,0,0,.13-.08Z"/><polygon class="cls-4" points="23.22 22.69 23.05 22.06 23.34 22.04 23.29 22.69 23.22 22.69"/><path d="M23.31,22.71h-.1L23,22.05l.33,0Zm-.08,0h.05l0-.63-.27,0Z"/><polygon class="cls-4" points="23.32 22.71 23.73 22.2 23.89 22.41 23.36 22.8 23.32 22.71"/><path d="M23.35,22.82l-.05-.11.43-.53.18.23Zm0-.11,0,.07.51-.38-.14-.17Z"/><polygon class="cls-4" points="23.39 22.81 24.06 22.76 24.01 22.97 23.36 22.86 23.39 22.81"/><path d="M24,23l-.68-.11,0-.07.7-.06Zm-.64-.13L24,23l.05-.18-.65.05Z"/><polygon class="cls-4" points="23.36 22.9 23.89 23.27 23.73 23.45 23.3 22.93 23.36 22.9"/><path d="M23.73,23.46l-.45-.53.09,0,.54.38Zm-.4-.52.4.49.14-.15-.51-.36Z"/><polygon class="cls-4" points="23.27 22.96 23.39 23.58 23.15 23.6 23.21 22.96 23.27 22.96"/><path d="M23.14,23.62,23.2,23h.08l.13.64Zm.08-.65,0,.62.2,0-.11-.6Z"/><polygon class="cls-4" points="23.13 22.92 22.64 23.34 22.8 23.48 23.19 22.96 23.13 22.92"/><path d="M22.8,23.5l-.18-.16.51-.43.08,0Zm-.14-.16.14.12.37-.5,0,0Z"/><polygon class="cls-4" points="23.08 22.79 22.44 22.73 22.46 22.97 23.12 22.88 23.08 22.79"/><path d="M22.45,23l0-.26.65.06.06.11Zm0-.23V23l.63-.08,0-.06Z"/><polygon class="cls-4" points="23.16 22.7 22.74 22.2 22.57 22.41 23.11 22.77 23.16 22.7"/><path d="M23.12,22.79l-.57-.38.19-.23.43.52Zm-.53-.39.52.35,0-.05-.4-.48Z"/><path class="cls-4" d="M23.43,22.82a.2.2,0,0,1-.19.19.19.19,0,0,1-.19-.19.18.18,0,0,1,.19-.19A.19.19,0,0,1,23.43,22.82Z"/><path d="M23.24,23a.2.2,0,0,1-.21-.2.21.21,0,1,1,.41,0A.2.2,0,0,1,23.24,23Zm0-.38a.18.18,0,0,0,0,.36.18.18,0,0,0,0-.36Z"/><path class="cls-4" d="M23.24,21.91a.91.91,0,1,0,.9.91A.91.91,0,0,0,23.24,21.91Zm0,1.64a.73.73,0,0,1-.74-.73.74.74,0,1,1,1.47,0A.73.73,0,0,1,23.24,23.55Z"/><path d="M23.24,23.74a.92.92,0,1,1,.92-.92A.92.92,0,0,1,23.24,23.74Zm0-1.81a.89.89,0,1,0,.89.89A.89.89,0,0,0,23.24,21.93Zm0,1.64a.75.75,0,1,1,.75-.75A.75.75,0,0,1,23.24,23.57Zm0-1.47a.72.72,0,1,0,0,1.44.72.72,0,0,0,0-1.44Z"/><path class="cls-3" d="M23.21,21.24a.27.27,0,0,1,.08-.1.09.09,0,0,1,.12,0,.1.1,0,0,1,0,.09.19.19,0,0,1,0,.08l-.08.15s0,.05-.06.06a.08.08,0,0,1-.08,0s-.09,0-.06-.1Z"/><path d="M23.24,21.53a.11.11,0,0,1-.07,0h0s-.07,0,0-.1l.06-.11,0-.05a.27.27,0,0,1,.08-.1.11.11,0,0,1,.14,0,.15.15,0,0,1,0,.1l0,.09-.08.14s0,.06-.06.07Zm.12-.4-.06,0a.34.34,0,0,0-.08.09h0l0,.06-.06.1s0,0,0,.07h0a.09.09,0,0,0,.08,0s0,0,0-.05l.08-.14a.41.41,0,0,0,0-.08.08.08,0,0,0,0-.08Z"/><path class="cls-4" d="M22.21,21.6a.2.2,0,0,0-.13-.06.59.59,0,0,0-.23.05.18.18,0,0,0-.07.05.13.13,0,0,0,0,.08.16.16,0,0,0,.08.06l.15,0a.21.21,0,0,0,.24-.1A.13.13,0,0,0,22.21,21.6Zm0,.13s-.05.05-.08.06a.16.16,0,0,1-.12,0c-.05,0-.1,0-.14,0a.07.07,0,0,1,0-.06s0-.05.05-.06a.39.39,0,0,1,.18,0h.07a.15.15,0,0,1,.07,0A.11.11,0,0,1,22.18,21.73Z"/><path class="cls-4" d="M22.34,22.07s0,0-.06,0h0l-.09,0-.12.08s-.13.07-.16,0,0-.14,0-.19h0a.65.65,0,0,0,0-.14.22.22,0,0,1,0-.14.16.16,0,0,1,.1-.05.34.34,0,0,1,.14,0,.2.2,0,0,1,.12.08.27.27,0,0,1,0,.16A.16.16,0,0,1,22.34,22.07Z"/><path d="M21.94,22.28h0l0,0c0-.05,0-.11,0-.15l0-.05h0v-.13a.15.15,0,0,1,0-.14.23.23,0,0,1,.11-.07h.14a.22.22,0,0,1,.13.08.48.48,0,0,1,.05.17.19.19,0,0,1,0,.13s0,0-.07,0h-.1l-.09.05,0,0A.27.27,0,0,1,21.94,22.28Zm0-.23s0,0,0,.06-.05.09,0,.12,0,0,0,0,.08,0,.11,0l0,0a.19.19,0,0,1,.09-.05l.06,0h0a.09.09,0,0,0,.06,0h0a.2.2,0,0,0,0-.11.32.32,0,0,0,0-.16.24.24,0,0,0-.11-.06.29.29,0,0,0-.13,0,.19.19,0,0,0-.1.05.21.21,0,0,0,0,.13v0a.2.2,0,0,1,0,.11Z"/><path class="cls-4" d="M22.28,22.11h0l-.09,0-.12.08s-.13.07-.16,0,0-.14,0-.19h.28s.06,0,.07,0Z"/><path d="M21.94,22.28h0l0,0c0-.05,0-.11,0-.15l0-.05h.31a.13.13,0,0,1,.07.05h-.11l-.09.05,0,0A.27.27,0,0,1,21.94,22.28Zm0-.22s0,0,0,.05-.05.09,0,.12,0,0,0,0,.08,0,.11,0l0,0a.19.19,0,0,1,.09-.05l.06,0h0l-.05,0-.1,0h-.17Z"/><path class="cls-3" d="M22,23.62a.27.27,0,0,0,0,.17.26.26,0,0,0,.21.17.31.31,0,0,0,.26-.08.4.4,0,0,0,.13-.16s0,0,0,0l0,0h-.1l-.1,0s-.08,0-.08-.05.15-.13.05-.19a.21.21,0,0,0-.21.07A.31.31,0,0,0,22,23.62Z"/><path d="M22.2,24h0a.26.26,0,0,1-.22-.19.35.35,0,0,1,0-.17h0a.4.4,0,0,1,.1-.12.23.23,0,0,1,.23-.07.1.1,0,0,1,0,.05s0,.05,0,.08a.13.13,0,0,0,0,.07.08.08,0,0,0,.07,0l.06,0h0a.2.2,0,0,1,.11,0l0,0a.08.08,0,0,1,0,.07.38.38,0,0,1-.13.16A.35.35,0,0,1,22.2,24ZM22,23.63a.22.22,0,0,0,.17.32.38.38,0,0,0,.26-.08.39.39,0,0,0,.11-.15.1.1,0,0,0,0,0l0,0h-.2a.07.07,0,0,1-.09-.06s0-.06,0-.09,0,0,0-.06,0,0,0,0-.17,0-.2.06a.44.44,0,0,0-.08.11Z"/><path class="cls-3" d="M22.28,23.49l0,0h.09s0,0,0,0,0-.13-.07-.12S22.25,23.43,22.28,23.49Z"/><path d="M22.37,23.54h-.05a.1.1,0,0,1-.05,0h0a.08.08,0,0,1,0-.07.21.21,0,0,1,.11-.07.09.09,0,0,1,.07,0,.11.11,0,0,1,0,.11s0,0,0,0l-.05,0Zm-.07-.06,0,0h.09l0,0a.13.13,0,0,0,0-.09,0,0,0,0,0-.05,0,.1.1,0,0,0-.08.06,0,0,0,0,0,0,0Z"/><circle class="cls-4" cx="22.59" cy="24" r="0.11"/><path d="M22.59,24.12a.12.12,0,0,1-.12-.12.12.12,0,1,1,.24,0A.12.12,0,0,1,22.59,24.12Zm0-.21a.1.1,0,0,0-.1.09.1.1,0,0,0,.1.1.09.09,0,0,0,.09-.1A.09.09,0,0,0,22.59,23.91Z"/><circle class="cls-4" cx="22.84" cy="23.82" r="0.11"/><path d="M22.84,23.94a.12.12,0,0,1-.12-.12.12.12,0,1,1,.24,0A.12.12,0,0,1,22.84,23.94Zm0-.22a.09.09,0,0,0-.09.1.09.09,0,0,0,.09.09.1.1,0,0,0,.1-.09A.1.1,0,0,0,22.84,23.72Z"/><circle class="cls-4" cx="23.19" cy="23.95" r="0.11"/><path d="M23.19,24.07a.13.13,0,0,1-.12-.12.13.13,0,0,1,.12-.13.13.13,0,0,1,.13.13A.13.13,0,0,1,23.19,24.07Zm0-.22a.09.09,0,0,0-.09.1.09.09,0,0,0,.09.09.09.09,0,0,0,.1-.09A.09.09,0,0,0,23.19,23.85Z"/><circle class="cls-4" cx="23.96" cy="23.71" r="0.11"/><path d="M24,23.83a.13.13,0,0,1-.12-.12.13.13,0,0,1,.12-.13.12.12,0,0,1,.12.13A.12.12,0,0,1,24,23.83Zm0-.22a.09.09,0,0,0-.09.1.09.09,0,0,0,.09.09.09.09,0,0,0,.1-.09A.09.09,0,0,0,24,23.61Z"/><path class="cls-4" d="M24.3,23.71a.11.11,0,1,1-.11-.11A.11.11,0,0,1,24.3,23.71Z"/><path d="M24.19,23.83a.12.12,0,0,1-.12-.12.12.12,0,1,1,.24,0A.12.12,0,0,1,24.19,23.83Zm0-.22a.09.09,0,0,0-.09.1.09.09,0,0,0,.09.09.1.1,0,0,0,.1-.09A.1.1,0,0,0,24.19,23.61Z"/><circle class="cls-4" cx="24.07" cy="23.91" r="0.11"/><path d="M24.07,24a.12.12,0,0,1-.12-.13.12.12,0,0,1,.24,0A.12.12,0,0,1,24.07,24Zm0-.22a.09.09,0,0,0-.09.09.09.09,0,0,0,.09.1.1.1,0,0,0,.1-.1A.1.1,0,0,0,24.07,23.82Z"/><circle class="cls-4" cx="24.29" cy="23.91" r="0.11"/><path d="M24.29,24a.12.12,0,0,1-.12-.13.12.12,0,0,1,.24,0A.12.12,0,0,1,24.29,24Zm0-.22a.1.1,0,0,0-.1.09.1.1,0,0,0,.1.1.09.09,0,0,0,.09-.1A.09.09,0,0,0,24.29,23.82Z"/><circle class="cls-4" cx="23.85" cy="23.89" r="0.11"/><path d="M23.85,24a.13.13,0,0,1-.12-.13.13.13,0,0,1,.12-.12.13.13,0,0,1,.13.12A.13.13,0,0,1,23.85,24Zm0-.22a.09.09,0,0,0-.09.09.09.09,0,0,0,.09.1.09.09,0,0,0,.1-.1A.09.09,0,0,0,23.85,23.8Z"/><path class="cls-4" d="M23.83,24.07a.1.1,0,0,1-.11.1.09.09,0,0,1-.1-.1.1.1,0,0,1,.1-.11A.11.11,0,0,1,23.83,24.07Z"/><path d="M23.72,24.19a.13.13,0,0,1-.12-.12.13.13,0,0,1,.12-.13.13.13,0,0,1,.13.13A.13.13,0,0,1,23.72,24.19Zm0-.22a.09.09,0,0,0-.09.1.09.09,0,0,0,.09.09.09.09,0,0,0,.1-.09A.09.09,0,0,0,23.72,24Z"/><circle class="cls-4" cx="23.95" cy="24.1" r="0.11"/><path d="M24,24.22a.12.12,0,0,1-.12-.12.12.12,0,1,1,.24,0A.12.12,0,0,1,24,24.22ZM24,24a.1.1,0,0,0-.1.09.1.1,0,0,0,.2,0A.1.1,0,0,0,24,24Z"/><circle class="cls-4" cx="24.17" cy="24.11" r="0.11"/><path d="M24.17,24.23a.12.12,0,0,1,0-.24.12.12,0,1,1,0,.24Zm0-.21a.09.09,0,0,0-.09.09.1.1,0,0,0,.09.1.1.1,0,0,0,.1-.1A.09.09,0,0,0,24.17,24Z"/><path class="cls-4" d="M24.52,24.09a.11.11,0,0,1-.22,0,.11.11,0,0,1,.22,0Z"/><path d="M24.41,24.21a.12.12,0,0,1-.12-.12.12.12,0,1,1,.24,0A.12.12,0,0,1,24.41,24.21Zm0-.22a.1.1,0,0,0-.1.1.1.1,0,0,0,.1.09.09.09,0,0,0,.09-.09A.09.09,0,0,0,24.41,24Z"/><path class="cls-4" d="M25.17,23.73l.89.39v-.31l-.12.08a1.39,1.39,0,0,0-.12-.53,1.68,1.68,0,0,1,.54.48l-.17,0v.11l.2.27a.37.37,0,0,0-.21.29H26v-.14l0-.06-1.12-.47s-.15-.06-.11-.16S25.17,23.73,25.17,23.73Z"/><path d="M26.18,24.49H26v-.15l0-.06-1.11-.46s-.09,0-.11-.1a.09.09,0,0,1,0-.07.08.08,0,0,1,0,0c.09,0,.32.1.34.11l.87.38v-.27l-.12.09v0a1.23,1.23,0,0,0-.13-.52l0,0,0,0s.45.25.55.48v0l-.18,0v.1l.2.28h0s-.2.09-.2.27Zm-.16,0h.14a.33.33,0,0,1,.2-.27l-.19-.26v-.14l.16,0a1.53,1.53,0,0,0-.49-.42,1.18,1.18,0,0,1,.1.47l.13-.09v.36l-.91-.4c-.07,0-.25-.12-.32-.1a0,0,0,0,0,0,0,.09.09,0,0,0,0,.05c0,.05.1.08.1.08l1.14.48,0,.07Z"/><path class="cls-7" d="M25.92,22.49a.07.07,0,0,1,.06,0s0,0,0,0l0,0s0,0,0,0a.05.05,0,0,0,0,0l.09.07a.42.42,0,0,0,.19,0h.38a.08.08,0,0,0,0-.07l-.08,0-.27-.05s-.08,0-.09-.05a.14.14,0,0,1,0-.06l0-.05a.15.15,0,0,0,0-.11.21.21,0,0,0-.1-.06.2.2,0,0,0-.17,0,.31.31,0,0,0-.11.09l-.1.09s0,0,0,0Z"/><path class="cls-9" d="M25.18,22.78l.7-.6h0a0,0,0,0,1,0,.05l-.72.63Z"/><path d="M25.2,22.89l0-.11.71-.61s0,0,.06,0l0,0a.05.05,0,0,1,0,0Zm0-.1,0,.05.7-.62h0s0,0,0,0a0,0,0,0,0,0,0Z"/><path class="cls-4" d="M25,23.87a.43.43,0,0,1,0,.05.08.08,0,0,0,0,0A0,0,0,0,0,25,24l.05,0a1.08,1.08,0,0,0,.11-.18.1.1,0,0,0,0-.13,0,0,0,0,0-.07,0C25,23.67,25,23.79,25,23.87Z"/><path d="M25,24h0a.1.1,0,0,1,0-.07s0,0,0-.06v0a.39.39,0,0,1,.14-.21s.07,0,.09,0a.14.14,0,0,1,0,.15.45.45,0,0,1-.11.17l0,0Zm.15-.36h0a.45.45,0,0,0-.12.2v0h0a.17.17,0,0,0,0,.05s0,0,0,0h0l0,0a1.2,1.2,0,0,0,.11-.17c0-.06,0-.09,0-.12Z"/><path d="M24.43,23.36h0s0,0,0,0L25,23l-.68.3h0s0,0,0,0l.8-.35h0l-.64.46Z"/><path d="M25,23.46h0s0,0,0,0l.12-.48-.1.08-.14.36s0,0,0,0a0,0,0,0,1,0,0L25,23h0l.13-.1h0a0,0,0,0,1,0,0l-.13.51A0,0,0,0,1,25,23.46Z"/><polygon class="cls-4" points="24.55 23.35 25.11 22.82 25.13 22.68 25.34 22.88 25.16 22.92 24.66 23.41 24.55 23.35"/><path d="M24.66,23.42l-.13-.07.57-.54,0-.16.24.24-.19,0Zm-.08-.07.08,0,.5-.48.15,0-.17-.16v.12h0Z"/><path class="cls-4" d="M22.11,24.1s.05,0,.05,0a0,0,0,0,0,0,0,.09.09,0,0,0-.06,0l0,0s-.07,0-.11,0,0,0-.08,0-.07-.05-.1-.07a.09.09,0,0,0-.13,0s0,0-.06,0-.05,0-.08,0-.08,0-.12.07S21.25,24,21.2,24a.07.07,0,0,0-.06,0s0,0-.07,0a.19.19,0,0,1-.1,0h-.15l-.14,0h-.1s0,0,0,0l0,0a0,0,0,0,0,0,0h0s0,0,0,0l0,0s0,0-.05,0a.08.08,0,0,0,0,0h.07l0,0s0,0,.05,0,0,0,.05,0,.05-.05.08,0,0,0,.06,0a.07.07,0,0,0,.06,0l.05,0a.17.17,0,0,1,.1,0,.26.26,0,0,0,.09.05.09.09,0,0,0,.09,0s0-.05.05-.06.05,0,.07,0,0,0,.06,0,.08-.07.13-.08.07.06.12.06.08-.06.12,0,.05.05.08.06.07-.06.12-.07l.06,0,.06,0s.05,0,0-.05-.07,0-.08-.05A.07.07,0,0,1,22.11,24.1Zm-1.41.12a.05.05,0,1,1,0-.1.05.05,0,1,1,0,.1Zm.17,0a.06.06,0,0,1,0-.12.06.06,0,0,1,0,.12Zm.15,0a0,0,0,1,1,0-.08,0,0,0,0,1,0,.08A0,0,0,0,1,21,24.19Zm.15,0a.06.06,0,1,1,.06-.06A.06.06,0,0,1,21.17,24.21Zm.26,0a0,0,0,0,1-.05-.05.06.06,0,0,1,.05-.06.06.06,0,0,1,.06.06A.06.06,0,0,1,21.43,24.19Zm.23,0a.07.07,0,0,1-.07-.07.07.07,0,0,1,.14,0A.07.07,0,0,1,21.66,24.2Zm.24,0a.06.06,0,0,1-.06-.06.06.06,0,0,1,.06-.06.07.07,0,0,1,.07.06S21.94,24.22,21.9,24.22Z"/><path d="M21.18,24.3h0l-.06,0h0a.08.08,0,0,0-.08,0l0,0h0s-.05,0-.08,0l0,0s0,0,0,0l-.05,0s0,0,0,0a.06.06,0,0,1-.06,0h0l0,0H20.5a0,0,0,0,1,0-.05s0,0,0,0h0l0,0h-.06l0,0a.06.06,0,0,1,0,0l.05,0h.15l.09,0H21l.06,0s0,0,0,0l0,0a.1.1,0,0,1,.07,0,.07.07,0,0,1,.06,0s0,0,.06,0l0,0s.06,0,.09,0l0,0,0,0s0,0,0,0h0a.12.12,0,0,1,.15,0l0,0s0,0,.06,0l0,0h0a.07.07,0,0,1,.06,0h0l.05,0a.09.09,0,0,1,.07,0,0,0,0,0,1,0,0,0,0,0,0,1,0,0s0,0-.06.05h0s0,0,0,0l0,0a.1.1,0,0,1,.05,0v0a.05.05,0,0,1,0,0l-.07,0a.07.07,0,0,0-.06,0s0,0,0,0a.08.08,0,0,1-.08,0l0,0s0,0,0,0l-.05,0a.15.15,0,0,1-.07,0h0a.1.1,0,0,1-.07,0l-.05,0-.06,0a.08.08,0,0,1-.07,0,.1.1,0,0,1-.07,0h0s0,0-.06,0,0,0,0,0,0,0,0,0A.09.09,0,0,1,21.18,24.3ZM21,24.2l.07,0,0,0,.06,0a.08.08,0,0,0,.08,0,0,0,0,0,0,0,0s0,0,0,0,.06,0,.09,0h0s0,0,.05,0,0,0,.06,0a.08.08,0,0,1,.07,0l.07,0s0,0,.05,0h0l0,0a.08.08,0,0,1,.08,0s0,0,0,0l0,0s0,0,.06,0h0a.08.08,0,0,1-.07-.08.07.07,0,0,1,.07-.07.07.07,0,0,1,.08.07.08.08,0,0,1,0,.05h0l.07,0s0,0,.05,0,0,0,0,0h0a.05.05,0,0,0,0,0s0,0,0,0,0,0,.05-.06h0a.05.05,0,0,0,0,0s0,0,0,0h0s0,0-.05,0,0,0-.06,0h-.14l-.05,0a.12.12,0,0,1-.08,0l0,0a.09.09,0,0,0-.11,0h0a.06.06,0,0,1-.06,0l-.05,0a0,0,0,0,0,0,0s-.05,0-.07,0l0,0a.09.09,0,0,1-.1,0,.05.05,0,0,0,0,0s0,0-.06,0h0s0,0-.07,0h0a.08.08,0,0,1,0,0,.05.05,0,1,1-.05,0H21l-.07,0h0s.08,0,.08.08a.08.08,0,0,1-.08.07.07.07,0,0,1-.07-.07.07.07,0,0,1,.05-.07h-.08l-.08,0h-.16l0,0h0l0,0a0,0,0,0,1,0,0,0,0,0,0,1,0,0h0a0,0,0,0,0,0,0h.07s0,0,0,0h0a0,0,0,0,1,.07,0s0,0,0,0l0,0a.09.09,0,0,1,.06,0l0,0,0,0s0,0,0,0h0l0,0Zm.91-.09s0,0,0,.05a0,0,0,0,0,0,.05,0,0,0,0,0,.05-.05A.05.05,0,0,0,21.9,24.11Zm-1,0a.05.05,0,1,0,0,.1.05.05,0,1,0,0-.1Zm.15,0s0,0,0,0a0,0,0,0,0,0,0s0,0,0,0A0,0,0,0,0,21,24.12Zm-.32.12a.07.07,0,0,1,0-.14.07.07,0,0,1,0,.14Zm0-.11a0,0,0,0,0,0,.08,0,0,0,0,0,0-.08Zm.47.09a.07.07,0,1,1,.07-.07A.07.07,0,0,1,21.17,24.22Zm0-.12a0,0,0,0,0-.05,0,.05.05,0,0,0,.05.05.06.06,0,0,0,0-.05A.05.05,0,0,0,21.17,24.1Zm.49.11a.08.08,0,0,1-.08-.08.08.08,0,0,1,.16,0A.08.08,0,0,1,21.66,24.21Zm0-.13a0,0,0,0,0-.05.05.05.05,0,1,0,.1,0A0,0,0,0,0,21.66,24.08Zm-.23.13a.07.07,0,0,1,0-.14.07.07,0,0,1,0,.14Zm0-.11a0,0,0,0,0,0,.08,0,0,0,1,0,0-.08Z"/><polygon class="cls-5" points="20.39 18.12 20.09 18.12 20.02 16.77 20.47 16.77 20.39 18.12"/><path class="cls-5" d="M21.28,15.74a1.44,1.44,0,0,1,1.07.18.25.25,0,0,1-.24,0l-.07,0s-.06,0-.06,0,0,0,.05.06a.41.41,0,0,1,.13.1A.66.66,0,0,1,22,16a.37.37,0,0,0-.2-.07.42.42,0,0,1,.09.14.34.34,0,0,1-.11-.07.12.12,0,0,0-.11,0,.25.25,0,0,1,0,.17.38.38,0,0,0-.15-.09v.1a1.32,1.32,0,0,0-.49.19,3.91,3.91,0,0,1,1.23-.08,1.51,1.51,0,0,1,.42.1.66.66,0,0,1,.33.26.23.23,0,0,1-.16,0,.43.43,0,0,1-.12-.11.41.41,0,0,0,0,.19,1.27,1.27,0,0,0-.25-.21.68.68,0,0,0,.07.2l-.21-.18a1,1,0,0,1,0,.17l-.24-.28v.17L22,16.41l0,0a.05.05,0,0,0-.05,0s0,0,0,0l0,0c.12.06.25.1.36.16a1.06,1.06,0,0,1,.33.22.5.5,0,0,1,.12.37c-.06-.07-.12-.13-.17-.2a.67.67,0,0,1-.1.23,1,1,0,0,1,0-.3.29.29,0,0,0-.07.22l-.13-.35a.57.57,0,0,0,0,.22l-.12-.19-.05,0s-.07,0-.1,0l-.07-.16a.22.22,0,0,1-.12.09h-.06a.57.57,0,0,1-.26-.2l0,.13-.14-.13a.18.18,0,0,0,0,.1l-.11-.1a.08.08,0,0,0,0,.11.22.22,0,0,0,.11.05,3.1,3.1,0,0,1,.64.24,1.57,1.57,0,0,1,.52.44,1.39,1.39,0,0,0-.19-.06l0,.15a.22.22,0,0,0-.09-.1.12.12,0,0,0-.13,0l-.05-.07a.08.08,0,0,1,0,.05s0,0-.05,0l0,0,0,0s0,0,0,0,0,0-.05,0l-.09-.19,0,.09-.05-.14,0,.09-.06-.09a0,0,0,0,1-.05,0,.1.1,0,0,1,0-.05s0,0-.06,0,0,0,0,.05l0,.05a1,1,0,0,1,.27.66l-.14-.16a1.83,1.83,0,0,1-.08.25l-.06-.26-.09.11a.33.33,0,0,0,0-.14s0-.1-.09-.1v-.1a.37.37,0,0,1-.05-.18.25.25,0,0,0,0-.12s-.07-.06-.09,0l0-.07s0,0-.07,0,0,0,0,.06,0,0,0,0,0,0-.05,0,0,0,0,.06l.07,0s.05,0,0,.06l-.09,0a.55.55,0,0,1,.27.33.52.52,0,0,0-.23-.1,1,1,0,0,1,.22.35l-.09-.06a.8.8,0,0,1,.06.37l-.1-.09a.77.77,0,0,1-.1.52,1.09,1.09,0,0,1,0-.36.88.88,0,0,1-.26.25l.15-.43-.25.24.2-.34-.21.1.21-.29a.65.65,0,0,0-.24,0,2,2,0,0,0,.17-.23.05.05,0,0,0-.06-.08.13.13,0,0,0-.07.06.2.2,0,0,0,0-.13.07.07,0,0,0-.1-.05.73.73,0,0,1,.17-.18.09.09,0,0,1-.11,0s0-.07,0-.11,0,0,0,0,0,0,0,0a.06.06,0,0,0,0,0l0-.55a.09.09,0,0,1,0-.05l0,0,.09-.08.18-.15a2,2,0,0,1,.39-.24A1.61,1.61,0,0,1,21.28,15.74Z"/><path d="M20.77,18.66h0a1.17,1.17,0,0,1,0-.32.77.77,0,0,1-.23.21h0s0,0,0,0l.13-.38-.21.2h0l.18-.31-.17.08s0,0,0,0v0l.2-.27a.55.55,0,0,0-.22,0,0,0,0,0,1,0,0s0,0,0,0a2,2,0,0,0,.17-.23s0,0,0,0,0,0,0,0,0,0-.05,0a.17.17,0,0,0-.06.06h0s0,0,0,0a.3.3,0,0,0,0-.13s0,0,0,0,0,0,0,0,0,0,0,0h0a.7.7,0,0,1,.13-.16h0a.12.12,0,0,1-.06-.06s0-.06,0-.09v0h0a.1.1,0,0,1-.05,0,.11.11,0,0,1,0-.05l0-.55h0a.11.11,0,0,1,0,0l0,0h0l.09-.08c.06-.06.12-.1.18-.15a2.06,2.06,0,0,1,.39-.24,1.1,1.1,0,0,1,.33-.12h0a1.41,1.41,0,0,1,1.08.18h0a.25.25,0,0,1-.25,0h0l0,0H22s0,0,.05,0a.69.69,0,0,1,.13.11v0h0A.8.8,0,0,1,22,16l0,0a.28.28,0,0,0-.16-.06.26.26,0,0,1,.07.11v0h0a.21.21,0,0,1-.1-.06h0a.14.14,0,0,0-.09,0,.23.23,0,0,1,0,.16,0,0,0,0,1,0,0h0a.29.29,0,0,0-.13-.08v.08s0,0,0,0a1.36,1.36,0,0,0-.43.14,3.84,3.84,0,0,1,1.17-.06,1.55,1.55,0,0,1,.43.1.7.7,0,0,1,.33.26h0a.19.19,0,0,1-.18,0,.43.43,0,0,1-.1-.09.43.43,0,0,0,0,.16h0s0,0,0,0a1,1,0,0,0-.22-.19.44.44,0,0,0,.06.16s0,0,0,0h0l-.19-.16a.33.33,0,0,1,0,.14h0l-.21-.26v.14a0,0,0,0,1,0,0h0a.5.5,0,0,0-.12-.08h-.08s0,0,0,0l0,0,.21.09.15.07a1,1,0,0,1,.33.22.52.52,0,0,1,.12.38h0l-.09-.1-.07-.08a1.8,1.8,0,0,1-.08.21h0a.72.72,0,0,1,0-.25.26.26,0,0,0-.05.17,0,0,0,0,1,0,0h0l-.11-.32a.57.57,0,0,0,0,.18h0s0,0,0,0l-.12-.19,0,0s-.06,0-.1,0h0l-.06-.15s-.06.08-.11.08h-.06a.51.51,0,0,1-.25-.18l0,.11a0,0,0,0,1,0,0,0,0,0,0,1,0,0l-.13-.12a.11.11,0,0,0,0,.08h0l-.1-.09a0,0,0,0,0,0,0,.14.14,0,0,0,0,.06s.07,0,.1.05a3,3,0,0,1,.64.24,1.56,1.56,0,0,1,.53.44h0l-.09,0-.08,0,0,.14h0s0,0,0,0a.3.3,0,0,0-.09-.1.1.1,0,0,0-.12,0h0l0,0,0,0s-.05,0-.07,0l0,0s0,0,0,0h0s0,0,0,0,0,0-.07-.05l-.07-.16,0,.07h0l0-.12,0,.06a0,0,0,0,1,0,0,0,0,0,0,1,0,0l-.05-.06h0a.07.07,0,0,1-.06,0l0-.05h0a0,0,0,0,0-.05,0s0,0,0,0l0,0a1.06,1.06,0,0,1,.28.67h0s0,0,0,0l-.07-.08-.05-.06a2.09,2.09,0,0,1-.08.23s0,0,0,0h0l0-.23-.08.09h0a.32.32,0,0,0,0-.14.12.12,0,0,0-.08-.09h0v-.1a.28.28,0,0,1-.06-.18v0a.19.19,0,0,0,0-.08.07.07,0,0,0-.05,0h0s0,0,0,0h0a.14.14,0,0,0,0-.07.09.09,0,0,0-.06,0,0,0,0,0,0,0,0,0,0,0,0,0,0,0h0a0,0,0,0,1,0,.05l0,0h0s0,0,0,0,0,0,0,0l0,0h0s.05,0,0,.07h-.06a.56.56,0,0,1,.24.33s0,0,0,0a0,0,0,0,1,0,0,.44.44,0,0,0-.18-.09,1.09,1.09,0,0,1,.19.33h0l-.06,0a.74.74,0,0,1,.05.33h0s0,0,0,0l-.07-.07a.81.81,0,0,1-.11.5Zm0-.4h0s0,0,0,0a1.22,1.22,0,0,0,0,.33.79.79,0,0,0,.09-.49s0,0,0,0h0l.07.07a.63.63,0,0,0-.06-.33s0,0,0,0h0l.06,0a.79.79,0,0,0-.2-.31h0a0,0,0,0,1,0,0,.39.39,0,0,1,.2.08.5.5,0,0,0-.24-.29h0a0,0,0,0,1,0,0l.08,0s0,0,0,0h0l-.05,0a.08.08,0,0,1,0-.05s0,0,0,0h0s0,0,0,0l0,0a.06.06,0,0,1,0,0s0,0,0,0a.08.08,0,0,1,.08,0,.14.14,0,0,1,0,.06h0a.13.13,0,0,1,.07.06.14.14,0,0,1,0,.09v0a.34.34,0,0,0,.05.17h0v.09a.13.13,0,0,1,.09.11.14.14,0,0,1,0,.09l.06-.07h0l0,.23a1.72,1.72,0,0,0,.07-.21,0,0,0,0,1,0,0h0l.07.08.05.06a1,1,0,0,0-.27-.62.09.09,0,0,1,0-.05.06.06,0,0,1,0-.07.08.08,0,0,1,.08,0v0s0,0,0,0,0,0,0,0,0,0,0,0h0l.05.07,0-.06h0l0,.1,0-.06h0l.09.19s0,0,0,0,0,0,0,0h0s0,0,.05,0l0,0h0s0,0,0,0,0,0,0,0a0,0,0,0,1,0,0h0l0,.06a.11.11,0,0,1,.13,0,.18.18,0,0,1,.08.07l0-.12h0a.32.32,0,0,0,.09,0l.06,0a1.65,1.65,0,0,0-.49-.4,3.41,3.41,0,0,0-.64-.24.22.22,0,0,1-.11-.05.08.08,0,0,1,0-.08.08.08,0,0,1,0-.05h0l.09.08a.3.3,0,0,1,0-.08h0l.12.12,0-.11s0,0,0,0h0a.47.47,0,0,0,.25.19h.06s.08,0,.11-.08a0,0,0,0,1,0,0,0,0,0,0,0,0,0l.06.15a.09.09,0,0,1,.11,0,.12.12,0,0,1,0,.05l.1.15a.57.57,0,0,1,0-.18h0a0,0,0,0,1,0,0l.11.29a.29.29,0,0,1,.07-.16h0s0,0,0,0a1.09,1.09,0,0,0,0,.26.73.73,0,0,0,.07-.19,0,0,0,0,1,0,0h0a.39.39,0,0,0,.08.1l.07.07a.53.53,0,0,0-.12-.32,1,1,0,0,0-.32-.22l-.15-.06-.21-.1-.05,0a.06.06,0,0,1,0-.07.06.06,0,0,1,.06,0l0,0a.41.41,0,0,1,.11.07v-.15s0,0,0,0h0l.22.26a.66.66,0,0,0,0-.14h0s0,0,0,0l.16.14a.83.83,0,0,1,0-.15h0a1.24,1.24,0,0,1,.22.18.76.76,0,0,1,0-.15s0,0,0,0h0a.43.43,0,0,0,.12.11.14.14,0,0,0,.13,0,.73.73,0,0,0-.31-.24,1.44,1.44,0,0,0-.42-.09,3.4,3.4,0,0,0-1.23.08h0s0,0,0,0a1.38,1.38,0,0,1,.48-.19V16h0a.37.37,0,0,1,.14.07.22.22,0,0,0,0-.14s0,0,0,0h0a.22.22,0,0,1,.12,0h0l.06,0-.07-.1h0A.31.31,0,0,1,22,16h0l.11.07A.22.22,0,0,0,22,16a.08.08,0,0,1-.05-.07s0,0,0,0,0,0,.05,0,0,0,.06,0h0a.26.26,0,0,0,.21,0,1.41,1.41,0,0,0-1-.17l-.33.12a2.36,2.36,0,0,0-.38.24c-.06.05-.12.09-.18.15l-.09.08h0l0,0v0h0l0,.55a.06.06,0,0,0,0,0s0,0,0,0h0s0,0,0,0v0a.22.22,0,0,0,0,.08.1.1,0,0,0,.05,0h0s0,0,0,0v0a.54.54,0,0,0-.15.15h0a.14.14,0,0,1,.06.07v.08l0,0h.06s0,0,0,0a.14.14,0,0,1,0,.06,1.39,1.39,0,0,1-.15.19h.22l-.18.26.16-.08h0v0l-.15.25.18-.17s0,0,0,0h0l-.14.4a.84.84,0,0,0,.23-.23Z"/><path d="M20.52,16.55h0v0a1.85,1.85,0,0,1,.51-.25h0s0,0,0,0a1.75,1.75,0,0,0-.5.24Z"/><path d="M20.62,16.59h0s0,0,0,0a1.12,1.12,0,0,1,.54-.19,2.51,2.51,0,0,1,.57,0,.4.4,0,0,1,.2.08s0,0,0,0h0a.47.47,0,0,0-.19-.08,2.6,2.6,0,0,0-.57,0,1.11,1.11,0,0,0-.53.18Z"/><path d="M21.12,16.75h0a.72.72,0,0,0-.2-.09.3.3,0,0,0-.21,0s0,0,0,0v0a.32.32,0,0,1,.22,0,.83.83,0,0,1,.22.08v0Z"/><path d="M21.19,17.16h0a1.85,1.85,0,0,0-.28-.28.55.55,0,0,0-.24-.12s0,0,0,0h0a.75.75,0,0,1,.25.13,1.85,1.85,0,0,1,.28.28s0,0,0,0Z"/><path d="M20.75,17h0a.55.55,0,0,1-.14-.23,0,0,0,0,1,0,0h0a.59.59,0,0,0,.12.22s0,0,0,0Z"/><path d="M20.75,18.29h0a2.05,2.05,0,0,1-.1-.61v-.08a1.24,1.24,0,0,0-.17-.63s0,0,0,0h0a1.26,1.26,0,0,1,.18.64v.08a2,2,0,0,0,.1.6s0,0,0,0Z"/><path class="cls-5" d="M19.21,15.74a1.43,1.43,0,0,0-1.07.18.26.26,0,0,0,.24,0l.06,0s.06,0,.06,0,0,0-.05.06a.38.38,0,0,0-.12.1.61.61,0,0,0,.18-.09.37.37,0,0,1,.2-.07.42.42,0,0,0-.09.14.26.26,0,0,0,.11-.07.13.13,0,0,1,.12,0,.21.21,0,0,0,0,.17A.42.42,0,0,1,19,16v.1a1.39,1.39,0,0,1,.49.19,4,4,0,0,0-1.24-.08,1.6,1.6,0,0,0-.42.1.7.7,0,0,0-.33.26.21.21,0,0,0,.16,0,.69.69,0,0,0,.13-.11.41.41,0,0,1,0,.19,1.64,1.64,0,0,1,.25-.21.48.48,0,0,1-.07.2l.21-.18a.5.5,0,0,0,0,.17l.23-.28v.17a.57.57,0,0,1,.13-.08l.05,0s0,0,0,0,0,0,0,0l0,0-.36.16a.91.91,0,0,0-.32.22.46.46,0,0,0-.12.37c0-.07.12-.13.17-.2a.92.92,0,0,0,.09.23.77.77,0,0,0,0-.3.35.35,0,0,1,.08.22l.13-.35a.85.85,0,0,1,0,.22l.12-.19,0,0s.08,0,.11,0l.07-.16a.22.22,0,0,0,.12.09h0a.52.52,0,0,0,.26-.2l0,.13.14-.13a.19.19,0,0,1,.05.1l.1-.1s0,.08,0,.11a.16.16,0,0,1-.1.05,2.9,2.9,0,0,0-.64.24,1.48,1.48,0,0,0-.52.44,1.39,1.39,0,0,1,.19-.06l0,.15a.32.32,0,0,1,.1-.1.12.12,0,0,1,.13,0l0-.07s0,0,0,.05a0,0,0,0,0,.05,0s0,0,0,0a.05.05,0,0,1,0,0s0,0,0,0a.07.07,0,0,0,.06,0l.09-.19,0,.09.06-.14,0,.09.06-.09a0,0,0,0,0,.05,0l0-.05a0,0,0,0,1,.06,0s0,0,0,.05a.09.09,0,0,1,0,.05,1.08,1.08,0,0,0-.27.66l.14-.16a1.06,1.06,0,0,0,.09.25l.05-.26.09.11a.33.33,0,0,1,0-.14.12.12,0,0,1,.1-.1v-.1a.3.3,0,0,0,.06-.18.24.24,0,0,1,0-.12s.07-.06.1,0a.11.11,0,0,1,0-.07s0,0,.06,0a0,0,0,0,1,0,.06s0,0,0,0,0,0,0,0,0,0,0,.06,0,0-.07,0a.07.07,0,0,0,0,.06l.09,0a.51.51,0,0,0-.26.33.44.44,0,0,1,.22-.1,1.15,1.15,0,0,0-.22.35l.1-.06a.8.8,0,0,0-.06.37l.09-.09a.77.77,0,0,0,.11.52,1.45,1.45,0,0,0,0-.36.69.69,0,0,0,.26.25l-.15-.43.24.24L19.9,18l.2.1a3.06,3.06,0,0,0-.21-.29.71.71,0,0,1,.25,0A1.24,1.24,0,0,1,20,17.6a.08.08,0,0,1,0-.05,0,0,0,0,1,.07,0,.11.11,0,0,1,.07.06.29.29,0,0,1,0-.13s.07-.07.1-.05a.69.69,0,0,0-.16-.18s.08,0,.1,0,0-.07,0-.11,0,0,0,0a.08.08,0,0,0,0,0,.06.06,0,0,0,0,0l0-.55a.09.09,0,0,0,0-.05l0,0-.08-.08-.18-.15a2.74,2.74,0,0,0-.39-.24Z"/><path d="M19.72,18.66s0,0,0,0a.69.69,0,0,1-.11-.5l-.07.07s0,0,0,0h0a.62.62,0,0,1,0-.33l-.06,0h0a0,0,0,0,1,0,0,1.12,1.12,0,0,1,.2-.33.38.38,0,0,0-.18.09h0s0,0,0,0a.66.66,0,0,1,.24-.33h-.06s0-.06.05-.07h0l.05,0a.1.1,0,0,0,0,0h0l0,0a0,0,0,0,1,0-.05h0s0,0,0,0a0,0,0,0,0,0,0,.05.05,0,0,0-.05,0s0,0,0,.07h0s0,0,0,0h0a.07.07,0,0,0-.05,0,.11.11,0,0,0,0,.08v0a.35.35,0,0,1-.05.18v.1h0a.11.11,0,0,0-.08.09.32.32,0,0,0,0,.14s0,0,0,0h0l-.07-.09-.05.23h0s0,0,0,0a2,2,0,0,1-.07-.23l-.06.06-.07.08s0,0,0,0h0a1.05,1.05,0,0,1,.27-.67s0,0,0,0a0,0,0,0,0,0,0s0,0,0,0h0a.1.1,0,0,1,0,.05,0,0,0,0,1-.05,0h0l0,.06h0l0-.06L19,17.3h0l0-.07-.08.16c0,.05-.05.05-.07.05s0,0,0,0h0s0,0,0,0a0,0,0,0,0,0,0,0,0,0,0,1,0,0s-.05,0-.07,0,0,0,0,0l0,0h0a.1.1,0,0,0-.12,0,.21.21,0,0,0-.08.1s0,0,0,0h0l0-.14-.08,0-.1,0h0s0,0,0,0a1.52,1.52,0,0,1,.52-.44,3,3,0,0,1,.64-.24.16.16,0,0,0,.1-.05.07.07,0,0,0,0-.06,0,0,0,0,0,0,0l-.09.09h0a0,0,0,0,0,0,0,.11.11,0,0,0,0-.08l-.13.12s0,0,0,0h0l0-.11a.56.56,0,0,1-.25.18h-.06a.16.16,0,0,1-.12-.08l-.06.15h0s-.07-.05-.1,0l0,0-.12.19s0,0,0,0h0a1.1,1.1,0,0,0,0-.18l-.12.32h0a0,0,0,0,1,0,0,.25.25,0,0,0,0-.17.73.73,0,0,1,0,.25h0a1,1,0,0,1-.09-.21l-.07.08a.39.39,0,0,0-.08.1h0a0,0,0,0,0,0,0,.49.49,0,0,1,.13-.38.88.88,0,0,1,.32-.22l.15-.07.21-.09,0,0s0,0,0,0h-.08l-.12.08h0s0,0,0,0v-.14l-.21.26h0a.66.66,0,0,1,0-.14l-.19.16h0v0a.44.44,0,0,0,.06-.16,1.3,1.3,0,0,0-.22.19s0,0,0,0h0a.44.44,0,0,0,0-.16.48.48,0,0,1-.11.09.17.17,0,0,1-.17,0h0a.68.68,0,0,1,.34-.26,1.42,1.42,0,0,1,.42-.1,3.82,3.82,0,0,1,1.17.06,1.28,1.28,0,0,0-.43-.14s0,0,0,0V16a.35.35,0,0,0-.13.08h0s0,0,0,0a.3.3,0,0,1,0-.16.12.12,0,0,0-.08,0h0a.24.24,0,0,1-.09.06h0v0a.41.41,0,0,1,.07-.11.31.31,0,0,0-.16.06l0,0a.8.8,0,0,1-.16.08,0,0,0,0,1,0,0s0,0,0,0a.47.47,0,0,1,.13-.11s0,0,0,0h0l-.05,0h0a.25.25,0,0,1-.25,0h0a1.41,1.41,0,0,1,1.08-.18h0a1.1,1.1,0,0,1,.33.12,2.06,2.06,0,0,1,.39.24c.06.05.12.09.18.15l.09.08h0l0,0a.05.05,0,0,1,0,0h0l0,.55a.11.11,0,0,1,0,.05l0,0h0v0a.15.15,0,0,1,0,.09.09.09,0,0,1-.06.06h0a.51.51,0,0,1,.13.16s0,0,0,0,0,0,0,0,0,0,0,0a.1.1,0,0,0-.05,0,.21.21,0,0,0,0,.13,0,0,0,0,1,0,0h0s0-.05-.06-.06,0,0,0,0,0,0,0,0a.05.05,0,0,0,0,0,1.88,1.88,0,0,0,.16.23h0a.5.5,0,0,0-.21,0l.19.27s0,0,0,0,0,0,0,0L19.93,18l.17.31s0,0,0,0h0l-.2-.2.13.38h0a1,1,0,0,1-.24-.21,1.17,1.17,0,0,1,0,.32,0,0,0,0,1,0,0Zm-.11-.56h0s0,0,0,0a.86.86,0,0,0,.09.49,1.22,1.22,0,0,0,0-.33s0,0,0,0h0a.8.8,0,0,0,.22.23l-.14-.4a0,0,0,0,1,0,0s0,0,0,0l.18.17L19.88,18s0,0,0,0h0l.16.08-.18-.26h0a0,0,0,0,1,0,0h.21a1.33,1.33,0,0,1-.14-.19s0,0,0-.06a.05.05,0,0,1,0,0H20l0,0a.11.11,0,0,1,0-.08.11.11,0,0,1,.06-.07h0a.67.67,0,0,0-.14-.15s0,0,0,0,0,0,0,0h0a.1.1,0,0,0,.05,0,.22.22,0,0,0,0-.08v0a0,0,0,0,1,0,0h0l0,0a.06.06,0,0,1,0,0l0-.55h0a0,0,0,0,0,0,0s0,0,0,0h0l-.08-.08-.18-.15a2.42,2.42,0,0,0-.39-.24l-.33-.12h0a1.38,1.38,0,0,0-1,.17.23.23,0,0,0,.2,0h0l.06,0a0,0,0,0,1,.06,0l0,0s0,.06-.06.07l-.09.07.11-.07h0a.27.27,0,0,1,.2-.07h0a.61.61,0,0,0-.07.1.1.1,0,0,0,.05,0h0a.25.25,0,0,1,.13,0h0a.23.23,0,0,0,0,.14A.37.37,0,0,1,19,16h0v.09a1.3,1.3,0,0,1,.48.19s0,0,0,0h0a3.38,3.38,0,0,0-1.23-.08,1.32,1.32,0,0,0-.41.09.69.69,0,0,0-.32.24.17.17,0,0,0,.14,0l.12-.11a0,0,0,0,1,0,0v0a.38.38,0,0,1,0,.15A1,1,0,0,1,18,16.4h0s0,0,0,0a.88.88,0,0,1-.05.15l.16-.14s0,0,0,0h0a.66.66,0,0,0,0,.14l.22-.26h0s0,0,0,0v.15l.11-.07.06,0a.05.05,0,0,1,.05,0,.06.06,0,0,1,0,.07l0,0-.22.1-.15.06a.85.85,0,0,0-.31.22.43.43,0,0,0-.12.32l.06-.07.09-.1h0s0,0,0,0a.77.77,0,0,0,.08.19A.74.74,0,0,0,18,17a0,0,0,0,1,0,0,0,0,0,0,1,0,0,.3.3,0,0,1,.08.16l.11-.29s0,0,0,0a0,0,0,0,1,0,0,1.16,1.16,0,0,1,0,.18l.1-.15a.1.1,0,0,1,0-.05.09.09,0,0,1,.11,0l.07-.15h0s.06.08.11.08h0a.47.47,0,0,0,.25-.19h0l0,.11.12-.12h0a.35.35,0,0,1,.05.08l.08-.08h0a.05.05,0,0,1,0,.05.11.11,0,0,1,0,.08.22.22,0,0,1-.11.05,3.69,3.69,0,0,0-.64.24,1.65,1.65,0,0,0-.49.4l.06,0a.32.32,0,0,0,.09,0h0l0,.12s0-.06.08-.07a.12.12,0,0,1,.14,0l0-.06h0s0,0,0,0,0,0,0,0,0,0,0,0h0l0,0a0,0,0,0,1,.05,0h0s0,0,0,0,0,0,0,0l.09-.19a0,0,0,0,1,0,0h0l0,.06,0-.1h0l0,.06,0-.07h0s0,0,0,0a0,0,0,0,0,0,0l0,0v0a.06.06,0,0,1,.07,0s0,.05,0,.07l0,.05a1,1,0,0,0-.26.62l0-.06a.27.27,0,0,0,.07-.08h0a.83.83,0,0,0,.06.21l.05-.23a0,0,0,0,1,0,0,0,0,0,0,1,0,0l.06.07a.27.27,0,0,1,0-.09.13.13,0,0,1,.09-.11v-.09h0a.26.26,0,0,0,0-.17v0a.28.28,0,0,1,0-.09.11.11,0,0,1,.07-.06h0s0,0,0-.06.05,0,.07,0a.05.05,0,0,1,.05,0s0,0,0,0v0s0,0,0,0h0a.05.05,0,0,1,0,0,0,0,0,0,1,0,.05s0,0-.05,0h0s0,0,0,0l.07,0s0,0,0,0h0a.48.48,0,0,0-.25.29.39.39,0,0,1,.2-.08h0a1.1,1.1,0,0,0-.2.31l.06,0h0v0a.63.63,0,0,0-.06.33l.07-.07Z"/><path d="M20,16.55h0a1.53,1.53,0,0,0-.5-.24s0,0,0,0h0a1.72,1.72,0,0,1,.51.25s0,0,0,0Z"/><path d="M19.86,16.59h0a1.08,1.08,0,0,0-.53-.18,2.62,2.62,0,0,0-.57,0,.49.49,0,0,0-.18.08h0a0,0,0,0,1,0,0,.4.4,0,0,1,.2-.08,2.58,2.58,0,0,1,.57,0,1.16,1.16,0,0,1,.55.19,0,0,0,0,1,0,0Z"/><path d="M19.36,16.75h0s0,0,0,0a.66.66,0,0,1,.21-.08.36.36,0,0,1,.23,0v0s0,0,0,0a.29.29,0,0,0-.21,0,.88.88,0,0,0-.2.09Z"/><path d="M19.29,17.16h0v0a1.54,1.54,0,0,1,.29-.28.66.66,0,0,1,.25-.13h0s0,0,0,0a.55.55,0,0,0-.24.12,1.85,1.85,0,0,0-.28.28Z"/><path d="M19.73,17h0s0,0,0,0a.61.61,0,0,0,.13-.22h0s0,0,0,0a.53.53,0,0,1-.13.23Z"/><path class="cls-6" d="M20.61,15.53v.2a.44.44,0,0,1,0,.16.18.18,0,0,1-.1.09.18.18,0,0,1-.1,0,.43.43,0,0,1-.18-.06.6.6,0,0,1-.15-.09.21.21,0,0,1-.08-.11h0a.13.13,0,0,1,0-.12v0l.07-.07,0,0c0-.05.06-.12,0-.17a.1.1,0,0,0,0-.05.19.19,0,0,1,0-.07.06.06,0,0,1,.06,0h.17l.13.05a.43.43,0,0,1,.13.09.19.19,0,0,1,.05.1s0,0,0,.05Z"/><polygon class="cls-4" points="20.32 16.81 20.18 16.65 20.18 15.61 20.32 15.61 20.32 16.81"/><path class="cls-8" d="M20.34,16.84l-.17-.19v-1h.17Zm-.15-.2.12.13V15.63h-.12Z"/><path class="cls-7" d="M20.61,15.71v0a.44.44,0,0,1,0,.16.18.18,0,0,1-.1.09s-.06-.08-.1-.12a.28.28,0,0,0-.17-.09l-.2,0H20a.13.13,0,0,1,0-.12v0l.07-.07h.18a.69.69,0,0,1,.28.11A.23.23,0,0,1,20.61,15.71Z"/><path d="M19.74,18.29h0s0,0,0,0a2,2,0,0,0,.11-.6v-.08A1.26,1.26,0,0,1,20,17h0a0,0,0,0,1,0,0,1.25,1.25,0,0,0-.18.63v.08a2.05,2.05,0,0,1-.1.61Z"/><path class="cls-3" d="M25,24.77l.34-.19A4,4,0,0,1,24,24.45c-.18-.06-.36-.15-.54-.21a1.17,1.17,0,0,0-.58-.08c-.05,0-.1,0-.1.08h0a.86.86,0,0,1,0,.16.17.17,0,0,0,.05.14.18.18,0,0,0,.16,0,.92.92,0,0,1,.33,0,1.14,1.14,0,0,1,.34.15,2.55,2.55,0,0,0,1.76.18A2,2,0,0,0,25,24.77Z"/><path d="M24.73,25a2.52,2.52,0,0,1-1.12-.26l-.07,0a.83.83,0,0,0-.27-.12.69.69,0,0,0-.32,0,.33.33,0,0,1-.17,0,.2.2,0,0,1-.06-.16.09.09,0,0,1,0,0v-.11c0-.06.07-.09.12-.09a1.14,1.14,0,0,1,.58.08l.25.09.3.12a3.91,3.91,0,0,0,1.33.13h.06l-.05,0-.17.09-.14.08a2.43,2.43,0,0,1,.38.13l0,0h0A2.88,2.88,0,0,1,24.73,25Zm-1.61-.45h.15a1,1,0,0,1,.29.12l.06,0a2.45,2.45,0,0,0,1.71.2,2.65,2.65,0,0,0-.37-.12h0l.17-.1.13-.07A3.68,3.68,0,0,1,24,24.46l-.3-.11-.25-.1a1.21,1.21,0,0,0-.57-.08s-.09,0-.09.07h0a.13.13,0,0,0,.1,0,.78.78,0,0,0,.3,0v0a1.1,1.1,0,0,1-.31,0,.12.12,0,0,1-.09,0s0,0,0,.06v0c0,.05,0,.1,0,.13a.16.16,0,0,0,.15,0Z"/><path class="cls-3" d="M17.75,24.24h0s-.06-.07-.11-.08a1.12,1.12,0,0,0-.57.08c-.19.06-.36.15-.55.21a4,4,0,0,1-1.34.13l.34.19a2,2,0,0,0-.41.13,2.55,2.55,0,0,0,1.76-.18,1.14,1.14,0,0,1,.34-.15.92.92,0,0,1,.33,0,.18.18,0,0,0,.16,0,.17.17,0,0,0,.05-.14A.43.43,0,0,1,17.75,24.24Z"/><path d="M15.75,25a2.79,2.79,0,0,1-.64-.07h0l0,0a2.43,2.43,0,0,1,.38-.13l-.14-.08-.18-.09,0,0h0a4,4,0,0,0,1.34-.13l.3-.12.24-.09a1.16,1.16,0,0,1,.58-.08c.06,0,.12,0,.12.09v0s0,.06,0,.09v0a.19.19,0,0,1-.05.16.33.33,0,0,1-.17,0,.69.69,0,0,0-.32,0,1,1,0,0,0-.28.12l-.06,0A2.57,2.57,0,0,1,15.75,25Zm-.6-.09a2.44,2.44,0,0,0,1.71-.2l.07,0a1,1,0,0,1,.28-.12,1.22,1.22,0,0,1,.33,0,.16.16,0,0,0,.15,0,.15.15,0,0,0,0-.13.43.43,0,0,1,0,0v-.06a.16.16,0,0,1-.09,0,1.17,1.17,0,0,1-.32,0v0a.8.8,0,0,0,.31,0s.08,0,.09,0h0s-.05-.06-.09-.07a1.24,1.24,0,0,0-.57.08l-.24.1-.31.11a3.65,3.65,0,0,1-1.28.13l.12.07.17.1h0A2.4,2.4,0,0,0,15.15,24.9Z"/><ellipse class="cls-5" cx="18.44" cy="21.6" rx="0.28" ry="0.14"/><path class="cls-3" d="M18.44,21.75c-.17,0-.3-.06-.3-.15s.13-.16.3-.16.3.07.3.16S18.61,21.75,18.44,21.75Zm0-.28c-.15,0-.27.06-.27.13s.12.13.27.13.27-.06.27-.13S18.59,21.47,18.44,21.47Z"/><ellipse class="cls-3" cx="18.44" cy="21.6" rx="0.26" ry="0.13"/><path class="cls-5" d="M18.44,21.74c-.15,0-.27-.06-.27-.14s.12-.14.27-.14.27.06.27.14S18.59,21.74,18.44,21.74Zm0-.26c-.13,0-.25.06-.25.12s.12.11.25.11.24-.05.24-.11S18.57,21.48,18.44,21.48Z"/><rect class="cls-10" x="18.36" y="21.32" width="0.15" height="0.37"/><path class="cls-4" d="M18.52,21.7h-.16a0,0,0,0,1,0,0v-.36a0,0,0,0,1,0,0h.16s0,0,0,0v.36S18.53,21.7,18.52,21.7Zm-.14,0h.12v-.34h-.12Z"/><path class="cls-3" d="M23.15,24.7a11.05,11.05,0,0,1-5.82,0v-.43a11.05,11.05,0,0,0,5.82,0Z"/><path d="M20.24,25.1a11,11,0,0,1-2.91-.39h0v-.46h0a11.05,11.05,0,0,0,5.82,0h0v.46h0A11.16,11.16,0,0,1,20.24,25.1Zm-2.9-.41a11,11,0,0,0,5.8,0v-.41a11,11,0,0,1-5.8,0Z"/><path d="M17.63,24.39h0l-.08.28.14,0v0l-.18-.05Z"/><path d="M17.89,24.45l-.08.1h0a.39.39,0,0,0,.06-.11Z"/><path d="M18.09,24.5l0,.2c0,.07,0,.11.05.11s.09,0,.11-.08l0-.19h0l0,.19c0,.1-.08.13-.15.12s-.11-.06-.09-.16l0-.2Z"/><path d="M18.32,24.89l.06-.33h0l.08.18a.56.56,0,0,1,0,.12h0c0-.05,0-.09,0-.14l0-.13h0l-.05.33h0l-.08-.18a.56.56,0,0,1,0-.12h0s0,.08,0,.13l0,.14Z"/><path d="M18.76,24.62l-.05.33h0l0-.32Z"/><path d="M19.12,24.83a.15.15,0,1,1-.3,0,.15.15,0,0,1,.17-.15A.15.15,0,0,1,19.12,24.83Zm-.26,0A.12.12,0,0,0,19,25a.11.11,0,0,0,.12-.12c0-.07,0-.14-.09-.15S18.87,24.73,18.86,24.81Z"/><path d="M19.19,25l0-.33h.05l.09.18a.54.54,0,0,1,0,.11h0a.66.66,0,0,1,0-.14v-.14h0l0,.33h0l-.09-.17a.61.61,0,0,1-.05-.12h0a.57.57,0,0,0,0,.14V25Z"/><path d="M19.69,24.71h.18v0h-.13v.11h.13v0h-.13V25h0Z"/><path d="M20,25l0,.1h0l.12-.33h.05l.11.33h-.05l0-.1Zm.11,0,0-.09s0,0,0-.06h0a.14.14,0,0,1,0,.06l0,.09Z"/><path d="M20.28,24.72v.33h0v-.33Z"/><path d="M20.44,24.75h-.1v0h.25v0h-.11v.3h0Z"/><path d="M20.78,24.71h0l0,.3H21v0H20.8Z"/><path d="M21.1,24.91l0,.11h0l.09-.34h.05l.14.32h0l0-.1Zm.11,0,0-.09a.14.14,0,0,1,0-.06h0a.13.13,0,0,1,0,.06l0,.1Z"/><path d="M21.48,24.65l.18,0v0l-.14,0v.11l.13,0v0h-.12l0,.15h-.05Z"/><path d="M22.05,24.73a.17.17,0,0,1-.13.2.17.17,0,0,1-.05-.34C22,24.57,22,24.63,22.05,24.73Zm-.26.05a.12.12,0,0,0,.13.11c.07,0,.09-.07.08-.15s-.05-.13-.12-.12S21.78,24.7,21.79,24.78Z"/><path d="M22.1,24.56l.08,0a.16.16,0,0,1,.1,0,.06.06,0,0,1,0,.06.08.08,0,0,1,0,.09h0a.17.17,0,0,1,.06.06l0,.09h0s0,0,0-.07,0-.06-.08-.05h0l0,.14h0Zm.07.14h0c.05,0,.07,0,.06-.08s0-.05-.08-.05h0Z"/><path d="M22.67,24.77a.19.19,0,0,1-.08,0,.16.16,0,0,1-.19-.14.15.15,0,0,1,.13-.2h.08v0h-.07a.12.12,0,0,0-.1.16c0,.08.07.13.15.11l.07,0Z"/><path d="M22.89,24.57l-.13,0,0,.12.14,0v0l-.18,0-.08-.32.18,0v0l-.13,0,0,.1.12,0Z"/><path class="cls-4" d="M15.35,23.91l-1,.33a.49.49,0,0,1,.15-.25l.07.11s.09-.28.24-.35a.93.93,0,0,0-.52.16l.13,0a2,2,0,0,0-.29.41.93.93,0,0,0,.52.18.32.32,0,0,1-.11.14,1,1,0,0,0,.56-.19,1.34,1.34,0,0,1-.38-.15v.12s-.3-.07-.31-.13l1-.3.14,0Z"/><path d="M14.5,24.69l0,0a.35.35,0,0,0,.1-.12,1,1,0,0,1-.51-.18h0a2.21,2.21,0,0,1,.28-.4l-.13,0h0a.89.89,0,0,1,.53-.17h.07l-.06,0c-.14.07-.23.34-.24.35v0L14.5,24a.42.42,0,0,0-.12.21l1-.33.21.11-.17,0-1,.29a.86.86,0,0,0,.29.1v-.14l0,0a1.14,1.14,0,0,0,.37.15h0a1,1,0,0,1-.57.19Zm.18-.17h0a.26.26,0,0,1-.08.12.9.9,0,0,0,.49-.16,1.58,1.58,0,0,1-.34-.13v.11h0c-.05,0-.32-.07-.33-.14h0l1-.29.1,0-.13-.07-1,.34v0A.49.49,0,0,1,14.5,24h0l.07.09a.74.74,0,0,1,.19-.3.94.94,0,0,0-.45.14l.13,0h0a2,2,0,0,0-.29.4,1,1,0,0,0,.51.17Z"/><path class="cls-4" d="M15.63,23.79a.1.1,0,0,0-.09,0,.09.09,0,0,0,0-.06l0-.06c-.1,0-.12.09-.12.15a.83.83,0,0,0,0,.15l.06.12a.1.1,0,0,0,0,.05.08.08,0,0,0,.1,0,.19.19,0,0,0,0-.08s0-.05,0-.08h.05a.11.11,0,0,0,.1-.11A.11.11,0,0,0,15.63,23.79Zm0,.15a0,0,0,0,1-.05-.05,0,0,0,0,1,.05,0,0,0,0,0,1,0,0A0,0,0,0,1,15.63,23.94Z"/><path d="M15.52,24.2h0s0,0,0-.06a.39.39,0,0,1-.06-.11.38.38,0,0,1,0-.16.2.2,0,0,1,.05-.16.07.07,0,0,1,.08,0,.12.12,0,0,1,.06.06l0,0a.11.11,0,0,1,.08,0,.11.11,0,0,1,.11.11.11.11,0,0,1-.11.12h0v.06s0,.06,0,.09a.1.1,0,0,1-.05,0Zm-.1-.48h0a.15.15,0,0,0,0,.14.57.57,0,0,0,0,.15l.06.11a.1.1,0,0,0,0,.05h0s0,0,0,0a.17.17,0,0,0,0-.07.22.22,0,0,1,0-.08v0h.06a.1.1,0,0,0,.09-.1.09.09,0,0,0-.09-.09.09.09,0,0,0-.08,0h0v0l0,0s0-.05-.05-.05Zm.21.24a.07.07,0,0,1-.07-.07.07.07,0,0,1,.07-.06.06.06,0,0,1,.06.06A.07.07,0,0,1,15.63,24Zm0-.1s0,0,0,0a0,0,0,0,0,0,0s0,0,0,0A0,0,0,0,0,15.63,23.86Z"/><rect class="cls-4" x="18.32" y="22.11" width="0.15" height="0.59" transform="translate(35.58 45.75) rotate(-176.98)"/><path d="M18.46,22.72h-.17l0-.62h.17Zm-.14,0h.12l0-.56h-.12Z"/><path d="M16.72,22.31l-.13-.11,0,0a.63.63,0,0,0,.12.11Z"/><path d="M17.77,22.31v0l.14-.09v0Z"/><path d="M17.85,23.49l-.09-.1,0,0,0,0,0,0,.09.09Z"/><rect x="16.55" y="23.35" width="0.16" height="0.03" transform="translate(-10.98 15.6) rotate(-38.86)"/><rect x="22.61" y="22.19" width="0.03" height="0.16" transform="translate(-8.85 26.46) rotate(-52.13)"/><polygon points="23.78 22.32 23.76 22.3 23.89 22.2 23.89 22.2 23.91 22.2 23.91 22.21 23.91 22.21 23.78 22.32"/><rect x="23.82" y="23.3" width="0.03" height="0.17" transform="translate(-9.15 28.6) rotate(-53.44)"/><path d="M22.63,23.49l0,0,.12-.12,0,0Z"/></g></g></svg>