<svg viewBox="0 0 40.5 40.5" xmlns="http://www.w3.org/2000/svg"><path d="m40.5 20.25h-40.5a20.25 20.25 0 0 1 40.5 0z" fill="#00209f"/><path d="m40.5 20.25a20.25 20.25 0 0 1 -40.5 0z" fill="#d21034"/><path d="m13.86 15.01h12.77v10.47h-12.77z" fill="#fff"/><path d="m21.52 19.55-.93 1.83.2.06.9-1.89z" fill="#f1b517"/><path d="m20.8 21.46-.23-.08.94-1.84h.2zm-.19-.09.18.06.88-1.86h-.14z"/><path d="m20.39 18.26h-.3v-.14h.25a.59.59 0 0 0 .05.14z" fill="#f1b517"/><path d="m20.41 18.28h-.33a.78.78 0 0 0 0-.14h.27a.59.59 0 0 1 0 .14zm-.3 0h.27a.5.5 0 0 1 0-.12h-.23a.5.5 0 0 0 -.04.09z"/><path d="m20.43 18.54h-.38a2.36 2.36 0 0 0 0-.28h.3c.06.1.07.19.08.28z" fill="#f1b517"/><path d="m20.45 18.55h-.45c0-.11 0-.2 0-.28h.32a1.88 1.88 0 0 1 0 .28zm-.38 0h.35c0-.1 0-.18 0-.25h-.32c-.01.05-.02.13-.03.23z"/><path d="m26.63 24.11v1.37h-12.77v-1.37a1.59 1.59 0 0 1 .41-.21l2.85-1.11a3 3 0 0 1 1.49-.31 1.74 1.74 0 0 1 .54.19 2.19 2.19 0 0 1 .46.34l.1.11.09.11a.87.87 0 0 1 .09.11.31.31 0 0 1 .06.13.45.45 0 0 1 0 .16l.26.23.27-.23a.44.44 0 0 1 0-.16.52.52 0 0 1 .06-.13l.09-.11a1.09 1.09 0 0 0 .1-.11l.09-.11a2.19 2.19 0 0 1 .46-.34 1.74 1.74 0 0 1 .54-.19 3 3 0 0 1 1.49.31l2.85 1.11a1.83 1.83 0 0 1 .47.21z" fill="#016a16"/><path d="m18.97 19.55.92 1.83-.2.06-.9-1.89z" fill="#f1b517"/><path d="m19.68 21.46-.91-1.92h.23l.93 1.83zm-.87-1.89.89 1.86.18-.06-.88-1.8z"/><path d="m19.98 20.54-.26-1.18h-.22l.49 2.08z" fill="#f1b517"/><path d="m20 21.56-.52-2.21h.24l.28 1.19zm-.49-2.19.49 1.95v-.78l-.26-1.17z"/><path d="m19 20.26a.62.62 0 0 0 -.14-.18c-.33-.33-.6-.71-.9-1.06a1.22 1.22 0 0 0 -.17-.15.35.35 0 0 0 -.22-.06.31.31 0 0 0 -.2.17.66.66 0 0 0 -.07.25c0 .12 0 .25-.05.37a.59.59 0 0 0 0 .19.44.44 0 0 0 .18.2l1.39 1.06c.06 0 .13.08.19 0s0-.08 0-.13a1.49 1.49 0 0 0 0-.21 1.25 1.25 0 0 1 0-.19c-.01-.07.05-.16-.01-.26z" fill="#0a328c"/><path d="m19 21.12a.29.29 0 0 1 -.15-.06l-1.42-1.06a.47.47 0 0 1 -.18-.21.4.4 0 0 1 0-.19c0-.12 0-.25 0-.37a1.12 1.12 0 0 1 .08-.26.32.32 0 0 1 .21-.17.35.35 0 0 1 .23.06 1.25 1.25 0 0 1 .23.14c.11.12.21.26.32.38a7.32 7.32 0 0 0 .58.67.79.79 0 0 1 .14.17.38.38 0 0 1 0 .21s0 .06 0 .1 0 .08 0 .12a.64.64 0 0 1 0 .07v.21a.21.21 0 0 1 0 .15zm-1.36-2.3a.3.3 0 0 0 -.19.15.78.78 0 0 0 -.07.25v.38a.91.91 0 0 0 0 .17.5.5 0 0 0 .18.2l1.28 1.03c.07.06.13.07.17 0s0-.08 0-.12a1.49 1.49 0 0 0 0-.21s0 0 0-.07a.5.5 0 0 1 0-.12.41.41 0 0 1 0-.11.26.26 0 0 0 0-.19.65.65 0 0 0 -.13-.16 7.32 7.32 0 0 1 -.58-.67l-.3-.35a1.14 1.14 0 0 0 -.17-.15.27.27 0 0 0 -.22-.03z"/><path d="m19.32 19.28.73 2.11v.45l-.98-2.56z" fill="#f1b517"/><path d="m20.07 21.91-1-2.65h.27l.75 2.12zm-1-2.62.93 2.47v-.37l-.73-2.09z"/><path d="m19.1 20.34a.41.41 0 0 0 -.17-.12.18.18 0 0 0 -.16.05.34.34 0 0 0 -.05.26 1.38 1.38 0 0 0 .49.89c.15.12.33.21.49.32a2.15 2.15 0 0 1 .3.26s.09.08.14.06a.14.14 0 0 0 .05-.08.7.7 0 0 0 0-.35 1.1 1.1 0 0 0 -.09-.14l-.12-.16c-.17-.22-.34-.43-.52-.63s-.25-.26-.36-.36z" fill="#d20014"/><path d="m20.09 22.05a.19.19 0 0 1 -.09-.05 3 3 0 0 0 -.27-.23l-.2-.13a3 3 0 0 1 -.3-.19 1.4 1.4 0 0 1 -.49-.9.34.34 0 0 1 .06-.27.18.18 0 0 1 .16-.05.31.31 0 0 1 .18.12l.31.33c.18.2.35.41.52.63l.12.16a.41.41 0 0 1 .07.11.52.52 0 0 1 0 .35.13.13 0 0 1 -.06.09zm-1.19-1.82a.18.18 0 0 0 -.12.05.35.35 0 0 0 -.05.25 1.35 1.35 0 0 0 .49.88 2.9 2.9 0 0 0 .29.19 1.37 1.37 0 0 1 .2.13 3.11 3.11 0 0 1 .29.27q.07.08.12.06s0 0 0-.08a.53.53 0 0 0 0-.33l-.07-.11-.12-.16c-.17-.22-.34-.43-.52-.63s-.2-.23-.31-.33a.28.28 0 0 0 -.16-.11z"/><path d="m16.32 20.64c-.12-.06-.25-.13-.37-.07a.32.32 0 0 0 -.12.36c0 .13.1.25.13.38s0 .32 0 .48a1.41 1.41 0 0 0 .25.61l.33.56a2.1 2.1 0 0 0 .22.3.71.71 0 0 0 .56.16.66.66 0 0 0 .45-.35c.06-.12.09-.26.2-.32a.77.77 0 0 1 .3-.06.51.51 0 0 0 .36-.26.46.46 0 0 0 .06-.28.32.32 0 0 0 -.05-.19c0-.07-.14-.1-.21-.14l-.29-.16-1.14-.66z" fill="#0a328c"/><path d="m17.2 23.44a.68.68 0 0 1 -.45-.17 1.34 1.34 0 0 1 -.22-.31l-.33-.56a1.44 1.44 0 0 1 -.25-.61.74.74 0 0 1 0-.21 1.11 1.11 0 0 0 0-.26 1.66 1.66 0 0 0 -.06-.21.64.64 0 0 1 -.06-.18.31.31 0 0 1 .12-.37.41.41 0 0 1 .38.07l2.12 1.18a.31.31 0 0 1 .16.11.33.33 0 0 1 .05.2.52.52 0 0 1 -.05.28.53.53 0 0 1 -.38.27h-.09a.39.39 0 0 0 -.2.05.38.38 0 0 0 -.15.22s0 .07 0 .1a.64.64 0 0 1 -.46.35zm-1.15-2.88h-.09a.29.29 0 0 0 -.12.34 1 1 0 0 0 .06.18 1.72 1.72 0 0 1 .07.21 1.22 1.22 0 0 1 0 .27 1.48 1.48 0 0 0 0 .21 1.45 1.45 0 0 0 .25.6l.33.56a1.66 1.66 0 0 0 .22.3.63.63 0 0 0 .54.15.6.6 0 0 0 .45-.34.36.36 0 0 0 0-.09.48.48 0 0 1 .16-.23.41.41 0 0 1 .21 0h.1a.52.52 0 0 0 .35-.26.5.5 0 0 0 0-.46.44.44 0 0 0 -.15-.1h-.06l-2.11-1.18a.58.58 0 0 0 -.21-.16z"/><path d="m17.06 19.68a.91.91 0 0 0 -.28-.17.28.28 0 0 0 -.3.09.43.43 0 0 0 0 .19 2.17 2.17 0 0 0 0 .36 2.7 2.7 0 0 0 .06.41.57.57 0 0 0 .07.22.28.28 0 0 0 .09.1h.12l.32.17.63.35q.36.19.72.42a.27.27 0 0 0 .15.05c.1 0 .15-.12.17-.22a1.45 1.45 0 0 0 0-.55.41.41 0 0 0 -.11-.1 1.3 1.3 0 0 0 -.18-.15c-.31-.25-.62-.5-.94-.74z" fill="#0a328c"/><path d="m18.6 21.92a.33.33 0 0 1 -.15-.05l-.72-.42-.63-.35-.1-.05-.22-.12h-.05-.08a.43.43 0 0 1 -.09-.1 1 1 0 0 1 -.08-.23c0-.13 0-.27 0-.41v-.06c0-.1 0-.2 0-.3a.53.53 0 0 1 0-.19.27.27 0 0 1 .31-.1.85.85 0 0 1 .29.17l1.46 1.16a.75.75 0 0 1 .13.11.41.41 0 0 1 .07.15 1.32 1.32 0 0 1 0 .56c0 .06-.06.21-.18.22zm-1.91-2.41a.25.25 0 0 0 -.2.1.37.37 0 0 0 0 .18 1.51 1.51 0 0 0 0 .3v.06a2.87 2.87 0 0 0 .05.41.52.52 0 0 0 .07.21.28.28 0 0 0 .09.1h.07.05l.18.13.1.06.62.35c.24.13.49.27.72.42a.3.3 0 0 0 .15 0c.1 0 .14-.15.15-.21a1.1 1.1 0 0 0 0-.54.25.25 0 0 0 -.06-.14 1.31 1.31 0 0 0 -.12-.11h-.06l-1.46-1.16a.73.73 0 0 0 -.28-.17z"/><path d="m17.82 18.79 2.33 2.58-.12.14-2.4-2.76z" fill="#f1b517"/><path d="m20 21.53-2.43-2.8.24.06 2.34 2.59zm-2.36-2.76 2.36 2.72.1-.12-2.29-2.57z" fill="#231f20"/><path d="m18.7 21a.22.22 0 0 0 -.41.13 1.1 1.1 0 0 0 0 .54.27.27 0 0 0 -.2.19.94.94 0 0 0 0 .29 1.8 1.8 0 0 0 .26.79 1.29 1.29 0 0 0 .56.39 3.29 3.29 0 0 0 .67.17.5.5 0 0 0 .32 0 .46.46 0 0 0 .21-.29 1.65 1.65 0 0 0 .09-.54 2.46 2.46 0 0 0 0-.28v-.14s0-.08 0-.11-.2-.14-.26-.14l-.23-.18-.47-.37z" fill="#d20014"/><path d="m19.8 23.52h-.18a4.33 4.33 0 0 1 -.67-.16 1.3 1.3 0 0 1 -.57-.4 1.84 1.84 0 0 1 -.26-.8.57.57 0 0 1 0-.29.27.27 0 0 1 .19-.2 1.18 1.18 0 0 1 0-.53c0-.12.06-.19.13-.22s.21 0 .3.08l.54.4.46.38.24.18.02.04.14.11a.3.3 0 0 1 0 .1v.13a1.42 1.42 0 0 1 0 .29 1.71 1.71 0 0 1 -.09.55.42.42 0 0 1 -.22.29.32.32 0 0 1 -.03.05zm-1.32-2.61h-.06c-.06 0-.09.09-.11.2a1.19 1.19 0 0 0 0 .53.25.25 0 0 0 -.19.18.88.88 0 0 0 0 .28 1.62 1.62 0 0 0 .27.78 1.1 1.1 0 0 0 .55.39 3.21 3.21 0 0 0 .66.17.54.54 0 0 0 .31 0 .43.43 0 0 0 .21-.28 1.65 1.65 0 0 0 .09-.54 2.46 2.46 0 0 0 0-.28v-.14a.11.11 0 0 0 0-.08l-.21-.12h-.07l-.23-.18-.47-.37-.54-.45a.43.43 0 0 0 -.21-.09z"/><path d="m16.84 19.41 3.42 2.65-.11.17-3.41-2.73z" fill="#f1b517"/><path d="m20.15 22.25-3.42-2.73.12-.12 3.44 2.66zm-3.39-2.75 3.39 2.71.09-.15-3.4-2.63z" fill="#231f20"/><path d="m19.75 22a.07.07 0 0 0 0-.07s-.05 0-.06 0a.19.19 0 0 0 0 .08v.13.33s0 0 .05 0h.05s0 0 0 0v-.12l-.05-.24z" fill="#f1b517"/><path d="m19.78 22.61a.07.07 0 0 1 -.06 0s0 0 0 0l-.06-.33a.59.59 0 0 0 0-.13.27.27 0 0 1 0-.09.08.08 0 0 1 .09 0s0 .05 0 .08l.09.49a0 0 0 0 1 0 0 .11.11 0 0 1 -.06 0zm-.08-.61a0 0 0 0 0 0 0 .11.11 0 0 0 0 .08.5.5 0 0 0 0 .12l.06.34s0 0 0 0l-.02-.54s0-.05 0-.06z" fill="#231f20"/><path d="m19.33 18.39.27 1.11h-.16z" fill="#fff"/><path d="m19.62 19.52h-.19l-.12-1.13zm-.16 0h.12l-.22-.91z"/><path d="m18.85 18.39.4 1.1h-.2z" fill="#fff"/><path d="m19.27 19.5h-.27l-.2-1.11zm-.21 0h.17l-.34-.94z"/><path d="m18.39 18.7.55 1.05h-.21z" fill="#fff"/><path d="m19 19.76h-.23l-.36-1.06zm-.22 0h.18l-.47-.89z"/><path d="m16.16 20.48 4.07 2.25-.16.13-4.02-2.3z" fill="#f1b517"/><path d="m20.08 22.88-4.08-2.32.14-.09 4.09 2.26zm-4-2.32 4 2.29.13-.12-4-2.23z" fill="#231f20"/><path d="m16.96 17.9.48.31v.24l-.26-.02z" fill="#f1b517"/><path d="m17.46 18.46h-.28l-.25-.58.53.34zm-.27 0h.24v-.22l-.43-.3z"/><path d="m17.61 18.29-.38.29.23.2.31-.25z" fill="#f1b517"/><path d="m17.46 18.79-.25-.21.4-.31.18.27zm-.21-.21.21.18.29-.23-.14-.22z"/><path d="m15.86 18.72.53.21v.22l-.24.02z" fill="#f1b517"/><path d="m16.15 19.19-.32-.49.57.22v.24zm-.25-.44.26.41h.22v-.2z"/><path d="m16.22 19.31.32-.34.17.19-.3.29z" fill="#f1b517"/><path d="m16.41 19.46-.21-.15.34-.36.19.21zm-.17-.15.17.12.28-.27-.15-.16z"/><path d="m15.67 20.28-.04-.21-.55-.12.34.39z" fill="#f1b517"/><path d="m15.41 20.36-.41-.43.61.13v.23zm-.3-.39.31.36.24-.06v-.19z"/><path d="m16 20.28-.21-.18-.27.38.24.11z" fill="#f1b517"/><path d="m15.77 20.6-.27-.11.29-.41.23.2zm-.23-.12.22.09.22-.29-.19-.16z"/><path d="m18 18.49a.29.29 0 0 0 -.18 0l-.14.07a1.05 1.05 0 0 0 -.27.2 1.92 1.92 0 0 1 -.41.24.15.15 0 0 0 0 0s0 .05 0 .08a.24.24 0 0 0 .08.06s0 0 0 0l.22-.24a.68.68 0 0 1 .27-.18h.22a.65.65 0 0 0 .24-.06s-.03-.15-.03-.17z" fill="#0a328c"/><path d="m18.06 18.67a.07.07 0 0 0 0-.06s0 0-.05 0-.13.05-.2.06-.15 0-.23 0a.17.17 0 0 0 -.14.07l-.11.13c-.07.09-.17.16-.24.25a.13.13 0 0 0 0 .07.18.18 0 0 0 .05.07l.1.06h.06a.1.1 0 0 0 .05 0v-.06a.88.88 0 0 1 .09-.2.22.22 0 0 1 .11-.12.26.26 0 0 1 .15 0h.19z" fill="#d20014"/><path d="m18.29 22.13s.06.07.1.08a.25.25 0 0 0 .16-.05.51.51 0 0 0 .14-.41.11.11 0 0 0 0-.07h-.4c-.08 0-.08.13-.07.2a.55.55 0 0 0 .07.25z" fill="#016a16"/><path d="m18.42 22.22a.21.21 0 0 1 -.11-.08.49.49 0 0 1 -.1-.26c0-.07 0-.18.08-.21a.14.14 0 0 1 .11 0h.3a.08.08 0 0 1 0 .08.5.5 0 0 1 -.15.42.24.24 0 0 1 -.13.05zm-.12-.1s.06.07.09.07a.17.17 0 0 0 .15 0 .56.56 0 0 0 .14-.4s0 0 0-.06h-.39c-.07 0-.07.1-.06.19a.42.42 0 0 0 .09.24z" fill="#fff"/><path d="m16.85 19.15a.25.25 0 0 0 -.19 0l-.12.08a2.73 2.73 0 0 0 -.23.25 1.35 1.35 0 0 1 -.26.32l-.05.06s0 .05.05.07h.09s0 0 0 0l.17-.28a.69.69 0 0 1 .23-.22l.21-.07a.65.65 0 0 0 .22-.11c.03-.02-.09-.09-.12-.1z" fill="#0a328c"/><path d="m17 19.3a.06.06 0 0 0 0-.06s0 0-.06 0-.11.08-.17.1-.17 0-.24 0a.22.22 0 0 0 -.13.1 1 1 0 0 0 -.07.15c-.06.1-.14.19-.2.29a.19.19 0 0 0 0 .08s0 0 .06.05l.11.05h.06a.07.07 0 0 0 0-.05.14.14 0 0 0 0-.06 1.6 1.6 0 0 1 .05-.21.29.29 0 0 1 .09-.15.32.32 0 0 1 .14 0c.07 0 .14 0 .19-.05a1.37 1.37 0 0 0 .17-.24z" fill="#d20014"/><path d="m16.11 20.16a.23.23 0 0 0 -.18.05.32.32 0 0 0 -.1.1 1.75 1.75 0 0 0 -.18.29 1.39 1.39 0 0 1 -.2.36s0 .05 0 .07 0 0 .06.06a.19.19 0 0 0 .1 0s0 0 0 0l.11-.3a.58.58 0 0 1 .19-.27l.19-.11c.06 0 .16-.08.19-.15s-.14-.09-.18-.1z" fill="#0a328c"/><path d="m16.27 20.29a.06.06 0 0 0 0-.06s0 0-.06 0-.1.1-.16.13-.16 0-.23 0a.28.28 0 0 0 -.11.13.94.94 0 0 0 0 .16c0 .11-.1.21-.14.32a.08.08 0 0 0 0 .08s0 0 .06 0h.12.06a.07.07 0 0 0 0-.06.13.13 0 0 0 0-.06 1.62 1.62 0 0 1 0-.22.28.28 0 0 1 .06-.16.25.25 0 0 1 .14-.06c.07 0 .14 0 .17-.08a1 1 0 0 0 .09-.12z" fill="#d20014"/><path d="m19.8 23.44-1.05-.33-.4-.76-1.43-.06-.01.57 1.23.21.16.24 1.5.46z" fill="#f1b517"/><path d="m19.82 23.79-1.53-.47-.16-.24-1.23-.21v-.6l1.45.06.4.77 1.06.33zm-1.52-.49 1.49.45v-.3l-1.05-.32-.4-.76-1.4-.06v.55l1.23.2z"/><path d="m18.77 23.6-1.42-2.14-.1.05 1.41 2.16z" fill="#503200"/><path d="m18.65 23.69-1.42-2.19.12-.06 1.44 2.17zm-1.38-2.18 1.39 2.15.1-.06-1.42-2.12z"/><path d="m19.34 21.67a.3.3 0 0 0 -.08.17.28.28 0 0 0 0 .12l.09.18s0 0 0 0a.58.58 0 0 1 .18-.17.15.15 0 0 0 .07 0s0-.05 0-.07-.06 0-.08 0a.56.56 0 0 1 -.17-.09.27.27 0 0 1 -.01-.14z" fill="#fff"/><path d="m19.38 22.18s0 0 0 0l-.12-.18a.28.28 0 0 1 0-.13.3.3 0 0 1 .08-.18s0 0 0 0a.46.46 0 0 0 .07.07.35.35 0 0 0 .16.08h.06s0 0 0 0a.11.11 0 0 1 0 .06l-.03.1a.46.46 0 0 0 -.17.17s-.03.01-.05.01zm-.06-.51a.27.27 0 0 0 -.08.16.56.56 0 0 0 0 .12l.09.18a.52.52 0 0 1 .18-.18h.05a.11.11 0 0 0 0-.05h-.08a.31.31 0 0 1 -.18-.09.27.27 0 0 1 -.07-.08z"/><path d="m19.88 21.91s0 0 0 0h-.11a0 0 0 0 0 0 0 .07.07 0 0 0 0 .05z" fill="#fff"/><path d="m19.73 22s0 0 0-.06 0 0 0-.05h.05.1s0 0 0 0a.28.28 0 0 1 -.13 0zm0-.1s0 0 0 0a.27.27 0 0 0 .12 0h-.13z"/><path d="m19.73 21.84s0-.07-.05-.08a0 0 0 0 0 0 0 .08.08 0 0 0 0 0 .28.28 0 0 0 0 .09.16.16 0 0 0 0 .09s.07.05.09 0a.26.26 0 0 0 -.04-.1z" fill="#fff"/><path d="m19.7 22a.16.16 0 0 1 -.07 0 .13.13 0 0 1 0-.1.14.14 0 0 1 0-.09.06.06 0 0 1 0-.05 0 0 0 0 1 .05 0 .1.1 0 0 1 .06.08.2.2 0 0 1 0 .17s0 0 0 0zm0-.26s0 0 0 0 0 .06 0 .09a.13.13 0 0 0 0 .08h.06a0 0 0 0 0 0 0 .36.36 0 0 0 0-.15.1.1 0 0 0 0-.07z"/><path d="m18.78 23.82a.07.07 0 0 0 0 .06.3.3 0 0 0 .22.12.36.36 0 0 0 .2-.06s0 0 0 0a0 0 0 0 0 0-.05.24.24 0 0 0 -.14-.05v-.17h.15a.41.41 0 0 1 .07-.11v-.56a.86.86 0 0 0 -.18-.14v-.14h-.1v.26h-.07v.82h-.09s-.06-.01-.06.02zm.22-.68a.21.21 0 0 1 0-.14s.06-.09.11-.07a.2.2 0 0 1 .08.12.86.86 0 0 1 0 .16.33.33 0 0 1 0 .1.14.14 0 0 1 0 .09h-.05a.07.07 0 0 1 -.05 0 .38.38 0 0 1 -.09-.26z" fill="#f1b517"/><path d="m19 24a.27.27 0 0 1 -.19-.08.08.08 0 0 1 0-.07.07.07 0 0 1 .06-.07h.09v-.88h.04v-.26h.14v.16a1.77 1.77 0 0 1 .17.14v.52a.61.61 0 0 0 -.07.1h-.15v.15a.33.33 0 0 1 .14 0v.05a.07.07 0 0 1 0 .06.49.49 0 0 1 -.23.18zm-.22-.15a.05.05 0 0 0 0 .05.26.26 0 0 0 .18.07.26.26 0 0 0 .19-.05s0 0 0 0a0 0 0 0 0 0 0 .21.21 0 0 0 -.13-.05v-.2h.16l.07-.09v-.58a1.53 1.53 0 0 0 -.17-.14v-.15h-.08v.26h-.07v.83h-.1s-.05 0-.05.05zm.35-.38a.07.07 0 0 1 -.06 0 .46.46 0 0 1 -.1-.26.32.32 0 0 1 .03-.21s.08-.1.13-.08a.18.18 0 0 1 .09.14.38.38 0 0 1 0 .1v.16a.14.14 0 0 1 0 .1zm-.13-.3a.34.34 0 0 0 .09.24s0 0 0 0a.13.13 0 0 0 0-.08v-.25a.17.17 0 0 0 -.08-.12s-.08 0-.09.06a.28.28 0 0 0 0 .13z"/><path d="m18.86 22.2-3-.29-.06.44 3.05.31z" fill="#f1b517"/><path d="m18.86 22.67-3.07-.31.06-.46 3 .29zm-3-.33 3 .3v-.43l-3-.28z"/><path d="m15.75 21.84h.15v.59h-.15z" fill="#f1b517" transform="matrix(-.99861121 -.05268454 .05268454 -.99861121 30.46 45.07)"/><path d="m15.9 22.45h-.18v-.62h.17zm-.15 0h.12v-.57h-.12z"/><path d="m16.28 21.86h.11v.59h-.11z" fill="#f1b517" transform="matrix(-.99863865 -.05216166 .05216166 -.99863865 31.48 45.14)"/><path d="m16.38 22.47h-.13v-.62h.13zm-.11 0h.08v-.56h-.05z"/><path d="m18.75 22.73v-.59h.15v.19a.17.17 0 0 1 .13-.07.17.17 0 0 1 .17.16.18.18 0 0 1 -.17.17.17.17 0 0 1 -.14-.09v.24z" fill="#f1b517"/><path d="m18.91 22.75h-.17v-.62h.17v.17a.15.15 0 0 1 .12-.05.18.18 0 0 1 .18.17.18.18 0 0 1 -.18.18.16.16 0 0 1 -.13-.06zm-.15 0h.12v-.27a.16.16 0 0 0 .13.08.15.15 0 0 0 .15-.15.15.15 0 0 0 -.27-.08v-.22h-.12z"/><path d="m17.26 22.69.18-.63-.3-.02.05.65z" fill="#f1b517"/><path d="m17.27 22.71h-.09l-.05-.71h.32zm-.07 0h.05l.17-.6h-.26z"/><path d="m17.16 22.71-.4-.51-.17.21.53.39z" fill="#f1b517"/><path d="m17.13 22.82-.56-.41.19-.23.42.53zm-.52-.42.51.38v-.07l-.39-.48z"/><path d="m17.09 22.81-.67-.05.05.21.65-.11z" fill="#f1b517"/><path d="m16.46 23-.06-.24.7.06v.07zm0-.21v.18l.62-.1z"/><path d="m17.12 22.9-.53.37.16.18.43-.52z" fill="#f1b517"/><path d="m16.75 23.46-.18-.19.55-.38h.08zm-.14-.18.14.15.41-.49z"/><path d="m17.22 22.96-.13.62.24.02-.06-.64z" fill="#f1b517"/><path d="m17.34 23.62h-.26l.13-.64h.08zm-.23-.05h.21l-.06-.57z"/><path d="m17.36 22.92.48.42-.16.14-.39-.52z" fill="#f1b517"/><path d="m17.68 23.5-.41-.5h.09l.5.43zm-.37-.5.38.5.13-.12-.47-.4z"/><path d="m17.41 22.79.63-.06-.02.24-.66-.09z" fill="#f1b517"/><path d="m18 23-.7-.09.06-.11.66-.06zm-.66-.11.66.11v-.2l-.61.06z"/><path d="m17.33 22.7.41-.5.17.21-.54.36z" fill="#f1b517"/><path d="m17.37 22.79-.06-.09.43-.52.19.23zm0-.09v.05l.51-.35-.15-.18z"/><circle cx="17.25" cy="22.82" fill="#f1b517" r=".19"/><path d="m17.25 23a.2.2 0 0 1 -.21-.2.21.21 0 1 1 .41 0 .2.2 0 0 1 -.2.2zm0-.38a.18.18 0 0 0 0 .36.18.18 0 0 0 0-.36z"/><path d="m16.34 22.82a.91.91 0 1 0 .91-.91.91.91 0 0 0 -.91.91zm.17 0a.74.74 0 1 1 1.47 0 .74.74 0 0 1 -1.47 0z" fill="#f1b517"/><path d="m17.25 23.74a.92.92 0 1 1 .92-.92.92.92 0 0 1 -.92.92zm0-1.81a.89.89 0 1 0 .89.89.89.89 0 0 0 -.89-.89zm0 1.64a.75.75 0 1 1 .75-.75.75.75 0 0 1 -.75.75zm0-1.47a.72.72 0 1 0 .72.72.73.73 0 0 0 -.72-.72z"/><path d="m17.27 21.24a.2.2 0 0 0 -.08-.1.09.09 0 0 0 -.12 0 .1.1 0 0 0 0 .09.2.2 0 0 0 0 .08l.08.15a.15.15 0 0 0 0 .06s.06 0 .09 0 .08 0 .06-.1z" fill="#fff"/><path d="m17.24 21.53s0-.05-.06-.07l-.09-.14a.32.32 0 0 1 0-.09.11.11 0 0 1 0-.1.11.11 0 0 1 .14 0 .2.2 0 0 1 .08.1v.05l.06.11c0 .05 0 .08-.05.1zm-.11-.4h-.05a.11.11 0 0 0 0 .08.59.59 0 0 0 0 .08l.08.14s0 .05.05.05 0 0 .07 0 .05 0 0-.07a.33.33 0 0 0 -.06-.1v-.06a.23.23 0 0 0 -.08-.09z"/><path d="m18.51 23.62a.35.35 0 0 1 0 .17.24.24 0 0 1 -.21.17.31.31 0 0 1 -.26-.08.38.38 0 0 1 -.12-.16 0 0 0 0 1 0 0h.11a.29.29 0 0 0 .1 0s.07 0 .07-.05-.14-.13-.05-.19.16 0 .22.07a.48.48 0 0 1 .14.07z" fill="#fff"/><path d="m18.29 24a.38.38 0 0 1 -.24-.09.48.48 0 0 1 -.13-.16.06.06 0 0 1 0-.07.2.2 0 0 1 .11 0h.06s.06 0 .06 0a.13.13 0 0 0 0-.07s-.05 0 0-.08a.05.05 0 0 1 0-.05c.08 0 .19 0 .23.07a.27.27 0 0 1 .09.12.21.21 0 0 1 0 .17.26.26 0 0 1 -.21.19zm-.29-.34s0 0 0 0a.33.33 0 0 0 .12.15.36.36 0 0 0 .25.08.23.23 0 0 0 .2-.16.23.23 0 0 0 0-.16.21.21 0 0 0 -.08-.11s-.13-.1-.2-.06 0 0 0 0 0 0 0 .06a.14.14 0 0 1 .05.09.09.09 0 0 1 -.09.06h-.25z"/><path d="m18.2 23.49h-.1s0 0 0 0 0-.13.06-.12.07.06.04.12z" fill="#fff"/><path d="m18.12 23.54h-.05s0 0 0 0a.14.14 0 0 1 0-.11.11.11 0 0 1 .07 0 .21.21 0 0 1 .11.07.08.08 0 0 1 0 .07.1.1 0 0 1 -.05 0zm0-.16s0 0 0 0a.09.09 0 0 0 0 .09 0 0 0 0 0 0 0h.08a0 0 0 0 0 0 0 .13.13 0 0 0 -.09-.06z"/><circle cx="17.9" cy="24" fill="#f1b517" r=".11"/><path d="m17.9 24.12a.12.12 0 0 1 -.13-.12.13.13 0 0 1 .13-.12.13.13 0 0 1 .1.12.12.12 0 0 1 -.1.12zm0-.21a.09.09 0 0 0 -.1.09.09.09 0 0 0 .1.1.09.09 0 0 0 .1-.1.09.09 0 0 0 -.1-.09z"/><circle cx="17.64" cy="23.82" fill="#f1b517" r=".11"/><path d="m17.64 23.94a.12.12 0 0 1 -.12-.12.12.12 0 1 1 .24 0 .12.12 0 0 1 -.12.12zm0-.22a.09.09 0 0 0 -.09.1.09.09 0 0 0 .09.09.1.1 0 0 0 .1-.09.1.1 0 0 0 -.1-.1z"/><circle cx="17.29" cy="23.95" fill="#f1b517" r=".11"/><path d="m17.29 24.07a.12.12 0 0 1 -.12-.12.12.12 0 1 1 .24 0 .12.12 0 0 1 -.12.12zm0-.22a.1.1 0 0 0 -.1.1.1.1 0 0 0 .1.09.09.09 0 0 0 .09-.09.09.09 0 0 0 -.09-.1z"/><circle cx="16.52" cy="23.71" fill="#f1b517" r=".11"/><path d="m16.52 23.83a.12.12 0 0 1 -.12-.12.12.12 0 1 1 .24 0 .12.12 0 0 1 -.12.12zm0-.22a.09.09 0 0 0 -.09.1.09.09 0 0 0 .09.09.1.1 0 0 0 .1-.09.1.1 0 0 0 -.1-.1z"/><path d="m16.18 23.71a.11.11 0 1 0 .11-.11.11.11 0 0 0 -.11.11z" fill="#f1b517"/><path d="m16.29 23.83a.12.12 0 0 1 -.12-.12.12.12 0 1 1 .24 0 .12.12 0 0 1 -.12.12zm0-.22a.09.09 0 0 0 -.09.1.09.09 0 0 0 .09.09.1.1 0 0 0 .1-.09.1.1 0 0 0 -.1-.1z"/><circle cx="16.41" cy="23.91" fill="#f1b517" r=".11"/><path d="m16.41 24a.13.13 0 0 1 -.12-.13.13.13 0 0 1 .12-.12.12.12 0 0 1 .12.12.12.12 0 0 1 -.12.13zm0-.22a.09.09 0 0 0 -.09.09.09.09 0 0 0 .09.1.1.1 0 0 0 .1-.1.1.1 0 0 0 -.1-.05z"/><circle cx="16.2" cy="23.91" fill="#f1b517" r=".11"/><path d="m16.2 24a.13.13 0 0 1 -.13-.13.13.13 0 0 1 .13-.12.13.13 0 0 1 .12.12.13.13 0 0 1 -.12.13zm0-.22a.09.09 0 0 0 -.1.09.09.09 0 0 0 .1.1.09.09 0 0 0 .09-.1.09.09 0 0 0 -.09-.05z"/><circle cx="16.63" cy="23.89" fill="#f1b517" r=".11"/><path d="m16.63 24a.12.12 0 0 1 -.12-.13.12.12 0 1 1 .24 0 .12.12 0 0 1 -.12.13zm0-.22a.1.1 0 0 0 -.1.09.1.1 0 0 0 .1.1.09.09 0 0 0 .09-.1.09.09 0 0 0 -.09-.07z"/><circle cx="16.76" cy="24.07" fill="#f1b517" r=".11"/><path d="m16.76 24.19a.12.12 0 0 1 -.12-.12.12.12 0 1 1 .24 0 .12.12 0 0 1 -.12.12zm0-.22a.1.1 0 0 0 -.1.1.1.1 0 0 0 .1.09.09.09 0 0 0 .09-.09.09.09 0 0 0 -.09-.07z"/><circle cx="16.53" cy="24.1" fill="#f1b517" r=".11"/><path d="m16.53 24.22a.12.12 0 0 1 -.12-.12.13.13 0 0 1 .12-.12.13.13 0 0 1 .13.12.12.12 0 0 1 -.13.12zm0-.21a.09.09 0 0 0 -.09.09.1.1 0 0 0 .09.1.1.1 0 0 0 .1-.1.09.09 0 0 0 -.1-.1z"/><path d="m16.2 24.11a.11.11 0 1 0 .11-.11.11.11 0 0 0 -.11.11z" fill="#f1b517"/><path d="m16.31 24.23a.12.12 0 1 1 .12-.12.12.12 0 0 1 -.12.12zm0-.21a.1.1 0 0 0 -.1.09.11.11 0 0 0 .1.1.1.1 0 0 0 .09-.1.09.09 0 0 0 -.09-.11z"/><circle cx="16.08" cy="24.09" fill="#f1b517" r=".11"/><path d="m16.08 24.21a.13.13 0 0 1 -.13-.12.13.13 0 0 1 .13-.13.13.13 0 0 1 .12.13.13.13 0 0 1 -.12.12zm0-.22a.09.09 0 0 0 -.1.1.09.09 0 0 0 .1.09.09.09 0 0 0 .09-.09.09.09 0 0 0 -.09-.09z"/><path d="m14.57 22.49s-.06 0-.06 0h.05a0 0 0 0 1 0 .08l-.09.07a.4.4 0 0 1 -.19 0h-.38a.08.08 0 0 1 .05-.07h.08l.27-.05a.07.07 0 0 0 .08-.05s0 0 0-.06v-.05a.09.09 0 0 1 0-.11.15.15 0 0 1 .09-.06.21.21 0 0 1 .17 0 .24.24 0 0 1 .11.09l.1.09s.05 0 0 0z" fill="#d20014"/><path d="m15.31 22.78-.7-.6s0 0 0 .05l.72.63z" fill="#503200"/><path d="m15.29 22.89-.74-.65s0 0 0 0a0 0 0 0 1 0 0 0 0 0 0 1 .07 0l.7.61zm-.71-.71a0 0 0 0 0 0 0l.7.62v-.05l-.69-.6z"/><path d="m16.05 23.36-.53-.36.68.3s0 0 0 0l-.8-.35a0 0 0 0 0 0 0s0 0 0 0l.64.46z"/><path d="m15.52 23.46a0 0 0 0 0 0 0l-.11-.46.09.08.14.36s0 0 0 0l-.11-.44-.13-.1a0 0 0 0 0 0 0l.13.51s-.02.05-.01.05z"/><path d="m15.93 23.35-.56-.53-.02-.14-.2.2.17.04.51.49z" fill="#f1b517"/><path d="m15.82 23.42-.51-.49h-.19l.24-.24v.16l.57.54zm-.65-.55h.16l.5.48h.08l-.55-.52v-.12z"/><path d="m18.41 24.15s-.06 0-.07.05 0 0 0 .05h.06.06c.05 0 .08.08.13.07s0-.05.07-.06.08 0 .12 0 .08-.06.13-.06.07.08.12.08.05 0 .07 0a.06.06 0 0 1 .07 0s0 0 0 .06a.12.12 0 0 0 .1 0l.09-.05a.14.14 0 0 1 .09 0h.06s0 0 .05 0 0 0 .06 0 .06 0 .09 0a0 0 0 0 0 0 0s0 0 .06 0h.23s0 0 0 0a0 0 0 0 0 0 0s0 0-.05 0h-.15-.14-.15-.09s-.05 0-.07 0a.09.09 0 0 0 -.07 0c-.05 0-.07.1-.13.07s-.07-.36-.15-.36 0 0-.07 0 0 0-.06 0a.11.11 0 0 0 -.14 0s-.05.07-.1.07-.05 0-.08 0-.07 0-.1 0h-.06a.05.05 0 0 0 -.05 0 0 0 0 0 0 -.05 0 .05.05 0 0 0 .05 0s.08.06.07.08zm1.32 0a.06.06 0 0 1 .06-.05.05.05 0 0 1 0 .1.06.06 0 0 1 -.06-.03zm-.18 0a.06.06 0 1 1 .06.06.06.06 0 0 1 -.06-.07zm-.13 0a0 0 0 0 1 .08 0 0 0 0 0 1 -.08 0zm-.17 0a.06.06 0 0 1 .06-.06.06.06 0 1 1 0 .12.06.06 0 0 1 -.06-.06zm-.26 0a.06.06 0 0 1 .06-.06.06.06 0 0 1 .05.06 0 0 0 0 1 -.05.05.06.06 0 0 1 -.05-.06zm-.23 0a.06.06 0 0 1 .06-.06.07.07 0 0 1 .07.06.07.07 0 0 1 -.07.07.07.07 0 0 1 -.06-.09zm-.24 0a.06.06 0 0 1 .12 0 .06.06 0 0 1 -.12 0z" fill="#f1b517"/><path d="m19.3 24.3a.07.07 0 0 1 -.06 0 0 0 0 0 1 0 0s0 0 0 0 0 0-.05 0a.08.08 0 0 1 -.14 0s0 0 0 0h-.06a.1.1 0 0 1 -.07 0s0 0-.06 0h-.06s0 0 0 0a.08.08 0 0 1 -.08 0s0 0-.05 0 0 0 0 0h-.07s0 0 0 0a0 0 0 0 1 0 0 .1.1 0 0 1 .05 0s0 0 0 0-.05 0-.06-.05a0 0 0 0 1 0 0s0 0 .05 0a.09.09 0 0 1 .06 0h.05.05a0 0 0 0 1 0 0h.05s0 0 .06 0a.12.12 0 0 1 .15 0s0 0 0 0a.1.1 0 0 1 .09 0s0 0 .06 0 0 0 .06 0a.12.12 0 0 1 .08 0 .06.06 0 0 0 .05 0h.06.23.09.22.05a0 0 0 0 1 0 0s0 0 .05 0a.05.05 0 0 1 0 .05h-.2a.06.06 0 0 1 -.06 0 .06.06 0 0 1 -.07 0 .1.1 0 0 0 -.09 0h-.06zm-.12-.11s0 0 0 0a.08.08 0 0 0 .08 0h.06a.14.14 0 0 1 .11 0s0 0 .05 0 0 0 0 0a.15.15 0 0 1 .07 0s0 0 0 0 0 0 .07 0h.38s0 0 0 0h-.2-.09-.08a.07.07 0 0 1 .06.07.08.08 0 0 1 -.08.07.07.07 0 0 1 -.07-.07.08.08 0 0 1 .07-.08h-.08-.05a0 0 0 1 1 -.05 0 .05.05 0 0 1 0 0 .15.15 0 0 1 -.07 0 0 0 0 0 0 -.05 0s0 0-.05 0 0 .05-.09 0 0 0 0 0-.05 0-.07 0h-.05s0 0-.06 0a.11.11 0 0 0 -.12 0 .1.1 0 0 1 -.08 0h-.05-.13a.15.15 0 0 1 -.07 0 .09.09 0 0 0 -.05 0s0 0 0 0 .05 0 .05.06a.1.1 0 0 1 -.05 0s0 0 0 0a.07.07 0 0 0 .06 0h.07a.08.08 0 0 1 0-.05.08.08 0 0 1 .08-.07.07.07 0 0 1 .07.07.08.08 0 0 1 -.07.08s0 0 .05 0a.09.09 0 0 1 .05 0 .06.06 0 0 1 .07 0 .09.09 0 0 0 .06 0 .15.15 0 0 1 .07 0 .1.1 0 0 1 .07 0 .05.05 0 0 0 .1 0 .07.07 0 0 1 .01-.08zm-.6-.08a.05.05 0 0 0 0 .05.05.05 0 1 0 .1 0 .05.05 0 0 0 -.1-.05zm1 0a.05.05 0 1 0 .05.05 0 0 0 0 0 -.02-.07zm-.15 0s0 0 0 0a0 0 0 0 0 0 0s0 0 0 0a0 0 0 0 0 .03.01zm.33.12a.07.07 0 0 1 0-.14.07.07 0 0 1 0 .14zm0-.11a0 0 0 0 0 0 .08 0 0 0 0 0 0-.08 0 0 0 0 0 .03.01zm-.48.09a.07.07 0 1 1 0-.14.07.07 0 1 1 0 .14zm0-.12a0 0 0 0 0 0 0s0 .05 0 .05a.05.05 0 0 0 .05-.05 0 0 0 0 0 -.02.01zm-.49.11a.08.08 0 0 1 -.08-.08.09.09 0 0 1 .08-.08.08.08 0 0 1 .08.08.07.07 0 0 1 -.05.09zm0-.13a0 0 0 0 0 -.05.05.06.06 0 0 0 .05.06.06.06 0 0 0 .06-.06.06.06 0 0 0 -.03-.04zm.23.13a.07.07 0 1 1 .07-.07.07.07 0 0 1 -.04.08zm0-.11a0 0 0 1 0 0 .08 0 0 0 0 0 0-.08 0 0 0 0 0 .03.01z"/><path d="m20.47 18.83h-.47v-.29h.38a2.89 2.89 0 0 0 .09.29z" fill="#f1b517"/><path d="m20.48 18.84h-.48v-.29h.4a2.54 2.54 0 0 1 0 .29zm-.45 0h.42v-.26h-.36z"/><path d="m20.5 19.14h-.5v-.31h.45z" fill="#f1b517"/><path d="m20.51 19.15h-.51a1.71 1.71 0 0 1 0-.31h.47v.31zm-.51 0h.48v-.29h-.48z"/><path d="m20.5 20.54.27-1.18h.21l-.49 2.08z" fill="#f1b517"/><path d="m20.48 21.56v-1l.26-1.18h.26zm0-1v.78l.52-1.97h-.18z"/><path d="m20.52 19.42h-.52a2.64 2.64 0 0 1 0-.28h.51a2.64 2.64 0 0 0 .01.28z" fill="#f1b517"/><path d="m20.53 19.43h-.53v-.28h.53zm-.55 0h.52a2 2 0 0 0 0-.25h-.5v.22z"/><path d="m20.53 19.67h-.53c0-.08 0-.17 0-.25h.55c-.03.08-.02.17-.02.25z" fill="#f1b517"/><path d="m20.54 19.68h-.6c0-.08 0-.17 0-.25h.57v.25zm-.57 0h.55c0-.08 0-.15 0-.23h-.52v.21z"/><path d="m20.54 20h-.6c0-.1 0-.21 0-.31h.58c.01.08.02.19.02.31z" fill="#f1b517"/><path d="m20.55 20h-.62c0-.11 0-.21 0-.31h.6v.31zm-.55 0h.57a2.62 2.62 0 0 1 0-.28h-.57a2.62 2.62 0 0 0 0 .28z"/><path d="m20.55 20.28h-.61v-.28h.6c0 .08 0 .18.01.28z" fill="#f1b517"/><path d="m20.56 20.3h-.63v-.3h.62v.3zm-.61 0h.58v-.3h-.53a2.53 2.53 0 0 0 0 .27z"/><path d="m21.48 20.26a.52.52 0 0 1 .15-.18c.32-.33.6-.71.9-1.06a1.14 1.14 0 0 1 .16-.15.37.37 0 0 1 .22-.06.31.31 0 0 1 .2.17.67.67 0 0 1 .08.25v.37a.4.4 0 0 1 0 .19.44.44 0 0 1 -.19.21l-1.39 1.06s-.13.08-.18 0 0-.08 0-.13a1.49 1.49 0 0 1 0-.21 1.25 1.25 0 0 0 0-.19c.05-.08 0-.17.05-.27z" fill="#0a328c"/><path d="m21.52 21.12h-.06a.17.17 0 0 1 -.05-.15 1.49 1.49 0 0 1 0-.21s0-.05 0-.07a.5.5 0 0 0 0-.12.31.31 0 0 0 0-.1.31.31 0 0 1 0-.21.46.46 0 0 1 .14-.17c.2-.21.39-.44.57-.67l.33-.38a.65.65 0 0 1 .17-.16.32.32 0 0 1 .23-.06.3.3 0 0 1 .2.17.61.61 0 0 1 .08.26c0 .12 0 .25.05.37a.58.58 0 0 1 0 .19.42.42 0 0 1 -.18.21l-1.39 1.06a.27.27 0 0 1 -.09.04zm0-.86a.31.31 0 0 0 0 .19s0 .07 0 .11 0 .08 0 .12a.64.64 0 0 1 0 .07v.21a.16.16 0 0 0 0 .12s.1 0 .17 0l1.31-1.08a.44.44 0 0 0 .18-.2.47.47 0 0 0 0-.17c0-.13 0-.26 0-.38a.78.78 0 0 0 -.08-.25.26.26 0 0 0 -.19-.15.28.28 0 0 0 -.21.05.75.75 0 0 0 -.16.15l-.32.39c-.19.23-.38.46-.58.67a.7.7 0 0 0 -.14.16z"/><path d="m20.54 20.59h-.6v-.31h.61c0 .11 0 .21-.01.31z" fill="#f1b517"/><path d="m20.56 20.6h-.63c0-.11 0-.21 0-.31h.63zm-.61 0h.58v-.3h-.53z"/><path d="m21.17 19.28-.74 2.11v.45l.98-2.56z" fill="#f1b517"/><path d="m20.42 21.91v-.53l.74-2.11h.27zm0-.52v.37l.95-2.47h-.21z"/><path d="m21.39 20.34a.38.38 0 0 1 .16-.12.18.18 0 0 1 .16.05.34.34 0 0 1 .05.26 1.38 1.38 0 0 1 -.49.89c-.15.12-.33.21-.49.32a3.11 3.11 0 0 0 -.28.23s-.08.08-.13.06a.14.14 0 0 1 -.05-.08.6.6 0 0 1 0-.35l.1-.14.12-.16a7.79 7.79 0 0 1 .51-.63c.12-.11.23-.23.34-.33z" fill="#d20014"/><path d="m20.4 22.05a.18.18 0 0 1 -.1-.05.68.68 0 0 1 0-.35l.07-.11.12-.16a7.79 7.79 0 0 1 .51-.63l.32-.33a.28.28 0 0 1 .17-.12.21.21 0 0 1 .17.05.39.39 0 0 1 .06.27 1.37 1.37 0 0 1 -.5.9 2.9 2.9 0 0 1 -.29.19l-.2.13a3.11 3.11 0 0 0 -.28.23s-.01-.02-.05-.02zm1-1.7-.31.33a7.79 7.79 0 0 0 -.51.63l-.12.16a.6.6 0 0 0 -.06.11.47.47 0 0 0 0 .33s0 .07 0 .08.07 0 .12-.06a3.11 3.11 0 0 1 .28-.23l.2-.13.3-.19a1.38 1.38 0 0 0 .48-.88.3.3 0 0 0 -.05-.25.18.18 0 0 0 -.14 0 .27.27 0 0 0 -.17.11z"/><path d="m20.54 20.59v.24h-.54a1.93 1.93 0 0 1 0-.24z" fill="#f1b517"/><path d="m20.55 20.85h-.62v-.26h.63v.24zm-.59 0h.57v-.25h-.53v.22z"/><path d="m20.54 20.83v.27h-.54v-.27z" fill="#f1b517"/><path d="m20.54 21.11h-.6c0-.09 0-.18 0-.27h.62a2.44 2.44 0 0 1 0 .27zm-.57 0h.55v-.23h-.52a1.69 1.69 0 0 0 0 .2z"/><path d="m24.17 20.64c.11-.06.25-.13.36-.07a.31.31 0 0 1 .13.36c0 .13-.11.25-.13.38s0 .32 0 .48a1.53 1.53 0 0 1 -.24.61c-.12.18-.23.37-.34.56a1.54 1.54 0 0 1 -.22.3.69.69 0 0 1 -.55.16.66.66 0 0 1 -.46-.35c-.06-.12-.09-.26-.2-.32s-.2 0-.3-.06a.51.51 0 0 1 -.36-.26.55.55 0 0 1 -.06-.28.59.59 0 0 1 .05-.19c0-.07.15-.1.21-.14l.29-.16 1.16-.66z" fill="#0a328c"/><path d="m23.28 23.44h-.11a.68.68 0 0 1 -.47-.35.42.42 0 0 1 0-.1.51.51 0 0 0 -.15-.22.46.46 0 0 0 -.2-.05h-.1a.49.49 0 0 1 -.37-.27.45.45 0 0 1 -.06-.28.59.59 0 0 1 0-.2.31.31 0 0 1 .16-.11h.06l2.11-1.18a.42.42 0 0 1 .38-.07.32.32 0 0 1 .13.37l-.06.18a.86.86 0 0 0 -.07.21 2.17 2.17 0 0 0 0 .26 1.48 1.48 0 0 1 0 .21 1.57 1.57 0 0 1 -.25.61l-.28.55a1.34 1.34 0 0 1 -.22.31.68.68 0 0 1 -.5.13zm1.15-2.88a.58.58 0 0 0 -.26.09l-2.11 1.18h-.06a.56.56 0 0 0 -.15.1.46.46 0 0 0 0 .19.49.49 0 0 0 .05.27.54.54 0 0 0 .35.26h.1a.38.38 0 0 1 .21 0 .42.42 0 0 1 .16.23v.09a.63.63 0 0 0 1 .19 1.29 1.29 0 0 0 .22-.3l.33-.56a1.45 1.45 0 0 0 .25-.6 1.47 1.47 0 0 0 0-.21.82.82 0 0 1 0-.27 1.66 1.66 0 0 1 .06-.21 1 1 0 0 0 .06-.18.3.3 0 0 0 -.11-.34z"/><path d="m23.43 19.68a.73.73 0 0 1 .28-.17.27.27 0 0 1 .29.09.45.45 0 0 1 .05.19v.36s0 .28-.05.41a.83.83 0 0 1 -.08.22.28.28 0 0 1 -.09.1h-.12l-.32.17-.62.35q-.36.19-.72.42a.3.3 0 0 1 -.16.05c-.09 0-.14-.12-.16-.22a1.14 1.14 0 0 1 0-.55.28.28 0 0 1 .06-.15 1.3 1.3 0 0 1 .18-.15l.94-.74z" fill="#0a328c"/><path d="m21.89 21.92c-.12 0-.16-.16-.18-.22a1.51 1.51 0 0 1 0-.56.28.28 0 0 1 .06-.15l.13-.11h.06l1.46-1.16a.73.73 0 0 1 .28-.17.27.27 0 0 1 .31.1.3.3 0 0 1 0 .19 1.51 1.51 0 0 1 0 .3v.06a2.7 2.7 0 0 1 -.05.41.53.53 0 0 1 -.08.23.28.28 0 0 1 -.09.1h-.08l-.22.12-.1.05-.63.35-.71.42a.38.38 0 0 1 -.16.04zm1.9-2.41h-.08a.73.73 0 0 0 -.28.17l-1.43 1.17-.13.11a.35.35 0 0 0 -.06.14 1.23 1.23 0 0 0 0 .54c0 .06.05.19.15.21a.3.3 0 0 0 .15 0q.36-.23.72-.42l.63-.35.09-.06.22-.11h.06.07a.39.39 0 0 0 .08-.1.52.52 0 0 0 .07-.21 2.9 2.9 0 0 0 .06-.41v-.06a1.51 1.51 0 0 0 0-.3.37.37 0 0 0 0-.18.22.22 0 0 0 -.32-.14z"/><path d="m22.66 18.79-2.33 2.58.12.14 2.4-2.76z" fill="#f1b517"/><path d="m20.45 21.53-.13-.16 2.34-2.58.23-.06zm-.1-.16.1.12 2.37-2.72h-.15z" fill="#231f20"/><path d="m21.79 21a.3.3 0 0 1 .28-.08.28.28 0 0 1 .12.21 1.23 1.23 0 0 1 0 .54.26.26 0 0 1 .19.19.57.57 0 0 1 0 .29 1.68 1.68 0 0 1 -.26.79 1.24 1.24 0 0 1 -.56.39 3 3 0 0 1 -.67.17.47.47 0 0 1 -.31 0 .44.44 0 0 1 -.22-.29 1.65 1.65 0 0 1 -.09-.54 2.46 2.46 0 0 1 0-.28v-.14a.49.49 0 0 1 0-.11c.06-.06.15-.11.22-.17l.23-.18c.15-.13.31-.25.47-.37s.41-.3.6-.42z" fill="#d20014"/><path d="m20.69 23.52a.4.4 0 0 1 -.15 0 .42.42 0 0 1 -.22-.29 1.71 1.71 0 0 1 -.09-.55 2.83 2.83 0 0 1 0-.29v-.13a.17.17 0 0 1 0-.1l.14-.11.08-.06.23-.18.47-.38.54-.4c.08-.06.19-.13.29-.08s.11.1.13.22a1.18 1.18 0 0 1 0 .53.27.27 0 0 1 .19.2.7.7 0 0 1 0 .29 1.86 1.86 0 0 1 -.27.8 1.32 1.32 0 0 1 -.56.4 4.18 4.18 0 0 1 -.68.16zm1.31-2.61a.43.43 0 0 0 -.21.09l-.54.41c-.14.11-.29.22-.46.37l-.24.18-.07.06-.14.11s0 .05 0 .08a.7.7 0 0 0 0 .14 1.27 1.27 0 0 0 0 .28 1.65 1.65 0 0 0 .09.54.42.42 0 0 0 .2.28.54.54 0 0 0 .31 0 3.47 3.47 0 0 0 .67-.17 1.2 1.2 0 0 0 .55-.39 1.72 1.72 0 0 0 .26-.78.88.88 0 0 0 0-.28.24.24 0 0 0 -.18-.18 1.07 1.07 0 0 0 0-.53c0-.11-.06-.18-.12-.2z"/><path d="m23.65 19.41-3.42 2.65.1.17 3.42-2.73z" fill="#f1b517"/><path d="m20.33 22.25-.12-.19 3.43-2.66.11.12zm-.09-.19.1.15 3.38-2.71-.07-.07z" fill="#231f20"/><path d="m20.53 21.1v.29h-.53c0-.1 0-.19 0-.29z" fill="#f1b517"/><path d="m20.53 21.4h-.53c0-.1 0-.2 0-.29h.6v.29zm-.55 0h.52c0-.08 0-.17 0-.26h-.5v.23z"/><path d="m20.51 21.39v.32h-.51c0-.1 0-.21 0-.32z" fill="#f1b517"/><path d="m20.5 21.72h-.5c0-.11 0-.21 0-.32h.57v.32zm-.49 0h.47c0-.09 0-.19 0-.29h-.48z"/><path d="m20.49 21.71a2.46 2.46 0 0 0 0 .26h-.49v-.26z" fill="#f1b517"/><path d="m20.48 22h-.48a2.28 2.28 0 0 0 0-.26h.52a2.28 2.28 0 0 1 0 .26zm-.48 0h.42v-.23h-.42a1.64 1.64 0 0 0 0 .23z"/><path d="m20.73 22s0-.06 0-.07a.06.06 0 0 1 .07 0s0 0 0 .08 0 .08 0 .13l-.06.33a0 0 0 0 1 0 0s0 0-.06 0h-.05a0 0 0 0 1 0 0v-.12-.24z" fill="#f1b517"/><path d="m20.71 22.61a.15.15 0 0 1 -.06 0s0 0 0 0l.09-.49s0-.07.05-.08a.07.07 0 0 1 .08 0 .14.14 0 0 1 0 .09.59.59 0 0 1 0 .13l-.06.33a.06.06 0 0 1 0 0s-.08.02-.1.02zm.08-.63a.07.07 0 0 0 0 .06l-.09.49a0 0 0 0 0 0 0h.05a0 0 0 0 0 0 0l.06-.34a.5.5 0 0 1 0-.12v-.07z" fill="#231f20"/><path d="m20.47 22v.27h-.39c0-.07 0-.17 0-.27z" fill="#f1b517"/><path d="m20.45 22.26h-.45c0-.08 0-.18 0-.28h.48v.28zm-.39 0h.36c0-.07 0-.16 0-.25h-.42c0 .06.05.15.06.22z"/><path d="m20.44 22.24v.26h-.32v-.26z" fill="#f1b517"/><path d="m20.41 22.52h-.34s0-.09 0-.25h.42v.25zm-.32 0h.3s0-.11 0-.23h-.36a2 2 0 0 1 .06.2z"/><path d="m21.16 18.39-.28 1.11h.16z" fill="#fff"/><path d="m21.05 19.52h-.18l.27-1.13zm-.15 0h.1l.09-.91z"/><path d="m21.64 18.39-.41 1.1h.2z" fill="#fff"/><path d="m21.45 19.5h-.24l.41-1.12zm-.2 0h.17l.17-.94z"/><path d="m22.1 18.7-.56 1.05h.21z" fill="#fff"/><path d="m21.76 19.76h-.24l.57-1.07zm-.2 0h.18l.3-.89z"/><path d="m24.33 20.48-4.07 2.25.15.13 4.02-2.3z" fill="#f1b517"/><path d="m20.41 22.88-.18-.15 4.08-2.25.13.09zm-.13-.15.13.12 4-2.29-.08-.06z" fill="#231f20"/><path d="m23.52 17.9-.48.31v.24l.26-.02z" fill="#f1b517"/><path d="m23 18.46v-.25l.52-.34-.24.58zm0-.24v.22h.24l.21-.48z"/><path d="m22.87 18.29.38.29-.23.2-.31-.25z" fill="#f1b517"/><path d="m23 18.79-.32-.25.17-.27.4.31zm-.29-.26.29.23.21-.18-.35-.27z"/><path d="m24.62 18.72-.53.21v.22l.24.02z" fill="#f1b517"/><path d="m24.34 19.19h-.26v-.24l.57-.22zm-.23-.05h.21l.27-.41-.48.19z"/><path d="m24.26 19.31-.32-.34-.17.19.3.29z" fill="#f1b517"/><path d="m24.07 19.46-.31-.3.18-.21.34.36zm-.28-.3.28.27.17-.12-.3-.32z"/><path d="m24.81 20.28.04-.21.56-.12-.34.39z" fill="#f1b517"/><path d="m25.07 20.36-.27-.07v-.23l.6-.13zm-.24-.09.23.06.31-.36-.51.11z"/><path d="m24.48 20.28.21-.18.27.38-.24.11z" fill="#f1b517"/><path d="m24.72 20.6-.26-.32.24-.2.28.41zm-.22-.32.23.29.21-.09-.25-.36z"/><path d="m22.54 18.49a.28.28 0 0 1 .18 0l.13.07a1.31 1.31 0 0 1 .28.2 1.53 1.53 0 0 0 .31.26s.06 0 .06.05 0 .05 0 .08a.24.24 0 0 1 -.08.06s0 0 0 0l-.23-.24a.56.56 0 0 0 -.27-.18c-.07 0-.14 0-.22 0a.6.6 0 0 1 -.23-.06c-.1-.13.03-.22.07-.24z" fill="#0a328c"/><path d="m22.43 18.67s0 0 0-.06 0 0 .05 0 .13.05.2.06.15 0 .23 0a.21.21 0 0 1 .15.07 1.13 1.13 0 0 0 .1.13c.07.09.17.16.25.25a.21.21 0 0 1 0 .07s0 .05-.05.07l-.1.06h-.05-.06s0 0 0-.06l-.09-.2a.23.23 0 0 0 -.12-.12.25.25 0 0 0 -.15 0 .19.19 0 0 1 -.19 0 1.29 1.29 0 0 1 -.17-.27z" fill="#d20014"/><path d="m23.64 19.15a.23.23 0 0 1 .18 0 .5.5 0 0 1 .12.08 2.73 2.73 0 0 1 .23.25 1.65 1.65 0 0 0 .26.32s.05 0 .05.06 0 .05-.05.07h-.08s0 0 0 0l-.17-.28a.61.61 0 0 0 -.23-.22l-.21-.07c-.06 0-.18-.06-.22-.11s.08-.09.12-.1z" fill="#0a328c"/><path d="m23.5 19.3a.07.07 0 0 1 0-.06s0 0 .06 0 .11.08.18.1.16 0 .24 0a.23.23 0 0 1 .12.1l.08.15c0 .1.13.19.19.29a.11.11 0 0 1 0 .08s0 0-.06.05l-.11.05h-.06a.1.1 0 0 1 0-.05s0 0 0-.06a1.55 1.55 0 0 0 0-.21.38.38 0 0 0 -.09-.15.4.4 0 0 0 -.15 0c-.07 0-.14 0-.18-.05a1.37 1.37 0 0 1 -.22-.24z" fill="#d20014"/><path d="m24.38 20.16a.25.25 0 0 1 .18.05.32.32 0 0 1 .1.1 1.75 1.75 0 0 1 .18.29 1.37 1.37 0 0 0 .16.4.13.13 0 0 1 0 .07s0 0-.06.06h-.09s0 0 0 0-.08-.2-.12-.3a.64.64 0 0 0 -.18-.27l-.2-.11s-.16-.08-.19-.15.18-.13.22-.14z" fill="#0a328c"/><path d="m24.21 20.29s0-.05 0-.06a0 0 0 0 1 .06 0c.07 0 .1.1.16.13s.16 0 .24 0a.26.26 0 0 1 .1.13s0 .11.05.16.09.21.13.32a.11.11 0 0 1 0 .08h-.07-.11-.06a.08.08 0 0 1 0-.06v.01a1.62 1.62 0 0 0 0-.22.28.28 0 0 0 -.06-.16.25.25 0 0 0 -.14-.06c-.06 0-.14 0-.17-.08a2 2 0 0 1 -.13-.19z" fill="#d20014"/><path d="m20.68 23.44 1.05-.33.4-.76 1.43-.06.01.57-1.23.21-.15.24-1.51.46z" fill="#f1b517"/><path d="m20.67 23.79v-.36l1-.33.4-.77 1.44-.06v.6l-1.23.2-.15.24zm0-.34v.3l1.49-.45.16-.25 1.22-.2v-.55l-1.41.06-.4.77z"/><path d="m20.86 23.7c0 .06-.05.11-.13.15a.75.75 0 0 1 -.24.08h-.15-.1-.25l-.17-.05-.12-.06a.17.17 0 0 1 -.08-.12.18.18 0 0 1 0-.09.83.83 0 0 1 .58-.17.88.88 0 0 1 .57.16.14.14 0 0 1 .09.1z" fill="#0a328c"/><path d="m20.24 24a1 1 0 0 1 -.25 0 .69.69 0 0 1 -.17-.05.39.39 0 0 1 -.13-.06.19.19 0 0 1 -.08-.13.13.13 0 0 1 0-.1.88.88 0 0 1 .59-.17.89.89 0 0 1 .58.16.16.16 0 0 1 .05.11.18.18 0 0 1 -.13.16.67.67 0 0 1 -.25.08h-.15zm0-.5a.84.84 0 0 0 -.57.16.13.13 0 0 0 0 .08.17.17 0 0 0 .06.11l.13.06h.16a1 1 0 0 0 .25 0h.25a1 1 0 0 0 .23-.08c.08 0 .13-.09.13-.14a.14.14 0 0 0 -.05-.09.87.87 0 0 0 -.59-.14z"/><path d="m21.71 23.6 1.43-2.14.09.05-1.4 2.16z" fill="#503200"/><path d="m21.83 23.69-.14-.08 1.44-2.17.12.06zm-.1-.09.09.06 1.39-2.15h-.07z"/><path d="m19.62 22.68v.95l.17.07h.17a1 1 0 0 0 .25 0h.25l.2-.06.17-.11v-.91z" fill="#f1b517"/><path d="m19.62 22.97.22.75.12.03.19-.6.21.62.13-.01.12-.55.2.39.05-.04v-.25l-.23-.42-.11.03-.1.49-.18-.46h-.14l-.17.46-.21-.59h-.1z" fill="#d20014"/><path d="m20.24 23.79h-.25a.69.69 0 0 1 -.17-.05l-.18-.07v-1h1.26v.93l-.17.11a.65.65 0 0 1 -.21.06h-.15zm-.6-.17.16.07h.16a1 1 0 0 0 .25 0h.1.15.2l.16-.11v-.89h-1.18z"/><path d="m20.86 22.68c0 .14-.28.25-.62.25s-.62-.11-.62-.25.28-.25.62-.25.62.11.62.25z" fill="#0a328c"/><path d="m20.24 23c-.35 0-.63-.12-.63-.27s.28-.27.63-.27.63.12.63.27-.27.27-.63.27zm0-.51c-.33 0-.6.11-.6.24s.27.24.6.24.61-.11.61-.24-.28-.29-.61-.29z"/><path d="m20.71 22.67c0 .08-.21.14-.47.14s-.47-.06-.47-.14.21-.13.47-.13.47.06.47.13z" fill="#fff"/><path d="m20.19 22.38h.11v.21h-.11z" fill="#f1b517"/><path d="m20.31 22.6h-.13v-.23h.13zm-.11 0h.08v-.19h-.08z"/><path d="m20.1 22.76h.14v.19h-.14z" fill="#f1b517"/><path d="m20.25 23h-.16v-.21h.16zm-.14 0h.12v-.16h-.12z"/><path d="m19.82 22.48h.08v.14h-.08z" fill="#f1b517"/><path d="m19.9 22.63h-.1v-.16h.1zm-.07 0h.05v-.12h-.05z"/><path d="m20.62 22.5h.08v.14h-.08z" fill="#f1b517"/><path d="m20.7 22.65h-.1v-.16h.1zm-.07 0h.05v-.11h-.05z"/><path d="m20.63 22.75h-.11v.17l.11-.03z" fill="#f1b517"/><path d="m20.51 22.93v-.19h.13v.16zm0-.17v.14h.08v-.12z"/><path d="m20.76 22.67h.09v.12h-.09z" fill="#f1b517"/><path d="m20.87 22.81h-.12v-.15h.12zm-.09 0h.07v-.09h-.07z"/><path d="m19.62 22.65h.09v.17h-.09z" fill="#f1b517"/><path d="m19.73 22.83h-.12v-.19h.12zm-.09 0h.07v-.15h-.07z"/><path d="m20 23.75v.18l-.17-.05v-.17z" fill="#f1b517"/><path d="m20 23.94a.69.69 0 0 1 -.17-.05v-.2h.19zm-.17-.07h.15v-.15h-.15z"/><path d="m20.49 23.76v.17h-.15v-.18z" fill="#f1b517"/><path d="m20.33 24v-.2h.17v.2h-.15zm0-.17v.14h.12v-.15z"/><path d="m20.86 23.56v.14c0 .06-.05.11-.13.15v-.18l.08-.07z" fill="#f1b517"/><path d="m20.72 23.87v-.21l.15-.13v.17a.18.18 0 0 1 -.13.16zm0-.19v.15c.07 0 .11-.09.11-.13v-.11z"/><path d="m19.7 23.65v.17a.17.17 0 0 1 -.08-.12v-.12z" fill="#f1b517"/><path d="m19.71 23.84a.19.19 0 0 1 -.08-.13v-.15l.1.09zm-.07-.23v.09a.12.12 0 0 0 0 .09v-.14z"/><path d="m21.15 21.67a0 0 0 0 1 0 0 .3.3 0 0 1 .08.17.28.28 0 0 1 0 .12l-.08.18s0 0 0 0a.42.42 0 0 0 -.25-.14.15.15 0 0 1 -.07 0s0-.05 0-.07.06 0 .08 0a.39.39 0 0 0 .17-.09.3.3 0 0 0 .07-.17z" fill="#fff"/><path d="m21.1 22.18a0 0 0 0 1 0 0 .46.46 0 0 0 -.2-.18l-.06-.05s0 0 0-.06 0 0 0 0h.06a.38.38 0 0 0 .17-.08l.06-.07a.3.3 0 0 1 .08.18v.13l-.09.18s0 0 0 0zm.06-.5a.3.3 0 0 1 -.08.08.32.32 0 0 1 -.17.09h-.09a.11.11 0 0 0 0 .05h.06a.45.45 0 0 1 .18.18l.14-.08a.28.28 0 0 0 0-.12.27.27 0 0 0 -.08-.16z"/><path d="m20.61 21.91s0 0 0 0h.11a.06.06 0 0 1 0 0s0 0 0 .05z" fill="#fff"/><path d="m20.76 22a.31.31 0 0 1 -.13 0s0 0 0 0h.11a.07.07 0 0 1 0 .05s0 .05 0 .06zm-.15-.06a.28.28 0 0 0 .13 0s0 0 0 0h-.12z"/><path d="m20.75 21.84s0-.07.05-.08a0 0 0 0 1 .05 0 .06.06 0 0 1 0 0 .14.14 0 0 1 0 .09.29.29 0 0 1 0 .09s-.08.05-.1 0a.26.26 0 0 1 0-.1z" fill="#fff"/><path d="m20.78 22a.32.32 0 0 1 0-.17.1.1 0 0 1 .06-.08.06.06 0 0 1 .06 0s0 0 0 .05 0 .06 0 .09a.19.19 0 0 1 0 .1s-.09.01-.12.01zm0-.19a.27.27 0 0 0 0 .15h.06a.12.12 0 0 0 0-.08.28.28 0 0 0 0-.09 0 0 0 0 0 0 0 .07.07 0 0 0 0 .07z"/><path d="m21.65 23.76h-.1v-.82h-.06v-.26h-.12v.14l-.18.14v.51a1 1 0 0 1 .08.11h.15v.17a.3.3 0 0 0 -.15.05s0 0 0 0a0 0 0 0 0 0 .05.05.05 0 0 0 0 0 .36.36 0 0 0 .2.06.33.33 0 0 0 .19-.08.06.06 0 0 0 0-.06.06.06 0 0 0 -.01-.01zm-.25-.37s0 0-.06 0a.11.11 0 0 1 0-.09v-.1a.86.86 0 0 1 0-.16.18.18 0 0 1 .09-.12s.09 0 .11.07a.31.31 0 0 1 0 .13.45.45 0 0 1 -.14.27z" fill="#f1b517"/><path d="m21.47 24a.45.45 0 0 1 -.19 0 .1.1 0 0 1 -.05 0 .08.08 0 0 1 0-.11.28.28 0 0 1 .13 0v-.15h-.15a.61.61 0 0 0 -.07-.1v-.64l.18-.14v-.16h.14v.26h.07v.83h.08s.07 0 .07.07a.1.1 0 0 1 0 .07.28.28 0 0 1 -.2.08zm-.21-.42h.16v.2a.24.24 0 0 0 -.14.05 0 0 0 0 0 0 0 .05.05 0 0 0 0 0 .34.34 0 0 0 .19.05.24.24 0 0 0 .18-.07.05.05 0 0 0 0-.05s0 0-.05-.05h-.1v-.83h-.07v-.26h-.09v.15a1 1 0 0 0 -.17.14v.5zm.08-.11h-.05a.14.14 0 0 1 0-.1s0-.05 0-.07v-.09a.33.33 0 0 1 0-.1.22.22 0 0 1 .09-.14c.06 0 .11 0 .13.08a.32.32 0 0 1 0 .14.39.39 0 0 1 -.09.26.1.1 0 0 1 -.07 0zm0-.5a.14.14 0 0 0 -.07.12.28.28 0 0 0 0 .09v.16a.1.1 0 0 0 0 .08h.05a.38.38 0 0 0 .08-.24.51.51 0 0 0 0-.13s0-.11-.03-.11z"/><path d="m21.63 22.2 2.99-.29.06.44-3.04.31z" fill="#f1b517"/><path d="m21.63 22.67v-.48l3-.29.07.46zm0-.46v.43l3-.3-.06-.41z"/><path d="m24.58 21.84h.15v.59h-.15z" fill="#f1b517" transform="matrix(.99861121 -.05268454 .05268454 .99861121 -1.13 1.33)"/><path d="m24.59 22.45v-.62h.17v.62zm0-.6v.57h.12v-.56z"/><path d="m22.02 22.11h.15v.59h-.15z" fill="#f1b517" transform="matrix(.99861121 -.05268454 .05268454 .99861121 -1.15 1.2)"/><path d="m22 22.72v-.62h.17v.62zm0-.59v.56h.12v-.56z"/><path d="m24.1 21.86h.11v.59h-.11z" fill="#f1b517" transform="matrix(.99862953 -.05233596 .05233596 .99862953 -1.13 1.29)"/><path d="m24.11 22.47v-.62h.13v.62zm0-.59v.56h.08v-.57z"/><path d="m21.73 22.73v-.59h-.14v.19a.17.17 0 0 0 -.14-.07.16.16 0 0 0 -.16.16.17.17 0 0 0 .16.17.19.19 0 0 0 .15-.09v.24z" fill="#f1b517"/><path d="m21.58 22.75v-.21a.16.16 0 0 1 -.13.06.17.17 0 0 1 -.17-.18.17.17 0 0 1 .17-.17.13.13 0 0 1 .12.05v-.17h.18v.62zm0-.3v.27h.12v-.57h-.12v.22a.17.17 0 0 0 -.13-.07.15.15 0 0 0 -.15.15.15.15 0 0 0 .15.15.13.13 0 0 0 .13-.08z"/><path d="m23.22 22.69-.17-.63.29-.02-.05.65z" fill="#f1b517"/><path d="m23.31 22.71h-.1l-.21-.66h.33zm-.08 0h.05v-.63h-.27z"/><path d="m23.32 22.71.41-.51.16.21-.53.39z" fill="#f1b517"/><path d="m23.35 22.82-.05-.11.43-.53.18.23zm0-.11v.07l.51-.38-.14-.17z"/><path d="m23.39 22.81.67-.05-.05.21-.65-.11z" fill="#f1b517"/><path d="m24 23-.68-.11v-.07l.7-.06zm-.64-.13.64.13.05-.18-.65.05z"/><path d="m23.36 22.9.53.37-.16.18-.43-.52z" fill="#f1b517"/><path d="m23.73 23.46-.45-.53h.09l.54.38zm-.4-.52.4.49.14-.15-.51-.36z"/><path d="m23.27 22.96.12.62-.24.02.06-.64z" fill="#f1b517"/><path d="m23.14 23.62.06-.62h.08l.13.64zm.08-.65v.62h.2l-.11-.6z"/><path d="m23.13 22.92-.49.42.16.14.39-.52z" fill="#f1b517"/><path d="m22.8 23.5-.18-.16.51-.43h.08zm-.14-.16.14.12.37-.5z"/><path d="m23.08 22.79-.64-.06.02.24.66-.09z" fill="#f1b517"/><path d="m22.45 23v-.26l.65.06.06.11zm0-.23v.23l.63-.08v-.06z"/><path d="m23.16 22.7-.42-.5-.17.21.54.36z" fill="#f1b517"/><path d="m23.12 22.79-.57-.38.19-.23.43.52zm-.53-.39.52.35v-.05l-.4-.48z"/><path d="m23.43 22.82a.2.2 0 0 1 -.19.19.19.19 0 0 1 -.19-.19.18.18 0 0 1 .19-.19.19.19 0 0 1 .19.19z" fill="#f1b517"/><path d="m23.24 23a.2.2 0 0 1 -.21-.2.21.21 0 1 1 .41 0 .2.2 0 0 1 -.2.2zm0-.38a.18.18 0 0 0 0 .36.18.18 0 0 0 0-.36z"/><path d="m23.24 21.91a.91.91 0 1 0 .9.91.91.91 0 0 0 -.9-.91zm0 1.64a.73.73 0 0 1 -.74-.73.74.74 0 1 1 1.47 0 .73.73 0 0 1 -.73.73z" fill="#f1b517"/><path d="m23.24 23.74a.92.92 0 1 1 .92-.92.92.92 0 0 1 -.92.92zm0-1.81a.89.89 0 1 0 .89.89.89.89 0 0 0 -.89-.89zm0 1.64a.75.75 0 1 1 .75-.75.75.75 0 0 1 -.75.75zm0-1.47a.72.72 0 1 0 0 1.44.72.72 0 0 0 0-1.44z"/><path d="m23.21 21.24a.27.27 0 0 1 .08-.1.09.09 0 0 1 .12 0 .1.1 0 0 1 0 .09.19.19 0 0 1 0 .08l-.08.15s0 .05-.06.06a.08.08 0 0 1 -.08 0s-.09 0-.06-.1z" fill="#fff"/><path d="m23.24 21.53a.11.11 0 0 1 -.07 0s-.07 0 0-.1l.06-.11v-.05a.27.27 0 0 1 .08-.1.11.11 0 0 1 .14 0 .15.15 0 0 1 0 .1v.09l-.08.14s0 .06-.06.07zm.12-.4h-.06a.34.34 0 0 0 -.08.09v.06l-.06.1s0 0 0 .07a.09.09 0 0 0 .08 0s0 0 0-.05l.08-.14a.41.41 0 0 0 0-.08.08.08 0 0 0 0-.08z"/><path d="m22.21 21.6a.2.2 0 0 0 -.13-.06.59.59 0 0 0 -.23.05.18.18 0 0 0 -.07.05.13.13 0 0 0 0 .08.16.16 0 0 0 .08.06h.15a.21.21 0 0 0 .24-.1.13.13 0 0 0 -.04-.08zm0 .13s-.05.05-.08.06a.16.16 0 0 1 -.12 0c-.05 0-.1 0-.14 0a.07.07 0 0 1 0-.06s0-.05.05-.06a.39.39 0 0 1 .18 0h.07a.15.15 0 0 1 .07 0 .11.11 0 0 1 -.06.06z" fill="#f1b517"/><path d="m22.34 22.07s0 0-.06 0h-.09l-.12.08s-.13.07-.16 0 0-.14 0-.19a.65.65 0 0 0 0-.14.22.22 0 0 1 0-.14.16.16 0 0 1 .1-.05.34.34 0 0 1 .14 0 .2.2 0 0 1 .12.08.27.27 0 0 1 0 .16.16.16 0 0 1 .07.2z" fill="#f1b517"/><path d="m21.94 22.28c0-.05 0-.11 0-.15v-.05-.13a.15.15 0 0 1 0-.14.23.23 0 0 1 .11-.07h.14a.22.22 0 0 1 .13.08.48.48 0 0 1 .05.17.19.19 0 0 1 0 .13s0 0-.07 0h-.1l-.09.05a.27.27 0 0 1 -.17.11zm0-.23s0 0 0 .06-.05.09 0 .12 0 0 0 0 .08 0 .11 0a.19.19 0 0 1 .09-.05h.06a.09.09 0 0 0 .06 0 .2.2 0 0 0 0-.11.32.32 0 0 0 0-.16.24.24 0 0 0 -.11-.06.29.29 0 0 0 -.13 0 .19.19 0 0 0 -.1.05.21.21 0 0 0 0 .13.2.2 0 0 1 0 .11z"/><path d="m22.28 22.11h-.09l-.12.08s-.13.07-.16 0 0-.14 0-.19h.28s.06 0 .07 0z" fill="#f1b517"/><path d="m21.94 22.28c0-.05 0-.11 0-.15v-.05h.31a.13.13 0 0 1 .07.05h-.11l-.09.05a.27.27 0 0 1 -.18.1zm0-.22s0 0 0 .05-.05.09 0 .12 0 0 0 0 .08 0 .11 0a.19.19 0 0 1 .09-.05h.06-.05-.1-.17z"/><path d="m22 23.62a.27.27 0 0 0 0 .17.26.26 0 0 0 .21.17.31.31 0 0 0 .26-.08.4.4 0 0 0 .13-.16s0 0 0 0h-.1-.1s-.08 0-.08-.05.15-.13.05-.19a.21.21 0 0 0 -.21.07.31.31 0 0 0 -.16.07z" fill="#fff"/><path d="m22.2 24a.26.26 0 0 1 -.22-.19.35.35 0 0 1 0-.17.4.4 0 0 1 .1-.12.23.23 0 0 1 .23-.07.1.1 0 0 1 0 .05s0 .05 0 .08a.13.13 0 0 0 0 .07.08.08 0 0 0 .07 0h.06a.2.2 0 0 1 .11 0 .08.08 0 0 1 0 .07.38.38 0 0 1 -.13.16.35.35 0 0 1 -.22.12zm-.2-.37a.22.22 0 0 0 .17.32.38.38 0 0 0 .26-.08.39.39 0 0 0 .11-.15.1.1 0 0 0 0 0h-.2a.07.07 0 0 1 -.09-.06s0-.06 0-.09 0 0 0-.06 0 0 0 0-.17 0-.2.06a.44.44 0 0 0 -.08.11z"/><path d="m22.28 23.49h.09s0 0 0 0 0-.13-.07-.12-.05.06-.02.12z" fill="#fff"/><path d="m22.37 23.54h-.05a.1.1 0 0 1 -.05 0 .08.08 0 0 1 0-.07.21.21 0 0 1 .11-.07.09.09 0 0 1 .07 0 .11.11 0 0 1 0 .11s0 0 0 0h-.05zm-.07-.06h.09a.13.13 0 0 0 0-.09 0 0 0 0 0 -.05 0 .1.1 0 0 0 -.08.06 0 0 0 0 0 0 0z"/><circle cx="22.59" cy="24" fill="#f1b517" r=".11"/><path d="m22.59 24.12a.12.12 0 0 1 -.12-.12.12.12 0 1 1 .24 0 .12.12 0 0 1 -.12.12zm0-.21a.1.1 0 0 0 -.1.09.1.1 0 0 0 .1.1.09.09 0 0 0 .09-.1.09.09 0 0 0 -.09-.09z"/><circle cx="22.84" cy="23.82" fill="#f1b517" r=".11"/><path d="m22.84 23.94a.12.12 0 0 1 -.12-.12.12.12 0 1 1 .24 0 .12.12 0 0 1 -.12.12zm0-.22a.09.09 0 0 0 -.09.1.09.09 0 0 0 .09.09.1.1 0 0 0 .1-.09.1.1 0 0 0 -.1-.1z"/><circle cx="23.19" cy="23.95" fill="#f1b517" r=".11"/><path d="m23.19 24.07a.13.13 0 0 1 -.12-.12.13.13 0 0 1 .12-.13.13.13 0 0 1 .13.13.13.13 0 0 1 -.13.12zm0-.22a.09.09 0 0 0 -.09.1.09.09 0 0 0 .09.09.09.09 0 0 0 .1-.09.09.09 0 0 0 -.1-.1z"/><circle cx="23.96" cy="23.71" fill="#f1b517" r=".11"/><path d="m24 23.83a.13.13 0 0 1 -.12-.12.13.13 0 0 1 .12-.13.12.12 0 0 1 .12.13.12.12 0 0 1 -.12.12zm0-.22a.09.09 0 0 0 -.09.1.09.09 0 0 0 .09.09.09.09 0 0 0 .1-.09.09.09 0 0 0 -.1-.1z"/><path d="m24.3 23.71a.11.11 0 1 1 -.11-.11.11.11 0 0 1 .11.11z" fill="#f1b517"/><path d="m24.19 23.83a.12.12 0 0 1 -.12-.12.12.12 0 1 1 .24 0 .12.12 0 0 1 -.12.12zm0-.22a.09.09 0 0 0 -.09.1.09.09 0 0 0 .09.09.1.1 0 0 0 .1-.09.1.1 0 0 0 -.1-.1z"/><circle cx="24.07" cy="23.91" fill="#f1b517" r=".11"/><path d="m24.07 24a.12.12 0 0 1 -.12-.13.12.12 0 0 1 .24 0 .12.12 0 0 1 -.12.13zm0-.22a.09.09 0 0 0 -.09.09.09.09 0 0 0 .09.1.1.1 0 0 0 .1-.1.1.1 0 0 0 -.1-.05z"/><circle cx="24.29" cy="23.91" fill="#f1b517" r=".11"/><path d="m24.29 24a.12.12 0 0 1 -.12-.13.12.12 0 0 1 .24 0 .12.12 0 0 1 -.12.13zm0-.22a.1.1 0 0 0 -.1.09.1.1 0 0 0 .1.1.09.09 0 0 0 .09-.1.09.09 0 0 0 -.09-.05z"/><circle cx="23.85" cy="23.89" fill="#f1b517" r=".11"/><path d="m23.85 24a.13.13 0 0 1 -.12-.13.13.13 0 0 1 .12-.12.13.13 0 0 1 .13.12.13.13 0 0 1 -.13.13zm0-.22a.09.09 0 0 0 -.09.09.09.09 0 0 0 .09.1.09.09 0 0 0 .1-.1.09.09 0 0 0 -.1-.07z"/><path d="m23.83 24.07a.1.1 0 0 1 -.11.1.09.09 0 0 1 -.1-.1.1.1 0 0 1 .1-.11.11.11 0 0 1 .11.11z" fill="#f1b517"/><path d="m23.72 24.19a.13.13 0 0 1 -.12-.12.13.13 0 0 1 .12-.13.13.13 0 0 1 .13.13.13.13 0 0 1 -.13.12zm0-.22a.09.09 0 0 0 -.09.1.09.09 0 0 0 .09.09.09.09 0 0 0 .1-.09.09.09 0 0 0 -.1-.07z"/><circle cx="23.95" cy="24.1" fill="#f1b517" r=".11"/><path d="m24 24.22a.12.12 0 0 1 -.12-.12.12.12 0 1 1 .24 0 .12.12 0 0 1 -.12.12zm0-.22a.1.1 0 0 0 -.1.09.1.1 0 0 0 .2 0 .1.1 0 0 0 -.1-.09z"/><circle cx="24.17" cy="24.11" fill="#f1b517" r=".11"/><path d="m24.17 24.23a.12.12 0 0 1 0-.24.12.12 0 1 1 0 .24zm0-.21a.09.09 0 0 0 -.09.09.1.1 0 0 0 .09.1.1.1 0 0 0 .1-.1.09.09 0 0 0 -.1-.11z"/><path d="m24.52 24.09a.11.11 0 0 1 -.22 0 .11.11 0 0 1 .22 0z" fill="#f1b517"/><path d="m24.41 24.21a.12.12 0 0 1 -.12-.12.12.12 0 1 1 .24 0 .12.12 0 0 1 -.12.12zm0-.22a.1.1 0 0 0 -.1.1.1.1 0 0 0 .1.09.09.09 0 0 0 .09-.09.09.09 0 0 0 -.09-.09z"/><path d="m25.17 23.73.89.39v-.31l-.12.08a1.39 1.39 0 0 0 -.12-.53 1.68 1.68 0 0 1 .54.48h-.17v.11l.2.27a.37.37 0 0 0 -.21.29h-.18v-.14-.06l-1.12-.47s-.15-.06-.11-.16.4.05.4.05z" fill="#f1b517"/><path d="m26.18 24.49h-.18v-.15-.06l-1.11-.46s-.09 0-.11-.1a.09.09 0 0 1 0-.07.08.08 0 0 1 0 0c.09 0 .32.1.34.11l.87.38v-.27l-.12.09a1.23 1.23 0 0 0 -.13-.52s.45.25.55.48h-.18v.1l.2.28s-.2.09-.2.27zm-.16 0h.14a.33.33 0 0 1 .2-.27l-.19-.26v-.14h.16a1.53 1.53 0 0 0 -.49-.42 1.18 1.18 0 0 1 .1.47l.13-.09v.36l-.91-.4c-.07 0-.25-.12-.32-.1a0 0 0 0 0 0 0 .09.09 0 0 0 0 .05c0 .05.1.08.1.08l1.14.48v.07z"/><path d="m25.92 22.49a.07.07 0 0 1 .06 0s0 0 0 0a.05.05 0 0 0 0 0l.09.07a.42.42 0 0 0 .19 0h.38a.08.08 0 0 0 0-.07h-.08l-.27-.05s-.08 0-.09-.05a.14.14 0 0 1 0-.06v-.05a.15.15 0 0 0 0-.11.21.21 0 0 0 -.1-.06.2.2 0 0 0 -.17 0 .31.31 0 0 0 -.11.09l-.1.09s0 0 0 0z" fill="#d20014"/><path d="m25.18 22.78.7-.6a0 0 0 0 1 0 .05l-.72.63z" fill="#503200"/><path d="m25.2 22.89v-.11l.71-.61s0 0 .06 0a.05.05 0 0 1 0 0zm0-.1v.05l.7-.62s0 0 0 0a0 0 0 0 0 0 0z"/><path d="m25 23.87a.43.43 0 0 1 0 .05.08.08 0 0 0 0 0 0 0 0 0 0 0 .08h.05a1.08 1.08 0 0 0 .11-.18.1.1 0 0 0 0-.13 0 0 0 0 0 -.07 0c-.09-.02-.09.1-.09.18z" fill="#f1b517"/><path d="m25 24a.1.1 0 0 1 0-.07s0 0 0-.06a.39.39 0 0 1 .14-.21s.07 0 .09 0a.14.14 0 0 1 0 .15.45.45 0 0 1 -.11.17zm.15-.36a.45.45 0 0 0 -.12.2.17.17 0 0 0 0 .05s0 0 0 0a1.2 1.2 0 0 0 .11-.17c0-.06 0-.09 0-.12z"/><path d="m24.43 23.36s0 0 0 0l.57-.36-.68.3s0 0 0 0l.8-.35-.64.46z"/><path d="m25 23.46s0 0 0 0l.12-.48-.1.08-.14.36s0 0 0 0a0 0 0 0 1 0 0l.12-.42.13-.1a0 0 0 0 1 0 0l-.13.51a0 0 0 0 1 0 .05z"/><path d="m24.55 23.35.56-.53.02-.14.21.2-.18.04-.5.49z" fill="#f1b517"/><path d="m24.66 23.42-.13-.07.57-.54v-.16l.24.24h-.19zm-.08-.07h.08l.5-.48h.15l-.17-.16v.12z"/><path d="m22.11 24.1s.05 0 .05 0a0 0 0 0 0 0 0 .09.09 0 0 0 -.06 0s-.07 0-.11 0 0 0-.08 0-.07-.05-.1-.07a.09.09 0 0 0 -.13 0s0 0-.06 0-.05 0-.08 0-.08 0-.12.07-.17-.1-.22-.1a.07.07 0 0 0 -.06 0s0 0-.07 0a.19.19 0 0 1 -.1 0h-.15-.14-.1s0 0 0 0a0 0 0 0 0 0 0s0 0 0 0 0 0-.05 0a.08.08 0 0 0 0 0h.07s0 0 .05 0 0 0 .05 0 .05-.05.08 0 0 0 .06 0a.07.07 0 0 0 .06 0h.05a.17.17 0 0 1 .1 0 .26.26 0 0 0 .09.05.09.09 0 0 0 .09 0s0-.05.05-.06.05 0 .07 0 0 0 .06 0 .08-.07.13-.08.07.06.12.06.08-.06.12 0 .05.05.08.06.07-.06.12-.07h.06.06s.05 0 0-.05-.07 0-.08-.05a.07.07 0 0 1 .09.24zm-1.41.12a.05.05 0 1 1 0-.1.05.05 0 1 1 0 .1zm.17 0a.06.06 0 0 1 0-.12.06.06 0 0 1 0 .12zm.15 0a0 0 0 1 1 0-.08 0 0 0 0 1 0 .08 0 0 0 0 1 -.02-.03zm.15 0a.06.06 0 1 1 .06-.06.06.06 0 0 1 -.06.05zm.26 0a0 0 0 0 1 -.05-.05.06.06 0 0 1 .05-.06.06.06 0 0 1 .06.06.06.06 0 0 1 -.06.02zm.23 0a.07.07 0 0 1 -.07-.07.07.07 0 0 1 .14 0 .07.07 0 0 1 -.07.05zm.24 0a.06.06 0 0 1 -.06-.06.06.06 0 0 1 .06-.06.07.07 0 0 1 .07.06s-.03.06-.07.06z" fill="#f1b517"/><path d="m21.18 24.3h-.06a.08.08 0 0 0 -.08 0s-.05 0-.08 0 0 0 0 0h-.05s0 0 0 0a.06.06 0 0 1 -.06 0h-.35a0 0 0 0 1 0-.05s0 0 0 0h-.06a.06.06 0 0 1 0 0h.05.15.09.27.06s0 0 0 0a.1.1 0 0 1 .07 0 .07.07 0 0 1 .06 0s0 0 .06 0 .06 0 .09 0 0 0 0 0a.12.12 0 0 1 .15 0s0 0 .06 0a.07.07 0 0 1 .06 0h.05a.09.09 0 0 1 .07 0 0 0 0 0 1 0 0s0 0-.06.05 0 0 0 0a.1.1 0 0 1 .05 0 .05.05 0 0 1 0 0h-.07a.07.07 0 0 0 -.06 0s0 0 0 0a.08.08 0 0 1 -.08 0s0 0 0 0h-.05a.15.15 0 0 1 -.07 0 .1.1 0 0 1 -.07 0h-.05-.06a.08.08 0 0 1 -.07 0 .1.1 0 0 1 -.07 0s0 0-.06 0 0 0 0 0a.09.09 0 0 1 .17 0zm-.18-.1h.07.06a.08.08 0 0 0 .08 0 0 0 0 0 0 0 0s0 0 0 0 .06 0 .09 0 0 0 .05 0 0 0 .06 0a.08.08 0 0 1 .07 0h.07s0 0 .05 0a.08.08 0 0 1 .08 0s0 0 0 0 0 0 .06 0a.08.08 0 0 1 -.07-.08.07.07 0 0 1 .07-.07.07.07 0 0 1 .08.07.08.08 0 0 1 0 .05h.07s0 0 .05 0 0 0 0 0a.05.05 0 0 0 0 0s0 0 0 0 0 0 .05-.06a.05.05 0 0 0 0 0s0 0 0 0 0 0-.05 0 0 0-.06 0h-.14-.05a.12.12 0 0 1 -.08 0 .09.09 0 0 0 -.11 0 .06.06 0 0 1 -.06 0h-.05a0 0 0 0 0 0 0s-.05 0-.07 0a.09.09 0 0 1 -.1 0 .05.05 0 0 0 0 0s0 0-.06 0 0 0-.07 0a.08.08 0 0 1 0 0 .05.05 0 1 1 -.05 0h-.04-.07s.08 0 .08.08a.08.08 0 0 1 -.08.07.07.07 0 0 1 -.07-.07.07.07 0 0 1 .05-.07h-.08-.08-.16a0 0 0 0 1 0 0 0 0 0 0 0 0 0h.07s0 0 0 0a0 0 0 0 1 .07 0s0 0 0 0a.09.09 0 0 1 .06 0s0 0 0 0zm.91-.09s0 0 0 .05a0 0 0 0 0 0 .05 0 0 0 0 0 .05-.05.05.05 0 0 0 -.06-.05zm-1 0a.05.05 0 1 0 0 .1.05.05 0 1 0 0-.1zm.15 0s0 0 0 0a0 0 0 0 0 0 0s0 0 0 0a0 0 0 0 0 -.06.01zm-.32.12a.07.07 0 0 1 0-.14.07.07 0 0 1 0 .14zm0-.11a0 0 0 0 0 0 .08 0 0 0 0 0 0-.08zm.47.09a.07.07 0 1 1 .07-.07.07.07 0 0 1 -.11.08zm0-.12a0 0 0 0 0 -.05 0 .05.05 0 0 0 .05.05.06.06 0 0 0 0-.05.05.05 0 0 0 -.04.01zm.49.11a.08.08 0 0 1 -.08-.08.08.08 0 0 1 .16 0 .08.08 0 0 1 -.12.09zm0-.13a0 0 0 0 0 -.05.05.05.05 0 1 0 .1 0 0 0 0 0 0 -.09-.04zm-.23.13a.07.07 0 0 1 0-.14.07.07 0 0 1 0 .14zm0-.11a0 0 0 0 0 0 .08 0 0 0 1 0 0-.08z"/><path d="m20.39 18.12h-.3l-.07-1.35h.45z" fill="#016a16"/><path d="m21.28 15.74a1.44 1.44 0 0 1 1.07.18.25.25 0 0 1 -.24 0h-.07s-.06 0-.06 0 0 0 .05.06a.41.41 0 0 1 .13.1.66.66 0 0 1 -.16-.08.37.37 0 0 0 -.2-.07.42.42 0 0 1 .09.14.34.34 0 0 1 -.11-.07.12.12 0 0 0 -.11 0 .25.25 0 0 1 0 .17.38.38 0 0 0 -.15-.09v.1a1.32 1.32 0 0 0 -.49.19 3.91 3.91 0 0 1 1.23-.08 1.51 1.51 0 0 1 .42.1.66.66 0 0 1 .33.26.23.23 0 0 1 -.16 0 .43.43 0 0 1 -.12-.11.41.41 0 0 0 0 .19 1.27 1.27 0 0 0 -.25-.21.68.68 0 0 0 .07.2l-.21-.18a1 1 0 0 1 0 .17l-.24-.28v.17l-.1-.19a.05.05 0 0 0 -.05 0s0 0 0 0c.12.06.25.1.36.16a1.06 1.06 0 0 1 .33.22.5.5 0 0 1 .12.37c-.06-.07-.12-.13-.17-.2a.67.67 0 0 1 -.1.23 1 1 0 0 1 0-.3.29.29 0 0 0 -.07.22l-.13-.35a.57.57 0 0 0 0 .22l-.12-.19h-.05s-.07 0-.1 0l-.07-.16a.22.22 0 0 1 -.12.09h-.06a.57.57 0 0 1 -.26-.2v.13l-.14-.13a.18.18 0 0 0 0 .1l-.11-.1a.08.08 0 0 0 0 .11.22.22 0 0 0 .11.05 3.1 3.1 0 0 1 .64.24 1.57 1.57 0 0 1 .52.44 1.39 1.39 0 0 0 -.19-.06v.15a.22.22 0 0 0 -.09-.1.12.12 0 0 0 -.13 0l-.05-.07a.08.08 0 0 1 0 .05s0 0-.05 0 0 0 0 0 0 0-.05 0l-.09-.19v.09l-.05-.14v.09l-.06-.09a0 0 0 0 1 -.05 0 .1.1 0 0 1 0-.05s0 0-.06 0 0 0 0 .05v.05a1 1 0 0 1 .27.66l-.14-.16a1.83 1.83 0 0 1 -.08.25l-.06-.26-.09.11a.33.33 0 0 0 0-.14s0-.1-.09-.1v-.1a.37.37 0 0 1 -.05-.18.25.25 0 0 0 0-.12s-.07-.06-.09 0v-.07s0 0-.07 0 0 0 0 .06 0 0 0 0 0 0-.05 0 0 0 0 .06h.07s.05 0 0 .06h-.09a.55.55 0 0 1 .27.33.52.52 0 0 0 -.23-.1 1 1 0 0 1 .22.35l-.09-.06a.8.8 0 0 1 .06.37l-.1-.09a.77.77 0 0 1 -.1.52 1.09 1.09 0 0 1 0-.36.88.88 0 0 1 -.26.25l.15-.43-.25.24.2-.34-.21.1.21-.29a.65.65 0 0 0 -.24 0 2 2 0 0 0 .17-.23.05.05 0 0 0 -.06-.08.13.13 0 0 0 -.07.06.2.2 0 0 0 0-.13.07.07 0 0 0 -.1-.05.73.73 0 0 1 .17-.18.09.09 0 0 1 -.11 0s0-.07 0-.11 0 0 0 0a.06.06 0 0 0 0 0v-.55a.09.09 0 0 1 0-.05l.09-.08.18-.15a2 2 0 0 1 .39-.24 1.61 1.61 0 0 1 -.2-.17z" fill="#016a16"/><path d="m20.77 18.66a1.17 1.17 0 0 1 0-.32.77.77 0 0 1 -.23.21s0 0 0 0l.13-.38-.21.2.18-.31-.17.08s0 0 0 0l.2-.27a.55.55 0 0 0 -.22 0 0 0 0 0 1 0 0s0 0 0 0a2 2 0 0 0 .17-.23s0 0 0 0 0 0-.05 0a.17.17 0 0 0 -.06.06s0 0 0 0a.3.3 0 0 0 0-.13s0 0 0 0a.7.7 0 0 1 .13-.16.12.12 0 0 1 -.06-.06s0-.06 0-.09a.1.1 0 0 1 -.05 0 .11.11 0 0 1 0-.05v-.55a.11.11 0 0 1 0 0l.09-.08c.06-.06.12-.1.18-.15a2.06 2.06 0 0 1 .39-.24 1.1 1.1 0 0 1 .33-.12 1.41 1.41 0 0 1 1.08.18.25.25 0 0 1 -.25 0h-.35s0 0 .05 0a.69.69 0 0 1 .13.11.8.8 0 0 1 -.18-.36.28.28 0 0 0 -.16-.06.26.26 0 0 1 .07.11.21.21 0 0 1 -.1-.06.14.14 0 0 0 -.09 0 .23.23 0 0 1 0 .16 0 0 0 0 1 0 0 .29.29 0 0 0 -.13-.08v.08s0 0 0 0a1.36 1.36 0 0 0 -.43.14 3.84 3.84 0 0 1 1.17-.06 1.55 1.55 0 0 1 .43.1.7.7 0 0 1 .33.26.19.19 0 0 1 -.18 0 .43.43 0 0 1 -.1-.09.43.43 0 0 0 0 .16s0 0 0 0a1 1 0 0 0 -.22-.19.44.44 0 0 0 .06.16s0 0 0 0l-.19-.16a.33.33 0 0 1 0 .14l-.21-.26v.14a0 0 0 0 1 0 0 .5.5 0 0 0 -.12-.08h-.08s0 0 0 0l.21.09.15.07a1 1 0 0 1 .33.22.52.52 0 0 1 .12.38l-.09-.1-.07-.08a1.8 1.8 0 0 1 -.08.21.72.72 0 0 1 0-.25.26.26 0 0 0 -.05.17 0 0 0 0 1 0 0l-.11-.32a.57.57 0 0 0 0 .18s0 0 0 0l-.12-.19s-.06 0-.1 0l-.06-.15s-.06.08-.11.08h-.06a.51.51 0 0 1 -.25-.18v.11a0 0 0 0 1 0 0l-.13-.12a.11.11 0 0 0 0 .08l-.1-.09a0 0 0 0 0 0 0 .14.14 0 0 0 0 .06s.07 0 .1.05a3 3 0 0 1 .64.24 1.56 1.56 0 0 1 .53.44h-.09-.08v.14s0 0 0 0a.3.3 0 0 0 -.09-.1.1.1 0 0 0 -.12 0s-.05 0-.07 0 0 0 0 0 0 0-.07-.05l-.07-.16v.07-.12.06a0 0 0 0 1 0 0l-.05-.06a.07.07 0 0 1 -.06 0v-.05a0 0 0 0 0 -.05 0s0 0 0 0a1.06 1.06 0 0 1 .28.67s0 0 0 0l-.07-.08-.05-.06a2.09 2.09 0 0 1 -.08.23s0 0 0 0v-.23l-.08.09a.32.32 0 0 0 0-.14.12.12 0 0 0 -.08-.09v-.1a.28.28 0 0 1 -.06-.18.19.19 0 0 0 0-.08.07.07 0 0 0 -.05 0s0 0 0 0a.14.14 0 0 0 0-.07.09.09 0 0 0 -.06 0 0 0 0 0 0 0 0 0 0 0 0 1 0 .05s0 0 0 0 .05 0 0 .07h-.06a.56.56 0 0 1 .24.33s0 0 0 0a0 0 0 0 1 0 0 .44.44 0 0 0 -.18-.09 1.09 1.09 0 0 1 .19.33h-.06a.74.74 0 0 1 .05.33s0 0 0 0l-.07-.07a.81.81 0 0 1 -.11.5zm0-.4s0 0 0 0a1.22 1.22 0 0 0 0 .33.79.79 0 0 0 .09-.49s0 0 0 0l.07.07a.63.63 0 0 0 -.06-.33s0 0 0 0h.06a.79.79 0 0 0 -.2-.31 0 0 0 0 1 0 0 .39.39 0 0 1 .2.08.5.5 0 0 0 -.24-.29 0 0 0 0 1 0 0h.08s0 0 0 0h-.05a.08.08 0 0 1 0-.05s0 0 0 0a.06.06 0 0 1 0 0s0 0 0 0a.08.08 0 0 1 .08 0 .14.14 0 0 1 0 .06.13.13 0 0 1 .07.06.14.14 0 0 1 0 .09.34.34 0 0 0 .05.17v.09a.13.13 0 0 1 .09.11.14.14 0 0 1 0 .09l.06-.07v.23a1.72 1.72 0 0 0 .07-.21 0 0 0 0 1 0 0l.07.08.05.06a1 1 0 0 0 -.27-.62.09.09 0 0 1 0-.05.06.06 0 0 1 0-.07.08.08 0 0 1 .08 0s0 0 0 0l.05.07v-.06.1-.06l.09.19s0 0 0 0 0 0 .05 0 0 0 0 0a0 0 0 0 1 0 0v.06a.11.11 0 0 1 .13 0 .18.18 0 0 1 .08.07v-.12a.32.32 0 0 0 .09 0h.06a1.65 1.65 0 0 0 -.49-.4 3.41 3.41 0 0 0 -.64-.24.22.22 0 0 1 -.11-.05.08.08 0 0 1 0-.08.08.08 0 0 1 0-.05l.09.08a.3.3 0 0 1 0-.08l.12.12v-.11s0 0 0 0a.47.47 0 0 0 .25.19h.06s.08 0 .11-.08a0 0 0 0 1 0 0 0 0 0 0 0 0 0l.06.15a.09.09 0 0 1 .11 0 .12.12 0 0 1 0 .05l.1.15a.57.57 0 0 1 0-.18 0 0 0 0 1 0 0l.11.29a.29.29 0 0 1 .07-.16s0 0 0 0a1.09 1.09 0 0 0 0 .26.73.73 0 0 0 .07-.19 0 0 0 0 1 0 0 .39.39 0 0 0 .08.1l.07.07a.53.53 0 0 0 -.12-.32 1 1 0 0 0 -.32-.22l-.15-.06-.21-.1h-.05a.06.06 0 0 1 0-.07.06.06 0 0 1 .06 0 .41.41 0 0 1 .11.07v-.15s0 0 0 0l.22.26a.66.66 0 0 0 0-.14s0 0 0 0l.16.14a.83.83 0 0 1 0-.15 1.24 1.24 0 0 1 .22.18.76.76 0 0 1 0-.15s0 0 0 0a.43.43 0 0 0 .12.11.14.14 0 0 0 .13 0 .73.73 0 0 0 -.31-.24 1.44 1.44 0 0 0 -.42-.09 3.4 3.4 0 0 0 -1.23.08s0 0 0 0a1.38 1.38 0 0 1 .48-.19v-.34a.37.37 0 0 1 .14.07.22.22 0 0 0 0-.14s0 0 0 0a.22.22 0 0 1 .12 0h.06l-.07-.1a.31.31 0 0 1 1.38.17l.11.07a.22.22 0 0 0 -.11-.07.08.08 0 0 1 -.05-.07s0 0 0 0 0 0 .05 0 0 0 .06 0a.26.26 0 0 0 .21 0 1.41 1.41 0 0 0 -1-.17l-.33.12a2.36 2.36 0 0 0 -.38.24c-.06.05-.12.09-.18.15l-.09.08v.55a.06.06 0 0 0 0 0s0 0 0 0a.22.22 0 0 0 0 .08.1.1 0 0 0 .05 0s0 0 0 0a.54.54 0 0 0 -.15.15.14.14 0 0 1 .06.07v.08h.06s0 0 0 0a.14.14 0 0 1 0 .06 1.39 1.39 0 0 1 -.15.19h.22l-.18.26.16-.08-.15.25.18-.17s0 0 0 0l-.14.4a.84.84 0 0 0 .23-.23z"/><path d="m20.52 16.55a1.85 1.85 0 0 1 .51-.25s0 0 0 0a1.75 1.75 0 0 0 -.5.24z"/><path d="m20.62 16.59s0 0 0 0a1.12 1.12 0 0 1 .54-.19 2.51 2.51 0 0 1 .57 0 .4.4 0 0 1 .2.08s0 0 0 0a.47.47 0 0 0 -.19-.08 2.6 2.6 0 0 0 -.57 0 1.11 1.11 0 0 0 -.53.18z"/><path d="m21.12 16.75a.72.72 0 0 0 -.2-.09.3.3 0 0 0 -.21 0s0 0 0 0a.32.32 0 0 1 .22 0 .83.83 0 0 1 .22.08z"/><path d="m21.19 17.16a1.85 1.85 0 0 0 -.28-.28.55.55 0 0 0 -.24-.12s0 0 0 0a.75.75 0 0 1 .25.13 1.85 1.85 0 0 1 .28.28s0 0 0 0z"/><path d="m20.75 17a.55.55 0 0 1 -.14-.23 0 0 0 0 1 0 0 .59.59 0 0 0 .12.22s0 0 0 0z"/><path d="m20.75 18.29a2.05 2.05 0 0 1 -.1-.61v-.08a1.24 1.24 0 0 0 -.17-.63s0 0 0 0a1.26 1.26 0 0 1 .18.64v.08a2 2 0 0 0 .1.6s0 0 0 0z"/><path d="m19.21 15.74a1.43 1.43 0 0 0 -1.07.18.26.26 0 0 0 .24 0h.06s.06 0 .06 0 0 0-.05.06a.38.38 0 0 0 -.12.1.61.61 0 0 0 .18-.09.37.37 0 0 1 .2-.07.42.42 0 0 0 -.09.14.26.26 0 0 0 .11-.07.13.13 0 0 1 .12 0 .21.21 0 0 0 0 .17.42.42 0 0 1 .15-.16v.1a1.39 1.39 0 0 1 .49.19 4 4 0 0 0 -1.24-.08 1.6 1.6 0 0 0 -.42.1.7.7 0 0 0 -.33.26.21.21 0 0 0 .16 0 .69.69 0 0 0 .13-.11.41.41 0 0 1 0 .19 1.64 1.64 0 0 1 .25-.21.48.48 0 0 1 -.07.2l.21-.18a.5.5 0 0 0 0 .17l.23-.28v.17a.57.57 0 0 1 .13-.08h.05s0 0 0 0l-.36.16a.91.91 0 0 0 -.32.22.46.46 0 0 0 -.12.37c0-.07.12-.13.17-.2a.92.92 0 0 0 .09.23.77.77 0 0 0 0-.3.35.35 0 0 1 .08.22l.13-.35a.85.85 0 0 1 0 .22l.12-.19s.08 0 .11 0l.07-.16a.22.22 0 0 0 .12.09.52.52 0 0 0 .26-.2v.13l.14-.13a.19.19 0 0 1 .05.1l.1-.1s0 .08 0 .11a.16.16 0 0 1 -.1.05 2.9 2.9 0 0 0 -.64.24 1.48 1.48 0 0 0 -.52.44 1.39 1.39 0 0 1 .19-.06v.15a.32.32 0 0 1 .1-.1.12.12 0 0 1 .13 0v-.07s0 0 0 .05a0 0 0 0 0 .05 0s0 0 0 0a.05.05 0 0 1 0 0s0 0 0 0a.07.07 0 0 0 .06 0l.09-.19v.09l.06-.14v.09l.06-.09a0 0 0 0 0 .05 0v-.05a0 0 0 0 1 .06 0s0 0 0 .05a.09.09 0 0 1 0 .05 1.08 1.08 0 0 0 -.27.66l.14-.16a1.06 1.06 0 0 0 .09.25l.05-.26.09.11a.33.33 0 0 1 0-.14.12.12 0 0 1 .1-.1v-.1a.3.3 0 0 0 .06-.18.24.24 0 0 1 0-.12s.07-.06.1 0a.11.11 0 0 1 0-.07s0 0 .06 0a0 0 0 0 1 0 .06s0 0 0 0 0 0 0 .06 0 0-.07 0a.07.07 0 0 0 0 .06h.09a.51.51 0 0 0 -.26.33.44.44 0 0 1 .22-.1 1.15 1.15 0 0 0 -.22.35l.1-.06a.8.8 0 0 0 -.06.37l.09-.09a.77.77 0 0 0 .11.52 1.45 1.45 0 0 0 0-.36.69.69 0 0 0 .26.25l-.15-.43.24.24.31-.26.2.1a3.06 3.06 0 0 0 -.21-.29.71.71 0 0 1 .25 0 1.24 1.24 0 0 1 -.14-.21.08.08 0 0 1 0-.05 0 0 0 0 1 .07 0 .11.11 0 0 1 .07.06.29.29 0 0 1 0-.13s.07-.07.1-.05a.69.69 0 0 0 -.16-.18s.08 0 .1 0 0-.07 0-.11 0 0 0 0a.08.08 0 0 0 0 0 .06.06 0 0 0 0 0v-.55a.09.09 0 0 0 0-.05l-.08-.08-.18-.15a2.74 2.74 0 0 0 -.39-.24z" fill="#016a16"/><path d="m19.72 18.66s0 0 0 0a.69.69 0 0 1 -.11-.5l-.07.07s0 0 0 0a.62.62 0 0 1 0-.33h-.06a0 0 0 0 1 0 0 1.12 1.12 0 0 1 .2-.33.38.38 0 0 0 -.18.09s0 0 0 0a.66.66 0 0 1 .24-.33h-.06s0-.06.05-.07h.05a.1.1 0 0 0 0 0 0 0 0 0 1 0-.05s0 0 0 0a0 0 0 0 0 0 0 .05.05 0 0 0 -.05 0s0 0 0 .07 0 0 0 0a.07.07 0 0 0 -.05 0 .11.11 0 0 0 0 .08.35.35 0 0 1 -.05.18v.1a.11.11 0 0 0 -.08.09.32.32 0 0 0 0 .14s0 0 0 0l-.07-.09-.05.23s0 0 0 0a2 2 0 0 1 -.07-.23l-.06.06-.07.08s0 0 0 0a1.05 1.05 0 0 1 .27-.67s0 0 0 0a0 0 0 0 0 0 0s0 0 0 0a.1.1 0 0 1 0 .05 0 0 0 0 1 -.05 0v.06-.06h-.45v-.07l-.08.16c0 .05-.05.05-.07.05s0 0 0 0a0 0 0 0 0 0 0 0 0 0 0 1 0 0s-.05 0-.07 0 0 0 0 0a.1.1 0 0 0 -.12 0 .21.21 0 0 0 -.08.1s0 0 0 0v-.14h-.08-.1s0 0 0 0a1.52 1.52 0 0 1 .52-.44 3 3 0 0 1 .64-.24.16.16 0 0 0 .1-.05.07.07 0 0 0 0-.06 0 0 0 0 0 0 0l-.09.09a0 0 0 0 0 0 0 .11.11 0 0 0 0-.08l-.13.12s0 0 0 0v-.11a.56.56 0 0 1 -.25.18h-.06a.16.16 0 0 1 -.12-.08l-.06.15s-.07-.05-.1 0l-.12.19s0 0 0 0a1.1 1.1 0 0 0 0-.18l-.12.32a0 0 0 0 1 0 0 .25.25 0 0 0 0-.17.73.73 0 0 1 0 .25 1 1 0 0 1 -.09-.21l-.07.08a.39.39 0 0 0 -.08.1 0 0 0 0 0 0 0 .49.49 0 0 1 .13-.38.88.88 0 0 1 .32-.22l.15-.07.21-.09s0 0 0 0h-.08l-.12.08s0 0 0 0v-.14l-.21.26a.66.66 0 0 1 0-.14l-.19.16a.44.44 0 0 0 .06-.16 1.3 1.3 0 0 0 -.22.19s0 0 0 0a.44.44 0 0 0 0-.16.48.48 0 0 1 -.11.09.17.17 0 0 1 -.17 0 .68.68 0 0 1 .34-.26 1.42 1.42 0 0 1 .42-.1 3.82 3.82 0 0 1 1.17.06 1.28 1.28 0 0 0 -.43-.14s0 0 0 0v-.24a.35.35 0 0 0 -.13.08s0 0 0 0a.3.3 0 0 1 0-.16.12.12 0 0 0 -.08 0 .24.24 0 0 1 -.09.06.41.41 0 0 1 .07-.11.31.31 0 0 0 -.16.06.8.8 0 0 1 -.16.08 0 0 0 0 1 0 0s0 0 0 0a.47.47 0 0 1 .13-.11s0 0 0 0h-.05a.25.25 0 0 1 -.25 0 1.41 1.41 0 0 1 1.08-.18 1.1 1.1 0 0 1 .33.12 2.06 2.06 0 0 1 .39.24c.06.05.12.09.18.15l.09.08a.05.05 0 0 1 0 0v.55a.11.11 0 0 1 0 .05.15.15 0 0 1 0 .09.09.09 0 0 1 -.06.06.51.51 0 0 1 .13.16s0 0 0 0a.1.1 0 0 0 -.05 0 .21.21 0 0 0 0 .13 0 0 0 0 1 0 0s0-.05-.06-.06 0 0 0 0a.05.05 0 0 0 0 0 1.88 1.88 0 0 0 .16.23.5.5 0 0 0 -.21 0l.19.27s0 0 0 0l-1.16.21.17.31s0 0 0 0l-.2-.2.13.38a1 1 0 0 1 -.24-.21 1.17 1.17 0 0 1 0 .32 0 0 0 0 1 0 0zm-.11-.56s0 0 0 0a.86.86 0 0 0 .09.49 1.22 1.22 0 0 0 0-.33s0 0 0 0a.8.8 0 0 0 .22.23l-.14-.4a0 0 0 0 1 0 0s0 0 0 0l.18.17-.08-.26s0 0 0 0l.16.08-.18-.26a0 0 0 0 1 0 0h.21a1.33 1.33 0 0 1 -.14-.19s0 0 0-.06a.05.05 0 0 1 0 0h.07a.11.11 0 0 1 0-.08.11.11 0 0 1 .06-.07.67.67 0 0 0 -.14-.15s0 0 0 0a.1.1 0 0 0 .05 0 .22.22 0 0 0 0-.08 0 0 0 0 1 0 0 .06.06 0 0 1 0 0v-.55a0 0 0 0 0 0 0s0 0 0 0l-.08-.08-.18-.15a2.42 2.42 0 0 0 -.39-.24l-.33-.12a1.38 1.38 0 0 0 -1 .17.23.23 0 0 0 .2 0h.06a0 0 0 0 1 .06 0s0 .06-.06.07l-.09.07.11-.07a.27.27 0 0 1 .2-.07.61.61 0 0 0 -.07.1.1.1 0 0 0 .05 0 .25.25 0 0 1 .13 0 .23.23 0 0 0 0 .14.37.37 0 0 1 .42-.46v.09a1.3 1.3 0 0 1 .48.19s0 0 0 0a3.38 3.38 0 0 0 -1.23-.08 1.32 1.32 0 0 0 -.41.09.69.69 0 0 0 -.32.24.17.17 0 0 0 .14 0l.12-.11a0 0 0 0 1 0 0 .38.38 0 0 1 0 .15 1 1 0 0 1 .22-.17s0 0 0 0a.88.88 0 0 1 -.05.15l.16-.14s0 0 0 0a.66.66 0 0 0 0 .14l.22-.26s0 0 0 0v.15l.11-.07h.06a.05.05 0 0 1 .05 0 .06.06 0 0 1 0 .07l-.22.1-.15.06a.85.85 0 0 0 -.31.22.43.43 0 0 0 -.12.32l.06-.07.09-.1s0 0 0 0a.77.77 0 0 0 .08.19.74.74 0 0 0 .02-.16 0 0 0 0 1 0 0 .3.3 0 0 1 .08.16l.11-.29s0 0 0 0a0 0 0 0 1 0 0 1.16 1.16 0 0 1 0 .18l.1-.15a.1.1 0 0 1 0-.05.09.09 0 0 1 .11 0l.07-.15s.06.08.11.08a.47.47 0 0 0 .25-.19v.11l.12-.12a.35.35 0 0 1 .05.08l.08-.08a.05.05 0 0 1 0 .05.11.11 0 0 1 0 .08.22.22 0 0 1 -.11.05 3.69 3.69 0 0 0 -.64.24 1.65 1.65 0 0 0 -.49.4h.06a.32.32 0 0 0 .09 0v.12s0-.06.08-.07a.12.12 0 0 1 .14 0v-.06s0 0 0 0a0 0 0 0 1 .05 0s0 0 0 0l.09-.19a0 0 0 0 1 0 0v.06-.1.06-.07s0 0 0 0a0 0 0 0 0 0 0 .06.06 0 0 1 .07 0s0 .05 0 .07v.05a1 1 0 0 0 -.26.62v-.06a.27.27 0 0 0 .07-.08.83.83 0 0 0 .06.21l.05-.23a0 0 0 0 1 0 0l.06.07a.27.27 0 0 1 0-.09.13.13 0 0 1 .09-.11v-.09a.26.26 0 0 0 0-.17.28.28 0 0 1 0-.09.11.11 0 0 1 .07-.06s0 0 0-.06.05 0 .07 0a.05.05 0 0 1 .05 0s0 0 0 0a.05.05 0 0 1 0 0 0 0 0 0 1 0 .05s0 0-.05 0 0 0 0 0h.07s0 0 0 0a.48.48 0 0 0 -.25.29.39.39 0 0 1 .2-.08 1.1 1.1 0 0 0 -.2.31h.06a.63.63 0 0 0 -.06.33l.07-.07z"/><path d="m20 16.55a1.53 1.53 0 0 0 -.5-.24s0 0 0 0a1.72 1.72 0 0 1 .51.25s0 0 0 0z"/><path d="m19.86 16.59a1.08 1.08 0 0 0 -.53-.18 2.62 2.62 0 0 0 -.57 0 .49.49 0 0 0 -.18.08 0 0 0 0 1 0 0 .4.4 0 0 1 .2-.08 2.58 2.58 0 0 1 .57 0 1.16 1.16 0 0 1 .55.19 0 0 0 0 1 0 0z"/><path d="m19.36 16.75s0 0 0 0a.66.66 0 0 1 .21-.08.36.36 0 0 1 .23 0s0 0 0 0a.29.29 0 0 0 -.21 0 .88.88 0 0 0 -.2.09z"/><path d="m19.29 17.16a1.54 1.54 0 0 1 .29-.28.66.66 0 0 1 .25-.13s0 0 0 0a.55.55 0 0 0 -.24.12 1.85 1.85 0 0 0 -.28.28z"/><path d="m19.73 17s0 0 0 0a.61.61 0 0 0 .13-.22s0 0 0 0a.53.53 0 0 1 -.13.23z"/><path d="m20.61 15.53v.2a.44.44 0 0 1 0 .16.18.18 0 0 1 -.1.09.18.18 0 0 1 -.1 0 .43.43 0 0 1 -.18-.06.6.6 0 0 1 -.15-.09.21.21 0 0 1 -.08-.11.13.13 0 0 1 0-.12l.07-.07c0-.05.06-.12 0-.17a.1.1 0 0 0 0-.05.19.19 0 0 1 0-.07.06.06 0 0 1 .06 0h.17l.13.05a.43.43 0 0 1 .13.09.19.19 0 0 1 .05.1s0 0 0 .05z" fill="#0a328c"/><path d="m20.32 16.81-.14-.16v-1.04h.14z" fill="#f1b517"/><path d="m20.34 16.84-.17-.19v-1h.17zm-.15-.2.12.13v-1.14h-.12z" fill="#231f20"/><path d="m20.61 15.71a.44.44 0 0 1 0 .16.18.18 0 0 1 -.1.09s-.06-.08-.1-.12a.28.28 0 0 0 -.17-.09h-.2-.04a.13.13 0 0 1 0-.12l.07-.07h.18a.69.69 0 0 1 .28.11.23.23 0 0 1 .08.04z" fill="#d20014"/><path d="m19.74 18.29s0 0 0 0a2 2 0 0 0 .11-.6v-.08a1.26 1.26 0 0 1 .15-.61 0 0 0 0 1 0 0 1.25 1.25 0 0 0 -.18.63v.08a2.05 2.05 0 0 1 -.1.61z"/><path d="m25 24.77.34-.19a4 4 0 0 1 -1.34-.13c-.18-.06-.36-.15-.54-.21a1.17 1.17 0 0 0 -.58-.08c-.05 0-.1 0-.1.08a.86.86 0 0 1 0 .16.17.17 0 0 0 .05.14.18.18 0 0 0 .16 0 .92.92 0 0 1 .33 0 1.14 1.14 0 0 1 .34.15 2.55 2.55 0 0 0 1.76.18 2 2 0 0 0 -.42-.1z" fill="#fff"/><path d="m24.73 25a2.52 2.52 0 0 1 -1.12-.26h-.07a.83.83 0 0 0 -.27-.12.69.69 0 0 0 -.32 0 .33.33 0 0 1 -.17 0 .2.2 0 0 1 -.06-.16.09.09 0 0 1 0 0v-.11c0-.06.07-.09.12-.09a1.14 1.14 0 0 1 .58.08l.25.09.3.12a3.91 3.91 0 0 0 1.33.13h.06-.05l-.17.09-.14.08a2.43 2.43 0 0 1 .38.13 2.88 2.88 0 0 1 -.65.02zm-1.61-.45h.15a1 1 0 0 1 .29.12h.06a2.45 2.45 0 0 0 1.71.2 2.65 2.65 0 0 0 -.37-.12l.17-.1.13-.07a3.68 3.68 0 0 1 -1.26-.12l-.3-.11-.25-.1a1.21 1.21 0 0 0 -.57-.08s-.09 0-.09.07a.13.13 0 0 0 .1 0 .78.78 0 0 0 .3 0 1.1 1.1 0 0 1 -.31 0 .12.12 0 0 1 -.09 0s0 0 0 .06v.13a.16.16 0 0 0 .15 0z"/><path d="m17.75 24.24s-.06-.07-.11-.08a1.12 1.12 0 0 0 -.57.08c-.19.06-.36.15-.55.21a4 4 0 0 1 -1.34.13l.34.19a2 2 0 0 0 -.41.13 2.55 2.55 0 0 0 1.76-.18 1.14 1.14 0 0 1 .34-.15.92.92 0 0 1 .33 0 .18.18 0 0 0 .16 0 .17.17 0 0 0 .05-.14.43.43 0 0 1 0-.19z" fill="#fff"/><path d="m15.75 25a2.79 2.79 0 0 1 -.64-.07 2.43 2.43 0 0 1 .38-.13l-.14-.08-.18-.09a4 4 0 0 0 1.34-.13l.3-.12.24-.09a1.16 1.16 0 0 1 .58-.08c.06 0 .12 0 .12.09s0 .06 0 .09a.19.19 0 0 1 -.05.16.33.33 0 0 1 -.17 0 .69.69 0 0 0 -.32 0 1 1 0 0 0 -.28.12h-.06a2.57 2.57 0 0 1 -1.12.33zm-.6-.09a2.44 2.44 0 0 0 1.71-.2h.07a1 1 0 0 1 .28-.12 1.22 1.22 0 0 1 .33 0 .16.16 0 0 0 .15 0 .15.15 0 0 0 0-.13.43.43 0 0 1 0 0v-.06a.16.16 0 0 1 -.09 0 1.17 1.17 0 0 1 -.32 0 .8.8 0 0 0 .31 0s.08 0 .09 0-.05-.06-.09-.07a1.24 1.24 0 0 0 -.57.08l-.24.1-.31.11a3.65 3.65 0 0 1 -1.28.13l.12.07.17.1a2.4 2.4 0 0 0 -.33-.02z"/><ellipse cx="18.44" cy="21.6" fill="#016a16" rx=".28" ry=".14"/><path d="m18.44 21.75c-.17 0-.3-.06-.3-.15s.13-.16.3-.16.3.07.3.16-.13.15-.3.15zm0-.28c-.15 0-.27.06-.27.13s.12.13.27.13.27-.06.27-.13-.12-.13-.27-.13z" fill="#fff"/><ellipse cx="18.44" cy="21.6" fill="#fff" rx=".26" ry=".13"/><path d="m18.44 21.74c-.15 0-.27-.06-.27-.14s.12-.14.27-.14.27.06.27.14-.12.14-.27.14zm0-.26c-.13 0-.25.06-.25.12s.12.11.25.11.24-.05.24-.11-.11-.12-.24-.12z" fill="#016a16"/><path d="m18.36 21.32h.15v.37h-.15z" fill="#1a7116"/><path d="m18.52 21.7h-.16a0 0 0 0 1 0 0v-.36a0 0 0 0 1 0 0h.16s0 0 0 0v.36s.01 0 0 0zm-.14 0h.12v-.34h-.12z" fill="#f1b517"/><path d="m23.15 24.7a11.05 11.05 0 0 1 -5.82 0v-.43a11.05 11.05 0 0 0 5.82 0z" fill="#fff"/><path d="m20.24 25.1a11 11 0 0 1 -2.91-.39v-.46a11.05 11.05 0 0 0 5.82 0v.46a11.16 11.16 0 0 1 -2.91.39zm-2.9-.41a11 11 0 0 0 5.8 0v-.41a11 11 0 0 1 -5.8 0z"/><path d="m17.63 24.39-.08.28h.14l-.18-.05z"/><path d="m17.89 24.45-.08.1a.39.39 0 0 0 .06-.11z"/><path d="m18.09 24.5v.2c0 .07 0 .11.05.11s.09 0 .11-.08v-.19.19c0 .1-.08.13-.15.12s-.11-.06-.09-.16v-.2z"/><path d="m18.32 24.89.06-.33.08.18a.56.56 0 0 1 0 .12c0-.05 0-.09 0-.14v-.13l-.05.33-.08-.18a.56.56 0 0 1 0-.12s0 .08 0 .13v.14z"/><path d="m18.76 24.62-.05.33v-.32z"/><path d="m19.12 24.83a.15.15 0 1 1 -.3 0 .15.15 0 0 1 .17-.15.15.15 0 0 1 .13.15zm-.26 0a.12.12 0 0 0 .14.17.11.11 0 0 0 .12-.12c0-.07 0-.14-.09-.15s-.16 0-.17.08z"/><path d="m19.19 25v-.33h.05l.09.18a.54.54 0 0 1 0 .11.66.66 0 0 1 0-.14v-.14.33l-.09-.17a.61.61 0 0 1 -.05-.12.57.57 0 0 0 0 .14z"/><path d="m19.69 24.71h.18-.13v.11h.13-.13v.18z"/><path d="m20 25v.1l.12-.33h.05l.11.33h-.05v-.1zm.11 0v-.09s0 0 0-.06a.14.14 0 0 1 0 .06z"/><path d="m20.28 24.72v.33z"/><path d="m20.44 24.75h-.1.25-.11v.3z"/><path d="m20.78 24.71v.3h.22-.2z"/><path d="m21.1 24.91v.11l.09-.34h.05l.14.32v-.1zm.11 0v-.09a.14.14 0 0 1 0-.06.13.13 0 0 1 0 .06v.1z"/><path d="m21.48 24.65h.18-.14v.11h.13-.12v.15h-.05z"/><path d="m22.05 24.73a.17.17 0 0 1 -.13.2.17.17 0 0 1 -.05-.34c.13-.02.13.04.18.14zm-.26.05a.12.12 0 0 0 .13.11c.07 0 .09-.07.08-.15s-.05-.13-.12-.12-.1.08-.09.16z"/><path d="m22.1 24.56h.08a.16.16 0 0 1 .1 0 .06.06 0 0 1 0 .06.08.08 0 0 1 0 .09.17.17 0 0 1 .06.06v.09s0 0 0-.07 0-.06-.08-.05v.14zm.07.14c.05 0 .07 0 .06-.08s0-.05-.08-.05z"/><path d="m22.67 24.77a.19.19 0 0 1 -.08 0 .16.16 0 0 1 -.19-.14.15.15 0 0 1 .13-.2h.08-.07a.12.12 0 0 0 -.1.16c0 .08.07.13.15.11h.07z"/><path d="m22.89 24.57h-.13v.12h.14-.18l-.08-.32h.18-.13v.1h.12z"/><path d="m15.35 23.91-1 .33a.49.49 0 0 1 .15-.25l.07.11s.09-.28.24-.35a.93.93 0 0 0 -.52.16h.13a2 2 0 0 0 -.29.41.93.93 0 0 0 .52.18.32.32 0 0 1 -.11.14 1 1 0 0 0 .56-.19 1.34 1.34 0 0 1 -.38-.15v.12s-.3-.07-.31-.13l1-.3h.14z" fill="#f1b517"/><path d="m14.5 24.69a.35.35 0 0 0 .1-.12 1 1 0 0 1 -.51-.18 2.21 2.21 0 0 1 .28-.4h-.13a.89.89 0 0 1 .53-.17h.07-.06c-.14.07-.23.34-.24.35l-.04-.17a.42.42 0 0 0 -.12.21l1-.33.21.11h-.17l-1 .29a.86.86 0 0 0 .29.1v-.14a1.14 1.14 0 0 0 .37.15 1 1 0 0 1 -.57.19zm.18-.17a.26.26 0 0 1 -.08.12.9.9 0 0 0 .49-.16 1.58 1.58 0 0 1 -.34-.13v.11c-.05 0-.32-.07-.33-.14l1-.29h.1l-.13-.07-1 .34a.49.49 0 0 1 .11-.3l.07.09a.74.74 0 0 1 .19-.3.94.94 0 0 0 -.45.14h.13a2 2 0 0 0 -.29.4 1 1 0 0 0 .51.17z"/><path d="m15.63 23.79a.1.1 0 0 0 -.09 0 .09.09 0 0 0 0-.06v-.06c-.1 0-.12.09-.12.15a.83.83 0 0 0 0 .15l.06.12a.1.1 0 0 0 0 .05.08.08 0 0 0 .1 0 .19.19 0 0 0 0-.08s0-.05 0-.08h.05a.11.11 0 0 0 .1-.11.11.11 0 0 0 -.1-.08zm0 .15a0 0 0 0 1 -.05-.05 0 0 0 0 1 .05 0 0 0 0 0 1 0 .05z" fill="#f1b517"/><path d="m15.52 24.2s0 0 0-.06a.39.39 0 0 1 -.06-.11.38.38 0 0 1 0-.16.2.2 0 0 1 .05-.16.07.07 0 0 1 .08 0 .12.12 0 0 1 .06.06.11.11 0 0 1 .08 0 .11.11 0 0 1 .11.11.11.11 0 0 1 -.11.12v.06s0 .06 0 .09a.1.1 0 0 1 -.05 0zm-.1-.48a.15.15 0 0 0 0 .14.57.57 0 0 0 0 .15l.06.11a.1.1 0 0 0 0 .05s0 0 0 0a.17.17 0 0 0 0-.07.22.22 0 0 1 0-.08h.06a.1.1 0 0 0 .09-.1.09.09 0 0 0 -.09-.09.09.09 0 0 0 -.08 0s0-.05-.05-.05zm.21.24a.07.07 0 0 1 -.07-.07.07.07 0 0 1 .07-.06.06.06 0 0 1 .06.06.07.07 0 0 1 -.06.11zm0-.1s0 0 0 0a0 0 0 0 0 0 0s0 0 0 0a0 0 0 0 0 0 0z"/><path d="m18.32 22.11h.15v.59h-.15z" fill="#f1b517" transform="matrix(-.99861121 -.05268454 .05268454 -.99861121 35.58 45.75)"/><path d="m18.46 22.72h-.17v-.62h.17zm-.14 0h.12v-.56h-.12z"/><path d="m16.72 22.31-.13-.11a.63.63 0 0 0 .12.11z"/><path d="m17.77 22.31.14-.09z"/><path d="m17.85 23.49-.09-.1.09.09z"/><path d="m16.55 23.35h.16v.03h-.16z" transform="matrix(.77868136 -.62741959 .62741959 .77868136 -10.98 15.6)"/><path d="m22.61 22.19h.03v.16h-.03z" transform="matrix(.61387195 -.78940562 .78940562 .61387195 -8.85 26.46)"/><path d="m23.78 22.32-.02-.02.13-.1h.02v.01z"/><path d="m23.82 23.3h.03v.17h-.03z" transform="matrix(.59566426 -.80323352 .80323352 .59566426 -9.15 28.6)"/><path d="m22.63 23.49.12-.12z"/></svg>