<svg xmlns="http://www.w3.org/2000/svg" viewBox="0 0 40.5 40.5"><defs><style>.cls-1{fill:#f93;}.cls-2{fill:#fff;}.cls-3{fill:#128807;}.cls-4{fill:#008;}</style></defs><g id="Ebene_2" data-name="Ebene 2"><g id="Ńëîé_1" data-name="Ńëîé 1"><path class="cls-1" d="M39.34,13.5H1.16a20.25,20.25,0,0,1,38.18,0Z"/><path class="cls-2" d="M40.5,20.25A20,20,0,0,1,39.34,27H1.16a20.22,20.22,0,0,1,0-13.5H39.34A20,20,0,0,1,40.5,20.25Z"/><path class="cls-3" d="M39.34,27A20.25,20.25,0,0,1,1.16,27Z"/><circle class="cls-4" cx="20.25" cy="20.25" r="0.93"/><path class="cls-4" d="M20.25,14.84a5.41,5.41,0,1,0,5.41,5.41A5.42,5.42,0,0,0,20.25,14.84Zm4.48,7a2.67,2.67,0,0,1-.2.46,3,3,0,0,1-.37.65c-.09.13-.2.27-.31.4a4.1,4.1,0,0,1-.51.51c-.13.11-.27.22-.4.31a3,3,0,0,1-.65.37,2.67,2.67,0,0,1-.46.2,4.26,4.26,0,0,1-.7.19,4.08,4.08,0,0,1-.52.07h-.72a4.08,4.08,0,0,1-.52-.07,4.26,4.26,0,0,1-.7-.19,2.67,2.67,0,0,1-.46-.2,3,3,0,0,1-.65-.37c-.13-.09-.27-.2-.4-.31a4.1,4.1,0,0,1-.51-.51c-.11-.13-.22-.27-.31-.4a3,3,0,0,1-.37-.65,2.67,2.67,0,0,1-.2-.46,4.26,4.26,0,0,1-.19-.7,2.85,2.85,0,0,1-.06-.52h0c0-.12,0-.24,0-.36s0-.24,0-.36h0a2.85,2.85,0,0,1,.06-.52,4.26,4.26,0,0,1,.19-.7,2.67,2.67,0,0,1,.2-.46,3,3,0,0,1,.37-.65c.09-.13.2-.27.31-.4a4.1,4.1,0,0,1,.51-.51c.13-.11.27-.22.4-.31a3,3,0,0,1,.65-.37,2.67,2.67,0,0,1,.46-.2,4.26,4.26,0,0,1,.7-.19,2.85,2.85,0,0,1,.52-.06h.72a2.85,2.85,0,0,1,.52.06,4.26,4.26,0,0,1,.7.19,2.67,2.67,0,0,1,.46.2,3,3,0,0,1,.65.37c.13.09.27.2.4.31a4.1,4.1,0,0,1,.51.51c.11.13.22.27.31.4a3,3,0,0,1,.37.65,2.67,2.67,0,0,1,.2.46,4.26,4.26,0,0,1,.19.7,4.08,4.08,0,0,1,.07.52c0,.12,0,.24,0,.36s0,.24,0,.36a4.08,4.08,0,0,1-.07.52A4.26,4.26,0,0,1,24.73,21.83Z"/><polygon class="cls-4" points="20.25 19.63 20.09 18.38 20.25 15.62 20.41 18.38 20.25 19.63"/><polygon class="cls-4" points="20.09 19.65 19.61 18.48 19.05 15.78 19.92 18.4 20.09 19.65"/><polygon class="cls-4" points="19.94 19.71 19.17 18.71 17.93 16.24 19.45 18.54 19.94 19.71"/><polygon class="cls-4" points="19.81 19.81 18.81 19.04 16.98 16.98 19.04 18.81 19.81 19.81"/><polygon class="cls-4" points="19.71 19.94 18.54 19.45 16.24 17.93 18.71 19.17 19.71 19.94"/><polygon class="cls-4" points="19.65 20.09 18.4 19.92 15.78 19.05 18.48 19.61 19.65 20.09"/><polygon class="cls-4" points="19.63 20.25 18.38 20.41 15.62 20.25 18.38 20.09 19.63 20.25"/><polygon class="cls-4" points="19.65 20.41 18.48 20.89 15.78 21.45 18.4 20.58 19.65 20.41"/><polygon class="cls-4" points="19.71 20.56 18.71 21.33 16.24 22.57 18.54 21.05 19.71 20.56"/><polygon class="cls-4" points="19.81 20.69 19.04 21.69 16.98 23.52 18.81 21.46 19.81 20.69"/><polygon class="cls-4" points="19.94 20.79 19.45 21.96 17.93 24.26 19.17 21.79 19.94 20.79"/><polygon class="cls-4" points="20.09 20.85 19.92 22.1 19.05 24.72 19.61 22.02 20.09 20.85"/><polygon class="cls-4" points="20.25 20.87 20.41 22.13 20.25 24.88 20.09 22.13 20.25 20.87"/><polygon class="cls-4" points="20.41 20.85 20.89 22.02 21.45 24.72 20.58 22.1 20.41 20.85"/><polygon class="cls-4" points="20.56 20.79 21.33 21.79 22.57 24.26 21.05 21.96 20.56 20.79"/><polygon class="cls-4" points="20.69 20.69 21.69 21.46 23.52 23.52 21.46 21.69 20.69 20.69"/><polygon class="cls-4" points="20.79 20.56 21.96 21.05 24.26 22.57 21.79 21.33 20.79 20.56"/><polygon class="cls-4" points="20.85 20.41 22.1 20.58 24.72 21.45 22.02 20.89 20.85 20.41"/><polygon class="cls-4" points="20.87 20.25 22.13 20.09 24.88 20.25 22.13 20.41 20.87 20.25"/><polygon class="cls-4" points="20.85 20.09 22.02 19.61 24.72 19.05 22.1 19.92 20.85 20.09"/><polygon class="cls-4" points="20.79 19.94 21.79 19.17 24.26 17.93 21.96 19.45 20.79 19.94"/><polygon class="cls-4" points="20.69 19.81 21.46 18.81 23.52 16.98 21.69 19.04 20.69 19.81"/><polygon class="cls-4" points="20.56 19.71 21.05 18.54 22.57 16.24 21.33 18.71 20.56 19.71"/><polygon class="cls-4" points="20.41 19.65 20.58 18.4 21.45 15.78 20.89 18.48 20.41 19.65"/><path class="cls-4" d="M19.88,15.51a.26.26,0,0,1-.22.29.25.25,0,0,1-.28-.22.26.26,0,0,1,.22-.29A.24.24,0,0,1,19.88,15.51Z"/><path class="cls-4" d="M18.67,15.77a.25.25,0,0,1-.14.33.25.25,0,0,1-.19-.47A.25.25,0,0,1,18.67,15.77Z"/><path class="cls-4" d="M17.56,16.33a.26.26,0,0,1,0,.36.26.26,0,0,1-.36-.05.25.25,0,0,1,.05-.36A.25.25,0,0,1,17.56,16.33Z"/><path class="cls-4" d="M16.64,17.16a.26.26,0,0,1,.05.36.26.26,0,0,1-.36,0,.25.25,0,0,1,0-.35A.25.25,0,0,1,16.64,17.16Z"/><path class="cls-4" d="M16,18.2a.25.25,0,0,1,.14.33.25.25,0,1,1-.47-.19A.25.25,0,0,1,16,18.2Z"/><path class="cls-4" d="M15.58,19.38a.25.25,0,0,1,.22.28.26.26,0,0,1-.29.22.24.24,0,0,1-.22-.28A.26.26,0,0,1,15.58,19.38Z"/><path class="cls-4" d="M15.51,20.62a.26.26,0,0,1,.29.22.25.25,0,0,1-.22.28.26.26,0,0,1-.29-.22A.24.24,0,0,1,15.51,20.62Z"/><path class="cls-4" d="M15.77,21.83a.25.25,0,0,1,.33.14.25.25,0,1,1-.47.19A.25.25,0,0,1,15.77,21.83Z"/><path class="cls-4" d="M16.33,22.94a.26.26,0,0,1,.36,0,.26.26,0,0,1-.05.36.25.25,0,0,1-.36-.05A.25.25,0,0,1,16.33,22.94Z"/><path class="cls-4" d="M17.16,23.86a.26.26,0,0,1,.36-.05.26.26,0,0,1,0,.36.25.25,0,0,1-.35,0A.25.25,0,0,1,17.16,23.86Z"/><path class="cls-4" d="M18.2,24.54a.25.25,0,0,1,.33-.14.25.25,0,1,1-.19.47A.25.25,0,0,1,18.2,24.54Z"/><path class="cls-4" d="M19.38,24.92a.25.25,0,0,1,.28-.22.26.26,0,0,1,.22.29.24.24,0,0,1-.28.22A.26.26,0,0,1,19.38,24.92Z"/><path class="cls-4" d="M20.62,25a.26.26,0,0,1,.22-.29.25.25,0,0,1,.28.22.26.26,0,0,1-.22.29A.24.24,0,0,1,20.62,25Z"/><path class="cls-4" d="M21.83,24.73A.25.25,0,0,1,22,24.4a.25.25,0,0,1,.19.47A.25.25,0,0,1,21.83,24.73Z"/><path class="cls-4" d="M22.94,24.17a.26.26,0,0,1,0-.36.26.26,0,0,1,.36.05.25.25,0,0,1-.05.36A.25.25,0,0,1,22.94,24.17Z"/><path class="cls-4" d="M23.86,23.34a.26.26,0,0,1-.05-.36.26.26,0,0,1,.36,0,.25.25,0,0,1,0,.35A.25.25,0,0,1,23.86,23.34Z"/><path class="cls-4" d="M24.54,22.3A.25.25,0,0,1,24.4,22a.25.25,0,0,1,.47.19A.25.25,0,0,1,24.54,22.3Z"/><path class="cls-4" d="M24.92,21.12a.25.25,0,0,1-.22-.28.26.26,0,0,1,.29-.22.24.24,0,0,1,.22.28A.26.26,0,0,1,24.92,21.12Z"/><path class="cls-4" d="M25,19.88a.26.26,0,0,1-.29-.22.25.25,0,0,1,.22-.28.26.26,0,0,1,.29.22A.24.24,0,0,1,25,19.88Z"/><path class="cls-4" d="M24.73,18.67a.25.25,0,0,1-.33-.14.25.25,0,0,1,.47-.19A.25.25,0,0,1,24.73,18.67Z"/><path class="cls-4" d="M24.17,17.56a.26.26,0,0,1-.36,0,.26.26,0,0,1,.05-.36.25.25,0,0,1,.36.05A.25.25,0,0,1,24.17,17.56Z"/><path class="cls-4" d="M23.34,16.64a.26.26,0,0,1-.36.05.26.26,0,0,1,0-.36.25.25,0,0,1,.35,0A.25.25,0,0,1,23.34,16.64Z"/><path class="cls-4" d="M22.3,16a.25.25,0,0,1-.33.14.25.25,0,0,1,.19-.47A.25.25,0,0,1,22.3,16Z"/><path class="cls-4" d="M21.12,15.58a.25.25,0,0,1-.28.22.26.26,0,0,1-.22-.29.24.24,0,0,1,.28-.22A.26.26,0,0,1,21.12,15.58Z"/></g></g></svg>