<svg xmlns="http://www.w3.org/2000/svg" viewBox="0 0 40.5 40.5"><defs><style>.cls-1{fill:#fff;}.cls-2{fill:#da0000;}.cls-3{fill:#239f40;}</style></defs><g id="Ebene_2" data-name="Ebene 2"><g id="Ńëîé_1" data-name="Ńëîé 1"><path class="cls-1" d="M40.5,20.25A20.17,20.17,0,0,1,39.34,27H1.16a20.3,20.3,0,0,1,0-13.5h38.2A20.34,20.34,0,0,1,40.5,20.25Z"/><path class="cls-2" d="M39.34,27l0,.13c-.06.16-.12.32-.19.49s-.1.22-.14.34l-.13.31a2.76,2.76,0,0,1-.18.39,2,2,0,0,1-.09.22,2.79,2.79,0,0,1-.18.34,20.23,20.23,0,0,1-36.28,0,2.79,2.79,0,0,1-.18-.34l-.12-.28a2.41,2.41,0,0,1-.15-.33L1.53,28c0-.12-.1-.23-.14-.34l-.2-.54a.11.11,0,0,1,0-.08Z"/><path class="cls-3" d="M39.35,13.51H1.15s0-.06,0-.1c.09-.27.2-.53.31-.8s.19-.46.3-.69.09-.2.13-.31l.16-.32a20.25,20.25,0,0,1,36.32,0l.16.32c0,.11.09.2.13.31a6.17,6.17,0,0,1,.29.65c.11.27.21.53.31.79A1.31,1.31,0,0,0,39.35,13.51Z"/><path class="cls-1" d="M1.19,13.41v.1h0S1.17,13.45,1.19,13.41Z"/><rect class="cls-1" x="1.5" y="13.18" width="2.84" height="0.33"/><path class="cls-1" d="M2.44,11.29v.32H1.93l.16-.32Z"/><path class="cls-1" d="M4.33,11.29v1.58H2.75v-.61H1.81v.28h.63v.33H1.5v-.26q.14-.34.3-.69h1v-.63h.33v1.25H3.4V11.29h.31v1.25H4V11.29Z"/><rect class="cls-1" x="4.65" y="13.18" width="2.84" height="0.33"/><rect class="cls-1" x="7.8" y="13.18" width="2.84" height="0.33"/><rect class="cls-1" x="4.65" y="11.28" width="4.09" height="0.33"/><rect class="cls-1" x="5.29" y="12.54" width="0.31" height="0.33"/><polygon class="cls-1" points="10.33 11.29 10.33 12.54 10.01 12.54 10.01 11.29 9.7 11.29 9.7 12.54 9.38 12.54 9.38 12.25 9.38 11.93 9.38 11.29 9.06 11.29 9.06 11.93 8.11 11.93 8.09 11.93 7.8 11.93 7.8 12.87 8.09 12.87 8.11 12.87 8.74 12.87 8.74 12.54 8.11 12.54 8.11 12.25 9.06 12.25 9.06 12.87 9.28 12.87 9.38 12.87 9.7 12.87 10.01 12.87 10.33 12.87 10.43 12.87 10.64 12.87 10.64 11.29 10.33 11.29"/><polygon class="cls-1" points="7.16 11.93 6.55 11.93 6.55 12.25 7.16 12.25 7.16 12.54 6.23 12.54 6.23 12.25 6.23 11.93 5.9 11.93 4.98 11.93 4.65 11.93 4.65 12.25 4.65 12.87 4.98 12.87 4.98 12.25 5.9 12.25 5.9 12.54 5.9 12.87 6.23 12.87 7.16 12.87 7.49 12.87 7.49 12.54 7.49 12.25 7.49 11.93 7.16 11.93"/><rect class="cls-1" x="10.95" y="13.18" width="2.84" height="0.33"/><rect class="cls-1" x="14.1" y="13.18" width="2.84" height="0.33"/><rect class="cls-1" x="10.95" y="11.28" width="4.09" height="0.33"/><rect class="cls-1" x="11.59" y="12.54" width="0.31" height="0.33"/><polygon class="cls-1" points="16.63 11.29 16.63 12.54 16.31 12.54 16.31 11.29 16 11.29 16 12.54 15.68 12.54 15.68 12.25 15.68 11.93 15.68 11.29 15.36 11.29 15.36 11.93 14.41 11.93 14.39 11.93 14.1 11.93 14.1 12.87 14.39 12.87 14.41 12.87 15.04 12.87 15.04 12.54 14.41 12.54 14.41 12.25 15.36 12.25 15.36 12.87 15.57 12.87 15.68 12.87 16 12.87 16.31 12.87 16.63 12.87 16.73 12.87 16.94 12.87 16.94 11.29 16.63 11.29"/><polygon class="cls-1" points="13.46 11.93 12.85 11.93 12.85 12.25 13.46 12.25 13.46 12.54 12.53 12.54 12.53 12.25 12.53 11.93 12.2 11.93 11.28 11.93 10.95 11.93 10.95 12.25 10.95 12.87 11.28 12.87 11.28 12.25 12.2 12.25 12.2 12.54 12.2 12.87 12.53 12.87 13.46 12.87 13.79 12.87 13.79 12.54 13.79 12.25 13.79 11.93 13.46 11.93"/><rect class="cls-1" x="17.25" y="13.18" width="2.84" height="0.33"/><rect class="cls-1" x="20.4" y="13.18" width="2.84" height="0.33"/><rect class="cls-1" x="17.25" y="11.28" width="4.09" height="0.33"/><rect class="cls-1" x="17.89" y="12.54" width="0.31" height="0.33"/><polygon class="cls-1" points="22.93 11.29 22.93 12.54 22.61 12.54 22.61 11.29 22.3 11.29 22.3 12.54 21.98 12.54 21.98 12.25 21.98 11.93 21.98 11.29 21.66 11.29 21.66 11.93 20.71 11.93 20.69 11.93 20.4 11.93 20.4 12.87 20.69 12.87 20.71 12.87 21.34 12.87 21.34 12.54 20.71 12.54 20.71 12.25 21.66 12.25 21.66 12.87 21.88 12.87 21.98 12.87 22.3 12.87 22.61 12.87 22.93 12.87 23.03 12.87 23.24 12.87 23.24 11.29 22.93 11.29"/><polygon class="cls-1" points="19.76 11.93 19.16 11.93 19.16 12.25 19.76 12.25 19.76 12.54 18.83 12.54 18.83 12.25 18.83 11.93 18.5 11.93 17.58 11.93 17.25 11.93 17.25 12.25 17.25 12.87 17.58 12.87 17.58 12.25 18.5 12.25 18.5 12.54 18.5 12.87 18.83 12.87 19.76 12.87 20.09 12.87 20.09 12.54 20.09 12.25 20.09 11.93 19.76 11.93"/><rect class="cls-1" x="23.55" y="13.18" width="2.84" height="0.33"/><rect class="cls-1" x="26.7" y="13.18" width="2.84" height="0.33"/><rect class="cls-1" x="23.55" y="11.28" width="4.09" height="0.33"/><rect class="cls-1" x="24.19" y="12.54" width="0.31" height="0.33"/><polygon class="cls-1" points="29.23 11.29 29.23 12.54 28.91 12.54 28.91 11.29 28.6 11.29 28.6 12.54 28.28 12.54 28.28 12.25 28.28 11.93 28.28 11.29 27.96 11.29 27.96 11.93 27.02 11.93 26.99 11.93 26.7 11.93 26.7 12.87 26.99 12.87 27.02 12.87 27.64 12.87 27.64 12.54 27.02 12.54 27.02 12.25 27.96 12.25 27.96 12.87 28.18 12.87 28.28 12.87 28.6 12.87 28.91 12.87 29.23 12.87 29.34 12.87 29.54 12.87 29.54 11.29 29.23 11.29"/><polygon class="cls-1" points="26.07 11.93 25.46 11.93 25.46 12.25 26.07 12.25 26.07 12.54 25.13 12.54 25.13 12.25 25.13 11.93 24.8 11.93 23.88 11.93 23.55 11.93 23.55 12.25 23.55 12.87 23.88 12.87 23.88 12.25 24.8 12.25 24.8 12.54 24.8 12.87 25.13 12.87 26.07 12.87 26.39 12.87 26.39 12.54 26.39 12.25 26.39 11.93 26.07 11.93"/><rect class="cls-1" x="29.86" y="13.18" width="2.84" height="0.33"/><rect class="cls-1" x="33" y="13.18" width="2.84" height="0.33"/><rect class="cls-1" x="29.86" y="11.28" width="4.09" height="0.33"/><rect class="cls-1" x="30.49" y="12.54" width="0.31" height="0.33"/><polygon class="cls-1" points="35.53 11.29 35.53 12.54 35.22 12.54 35.22 11.29 34.9 11.29 34.9 12.54 34.58 12.54 34.58 12.25 34.58 11.93 34.58 11.29 34.26 11.29 34.26 11.93 33.32 11.93 33.29 11.93 33 11.93 33 12.87 33.29 12.87 33.32 12.87 33.94 12.87 33.94 12.54 33.32 12.54 33.32 12.25 34.26 12.25 34.26 12.87 34.48 12.87 34.58 12.87 34.9 12.87 35.22 12.87 35.53 12.87 35.64 12.87 35.84 12.87 35.84 11.29 35.53 11.29"/><polygon class="cls-1" points="32.37 11.93 31.76 11.93 31.76 12.25 32.37 12.25 32.37 12.54 31.43 12.54 31.43 12.25 31.43 11.93 31.1 11.93 30.18 11.93 29.86 11.93 29.86 12.25 29.86 12.87 30.18 12.87 30.18 12.25 31.1 12.25 31.1 12.54 31.1 12.87 31.43 12.87 32.37 12.87 32.69 12.87 32.69 12.54 32.69 12.25 32.69 11.93 32.37 11.93"/><rect class="cls-1" x="36.16" y="13.18" width="2.84" height="0.33"/><path class="cls-1" d="M39.35,13.51H39.3v-.15A1.31,1.31,0,0,0,39.35,13.51Z"/><path class="cls-1" d="M38.57,11.61H36.15v-.32h2.26Z"/><rect class="cls-1" x="36.79" y="12.54" width="0.31" height="0.33"/><path class="cls-1" d="M39,12.57v.3H37.41v-.61h-.93v.61h-.33v-.95h1.58v.62h.93v-.28h-.6v-.34h.64A6.17,6.17,0,0,1,39,12.57Z"/><path class="cls-1" d="M2.44,27.63V28H1.53c0-.12-.1-.23-.14-.34Z"/><path class="cls-1" d="M1.93,28.89h.51v.34H2.11A2.79,2.79,0,0,1,1.93,28.89Z"/><path class="cls-1" d="M4.33,27.63v1.6H2.75v-.62H1.81a2.41,2.41,0,0,1-.15-.33H2.75v-.65h.33v1.26H3.4V27.63h.31v1.26H4V27.63Z"/><rect class="cls-1" x="4.65" y="27.64" width="4.09" height="0.33"/><rect class="cls-1" x="5.29" y="28.89" width="0.31" height="0.33"/><polygon class="cls-1" points="10.33 27.64 10.33 28.89 10.01 28.89 10.01 27.64 9.7 27.64 9.7 28.89 9.38 28.89 9.38 28.61 9.38 28.28 9.38 27.64 9.06 27.64 9.06 28.28 8.11 28.28 8.09 28.28 7.8 28.28 7.8 29.22 8.09 29.22 8.11 29.22 8.74 29.22 8.74 28.89 8.11 28.89 8.11 28.61 9.06 28.61 9.06 29.22 9.28 29.22 9.38 29.22 9.7 29.22 10.01 29.22 10.33 29.22 10.43 29.22 10.64 29.22 10.64 27.64 10.33 27.64"/><polygon class="cls-1" points="7.16 28.28 6.55 28.28 6.55 28.61 7.16 28.61 7.16 28.89 6.23 28.89 6.23 28.61 6.23 28.28 5.9 28.28 4.98 28.28 4.65 28.28 4.65 28.61 4.65 29.22 4.98 29.22 4.98 28.61 5.9 28.61 5.9 28.89 5.9 29.22 6.23 29.22 7.16 29.22 7.49 29.22 7.49 28.89 7.49 28.61 7.49 28.28 7.16 28.28"/><rect class="cls-1" x="10.95" y="27.64" width="4.09" height="0.33"/><rect class="cls-1" x="11.59" y="28.89" width="0.31" height="0.33"/><polygon class="cls-1" points="16.63 27.64 16.63 28.89 16.31 28.89 16.31 27.64 16 27.64 16 28.89 15.68 28.89 15.68 28.61 15.68 28.28 15.68 27.64 15.36 27.64 15.36 28.28 14.41 28.28 14.39 28.28 14.1 28.28 14.1 29.22 14.39 29.22 14.41 29.22 15.04 29.22 15.04 28.89 14.41 28.89 14.41 28.61 15.36 28.61 15.36 29.22 15.57 29.22 15.68 29.22 16 29.22 16.31 29.22 16.63 29.22 16.73 29.22 16.94 29.22 16.94 27.64 16.63 27.64"/><polygon class="cls-1" points="13.46 28.28 12.85 28.28 12.85 28.61 13.46 28.61 13.46 28.89 12.53 28.89 12.53 28.61 12.53 28.28 12.2 28.28 11.28 28.28 10.95 28.28 10.95 28.61 10.95 29.22 11.28 29.22 11.28 28.61 12.2 28.61 12.2 28.89 12.2 29.22 12.53 29.22 13.46 29.22 13.79 29.22 13.79 28.89 13.79 28.61 13.79 28.28 13.46 28.28"/><rect class="cls-1" x="17.25" y="27.64" width="4.09" height="0.33"/><rect class="cls-1" x="17.89" y="28.89" width="0.31" height="0.33"/><polygon class="cls-1" points="22.93 27.64 22.93 28.89 22.61 28.89 22.61 27.64 22.3 27.64 22.3 28.89 21.98 28.89 21.98 28.61 21.98 28.28 21.98 27.64 21.66 27.64 21.66 28.28 20.71 28.28 20.69 28.28 20.4 28.28 20.4 29.22 20.69 29.22 20.71 29.22 21.34 29.22 21.34 28.89 20.71 28.89 20.71 28.61 21.66 28.61 21.66 29.22 21.88 29.22 21.98 29.22 22.3 29.22 22.61 29.22 22.93 29.22 23.03 29.22 23.24 29.22 23.24 27.64 22.93 27.64"/><polygon class="cls-1" points="19.76 28.28 19.16 28.28 19.16 28.61 19.76 28.61 19.76 28.89 18.83 28.89 18.83 28.61 18.83 28.28 18.5 28.28 17.58 28.28 17.25 28.28 17.25 28.61 17.25 29.22 17.58 29.22 17.58 28.61 18.5 28.61 18.5 28.89 18.5 29.22 18.83 29.22 19.76 29.22 20.09 29.22 20.09 28.89 20.09 28.61 20.09 28.28 19.76 28.28"/><rect class="cls-1" x="23.55" y="27.64" width="4.09" height="0.33"/><rect class="cls-1" x="24.19" y="28.89" width="0.31" height="0.33"/><polygon class="cls-1" points="29.23 27.64 29.23 28.89 28.91 28.89 28.91 27.64 28.6 27.64 28.6 28.89 28.28 28.89 28.28 28.61 28.28 28.28 28.28 27.64 27.96 27.64 27.96 28.28 27.02 28.28 26.99 28.28 26.7 28.28 26.7 29.22 26.99 29.22 27.02 29.22 27.64 29.22 27.64 28.89 27.02 28.89 27.02 28.61 27.96 28.61 27.96 29.22 28.18 29.22 28.28 29.22 28.6 29.22 28.91 29.22 29.23 29.22 29.34 29.22 29.54 29.22 29.54 27.64 29.23 27.64"/><polygon class="cls-1" points="26.07 28.28 25.46 28.28 25.46 28.61 26.07 28.61 26.07 28.89 25.13 28.89 25.13 28.61 25.13 28.28 24.8 28.28 23.88 28.28 23.55 28.28 23.55 28.61 23.55 29.22 23.88 29.22 23.88 28.61 24.8 28.61 24.8 28.89 24.8 29.22 25.13 29.22 26.07 29.22 26.39 29.22 26.39 28.89 26.39 28.61 26.39 28.28 26.07 28.28"/><rect class="cls-1" x="29.86" y="27.64" width="4.09" height="0.33"/><rect class="cls-1" x="30.49" y="28.89" width="0.31" height="0.33"/><polygon class="cls-1" points="35.53 27.64 35.53 28.89 35.22 28.89 35.22 27.64 34.9 27.64 34.9 28.89 34.58 28.89 34.58 28.61 34.58 28.28 34.58 27.64 34.26 27.64 34.26 28.28 33.32 28.28 33.29 28.28 33 28.28 33 29.22 33.29 29.22 33.32 29.22 33.94 29.22 33.94 28.89 33.32 28.89 33.32 28.61 34.26 28.61 34.26 29.22 34.48 29.22 34.58 29.22 34.9 29.22 35.22 29.22 35.53 29.22 35.64 29.22 35.84 29.22 35.84 27.64 35.53 27.64"/><polygon class="cls-1" points="32.37 28.28 31.76 28.28 31.76 28.61 32.37 28.61 32.37 28.89 31.43 28.89 31.43 28.61 31.43 28.28 31.1 28.28 30.18 28.28 29.86 28.28 29.86 28.61 29.86 29.22 30.18 29.22 30.18 28.61 31.1 28.61 31.1 28.89 31.1 29.22 31.43 29.22 32.37 29.22 32.69 29.22 32.69 28.89 32.69 28.61 32.69 28.28 32.37 28.28"/><path class="cls-1" d="M39.11,27.63c0,.11-.1.22-.14.34H36.15v-.34Z"/><rect class="cls-1" x="36.79" y="28.89" width="0.31" height="0.33"/><path class="cls-1" d="M37.73,28.89h.84a2.79,2.79,0,0,1-.18.34h-1v-.62h-.93v.62h-.33v-.95h1.58Z"/><path class="cls-1" d="M38.66,28.67v-.06h-.6v-.33h.78A2.76,2.76,0,0,1,38.66,28.67Z"/><path class="cls-1" d="M1.19,27v.08a.11.11,0,0,1,0-.08Z"/><rect class="cls-1" x="1.5" y="27.02" width="2.84" height="0.33"/><rect class="cls-1" x="4.65" y="27.02" width="2.84" height="0.33"/><rect class="cls-1" x="7.8" y="27.02" width="2.84" height="0.33"/><rect class="cls-1" x="10.95" y="27.02" width="2.84" height="0.33"/><rect class="cls-1" x="14.1" y="27.02" width="2.84" height="0.33"/><rect class="cls-1" x="17.25" y="27.02" width="2.84" height="0.33"/><rect class="cls-1" x="20.4" y="27.02" width="2.84" height="0.33"/><rect class="cls-1" x="23.55" y="27.02" width="2.84" height="0.33"/><rect class="cls-1" x="26.7" y="27.02" width="2.84" height="0.33"/><rect class="cls-1" x="29.86" y="27.02" width="2.84" height="0.33"/><rect class="cls-1" x="33" y="27.02" width="2.84" height="0.33"/><rect class="cls-1" x="36.16" y="27.02" width="2.84" height="0.33"/><path class="cls-1" d="M39.34,27l0,.13V27Z"/><path class="cls-2" d="M21.54,15.39a.72.72,0,0,1-1.3.19A.71.71,0,0,1,19,15.39s-.11,1,.62,1a.89.89,0,0,0,.67-.31.88.88,0,0,0,.67.31C21.66,16.35,21.54,15.39,21.54,15.39Z"/><path class="cls-2" d="M20.24,16.29a1.82,1.82,0,0,1-.6.46s.07,6.19.19,8l.41.53.42-.53c.11-1.83.18-8,.18-8A1.82,1.82,0,0,1,20.24,16.29Z"/><path class="cls-2" d="M25.31,20.26a3.89,3.89,0,0,1-2,3.42,5,5,0,0,0-1-7.2A3.87,3.87,0,0,1,25.31,20.26Z"/><path class="cls-2" d="M23.51,20.08a4.63,4.63,0,0,1-6.07,4.4h.3a5,5,0,0,0,4.16-7.91A4.6,4.6,0,0,1,23.51,20.08Z"/><path class="cls-2" d="M15.18,20.26a3.9,3.9,0,0,0,2,3.42,5,5,0,0,1,1-7.2A3.86,3.86,0,0,0,15.18,20.26Z"/><path class="cls-2" d="M17,20.08A4.63,4.63,0,0,0,23,24.48h-.29a5,5,0,0,1-4.17-7.91A4.6,4.6,0,0,0,17,20.08Z"/></g></g></svg>