<svg viewBox="0 0 40.5 40.5" xmlns="http://www.w3.org/2000/svg"><path d="m39.34 13.5h-38.18a20.25 20.25 0 0 1 38.18 0z" fill="#ce1126"/><path d="m40.5 20.25a20 20 0 0 1 -1.16 6.75h-38.18a20.22 20.22 0 0 1 0-13.5h38.18a20 20 0 0 1 1.16 6.75z" fill="#fff"/><path d="m39.34 27a20.25 20.25 0 0 1 -38.18 0z"/><g fill="#007a3d"><path d="m8.61 21.37c.16.2 1.49 2-.36 2.76 0 0 1.06.73 1.76-1h9.83v-2.74a.13.13 0 0 0 0-.06c-.08-.14-.58-.79-1-.79s-.68.19-1.1.79a.11.11 0 0 0 0 .08v.27h-3.6s2.3-2.49 3.11-3.11a1.06 1.06 0 0 1 .37-.07s0 0 0 0l-.55-.79a0 0 0 0 0 0 0l-3.79 3.79v.87h5.29s0-.92.26-.92.18.21.21.92v.26h-6.85v-1.39s0 0 0 0a1 1 0 0 1 -.34.38 1.23 1.23 0 0 1 -.52.25s0 0 0 0a2.38 2.38 0 0 1 .14.37 1.8 1.8 0 0 1 .08.31h-1.84v-.83s0 0 0 0a1.19 1.19 0 0 1 -.37.4 1.48 1.48 0 0 1 -.69.21s-.05.03-.04.04z"/><path d="m11.6 23.86a.37.37 0 0 1 -.37.36.36.36 0 1 1 0-.72.37.37 0 0 1 .37.36z"/><path d="m22.34 21.54c-.2-.43-1 .27-1 .27v-4.14c0-.11.2-.35.27-.44s0 0 0 0l-1.06-.44s0 0 0 0v6.36h2.13a5.79 5.79 0 0 0 0-.6 2.71 2.71 0 0 0 -.34-1.01z"/><path d="m32.13 21.54c-.2-.43-1 .27-1 .27v-4.14c0-.11.2-.35.27-.44a0 0 0 0 0 0 0l-1.06-.44s0 0 0 0v6.36h2.13a5.79 5.79 0 0 0 0-.6 2.92 2.92 0 0 0 -.34-1.01z"/><path d="m29.42 17c-.06.07-.17.22-.29.34a2.46 2.46 0 0 1 -.33.28s0 0 0 0v3.98h-.65v-3.43s0 0 0 0a2.64 2.64 0 0 1 -.27.33 1.33 1.33 0 0 1 -.35.28v2.82h-.63v-2.34s0 0-.05 0a3.29 3.29 0 0 1 -.36.47 3.85 3.85 0 0 1 -.46.37.07.07 0 0 0 0 .11c.07 0 .15.05.15.09v.39a1.39 1.39 0 0 0 -1.58.92v1.53h4.91v-6.14a0 0 0 0 0 -.09 0zm-3.36 4.6s0 .11-.26.11a.33.33 0 0 1 -.27-.11.53.53 0 0 1 0-.12.31.31 0 0 1 .3-.3.29.29 0 0 1 .28.3.25.25 0 0 1 -.05.12z"/><path d="m27.2 16.55a.81.81 0 0 1 -.06.46.82.82 0 0 1 -.23-.4c-.05-.24 0-.44.06-.46s.18.16.23.4z"/><path d="m26 17.51a1 1 0 0 0 1.18-.18s.63.44.91-.37c0 0 .12.5-.17.7a.72.72 0 0 1 -.67 0s-.78.57-1.25-.15z"/></g></svg>