<svg xmlns="http://www.w3.org/2000/svg" viewBox="0 0 40.5 40.5"><defs><style>.cls-1{fill:#02529c;}.cls-2{fill:#fff;}.cls-3{fill:#dc1e35;}</style></defs><g id="Ebene_2" data-name="Ebene 2"><g id="Ńëîé_1" data-name="Ńëîé 1"><path class="cls-1" d="M40.5,20.25a16.68,16.68,0,0,1-.14,2.25A16.45,16.45,0,0,1,40,24.73,20.27,20.27,0,0,1,20.25,40.5h-.7a20.29,20.29,0,0,1-2.23-.21,20,20,0,0,1-4.51-1.2,18.08,18.08,0,0,1-2.23-1A20.29,20.29,0,0,1,.5,24.73,16.45,16.45,0,0,1,.14,22.5a18.15,18.15,0,0,1,0-4.5A16.45,16.45,0,0,1,.5,15.77,20.29,20.29,0,0,1,10.58,2.46a18.08,18.08,0,0,1,2.23-1A20,20,0,0,1,17.32.22,20.29,20.29,0,0,1,19.55,0h.7A20.27,20.27,0,0,1,40,15.77,16.45,16.45,0,0,1,40.36,18,16.68,16.68,0,0,1,40.5,20.25Z"/><path class="cls-2" d="M19.55,0V40.49a20.29,20.29,0,0,1-2.23-.21,20,20,0,0,1-4.51-1.2,18.08,18.08,0,0,1-2.23-1V2.46a18.08,18.08,0,0,1,2.23-1A20,20,0,0,1,17.32.22,20.29,20.29,0,0,1,19.55,0Z"/><path class="cls-2" d="M40.5,20.25a16.68,16.68,0,0,1-.14,2.25A16.45,16.45,0,0,1,40,24.73H.5A16.45,16.45,0,0,1,.14,22.5a18.15,18.15,0,0,1,0-4.5A16.45,16.45,0,0,1,.5,15.77H40A16.45,16.45,0,0,1,40.36,18,16.68,16.68,0,0,1,40.5,20.25Z"/><path class="cls-3" d="M17.32.22V40.28a20,20,0,0,1-4.51-1.2V1.42A20,20,0,0,1,17.32.22Z"/><path class="cls-3" d="M40.5,20.25a16.68,16.68,0,0,1-.14,2.25H.14a18.15,18.15,0,0,1,0-4.5H40.36A16.68,16.68,0,0,1,40.5,20.25Z"/></g></g></svg>