<svg xmlns="http://www.w3.org/2000/svg" viewBox="0 0 40.5 40.5"><defs><style>.cls-1{fill:#fff;}.cls-2{fill:#0038b8;}</style></defs><g id="Ebene_2" data-name="Ebene 2"><g id="Ńëîé_1" data-name="Ńëîé 1"><path class="cls-1" d="M40.5,20.25A20.26,20.26,0,0,1,20.25,40.5,20.25,20.25,0,1,1,40.5,20.25Z"/><path class="cls-2" d="M37.77,10.1h-35A20.23,20.23,0,0,1,8.44,3.81H32.06A20.23,20.23,0,0,1,37.77,10.1Z"/><path class="cls-2" d="M37.77,30.39a20,20,0,0,1-5.69,6.29H8.42a20,20,0,0,1-5.69-6.29Z"/><path class="cls-2" d="M25.31,20.24l-.79-1.41-.46-.78-.48-.81-.81-1.42-2.52-4.37-2.54,4.37-.81,1.42-.47.81-.46.78-.8,1.41-2.55,4.41H27.86Zm-10.26,3L16,21.64l.82-1.4.85-1.47.9-1.53.82-1.42.89-1.54.89,1.54L22,17.24l.88,1.53.85,1.47.83,1.4.91,1.59Z"/><path class="cls-2" d="M25.31,20.24l-.79-1.41-.46-.78-.48-.81-.81-1.42-2.52-4.37-2.54,4.37-.81,1.42-.47.81-.46.78-.8,1.41-2.55,4.41H27.86Zm-10.26,3L16,21.64l.82-1.4.85-1.47.9-1.53.82-1.42.89-1.54.89,1.54L22,17.24l.88,1.53.85,1.47.83,1.4.91,1.59Z"/><path class="cls-2" d="M12.62,15.82l2.55,4.42.8,1.4.46.78.47.81.81,1.42L20.25,29l2.52-4.37.81-1.42.48-.81.46-.78.79-1.4,2.55-4.42Zm11.9,3-.83,1.41-.85,1.48L22,23.23l-.82,1.42-.89,1.54-.89-1.54-.84-1.42-.88-1.51-.85-1.48L16,18.83l-.92-1.59H25.43Z"/></g></g></svg>