<svg viewBox="0 0 40.5 40.5" xmlns="http://www.w3.org/2000/svg"><path d="m40.5 20.25a20.26 20.26 0 0 1 -20.25 20.25 20.25 20.25 0 1 1 20.25-20.25z" fill="#fff"/><g fill="#0038b8"><path d="m37.77 10.1h-35a20.23 20.23 0 0 1 5.67-6.29h23.62a20.23 20.23 0 0 1 5.71 6.29z"/><path d="m37.77 30.39a20 20 0 0 1 -5.69 6.29h-23.66a20 20 0 0 1 -5.69-6.29z"/><path d="m25.31 20.24-.79-1.41-.46-.78-.48-.81-.81-1.42-2.52-4.37-2.54 4.37-.81 1.42-.47.81-.46.78-.8 1.41-2.55 4.41h15.24zm-10.26 3 .95-1.6.82-1.4.85-1.47.9-1.53.82-1.42.89-1.54.89 1.54.83 1.42.88 1.53.85 1.47.83 1.4.91 1.59z"/><path d="m25.31 20.24-.79-1.41-.46-.78-.48-.81-.81-1.42-2.52-4.37-2.54 4.37-.81 1.42-.47.81-.46.78-.8 1.41-2.55 4.41h15.24zm-10.26 3 .95-1.6.82-1.4.85-1.47.9-1.53.82-1.42.89-1.54.89 1.54.83 1.42.88 1.53.85 1.47.83 1.4.91 1.59z"/><path d="m12.62 15.82 2.55 4.42.8 1.4.46.78.47.81.81 1.42 2.54 4.35 2.52-4.37.81-1.42.48-.81.46-.78.79-1.4 2.55-4.42zm11.9 3-.83 1.41-.85 1.48-.84 1.52-.82 1.42-.89 1.54-.89-1.54-.84-1.42-.88-1.51-.85-1.48-.83-1.41-.92-1.59h10.35z"/></g></svg>