<svg xmlns="http://www.w3.org/2000/svg" viewBox="0 0 40.5 40.5"><defs><style>.cls-1{fill:#fed100;}.cls-2{fill:#009b3a;}</style></defs><g id="Ebene_2" data-name="Ebene 2"><g id="Ńëîé_1" data-name="Ńëîé 1"><path class="cls-1" d="M40.5,20.25a20.15,20.15,0,0,1-.88,5.9,19.8,19.8,0,0,1-3,6.07,20.22,20.22,0,0,1-32.64,0A19.8,19.8,0,0,1,.88,26.15a20.22,20.22,0,0,1,0-11.8A19.8,19.8,0,0,1,3.93,8.28a20.22,20.22,0,0,1,32.64,0,19.8,19.8,0,0,1,3,6.07A20.15,20.15,0,0,1,40.5,20.25Z"/><path class="cls-2" d="M36.57,32.22a20.22,20.22,0,0,1-32.64,0l16.32-8.16Z"/><path class="cls-2" d="M36.57,8.28,20.25,16.44,3.93,8.28a20.22,20.22,0,0,1,32.64,0Z"/><path d="M12.68,20.25.88,26.15a20.22,20.22,0,0,1,0-11.8Z"/><path d="M40.5,20.25a20.15,20.15,0,0,1-.88,5.9l-11.8-5.9,11.8-5.9A20.15,20.15,0,0,1,40.5,20.25Z"/></g></g></svg>