<svg viewBox="0 0 40.5 40.5" xmlns="http://www.w3.org/2000/svg"><path d="m40.5 20.25a20.15 20.15 0 0 1 -.88 5.9 19.8 19.8 0 0 1 -3 6.07 20.22 20.22 0 0 1 -32.64 0 19.8 19.8 0 0 1 -3.1-6.07 20.22 20.22 0 0 1 0-11.8 19.8 19.8 0 0 1 3.05-6.07 20.22 20.22 0 0 1 32.64 0 19.8 19.8 0 0 1 3 6.07 20.15 20.15 0 0 1 .93 5.9z" fill="#fed100"/><path d="m36.57 32.22a20.22 20.22 0 0 1 -32.64 0l16.32-8.16z" fill="#009b3a"/><path d="m36.57 8.28-16.32 8.16-16.32-8.16a20.22 20.22 0 0 1 32.64 0z" fill="#009b3a"/><path d="m12.68 20.25-11.8 5.9a20.22 20.22 0 0 1 0-11.8z"/><path d="m40.5 20.25a20.15 20.15 0 0 1 -.88 5.9l-11.8-5.9 11.8-5.9a20.15 20.15 0 0 1 .88 5.9z"/></svg>