<svg xmlns="http://www.w3.org/2000/svg" viewBox="0 0 40.5 40.5"><defs><style>.cls-1{fill:#fff;}.cls-2{fill:#007a3d;}.cls-3{fill:#ce1126;}</style></defs><g id="Ebene_2" data-name="Ebene 2"><g id="Ńëîé_1" data-name="Ńëîé 1"><path d="M39.34,13.5H1.16a16.9,16.9,0,0,1,1-2.31A20.24,20.24,0,0,1,39.34,13.5Z"/><path class="cls-1" d="M40.5,20.25A20,20,0,0,1,39.34,27H1.16a20.22,20.22,0,0,1,0-13.5H39.34A20,20,0,0,1,40.5,20.25Z"/><path class="cls-2" d="M39.34,27A20.24,20.24,0,0,1,2.15,29.31a16.9,16.9,0,0,1-1-2.31Z"/><path class="cls-3" d="M20.25,20.25,6.75,27l-4.6,2.31a16.9,16.9,0,0,1-1-2.31,20.22,20.22,0,0,1,0-13.5,16.9,16.9,0,0,1,1-2.31l4.6,2.31Z"/><polygon class="cls-1" points="5.75 17.52 6.37 19.1 8 18.6 7.15 20.07 8.55 21.03 6.87 21.29 7 22.98 5.75 21.83 4.5 22.98 4.63 21.29 2.95 21.03 4.35 20.07 3.5 18.6 5.13 19.1 5.75 17.52"/></g></g></svg>