<svg viewBox="0 0 40.5 40.5" xmlns="http://www.w3.org/2000/svg"><path d="m39.34 13.5h-38.18a16.9 16.9 0 0 1 1-2.31 20.24 20.24 0 0 1 37.18 2.31z"/><path d="m40.5 20.25a20 20 0 0 1 -1.16 6.75h-38.18a20.22 20.22 0 0 1 0-13.5h38.18a20 20 0 0 1 1.16 6.75z" fill="#fff"/><path d="m39.34 27a20.24 20.24 0 0 1 -37.19 2.31 16.9 16.9 0 0 1 -1-2.31z" fill="#007a3d"/><path d="m20.25 20.25-13.5 6.75-4.6 2.31a16.9 16.9 0 0 1 -1-2.31 20.22 20.22 0 0 1 0-13.5 16.9 16.9 0 0 1 1-2.31l4.6 2.31z" fill="#ce1126"/><path d="m5.75 17.52.62 1.58 1.63-.5-.85 1.47 1.4.96-1.68.26.13 1.69-1.25-1.15-1.25 1.15.13-1.69-1.68-.26 1.4-.96-.85-1.47 1.63.5z" fill="#fff"/></svg>