<svg xmlns="http://www.w3.org/2000/svg" viewBox="0 0 40.5 40.5"><defs><style>.cls-1{fill:#00afca;}.cls-2{fill:#fec50c;}</style></defs><g id="Ebene_2" data-name="Ebene 2"><g id="Ńëîé_1" data-name="Ńëîé 1"><path class="cls-1" d="M40.5,20.25A20.24,20.24,0,0,1,7.61,36.06c-.14-.11-.28-.22-.41-.34L7,35.59c-.06-.06-.13-.11-.19-.18h0l-.12-.11L6.35,35A3.64,3.64,0,0,1,6,34.63a6.88,6.88,0,0,1-.54-.54l-.34-.38-.22-.24c-.08-.1-.16-.18-.24-.27v0l-.22-.25c-.08-.12-.17-.23-.26-.35s0,0,0,0a8.78,8.78,0,0,1-.54-.77,20.22,20.22,0,0,1,0-23.06l.61-.84a.34.34,0,0,0,.06-.06h0a4.13,4.13,0,0,1,.31-.42l0,0c.11-.12.21-.26.32-.38s.14-.15.2-.23.26-.27.38-.4,0,0,0,0,.07-.08.1-.1l.09-.08a4.12,4.12,0,0,1,.35-.37l.38-.35.23-.22.16-.13h0l.37-.3a3,3,0,0,1,.43-.37A20.25,20.25,0,0,1,40.5,20.25Z"/><path class="cls-2" d="M6.67,35.11a.34.34,0,0,1,0,.19l.12.11C6.91,35.07,6.67,35.11,6.67,35.11Zm.17.3c.06.07.13.12.19.18a.17.17,0,0,0,0-.06A.25.25,0,0,0,6.84,35.41ZM7.9,28.93a1.11,1.11,0,0,0-1.12-1.59,1.22,1.22,0,0,0-1.26.78,1.22,1.22,0,0,0-1.25-.78,1.11,1.11,0,0,0-1.12,1.59c.41.9,1.7,3.56,1.7,3.56a2.75,2.75,0,0,1,.32.94.81.81,0,0,1,0,.28l.34.38,0-.06a1.48,1.48,0,0,0,.76.45s0,0,0,0,0,0,0,0a.77.77,0,0,0-.27.08,3.64,3.64,0,0,0,.34.34.37.37,0,0,1,.16,0c.62,0,.7.42.7.61a.86.86,0,0,1,0,.16c.13.12.27.23.41.34l0-.14A.85.85,0,0,0,7.48,35l-.27-.23c.23,0,.4-.13.4-.25s-.17-.22-.4-.26c.08,0,.17-.14.27-.22a.87.87,0,0,0,.17-.94,2.42,2.42,0,0,1,.09-2.2s-.83-.06-.72,1a.27.27,0,0,1-.22,0,.32.32,0,0,0,.11.36.31.31,0,0,1-.24,0s0,.16.24.37c0,0-.82-.11-.85.59a.5.5,0,0,0,.41.54.47.47,0,0,0,.23,0,.27.27,0,0,1,0,.22s.24,0,.16-.3a.28.28,0,0,0,.24-.12s0-.11-.23-.09A.28.28,0,0,0,6.71,33s0,.23,0,.31a.18.18,0,0,1-.3-.15c0-.12.08-.28.35-.28a.49.49,0,0,1,.49.55c0,.21-.08.62-.7.62a.58.58,0,0,1-.65-.64c0-.15,0-.27.34-.94C6.2,32.49,7.48,29.83,7.9,28.93ZM5.71,32.49c-.07.11-.12.25-.19.38l-.19-.38s-1.27-2.67-1.67-3.56a.86.86,0,0,1-.11-.46.68.68,0,0,1,.72-.69.58.58,0,0,1,.6.52c0,.27-.08.31-.35.31s-.17-.45-.17-.45c-.23,0-.27.45-.27.45a.34.34,0,0,0-.33.16c0,.13.33.15.33.15,0,.43.25.46.25.46,0-.4.08-.42.19-.42.62,0,.72-.18.72-.18v1.14c0,.33-.69.18-.69.18,0,.52.72.53.78.53-.6.53.18,1.1.19,1.11a1,1,0,0,0,.42-.68.55.55,0,0,0-.23-.43c.07,0,.77,0,.78-.53,0,0-.68.15-.68-.18V28.78s.08.16.7.18c.12,0,.2,0,.19.42,0,0,.27,0,.27-.46,0,0,.31,0,.31-.15A.31.31,0,0,0,7,28.61s0-.45-.27-.45c0,0,.08.45-.18.45s-.36,0-.36-.31a.6.6,0,0,1,.62-.52.67.67,0,0,1,.7.69.74.74,0,0,1-.1.46C7,29.82,5.71,32.49,5.71,32.49Zm-1.52.09c.09.12.18.23.26.35a.26.26,0,0,1,.22.25v0c.08.09.16.17.24.27a.58.58,0,0,0,.06-.3A.64.64,0,0,0,4.19,32.58Zm-.06-.37a.34.34,0,0,0,.11-.36.29.29,0,0,1-.23,0c.12-1.07-.7-1-.7-1a1.71,1.71,0,0,1,.31.89,8.78,8.78,0,0,0,.54.77c.2-.18.21-.31.21-.34A.32.32,0,0,1,4.13,32.21Z"/><path class="cls-2" d="M7.9,14.64A1.12,1.12,0,0,0,6.78,13a1.24,1.24,0,0,0-1.26.78A1.24,1.24,0,0,0,4.26,13a1.11,1.11,0,0,0-1.12,1.6c.42.89,1.71,3.56,1.71,3.56a2.72,2.72,0,0,1,.32.92.57.57,0,0,1-.64.65c-.62,0-.7-.42-.7-.61a.51.51,0,0,1,.48-.57c.27,0,.36.17.36.29s-.23.2-.3.15,0-.31,0-.31a.28.28,0,0,0-.14.36c-.19,0-.22.1-.22.1a.25.25,0,0,0,.24.12c-.09.34.16.3.16.3a.32.32,0,0,1,0-.22.47.47,0,0,0,.23,0,.47.47,0,0,0,.4-.54c0-.71-.84-.59-.84-.59.26-.2.24-.36.24-.36a.29.29,0,0,1-.24,0,.34.34,0,0,0,.11-.36A.27.27,0,0,1,4,17.6c.11-1.06-.72-1-.72-1a2.39,2.39,0,0,1,.08,2.2.87.87,0,0,0,.18.94,1.44,1.44,0,0,0,.33.25c-.27,0-.46.15-.46.27s.13.19.32.24l-.19.16a.88.88,0,0,0-.18,1,2.37,2.37,0,0,1-.08,2.19s.83.06.72-1a.31.31,0,0,1,.22,0,.32.32,0,0,0-.11-.35.29.29,0,0,1,.24,0s0-.16-.24-.36c0,0,.82.11.84-.59a.47.47,0,0,0-.4-.54.37.37,0,0,0-.23,0,.29.29,0,0,1,0-.21s-.25,0-.16.29A.27.27,0,0,0,4,21.2s0,.11.22.1a.28.28,0,0,0,.14.36s0-.22,0-.3.3-.07.3.14-.09.29-.36.29a.5.5,0,0,1-.48-.56c0-.19.08-.62.7-.62a.58.58,0,0,1,.64.66,2.72,2.72,0,0,1-.32.92s-1.29,2.66-1.71,3.56a1.11,1.11,0,0,0,1.12,1.59,1.23,1.23,0,0,0,1.26-.78,1.23,1.23,0,0,0,1.26.78A1.11,1.11,0,0,0,7.9,25.75L6.19,22.19a2.92,2.92,0,0,1-.33-.92.58.58,0,0,1,.65-.66c.62,0,.69.43.69.62a.49.49,0,0,1-.48.56c-.27,0-.35-.17-.35-.29s.23-.2.3-.14,0,.3,0,.3a.28.28,0,0,0,.14-.36c.19,0,.22-.1.22-.1a.27.27,0,0,0-.24-.12c.09-.33-.16-.29-.16-.29a.27.27,0,0,1,0,.21.34.34,0,0,0-.22,0,.48.48,0,0,0-.41.54c0,.7.85.59.85.59-.26.2-.24.36-.24.36a.29.29,0,0,1,.24,0,.32.32,0,0,0-.11.35.31.31,0,0,1,.22,0c-.11,1.07.71,1,.71,1a2.4,2.4,0,0,1-.07-2.19.88.88,0,0,0-.18-1l-.2-.16c.2,0,.33-.14.33-.24S7.42,20,7.15,20a1.44,1.44,0,0,0,.33-.25.87.87,0,0,0,.18-.94,2.42,2.42,0,0,1,.07-2.2s-.82-.05-.71,1a.27.27,0,0,1-.22-.05.34.34,0,0,0,.11.36.29.29,0,0,1-.24,0s0,.16.24.36c0,0-.82-.12-.85.59a.48.48,0,0,0,.41.54s.17,0,.22,0a.29.29,0,0,1,0,.22s.25,0,.16-.3a.25.25,0,0,0,.24-.12s0-.11-.22-.1a.28.28,0,0,0-.14-.36s0,.23,0,.31-.3.07-.3-.15.08-.29.35-.29a.5.5,0,0,1,.48.57c0,.19-.07.61-.69.61a.58.58,0,0,1-.65-.65,2.92,2.92,0,0,1,.33-.92ZM7.38,25.76a.72.72,0,0,1,.1.45.68.68,0,0,1-.71.7.6.6,0,0,1-.61-.53c0-.26.09-.3.35-.3s.19.45.19.45c.23,0,.27-.45.27-.45a.31.31,0,0,0,.31-.16c0-.14-.31-.16-.31-.16,0-.42-.27-.45-.27-.45,0,.39-.07.41-.19.41-.62,0-.71.18-.71.18V24.77c0-.33.69-.19.69-.19,0-.53-.78-.52-.78-.52.6-.53-.18-1.1-.19-1.11h0s-.79.58-.19,1.11c0,0-.77,0-.78.52,0,0,.69-.14.69.19V25.9s-.09-.16-.72-.18c-.11,0-.2,0-.18-.41,0,0-.27,0-.27.45,0,0-.31,0-.31.16a.31.31,0,0,0,.31.16s0,.45.27.45c0,0-.08-.45.18-.45s.36,0,.36.3a.6.6,0,0,1-.61.53.68.68,0,0,1-.71-.7.72.72,0,0,1,.1-.45c.41-.9,1.67-3.57,1.67-3.57l.19-.37c.07.13.13.26.18.37S7,24.86,7.38,25.76ZM6.29,20.18l0,0a1.43,1.43,0,0,0-.75.44,1.48,1.48,0,0,0-.76-.44,0,0,0,0,0,0,0,1.38,1.38,0,0,0,.77-.45A1.34,1.34,0,0,0,6.29,20.18Zm-.59-2-.18.37-.19-.37s-1.26-2.68-1.67-3.57a.74.74,0,0,1-.1-.46.68.68,0,0,1,.71-.69.59.59,0,0,1,.61.52c0,.26-.09.3-.36.3s-.18-.44-.18-.44c-.23,0-.27.45-.27.45a.31.31,0,0,0-.31.16c0,.14.31.15.31.15,0,.42.27.45.27.45,0-.39.07-.41.18-.41.63,0,.72-.18.72-.18v1.14c0,.33-.69.19-.69.19,0,.53.78.52.78.52-.6.52.18,1.1.19,1.1h0s.79-.58.19-1.1c0,0,.77,0,.78-.52,0,0-.69.14-.69-.19V14.48s.09.16.71.18c.12,0,.21,0,.19.41,0,0,.27,0,.27-.45,0,0,.31,0,.31-.15A.31.31,0,0,0,7,14.31s0-.45-.27-.45c0,0,.08.44-.19.44s-.35,0-.35-.3a.59.59,0,0,1,.61-.52.68.68,0,0,1,.71.69.74.74,0,0,1-.1.46C7,15.52,5.7,18.2,5.7,18.2Z"/><path class="cls-2" d="M4.37,8.17a.44.44,0,0,0-.16-.29l-.61.84a1.63,1.63,0,0,1-.29.77s.82,0,.7-1a.29.29,0,0,1,.23,0,.32.32,0,0,0-.11-.35A.26.26,0,0,1,4.37,8.17ZM4.94,7c-.11.12-.21.26-.32.38l0,0a4.13,4.13,0,0,0-.31.42A.62.62,0,0,0,5,7.22.66.66,0,0,0,4.94,7Zm3,4.46L6.2,7.88c-.3-.66-.34-.77-.34-.91a.58.58,0,0,1,.65-.65c.62,0,.7.42.7.61a.51.51,0,0,1-.49.56c-.27,0-.35-.17-.35-.28s.23-.2.3-.15,0,.31,0,.31A.27.27,0,0,0,6.84,7c.19,0,.23-.11.23-.11a.25.25,0,0,0-.24-.12c.08-.33-.16-.29-.16-.29a.25.25,0,0,1,0,.21.37.37,0,0,0-.23,0,.49.49,0,0,0-.41.54c0,.7.85.58.85.58-.27.21-.24.37-.24.37a.25.25,0,0,1,.24,0,.3.3,0,0,0-.11.35.27.27,0,0,1,.22,0c-.11,1.06.72,1,.72,1A2.4,2.4,0,0,1,7.65,7.3a.86.86,0,0,0-.17-.94,2.19,2.19,0,0,0-.27-.22c.23,0,.4-.15.4-.27s-.17-.21-.4-.25l.27-.22a.87.87,0,0,0,.17-1s0,0,0,0a3,3,0,0,0-.43.37v0c0,.19-.08.61-.7.61H6.45l-.38.35.21.06,0,0s0,0,0,0a1.22,1.22,0,0,0-.56.25l-.09.08s0,.06-.1.1,0,0,0,0-.24.27-.38.4a.56.56,0,0,1,0,.21c0,.14,0,.25-.32.91,0,0-1.29,2.68-1.7,3.57A1.1,1.1,0,0,0,4.27,13a1.22,1.22,0,0,0,1.25-.78A1.22,1.22,0,0,0,6.78,13,1.11,1.11,0,0,0,7.9,11.45ZM6.78,12.61a.6.6,0,0,1-.62-.53c0-.25.09-.29.36-.29s.18.44.18.44c.23,0,.27-.44.27-.44a.31.31,0,0,0,.31-.17c0-.14-.31-.16-.31-.16C7,11,6.7,11,6.7,11c0,.39-.07.4-.19.4-.62,0-.7.18-.7.18V10.46c0-.32.68-.19.68-.19,0-.5-.71-.51-.78-.51.61-.53-.18-1.11-.19-1.11a1,1,0,0,0-.42.67.58.58,0,0,0,.23.44c-.06,0-.77,0-.78.51,0,0,.69-.13.69.19V11.6s-.1-.15-.72-.18c-.11,0-.2,0-.19-.4,0,0-.25,0-.25.44,0,0-.33,0-.33.16a.34.34,0,0,0,.33.17s0,.44.27.44c0,0-.08-.44.17-.44s.35,0,.35.29a.59.59,0,0,1-.6.53.69.69,0,0,1-.72-.7.85.85,0,0,1,.11-.45c.4-.89,1.67-3.58,1.67-3.58s.12-.23.19-.36a3.94,3.94,0,0,0,.19.36S7,10.57,7.38,11.46a.72.72,0,0,1,.1.45A.68.68,0,0,1,6.78,12.61Zm-.1-7.39s0,0,0,0,.17,0,.17-.17Z"/><path class="cls-2" d="M30.34,17a5.48,5.48,0,1,1-5.48-5.48A5.48,5.48,0,0,1,30.34,17Z"/><path class="cls-2" d="M25.3,10.3c0,.55-.41.51-.44.51s-.44,0-.44-.51a7.7,7.7,0,0,1,.44-1.76A7.7,7.7,0,0,1,25.3,10.3Z"/><path class="cls-2" d="M24,10.34c.11.55-.3.59-.33.59s-.42.13-.53-.42a7.55,7.55,0,0,1,.09-1.8A7.87,7.87,0,0,1,24,10.34Z"/><path class="cls-2" d="M22.7,10.64c.21.51-.18.63-.21.65s-.39.2-.6-.31a8,8,0,0,1-.27-1.79A7.63,7.63,0,0,1,22.7,10.64Z"/><path class="cls-2" d="M21.5,11.19c.31.46-.05.65-.08.67s-.34.27-.65-.19a7.6,7.6,0,0,1-.61-1.7A7.51,7.51,0,0,1,21.5,11.19Z"/><path class="cls-2" d="M20.43,12c.39.4.07.66.05.68s-.28.33-.67-.06A7.77,7.77,0,0,1,18.88,11,7.77,7.77,0,0,1,20.43,12Z"/><path class="cls-2" d="M19.53,12.91c.46.31.2.63.19.65s-.21.39-.68.08a7.75,7.75,0,0,1-1.21-1.34A8.17,8.17,0,0,1,19.53,12.91Z"/><path class="cls-2" d="M18.83,14c.52.21.32.58.31.6s-.13.42-.64.21a7.63,7.63,0,0,1-1.45-1.08A7.86,7.86,0,0,1,18.83,14Z"/><path class="cls-2" d="M18.37,15.26c.55.11.43.51.42.53s0,.44-.59.33a8,8,0,0,1-1.64-.77A8.24,8.24,0,0,1,18.37,15.26Z"/><path class="cls-2" d="M18.16,16.56c.55,0,.51.41.51.44s0,.44-.51.44A7.7,7.7,0,0,1,16.4,17,7.7,7.7,0,0,1,18.16,16.56Z"/><path class="cls-2" d="M18.2,17.88c.55-.11.59.3.59.33s.13.42-.42.53a7.65,7.65,0,0,1-1.81-.09A8,8,0,0,1,18.2,17.88Z"/><path class="cls-2" d="M18.5,19.16c.51-.21.63.18.64.21s.21.39-.31.6a7.86,7.86,0,0,1-1.78.27A7.63,7.63,0,0,1,18.5,19.16Z"/><path class="cls-2" d="M19,20.36c.47-.31.66.06.68.08s.27.34-.19.65a7.6,7.6,0,0,1-1.7.61A7.75,7.75,0,0,1,19,20.36Z"/><path class="cls-2" d="M19.81,21.43c.39-.39.65-.07.67-.05s.34.28-.05.67a7.77,7.77,0,0,1-1.55.93A7.77,7.77,0,0,1,19.81,21.43Z"/><path class="cls-2" d="M20.77,22.33c.31-.46.63-.2.65-.18s.39.21.08.67A7.75,7.75,0,0,1,20.16,24,7.6,7.6,0,0,1,20.77,22.33Z"/><path class="cls-2" d="M21.89,23c.21-.52.58-.32.6-.31s.42.13.21.64a7.8,7.8,0,0,1-1.08,1.46A7.92,7.92,0,0,1,21.89,23Z"/><path class="cls-2" d="M23.12,23.49c.11-.54.51-.43.53-.42s.44.05.33.59a7.77,7.77,0,0,1-.77,1.64A7.65,7.65,0,0,1,23.12,23.49Z"/><path class="cls-2" d="M24.42,23.7c0-.55.41-.51.44-.51s.44,0,.44.51a7.7,7.7,0,0,1-.44,1.76A7.7,7.7,0,0,1,24.42,23.7Z"/><path class="cls-2" d="M25.74,23.66c-.11-.54.3-.58.33-.59s.42-.12.53.42a8.24,8.24,0,0,1-.09,1.81A7.77,7.77,0,0,1,25.74,23.66Z"/><path class="cls-2" d="M27,23.36c-.21-.51.18-.63.21-.64s.39-.21.6.31a7.92,7.92,0,0,1,.27,1.79A7.8,7.8,0,0,1,27,23.36Z"/><path class="cls-2" d="M28.22,22.82c-.31-.46.05-.66.08-.67s.34-.28.65.18a7.6,7.6,0,0,1,.61,1.7A7.75,7.75,0,0,1,28.22,22.82Z"/><path class="cls-2" d="M29.29,22.05c-.39-.39-.07-.65-.06-.67s.29-.34.68.05A7.77,7.77,0,0,1,30.84,23,7.77,7.77,0,0,1,29.29,22.05Z"/><path class="cls-2" d="M30.19,21.09c-.46-.31-.2-.63-.19-.65s.21-.39.68-.08a7.75,7.75,0,0,1,1.21,1.34A7.6,7.6,0,0,1,30.19,21.09Z"/><path class="cls-2" d="M30.88,20c-.51-.21-.31-.57-.3-.6s.13-.42.64-.21a7.63,7.63,0,0,1,1.45,1.08A8,8,0,0,1,30.88,20Z"/><path class="cls-2" d="M31.35,18.74c-.55-.11-.43-.5-.42-.53s0-.44.59-.33a8,8,0,0,1,1.64.77A7.65,7.65,0,0,1,31.35,18.74Z"/><path class="cls-2" d="M31.56,17.44c-.55,0-.51-.41-.51-.44s0-.44.51-.44a7.7,7.7,0,0,1,1.76.44A7.7,7.7,0,0,1,31.56,17.44Z"/><path class="cls-2" d="M31.52,16.12c-.55.11-.59-.3-.59-.33s-.13-.42.42-.53a8.24,8.24,0,0,1,1.81.09A8,8,0,0,1,31.52,16.12Z"/><path class="cls-2" d="M31.22,14.84c-.51.21-.63-.18-.64-.21s-.21-.39.3-.6a8,8,0,0,1,1.79-.27A7.63,7.63,0,0,1,31.22,14.84Z"/><path class="cls-2" d="M30.68,13.64c-.47.31-.66-.05-.68-.08s-.27-.34.19-.65a8.17,8.17,0,0,1,1.7-.61A7.75,7.75,0,0,1,30.68,13.64Z"/><path class="cls-2" d="M29.91,12.57c-.39.39-.66.08-.68.06s-.33-.28.06-.68A7.77,7.77,0,0,1,30.84,11,7.77,7.77,0,0,1,29.91,12.57Z"/><path class="cls-2" d="M29,11.67c-.31.46-.63.2-.65.19s-.39-.21-.08-.67A7.51,7.51,0,0,1,29.56,10,7.6,7.6,0,0,1,29,11.67Z"/><path class="cls-2" d="M27.83,11c-.21.51-.58.32-.6.31s-.42-.14-.21-.65A7.63,7.63,0,0,1,28.1,9.19,8,8,0,0,1,27.83,11Z"/><path class="cls-2" d="M26.6,10.51c-.11.55-.51.43-.53.42s-.44,0-.33-.59a7.87,7.87,0,0,1,.77-1.63A8.14,8.14,0,0,1,26.6,10.51Z"/><path class="cls-2" d="M24.63,26.54c.05,0-.12.31-.35.75A2.2,2.2,0,0,0,23,26.82c-.81,0-1.1-.05-1.46-.09s-.62-.1-1.28-.71-1-1-1.44-1A3.7,3.7,0,0,1,17,23.57a7.05,7.05,0,0,0-1.69-1.8c-.06,0-.09,0-.17.16A.1.1,0,0,1,15,22c-.17-.08-.54-.2-.37.08a1.92,1.92,0,0,1,.45.93s0,.06-.06.06h-.41a0,0,0,0,0,0,.07,3.42,3.42,0,0,0,.73.8s0,.06,0,.07l-.35,0s0,0,0,.05a1.89,1.89,0,0,0,1,.57.07.07,0,0,1,0,.05.75.75,0,0,1,0,.28A.07.07,0,0,0,16,25a2,2,0,0,1,.29.15.06.06,0,0,1,0,.09c-.05.05-.15.14-.15.23s.35.19.54.27a.09.09,0,0,1,0,.15l-.17.15a.05.05,0,0,0,0,.09,2,2,0,0,0,.92.33,0,0,0,0,1,0,.05l-.42.27a0,0,0,0,0,0,.05,16.06,16.06,0,0,0,3.15,1.21s0,0,0,0c-.26,0-1.31-.08-4-1.28,0,0,0,0,0-.07l.5-.17s0,0,0,0a4.23,4.23,0,0,1-1.18-.34,0,0,0,0,1,0-.06,2.39,2.39,0,0,1,.57-.21s0,0,0,0A5,5,0,0,1,15,25.66a0,0,0,0,1,0-.08,5.13,5.13,0,0,1,.79-.2,0,0,0,0,0,0-.07,1.1,1.1,0,0,0-.4-.1c-.29,0-1-.13-1.16-.42a0,0,0,0,1,0-.06,5.53,5.53,0,0,0,1.16,0,0,0,0,0,0,0,0c-.35-.15-2.28-1-2.27-1.59a.07.07,0,0,1,.07-.07,1.54,1.54,0,0,1,.69.34.75.75,0,0,0,.52.14,0,0,0,0,0,0-.07,13.06,13.06,0,0,1-2.16-2.22c-.13-.28,0-.63.44-.19a7.72,7.72,0,0,0,1.65,1.42s0,0,0,0c-.33-.37-2.34-2.71-1.83-3,.13-.08.31-.15.58.2a16.05,16.05,0,0,0,1.35,1.74s0,0,0,0c-.13-.27-1.65-3.3-.68-3.49.1,0,.21,0,.28.33a10.25,10.25,0,0,0,.78,2.4s-.35-2,.1-2c.07,0,.16,0,.22.19a11.39,11.39,0,0,0,1.35,3.29,10.43,10.43,0,0,0,2.87,2.83,9.82,9.82,0,0,0,4.65,1.56A2.69,2.69,0,0,1,24.63,26.54Z"/><path class="cls-2" d="M28,29.42a.06.06,0,0,1,0-.08,1,1,0,0,0,.31-.16c0-.05,0-.28.18-.28a26.73,26.73,0,0,1,3.14.15.08.08,0,0,1,.05.07c0,.24-.26,1.08-1.27.39a0,0,0,0,0-.07,0c0,.27,0,1.14-.89.45a.07.07,0,0,0-.11,0c-.11.25-.46,1-.69.31a.06.06,0,0,0-.1,0c-.12.16-.38.53-.55.53s-.3-.17-.36-.27a.06.06,0,0,0-.09,0c-.09.14-.31.45-.47.45s-.24-.26-.29-.4-.1-.06-.12,0-.25.48-.49.5-.31,0-.21-.51c0,0,0-.05-.06,0a2.34,2.34,0,0,1-.69.57c-.15.05-.25.13-.19-.58,0,0,0,0,0,0-.13.17-.51.67-.71.6s-.1-.08-.09-.49c0,0,0-.06-.07,0a2.13,2.13,0,0,1-.92.45c-.15,0-.28,0,.2-.56a2.08,2.08,0,0,1,1.41-.4c1.11,0,2.7.07,3.14-.49C28,29.59,28,29.48,28,29.42Z"/><path class="cls-2" d="M21.41,30a.54.54,0,0,1,.37-.73s.1,0,.13.06a1.19,1.19,0,0,0,.33,0l.06,0c.09.05.36.18.43-.31,0,0,0,0,0,0a5.41,5.41,0,0,0,1-.22s0,.06-.28.28c0,0,0,.05,0,.06l.14.06a1.51,1.51,0,0,0-.25.33,0,0,0,0,0,0,.06.85.85,0,0,0,.63,0h.06a4.74,4.74,0,0,0,1.5.13.59.59,0,0,1,.19,0s0,.05,0,.07,0,0-.21,0a14,14,0,0,0-3.85.19.78.78,0,0,1,.06-.19S21.51,29.85,21.41,30Z"/><path class="cls-2" d="M22.43,29.08c-.14.05-.4.32-.58.17s.2-.38.39-.49A7.88,7.88,0,0,0,23.8,28a12.77,12.77,0,0,0,1.43-1.47.31.31,0,0,1,.13-.06,9.81,9.81,0,0,0,9.12-7.74c.11-.43.78-.27.26,1.76,0,0,.43-.35.85-2.32,0-.13.35-.94.55.07s-1,3.07-1,3.07a11.45,11.45,0,0,0,1.35-1.68c.09-.15.94-.9.58.38a11.36,11.36,0,0,1-1.84,2.43A7.08,7.08,0,0,0,37,20.91c.08-.09.56-.23.33.33a13.78,13.78,0,0,1-2.19,2.21s.23.24,1-.35c.08-.06.6-.26.23.32a7.2,7.2,0,0,1-1.89,1.42s0,.15.71.09c.06,0,.23,0-.07.22a7.69,7.69,0,0,1-1.47.5,0,0,0,0,0,0,.09,5.4,5.4,0,0,0,.62,0c.05,0,.52,0,.05.2a11.16,11.16,0,0,1-1.21.3.06.06,0,0,0,0,.11,2.21,2.21,0,0,0,.53.06s.36,0,0,.15a5.39,5.39,0,0,1-.93.13,1.56,1.56,0,0,0-.4.17,0,0,0,0,0,0,.06,3.33,3.33,0,0,0,.49.22.08.08,0,0,1,0,.13,5.15,5.15,0,0,1-3.19.89A4.66,4.66,0,0,0,32,27.11c.06-.06,0-.17,0-.31a.07.07,0,0,1,0-.09c.17,0,.55-.07.53-.23s0-.05-.13-.13.54-.26.67-.42,0-.08-.06-.12a.07.07,0,0,1,0-.09,5.49,5.49,0,0,1,.75-.42s0-.08-.18-.1,0,0,0-.05.57-.38,1.12-.74c.09-.06,0-.12-.38-.15,0,0,0,0,0-.05s.72-.69.56-.85-.19,0-.56.09c0,0-.05,0,0,0a1.91,1.91,0,0,0,.45-1s0-.07-.08-.08c-.3,0-1.5,0-2.64,2.07a.28.28,0,0,1-.13.11,11.11,11.11,0,0,0-3.27,2.1s-.87.19-1.87.3a3.25,3.25,0,0,0-2.17.89A5.44,5.44,0,0,1,22.43,29.08Z"/><path class="cls-2" d="M22.4,29.1a.09.09,0,1,0,.09.09A.09.09,0,0,0,22.4,29.1Zm0,.13a0,0,0,0,1,0-.08,0,0,0,0,1,0,.08A0,0,0,0,1,22.4,29.23Z"/></g></g></svg>