<svg xmlns="http://www.w3.org/2000/svg" viewBox="0 0 40.5 40.5"><defs><style>.cls-1{fill:red;}.cls-2{fill:#ff0;}</style></defs><g id="Ebene_2" data-name="Ebene 2"><g id="Ńëîé_1" data-name="Ńëîé 1"><circle class="cls-1" cx="20.25" cy="20.25" r="20.25"/><path class="cls-2" d="M30.51,21.85a2.1,2.1,0,0,0,1.84-.45,2.62,2.62,0,0,1-1.55-.19,4.8,4.8,0,0,0-2.28-1h0a3.51,3.51,0,0,1,2.11,0,2.11,2.11,0,0,0,1.75-.74,2.58,2.58,0,0,1-1.56.06,4.67,4.67,0,0,0-2.41-.62h0a3.64,3.64,0,0,1,2.09-.32,2.12,2.12,0,0,0,1.61-1,2.6,2.6,0,0,1-1.53.3,4.66,4.66,0,0,0-2.47-.23h0a3.57,3.57,0,0,1,2-.64c1-.11,1.44-1.24,1.44-1.24a2.59,2.59,0,0,1-1.47.53,4.73,4.73,0,0,0-2.48.16h0a3.58,3.58,0,0,1,1.89-1c.92-.26,1.22-1.45,1.22-1.45a2.6,2.6,0,0,1-1.37.76,4.66,4.66,0,0,0-2.42.55h0a3.54,3.54,0,0,1,1.71-1.24,2.09,2.09,0,0,0,1-1.62s-.62.87-1.23,1a4.75,4.75,0,0,0-2.31.91h0a3.57,3.57,0,0,1,1.5-1.49,2.12,2.12,0,0,0,.71-1.76s-.48.95-1.06,1.15a4.76,4.76,0,0,0-2.14,1.26h0a3.6,3.6,0,0,1,1.24-1.71A2.11,2.11,0,0,0,26.76,10s-.33,1-.87,1.29A4.78,4.78,0,0,0,24,12.87h0a3.59,3.59,0,0,1,1-1.87,2.11,2.11,0,0,0,.14-1.89,2.57,2.57,0,0,1-.66,1.41,4.87,4.87,0,0,0-1.64,1.86h0a3.59,3.59,0,0,1,.67-2,2.13,2.13,0,0,0-.16-1.89,2.65,2.65,0,0,1-.43,1.5,4.67,4.67,0,0,0-1.33,2.1h0A3.66,3.66,0,0,1,21.84,10a2.1,2.1,0,0,0-.45-1.84A2.62,2.62,0,0,1,21.2,9.7a4.76,4.76,0,0,0-1,2.28h0a3.51,3.51,0,0,1,0-2.11,2.11,2.11,0,0,0-.74-1.75,2.58,2.58,0,0,1,.06,1.56,4.76,4.76,0,0,0-.62,2.41h0A3.63,3.63,0,0,1,18.59,10a2.12,2.12,0,0,0-1-1.61,2.6,2.6,0,0,1,.3,1.53,4.69,4.69,0,0,0-.23,2.48h0a3.57,3.57,0,0,1-.64-2C16.9,9.43,15.77,9,15.77,9a2.65,2.65,0,0,1,.54,1.47,4.78,4.78,0,0,0,.15,2.48h0a3.48,3.48,0,0,1-1-1.88c-.26-.93-1.45-1.22-1.45-1.22s.76.74.76,1.36a4.67,4.67,0,0,0,.54,2.42h0a3.58,3.58,0,0,1-1.23-1.72,2.13,2.13,0,0,0-1.62-1s.86.62,1,1.23a4.62,4.62,0,0,0,.92,2.31h0a3.63,3.63,0,0,1-1.49-1.5,2.09,2.09,0,0,0-1.75-.72s.95.48,1.14,1.06a4.73,4.73,0,0,0,1.27,2.14h0a3.56,3.56,0,0,1-1.7-1.25A2.1,2.1,0,0,0,10,13.75s1,.32,1.29.87a4.65,4.65,0,0,0,1.58,1.91h0a3.52,3.52,0,0,1-1.88-1,2.11,2.11,0,0,0-1.88-.13,2.61,2.61,0,0,1,1.41.65,4.7,4.7,0,0,0,1.86,1.65h0a3.59,3.59,0,0,1-2-.67,2.13,2.13,0,0,0-1.89.16,2.65,2.65,0,0,1,1.5.43A4.72,4.72,0,0,0,12.07,19h0A3.55,3.55,0,0,1,10,18.67a2.1,2.1,0,0,0-1.84.45,2.62,2.62,0,0,1,1.55.19,4.8,4.8,0,0,0,2.28,1h0a3.52,3.52,0,0,1-2.11,0A2.11,2.11,0,0,0,8.12,21,2.67,2.67,0,0,1,9.68,21a4.68,4.68,0,0,0,2.41.62h0a3.55,3.55,0,0,1-2.09.32,2.12,2.12,0,0,0-1.61,1,2.6,2.6,0,0,1,1.53-.3,4.58,4.58,0,0,0,2.48.23h0a3.56,3.56,0,0,1-2,.65C9.43,23.62,9,24.74,9,24.74a2.59,2.59,0,0,1,1.47-.53,4.82,4.82,0,0,0,2.49-.16h0A3.56,3.56,0,0,1,11,25c-.93.26-1.23,1.45-1.23,1.45a2.6,2.6,0,0,1,1.37-.76,4.65,4.65,0,0,0,2.43-.55h0a3.52,3.52,0,0,1-1.72,1.25,2.13,2.13,0,0,0-1,1.62s.62-.87,1.23-1a4.68,4.68,0,0,0,2.32-.93,3.51,3.51,0,0,1-1.51,1.5,2.12,2.12,0,0,0-.71,1.76s.48-.95,1.06-1.14A4.85,4.85,0,0,0,15.43,27a3.64,3.64,0,0,1-1.25,1.72,2.11,2.11,0,0,0-.44,1.84s.33-1,.87-1.29a4.75,4.75,0,0,0,1.93-1.6,3.59,3.59,0,0,1-1,1.9,2.11,2.11,0,0,0-.14,1.89A2.59,2.59,0,0,1,16.09,30a4.52,4.52,0,0,0,1.64-1.88,3.6,3.6,0,0,1-.65,2A2.08,2.08,0,0,0,17.23,32a2.65,2.65,0,0,1,.43-1.5A4.75,4.75,0,0,0,19,28.43a3.62,3.62,0,0,1-.34,2.1,2.12,2.12,0,0,0,.45,1.84,2.62,2.62,0,0,1,.19-1.55,4.7,4.7,0,0,0,1-2.29,3.55,3.55,0,0,1,0,2.12A2.11,2.11,0,0,0,21,32.4,2.67,2.67,0,0,1,21,30.84a4.65,4.65,0,0,0,.62-2.42,3.59,3.59,0,0,1,.33,2.1,2.12,2.12,0,0,0,1,1.61,2.6,2.6,0,0,1-.3-1.53,4.73,4.73,0,0,0,.23-2.49,3.52,3.52,0,0,1,.65,2c.11,1,1.24,1.44,1.24,1.44a2.65,2.65,0,0,1-.54-1.47A4.55,4.55,0,0,0,24,27.61a3.61,3.61,0,0,1,1,1.9c.25.92,1.44,1.22,1.44,1.22a2.6,2.6,0,0,1-.76-1.37,4.47,4.47,0,0,0-.55-2.43,3.52,3.52,0,0,1,1.25,1.72,2.09,2.09,0,0,0,1.62,1s-.86-.62-1-1.23a4.83,4.83,0,0,0-.92-2.32,3.57,3.57,0,0,1,1.5,1.51,2.1,2.1,0,0,0,1.75.71s-.95-.48-1.14-1.06A4.59,4.59,0,0,0,27,25.09h0a3.51,3.51,0,0,1,1.72,1.25,2.1,2.1,0,0,0,1.84.43s-1-.32-1.29-.87A4.78,4.78,0,0,0,27.63,24h0a3.59,3.59,0,0,1,1.89,1,2.11,2.11,0,0,0,1.89.14A2.59,2.59,0,0,1,30,24.43a4.74,4.74,0,0,0-1.87-1.65h0a3.58,3.58,0,0,1,2,.66A2.1,2.1,0,0,0,32,23.28a2.57,2.57,0,0,1-1.5-.43,4.62,4.62,0,0,0-2.1-1.33h0A3.58,3.58,0,0,1,30.51,21.85Z"/><path class="cls-1" d="M20.25,12.93a7.31,7.31,0,1,0,7.32,7.31A7.31,7.31,0,0,0,20.25,12.93Zm5,2.91A15,15,0,0,0,22.69,17c-.17-.14-.35-.28-.55-.42a16.72,16.72,0,0,1,2.75-1.17C25,15.57,25.15,15.7,25.27,15.84Zm-.78-.8a15,15,0,0,0-3,1.15c-.2-.14-.42-.26-.63-.39A15.44,15.44,0,0,1,24,14.66,4.7,4.7,0,0,1,24.49,15Zm-4.24,1.9c-.2-.13-.42-.27-.65-.4l.65-.39.65.39C20.67,16.67,20.45,16.81,20.25,16.94Zm.59,1.38c-.21.17-.4.34-.59.51-.19-.17-.38-.34-.59-.51l.59-.49C20.45,18,20.66,18.16,20.84,18.32Zm-1.21-.93-.58.46-.62-.45A5.79,5.79,0,0,1,19,17,6,6,0,0,1,19.63,17.39ZM21.52,17c.19.13.38.28.57.43-.23.15-.44.3-.64.45l-.58-.46A6,6,0,0,1,21.52,17Zm-1.27-3.51a6.31,6.31,0,0,1,3.24.88,12.72,12.72,0,0,0-3.24,1.12A12.72,12.72,0,0,0,17,14.34,6.31,6.31,0,0,1,20.25,13.46Zm-3.74,1.2A15.44,15.44,0,0,1,19.6,15.8c-.21.13-.43.25-.63.39A15,15,0,0,0,16,15,4.7,4.7,0,0,1,16.51,14.66Zm-.9.77a16.72,16.72,0,0,1,2.75,1.17c-.2.14-.38.28-.55.42a15,15,0,0,0-2.58-1.18C15.35,15.7,15.47,15.57,15.61,15.43ZM13.76,20a6.46,6.46,0,0,1,1.1-3.64,14.16,14.16,0,0,1,2.37,1.18,12.61,12.61,0,0,0-3.18,4.4A6.6,6.6,0,0,1,13.76,20Zm1.14,3.69a5.27,5.27,0,0,1-.48-.83,14.32,14.32,0,0,1,3.41-4.93c.22.15.42.3.62.46A13.74,13.74,0,0,0,14.9,23.67Zm.61.77a14.66,14.66,0,0,1,3.55-5.58l.61.55a14.52,14.52,0,0,0-3.46,5.66A7,7,0,0,1,15.51,24.44Zm4.74,2.06A6.57,6.57,0,0,1,17,25.64,14.68,14.68,0,0,1,20.25,20a14.68,14.68,0,0,1,3.23,5.63A6.57,6.57,0,0,1,20.25,26.5Zm4.05-1.43a15.15,15.15,0,0,0-3.46-5.66c.19-.19.38-.36.6-.55A14.68,14.68,0,0,1,25,24.42,6,6,0,0,1,24.3,25.07Zm1.3-1.4a14,14,0,0,0-3.55-5.3c.2-.16.4-.31.62-.46a14.32,14.32,0,0,1,3.41,4.93A5.27,5.27,0,0,1,25.6,23.67Zm-2.33-6.15a14.16,14.16,0,0,1,2.37-1.18A6.46,6.46,0,0,1,26.74,20a6.6,6.6,0,0,1-.29,1.94A12.42,12.42,0,0,0,23.27,17.52Z"/></g></g></svg>