<svg viewBox="0 0 40.5 40.5" xmlns="http://www.w3.org/2000/svg"><circle cx="20.25" cy="20.25" fill="#f00" r="20.25"/><path d="m30.51 21.85a2.1 2.1 0 0 0 1.84-.45 2.62 2.62 0 0 1 -1.55-.19 4.8 4.8 0 0 0 -2.28-1 3.51 3.51 0 0 1 2.11 0 2.11 2.11 0 0 0 1.75-.74 2.58 2.58 0 0 1 -1.56.06 4.67 4.67 0 0 0 -2.41-.62 3.64 3.64 0 0 1 2.09-.32 2.12 2.12 0 0 0 1.61-1 2.6 2.6 0 0 1 -1.53.3 4.66 4.66 0 0 0 -2.47-.23 3.57 3.57 0 0 1 2-.64c1-.11 1.44-1.24 1.44-1.24a2.59 2.59 0 0 1 -1.47.53 4.73 4.73 0 0 0 -2.48.16 3.58 3.58 0 0 1 1.89-1c.92-.26 1.22-1.45 1.22-1.45a2.6 2.6 0 0 1 -1.37.76 4.66 4.66 0 0 0 -2.42.55 3.54 3.54 0 0 1 1.71-1.24 2.09 2.09 0 0 0 1-1.62s-.62.87-1.23 1a4.75 4.75 0 0 0 -2.31.91 3.57 3.57 0 0 1 1.5-1.49 2.12 2.12 0 0 0 .71-1.76s-.48.95-1.06 1.15a4.76 4.76 0 0 0 -2.14 1.26 3.6 3.6 0 0 1 1.24-1.71 2.11 2.11 0 0 0 .42-1.83s-.33 1-.87 1.29a4.78 4.78 0 0 0 -1.89 1.58 3.59 3.59 0 0 1 1-1.87 2.11 2.11 0 0 0 .14-1.89 2.57 2.57 0 0 1 -.66 1.41 4.87 4.87 0 0 0 -1.64 1.86 3.59 3.59 0 0 1 .67-2 2.13 2.13 0 0 0 -.16-1.89 2.65 2.65 0 0 1 -.43 1.5 4.67 4.67 0 0 0 -1.33 2.1 3.66 3.66 0 0 1 .25-2.09 2.1 2.1 0 0 0 -.45-1.84 2.62 2.62 0 0 1 -.19 1.54 4.76 4.76 0 0 0 -1 2.28 3.51 3.51 0 0 1 0-2.11 2.11 2.11 0 0 0 -.74-1.75 2.58 2.58 0 0 1 .06 1.56 4.76 4.76 0 0 0 -.62 2.41 3.63 3.63 0 0 1 -.31-2.09 2.12 2.12 0 0 0 -1-1.61 2.6 2.6 0 0 1 .3 1.53 4.69 4.69 0 0 0 -.23 2.48 3.57 3.57 0 0 1 -.64-2c-.12-.97-1.25-1.4-1.25-1.4a2.65 2.65 0 0 1 .54 1.47 4.78 4.78 0 0 0 .15 2.48 3.48 3.48 0 0 1 -1-1.88c-.26-.93-1.45-1.22-1.45-1.22s.76.74.76 1.36a4.67 4.67 0 0 0 .54 2.42 3.58 3.58 0 0 1 -1.23-1.72 2.13 2.13 0 0 0 -1.62-1s.86.62 1 1.23a4.62 4.62 0 0 0 .92 2.31 3.63 3.63 0 0 1 -1.49-1.5 2.09 2.09 0 0 0 -1.75-.72s.95.48 1.14 1.06a4.73 4.73 0 0 0 1.27 2.14 3.56 3.56 0 0 1 -1.7-1.25 2.1 2.1 0 0 0 -1.85-.43s1 .32 1.29.87a4.65 4.65 0 0 0 1.58 1.91 3.52 3.52 0 0 1 -1.88-1 2.11 2.11 0 0 0 -1.88-.13 2.61 2.61 0 0 1 1.41.65 4.7 4.7 0 0 0 1.86 1.65 3.59 3.59 0 0 1 -2-.67 2.13 2.13 0 0 0 -1.89.16 2.65 2.65 0 0 1 1.5.43 4.72 4.72 0 0 0 2.08 1.38 3.55 3.55 0 0 1 -2.07-.33 2.1 2.1 0 0 0 -1.84.45 2.62 2.62 0 0 1 1.55.19 4.8 4.8 0 0 0 2.28 1 3.52 3.52 0 0 1 -2.11 0 2.11 2.11 0 0 0 -1.76.69 2.67 2.67 0 0 1 1.56 0 4.68 4.68 0 0 0 2.41.62 3.55 3.55 0 0 1 -2.09.32 2.12 2.12 0 0 0 -1.61 1 2.6 2.6 0 0 1 1.53-.3 4.58 4.58 0 0 0 2.48.23 3.56 3.56 0 0 1 -2 .65c-.97.1-1.4 1.22-1.4 1.22a2.59 2.59 0 0 1 1.47-.53 4.82 4.82 0 0 0 2.49-.16 3.56 3.56 0 0 1 -1.96.95c-.93.26-1.23 1.45-1.23 1.45a2.6 2.6 0 0 1 1.37-.76 4.65 4.65 0 0 0 2.43-.55 3.52 3.52 0 0 1 -1.72 1.25 2.13 2.13 0 0 0 -1 1.62s.62-.87 1.23-1a4.68 4.68 0 0 0 2.32-.93 3.51 3.51 0 0 1 -1.51 1.5 2.12 2.12 0 0 0 -.71 1.76s.48-.95 1.06-1.14a4.85 4.85 0 0 0 2.19-1.2 3.64 3.64 0 0 1 -1.25 1.72 2.11 2.11 0 0 0 -.44 1.84s.33-1 .87-1.29a4.75 4.75 0 0 0 1.93-1.6 3.59 3.59 0 0 1 -1 1.9 2.11 2.11 0 0 0 -.14 1.89 2.59 2.59 0 0 1 .69-1.46 4.52 4.52 0 0 0 1.64-1.88 3.6 3.6 0 0 1 -.65 2 2.08 2.08 0 0 0 .15 1.88 2.65 2.65 0 0 1 .43-1.5 4.75 4.75 0 0 0 1.34-2.07 3.62 3.62 0 0 1 -.34 2.1 2.12 2.12 0 0 0 .45 1.84 2.62 2.62 0 0 1 .19-1.55 4.7 4.7 0 0 0 1-2.29 3.55 3.55 0 0 1 0 2.12 2.11 2.11 0 0 0 .7 1.75 2.67 2.67 0 0 1 0-1.56 4.65 4.65 0 0 0 .62-2.42 3.59 3.59 0 0 1 .33 2.1 2.12 2.12 0 0 0 1 1.61 2.6 2.6 0 0 1 -.3-1.53 4.73 4.73 0 0 0 .23-2.49 3.52 3.52 0 0 1 .65 2c.11 1 1.24 1.44 1.24 1.44a2.65 2.65 0 0 1 -.54-1.47 4.55 4.55 0 0 0 -.23-2.47 3.61 3.61 0 0 1 1 1.9c.25.92 1.44 1.22 1.44 1.22a2.6 2.6 0 0 1 -.76-1.37 4.47 4.47 0 0 0 -.55-2.43 3.52 3.52 0 0 1 1.25 1.72 2.09 2.09 0 0 0 1.62 1s-.86-.62-1-1.23a4.83 4.83 0 0 0 -.92-2.32 3.57 3.57 0 0 1 1.5 1.51 2.1 2.1 0 0 0 1.75.71s-.95-.48-1.14-1.06a4.59 4.59 0 0 0 -1.19-2.17 3.51 3.51 0 0 1 1.72 1.25 2.1 2.1 0 0 0 1.84.43s-1-.32-1.29-.87a4.78 4.78 0 0 0 -1.64-1.9 3.59 3.59 0 0 1 1.89 1 2.11 2.11 0 0 0 1.89.14 2.59 2.59 0 0 1 -1.41-.71 4.74 4.74 0 0 0 -1.87-1.65 3.58 3.58 0 0 1 2 .66 2.1 2.1 0 0 0 1.87-.16 2.57 2.57 0 0 1 -1.5-.43 4.62 4.62 0 0 0 -2.1-1.33 3.58 3.58 0 0 1 2.11.33z" fill="#ff0"/><path d="m20.25 12.93a7.31 7.31 0 1 0 7.32 7.31 7.31 7.31 0 0 0 -7.32-7.31zm5 2.91a15 15 0 0 0 -2.56 1.16c-.17-.14-.35-.28-.55-.42a16.72 16.72 0 0 1 2.75-1.17c.11.16.26.29.38.43zm-.78-.8a15 15 0 0 0 -3 1.15c-.2-.14-.42-.26-.63-.39a15.44 15.44 0 0 1 3.16-1.14 4.7 4.7 0 0 1 .49.34zm-4.24 1.9c-.2-.13-.42-.27-.65-.4l.65-.39.65.39c-.21.13-.43.27-.63.4zm.59 1.38c-.21.17-.4.34-.59.51-.19-.17-.38-.34-.59-.51l.59-.49c.22.17.43.33.61.49zm-1.21-.93-.58.46-.62-.45a5.79 5.79 0 0 1 .59-.4 6 6 0 0 1 .63.39zm1.91-.39c.19.13.38.28.57.43-.23.15-.44.3-.64.45l-.58-.46a6 6 0 0 1 .65-.42zm-1.27-3.51a6.31 6.31 0 0 1 3.24.88 12.72 12.72 0 0 0 -3.24 1.12 12.72 12.72 0 0 0 -3.25-1.15 6.31 6.31 0 0 1 3.25-.88zm-3.74 1.2a15.44 15.44 0 0 1 3.09 1.11c-.21.13-.43.25-.63.39a15 15 0 0 0 -2.97-1.19 4.7 4.7 0 0 1 .51-.34zm-.9.77a16.72 16.72 0 0 1 2.75 1.17c-.2.14-.38.28-.55.42a15 15 0 0 0 -2.58-1.18c.12-.17.24-.3.38-.44zm-1.85 4.54a6.46 6.46 0 0 1 1.1-3.64 14.16 14.16 0 0 1 2.37 1.18 12.61 12.61 0 0 0 -3.18 4.4 6.6 6.6 0 0 1 -.29-1.94zm1.14 3.69a5.27 5.27 0 0 1 -.48-.83 14.32 14.32 0 0 1 3.41-4.93c.22.15.42.3.62.46a13.74 13.74 0 0 0 -3.55 5.28zm.61.77a14.66 14.66 0 0 1 3.55-5.58l.61.55a14.52 14.52 0 0 0 -3.46 5.66 7 7 0 0 1 -.7-.65zm4.74 2.06a6.57 6.57 0 0 1 -3.25-.88 14.68 14.68 0 0 1 3.25-5.64 14.68 14.68 0 0 1 3.23 5.63 6.57 6.57 0 0 1 -3.23.87zm4.05-1.43a15.15 15.15 0 0 0 -3.46-5.66c.19-.19.38-.36.6-.55a14.68 14.68 0 0 1 3.56 5.54 6 6 0 0 1 -.7.65zm1.3-1.4a14 14 0 0 0 -3.55-5.3c.2-.16.4-.31.62-.46a14.32 14.32 0 0 1 3.41 4.93 5.27 5.27 0 0 1 -.48.81zm-2.33-6.15a14.16 14.16 0 0 1 2.37-1.18 6.46 6.46 0 0 1 1.1 3.64 6.6 6.6 0 0 1 -.29 1.94 12.42 12.42 0 0 0 -3.18-4.42z" fill="#f00"/></svg>