<svg xmlns="http://www.w3.org/2000/svg" viewBox="0 0 40.5 40.5"><defs><style>.cls-1{fill:#032ea1;}.cls-2{fill:#e00025;}.cls-3{fill:#fff;}</style></defs><g id="Ebene_2" data-name="Ebene 2"><g id="Ńëîé_1" data-name="Ńëîé 1"><path class="cls-1" d="M37.79,10.13H2.71a20.25,20.25,0,0,1,35.08,0Z"/><path class="cls-1" d="M37.77,30.39a20.24,20.24,0,0,1-35,0Z"/><path class="cls-2" d="M40.5,20.25a20.16,20.16,0,0,1-2.73,10.14h-35A20.21,20.21,0,0,1,1.16,13.5a21.93,21.93,0,0,1,1.55-3.37H37.79a21.93,21.93,0,0,1,1.55,3.37A20.19,20.19,0,0,1,40.5,20.25Z"/><rect class="cls-3" x="10.91" y="19.24" width="18.67" height="4.94"/><path d="M29.58,24.22H10.91a0,0,0,0,1,0,0V19.24a0,0,0,0,1,0,0H29.58a0,0,0,0,1,0,0v4.93A0,0,0,0,1,29.58,24.22ZM11,24.13H29.54V19.28H11Z"/><path class="cls-3" d="M20.25,12.61h-.69l0,.27H20.9l0-.27Z"/><path d="M20.9,12.92H19.59s0,0,0,0l0-.27s0,0,0,0l0,0h1.37l0,0s0,0,0,0l0,.27A0,0,0,0,1,20.9,12.92Zm-1.27-.08h1.24l0-.19H19.61Z"/><path class="cls-3" d="M20.25,12.88h-.8l0,.32H21l0-.32Z"/><path d="M21,13.24H19.48s0,0,0,0l0-.31s0,0,0,0h1.65s0,0,0,0l0,.31A0,0,0,0,1,21,13.24Zm-1.49-.08H21l0-.24H19.5Z"/><path class="cls-3" d="M20.25,13.2h-.86l.09.54H21l.09-.54Z"/><path d="M21,13.78H19.48s0,0,0,0l-.09-.54s0,0,0,0h1.77s0,0,0,0l-.09.54S21,13.78,21,13.78Zm-1.49-.08H21l.08-.46H19.44Z"/><path class="cls-3" d="M21.25,13.59a.28.28,0,0,1-.15.15H19.39a.28.28,0,0,1-.15-.15s-.17.15-.07.29.16.09.16.41h1.83a.45.45,0,0,1,.16-.41C21.42,13.74,21.25,13.59,21.25,13.59Z"/><path d="M21.16,14.33H19.33a0,0,0,0,1,0,0c0-.23-.05-.28-.1-.33l-.05-.06a.26.26,0,0,1,.07-.34h0s0,0,0,0,.09.1.12.12h1.69s.11-.06.13-.12,0,0,0,0h0a.26.26,0,0,1,.07.34s0,0-.05.06-.1.1-.1.33A0,0,0,0,1,21.16,14.33Zm-1.79-.08h1.75c0-.24.07-.3.13-.35l0-.05c.05-.06,0-.14,0-.19a.35.35,0,0,1-.14.12H19.38a.3.3,0,0,1-.15-.12c0,.05-.07.13,0,.19l0,.05C19.3,14,19.37,14,19.37,14.25Z"/><path class="cls-3" d="M21.46,14a1.06,1.06,0,0,1-.11.21.15.15,0,0,1-.14.06H19.29a.14.14,0,0,1-.14-.06A1.13,1.13,0,0,1,19,14s-.15.29-.05.45.16.09.13.47h2.28c0-.38.06-.37.13-.47S21.46,14,21.46,14Z"/><path d="M21.39,15H19.11l0,0a0,0,0,0,1,0,0c0-.27,0-.33-.08-.38l0-.06c-.11-.18,0-.48.06-.49s0,0,0,0a0,0,0,0,1,0,0,1.52,1.52,0,0,0,.11.2s.05,0,.11,0h1.92c.06,0,.09,0,.1,0a.84.84,0,0,0,.11-.2,0,0,0,0,1,0,0,0,0,0,0,1,.05,0s.16.31.05.49l-.05.06c-.05,0-.1.11-.07.38,0,0,0,0,0,0Zm-2.24-.09h2.19c0-.27,0-.33.1-.4a.1.1,0,0,0,0-.05.4.4,0,0,0,0-.32l-.08.14a.19.19,0,0,1-.17.07H19.29a.2.2,0,0,1-.18-.07L19,14.12a.4.4,0,0,0,0,.32l0,.05C19.11,14.56,19.17,14.62,19.15,14.89Z"/><path class="cls-3" d="M21.67,14.5a2.12,2.12,0,0,1-.12.41,1.09,1.09,0,0,1-.34,0H19.29a1.13,1.13,0,0,1-.35,0,3.17,3.17,0,0,1-.12-.41,1,1,0,0,0-.05.69c.06.12.16.12.13.57h2.7c0-.45.06-.45.13-.57A1.09,1.09,0,0,0,21.67,14.5Z"/><path d="M21.6,15.8H18.9s0,0,0,0a0,0,0,0,1,0,0c0-.34,0-.41-.08-.48l-.05-.07a1.09,1.09,0,0,1,.06-.73l0,0a0,0,0,0,1,0,0v0a3.57,3.57,0,0,0,.1.35,1.26,1.26,0,0,0,.28,0h2a1.26,1.26,0,0,0,.28,0,2,2,0,0,0,.1-.35v0s0,0,0,0l0,0a1,1,0,0,1,.05.73.18.18,0,0,1-.05.07c-.05.07-.1.14-.07.48v0Zm-2.66-.08h2.61c0-.33,0-.41.1-.49s0,0,0-.06a.77.77,0,0,0,0-.52,1.31,1.31,0,0,1-.09.28s-.1.05-.35.05h-2c-.24,0-.32,0-.34-.05a1.31,1.31,0,0,1-.09-.28.77.77,0,0,0,0,.52l.05.06A.66.66,0,0,1,18.94,15.72Z"/><path class="cls-3" d="M21.92,15.28c0,.48-.32.48-.32.48H18.9s-.3,0-.33-.48a.52.52,0,0,0,0,.7.87.87,0,0,1,.26.67h2.87A.84.84,0,0,1,22,16,.51.51,0,0,0,21.92,15.28Z"/><path d="M21.68,16.69h-2.9a0,0,0,0,1,0,0,.7.7,0,0,0-.2-.57L18.51,16a.57.57,0,0,1,0-.75h.05s0,0,0,0c0,.43.28.44.29.44h2.7s.25,0,.28-.44a0,0,0,0,1,0,0h0A.56.56,0,0,1,22,16l-.06.08a.77.77,0,0,0-.2.57s0,0,0,0S21.7,16.69,21.68,16.69Zm-2.82-.08h2.78a.74.74,0,0,1,.22-.58.35.35,0,0,0,.05-.08.46.46,0,0,0,0-.57c-.06.42-.35.42-.35.42H18.9s-.29,0-.36-.42a.48.48,0,0,0,0,.57l.06.08A.81.81,0,0,1,18.86,16.61Z"/><path class="cls-3" d="M22,16.38c-.07.31-.28.27-.28.27H18.81s-.21,0-.28-.27a.4.4,0,0,0,0,.53c.07.08.23.2.23.35s0,.6,0,.6h3v-.6c0-.15.16-.27.23-.35A.39.39,0,0,0,22,16.38Z"/><path d="M21.73,17.9h-3a0,0,0,0,1,0,0s0-.45,0-.6-.09-.19-.16-.26l-.06-.06a.44.44,0,0,1,0-.59h0s0,0,0,0c.06.26.23.24.23.24h2.89s.17,0,.23-.24t0,0h0a.44.44,0,0,1,0,.59.17.17,0,0,1-.06.06.48.48,0,0,0-.16.26v.6a0,0,0,0,1,0,0Zm-2.93-.08h2.89v-.56a.54.54,0,0,1,.18-.31.17.17,0,0,1,.06-.06.37.37,0,0,0,.05-.42c-.09.23-.27.23-.3.22H18.81s-.21,0-.29-.22a.34.34,0,0,0,.05.42l.05.06a.49.49,0,0,1,.18.31C18.81,17.39,18.8,17.7,18.8,17.82Z"/><path class="cls-3" d="M20.43,13.63c0-.08-.18-.18-.18-.18s-.17.1-.19.18a.42.42,0,0,0-.22-.09v.34l.41.22.41-.22v-.34A.47.47,0,0,0,20.43,13.63Z"/><path d="M20.25,14.14h0l-.41-.21a.08.08,0,0,1,0,0v-.34a0,0,0,0,1,0,0,.44.44,0,0,1,.21.07.58.58,0,0,1,.18-.16h0a1,1,0,0,1,.18.16.4.4,0,0,1,.21-.07,0,0,0,0,1,0,0v.34a.08.08,0,0,1,0,0l-.41.21Zm-.37-.29.37.2.36-.2v-.27a.49.49,0,0,0-.15.09h0a0,0,0,0,1,0,0,.37.37,0,0,0-.14-.14.34.34,0,0,0-.15.14s0,0,0,0h0a.47.47,0,0,0-.16-.09Z"/><path class="cls-3" d="M20.25,17.86a2,2,0,0,0-.71,1.5s-.18-.38-.35-.38v.66h1.06Z"/><path d="M20.25,19.68H19.19a0,0,0,0,1,0,0V19a0,0,0,0,1,0,0c.12,0,.24.16.31.27a2,2,0,0,1,.72-1.38,0,0,0,0,1,.05,0,.05.05,0,0,1,0,0v1.78A0,0,0,0,1,20.25,19.68Zm-1-.09h1V18a1.9,1.9,0,0,0-.63,1.41s0,0,0,0a0,0,0,0,1-.05,0,.77.77,0,0,0-.26-.34Z"/><path d="M22.68,20.23H21.14a0,0,0,0,1-.05,0v-.55a0,0,0,0,1,.05-.05h1.54a0,0,0,0,1,0,.05v.55A0,0,0,0,1,22.68,20.23Zm-1.5-.08h1.46v-.47H21.18Z"/><path class="cls-3" d="M22,17.47s.24-.44.5-.44v.49a.4.4,0,0,0-.12.68v1.44H22Z"/><path d="M22.4,19.68H22a0,0,0,0,1,0,0V17.45s.25-.46.53-.46a0,0,0,0,1,0,0v.49s0,0,0,0a.49.49,0,0,0-.24.29.37.37,0,0,0,.14.32v1.47A0,0,0,0,1,22.4,19.68Zm-.33-.09h.29V18.21a.45.45,0,0,1-.15-.38.51.51,0,0,1,.26-.33v-.42c-.19,0-.37.34-.4.4Z"/><path class="cls-3" d="M30,21.13s0,1.58,0,2.09c0,.17.22.5.43.5h-.71V19l.32-.05s.17-.29.38-.29v1.95S30,20.81,30,21.13Z"/><path d="M30.47,23.77h-.71a0,0,0,0,1,0-.05V19a0,0,0,0,1,0,0l.3,0c0-.07.2-.3.4-.3h0a0,0,0,0,1,0,0v1.95s0,0,0,0-.41.2-.41.49c0,0,0,1.58,0,2.09,0,.16.21.46.39.46a0,0,0,0,1,0,0A0,0,0,0,1,30.47,23.77Zm-.66-.09h.45a.68.68,0,0,1-.27-.46V21.13h0c0-.3.34-.5.43-.55V18.7c-.16,0-.3.27-.3.27s0,0,0,0l-.28,0Z"/><rect class="cls-3" x="22.4" y="18.2" width="0.28" height="1.44"/><path d="M22.68,19.68H22.4a0,0,0,0,1,0,0V18.2s0-.05,0-.05h.28a0,0,0,0,1,0,.05v1.44A0,0,0,0,1,22.68,19.68Zm-.24-.09h.2V18.24h-.2Z"/><path class="cls-3" d="M29.89,23.22V20.64l.06-.19h-.69l-.34.34v2.43a.77.77,0,0,0,.37.5h.86A.7.7,0,0,1,29.89,23.22Z"/><path d="M30.15,23.77h-.88a.77.77,0,0,1-.39-.53h0V20.76l.34-.33,0,0H30a.05.05,0,0,1,0,0,0,0,0,0,1,0,0l-.06.17v2.58a.69.69,0,0,0,.25.47,0,0,0,0,1,0,0A0,0,0,0,1,30.15,23.77Zm-.85-.09h.75a.71.71,0,0,1-.2-.46v-2.6l0-.12h-.62l-.32.31v2.41A.7.7,0,0,0,29.3,23.68Z"/><rect class="cls-3" x="17.81" y="19.64" width="1.54" height="0.55" transform="translate(37.17 39.82) rotate(180)"/><path d="M19.36,20.23H17.81a0,0,0,0,1,0,0v-.55a0,0,0,0,1,0-.05h1.55a0,0,0,0,1,0,.05v.55A0,0,0,0,1,19.36,20.23Zm-1.51-.08h1.47v-.47H17.85Z"/><path d="M21.14,20.06h0s0,0,0,0v-.38a0,0,0,0,1,.05-.05,0,0,0,0,1,0,.05v.29A3.83,3.83,0,0,1,22,19.6s0,0,0,0,0,.05,0,.05a2.72,2.72,0,0,0-.87.37Z"/><path class="cls-3" d="M25.73,23.22V20.71l-.23-.26h.86l.34.34v2.43a.73.73,0,0,1-.37.5h-.86A.7.7,0,0,0,25.73,23.22Z"/><path d="M26.33,23.77h-.86a0,0,0,0,1,0,0,0,0,0,0,1,0,0,.69.69,0,0,0,.25-.47V20.73l-.22-.25a.06.06,0,0,1,0,0,.05.05,0,0,1,0,0h.86l0,0,.34.33a0,0,0,0,1,0,0v2.43h0a.77.77,0,0,1-.39.53Zm-.76-.09h.76a.72.72,0,0,0,.33-.46V20.81l-.31-.31h-.76l.17.18a0,0,0,0,1,0,0v2.51A.66.66,0,0,1,25.57,23.68Z"/><path class="cls-3" d="M22.68,18.2v-.27s.08-.27.25-.27v2.79H21.64s.17-.26.3-.26h.74Z"/><path d="M22.93,20.5H21.64s0,0,0,0a0,0,0,0,1,0,0c0-.05.2-.28.34-.28h.7V17.93h0s.09-.3.29-.3a0,0,0,0,1,0,0v2.79A0,0,0,0,1,22.93,20.5Zm-1.21-.09h1.17v-2.7c-.1,0-.16.2-.17.23v2.25a0,0,0,0,1,0,0h-.74C21.88,20.23,21.79,20.32,21.72,20.41Z"/><path class="cls-3" d="M21,23.22V20.88l.15-.2h-.45v3h.65C21.15,23.72,21,23.22,21,23.22Z"/><path d="M21.34,23.77h-.65a0,0,0,0,1,0-.05v-3a0,0,0,0,1,0,0h.45s0,0,0,0a0,0,0,0,1,0,.05L21,20.9v2.32c.06.18.19.46.31.46a0,0,0,0,1,0,0S21.37,23.77,21.34,23.77Zm-.61-.09h.45a1.32,1.32,0,0,1-.23-.44V20.86l.1-.14h-.32Z"/><path class="cls-3" d="M21.64,20.45v2.77s.17.5.48.5h.94s-.42-.22-.42-.5V20.79l.29-.34Z"/><path d="M23.06,23.77h-.94c-.33,0-.51-.51-.52-.53V20.45a0,0,0,0,1,0,0h1.29s0,0,0,0,0,0,0,0l-.28.33v2.41c0,.25.39.47.4.47a.08.08,0,0,1,0,0S23.07,23.77,23.06,23.77Zm-1.38-.55c0,.05.18.46.44.46h.8a.69.69,0,0,1-.33-.46V20.79l0,0,.23-.26H21.68Z"/><rect class="cls-3" x="21.64" y="21.54" width="0.31" height="1.68"/><path d="M22,23.27h-.31s0,0,0-.05V21.54a0,0,0,0,1,0,0H22a0,0,0,0,1,0,0v1.68A0,0,0,0,1,22,23.27Zm-.27-.09h.23v-1.6h-.23Z"/><rect class="cls-3" x="22.93" y="19.11" width="2.57" height="0.21"/><path d="M25.5,19.35H22.93a0,0,0,0,1,0,0v-.2a0,0,0,0,1,0,0H25.5a0,0,0,0,1,0,0v.2A0,0,0,0,1,25.5,19.35ZM23,19.27h2.49v-.12H23Z"/><rect class="cls-3" x="22.93" y="19.31" width="2.57" height="0.44"/><path d="M25.5,19.8H22.93a0,0,0,0,1,0,0v-.45a0,0,0,0,1,0,0H25.5a0,0,0,0,1,0,0v.45A0,0,0,0,1,25.5,19.8ZM23,19.72h2.49v-.37H23Z"/><rect class="cls-3" x="22.93" y="19.76" width="2.57" height="0.26"/><path d="M25.5,20.06H22.93a0,0,0,0,1,0,0v-.26a0,0,0,0,1,0,0H25.5a0,0,0,0,1,0,0V20A0,0,0,0,1,25.5,20.06ZM23,20h2.49V19.8H23Z"/><rect class="cls-3" x="22.93" y="20.02" width="2.57" height="0.44"/><path d="M25.5,20.5H22.93a0,0,0,0,1,0-.05V20a0,0,0,0,1,0,0H25.5a0,0,0,0,1,0,0v.43A0,0,0,0,1,25.5,20.5ZM23,20.41h2.49v-.35H23Z"/><polygon class="cls-3" points="22.93 20.45 22.71 20.71 25.73 20.71 25.5 20.45 22.93 20.45"/><path d="M25.73,20.75h-3l0,0a0,0,0,0,1,0-.05l.22-.25,0,0H25.5l0,0,.23.25s0,0,0,.05Zm-2.93-.08h2.84l-.16-.17H23Z"/><rect class="cls-3" x="22.64" y="21.24" width="3.1" height="1.98"/><path d="M25.73,23.27H22.64a0,0,0,0,1-.05-.05v-2a0,0,0,0,1,.05,0h3.09a0,0,0,0,1,0,0v2S25.76,23.27,25.73,23.27Zm-3.05-.09h3v-1.9h-3Z"/><rect class="cls-3" x="22.64" y="21.54" width="0.26" height="1.68"/><path d="M22.9,23.27h-.26a0,0,0,0,1-.05-.05V21.54a0,0,0,0,1,.05,0h.26a0,0,0,0,1,0,0v1.68A0,0,0,0,1,22.9,23.27Zm-.22-.09h.18v-1.6h-.18Z"/><rect class="cls-3" x="23.23" y="21.54" width="0.37" height="1.68"/><path d="M23.59,23.27h-.36s0,0,0-.05V21.54a0,0,0,0,1,0,0h.36a0,0,0,0,1,.05,0v1.68A0,0,0,0,1,23.59,23.27Zm-.32-.09h.28v-1.6h-.28Z"/><rect class="cls-3" x="23.98" y="21.54" width="0.37" height="1.68"/><path d="M24.35,23.27H24a0,0,0,0,1,0-.05V21.54a0,0,0,0,1,0,0h.37a0,0,0,0,1,0,0v1.68A0,0,0,0,1,24.35,23.27ZM24,23.18h.29v-1.6H24Z"/><rect class="cls-3" x="24.74" y="21.54" width="0.37" height="1.68"/><path d="M25.11,23.27h-.37a0,0,0,0,1,0-.05V21.54a0,0,0,0,1,0,0h.37a0,0,0,0,1,0,0v1.68A0,0,0,0,1,25.11,23.27Zm-.33-.09h.29v-1.6h-.29Z"/><rect class="cls-3" x="26.04" y="21.54" width="0.37" height="1.68"/><path d="M26.41,23.27H26a0,0,0,0,1,0-.05V21.54a0,0,0,0,1,0,0h.37a0,0,0,0,1,0,0v1.68A0,0,0,0,1,26.41,23.27Zm-.32-.09h.28v-1.6h-.28Z"/><rect class="cls-3" x="29.17" y="21.54" width="0.37" height="1.68"/><path d="M29.53,23.27h-.36s0,0,0-.05V21.54a0,0,0,0,1,0,0h.36a0,0,0,0,1,0,0v1.68A0,0,0,0,1,29.53,23.27Zm-.32-.09h.28v-1.6h-.28Z"/><rect class="cls-3" x="25.5" y="19.11" width="0.7" height="1.35"/><path d="M26.2,20.5h-.7a0,0,0,0,1,0-.05V19.11a0,0,0,0,1,0,0h.7a0,0,0,0,1,0,0v1.34A0,0,0,0,1,26.2,20.5Zm-.66-.09h.62V19.15h-.62Z"/><rect class="cls-3" x="25.47" y="21.54" width="0.27" height="1.68"/><path d="M25.73,23.27h-.26s0,0,0-.05V21.54a0,0,0,0,1,0,0h.26a0,0,0,0,1,0,0v1.68S25.76,23.27,25.73,23.27Zm-.22-.09h.18v-1.6h-.18Z"/><polygon class="cls-3" points="25.5 19.11 25.5 18.96 25.71 18.96 25.71 19.76 25.71 19.91 25.5 19.91 25.5 19.11"/><path d="M25.71,20H25.5a0,0,0,0,1,0,0V19a0,0,0,0,1,0,0h.21a0,0,0,0,1,.05,0v.95A0,0,0,0,1,25.71,20Zm-.17-.08h.13V19h-.13Z"/><path class="cls-3" d="M25.5,19.65s.7.27.7.8h-.7Z"/><path d="M26.2,20.5h-.7a0,0,0,0,1,0-.05v-.8a.05.05,0,0,1,0,0h0s.72.29.72.84A0,0,0,0,1,26.2,20.5Zm-.66-.09h.62c0-.39-.46-.63-.62-.7Z"/><path class="cls-3" d="M29,17.92c-.17,0-.12-.19-.09-.24s.26-.39.08-.69c0,0-.1.2-.25.2s.09-.28.13-.37a.39.39,0,0,0,0-.39s-.07.24-.19.24-.05-.17,0-.22.2-.34,0-.52c0,0-.07.22-.15.22s-.06-.27-.05-.36a.58.58,0,0,0-.41-.63s-.06-.31-.21-.31-.21.31-.21.31a.56.56,0,0,0-.4.63c0,.09,0,.36-.05.36s-.16-.22-.16-.22c-.17.18,0,.4,0,.52s.09.22,0,.22-.19-.24-.19-.24a.39.39,0,0,0,0,.39c.05.09.29.37.14.37s-.25-.2-.25-.2c-.19.3,0,.53.08.69s.08.24-.1.24-.44-.43-.44-.43v3h3.22v-3S29.16,17.92,29,17.92Z"/><path d="M29.42,20.5H26.2a0,0,0,0,1,0-.05v-3s0,0,0,0a.05.05,0,0,1,0,0c.1.16.3.4.41.4s.07,0,.07,0a.16.16,0,0,0,0-.15.16.16,0,0,0,0-.07.61.61,0,0,1,0-.66.05.05,0,0,1,0,0,0,0,0,0,1,0,0s.09.17.22.17h0a.89.89,0,0,0-.13-.22.35.35,0,0,0-.06-.09.42.42,0,0,1,0-.43s0,0,0,0a0,0,0,0,1,0,0c0,.08.09.21.15.21h0s0-.1,0-.16v0c-.06-.13-.18-.36,0-.54h0l0,0c0,.1.09.18.12.18s0,0,0-.3a.58.58,0,0,1,.4-.67c0-.08.09-.32.25-.32s.23.24.25.32a.6.6,0,0,1,.41.67c0,.27,0,.3,0,.31a.39.39,0,0,0,.11-.19l0,0h0c.18.18.07.41,0,.54l0,0c0,.06,0,.13,0,.16h0c.06,0,.12-.13.15-.21a0,0,0,0,1,0,0s0,0,0,0a.42.42,0,0,1,0,.43l-.06.09c0,.06-.13.18-.12.22h0c.12,0,.21-.17.21-.17a0,0,0,0,1,0,0,.05.05,0,0,1,0,0,.59.59,0,0,1,0,.66.43.43,0,0,0,0,.07.19.19,0,0,0,0,.15.1.1,0,0,0,.07,0c.11,0,.31-.24.41-.4l0,0s0,0,0,0v3S29.45,20.5,29.42,20.5Zm-3.18-.09h3.14V17.63c-.09.13-.26.33-.4.33a.16.16,0,0,1-.14-.07c-.05-.07,0-.18,0-.23a.25.25,0,0,1,0-.07.51.51,0,0,0,.07-.51.33.33,0,0,1-.24.16.1.1,0,0,1-.09,0c0-.06,0-.17.13-.31l.06-.08a.38.38,0,0,0,0-.27c0,.08-.1.18-.19.18a.1.1,0,0,1-.09,0c-.05-.08,0-.21,0-.24v0c.05-.1.13-.25.05-.38,0,.07-.09.17-.16.17a.06.06,0,0,1-.06,0c-.05-.05-.06-.16,0-.37A.52.52,0,0,0,28,15.2s0,0,0,0-.07-.28-.17-.28-.16.21-.17.28l0,0a.52.52,0,0,0-.38.59c0,.21,0,.32,0,.37a.05.05,0,0,1-.05,0c-.08,0-.14-.1-.17-.17-.08.13,0,.28.05.38l0,0s.07.16,0,.24a.1.1,0,0,1-.09,0c-.09,0-.15-.1-.19-.18a.32.32,0,0,0,0,.27l.05.08c.1.14.16.25.13.31a.08.08,0,0,1-.08,0,.33.33,0,0,1-.25-.16.53.53,0,0,0,.07.51.25.25,0,0,1,0,.07.23.23,0,0,1,0,.23.16.16,0,0,1-.14.07c-.14,0-.3-.2-.4-.33Z"/><path class="cls-3" d="M28.06,16c0-.15-.25-.26-.25-.26s-.24.11-.24.26a.27.27,0,0,0-.16-.09v.21l.21.17H28l.21-.17v-.21A.24.24,0,0,0,28.06,16Z"/><path d="M28,16.3h-.38s0,0,0,0l-.21-.17s0,0,0,0v-.21a0,0,0,0,1,0,0,.25.25,0,0,1,.13.05.54.54,0,0,1,.25-.22h0a.54.54,0,0,1,.25.22.25.25,0,0,1,.13-.05,0,0,0,0,1,0,0v.21a0,0,0,0,1,0,0l-.22.17S28,16.3,28,16.3Zm-.36-.08H28l.19-.15v-.13a.18.18,0,0,0-.08.06A0,0,0,0,1,28,16s0,0,0,0-.14-.18-.21-.22-.2.13-.2.22,0,0,0,0a0,0,0,0,1,0,0,.18.18,0,0,0-.08-.06v.13ZM28.1,16Z"/><path class="cls-3" d="M28.05,16.4c0-.19-.24-.31-.24-.31s-.24.12-.24.31c0,0-.07-.12-.16-.12v.28l.16.24h.48l.16-.24v-.28C28.12,16.28,28.05,16.4,28.05,16.4Z"/><path d="M28.05,16.84h-.48a.05.05,0,0,1,0,0l-.15-.24s0,0,0,0v-.28a0,0,0,0,1,0,0,.22.22,0,0,1,.14.06.56.56,0,0,1,.24-.25h0a.56.56,0,0,1,.24.25.25.25,0,0,1,.14-.06,0,0,0,0,1,0,0v.3l-.16.24A.05.05,0,0,1,28.05,16.84Zm-.46-.08H28l.14-.21v-.21a.2.2,0,0,0-.08.08l-.05,0s0,0,0,0-.15-.23-.2-.26-.2.13-.2.26,0,0,0,0l0,0a.36.36,0,0,0-.09-.08v.21Zm.5-.36Z"/><path class="cls-3" d="M28.18,16.89c0-.19-.37-.36-.37-.36s-.37.17-.37.36a.29.29,0,0,0-.22-.15v.34l.28.32.31-.06.31.06.29-.32v-.34A.29.29,0,0,0,28.18,16.89Z"/><path d="M28.12,17.44h0l-.31-.05-.3.05a.05.05,0,0,1,0,0l-.28-.31a0,0,0,0,1,0,0v-.34a0,0,0,0,1,0,0,.26.26,0,0,1,.2.1.91.91,0,0,1,.37-.31h0a.91.91,0,0,1,.37.31.26.26,0,0,1,.21-.1,0,0,0,0,1,0,0v.34s0,0,0,0l-.29.31Zm-.86-.37.25.28.29-.05h0l.29.05.25-.28v-.28a.24.24,0,0,0-.14.12,0,0,0,0,1,0,0,0,0,0,0,1,0,0c0-.13-.22-.26-.33-.31s-.33.18-.33.31,0,0,0,0a0,0,0,0,1-.05,0,.24.24,0,0,0-.14-.12Zm1-.18Z"/><path class="cls-3" d="M28.23,17.47c0-.3-.42-.49-.42-.49s-.42.19-.42.49a.45.45,0,0,0-.32-.18v.36s.23.42.37.42l.37,0,.37,0c.14,0,.37-.42.37-.42v-.36A.45.45,0,0,0,28.23,17.47Z"/><path d="M28.18,18.11l-.37,0-.37,0c-.15,0-.36-.37-.4-.44s0,0,0,0v-.36a0,0,0,0,1,0,0,.42.42,0,0,1,.29.13c.07-.27.42-.43.43-.44h0s.36.17.43.44a.42.42,0,0,1,.29-.13,0,0,0,0,1,0,0v.38C28.55,17.74,28.33,18.11,28.18,18.11Zm-.37-.1h.37c.07,0,.22-.19.33-.38v-.31a.38.38,0,0,0-.25.17s0,0,0,0,0,0,0,0c0-.24-.3-.41-.38-.45s-.38.21-.38.45c0,0,0,0,0,0s0,0,0,0a.38.38,0,0,0-.25-.17v.31c.11.19.26.38.33.38Zm.46-.54Z"/><path class="cls-3" d="M21.88,17.44v.42H18.61v-.42s0-.26-.14-.26v2.46H22V17.18C21.89,17.18,21.88,17.44,21.88,17.44Z"/><path d="M22,19.68H18.47a0,0,0,0,1,0,0V17.18a0,0,0,0,1,0,0c.14,0,.18.19.18.3v.38h3.19v-.38h0c0-.11.05-.3.18-.3a0,0,0,0,1,.05,0v2.46A0,0,0,0,1,22,19.68Zm-3.51-.09H22V17.24a.36.36,0,0,0-.06.2v.42a0,0,0,0,1,0,0H18.61a0,0,0,0,1,0,0v-.42s0-.16-.06-.2Z"/><path class="cls-3" d="M28.37,18.42a1.59,1.59,0,0,0-.56-1,1.59,1.59,0,0,0-.56,1s-.18-.35-.43-.35v.6l.57.72.42-.22.42.22.57-.72v-.6C28.55,18.07,28.37,18.42,28.37,18.42Z"/><path d="M27.39,19.43h0l-.57-.72a0,0,0,0,1,0,0v-.6a0,0,0,0,1,0-.05.55.55,0,0,1,.4.27,1.79,1.79,0,0,1,.56-.86h.06a1.79,1.79,0,0,1,.56.86.55.55,0,0,1,.4-.27s0,0,0,.05v.6a0,0,0,0,1,0,0l-.56.72a.07.07,0,0,1-.06,0l-.4-.22-.4.22Zm-.53-.77.54.68.39-.21h0l.39.21.54-.68v-.55c-.2,0-.35.33-.35.33s0,0-.05,0a0,0,0,0,1,0,0,1.48,1.48,0,0,0-.52-.9,1.48,1.48,0,0,0-.52.9s0,0,0,0,0,0-.05,0-.15-.29-.35-.33Zm1.56-.24Z"/><path class="cls-3" d="M28.37,19.31a1.45,1.45,0,0,0-.56-.95,1.45,1.45,0,0,0-.56.95s-.11-.39-.43-.39v.55s.37.52.5.52.49-.06.49-.06.37.06.5.06.49-.52.49-.52v-.55C28.48,18.92,28.37,19.31,28.37,19.31Z"/><path d="M28.31,20a4.92,4.92,0,0,1-.5-.06,4.68,4.68,0,0,1-.49.06c-.14,0-.44-.41-.53-.54s0,0,0,0v-.55a0,0,0,0,1,0,0,.48.48,0,0,1,.41.27,1.5,1.5,0,0,1,.56-.82s0,0,.05,0a1.62,1.62,0,0,1,.56.82.45.45,0,0,1,.4-.27,0,0,0,0,1,0,0v.57C28.75,19.62,28.44,20,28.31,20Zm-.5-.14h0s.37.06.49.06.28-.25.45-.49V19c-.25,0-.35.35-.35.36s0,0-.05,0,0,0,0,0a1.37,1.37,0,0,0-.52-.9,1.37,1.37,0,0,0-.52.9s0,0,0,0,0,0-.05,0-.09-.33-.35-.36v.49c.17.24.39.49.46.49s.48-.06.48-.06Zm.6-.58Z"/><path class="cls-3" d="M27.81,19.27s-.61.4-.61.91a.57.57,0,0,0,.61.5.64.64,0,0,0,.61-.5C28.42,19.67,27.81,19.27,27.81,19.27Z"/><path d="M27.81,20.72a.61.61,0,0,1-.65-.54,1.32,1.32,0,0,1,.63-.94h0a1.32,1.32,0,0,1,.63.94h0A.69.69,0,0,1,27.81,20.72Zm0-1.4c-.11.08-.57.43-.57.86a.51.51,0,0,0,.57.46.59.59,0,0,0,.57-.46C28.38,19.75,27.92,19.4,27.81,19.32Z"/><path class="cls-3" d="M28.24,20.4c0-.34-.43-.76-.43-.76s-.43.42-.43.76c0,0-.27-.38-.56-.38v.68h2V20C28.52,20,28.24,20.4,28.24,20.4Z"/><path d="M28.8,20.74h-2a0,0,0,0,1,0,0V20a0,0,0,0,1,0,0,.8.8,0,0,1,.53.32,1.74,1.74,0,0,1,.43-.69,0,0,0,0,1,.06,0,1.54,1.54,0,0,1,.43.69A.8.8,0,0,1,28.8,20a0,0,0,0,1,0,0v.68A0,0,0,0,1,28.8,20.74Zm-1.94-.08h1.9v-.6a.91.91,0,0,0-.48.37,0,0,0,0,1-.05,0s0,0,0,0a1.35,1.35,0,0,0-.39-.71c-.09.11-.39.44-.39.71,0,0,0,0,0,0s0,0-.05,0a.91.91,0,0,0-.48-.37Zm1.42-.26h0Z"/><rect class="cls-3" x="29.42" y="18.4" width="0.66" height="2.05"/><path d="M30.08,20.5h-.66a0,0,0,0,1,0-.05V18.4a0,0,0,0,1,0,0h.66a0,0,0,0,1,0,0v2.05A0,0,0,0,1,30.08,20.5Zm-.62-.09H30v-2h-.58Z"/><rect class="cls-3" x="29.83" y="18.16" width="0.26" height="1.86"/><path d="M30.08,20.06h-.25a0,0,0,0,1,0,0V18.16s0,0,0,0h.25a0,0,0,0,1,0,0V20A0,0,0,0,1,30.08,20.06ZM29.87,20H30V18.2h-.17Z"/><rect class="cls-3" x="29.42" y="18.4" width="0.4" height="0.31"/><path d="M29.83,18.76h-.41a0,0,0,0,1,0,0V18.4a0,0,0,0,1,0,0h.41a0,0,0,0,1,0,0v.32A0,0,0,0,1,29.83,18.76Zm-.37-.08h.33v-.24h-.33Z"/><path class="cls-3" d="M29.42,20.33a1,1,0,0,1,.66-.66v.78h-.66Z"/><path d="M30.08,20.5h-.66a0,0,0,0,1,0-.05v-.12h0a1,1,0,0,1,.69-.69h0s0,0,0,0v.78A0,0,0,0,1,30.08,20.5Zm-.62-.09H30v-.68a.9.9,0,0,0-.58.6Z"/><path class="cls-3" d="M26.9,20.7l.23.32v2.2a.84.84,0,0,1-.33.5h.58v-3Z"/><path d="M27.38,23.77H26.8a0,0,0,0,1,0,0,0,0,0,0,1,0,0,.86.86,0,0,0,.32-.47V21l-.22-.31a0,0,0,0,1,0,0l0,0h.48a0,0,0,0,1,0,0v3A0,0,0,0,1,27.38,23.77Zm-.47-.09h.43V20.74H27l.18.25a0,0,0,0,1,0,0v2.2h0A.82.82,0,0,1,26.91,23.68Z"/><path class="cls-3" d="M28.8,20.7l-.22.32v2.2a.84.84,0,0,0,.33.5h-.58v-3Z"/><path d="M28.91,23.77h-.58a0,0,0,0,1,0-.05v-3a0,0,0,0,1,0,0h.47a.05.05,0,0,1,0,0s0,0,0,0l-.22.31v2.19a.77.77,0,0,0,.31.47s0,0,0,0S28.93,23.77,28.91,23.77Zm-.54-.09h.43a.82.82,0,0,1-.26-.45h0V21s0,0,0,0l.18-.25h-.35Z"/><path class="cls-3" d="M20.25,12.34h-.44v.27h.87v-.27Z"/><path d="M20.68,12.65h-.87a0,0,0,0,1,0,0v-.27a0,0,0,0,1,0,0h.87a0,0,0,0,1,0,0v.27A0,0,0,0,1,20.68,12.65Zm-.83-.08h.79v-.18h-.79Z"/><path class="cls-3" d="M20.25,11.91s-.22,0-.22.43h.43C20.46,11.91,20.25,11.91,20.25,11.91Z"/><path d="M20.46,12.39H20a0,0,0,0,1,0-.05.53.53,0,0,1,.12-.4.19.19,0,0,1,.14-.07.17.17,0,0,1,.13.07.53.53,0,0,1,.12.4S20.49,12.39,20.46,12.39Zm-.39-.09h.35c0-.34-.17-.35-.17-.35h0S20.08,12,20.07,12.3Z"/><path class="cls-3" d="M10.46,21.13v2.09c0,.17-.22.5-.43.5h.7V19L10.41,19s-.17-.29-.38-.29v1.95S10.46,20.81,10.46,21.13Z"/><path d="M10.73,23.77H10a0,0,0,0,1,0-.05,0,0,0,0,1,0,0c.17,0,.39-.3.39-.46V21.13c0-.29-.4-.48-.4-.49a0,0,0,0,1,0,0V18.66s0,0,0,0h0c.2,0,.36.23.41.3l.29,0a0,0,0,0,1,0,0v4.72A0,0,0,0,1,10.73,23.77Zm-.5-.09h.46V19l-.28,0s0,0,0,0-.14-.23-.3-.27v1.88c.09.05.42.25.42.55h0v2.09A.68.68,0,0,1,10.23,23.68Zm.23-2.55Z"/><path class="cls-3" d="M18.47,17.47S18.24,17,18,17v.49a.4.4,0,0,1,.12.68v1.44h.37Z"/><path d="M18.47,19.68H18.1a0,0,0,0,1,0,0V18.2a0,0,0,0,1,0,0,.39.39,0,0,0,.13-.32.49.49,0,0,0-.24-.29.05.05,0,0,1,0,0V17a0,0,0,0,1,0,0c.28,0,.52.44.52.46s0,0,0,0v2.17A0,0,0,0,1,18.47,19.68Zm-.33-.09h.29V17.48c0-.06-.21-.36-.41-.4v.42a.55.55,0,0,1,.27.33.45.45,0,0,1-.15.38Z"/><path class="cls-3" d="M10.61,23.22V20.64l-.07-.19h.69l.34.34v2.43a.74.74,0,0,1-.36.5h-.87A.7.7,0,0,0,10.61,23.22Z"/><path d="M11.21,23.77h-.87s0,0,0,0a0,0,0,0,1,0,0,.65.65,0,0,0,.25-.47V20.64l-.06-.17a.06.06,0,0,1,0,0l0,0h.69s0,0,0,0l.34.33a0,0,0,0,1,0,0v2.43h0a.77.77,0,0,1-.39.53Zm-.77-.09h.76a.72.72,0,0,0,.33-.46V20.81l-.31-.31H10.6l0,.12v2.6A.67.67,0,0,1,10.44,23.68Z"/><rect class="cls-3" x="17.81" y="18.2" width="0.28" height="1.44"/><path d="M18.1,19.68h-.29a0,0,0,0,1,0,0V18.2a0,0,0,0,1,0-.05h.29a0,0,0,0,1,0,.05v1.44A0,0,0,0,1,18.1,19.68Zm-.25-.09h.21V18.24h-.21Z"/><path class="cls-3" d="M14.76,23.22V20.71l.23-.26h-.86l-.34.34v2.43a.77.77,0,0,0,.37.5H15A.7.7,0,0,1,14.76,23.22Z"/><path d="M15,23.77h-.89a.8.8,0,0,1-.39-.53h0V20.76l.34-.33,0,0H15s0,0,0,0,0,0,0,0l-.22.25v2.49a.69.69,0,0,0,.25.47s0,0,0,0Zm-.86-.09h.75a.71.71,0,0,1-.2-.46V20.71a0,0,0,0,1,0,0l.17-.18h-.75l-.32.31v2.41A.7.7,0,0,0,14.17,23.68Z"/><path d="M19.36,20.06a.05.05,0,0,1,0,0,3.21,3.21,0,0,0-.86-.37,0,0,0,0,1,0-.05,0,0,0,0,1,.05,0,4.48,4.48,0,0,1,.84.33v-.29s0-.05,0-.05a0,0,0,0,1,0,.05V20s0,0,0,0Z"/><path class="cls-3" d="M17.81,18.2v-.27s-.08-.27-.25-.27v2.79h1.3s-.18-.26-.31-.26h-.74Z"/><path d="M18.86,20.5h-1.3a0,0,0,0,1,0-.05V17.66a0,0,0,0,1,0,0c.2,0,.29.29.29.3h0v2.22h.7c.14,0,.31.23.34.28a0,0,0,0,1,0,0A0,0,0,0,1,18.86,20.5Zm-1.26-.09h1.18c-.07-.09-.17-.18-.23-.18h-.74a0,0,0,0,1,0,0V17.94c0-.06-.08-.2-.17-.23Z"/><polygon class="cls-3" points="20.25 20.68 19.8 20.68 19.8 23.72 20.25 23.72 20.69 23.72 20.69 20.68 20.25 20.68"/><path d="M20.69,23.77H19.8a0,0,0,0,1,0-.05v-3a0,0,0,0,1,0,0h.89a0,0,0,0,1,0,0v3A0,0,0,0,1,20.69,23.77Zm-.85-.09h.81v-3h-.81Z"/><path class="cls-3" d="M19.51,23.22V20.88l-.15-.2h.44v3h-.65C19.35,23.72,19.51,23.22,19.51,23.22Z"/><path d="M19.8,23.77h-.65a0,0,0,0,1,0-.05,0,0,0,0,1,0,0c.12,0,.26-.28.32-.46V20.9l-.15-.19s0,0,0-.05l0,0h.44a0,0,0,0,1,0,0v3S19.83,23.77,19.8,23.77Zm-.49-.09h.45v-3h-.32l.1.14v2.38A1.65,1.65,0,0,1,19.31,23.68Zm.2-.46Z"/><path class="cls-3" d="M18.86,20.45v2.77s-.18.5-.49.5h-.93s.41-.22.42-.5V20.79l-.3-.34Z"/><path d="M18.37,23.77h-.93a0,0,0,0,1,0,0s0,0,0,0,.39-.22.4-.47V20.81l-.29-.33a.06.06,0,0,1,0,0,.05.05,0,0,1,0,0h1.3a0,0,0,0,1,0,0v2.79S18.71,23.77,18.37,23.77Zm-.79-.09h.79c.26,0,.42-.41.45-.46V20.5H17.65l.24.26a0,0,0,0,1,0,0v2.43A.65.65,0,0,1,17.58,23.68Z"/><rect class="cls-3" x="18.55" y="21.54" width="0.31" height="1.68" transform="translate(37.4 44.77) rotate(180)"/><path d="M18.86,23.27h-.31s0,0,0-.05V21.54a0,0,0,0,1,0,0h.31a0,0,0,0,1,0,0v1.68A0,0,0,0,1,18.86,23.27Zm-.27-.09h.23v-1.6h-.23Z"/><rect class="cls-3" x="14.99" y="19.11" width="2.57" height="0.21" transform="translate(32.55 38.42) rotate(180)"/><path d="M17.56,19.35H15a0,0,0,0,1,0,0v-.2a0,0,0,0,1,0,0h2.57s0,0,0,0v.2S17.59,19.35,17.56,19.35ZM15,19.27h2.49v-.12H15Z"/><rect class="cls-3" x="14.99" y="19.31" width="2.57" height="0.44" transform="translate(32.55 39.07) rotate(180)"/><path d="M17.56,19.8H15a0,0,0,0,1,0,0v-.45a0,0,0,0,1,0,0h2.57a0,0,0,0,1,0,0v.45A0,0,0,0,1,17.56,19.8ZM15,19.72h2.49v-.37H15Z"/><rect class="cls-3" x="14.99" y="19.76" width="2.57" height="0.26" transform="translate(32.55 39.78) rotate(180)"/><path d="M17.56,20.06H15a0,0,0,0,1,0,0v-.26a0,0,0,0,1,0,0h2.57a0,0,0,0,1,0,0V20A0,0,0,0,1,17.56,20.06ZM15,20h2.49V19.8H15Z"/><rect class="cls-3" x="14.99" y="20.02" width="2.57" height="0.44" transform="translate(32.55 40.47) rotate(180)"/><path d="M17.56,20.5H15a0,0,0,0,1,0-.05V20a0,0,0,0,1,0,0h2.57a0,0,0,0,1,0,0v.43S17.59,20.5,17.56,20.5ZM15,20.41h2.49v-.35H15Z"/><polygon class="cls-3" points="17.56 20.45 17.79 20.71 14.76 20.71 14.99 20.45 17.56 20.45"/><path d="M17.79,20.75h-3l0,0a.07.07,0,0,1,0-.05l.23-.25,0,0h2.57l0,0,.23.25a0,0,0,0,1,0,.05Zm-2.94-.08H17.7l-.16-.17H15Z"/><rect class="cls-3" x="14.76" y="21.24" width="3.1" height="1.98"/><path d="M17.86,23.27h-3.1a0,0,0,0,1,0-.05v-2a0,0,0,0,1,0,0h3.1a0,0,0,0,1,0,0v2A0,0,0,0,1,17.86,23.27Zm-3.06-.09h3v-1.9h-3Z"/><rect class="cls-3" x="17.6" y="21.54" width="0.26" height="1.68" transform="translate(35.45 44.77) rotate(180)"/><path d="M17.86,23.27H17.6a0,0,0,0,1-.05-.05V21.54a0,0,0,0,1,.05,0h.26a0,0,0,0,1,0,0v1.68A0,0,0,0,1,17.86,23.27Zm-.22-.09h.18v-1.6h-.18Z"/><rect class="cls-3" x="16.9" y="21.54" width="0.37" height="1.68" transform="translate(34.17 44.77) rotate(180)"/><path d="M17.27,23.27H16.9a0,0,0,0,1,0-.05V21.54a0,0,0,0,1,0,0h.37a0,0,0,0,1,0,0v1.68A0,0,0,0,1,17.27,23.27Zm-.33-.09h.29v-1.6h-.29Z"/><rect class="cls-3" x="16.14" y="21.54" width="0.37" height="1.68" transform="translate(32.66 44.77) rotate(180)"/><path d="M16.51,23.27h-.37a0,0,0,0,1,0-.05V21.54a0,0,0,0,1,0,0h.37a0,0,0,0,1,0,0v1.68A0,0,0,0,1,16.51,23.27Zm-.32-.09h.28v-1.6h-.28Z"/><rect class="cls-3" x="15.39" y="21.54" width="0.37" height="1.68" transform="translate(31.14 44.77) rotate(180)"/><path d="M15.75,23.27h-.36a0,0,0,0,1-.05-.05V21.54a0,0,0,0,1,.05,0h.36a0,0,0,0,1,.05,0v1.68A0,0,0,0,1,15.75,23.27Zm-.32-.09h.28v-1.6h-.28Z"/><rect class="cls-3" x="14.08" y="21.54" width="0.37" height="1.68" transform="translate(28.53 44.77) rotate(180)"/><path d="M14.45,23.27h-.37a0,0,0,0,1,0-.05V21.54a0,0,0,0,1,0,0h.37a0,0,0,0,1,0,0v1.68A0,0,0,0,1,14.45,23.27Zm-.33-.09h.29v-1.6h-.29Z"/><rect class="cls-3" x="10.96" y="21.54" width="0.37" height="1.68" transform="translate(22.29 44.77) rotate(180)"/><path d="M11.33,23.27H11a0,0,0,0,1,0-.05V21.54a0,0,0,0,1,0,0h.37a0,0,0,0,1,0,0v1.68A0,0,0,0,1,11.33,23.27ZM11,23.18h.29v-1.6H11Z"/><rect class="cls-3" x="14.29" y="19.11" width="0.7" height="1.35" transform="translate(29.29 39.56) rotate(180)"/><path d="M15,20.5h-.7a0,0,0,0,1,0-.05V19.11a0,0,0,0,1,0,0H15a0,0,0,0,1,0,0v1.34A0,0,0,0,1,15,20.5Zm-.65-.09H15V19.15h-.61Z"/><rect class="cls-3" x="14.76" y="21.54" width="0.27" height="1.68" transform="translate(29.79 44.77) rotate(180)"/><path d="M15,23.27h-.27a0,0,0,0,1,0-.05V21.54a0,0,0,0,1,0,0H15a0,0,0,0,1,0,0v1.68A0,0,0,0,1,15,23.27Zm-.23-.09H15v-1.6H14.8Z"/><polygon class="cls-3" points="14.99 19.11 14.99 18.96 14.78 18.96 14.78 19.76 14.78 19.91 14.99 19.91 14.99 19.11"/><path d="M15,20h-.21a0,0,0,0,1,0,0V19a0,0,0,0,1,0,0H15a0,0,0,0,1,0,0v.95A0,0,0,0,1,15,20Zm-.17-.08H15V19h-.13Z"/><path class="cls-3" d="M15,19.65s-.7.27-.7.8H15Z"/><path d="M15,20.5h-.7a0,0,0,0,1,0-.05c0-.55.7-.83.73-.84h0s0,0,0,0v.8A0,0,0,0,1,15,20.5Zm-.65-.09H15v-.7C14.79,19.78,14.37,20,14.34,20.41Z"/><path class="cls-3" d="M11.51,17.92c.18,0,.13-.19.1-.24s-.27-.39-.08-.69c0,0,.09.2.25.2s-.09-.28-.14-.37a.42.42,0,0,1,0-.39s.08.24.19.24.05-.17,0-.22-.19-.34,0-.52c0,0,.07.22.16.22s.06-.27.05-.36a.56.56,0,0,1,.4-.63s.06-.31.21-.31.21.31.21.31a.56.56,0,0,1,.41.63c0,.09,0,.36,0,.36s.15-.22.15-.22c.18.18,0,.4,0,.52s-.08.22,0,.22.19-.24.19-.24a.37.37,0,0,1,0,.39c0,.09-.29.37-.13.37s.25-.2.25-.2c.18.3,0,.53-.08.69s-.08.24.09.24.44-.43.44-.43v3H11.07v-3S11.34,17.92,11.51,17.92Z"/><path d="M14.29,20.5H11.07a0,0,0,0,1,0-.05v-3s0,0,0,0l0,0c.09.16.29.4.4.4a.15.15,0,0,0,.08,0,.19.19,0,0,0,0-.15.16.16,0,0,0,0-.07.61.61,0,0,1,0-.66l0,0s0,0,0,0,.08.17.21.17h0a1.24,1.24,0,0,0-.12-.22l-.06-.09a.44.44,0,0,1,0-.43s0,0,0,0a0,0,0,0,1,0,0c0,.08.1.21.15.21h0s0-.1,0-.16v0c-.06-.13-.18-.36,0-.54h0l0,0c0,.1.09.18.12.18s0,0,0-.3a.59.59,0,0,1,.41-.67c0-.08.08-.32.24-.32s.23.24.25.32a.6.6,0,0,1,.41.67c0,.27,0,.3,0,.31a.32.32,0,0,0,.11-.19l0,0h0c.18.18.07.41,0,.54l0,0a.26.26,0,0,0,0,.16h0c.06,0,.12-.13.15-.21s0,0,0,0a0,0,0,0,1,0,0,.44.44,0,0,1,0,.43l-.06.09c0,.06-.13.18-.12.22h0c.12,0,.21-.17.21-.17s0,0,0,0a.05.05,0,0,1,0,0,.57.57,0,0,1,0,.66l0,.07a.25.25,0,0,0,0,.15.1.1,0,0,0,.07,0c.12,0,.31-.24.41-.4l.05,0s0,0,0,0v3A0,0,0,0,1,14.29,20.5Zm-3.18-.09h3.14V17.63c-.09.13-.26.33-.4.33a.16.16,0,0,1-.14-.07c-.05-.07,0-.18,0-.23l0-.07a.53.53,0,0,0,.08-.51.37.37,0,0,1-.25.16.11.11,0,0,1-.09,0c0-.06,0-.17.13-.31a.33.33,0,0,0,.06-.08.38.38,0,0,0,0-.27c0,.08-.1.18-.19.18a.1.1,0,0,1-.09,0c-.05-.08,0-.21,0-.24v0a.4.4,0,0,0,.06-.38c0,.07-.09.17-.17.17a.09.09,0,0,1-.06,0c0-.05,0-.16,0-.37a.52.52,0,0,0-.38-.59l0,0c0-.07-.07-.28-.17-.28s-.15.21-.17.28l0,0a.52.52,0,0,0-.38.59c0,.21,0,.32,0,.37a.09.09,0,0,1-.06,0c-.08,0-.14-.1-.17-.17-.08.13,0,.28.05.38l0,0s.07.16,0,.24a.1.1,0,0,1-.09,0c-.09,0-.15-.1-.19-.18a.32.32,0,0,0,0,.27l.05.08c.1.14.16.25.13.31a.08.08,0,0,1-.08,0,.35.35,0,0,1-.25-.16.51.51,0,0,0,.08.51l0,.07a.26.26,0,0,1,0,.23.16.16,0,0,1-.15.07c-.13,0-.3-.2-.4-.33Z"/><path class="cls-3" d="M12.44,16c0-.15.24-.26.24-.26s.25.11.25.26a.24.24,0,0,1,.15-.09v.21l-.21.17h-.38l-.21-.17v-.21A.27.27,0,0,1,12.44,16Z"/><path d="M12.87,16.3h-.4l-.21-.17s0,0,0,0v-.21a0,0,0,0,1,0,0,.25.25,0,0,1,.13.05.55.55,0,0,1,.26-.22h0a.5.5,0,0,1,.25.22.29.29,0,0,1,.13-.05,0,0,0,0,1,0,0v.21a0,0,0,0,1,0,0l-.21.17Zm-.36-.08h.35l.18-.15v-.13A.28.28,0,0,0,13,16a0,0,0,0,1-.05,0s0,0,0,0-.14-.18-.21-.22-.2.13-.2.22,0,0,0,0,0,0,0,0h0s-.05-.05-.09-.06v.13Z"/><path class="cls-3" d="M12.44,16.4c0-.19.24-.31.24-.31s.24.12.24.31c0,0,.07-.12.16-.12v.28l-.15.24h-.49l-.16-.24v-.28C12.37,16.28,12.44,16.4,12.44,16.4Z"/><path d="M12.93,16.84h-.49a.05.05,0,0,1,0,0l-.15-.24s0,0,0,0v-.28a0,0,0,0,1,0,0,.22.22,0,0,1,.14.06.61.61,0,0,1,.24-.25h0a.62.62,0,0,1,.25.25.2.2,0,0,1,.13-.06,0,0,0,0,1,0,0v.3l-.16.24Zm-.47-.08h.44l.14-.21v-.21a.2.2,0,0,0-.08.08l-.05,0s0,0,0,0-.14-.23-.2-.26-.2.13-.2.26,0,0,0,0l0,0a.24.24,0,0,0-.09-.08v.21Z"/><path class="cls-3" d="M12.31,16.89c0-.19.37-.36.37-.36s.37.17.37.36a.29.29,0,0,1,.23-.15v.34L13,17.4l-.31-.06-.31.06-.28-.32v-.34A.29.29,0,0,1,12.31,16.89Z"/><path d="M13,17.44h0l-.31-.05-.3.05a.05.05,0,0,1,0,0l-.28-.31a0,0,0,0,1,0,0v-.34a0,0,0,0,1,0,0,.26.26,0,0,1,.2.1.87.87,0,0,1,.38-.31h0a.91.91,0,0,1,.37.31.28.28,0,0,1,.21-.1,0,0,0,0,1,0,0v.34s0,0,0,0l-.29.31S13,17.44,13,17.44Zm-.31-.14h0l.29.05.26-.28v-.28a.24.24,0,0,0-.15.12s0,0,0,0a0,0,0,0,1,0,0c0-.13-.22-.26-.33-.31s-.33.18-.33.31,0,0,0,0a0,0,0,0,1-.05,0h0a.24.24,0,0,0-.14-.12v.28l.26.28.29-.05Z"/><path class="cls-3" d="M12.26,17.47c0-.3.42-.49.42-.49s.42.19.42.49a.45.45,0,0,1,.32-.18v.36s-.23.42-.37.42l-.37,0-.37,0c-.13,0-.37-.42-.37-.42v-.36A.42.42,0,0,1,12.26,17.47Z"/><path d="M13.05,18.11l-.37,0-.37,0c-.15,0-.36-.37-.4-.44s0,0,0,0v-.36a0,0,0,0,1,0,0,.46.46,0,0,1,.3.13c.07-.27.41-.43.43-.44h0s.36.17.43.44a.42.42,0,0,1,.29-.13s0,0,0,0v.38C13.42,17.74,13.21,18.11,13.05,18.11Zm-.37-.1h.37c.07,0,.23-.19.33-.38v-.31a.35.35,0,0,0-.24.17,0,0,0,0,1-.05,0s0,0,0,0c0-.24-.3-.41-.38-.45s-.37.21-.37.45a0,0,0,0,1,0,0,0,0,0,0,1,0,0,.38.38,0,0,0-.25-.17v.31c.11.19.26.38.33.38Z"/><path class="cls-3" d="M12.12,18.42a1.59,1.59,0,0,1,.56-1,1.58,1.58,0,0,1,.57,1s.17-.35.42-.35v.6l-.56.72-.43-.22-.42.22-.57-.72v-.6C11.94,18.07,12.12,18.42,12.12,18.42Z"/><path d="M13.11,19.43h0l-.41-.22-.4.22a0,0,0,0,1,0,0l-.57-.72a0,0,0,0,1,0,0v-.6a0,0,0,0,1,0-.05.55.55,0,0,1,.4.27,1.71,1.71,0,0,1,.57-.86h.05a1.78,1.78,0,0,1,.57.86.52.52,0,0,1,.39-.27,0,0,0,0,1,.05.05v.63l-.57.72Zm-.43-.31h0l.39.21.54-.68v-.55c-.2,0-.35.33-.35.33a0,0,0,0,1,0,0,0,0,0,0,1,0,0,1.48,1.48,0,0,0-.52-.9,1.48,1.48,0,0,0-.52.9s0,0,0,0,0,0-.05,0-.15-.29-.35-.33v.55l.54.68.39-.21Z"/><path class="cls-3" d="M12.12,19.31a1.45,1.45,0,0,1,.56-.95,1.45,1.45,0,0,1,.56.95s.11-.39.43-.39v.55s-.37.52-.49.52-.5-.06-.5-.06-.37.06-.49.06-.5-.52-.5-.52v-.55C12,18.92,12.12,19.31,12.12,19.31Z"/><path d="M13.18,20a4.92,4.92,0,0,1-.5-.06,4.36,4.36,0,0,1-.49.06c-.14,0-.44-.41-.53-.54s0,0,0,0v-.55a0,0,0,0,1,0,0,.48.48,0,0,1,.41.27,1.56,1.56,0,0,1,.56-.82s0,0,.05,0a1.56,1.56,0,0,1,.56.82.45.45,0,0,1,.4-.27,0,0,0,0,1,.05,0v.55a0,0,0,0,1,0,0C13.62,19.62,13.31,20,13.18,20Zm-.5-.14h0s.37.06.49.06.28-.25.45-.49V19c-.25,0-.35.35-.35.36a0,0,0,0,1,0,0,0,0,0,0,1,0,0,1.37,1.37,0,0,0-.52-.9,1.41,1.41,0,0,0-.51.9,0,0,0,0,1,0,0s0,0-.05,0S12,19,11.73,19v.49a1.67,1.67,0,0,0,.46.49c.12,0,.48-.06.49-.06Z"/><path class="cls-3" d="M12.68,19.27s.61.4.61.91c0,0,0,.49-.61.49s-.61-.49-.61-.49C12.07,19.67,12.68,19.27,12.68,19.27Z"/><path d="M12.68,20.71a.68.68,0,0,1-.55-.2.45.45,0,0,1-.1-.33,1.32,1.32,0,0,1,.63-.94h0a1.32,1.32,0,0,1,.63.94.46.46,0,0,1-.13.35A.68.68,0,0,1,12.68,20.71Zm0-1.39c-.11.08-.57.43-.57.86h0a.38.38,0,0,0,.08.27.62.62,0,0,0,.49.17.62.62,0,0,0,.46-.16.41.41,0,0,0,.11-.29C13.25,19.75,12.79,19.4,12.68,19.32Zm-.61.86Z"/><path class="cls-3" d="M12.25,20.4c0-.34.43-.76.43-.76s.44.42.44.76c0,0,.27-.38.55-.38v.68h-2V20C12,20,12.25,20.4,12.25,20.4Z"/><path d="M13.67,20.74h-2a0,0,0,0,1,0,0V20a0,0,0,0,1,0,0,.8.8,0,0,1,.53.32,1.74,1.74,0,0,1,.43-.69s0,0,.06,0a1.62,1.62,0,0,1,.44.69.78.78,0,0,1,.52-.32,0,0,0,0,1,.05,0v.68A0,0,0,0,1,13.67,20.74Zm-1.94-.08h1.9v-.6a.91.91,0,0,0-.48.37,0,0,0,0,1-.05,0,0,0,0,0,1,0,0,1.35,1.35,0,0,0-.39-.71c-.09.11-.39.44-.39.71,0,0,0,0,0,0s0,0,0,0-.24-.33-.49-.37Z"/><rect class="cls-3" x="10.41" y="18.4" width="0.66" height="2.05" transform="translate(21.48 38.86) rotate(180)"/><path d="M11.07,20.5h-.66a0,0,0,0,1,0-.05V18.4a0,0,0,0,1,0,0h.66a0,0,0,0,1,0,0v2.05A0,0,0,0,1,11.07,20.5Zm-.62-.09H11v-2h-.58Z"/><rect class="cls-3" x="10.41" y="18.16" width="0.26" height="1.86" transform="translate(21.08 38.18) rotate(180)"/><path d="M10.67,20.06h-.26a0,0,0,0,1,0,0V18.16a0,0,0,0,1,0,0h.26a0,0,0,0,1,0,0V20A0,0,0,0,1,10.67,20.06ZM10.45,20h.18V18.2h-.18Z"/><rect class="cls-3" x="10.67" y="18.4" width="0.4" height="0.31" transform="translate(21.74 37.12) rotate(180)"/><path d="M11.07,18.76h-.4a0,0,0,0,1,0,0V18.4a0,0,0,0,1,0,0h.4a0,0,0,0,1,0,0v.32A0,0,0,0,1,11.07,18.76Zm-.36-.08H11v-.24h-.32Z"/><path class="cls-3" d="M11.07,20.33a1,1,0,0,0-.66-.66v.78h.66Z"/><path d="M11.07,20.5h-.66a0,0,0,0,1,0-.05v-.78a.05.05,0,0,1,0,0h0a1,1,0,0,1,.68.69h0v.12A0,0,0,0,1,11.07,20.5Zm-.62-.09H11v-.08a.9.9,0,0,0-.58-.6Z"/><path class="cls-3" d="M13.59,20.7l-.23.32v2.2a.83.83,0,0,0,.34.5h-.59v-3Z"/><path d="M13.7,23.77h-.59a0,0,0,0,1,0-.05v-3a0,0,0,0,1,0,0h.48l0,0a.06.06,0,0,1,0,0L13.4,21v2.19a.86.86,0,0,0,.32.47s0,0,0,0Zm-.55-.09h.43a.9.9,0,0,1-.26-.45h0V21a0,0,0,0,1,0,0l.18-.25h-.36Z"/><path class="cls-3" d="M11.69,20.7l.23.32v2.2a.83.83,0,0,1-.34.5h.59v-3Z"/><path d="M12.17,23.77h-.59a0,0,0,0,1,0,0,0,0,0,0,1,0,0,.86.86,0,0,0,.32-.47V21l-.22-.31a.06.06,0,0,1,0,0l0,0h.48a0,0,0,0,1,0,0v3A0,0,0,0,1,12.17,23.77Zm-.47-.09h.43V20.74h-.36L12,21a0,0,0,0,1,0,0v2.2h0A.9.9,0,0,1,11.7,23.68Z"/><polygon class="cls-3" points="20.25 23.72 9.52 23.72 9.52 24.36 20.25 24.36 30.97 24.36 30.97 23.72 20.25 23.72"/><path d="M31,24.41H9.52a0,0,0,0,1,0-.05v-.64a0,0,0,0,1,0,0H31a0,0,0,0,1,0,0v.64A0,0,0,0,1,31,24.41Zm-21.4-.09H30.93v-.55H9.57Z"/><polygon class="cls-3" points="20.25 24.36 9.13 24.36 9.13 25.18 20.25 25.18 31.36 25.18 31.36 24.36 20.25 24.36"/><path d="M31.36,25.22H9.13a0,0,0,0,1,0,0v-.82a0,0,0,0,1,0,0H31.36a0,0,0,0,1,0,0v.82A0,0,0,0,1,31.36,25.22ZM9.17,25.14H31.32v-.73H9.17Z"/><polygon class="cls-3" points="20.25 25.18 8.49 25.18 8.49 26.25 20.25 26.25 32 26.25 32 25.18 20.25 25.18"/><path d="M32,26.3H8.49a0,0,0,0,1,0-.05V25.18a0,0,0,0,1,0,0H32a0,0,0,0,1,0,0v1.07A0,0,0,0,1,32,26.3ZM8.53,26.21H32v-1H8.53Z"/><polygon class="cls-3" points="20.25 26.25 7.83 26.25 7.83 27.52 20.25 27.52 32.66 27.52 32.66 26.25 20.25 26.25"/><path d="M32.66,27.56H7.83a0,0,0,0,1,0,0V26.25a0,0,0,0,1,0,0H32.66a0,0,0,0,1,0,0v1.27A0,0,0,0,1,32.66,27.56ZM7.87,27.48H32.62V26.3H7.87Z"/><polygon class="cls-3" points="20.25 27.52 7.17 27.52 7.17 28.78 20.25 28.78 33.32 28.78 33.32 27.52 20.25 27.52"/><path d="M33.32,28.83H7.17a0,0,0,0,1,0,0V27.52a0,0,0,0,1,0,0H33.32a0,0,0,0,1,0,0v1.26A0,0,0,0,1,33.32,28.83ZM7.21,28.74H33.28V27.56H7.21Z"/><path class="cls-3" d="M20.52,14.14c0-.17-.27-.4-.27-.4s-.28.23-.28.4a.44.44,0,0,0-.29-.16v.33l.57.4.57-.4V14A.48.48,0,0,0,20.52,14.14Z"/><path d="M20.25,14.75h0l-.57-.4,0,0V14a0,0,0,0,1,.05-.05.45.45,0,0,1,.27.12,1.06,1.06,0,0,1,.27-.34,0,0,0,0,1,.05,0,1.05,1.05,0,0,1,.28.34.43.43,0,0,1,.27-.12,0,0,0,0,1,0,.05v.33l0,0-.57.4Zm-.53-.46.53.37.53-.37V14a.44.44,0,0,0-.23.14,0,0,0,0,1,0,0,.05.05,0,0,1,0,0c0-.11-.15-.27-.23-.34S20,14,20,14.14l0,0s0,0,0,0a.44.44,0,0,0-.22-.14Zm.84-.15Z"/><path class="cls-3" d="M20.92,14.6a.45.45,0,0,0-.36.26,1,1,0,0,0-.31-.6,1,1,0,0,0-.32.6.43.43,0,0,0-.35-.26v.49l.67.52h0l.67-.52Z"/><path d="M20.25,15.65h0l-.67-.52a0,0,0,0,1,0,0V14.6a0,0,0,0,1,0,0,.43.43,0,0,1,.33.18,1.11,1.11,0,0,1,.31-.51,0,0,0,0,1,.05,0,1,1,0,0,1,.32.51.42.42,0,0,1,.33-.18,0,0,0,0,1,0,0v.49l0,0-.67.52h0Zm-.63-.58.63.49.63-.49v-.42a.39.39,0,0,0-.28.22.05.05,0,0,1-.05,0s0,0,0,0a.88.88,0,0,0-.27-.54.83.83,0,0,0-.27.54s0,0,0,0,0,0,0,0a.42.42,0,0,0-.28-.22Z"/><path class="cls-3" d="M20.77,15.7c0-.21-.52-.79-.52-.79s-.52.58-.52.79c0,0-.21-.25-.35-.25V16h1.73v-.56C21,15.45,20.77,15.7,20.77,15.7Z"/><path d="M21.11,16.05H19.38a0,0,0,0,1,0,0v-.56a0,0,0,0,1,0,0,.55.55,0,0,1,.32.2,3.39,3.39,0,0,1,.52-.73.06.06,0,0,1,.06,0,3.41,3.41,0,0,1,.51.73.55.55,0,0,1,.32-.2,0,0,0,0,1,0,0V16A0,0,0,0,1,21.11,16.05ZM19.43,16h1.64V15.5a.74.74,0,0,0-.27.23,0,0,0,0,1-.05,0,0,0,0,0,1,0,0,2.29,2.29,0,0,0-.47-.73,2.17,2.17,0,0,0-.48.73s0,0,0,0,0,0,0,0a1,1,0,0,0-.27-.23Zm1.38-.27Z"/><path class="cls-3" d="M20.81,16.65c0-.21-.56-.76-.56-.76s-.57.55-.57.76c0,0-.23-.23-.39-.23V17h1.92v-.57C21.05,16.42,20.81,16.65,20.81,16.65Z"/><path d="M21.21,17H19.29a0,0,0,0,1-.05,0v-.57a0,0,0,0,1,.05,0,.69.69,0,0,1,.37.19,3.11,3.11,0,0,1,.56-.71h.06a2.86,2.86,0,0,1,.55.71.76.76,0,0,1,.38-.19,0,0,0,0,1,0,0V17A0,0,0,0,1,21.21,17Zm-1.88-.09h1.84v-.47a.82.82,0,0,0-.33.21,0,0,0,0,1-.05,0,.05.05,0,0,1,0,0c0-.15-.35-.53-.52-.7-.22.22-.52.57-.52.7s0,0,0,0,0,0,0,0a1,1,0,0,0-.33-.21Zm1.52-.29Z"/><path class="cls-3" d="M21,17.86c0-.45-.73-1.05-.73-1.05s-.73.6-.73,1.05c0,0-.28-.35-.46-.35v.66h2.38v-.66C21.25,17.51,21,17.86,21,17.86Z"/><path d="M21.44,18.21H19.06a0,0,0,0,1,0,0v-.66s0,0,0,0,.33.18.43.29a2.41,2.41,0,0,1,.73-1h.05a2.49,2.49,0,0,1,.74,1c.09-.11.28-.29.43-.29a0,0,0,0,1,0,0v.66A0,0,0,0,1,21.44,18.21Zm-2.34-.09h2.29v-.57a1.23,1.23,0,0,0-.38.33s0,0-.05,0a.05.05,0,0,1,0,0c0-.38-.56-.89-.69-1-.13.11-.69.62-.69,1,0,0,0,0,0,0s0,0-.05,0a1.12,1.12,0,0,0-.38-.33ZM21,17.86Z"/><path class="cls-3" d="M21,19.36a2,2,0,0,0-.7-1.5,2,2,0,0,0-.71,1.5s-.18-.38-.35-.38v.66H21.3V19C21.14,19,21,19.36,21,19.36Z"/><path d="M21.3,19.68H19.19a0,0,0,0,1,0,0V19a0,0,0,0,1,0,0c.12,0,.24.16.31.27a2,2,0,0,1,.72-1.38s0,0,.05,0A2,2,0,0,1,21,19.21c.07-.11.19-.27.31-.27a0,0,0,0,1,0,0v.66A0,0,0,0,1,21.3,19.68Zm-2.07-.09h2V19a.79.79,0,0,0-.27.34,0,0,0,0,1,0,0,0,0,0,0,1,0,0,2,2,0,0,0-.66-1.45,1.91,1.91,0,0,0-.67,1.45s0,0,0,0a0,0,0,0,1-.05,0,.72.72,0,0,0-.27-.34ZM21,19.36Z"/><path d="M20.9,16s0,0-.06,0l-.24.31a0,0,0,0,0,0,.06h0s0,0,0,0l.25-.31S20.92,16,20.9,16Z"/><path d="M20.84,17.51a0,0,0,0,1,0,0,.89.89,0,0,1,.25-.51,0,0,0,0,1,.05,0,0,0,0,0,1,0,.06.86.86,0,0,0-.23.46A0,0,0,0,1,20.84,17.51Z"/><path d="M21.13,19.13a0,0,0,0,1,0,0,1.58,1.58,0,0,1,.24-.95,0,0,0,1,1,.07.05h0a1.43,1.43,0,0,0-.23.9A0,0,0,0,1,21.13,19.13Z"/><path d="M21.3,19.5h0s0,0,0,0c0-.23.67-.69.74-.74a0,0,0,0,1,.06,0s0,0,0,.05c-.27.2-.69.54-.71.69S21.32,19.5,21.3,19.5Z"/><path d="M19.65,16a0,0,0,0,0,0,0s0,0,0,.05l.24.31,0,0h0s0,0,0-.06Z"/><path d="M19.65,17.51a0,0,0,0,1,0,0,1,1,0,0,0-.22-.46s0,0,0-.06a0,0,0,0,1,.06,0,.9.9,0,0,1,.24.51A0,0,0,0,1,19.65,17.51Z"/><path d="M19.36,19.13a0,0,0,0,1,0,0,1.56,1.56,0,0,0-.22-.9s0,0,0-.06,0,0,.06,0a1.58,1.58,0,0,1,.24.95A0,0,0,0,1,19.36,19.13Z"/><path d="M19.19,19.5s0,0,0,0-.52-.55-.71-.69a0,0,0,0,1,0-.05s0,0,0,0,.71.51.74.74c0,0,0,0,0,0Z"/><path class="cls-3" d="M20.82,20.23a1.3,1.3,0,0,0-.57-1,1.3,1.3,0,0,0-.57,1s-.16-.21-.32-.21v.66h1.78V20C21,20,20.82,20.23,20.82,20.23Z"/><path d="M21.14,20.72H19.36a0,0,0,0,1,0,0V20a0,0,0,0,1,0,0,.43.43,0,0,1,.28.15,1.44,1.44,0,0,1,.58-.93h.05a1.4,1.4,0,0,1,.58.93.43.43,0,0,1,.29-.15,0,0,0,0,1,0,0v.66A0,0,0,0,1,21.14,20.72Zm-1.74-.08h1.69v-.57a.58.58,0,0,0-.24.18,0,0,0,0,1,0,0s0,0,0,0a1.25,1.25,0,0,0-.53-.94,1.22,1.22,0,0,0-.53.94s0,0,0,0,0,0-.05,0a.52.52,0,0,0-.24-.18Zm1.46-.41Z"/><path d="M28.33,25h-.95a0,0,0,0,1,0-.05,0,0,0,0,1,0,0h.95a0,0,0,0,1,0,0A0,0,0,0,1,28.33,25Z"/><path d="M28.33,25.66h-.95a0,0,0,0,1,0-.08h.95a0,0,0,1,1,0,.08Z"/><rect class="cls-3" x="27.02" y="23.72" width="0.36" height="5.06"/><path d="M27.38,28.83H27a0,0,0,0,1,0,0V23.72a0,0,0,0,1,0,0h.36a0,0,0,0,1,0,0v5.06A0,0,0,0,1,27.38,28.83Zm-.32-.09h.28v-5h-.28Z"/><rect class="cls-3" x="28.33" y="23.72" width="0.36" height="5.06"/><path d="M28.69,28.83h-.36a0,0,0,0,1,0,0V23.72a0,0,0,0,1,0,0h.36a0,0,0,0,1,0,0v5.06A0,0,0,0,1,28.69,28.83Zm-.32-.09h.28v-5h-.28Z"/><path d="M28.33,26.93h-.95a0,0,0,0,1,0,0,0,0,0,0,1,0,0h.95a0,0,0,0,1,0,0A0,0,0,0,1,28.33,26.93Z"/><path d="M28.33,28.19h-.95a0,0,0,1,1,0-.08h.95a0,0,0,1,1,0,.08Z"/><rect class="cls-3" x="27.38" y="24.98" width="0.94" height="0.64"/><path d="M28.33,25.66h-.95a0,0,0,0,1,0,0V25a0,0,0,0,1,0,0h.95a0,0,0,0,1,0,0v.64A0,0,0,0,1,28.33,25.66Zm-.91-.08h.86V25h-.86Z"/><rect class="cls-3" x="19.41" y="23.72" width="0.39" height="5.06"/><path d="M19.8,28.83h-.39a0,0,0,0,1,0,0V23.72a0,0,0,0,1,0,0h.39a0,0,0,0,1,0,0v5.06S19.83,28.83,19.8,28.83Zm-.35-.09h.31v-5h-.31Z"/><rect class="cls-3" x="20.69" y="23.72" width="0.39" height="5.06"/><path d="M21.08,28.83h-.39a0,0,0,0,1,0,0V23.72a0,0,0,0,1,0,0h.39a0,0,0,0,1,0,0v5.06A0,0,0,0,1,21.08,28.83Zm-.35-.09H21v-5h-.31Z"/><path d="M20.69,26.93H19.8a0,0,0,0,1,0,0,0,0,0,0,1,0,0h.89a0,0,0,0,1,0,0A0,0,0,0,1,20.69,26.93Z"/><path d="M20.69,28.19H19.8a0,0,0,1,1,0-.08h.89a0,0,0,0,1,0,.08Z"/><rect class="cls-3" x="19.8" y="24.98" width="0.89" height="0.64"/><path d="M20.69,25.66H19.8a0,0,0,0,1,0,0V25a0,0,0,0,1,0,0h.89a0,0,0,0,1,0,0v.64A0,0,0,0,1,20.69,25.66Zm-.85-.08h.81V25h-.81Z"/><rect class="cls-3" x="11.81" y="23.72" width="0.36" height="5.06"/><path d="M12.17,28.83h-.36s0,0,0,0V23.72a0,0,0,0,1,0,0h.36a0,0,0,0,1,0,0v5.06A0,0,0,0,1,12.17,28.83Zm-.32-.09h.28v-5h-.28Z"/><rect class="cls-3" x="13.11" y="23.72" width="0.36" height="5.06"/><path d="M13.48,28.83h-.37a0,0,0,0,1,0,0V23.72a0,0,0,0,1,0,0h.37a0,0,0,0,1,0,0v5.06A0,0,0,0,1,13.48,28.83Zm-.33-.09h.28v-5h-.28Z"/><path d="M13.11,26.93h-.94a0,0,0,0,1,0,0,0,0,0,0,1,0,0h.94s0,0,0,0A0,0,0,0,1,13.11,26.93Z"/><path d="M13.11,28.19h-.94a0,0,0,0,1,0-.08h.94a0,0,0,1,1,0,.08Z"/><rect class="cls-3" x="12.17" y="24.98" width="0.94" height="0.64"/><path d="M13.11,25.66h-.94a0,0,0,0,1,0,0V25a0,0,0,0,1,0,0h.94a0,0,0,0,1,0,0v.64A0,0,0,0,1,13.11,25.66Zm-.9-.08h.86V25h-.86Z"/><path d="M30,23.18H10.47a0,0,0,0,0,0,0,0,0,0,0,0,0,.05H30a0,0,0,0,0,0-.05A0,0,0,0,0,30,23.18Z"/></g></g></svg>