<svg xmlns="http://www.w3.org/2000/svg" viewBox="0 0 40.5 40.5"><defs><style>.cls-1{fill:#ce1126;}.cls-2{fill:#fcd116;}.cls-3{fill:#bd9c08;}.cls-4{fill:#003f87;}.cls-5{fill:#fff;}</style></defs><g id="Ebene_2" data-name="Ebene 2"><g id="Ńëîé_1" data-name="Ńëîé 1"><path class="cls-1" d="M40.5,20.25a7.77,7.77,0,0,1,0,.84A19,19,0,0,1,40.15,24a1.47,1.47,0,0,0,0,.29,21.47,21.47,0,0,1-.83,2.87,1.8,1.8,0,0,1-.08.21,18.44,18.44,0,0,1-1.43,3,.05.05,0,0,1,0,0,19.1,19.1,0,0,1-2,2.81s0,0,0,.06a18.26,18.26,0,0,1-2.27,2.3l-.13.11a20.25,20.25,0,0,1-26.06,0l-.13-.11a18.26,18.26,0,0,1-2.27-2.3s0,0-.05-.06a19.1,19.1,0,0,1-2-2.81.05.05,0,0,1,0,0,18.44,18.44,0,0,1-1.43-3,1.8,1.8,0,0,1-.08-.21A21.47,21.47,0,0,1,.4,24.33,1.47,1.47,0,0,0,.35,24,19,19,0,0,1,0,21.09a7.77,7.77,0,0,1,0-.84,20.25,20.25,0,0,1,40.5,0Z"/><path class="cls-2" d="M24.54,7.68H22.81l-.37.38H25A.55.55,0,0,0,24.54,7.68Z"/><path class="cls-3" d="M25,8.14h-2.6a.08.08,0,0,1-.07-.05.07.07,0,0,1,0-.09l.37-.38.06,0h1.73a.63.63,0,0,1,.58.43.06.06,0,0,1,0,.07A.07.07,0,0,1,25,8.14ZM22.65,8h2.26a.45.45,0,0,0-.37-.2H22.85Z"/><path class="cls-2" d="M18.93,6.87s1.61-1.58,1.89-1.79a4.28,4.28,0,0,1,2.71-.85c2.87-.11,6.74-.67,6.74-.67s-2.55,1.69-7.76,2.26A5.25,5.25,0,0,0,21.44,7l3.9.07S22.41,8.11,21.13,8.6s-3.87.34-5-1.21H14.51c-.61-.42-.38-.65-.38-.65h1.49s.67-.88,2.23.14Z"/><path class="cls-3" d="M19.59,8.93a4.42,4.42,0,0,1-3.51-1.45H14.51l0,0c-.29-.2-.44-.39-.46-.57a.26.26,0,0,1,.07-.21l.06,0h1.45a1.1,1.1,0,0,1,.55-.32,2.21,2.21,0,0,1,1.74.46l1,0c.21-.2,1.6-1.57,1.87-1.77a4.43,4.43,0,0,1,2.75-.87c2.84-.1,6.7-.66,6.74-.66a.08.08,0,0,1,.09,0,.09.09,0,0,1,0,.1A18.85,18.85,0,0,1,22.54,5.9a5.92,5.92,0,0,0-1,1L25.35,7a.08.08,0,0,1,.08.07.09.09,0,0,1-.06.09L21.16,8.68A4.62,4.62,0,0,1,19.59,8.93ZM14.53,7.31h1.6a.07.07,0,0,1,.06,0C17.27,8.82,19.78,9,21.1,8.52l3.79-1.41-3.46-.06a.13.13,0,0,1-.07,0,.14.14,0,0,1,0-.09,5.58,5.58,0,0,1,1.09-1.17h.05a20.56,20.56,0,0,0,7.35-2c-1.09.15-4,.53-6.32.61a4.24,4.24,0,0,0-2.66.84C20.6,5.35,19,6.91,19,6.93l-.06,0H17.8c-1.47-1-2.09-.19-2.12-.16a.08.08,0,0,1-.06,0H14.17v0C14.18,7,14.24,7.1,14.53,7.31Zm4.4-.44Z"/><path class="cls-3" d="M19.28,8.61c-.28,0-.44,0-.46,0a.09.09,0,0,1-.07-.1.07.07,0,0,1,.09-.07,6,6,0,0,0,3.65-.93.09.09,0,0,1,.12,0,.08.08,0,0,1,0,.11A6.5,6.5,0,0,1,19.28,8.61Z"/><path class="cls-3" d="M19.53,8.25h0a1.21,1.21,0,0,1-1-.51.09.09,0,0,1,.13-.11,1.06,1.06,0,0,0,.84.45h0c.9,0,1.83-1.16,1.84-1.17a.09.09,0,0,1,.12,0,.08.08,0,0,1,0,.12C21.46,7.07,20.51,8.25,19.53,8.25Z"/><path class="cls-3" d="M19.17,7.14a.1.1,0,0,1-.08,0,.08.08,0,0,1,0-.11,11.28,11.28,0,0,0,1.45-1.12l.17-.15c.66-.6,1.23-1.12,3.47-1.24a39.27,39.27,0,0,0,6-1,.08.08,0,0,1,.1.06.09.09,0,0,1-.06.1,39.46,39.46,0,0,1-6.06,1c-2.18.12-2.73.62-3.37,1.2L20.69,6a11.62,11.62,0,0,1-1.48,1.15Z"/><path class="cls-3" d="M15.92,7.09h-1.8A.09.09,0,0,1,14,7a.09.09,0,0,1,.08-.08h1.8A.09.09,0,0,1,16,7,.09.09,0,0,1,15.92,7.09Z"/><path class="cls-3" d="M16.64,6.79a.21.21,0,0,1-.21.21.21.21,0,0,1-.21-.21.22.22,0,0,1,.21-.21A.21.21,0,0,1,16.64,6.79Z"/><path class="cls-2" d="M18.39,6.87S17.84,6,14.48,5.49a9.15,9.15,0,0,1-4.32-1.61s3.56.6,4.64.71,4,.13,4.64,1.78l-.51.5Z"/><path class="cls-3" d="M18.39,7a.12.12,0,0,1-.08,0s-.59-.9-3.84-1.34A9.18,9.18,0,0,1,10.11,4a.07.07,0,0,1,0-.1.07.07,0,0,1,.09-.05s3.57.6,4.64.71l.44,0c1.28.1,3.66.28,4.27,1.79a.1.1,0,0,1,0,.09l-.51.5-.06,0ZM10.5,4a9.25,9.25,0,0,0,4,1.39c3,.41,3.79,1.19,3.94,1.38h.47l.44-.43c-.6-1.36-2.87-1.54-4.1-1.63l-.45,0C13.92,4.59,11.44,4.18,10.5,4Z"/><path class="cls-3" d="M18.46,7a.1.1,0,0,1-.08-.06C17.94,5.4,16.46,5.23,14.74,5l-1.08-.13a14.23,14.23,0,0,1-3.54-1,.1.1,0,0,1,0-.12.08.08,0,0,1,.11,0,13.32,13.32,0,0,0,3.49.94l1.08.13c1.78.2,3.31.37,3.78,2a.07.07,0,0,1-.05.1Z"/><polygon class="cls-2" points="21.23 14.81 19.27 14.81 20.25 10.25 20.69 12.29 21.22 14.75 21.23 14.81"/><path class="cls-3" d="M21.23,14.89h-2a.09.09,0,0,1-.07,0,.1.1,0,0,1,0-.07l1-4.55a.08.08,0,0,1,.16,0l1,4.55a.08.08,0,0,1,0,.07A.09.09,0,0,1,21.23,14.89Zm-1.86-.17h1.76l-.88-4.07Z"/><polygon class="cls-2" points="16.83 10.86 17.46 15.47 19.31 14.8 16.83 10.86"/><path class="cls-3" d="M17.46,15.56h0a.1.1,0,0,1,0-.07l-.63-4.61a.07.07,0,0,1,.05-.09.08.08,0,0,1,.1,0l2.48,3.94a.08.08,0,0,1,0,.08l-.05.05-1.85.67ZM17,11.23l.56,4.13,1.65-.6Z"/><polygon class="cls-2" points="13.82 12.59 15.99 16.71 17.5 15.45 13.82 12.59"/><path class="cls-3" d="M16,16.8h0s-.05,0-.06-.05l-2.17-4.12a.08.08,0,0,1,0-.1.07.07,0,0,1,.1,0l3.68,2.85a.1.1,0,0,1,0,.07.07.07,0,0,1,0,.06l-1.51,1.27Zm-1.91-3.9L16,16.58l1.35-1.13Z"/><polygon class="cls-2" points="11.59 15.25 15.04 18.38 16.02 16.68 11.59 15.25"/><path class="cls-3" d="M15,18.47l-.06,0-3.45-3.13a.09.09,0,0,1,0-.11.09.09,0,0,1,.09,0l4.44,1.43a.08.08,0,0,1,.05,0,.09.09,0,0,1,0,.07l-1,1.71a.09.09,0,0,1-.06,0Zm-3.11-3L15,18.25l.88-1.52Z"/><polygon class="cls-2" points="10.4 18.52 14.71 20.28 15.06 18.34 10.4 18.52"/><path class="cls-3" d="M14.71,20.36h0L10.37,18.6a.09.09,0,0,1,0-.1.08.08,0,0,1,.08-.07l4.65-.18a.09.09,0,0,1,.07,0,.1.1,0,0,1,0,.07l-.34,1.94a.09.09,0,0,1,0,.06Zm-3.92-1.77,3.86,1.57L15,18.43Z"/><polygon class="cls-2" points="10.4 21.99 15.06 22.17 14.71 20.23 10.4 21.99"/><path class="cls-3" d="M15.06,22.25h0l-4.65-.17s-.08,0-.08-.07a.09.09,0,0,1,0-.1l4.31-1.76a.08.08,0,0,1,.08,0,.09.09,0,0,1,0,.06l.34,1.94a.1.1,0,0,1,0,.07Zm-4.27-.33,4.17.16-.31-1.73Z"/><polygon class="cls-2" points="30.1 21.99 25.79 20.23 25.44 22.17 30.1 21.99"/><path class="cls-3" d="M25.44,22.25l-.06,0a.1.1,0,0,1,0-.07l.34-1.94a.09.09,0,0,1,0-.06.08.08,0,0,1,.08,0l4.31,1.76a.09.09,0,0,1,.05.1s0,.06-.08.07l-4.65.17Zm.41-1.9-.31,1.73,4.17-.16Z"/><polygon class="cls-2" points="30.1 18.52 25.44 18.34 25.79 20.28 30.1 18.52"/><path class="cls-3" d="M25.78,20.36h0a.09.09,0,0,1,0-.06l-.34-1.94a.1.1,0,0,1,0-.07.09.09,0,0,1,.07,0l4.65.18a.08.08,0,0,1,.08.07.09.09,0,0,1-.05.1l-4.31,1.76Zm-.24-1.93.31,1.73,3.86-1.57Z"/><polygon class="cls-2" points="28.91 15.25 24.47 16.68 25.46 18.38 28.91 15.25"/><path class="cls-3" d="M25.46,18.47h0a.09.09,0,0,1-.06,0l-1-1.71a.09.09,0,0,1,0-.07s0,0,.05,0l4.44-1.43a.09.09,0,0,1,.09,0,.09.09,0,0,1,0,.11l-3.45,3.13Zm-.86-1.74.88,1.52,3.09-2.8Z"/><polygon class="cls-2" points="26.68 12.59 23 15.45 24.5 16.71 26.68 12.59"/><path class="cls-3" d="M24.5,16.8l-.05,0-1.51-1.27a.07.07,0,0,1,0-.06.09.09,0,0,1,0-.07l3.69-2.85a.07.07,0,0,1,.1,0,.08.08,0,0,1,0,.1l-2.17,4.12s0,0-.06.05Zm-1.37-1.35,1.35,1.13,1.94-3.68Z"/><polygon class="cls-2" points="23.67 10.86 23.04 15.47 21.89 15.05 21.21 14.81 21.19 14.8 21.22 14.75 22.64 12.5 23.67 10.86"/><path class="cls-3" d="M23,15.56h0l-1.85-.67a.08.08,0,0,1-.05-.05.08.08,0,0,1,0-.08l0-.05,2.45-3.89a.08.08,0,0,1,.1,0,.07.07,0,0,1,.05.09l-.63,4.61a.07.07,0,0,1,0,.06Zm-1.73-.8,1.66.6.56-4.13Z"/><path class="cls-2" d="M22.64,12.5l-1.42,2.25-.53-2.46A4.43,4.43,0,0,1,22.05,10,3.92,3.92,0,0,0,22.64,12.5Z"/><path class="cls-3" d="M21.18,15l-.58-2.69v0A4.55,4.55,0,0,1,22,9.92l.2-.14-.07.23a3.84,3.84,0,0,0,.58,2.45l0,0Zm-.4-2.68.48,2.24,1.28-2a4.9,4.9,0,0,1-.61-2.31A4.85,4.85,0,0,0,20.78,12.29Z"/><path class="cls-2" d="M19.84,12.15l-.56,2.6-1.34-2.13A4.51,4.51,0,0,1,18.43,10S18.47,10.8,19.84,12.15Z"/><path class="cls-3" d="M19.32,15l-1.47-2.33v0a4.59,4.59,0,0,1,.51-2.68l.14-.19V10s.07.8,1.39,2.1l0,0ZM18,12.59l1.22,1.94.51-2.35a4.81,4.81,0,0,1-1.36-2A4.85,4.85,0,0,0,18,12.59Z"/><path class="cls-2" d="M17.09,12.78l.36,2.63-2-1.54A4.42,4.42,0,0,1,15,11.23S15.34,12,17.09,12.78Z"/><path class="cls-3" d="M17.56,15.6,15.4,13.92v0a4.6,4.6,0,0,1-.45-2.69L15,11l.09.22s.34.73,2,1.5l0,0Zm-2-1.78,1.81,1.4L17,12.84a5,5,0,0,1-2-1.39A5,5,0,0,0,15.53,13.82Z"/><path class="cls-2" d="M14.73,14.31,16,16.66l-2.4-.77a4.5,4.5,0,0,1-1.32-2.33A4,4,0,0,0,14.73,14.31Z"/><path class="cls-3" d="M16.14,16.8,13.52,16h0a4.6,4.6,0,0,1-1.34-2.38l0-.24.17.18a4,4,0,0,0,2.41.72h0Zm-2.52-1,2.17.7-1.12-2.13a4.82,4.82,0,0,1-2.3-.63A4.75,4.75,0,0,0,13.62,15.82Z"/><path class="cls-2" d="M13,16.56l2,1.78-2.51.1a4.52,4.52,0,0,1-2-1.74A4,4,0,0,0,13,16.56Z"/><path class="cls-3" d="M12.46,18.52h0a4.54,4.54,0,0,1-2.07-1.77l-.09-.22.21.11A4,4,0,0,0,13,16.48l.05,0,2.15,2Zm-1.84-1.67a4.81,4.81,0,0,0,1.88,1.5l2.28-.08L13,16.65A4.92,4.92,0,0,1,10.62,16.85Z"/><path class="cls-2" d="M12.2,19.25l2.46,1-2.33.95a4.51,4.51,0,0,1-2.51-.93S10.63,20.37,12.2,19.25Z"/><path class="cls-3" d="M12.34,21.29h0a4.66,4.66,0,0,1-2.56-1l-.16-.17.24,0s.8.08,2.31-1l0,0,2.69,1.09ZM10,20.35a5,5,0,0,0,2.29.77l2.11-.87-2.22-.9A5,5,0,0,1,10,20.35Z"/><path class="cls-2" d="M28.3,21.26l-2.46-1,2.33-.95a4.57,4.57,0,0,1,2.5.94S29.87,20.14,28.3,21.26Z"/><path class="cls-3" d="M28.31,21.35l-2.69-1.1,2.54-1h0a4.66,4.66,0,0,1,2.56,1l.16.17-.24,0a4,4,0,0,0-2.31,1Zm-2.24-1.1,2.22.91a5,5,0,0,1,2.18-1,5,5,0,0,0-2.29-.77Z"/><path class="cls-2" d="M28.16,18.44l-2.65-.1,1.86-1.69a4.43,4.43,0,0,1,2.67,0S29.25,16.86,28.16,18.44Z"/><path class="cls-3" d="M28.2,18.53l-2.9-.11,2-1.85h0a4.55,4.55,0,0,1,2.73,0l.21.1-.23.06s-.78.2-1.83,1.73Zm-2.48-.26,2.39.09a5.11,5.11,0,0,1,1.71-1.69,4.87,4.87,0,0,0-2.41.06Z"/><path class="cls-2" d="M27.06,15.85l-2.53.81,1.18-2.23a4.56,4.56,0,0,1,2.52-.89S27.54,14,27.06,15.85Z"/><path class="cls-3" d="M24.36,16.8l1.28-2.42,0,0a4.55,4.55,0,0,1,2.58-.9l.23,0-.2.13a4.11,4.11,0,0,0-1.13,2.26v0Zm1.41-2.31-1.07,2L27,15.78a4.83,4.83,0,0,1,1-2.16A4.81,4.81,0,0,0,25.77,14.49Z"/><path class="cls-2" d="M25.14,13.78l-2.09,1.63.34-2.49a4.52,4.52,0,0,1,2.06-1.7A4,4,0,0,0,25.14,13.78Z"/><path class="cls-3" d="M22.93,15.6l.38-2.71v0a4.51,4.51,0,0,1,2.11-1.73l.23-.06-.14.19a3.93,3.93,0,0,0-.29,2.51v0ZM23.47,13l-.31,2.27,1.9-1.47a4.83,4.83,0,0,1,.22-2.39A4.88,4.88,0,0,0,23.47,13Z"/><path class="cls-2" d="M25.88,20.25a5.63,5.63,0,1,1-5.63-5.63A5.63,5.63,0,0,1,25.88,20.25Z"/><path class="cls-3" d="M20.25,26A5.72,5.72,0,1,1,26,20.25,5.73,5.73,0,0,1,20.25,26Zm0-11.26a5.55,5.55,0,1,0,5.55,5.54A5.55,5.55,0,0,0,20.25,14.71Z"/><path class="cls-4" d="M37.76,30.42a.05.05,0,0,1,0,0,19.1,19.1,0,0,1-2,2.81s0,0,0,.06a10,10,0,0,1-3.83-.93,7.79,7.79,0,0,0-3.5-.73,7.79,7.79,0,0,0-3.5.73,10.3,10.3,0,0,1-4.6,1,10.3,10.3,0,0,1-4.6-1,7.79,7.79,0,0,0-3.5-.73,7.79,7.79,0,0,0-3.5.73,10,10,0,0,1-3.83.93s0,0-.05-.06a19.1,19.1,0,0,1-2-2.81.05.05,0,0,1,0,0,8.33,8.33,0,0,0,1.31.09,7.77,7.77,0,0,0,3.5-.74,10.47,10.47,0,0,1,4.6-.95,10.47,10.47,0,0,1,4.6.95,7.77,7.77,0,0,0,3.5.74,7.77,7.77,0,0,0,3.5-.74,10.47,10.47,0,0,1,4.6-.95,10.47,10.47,0,0,1,4.6.95,7.77,7.77,0,0,0,3.5.74A8.33,8.33,0,0,0,37.76,30.42Z"/><path class="cls-4" d="M40.15,24a1.47,1.47,0,0,0,0,.29,21.47,21.47,0,0,1-.83,2.87,1.8,1.8,0,0,1-.08.21,11.12,11.12,0,0,1-2.74.31,10.47,10.47,0,0,1-4.6-.95,7.77,7.77,0,0,0-3.5-.74,7.77,7.77,0,0,0-3.5.74,10.47,10.47,0,0,1-4.6.95,10.47,10.47,0,0,1-4.6-.95,7.77,7.77,0,0,0-3.5-.74,7.77,7.77,0,0,0-3.5.74,10.47,10.47,0,0,1-4.6.95,11.12,11.12,0,0,1-2.74-.31,1.8,1.8,0,0,1-.08-.21A21.47,21.47,0,0,1,.4,24.33,1.47,1.47,0,0,0,.35,24l.2.08a7.65,7.65,0,0,0,3.5.73,7.65,7.65,0,0,0,3.5-.73,10.47,10.47,0,0,1,4.6-.95,10.47,10.47,0,0,1,4.6.95,7.65,7.65,0,0,0,3.5.73,7.65,7.65,0,0,0,3.5-.73,10.47,10.47,0,0,1,4.6-.95,10.47,10.47,0,0,1,4.6.95,7.65,7.65,0,0,0,3.5.73,7.65,7.65,0,0,0,3.5-.73Z"/><path class="cls-5" d="M35.73,33.28s0,0,0,.06a18.26,18.26,0,0,1-2.27,2.3l-.13.11a13.59,13.59,0,0,1-1.43-.53,7.89,7.89,0,0,0-2.35-.67,11.05,11.05,0,0,0-2.3,0,7.89,7.89,0,0,0-2.35.67,10.48,10.48,0,0,1-3.45.91c-.34,0-.72,0-1.15,0s-.81,0-1.15,0a10.48,10.48,0,0,1-3.45-.91,7.89,7.89,0,0,0-2.35-.67,11.05,11.05,0,0,0-2.3,0,7.89,7.89,0,0,0-2.35.67,13.59,13.59,0,0,1-1.43.53l-.13-.11a18.26,18.26,0,0,1-2.27-2.3s0,0-.05-.06a7.56,7.56,0,0,0,2.78-.7,10.44,10.44,0,0,1,4.6-1,10.44,10.44,0,0,1,4.6,1,7.8,7.8,0,0,0,3.5.72,7.8,7.8,0,0,0,3.5-.72,10.44,10.44,0,0,1,4.6-1,10.44,10.44,0,0,1,4.6,1A7.56,7.56,0,0,0,35.73,33.28Z"/><path class="cls-5" d="M39.27,27.2a1.8,1.8,0,0,1-.08.21,18.44,18.44,0,0,1-1.43,3,.05.05,0,0,1,0,0,12.35,12.35,0,0,1-1.28.07,10.3,10.3,0,0,1-4.6-1,7.79,7.79,0,0,0-3.5-.73,7.79,7.79,0,0,0-3.5.73,10.3,10.3,0,0,1-4.6,1,10.3,10.3,0,0,1-4.6-1,7.79,7.79,0,0,0-3.5-.73,7.79,7.79,0,0,0-3.5.73,10.3,10.3,0,0,1-4.6,1,12.35,12.35,0,0,1-1.28-.07.05.05,0,0,1,0,0,18.44,18.44,0,0,1-1.43-3,1.8,1.8,0,0,1-.08-.21,7.34,7.34,0,0,0,2.82.47,7.77,7.77,0,0,0,3.5-.74,10.64,10.64,0,0,1,4.6-.94,10.64,10.64,0,0,1,4.6.94,7.77,7.77,0,0,0,3.5.74,7.77,7.77,0,0,0,3.5-.74,10.64,10.64,0,0,1,4.6-.94,10.64,10.64,0,0,1,4.6.94,7.77,7.77,0,0,0,3.5.74A7.34,7.34,0,0,0,39.27,27.2Z"/><path class="cls-5" d="M40.47,21.09A19,19,0,0,1,40.15,24a1.47,1.47,0,0,0,0,.29,10.55,10.55,0,0,1-3.65.56,10.64,10.64,0,0,1-4.6-.94,7.51,7.51,0,0,0-3.5-.74,7.51,7.51,0,0,0-3.5.74,10.64,10.64,0,0,1-4.6.94,10.64,10.64,0,0,1-4.6-.94,7.51,7.51,0,0,0-3.5-.74,7.51,7.51,0,0,0-3.5.74,10.64,10.64,0,0,1-4.6.94A10.55,10.55,0,0,1,.4,24.33,1.47,1.47,0,0,0,.35,24,19,19,0,0,1,0,21.09c.19.06.35.13.52.2a7.64,7.64,0,0,0,3.5.74,7.64,7.64,0,0,0,3.5-.74,10.47,10.47,0,0,1,4.6-.95,10.47,10.47,0,0,1,4.6.95,7.64,7.64,0,0,0,3.5.74,7.64,7.64,0,0,0,3.5-.74,10.47,10.47,0,0,1,4.6-.95,10.47,10.47,0,0,1,4.6.95,7.64,7.64,0,0,0,3.5.74,7.64,7.64,0,0,0,3.5-.74C40.12,21.22,40.28,21.15,40.47,21.09Z"/><path class="cls-4" d="M33.41,35.64l-.13.11a20.25,20.25,0,0,1-26.06,0l-.13-.11.46-.19a9.81,9.81,0,0,1,3.45-.9,11.05,11.05,0,0,1,2.3,0,9.81,9.81,0,0,1,3.45.9,8.18,8.18,0,0,0,2.35.68c.34,0,.72,0,1.15,0s.81,0,1.15,0a8.18,8.18,0,0,0,2.35-.68,9.81,9.81,0,0,1,3.45-.9,11.05,11.05,0,0,1,2.3,0,9.81,9.81,0,0,1,3.45.9Z"/></g></g></svg>