<svg viewBox="0 0 40.5 40.5" xmlns="http://www.w3.org/2000/svg"><path d="m30.82 3-30.58 20.41a20.53 20.53 0 0 1 -.24-3.16 20.25 20.25 0 0 1 30.82-17.25z" fill="#009e49"/><path d="m39.69 14.57-32.13 21.43a20.26 20.26 0 0 1 -6.75-10.08l32.13-21.44a20.1 20.1 0 0 1 6.75 10.09z"/><path d="m40.5 20.25a20.25 20.25 0 0 1 -30.82 17.27l30.59-20.39a21.21 21.21 0 0 1 .23 3.12z" fill="#ce1126"/><path d="m32.94 4.48-32.13 21.44a20.36 20.36 0 0 1 -.57-2.51l30.58-20.41a19.76 19.76 0 0 1 2.12 1.48z" fill="#fcd116"/><path d="m40.27 17.13-30.59 20.39a19.76 19.76 0 0 1 -2.12-1.52l32.13-21.43a23.26 23.26 0 0 1 .58 2.56z" fill="#fcd116"/><g fill="#fff"><path d="m7.71 21.94 3.19 2.54 3.4-2.25-1.42 3.82 3.19 2.54-4.08-.18-1.42 3.82-1.09-3.93-4.08-.17 3.4-2.26z"/><path d="m26.63 9.31 3.19 2.54 3.4-2.26-1.43 3.82 3.19 2.54-4.07-.17-1.43 3.82-1.09-3.93-4.07-.18 3.4-2.25z"/></g></svg>