<svg xmlns="http://www.w3.org/2000/svg" viewBox="0 0 40.5 40.5"><defs><style>.cls-1{fill:#009e49;}.cls-2{fill:#ce1126;}.cls-3{fill:#fcd116;}.cls-4{fill:#fff;}</style></defs><g id="Ebene_2" data-name="Ebene 2"><g id="Ńëîé_1" data-name="Ńëîé 1"><path class="cls-1" d="M30.82,3,.24,23.41A20.53,20.53,0,0,1,0,20.25,20.25,20.25,0,0,1,30.82,3Z"/><path d="M39.69,14.57,7.56,36A20.26,20.26,0,0,1,.81,25.92L32.94,4.48A20.1,20.1,0,0,1,39.69,14.57Z"/><path class="cls-2" d="M40.5,20.25A20.25,20.25,0,0,1,9.68,37.52L40.27,17.13A21.21,21.21,0,0,1,40.5,20.25Z"/><path class="cls-3" d="M32.94,4.48.81,25.92a20.36,20.36,0,0,1-.57-2.51L30.82,3A19.76,19.76,0,0,1,32.94,4.48Z"/><path class="cls-3" d="M40.27,17.13,9.68,37.52A19.76,19.76,0,0,1,7.56,36L39.69,14.57A23.26,23.26,0,0,1,40.27,17.13Z"/><polygon class="cls-4" points="7.71 21.94 10.9 24.48 14.3 22.23 12.88 26.05 16.07 28.59 11.99 28.41 10.57 32.23 9.48 28.3 5.4 28.13 8.8 25.87 7.71 21.94"/><polygon class="cls-4" points="26.63 9.31 29.82 11.85 33.22 9.59 31.79 13.41 34.98 15.95 30.91 15.78 29.48 19.6 28.39 15.67 24.32 15.49 27.72 13.24 26.63 9.31"/></g></g></svg>