<svg xmlns="http://www.w3.org/2000/svg" viewBox="0 0 40.5 40.5"><defs><style>.cls-1{fill:#fff;}.cls-2{fill:#0047a0;}.cls-3{fill:#cd2e3a;}.cls-4{fill:#231f20;}</style></defs><g id="Ebene_2" data-name="Ebene 2"><g id="Ńëîé_1" data-name="Ńëîé 1"><circle class="cls-1" cx="20.25" cy="20.25" r="20.25"/><path class="cls-2" d="M27.65,24.32h0A8.44,8.44,0,1,1,13,16c-.07.17-1.52,3.55,1.36,5.42a4.08,4.08,0,0,0,5.93-1.17,4.11,4.11,0,0,1,5.33-1.45A4.23,4.23,0,0,1,27.65,24.32Z"/><path class="cls-3" d="M27.65,24.32a4.23,4.23,0,0,0-2.06-5.52,4.11,4.11,0,0,0-5.33,1.45,4.08,4.08,0,0,1-5.93,1.17C11.45,19.55,12.9,16.17,13,16a8.44,8.44,0,0,1,15.72,4.25A8.35,8.35,0,0,1,27.65,24.32Z"/><rect class="cls-4" x="28.32" y="28.9" width="3.86" height="1.42" transform="translate(-11.14 38.5) rotate(-56.51)"/><rect class="cls-4" x="30.84" y="25.1" width="3.86" height="1.42" transform="translate(-6.84 38.9) rotate(-56.51)"/><rect class="cls-4" x="30.03" y="30.03" width="3.86" height="1.42" transform="translate(-11.31 40.43) rotate(-56.51)"/><rect class="cls-4" x="32.54" y="26.23" width="3.86" height="1.42" transform="translate(-7.02 40.82) rotate(-56.51)"/><rect class="cls-4" x="31.73" y="31.16" width="3.86" height="1.42" transform="translate(-11.49 42.36) rotate(-56.51)"/><rect class="cls-4" x="34.25" y="27.36" width="3.86" height="1.42" transform="translate(-7.19 42.75) rotate(-56.51)"/><polygon class="cls-4" points="7.39 6.65 5.26 9.86 2.75 13.66 3.93 14.45 6.44 10.65 8.57 7.43 7.39 6.65"/><polygon class="cls-4" points="9.09 7.78 6.96 10.99 4.45 14.79 5.63 15.57 8.15 11.78 10.27 8.56 9.09 7.78"/><polygon class="cls-4" points="10.8 8.9 8.67 12.12 6.16 15.92 7.34 16.7 9.85 12.9 11.98 9.69 10.8 8.9"/><rect class="cls-4" x="34.21" y="11.72" width="3.86" height="1.42" transform="translate(45.7 49.42) rotate(-123.49)"/><rect class="cls-4" x="31.69" y="7.92" width="3.86" height="1.42" transform="translate(44.97 41.43) rotate(-123.49)"/><polygon class="cls-4" points="33.95 11.56 31.44 7.76 30.26 8.54 32.77 12.34 34.9 15.55 36.08 14.77 33.95 11.56"/><rect class="cls-4" x="30.79" y="13.97" width="3.86" height="1.42" transform="translate(38.53 50.08) rotate(-123.49)"/><rect class="cls-4" x="28.28" y="10.18" width="3.86" height="1.42" transform="translate(37.8 42.09) rotate(-123.49)"/><polygon class="cls-4" points="9.84 27.67 7.33 23.87 6.15 24.66 8.66 28.45 10.79 31.67 11.97 30.89 9.84 27.67"/><rect class="cls-4" x="6.68" y="30.09" width="3.86" height="1.42" transform="translate(-12.32 54.97) rotate(-123.49)"/><rect class="cls-4" x="4.17" y="26.29" width="3.86" height="1.42" transform="translate(-13.06 46.98) rotate(-123.49)"/><polygon class="cls-4" points="6.43 29.93 3.92 26.13 2.74 26.91 5.25 30.71 7.38 33.93 8.56 33.14 6.43 29.93"/></g></g></svg>