<svg viewBox="0 0 40.5 40.5" xmlns="http://www.w3.org/2000/svg"><circle cx="20.25" cy="20.25" fill="#fff" r="20.25"/><path d="m27.65 24.32a8.44 8.44 0 1 1 -14.65-8.32c-.07.17-1.52 3.55 1.36 5.42a4.08 4.08 0 0 0 5.93-1.17 4.11 4.11 0 0 1 5.33-1.45 4.23 4.23 0 0 1 2.03 5.52z" fill="#0047a0"/><path d="m27.65 24.32a4.23 4.23 0 0 0 -2.06-5.52 4.11 4.11 0 0 0 -5.33 1.45 4.08 4.08 0 0 1 -5.93 1.17c-2.88-1.87-1.43-5.25-1.33-5.42a8.44 8.44 0 0 1 15.72 4.25 8.35 8.35 0 0 1 -1.07 4.07z" fill="#cd2e3a"/><g fill="#231f20"><path d="m28.32 28.9h3.86v1.42h-3.86z" transform="matrix(.55179144 -.83398214 .83398214 .55179144 -11.14 38.5)"/><path d="m30.84 25.1h3.86v1.42h-3.86z" transform="matrix(.55179144 -.83398214 .83398214 .55179144 -6.84 38.9)"/><path d="m30.03 30.03h3.86v1.42h-3.86z" transform="matrix(.55179144 -.83398214 .83398214 .55179144 -11.31 40.43)"/><path d="m32.54 26.23h3.86v1.42h-3.86z" transform="matrix(.55179144 -.83398214 .83398214 .55179144 -7.02 40.82)"/><path d="m31.73 31.16h3.86v1.42h-3.86z" transform="matrix(.55179144 -.83398214 .83398214 .55179144 -11.49 42.36)"/><path d="m34.25 27.36h3.86v1.42h-3.86z" transform="matrix(.55179144 -.83398214 .83398214 .55179144 -7.19 42.75)"/><path d="m7.39 6.65-2.13 3.21-2.51 3.8 1.18.79 2.51-3.8 2.13-3.22z"/><path d="m9.09 7.78-2.13 3.21-2.51 3.8 1.18.78 2.52-3.79 2.12-3.22z"/><path d="m10.8 8.9-2.13 3.22-2.51 3.8 1.18.78 2.51-3.8 2.13-3.21z"/><path d="m34.21 11.72h3.86v1.42h-3.86z" transform="matrix(-.55179144 -.83398214 .83398214 -.55179144 45.7 49.42)"/><path d="m31.69 7.92h3.86v1.42h-3.86z" transform="matrix(-.55179144 -.83398214 .83398214 -.55179144 44.97 41.43)"/><path d="m33.95 11.56-2.51-3.8-1.18.78 2.51 3.8 2.13 3.21 1.18-.78z"/><path d="m30.79 13.97h3.86v1.42h-3.86z" transform="matrix(-.55179144 -.83398214 .83398214 -.55179144 38.53 50.08)"/><path d="m28.28 10.18h3.86v1.42h-3.86z" transform="matrix(-.55179144 -.83398214 .83398214 -.55179144 37.8 42.09)"/><path d="m9.84 27.67-2.51-3.8-1.18.79 2.51 3.79 2.13 3.22 1.18-.78z"/><path d="m6.68 30.09h3.86v1.42h-3.86z" transform="matrix(-.55179144 -.83398214 .83398214 -.55179144 -12.32 54.97)"/><path d="m4.17 26.29h3.86v1.42h-3.86z" transform="matrix(-.55179144 -.83398214 .83398214 -.55179144 -13.06 46.98)"/><path d="m6.43 29.93-2.51-3.8-1.18.78 2.51 3.8 2.13 3.22 1.18-.79z"/></g></svg>