<svg xmlns="http://www.w3.org/2000/svg" viewBox="0 0 40.5 40.5"><defs><style>.cls-1{fill:#007a3d;}.cls-2{fill:#fff;}.cls-3{fill:#ce1126;}</style></defs><g id="Ebene_2" data-name="Ebene 2"><g id="Ńëîé_1" data-name="Ńëîé 1"><path class="cls-1" d="M39.34,13.5H1.16A19.55,19.55,0,0,1,3.62,8.71,20.24,20.24,0,0,1,39.34,13.5Z"/><path class="cls-2" d="M40.5,20.25A20.19,20.19,0,0,1,39.34,27H1.16a20.22,20.22,0,0,1,0-13.5H39.34A20.19,20.19,0,0,1,40.5,20.25Z"/><path class="cls-3" d="M39.34,27A20.24,20.24,0,0,1,3.62,31.79,19.55,19.55,0,0,1,1.16,27Z"/><path d="M10.8,13.5V27L3.62,31.79A19.55,19.55,0,0,1,1.16,27a20.22,20.22,0,0,1,0-13.5A19.55,19.55,0,0,1,3.62,8.71Z"/></g></g></svg>