<svg viewBox="0 0 40.5 40.5" xmlns="http://www.w3.org/2000/svg"><path d="m37.75 10h-35a20.27 20.27 0 0 1 35 0z" fill="#ed1c24"/><path d="m37.73 30.47a20.25 20.25 0 0 1 -35 0z" fill="#ed1c24"/><path d="m40.5 20.25a20.1 20.1 0 0 1 -2.77 10.22h-35a20.28 20.28 0 0 1 .02-20.47h35a20.17 20.17 0 0 1 2.75 10.25z" fill="#fff"/><path d="m19.08 11.32a1.78 1.78 0 0 1 -.57.58c-.51.38-.86.6-.86.71s0 0 0 .06a.14.14 0 0 0 .12.15c.12 0 .07-.13.22-.13a.26.26 0 0 1 .25.26c0 .43-1.87 1-1.87 1.34s.23.2.39.2h.06c.16 0 .29.06.29.22 0 .81-.94 0-1.42 1.21-.24.56-2.34 1.11-2.34 1.69a.38.38 0 0 0 .33.33c.13 0 .94-.3 1.19-.3s.45.17.45.6c0 .76-1.15 1.56-1.33 1.56h-.09a5.25 5.25 0 0 0 -2.12 1.63c0 .29.39.38.53.38.49 0 1-.69 1.47-.69s.59.43.59.65v.12c0 .07-2.8 1.7-2.8 2.08 0 .29-1.18.68-1.18.87s.14.24.46.24a2.81 2.81 0 0 0 .72-.13h.08c.91-.28 2.9-1.24 2.93-1.24a.65.65 0 0 1 .48.57c0 .5-3.09 1.45-3.23 1.45h-.07c-.19 0-.38.3-.38.44s.47.31.72.31c1.61 0 3.64-1.43 4.65-1.43a1.1 1.1 0 0 1 1 1.08 3.85 3.85 0 0 1 -2.75 3.26h-.07c-.3 0-.9.34-.9.48s0 0 0 .09c0 .07.17.22.36.22s.05-.52.71-.52h.08c.14 0 1-.2 1.05-.2h.06c.7 0 1.47-1.23 2.24-1.23.42 0 .41.25.7.25s.27-.2.57-.2c.51 0 .36.77 1.12 1.11.25.11.55.43.63.43s.15-.21.15-.35v-.25c0-.1 0-.19.3-.19s.3.13.68.13h.09c.53 0 1.36 1.14 1.67 1.14a.3.3 0 0 0 .26-.29c0-.55-2.07-1.13-2.29-2.61a3 3 0 0 0 -.12-.56v-.07c0-.13 0 .17 0-.42 0-.76.07-1.66.88-1.66a9.66 9.66 0 0 0 1.79.6h.04a4.17 4.17 0 0 0 .45 0h.15a3.53 3.53 0 0 1 .51-.05 9.4 9.4 0 0 1 3.95 1.43.41.41 0 0 0 .32-.39c0-.72-3.77-2.33-3.77-2.86s.41-.54.73-.54c.59 0 1 .64 1.83.64.1 0 .22 0 .22-.31s-2.39-2.27-3.18-2.27h-.21c-.13 0-.27 0-.27-.13 0-.34.44-.35.64-.35h.15c.36 0 .63-.1.87-.1s.55.07.67.07.42-.12.42-.24c0-.66-2.78-.74-2.78-1.24 0-.16.24-.3.37-.3a4.25 4.25 0 0 0 .95.19h.19c.41 0 .26.07.4.07s.15-.12.15-.18v-.09c0-.33-.46-.47-.79-.55-.15 0-3.58-2.44-3.58-2.75 0-.14 0-.26.44-.26s.85.41 1.63.41c.15 0 .29 0 .29-.15s-1.75-.85-1.75-1.23c0-.16.2-.18.35-.18a1.73 1.73 0 0 1 .39.09c.1 0 .15-.15.15-.26a6.45 6.45 0 0 0 -2.38-1.42h-.14c-1.37 0-2.37-2.13-2.37-2.13l-.2.25a3.58 3.58 0 0 1 -.29.43zm-3.86 10.11a.56.56 0 0 1 -.54-.39c0-.09-.16-.18-.16-.26s.44-.36 1-.36c.83 0 1.08.08 1.08.36s-1.17.65-1.38.65zm1-3.3c-.48 0-.73-.57-.73-.71a.39.39 0 0 1 .38-.36 1.13 1.13 0 0 1 .34.11c.09 0 .13.12.19.19a.87.87 0 0 1 .23.47c0 .17-.19.3-.41.3zm4.78-3.82c.23 0 .28.16.28.35a.22.22 0 0 1 -.23.24.31.31 0 0 1 -.32-.35.24.24 0 0 1 .27-.24zm-.6 2.33a.42.42 0 0 1 -.4.43.4.4 0 0 1 -.31-.3.32.32 0 0 1 .29-.28h.07a1.07 1.07 0 0 1 .17-.06c.14 0 .21.13.21.21zm-1.91-1.55c.07.05.09.14.14.2a.19.19 0 0 1 .05.14c0 .32-.79.65-.93.65s-.2 0-.2-.11c.03-.32.83-.88.97-.88zm-.8-1.09h.07l.1.07a.19.19 0 0 1 .1.2c0 .14-.07.33-.23.33s-.25-.17-.25-.36.04-.24.21-.24zm-.83 3.31a.46.46 0 0 1 .33-.43h.06a.65.65 0 0 1 .13 0h.08a.37.37 0 0 1 .35.33.55.55 0 0 1 -.59.47.35.35 0 0 1 -.36-.4zm.56 6.52c-.18 0-.45-.85-.45-1s.08-.21.14-.21a1 1 0 0 1 .68.79v.07a.49.49 0 0 1 -.37.32zm1-4.15a.19.19 0 0 1 -.2.16c-.18 0-.32-.09-.32-.28s.06-.17.17-.23a.37.37 0 0 1 .32.35zm.54 4a.16.16 0 0 1 -.13.12c-.16 0-.39-.42-.39-.54s0-.1 0-.15h.12c.23 0 .4.3.4.47s.04-.02.04.02zm.23-8.68a.58.58 0 0 1 .14-.32.69.69 0 0 1 .19-.1 1.32 1.32 0 0 1 .5-.14c.17 0 .3.06.3.24s-.62.47-.75.47h-.14c-.12.05-.24.02-.24-.15zm.23 4.57c-.16 0-.17-.16-.17-.29s.09-.26.17-.26h.08a.24.24 0 0 1 .22.21c0 .16-.13.38-.3.38zm.6 4c-.37 0-.38-.18-.38-.45s0-.28.07-.33h.08a.53.53 0 0 1 .53.48.3.3 0 0 1 -.32.31zm.53-3.16a.37.37 0 0 1 -.39-.36c0-.13.12-.65.25-.65a1.31 1.31 0 0 1 .46.76c.06.18-.19.26-.32.26zm.79 0c-.06 0-.18-.15-.18-.24s.09-.27.15-.27a.22.22 0 0 1 .22.24.25.25 0 0 1 -.19.27zm-.12-3.26a.32.32 0 0 1 -.32-.25v-.07c0-.08.19-.31.27-.31s.1-.07.19-.07.16.12.16.28a.53.53 0 0 1 -.3.42zm2.92 1.23h.08a.43.43 0 0 1 .47.41.35.35 0 0 1 -.39.36c-.18 0-.52 0-.52-.41 0-.21.22-.31.36-.36zm-2.28-3.61c0-.18.09-.29.19-.31h.09a.18.18 0 0 1 .1 0c.14 0 .25.17.25.29s-.15.38-.3.38a.34.34 0 0 1 -.33-.36zm.9 2.86c-.43 0-.63-.24-.63-.42 0-.35.5-.44.69-.44h.15a.56.56 0 0 1 .42.32.24.24 0 0 1 0 .12c.03.34-.3.42-.63.42zm1.32 4.94c-.77 0-.72-.17-.72-.3 0-.34.61-.53.75-.55a1.42 1.42 0 0 0 .18-.08h.09.1a.38.38 0 0 1 .42.35c0 .29-.52.58-.82.58zm1.78.52c-.51 0-.58-.13-.58-.32s.44-.59.58-.59a.61.61 0 0 1 .18-.09.4.4 0 0 1 .22 0c.22 0 .36 0 .36.43s-.62.57-.76.57z" fill="#00a651"/></svg>