<svg xmlns="http://www.w3.org/2000/svg" viewBox="0 0 40.5 40.5"><defs><style>.cls-1{fill:#bf0a30;}.cls-2{fill:#fff;}.cls-3{fill:#002868;}</style></defs><g id="Ebene_2" data-name="Ebene 2"><g id="Ńëîé_1" data-name="Ńëîé 1"><path class="cls-1" d="M31.89,3.69H8.6A20,20,0,0,1,18.39.09V0h1.86A20.05,20.05,0,0,1,31.89,3.69Z"/><path class="cls-2" d="M35.86,7.36H4.63a20.07,20.07,0,0,1,4-3.67H31.89A20.35,20.35,0,0,1,35.86,7.36Z"/><path class="cls-1" d="M38.29,11H2.21A20.7,20.7,0,0,1,4.63,7.36H35.86A20.21,20.21,0,0,1,38.29,11Z"/><path class="cls-2" d="M39.73,14.73H.77A19.62,19.62,0,0,1,2.21,11H38.29A20.33,20.33,0,0,1,39.73,14.73Z"/><path class="cls-1" d="M40.41,18.41H.09a19.33,19.33,0,0,1,.68-3.67h39A19.59,19.59,0,0,1,40.41,18.41Z"/><path class="cls-2" d="M40.5,20.25c0,.62,0,1.23-.09,1.84H.09C0,21.48,0,20.87,0,20.25S0,19,.09,18.41H40.41C40.47,19,40.5,19.63,40.5,20.25Z"/><path class="cls-1" d="M40.41,22.09a19.59,19.59,0,0,1-.68,3.68H.77a19.59,19.59,0,0,1-.68-3.68Z"/><path class="cls-2" d="M39.73,25.77a20.33,20.33,0,0,1-1.44,3.69H2.21A19.62,19.62,0,0,1,.77,25.77Z"/><path class="cls-1" d="M38.29,29.46a20.21,20.21,0,0,1-2.43,3.68H4.63a20.7,20.7,0,0,1-2.42-3.68Z"/><path class="cls-2" d="M35.86,33.14a20.35,20.35,0,0,1-4,3.67H8.6a20.07,20.07,0,0,1-4-3.67Z"/><path class="cls-1" d="M31.89,36.81a20.22,20.22,0,0,1-23.29,0Z"/><path class="cls-3" d="M18.39.09V18.4H.09a19.33,19.33,0,0,1,.68-3.67A19.62,19.62,0,0,1,2.21,11,20.7,20.7,0,0,1,4.63,7.36,20.28,20.28,0,0,1,18.39.09Z"/><polygon class="cls-2" points="10.71 6.67 11.94 10.45 15.92 10.45 12.7 12.79 13.93 16.57 10.71 14.23 7.5 16.57 8.72 12.79 5.51 10.45 9.48 10.45 10.71 6.67"/></g></g></svg>