<svg viewBox="0 0 40.5 40.5" xmlns="http://www.w3.org/2000/svg"><path d="m31.89 3.69h-23.29a20 20 0 0 1 9.79-3.6v-.09h1.86a20.05 20.05 0 0 1 11.64 3.69z" fill="#bf0a30"/><path d="m35.86 7.36h-31.23a20.07 20.07 0 0 1 4-3.67h23.26a20.35 20.35 0 0 1 3.97 3.67z" fill="#fff"/><path d="m38.29 11h-36.08a20.7 20.7 0 0 1 2.42-3.64h31.23a20.21 20.21 0 0 1 2.43 3.64z" fill="#bf0a30"/><path d="m39.73 14.73h-38.96a19.62 19.62 0 0 1 1.44-3.73h36.08a20.33 20.33 0 0 1 1.44 3.73z" fill="#fff"/><path d="m40.41 18.41h-40.32a19.33 19.33 0 0 1 .68-3.67h39a19.59 19.59 0 0 1 .64 3.67z" fill="#bf0a30"/><path d="m40.5 20.25c0 .62 0 1.23-.09 1.84h-40.32c-.09-.61-.09-1.22-.09-1.84s0-1.25.09-1.84h40.32c.06.59.09 1.22.09 1.84z" fill="#fff"/><path d="m40.41 22.09a19.59 19.59 0 0 1 -.68 3.68h-38.96a19.59 19.59 0 0 1 -.68-3.68z" fill="#bf0a30"/><path d="m39.73 25.77a20.33 20.33 0 0 1 -1.44 3.69h-36.08a19.62 19.62 0 0 1 -1.44-3.69z" fill="#fff"/><path d="m38.29 29.46a20.21 20.21 0 0 1 -2.43 3.68h-31.23a20.7 20.7 0 0 1 -2.42-3.68z" fill="#bf0a30"/><path d="m35.86 33.14a20.35 20.35 0 0 1 -4 3.67h-23.26a20.07 20.07 0 0 1 -4-3.67z" fill="#fff"/><path d="m31.89 36.81a20.22 20.22 0 0 1 -23.29 0z" fill="#bf0a30"/><path d="m18.39.09v18.31h-18.3a19.33 19.33 0 0 1 .68-3.67 19.62 19.62 0 0 1 1.44-3.73 20.7 20.7 0 0 1 2.42-3.64 20.28 20.28 0 0 1 13.76-7.27z" fill="#002868"/><path d="m10.71 6.67 1.23 3.78h3.98l-3.22 2.34 1.23 3.78-3.22-2.34-3.21 2.34 1.22-3.78-3.21-2.34h3.97z" fill="#fff"/></svg>