<svg xmlns="http://www.w3.org/2000/svg" viewBox="0 0 40.5 40.5"><defs><style>.cls-1{fill:#e70013;}.cls-2{fill:#239e46;}.cls-3{fill:#fff;}</style></defs><g id="Ebene_2" data-name="Ebene 2"><g id="Ńëîé_1" data-name="Ńëîé 1"><path class="cls-1" d="M37.79,10.13H2.71a20.25,20.25,0,0,1,35.08,0Z"/><path class="cls-2" d="M37.79,30.38a20.26,20.26,0,0,1-35.08,0Z"/><path d="M40.5,20.25a20.21,20.21,0,0,1-2.71,10.13H2.71a20.27,20.27,0,0,1,0-20.25H37.79A20.14,20.14,0,0,1,40.5,20.25Z"/><path class="cls-3" d="M21.28,24.64a4.39,4.39,0,1,1,2.62-7.92,5.08,5.08,0,1,0,0,7.06A4.38,4.38,0,0,1,21.28,24.64Z"/><polygon class="cls-3" points="25.33 16.73 26.92 18.9 29.47 18.07 27.89 20.25 29.48 22.42 26.92 21.59 25.34 23.77 25.34 21.08 22.78 20.25 25.34 19.42 25.33 16.73"/></g></g></svg>