<svg xmlns="http://www.w3.org/2000/svg" viewBox="0 0 40.5 40.5"><defs><style>.cls-1{fill:#002b7f;}.cls-2{fill:#ce1126;}.cls-3{fill:#ffd83d;}</style></defs><g id="Ebene_2" data-name="Ebene 2"><g id="Ńëîé_1" data-name="Ńëîé 1"><path class="cls-1" d="M40.5,20.25H0a20.25,20.25,0,0,1,40.5,0Z"/><path class="cls-2" d="M40.5,20.25a20.25,20.25,0,0,1-40.5,0Z"/><polygon class="cls-3" points="13.3 3.59 12.94 4.23 13.3 4.88 13.66 4.23 13.3 3.59"/><path d="M13.3,4.93s0,0,0,0l-.36-.64a0,0,0,0,1,0,0l.36-.65a.06.06,0,0,1,.09,0l.35.65a0,0,0,0,1,0,0l-.35.64A.05.05,0,0,1,13.3,4.93Zm-.3-.7.3.54.3-.54-.3-.54Z"/><path d="M20.21,11.31a2.47,2.47,0,0,0-1.1-.4c.66-2.44-.32-3.1-1.16-3.41a5.4,5.4,0,0,0-2.69.13,9.32,9.32,0,0,1-2,.34,9.2,9.2,0,0,1-2-.34A5.4,5.4,0,0,0,8.66,7.5c-.85.31-1.83,1-1.16,3.41a2.5,2.5,0,0,0-1.11.4c-.06,0,0,.12,0,.17a4.91,4.91,0,0,1,.78,1.35c.24.55.65,1.87,1.08,2.13s.89.57,5,.67c4.13-.1,4.61-.41,5-.67s.85-1.58,1.08-2.13a5.5,5.5,0,0,1,.78-1.35C20.24,11.43,20.27,11.36,20.21,11.31Z"/><polygon class="cls-3" points="14.65 5.05 14 4.7 13.36 5.05 14 5.41 14.65 5.05"/><path d="M14,5.46h0l-.65-.36a.08.08,0,0,1,0,0l0,0L14,4.65a0,0,0,0,1,0,0l.64.36a.05.05,0,0,1,0,0,.05.05,0,0,1,0,0L14,5.46Zm-.54-.41.54.3.54-.3L14,4.75Z"/><polygon class="cls-3" points="11.96 5.05 12.6 4.7 13.24 5.05 12.6 5.41 11.96 5.05"/><path d="M12.6,5.46h0l-.65-.36a.08.08,0,0,1,0,0l0,0,.65-.36a0,0,0,0,1,.05,0l.64.36a.05.05,0,0,1,0,0,.05.05,0,0,1,0,0l-.64.36Zm-.54-.41.54.3.54-.3-.54-.3Z"/><circle class="cls-3" cx="13.3" cy="7.72" r="0.26"/><path d="M13.3,8a.29.29,0,0,1-.3-.3.3.3,0,0,1,.3-.31.31.31,0,0,1,.31.31A.3.3,0,0,1,13.3,8Zm0-.51a.21.21,0,0,0-.2.21.2.2,0,0,0,.2.2.21.21,0,0,0,.21-.2A.22.22,0,0,0,13.3,7.51Z"/><path class="cls-3" d="M13.56,8.24a.26.26,0,0,1-.26.27.27.27,0,0,1,0-.53A.26.26,0,0,1,13.56,8.24Z"/><path d="M13.3,8.56a.32.32,0,1,1,.31-.32A.31.31,0,0,1,13.3,8.56Zm0-.53a.21.21,0,0,0-.21.21.21.21,0,1,0,.42,0A.21.21,0,0,0,13.3,8Z"/><path class="cls-3" d="M13.58,8.79a.27.27,0,0,1-.28.28A.28.28,0,0,1,13,8.79a.29.29,0,0,1,.28-.28A.28.28,0,0,1,13.58,8.79Z"/><path d="M13.3,9.12a.33.33,0,1,1,.33-.33A.33.33,0,0,1,13.3,9.12Zm0-.56a.24.24,0,0,0-.23.23A.23.23,0,0,0,13.3,9a.23.23,0,0,0,.23-.23A.23.23,0,0,0,13.3,8.56Z"/><path class="cls-3" d="M13.63,9.4a.33.33,0,1,1-.33-.33A.33.33,0,0,1,13.63,9.4Z"/><path d="M13.3,9.78a.38.38,0,1,1,.38-.38A.38.38,0,0,1,13.3,9.78Zm0-.66a.28.28,0,1,0,.28.28A.29.29,0,0,0,13.3,9.12Z"/><path class="cls-3" d="M13.65,10.07a.35.35,0,1,1-.35-.34A.35.35,0,0,1,13.65,10.07Z"/><path d="M13.3,10.47a.4.4,0,1,1,.4-.4A.4.4,0,0,1,13.3,10.47Zm0-.69a.3.3,0,1,0,0,.59.3.3,0,1,0,0-.59Z"/><circle class="cls-3" cx="13.91" cy="7.62" r="0.33"/><path d="M13.91,8a.4.4,0,1,1,0-.8.4.4,0,1,1,0,.8Zm0-.66a.27.27,0,0,0,0,.53.27.27,0,1,0,0-.53Z"/><circle class="cls-3" cx="14.67" cy="7.44" r="0.33"/><path d="M14.67,7.85a.41.41,0,1,1,.4-.41A.4.4,0,0,1,14.67,7.85Zm0-.67a.27.27,0,1,0,.26.26A.27.27,0,0,0,14.67,7.18Z"/><path class="cls-3" d="M15.76,7.26a.34.34,0,1,1-.34-.33A.34.34,0,0,1,15.76,7.26Z"/><path d="M15.42,7.66a.4.4,0,1,1,.4-.4A.4.4,0,0,1,15.42,7.66Zm0-.67a.27.27,0,1,0,.27.27A.27.27,0,0,0,15.42,7Z"/><path class="cls-3" d="M16.53,7.13a.34.34,0,0,1-.67,0,.34.34,0,0,1,.67,0Z"/><path d="M16.2,7.53a.4.4,0,1,1,.4-.4A.4.4,0,0,1,16.2,7.53Zm0-.66a.27.27,0,1,0,.26.26A.27.27,0,0,0,16.2,6.87Z"/><path class="cls-3" d="M17.28,7.07A.33.33,0,1,1,17,6.73.33.33,0,0,1,17.28,7.07Z"/><path d="M17,7.47a.4.4,0,1,1,.4-.4A.4.4,0,0,1,17,7.47Zm0-.67a.27.27,0,1,0,0,.53.27.27,0,0,0,0-.53Z"/><path class="cls-3" d="M18,7.1a.34.34,0,0,1-.67,0,.34.34,0,0,1,.67,0Z"/><path d="M17.7,7.5a.4.4,0,1,1,.4-.4A.4.4,0,0,1,17.7,7.5Zm0-.67A.27.27,0,1,0,18,7.1.27.27,0,0,0,17.7,6.83Z"/><path class="cls-3" d="M18.75,7.34a.34.34,0,0,1-.67,0,.34.34,0,0,1,.67,0Z"/><path d="M18.41,7.74a.4.4,0,1,1,.4-.4A.4.4,0,0,1,18.41,7.74Zm0-.67a.27.27,0,0,0-.26.27.27.27,0,0,0,.53,0A.27.27,0,0,0,18.41,7.07Z"/><circle class="cls-3" cx="19.02" cy="7.78" r="0.33"/><path d="M19,8.18a.4.4,0,1,1,.4-.4A.4.4,0,0,1,19,8.18Zm0-.66a.27.27,0,1,0,.27.26A.27.27,0,0,0,19,7.52Z"/><circle class="cls-3" cx="19.44" cy="8.39" r="0.33"/><path d="M19.44,8.79a.4.4,0,1,1,.4-.4A.4.4,0,0,1,19.44,8.79Zm0-.66a.27.27,0,1,0,.27.26A.27.27,0,0,0,19.44,8.13Z"/><circle class="cls-3" cx="19.64" cy="9.12" r="0.33"/><path d="M19.64,9.52a.4.4,0,1,1,.4-.4A.4.4,0,0,1,19.64,9.52Zm0-.66a.27.27,0,0,0,0,.53.27.27,0,1,0,0-.53Z"/><circle class="cls-3" cx="19.64" cy="9.87" r="0.33"/><path d="M19.64,10.27a.4.4,0,1,1,.4-.4A.4.4,0,0,1,19.64,10.27Zm0-.66a.26.26,0,0,0-.26.26.27.27,0,1,0,.53,0A.26.26,0,0,0,19.64,9.61Z"/><circle class="cls-3" cx="19.49" cy="10.62" r="0.33"/><path d="M19.49,11a.4.4,0,1,1,.4-.4A.4.4,0,0,1,19.49,11Zm0-.67a.27.27,0,0,0,0,.54.27.27,0,0,0,0-.54Z"/><circle class="cls-3" cx="12.69" cy="7.62" r="0.33"/><path d="M12.69,8a.4.4,0,1,1,.4-.4A.4.4,0,0,1,12.69,8Zm0-.66a.27.27,0,1,0,0,.53.27.27,0,0,0,0-.53Z"/><path class="cls-3" d="M11.6,7.44a.34.34,0,1,0,.67,0,.34.34,0,0,0-.67,0Z"/><path d="M11.94,7.85a.41.41,0,1,1,.4-.41A.4.4,0,0,1,11.94,7.85Zm0-.67a.27.27,0,1,0,.26.26A.27.27,0,0,0,11.94,7.18Z"/><path class="cls-3" d="M10.85,7.26a.33.33,0,1,0,.33-.33A.33.33,0,0,0,10.85,7.26Z"/><path d="M11.18,7.66a.4.4,0,1,1,.4-.4A.4.4,0,0,1,11.18,7.66Zm0-.67a.27.27,0,0,0,0,.54.27.27,0,0,0,0-.54Z"/><path class="cls-3" d="M10.07,7.13a.34.34,0,0,0,.67,0,.34.34,0,0,0-.67,0Z"/><path d="M10.41,7.53a.4.4,0,1,1,.4-.4A.4.4,0,0,1,10.41,7.53Zm0-.66a.27.27,0,1,0,.26.26A.27.27,0,0,0,10.41,6.87Z"/><path class="cls-3" d="M9.32,7.07a.34.34,0,0,0,.67,0,.34.34,0,1,0-.67,0Z"/><path d="M9.65,7.47a.4.4,0,1,1,.4-.4A.4.4,0,0,1,9.65,7.47Zm0-.67a.27.27,0,1,0,.27.27A.27.27,0,0,0,9.65,6.8Z"/><path class="cls-3" d="M8.57,7.1a.33.33,0,0,0,.66,0,.33.33,0,0,0-.66,0Z"/><path d="M8.9,7.5a.4.4,0,1,1,.4-.4A.4.4,0,0,1,8.9,7.5Zm0-.67a.27.27,0,0,0,0,.53.27.27,0,1,0,0-.53Z"/><polygon class="cls-3" points="13.3 6.52 13.66 5.88 13.3 5.23 12.94 5.88 13.3 6.52"/><path d="M13.3,6.57s0,0,0,0L12.9,5.9a0,0,0,0,1,0-.05l.36-.64a0,0,0,0,1,.09,0l.35.64a0,0,0,0,1,0,.05l-.35.64A.05.05,0,0,1,13.3,6.57Zm-.3-.7.3.54.3-.54-.3-.54Z"/><path class="cls-3" d="M7.86,7.34a.33.33,0,1,0,.66,0,.33.33,0,0,0-.66,0Z"/><path d="M8.19,7.74a.4.4,0,1,1,.4-.4A.4.4,0,0,1,8.19,7.74Zm0-.67a.27.27,0,0,0-.27.27.27.27,0,0,0,.54,0A.27.27,0,0,0,8.19,7.07Z"/><circle class="cls-3" cx="7.58" cy="7.78" r="0.33"/><path d="M7.58,8.18a.4.4,0,1,1,.4-.4A.4.4,0,0,1,7.58,8.18Zm0-.66a.27.27,0,0,0,0,.53.27.27,0,1,0,0-.53Z"/><circle class="cls-3" cx="7.16" cy="8.39" r="0.33"/><path d="M7.16,8.79a.4.4,0,1,1,.4-.4A.4.4,0,0,1,7.16,8.79Zm0-.66a.27.27,0,0,0,0,.53.27.27,0,1,0,0-.53Z"/><circle class="cls-3" cx="6.96" cy="9.12" r="0.33"/><path d="M7,9.52a.4.4,0,1,1,.4-.4A.4.4,0,0,1,7,9.52Zm0-.66a.27.27,0,1,0,.27.26A.27.27,0,0,0,7,8.86Z"/><circle class="cls-3" cx="6.96" cy="9.87" r="0.33"/><path d="M7,10.27a.4.4,0,1,1,.4-.4A.4.4,0,0,1,7,10.27Zm0-.66a.26.26,0,0,0-.27.26.27.27,0,1,0,.54,0A.26.26,0,0,0,7,9.61Z"/><circle class="cls-3" cx="13.3" cy="6.75" r="0.72"/><path d="M13.3,7.51a.77.77,0,1,1,.77-.76A.77.77,0,0,1,13.3,7.51Zm0-1.43a.67.67,0,1,0,.67.67A.67.67,0,0,0,13.3,6.08Z"/><circle class="cls-3" cx="7.11" cy="10.62" r="0.33"/><path d="M7.11,11a.4.4,0,1,1,0-.8.4.4,0,0,1,0,.8Zm0-.67a.27.27,0,1,0,.27.27A.27.27,0,0,0,7.11,10.35Z"/><path d="M12.63,6.58l0-.1s.2,0,.43-.06V6h.1v.48h0A2.91,2.91,0,0,0,12.63,6.58Z"/><path d="M14,6.58a3.14,3.14,0,0,0-.47-.06h0V6h.1v.38c.24,0,.43.06.44.06Z"/><path d="M14,7h0a2.73,2.73,0,0,0-1.35,0,.06.06,0,0,1-.07,0,.05.05,0,0,1,0-.07,2.65,2.65,0,0,1,1.41,0,0,0,0,0,1,0,.06A0,0,0,0,1,14,7Z"/><path class="cls-3" d="M13.56,5.05a.26.26,0,0,1-.26.26.26.26,0,0,1-.25-.26.25.25,0,0,1,.25-.25A.26.26,0,0,1,13.56,5.05Z"/><path d="M13.3,5.36a.3.3,0,0,1-.3-.31.29.29,0,0,1,.3-.3.3.3,0,0,1,.31.3A.31.31,0,0,1,13.3,5.36Zm0-.51a.2.2,0,0,0-.2.2.2.2,0,0,0,.2.21.21.21,0,1,0,0-.41Z"/><path class="cls-3" d="M17.7,12.11s-.07,0-.07,0c-.05-1.1-.49-1.55-.95-1.56-.78,0-1.47,1-1.75,1.39a.08.08,0,0,1-.14,0,1.34,1.34,0,0,0-1.49-1.38,1.35,1.35,0,0,0-1.49,1.38.08.08,0,0,1-.14,0c-.28-.44-1-1.4-1.75-1.39-.45,0-.9.46-.94,1.56,0,0-.06.05-.08,0a1.48,1.48,0,0,0-2.37-.71,6.32,6.32,0,0,1,.7,1.15,10.55,10.55,0,0,0,1,2.11.67.67,0,0,1,.25-.11l-.05-.23.09,0,.05.22.18,0-.05-.23.09,0,.05.24.18,0,0-.23h.09l0,.23.18,0,0-.25h.09l0,.24.25,0,0-.23h.1v.23l.28,0v-.2h.09v.2l.28,0,0-.29h.09l0,.29.26,0,0-.24h.09l0,.24H11V14h.1v.27h.23v-.29h.09v.29h.26v-.27h.09v.27H12V13.9h.09v.29h.27v-.3h.09v.29h.31v-.31h.09v.31h.41v-.34h.09v.34h.4v-.31h.1v.31h.3v-.29h.09v.3h.27V13.9h.09v.29h.23v-.27h.09v.27h.26v-.29h.1v.29h.23V14h.09v.28h.21l0-.24h.09v.24l.25,0,0-.29h.09l0,.29.28,0v-.2h.1l0,.2.28,0,0-.23H17l0,.23.25,0,0-.24h.1l0,.25.18,0,0-.23h.09l0,.23.18,0,0-.24.09,0-.05.23.18,0,.05-.22.09,0-.05.23c.21.06.25.11.25.11a10.55,10.55,0,0,0,1-2.11,6.32,6.32,0,0,1,.7-1.15A1.48,1.48,0,0,0,17.7,12.11Zm-9.35-.34H8.4l0,0a.3.3,0,0,1,0,.26h0s0-.07-.05-.11a1.09,1.09,0,0,1,0-.18Zm-.3-.16h.06a.12.12,0,0,1,.06.06.28.28,0,0,1,0,.09.86.86,0,0,1,0,.16s0,0,0,0h0v0l-.07-.14,0,0v-.08S8,11.62,8.05,11.61Zm-.36-.06s0,0,0,0h0a.09.09,0,0,1,.08,0,.43.43,0,0,1,0,.07,1,1,0,0,0,0,.16,0,0,0,0,0,0,0v0a.06.06,0,0,1,0,0l0,0h0l0,0,0,0,0-.09A.25.25,0,0,1,7.69,11.55Zm-.36.23a0,0,0,0,1,0,0h0a.88.88,0,0,0-.15-.12l-.06,0,0,0a.06.06,0,0,1,0-.06s0,0,.07,0a.55.55,0,0,1,.24.15s0,0,0,0a.06.06,0,0,1,0,0A0,0,0,0,1,7.33,11.78Zm.23,0h0l0,0-.11-.12,0,0a.11.11,0,0,1,0-.11s0,0,0,0l0,0,0,0,.07.08s0,.05.06.09A.05.05,0,0,1,7.56,11.77ZM8.68,13.7a3,3,0,0,0-.33-.4.9.9,0,0,0-.2-.19L8,13a3.92,3.92,0,0,0-.32-.25l-.07,0a.06.06,0,0,1,0-.08s0,0,.08,0l.13,0,.1.05a.13.13,0,0,0,.12,0s0,0,0,0v0a1.07,1.07,0,0,0-.18-.39s-.07-.08-.06-.13a.12.12,0,0,1,.11,0,2.26,2.26,0,0,1,.37.39s.07.09.12.08,0,0,.05,0,.06-.16.1-.24,0,0,0,0h0s0,.05,0,.08a.28.28,0,0,1,0,.09c0,.11-.07.2-.09.31a1.93,1.93,0,0,0,0,.34,1.17,1.17,0,0,0,.05.27.78.78,0,0,0,.09.21.11.11,0,0,1,0,.08C8.73,13.8,8.7,13.73,8.68,13.7Zm1.86-2.65a.08.08,0,0,1,0-.05,0,0,0,0,1,.06,0,.05.05,0,0,1,0,.05l0,0,0,.05a.43.43,0,0,0,0,.05.53.53,0,0,1,0,.12.13.13,0,0,1,0,.06h0a0,0,0,0,1-.05,0h0a.67.67,0,0,1-.06-.12.91.91,0,0,1-.07-.14A.28.28,0,0,1,10.54,11.05ZM10.22,11a.07.07,0,0,1,0-.06,0,0,0,0,1,.05,0,.05.05,0,0,1,0,.05.56.56,0,0,1,0,.12.28.28,0,0,1,0,.12.09.09,0,0,1,0,0,0,0,0,0,1,0,0s0,0,0,0a.51.51,0,0,0-.09-.18l0,0A.06.06,0,0,1,10.22,11Zm-.29,0s0,0,0,0h0s.07.06.09.1l0,.08a.41.41,0,0,1,.05.09.08.08,0,0,1,0,.07s0,0-.06,0l0,0-.1-.17S9.92,11,9.93,11Zm-.44,1.2h0a.08.08,0,0,1-.07,0,.1.1,0,0,1,0-.05,1.47,1.47,0,0,0-.1-.13s0,0,0,0a.43.43,0,0,0,0,0l0,0h0a.16.16,0,0,1,.09.07l0,0,0,0,0,0,0,0A.17.17,0,0,1,9.49,12.17Zm.1-.3s0,0-.06,0a.18.18,0,0,1-.08-.07l-.12-.14a.43.43,0,0,1,0-.07s0,0,0-.06l0,0h0s0,0,0,0a1,1,0,0,0,.08.11.71.71,0,0,1,.1.14s0,0,0,0,0,0,0,0A.08.08,0,0,1,9.59,11.87Zm.11-.29h0s0,0,0,0,0,0,0-.05a.76.76,0,0,1-.08-.11.18.18,0,0,1,0-.12s0,0,0,0a0,0,0,0,1,.06,0l0,0,0,.06a.42.42,0,0,1,.08.22Zm.07-.28,0-.13a.17.17,0,0,1,0-.05s0,0,0-.06a0,0,0,0,1,0,0,.1.1,0,0,1,0,0c0,.05,0,.09,0,.13a.19.19,0,0,1,0,.08.07.07,0,0,1,0,0l0,0Zm1,.64a2.76,2.76,0,0,1-.08.27,1.26,1.26,0,0,0,0,.39c0,.07,0,.13,0,.2a2.07,2.07,0,0,0,0,.35c0,.06,0,.12,0,.18s0,.05,0,.07,0,0,0,0a.05.05,0,0,1-.05,0s0,0,0-.05a1.68,1.68,0,0,0-.3-.65,3.6,3.6,0,0,0-.5-.53s0,0,0-.06.05,0,.07,0l.1.05.07.06a.12.12,0,0,0,.1,0s.05-.08.05-.12c0-.2-.12-.38-.12-.58,0,0,0-.08.05-.08s0,0,0,.05a2.89,2.89,0,0,0,.29.55s0,0,.06,0,.07-.06.1-.1a.47.47,0,0,1,.06-.09s0,0,.06,0S10.79,11.92,10.78,11.94Zm.25-.39h0a.09.09,0,0,1,0-.06.77.77,0,0,1-.07-.26v0a0,0,0,0,1,0,0l0,0a.34.34,0,0,1,0,.17S11.06,11.52,11,11.55Zm1.22.37,0,0h0l0,0a0,0,0,0,1,0,0,.69.69,0,0,1-.05-.24s0,0,0,0a0,0,0,0,1,.06,0h0a.47.47,0,0,1,0,.1A.74.74,0,0,1,12.25,11.92Zm.15-.33,0,0a.14.14,0,0,1,0-.06l0-.07a.29.29,0,0,1,0-.09.07.07,0,0,1,0,0,.07.07,0,0,1,0-.06.06.06,0,0,1,.08,0,.11.11,0,0,1,0,.08.39.39,0,0,1,0,.15S12.44,11.59,12.4,11.59ZM13.9,11a.07.07,0,0,1,0-.05.06.06,0,0,1,.09,0c.05,0,0,.11,0,.16a.77.77,0,0,1,0,.15s0,0,0,0a0,0,0,0,1,0,0,0,0,0,0,1,0,0s0-.08,0-.12V11Zm-.3-.07s0-.07,0-.09a0,0,0,0,1,.08,0l0,0a.34.34,0,0,1,0,.1l0,.13,0,.05s0,0,0,0a0,0,0,0,1,0,0A.4.4,0,0,1,13.6,10.9Zm-.23.07v-.15a.06.06,0,0,1,0,0s0,0,0,0h.05v0a1.31,1.31,0,0,1,0,.28.07.07,0,0,0,0,.05s-.08.06-.09,0A.49.49,0,0,1,13.37,11Zm-.25-.17a0,0,0,0,1,0,0h0s0,0,.05,0a.06.06,0,0,1,0,0V11a1,1,0,0,1,0,.17s-.08,0-.1,0v-.05A.89.89,0,0,1,13.12,10.8Zm-.25,0,0,0a.06.06,0,0,1,.09,0,.13.13,0,0,1,0,.09.4.4,0,0,1,0,.22,0,0,0,0,1,0,0,0,0,0,0,1,0,0,.09.09,0,0,1,0-.05l0-.13A.17.17,0,0,1,12.87,10.85Zm-.27.06a.06.06,0,0,1,.09,0,.07.07,0,0,1,0,.05.34.34,0,0,1,0,.1.31.31,0,0,1,0,.1v.05a.05.05,0,0,1,0,0,0,0,0,0,1-.05,0s0,0,0,0a.49.49,0,0,0,0-.12C12.57,11,12.55,11,12.6,10.91Zm1.46.84a2.45,2.45,0,0,0-.69,1.7s0,.05-.07,0h0c-.06,0-.06,0-.06,0a2.45,2.45,0,0,0-.7-1.7s0-.16.12,0a.45.45,0,0,0,.36.18.38.38,0,0,0,.22-.36c0-.25.06-.24.06-.24h0s.06,0,.06.24a.39.39,0,0,0,.22.36.45.45,0,0,0,.36-.18C14.07,11.59,14.08,11.73,14.06,11.75Zm.25-.4,0,.09,0,.07,0,.06,0,0s0-.09,0-.11a.77.77,0,0,1,0-.15.09.09,0,0,1,0-.08,0,0,0,0,1,.07,0,.07.07,0,0,1,0,.06Zm.14.53a0,0,0,0,0,0,0l0,0h0l0,0a.5.5,0,0,1,0-.21.42.42,0,0,1,0-.1h0a.06.06,0,0,1,.07,0v0A1,1,0,0,1,14.45,11.88Zm1.18-.38a.09.09,0,0,1,0,.06h0s0-.1,0-.14a.48.48,0,0,1,0-.17l0,0s0,0,0,0a0,0,0,0,1,0,0A.79.79,0,0,1,15.63,11.5Zm.82-.3a.41.41,0,0,1,.05-.09l0-.08s0-.09.08-.1h0s0,0,0,0,0,.07,0,.11l-.1.17s0,0,0,0,0,0-.06,0A.15.15,0,0,1,16.45,11.2Zm-.22-.09s0-.08,0-.12,0,0,0-.05a0,0,0,0,1,.05,0s0,0,0,.06a.13.13,0,0,1,0,.06s0,0,0,0a.76.76,0,0,0-.09.18s0,0,0,0,0,0,0,0a.09.09,0,0,1,0,0A.28.28,0,0,1,16.23,11.11Zm-.37.22,0-.12s0,0,0-.05,0,0,0-.05l0,0L16,11A0,0,0,0,1,16,11s0,0,0,.05a.28.28,0,0,1,0,.09.91.91,0,0,1-.07.14.67.67,0,0,1-.06.12h0a0,0,0,0,1-.05,0h0A.06.06,0,0,1,15.86,11.33Zm.89.86a3.14,3.14,0,0,0-.5.53,1.57,1.57,0,0,0-.31.65.08.08,0,0,1,0,.05.05.05,0,0,1-.05,0s0,0,0,0,0-.05,0-.07,0-.12,0-.18l0-.35c0-.07,0-.13,0-.2a1.26,1.26,0,0,0,0-.39c0-.09-.07-.18-.09-.27a.07.07,0,0,1,0,0s.05,0,.06,0L16,12s0,.1.09.1a.1.1,0,0,0,.07,0,2.38,2.38,0,0,0,.28-.55s0-.05.05-.05.05.05.05.08c0,.2-.1.38-.11.58,0,0,0,.1.05.12a.1.1,0,0,0,.09,0l.07-.06.1-.05s.07,0,.08,0S16.76,12.17,16.75,12.19Zm.14-1-.06.13s0,0,0,0l0,0a.1.1,0,0,1,0,0,.19.19,0,0,1,0-.08.5.5,0,0,0,.05-.13.1.1,0,0,1,0,0,.07.07,0,0,1,.06,0,.06.06,0,0,1,0,.06A.43.43,0,0,0,16.89,11.17Zm0,.42h0v0a.53.53,0,0,1,.08-.22l0-.06a.08.08,0,0,1,0,0s0,0,.05,0,0,0,0,0a.25.25,0,0,1,0,.12.76.76,0,0,0-.08.11l0,.05A.09.09,0,0,1,16.93,11.59Zm.08.28s0,0,0,0v0a1.71,1.71,0,0,1,.11-.14l.07-.11s0,0,0,0h.05a0,0,0,0,1,0,0,.13.13,0,0,1,0,.06.16.16,0,0,1,0,.07,1.71,1.71,0,0,0-.11.14s-.05.06-.09.07S17,11.89,17,11.87Zm.38.08,0,0a.69.69,0,0,0-.11.13.1.1,0,0,1,0,.05s0,0-.06,0h0a.09.09,0,0,1,0-.07l0,0,0,0,0,0,.05,0a.18.18,0,0,1,.08-.07h0l0,0A.11.11,0,0,1,17.39,12Zm1.31-.14s0,0,0,0,0-.11.06-.16a.16.16,0,0,1,0-.07.08.08,0,0,1,.07,0h0v0a.21.21,0,0,1,0,.17l0,.09,0,0,0,0h0s0,0,0,0a.06.06,0,0,1,0,0Zm-.27-.06a.28.28,0,0,1,0-.09.15.15,0,0,1,0-.06h.07a.07.07,0,0,1,0,.05.11.11,0,0,1,0,.08s0,0,0,0l-.06.14s0,0,0,0h0s0,0,0,0A.43.43,0,0,1,18.43,11.75Zm-.26.07,0,0h.05v0a.55.55,0,0,1,0,.18s0,.09-.05.11h0A.3.3,0,0,1,18.17,11.82Zm.81.89a.13.13,0,0,1-.07,0,3.76,3.76,0,0,0-.31.25l-.15.1a1.19,1.19,0,0,0-.2.19,4.12,4.12,0,0,0-.33.4s-.05.1-.06,0a.11.11,0,0,1,0-.08.78.78,0,0,0,.09-.21.81.81,0,0,0,.05-.27,1.29,1.29,0,0,0,0-.34c0-.11-.06-.2-.08-.31a.29.29,0,0,1,0-.09s0-.07.06-.08h0a0,0,0,0,1,0,0c0,.08,0,.18.11.24a.05.05,0,0,0,.05,0s.08,0,.11-.08a2.72,2.72,0,0,1,.37-.39.13.13,0,0,1,.12,0,.22.22,0,0,1-.06.13,1.09,1.09,0,0,0-.19.39v0l0,0a.13.13,0,0,0,.12,0l.11-.05.12,0s.06,0,.08,0A.06.06,0,0,1,19,12.71Zm.26-1.1-.12.12,0,0H19s0,0,0-.07,0-.06.07-.09l.06-.08,0,0,0,0s0,0,.05,0a.11.11,0,0,1,0,.11A.05.05,0,0,1,19.24,11.61Zm.31,0-.05,0a1.67,1.67,0,0,0-.16.12h0s0,0,0,0v0s0,0,0,0l0,0a.55.55,0,0,1,.24-.15s.06,0,.07,0,0,0,0,.06Z"/><path class="cls-3" d="M13.59,8.06,13.92,8a11.47,11.47,0,0,0,.46,2.66,2.2,2.2,0,0,0-.5-.23s-.13-.82-.17-1.1S13.59,8.06,13.59,8.06Z"/><path class="cls-3" d="M14.07,8.38V8.05a12.71,12.71,0,0,1,3.24-.52c1.46,0,2.43,1.55,1.61,3.39a1.74,1.74,0,0,0-.56.19s1.42-3-1.05-3.24a5.77,5.77,0,0,0-1.52.1C15.36,8.06,14.07,8.38,14.07,8.38Z"/><path class="cls-3" d="M14.35,9.27v.88a2.38,2.38,0,0,1-.08-.48A.85.85,0,0,1,14.35,9.27Z"/><path class="cls-3" d="M14.69,8.79v1.87a.7.7,0,0,1-.24-.27V9.08A1.93,1.93,0,0,1,14.69,8.79Z"/><path class="cls-3" d="M14.79,8.7l.26-.18v2.2h-.12a.34.34,0,0,1-.14,0Z"/><path class="cls-3" d="M15.14,8.46l.25-.13V10.7l-.25,0Z"/><path class="cls-3" d="M15.49,8.29l.23-.1v2.44l-.23.06Z"/><path class="cls-3" d="M15.82,8.15l.26-.08v2.44l-.12,0-.14,0Z"/><path class="cls-3" d="M16.17,8l.25,0v2.45l-.25,0Z"/><path class="cls-3" d="M16.52,8l.24,0v2.49h-.24Z"/><path class="cls-3" d="M16.86,8h.25v2.61a.93.93,0,0,0-.25-.1Z"/><path class="cls-3" d="M17.21,8l.23,0v2.85s0,0,0,0l-.21-.19Z"/><path class="cls-3" d="M17.54,8l.25.08v3a.49.49,0,0,1-.25-.15Z"/><path class="cls-3" d="M17.89,8.14a1.28,1.28,0,0,1,.25.15v2.76a.47.47,0,0,1-.21.06h0Z"/><path class="cls-3" d="M18.24,8.37a1.09,1.09,0,0,1,.23.29v2a.83.83,0,0,1-.23.36Z"/><path class="cls-3" d="M18.64,9.37a5.33,5.33,0,0,1-.07.9V8.89A1.43,1.43,0,0,1,18.64,9.37Z"/><path class="cls-3" d="M13,8.06,12.68,8a11.47,11.47,0,0,1-.46,2.66,2.2,2.2,0,0,1,.5-.23s.13-.82.17-1.1S13,8.06,13,8.06Z"/><path class="cls-3" d="M12.53,8.38V8.05a12.71,12.71,0,0,0-3.24-.52c-1.46,0-2.42,1.55-1.6,3.39a1.64,1.64,0,0,1,.55.19s-1.42-3,1-3.24a5.84,5.84,0,0,1,1.53.1C11.25,8.06,12.53,8.38,12.53,8.38Z"/><path class="cls-3" d="M12.25,9.27v.88a2.38,2.38,0,0,0,.08-.48A.85.85,0,0,0,12.25,9.27Z"/><path class="cls-3" d="M11.91,8.79v1.87a.7.7,0,0,0,.24-.27V9.08A1.93,1.93,0,0,0,11.91,8.79Z"/><path class="cls-3" d="M11.81,8.7l-.25-.18v2.2h.11a.32.32,0,0,0,.14,0Z"/><path class="cls-3" d="M11.46,8.46l-.25-.13V10.7l.25,0Z"/><path class="cls-3" d="M11.11,8.29l-.23-.1v2.44l.23.06Z"/><path class="cls-3" d="M10.79,8.15l-.26-.08v2.44l.12,0,.14,0Z"/><path class="cls-3" d="M10.43,8l-.25,0v2.45l.25,0Z"/><path class="cls-3" d="M10.09,8,9.84,8v2.49h.25Z"/><path class="cls-3" d="M9.74,8H9.49v2.61a1.09,1.09,0,0,1,.25-.1Z"/><path class="cls-3" d="M9.4,8,9.16,8v2.85l0,0,.22-.19Z"/><path class="cls-3" d="M9.07,8l-.26.08v3A.55.55,0,0,0,9.07,11Z"/><path class="cls-3" d="M8.72,8.14a1.35,1.35,0,0,0-.26.15v2.76a.47.47,0,0,0,.21.06h.05Z"/><path class="cls-3" d="M8.36,8.37a1.09,1.09,0,0,0-.23.29v2a.93.93,0,0,0,.23.36Z"/><path class="cls-3" d="M8,9.37a5.33,5.33,0,0,0,.07.9V8.89A1.73,1.73,0,0,0,8,9.37Z"/></g></g></svg>