<svg viewBox="0 0 40.5 40.5" xmlns="http://www.w3.org/2000/svg"><path d="m40.5 20.25a20 20 0 0 1 -.5 4.33.13.13 0 0 1 0 .1.12.12 0 0 1 0 .08 20.24 20.24 0 0 1 -19.75 15.74 20 20 0 0 1 -11.8-3.81 20.22 20.22 0 0 1 0-32.88 20.23 20.23 0 0 1 29.16 6 .09.09 0 0 1 0 .08l.06.08a4.91 4.91 0 0 1 .33.59v.08.09a2.42 2.42 0 0 1 .21.39.75.75 0 0 1 .1.2 1.51 1.51 0 0 1 .11.22c.2.4.38.82.56 1.25 0 .1.06.2.1.3v.12a.36.36 0 0 1 0 .11 8.7 8.7 0 0 1 .41 1.25.31.31 0 0 1 0 .15.53.53 0 0 1 .05.15 17.73 17.73 0 0 1 .56 2.72.28.28 0 0 0 0 .1v.08a19.57 19.57 0 0 1 .4 2.48z" fill="#ffbe29"/><path d="m40.5 20.25a20 20 0 0 1 -.5 4.33.13.13 0 0 1 0 .1.12.12 0 0 1 0 .08 20.25 20.25 0 0 1 -8.52 12.35h-19.65v-33.73h19.62a20.09 20.09 0 0 1 6.16 6.45.09.09 0 0 1 0 .08l.06.08a4.91 4.91 0 0 1 .33.59v.08.09a2.42 2.42 0 0 1 .21.39.75.75 0 0 1 .1.2 1.51 1.51 0 0 1 .11.22c.2.4.38.82.56 1.25 0 .1.06.2.1.3v.12a.36.36 0 0 1 0 .11 8.7 8.7 0 0 1 .41 1.25.31.31 0 0 1 0 .15.53.53 0 0 1 .05.15 17.73 17.73 0 0 1 .56 2.72.28.28 0 0 0 0 .1v.08a19.57 19.57 0 0 1 .4 2.46z" fill="#8d153a"/><path d="m39.2 13.11a3.53 3.53 0 0 1 -.77-1.77 1.51 1.51 0 0 1 .11.22c.2.4.38.82.56 1.25.04.1.06.19.1.3z" fill="#ffbe29"/><path d="m39.73 14.74a1.53 1.53 0 0 0 0 .34c0 .09-.13.13-.21.07a1.34 1.34 0 0 1 -.23-1.92.36.36 0 0 1 0 .11 8.7 8.7 0 0 1 .41 1.25.31.31 0 0 1 .03.15z" fill="#ffbe29"/><path d="m40.5 20.25a20 20 0 0 1 -.5 4.33.13.13 0 0 1 0 .1 7.65 7.65 0 0 0 -2 .67 14.15 14.15 0 0 1 -3 1.25.26.26 0 0 0 -.15.09c-.23.34-1.09 1.63-.82 2s.81.34 1.12.37a.24.24 0 0 1 .18.32 1.89 1.89 0 0 1 -.65.73 4.67 4.67 0 0 1 -1 .46.28.28 0 0 0 -.18.26c0 .24.12.64.1 1s-.58 1.3-1.65.56a1.17 1.17 0 0 1 -1.51 0 .87.87 0 0 1 -1.31 0s-1.26.87-.78-.36 1.2-1.03 1.65-1.03 1.56 0 1.56-1.44a7 7 0 0 0 -.59-2.3.28.28 0 0 0 -.16-.14 4.36 4.36 0 0 1 -1.68-.86s-.91 1.12-1.63 1.12c-.57 0-1.51-.95-1.85-1.32-.13-.15-.42-.17-.51 0a.33.33 0 0 0 0 .19c0 .07-.1.11-.17.07a.58.58 0 0 1 -.3-.49c0-.28 0-1.06-.05-1.36a.35.35 0 0 0 -.1-.19l-1.05-.88-.65-1.85.24-.9 1.33.19 2.74 2.74c-.08-.3-.93-3.57 3-5.82.23-.12.75-.54.58-.82s-.45-.14-.65.27a.25.25 0 0 1 -.35.08 2.38 2.38 0 0 1 -.5-.75s-.12.4-.3.4-.35-.25-.46-.4a.18.18 0 0 0 -.17 0l-1 .27.29-.61-1.35.15s.31-1.54.66-1.66c0 0-.66-.53-.47-.88s.23-.12 2 .58a5.19 5.19 0 0 0 2.07.44l-.95-1.34s-.05.51-.23.51-.65-.43-.65-.43v.54s-.62-.24-.77-.5-.95-1-1.22-1.38-.85-2 .33-2.2c.34 0 .91-.08.91 1a4.21 4.21 0 0 0 1.24-.22 4 4 0 0 1 .57-.14c.67 0 1.41-.21 1.41-.74a1.73 1.73 0 0 0 -.12-.45 4 4 0 0 1 1.43-.08c.35.13.83.52.93.52s.19-.19.19-.7 1.07-.07 1.71.63a2.7 2.7 0 0 0 .37-.78s.57-.12 1.49.73a.39.39 0 0 0 .24.12h.31l.06.08a4.91 4.91 0 0 1 .33.59v.08a3.35 3.35 0 0 1 -.4.53 1.74 1.74 0 0 1 .47 1.15v2.46c0 .14 0 .33-.27.24a3.65 3.65 0 0 0 .27 1.17c.2.42-.53 0-.53 0a1.59 1.59 0 0 0 .52 1.33.46.46 0 0 0 .31.13h1.94v.08a19.57 19.57 0 0 1 .13 2.49z" fill="#ffbe29"/><path d="m40.34 17.64h-1.93a.33.33 0 0 1 -.25-.1 1.53 1.53 0 0 1 -.49-1.14c.17.09.41.17.51.06s.07-.15 0-.27a3.6 3.6 0 0 1 -.25-1 .19.19 0 0 0 .13 0c.09 0 .12-.19.13-.31 0-.49 0-1.54 0-2.16v-.31a1.81 1.81 0 0 0 -.44-1.15c.13-.16.24-.31.33-.44v-.09-.08a3.83 3.83 0 0 1 -.43.56v.06.06a1.6 1.6 0 0 1 .45 1.08v.31 2.15s0 .16-.06.17h-.09l-.12-.05v.13a3.72 3.72 0 0 0 .27 1.2.67.67 0 0 0 0 .07.89.89 0 0 1 -.44-.15l-.09-.05v.11a1.69 1.69 0 0 0 .43 1.34.51.51 0 0 0 .37.15h1.94v-.08a.28.28 0 0 1 .03-.07zm-2.34 7.63a13.35 13.35 0 0 1 -3.08 1.24.35.35 0 0 0 -.2.14c-.44.62-1.11 1.71-.83 2.08a1.85 1.85 0 0 0 1.14.39.12.12 0 0 1 .1.07.09.09 0 0 1 0 .12 1.57 1.57 0 0 1 -.6.7 5.39 5.39 0 0 1 -1 .46.34.34 0 0 0 -.23.33 3.08 3.08 0 0 0 0 .38 2.86 2.86 0 0 1 .06.58.91.91 0 0 1 -.49.68 1 1 0 0 1 -1-.18l-.05-.05v.05a1.11 1.11 0 0 1 -1.41 0l-.05-.07-.07.07a1 1 0 0 1 -.59.28.8.8 0 0 1 -.58-.28l-.06-.05-.05.05c-.23.14-.62.33-.73.25s-.09-.11.07-.51a1.17 1.17 0 0 1 1.4-.91h.34c.59 0 1.56 0 1.56-1.52a7.11 7.11 0 0 0 -.6-2.34.31.31 0 0 0 -.22-.19 4.15 4.15 0 0 1 -1.63-.83l-.07-.06-.05.07s-.91 1.08-1.57 1.08-1.51-1-1.8-1.3a.43.43 0 0 0 -.39-.13.27.27 0 0 0 -.24.18.23.23 0 0 0 0 .17.52.52 0 0 1 -.26-.42c0-.28 0-1.05-.05-1.36a.33.33 0 0 0 -.12-.24l-1-.87-.62-1.81.21-.81 1.22.18 3 3-.11-.34a4.42 4.42 0 0 1 0-2 5.65 5.65 0 0 1 3-3.75 1.52 1.52 0 0 0 .64-.68.29.29 0 0 0 0-.27c-.09-.15-.2-.23-.31-.21s-.36.25-.48.5a.2.2 0 0 1 -.1.08.18.18 0 0 1 -.12 0 2 2 0 0 1 -.47-.72l-.1-.2-.06.22c0 .16-.15.34-.22.34s-.16-.09-.39-.36a.26.26 0 0 0 -.27-.09l-.84.22.27-.58-1.37.16c.13-.61.37-1.42.58-1.49l.13-.05-.11-.1c-.16-.12-.58-.54-.46-.77s.1-.12 1 .26l.89.36a5.43 5.43 0 0 0 2.12.44h.13l-1.16-1.62v.22a.76.76 0 0 1 -.14.44 1.92 1.92 0 0 1 -.59-.4l-.15-.13v.63a1.84 1.84 0 0 1 -.61-.42 4.82 4.82 0 0 0 -.61-.7 5.78 5.78 0 0 1 -.62-.69 2 2 0 0 1 -.31-1.66.89.89 0 0 1 1.16-.3 1.07 1.07 0 0 1 .23.83v.09h.1.3a3.21 3.21 0 0 0 1-.19 2.56 2.56 0 0 1 .53-.13c.74 0 1.5-.26 1.5-.83a1.19 1.19 0 0 0 -.13-.39 4.18 4.18 0 0 1 1.29-.07 4.19 4.19 0 0 1 .4.26 1.1 1.1 0 0 0 .39.2c.19 0 .27-.24.27-.78 0-.08 0-.11.07-.12.25-.1 1 .26 1.5.81l.07.08.07-.09a3.77 3.77 0 0 0 .36-.75 2.09 2.09 0 0 1 1.27.72.48.48 0 0 0 .3.13 1 1 0 0 0 .38 0l-.06-.08a.09.09 0 0 0 0-.08h-.27a.29.29 0 0 1 -.19-.08c-.94-.89-1.55-.76-1.56-.76h-.07v.06a2.15 2.15 0 0 1 -.31.66c-.48-.5-1.24-.92-1.61-.78a.31.31 0 0 0 -.17.28c0 .54-.08.61-.1.61a1.42 1.42 0 0 1 -.29-.18 2.73 2.73 0 0 0 -.6-.33 4.27 4.27 0 0 0 -1.45.06h-.11l.06.09a2.34 2.34 0 0 1 .13.42c0 .46-.69.66-1.32.66a2.75 2.75 0 0 0 -.58.14 3.18 3.18 0 0 1 -.93.19h-.25a1.11 1.11 0 0 0 -.3-.85 1 1 0 0 0 -1.43.35 2.27 2.27 0 0 0 .34 1.84c.13.17.38.44.63.7a5.65 5.65 0 0 1 .58.66 2.27 2.27 0 0 0 .81.54h.12v-.47a1.42 1.42 0 0 0 .57.34c.16 0 .23-.21.27-.39l.76 1.05a5.65 5.65 0 0 1 -1.89-.45c-.37-.15-.66-.25-.91-.36-.46-.19-.73-.28-.87-.33s-.29 0-.35.15c-.18.33.22.75.41.91a4.42 4.42 0 0 0 -.6 1.66v.12l1.32-.16-.29.63 1.17-.31s.08 0 .09 0c.35.42.49.42.53.42s.24-.14.31-.27a1.65 1.65 0 0 0 .45.6.31.31 0 0 0 .25.06.41.41 0 0 0 .21-.16c.14-.27.25-.42.33-.42s.14.08.18.15a.19.19 0 0 1 0 .13 1.32 1.32 0 0 1 -.57.58 5.79 5.79 0 0 0 -3.12 3.96 5 5 0 0 0 0 1.78l-2.56-2.56-1.44-.21-.27 1 .65 1.89 1.08.89a.17.17 0 0 1 .05.13c0 .31.07 1.07.07 1.35a.68.68 0 0 0 .34.57.22.22 0 0 0 .21 0 .15.15 0 0 0 .08-.14v-.06a.15.15 0 0 1 0-.08c0-.05.08-.06.12-.08a.28.28 0 0 1 .24.1c.38.4 1.33 1.35 1.92 1.35s1.43-.84 1.65-1.08a4.73 4.73 0 0 0 1.63.82.12.12 0 0 1 .11.08 6.91 6.91 0 0 1 .58 2.27c0 1.32-.77 1.35-1.39 1.36h-.33a1.33 1.33 0 0 0 -1.56 1c-.15.38-.16.61 0 .72s.69-.1.87-.22a.92.92 0 0 0 .67.27 1.07 1.07 0 0 0 .65-.27 1.25 1.25 0 0 0 1.51 0 1.18 1.18 0 0 0 1.15.18 1.14 1.14 0 0 0 .58-.84 2.61 2.61 0 0 0 -.06-.62c0-.14 0-.26 0-.35a.21.21 0 0 1 .13-.18 4.6 4.6 0 0 0 1-.47 1.87 1.87 0 0 0 .66-.76.28.28 0 0 0 0-.28.28.28 0 0 0 -.24-.12c-.29 0-.83-.1-1-.34s.17-.94.82-1.88h.1a14.47 14.47 0 0 0 3.11-1.26 8.64 8.64 0 0 1 1.87-.76.12.12 0 0 0 0-.08.13.13 0 0 0 0-.1 8.68 8.68 0 0 0 -2 .69zm1.71-10.53a.31.31 0 0 0 0-.15 1.71 1.71 0 0 0 -.09.49h-.07a1.24 1.24 0 0 1 -.25-1.74.36.36 0 0 0 0-.11v-.12c0-.1-.06-.2-.1-.3a3.23 3.23 0 0 1 -.56-1.25 1.51 1.51 0 0 0 -.11-.22.75.75 0 0 0 -.1-.2 3.71 3.71 0 0 0 .83 2 1.43 1.43 0 0 0 .26 2 .2.2 0 0 0 .23 0 .18.18 0 0 0 .12-.15c0-.06 0-.12 0-.17a.53.53 0 0 0 -.14-.08z"/><path d="m22 19.23s-.95-10.87 3-12.39a.14.14 0 0 1 .18.17c-.29.76-1 2.23-1 12.22 0 0 1.05-.08 1.05.86s-1.18 1.12-2 1.12-2.23-.14-2.23-1 .51-.98 1-.98z" fill="#ffbe29"/><path d="m23.11 21.3c-.7 0-2.32-.11-2.32-1.1s.63-1 1.15-1.06a38.28 38.28 0 0 1 0-5.54 16.5 16.5 0 0 1 .82-4.21 4.11 4.11 0 0 1 2.15-2.62.21.21 0 0 1 .24 0 .22.22 0 0 1 .05.23.42.42 0 0 0 0 .1c-.3.76-1 2.53-1 12a1.24 1.24 0 0 1 .79.27.91.91 0 0 1 .26.68c-.03.81-.8 1.25-2.14 1.25zm-1.07-2c-.54 0-1.08.11-1.08.89s1.51.93 2.15.93 1.94-.14 1.94-1a.71.71 0 0 0 -.21-.55 1.12 1.12 0 0 0 -.74-.23h-.1v-.09c0-9.58.67-11.31 1-12.15v-.1a0 0 0 0 0 0-.05s0 0-.06 0a4 4 0 0 0 -2.05 2.53 16.11 16.11 0 0 0 -.81 4.16 37.47 37.47 0 0 0 0 5.61v.09z"/><path d="m23 20.5c-.5 0-.81-.08-.93-.23a.22.22 0 0 1 0-.15.45.45 0 0 0 .17-.34.67.67 0 0 0 -.24-.48l.09-.09a.8.8 0 0 1 .28.57.6.6 0 0 1 -.19.42c0 .07.23.17.82.17s.84-.16.87-.21a.58.58 0 0 1 -.21-.42.71.71 0 0 1 .38-.56l.08.1a.62.62 0 0 0 -.33.46.48.48 0 0 0 .19.34.18.18 0 0 1 -.05.14 1.37 1.37 0 0 1 -.93.28z"/><path d="m31 27.32a.05.05 0 0 1 0 0 5.36 5.36 0 0 1 -.1-3.19.05.05 0 0 1 .05 0 0 0 0 0 1 0 .06 5.26 5.26 0 0 0 .1 3.13 0 0 0 0 1 0 .06z"/><path d="m34.76 26.73a0 0 0 0 1 0-.06 8.41 8.41 0 0 0 1.18-3.89s0 0 0-.05a0 0 0 0 1 0 .05 8.52 8.52 0 0 1 -1.19 3.94z"/><path d="m31 15.89a4.88 4.88 0 0 0 -1.54-.17 0 0 0 0 1 0 0 1.2 1.2 0 0 0 .23-.39 11.37 11.37 0 0 1 -2.75-.55.06.06 0 0 1 0-.06 0 0 0 0 1 .06 0 11.37 11.37 0 0 0 2.78.55s0 0 0 0a1.29 1.29 0 0 1 -.21.41 5.45 5.45 0 0 1 1.46.15c0-.09.09-.35-.43-.94 0 0-.08-.07-.06-.08s.16.07.18.09c.69.8.39 1 .36 1a0 0 0 0 1 0 0z"/><path d="m35.75 11.71a5 5 0 0 0 -.51-.4.36.36 0 0 0 .17.29l.1.09.09.07a0 0 0 0 1 0 .05h-1a1.86 1.86 0 0 1 -.34 0l-.26-.09h-.11-.08l-.14-.11a1.39 1.39 0 0 0 -.19-.15s0 0 0 0a.13.13 0 0 0 0 .06.19.19 0 0 0 0 .1.81.81 0 0 0 .12.14 3.78 3.78 0 0 1 .22.33s0 0 0 .06-.07.05-.11 0h-.19-.21-.2a1.74 1.74 0 0 1 -.38-.14h-.05-.09-.07a3.54 3.54 0 0 0 -.83-.34.64.64 0 0 0 -.43 0 .52.52 0 0 0 -.19.17.59.59 0 0 0 -.16.4.55.55 0 0 0 .17.35.33.33 0 0 0 .13.11.31.31 0 0 0 .13 0 1.1 1.1 0 0 0 .26 0 .32.32 0 0 0 .2-.16.84.84 0 0 0 .05-.17s0-.06 0-.1a.4.4 0 0 0 -.12-.22l-.1-.05h-.13a.33.33 0 0 1 .13.11.41.41 0 0 1 .1.3s0 .05 0 .07a.31.31 0 0 1 -.09.07h-.11-.13a.41.41 0 0 1 -.24-.08.37.37 0 0 1 -.1-.43.51.51 0 0 1 .25-.23.58.58 0 0 1 .22-.08.71.71 0 0 1 .32.07c.36.15.7.34 1.06.48a2.37 2.37 0 0 0 1.14.21h-.05a.09.09 0 0 0 0-.11.2.2 0 0 0 -.1-.08.75.75 0 0 1 -.15-.16s0 0 0 0 .07 0 .11 0a2.12 2.12 0 0 0 .79.14h.56a2.7 2.7 0 0 0 .41-.05h.09.05a.17.17 0 0 0 0-.07s.02-.42-.01-.45z"/><path d="m36.22 11 .25-.05a2 2 0 0 0 .72-.33.65.65 0 0 1 .36-.18c0 .06 0 .12-.1.16l-.3.21-.23.14-.22.05-.29.08h-.22a3.81 3.81 0 0 1 -.59.08l-.51.05a.19.19 0 0 1 -.15 0s0-.07 0-.1.14 0 .19 0l.72-.06z"/><path d="m32.06 14.09a1.44 1.44 0 0 0 .27.33l.19.18a.41.41 0 0 0 .13.1.16.16 0 0 0 .15 0 .3.3 0 0 0 .09-.13 1.85 1.85 0 0 1 .25-.37s0 0 .07 0c.24.14.41.37.63.52h.06s0 0 0-.06.05-.32.07-.49a.16.16 0 0 1 .05-.1c.06 0 .11 0 .13.1s0 .13.1.13.09 0 .12-.1l.14-.3c0-.05.06-.11.11-.12s.14.07.18.14a2.29 2.29 0 0 0 .18.29s0 0 0 0a1.6 1.6 0 0 0 .27-1s0-.09-.07-.08-.06.05-.06.09 0 .25 0 .38a.35.35 0 0 1 -.19.31.09.09 0 0 1 -.07 0 2.49 2.49 0 0 0 -.47-.5 1 1 0 0 0 0 .35.64.64 0 0 1 -.07.28s0 .07-.06.08-.11 0-.14-.08l-.3-.37s-.08-.08-.11 0a0 0 0 0 0 0 0 .55.55 0 0 0 .07.24.78.78 0 0 1 0 .26.32.32 0 0 1 0 .26.11.11 0 0 1 -.12 0 .1.1 0 0 1 0-.05 2.09 2.09 0 0 0 -.48-.41s-.07 0-.1 0a1.89 1.89 0 0 1 -.34.51s-.06 0-.09 0 0 0-.06 0-.06-.07-.07-.08l-.13-.09a.53.53 0 0 1 -.14-.12l-.15-.19a.41.41 0 0 0 -.05-.09.15.15 0 0 1 0-.07s0-.05 0-.07 0 0 0 0a.31.31 0 0 0 0 .19.64.64 0 0 0 .01.13z"/><path d="m35.78 13.69a2.43 2.43 0 0 1 .34.3c.05.08.1.16.14.24a.07.07 0 0 0 .12 0v-.14a3.13 3.13 0 0 0 .1-.44 3.12 3.12 0 0 0 0-.61s.1 0 .13.08a3.8 3.8 0 0 1 .18.84.87.87 0 0 0 .17.33 1.36 1.36 0 0 0 .24.24l.54.48a.13.13 0 0 0 .08 0c.09 0 .2 0 .17-.09a1.21 1.21 0 0 0 -.22-.15 2.39 2.39 0 0 1 -.63-.51 1.19 1.19 0 0 1 -.16-.23 2.37 2.37 0 0 1 -.09-.36l-.09-.31a1.78 1.78 0 0 0 -.17-.4 2.21 2.21 0 0 0 -.29-.32s0 0-.07 0a1.11 1.11 0 0 0 .06.4 2.44 2.44 0 0 1 .06.76.16.16 0 0 1 0 .09c0 .06-.13 0-.18 0a2.78 2.78 0 0 1 -.32-.26l-.17-.11s-.14-.07-.13 0 .08.06.1.08z"/><path d="m37.29 12.65a3 3 0 0 0 .65.57s0-.05 0-.07a3.43 3.43 0 0 0 -.55-.59s-.09-.08-.13 0 0 .06.03.09z"/><path d="m34.94 15.84s0 0 0 0a1.87 1.87 0 0 0 .26-.48.21.21 0 0 1 .12-.11c.07 0 .13.05.17.11l.23.23a.1.1 0 0 0 .07 0s.08 0 .11-.08a2.81 2.81 0 0 0 .21-.47s0 0 0 0a4.38 4.38 0 0 0 1.38 1.15c0-.07.18 0 .13-.05a4.35 4.35 0 0 0 -.42-.33 2.94 2.94 0 0 1 -.57-.43 1.47 1.47 0 0 1 -.43-.5.26.26 0 0 0 0-.09.1.1 0 0 0 -.09 0c-.13.16-.14.4-.29.54a.05.05 0 0 1 0 0c-.22-.2-.43-.4-.64-.62a.82.82 0 0 0 0 .27 1.11 1.11 0 0 1 0 .19.64.64 0 0 1 -.16.33.07.07 0 0 1 -.05 0 1.94 1.94 0 0 0 -.23-.26l-.14-.12s-.09-.07-.14-.07 0 .16.08.2.16.14.23.22a1.08 1.08 0 0 1 .17.37z"/><path d="m31.24 16.63c.18.22.11.56.31.77a1.81 1.81 0 0 0 .37-.68c0-.06 0-.13.11-.13s.07.05.09.09a1.37 1.37 0 0 1 .09.49.8.8 0 0 0 0 .31 4.37 4.37 0 0 0 .6-.69s0 0 0 0a.12.12 0 0 1 .1 0 .45.45 0 0 1 .21.2c.15.23.3.47.44.71a1.94 1.94 0 0 0 .14-.73s0 0 0-.05.08 0 .12 0l.21.14.82.58s.08 0 .1 0 0 0 0-.05v-.39-.2a.3.3 0 0 0 0-.16.5.5 0 0 0 -.08-.12c-.11-.11-.22-.22-.34-.32s-.16.08-.2.14-.1.12-.16.1a.24.24 0 0 1 -.09-.11 2.43 2.43 0 0 0 -.5-.73s-.05 0-.08 0h-.05a1.81 1.81 0 0 0 -.24.37c0 .07-.09.16-.17.16a.23.23 0 0 1 -.14-.08l-.29-.29a.83.83 0 0 1 -.32-.57c.24.2.38.54.66.7a.15.15 0 0 0 .17 0s.06-.05.08-.09.06-.33.15-.46a.1.1 0 0 1 0 0h.06a1.88 1.88 0 0 1 .82 1l.1-.29s0-.08.07-.09 0 0 .08 0a.31.31 0 0 1 .07.09.6.6 0 0 1 .06.11 2.67 2.67 0 0 0 .44.38l.27.18a1.2 1.2 0 0 0 .21.13s0-.06.06-.1a1 1 0 0 1 .41-.45.26.26 0 0 1 0 .23l-.09.38a.16.16 0 0 1 0 .09c-.05 0-.11 0-.15 0l-.49-.36v.79a.59.59 0 0 1 0 .23.25.25 0 0 1 -.27.14 1.13 1.13 0 0 0 -.58-.64l-.42-.28h-.07a.1.1 0 0 0 -.06.08c-.07.25-.06.54-.24.72-.13-.09-.16-.28-.23-.42a1.08 1.08 0 0 0 -.11-.18c-.08-.12-.18-.25-.27-.37s-.06 0-.08.06a2.84 2.84 0 0 1 -.66.68.09.09 0 0 1 -.07 0s-.05 0-.07-.05a.28.28 0 0 1 0-.09c0-.14 0-.29 0-.43a.12.12 0 0 0 0-.13.07.07 0 0 0 -.14.05.18.18 0 0 0 0 .07 1.44 1.44 0 0 1 -.46.52h-.06a.58.58 0 0 1 -.11-.37c-.08-.22-.11-.41-.13-.59z"/><path d="m32.62 19.47a2 2 0 0 0 .39-.53 3.11 3.11 0 0 1 .22-.53.07.07 0 0 1 .05 0s.08.05.09.11a1.54 1.54 0 0 0 .44.67.05.05 0 0 0 0 0s0 0 0 0a1.65 1.65 0 0 0 .18-.41 2.46 2.46 0 0 1 .07-.29 1.18 1.18 0 0 1 .19-.41c0-.05.1-.11.16-.09s.06.08.08.13a11 11 0 0 0 .5 1.43c0 .06.07.14.14.12h.06a2.82 2.82 0 0 0 .71-.71 1.2 1.2 0 0 0 .39.2h.12l.11.05a1.15 1.15 0 0 0 .36.11h.15l.16.06a.14.14 0 0 0 .15-.06v-.05c0-.26 0-.51 0-.76a.08.08 0 0 1 0-.07c0-.07.2 0 .26 0a1 1 0 0 0 .3 0h.14a.85.85 0 0 0 .16 0 1 1 0 0 0 .3-.05h.06s0-.05 0-.05l-.11-.1-.21-.24a.81.81 0 0 1 -.14-.12l-.1-.08a.65.65 0 0 0 -.26-.17 1.09 1.09 0 0 0 -.26-.05 1.74 1.74 0 0 1 -.55-.16 3.25 3.25 0 0 1 -.52-.28l-.17-.14s-.18-.17-.14-.24a1.5 1.5 0 0 1 .25.19 2.1 2.1 0 0 0 1.29.51h.38s.08.22.14.32.42.3.62.47v.09a1.25 1.25 0 0 1 -.49.17 6.77 6.77 0 0 1 -.78 0 3.52 3.52 0 0 0 0 .86.11.11 0 0 1 0 .08h-.07a4.77 4.77 0 0 1 -1.44-.39 1.71 1.71 0 0 1 -1 .8 2.33 2.33 0 0 0 -.08-.46 1.21 1.21 0 0 1 0-.18 6.15 6.15 0 0 0 -.31-.85.3.3 0 0 0 -.14-.17s0 0 0 0a1.62 1.62 0 0 0 -.14.44 2.21 2.21 0 0 1 -.34.77 1.3 1.3 0 0 1 -.14-.26c0-.08-.33-.58-.45-.42v.05a.94.94 0 0 1 -.2.35l-.33.43a.2.2 0 0 1 -.1.08.14.14 0 0 1 -.14-.1.41.41 0 0 1 0-.19.71.71 0 0 0 -.07-.35.07.07 0 0 0 -.06 0 0 0 0 0 0 0 0c-.08.13-.14.26-.22.38a.67.67 0 0 1 -.31.29c-.11 0-.24.05-.31.14s-.05.12-.13.11h-.05a.1.1 0 0 1 0-.07.22.22 0 0 1 0-.08.83.83 0 0 0 0-.38 2.58 2.58 0 0 0 -.08-.26c0-.06-.05-.17-.12-.19a.75.75 0 0 0 -.21 0h-.09l-.3.09h-.14a.32.32 0 0 1 -.17 0c-.07 0 0-.1.05-.13a2 2 0 0 0 .17-.23l.06-.09a2.54 2.54 0 0 0 .16-.38l.09-.21a.93.93 0 0 0 .05-.1s0-.09.05-.09a.08.08 0 0 1 .09.1.36.36 0 0 1 -.1.14c-.13.16-.12.38-.21.57a.62.62 0 0 0 -.12.26s0 0 0 0l.59-.29c.05 0 .12-.05.16 0a.15.15 0 0 1 0 .09 4.37 4.37 0 0 0 .09.5l.06.25c0 .07 0 .14.12.17h.05.1l.23-.17s0-.05.07-.08l.09-.11a1 1 0 0 0 .19-.45.59.59 0 0 1 .08-.32.71.71 0 0 1 .19.43l.06.22a1 1 0 0 0 -.12.36z"/><path d="m24.59 27.41a.42.42 0 0 0 -.44-.44c-.21 0-.36.27-.36.27-.84-.43 0-1.58 0-1.58-.55-.51-.37-.73-.37-.73.86.33.87-.19.87-.19 0-.53-.91-.36-.91-.36-.05-.24-.47-.52-.47-.52s-.42.28-.47.52c0 0-.91-.17-.91.36 0 0 0 .52.87.19 0 0 .18.22-.37.73 0 0 .81 1.15 0 1.58 0 0-.15-.27-.36-.27a.42.42 0 0 0 -.44.44c0 .29.57.7.94.7a2.56 2.56 0 0 1 -.53.55 3.9 3.9 0 0 0 .79.16s.16.74.51.74.51-.74.51-.74a3.9 3.9 0 0 0 .79-.16 2.56 2.56 0 0 1 -.53-.55c.29 0 .88-.41.88-.7z" fill="#ffbe29"/><path d="m22.88 29.65c-.35 0-.52-.55-.58-.75a3.85 3.85 0 0 1 -.75-.16h-.15l.12-.1c.23-.2.36-.34.44-.42-.39-.09-.88-.46-.88-.77a.51.51 0 0 1 .53-.53.52.52 0 0 1 .39.25.6.6 0 0 0 .25-.34 1.71 1.71 0 0 0 -.32-1.08v-.06h.05c.32-.29.37-.47.38-.56a.87.87 0 0 1 -.73 0 .42.42 0 0 1 -.18-.31.4.4 0 0 1 .15-.33 1.17 1.17 0 0 1 .79-.13 1.69 1.69 0 0 1 .48-.49h.05.05a1.69 1.69 0 0 1 .48.49 1.17 1.17 0 0 1 .79.13.4.4 0 0 1 .15.33.42.42 0 0 1 -.18.31.87.87 0 0 1 -.73 0c0 .1.08.28.38.56h.05v.06a1.71 1.71 0 0 0 -.32 1.08.6.6 0 0 0 .25.34.52.52 0 0 1 .39-.25.51.51 0 0 1 .53.53c0 .31-.49.68-.88.77.08.08.21.22.44.42l.12.1h-.15a3.85 3.85 0 0 1 -.75.16c-.13.2-.31.75-.66.75zm-.44-.92v.07c0 .18.2.68.43.68s.39-.5.43-.68v-.07h.08a2.83 2.83 0 0 0 .61-.11 2.41 2.41 0 0 1 -.44-.47l-.05-.15h.15c.34 0 .86-.37.86-.61a.34.34 0 0 0 -.36-.36c-.15 0-.29.23-.29.23v.07h-.07a.7.7 0 0 1 -.4-.48 1.73 1.73 0 0 1 .3-1.16c-.53-.51-.35-.76-.33-.79v-.05h.06c.38.15.57.11.66.06a.26.26 0 0 0 .1-.18.23.23 0 0 0 -.09-.19 1.11 1.11 0 0 0 -.73-.08h-.08v-.06a1.07 1.07 0 0 0 -.39-.44 1.07 1.07 0 0 0 -.39.44v.08h-.08a1.17 1.17 0 0 0 -.73.08.24.24 0 0 0 -.09.2.27.27 0 0 0 .1.17c.09.05.28.09.66-.06h.06v.05s.2.28-.33.79a1.73 1.73 0 0 1 .3 1.16.7.7 0 0 1 -.4.48h-.07v-.07c0-.06-.16-.23-.29-.23a.34.34 0 0 0 -.36.36c0 .24.53.61.86.61h.15l-.07.13a2.41 2.41 0 0 1 -.44.47 2.83 2.83 0 0 0 .61.11z"/><path d="m22 21.22s-.26.29 0 .48c0 0-.72.14 0 .91a.49.49 0 0 0 .13.68s-.53 1 1.6.87c0 0 .29.29.74-.38l.05-.1a.33.33 0 0 0 0-.27v-.08a.28.28 0 0 1 0-.25.3.3 0 0 0 0-.08.37.37 0 0 0 0-.15.25.25 0 0 0 0-.17s0 0 0 0a.21.21 0 0 0 0 .17 1 1 0 0 1 0 .17l-.05.1a1.64 1.64 0 0 1 -.2.26.38.38 0 0 1 -.26.14.1.1 0 0 1 -.11-.05.08.08 0 0 1 0-.05.38.38 0 0 1 .13-.26 1.94 1.94 0 0 1 .31-.26.25.25 0 0 0 .11-.12.59.59 0 0 0 0-.14c0-.1.12-.17.16-.27a.55.55 0 0 0 0-.31s0-.07 0-.08 0 0 0 .07a.88.88 0 0 0 0 .17.49.49 0 0 1 0 .12.39.39 0 0 1 -.06.11 1 1 0 0 1 -.33.35.19.19 0 0 1 -.12 0 .11.11 0 0 1 -.12 0 .2.2 0 0 1 0-.11.47.47 0 0 1 0-.1.93.93 0 0 1 .49-.38.53.53 0 0 1 .08-.32c0-.07.1-.13.14-.21a.26.26 0 0 0 0-.24.13.13 0 0 0 -.06-.07.25.25 0 0 0 -.2.06 2.61 2.61 0 0 1 -.28.17.34.34 0 0 1 -.19.07.36.36 0 0 1 -.21-.09c-.14-.11-.25-.27-.42-.33a.68.68 0 0 0 -.2 0h-.84a.11.11 0 0 0 -.29-.03z"/><g fill="#ffbe29"><path d="m22.48 23.34a.33.33 0 0 0 -.19.08.25.25 0 0 0 0 .24.66.66 0 0 0 .15.19.18.18 0 0 0 .07 0l.11.05a2.36 2.36 0 0 0 .75.13.62.62 0 0 0 .19 0 .19.19 0 0 0 .14-.11.2.2 0 0 0 0-.2.54.54 0 0 0 -.16-.14 1.8 1.8 0 0 0 -.38-.16c-.13 0-.27-.05-.4-.08a.78.78 0 0 0 -.28 0z"/><path d="m22.15 22.76a.21.21 0 0 0 -.06.1.2.2 0 0 0 .05.18.48.48 0 0 0 .16.12 2.63 2.63 0 0 0 1.15.23h.11.1a.2.2 0 0 0 .07-.18.26.26 0 0 0 -.09-.17.59.59 0 0 0 -.17-.1 3 3 0 0 0 -1.09-.26.26.26 0 0 0 -.23.08z"/><path d="m21.92 22a.28.28 0 0 0 0 .22.44.44 0 0 0 .12.18l.12.1a.74.74 0 0 0 .29.08l.75.14a1.65 1.65 0 0 0 .31 0 .24.24 0 0 0 .15 0 .2.2 0 0 0 0-.26.52.52 0 0 0 -.22-.17 4.93 4.93 0 0 0 -.64-.24l-.28-.1h-.15-.15-.12a.33.33 0 0 0 -.1 0 .23.23 0 0 0 -.08.05z"/><path d="m22.3 21.28a.34.34 0 0 0 -.15.09.19.19 0 0 0 0 .16.23.23 0 0 0 .07.1.47.47 0 0 0 .15.13h.1a5.18 5.18 0 0 0 1.1.26h.09a.16.16 0 0 0 .09-.13.3.3 0 0 0 -.05-.16.64.64 0 0 0 -.3-.24 1.6 1.6 0 0 0 -.4-.09c-.11 0-.21-.06-.32-.09a.66.66 0 0 0 -.38-.03z"/><path d="m23.9 21.85s0 0-.06.08v.08a.22.22 0 0 0 0 .14.1.1 0 0 0 .1 0 .21.21 0 0 0 .1-.06l.09-.08.08-.09.08-.08a1.4 1.4 0 0 0 .16-.2.17.17 0 0 0 0-.11c0-.07-.15-.05-.21 0s-.13.13-.2.19z"/><path d="m24 23.68a.49.49 0 0 0 -.12.13.33.33 0 0 0 0 .17.11.11 0 0 0 .1.06.14.14 0 0 0 .02-.04.3.3 0 0 0 .08-.08c.07-.07.15-.12.22-.18a.36.36 0 0 0 .13-.24.11.11 0 0 0 -.19-.08c-.05.1-.15.17-.24.26z"/><path d="m16.51 8.94a10.06 10.06 0 0 0 -.38-2 3.21 3.21 0 0 1 -.13-.6c0-.62-.17-2.1-.9-2.41a1.69 1.69 0 0 0 -1.48 0 1.25 1.25 0 0 1 -.43.12h-.62v.34a.76.76 0 0 1 -.08.36 2.7 2.7 0 0 0 -.28 1c0 .46-.07 1 2.44 1.6a3 3 0 0 1 1.86 1.59z"/></g><path d="m16.6 9.23-.15-.23a3 3 0 0 0 -1.76-1.56c-2.5-.6-2.49-1.15-2.49-1.63a2.56 2.56 0 0 1 .29-1 .65.65 0 0 0 .06-.33v-.41h.7a1.07 1.07 0 0 0 .39-.1 1.69 1.69 0 0 1 1.55 0c.85.35.94 2.12 1 2.47a2.33 2.33 0 0 0 .08.59 10.51 10.51 0 0 1 .39 2zm-3.91-5.07v.26a.78.78 0 0 1 -.08.4 2.6 2.6 0 0 0 -.27.93c0 .43 0 .91 2.37 1.49a2.87 2.87 0 0 1 1.69 1.36 12 12 0 0 0 -.34-1.6 2.23 2.23 0 0 1 -.06-.66c0-.21-.07-2-.86-2.34a1.58 1.58 0 0 0 -1.42 0 1.21 1.21 0 0 1 -.45.12z"/><path d="m16.51 31.5a10.21 10.21 0 0 1 -.38 2 3 3 0 0 0 -.09.61c0 .62-.17 2.1-.9 2.4a1.63 1.63 0 0 1 -1.48 0 1.05 1.05 0 0 0 -.43-.11h-.62v-.34a.73.73 0 0 0 -.08-.36 2.77 2.77 0 0 1 -.28-1c0-.47-.07-1 2.44-1.61a3 3 0 0 0 1.82-1.59z" fill="#ffbe29"/><path d="m14.38 36.75a1.67 1.67 0 0 1 -.76-.19 1.09 1.09 0 0 0 -.39-.11h-.7v-.41a.61.61 0 0 0 -.06-.33 2.67 2.67 0 0 1 -.29-1c0-.48 0-1 2.49-1.64a3 3 0 0 0 1.76-1.56l.15-.25v.3a10.51 10.51 0 0 1 -.39 2 2.33 2.33 0 0 0 -.08.59c0 .35-.1 2.11-1 2.47a2.13 2.13 0 0 1 -.73.13zm-1.69-.47h.55a1.22 1.22 0 0 1 .45.13 1.59 1.59 0 0 0 1.42 0c.79-.33.85-2.13.86-2.33a2.3 2.3 0 0 1 .09-.64 11.68 11.68 0 0 0 .35-1.67 2.83 2.83 0 0 1 -1.69 1.36c-2.38.58-2.38 1.07-2.37 1.5a2.54 2.54 0 0 0 .27.92.82.82 0 0 1 .08.4z"/><path d="m8.45 3.81v32.88a20.22 20.22 0 0 1 0-32.88z" fill="#eb7400"/></svg>