<svg xmlns="http://www.w3.org/2000/svg" viewBox="0 0 40.5 40.5"><defs><style>.cls-1{fill:#00209f;}.cls-2{fill:#009543;}.cls-3{fill:#fff;}</style></defs><g id="Ebene_2" data-name="Ebene 2"><g id="Ńëîé_1" data-name="Ńëîé 1"><path class="cls-1" d="M38.79,12.1H1.71a20.25,20.25,0,0,1,37.08,0Z"/><path class="cls-2" d="M38.79,28.4a20.25,20.25,0,0,1-37.08,0Z"/><path class="cls-3" d="M40.5,20.25a20.13,20.13,0,0,1-1.71,8.15H1.71a20.28,20.28,0,0,1,0-16.3H38.79A20.13,20.13,0,0,1,40.5,20.25Z"/><path d="M25.66,23.57l-.52.27-.06-.08-3.14-4.13a8.41,8.41,0,0,0,.93-3.75,2.54,2.54,0,0,0-2.19-2.76.48.48,0,0,0-.86,0,2.16,2.16,0,0,0-1.23.53,2.81,2.81,0,0,0-1,2.23,8.41,8.41,0,0,0,.93,3.75l-3.14,4.13-.06.08-.54-.27L13.64,26a13.7,13.7,0,0,0,13.22,0ZM20.72,13.8s1.49.1,1.49,2.21v.16A6.22,6.22,0,0,1,21.48,19l-.5-.66V16.85h.88l-1.14-1Zm-2.43,2.37c-.08-2.27,1.49-2.37,1.49-2.37v2.08l-1.14,1h.88v1.52L19,19A6.22,6.22,0,0,1,18.29,16.17Zm-3.06,8.47.19.6-.58.14ZM15,25.74l.58-.2.15.46Zm.89-1v0l.88.27.2.44-.74.21Zm.59,1.59-.12-.36.74-.24.38.83Zm1-1.16.85.19.25.39-.74.31Zm.62,1.52-.14-.34.83-.29.48.76Zm1-1.25,1.4.06.16.28-1.1.43Zm.85,1.42-.23-.36L20.83,26l.49.77Zm1.23-1.4,1-.12.26.33-.87.44ZM22,26.69l-.22-.37.9-.45.5.64Zm.92-1.47.94-.29.23.31-.71.6Zm.85,1.15-.22-.3.72-.57.44.62Zm.66-1.61.81-.35.15.27-.46.73Zm.72.93.43-.63.27.56-.58.23Z"/></g></g></svg>