<svg xmlns="http://www.w3.org/2000/svg" viewBox="0 0 40.5 40.5"><defs><style>.cls-1{fill:#0046ae;}.cls-2{fill:#ffd200;}.cls-3{fill:#b07f55;}.cls-4{fill:#cc092f;}.cls-5{fill:#0b45bb;}.cls-6{fill:#d10429;}.cls-7{fill:#f5d402;}.cls-8{fill:#097754;}</style></defs><g id="Ebene_2" data-name="Ebene 2"><g id="Ńëîé_1" data-name="Ńëîé 1"><path class="cls-1" d="M13.5,1.16V39.34a20.25,20.25,0,0,1,0-38.18Z"/><path class="cls-2" d="M27,1.16V39.34a20.22,20.22,0,0,1-13.5,0V1.16a20.22,20.22,0,0,1,13.5,0Z"/><path d="M21.07,17.2A1.46,1.46,0,0,0,21.7,17a1.2,1.2,0,0,1,.58-.23,2.33,2.33,0,0,0-.05-.59s.61-.55.82-.69c0,0,.78.47.9,1v7.13a.56.56,0,0,0,.07.21s-.28-.1-.58-.67l0,.06s-.85-.35-1.12-2.14a12.35,12.35,0,0,0-1.23-3.5Z"/><path class="cls-3" d="M20.16,17l.25-.06h.32l.34.27a.94.94,0,0,0,.61-.15,1,1,0,0,1,.62-.15l.15-.21v-.54a4.52,4.52,0,0,0,.61-.48,3,3,0,0,1,.59.56.82.82,0,0,1,.14.28v6.82a.93.93,0,0,1-.4-.51l-.11.13a1,1,0,0,1-.38-.56v-.11l-.12-.12s-.14,0-.46-1.22-.76-3.3-.76-3.3l-.76-.16-.63,0Z"/><path d="M21.57,17.13a.74.74,0,0,1,.21.09s.1-.13.06-.23a.52.52,0,0,1,.31.18,1,1,0,0,0,.15-.27.39.39,0,0,1,.15-.21.6.6,0,0,0,.32-.3s.05-.07-.05-.18l.06,0a.19.19,0,0,1,.06.17l.2.2.2-.29s0-.08-.07-.22l.06,0a.28.28,0,0,1,.08.22l.22.23.13-.25.09.12-.19.29-.25-.24-.19.28h-.07l-.23-.2a1.14,1.14,0,0,1-.3.32,2.55,2.55,0,0,1-.39.51.42.42,0,0,0-.21-.2.38.38,0,0,1-.15.21A1.25,1.25,0,0,0,21.57,17.13Z"/><path d="M22.5,16.79a2.09,2.09,0,0,0,.31.32l.28-.23.25.23.24-.23.26.21v.21l-.25-.23-.25.23-.25-.23-.26.23s-.38-.35-.38-.46S22.5,16.79,22.5,16.79Z"/><polygon points="22.36 17.46 22.59 17.7 22.83 17.46 23.08 17.68 23.33 17.46 23.58 17.67 23.84 17.48 23.84 17.66 23.59 17.89 23.34 17.63 23.08 17.89 22.83 17.65 22.58 17.89 22.32 17.62 22.36 17.46"/><rect x="22.8" y="16.46" width="0.07" height="1.16"/><rect x="23.06" y="16.59" width="0.07" height="1.16"/><rect x="22.54" y="16.95" width="0.07" height="0.81"/><rect x="23.3" y="16.39" width="0.07" height="1.16"/><rect x="23.27" y="17.62" width="0.12" height="5.4"/><rect x="22.77" y="17.57" width="0.12" height="4.82"/><rect x="23.55" y="16.52" width="0.07" height="1.16"/><path d="M19.24,17.2a1.4,1.4,0,0,1-.62-.25,1.2,1.2,0,0,0-.58-.23,2,2,0,0,1,0-.59s-.61-.55-.82-.69c0,0-.77.47-.89,1v7.13a.89.89,0,0,1-.07.21s.27-.1.58-.67v.06s.85-.35,1.13-2.14a12.14,12.14,0,0,1,1.22-3.5Z"/><path class="cls-3" d="M20.16,17l-.25-.06h-.32l-.35.27a.94.94,0,0,1-.61-.15A.94.94,0,0,0,18,16.9l-.15-.21v-.54a4.55,4.55,0,0,1-.62-.48,2.74,2.74,0,0,0-.58.56.67.67,0,0,0-.14.28v6.82a.9.9,0,0,0,.39-.51L17,23a1,1,0,0,0,.37-.56l0-.11.11-.12s.15,0,.46-1.22.77-3.3.77-3.3l.75-.16.64,0Z"/><path d="M18.75,17.13a.64.64,0,0,0-.21.09s-.1-.13-.07-.23a.49.49,0,0,0-.3.18A.79.79,0,0,1,18,16.9a.45.45,0,0,0-.15-.21.6.6,0,0,1-.32-.3s-.05-.07.05-.18l-.07,0a.19.19,0,0,0-.06.17l-.19.2-.21-.29s0-.08.07-.22l-.06,0a.26.26,0,0,0-.07.22l-.22.23-.14-.25-.08.12.18.29L17,16.4l.2.28h.07l.22-.2a1.14,1.14,0,0,0,.3.32,3,3,0,0,0,.39.51.48.48,0,0,1,.21-.2.45.45,0,0,0,.15.21A1.41,1.41,0,0,1,18.75,17.13Z"/><path d="M17.81,16.79a2.46,2.46,0,0,1-.3.32l-.28-.23-.26.23-.23-.23-.26.21v.21l.25-.23.24.23.26-.23.25.23s.38-.35.38-.46S17.81,16.79,17.81,16.79Z"/><polygon points="17.96 17.46 17.73 17.7 17.48 17.46 17.24 17.68 16.98 17.46 16.73 17.67 16.48 17.48 16.48 17.66 16.73 17.89 16.97 17.63 17.24 17.89 17.48 17.65 17.74 17.89 18 17.62 17.96 17.46"/><rect x="17.44" y="16.46" width="0.07" height="1.16" transform="translate(34.96 34.08) rotate(180)"/><rect x="17.19" y="16.59" width="0.07" height="1.16" transform="translate(34.45 34.33) rotate(180)"/><rect x="17.7" y="16.95" width="0.07" height="0.81" transform="translate(35.47 34.71) rotate(180)"/><rect x="16.94" y="16.39" width="0.07" height="1.16" transform="translate(33.96 33.95) rotate(180)"/><rect x="16.92" y="17.62" width="0.12" height="5.4" transform="translate(33.96 40.64) rotate(180)"/><rect x="17.42" y="17.57" width="0.12" height="4.82" transform="translate(34.96 39.96) rotate(180)"/><rect x="16.69" y="16.52" width="0.07" height="1.16" transform="translate(33.46 34.2) rotate(180)"/><path class="cls-4" d="M40.5,20.25A20.23,20.23,0,0,1,27,39.34V1.16A20.24,20.24,0,0,1,40.5,20.25Z"/><path d="M22.12,24.3a2,2,0,0,1-.23-.16,6.16,6.16,0,0,1-1.21-1.89l0-.11-.48.08-.49-.08,0,.11a6,6,0,0,1-1.2,1.89c-.06.05-.24.16-.24.16l.82.4.58-.79a2.49,2.49,0,0,1-.3.69l-.12.19.54.34a1.73,1.73,0,0,1,.45.45,1.73,1.73,0,0,1,.45-.45l.53-.34L21,24.6a2.44,2.44,0,0,1-.29-.69c.24.35.58.79.58.79Z"/><path class="cls-3" d="M21.32,24.45l.45-.18a5.83,5.83,0,0,1-1.21-2h-.8a5.93,5.93,0,0,1-1.22,2l.45.18a4.85,4.85,0,0,0,.92-1.68s.19.55-.47,1.9a3.48,3.48,0,0,1,.72.46,3.22,3.22,0,0,1,.71-.46c-.66-1.35-.47-1.9-.47-1.9A4.85,4.85,0,0,0,21.32,24.45Z"/><path class="cls-5" d="M22.39,17.4l-.08.13a.07.07,0,0,0,0,0v3.55a.35.35,0,0,1-.1.24,2.36,2.36,0,0,1-.89.56c-.93.39-1,.46-1.15.62-.15-.16-.23-.23-1.15-.62a2.43,2.43,0,0,1-.9-.56.34.34,0,0,1-.09-.24V17.58a.08.08,0,0,0,0,0l-.07-.13Z"/><path class="cls-6" d="M22.39,17.4l-.08.13a.07.07,0,0,0,0,0v2.06H18V17.58a.08.08,0,0,0,0,0l-.07-.13Z"/><polygon class="cls-2" points="20.16 17.68 20.26 17.98 20.55 17.84 20.41 18.13 20.71 18.23 20.41 18.34 20.55 18.63 20.26 18.49 20.16 18.79 20.05 18.49 19.77 18.63 19.9 18.34 19.6 18.23 19.9 18.13 19.77 17.84 20.05 17.98 20.16 17.68"/><path d="M20.16,18.89,20,18.54l-.34.16.16-.34-.35-.13.35-.12-.16-.34.34.16.13-.35.12.35.34-.16-.16.34.35.12-.35.13.16.34-.34-.16Zm-.09-.45.09.25.08-.25.24.11-.11-.23.24-.09-.24-.08.11-.24-.24.11-.08-.24-.09.24-.23-.11.11.24-.25.08.25.09-.11.23Z"/><path class="cls-2" d="M21.11,19.64s.3-.16.47-.28a4.82,4.82,0,0,0,.52.28,2.26,2.26,0,0,0-.51.34A1.5,1.5,0,0,0,21.11,19.64Z"/><path d="M21.59,20l0,0a1.35,1.35,0,0,0-.47-.32l-.06,0,.06,0s.29-.17.47-.29h0s.36.22.52.28l.07,0-.07,0a2.11,2.11,0,0,0-.5.32Zm-.4-.4a1.61,1.61,0,0,1,.41.29,1.58,1.58,0,0,1,.43-.28c-.16-.08-.38-.21-.44-.25S21.28,19.59,21.19,19.64Z"/><rect class="cls-2" x="20.66" y="20.19" width="0.2" height="0.2" transform="translate(-8.26 20.62) rotate(-45)"/><path d="M20.76,20.48l-.19-.19.19-.19.19.19Zm-.09-.19.09.09.1-.09-.1-.1Z"/><path class="cls-2" d="M20.63,20.57a1.6,1.6,0,0,0,.25,0,3.14,3.14,0,0,0-.07.89S20.42,21.37,20.63,20.57Z"/><path d="M20.85,21.46H20.8a.27.27,0,0,1-.18-.13,1,1,0,0,1,0-.76v0h0l.25-.05h.05v.05a3,3,0,0,0-.08.88Zm-.19-.86c-.1.4-.05.59,0,.68a.19.19,0,0,0,.09.09,3.08,3.08,0,0,1,.07-.8Z"/><path class="cls-2" d="M20.94,17.62c0,.17.16.47.25.85a.64.64,0,0,1-.4.68.25.25,0,0,0-.19.05,0,0,0,0,1-.06,0l-.14-.07a.07.07,0,0,0-.06,0,.36.36,0,0,1-.18.09.41.41,0,0,1-.19-.09,0,0,0,0,0,0,0l-.14.07a0,0,0,0,1-.06,0,.28.28,0,0,0-.2-.05.66.66,0,0,1-.4-.68c.09-.38.24-.68.26-.85,0,0-1.58,1,.06,1.92l-.15.37s.52.06.55.48a3.93,3.93,0,0,1,0,.84c0,.07,0,.11-.16.23s-.26.22,0,.35l.27.18L20,22a.38.38,0,0,0,.16,0,.42.42,0,0,0,.16,0l.07,0,.27-.18c.23-.13.14-.23,0-.35s-.16-.16-.17-.23a5.89,5.89,0,0,1,0-.84c0-.42.56-.48.56-.48l-.16-.37C22.52,18.64,20.94,17.62,20.94,17.62Z"/><path d="M20.16,22.12a.53.53,0,0,1-.18,0l-.08,0s-.11-.08-.27-.17a.29.29,0,0,1-.17-.2c0-.09.09-.16.19-.24s.13-.13.14-.18h0a4.59,4.59,0,0,0,0-.84c0-.37-.49-.43-.51-.43h-.07l.17-.39c-.48-.27-.72-.58-.74-.92,0-.59.68-1,.71-1.06l.09-.06v.1a1.46,1.46,0,0,1-.11.37,4.77,4.77,0,0,0-.15.49.62.62,0,0,0,.17.49.39.39,0,0,0,.17.13.36.36,0,0,1,.23,0,.56.56,0,0,1,.16-.07.11.11,0,0,1,.11,0,.27.27,0,0,0,.15.08.3.3,0,0,0,.15-.08.11.11,0,0,1,.11,0l.15.07a.33.33,0,0,1,.24,0A.46.46,0,0,0,21,19a.63.63,0,0,0,.16-.5c0-.17-.1-.33-.15-.48a1.89,1.89,0,0,1-.1-.37v-.1l.09.06s.72.47.7,1.06c0,.34-.26.65-.73.92l.16.39H21s-.48.06-.51.43a5.74,5.74,0,0,0,0,.84h0c0,.05,0,.08.15.18s.18.15.18.24-.06.14-.17.2l-.26.17-.09,0A.43.43,0,0,1,20.16,22.12Zm-.8-2.25c.15,0,.5.16.53.52a4.69,4.69,0,0,1,0,.85h0c0,.08,0,.14-.18.25s-.15.12-.14.16,0,.07.11.11L20,22,20,22l.14,0,.14,0a.1.1,0,0,0,.05,0l.28-.18c.08,0,.12-.08.12-.11s-.09-.12-.14-.16-.18-.17-.19-.25h0a5.86,5.86,0,0,1,0-.85c0-.36.39-.48.54-.52l-.15-.35,0,0c.47-.26.71-.55.72-.86a1.32,1.32,0,0,0-.55-.9,1.36,1.36,0,0,0,.07.22,4.11,4.11,0,0,1,.15.49.76.76,0,0,1-.24.65c-.05,0-.15.12-.22.1h0a.21.21,0,0,0-.15,0,.11.11,0,0,1-.11,0l-.13-.07a.41.41,0,0,1-.22.1h0a.4.4,0,0,1-.21-.1.46.46,0,0,0-.14.07.11.11,0,0,1-.11,0,.2.2,0,0,0-.15,0h0c-.07,0-.16-.06-.21-.1a.75.75,0,0,1-.25-.64,3.7,3.7,0,0,1,.16-.5c0-.08.05-.16.07-.22a1.29,1.29,0,0,0-.56.9c0,.31.26.6.72.86l0,0Z"/><path class="cls-2" d="M19.2,19.65s-.29-.16-.47-.29a5.17,5.17,0,0,1-.52.29,1.8,1.8,0,0,1,.51.34A1.32,1.32,0,0,1,19.2,19.65Z"/><path d="M18.72,20l0,0a1.65,1.65,0,0,0-.5-.33l-.06,0,.07,0c.16-.07.51-.29.51-.29h0a4.37,4.37,0,0,0,.47.29l.06,0-.06,0a1.16,1.16,0,0,0-.47.33Zm-.43-.39a1.75,1.75,0,0,1,.43.28,1.5,1.5,0,0,1,.41-.29c-.09-.05-.27-.15-.4-.24S18.44,19.58,18.29,19.65Z"/><rect class="cls-2" x="19.45" y="20.19" width="0.2" height="0.2" transform="translate(-8.62 19.77) rotate(-45)"/><path d="M19.55,20.48l-.19-.19.19-.19.19.19Zm-.09-.19.09.09.09-.09-.09-.1Z"/><path class="cls-2" d="M19.69,20.57a1.58,1.58,0,0,1-.26,0,3.44,3.44,0,0,1,.08.89S19.89,21.37,19.69,20.57Z"/><path d="M19.46,21.46v-.05a3.14,3.14,0,0,0-.07-.88v-.05h.05l.25.05h0v0a1,1,0,0,1,0,.76.26.26,0,0,1-.19.13Zm0-.89a3.66,3.66,0,0,1,.07.8.25.25,0,0,0,.09-.09.85.85,0,0,0,0-.68A.84.84,0,0,1,19.48,20.57Z"/><path class="cls-2" d="M21.27,21.37a.48.48,0,0,1,.48-.47h0a.4.4,0,0,0-.34-.18.41.41,0,0,0-.14.8A.37.37,0,0,1,21.27,21.37Z"/><path d="M21.35,21.58l-.07,0a.44.44,0,0,1,.16-.86.44.44,0,0,1,.37.19l0,.06h-.1a.44.44,0,0,0-.44.44.32.32,0,0,0,0,.14Zm.09-.83a.38.38,0,0,0-.38.38.37.37,0,0,0,.19.33.28.28,0,0,1,0-.09.51.51,0,0,1,.47-.5A.4.4,0,0,0,21.44,20.75Z"/><path d="M20.52,21.61c-.09,0-.16,0-.16.06s.07.06.16.06.15,0,.15-.06S20.6,21.61,20.52,21.61Z"/><path d="M19.8,21.61c.08,0,.15,0,.15.06s-.07.06-.15.06-.16,0-.16-.06S19.71,21.61,19.8,21.61Z"/><path d="M19,20.75a.21.21,0,0,1-.22.21.21.21,0,0,1-.21-.21.22.22,0,1,1,.43,0Z"/><path d="M19.22,21.1A.21.21,0,0,1,19,21a.22.22,0,0,1,.13-.28.21.21,0,0,1,.27.13A.22.22,0,0,1,19.22,21.1Z"/><path d="M19,21.42a.21.21,0,1,1,.3,0A.22.22,0,0,1,19,21.42Z"/><path class="cls-2" d="M19.17,21.07A.17.17,0,0,1,19,21a.16.16,0,0,1,.31-.11A.16.16,0,0,1,19.17,21.07Z"/><path d="M18.57,21.26a.21.21,0,0,1,.3-.05.22.22,0,1,1-.25.35A.21.21,0,0,1,18.57,21.26Z"/><path class="cls-7" d="M22.91,22.85a.12.12,0,0,1-.17,0,.11.11,0,0,1,0-.16.11.11,0,0,1,.16,0A.11.11,0,0,1,22.91,22.85Z"/><path d="M22.81,22.92l-.08,0a.18.18,0,0,1-.06-.09.16.16,0,0,1,0-.1.14.14,0,0,1,.25.05.11.11,0,0,1,0,.1A.14.14,0,0,1,22.81,22.92Zm0-.24a.1.1,0,0,0-.08.05.06.06,0,0,0,0,.07.1.1,0,0,0,0,.07.11.11,0,0,0,.15,0h0a.08.08,0,0,0,0-.07s0-.05-.05-.07Z"/><path class="cls-7" d="M23.66,21.41s-.09,0-.15,0-.09-.08-.07-.12.08,0,.14,0S23.67,21.37,23.66,21.41Z"/><path d="M23.59,21.46l-.08,0c-.07,0-.11-.1-.09-.15a.1.1,0,0,1,.07,0l.1,0c.07,0,.1.1.08.15h0S23.63,21.46,23.59,21.46Zm-.09-.17h0s0,0-.05,0,0,.07.07.1.11,0,.12,0h0s0-.07-.07-.1Z"/><path class="cls-7" d="M23.73,21.26s-.09,0-.15,0-.09-.09-.07-.13.09,0,.15,0S23.75,21.22,23.73,21.26Z"/><path d="M23.65,21.31l-.08,0c-.07,0-.1-.1-.08-.15a.13.13,0,0,1,.17,0,.19.19,0,0,1,.08.07.11.11,0,0,1,0,.08A.09.09,0,0,1,23.65,21.31Zm-.07-.19a.07.07,0,0,0-.06,0s0,.08.07.11.1,0,.12,0a0,0,0,0,0,0-.05l-.06-.06Z"/><path class="cls-2" d="M19,21.36a.17.17,0,0,1,0-.23.17.17,0,0,1,.24,0,.17.17,0,0,1-.27.2Z"/><path d="M18.6,20.84a.22.22,0,0,1,.14.27.22.22,0,0,1-.41-.13A.22.22,0,0,1,18.6,20.84Z"/><path class="cls-2" d="M18.63,20.89a.17.17,0,0,1,.1.21.16.16,0,0,1-.21.11.17.17,0,0,1-.1-.21A.16.16,0,0,1,18.63,20.89Z"/><path class="cls-2" d="M18.62,21.25a.19.19,0,0,1,.24,0,.17.17,0,0,1,0,.23.17.17,0,0,1-.24,0A.17.17,0,0,1,18.62,21.25Z"/><path class="cls-2" d="M19,20.79a.16.16,0,0,1-.16.16.17.17,0,0,1-.17-.16.18.18,0,0,1,.17-.17A.17.17,0,0,1,19,20.79Z"/><circle class="cls-2" cx="18.87" cy="21.07" r="0.2"/><path d="M18.87,21.31a.24.24,0,0,1-.24-.24.23.23,0,0,1,.24-.23.23.23,0,0,1,.23.23A.23.23,0,0,1,18.87,21.31Zm0-.4a.17.17,0,0,0-.17.16.17.17,0,0,0,.17.17.16.16,0,0,0,.16-.17A.16.16,0,0,0,18.87,20.91Z"/><path class="cls-6" d="M21.87,22.1l.45.69a.11.11,0,0,0,.09.06.3.3,0,0,0,.16,0c.16,0,.46.3.32.46l-.24.31s-.21.07-.42-.33a11.45,11.45,0,0,0-.68-1c-.28-.34.25-.33.25-.33Z"/><path d="M22.61,23.67c-.08,0-.26-.05-.43-.37a4.87,4.87,0,0,0-.45-.65l-.22-.29a.28.28,0,0,1-.08-.27c.07-.14.34-.14.38-.14h0l.08.12.45.69a.07.07,0,0,0,.06,0,.23.23,0,0,0,.14,0,.44.44,0,0,1,.36.23.26.26,0,0,1,0,.31l-.24.31h-.08Zm-.83-1.62c-.09,0-.23,0-.25.09s0,.09.06.16l.22.29a5.43,5.43,0,0,1,.46.67c.16.29.31.31.35.31s.13-.17.23-.3a.18.18,0,0,0,0-.2.32.32,0,0,0-.25-.18.38.38,0,0,1-.18,0,.22.22,0,0,1-.13-.08Z"/><polygon class="cls-3" points="21.15 22.02 21.54 22.39 21.59 22.17 21.74 22.24 21.77 22.08 21.96 22.12 21.74 21.72 21.15 22.02"/><path d="M21.56,22.46,21.09,22l.67-.33.26.48-.22,0,0,.16-.16-.07ZM21.21,22l.31.29,0-.2.16.07,0-.15.14,0-.16-.3Z"/><path d="M22.64,23.55h0a.83.83,0,0,0,.26-.38s0-.15,0-.15h0s0,.05-.06.05-.13-.09-.23-.09H22.5a.34.34,0,0,1-.17,0h0c0,.06.09.11.12.17h0v0h0a.1.1,0,0,1-.08,0h0a0,0,0,0,0,0,0s0,0,0,0a.14.14,0,0,1-.07.12h0c0,.14.23.27.3.26h0a.09.09,0,0,0,.06,0,0,0,0,0,1-.05,0l-.17-.13s0,0,0-.06h0s0,0,.06,0l.17.13a0,0,0,0,1,0,.06Zm.1-.45s.05,0,0,0,0,0-.06,0-.06,0,0-.05Zm-.17,0h0a0,0,0,0,1,.06,0l.17.12a0,0,0,0,1,0,.07h0s0,0-.06,0l-.17-.12A0,0,0,0,1,22.57,23.15Zm-.08.17s0,0,0-.06h0a0,0,0,0,1,.06,0l.17.13a0,0,0,0,1,0,.06h0a.06.06,0,0,1-.07,0Z"/><path d="M22.89,23.34s0,.06,0,.06h0a.19.19,0,0,0,.07-.16.28.28,0,0,0-.06-.16A.57.57,0,0,1,22.89,23.34Z"/><path class="cls-6" d="M18.45,22.1l-.45.69a.13.13,0,0,1-.1.06.31.31,0,0,1-.16,0c-.16,0-.45.3-.32.46l.25.31s.2.07.42-.33a9.18,9.18,0,0,1,.67-1c.29-.34-.25-.33-.25-.33Z"/><path d="M17.65,23.66h0s-.12-.15-.25-.31a.26.26,0,0,1,0-.31c.08-.13.23-.25.35-.23a.27.27,0,0,0,.15,0s0,0,.06,0l.44-.69.08-.12h0s.3,0,.37.14a.26.26,0,0,1-.08.27l-.22.29c-.18.25-.35.47-.45.65s-.34.37-.43.37Zm.39-.84a.2.2,0,0,1-.13.08.38.38,0,0,1-.18,0c-.06,0-.18.07-.25.18s-.07.13,0,.2a3.06,3.06,0,0,1,.23.3s.19,0,.35-.31a6.84,6.84,0,0,1,.46-.67l.22-.29c.06-.07.08-.13.07-.16s-.17-.09-.25-.09Z"/><polygon class="cls-3" points="19.16 22.02 18.77 22.39 18.73 22.17 18.57 22.24 18.54 22.08 18.36 22.12 18.57 21.72 19.16 22.02"/><path d="M18.75,22.46l-.05-.25-.15.07,0-.16-.22,0,.27-.48.66.33Zm0-.34,0,.2.32-.29-.52-.26-.17.3.15,0,0,.15Z"/><path d="M17.66,23.54s0-.05,0-.06l.17-.13a.06.06,0,0,1,.07,0h0a0,0,0,0,1,0,.06l-.17.13a0,0,0,0,1,0,0l0,0h0c.07,0,.3-.12.31-.26h0A.12.12,0,0,1,18,23.2v-.07h0a.09.09,0,0,1-.07,0h0s0,0,0,0h0c0-.06.1-.11.12-.17h0a.37.37,0,0,1-.17,0h-.06c-.1,0-.2.09-.24.09s0,0-.05-.05h0s-.05.11-.05.15a.91.91,0,0,0,.26.38h0Zm0-.46s0,0,0,.05-.06,0-.07,0,0,0,0,0S17.64,23.07,17.65,23.08Zm.08.13-.17.12s0,0-.06,0h0a.06.06,0,0,1,0-.07l.17-.12a0,0,0,0,1,.06,0h0S17.75,23.19,17.73,23.21Zm-.08.24s0,0-.06,0h0s0-.05,0-.06l.17-.13s0,0,.06,0h0a0,0,0,0,1,0,.06Z"/><path class="cls-7" d="M22.86,22.68s-.26-.21.13-.45l.45-.82s.1,0,.12.07l-.43.82s.05.41-.26.38Z"/><path d="M22.9,22.7h-.06a.26.26,0,0,1-.08-.2c0-.09.08-.18.22-.27l.45-.82h0a.11.11,0,0,1,.14.08h0l-.44.83a.43.43,0,0,1-.08.33A.21.21,0,0,1,22.9,22.7Zm0,0a.24.24,0,0,0,.17-.06.46.46,0,0,0,.07-.3h0l.43-.82c0-.05-.07-.05-.09-.05l-.44.81h0c-.13.08-.2.16-.21.25a.23.23,0,0,0,.07.16Z"/><path d="M17.43,23.34l0,.06h0a.16.16,0,0,1-.07-.16.23.23,0,0,1,.06-.16A.57.57,0,0,0,17.43,23.34Z"/><path class="cls-7" d="M22.35,23.68a.67.67,0,0,0-.16,0V24l.27-.19Z"/><path d="M22.17,24v-.37h0a.37.37,0,0,1,.16,0h0l.13.14Zm0-.34V24l.22-.16-.09-.1Z"/><path class="cls-7" d="M22.45,23.69s-.06,0-.1,0-.06-.07-.05-.09.06,0,.11,0S22.47,23.67,22.45,23.69Z"/><path d="M22.41,23.72l-.07,0c-.05,0-.07-.09-.05-.12l0,0a.15.15,0,0,1,.09,0s.06.05.06.08a.06.06,0,0,1,0,0h0A.06.06,0,0,1,22.41,23.72Zm-.07-.13h0s0,0,0,.07a.08.08,0,0,0,.08,0h0a.21.21,0,0,0,0-.06Z"/><polygon class="cls-7" points="23.64 20.98 24.05 20.21 24.06 20.09 24.13 20.05 24.24 20.11 24.25 20.19 24.18 20.25 23.77 21.03 23.72 20.99 23.64 20.98"/><path d="M23.77,21.05l-.06,0h-.09l.41-.79,0-.13.08,0,.13.07v.1l-.07.07Zm-.1-.08h.06l0,0,.41-.76.06,0v-.07l-.1-.05-.05,0,0,.12Z"/><path class="cls-7" d="M23.78,21.11a.09.09,0,0,1-.12,0A.09.09,0,0,1,23.6,21a.09.09,0,0,1,.12,0A.09.09,0,0,1,23.78,21.11Z"/><path d="M23.72,21.16l-.07,0a.17.17,0,0,1-.06-.06.08.08,0,0,1,0-.08.13.13,0,0,1,.21,0,.08.08,0,0,1,0,.08A.12.12,0,0,1,23.72,21.16ZM23.66,21s0,0-.05,0a.06.06,0,0,0,0,0,.08.08,0,0,0,.05.05s.08,0,.1,0a.06.06,0,0,0,0,0,.1.1,0,0,0,0,0Z"/><path class="cls-7" d="M20.16,22.63l0,0c-.14-.16-.21-.22-1.13-.62a2.59,2.59,0,0,1-.92-.56.42.42,0,0,1-.1-.28V17.55l-.12-.2h4.63l-.11.2a0,0,0,0,0,0,0v3.55a.43.43,0,0,1-.11.28,2.41,2.41,0,0,1-.91.56c-.92.4-1,.46-1.13.62ZM18,17.45l0,.05a.24.24,0,0,1,0,.08v3.55a.32.32,0,0,0,.08.21,2.38,2.38,0,0,0,.88.54c.86.37,1,.45,1.13.6.13-.15.27-.23,1.13-.6a2.59,2.59,0,0,0,.88-.54.32.32,0,0,0,.08-.21V17.58a.13.13,0,0,1,0-.08l0-.05Z"/><path class="cls-7" d="M24.66,19.39a.09.09,0,0,1-.13,0c-.05,0-.08-.08-.05-.13a.09.09,0,0,1,.13,0A.1.1,0,0,1,24.66,19.39Z"/><path d="M24.58,19.45l-.06,0a.11.11,0,0,1-.06-.15.12.12,0,0,1,.22.11h0A.11.11,0,0,1,24.58,19.45Zm0-.19a.07.07,0,0,0-.07,0,.07.07,0,0,0,0,.1.09.09,0,0,0,.12,0h0a.09.09,0,0,0,0-.11Z"/><path class="cls-7" d="M24.13,20.05,24.08,20s.17-.12.13-.49a0,0,0,0,1,0,0,.48.48,0,0,1,.29,0,.51.51,0,0,1,.17.22s0,.05,0,.06-.37.24-.32.39l-.13,0Z"/><path d="M24.24,20.12l-.12-.05L24.06,20h0s.16-.11.12-.47c0,0,0-.06,0-.07a.48.48,0,0,1,.29,0,.57.57,0,0,1,.19.23.08.08,0,0,1,0,.09c-.08.05-.35.22-.31.37v0Zm-.1-.08.11.05h.1c0-.16.22-.33.33-.39s0,0,0,0a.69.69,0,0,0-.17-.22.53.53,0,0,0-.28,0,.05.05,0,0,0,0,0,.53.53,0,0,1-.12.49Z"/><path class="cls-7" d="M24.12,20a1,1,0,0,0,.21-.54l.18-.06.08.19a.89.89,0,0,0-.34.46Z"/><path d="M24.25,20.11h0l-.12-.06s0,0,0,0h0a1.07,1.07,0,0,0,.2-.53s0,0,0,0l.18-.07h0l.08.19v0a.94.94,0,0,0-.33.46h0Zm-.1-.08.09,0a.82.82,0,0,1,.33-.44l-.07-.17-.16.05A1,1,0,0,1,24.15,20Z"/><polygon class="cls-7" points="24.51 19.19 24.71 19.04 24.71 19.29 24.51 19.19"/><path d="M24.73,19.31l-.25-.12.25-.18Zm-.19-.12.15.07v-.18Z"/><polygon class="cls-7" points="17.99 23.84 18.05 23.51 18.35 23.67 18.28 23.99 17.99 23.84"/><path d="M18.3,24,18,23.85l.08-.39.36.19ZM18,23.82l.23.12.06-.25-.23-.13Z"/><polygon points="18.02 23.58 17.97 23.46 18.07 23.34 18.12 23.54 18.05 23.51 18.02 23.58"/><path class="cls-8" d="M17.54,22c0,.18,0,.33.09.34s.16-.13.18-.3a.5.5,0,0,0-.09-.34A.49.49,0,0,0,17.54,22Z"/><path d="M17.64,22.37h0c-.05,0-.09-.05-.11-.12a.54.54,0,0,1,.18-.56s0,0,0,0h0a.58.58,0,0,1,.1.35.52.52,0,0,1-.08.23A.15.15,0,0,1,17.64,22.37Zm.07-.62a.52.52,0,0,0-.15.26h0a.52.52,0,0,0,0,.22q0,.09.06.09s.06,0,.09-.06a.65.65,0,0,0,.07-.21A.54.54,0,0,0,17.71,21.75Zm-.17.26Z"/><path class="cls-8" d="M17.7,22.18c-.1.15-.13.3-.07.35s.2,0,.3-.19A.53.53,0,0,0,18,22,.54.54,0,0,0,17.7,22.18Z"/><path d="M17.67,22.56h-.05c-.08-.05-.05-.22.06-.38h0A.7.7,0,0,1,18,22s0,0,0,0h0a.49.49,0,0,1-.07.37A.4.4,0,0,1,17.67,22.56ZM18,22a.5.5,0,0,0-.26.17h0c-.1.14-.12.28-.07.31s.16,0,.26-.18A.55.55,0,0,0,18,22Zm-.28.15Z"/><path class="cls-8" d="M17.06,21c0,.15,0,.28.08.29s.14-.1.16-.25a.46.46,0,0,0-.08-.29A.42.42,0,0,0,17.06,21Z"/><path d="M17.15,21.29h0a.16.16,0,0,1-.1-.11A.74.74,0,0,1,17,21a.41.41,0,0,1,.16-.27h0a.55.55,0,0,1,.08.31C17.3,21.17,17.23,21.29,17.15,21.29Zm.06-.53a.35.35,0,0,0-.12.22h0a.54.54,0,0,0,0,.18c0,.05,0,.07.05.08s.11-.1.13-.24A.38.38,0,0,0,17.21,20.76Zm-.15.21Z"/><path class="cls-8" d="M16.55,20c0,.13.05.22.09.22s.08-.1.07-.23a.33.33,0,0,0-.09-.21A.35.35,0,0,0,16.55,20Z"/><path d="M16.64,20.23s-.05,0-.08-.07a.75.75,0,0,1,0-.16h0a.38.38,0,0,1,.08-.24s0,0,0,0,0,0,0,0a.49.49,0,0,1,.1.23.44.44,0,0,1,0,.23s0,0,0,0Zm0-.42a.43.43,0,0,0-.05.18h0q0,.09,0,.15a.12.12,0,0,0,0,0h0a.38.38,0,0,0,0-.19A.52.52,0,0,0,16.62,19.81Z"/><path class="cls-8" d="M16.68,20.18c0,.19,0,.36.09.37s.15-.14.18-.34a.59.59,0,0,0-.08-.37A.63.63,0,0,0,16.68,20.18Z"/><path d="M16.78,20.58h0c-.11,0-.14-.22-.11-.41a.61.61,0,0,1,.19-.35h0a.79.79,0,0,1,.09.4C17,20.39,16.87,20.58,16.78,20.58Zm.08-.7a.64.64,0,0,0-.15.3h0c0,.2,0,.34.06.35s.13-.12.16-.32A.58.58,0,0,0,16.86,19.88Zm-.18.3h0Z"/><path class="cls-8" d="M16.21,19.26c0,.15.05.26.11.26s.08-.13.07-.27a.4.4,0,0,0-.11-.25A.46.46,0,0,0,16.21,19.26Z"/><path d="M16.31,19.54s-.06,0-.09-.09a.49.49,0,0,1,0-.19.53.53,0,0,1,.08-.28h0a.47.47,0,0,1,.12.27c0,.14,0,.29-.1.29Zm0-.5a.44.44,0,0,0-.06.22h0a.39.39,0,0,0,0,.17s0,.06,0,.06.07-.09.06-.24A.46.46,0,0,0,16.29,19Z"/><path class="cls-8" d="M17.18,21.12c-.06.16,0,.31,0,.34s.17-.09.23-.25a.51.51,0,0,0,0-.34A.54.54,0,0,0,17.18,21.12Z"/><path d="M17.23,21.49h0c-.05,0-.07-.06-.08-.14a.7.7,0,0,1,0-.23h0a.53.53,0,0,1,.24-.26h0a.55.55,0,0,1,0,.36C17.41,21.38,17.31,21.49,17.23,21.49Zm0-.36a.56.56,0,0,0,0,.21c0,.05,0,.09,0,.1s.14-.08.2-.24a.44.44,0,0,0,0-.29.43.43,0,0,0-.19.22Z"/><polygon class="cls-7" points="17.68 22.81 16.16 19.47 16.23 19.44 17.8 22.83 17.69 22.84 17.68 22.81"/><path d="M17.67,22.87l0-.05-1.52-3.36.11-.06,1.6,3.45Zm-1.48-3.39,1.51,3.33h.07l-1.55-3.33Z"/><path class="cls-8" d="M17.13,22.45c.17.08.33.09.36,0s-.09-.18-.26-.26a.55.55,0,0,0-.36,0A.58.58,0,0,0,17.13,22.45Z"/><path d="M17.38,22.54a.74.74,0,0,1-.27-.06h0a.63.63,0,0,1-.26-.27s0,0,0,0a0,0,0,0,1,0,0,.66.66,0,0,1,.38,0c.16.07.31.2.27.29S17.44,22.54,17.38,22.54Zm-.24-.11c.17.08.31.08.32,0s-.06-.15-.24-.23a.6.6,0,0,0-.31,0,.49.49,0,0,0,.23.22Z"/><path class="cls-8" d="M17.19,22.66c.18,0,.34,0,.35-.05s-.12-.16-.3-.2a.64.64,0,0,0-.36.06A.54.54,0,0,0,17.19,22.66Z"/><path d="M17.35,22.71l-.17,0h0a.69.69,0,0,1-.32-.2s0,0,0,0a0,0,0,0,1,0,0,.55.55,0,0,1,.37-.06c.18,0,.35.12.33.22s-.06.08-.14.09Zm-.43-.23a.6.6,0,0,0,.27.16h0a.62.62,0,0,0,.23,0c.06,0,.09,0,.1,0s-.1-.12-.29-.16A.48.48,0,0,0,16.92,22.48Z"/><path class="cls-8" d="M16.71,21.39c.13.06.26.07.29,0s-.07-.15-.2-.21a.46.46,0,0,0-.29,0A.42.42,0,0,0,16.71,21.39Z"/><path d="M16.9,21.47h0a.52.52,0,0,1-.19-.06.43.43,0,0,1-.21-.22v0a0,0,0,0,1,0,0,.4.4,0,0,1,.31,0,.56.56,0,0,1,.17.11s.06.1,0,.13A.12.12,0,0,1,16.9,21.47Zm-.35-.27a.39.39,0,0,0,.17.17.38.38,0,0,0,.17,0c.05,0,.08,0,.08,0s0,0,0-.07a.58.58,0,0,0-.15-.11A.4.4,0,0,0,16.55,21.2Z"/><path class="cls-8" d="M16.24,20.3c.14.05.27.06.28,0s-.08-.12-.22-.18a.51.51,0,0,0-.28,0A.48.48,0,0,0,16.24,20.3Z"/><path d="M16.6,20.18h0l-.08,0h0a.6.6,0,0,0-.16-.08.59.59,0,0,0-.3,0s0,0,0,0v0a.52.52,0,0,0,.23.19.86.86,0,0,0,.21,0,.11.11,0,0,0,.1,0c0,.1,0,.2.1.2s.07,0,.07-.07A2.33,2.33,0,0,0,16.6,20.18Zm-.35.1a.43.43,0,0,1-.19-.14.38.38,0,0,1,.23,0,.54.54,0,0,1,.17.08.17.17,0,0,1,0,.06S16.4,20.34,16.25,20.28Z"/><path class="cls-8" d="M16,19.61c.12.1.24.14.28.1s-.05-.14-.17-.24a.47.47,0,0,0-.27-.1A.54.54,0,0,0,16,19.61Z"/><path d="M16.19,19.75a.5.5,0,0,1-.26-.12h0a.57.57,0,0,1-.17-.26,0,0,0,0,1,0,0s0,0,0,0a.59.59,0,0,1,.29.11.64.64,0,0,1,.14.15c.05.07,0,.11,0,.13A.07.07,0,0,1,16.19,19.75ZM16,19.59c.13.11.22.12.24.11a.11.11,0,0,0,0-.07.57.57,0,0,0-.13-.14.42.42,0,0,0-.23-.09.55.55,0,0,0,.15.19Z"/><path class="cls-8" d="M16,19.26c.06.13.15.22.21.2s.06-.16,0-.29A.47.47,0,0,0,16,19,.45.45,0,0,0,16,19.26Z"/><path d="M16.14,19.49a.16.16,0,0,1-.1,0,.61.61,0,0,1-.11-.18.49.49,0,0,1,0-.31h0a.42.42,0,0,1,.22.22.54.54,0,0,1,.05.19c0,.07,0,.12-.06.13ZM16,19a.35.35,0,0,0,0,.25h0a1,1,0,0,0,.1.15.12.12,0,0,0,.08,0s0,0,0-.09a.59.59,0,0,0,0-.17A.37.37,0,0,0,16,19Z"/><path class="cls-8" d="M16.23,20.5c.15.06.28.06.3,0s-.09-.13-.24-.19a.58.58,0,0,0-.3,0A.59.59,0,0,0,16.23,20.5Z"/><path d="M16.44,20.57h0a.58.58,0,0,1-.21-.05h0a.45.45,0,0,1-.25-.2s0,0,0,0h0a.47.47,0,0,1,.32,0c.15.05.28.15.26.22S16.52,20.57,16.44,20.57Zm-.21-.09a.79.79,0,0,0,.2,0c.05,0,.07,0,.08,0s-.07-.1-.23-.16a.54.54,0,0,0-.25,0,.69.69,0,0,0,.2.15Z"/><path class="cls-8" d="M16.8,21.61c.14,0,.26,0,.27-.07s-.1-.12-.24-.13a.46.46,0,0,0-.27.06A.44.44,0,0,0,16.8,21.61Z"/><path d="M16.88,21.64H16.8a.46.46,0,0,1-.26-.15v0a.44.44,0,0,1,.28-.07c.14,0,.28.08.27.17S17,21.64,16.88,21.64Zm-.07-.05c.14,0,.23,0,.24-.05s-.08-.09-.22-.11a.44.44,0,0,0-.23.05.51.51,0,0,0,.21.11Z"/><path d="M17.73,22.63h0c.1,0,.08-.07.18-.07a.08.08,0,0,1,.08.07.12.12,0,0,1-.12.13s-.15-.06-.16-.12h0Z"/><path d="M17.54,22.69c-.06,0-.14.07-.14.14h0c0,.06.06.08.12.08s.08,0,.08-.1v0s0-.07,0-.08h0s0,0,0,0h0S17.55,22.68,17.54,22.69Z"/><path d="M17.06,21.78h0s-.08.06-.08.1A.1.1,0,0,0,17,22c.06,0,.09,0,.09-.08v0s0-.07,0-.11,0,0,0,0h0S17.09,21.75,17.06,21.78Z"/><path d="M17.25,21.62h0c.1,0,0-.07.17-.07s.09,0,.09.08a.11.11,0,0,1-.1.12c-.09,0-.09-.08-.14-.08h0l0,0S17.26,21.62,17.25,21.62Z"/><path d="M16.82,20.67h0s.07-.07.14-.07a.09.09,0,0,1,.1.09c0,.05-.07.1-.11.1s-.17-.07-.17-.12Z"/><path d="M16.34,19.67h0s.06-.07.13-.07.11,0,.11.09-.07.1-.12.1-.16-.07-.16-.12Z"/><path d="M16.71,20.72c-.05,0-.21.1-.21.16a.11.11,0,0,0,.12.11.09.09,0,0,0,.1-.1v-.05h0s0,0,0,0h0a.11.11,0,0,0,0-.06Z"/><path d="M16.22,19.74c-.07.07-.21.05-.21.14a.14.14,0,0,0,.13.12.1.1,0,0,0,.1-.1v0c0-.06.05,0,.05-.08a0,0,0,0,0,0,0Z"/><path d="M17,21.39a0,0,0,0,0,0,0v0a0,0,0,0,0,0,0h0s0,0,0,0h0a0,0,0,0,0,0,0Z"/><path d="M17.12,21.27h0S17.13,21.27,17.12,21.27Z"/><path d="M16.61,20.21v0s0,.07.05.07h0s0,0,0-.05,0-.06-.05-.06h0Z"/><path d="M16.48,20.34h0v0s.09.07.09.13v0h.1a0,0,0,0,0,0,0s-.07-.19-.11-.19h0Z"/><path d="M16.23,19.71v0h0s0,0,0,0h0a0,0,0,0,0,0,0h0s0,0,0,0h0Z"/><path class="cls-7" d="M19.44,14.53c0,.06-.07.08-.1.08h-.21v-.24a.08.08,0,0,1,.06-.08.2.2,0,0,0-.13,0,.17.17,0,0,0-.12,0,.08.08,0,0,1,.06.08v.24h-.21s-.07,0-.1-.08a.26.26,0,0,0,0,.26.12.12,0,0,1,.1-.06H19v.82a.17.17,0,0,1-.06.12s.12.08.12.13.13-.13.13-.13a.17.17,0,0,1-.06-.12v-.82h.21a.12.12,0,0,1,.1.06A.26.26,0,0,0,19.44,14.53Z"/><path d="M19.08,15.8h0s-.07-.09-.12-.12h0l0,0a.14.14,0,0,0,.05-.1v-.81h-.19a.11.11,0,0,0-.09,0v0l0,0a.29.29,0,0,1,0-.27l0,0v0s.06.07.09.07H19v-.23a.08.08,0,0,0,0-.07h0l0,0a.31.31,0,0,1,.14,0,.3.3,0,0,1,.13,0l0,0h0a.08.08,0,0,0,0,.07v.23h.19s.06,0,.08-.07l0,0v0a.26.26,0,0,1,0,.27v0s0,0-.09,0h-.19v.81a.13.13,0,0,0,.05.1l0,0h0C19.15,15.71,19.08,15.77,19.08,15.8ZM19,15.67a.25.25,0,0,1,.09.09.27.27,0,0,1,.1-.09.19.19,0,0,1-.05-.12v-.84h.23a.13.13,0,0,1,.1,0,.27.27,0,0,0,0-.18.14.14,0,0,1-.1.06h-.23v-.26a.09.09,0,0,1,0-.08s-.07,0-.08,0a.1.1,0,0,0-.09,0,.09.09,0,0,1,0,.08v.26h-.23a.12.12,0,0,1-.1-.06.27.27,0,0,0,0,.18.13.13,0,0,1,.1,0H19v.84A.19.19,0,0,1,19,15.67Z"/><path d="M16.18,19.51a0,0,0,0,0-.05,0h0a.07.07,0,0,0,.06.06h0a0,0,0,0,0,0,0h0Z"/><path d="M20.15,17.26a.76.76,0,0,0,.12-.19.74.74,0,0,0,.5.24.7.7,0,0,1-.12-.24.91.91,0,0,0,.71.25s-.66-.2-.65-1.19a.43.43,0,0,1,0-.05l.1-.22a.06.06,0,0,0,0,0v-.27s.1,0,.12.09a.37.37,0,0,0-.06-.29.26.26,0,0,1,.13,0,.44.44,0,0,0-.18-.17.32.32,0,0,1,.16-.08,6.55,6.55,0,0,1-.62-.24,1.1,1.1,0,0,0-.78-.07.12.12,0,0,0-.06.06.17.17,0,0,1-.16.11c-.14,0-.33,0-.33.27,0,0,.18-.23.53,0,0,0,.06.07,0,0l-.39-.08s-.05,0,0,.06.53.19.45.92S19.44,17,19,17.3a1,1,0,0,0,.72-.24.7.7,0,0,1-.14.24c-.08.06.26,0,.5-.24Z"/><path d="M16.16,19.47c0,.12.07.25.15.25h0s0,0,.05,0c.18-.17-.1-.14-.16-.23s0,0-.06,0Z"/><path class="cls-3" d="M20.16,17.07l.08-.09V16.1h.06v.84a.85.85,0,0,0,.34.3s-.17-.38-.18-.44v-.7h.05v.62a.68.68,0,0,0,.42.4,1.5,1.5,0,0,1-.29-1,.78.78,0,0,1,.11-.24.17.17,0,0,0,0-.07l0-.35.14,0a.17.17,0,0,0-.12-.16.16.16,0,0,1,.12-.06s0-.07-.14-.11a.1.1,0,0,1,.05-.08,5,5,0,0,0-.66-.27c-.14,0-.57-.1-.55.09s.09.23.16.25a.58.58,0,0,1,.12.07s-.08,0,0,.09.13.13.11.19-.37-.27-.32,0a1.76,1.76,0,0,1-.2,1.6.72.72,0,0,0,.4-.36V16.1h.06v.68a2,2,0,0,1-.18.46.78.78,0,0,0,.33-.3V16.1h.08V17Z"/><path class="cls-4" d="M19.11,15.08s0-.12.38-.1a.05.05,0,0,1,0,0,.59.59,0,0,1,.14.26A.6.6,0,0,0,19.11,15.08Z"/><path d="M19.5,15.1s0,0,0,0a0,0,0,0,1,0,0s0,0,0,0S19.51,15.09,19.5,15.1Z"/><path class="cls-4" d="M19.37,15.3a.82.82,0,0,0,.16.12.44.44,0,0,1,.08-.09Z"/><path d="M19.57,15s0,0,.07,0a2.64,2.64,0,0,0,.38.11c.06,0,.09,0,.18,0s.27.19.37.19h0a.56.56,0,0,0-.41-.25L20,15c-.14,0-.1-.09-.29-.09s-.13,0-.13,0h0l0,0Z"/><path d="M20,15.12a.1.1,0,0,1-.11.09c-.07,0-.12,0-.12-.09s.05-.09.12-.09A.1.1,0,0,1,20,15.12Z"/><path class="cls-2" d="M19.94,15.12a.09.09,0,0,1-.08.09.09.09,0,0,1,0-.18A.09.09,0,0,1,19.94,15.12Z"/><path d="M19.89,15.12a0,0,0,0,1,0,0s0,0,0,0,0,0,0,0A0,0,0,0,1,19.89,15.12Z"/><path d="M16.94,21.25h0c.07-.05.06-.18.21.24h0s0,0-.06,0S17,21.44,17,21.4,17,21.29,16.94,21.25Z"/></g></g></svg>