<svg viewBox="0 0 40.5 40.5" xmlns="http://www.w3.org/2000/svg"><path d="m40.5 20.25a19.29 19.29 0 0 1 -.15 2.42 19.4 19.4 0 0 1 -1.24 5 20.26 20.26 0 0 1 -30.44 9.2c-.48-.34-.92-.68-1.37-1s-.7-.62-1-.95a20.25 20.25 0 1 1 34.12-16.8 19.32 19.32 0 0 1 .08 2.13z" fill="#003893"/><path d="m22.26 17.08-4.69-1.75v-.06l8.52-.5-8.52-.5v-.07l4.68-1.75-4.92.82a.2.2 0 0 1 0-.08l4.07-2.9-4.55 2.07v-.07l3.17-3.86-3.85 3.19-.17-.06 2.08-4.56-2.9 4.07h-.08l.82-4.93-1.75 4.66h-.06l-.5-8.51-.51 8.51h-.1l-1.72-4.67.83 4.92h-.08l-2.91-4.05 2.08 4.54-.07.06-3.86-3.15 3.18 3.85v.06l-4.6-2.06 4.07 2.9v.08l-4.92-.82 4.64 1.74v.07l-8.52.5 8.52.5v.07l-4.64 1.75 4.93-.83v.08l-4.07 2.91 4.54-2.08v.07l-3.12 3.86 3.85-3.18h.07l-2.06 4.6 2.86-4.07h.08l-.81 4.93 1.73-4.65h.06l.51 8.52.5-8.52h.06l1.76 4.68-.83-4.92h.08l2.91 4.07-2.05-4.56a.18.18 0 0 0 .07 0l3.86 3.17-3.18-3.85a.18.18 0 0 0 0-.07l4.55 2.07-4.07-2.9s0-.05 0-.08z" fill="#fff"/><path d="m40.5 20.25a19.29 19.29 0 0 1 -.15 2.42l-33.05 13.16c-.35-.31-.7-.62-1-.95l34.12-16.8a19.32 19.32 0 0 1 .08 2.17z" fill="#dd7500"/><path d="m40.35 22.67a19.4 19.4 0 0 1 -1.24 5l-30.44 9.2c-.48-.34-.92-.68-1.37-1z" fill="#fff"/></svg>