<svg xmlns="http://www.w3.org/2000/svg" viewBox="0 0 40.5 40.5"><defs><style>.cls-1{fill:#fff;}.cls-2{fill:#cf142b;}.cls-3{fill:#e60d2e;}.cls-4{fill:#96877d;}.cls-5{fill:#ccc;}</style></defs><g id="Ebene_2" data-name="Ebene 2"><g id="Ńëîé_1" data-name="Ńëîé 1"><path class="cls-1" d="M20.25,0V40.5A20.17,20.17,0,0,1,6.76,35.36,20.45,20.45,0,0,1,1.51,28c-.12-.32-.24-.63-.35-.95A1.87,1.87,0,0,1,1,26.58a19.49,19.49,0,0,1-1-6.33,20.06,20.06,0,0,1,1-6.32c.15-.47.31-.92.5-1.37A20.66,20.66,0,0,1,6.76,5.14,20.17,20.17,0,0,1,20.25,0Z"/><path class="cls-2" d="M40.5,20.25a20,20,0,0,1-1,6.33,4.11,4.11,0,0,1-.15.42c-.11.32-.23.63-.35.95A20.25,20.25,0,0,1,20.25,40.5V0A20.28,20.28,0,0,1,39,12.56c.19.45.35.9.5,1.37A20.06,20.06,0,0,1,40.5,20.25Z"/><path class="cls-3" d="M17.57,7.91H14.51a1.1,1.1,0,0,0-1-1V3.82H10.41V6.89a1.09,1.09,0,0,0-1,1H6.32V11H9.39a1.09,1.09,0,0,0,1,1v3.07h3.07V12a1.1,1.1,0,0,0,1-1h3.06Z"/><path class="cls-4" d="M17.37,8.11H14.3a1,1,0,0,0-1-1V4H10.62V7.09a1,1,0,0,0-1,1H6.53v2.66H9.59a1,1,0,0,0,1,1v3.06h2.66V11.8a1,1,0,0,0,1-1h3.07Z"/><path class="cls-5" d="M14.2,8.22a1,1,0,0,0-1-1V4.13H10.72V7.19a1,1,0,0,0-1,1H6.63v2.45H9.7a1,1,0,0,0,1,1v3.07h2.46V11.69a1,1,0,0,0,1-1h3.07V8.22Z"/><path class="cls-5" d="M14.1,9.44A2.15,2.15,0,1,1,12,7.3,2.15,2.15,0,0,1,14.1,9.44Z"/><path class="cls-4" d="M12,11.61a2.17,2.17,0,1,1,2.16-2.17A2.17,2.17,0,0,1,12,11.61Zm0-4.3a2.14,2.14,0,1,0,2.13,2.13A2.13,2.13,0,0,0,12,7.31Z"/><path class="cls-5" d="M13.59,9.44A1.64,1.64,0,1,1,12,7.81,1.64,1.64,0,0,1,13.59,9.44Z"/><path class="cls-4" d="M12,11.1A1.66,1.66,0,1,1,13.6,9.44,1.65,1.65,0,0,1,12,11.1Zm0-3.28a1.62,1.62,0,1,0,1.62,1.62A1.63,1.63,0,0,0,12,7.82Z"/><path class="cls-4" d="M12.45,9.89s.23-.31.39-.32a.78.78,0,0,0-.17.61Z"/><path d="M12.67,10.18h0l-.22-.29h0s.23-.32.4-.33h0a.77.77,0,0,0-.16.61Zm-.22-.29.21.27a.87.87,0,0,1,.16-.59C12.67,9.61,12.48,9.86,12.45,9.89Z"/><path class="cls-4" d="M13,9.72a.26.26,0,0,1-.19-.05s.07.1.11.11S13,9.72,13,9.72Z"/><path d="M12.93,9.79h0s-.11-.11-.11-.11h0c.1.06.18.05.18,0h0S13,9.79,12.93,9.79Zm-.09-.1s.06.08.09.08.05,0,.06,0A.27.27,0,0,1,12.84,9.69Z"/><path d="M9.94,10.05l-.07-.28.1-.06,0,0a.07.07,0,0,0-.05,0l0,0a.13.13,0,0,0,0,.06L10,10l.15,0v0s0,0,0,0H10v0l.18,0v0h0v.1l.13,0h0v0h0l0,.14h0s0,0,0,0h0L10,10h0v0h0Z"/><path d="M9.86,9.24a.12.12,0,0,1,0-.09A.27.27,0,0,1,10,9.08h.11a.21.21,0,0,1,.15.07.19.19,0,0,1,0,.14.18.18,0,0,1-.09.14.23.23,0,0,1-.14,0l-.11,0a.27.27,0,0,1-.07-.08A.17.17,0,0,1,9.86,9.24Zm0,0a.22.22,0,0,0,0,.08s0,0,.06,0l.1,0h.1l.06,0a.09.09,0,0,0,0-.07.15.15,0,0,0,0-.07.18.18,0,0,0-.07-.05.14.14,0,0,0-.09,0H10l-.07,0A.08.08,0,0,0,9.89,9.24Z"/><path d="M10,8.73l.08-.18,0-.07.05,0a.07.07,0,0,1,.06,0s0,0,0,0a.14.14,0,0,1,0,.06.25.25,0,0,1,0,.07l.16,0h.05v0h0l0,.08-.23,0,0,0,.11,0h0l0,0h0l-.06.13h0v0h0l-.24-.12h0v0h0ZM10,8.65l.14.07,0-.07s0,0,0-.06a.06.06,0,0,0,0,0s0,0,0,0h-.08l0,0Z"/><path d="M10.83,7.67h0l.1.09v0a.16.16,0,0,0-.1,0,.08.08,0,0,0-.07,0,.11.11,0,0,0,0,.1.19.19,0,0,0,0,.12.23.23,0,0,0,.07.07l.08,0L11,8l0,0s0,0,0,0v0s0,0,0,0h0l0,0h0l0,0v0L11,7.78v0h0l0,0,.08.12h0l0,0a.08.08,0,0,1,0,0l0,.06a.17.17,0,0,1-.14,0A.22.22,0,0,1,10.7,8a.23.23,0,0,1,0-.16.19.19,0,0,1,.07-.12l0,0h.06Z"/><path d="M11.34,7.44h0l.21.29s0,0,0,0h0v0l-.12,0v0h0v0l0,0,0-.07-.13,0v.12h.05v0l-.11,0v0h0v0Zm0,.23.11,0-.11-.15Z"/><path d="M11.83,7.35H12v0h-.05v.33H12l.05,0,0-.07h0l0,.13h-.28v0h0V7.41s0,0,0,0h0Z"/><path d="M12.42,7.4l.14,0v0h0s0,0,0,0l-.09.28v0h.11l.05,0,0,0,0,0-.08.11-.26-.08v0h0a0,0,0,0,1,0,0l.08-.26V7.43h0Z"/><path d="M13.1,7.69l0,0L13,8.07s0,0,0,0,0,0,0,0h0l0,0-.11-.08v0h0s0,0,0,0L13,8l-.11-.08-.08.06h0V8h0l0,0-.09-.06v0h0l0,0Zm-.17.17.1.06.05-.18Z"/><path d="M13.49,8l.07.09-.14.33.19-.15,0,0v0h0l.07.1h0s0,0,0,0h0l0,0-.27.21,0,0,.16-.39-.23.18,0,0h0s0,0,0,0v0h0l-.08-.1h0s0,0,0,0h0l0,0,.21-.16,0,0h0l0,0h0Z"/><path d="M13.88,8.58v0h0l.08.21h0v0l-.1.08v0l.05-.06a.17.17,0,0,0,0-.07v0h0l-.27.1h0v0h0l-.05-.14h0s0,0,0,0h0l.28-.1h0v0l0,0,0,0h-.06v0Z"/><path d="M14,9.17v.19a.22.22,0,0,1,0,.09s0,0,0,0l-.05,0h-.06l0,0a.19.19,0,0,1,0-.08l-.13.11,0,0v0a0,0,0,0,0,0,0h0V9.47l.19-.15v0h-.16a0,0,0,0,0,0,0h0V9.19h0v0H14v0h0Zm0,.1h-.16v.08a.18.18,0,0,1,0,.06l0,0H14s0,0,0,0,0,0,0-.05Z"/><path d="M14,9.81,14,10h0v0h0l-.16,0,.13.12h0v0h0l0,.11h0v0h0l0,0-.15-.15-.1,0h-.05v0h0l0-.15h0v0h0l.09,0L14,9.84h0s0,0,0,0Z"/><path class="cls-4" d="M14.24,8a.55.55,0,0,1-.76-.11.55.55,0,0,1-.11-.76.55.55,0,0,1,.76.11A.55.55,0,0,1,14.24,8Z"/><rect class="cls-5" x="13.9" y="7.5" width="0.1" height="0.61" transform="translate(9.62 -7.58) rotate(45.04)"/><polygon class="cls-5" points="13.98 7.41 13.91 7.34 13.62 7.48 13.62 7.48 13.77 7.19 13.69 7.12 13.4 7.7 13.55 7.63 13.55 7.63 13.98 7.41"/><path class="cls-4" d="M10.53,7.16a.55.55,0,0,1-.11.76A.55.55,0,0,1,9.66,8a.55.55,0,0,1,.11-.76A.55.55,0,0,1,10.53,7.16Z"/><rect class="cls-5" x="10.26" y="7.14" width="0.1" height="0.61" transform="translate(-2.24 9.47) rotate(-45)"/><polygon class="cls-5" points="9.91 7.41 9.84 7.48 9.99 7.77 9.99 7.77 9.7 7.63 9.63 7.7 10.2 7.99 10.13 7.84 10.13 7.84 9.91 7.41"/><path class="cls-4" d="M11.74,10.37l-.22,0h0l-.06.06s0,0,0,0h-.52l.52.08-.42,0,.09.1h1.77l.08-.07s0,0,0-.06l-.25-.12h0l-.37-.08h0l-.24-.08h0l-.08,0h0l-.12.07h0l-.09.08Z"/><path d="M12.85,10.67H11.1l-.1-.09h.31l-.4-.07h.34l.18,0h0a.15.15,0,0,1,0-.07h0l.22,0h0l.09-.07h0l.13-.06h0l.07,0h0l.23.09h0l.38.08h0l.24.13s0,0,0,0a.06.06,0,0,1,0,0l-.09.06ZM11,10.57l.09.08h1.75l.09-.06a0,0,0,0,0,0,0v0l-.25-.13h0l-.37-.08h0l-.24-.08H12l-.12.06h0l-.1.07s0,0,0,0l-.21,0h0a.16.16,0,0,0,0,.06s0,0,0,0l-.18,0H11l.43.07h0Z"/><path class="cls-4" d="M9.66,10.86a.64.64,0,0,1,.87.87.64.64,0,0,1-.87-.87Z"/><rect class="cls-5" x="9.9" y="10.77" width="0.1" height="0.61" transform="translate(9.14 25.95) rotate(-134.96)"/><polygon class="cls-5" points="9.91 11.48 9.99 11.55 10.28 11.41 10.28 11.4 10.13 11.7 10.2 11.77 10.49 11.19 10.35 11.26 10.35 11.26 9.91 11.48"/><path class="cls-4" d="M13.37,11.73a.64.64,0,0,1,.87-.87.64.64,0,0,1-.87.87Z"/><rect class="cls-5" x="13.53" y="11.13" width="0.1" height="0.61" transform="translate(31.28 9.94) rotate(135.04)"/><polygon class="cls-5" points="13.98 11.48 14.05 11.4 13.91 11.12 13.91 11.12 14.2 11.26 14.27 11.19 13.69 10.9 13.77 11.04 13.77 11.04 13.98 11.48"/><path d="M11.23,11.18a.1.1,0,0,1-.2,0,.1.1,0,0,1,.2,0Z"/><path class="cls-4" d="M13.12,9.75h.14c.05,0,0,0,0,0s0,0,0,0,0,0,0,0h0c-.08,0-.1-.07-.1-.1h0v0Z"/><path d="M13.22,9.9h0c-.08,0-.09-.06-.09-.1h0v0h.14s0,0,0,0h0s0,0,0,0h-.06v0h0Zm0,0Zm-.09-.14v0h0s0,.06.09.09h0v0h0l0,0h-.11Zm.08,0Zm0,0Z"/><path class="cls-4" d="M11.77,10.27a.61.61,0,0,1-.09.13s.09,0,.33-.15c0,0,0,.13.12.12v.08s-.11.09,0,0a.35.35,0,0,0,.15-.05s0,.06.07.06,0,0,0,0a.25.25,0,0,0,.16,0s0,0,.1,0,.06,0,.08,0,.06,0,.07,0a.19.19,0,0,0,.13-.05s.06,0,.14-.1a.91.91,0,0,0,.13-.2l.06,0s0,0,0,0,0,0-.05,0,0,0,0,0-.06,0-.05.17l-.15.11a.28.28,0,0,0-.08-.15s-.15-.24.08-.08c0,0,.09.06.14,0a.31.31,0,0,0,.08-.2l-.08-.15H13A.41.41,0,0,0,13,9.5s-.11.07-.09.13.1.09.1.09a.17.17,0,0,1-.12,0s0,.06.1.05,0,0,.06.06,0,.07-.06.06-.16-.15-.23-.09-.1.07,0,.21l0,0s-.34-.45-.72-.27c0,0,.16,0,.18.09s.14,0,.11.09a.07.07,0,0,1,.08.07s.06,0,.07,0a.07.07,0,0,1,.09.05.48.48,0,0,0-.21,0l-.27.06a.2.2,0,0,0-.27.08Z"/><path d="M12.1,10.51h0s0,0,0-.05l0-.07c-.08,0-.11-.09-.12-.12-.23.2-.33.15-.33.15h0a.76.76,0,0,0,.08-.13h0l0,0c.11-.17.25-.1.27-.08l.14,0,.13,0a.34.34,0,0,1,.2,0,.07.07,0,0,0-.07,0h0l0,0h-.06s0,0,0-.05a.05.05,0,0,0,0,0h0a0,0,0,0,0,0-.05.17.17,0,0,0-.1,0h0c0-.1-.18-.08-.18-.08h0c.37-.17.69.21.73.26l0,0a.18.18,0,0,1-.07-.15s0-.06,0-.07.22.08.24.09h0s0,0,0,0A.19.19,0,0,1,13,9.8s-.07,0-.08,0a0,0,0,0,1,0,0h0a.18.18,0,0,0,.11,0s-.09,0-.1-.09S13,9.5,13,9.5h0a.54.54,0,0,1,0,.11h.05l.09.16h0a.31.31,0,0,1-.08.2c-.06.07-.16,0-.16,0s-.1-.05-.11-.05,0,.08,0,.13a.23.23,0,0,1,.07.13l.14-.1a.19.19,0,0,1,.06-.16h0s0,0,0,0h.05a0,0,0,0,1,0,0h0a.1.1,0,0,1,0,0h-.07a1.33,1.33,0,0,1-.13.21c-.07.08-.12.09-.13.09s-.11.05-.13.06a.13.13,0,0,1-.08,0,.13.13,0,0,1-.08,0,.09.09,0,0,1-.1,0,.17.17,0,0,1-.15,0h0v0h0s-.06,0-.07-.05a.27.27,0,0,1-.15,0Zm0-.14h0l0,.07h0a.09.09,0,0,0,0,.05l.07,0a.38.38,0,0,0,.14,0h0s0,.05.07.05,0,0,0,0h0s0,0,0,0a.3.3,0,0,0,.15,0h0a.1.1,0,0,0,.1,0h0s.06,0,.08,0h0s.06,0,.07,0h0a.19.19,0,0,0,.13-.05h0s.06,0,.13-.09a1.27,1.27,0,0,0,.13-.2h.07a0,0,0,0,0,0,0h0v0h-.05s0,0,0,0h0a.19.19,0,0,0-.06.16h0l-.15.11h0a.27.27,0,0,0-.07-.14s-.07-.12,0-.15.06,0,.13.05.09.06.14,0a.32.32,0,0,0,.07-.19l-.08-.15H13a.31.31,0,0,0,0-.11s-.1.07-.09.12a.18.18,0,0,0,.1.09h0a.22.22,0,0,1-.12,0v0s0,0,.08,0h0a.17.17,0,0,0,.06.07h0s0,0,0,.05,0,0-.06,0h0s-.16-.15-.22-.08a.11.11,0,0,0,0,.06.19.19,0,0,0,.08.14h0l0,0h0s-.31-.41-.68-.27c.06,0,.14,0,.16.09a.14.14,0,0,1,.1,0,.09.09,0,0,1,0,.05h0s0,0,0,0,0,0,0,.05h0l0,0a.09.09,0,0,1,.09.06h0a.48.48,0,0,0-.21,0l-.12,0-.15,0h0s-.13-.09-.25.08l0,0s-.06.09-.09.12.13,0,.31-.15h0s0,.12.11.12Z"/><path d="M12.87,11.18a.1.1,0,0,1-.1.1.1.1,0,0,1-.11-.1.11.11,0,0,1,.11-.1A.11.11,0,0,1,12.87,11.18Z"/><path d="M12.16,11.29H12v-.11A.07.07,0,0,0,12,11.1h0a.08.08,0,0,0-.07.08v.11h-.15c-.05,0-.09,0-.09.05s0,.05.09.05h.15v.11a.07.07,0,0,0,.07.07h0A.07.07,0,0,0,12,11.5v-.11h.14c.06,0,.1,0,.1-.05S12.21,11.29,12.16,11.29Z"/><path class="cls-4" d="M10.76,10.29h0v0h0s0-.05,0-.08h0v-.1c0-.05-.07,0-.07-.11s.16-.09.16-.16a.43.43,0,0,1-.08-.25c0-.09,0-.13.09-.13s.28.11.33.11h.06s0,0,0,0a.11.11,0,0,1-.11.08c-.07,0-.14-.07-.22-.07s-.05,0-.05,0,.13.11.13.21-.1.09-.1.12,0,0,0,.05v0h0a.08.08,0,0,1,0,.05h0c0,.09-.1,0-.12.1S10.77,10.28,10.76,10.29Z"/><path d="M10.76,10.34h0a0,0,0,0,1,0,0,0,0,0,0,0,0,0h0V10.2h0v0a.05.05,0,0,0,0,0,.07.07,0,0,1,0-.07s0-.06.08-.09.08,0,.08-.07a.46.46,0,0,1-.08-.25c0-.08,0-.13.09-.13l.16.05.17,0h.06s.05,0,.05,0a.13.13,0,0,1-.12.09.3.3,0,0,1-.11,0,.21.21,0,0,0-.11,0s0,0,0,0l0,0a.27.27,0,0,1,.1.17s0,.06-.07.09l0,0a0,0,0,0,0,0,0v0h0v0h0a.06.06,0,0,1,0,.05h0s0,0-.06,0-.05,0-.07.05v0h0Zm0,0Zm0-.08h0l0,0s0,0,0,0h0v0c0-.06.05-.06.08-.06s.05,0,.05,0h0l0,0h0v0h0s0,0,0,0l0,0s.06-.05.06-.08a.26.26,0,0,0-.09-.16l0-.05s0,0,.05,0a.28.28,0,0,1,.12,0l.1,0a.12.12,0,0,0,.11-.07s0,0,0,0h-.06l-.17,0-.16-.05s-.08.05-.08.12a.38.38,0,0,0,.08.24h0s0,.06-.08.08-.08,0-.08.08a.07.07,0,0,0,0,.06,0,0,0,0,1,0,.05v0h0v0h0Z"/><path class="cls-4" d="M11.92,9.68s.09.19,0,.26a.08.08,0,0,1,0,.05,0,0,0,0,0,0,0s.19,0,.25,0a1,1,0,0,1,.19.16.17.17,0,0,1-.17-.08,0,0,0,0,0,0,0s0,0-.05,0a.67.67,0,0,1-.27,0s-.09.05-.1,0,0-.13,0-.2a.4.4,0,0,1,0-.17l.07-.06Z"/><path d="M12.39,10.14a.16.16,0,0,1-.15-.08h0v0h-.05a.91.91,0,0,1-.27,0,.1.1,0,0,1-.08,0s0,0,0,0V10a.16.16,0,0,0,0-.13.33.33,0,0,1,0-.17h0l.08-.05h0l.14,0h0s.08.19,0,.26A.07.07,0,0,1,12,10h0a.65.65,0,0,0,.25,0h0a.76.76,0,0,1,.2.16h0Zm-.15-.1h0a.15.15,0,0,0,.15.08,1,1,0,0,0-.18-.15A.69.69,0,0,1,12,10s0,0,0,0h0a.2.2,0,0,0,0-.05h0c.06-.06,0-.22,0-.24l-.12,0-.08.05a.58.58,0,0,0,0,.17.21.21,0,0,1,0,.13s0,0,0,.06,0,0,0,0,.06,0,.08,0h0a.64.64,0,0,0,.26,0h0s0,0,0,0h0s0,0,0,0Z"/><path class="cls-4" d="M11.15,9.68c0,.11.12.2.38.29a.38.38,0,0,1,0,.21s0,.07,0,.07a.51.51,0,0,1,.34.15,0,0,0,0,1,0,0s0,0,0,0a.42.42,0,0,0,.13,0s-.07-.26-.22-.19c0,0-.17-.06-.19-.18a.2.2,0,0,0,.08-.21s.05,0,.06-.16h.1s.07.05.32-.14l.15-.08s.08,0,.43-.08a.14.14,0,0,0,.12,0,.53.53,0,0,1,.17.19s0,0,0,0,0,.13.15.12l-.12-.21-.23-.18a.42.42,0,0,0-.25,0A.38.38,0,0,0,12.87,9s.08-.06.35.09a.12.12,0,0,0,.17,0L13.21,9a2.31,2.31,0,0,0-.33-.11.6.6,0,0,1-.22.16.41.41,0,0,0-.12-.13s0-.06-.2-.33a.54.54,0,0,0,.16-.05.19.19,0,0,0,.14,0s.09,0,0-.15a1.42,1.42,0,0,0-.36-.06.1.1,0,0,0,0-.08.29.29,0,0,0-.14.08,2.17,2.17,0,0,0-.15.26l0,.08v.17l0,.15a1,1,0,0,1-.07.16l-.18.09-.07.05a3.19,3.19,0,0,0-.31.09.41.41,0,0,0-.25.32Z"/><path d="M12.05,10.46H12l0,0a0,0,0,0,0,0,0h0a.48.48,0,0,0-.33-.15l0,0s0-.06,0-.06a.49.49,0,0,0,0-.2c-.26-.1-.33-.19-.38-.3h0a.43.43,0,0,1,0,0,.39.39,0,0,1,.26-.31l.3-.1.08,0L12,9.09,12,8.93l0-.15V8.61h0l0-.08a1.85,1.85,0,0,1,.16-.26.36.36,0,0,1,.14-.09h0a.14.14,0,0,1,0,.09,1.68,1.68,0,0,1,.36.05h0a.14.14,0,0,1,0,.14h0s-.12,0-.14,0a.3.3,0,0,1-.15.05c.2.22.2.31.19.33a.33.33,0,0,1,.12.12.73.73,0,0,0,.22-.16h0a2.31,2.31,0,0,1,.33.11h0l.19.15h0a.12.12,0,0,1-.17,0C13,9,12.89,9,12.88,9a.5.5,0,0,1-.16.26.37.37,0,0,1,.23,0l.22.18h0l.11.2h0c-.09,0-.14-.07-.15-.11l0,0,0,0a.6.6,0,0,0-.16-.18.13.13,0,0,1-.12,0,.86.86,0,0,1-.43.08l-.14.08c-.23.17-.32.14-.34.14h-.09c0,.13,0,.15-.05.16a.23.23,0,0,1-.09.22c0,.1.17.16.19.17a.12.12,0,0,1,.1,0c.09,0,.13.19.13.2h0Zm-.1,0h.12s0-.14-.11-.17a.09.09,0,0,0-.1,0h0s-.17-.06-.2-.18h0a.21.21,0,0,0,.08-.21h0s0,0,.05-.15h.11s.08,0,.32-.13l.15-.08h0s.09,0,.43-.09h0s0,0,.11,0h0a.39.39,0,0,1,.17.18h0s0,0,0,0h0s0,.12.13.12h0l-.12-.2-.22-.17a.32.32,0,0,0-.24,0h0A.42.42,0,0,0,12.86,9h0s.09-.06.36.09h0a.12.12,0,0,0,.15,0L13.21,9a1.73,1.73,0,0,0-.33-.12.55.55,0,0,1-.22.17h0a.42.42,0,0,0-.12-.12h0s0-.07-.2-.33h0a.54.54,0,0,0,.16-.05h0a.16.16,0,0,0,.13,0h0s0-.05,0-.12a1.32,1.32,0,0,0-.36-.06h0a.11.11,0,0,0,0-.07.24.24,0,0,0-.13.08,2.89,2.89,0,0,0-.16.25l0,.08v.17l0,.15h0L12,9.1l-.18.09-.08.05h0a1.74,1.74,0,0,0-.31.09.38.38,0,0,0-.24.31.06.06,0,0,0,0,0h0c0,.1.11.19.37.29h0s0,.07,0,.21a.05.05,0,0,0,0,.05h0a.55.55,0,0,1,.33.16s0,0,0,0l0,0Z"/><path class="cls-4" d="M11.09,9.08l.45.28.11.17-.2-.07L11,9.1S10.88,9,11.09,9.08Z"/><path d="M11.65,9.53h0l-.19-.06h0L11,9.11s0,0,0-.07,0,0,.14,0h0l.44.28h0l.11.16Zm-.2-.07.18,0-.1-.14-.44-.28c-.1-.05-.12,0-.12,0a.15.15,0,0,0,0,0Z"/><path class="cls-4" d="M12.14,8.22a.22.22,0,1,1-.44,0,.22.22,0,1,1,.44,0Z"/><path d="M11.92,8.45a.23.23,0,0,1-.23-.23.23.23,0,0,1,.46,0A.23.23,0,0,1,11.92,8.45Zm0-.45a.22.22,0,0,0-.22.22.22.22,0,0,0,.44,0A.22.22,0,0,0,11.92,8Z"/><path class="cls-4" d="M11.71,8.4l.07-.05a.1.1,0,0,0,0-.07v0h.11l.08,0H12l0,0s0,0,0,.05l0,.1h0a.08.08,0,0,1-.07.05l-.06,0-.09-.07Z"/><path d="M11.84,8.53h0l-.1-.06h0l0-.06h0l.07,0a.16.16,0,0,0,0-.07h0v0H12l.06,0h0l0,0h0a.15.15,0,0,1,0,.06v.09h0s0,.05-.08.05l-.05,0Zm-.09-.08.09.06.05,0h0s.07-.05.07-.05h0l0-.09h0a.07.07,0,0,0,0-.05l0,0-.06,0h-.18v0s0,.07,0,.08h0l-.06,0Z"/><path class="cls-4" d="M11.14,8.9s-.07,0-.27.2c0,0-.12.12-.25,0a.05.05,0,0,0,0-.07s-.14,0-.09-.09,0-.21.12-.21,0-.24.17-.22A.13.13,0,0,1,11,8.33s0-.1.11-.09a2.45,2.45,0,0,0,.58.13v.11l-.21.25a.71.71,0,0,1-.26.16Z"/><path d="M10.76,9.15h0a.19.19,0,0,1-.14-.08h0a.08.08,0,0,0,0,0V9s-.07,0-.09,0,0-.05,0-.09,0-.21.11-.22a.24.24,0,0,1,0-.17.12.12,0,0,1,.13,0A.15.15,0,0,1,11,8.32s0-.09.11-.09h0a2.45,2.45,0,0,0,.59.14h0v.11h0l-.21.26a.81.81,0,0,1-.26.15l-.08,0h0s-.08,0-.27.19A.15.15,0,0,1,10.76,9.15Zm-.12-.08a.17.17,0,0,0,.12.06h0a.15.15,0,0,0,.1,0,.85.85,0,0,1,.28-.2h.07a1.08,1.08,0,0,0,.26-.15l.21-.25v-.1a3.41,3.41,0,0,1-.58-.13h0c-.06,0-.09.08-.09.08h0a.14.14,0,0,0-.11.14h0a.14.14,0,0,0-.13,0c-.06.05,0,.17,0,.17h0c-.1,0-.11.2-.11.2h0s0,.07,0,.08.06,0,.08,0h0V9Zm.5-.17Z"/><path class="cls-4" d="M11.19,9s-.07.11,0,.15,0,0,0,.05l-.05,0a.56.56,0,0,0,0,.07s0,0-.05,0a0,0,0,0,1,0,0s0,0,0,0S11,9.15,11,9s0-.26.13-.31.07-.13.14-.13a.15.15,0,0,1,.1-.09.1.1,0,0,1,.05-.06s.18-.12.26-.06a.5.5,0,0,0,.26.16c.11,0,.08.25.08.25L12,9,12,9v.1a.43.43,0,0,1,.29.12,1.45,1.45,0,0,0,.14.39,1.86,1.86,0,0,1,.26.23.3.3,0,0,1-.18-.05s-.11,0-.1-.07a.52.52,0,0,1-.24-.4,1.69,1.69,0,0,1-.46-.07.47.47,0,0,1-.14-.3.21.21,0,0,1,0-.29s-.07.12-.18.11S11.24,8.94,11.19,9Z"/><path d="M12.61,9.84a.3.3,0,0,1-.15-.05.15.15,0,0,1-.09,0,.14.14,0,0,1,0-.06.53.53,0,0,1-.24-.4,1.79,1.79,0,0,1-.45-.07h0A.52.52,0,0,1,11.51,9a.26.26,0,0,1,0-.25.18.18,0,0,1-.13.06h0v0c0,.05-.09.16-.14.17a.11.11,0,0,0,0,.09.07.07,0,0,0,0,.05h0a0,0,0,0,1,0,.05h0l-.05,0V9.2h-.06a0,0,0,0,1,0,0s0,0,0,0l0,0A.11.11,0,0,1,11,9s0-.27.13-.32.06-.12.14-.13a.14.14,0,0,1,.1-.08.1.1,0,0,1,.05-.07h0c.06,0,.17-.1.23,0l0,0a.4.4,0,0,0,.22.12c.12,0,0,0,0,.05L12,9h0L12,9v.09a.55.55,0,0,1,.29.13h0a1.12,1.12,0,0,0,.14.39c.18.13.26.21.25.23h0Zm-.15-.07h0a.28.28,0,0,0,.16,0h0a1.89,1.89,0,0,0-.25-.21h0a1.15,1.15,0,0,1-.14-.38A.4.4,0,0,0,12,9.1h0V9h0l.06,0V8.8c0-.22.07-.23,0-.24a.52.52,0,0,1-.23-.13l0,0c-.05-.05-.16,0-.21,0h0a.1.1,0,0,0-.05.06h0a.14.14,0,0,0-.09.08h0c-.07,0-.13.12-.13.12h0c-.11,0-.12.3-.12.3h0c0,.05,0,.08,0,.09l0,0h0a0,0,0,0,0,0,0h0s0,0,0,0h0s0,0,0,0a.15.15,0,0,1,0-.07h0l0,0s0,0,0,0a.07.07,0,0,1,0-.09s0-.07,0-.07h0a.43.43,0,0,0,.12-.14s0,0,0,0h0a.2.2,0,0,0,.16-.1h0a.23.23,0,0,0,0,.28h0a.49.49,0,0,0,.13.29,1.94,1.94,0,0,0,.46.08h0a.47.47,0,0,0,.24.4h0s0,0,0,0a.08.08,0,0,0,.08,0Z"/><path d="M12,9h0l-.11-.08c-.09-.06-.12-.1-.13-.16s0-.18-.08-.21v0a.33.33,0,0,1-.08-.13h0s0,0,.07.12v0s.07.07.09.22,0,.09.11.15L12,9h0Z"/><path d="M11.93,8.65h-.09v0h0a.15.15,0,0,1,.08,0l0,0h0v0h0Zm-.08-.08h.07l0,0-.07,0h0Zm.06.06Z"/><path class="cls-4" d="M11.28,8.28a.13.13,0,0,1,.14-.06s0-.1.18,0,.05,0,.2,0A.15.15,0,0,1,12,8.14a.19.19,0,0,1,.11.15.47.47,0,0,1-.16,0,.23.23,0,0,0-.14,0s-.15.07-.17.11a.23.23,0,0,1-.14,0A.46.46,0,0,0,11.28,8.28Z"/><path d="M11.59,8.36a.28.28,0,0,1-.13,0,.46.46,0,0,0-.18,0h0a.14.14,0,0,1,.13-.07h0s.06-.09.19,0,.07,0,.2,0A.14.14,0,0,1,12,8.13a.18.18,0,0,1,.11.16h0a.36.36,0,0,1-.16,0,.23.23,0,0,0-.14,0s-.15.07-.16.1h0Zm-.3-.08a.37.37,0,0,1,.18,0,.33.33,0,0,0,.13,0,.38.38,0,0,1,.17-.1.23.23,0,0,1,.14,0,.5.5,0,0,0,.15,0,.16.16,0,0,0-.1-.13.13.13,0,0,0-.16,0h0c-.14-.06-.19,0-.19,0h0a.14.14,0,0,0-.18,0h0A.15.15,0,0,0,11.29,8.28Z"/><path class="cls-4" d="M12,9a.53.53,0,0,0,.07-.1.58.58,0,0,0,0-.17.26.26,0,0,1,0-.22,1.11,1.11,0,0,1,.11-.17,1,1,0,0,0,.07-.12.06.06,0,0,0-.08,0L12,8.47l-.06,0v.2a.75.75,0,0,1,.05.16S12,9,12,9Z"/><path d="M12,9h0V8.88a.9.9,0,0,0,0-.16s0,0,0,0V8.52h0L12,8.46l.14-.23h0a.07.07,0,0,1,.09,0h0a.31.31,0,0,1-.07.12l-.1.17a.26.26,0,0,0,0,.22.74.74,0,0,1,0,.17L12,9Zm0-.51V8.7h0a1.21,1.21,0,0,1,.05.18A.37.37,0,0,0,12,9a.18.18,0,0,0,0-.08.44.44,0,0,0,0-.16.28.28,0,0,1,0-.24s.07-.12.11-.16a.88.88,0,0,0,.07-.12s0,0-.07,0L12,8.47h0Z"/><path class="cls-4" d="M11.94,8.63s0,.22,0,.24.26-.11.34-.17a1.47,1.47,0,0,0,.25-.25h0a1.49,1.49,0,0,1-.21.22,1.26,1.26,0,0,1-.21.15A1.14,1.14,0,0,1,12,8.9a.09.09,0,0,1-.09-.05.67.67,0,0,1,0-.2Z"/><path d="M12,8.9h0s-.07,0-.09-.05a.46.46,0,0,1,0-.2h0s0,.21,0,.22.24-.09.34-.16a1.37,1.37,0,0,0,.24-.25h0a1.32,1.32,0,0,1-.21.23.6.6,0,0,1-.21.14A.84.84,0,0,1,12,8.9Zm-.08-.25a.41.41,0,0,0,0,.19.07.07,0,0,0,.08.05h0a.6.6,0,0,0,.18-.07.91.91,0,0,0,.21-.14,1.83,1.83,0,0,0,.21-.22h0a1.17,1.17,0,0,1-.25.25s-.25.19-.35.17-.05-.19,0-.23Z"/><polygon points="12.13 10.38 12.13 10.38 12.13 10.37 12.14 10.31 12.15 10.3 12.16 10.31 12.14 10.38 12.13 10.38"/><path d="M12.42,10.47h0v0l0,0h0s0,0,0,0h0s-.12.1-.17.07h0s0,0,0-.05,0-.08,0-.08h0s0,.07,0,.09l0,0s.12-.05.15-.07h0a.11.11,0,0,1,0,.05s0,0,0,0,0,0,0,0Z"/><polygon points="12.29 10.41 12.29 10.41 12.25 10.38 12.25 10.37 12.26 10.37 12.29 10.4 12.29 10.41 12.29 10.41"/><path d="M12.67,10.24h0a.08.08,0,0,0-.07-.05h0v0h0v0s.06,0,.08.06,0,0,.07,0h0Z"/><path class="cls-4" d="M12.92,10.27s.18.23.2,0c0,0,0,0,0,0s0,0,0,0-.08.2-.33,0Z"/><path d="M13.05,10.45a.4.4,0,0,1-.2-.08h0l.06-.09h0s.1.11.15.1a.1.1,0,0,0,0-.09h0s0,0,0,0h0s0,0,0,0h0a.17.17,0,0,1-.1.09Zm-.18-.09c.09.06.16.09.22.07a.14.14,0,0,0,.09-.08s0,0,0,0h0s0,.07,0,.08-.13-.07-.15-.1Z"/><polygon class="cls-4" points="12.87 10.36 12.83 10.34 12.89 10.25 12.92 10.28 12.91 10.32 12.87 10.36"/></g></g></svg>