<svg xmlns="http://www.w3.org/2000/svg" viewBox="0 0 40.5 40.5"><defs><style>.cls-1{fill:#34b233;}.cls-2{fill:#fecb00;}.cls-3{fill:#ea2839;}.cls-4{fill:#fff;}</style></defs><g id="Ebene_2" data-name="Ebene 2"><g id="Ńëîé_1" data-name="Ńëîé 1"><path class="cls-1" d="M40.5,20.25A20,20,0,0,1,39.34,27H1.16a20.22,20.22,0,0,1,0-13.5H39.34A20,20,0,0,1,40.5,20.25Z"/><path class="cls-2" d="M39.34,13.5H1.16a20.25,20.25,0,0,1,38.18,0Z"/><path class="cls-3" d="M39.34,27A20.25,20.25,0,0,1,1.16,27Z"/><polygon class="cls-4" points="20.26 6.92 23.57 17.1 34.28 17.1 25.61 23.4 28.92 33.58 20.26 27.29 11.6 33.58 14.91 23.4 6.25 17.1 16.95 17.1 20.26 6.92"/></g></g></svg>