<svg xmlns="http://www.w3.org/2000/svg" viewBox="0 0 40.45 40.5"><defs><style>.cls-1{fill:#da2032;}.cls-2{fill:#0066b3;}.cls-3{fill:#ffd900;}</style></defs><g id="Ebene_2" data-name="Ebene 2"><g id="Ńëîé_1" data-name="Ńëîé 1"><path class="cls-1" d="M13.49,1.15v38.2A20.26,20.26,0,0,1,0,21.29V19.21A20.26,20.26,0,0,1,13.49,1.15Z"/><path class="cls-2" d="M27,1.15v38.2a20.3,20.3,0,0,1-13.47,0V1.15A20.3,20.3,0,0,1,27,1.15Z"/><path class="cls-1" d="M40.45,19.21v2.08A20.26,20.26,0,0,1,27,39.35V1.15A20.26,20.26,0,0,1,40.45,19.21Z"/><path class="cls-3" d="M8.09,16.55A1.35,1.35,0,1,1,6.74,15.2,1.35,1.35,0,0,1,8.09,16.55Z"/><path class="cls-3" d="M6.74,18.23A2,2,0,0,1,4.88,17V17A1.86,1.86,0,1,0,8.6,17V17A2,2,0,0,1,6.74,18.23Z"/><polygon class="cls-3" points="6.74 20.25 5.91 19.75 5.07 19.24 6.74 19.24 8.4 19.24 7.57 19.75 6.74 20.25"/><polygon class="cls-3" points="6.74 27.33 5.91 26.83 5.07 26.32 6.74 26.32 8.4 26.32 7.57 26.83 6.74 27.33"/><rect class="cls-3" x="5.07" y="20.6" width="3.33" height="0.65"/><rect class="cls-3" x="5.07" y="25.32" width="3.33" height="0.65"/><rect class="cls-3" x="3.03" y="19.24" width="1.67" height="8.08"/><rect class="cls-3" x="8.78" y="19.24" width="1.67" height="8.08" transform="translate(19.22 46.57) rotate(180)"/><path class="cls-3" d="M7.53,21.8a.94.94,0,0,1,.21.57c0,.89-.72,1-1.1,1A.78.78,0,0,0,6.74,25,1.49,1.49,0,0,0,8.23,24,1.67,1.67,0,0,0,7.53,21.8Zm-.79,2.7a.34.34,0,1,1,0-.67.34.34,0,0,1,0,.67Z"/><path class="cls-3" d="M6.74,21.6a1.52,1.52,0,0,0-1.5.92,1.69,1.69,0,0,0,.7,2.25,1,1,0,0,1-.2-.58c0-.89.71-1,1.09-1A.79.79,0,0,0,6.74,21.6Zm0,1.13a.33.33,0,0,1-.34-.33.34.34,0,0,1,.34-.34.33.33,0,0,1,.33.34A.32.32,0,0,1,6.74,22.73Z"/><path class="cls-3" d="M6.72,12.14a.27.27,0,0,0,.06.35,1.34,1.34,0,0,1,.3.81,1.16,1.16,0,0,1-.14.39A.21.21,0,0,0,7,14a.17.17,0,0,0,.23-.21.63.63,0,0,1-.08-.32.67.67,0,0,1,.08-.23.16.16,0,0,0,0-.22.35.35,0,0,1,.13.39.17.17,0,0,0,0,.22c.1.11.27.28.06.79a.88.88,0,0,1-.85.45A.84.84,0,0,1,6,14.37a.64.64,0,0,1,.09-.78.27.27,0,0,0,0-.22c-.06-.14.08-.33.13-.36a.26.26,0,0,0,0,.21c.06.1.11.16.1.26a.6.6,0,0,1-.07.24c0,.09,0,.28.12.29s.22,0,.2-.2a1.09,1.09,0,0,0-.09-.24.49.49,0,0,1,0-.49.51.51,0,0,0,.08-.43C6.53,12.39,6.58,12.22,6.72,12.14Z"/></g></g></svg>