<svg viewBox="0 0 40.5 40.5" xmlns="http://www.w3.org/2000/svg"><path d="m40.5 20.25a20 20 0 0 1 -1 6.33h-38.5a19.49 19.49 0 0 1 -1-6.33 20.06 20.06 0 0 1 1-6.32h38.49a20.06 20.06 0 0 1 1.01 6.32z"/><path d="m39 12.56h-37.49a20.66 20.66 0 0 1 5.25-7.42 20.26 20.26 0 0 1 32.24 7.42z" fill="#007168"/><path d="m39 27.94a20.26 20.26 0 0 1 -37.48 0z" fill="#ed2939"/><path d="m39.34 27c-.11.32-.23.63-.35.94a20.26 20.26 0 0 1 -37.48 0c-.12-.31-.24-.62-.35-.94z" fill="#fce100"/><path d="m39.49 13.93h-38.49c.15-.47.31-.92.5-1.37h37.5c.18.44.34.9.49 1.37z" fill="#fff"/><path d="m39.49 26.58c0 .15-.1.28-.15.42-.11.32-.23.63-.35.94h-37.48c-.12-.31-.24-.62-.35-.94a2 2 0 0 1 -.16-.42z" fill="#fff"/><path d="m26.62 20.25-8.33 6.33-.54.42-1.24.94-9.75 7.42a20.4 20.4 0 0 1 -5.25-7.42c-.12-.31-.24-.62-.35-.94a2 2 0 0 1 -.16-.42 19.49 19.49 0 0 1 -1-6.33 20.06 20.06 0 0 1 1-6.32c.15-.47.31-.92.5-1.37a20.66 20.66 0 0 1 5.26-7.42l9.75 7.42 1.81 1.37z" fill="#ed2939"/><path d="m8.87 12.74 1.86 5.73h6.04l-4.88 3.55 1.86 5.74-4.88-3.55-4.88 3.55 1.86-5.74-4.88-3.55h6.04z" fill="#f9ed32"/><path d="m8.93 23.21s-1.16.27-.74.58a1.24 1.24 0 0 0 .74.29 1.23 1.23 0 0 0 .73-.29c.42-.31-.73-.58-.73-.58z" fill="#fff"/><path d="m8.91 24.12a1.25 1.25 0 0 1 -.74-.29.22.22 0 0 1 -.11-.21c.06-.25.78-.43.86-.44.08 0 .8.19.85.44a.23.23 0 0 1 -.1.21 1.2 1.2 0 0 1 -.77.29zm0-.86c-.29.06-.76.23-.79.38s0 .06.08.12a1.2 1.2 0 0 0 .7.28 1.24 1.24 0 0 0 .71-.28c.08-.06.07-.11.07-.12s-.46-.32-.75-.38z"/><path d="m8.93 23.21a2.22 2.22 0 0 1 .73.58s.81-.73 3.81.06l-1.11-3.85-.41-.4z" fill="#fff"/><path d="m13.47 23.89c-2.93-.77-3.76-.07-3.77-.07s0 0 0 0a2.11 2.11 0 0 0 -.72-.56s0 0 0 0l3-3.67a0 0 0 0 1 0 0l.41.4a0 0 0 0 1 0 0l1.11 3.9s0 0 0 0-.02 0-.03 0zm-2.41-.45a9.49 9.49 0 0 1 2.36.36l-1.1-3.8-.32-.39-3 3.59a2.25 2.25 0 0 1 .68.53 2.61 2.61 0 0 1 1.38-.29z"/><path d="m12.67 23a6.17 6.17 0 0 0 -3.74.26v-3.94a4.93 4.93 0 0 1 3 .23z" fill="#fff"/><path d="m8.93 23.26s0 0 0 0v-3.94s0 0 0 0a5 5 0 0 1 3.05.23l.72 3.4s0 0 0 0a6.19 6.19 0 0 0 -3.72.26zm0-3.9v3.79a6.39 6.39 0 0 1 3.65-.25l-.71-3.32a4.74 4.74 0 0 0 -2.87-.22z"/><path d="m8.93 23.21a2.22 2.22 0 0 0 -.74.58s-.8 0-3.81.06l1.11-3.85.42-.4z" fill="#fff"/><path d="m4.38 23.89s0 0 0 0a.06.06 0 0 1 0 0l1.11-3.9.42-.4h.06l3 3.67a0 0 0 0 1 0 0s0 0 0 0a2.1 2.1 0 0 0 -.71.56s0 0 0 0-.84 0-3.81.06zm1.15-3.89-1.1 3.84c2.66-.08 3.59-.06 3.74-.06a2.12 2.12 0 0 1 .69-.55l-3-3.59z"/><path d="m5.18 23a6.19 6.19 0 0 1 3.75.26v-3.94a4.94 4.94 0 0 0 -3 .23z" fill="#fff"/><path d="m8.93 23.26a6.17 6.17 0 0 0 -3.74-.26s0 0 0 0l.73-3.4a5 5 0 0 1 3.05-.23s0 0 0 0v3.89a.05.05 0 0 1 0 0zm-2.3-.52a6.26 6.26 0 0 1 2.26.41v-3.79a4.77 4.77 0 0 0 -2.95.22l-.71 3.32a6 6 0 0 1 1.4-.16z"/><path d="m14.48 24.61-6.84-7.87v-.23a0 0 0 0 0 0 0l-.85-1c-.59-.1-.88.24-.88.58a1.17 1.17 0 0 1 -.68 0l-.35.07s0 0 0 0l-2.02 2.76a0 0 0 0 0 0 0l1.07 1.31a0 0 0 0 0 .07 0l2.26-2.85s0 0 0 0v-.6a0 0 0 0 1 .07 0l.35.4h.38s0 0 .06 0l6.73 7.74c.18.2.56.12.57-.29.07-.01.07-.02.06-.02z"/><path d="m2.25 24.25.93 1.09a.07.07 0 0 0 .1 0l2-2.41v-.13l1-.88a0 0 0 0 1 0 0h.21v-.06l-.14-.11.14-.13a.06.06 0 0 1 .09 0l.07.07a.06.06 0 0 1 0 .08l-.16.23h-.28l-.5.47a.07.07 0 0 0 0 .1l.18.15s0 0 0 0l.33.84a.07.07 0 0 0 .1 0l.37-.26a.05.05 0 0 0 0-.07l-.24-.86a.08.08 0 0 1 0-.07l.55-.48a.06.06 0 0 0 0-.08l-.22-.35.1-.11s1.83 1.18 2.87.92a.06.06 0 0 0 .05-.06v-.88a.07.07 0 0 0 -.06-.07c-.36 0-2.12-.2-2.08-.66 0 0 0-.24.37-.35a.06.06 0 0 0 0-.1l-.19-.29s0-.06.07 0 .21.24.29.35a.06.06 0 0 0 .09 0 16.21 16.21 0 0 0 1.76-1.56.06.06 0 0 0 0 0v-.1a.08.08 0 0 1 0-.05l.55-.43a.07.07 0 0 1 .09 0l.27.23a.06.06 0 0 0 .09 0l1.51-1.26h.22s0 0 .05 0l2.57-2.48s0-.12-.07-.08l-2.77 2h-.08a.25.25 0 0 0 0-.28c-.1-.1-.22 0-.27.08a.07.07 0 0 1 -.06 0 .72.72 0 0 1 -.38-.2.08.08 0 0 0 -.12 0v.35a.05.05 0 0 1 0 0l-.62.57s0 0-.05 0h-.54s0 0-.05 0l-.75.78a.07.07 0 0 1 -.1 0s-.06 0-.12 0a9.35 9.35 0 0 0 -1.07 1 .09.09 0 0 0 0 .1l.15.16a.06.06 0 0 0 .09 0l.95-.8s.15 0 .09.1a8.23 8.23 0 0 1 -1 .83h-.12a.39.39 0 0 1 -.31-.34.07.07 0 0 0 -.11 0l-.72.56v.1l-2.1 1.76-.27.07a.06.06 0 0 0 0 .06v.61h.16v-.11l1.32-1.1v-.1l.11.06 1.08-.84-.95.88v.1l-.19.19-.13-.07-1.31 1.13s0 0 0 0h-.24l-.67.72h-.06a.64.64 0 0 0 -.43.09c-.19.13-1.16 1-1.38 1.24a.06.06 0 0 0 -.06.14z"/></svg>