<svg xmlns="http://www.w3.org/2000/svg" viewBox="0 0 40.5 40.5"><defs><style>.cls-1{fill:#007168;}.cls-2{fill:#ed2939;}.cls-3{fill:#fce100;}.cls-4{fill:#fff;}.cls-5{fill:#f9ed32;}</style></defs><g id="Ebene_2" data-name="Ebene 2"><g id="Ńëîé_1" data-name="Ńëîé 1"><path d="M40.5,20.25a20,20,0,0,1-1,6.33H1a19.49,19.49,0,0,1-1-6.33,20.06,20.06,0,0,1,1-6.32H39.49A20.06,20.06,0,0,1,40.5,20.25Z"/><path class="cls-1" d="M39,12.56H1.51A20.66,20.66,0,0,1,6.76,5.14,20.26,20.26,0,0,1,39,12.56Z"/><path class="cls-2" d="M39,27.94a20.26,20.26,0,0,1-37.48,0Z"/><path class="cls-3" d="M39.34,27c-.11.32-.23.63-.35.94a20.26,20.26,0,0,1-37.48,0c-.12-.31-.24-.62-.35-.94Z"/><path class="cls-4" d="M39.49,13.93H1c.15-.47.31-.92.5-1.37H39C39.18,13,39.34,13.46,39.49,13.93Z"/><path class="cls-4" d="M39.49,26.58c0,.15-.1.28-.15.42-.11.32-.23.63-.35.94H1.51c-.12-.31-.24-.62-.35-.94A2,2,0,0,1,1,26.58Z"/><path class="cls-2" d="M26.62,20.25l-8.33,6.33-.54.42-1.24.94L6.76,35.36a20.4,20.4,0,0,1-5.25-7.42c-.12-.31-.24-.62-.35-.94A2,2,0,0,1,1,26.58a19.49,19.49,0,0,1-1-6.33,20.06,20.06,0,0,1,1-6.32c.15-.47.31-.92.5-1.37A20.66,20.66,0,0,1,6.76,5.14l9.75,7.42,1.81,1.37Z"/><polygon class="cls-5" points="8.87 12.74 10.73 18.47 16.77 18.47 11.89 22.02 13.75 27.76 8.87 24.21 3.99 27.76 5.85 22.02 0.97 18.47 7.01 18.47 8.87 12.74"/><path class="cls-4" d="M8.93,23.21s-1.16.27-.74.58a1.24,1.24,0,0,0,.74.29,1.23,1.23,0,0,0,.73-.29C10.08,23.48,8.93,23.21,8.93,23.21Z"/><path d="M8.91,24.12a1.25,1.25,0,0,1-.74-.29.22.22,0,0,1-.11-.21c.06-.25.78-.43.86-.44h0c.08,0,.8.19.85.44a.23.23,0,0,1-.1.21,1.2,1.2,0,0,1-.77.29Zm0-.86c-.29.06-.76.23-.79.38s0,.06.08.12a1.2,1.2,0,0,0,.7.28h0a1.24,1.24,0,0,0,.71-.28c.08-.06.07-.11.07-.12S9.22,23.32,8.93,23.26Z"/><path class="cls-4" d="M8.93,23.21a2.22,2.22,0,0,1,.73.58s.81-.73,3.81.06L12.36,20l-.41-.4Z"/><path d="M13.47,23.89h0c-2.93-.77-3.76-.07-3.77-.07h0s0,0,0,0a2.11,2.11,0,0,0-.72-.56s0,0,0,0,0,0,0,0l3-3.67a0,0,0,0,1,0,0h0l.41.4a0,0,0,0,1,0,0l1.11,3.9s0,0,0,0S13.48,23.89,13.47,23.89Zm-2.41-.45a9.49,9.49,0,0,1,2.36.36L12.32,20,12,19.61,9,23.2a2.25,2.25,0,0,1,.68.53A2.61,2.61,0,0,1,11.06,23.44Z"/><path class="cls-4" d="M12.67,23a6.17,6.17,0,0,0-3.74.26V19.32a4.93,4.93,0,0,1,3,.23Z"/><path d="M8.93,23.26h0s0,0,0,0V19.32s0,0,0,0a5,5,0,0,1,3.05.23l0,0,.72,3.4s0,0,0,0h0a6.19,6.19,0,0,0-3.72.26Zm0-3.9v3.79a6.39,6.39,0,0,1,3.65-.25l-.71-3.32A4.74,4.74,0,0,0,9,19.36Z"/><path class="cls-4" d="M8.93,23.21a2.22,2.22,0,0,0-.74.58s-.8,0-3.81.06L5.49,20l.42-.4Z"/><path d="M4.38,23.89s0,0,0,0a.06.06,0,0,1,0,0l1.11-3.9v0l.42-.4h.06l3,3.67a0,0,0,0,1,0,0s0,0,0,0a2.1,2.1,0,0,0-.71.56s0,0,0,0h0s-.84,0-3.81.06ZM5.53,20l-1.1,3.84c2.66-.08,3.59-.06,3.74-.06a2.12,2.12,0,0,1,.69-.55l-3-3.59Z"/><path class="cls-4" d="M5.18,23a6.19,6.19,0,0,1,3.75.26V19.32a4.94,4.94,0,0,0-3,.23Z"/><path d="M8.93,23.26h0A6.17,6.17,0,0,0,5.19,23h0s0,0,0,0l.73-3.4,0,0a5,5,0,0,1,3.05-.23s0,0,0,0v3.89a.05.05,0,0,1,0,0Zm-2.3-.52a6.26,6.26,0,0,1,2.26.41V19.36a4.77,4.77,0,0,0-2.95.22L5.23,22.9A6,6,0,0,1,6.63,22.74Z"/><path d="M14.48,24.61,7.64,16.74v0l0-.23a0,0,0,0,0,0,0l-.85-1h0c-.59-.1-.88.24-.88.58,0,0,0,0,0,0a1.17,1.17,0,0,1-.68,0h0l-.35.07s0,0,0,0L2.86,18.92a0,0,0,0,0,0,0l1.07,1.31a0,0,0,0,0,.07,0l2.26-2.85s0,0,0,0l0-.6a0,0,0,0,1,.07,0l.35.4.38,0,0,0s0,0,.06,0l6.73,7.74c.18.2.56.12.57-.29C14.49,24.62,14.49,24.61,14.48,24.61Z"/><path d="M2.25,24.25l.93,1.09a.07.07,0,0,0,.1,0l2-2.41,0-.13,1-.88a0,0,0,0,1,0,0l.21,0,0-.06-.14-.11.14-.13a.06.06,0,0,1,.09,0l.07.07a.06.06,0,0,1,0,.08L6.49,22l0,0H6.21l0,0-.5.47a.07.07,0,0,0,0,.1l.18.15s0,0,0,0l.33.84a.07.07,0,0,0,.1,0l.37-.26a.05.05,0,0,0,0-.07l-.24-.86a.08.08,0,0,1,0-.07L7,21.82a.06.06,0,0,0,0-.08l-.22-.35.1-.11s1.83,1.18,2.87.92a.06.06,0,0,0,.05-.06v-.88a.07.07,0,0,0-.06-.07c-.36,0-2.12-.2-2.08-.66,0,0,0-.24.37-.35a.06.06,0,0,0,0-.1l-.19-.29s0-.06.07,0,.21.24.29.35a.06.06,0,0,0,.09,0,16.21,16.21,0,0,0,1.76-1.56.06.06,0,0,0,0,0v-.1a.08.08,0,0,1,0-.05L10.6,18a.07.07,0,0,1,.09,0l.27.23a.06.06,0,0,0,.09,0l1.51-1.26,0,0,.22,0s0,0,.05,0l2.57-2.48s0-.12-.07-.08l-2.77,2-.08,0a.25.25,0,0,0,0-.28c-.1-.1-.22,0-.27.08a.07.07,0,0,1-.06,0,.72.72,0,0,1-.38-.2.08.08,0,0,0-.12,0l0,.35a.05.05,0,0,1,0,0l-.62.57s0,0-.05,0h-.54s0,0-.05,0l-.75.78a.07.07,0,0,1-.1,0s-.06,0-.12,0a9.35,9.35,0,0,0-1.07,1,.09.09,0,0,0,0,.1l.15.16a.06.06,0,0,0,.09,0l.95-.8s.15,0,.09.1a8.23,8.23,0,0,1-1,.83H8.51a.39.39,0,0,1-.31-.34.07.07,0,0,0-.11,0l-.72.56v.1l-2.1,1.76h0L5,21.25a.06.06,0,0,0,0,.06l0,.61.16,0,0-.11,1.32-1.1v-.1l.11.06,1.08-.84-.95.88,0,.1L6.53,21l-.13-.07L5.09,22.06s0,0,0,0H4.85l0,0-.67.72-.06,0a.64.64,0,0,0-.43.09c-.19.13-1.16,1-1.38,1.24A.06.06,0,0,0,2.25,24.25Z"/></g></g></svg>