<svg viewBox="0 0 40.5 40.5" xmlns="http://www.w3.org/2000/svg"><path d="m40.5 20.25a20.16 20.16 0 0 1 -4.09 12.19h-32.32a20.21 20.21 0 0 1 0-24.38h32.32a20.16 20.16 0 0 1 4.09 12.19z" fill="#00a95c"/><path d="m36.41 8.06h-32.32a20.23 20.23 0 0 1 32.32 0z" fill="#d01c1f"/><path d="m36.41 32.44a20.23 20.23 0 0 1 -32.32 0z" fill="#d01c1f"/><g fill="#ffd700"><path d="m20.25 12.27.91 2.79h2.93l-2.37 1.73.9 2.78-2.37-1.72-2.37 1.72.9-2.78-2.37-1.73h2.93z"/><path d="m35.27 14.75a15.1 15.1 0 0 1 -30 0 16.66 16.66 0 0 0 30 0z"/></g></svg>