<svg xmlns="http://www.w3.org/2000/svg" viewBox="0 0 40.5 40.5"><defs><style>.cls-1{fill:#00a95c;}.cls-2{fill:#d01c1f;}.cls-3{fill:gold;}</style></defs><g id="Ebene_2" data-name="Ebene 2"><g id="Ńëîé_1" data-name="Ńëîé 1"><path class="cls-1" d="M40.5,20.25a20.16,20.16,0,0,1-4.09,12.19H4.09a20.21,20.21,0,0,1,0-24.38H36.41A20.16,20.16,0,0,1,40.5,20.25Z"/><path class="cls-2" d="M36.41,8.06H4.09a20.23,20.23,0,0,1,32.32,0Z"/><path class="cls-2" d="M36.41,32.44a20.23,20.23,0,0,1-32.32,0Z"/><polygon class="cls-3" points="20.25 12.27 21.16 15.06 24.09 15.06 21.72 16.79 22.62 19.57 20.25 17.85 17.88 19.57 18.78 16.79 16.41 15.06 19.34 15.06 20.25 12.27"/><path class="cls-3" d="M35.27,14.75a15.1,15.1,0,0,1-30,0,16.66,16.66,0,0,0,30,0Z"/></g></g></svg>