<svg viewBox="0 0 40.5 40.5" xmlns="http://www.w3.org/2000/svg"><path d="m40.5 20.25a20 20 0 0 1 -1.16 6.75h-38.18a20.22 20.22 0 0 1 0-13.5h38.18a20 20 0 0 1 1.16 6.75z" fill="#ce1126"/><path d="m39.34 13.5h-38.18a20.25 20.25 0 0 1 38.18 0z"/><path d="m39.34 27a20.25 20.25 0 0 1 -38.18 0z" fill="#339e35"/><g fill="#ce1126"><path d="m28.51 12.44a8.82 8.82 0 0 0 -16.49 0z"/><path d="m20.66 2.92a21.92 21.92 0 0 1 -.41 2.58 21.92 21.92 0 0 1 -.41-2.58c0-1.07.23-1.3.41-1.3s.41.23.41 1.3z"/><path d="m21.74 3a20.94 20.94 0 0 1 -.63 2.54 21.26 21.26 0 0 1 -.18-2.61c.09-1.07.33-1.27.52-1.26s.38.26.29 1.33z"/><path d="m22.81 3.17a21.86 21.86 0 0 1 -.81 2.48 22.09 22.09 0 0 1 0-2.65c.18-1 .44-1.24.62-1.21s.38.33.19 1.38z"/><path d="m23.87 3.44a23.44 23.44 0 0 1 -1.05 2.39 20.5 20.5 0 0 1 .26-2.6c.27-1 .54-1.2.72-1.15s.34.32.07 1.36z"/><path d="m24.89 3.79a20.7 20.7 0 0 1 -1.25 2.3 22.92 22.92 0 0 1 .48-2.57c.36-1 .65-1.15.82-1.09s.31.35-.05 1.36z"/><path d="m25.89 4.23a21.68 21.68 0 0 1 -1.45 2.18 23.82 23.82 0 0 1 .7-2.52c.45-1 .75-1.09.91-1s.28.37-.16 1.34z"/><path d="m26.84 4.76a23.58 23.58 0 0 1 -1.63 2 21.51 21.51 0 0 1 .92-2.45c.52-.93.83-1 1-.93s.23.44-.29 1.38z"/><path d="m27.74 5.36a21.68 21.68 0 0 1 -1.74 1.9 22.46 22.46 0 0 1 1.07-2.36c.6-.89.91-1 1.07-.85s.21.42-.4 1.31z"/><path d="m28.59 6a21.11 21.11 0 0 1 -1.95 1.75 21.69 21.69 0 0 1 1.36-2.23c.67-.83 1-.87 1.14-.75s.13.43-.55 1.23z"/><path d="m29.38 6.78a22.6 22.6 0 0 1 -2.09 1.57 22.89 22.89 0 0 1 1.5-2.14c.75-.77 1.07-.77 1.2-.65s.13.44-.61 1.22z"/><path d="m30.1 7.59a20.17 20.17 0 0 1 -2.22 1.41 22.6 22.6 0 0 1 1.68-2c.81-.71 1.13-.69 1.25-.55s.1.44-.71 1.14z"/><path d="m30.75 8.47a23.75 23.75 0 0 1 -2.33 1.19 22 22 0 0 1 1.85-1.86c.86-.63 1.18-.58 1.29-.43s.05.46-.81 1.1z"/><path d="m31.32 9.39a22.69 22.69 0 0 1 -2.42 1 21.49 21.49 0 0 1 2-1.69c.91-.56 1.23-.48 1.32-.32s.02.45-.9 1.01z"/><path d="m31.81 10.36a22.12 22.12 0 0 1 -2.49.77 23.63 23.63 0 0 1 2.13-1.51c1-.47 1.26-.37 1.35-.21s-.03.47-.99.95z"/><path d="m32.22 11.36a20.79 20.79 0 0 1 -2.55.56 22.71 22.71 0 0 1 2.25-1.32c1-.39 1.29-.26 1.36-.09s-.06.49-1.06.85z"/><path d="m32.54 12.4a8.33 8.33 0 0 1 -2.06.06 13.43 13.43 0 0 1 1.83-.84c1-.31 1.31-.16 1.36 0s-.1.48-1.13.78z"/><path d="m19.84 2.92a21.92 21.92 0 0 0 .41 2.58 21.92 21.92 0 0 0 .41-2.58c0-1.07-.23-1.3-.41-1.3s-.41.23-.41 1.3z"/><path d="m18.76 3a20.94 20.94 0 0 0 .63 2.54 21.26 21.26 0 0 0 .18-2.61c-.09-1.07-.33-1.27-.52-1.26s-.38.26-.29 1.33z"/><path d="m17.69 3.17a21.86 21.86 0 0 0 .84 2.48 22.09 22.09 0 0 0 0-2.62c-.18-1-.44-1.24-.62-1.21s-.41.3-.22 1.35z"/><path d="m16.63 3.44a23.44 23.44 0 0 0 1.05 2.39 20.5 20.5 0 0 0 -.26-2.6c-.27-1-.54-1.2-.72-1.15s-.34.32-.07 1.36z"/><path d="m15.61 3.79a20.7 20.7 0 0 0 1.25 2.3 22.92 22.92 0 0 0 -.48-2.57c-.36-1-.65-1.15-.82-1.09s-.31.35.05 1.36z"/><path d="m14.61 4.23a21.68 21.68 0 0 0 1.45 2.18 23.82 23.82 0 0 0 -.7-2.52c-.45-1-.75-1.09-.91-1s-.28.37.16 1.34z"/><path d="m13.66 4.76a23.58 23.58 0 0 0 1.63 2 21.51 21.51 0 0 0 -.92-2.45c-.52-.93-.83-1-1-.93s-.23.44.29 1.38z"/><path d="m12.76 5.36a21.68 21.68 0 0 0 1.79 1.9 22.46 22.46 0 0 0 -1.12-2.36c-.6-.89-.91-1-1.07-.85s-.21.42.4 1.31z"/><path d="m11.91 6a21.11 21.11 0 0 0 1.95 1.75 21.69 21.69 0 0 0 -1.32-2.26c-.67-.83-1-.87-1.14-.75s-.17.46.51 1.26z"/><path d="m11.12 6.78a22.6 22.6 0 0 0 2.09 1.57 22.89 22.89 0 0 0 -1.5-2.14c-.75-.77-1.07-.77-1.2-.65s-.13.44.61 1.22z"/><path d="m10.4 7.59a20.17 20.17 0 0 0 2.22 1.41 22.6 22.6 0 0 0 -1.68-2c-.81-.71-1.13-.69-1.25-.55s-.1.44.71 1.14z"/><path d="m9.75 8.47a23.75 23.75 0 0 0 2.33 1.19 22 22 0 0 0 -1.85-1.86c-.86-.63-1.18-.58-1.29-.43s-.05.46.81 1.1z"/><path d="m9.18 9.39a22.69 22.69 0 0 0 2.42 1 21.49 21.49 0 0 0 -2-1.69c-.91-.56-1.23-.48-1.32-.32s-.02.45.9 1.01z"/><path d="m8.69 10.36a22.12 22.12 0 0 0 2.49.77 23.63 23.63 0 0 0 -2.13-1.51c-1-.47-1.26-.37-1.35-.21s.03.47.99.95z"/><path d="m8.28 11.36a20.79 20.79 0 0 0 2.55.56 22.71 22.71 0 0 0 -2.25-1.32c-1-.39-1.29-.26-1.36-.09s.06.49 1.06.85z"/><path d="m8 12.4a8.33 8.33 0 0 0 2.06.06 13.43 13.43 0 0 0 -1.83-.84c-1-.31-1.31-.16-1.36 0s.06.48 1.13.78z"/></g></svg>