<svg xmlns="http://www.w3.org/2000/svg" viewBox="0 0 40.5 40.5"><defs><style>.cls-1{fill:#cc0001;}.cls-2{fill:#fff;}.cls-3{fill:#010066;}.cls-4{fill:#fc0;}</style></defs><g id="Ebene_2" data-name="Ebene 2"><g id="Ńëîé_1" data-name="Ńëîé 1"><path class="cls-1" d="M30.67,2.89H9.83A20,20,0,0,1,20.25,0,20.1,20.1,0,0,1,30.67,2.89Z"/><path class="cls-2" d="M34.41,5.79H6.09a19.6,19.6,0,0,1,3.74-2.9H30.67A19.6,19.6,0,0,1,34.41,5.79Z"/><path class="cls-1" d="M36.85,8.68H3.65A18.67,18.67,0,0,1,6.09,5.79H34.41A18.67,18.67,0,0,1,36.85,8.68Z"/><path class="cls-2" d="M38.54,11.57H2A19,19,0,0,1,3.65,8.68h33.2A19,19,0,0,1,38.54,11.57Z"/><path class="cls-1" d="M39.65,14.46H.85A17.42,17.42,0,0,1,2,11.57H38.54A17.42,17.42,0,0,1,39.65,14.46Z"/><path class="cls-2" d="M40.3,17.36H.2a21.06,21.06,0,0,1,.65-2.9h38.8A21.06,21.06,0,0,1,40.3,17.36Z"/><path class="cls-1" d="M40.5,20.25H0a21.14,21.14,0,0,1,.2-2.89H40.3A21.14,21.14,0,0,1,40.5,20.25Z"/><path class="cls-2" d="M40.5,20.25a21.14,21.14,0,0,1-.2,2.89H.2A21.14,21.14,0,0,1,0,20.25Z"/><path class="cls-1" d="M40.3,23.14a21.06,21.06,0,0,1-.65,2.9H.85a21.06,21.06,0,0,1-.65-2.9Z"/><path class="cls-2" d="M39.65,26a17.42,17.42,0,0,1-1.11,2.89H2A17.42,17.42,0,0,1,.85,26Z"/><path class="cls-1" d="M38.54,28.93a19,19,0,0,1-1.69,2.89H3.65A19,19,0,0,1,2,28.93Z"/><path class="cls-2" d="M36.85,31.82a18.67,18.67,0,0,1-2.44,2.89H6.09a18.67,18.67,0,0,1-2.44-2.89Z"/><path class="cls-1" d="M34.41,34.71a19.6,19.6,0,0,1-3.74,2.9H9.83a19.6,19.6,0,0,1-3.74-2.9Z"/><path class="cls-2" d="M30.67,37.61a20.23,20.23,0,0,1-20.84,0Z"/><path class="cls-3" d="M25.08.58V23.14H.2a21,21,0,0,1,0-5.78,21.06,21.06,0,0,1,.65-2.9A17.42,17.42,0,0,1,2,11.57,19,19,0,0,1,3.65,8.68,18.67,18.67,0,0,1,6.09,5.79a19.6,19.6,0,0,1,3.74-2.9A20,20,0,0,1,20.25,0,20.28,20.28,0,0,1,25.08.58Z"/><path class="cls-4" d="M12.53,17a5.45,5.45,0,1,1,0-10.89,5.31,5.31,0,0,1,2,.38A6.17,6.17,0,1,0,11,17.74a6.18,6.18,0,0,0,3.53-1.1A5.52,5.52,0,0,1,12.53,17Z"/><polygon class="cls-4" points="17.16 6.52 17.7 9.23 19.35 7.02 18.68 9.69 21.11 8.42 19.36 10.53 22.09 10.45 19.6 11.57 22.09 12.7 19.36 12.62 21.11 14.72 18.68 13.45 19.35 16.12 17.7 13.92 17.16 16.63 16.62 13.92 14.97 16.12 15.64 13.45 13.21 14.72 14.96 12.62 12.23 12.7 14.72 11.57 12.23 10.45 14.96 10.53 13.21 8.42 15.64 9.69 14.97 7.02 16.62 9.23 17.16 6.52"/></g></g></svg>