<svg viewBox="0 0 40.5 40.5" xmlns="http://www.w3.org/2000/svg"><path d="m30.67 2.89h-20.84a20 20 0 0 1 10.42-2.89 20.1 20.1 0 0 1 10.42 2.89z" fill="#cc0001"/><path d="m34.41 5.79h-28.32a19.6 19.6 0 0 1 3.74-2.9h20.84a19.6 19.6 0 0 1 3.74 2.9z" fill="#fff"/><path d="m36.85 8.68h-33.2a18.67 18.67 0 0 1 2.44-2.89h28.32a18.67 18.67 0 0 1 2.44 2.89z" fill="#cc0001"/><path d="m38.54 11.57h-36.54a19 19 0 0 1 1.65-2.89h33.2a19 19 0 0 1 1.69 2.89z" fill="#fff"/><path d="m39.65 14.46h-38.8a17.42 17.42 0 0 1 1.15-2.89h36.54a17.42 17.42 0 0 1 1.11 2.89z" fill="#cc0001"/><path d="m40.3 17.36h-40.1a21.06 21.06 0 0 1 .65-2.9h38.8a21.06 21.06 0 0 1 .65 2.9z" fill="#fff"/><path d="m40.5 20.25h-40.5a21.14 21.14 0 0 1 .2-2.89h40.1a21.14 21.14 0 0 1 .2 2.89z" fill="#cc0001"/><path d="m40.5 20.25a21.14 21.14 0 0 1 -.2 2.89h-40.1a21.14 21.14 0 0 1 -.2-2.89z" fill="#fff"/><path d="m40.3 23.14a21.06 21.06 0 0 1 -.65 2.9h-38.8a21.06 21.06 0 0 1 -.65-2.9z" fill="#cc0001"/><path d="m39.65 26a17.42 17.42 0 0 1 -1.11 2.89h-36.54a17.42 17.42 0 0 1 -1.15-2.89z" fill="#fff"/><path d="m38.54 28.93a19 19 0 0 1 -1.69 2.89h-33.2a19 19 0 0 1 -1.65-2.89z" fill="#cc0001"/><path d="m36.85 31.82a18.67 18.67 0 0 1 -2.44 2.89h-28.32a18.67 18.67 0 0 1 -2.44-2.89z" fill="#fff"/><path d="m34.41 34.71a19.6 19.6 0 0 1 -3.74 2.9h-20.84a19.6 19.6 0 0 1 -3.74-2.9z" fill="#cc0001"/><path d="m30.67 37.61a20.23 20.23 0 0 1 -20.84 0z" fill="#fff"/><path d="m25.08.58v22.56h-24.88a21 21 0 0 1 0-5.78 21.06 21.06 0 0 1 .65-2.9 17.42 17.42 0 0 1 1.15-2.89 19 19 0 0 1 1.65-2.89 18.67 18.67 0 0 1 2.44-2.89 19.6 19.6 0 0 1 3.74-2.9 20 20 0 0 1 10.42-2.89 20.28 20.28 0 0 1 4.83.58z" fill="#010066"/><g fill="#fc0"><path d="m12.53 17a5.45 5.45 0 1 1 0-10.89 5.31 5.31 0 0 1 2 .38 6.17 6.17 0 1 0 -3.53 11.25 6.18 6.18 0 0 0 3.53-1.1 5.52 5.52 0 0 1 -2 .36z"/><path d="m17.16 6.52.54 2.71 1.65-2.21-.67 2.67 2.43-1.27-1.75 2.11 2.73-.08-2.49 1.12 2.49 1.13-2.73-.08 1.75 2.1-2.43-1.27.67 2.67-1.65-2.2-.54 2.71-.54-2.71-1.65 2.2.67-2.67-2.43 1.27 1.75-2.1-2.73.08 2.49-1.13-2.49-1.12 2.73.08-1.75-2.11 2.43 1.27-.67-2.67 1.65 2.21z"/></g></svg>