<svg viewBox="0 0 40.5 40.5" xmlns="http://www.w3.org/2000/svg" xmlns:xlink="http://www.w3.org/1999/xlink"><linearGradient id="a" gradientUnits="userSpaceOnUse" x1="17.04" x2="23.46" y1="20.71" y2="20.71"><stop offset="0" stop-color="#025"/><stop offset=".5" stop-color="#04a"/><stop offset="1" stop-color="#025"/></linearGradient><linearGradient id="b" x1="17.01" x2="23.49" xlink:href="#a" y1="20.76" y2="20.76"/><linearGradient id="c" x1="16.98" x2="23.52" xlink:href="#a" y1="20.81" y2="20.81"/><linearGradient id="d" x1="16.95" x2="23.55" xlink:href="#a" y1="20.87" y2="20.87"/><linearGradient id="e" x1="16.92" x2="23.58" xlink:href="#a" y1="20.92" y2="20.92"/><linearGradient id="f" x1="16.89" x2="23.61" xlink:href="#a" y1="20.97" y2="20.97"/><linearGradient id="g" x1="16.86" x2="23.64" xlink:href="#a" y1="21.02" y2="21.02"/><linearGradient id="h" x1="16.83" x2="23.67" xlink:href="#a" y1="21.08" y2="21.08"/><linearGradient id="i" x1="16.8" x2="23.71" xlink:href="#a" y1="21.13" y2="21.13"/><linearGradient id="j" x1="15.9" x2="24.61" xlink:href="#a" y1="22.65" y2="22.65"/><linearGradient id="k" x1="15.96" x2="24.55" xlink:href="#a" y1="22.56" y2="22.56"/><linearGradient id="l" x1="16.01" x2="24.49" xlink:href="#a" y1="22.46" y2="22.46"/><linearGradient id="m" x1="16.06" x2="24.43" xlink:href="#a" y1="22.37" y2="22.37"/><linearGradient id="n" x1="16.12" x2="24.38" xlink:href="#a" y1="22.28" y2="22.28"/><linearGradient id="o" x1="16.17" x2="24.32" xlink:href="#a" y1="22.18" y2="22.18"/><linearGradient id="p" x1="16.22" x2="24.26" xlink:href="#a" y1="22.09" y2="22.09"/><linearGradient id="q" x1="16.28" x2="24.2" xlink:href="#a" y1="21.99" y2="21.99"/><linearGradient id="r" x1="16.33" x2="24.15" xlink:href="#a" y1="21.9" y2="21.9"/><linearGradient id="s" x1="16.39" x2="24.09" xlink:href="#a" y1="21.8" y2="21.8"/><linearGradient id="t" x1="16.44" x2="24.03" xlink:href="#a" y1="21.71" y2="21.71"/><linearGradient id="u" x1="16.5" x2="23.98" xlink:href="#a" y1="21.61" y2="21.61"/><linearGradient id="v" x1="16.56" x2="23.92" xlink:href="#a" y1="21.52" y2="21.52"/><linearGradient id="w" x1="16.62" x2="23.87" xlink:href="#a" y1="21.43" y2="21.43"/><linearGradient id="x" x1="16.67" x2="23.82" xlink:href="#a" y1="21.33" y2="21.33"/><linearGradient id="y" x1="16.73" x2="23.76" xlink:href="#a" y1="21.24" y2="21.24"/><linearGradient id="z" x1="16.77" x2="23.74" xlink:href="#a" y1="21.18" y2="21.18"/><path d="m40.5 20.25a20.19 20.19 0 0 1 -1.16 6.75h-38.18a20.22 20.22 0 0 1 0-13.5h38.18a20.19 20.19 0 0 1 1.16 6.75z" fill="#fff"/><path d="m24.56 22.74h-8.62l.3-.52.27-.47.07-.11.36-.64.17-.29.22-.37.01-.03.08-.13.04-.08.08-.13.09-.16.09-.15.03-.06.1-.17.06-.1.02-.03.11-.2.06-.11.02-.03.08-.14.03-.05.03-.05.06-.11.03-.04.05-.1.09-.15.05-.09.09-.15.05-.1.1-.15.05-.1.1-.17.07-.11.11-.2.07-.12.13-.23.09-.16.17-.29.12-.21.23-.39.17-.3.16-.28.16.28.17.3.23.39.12.21.17.29.09.16.13.23.08.12.11.2.06.11.1.17.06.1.09.15.05.1.09.15.05.09.09.15.05.1.03.04.07.11.02.05.03.05.08.14.02.03.06.11.11.2.02.03.06.1.1.17.03.06.09.15.09.16.08.13.04.08.08.13.02.03.21.37.17.29.3.53.07.11.16.28z" fill="#fff"/><g fill="#6fd8f3"><path d="m20.41 15.55-.14 3.29-.02.44-.02-.44-.14-3.29.16-.28z"/><path d="m20.25 19.28-.08-.43-.48-2.61.23-.39.29 3z"/><path d="m20.25 19.28-.14-.41-.71-2.13.17-.29.58 2.41z"/><path d="m20.25 19.28-.19-.39-.88-1.76.13-.23.78 1.97z"/><path d="m20.25 19.28-.24-.36-1.01-1.47.11-.2.93 1.65z"/><path d="m20.25 19.28-.29-.32-1.13-1.23.1-.17 1.06 1.37z"/><path d="m20.25 19.28-.33-.28-1.24-1.02.1-.15 1.16 1.14z"/><path d="m20.25 19.28-.37-.23-1.34-.82.09-.15 1.27.94z"/><path d="m20.25 19.28-.4-.18-1.45-.63.09-.15 1.38.75z"/><path d="m20.25 19.28-.42-.12-1.57-.44.09-.15 1.5.56z"/><path d="m20.25 19.28-.43-.06-1.72-.23.1-.17 1.63.36z"/><path d="m20.25 19.28h-.43l-1.89.02.11-.2 1.78.14z"/><path d="m20.25 19.28-.43.06-2.1.32.13-.23 1.97-.13z"/><path d="m20.25 19.28-.41.12-2.38.7.17-.29 2.2-.45z"/><path d="m20.25 19.28-.39.18-2.75 1.25.23-.4 2.5-.89z"/><path d="m20.25 19.28-.36.23-3 1.9-.27.22-.04.01.36-.64 2.93-1.52z"/><path d="m16.4 22.29.58-.18.25-.25 3.02-2.58-3.24 2.31-.3.17z"/><path d="m20.25 19.28-.29.32-2.35 2.66-.2.28-.43.2h-.1l.21-.51.28-.21 2.57-2.44z"/><path d="m20.25 19.28-.24.36-1.96 2.95-.07.15h-.47l.02-.1.25-.25 2.2-2.77z"/><path d="m20.25 19.28-.18.39-1.47 3.07h-.39l.02-.03 1.8-3.06z"/><path d="m20.25 19.28-.13.41-.96 3.05h-.34l1.27-3.06z"/><path d="m20.25 19.28-.07.42-.51 3.04h-.31l.78-3.04z"/><path d="m20.25 19.28-.01.43-.08 3.03h-.3l.34-3.03z"/><path d="m20.64 22.74h-.3l-.08-3.03-.01-.43.05.43z"/><path d="m21.14 22.74h-.31l-.51-3.04-.07-.42.11.42z"/><path d="m21.68 22.74h-.34l-.96-3.05-.13-.41.17.4z"/><path d="m22.29 22.74h-.39l-1.46-3.07-.19-.39.22.37 1.8 3.06z"/><path d="m23 22.74h-.48l-.07-.15-1.96-2.95-.24-.36.27.34 2.21 2.77.24.25z"/><path d="m23.63 22.74h-.11l-.42-.2-.21-.28-2.35-2.66-.29-.32.32.3 2.57 2.44.27.21z"/><path d="m24.11 22.29-.31-.53-.31-.17-3.24-2.31 3.03 2.58.24.25z"/><path d="m23.93 21.64-.04-.01-.28-.22-2.99-1.9-.37-.23.39.2 2.92 1.52z"/><path d="m23.39 20.71-2.74-1.25-.4-.18.41.14 2.5.89z"/><path d="m23.04 20.1-2.37-.7-.42-.12.43.08 2.19.45z"/><path d="m22.78 19.66-2.1-.32-.43-.06.43.02 1.97.13z"/><path d="m22.57 19.3-1.89-.02h-.43l.43-.04 1.78-.14z"/><path d="m22.4 18.99-1.72.23-.43.06.43-.1 1.62-.36z"/><path d="m22.25 18.72-1.58.44-.42.12.41-.15 1.49-.56z"/><path d="m22.1 18.47-1.45.63-.4.18.38-.21 1.38-.75z"/><path d="m21.96 18.23-1.34.82-.37.23.35-.26 1.27-.94z"/><path d="m21.82 17.98-1.23 1.02-.34.28.31-.31 1.17-1.14z"/><path d="m21.67 17.73-1.13 1.23-.29.32.27-.35 1.05-1.37z"/><path d="m21.51 17.45-1.01 1.47-.25.36.21-.38.94-1.65z"/><path d="m21.32 17.13-.87 1.76-.2.39.16-.41.78-1.97z"/><path d="m21.1 16.74-.71 2.13-.14.41.1-.42.58-2.41z"/><path d="m20.81 16.24-.48 2.61-.08.43.04-.43.29-3z"/></g><path d="m22.89 20.82a2.64 2.64 0 0 0 -5.28 0h.06a2.58 2.58 0 0 1 5.16 0z" fill="#800080"/><path d="m23 20.82a2.7 2.7 0 0 0 -5.4 0h.06a2.64 2.64 0 0 1 5.28 0z" fill="#00f"/><path d="m23 20.81a2.76 2.76 0 0 0 -5.51 0h.05a2.7 2.7 0 0 1 5.4 0z" fill="#0cf"/><path d="m23.06 20.81a2.76 2.76 0 0 0 -5.51 0h-.06a1 1 0 0 1 0-.17.19.19 0 0 1 0-.08v-.23-.09a.24.24 0 0 0 0-.08s0 0 0-.06a.14.14 0 0 1 0-.06v-.04-.05s0 0 0-.06 0 0 0 0v-.06l.1-.18.06-.09.05-.06v-.05l.08-.1v-.05l.06-.06v-.06-.05l.07-.06h.05l.07-.05h.06.05.06.06.05l.15-.07h.05.1.06.1.08.08 1.34.08.07.1.06.11l.15.07h.06.07.05.06l.06.05h.05l.07.06h.05l.05.05.06.06.05.06.05.05a.86.86 0 0 1 .07.1v.05l.05.06.06.09.1.18v.06a.08.08 0 0 1 0 0 .14.14 0 0 1 0 .06v.05.05.06s0 0 0 .06 0 .05 0 .08a.43.43 0 0 1 0 .05v.23s0 .05 0 .08 1.26.14 1.26.2z" fill="#0f0"/><path d="m17.72 19.65v.06s0 0 0 0 0 0 0 .06v.05.18a.14.14 0 0 0 0 .06s0 0 0 .06a.24.24 0 0 1 0 .08v.09.23a.19.19 0 0 0 0 .08 1 1 0 0 0 0 .17h-.06a3.48 3.48 0 0 1 .16-.84l.09-.16z" fill="#ff0"/><path d="m22.59 19.33-.05-.06v-.05a.86.86 0 0 0 -.07-.1l-.05-.05-.1-.07-.06-.06-.05-.05h-.05l-.07-.06h-.05l-.06-.05h-.06-.05-.07-.06l-.15-.07h-.11-.06-.1-.07-.08-1.59-.08-.08-.1-.06-.1-.05l-.15.07h-.05-.06-.06-.05-.06l-.07.05h-.05l-.07.06v.05.06l-.06.06v.05l-.08.1v.05l-.05.06.11-.2-.31-.12a3 3 0 0 1 4.26 0l.06.11.12.2z" fill="#ff0"/><path d="m23.12 20.81h-.06c0-.06 0-.11 0-.17s0-.06 0-.08 0-.16 0-.23a.43.43 0 0 0 0-.05s0 0 0-.08 0 0 0-.06v-.06-.05-.05a.14.14 0 0 0 0-.06.08.08 0 0 0 0 0v-.06l.09.16-.15-.02a3.06 3.06 0 0 1 .12.81z" fill="#ff0"/><path d="m17.46 20.1.08-.13a3.48 3.48 0 0 0 -.16.84h-.05a3 3 0 0 1 .09-.62z" fill="#f60"/><path d="m22.38 19a3 3 0 0 0 -4.26 0l.08-.14v-.06a3.06 3.06 0 0 1 4 0v.06z" fill="#f60"/><path d="m23.18 20.8h-.06a3.06 3.06 0 0 0 -.12-.8l.08.13v.08a3.83 3.83 0 0 1 .1.59z" fill="#f60"/><path d="m17.34 20.31.08-.13a3 3 0 0 0 -.09.62h-.06a3.4 3.4 0 0 1 .06-.46z" fill="#f00"/><path d="m22.27 18.76a3.06 3.06 0 0 0 -4 0l.07-.11a3.11 3.11 0 0 1 3.85 0l.06.11z" fill="#f00"/><path d="m23.23 20.8h-.05a3.83 3.83 0 0 0 -.1-.62l.08.13c.04.18.06.33.07.49z" fill="#f00"/><path d="m20.25 19.28.01-.54h-.01-.01z" fill="#fff"/><path d="m20.25 19.28-.06-.53h-.01-.01z" fill="#fff"/><path d="m20.25 19.28-.14-.52h-.01v.01z" fill="#fff"/><path d="m20.25 19.28-.21-.49h-.01z" fill="#fff"/><path d="m20.25 19.28-.27-.46h-.01l-.01.01z" fill="#fff"/><path d="m20.25 19.28-.34-.42v.01h-.01z" fill="#fff"/><path d="m20.25 19.28-.39-.37v.01l-.01.01z" fill="#fff"/><path d="m20.25 19.28-.44-.31v.01h-.01z" fill="#fff"/><path d="m20.25 19.28-.48-.24v.01z" fill="#fff"/><path d="m20.25 19.28-.5-.18-.01.01v.01z" fill="#fff"/><path d="m20.25 19.28-.52-.1-.01.01z" fill="#fff"/><path d="m20.25 19.28-.53-.03v.01.01z" fill="#fff"/><path d="m20.25 19.28-.53.04v.01.01z" fill="#fff"/><path d="m20.25 19.28-.52.12v.01z" fill="#fff"/><path d="m20.25 19.28-.5.19.01.01z" fill="#fff"/><path d="m20.25 19.28-.46.26v.01z" fill="#fff"/><path d="m20.25 19.28-.43.32.01.01h.01z" fill="#fff"/><path d="m20.25 19.28-.38.38h.01l.01.01z" fill="#fff"/><path d="m20.25 19.28-.32.42.01.01z" fill="#fff"/><path d="m20.25 19.28-.26.47h.01.01z" fill="#fff"/><path d="m20.25 19.28-.19.5h.01.01z" fill="#fff"/><path d="m20.25 19.28-.12.52h.01.01z" fill="#fff"/><path d="m20.25 19.28-.04.53h.01z" fill="#fff"/><path d="m20.25 19.28.03.53h.01.01z" fill="#fff"/><path d="m20.25 19.28.1.52h.01.01z" fill="#fff"/><path d="m20.25 19.28.18.5h.01z" fill="#fff"/><path d="m20.25 19.28.25.47h.01z" fill="#fff"/><path d="m20.25 19.28.31.43h.01v-.01z" fill="#fff"/><path d="m20.25 19.28.37.39v-.01h.01z" fill="#fff"/><path d="m20.25 19.28.42.33.01-.01z" fill="#fff"/><path d="m20.25 19.28.46.27v-.01h.01z" fill="#fff"/><path d="m20.25 19.28.49.2h.01v-.01z" fill="#fff"/><path d="m20.25 19.28.52.13v-.01z" fill="#fff"/><path d="m20.25 19.28.53.06v-.01-.01z" fill="#fff"/><path d="m20.25 19.28.54-.01v-.01-.01z" fill="#fff"/><path d="m20.25 19.28.53-.09v-.01z" fill="#fff"/><path d="m20.25 19.28.51-.16v-.01-.01z" fill="#fff"/><path d="m20.25 19.28.49-.23-.01-.01z" fill="#fff"/><path d="m20.25 19.28.45-.3h-.01v-.01z" fill="#fff"/><path d="m20.25 19.28.4-.35v-.01l-.01-.01z" fill="#fff"/><path d="m20.25 19.28.35-.41h-.01v-.01z" fill="#fff"/><path d="m24.65 22.79h-8.8l1.16-2.01.05-.09h6.38l.06.09z" fill="#fff"/><path d="m23.46 20.73h-6.42l.02-.04h6.38z" fill="url(#a)"/><path d="m23.49 20.78h-6.48l.02-.04h6.44z" fill="url(#b)"/><path d="m23.52 20.83h-6.54l.02-.03h6.5z" fill="url(#c)"/><path d="m23.55 20.88h-6.6l.02-.03h6.56z" fill="url(#d)"/><path d="m23.58 20.94h-6.66l.02-.04h6.62z" fill="url(#e)"/><path d="m23.61 20.99h-6.72l.02-.04h6.68z" fill="url(#f)"/><path d="m23.64 21.04h-6.78l.02-.03h6.74z" fill="url(#g)"/><path d="m23.68 21.09h-6.85l.02-.03h6.81z" fill="url(#h)"/><path d="m23.7 21.15h-6.9l.02-.04h6.86z" fill="url(#i)"/><path d="m24.61 22.71h-.27-.41-.41a2.36 2.36 0 0 1 -.44 0 2.29 2.29 0 0 1 -.44 0 3.87 3.87 0 0 0 -.42 0h-.41a3.24 3.24 0 0 1 -.88 0h-.42-.41a3.24 3.24 0 0 1 -.88 0 3.73 3.73 0 0 0 -.42 0h-.41a3.24 3.24 0 0 1 -.88 0 3.73 3.73 0 0 0 -.42 0h-.41a2.29 2.29 0 0 1 -.44 0h-.34v-.06h.3.85s.43 0 .86 0 .43 0 .85 0 .43 0 .86 0 .42 0 .85 0 .43 0 .86 0 .42 0 .85 0 .43 0 .86 0 .42 0 .85 0a4.76 4.76 0 0 1 .51 0h.13z" fill="url(#j)"/><path d="m24.55 22.61h-.13a2.77 2.77 0 0 0 -.49 0c-.43 0-.43.05-.85.05s-.43-.05-.86-.05-.42.05-.85.05-.43-.05-.86-.05-.42.05-.85.05-.43-.05-.86-.05-.42.05-.85.05-.43-.05-.86-.05-.42.05-.85.05h-.24v-.07h.25c.43 0 .43-.05.85-.05s.43.05.86.05.43-.05.85-.05.43.05.86.05.42-.05.85-.05.43.05.86.05.42-.05.85-.05.43.05.86.05.42-.05.85-.05a3.63 3.63 0 0 1 .45 0h.13z" fill="url(#k)"/><path d="m24.49 22.51h-.13a3.39 3.39 0 0 0 -.43 0c-.43 0-.43.05-.85.05s-.43-.05-.86-.05-.42.05-.85.05-.43-.05-.86-.05-.42.05-.85.05-.43-.05-.86-.05-.42.05-.85.05-.43-.05-.86-.05-.42.05-.85.05h-.24v-.07h.2c.43 0 .43-.05.85-.05s.43.05.86.05.43-.05.85-.05.43.05.86.05.42-.05.85-.05.43.05.86.05.42-.05.85-.05.43.05.86.05.42-.05.85-.05h.39.13z" fill="url(#l)"/><path d="m24.43 22.41h-.13-.37c-.43 0-.43.05-.85.05s-.43-.05-.86-.05-.42.05-.85.05-.43-.05-.86-.05-.42.05-.85.05-.43-.05-.86-.05-.42.05-.85.05-.43-.05-.86-.05-.42.05-.85.05h-.18v-.06h.14c.43 0 .43-.05.85-.05s.43.05.86.05.43-.05.85-.05.43.05.86.05.42-.05.85-.05.43.05.86.05.42-.05.85-.05.43.05.86.05.42-.05.85-.05h.33.13z" fill="url(#m)"/><path d="m24.38 22.31h-.13-.32c-.43 0-.43 0-.85 0s-.43 0-.86 0-.42 0-.85 0-.43 0-.86 0-.42 0-.85 0-.43 0-.86 0-.42 0-.85 0-.43 0-.86 0-.42 0-.85 0h-.12v-.06h.12c.4 0 .41-.05.82-.05s.43.05.86.05.43-.05.85-.05.43.05.86.05.42-.05.85-.05.43.05.86.05.42-.05.85-.05.43.05.86.05.42-.05.85-.05h.41z" fill="url(#n)"/><path d="m24.32 22.21h-.39c-.43 0-.43 0-.85 0s-.43 0-.86 0-.42 0-.85 0-.43 0-.86 0-.42 0-.85 0-.43 0-.86 0-.42 0-.85 0-.43 0-.86 0-.42 0-.8 0h-.12v-.07h.12.76s.43 0 .86 0 .43 0 .85 0 .43 0 .86 0 .42 0 .85 0 .43 0 .86 0 .42 0 .85 0 .43 0 .86 0 .42 0 .85 0h.35z" fill="url(#o)"/><path d="m24.26 22.11h-.33c-.43 0-.43.05-.85.05s-.43-.05-.86-.05-.42.05-.85.05-.43-.05-.86-.05-.42.05-.85.05-.43-.05-.86-.05-.42.05-.85.05-.43-.05-.86-.05-.42.05-.74.05h-.13v-.06h.12.71s.43 0 .86 0 .43 0 .85 0 .43 0 .86 0 .42 0 .85 0 .43 0 .86 0 .42 0 .85 0 .43 0 .86 0 .42 0 .85 0h.29z" fill="url(#p)"/><path d="m24.2 22h-.27c-.43 0-.43.05-.85.05s-.43-.05-.86-.05-.42.05-.85.05-.43-.05-.86-.05-.42.05-.85.05-.43-.05-.86-.05-.42.05-.85.05-.43-.05-.86-.05-.41 0-.69.05h-.12v-.07h.13.65s.43 0 .86 0 .43 0 .85 0 .43 0 .86 0 .42 0 .85 0 .43 0 .86 0 .42 0 .85 0 .43 0 .86 0 .42 0 .85 0h.23z" fill="url(#q)"/><path d="m24.15 21.91h-.22c-.43 0-.43 0-.85 0s-.43 0-.86 0-.42 0-.85 0-.43 0-.86 0-.42 0-.85 0-.43 0-.86 0-.42 0-.85 0-.43 0-.86 0-.4 0-.63 0h-.13v-.06h.13.59s.43.05.86.05.43-.05.85-.05.43.05.86.05.42-.05.85-.05.43.05.86.05.42-.05.85-.05.43.05.86.05.42-.05.85-.05h.18z" fill="url(#r)"/><path d="m24.09 21.81h-.16c-.43 0-.43.05-.85.05s-.43-.05-.86-.05-.42.05-.85.05-.43-.05-.86-.05-.42.05-.85.05-.43-.05-.86-.05-.42.05-.85.05-.43-.05-.86-.05-.39 0-.58 0h-.12v-.07h.12.54s.43.05.86.05.43-.05.85-.05.43.05.86.05.42-.05.85-.05.43.05.86.05.42-.05.85-.05.43.05.86.05.42-.05.85-.05h.12z" fill="url(#s)"/><path d="m24 21.72h-.12c-.41 0-.41.05-.83.05s-.43-.05-.86-.05-.42.05-.85.05-.43-.05-.86-.05-.42.05-.85.05-.43-.05-.86-.05-.42.05-.85.05-.43-.05-.86-.05a5.2 5.2 0 0 0 -.52 0h-.13v-.07h.13a4.27 4.27 0 0 1 .48 0c.43 0 .43.05.86.05s.43-.05.85-.05.43.05.86.05.42-.05.85-.05.43.05.86.05.42-.05.85-.05.43.05.86.05.42 0 .79-.05h.2z" fill="url(#t)"/><path d="m24 21.62h-.12c-.36 0-.38.05-.78.05s-.43-.05-.86-.05-.42.05-.85.05-.43-.05-.86-.05-.42.05-.85.05-.43-.05-.86-.05-.42.05-.85.05-.43-.05-.86-.05a4 4 0 0 0 -.46 0h-.15v-.06h.13a3.73 3.73 0 0 1 .42 0c.43 0 .43.05.86.05s.43-.05.85-.05.43.05.86.05.42-.05.85-.05.43.05.86.05.42-.05.85-.05.43.05.86.05.42 0 .74-.05h.12z" fill="url(#u)"/><path d="m23.92 21.53h-.12c-.3 0-.34 0-.72 0s-.43 0-.86 0-.42 0-.85 0-.43 0-.86 0-.42 0-.85 0-.43 0-.86 0-.42 0-.85 0-.43 0-.86 0h-.4-.13v-.06h.13.36c.43 0 .43.05.86.05s.43-.05.85-.05.43.05.86.05.42-.05.85-.05.43.05.86.05.42-.05.85-.05.43.05.86.05.41 0 .69 0h.12z" fill="url(#v)"/><path d="m23.87 21.43h-.12c-.26 0-.32 0-.67 0s-.43-.05-.86-.05-.42.05-.85.05-.43-.05-.86-.05-.42.05-.85.05-.43-.05-.86-.05-.42.05-.85.05-.43-.05-.86-.05h-.34-.13v-.06h.13.3c.43 0 .43.05.86.05s.43-.05.85-.05.43.05.86.05.42-.05.85-.05.43.05.86.05.42-.05.85-.05.43.05.86.05a4.44 4.44 0 0 0 .63-.05h.12z" fill="url(#w)"/><path d="m23.82 21.34h-.12a4.41 4.41 0 0 1 -.62.05c-.43 0-.43-.05-.86-.05s-.42.05-.85.05-.43-.05-.86-.05-.42.05-.85.05-.43-.05-.86-.05-.42.05-.85.05-.43-.05-.86-.05h-.42v-.07h.38c.43 0 .43.05.86.05s.43-.05.85-.05.43.05.86.05.42-.05.85-.05.43.05.86.05.42-.05.85-.05.43.05.86.05a3.91 3.91 0 0 0 .58 0h.12z" fill="url(#x)"/><path d="m23.76 21.25h-.12a3.5 3.5 0 0 1 -.56 0c-.43 0-.43-.05-.86-.05s-.42.05-.85.05-.43-.05-.86-.05-.42.05-.85.05-.43-.05-.86-.05-.42.05-.85.05-.43-.05-.86-.05h-.36v-.07h.32c.43 0 .43.05.86.05s.43-.05.85-.05.43.05.86.05.42-.05.85-.05.43.05.86.05.42-.05.85-.05.43.05.86.05a3.17 3.17 0 0 0 .53 0h.12z" fill="url(#y)"/><path d="m20.25 19.28.29-.45v-.01h-.01z" fill="#fff"/><path d="m20.25 19.28.23-.49h-.01-.01z" fill="#fff"/><path d="m20.25 19.28.16-.51-.01-.01h-.01z" fill="#fff"/><path d="m20.25 19.28.08-.53h-.01z" fill="#fff"/><path d="m23.74 21.2h-6.97v-.01l.02-.02h6.93l.01.01z" fill="url(#z)"/><path d="m20 19.52a.57.57 0 0 0 .13.08.12.12 0 0 1 .05 0 .07.07 0 0 1 0 .05v.05a.07.07 0 0 0 0 .05 0 0 0 0 0 0 0h.05s0 0 0 0a.26.26 0 0 0 0-.19.3.3 0 0 0 -.21-.17h-.02s0 0 0 0 0 0 0 .06z" fill="#680505"/><path d="m20.47 19.63h.05a.08.08 0 0 0 0-.05s0 0 0 0a.17.17 0 0 0 -.12 0s-.06.06 0 .08 0 0 0 0z" fill="#680505"/><path d="m20.58 19.54a.08.08 0 0 1 0 0s-.06 0-.09 0a.16.16 0 0 0 -.08.06.17.17 0 0 0 0 .1s0 0 0 .05 0 0 0 0-.05 0-.06-.05a.27.27 0 0 1 0-.09.26.26 0 0 0 -.07-.18.25.25 0 0 0 -.15-.05.1.1 0 0 1 -.07 0s0 0 0-.07v-.06l.09-.09a.08.08 0 0 0 0-.05s0 0-.07 0-.05 0-.06 0a.16.16 0 0 1 -.02-.11.41.41 0 0 1 .14-.12.23.23 0 0 1 .18 0 .32.32 0 0 1 .18.13.88.88 0 0 1 .08.53z" fill="#f00"/><path d="m20.15 19.3a1.27 1.27 0 0 0 0 .2.25.25 0 0 0 -.15-.05.1.1 0 0 1 -.07 0s0 0 0-.07v-.06l.09-.09a.08.08 0 0 0 0-.05s0 0-.07 0 0-.05.07-.06a.07.07 0 0 1 .07 0s0 0 .05.07a.39.39 0 0 1 .01.11z" fill="#910000"/><path d="m23.83 21.89a1.6 1.6 0 0 0 -.31 0c-.21 0-.42.08-.62.09a4.1 4.1 0 0 1 -.78-.06 1.85 1.85 0 0 0 -.47 0c-.17 0-.33 0-.5.06s-.44 0-.66 0a1.73 1.73 0 0 0 -.64.07c-.43.15-.92-.06-1.36 0a5 5 0 0 1 -.63.12 2.94 2.94 0 0 1 -.51-.05 2.31 2.31 0 0 0 -1.08.11l.25-.42a.1.1 0 0 1 .08-.07l.25-.1a1.28 1.28 0 0 0 .28-.16 1.68 1.68 0 0 0 .29-.24l.11-.12a1.88 1.88 0 0 0 .16-.23 2.51 2.51 0 0 0 .24-.46c0-.09.07-.19.1-.28a.16.16 0 0 1 .11-.1h.1a.14.14 0 0 1 .08.09 3.24 3.24 0 0 0 .27.6.12.12 0 0 0 .08 0 .13.13 0 0 0 .14-.06 1.75 1.75 0 0 0 .28-.57.15.15 0 0 1 0-.1h.08.07a.11.11 0 0 1 .07.08 3 3 0 0 0 .27.56.12.12 0 0 0 .06.06.12.12 0 0 0 .15-.05 1.9 1.9 0 0 0 .29-.57.08.08 0 0 1 0 0 .19.19 0 0 1 .11-.05h.07a.13.13 0 0 1 .06.07 3.92 3.92 0 0 0 .25.58.1.1 0 0 0 .05 0 .13.13 0 0 0 .17 0 1.2 1.2 0 0 0 .27-.54.27.27 0 0 1 .06-.1h.07a.19.19 0 0 1 .14.07.17.17 0 0 1 0 .05 1.41 1.41 0 0 0 .22.54.16.16 0 0 0 .08.06.18.18 0 0 0 .09-.06 1.7 1.7 0 0 0 .28-.56.17.17 0 0 1 .07-.12h.05a.18.18 0 0 1 .15.12 2.36 2.36 0 0 0 .68 1 1.43 1.43 0 0 0 .66.3.14.14 0 0 1 .1.07v.05a.14.14 0 0 1 .12.32z" fill="#97c924"/><path d="m16.94 21.75a1.79 1.79 0 0 0 .74-.65 3.1 3.1 0 0 0 .27-.51c0-.08.07-.15.1-.23a2.51 2.51 0 0 1 -.35 1 1 1 0 0 1 -.25.29 1 1 0 0 1 -.51.1z" fill="#93bc30"/><path d="m19.1 20.26a1.74 1.74 0 0 1 -.24.83 0 0 0 0 1 0 0s0-.06 0-.08 0-.05.06-.07.07-.1.1-.16a2.52 2.52 0 0 0 .14-.33 1.18 1.18 0 0 0 -.06-.19z" fill="#93bc30"/><path d="m20 21.05s0 .05-.06.05a.11.11 0 0 1 -.14-.1s0-.06 0-.09a.19.19 0 0 1 0-.08 1.83 1.83 0 0 0 .23-.38l.1-.2s0-.11.05-.07a.41.41 0 0 1 0 .11v.06a1.6 1.6 0 0 1 -.11.43 1.27 1.27 0 0 1 -.07.27z" fill="#c6cb24"/><path d="m20.18 20.19a.4.4 0 0 1 0 .15 3.1 3.1 0 0 1 -.25.56s0 .05-.06.07h-.08-.06a.21.21 0 0 1 -.05-.12v-.06a.14.14 0 0 0 .16-.05 1.9 1.9 0 0 0 .29-.57.08.08 0 0 1 0 0 .19.19 0 0 1 .05.02z" fill="#ede71f"/><path d="m21.31 20.76a1.09 1.09 0 0 1 0 .31.67.67 0 0 1 -.06.12l-.08.09a.1.1 0 0 1 -.07 0 .37.37 0 0 1 -.2-.15.74.74 0 0 1 -.13-.21.46.46 0 0 1 0-.2.14.14 0 0 0 .18 0 1.2 1.2 0 0 0 .27-.54s0 0 0-.06l.05-.05s.07 0 .08.06a.07.07 0 0 1 0 .05 5.56 5.56 0 0 1 -.04.58z" fill="#ede71f"/><path d="m20.88 21a2.48 2.48 0 0 0 .19-.26 1.16 1.16 0 0 0 .14-.47 2.43 2.43 0 0 1 -.22.83s0 0 0 0a.41.41 0 0 1 -.11-.1z" fill="#c6cb24"/><path d="m22.35 20.86v.15s0 .09-.05.13v.06a.09.09 0 0 1 0 .05s0 0-.05 0h-.06l-.19-.14a.1.1 0 0 1 0-.05h-.06v-.06s0 0 0 0v-.06s0 0 0 0h.11a.15.15 0 0 0 .06-.05 1.7 1.7 0 0 0 .28-.56.17.17 0 0 1 .07-.12.11.11 0 0 1 .08 0 .19.19 0 0 1 0 .1 1.93 1.93 0 0 1 0 .24 3 3 0 0 1 -.19.31z" fill="#ede71f"/><path d="m22.24 20.27a1.11 1.11 0 0 1 -.06.47 1.13 1.13 0 0 1 -.13.32l-.14-.06s0 0 0 0a0 0 0 0 0 0 0l.09-.16a1.87 1.87 0 0 0 .15-.32 1.33 1.33 0 0 0 .09-.25z" fill="#c6cb24"/><path d="m14.62 19.77.25-.16v.14l-.24.15a.68.68 0 0 1 0 .14h.24v.13h-.68a.88.88 0 0 1 0-.23c0-.23.08-.31.26-.3s.15.03.17.13zm-.07.17c0-.13 0-.19-.15-.2s-.18.05-.19.17v.09h.34z" fill="#c8a400"/><path d="m14.87 19.19.08-.35h.07l-.11.48-.67-.15.1-.48h.07l-.08.35.23.05.06-.31h.07l-.07.31z" fill="#c8a400"/><path d="m14.93 18.39.21.08-.05.12-.63-.24a1 1 0 0 1 .06-.22c.08-.22.17-.28.34-.21a.22.22 0 0 1 .15.32.53.53 0 0 1 -.08.15zm0-.11c.05-.12 0-.19-.1-.24s-.19 0-.24.11v.1l.34.13z" fill="#c8a400"/><path d="m15.43 17.32-.43-.22.1-.1.39.23c.16.09.17.2.07.37s-.19.22-.36.13l-.39-.23.07-.11.39.23c.13.07.19 0 .24-.05s.04-.17-.08-.25z" fill="#c8a400"/><path d="m15.84 16.53a.16.16 0 0 1 .24 0c.11.08.1.19-.06.38a.81.81 0 0 1 -.16.16l-.52-.42.13-.19c.13-.15.23-.18.33-.11a.17.17 0 0 1 0 .18zm-.15.14c.08-.1.09-.17 0-.23s-.12 0-.21.08v.05l.19.15zm0 .09.21.18.07-.09c.08-.1.09-.17 0-.23s-.15-.05-.23.05z" fill="#c8a400"/><path d="m16.48 16.29.26-.25.05.05-.36.34-.43-.51.1-.09z" fill="#c8a400"/><path d="m16.69 15.31.41.55-.1.08-.41-.56z" fill="#c8a400"/><path d="m17.19 15.38c-.14-.24-.08-.36.08-.45a.78.78 0 0 1 .2-.09l-.16.1c-.1 0-.15.15 0 .35s.22.21.33.14l.16-.09-.17.12c-.17.17-.31.16-.44-.08z" fill="#c8a400"/><path d="m18.13 15.09v.19h-.13v-.73l.17-.07.48.56-.12.05-.13-.09zm0-.44v.35l.23-.08z" fill="#c8a400"/><path d="m19.7 14.89h-.23l-.06-.67h.23c.23 0 .35.05.37.32s-.08.33-.31.35zm-.06-.64h-.1l.06.58h.1c.13 0 .21-.07.18-.3s-.11-.3-.24-.28z" fill="#c8a400"/><path d="m20.48 14.79h.36v.07h-.49v-.69h.49v.07h-.36v.22h.32v.07h-.31z" fill="#c8a400"/><path d="m21.8 15.07h-.11l.21-.65h.14l.13.55.15-.46h.12l-.22.66-.13-.05-.09-.5z" fill="#c8a400"/><path d="m22.94 14.78-.3.63-.11-.06.29-.62z" fill="#c8a400"/><path d="m23.1 15.26c.15-.24.29-.24.45-.14a.92.92 0 0 1 .17.13l-.16-.1c-.1-.07-.2-.06-.33.13s-.08.3 0 .36l.16.1a.73.73 0 0 1 -.2-.1c-.19-.02-.19-.15-.09-.38z" fill="#c8a400"/><path d="m23.81 16-.16.09-.1-.08.64-.36.14.12-.27.68-.1-.08.07-.18zm.38-.21-.32.18.19.16z" fill="#c8a400"/><path d="m24.68 16.75-.07.28-.1-.11.08-.27a.76.76 0 0 1 -.08-.11l-.19.15-.08-.1.52-.43a.61.61 0 0 1 .16.16c.15.18.16.28 0 .39a.19.19 0 0 1 -.24.04zm-.07-.17c.09.1.15.12.25 0s.1-.16 0-.26l-.06-.08-.26.22z" fill="#c8a400"/><path d="m25 17.29h-.19l-.07-.11.72-.14.1.16-.47.56-.09-.08.12-.15zm.43-.09-.35.07.12.21z" fill="#c8a400"/><path d="m25.39 18.49a.65.65 0 0 1 -.1-.19c-.09-.21-.06-.35.2-.45s.37 0 .44.16a.85.85 0 0 1 .07.21l-.07-.17c-.05-.12-.14-.18-.35-.09s-.24.19-.18.33v.06l.3-.12v.12z" fill="#c8a400"/><path d="m25.8 19.17.44-.1v.13l-.44.1c-.19 0-.26 0-.31-.23s0-.29.18-.34l.44-.1v.13l-.44.1c-.15 0-.17.1-.15.2s.13.14.28.11z" fill="#c8a400"/><path d="m25.82 19.74h-.18v-.13l.7.19v.19l-.67.29v-.18l.17-.08zm.42.12-.35-.1v.25z" fill="#c8a400"/><path d="m15.18 23.31h-.19l-.08-.12.73-.14.11.17-.44.6-.07-.12.11-.16zm.43-.09-.36.08.14.23z" fill="#c8a400"/><path d="m15.84 24.33.15-.46-.4.31-.1-.1.54-.43.12.13-.16.51.52-.14.12.13-.46.52-.09-.11.34-.38-.46.13z" fill="#c8a400"/><path d="m16.61 25.06.31.23v.06l-.47-.35.41-.56.43.32v.06l-.32-.24-.13.19.28.2v.06l-.28-.21z" fill="#c8a400"/><path d="m17.91 25.39-.05.07h-.06-.06-.08l.06.3-.14-.07v-.28l-.14-.07-.11.2-.12-.07.31-.6h.12l.12.06.13.08a.22.22 0 0 1 .08.09.15.15 0 0 1 0 .09.23.23 0 0 1 -.06.2zm-.39 0h.08.07.06l.05-.07a.36.36 0 0 0 0-.07.15.15 0 0 0 0-.07.1.1 0 0 0 0-.05l-.08-.05-.1-.06-.16.3z" fill="#c8a400"/><path d="m18.38 25.33-.25.65-.13-.06.25-.64z" fill="#c8a400"/><path d="m18.77 26.18a.46.46 0 0 1 -.14-.05.24.24 0 0 1 -.09-.08.28.28 0 0 1 0-.13.59.59 0 0 1 .09-.33.26.26 0 0 1 .09-.09.35.35 0 0 1 .12 0h.13.13.1v.05l-.2-.06h-.09-.08l-.07.07a.46.46 0 0 0 -.05.14.78.78 0 0 0 0 .14.3.3 0 0 0 0 .1l.06.06h.1l.19.05v.05h-.1a.31.31 0 0 1 -.19.08z" fill="#c8a400"/><path d="m19.43 26.12-.09.17h-.14l.34-.66h.21l.19.72h-.14l-.05-.18zm.21-.39-.17.33h.27z" fill="#c8a400"/><path d="m21.06 26.31a.38.38 0 0 1 -.15 0 .28.28 0 0 1 -.12 0 .27.27 0 0 1 -.08-.1.61.61 0 0 1 0-.17.48.48 0 0 1 0-.17.23.23 0 0 1 .06-.12.22.22 0 0 1 .09-.07h.14.24-.2-.09a.17.17 0 0 0 -.06.06.19.19 0 0 0 0 .09v.17a.39.39 0 0 0 0 .14.15.15 0 0 0 .06.09.09.09 0 0 0 .07 0 .17.17 0 0 0 .1 0h.21-.1z" fill="#c8a400"/><path d="m21.69 26.11.38-.1v.07l-.52.14-.18-.67.52-.14v.07l-.38.1.05.22.34-.09v.07l-.34.09z" fill="#c8a400"/><path d="m22.53 25.92-.13.08-.28-.64.15-.06.49.32-.2-.44.13-.06.28.63-.15.06-.49-.31z" fill="#c8a400"/><path d="m22.85 25 .55-.35v.06l-.21.14.33.52-.12.08-.34-.53-.21.14z" fill="#c8a400"/><path d="m24.15 24.34.05.07a.17.17 0 0 1 0 .07.13.13 0 0 1 0 .06v.07l.3.06-.12.1-.28-.06-.12.11.15.17-.11.09-.44-.51a.39.39 0 0 1 .08-.1l.1-.08a.5.5 0 0 1 .13-.1.25.25 0 0 1 .11 0 .15.15 0 0 1 .09 0 .18.18 0 0 1 .06.05zm-.16.35.07-.06v-.07a.13.13 0 0 0 0-.06v-.07l-.06-.05a.11.11 0 0 0 -.07 0h-.06l-.08.05-.08.08.22.25z" fill="#c8a400"/><path d="m24.65 24.22.08.17-.09.11-.35-.65.14-.16.7.25-.13.06h-.15zm-.21-.39.18.32.17-.2z" fill="#c8a400"/><path d="m25.31 23.54.21-.34h.06l-.29.46-.58-.37.07-.12z" fill="#c8a400"/><path d="m14.66 21.49h.1v.44h-.1z" fill="#c8a400" transform="matrix(.95620264 -.2927055 .2927055 .95620264 -5.71 5.26)"/><path d="m25.76 21.49h.1v.44h-.1z" fill="#c8a400" transform="matrix(-.95630476 -.2923717 .2923717 -.95630476 44.14 50.02)"/><path d="m39.34 13.5h-38.18a20.25 20.25 0 0 1 38.18 0z" fill="#0067c6"/><path d="m39.34 27a20.25 20.25 0 0 1 -38.18 0z" fill="#0067c6"/><path d="m19.35 21.51-.3-.2a2.64 2.64 0 0 1 -.39-.36 2.29 2.29 0 0 1 -.3-.5v-.09s0 0 0 0v-.05a.34.34 0 0 0 0-.1v-.06h-.08a.11.11 0 0 0 -.08 0 .12.12 0 0 0 -.05.07.17.17 0 0 0 0 .05l-.06.17a2.12 2.12 0 0 1 -.14.31 1.43 1.43 0 0 1 -.29.37 1.88 1.88 0 0 0 .16-.23 2.51 2.51 0 0 0 .24-.46c0-.09.07-.19.1-.28a.16.16 0 0 1 .11-.1h.1a.14.14 0 0 1 .08.09 3.24 3.24 0 0 0 .27.6v.05.05l.08.09.09.09.18.17.09.09.1.08z" fill="#fff700"/><path d="m18.15 20.14a3 3 0 0 0 0 .67 1 1 0 0 0 .26.6 1.09 1.09 0 0 0 .47.26 3.33 3.33 0 0 0 .54.07 2.51 2.51 0 0 0 -.37-.27 1.35 1.35 0 0 1 -.47-.61 2.46 2.46 0 0 0 .78.69s.09 0 .14 0a2.25 2.25 0 0 1 -1.19-1.34.16.16 0 0 0 -.05-.09s-.1-.01-.11.02z" fill="#ede71f"/><path d="m18.25 20.32a1.52 1.52 0 0 0 .32.93.86.86 0 0 0 .19.19.42.42 0 0 0 .26.08 1.87 1.87 0 0 1 -.47-.54 3.93 3.93 0 0 1 -.3-.66z" fill="#c6cb24"/><path d="m20.41 21.48-.27-.16-.22-.17a1.91 1.91 0 0 1 -.37-.43 1.64 1.64 0 0 1 -.22-.51.3.3 0 0 0 0-.1.1.1 0 0 0 -.08-.05c-.06 0-.09.08-.1.14a2 2 0 0 1 -.25.5.32.32 0 0 1 -.1.1.12.12 0 0 1 -.14 0s0 0 0 0a.12.12 0 0 0 .08 0 .13.13 0 0 0 .14-.06l.06-.1.09-.15-.03-.09v-.09l.05-.14s0-.08 0-.1h.08.07a.11.11 0 0 1 .07.08 3 3 0 0 0 .27.56.12.12 0 0 0 .06.06l.06.13a.08.08 0 0 0 0 0l.06.07a.63.63 0 0 0 .12.11c.27.17.42.28.57.4z" fill="#fff700"/><path d="m19.32 20.15a.07.07 0 0 0 -.12.05 2.24 2.24 0 0 0 0 .58 1.08 1.08 0 0 0 .24.57 1 1 0 0 0 .47.31 1.76 1.76 0 0 0 .56.07 2.63 2.63 0 0 1 -.49-.39 1.49 1.49 0 0 1 -.36-.5 2.29 2.29 0 0 0 .49.54.86.86 0 0 0 .2.13.51.51 0 0 0 .24 0 3.31 3.31 0 0 1 -.7-.53 1.88 1.88 0 0 1 -.46-.75.31.31 0 0 0 -.05-.12z" fill="#ede71f"/><path d="m19.26 20.25a2.32 2.32 0 0 0 .28.89.93.93 0 0 0 .21.27.48.48 0 0 0 .31.13 2.51 2.51 0 0 1 -.8-1.29z" fill="#c6cb24"/><path d="m21.43 21.52a1.16 1.16 0 0 1 -.47-.29c-.13-.13-.22-.31-.35-.44a.2.2 0 0 1 -.06-.09.32.32 0 0 0 0-.09c0-.06-.08-.12-.09-.18a.83.83 0 0 0 0-.15.35.35 0 0 0 0-.13.25.25 0 0 0 0-.07.09.09 0 0 0 -.07 0h-.07a.08.08 0 0 0 0 .05 3.76 3.76 0 0 1 -.2.46.53.53 0 0 1 -.11.15.17.17 0 0 1 -.17 0 .12.12 0 0 0 .15-.05 1.9 1.9 0 0 0 .29-.57.08.08 0 0 1 0 0 .19.19 0 0 1 .11-.05h.07a.13.13 0 0 1 .06.07 3.92 3.92 0 0 0 .25.58l.05.05a.94.94 0 0 0 .12.22 2.2 2.2 0 0 0 .35.33 2.65 2.65 0 0 1 .14.2z" fill="#fff700"/><path d="m20.32 20.16s0 .05 0 .07a.49.49 0 0 1 0 .12 1.72 1.72 0 0 0 .11.5 1.15 1.15 0 0 0 .42.55.85.85 0 0 0 .67.15 2.6 2.6 0 0 1 -.36-.21 2.13 2.13 0 0 1 -.31-.29 2.78 2.78 0 0 1 -.26-.34 2.4 2.4 0 0 1 -.11-.23l-.09-.26a.08.08 0 0 0 0 0s-.07-.07-.07-.06z" fill="#ede71f"/><path d="m20.36 20.27a1.75 1.75 0 0 0 .38.93 1.37 1.37 0 0 0 .17.17.35.35 0 0 0 .22.06 2.4 2.4 0 0 1 -.77-1.16z" fill="#c6cb24"/><path d="m22.37 21.38-.1-.05-.2-.12a1.29 1.29 0 0 1 -.17-.16 3.22 3.22 0 0 1 -.25-.39 1.28 1.28 0 0 1 -.11-.27.79.79 0 0 0 0-.13.13.13 0 0 0 0-.08s0 0-.05-.05a.13.13 0 0 0 -.13 0 .26.26 0 0 0 -.05.12 1.59 1.59 0 0 1 -.18.4.35.35 0 0 1 -.11.13.2.2 0 0 1 -.17 0 .07.07 0 0 1 0-.05.13.13 0 0 0 .17 0 1.2 1.2 0 0 0 .27-.54.27.27 0 0 1 .06-.1h.07a.19.19 0 0 1 .14.07.17.17 0 0 1 0 .05 1.32 1.32 0 0 0 .09.3 2.12 2.12 0 0 0 .11.21c0 .07.1.14.14.21a.82.82 0 0 0 .17.2 2.12 2.12 0 0 0 .2.12h.05.05a.18.18 0 0 1 .08.07z" fill="#fff700"/><path d="m23.14 21.22h-.06l-.1-.09-.1-.13a.18.18 0 0 1 -.05-.07c0-.06-.09-.13-.14-.2l-.07-.12a1.77 1.77 0 0 1 -.16-.34v-.1s0-.07-.08-.08a.08.08 0 0 0 -.1 0 .09.09 0 0 0 0 .06l-.08.21a2.11 2.11 0 0 1 -.18.33.29.29 0 0 1 -.11.11.14.14 0 0 1 -.15 0 .13.13 0 0 1 0-.1.16.16 0 0 0 .08.06.18.18 0 0 0 .09-.06 1.7 1.7 0 0 0 .28-.56.17.17 0 0 1 .07-.12h.05a.18.18 0 0 1 .15.12 2.36 2.36 0 0 0 .66 1.08z" fill="#fff700"/><path d="m24.61 22.71v-.07-.07-.07-.07-.07-.07-.07-.07-.07-.06-.07-.06-.07-.06-.06-.05l-.79-1.38-2.39-4.12-3.56 3.15-.8 1.38v.06.07.06.06.06.07.07.06.07.06.07.06.06.07.07.06l-.05.09h8.8zm-8.58 0v-.06-.06-.07-.06-.07-.06-.07-.07-.07-.07-.07-.07-.07-.07-.05l.62-1.06 2.44-4.23 2.45 4.23.61 1.06v.05.06.07.06.06.07.06.07.06.07.07.07.07.07.07.05z" fill="#c8a400"/></svg>