<svg xmlns="http://www.w3.org/2000/svg" xmlns:xlink="http://www.w3.org/1999/xlink" viewBox="0 0 40.5 40.5"><defs><style>.cls-1{fill:#fff;}.cls-2{fill:#6fd8f3;}.cls-3{fill:purple;}.cls-4{fill:blue;}.cls-5{fill:#0cf;}.cls-6{fill:lime;}.cls-7{fill:#ff0;}.cls-8{fill:#f60;}.cls-9{fill:red;}.cls-10{fill:url(#Áĺçűě_ííűé_ăđŕäčĺíň_27);}.cls-11{fill:url(#Áĺçűě_ííűé_ăđŕäčĺíň_27-2);}.cls-12{fill:url(#Áĺçűě_ííűé_ăđŕäčĺíň_27-3);}.cls-13{fill:url(#Áĺçűě_ííűé_ăđŕäčĺíň_27-4);}.cls-14{fill:url(#Áĺçűě_ííűé_ăđŕäčĺíň_27-5);}.cls-15{fill:url(#Áĺçűě_ííűé_ăđŕäčĺíň_27-6);}.cls-16{fill:url(#Áĺçűě_ííűé_ăđŕäčĺíň_27-7);}.cls-17{fill:url(#Áĺçűě_ííűé_ăđŕäčĺíň_27-8);}.cls-18{fill:url(#Áĺçűě_ííűé_ăđŕäčĺíň_27-9);}.cls-19{fill:url(#Áĺçűě_ííűé_ăđŕäčĺíň_27-10);}.cls-20{fill:url(#Áĺçűě_ííűé_ăđŕäčĺíň_27-11);}.cls-21{fill:url(#Áĺçűě_ííűé_ăđŕäčĺíň_27-12);}.cls-22{fill:url(#Áĺçűě_ííűé_ăđŕäčĺíň_27-13);}.cls-23{fill:url(#Áĺçűě_ííűé_ăđŕäčĺíň_27-14);}.cls-24{fill:url(#Áĺçűě_ííűé_ăđŕäčĺíň_27-15);}.cls-25{fill:url(#Áĺçűě_ííűé_ăđŕäčĺíň_27-16);}.cls-26{fill:url(#Áĺçűě_ííűé_ăđŕäčĺíň_27-17);}.cls-27{fill:url(#Áĺçűě_ííűé_ăđŕäčĺíň_27-18);}.cls-28{fill:url(#Áĺçűě_ííűé_ăđŕäčĺíň_27-19);}.cls-29{fill:url(#Áĺçűě_ííűé_ăđŕäčĺíň_27-20);}.cls-30{fill:url(#Áĺçűě_ííűé_ăđŕäčĺíň_27-21);}.cls-31{fill:url(#Áĺçűě_ííűé_ăđŕäčĺíň_27-22);}.cls-32{fill:url(#Áĺçűě_ííűé_ăđŕäčĺíň_27-23);}.cls-33{fill:url(#Áĺçűě_ííűé_ăđŕäčĺíň_27-24);}.cls-34{fill:url(#Áĺçűě_ííűé_ăđŕäčĺíň_27-25);}.cls-35{fill:url(#Áĺçűě_ííűé_ăđŕäčĺíň_27-26);}.cls-36{fill:#680505;}.cls-37{fill:#910000;}.cls-38{fill:#97c924;}.cls-39{fill:#93bc30;}.cls-40{fill:#c6cb24;}.cls-41{fill:#ede71f;}.cls-42{fill:#c8a400;}.cls-43{fill:#0067c6;}.cls-44{fill:#fff700;}</style><linearGradient id="Áĺçűě_ííűé_ăđŕäčĺíň_27" x1="17.04" y1="20.71" x2="23.46" y2="20.71" gradientUnits="userSpaceOnUse"><stop offset="0" stop-color="#025"/><stop offset="0.5" stop-color="#04a"/><stop offset="1" stop-color="#025"/></linearGradient><linearGradient id="Áĺçűě_ííűé_ăđŕäčĺíň_27-2" x1="17.01" y1="20.76" x2="23.49" y2="20.76" xlink:href="#Áĺçűě_ííűé_ăđŕäčĺíň_27"/><linearGradient id="Áĺçűě_ííűé_ăđŕäčĺíň_27-3" x1="16.98" y1="20.81" x2="23.52" y2="20.81" xlink:href="#Áĺçűě_ííűé_ăđŕäčĺíň_27"/><linearGradient id="Áĺçűě_ííűé_ăđŕäčĺíň_27-4" x1="16.95" y1="20.87" x2="23.55" y2="20.87" xlink:href="#Áĺçűě_ííűé_ăđŕäčĺíň_27"/><linearGradient id="Áĺçűě_ííűé_ăđŕäčĺíň_27-5" x1="16.92" y1="20.92" x2="23.58" y2="20.92" xlink:href="#Áĺçűě_ííűé_ăđŕäčĺíň_27"/><linearGradient id="Áĺçűě_ííűé_ăđŕäčĺíň_27-6" x1="16.89" y1="20.97" x2="23.61" y2="20.97" xlink:href="#Áĺçűě_ííűé_ăđŕäčĺíň_27"/><linearGradient id="Áĺçűě_ííűé_ăđŕäčĺíň_27-7" x1="16.86" y1="21.02" x2="23.64" y2="21.02" xlink:href="#Áĺçűě_ííűé_ăđŕäčĺíň_27"/><linearGradient id="Áĺçűě_ííűé_ăđŕäčĺíň_27-8" x1="16.83" y1="21.08" x2="23.67" y2="21.08" xlink:href="#Áĺçűě_ííűé_ăđŕäčĺíň_27"/><linearGradient id="Áĺçűě_ííűé_ăđŕäčĺíň_27-9" x1="16.8" y1="21.13" x2="23.71" y2="21.13" xlink:href="#Áĺçűě_ííűé_ăđŕäčĺíň_27"/><linearGradient id="Áĺçűě_ííűé_ăđŕäčĺíň_27-10" x1="15.9" y1="22.65" x2="24.61" y2="22.65" xlink:href="#Áĺçűě_ííűé_ăđŕäčĺíň_27"/><linearGradient id="Áĺçűě_ííűé_ăđŕäčĺíň_27-11" x1="15.96" y1="22.56" x2="24.55" y2="22.56" xlink:href="#Áĺçűě_ííűé_ăđŕäčĺíň_27"/><linearGradient id="Áĺçűě_ííűé_ăđŕäčĺíň_27-12" x1="16.01" y1="22.46" x2="24.49" y2="22.46" xlink:href="#Áĺçűě_ííűé_ăđŕäčĺíň_27"/><linearGradient id="Áĺçűě_ííűé_ăđŕäčĺíň_27-13" x1="16.06" y1="22.37" x2="24.43" y2="22.37" xlink:href="#Áĺçűě_ííűé_ăđŕäčĺíň_27"/><linearGradient id="Áĺçűě_ííűé_ăđŕäčĺíň_27-14" x1="16.12" y1="22.28" x2="24.38" y2="22.28" xlink:href="#Áĺçűě_ííűé_ăđŕäčĺíň_27"/><linearGradient id="Áĺçűě_ííűé_ăđŕäčĺíň_27-15" x1="16.17" y1="22.18" x2="24.32" y2="22.18" xlink:href="#Áĺçűě_ííűé_ăđŕäčĺíň_27"/><linearGradient id="Áĺçűě_ííűé_ăđŕäčĺíň_27-16" x1="16.22" y1="22.09" x2="24.26" y2="22.09" xlink:href="#Áĺçűě_ííűé_ăđŕäčĺíň_27"/><linearGradient id="Áĺçűě_ííűé_ăđŕäčĺíň_27-17" x1="16.28" y1="21.99" x2="24.2" y2="21.99" xlink:href="#Áĺçűě_ííűé_ăđŕäčĺíň_27"/><linearGradient id="Áĺçűě_ííűé_ăđŕäčĺíň_27-18" x1="16.33" y1="21.9" x2="24.15" y2="21.9" xlink:href="#Áĺçűě_ííűé_ăđŕäčĺíň_27"/><linearGradient id="Áĺçűě_ííűé_ăđŕäčĺíň_27-19" x1="16.39" y1="21.8" x2="24.09" y2="21.8" xlink:href="#Áĺçűě_ííűé_ăđŕäčĺíň_27"/><linearGradient id="Áĺçűě_ííűé_ăđŕäčĺíň_27-20" x1="16.44" y1="21.71" x2="24.03" y2="21.71" xlink:href="#Áĺçűě_ííűé_ăđŕäčĺíň_27"/><linearGradient id="Áĺçűě_ííűé_ăđŕäčĺíň_27-21" x1="16.5" y1="21.61" x2="23.98" y2="21.61" xlink:href="#Áĺçűě_ííűé_ăđŕäčĺíň_27"/><linearGradient id="Áĺçűě_ííűé_ăđŕäčĺíň_27-22" x1="16.56" y1="21.52" x2="23.92" y2="21.52" xlink:href="#Áĺçűě_ííűé_ăđŕäčĺíň_27"/><linearGradient id="Áĺçűě_ííűé_ăđŕäčĺíň_27-23" x1="16.62" y1="21.43" x2="23.87" y2="21.43" xlink:href="#Áĺçűě_ííűé_ăđŕäčĺíň_27"/><linearGradient id="Áĺçűě_ííűé_ăđŕäčĺíň_27-24" x1="16.67" y1="21.33" x2="23.82" y2="21.33" xlink:href="#Áĺçűě_ííűé_ăđŕäčĺíň_27"/><linearGradient id="Áĺçűě_ííűé_ăđŕäčĺíň_27-25" x1="16.73" y1="21.24" x2="23.76" y2="21.24" xlink:href="#Áĺçűě_ííűé_ăđŕäčĺíň_27"/><linearGradient id="Áĺçűě_ííűé_ăđŕäčĺíň_27-26" x1="16.77" y1="21.18" x2="23.74" y2="21.18" xlink:href="#Áĺçűě_ííűé_ăđŕäčĺíň_27"/></defs><g id="Ebene_2" data-name="Ebene 2"><g id="Ńëîé_1" data-name="Ńëîé 1"><path class="cls-1" d="M40.5,20.25A20.19,20.19,0,0,1,39.34,27H1.16a20.22,20.22,0,0,1,0-13.5H39.34A20.19,20.19,0,0,1,40.5,20.25Z"/><polygon class="cls-1" points="24.56 22.74 15.94 22.74 16.24 22.22 16.51 21.75 16.58 21.64 16.94 21 17.11 20.71 17.33 20.34 17.34 20.31 17.42 20.18 17.46 20.1 17.54 19.97 17.63 19.81 17.72 19.66 17.75 19.6 17.75 19.6 17.85 19.43 17.91 19.33 17.91 19.33 17.93 19.3 18.04 19.1 18.1 18.99 18.12 18.96 18.2 18.82 18.23 18.77 18.26 18.72 18.32 18.61 18.35 18.57 18.4 18.47 18.49 18.32 18.54 18.23 18.63 18.08 18.68 17.98 18.78 17.83 18.83 17.73 18.93 17.56 19 17.45 19.11 17.25 19.18 17.13 19.31 16.9 19.4 16.74 19.57 16.45 19.69 16.24 19.92 15.85 20.09 15.55 20.25 15.27 20.41 15.55 20.58 15.85 20.81 16.24 20.93 16.45 21.1 16.74 21.19 16.9 21.32 17.13 21.4 17.25 21.51 17.45 21.57 17.56 21.67 17.73 21.73 17.83 21.82 17.98 21.87 18.08 21.96 18.23 22.01 18.32 22.1 18.47 22.15 18.57 22.18 18.61 22.25 18.72 22.27 18.77 22.3 18.82 22.38 18.96 22.4 18.99 22.46 19.1 22.57 19.3 22.59 19.33 22.59 19.33 22.65 19.43 22.75 19.6 22.75 19.6 22.78 19.66 22.87 19.81 22.96 19.97 23.04 20.1 23.08 20.18 23.16 20.31 23.18 20.34 23.39 20.71 23.56 21 23.86 21.53 23.93 21.64 24.09 21.92 24.56 22.74"/><polygon class="cls-2" points="20.41 15.55 20.27 18.84 20.25 19.28 20.23 18.84 20.09 15.55 20.25 15.27 20.41 15.55"/><polygon class="cls-2" points="20.25 19.28 20.17 18.85 19.69 16.24 19.92 15.85 20.21 18.85 20.25 19.28"/><polygon class="cls-2" points="20.25 19.28 20.11 18.87 19.4 16.74 19.57 16.45 20.15 18.86 20.25 19.28"/><polygon class="cls-2" points="20.25 19.28 20.06 18.89 19.18 17.13 19.31 16.9 20.09 18.87 20.25 19.28"/><polygon class="cls-2" points="20.25 19.28 20.01 18.92 19 17.45 19.11 17.25 20.04 18.9 20.25 19.28"/><polygon class="cls-2" points="20.25 19.28 19.96 18.96 18.83 17.73 18.93 17.56 19.99 18.93 20.25 19.28"/><polygon class="cls-2" points="20.25 19.28 19.92 19 18.68 17.98 18.78 17.83 19.94 18.97 20.25 19.28"/><polygon class="cls-2" points="20.25 19.28 19.88 19.05 18.54 18.23 18.63 18.08 19.9 19.02 20.25 19.28"/><polygon class="cls-2" points="20.25 19.28 19.85 19.1 18.4 18.47 18.49 18.32 19.87 19.07 20.25 19.28"/><polygon class="cls-2" points="20.25 19.28 19.83 19.16 18.26 18.72 18.35 18.57 19.85 19.13 20.25 19.28"/><polygon class="cls-2" points="20.25 19.28 19.82 19.22 18.1 18.99 18.2 18.82 19.83 19.18 20.25 19.28"/><polygon class="cls-2" points="20.25 19.28 19.82 19.28 17.93 19.3 18.04 19.1 19.82 19.24 20.25 19.28"/><polygon class="cls-2" points="20.25 19.28 19.82 19.34 17.72 19.66 17.85 19.43 19.82 19.3 20.25 19.28"/><polygon class="cls-2" points="20.25 19.28 19.84 19.4 17.46 20.1 17.63 19.81 19.83 19.36 20.25 19.28"/><polygon class="cls-2" points="20.25 19.28 19.86 19.46 17.11 20.71 17.34 20.31 19.84 19.42 20.25 19.28"/><polygon class="cls-2" points="20.25 19.28 19.89 19.51 16.89 21.41 16.62 21.63 16.58 21.64 16.94 21 19.87 19.48 20.25 19.28"/><polygon class="cls-2" points="16.4 22.29 16.98 22.11 17.23 21.86 20.25 19.28 17.01 21.59 16.71 21.76 16.4 22.29"/><polygon class="cls-2" points="20.25 19.28 19.96 19.6 17.61 22.26 17.41 22.54 16.98 22.74 16.88 22.74 17.09 22.23 17.37 22.02 19.94 19.58 20.25 19.28"/><polygon class="cls-2" points="20.25 19.28 20.01 19.64 18.05 22.59 17.98 22.74 17.51 22.74 17.53 22.64 17.78 22.39 19.98 19.62 20.25 19.28"/><polygon class="cls-2" points="20.25 19.28 20.07 19.67 18.6 22.74 18.21 22.74 18.23 22.71 20.03 19.65 20.25 19.28"/><polygon class="cls-2" points="20.25 19.28 20.12 19.69 19.16 22.74 18.82 22.74 20.09 19.68 20.25 19.28"/><polygon class="cls-2" points="20.25 19.28 20.18 19.7 19.67 22.74 19.36 22.74 20.14 19.7 20.14 19.7 20.25 19.28"/><polygon class="cls-2" points="20.25 19.28 20.24 19.71 20.16 22.74 19.86 22.74 20.2 19.71 20.25 19.28"/><polygon class="cls-2" points="20.64 22.74 20.34 22.74 20.26 19.71 20.25 19.28 20.3 19.71 20.64 22.74"/><polygon class="cls-2" points="21.14 22.74 20.83 22.74 20.32 19.7 20.25 19.28 20.36 19.7 21.14 22.74"/><polygon class="cls-2" points="21.68 22.74 21.34 22.74 20.38 19.69 20.25 19.28 20.42 19.68 21.68 22.74"/><polygon class="cls-2" points="22.29 22.74 21.9 22.74 20.44 19.67 20.25 19.28 20.47 19.65 22.27 22.71 22.29 22.74"/><polygon class="cls-2" points="23 22.74 22.52 22.74 22.45 22.59 20.49 19.64 20.25 19.28 20.52 19.62 22.73 22.39 22.97 22.64 23 22.74"/><polygon class="cls-2" points="23.63 22.74 23.52 22.74 23.1 22.54 22.89 22.26 20.54 19.6 20.25 19.28 20.57 19.58 23.14 22.02 23.41 22.23 23.63 22.74"/><polygon class="cls-2" points="24.11 22.29 23.8 21.76 23.49 21.59 20.25 19.28 23.28 21.86 23.52 22.11 24.11 22.29"/><polygon class="cls-2" points="23.93 21.64 23.89 21.63 23.61 21.41 20.62 19.51 20.25 19.28 20.64 19.48 23.56 21 23.93 21.64"/><polygon class="cls-2" points="23.39 20.71 20.65 19.46 20.25 19.28 20.66 19.42 23.16 20.31 23.39 20.71"/><polygon class="cls-2" points="23.04 20.1 20.67 19.4 20.25 19.28 20.68 19.36 22.87 19.81 23.04 20.1"/><polygon class="cls-2" points="22.78 19.66 20.68 19.34 20.25 19.28 20.68 19.3 22.65 19.43 22.78 19.66"/><polygon class="cls-2" points="22.57 19.3 20.68 19.28 20.25 19.28 20.68 19.24 22.46 19.1 22.57 19.3"/><polygon class="cls-2" points="22.4 18.99 20.68 19.22 20.25 19.28 20.68 19.18 22.3 18.82 22.4 18.99"/><polygon class="cls-2" points="22.25 18.72 20.67 19.16 20.25 19.28 20.66 19.13 22.15 18.57 22.25 18.72"/><polygon class="cls-2" points="22.1 18.47 20.65 19.1 20.25 19.28 20.63 19.07 22.01 18.32 22.1 18.47"/><polygon class="cls-2" points="21.96 18.23 20.62 19.05 20.25 19.28 20.6 19.02 21.87 18.08 21.96 18.23"/><polygon class="cls-2" points="21.82 17.98 20.59 19 20.25 19.28 20.56 18.97 21.73 17.83 21.82 17.98"/><polygon class="cls-2" points="21.67 17.73 20.54 18.96 20.25 19.28 20.52 18.93 21.57 17.56 21.67 17.73"/><polygon class="cls-2" points="21.51 17.45 20.5 18.92 20.25 19.28 20.46 18.9 21.4 17.25 21.51 17.45"/><polygon class="cls-2" points="21.32 17.13 20.45 18.89 20.25 19.28 20.41 18.87 21.19 16.9 21.32 17.13"/><polygon class="cls-2" points="21.1 16.74 20.39 18.87 20.25 19.28 20.35 18.86 20.93 16.45 21.1 16.74"/><polygon class="cls-2" points="20.81 16.24 20.33 18.85 20.25 19.28 20.29 18.85 20.58 15.85 20.81 16.24"/><path class="cls-3" d="M22.89,20.82a2.64,2.64,0,0,0-5.28,0h.06a2.58,2.58,0,0,1,5.16,0Z"/><path class="cls-4" d="M23,20.82a2.7,2.7,0,0,0-5.4,0h.06a2.64,2.64,0,0,1,5.28,0Z"/><path class="cls-5" d="M23,20.81a2.76,2.76,0,0,0-5.51,0h.05a2.7,2.7,0,0,1,5.4,0Z"/><path class="cls-6" d="M23.06,20.81h0a2.76,2.76,0,0,0-5.51,0h-.06a1,1,0,0,1,0-.17.19.19,0,0,1,0-.08l0-.23v-.09a.24.24,0,0,0,0-.08h0s0,0,0-.06v0a.14.14,0,0,1,0-.06V20l0-.05s0,0,0-.06l0,0v0s0,0,0,0v0s0,0,0,0h0l0-.06h0l.1-.18.06-.09h0l.05-.06h0l0-.05.08-.1,0-.05h0l.06-.06,0-.06h0l0-.05h0l0,0,.07-.06,0,0,.05,0h0l.07-.05.06,0,0,0,.05,0h0l.06,0,.06,0,0,0,.05,0,0,0,.15-.07.05,0h.1l.06,0h.1l.08,0h0l.08,0h1.34l.08,0h0l.07,0h.1l.06,0h.11l0,0,.15.07,0,0,0,0,0,0,.06,0,.07,0h0l.05,0,0,0,.06,0,.06.05h0l.05,0,0,0,.07.06.05,0h0l.05.05h0l.06.06.05.06h0l.05.05a.86.86,0,0,1,.07.1l0,.05h0l.05.06h0l.06.09.1.18h0l0,.06h0l0,0v0a.08.08,0,0,1,0,0l0,0v0a.14.14,0,0,1,0,.06l0,.05,0,.05,0,.06v0s0,0,0,.06h0s0,.05,0,.08a.43.43,0,0,1,0,.05v0c0,.07,0,.15,0,.23s0,.05,0,.08S23.06,20.75,23.06,20.81Z"/><path class="cls-7" d="M17.72,19.65l0,0,0,.06h0s0,0,0,0v0s0,0,0,0v0l0,0s0,0,0,.06l0,.05V20a.14.14,0,0,0,0,.06v0s0,0,0,.06h0a.24.24,0,0,1,0,.08v.09l0,.23a.19.19,0,0,0,0,.08,1,1,0,0,0,0,.17h-.06a3.48,3.48,0,0,1,.16-.84l.09-.16Z"/><path class="cls-7" d="M22.59,19.33h0l-.05-.06h0l0-.05a.86.86,0,0,0-.07-.1l-.05-.05h0L22.32,19l-.06-.06h0l-.05-.05h0l-.05,0-.07-.06,0,0-.05,0h0l-.06-.05-.06,0,0,0-.05,0h0l-.07,0-.06,0,0,0,0,0,0,0-.15-.07,0,0h-.11l-.06,0h-.1l-.07,0h0l-.08,0H19.58l-.08,0h0l-.08,0h-.1l-.06,0h-.1l-.05,0-.15.07,0,0-.05,0,0,0-.06,0-.06,0h0l-.05,0,0,0-.06,0-.07.05h0l-.05,0,0,0-.07.06,0,0h0l0,.05h0l0,.06-.06.06h0l0,.05-.08.1,0,.05h0l-.05.06h0l0,0,.11-.2L18.1,19l0,0a3,3,0,0,1,4.26,0l0,0,.06.11.12.2Z"/><path class="cls-7" d="M23.12,20.81h-.06c0-.06,0-.11,0-.17s0-.06,0-.08,0-.16,0-.23v0a.43.43,0,0,0,0-.05s0,0,0-.08h0s0,0,0-.06v0l0-.06,0-.05,0-.05a.14.14,0,0,0,0-.06v0l0,0a.08.08,0,0,0,0,0v0l0,0h0l0-.06,0,0,.09.16L23,20A3.06,3.06,0,0,1,23.12,20.81Z"/><path class="cls-8" d="M17.46,20.1l.08-.13a3.48,3.48,0,0,0-.16.84h-.05a3,3,0,0,1,.09-.62Z"/><path class="cls-8" d="M22.38,19a3,3,0,0,0-4.26,0l.08-.14,0-.06a3.06,3.06,0,0,1,4,0l0,.06Z"/><path class="cls-8" d="M23.18,20.8h-.06A3.06,3.06,0,0,0,23,20l.08.13,0,.08A3.83,3.83,0,0,1,23.18,20.8Z"/><path class="cls-9" d="M17.34,20.31l.08-.13a3,3,0,0,0-.09.62h-.06a3.4,3.4,0,0,1,.06-.46Z"/><path class="cls-9" d="M22.27,18.76a3.06,3.06,0,0,0-4,0l0,0,.07-.11a3.11,3.11,0,0,1,3.85,0l.06.11Z"/><path class="cls-9" d="M23.23,20.8h-.05a3.83,3.83,0,0,0-.1-.62l.08.13,0,0C23.2,20.49,23.22,20.64,23.23,20.8Z"/><polygon class="cls-1" points="20.25 19.28 20.26 18.74 20.25 18.74 20.24 18.74 20.25 19.28 20.25 19.28 20.25 19.28 20.25 19.28 20.25 19.28"/><polygon class="cls-1" points="20.25 19.28 20.19 18.75 20.18 18.75 20.17 18.75 20.25 19.28 20.25 19.28 20.25 19.28 20.25 19.28 20.25 19.28"/><polygon class="cls-1" points="20.25 19.28 20.11 18.76 20.1 18.76 20.1 18.77 20.25 19.28 20.25 19.28 20.25 19.28 20.25 19.28 20.25 19.28"/><polygon class="cls-1" points="20.25 19.28 20.04 18.79 20.03 18.79 20.03 18.79 20.25 19.28 20.25 19.28 20.25 19.28 20.25 19.28 20.25 19.28"/><polygon class="cls-1" points="20.25 19.28 19.98 18.82 19.97 18.82 19.96 18.83 20.25 19.28 20.25 19.28 20.25 19.28 20.25 19.28 20.25 19.28"/><polygon class="cls-1" points="20.25 19.28 19.91 18.86 19.91 18.87 19.9 18.87 20.25 19.28 20.25 19.28 20.25 19.28 20.25 19.28 20.25 19.28"/><polygon class="cls-1" points="20.25 19.28 19.86 18.91 19.86 18.92 19.85 18.93 20.25 19.28 20.25 19.28 20.25 19.28 20.25 19.28 20.25 19.28"/><polygon class="cls-1" points="20.25 19.28 19.81 18.97 19.81 18.98 19.8 18.98 20.25 19.28 20.25 19.28 20.25 19.28 20.25 19.28 20.25 19.28"/><polygon class="cls-1" points="20.25 19.28 19.77 19.04 19.77 19.04 19.77 19.05 20.25 19.28 20.25 19.28 20.25 19.28 20.25 19.28 20.25 19.28"/><polygon class="cls-1" points="20.25 19.28 19.75 19.1 19.74 19.11 19.74 19.12 20.25 19.28 20.25 19.28 20.25 19.28 20.25 19.28 20.25 19.28"/><polygon class="cls-1" points="20.25 19.28 19.73 19.18 19.73 19.18 19.72 19.19 20.25 19.28 20.25 19.28 20.25 19.28 20.25 19.28 20.25 19.28"/><polygon class="cls-1" points="20.25 19.28 19.72 19.25 19.72 19.26 19.72 19.27 20.25 19.28 20.25 19.28 20.25 19.28 20.25 19.28 20.25 19.28"/><polygon class="cls-1" points="20.25 19.28 19.72 19.32 19.72 19.33 19.72 19.34 20.25 19.28 20.25 19.28 20.25 19.28 20.25 19.28 20.25 19.28"/><polygon class="cls-1" points="20.25 19.28 19.73 19.4 19.73 19.41 19.73 19.41 20.25 19.28 20.25 19.28 20.25 19.28 20.25 19.28 20.25 19.28"/><polygon class="cls-1" points="20.25 19.28 19.75 19.47 19.76 19.48 19.76 19.48 20.25 19.28 20.25 19.28 20.25 19.28 20.25 19.28 20.25 19.28"/><polygon class="cls-1" points="20.25 19.28 19.79 19.54 19.79 19.54 19.79 19.55 20.25 19.28 20.25 19.28 20.25 19.28 20.25 19.28 20.25 19.28"/><polygon class="cls-1" points="20.25 19.28 19.82 19.6 19.83 19.61 19.84 19.61 20.25 19.28 20.25 19.28 20.25 19.28 20.25 19.28 20.25 19.28"/><polygon class="cls-1" points="20.25 19.28 19.87 19.66 19.88 19.66 19.89 19.67 20.25 19.28 20.25 19.28 20.25 19.28 20.25 19.28 20.25 19.28"/><polygon class="cls-1" points="20.25 19.28 19.93 19.7 19.94 19.71 19.94 19.71 20.25 19.28 20.25 19.28 20.25 19.28 20.25 19.28 20.25 19.28"/><polygon class="cls-1" points="20.25 19.28 19.99 19.75 20 19.75 20.01 19.75 20.25 19.28 20.25 19.28 20.25 19.28 20.25 19.28 20.25 19.28"/><polygon class="cls-1" points="20.25 19.28 20.06 19.78 20.07 19.78 20.08 19.78 20.25 19.28 20.25 19.28 20.25 19.28 20.25 19.28 20.25 19.28"/><polygon class="cls-1" points="20.25 19.28 20.13 19.8 20.14 19.8 20.15 19.8 20.25 19.28 20.25 19.28 20.25 19.28 20.25 19.28 20.25 19.28"/><polygon class="cls-1" points="20.25 19.28 20.21 19.81 20.21 19.81 20.22 19.81 20.25 19.28 20.25 19.28 20.25 19.28 20.25 19.28 20.25 19.28"/><polygon class="cls-1" points="20.25 19.28 20.28 19.81 20.29 19.81 20.3 19.81 20.25 19.28 20.25 19.28 20.25 19.28 20.25 19.28 20.25 19.28"/><polygon class="cls-1" points="20.25 19.28 20.35 19.8 20.36 19.8 20.37 19.8 20.25 19.28 20.25 19.28 20.25 19.28 20.25 19.28 20.25 19.28"/><polygon class="cls-1" points="20.25 19.28 20.43 19.78 20.43 19.78 20.44 19.78 20.25 19.28 20.25 19.28 20.25 19.28 20.25 19.28 20.25 19.28"/><polygon class="cls-1" points="20.25 19.28 20.5 19.75 20.5 19.75 20.51 19.75 20.25 19.28 20.25 19.28 20.25 19.28 20.25 19.28 20.25 19.28"/><polygon class="cls-1" points="20.25 19.28 20.56 19.71 20.57 19.71 20.57 19.7 20.25 19.28 20.25 19.28 20.25 19.28 20.25 19.28 20.25 19.28"/><polygon class="cls-1" points="20.25 19.28 20.62 19.67 20.62 19.66 20.63 19.66 20.25 19.28 20.25 19.28 20.25 19.28 20.25 19.28 20.25 19.28"/><polygon class="cls-1" points="20.25 19.28 20.67 19.61 20.67 19.61 20.68 19.6 20.25 19.28 20.25 19.28 20.25 19.28 20.25 19.28 20.25 19.28"/><polygon class="cls-1" points="20.25 19.28 20.71 19.55 20.71 19.54 20.72 19.54 20.25 19.28 20.25 19.28 20.25 19.28 20.25 19.28 20.25 19.28"/><polygon class="cls-1" points="20.25 19.28 20.74 19.48 20.75 19.48 20.75 19.47 20.25 19.28 20.25 19.28 20.25 19.28 20.25 19.28 20.25 19.28"/><polygon class="cls-1" points="20.25 19.28 20.77 19.41 20.77 19.41 20.77 19.4 20.25 19.28 20.25 19.28 20.25 19.28 20.25 19.28 20.25 19.28"/><polygon class="cls-1" points="20.25 19.28 20.78 19.34 20.78 19.33 20.78 19.32 20.25 19.28 20.25 19.28 20.25 19.28 20.25 19.28 20.25 19.28"/><polygon class="cls-1" points="20.25 19.28 20.79 19.27 20.79 19.26 20.79 19.25 20.25 19.28 20.25 19.28 20.25 19.28 20.25 19.28 20.25 19.28"/><polygon class="cls-1" points="20.25 19.28 20.78 19.19 20.78 19.18 20.78 19.18 20.25 19.28 20.25 19.28 20.25 19.28 20.25 19.28 20.25 19.28"/><polygon class="cls-1" points="20.25 19.28 20.76 19.12 20.76 19.11 20.76 19.1 20.25 19.28 20.25 19.28 20.25 19.28 20.25 19.28 20.25 19.28"/><polygon class="cls-1" points="20.25 19.28 20.74 19.05 20.73 19.04 20.73 19.04 20.25 19.28 20.25 19.28 20.25 19.28 20.25 19.28 20.25 19.28"/><polygon class="cls-1" points="20.25 19.28 20.7 18.98 20.69 18.98 20.69 18.97 20.25 19.28 20.25 19.28 20.25 19.28 20.25 19.28 20.25 19.28"/><polygon class="cls-1" points="20.25 19.28 20.65 18.93 20.65 18.92 20.64 18.91 20.25 19.28 20.25 19.28 20.25 19.28 20.25 19.28 20.25 19.28"/><polygon class="cls-1" points="20.25 19.28 20.6 18.87 20.59 18.87 20.59 18.86 20.25 19.28 20.25 19.28 20.25 19.28 20.25 19.28 20.25 19.28"/><polygon class="cls-1" points="24.65 22.79 15.85 22.79 17.01 20.78 17.06 20.69 23.44 20.69 23.5 20.78 24.65 22.79"/><polygon class="cls-10" points="23.46 20.73 17.04 20.73 17.06 20.69 23.44 20.69 23.46 20.73"/><polygon class="cls-11" points="23.49 20.78 17.01 20.78 17.03 20.74 23.47 20.74 23.49 20.78"/><polygon class="cls-12" points="23.52 20.83 16.98 20.83 17 20.8 23.5 20.8 23.52 20.83"/><polygon class="cls-13" points="23.55 20.88 16.95 20.88 16.97 20.85 23.53 20.85 23.55 20.88"/><polygon class="cls-14" points="23.58 20.94 16.92 20.94 16.94 20.9 23.56 20.9 23.58 20.94"/><polygon class="cls-15" points="23.61 20.99 16.89 20.99 16.91 20.95 23.59 20.95 23.61 20.99"/><polygon class="cls-16" points="23.64 21.04 16.86 21.04 16.88 21.01 23.62 21.01 23.64 21.04"/><polygon class="cls-17" points="23.68 21.09 16.83 21.09 16.85 21.06 23.66 21.06 23.68 21.09"/><polygon class="cls-18" points="23.7 21.15 16.8 21.15 16.82 21.11 23.68 21.11 23.7 21.15"/><path class="cls-19" d="M24.61,22.71l-.27,0-.41,0-.41,0a2.36,2.36,0,0,1-.44,0,2.29,2.29,0,0,1-.44,0,3.87,3.87,0,0,0-.42,0l-.41,0a3.24,3.24,0,0,1-.88,0l-.42,0-.41,0a3.24,3.24,0,0,1-.88,0,3.73,3.73,0,0,0-.42,0l-.41,0a3.24,3.24,0,0,1-.88,0,3.73,3.73,0,0,0-.42,0l-.41,0a2.29,2.29,0,0,1-.44,0H15.9l0-.06h.3c.43,0,.43,0,.85,0s.43,0,.86,0,.43,0,.85,0,.43,0,.86,0,.42,0,.85,0,.43,0,.86,0,.42,0,.85,0,.43,0,.86,0,.42,0,.85,0a4.76,4.76,0,0,1,.51,0h.13Z"/><path class="cls-20" d="M24.55,22.61h-.13a2.77,2.77,0,0,0-.49,0c-.43,0-.43.05-.85.05s-.43-.05-.86-.05-.42.05-.85.05-.43-.05-.86-.05-.42.05-.85.05-.43-.05-.86-.05-.42.05-.85.05-.43-.05-.86-.05-.42.05-.85.05H16l0-.07h.25c.43,0,.43-.05.85-.05s.43.05.86.05.43-.05.85-.05.43.05.86.05.42-.05.85-.05.43.05.86.05.42-.05.85-.05.43.05.86.05.42-.05.85-.05a3.63,3.63,0,0,1,.45,0h.13Z"/><path class="cls-21" d="M24.49,22.51h-.13a3.39,3.39,0,0,0-.43,0c-.43,0-.43.05-.85.05s-.43-.05-.86-.05-.42.05-.85.05-.43-.05-.86-.05-.42.05-.85.05-.43-.05-.86-.05-.42.05-.85.05-.43-.05-.86-.05-.42.05-.85.05H16l0-.07h.2c.43,0,.43-.05.85-.05s.43.05.86.05.43-.05.85-.05.43.05.86.05.42-.05.85-.05.43.05.86.05.42-.05.85-.05.43.05.86.05.42-.05.85-.05l.39,0h.13Z"/><path class="cls-22" d="M24.43,22.41H24.3l-.37,0c-.43,0-.43.05-.85.05s-.43-.05-.86-.05-.42.05-.85.05-.43-.05-.86-.05-.42.05-.85.05-.43-.05-.86-.05-.42.05-.85.05-.43-.05-.86-.05-.42.05-.85.05h-.18l0-.06h.14c.43,0,.43-.05.85-.05s.43.05.86.05.43-.05.85-.05.43.05.86.05.42-.05.85-.05.43.05.86.05.42-.05.85-.05.43.05.86.05.42-.05.85-.05l.33,0h.13Z"/><path class="cls-23" d="M24.38,22.31h-.13l-.32,0c-.43,0-.43,0-.85,0s-.43,0-.86,0-.42,0-.85,0-.43,0-.86,0-.42,0-.85,0-.43,0-.86,0-.42,0-.85,0-.43,0-.86,0-.42,0-.85,0h-.12l0-.06h.12c.4,0,.41-.05.82-.05s.43.05.86.05.43-.05.85-.05.43.05.86.05.42-.05.85-.05.43.05.86.05.42-.05.85-.05.43.05.86.05.42-.05.85-.05h.41Z"/><path class="cls-24" d="M24.32,22.21h-.39c-.43,0-.43,0-.85,0s-.43,0-.86,0-.42,0-.85,0-.43,0-.86,0-.42,0-.85,0-.43,0-.86,0-.42,0-.85,0-.43,0-.86,0-.42,0-.8,0h-.12l0-.07h.12c.34,0,.37,0,.76,0s.43,0,.86,0,.43,0,.85,0,.43,0,.86,0,.42,0,.85,0,.43,0,.86,0,.42,0,.85,0,.43,0,.86,0,.42,0,.85,0h.35Z"/><path class="cls-25" d="M24.26,22.11h-.33c-.43,0-.43.05-.85.05s-.43-.05-.86-.05-.42.05-.85.05-.43-.05-.86-.05-.42.05-.85.05-.43-.05-.86-.05-.42.05-.85.05-.43-.05-.86-.05-.42.05-.74.05h-.13l0-.06h.12c.29,0,.34,0,.71,0s.43,0,.86,0,.43,0,.85,0,.43,0,.86,0,.42,0,.85,0,.43,0,.86,0,.42,0,.85,0,.43,0,.86,0,.42,0,.85,0h.29Z"/><path class="cls-26" d="M24.2,22h-.27c-.43,0-.43.05-.85.05s-.43-.05-.86-.05-.42.05-.85.05-.43-.05-.86-.05-.42.05-.85.05S19.23,22,18.8,22s-.42.05-.85.05-.43-.05-.86-.05-.41,0-.69.05h-.12l0-.07h.13c.24,0,.31,0,.65,0s.43,0,.86,0,.43,0,.85,0,.43,0,.86,0,.42,0,.85,0,.43,0,.86,0,.42,0,.85,0,.43,0,.86,0,.42,0,.85,0h.23Z"/><path class="cls-27" d="M24.15,21.91h-.22c-.43,0-.43,0-.85,0s-.43,0-.86,0-.42,0-.85,0-.43,0-.86,0-.42,0-.85,0-.43,0-.86,0-.42,0-.85,0-.43,0-.86,0-.4,0-.63,0h-.13l0-.06h.13c.19,0,.27,0,.59,0s.43.05.86.05.43-.05.85-.05.43.05.86.05.42-.05.85-.05.43.05.86.05.42-.05.85-.05.43.05.86.05.42-.05.85-.05h.18Z"/><path class="cls-28" d="M24.09,21.81h-.16c-.43,0-.43.05-.85.05s-.43-.05-.86-.05-.42.05-.85.05-.43-.05-.86-.05-.42.05-.85.05-.43-.05-.86-.05-.42.05-.85.05-.43-.05-.86-.05-.39,0-.58,0h-.12l0-.07h.12c.16,0,.26,0,.54,0s.43.05.86.05.43-.05.85-.05.43.05.86.05.42-.05.85-.05.43.05.86.05.42-.05.85-.05.43.05.86.05.42-.05.85-.05h.12Z"/><path class="cls-29" d="M24,21.72h-.12c-.41,0-.41.05-.83.05s-.43-.05-.86-.05-.42.05-.85.05-.43-.05-.86-.05-.42.05-.85.05-.43-.05-.86-.05-.42.05-.85.05-.43-.05-.86-.05a5.2,5.2,0,0,0-.52,0h-.13l0-.07h.13a4.27,4.27,0,0,1,.48,0c.43,0,.43.05.86.05s.43-.05.85-.05.43.05.86.05.42-.05.85-.05.43.05.86.05.42-.05.85-.05.43.05.86.05.42,0,.79-.05H24Z"/><path class="cls-30" d="M24,21.62h-.12c-.36,0-.38.05-.78.05s-.43-.05-.86-.05-.42.05-.85.05-.43-.05-.86-.05-.42.05-.85.05-.43-.05-.86-.05-.42.05-.85.05-.43-.05-.86-.05a4,4,0,0,0-.46,0H16.5l0-.06.13,0a3.73,3.73,0,0,1,.42,0c.43,0,.43.05.86.05s.43-.05.85-.05.43.05.86.05.42-.05.85-.05.43.05.86.05.42-.05.85-.05.43.05.86.05.42,0,.74-.05h.12Z"/><path class="cls-31" d="M23.92,21.53H23.8c-.3,0-.34,0-.72,0s-.43,0-.86,0-.42,0-.85,0-.43,0-.86,0-.42,0-.85,0-.43,0-.86,0-.42,0-.85,0-.43,0-.86,0l-.4,0h-.13l0-.06.13,0,.36,0c.43,0,.43.05.86.05s.43-.05.85-.05.43.05.86.05.42-.05.85-.05.43.05.86.05.42-.05.85-.05.43.05.86.05.41,0,.69,0h.12Z"/><path class="cls-32" d="M23.87,21.43h-.12c-.26,0-.32,0-.67,0s-.43-.05-.86-.05-.42.05-.85.05-.43-.05-.86-.05-.42.05-.85.05-.43-.05-.86-.05-.42.05-.85.05-.43-.05-.86-.05l-.34,0h-.13l0-.06.13,0h.3c.43,0,.43.05.86.05s.43-.05.85-.05.43.05.86.05.42-.05.85-.05.43.05.86.05.42-.05.85-.05.43.05.86.05a4.44,4.44,0,0,0,.63-.05h.12Z"/><path class="cls-33" d="M23.82,21.34H23.7a4.41,4.41,0,0,1-.62.05c-.43,0-.43-.05-.86-.05s-.42.05-.85.05-.43-.05-.86-.05-.42.05-.85.05-.43-.05-.86-.05-.42.05-.85.05-.43-.05-.86-.05h-.42l0-.07h.38c.43,0,.43.05.86.05s.43-.05.85-.05.43.05.86.05.42-.05.85-.05.43.05.86.05.42-.05.85-.05.43.05.86.05a3.91,3.91,0,0,0,.58,0h.12Z"/><path class="cls-34" d="M23.76,21.25h-.12a3.5,3.5,0,0,1-.56,0c-.43,0-.43-.05-.86-.05s-.42.05-.85.05-.43-.05-.86-.05-.42.05-.85.05-.43-.05-.86-.05-.42.05-.85.05-.43-.05-.86-.05h-.36l0-.07h.32c.43,0,.43.05.86.05s.43-.05.85-.05.43.05.86.05.42-.05.85-.05.43.05.86.05.42-.05.85-.05.43.05.86.05a3.17,3.17,0,0,0,.53,0h.12Z"/><polygon class="cls-1" points="20.25 19.28 20.54 18.83 20.54 18.82 20.53 18.82 20.25 19.28 20.25 19.28 20.25 19.28 20.25 19.28 20.25 19.28"/><polygon class="cls-1" points="20.25 19.28 20.48 18.79 20.47 18.79 20.46 18.79 20.25 19.28 20.25 19.28 20.25 19.28 20.25 19.28 20.25 19.28"/><polygon class="cls-1" points="20.25 19.28 20.41 18.77 20.4 18.76 20.39 18.76 20.25 19.28 20.25 19.28 20.25 19.28 20.25 19.28 20.25 19.28"/><polygon class="cls-1" points="20.25 19.28 20.33 18.75 20.33 18.75 20.32 18.75 20.25 19.28 20.25 19.28 20.25 19.28 20.25 19.28 20.25 19.28"/><polygon class="cls-35" points="23.74 21.2 16.77 21.2 16.77 21.19 16.79 21.17 23.72 21.17 23.73 21.18 23.74 21.2"/><path class="cls-36" d="M20,19.52a.57.57,0,0,0,.13.08.12.12,0,0,1,.05,0,.07.07,0,0,1,0,.05v.05a.07.07,0,0,0,0,.05,0,0,0,0,0,0,0l.05,0s0,0,0,0a.26.26,0,0,0,0-.19.3.3,0,0,0-.21-.17H20s0,0,0,0,0,0,0,.06Z"/><path class="cls-36" d="M20.47,19.63h.05l0,0a.08.08,0,0,0,0-.05s0,0,0,0h0a.17.17,0,0,0-.12,0s-.06.06,0,.08,0,0,0,0Z"/><path class="cls-9" d="M20.58,19.54a.08.08,0,0,1,0,0s-.06,0-.09,0a.16.16,0,0,0-.08.06.17.17,0,0,0,0,.1s0,0,0,.05,0,0,0,0-.05,0-.06-.05a.27.27,0,0,1,0-.09.26.26,0,0,0-.07-.18l0,0a.25.25,0,0,0-.15-.05.1.1,0,0,1-.07,0s0,0,0-.07l0-.06.09-.09a.08.08,0,0,0,0-.05s0,0-.07,0h0s-.05,0-.06,0A.16.16,0,0,1,20,19a.41.41,0,0,1,.14-.12.23.23,0,0,1,.18,0,.32.32,0,0,1,.18.13A.88.88,0,0,1,20.58,19.54Z"/><path class="cls-37" d="M20.15,19.3a1.27,1.27,0,0,0,0,.2.25.25,0,0,0-.15-.05.1.1,0,0,1-.07,0s0,0,0-.07l0-.06.09-.09a.08.08,0,0,0,0-.05s0,0-.07,0h0s0-.05.07-.06a.07.07,0,0,1,.07,0s0,0,.05.07A.39.39,0,0,1,20.15,19.3Z"/><path class="cls-38" d="M23.83,21.89a1.6,1.6,0,0,0-.31,0c-.21,0-.42.08-.62.09a4.1,4.1,0,0,1-.78-.06,1.85,1.85,0,0,0-.47,0c-.17,0-.33,0-.5.06s-.44,0-.66,0a1.73,1.73,0,0,0-.64.07c-.43.15-.92-.06-1.36,0a5,5,0,0,1-.63.12,2.94,2.94,0,0,1-.51-.05,2.31,2.31,0,0,0-1.08.11h0l.25-.42a.1.1,0,0,1,.08-.07h0l.25-.1a1.28,1.28,0,0,0,.28-.16,1.68,1.68,0,0,0,.29-.24l.11-.12a1.88,1.88,0,0,0,.16-.23,2.51,2.51,0,0,0,.24-.46c0-.09.07-.19.1-.28a.16.16,0,0,1,.11-.1h.1a.14.14,0,0,1,.08.09,3.24,3.24,0,0,0,.27.6v0a.12.12,0,0,0,.08,0,.13.13,0,0,0,.14-.06,1.75,1.75,0,0,0,.28-.57.15.15,0,0,1,0-.1l.08,0,.07,0a.11.11,0,0,1,.07.08,3,3,0,0,0,.27.56.12.12,0,0,0,.06.06h0a.12.12,0,0,0,.15-.05,1.9,1.9,0,0,0,.29-.57.08.08,0,0,1,0,0h0a.19.19,0,0,1,.11-.05l.07,0a.13.13,0,0,1,.06.07,3.92,3.92,0,0,0,.25.58.1.1,0,0,0,.05,0h0a.13.13,0,0,0,.17,0,1.2,1.2,0,0,0,.27-.54.27.27,0,0,1,.06-.1h0l.07,0a.19.19,0,0,1,.14.07.17.17,0,0,1,0,.05,1.41,1.41,0,0,0,.22.54h0l0,0a.16.16,0,0,0,.08.06h0a.18.18,0,0,0,.09-.06,1.7,1.7,0,0,0,.28-.56.17.17,0,0,1,.07-.12l.05,0a.18.18,0,0,1,.15.12h0a2.36,2.36,0,0,0,.68,1,1.43,1.43,0,0,0,.66.3.14.14,0,0,1,.1.07l0,.05,0,0A.14.14,0,0,1,23.83,21.89Z"/><path class="cls-39" d="M16.94,21.75a1.79,1.79,0,0,0,.74-.65,3.1,3.1,0,0,0,.27-.51c0-.08.07-.15.1-.23a2.51,2.51,0,0,1-.35,1,1,1,0,0,1-.25.29A1,1,0,0,1,16.94,21.75Z"/><path class="cls-39" d="M19.1,20.26a1.74,1.74,0,0,1-.24.83,0,0,0,0,1,0,0l0,0s0-.06,0-.08,0-.05.06-.07.07-.1.1-.16a2.52,2.52,0,0,0,.14-.33A1.18,1.18,0,0,0,19.1,20.26Z"/><path class="cls-40" d="M20,21.05s0,.05-.06.05A.11.11,0,0,1,19.8,21s0-.06,0-.09a.19.19,0,0,1,0-.08,1.83,1.83,0,0,0,.23-.38l.1-.2s0-.11.05-.07a.41.41,0,0,1,0,.11v.06a1.6,1.6,0,0,1-.11.43A1.27,1.27,0,0,1,20,21.05Z"/><path class="cls-41" d="M20.18,20.19a.4.4,0,0,1,0,.15,3.1,3.1,0,0,1-.25.56s0,.05-.06.07l-.08,0-.06,0a.21.21,0,0,1-.05-.12l0-.06a.14.14,0,0,0,.16-.05,1.9,1.9,0,0,0,.29-.57.08.08,0,0,1,0,0A.19.19,0,0,1,20.18,20.19Z"/><path class="cls-41" d="M21.31,20.76a1.09,1.09,0,0,1,0,.31.67.67,0,0,1-.06.12l-.08.09a.1.1,0,0,1-.07,0,.37.37,0,0,1-.2-.15.74.74,0,0,1-.13-.21.46.46,0,0,1,0-.2.14.14,0,0,0,.18,0,1.2,1.2,0,0,0,.27-.54s0,0,0-.06l.05-.05s.07,0,.08.06a.07.07,0,0,1,0,.05A5.56,5.56,0,0,1,21.31,20.76Z"/><path class="cls-40" d="M20.88,21a2.48,2.48,0,0,0,.19-.26,1.16,1.16,0,0,0,.14-.47,2.43,2.43,0,0,1-.22.83h0s0,0,0,0A.41.41,0,0,1,20.88,21Z"/><path class="cls-41" d="M22.35,20.86l0,.15s0,.09-.05.13l0,.06a.09.09,0,0,1,0,.05s0,0-.05,0l-.06,0L22,21.11l0,0a.1.1,0,0,1,0-.05l-.06,0,0-.06s0,0,0,0l0-.06s0,0,0,0h.11a.15.15,0,0,0,.06-.05,1.7,1.7,0,0,0,.28-.56.17.17,0,0,1,.07-.12.11.11,0,0,1,.08,0,.19.19,0,0,1,0,.1,1.93,1.93,0,0,1,0,.24A3,3,0,0,1,22.35,20.86Z"/><path class="cls-40" d="M22.24,20.27a1.11,1.11,0,0,1-.06.47,1.13,1.13,0,0,1-.13.32l0,0h0L21.91,21s0,0,0,0a0,0,0,0,0,0,0l0,0,.09-.16a1.87,1.87,0,0,0,.15-.32A1.33,1.33,0,0,0,22.24,20.27Z"/><path class="cls-42" d="M14.62,19.77l.25-.16v.14l-.24.15a.68.68,0,0,1,0,.14h.24v.13l-.68,0a.88.88,0,0,1,0-.23c0-.23.08-.31.26-.3S14.6,19.67,14.62,19.77Zm-.07.17c0-.13,0-.19-.15-.2s-.18.05-.19.17V20l.34,0Z"/><path class="cls-42" d="M14.87,19.19l.08-.35.07,0-.11.48-.67-.15.1-.48.07,0-.08.35.23.05.06-.31h.07l-.07.31Z"/><path class="cls-42" d="M14.93,18.39l.21.08-.05.12-.63-.24a1,1,0,0,1,.06-.22c.08-.22.17-.28.34-.21a.22.22,0,0,1,.15.32A.53.53,0,0,1,14.93,18.39Zm0-.11c.05-.12,0-.19-.1-.24s-.19,0-.24.11l0,.1.34.13Z"/><path class="cls-42" d="M15.43,17.32,15,17.1,15.1,17l.39.23c.16.09.17.2.07.37s-.19.22-.36.13l-.39-.23.07-.11.39.23c.13.07.19,0,.24-.05S15.55,17.4,15.43,17.32Z"/><path class="cls-42" d="M15.84,16.53a.16.16,0,0,1,.24,0c.11.08.1.19-.06.38a.81.81,0,0,1-.16.16l-.52-.42.13-.19c.13-.15.23-.18.33-.11a.17.17,0,0,1,0,.18Zm-.15.14c.08-.1.09-.17,0-.23s-.12,0-.21.08l0,.05.19.15Zm0,.09.21.18.07-.09c.08-.1.09-.17,0-.23s-.15-.05-.23.05Z"/><path class="cls-42" d="M16.48,16.29l.26-.25.05.05-.36.34L16,15.92l.1-.09Z"/><path class="cls-42" d="M16.69,15.31l.41.55-.1.08-.41-.56Z"/><path class="cls-42" d="M17.19,15.38c-.14-.24-.08-.36.08-.45a.78.78,0,0,1,.2-.09l0,0-.16.1c-.1,0-.15.15,0,.35s.22.21.33.14l.16-.09,0,0-.17.12C17.46,15.63,17.32,15.62,17.19,15.38Z"/><path class="cls-42" d="M18.13,15.09v.19l-.13,0v-.73l.17-.07.48.56-.12.05L18.4,15Zm0-.44h0V15l.23-.08Z"/><path class="cls-42" d="M19.7,14.89h-.23l-.06-.67.23,0c.23,0,.35.05.37.32S19.93,14.87,19.7,14.89Zm-.06-.64h-.1l.06.58h.1c.13,0,.21-.07.18-.3S19.77,14.23,19.64,14.25Z"/><path class="cls-42" d="M20.48,14.79l.36,0v.07l-.49,0,0-.69.49,0v.07l-.36,0,0,.22.32,0v.07l-.31,0Z"/><path class="cls-42" d="M21.8,15.07l-.11,0,.21-.65.14,0,.13.55h0l.15-.46.12,0-.22.66-.13-.05L22,14.62h0Z"/><path class="cls-42" d="M22.94,14.78l-.3.63-.11-.06.29-.62Z"/><path class="cls-42" d="M23.1,15.26c.15-.24.29-.24.45-.14a.92.92,0,0,1,.17.13l0,0-.16-.1c-.1-.07-.2-.06-.33.13s-.08.3,0,.36l.16.1,0,0a.73.73,0,0,1-.2-.1C23,15.62,23,15.49,23.1,15.26Z"/><path class="cls-42" d="M23.81,16l-.16.09-.1-.08.64-.36.14.12-.27.68-.1-.08.07-.18Zm.38-.21h0l-.32.18.19.16Z"/><path class="cls-42" d="M24.68,16.75l-.07.28-.1-.11.08-.27a.76.76,0,0,1-.08-.11l-.19.15-.08-.1.52-.43a.61.61,0,0,1,.16.16c.15.18.16.28,0,.39A.19.19,0,0,1,24.68,16.75Zm-.07-.17c.09.1.15.12.25,0s.1-.16,0-.26l-.06-.08-.26.22Z"/><path class="cls-42" d="M25,17.29l-.19,0-.07-.11.72-.14.1.16-.47.56L25,17.68l.12-.15Zm.43-.09h0l-.35.07.12.21Z"/><path class="cls-42" d="M25.39,18.49a.65.65,0,0,1-.1-.19c-.09-.21-.06-.35.2-.45s.37,0,.44.16a.85.85,0,0,1,.07.21h0l-.07-.17c-.05-.12-.14-.18-.35-.09s-.24.19-.18.33l0,.06.3-.12,0,.12Z"/><path class="cls-42" d="M25.8,19.17l.44-.1,0,.13-.44.1c-.19,0-.26,0-.31-.23s0-.29.18-.34l.44-.1,0,.13-.44.1c-.15,0-.17.1-.15.2S25.65,19.2,25.8,19.17Z"/><path class="cls-42" d="M25.82,19.74l-.18,0v-.13l.7.19,0,.19-.67.29V20.1l.17-.08Zm.42.12h0l-.35-.1,0,.25Z"/><path class="cls-42" d="M15.18,23.31l-.19,0-.08-.12.73-.14.11.17-.44.6-.07-.12.11-.16Zm.43-.09h0l-.36.08.14.23Z"/><path class="cls-42" d="M15.84,24.33l.15-.46h0l-.4.31-.1-.1.54-.43.12.13-.16.51h0l.52-.14.12.13-.46.52-.09-.11.34-.38h0l-.46.13Z"/><path class="cls-42" d="M16.61,25.06l.31.23,0,.06L16.45,25l.41-.56.43.32,0,.06-.32-.24-.13.19.28.2,0,.06-.28-.21Z"/><path class="cls-42" d="M17.91,25.39l-.05.07-.06,0-.06,0h-.08l.06.3-.14-.07,0-.28-.14-.07-.11.2-.12-.07.31-.6.12,0,.12.06.13.08a.22.22,0,0,1,.08.09.15.15,0,0,1,0,.09A.23.23,0,0,1,17.91,25.39Zm-.39,0,.08,0h.07l.06,0,.05-.07a.36.36,0,0,0,0-.07.15.15,0,0,0,0-.07.1.1,0,0,0,0-.05l-.08-.05-.1-.06-.16.3Z"/><path class="cls-42" d="M18.38,25.33l-.25.65L18,25.92l.25-.64Z"/><path class="cls-42" d="M18.77,26.18a.46.46,0,0,1-.14-.05.24.24,0,0,1-.09-.08.28.28,0,0,1,0-.13.59.59,0,0,1,.09-.33.26.26,0,0,1,.09-.09.35.35,0,0,1,.12,0l.13,0,.13,0,.1,0v.05l-.2-.06h-.09l-.08,0-.07.07a.46.46,0,0,0-.05.14.78.78,0,0,0,0,.14.3.3,0,0,0,0,.1l.06.06.1,0,.19.05v.05l-.1,0A.31.31,0,0,1,18.77,26.18Z"/><path class="cls-42" d="M19.43,26.12l-.09.17H19.2l.34-.66.21,0,.19.72-.14,0-.05-.18Zm.21-.39h0l-.17.33.27,0Z"/><path class="cls-42" d="M21.06,26.31a.38.38,0,0,1-.15,0,.28.28,0,0,1-.12,0,.27.27,0,0,1-.08-.1.61.61,0,0,1,0-.17.48.48,0,0,1,0-.17.23.23,0,0,1,.06-.12.22.22,0,0,1,.09-.07l.14,0h.24v0l-.2,0-.09,0a.17.17,0,0,0-.06.06.19.19,0,0,0,0,.09V26a.39.39,0,0,0,0,.14.15.15,0,0,0,.06.09.09.09,0,0,0,.07,0,.17.17,0,0,0,.1,0l.21,0v0l-.1,0Z"/><path class="cls-42" d="M21.69,26.11l.38-.1,0,.07-.52.14-.18-.67.52-.14,0,.07-.38.1.05.22.34-.09,0,.07-.34.09Z"/><path class="cls-42" d="M22.53,25.92,22.4,26l-.28-.64.15-.06.49.32h0l-.2-.44.13-.06.28.63-.15.06-.49-.31h0Z"/><path class="cls-42" d="M22.85,25l.55-.35,0,.06-.21.14.33.52-.12.08-.34-.53-.21.14Z"/><path class="cls-42" d="M24.15,24.34l.05.07a.17.17,0,0,1,0,.07.13.13,0,0,1,0,.06l0,.07.3.06-.12.1-.28-.06-.12.11.15.17-.11.09-.44-.51a.39.39,0,0,1,.08-.1l.1-.08a.5.5,0,0,1,.13-.1.25.25,0,0,1,.11,0,.15.15,0,0,1,.09,0A.18.18,0,0,1,24.15,24.34Zm-.16.35.07-.06,0-.07a.13.13,0,0,0,0-.06l0-.07L24,24.38a.11.11,0,0,0-.07,0l-.06,0-.08.05-.08.08.22.25Z"/><path class="cls-42" d="M24.65,24.22l.08.17-.09.11-.35-.65.14-.16.7.25L25,24,24.85,24Zm-.21-.39h0l.18.32.17-.2Z"/><path class="cls-42" d="M25.31,23.54l.21-.34.06,0-.29.46-.58-.37.07-.12Z"/><rect class="cls-42" x="14.66" y="21.49" width="0.1" height="0.44" transform="translate(-5.71 5.26) rotate(-17.02)"/><rect class="cls-42" x="25.76" y="21.49" width="0.1" height="0.44" transform="translate(44.14 50.02) rotate(-163)"/><path class="cls-43" d="M39.34,13.5H1.16a20.25,20.25,0,0,1,38.18,0Z"/><path class="cls-43" d="M39.34,27A20.25,20.25,0,0,1,1.16,27Z"/><path class="cls-44" d="M19.35,21.51l-.3-.2a2.64,2.64,0,0,1-.39-.36,2.29,2.29,0,0,1-.3-.5l0-.09s0,0,0,0h0v-.05a.34.34,0,0,0,0-.1l0-.06-.08,0a.11.11,0,0,0-.08,0,.12.12,0,0,0-.05.07v0a.17.17,0,0,0,0,.05l-.06.17a2.12,2.12,0,0,1-.14.31h0a1.43,1.43,0,0,1-.29.37,1.88,1.88,0,0,0,.16-.23,2.51,2.51,0,0,0,.24-.46c0-.09.07-.19.1-.28a.16.16,0,0,1,.11-.1h.1a.14.14,0,0,1,.08.09,3.24,3.24,0,0,0,.27.6l0,.05,0,.05.08.09.09.09,0,0,0,0,.18.17.09.09.1.08Z"/><path class="cls-41" d="M18.15,20.14a3,3,0,0,0,0,.67,1,1,0,0,0,.26.6,1.09,1.09,0,0,0,.47.26,3.33,3.33,0,0,0,.54.07,2.51,2.51,0,0,0-.37-.27,1.35,1.35,0,0,1-.47-.61,2.46,2.46,0,0,0,.78.69s.09,0,.14,0a2.25,2.25,0,0,1-1.19-1.34.16.16,0,0,0-.05-.09S18.16,20.11,18.15,20.14Z"/><path class="cls-40" d="M18.25,20.32a1.52,1.52,0,0,0,.32.93.86.86,0,0,0,.19.19.42.42,0,0,0,.26.08,1.87,1.87,0,0,1-.47-.54A3.93,3.93,0,0,1,18.25,20.32Z"/><path class="cls-44" d="M20.41,21.48l-.27-.16-.22-.17a1.91,1.91,0,0,1-.37-.43,1.64,1.64,0,0,1-.22-.51.3.3,0,0,0,0-.1.1.1,0,0,0-.08-.05c-.06,0-.09.08-.1.14a2,2,0,0,1-.25.5.32.32,0,0,1-.1.1.12.12,0,0,1-.14,0h0s0,0,0,0a.12.12,0,0,0,.08,0,.13.13,0,0,0,.14-.06l.06-.1.09-.15L19,20.4l0-.09.05-.14s0-.08,0-.1l.08,0,.07,0a.11.11,0,0,1,.07.08,3,3,0,0,0,.27.56.12.12,0,0,0,.06.06h0l.06.13a.08.08,0,0,0,0,0l.06.07a.63.63,0,0,0,.12.11C20.11,21.25,20.26,21.36,20.41,21.48Z"/><path class="cls-41" d="M19.32,20.15a.07.07,0,0,0-.12.05,2.24,2.24,0,0,0,0,.58,1.08,1.08,0,0,0,.24.57,1,1,0,0,0,.47.31,1.76,1.76,0,0,0,.56.07,2.63,2.63,0,0,1-.49-.39,1.49,1.49,0,0,1-.36-.5,2.29,2.29,0,0,0,.49.54.86.86,0,0,0,.2.13.51.51,0,0,0,.24,0,3.31,3.31,0,0,1-.7-.53,1.88,1.88,0,0,1-.46-.75.31.31,0,0,0-.05-.12Z"/><path class="cls-40" d="M19.26,20.25a2.32,2.32,0,0,0,.28.89.93.93,0,0,0,.21.27.48.48,0,0,0,.31.13A2.51,2.51,0,0,1,19.26,20.25Z"/><path class="cls-44" d="M21.43,21.52a1.16,1.16,0,0,1-.47-.29c-.13-.13-.22-.31-.35-.44a.2.2,0,0,1-.06-.09.32.32,0,0,0,0-.09c0-.06-.08-.12-.09-.18a.83.83,0,0,0,0-.15.35.35,0,0,0,0-.13.25.25,0,0,0,0-.07.09.09,0,0,0-.07,0l-.07,0a.08.08,0,0,0,0,.05,3.76,3.76,0,0,1-.2.46.53.53,0,0,1-.11.15.17.17,0,0,1-.17,0v0a.12.12,0,0,0,.15-.05,1.9,1.9,0,0,0,.29-.57.08.08,0,0,1,0,0h0a.19.19,0,0,1,.11-.05l.07,0a.13.13,0,0,1,.06.07,3.92,3.92,0,0,0,.25.58l.05.05h0a.94.94,0,0,0,.12.22,2.2,2.2,0,0,0,.35.33A2.65,2.65,0,0,1,21.43,21.52Z"/><path class="cls-41" d="M20.32,20.16s0,.05,0,.07a.49.49,0,0,1,0,.12,1.72,1.72,0,0,0,.11.5,1.15,1.15,0,0,0,.42.55.85.85,0,0,0,.67.15,2.6,2.6,0,0,1-.36-.21,2.13,2.13,0,0,1-.31-.29,2.78,2.78,0,0,1-.26-.34,2.4,2.4,0,0,1-.11-.23l-.09-.26a.08.08,0,0,0,0,0l0,0S20.32,20.15,20.32,20.16Z"/><path class="cls-40" d="M20.36,20.27a1.75,1.75,0,0,0,.38.93,1.37,1.37,0,0,0,.17.17.35.35,0,0,0,.22.06A2.4,2.4,0,0,1,20.36,20.27Z"/><path class="cls-44" d="M22.37,21.38h0l0,0,0,0-.1-.05-.2-.12a1.29,1.29,0,0,1-.17-.16,3.22,3.22,0,0,1-.25-.39,1.28,1.28,0,0,1-.11-.27.79.79,0,0,0,0-.13.13.13,0,0,0,0-.08s0,0-.05-.05a.13.13,0,0,0-.13,0,.26.26,0,0,0-.05.12,1.59,1.59,0,0,1-.18.4.35.35,0,0,1-.11.13.2.2,0,0,1-.17,0,.07.07,0,0,1,0-.05h0a.13.13,0,0,0,.17,0,1.2,1.2,0,0,0,.27-.54.27.27,0,0,1,.06-.1h0l.07,0a.19.19,0,0,1,.14.07.17.17,0,0,1,0,.05,1.32,1.32,0,0,0,.09.3,2.12,2.12,0,0,0,.11.21c0,.07.1.14.14.21a.82.82,0,0,0,.17.2h0a2.12,2.12,0,0,0,.2.12l.05,0,.05,0a.18.18,0,0,1,.08.07Z"/><path class="cls-44" d="M23.14,21.22l-.06,0,0,0-.1-.09L22.88,21a.18.18,0,0,1-.05-.07c0-.06-.09-.13-.14-.2l-.07-.12a1.77,1.77,0,0,1-.16-.34l0-.1s0-.07-.08-.08a.08.08,0,0,0-.1,0,.09.09,0,0,0,0,.06l-.08.21a2.11,2.11,0,0,1-.18.33.29.29,0,0,1-.11.11.14.14,0,0,1-.15,0,.13.13,0,0,1,0-.1l0,0a.16.16,0,0,0,.08.06h0a.18.18,0,0,0,.09-.06,1.7,1.7,0,0,0,.28-.56.17.17,0,0,1,.07-.12l.05,0a.18.18,0,0,1,.15.12h0A2.36,2.36,0,0,0,23.14,21.22Z"/><path class="cls-42" d="M24.61,22.71l0-.07,0,0,0-.07,0,0,0-.07,0,0,0-.07v0l0-.07,0,0,0-.07,0,0,0-.07,0,0,0-.07v0l0-.07,0,0,0-.06,0,0,0-.07,0,0,0-.06,0,0,0-.07,0,0,0-.06v0l0-.06,0,0,0-.05h0v0l0,0h0l0,0v0l0,0v0l0,0h0l0,0v0l0,0v0l0,0v0h0l0,0h0l0,0-.79-1.38h0v0l-2.39-4.12L17.87,19.3h0l-.8,1.38,0,0h0l0,0h0v0l0,0v0l0,0v0l0,0h0l0,0v0l0,0v0l0,0h0l0,0v0l0,0h0l0,.06,0,0,0,.07v0l0,.06,0,0,0,.06,0,0,0,.06,0,0,0,.07v0l0,.07,0,0,0,.06,0,0,0,.07,0,0,0,.06v0l0,.07,0,0,0,.06,0,0,0,.06,0,0,0,.07,0,0,0,.07,0,0,0,.06-.05.09h8.8Zm-8.58,0,0,0v0l0-.06,0,0,0-.06,0,0,0-.07,0,0,0-.06,0,0,0-.07,0,0,0-.06,0,0,0-.07,0,0,0-.07v0l0-.07,0,0,0-.07,0,0,0-.07,0,0,0-.07,0,0,0-.07v0l0-.07,0,0,0-.05v0h0v0l0,0h0l0,0v0l0,0v0l0,0h0l0,0v0l0,0v0l0,0v0h0l0,0h0l0,0,.62-1.06h0l2.44-4.23,2.45,4.23h0l.61,1.06,0,0h0l0,0h0v0l0,0v0l0,0v0l0,0h0l0,0v0l0,0v0l0,0h0l0,0v0l0,0h0l0,.05,0,0,0,.06v0l0,.07,0,0,0,.06,0,0,0,.06v0l0,.07,0,0,0,.06v0l0,.07,0,0,0,.06v0l0,.07,0,0,0,.07,0,0,0,.07v0l0,.07,0,0,0,.07,0,0,0,.07,0,0,0,.05Z"/></g></g></svg>