<svg viewBox="0 0 40.5 40.5" xmlns="http://www.w3.org/2000/svg"><path d="m40.5 20.25a19.35 19.35 0 0 1 -.16 2.54 20.18 20.18 0 0 1 -20.09 17.71h-3.71v-.34a19.67 19.67 0 0 1 -5.08-1.67 19.24 19.24 0 0 1 -2.46-1.43 20.11 20.11 0 0 1 -8.84-14.27 20.24 20.24 0 0 1 0-5.08 20.11 20.11 0 0 1 8.84-14.27 19.24 19.24 0 0 1 2.46-1.44 19.67 19.67 0 0 1 5.08-1.66v-.34h3.71a20.18 20.18 0 0 1 20.09 17.71 19.35 19.35 0 0 1 .16 2.54z" fill="#ef2b2d"/><path d="m19 0v40.5h-2.46v-.34a19.67 19.67 0 0 1 -5.08-1.67 19.24 19.24 0 0 1 -2.46-1.43v-33.62a19.24 19.24 0 0 1 2.46-1.44 19.67 19.67 0 0 1 5.08-1.66v-.34z" fill="#fff"/><path d="m40.5 20.25a19.35 19.35 0 0 1 -.16 2.54 20.43 20.43 0 0 1 -.47 2.5h-39.24a20.43 20.43 0 0 1 -.47-2.5 20.24 20.24 0 0 1 0-5.08 20.43 20.43 0 0 1 .47-2.5h39.24a20.43 20.43 0 0 1 .47 2.5 19.35 19.35 0 0 1 .16 2.54z" fill="#fff"/><g fill="#002868"><path d="m16.54.34v39.82a19.67 19.67 0 0 1 -5.08-1.67v-36.49a19.67 19.67 0 0 1 5.08-1.66z"/><path d="m40.5 20.25a19.35 19.35 0 0 1 -.16 2.54h-40.18a20.24 20.24 0 0 1 0-5.08h40.18a19.35 19.35 0 0 1 .16 2.54z"/></g></svg>