<svg xmlns="http://www.w3.org/2000/svg" viewBox="0 0 40.5 40.5"><defs><style>.cls-1{fill:#ef2b2d;}.cls-2{fill:#fff;}.cls-3{fill:#002868;}</style></defs><title>NOR</title><g id="Layer_2" data-name="Layer 2"><g id="Ñëîé_1" data-name="Ñëîé 1"><path class="cls-1" d="M40.5,20.25a19.35,19.35,0,0,1-.16,2.54A20.18,20.18,0,0,1,20.25,40.5H16.54v-.34a19.67,19.67,0,0,1-5.08-1.67A19.24,19.24,0,0,1,9,37.06,20.11,20.11,0,0,1,.16,22.79a20.24,20.24,0,0,1,0-5.08A20.11,20.11,0,0,1,9,3.44,19.24,19.24,0,0,1,11.46,2,19.67,19.67,0,0,1,16.54.34V0h3.71A20.18,20.18,0,0,1,40.34,17.71,19.35,19.35,0,0,1,40.5,20.25Z"/><path class="cls-2" d="M19,0V40.5H16.54v-.34a19.67,19.67,0,0,1-5.08-1.67A19.24,19.24,0,0,1,9,37.06V3.44A19.24,19.24,0,0,1,11.46,2,19.67,19.67,0,0,1,16.54.34V0Z"/><path class="cls-2" d="M40.5,20.25a19.35,19.35,0,0,1-.16,2.54,20.43,20.43,0,0,1-.47,2.5H.63a20.43,20.43,0,0,1-.47-2.5,20.24,20.24,0,0,1,0-5.08,20.43,20.43,0,0,1,.47-2.5H39.87a20.43,20.43,0,0,1,.47,2.5A19.35,19.35,0,0,1,40.5,20.25Z"/><path class="cls-3" d="M16.54.34V40.16a19.67,19.67,0,0,1-5.08-1.67V2A19.67,19.67,0,0,1,16.54.34Z"/><path class="cls-3" d="M40.5,20.25a19.35,19.35,0,0,1-.16,2.54H.16a20.24,20.24,0,0,1,0-5.08H40.34A19.35,19.35,0,0,1,40.5,20.25Z"/></g></g></svg>