<svg xmlns="http://www.w3.org/2000/svg" viewBox="0 0 40.51 40.5"><defs><style>.cls-1{fill:#fff;}.cls-2{fill:#dc143c;}.cls-3{fill:#003893;}</style></defs><g id="Ebene_2" data-name="Ebene 2"><g id="Ńëîé_1" data-name="Ńëîé 1"><path class="cls-1" d="M40.51,20.24A20.26,20.26,0,0,1,5.93,34.57c-.19-.18-.36-.37-.53-.55s-.39-.43-.58-.65a8.75,8.75,0,0,1-.55-.69,20.23,20.23,0,0,1,0-24.86,8.75,8.75,0,0,1,.55-.69c.17-.21.36-.41.54-.61A20.24,20.24,0,0,1,10.2,2.68a4.17,4.17,0,0,1,.54-.31,5,5,0,0,1,.56-.29A20.27,20.27,0,0,1,40.51,20.24Z"/><path class="cls-2" d="M14.09,16.09,32,34H5.4c-.2-.21-.39-.43-.58-.65V7.13c.17-.21.36-.41.54-.61A20.24,20.24,0,0,1,10.2,2.68a4.17,4.17,0,0,1,.54-.31L32.62,16.09Z"/><path class="cls-3" d="M15.42,16.63h19.1l-3.23-2L11.3,2.08a5,5,0,0,0-.56.29,4.17,4.17,0,0,0-.54.31L30.71,15.53H12.78L30.71,33.48H5.36v-27c-.18.2-.37.4-.54.61a8.75,8.75,0,0,0-.55.69V32.68a8.75,8.75,0,0,0,.55.69c.19.22.38.44.58.65s.34.37.53.55H33.35L31.49,32.7Z"/><path class="cls-1" d="M16.74,9.57a5.4,5.4,0,0,1-2.26,2.7L14,11.93l.83-.63-1-.26.53-.91-1.06.13.15-1-.91.52-.26-1-.63.82-.62-.82-.27,1-.9-.52.15,1L9,10.13l.52.91-1,.26.82.63-.44.34a5.45,5.45,0,0,1-2.26-2.7h0a5,5,0,0,0,10.1,0Z"/><polygon class="cls-1" points="11.69 19.15 12.59 21.2 14.38 19.87 14.15 22.09 16.36 21.84 15.05 23.63 17.27 24.52 15.05 25.41 16.38 27.21 14.15 26.96 14.39 29.18 12.59 27.85 11.69 29.9 10.79 27.85 9 29.18 9.23 26.96 7.01 27.21 8.33 25.41 6.11 24.52 8.33 23.63 7.03 21.84 9.23 22.09 9.01 19.87 10.79 21.2 11.69 19.15"/></g></g></svg>