<svg viewBox="0 0 40.51 40.5" xmlns="http://www.w3.org/2000/svg"><path d="m40.51 20.24a20.26 20.26 0 0 1 -34.58 14.33c-.19-.18-.36-.37-.53-.55s-.39-.43-.58-.65a8.75 8.75 0 0 1 -.55-.69 20.23 20.23 0 0 1 0-24.86 8.75 8.75 0 0 1 .55-.69c.17-.21.36-.41.54-.61a20.24 20.24 0 0 1 4.84-3.84 4.17 4.17 0 0 1 .54-.31 5 5 0 0 1 .56-.29 20.27 20.27 0 0 1 29.21 18.16z" fill="#fff"/><path d="m14.09 16.09 17.91 17.91h-26.6c-.2-.21-.39-.43-.58-.65v-26.22c.17-.21.36-.41.54-.61a20.24 20.24 0 0 1 4.84-3.84 4.17 4.17 0 0 1 .54-.31l21.88 13.72z" fill="#dc143c"/><path d="m15.42 16.63h19.1l-3.23-2-19.99-12.55a5 5 0 0 0 -.56.29 4.17 4.17 0 0 0 -.54.31l20.51 12.85h-17.93l17.93 17.95h-25.35v-27c-.18.2-.37.4-.54.61a8.75 8.75 0 0 0 -.55.69v24.9a8.75 8.75 0 0 0 .55.69c.19.22.38.44.58.65s.34.37.53.55h27.42l-1.86-1.87z" fill="#003893"/><g fill="#fff"><path d="m16.74 9.57a5.4 5.4 0 0 1 -2.26 2.7l-.48-.34.83-.63-1-.26.53-.91-1.06.13.15-1-.91.52-.26-1-.63.82-.62-.82-.27 1-.9-.52.15 1-1.01-.13.52.91-1 .26.82.63-.44.34a5.45 5.45 0 0 1 -2.26-2.7 5 5 0 0 0 10.1 0z"/><path d="m11.69 19.15.9 2.05 1.79-1.33-.23 2.22 2.21-.25-1.31 1.79 2.22.89-2.22.89 1.33 1.8-2.23-.25.24 2.22-1.8-1.33-.9 2.05-.9-2.05-1.79 1.33.23-2.22-2.22.25 1.32-1.8-2.22-.89 2.22-.89-1.3-1.79 2.2.25-.22-2.22 1.78 1.33z"/></g></svg>