<svg xmlns="http://www.w3.org/2000/svg" viewBox="0 0 40.5 40.5"><defs><style>.cls-1{fill:#002b7f;}.cls-2{fill:#ffc61e;}.cls-3{fill:#fff;}</style></defs><g id="Ebene_2" data-name="Ebene 2"><g id="Ńëîé_1" data-name="Ńëîé 1"><path class="cls-1" d="M40.5,20.25c0,.57,0,1.12-.08,1.66a20.24,20.24,0,0,1-40.34,0C0,21.37,0,20.82,0,20.25s0-1.15.08-1.7a20.24,20.24,0,0,1,40.34,0C40.47,19.1,40.5,19.67,40.5,20.25Z"/><path class="cls-2" d="M40.5,20.25c0,.57,0,1.12-.08,1.66H.08C0,21.37,0,20.82,0,20.25s0-1.15.08-1.7H40.42C40.47,19.1,40.5,19.67,40.5,20.25Z"/><polygon class="cls-3" points="11.08 22.01 11.95 25.48 14.43 22.91 13.45 26.34 16.89 25.36 14.32 27.85 17.78 28.72 14.32 29.58 16.89 32.07 13.45 31.09 14.43 34.52 11.95 31.95 11.08 35.42 10.21 31.95 7.73 34.52 8.71 31.09 5.27 32.07 7.84 29.58 4.37 28.72 7.84 27.85 5.27 25.36 8.71 26.34 7.73 22.91 10.21 25.48 11.08 22.01"/></g></g></svg>