<svg xmlns="http://www.w3.org/2000/svg" viewBox="0 0 40.5 40.5"><defs><style>.cls-1{fill:#012169;}.cls-2{fill:#fff;}.cls-3{fill:#cf142b;}</style></defs><g id="Ebene_2" data-name="Ebene 2"><g id="Ńëîé_1" data-name="Ńëîé 1"><path class="cls-1" d="M40.5,20.25a20.25,20.25,0,0,1-40.5,0c0-.12,0-.23,0-.35a2,2,0,0,1,0-.43,7,7,0,0,1,.05-.92c0-.47.08-.93.15-1.39.05-.28.09-.57.15-.84s.11-.51.17-.77a20.94,20.94,0,0,1,.72-2.37c.09-.26.2-.52.31-.77a1.09,1.09,0,0,0,0-.14l.17-.35a8.08,8.08,0,0,1,.35-.73,10,10,0,0,1,.55-1A20.24,20.24,0,0,1,40.5,20.25Z"/><path class="cls-2" d="M20.25,12.41v3.91H.38c0-.25.11-.51.17-.77a20.94,20.94,0,0,1,.72-2.37c.09-.26.2-.52.31-.77Z"/><rect class="cls-2" x="6.53" y="8.49" width="3.92" height="11.73"/><path class="cls-3" d="M20.25,13.18v2.37H9.68v4.67H7.3V15.55H.55a20.94,20.94,0,0,1,.72-2.37h6V8.49H9.68v4.69Z"/><polygon class="cls-2" points="10.45 12.09 17.62 8.49 20.25 8.49 20.25 9.81 15.08 12.4 10.45 12.4 10.45 12.09"/><polygon class="cls-3" points="10.66 12.4 18.5 8.49 20.25 8.49 12.44 12.4 10.66 12.4"/><polygon class="cls-2" points="10.45 16.64 17.62 20.23 20.25 20.23 20.25 18.91 15.08 16.32 10.45 16.32 10.45 16.64"/><path class="cls-2" d="M6.53,16.32v.31L0,19.9a2,2,0,0,1,0-.43,7,7,0,0,1,.05-.92c0-.47.08-.93.15-1.39l1.67-.84Z"/><path class="cls-3" d="M6.33,16.32,0,19.47a7,7,0,0,1,.05-.92l4.47-2.23Z"/><path class="cls-2" d="M6.53,12.08v.33H1.9l-.27-.14.17-.35a8.08,8.08,0,0,1,.35-.73,10,10,0,0,1,.55-1Z"/><path class="cls-3" d="M4.58,12.41H2.78l-1-.49a8.08,8.08,0,0,1,.35-.73Z"/><polygon class="cls-3" points="20.25 20.23 12.41 16.32 14.2 16.32 20.25 19.34 20.25 20.23"/><polygon class="cls-3" points="26.02 18.85 25.12 18.18 26.23 18.18 26.57 17.09 26.92 18.18 28.03 18.18 27.13 18.85 27.48 19.93 26.57 19.26 25.67 19.93 26.02 18.85"/><path class="cls-2" d="M28.32,18.08H27l-.23-.73-.18-.58-.19.58-.23.73H24.83l.47.35.61.46-.23.73-.19.58.48-.37.61-.44.6.44.48.37-.19-.58-.23-.73.61-.46Zm-1.74,1.06-.73.53.29-.86-.72-.53h.88l.28-.86.27.86h.88l-.72.53.29.86Z"/><polygon class="cls-3" points="31.39 27.5 30.4 26.76 31.62 26.76 32.01 25.56 32.39 26.76 33.62 26.76 32.62 27.5 33 28.71 32.01 27.96 31.01 28.71 31.39 27.5"/><path class="cls-2" d="M33.91,26.66H32.45l-.25-.83-.19-.6-.19.6-.27.83H30.1l.48.35.7.53-.27.85-.19.58.49-.36.7-.53.69.53.48.36L33,28.39l-.27-.85.7-.53ZM32,27.84l-.81.6.31-1-.81-.61h1l.31-1,.31,1h1l-.81.61.31,1Z"/><polygon class="cls-3" points="31.45 13.38 30.55 12.72 31.66 12.72 32.01 11.63 32.35 12.72 33.46 12.72 32.56 13.38 32.91 14.47 32.01 13.8 31.11 14.47 31.45 13.38"/><path class="cls-2" d="M33.75,12.62H32.43l-.23-.73L32,11.3l-.19.59-.23.73H30.25l.48.35.6.45-.23.73-.18.58.48-.37.61-.44.59.44.49.37-.18-.58-.23-.73.6-.45ZM32,13.68l-.72.54.27-.87-.71-.54h.89L32,12l.27.86h.89l-.72.54.27.87Z"/><polygon class="cls-3" points="36.66 17.74 35.9 18.31 36.19 17.38 35.43 16.81 36.37 16.81 36.66 15.88 36.96 16.81 37.9 16.81 37.14 17.38 37.43 18.31 36.66 17.74"/><path class="cls-2" d="M38.19,16.71H37l-.18-.56-.18-.58-.19.58-.18.56H35.13l.47.35.47.36L35.9,18l-.19.56.48-.35.48-.35.46.35.48.37L37.44,18l-.19-.58.47-.36Zm-1.52.91-.58.43.21-.7-.58-.43h.72l.23-.71.21.71h.73l-.58.43.22.7Z"/></g></g></svg>