<svg viewBox="0 0 40.5 40.5" xmlns="http://www.w3.org/2000/svg"><path d="m40.5 20.25a20.25 20.25 0 0 1 -40.5 0c0-.12 0-.23 0-.35a2 2 0 0 1 0-.43 7 7 0 0 1 .05-.92c0-.47.08-.93.15-1.39.05-.28.09-.57.15-.84s.11-.51.17-.77a20.94 20.94 0 0 1 .72-2.37c.09-.26.2-.52.31-.77a1.09 1.09 0 0 0 0-.14l.17-.35a8.08 8.08 0 0 1 .35-.73 10 10 0 0 1 .55-1 20.24 20.24 0 0 1 37.88 10.06z" fill="#012169"/><path d="m20.25 12.41v3.91h-19.87c0-.25.11-.51.17-.77a20.94 20.94 0 0 1 .72-2.37c.09-.26.2-.52.31-.77z" fill="#fff"/><path d="m6.53 8.49h3.92v11.73h-3.92z" fill="#fff"/><path d="m20.25 13.18v2.37h-10.57v4.67h-2.38v-4.67h-6.75a20.94 20.94 0 0 1 .72-2.37h6v-4.69h2.41v4.69z" fill="#cf142b"/><path d="m10.45 12.09 7.17-3.6h2.63v1.32l-5.17 2.59h-4.63z" fill="#fff"/><path d="m10.66 12.4 7.84-3.91h1.75l-7.81 3.91z" fill="#cf142b"/><path d="m10.45 16.64 7.17 3.59h2.63v-1.32l-5.17-2.59h-4.63z" fill="#fff"/><path d="m6.53 16.32v.31l-6.53 3.27a2 2 0 0 1 0-.43 7 7 0 0 1 .05-.92c0-.47.08-.93.15-1.39l1.67-.84z" fill="#fff"/><path d="m6.33 16.32-6.33 3.15a7 7 0 0 1 .05-.92l4.47-2.23z" fill="#cf142b"/><path d="m6.53 12.08v.33h-4.63l-.27-.14.17-.35a8.08 8.08 0 0 1 .35-.73 10 10 0 0 1 .55-1z" fill="#fff"/><g fill="#cf142b"><path d="m4.58 12.41h-1.8l-1-.49a8.08 8.08 0 0 1 .35-.73z"/><path d="m20.25 20.23-7.84-3.91h1.79l6.05 3.02z"/><path d="m26.02 18.85-.9-.67h1.11l.34-1.09.35 1.09h1.11l-.9.67.35 1.08-.91-.67-.9.67z"/></g><path d="m28.32 18.08h-1.32l-.23-.73-.18-.58-.19.58-.23.73h-1.34l.47.35.61.46-.23.73-.19.58.48-.37.61-.44.6.44.48.37-.19-.58-.23-.73.61-.46zm-1.74 1.06-.73.53.29-.86-.72-.53h.88l.28-.86.27.86h.88l-.72.53.29.86z" fill="#fff"/><path d="m31.39 27.5-.99-.74h1.22l.39-1.2.38 1.2h1.23l-1 .74.38 1.21-.99-.75-1 .75z" fill="#cf142b"/><path d="m33.91 26.66h-1.46l-.25-.83-.19-.6-.19.6-.27.83h-1.45l.48.35.7.53-.27.85-.19.58.49-.36.7-.53.69.53.48.36-.18-.58-.27-.85.7-.53zm-1.91 1.18-.81.6.31-1-.81-.61h1l.31-1 .31 1h1l-.81.61.31 1z" fill="#fff"/><path d="m31.45 13.38-.9-.66h1.11l.35-1.09.34 1.09h1.11l-.9.66.35 1.09-.9-.67-.9.67z" fill="#cf142b"/><path d="m33.75 12.62h-1.32l-.23-.73-.2-.59-.19.59-.23.73h-1.33l.48.35.6.45-.23.73-.18.58.48-.37.61-.44.59.44.49.37-.18-.58-.23-.73.6-.45zm-1.75 1.06-.72.54.27-.87-.71-.54h.89l.27-.81.27.86h.89l-.72.54.27.87z" fill="#fff"/><path d="m36.66 17.74-.76.57.29-.93-.76-.57h.94l.29-.93.3.93h.94l-.76.57.29.93z" fill="#cf142b"/><path d="m38.19 16.71h-1.19l-.18-.56-.18-.58-.19.58-.18.56h-1.14l.47.35.47.36-.17.58-.19.56.48-.35.48-.35.46.35.48.37-.17-.58-.19-.58.47-.36zm-1.52.91-.58.43.21-.7-.58-.43h.72l.23-.71.21.71h.73l-.58.43.22.7z" fill="#fff"/></svg>