<svg xmlns="http://www.w3.org/2000/svg" viewBox="0 0 40.5 40.5"><defs><style>.cls-1{fill:#fff;}.cls-2{fill:#db161b;}.cls-3{fill:green;}</style></defs><g id="Ebene_2" data-name="Ebene 2"><g id="Ńëîé_1" data-name="Ńëîé 1"><path class="cls-1" d="M39.34,13.5H1.16A20.25,20.25,0,0,1,20.21,0h0A20.24,20.24,0,0,1,39.34,13.5Z"/><path class="cls-2" d="M40.5,20.25A20.19,20.19,0,0,1,39.34,27H1.16a20.22,20.22,0,0,1,0-13.5H39.34A20.19,20.19,0,0,1,40.5,20.25Z"/><path class="cls-3" d="M39.34,27A20.24,20.24,0,0,1,20.25,40.5h0A20.25,20.25,0,0,1,1.16,27Z"/><path class="cls-2" d="M20.21,0V40.5A20.25,20.25,0,0,1,1.16,27a20.22,20.22,0,0,1,0-13.5A20.25,20.25,0,0,1,20.21,0Z"/><path class="cls-1" d="M13.5,4.52a.4.4,0,0,1-.15.31l0,0-.08.05,0,0h0a.92.92,0,0,1-.38.08.93.93,0,0,1-.39-.08h0l0,0-.08-.05,0,0a.44.44,0,0,1-.15-.31.42.42,0,0,1,.15-.3l0,0,.08,0,0,0a.93.93,0,0,1,.39-.08.92.92,0,0,1,.38.08l0,0,.08,0,0,0A.38.38,0,0,1,13.5,4.52Z"/><path class="cls-1" d="M13,4.55a.16.16,0,1,1-.16-.16A.16.16,0,0,1,13,4.55Z"/><path class="cls-2" d="M12.83,4.73A.18.18,0,1,1,13,4.55.18.18,0,0,1,12.83,4.73Zm0-.32a.14.14,0,1,0,0,.28.14.14,0,0,0,0-.28Z"/><circle class="cls-1" cx="12.83" cy="4.06" r="0.16"/><path class="cls-2" d="M12.83,4.24A.18.18,0,1,1,13,4.06.18.18,0,0,1,12.83,4.24Zm0-.33a.15.15,0,0,0-.15.15.15.15,0,0,0,.15.14A.14.14,0,0,0,13,4.06.15.15,0,0,0,12.83,3.91Z"/><path class="cls-1" d="M13.67,4.55a.16.16,0,0,1-.16.16.16.16,0,0,1,0-.32A.16.16,0,0,1,13.67,4.55Z"/><path class="cls-2" d="M13.51,4.73a.18.18,0,0,1,0-.36.18.18,0,1,1,0,.36Zm0-.32a.14.14,0,0,0,0,.28.14.14,0,1,0,0-.28Z"/><path class="cls-1" d="M12,4.55a.16.16,0,1,0,.16-.16A.16.16,0,0,0,12,4.55Z"/><path class="cls-2" d="M12.14,4.73a.18.18,0,1,1,.18-.18A.18.18,0,0,1,12.14,4.73Zm0-.32a.14.14,0,1,0,.14.14A.14.14,0,0,0,12.14,4.41Z"/><path class="cls-2" d="M13.35,4.83l0,0a.45.45,0,0,1-.16-.35.48.48,0,0,1,.16-.3l0,0a.46.46,0,0,0-.15.28A.42.42,0,0,0,13.35,4.83Z"/><path class="cls-2" d="M13.24,4.9l0,0h0a.57.57,0,0,1,0-.79l0,0A.53.53,0,0,0,13.24,4.9Z"/><path class="cls-2" d="M12.49,4.5a.42.42,0,0,1-.16.35l0,0a.47.47,0,0,0,.16-.33.46.46,0,0,0-.16-.28l0,0A.44.44,0,0,1,12.49,4.5Z"/><path class="cls-2" d="M12.44,4.92h0l0,0a.52.52,0,0,0,0-.75l0,0A.56.56,0,0,1,12.44,4.92Z"/><rect class="cls-1" x="12.54" y="5" width="0.58" height="0.21"/><path class="cls-2" d="M13.13,5.23h-.61V5h.61Zm-.58,0h.55V5h-.55Z"/><rect class="cls-1" x="12.59" y="5.21" width="0.46" height="0.4"/><path class="cls-2" d="M13.08,5.62h-.5V5.19h.5Zm-.47,0H13V5.23h-.43Z"/><rect class="cls-1" x="12.51" y="5.6" width="0.64" height="0.32"/><path class="cls-2" d="M13.16,5.94h-.67V5.59h.67Zm-.63,0h.6V5.62h-.6Z"/><rect class="cls-1" x="12.51" y="5.92" width="0.64" height="0.29"/><path class="cls-2" d="M13.16,6.23h-.67V5.9h.67Zm-.63,0h.6V5.94h-.6Z"/><rect class="cls-1" x="12.47" y="6.21" width="0.71" height="0.29"/><path class="cls-2" d="M13.2,6.52h-.74V6.19h.74Zm-.71,0h.67V6.23h-.67Z"/><path class="cls-1" d="M13.18,6.5h-.7a.47.47,0,0,1-.48.33V8.27h1.65V6.83A.46.46,0,0,1,13.18,6.5Z"/><path class="cls-2" d="M13.65,6.81a.44.44,0,0,1-.45-.31v0h-.73v0a.45.45,0,0,1-.46.31h0V8.29h1.69V6.81ZM12,6.84a.48.48,0,0,0,.47-.32h.68a.47.47,0,0,0,.47.32V8.25H12Z"/><path class="cls-2" d="M12.83,7.1a.23.23,0,1,1,0-.46.23.23,0,1,1,0,.46Zm0-.43a.2.2,0,1,0,0,.4.2.2,0,0,0,0-.4Z"/><path class="cls-2" d="M13.31,7.1a.18.18,0,0,1-.18-.17.18.18,0,0,1,.36,0A.18.18,0,0,1,13.31,7.1Zm0-.31a.14.14,0,0,0-.14.14.14.14,0,1,0,.28,0A.14.14,0,0,0,13.31,6.79Z"/><path class="cls-2" d="M12.34,7.1a.18.18,0,0,1-.17-.17.18.18,0,0,1,.17-.18.18.18,0,0,1,.18.18A.18.18,0,0,1,12.34,7.1Zm0-.31a.14.14,0,0,0-.14.14.15.15,0,0,0,.14.14.14.14,0,0,0,.14-.14A.14.14,0,0,0,12.34,6.79Z"/><rect class="cls-2" x="12.53" y="6.53" width="0.04" height="0.28" transform="translate(-1 10.97) rotate(-45.6)"/><polygon class="cls-2" points="13.2 6.56 13 6.74 13.02 6.77 13.22 6.59 13.2 6.56"/><rect class="cls-2" x="12" y="7.07" width="1.65" height="0.04"/><path class="cls-2" d="M13.65,7.22a6.51,6.51,0,0,1-1.64,0v0a5.08,5.08,0,0,0,.78,0c.25,0,.54,0,.88,0Z"/><path class="cls-2" d="M13.65,7.47a6.51,6.51,0,0,1-1.64,0v0a5.08,5.08,0,0,0,.78,0,7.4,7.4,0,0,0,.88,0Z"/><path class="cls-2" d="M12.78,7.81a5.08,5.08,0,0,1-.78,0v0a6.51,6.51,0,0,0,1.64,0v0C13.32,7.79,13,7.81,12.78,7.81Z"/><path class="cls-2" d="M12.78,8.05A5.08,5.08,0,0,1,12,8V8a5.52,5.52,0,0,0,1.64,0V8A7.4,7.4,0,0,1,12.78,8.05Z"/><path class="cls-2" d="M13,7.49c-.06,0-.11,0-.11-.07s.05-.08.11-.08.11,0,.11.08S13,7.49,13,7.49Zm0-.11s-.07,0-.07,0,0,0,.07,0,.08,0,.08,0S13,7.38,13,7.38Z"/><polygon class="cls-1" points="13.65 8.11 13.87 7.78 14.34 7.72 14.51 8.12 13.65 9.23 13.65 8.11"/><path class="cls-2" d="M13.64,9.28V8.1l.22-.34.49-.06.18.43Zm0-1.17V9.17l.82-1.05-.16-.38-.45,0Z"/><path class="cls-1" d="M14.57,8.11C16.35,5,16.38,4.58,16.43,4.19a.06.06,0,0,0-.09-.07c-.67.4-2.54,3.62-2.54,3.62Z"/><path class="cls-2" d="M14.58,8.13l-.8-.38v0c.07-.13,1.88-3.22,2.54-3.62a.06.06,0,0,1,.08,0,.09.09,0,0,1,0,.08h0c-.05.39-.1.84-1.86,3.92Zm-.75-.4.73.35c1.75-3,1.81-3.49,1.85-3.88v0s0,0,0,0h0C15.72,4.52,14,7.48,13.83,7.73Z"/><path class="cls-1" d="M13.86,7.77a22.59,22.59,0,0,1,2.43-3.52,0,0,0,0,1,.06,0c-.06.38-.25,1-1.84,3.79Z"/><path class="cls-2" d="M14.52,8.09l-.68-.31v0a23.26,23.26,0,0,1,2.43-3.53.06.06,0,0,1,.06,0,.05.05,0,0,1,0,0c-.06.38-.25,1-1.84,3.8Zm-.63-.33.61.29c1.58-2.77,1.78-3.4,1.83-3.77a0,0,0,0,0,0,0h0A23.3,23.3,0,0,0,13.89,7.76Z"/><path class="cls-2" d="M14.47,8,14,7.76l.39-.69.51.22ZM14,7.75l.43.2.36-.65-.43-.18Z"/><polygon class="cls-2" points="14.95 7.3 14.32 7.02 14.33 6.99 14.97 7.26 14.95 7.3"/><polygon class="cls-2" points="16.18 4.86 15.87 4.71 15.89 4.68 16.2 4.83 16.18 4.86"/><path class="cls-2" d="M16.27,4.54a.1.1,0,0,1-.1.11.11.11,0,1,1,0-.22A.1.1,0,0,1,16.27,4.54Z"/><path class="cls-2" d="M14.44,7.89l-.35-.17.3-.55.37.16Zm-.3-.18.29.13.28-.49-.3-.13Z"/><rect class="cls-2" x="14.4" y="7.19" width="0.04" height="0.67" transform="translate(-0.38 0.78) rotate(-3.04)"/><polygon class="cls-1" points="12 8.11 11.78 7.78 11.31 7.72 11.14 8.12 12 9.23 12 8.11"/><path class="cls-2" d="M12,9.28l-.9-1.15.18-.43.49.06L12,8.1Zm-.86-1.16L12,9.17V8.11l-.21-.32-.45,0Z"/><path class="cls-1" d="M11.08,8.11C9.3,5,9.27,4.58,9.22,4.19c0-.06,0-.09.09-.07.67.4,2.54,3.62,2.54,3.62Z"/><path class="cls-2" d="M11.08,8.13h0C9.31,5,9.25,4.59,9.21,4.2h0a.09.09,0,0,1,0-.08.06.06,0,0,1,.08,0c.67.4,2.47,3.49,2.55,3.62v0Zm-1.8-4h0a0,0,0,0,0,0,0v0c0,.39.1.83,1.85,3.88l.74-.35c-.15-.25-1.89-3.21-2.53-3.59Z"/><path class="cls-1" d="M11.79,7.77A22.59,22.59,0,0,0,9.36,4.25a0,0,0,0,0,0,0c0,.38.24,1,1.83,3.79Z"/><path class="cls-2" d="M11.14,8.09h0C9.54,5.3,9.34,4.66,9.29,4.28c0,0,0,0,0,0a.06.06,0,0,1,.06,0,23.41,23.41,0,0,1,2.44,3.53v0ZM9.34,4.26h0a0,0,0,0,0,0,0c.06.37.25,1,1.83,3.77l.62-.29a22.7,22.7,0,0,0-2.42-3.5Z"/><path class="cls-2" d="M11.19,8l-.4-.71.5-.22.4.69Zm-.35-.7L11.2,8l.44-.2-.37-.63Z"/><rect class="cls-2" x="10.67" y="7.12" width="0.69" height="0.04" transform="translate(-1.93 4.98) rotate(-23.49)"/><polygon class="cls-2" points="9.47 4.86 9.46 4.83 9.77 4.68 9.78 4.71 9.47 4.86"/><path class="cls-2" d="M9.38,4.54a.11.11,0,1,0,.11-.11A.11.11,0,0,0,9.38,4.54Z"/><path class="cls-2" d="M11.21,7.89l-.32-.56.37-.16.3.55Zm-.27-.54.28.49.29-.13-.26-.49Z"/><rect class="cls-2" x="10.9" y="7.51" width="0.67" height="0.04" transform="translate(3.12 18.35) rotate(-86.95)"/><polygon class="cls-2" points="11.53 7.73 10.91 7.36 10.93 7.33 11.55 7.7 11.53 7.73"/><path class="cls-2" d="M13.29,7.48c-.07,0-.12,0-.12-.08s.05-.07.12-.07.11,0,.11.07S13.35,7.48,13.29,7.48Zm0-.11s-.08,0-.08,0,0,0,.08,0,.07,0,.07,0S13.33,7.37,13.29,7.37Z"/><path class="cls-2" d="M13.66,7.31H13.6c-.06,0-.11,0-.11.07s0,.07.11.07h.07V7.31Zm0,.09H13.6s-.07,0-.07,0,0,0,.07,0h.05Z"/><path class="cls-2" d="M12.68,7.49c-.06,0-.11,0-.11-.07s0-.08.11-.08.11,0,.11.08S12.75,7.49,12.68,7.49Zm0-.11s-.07,0-.07,0,0,0,.07,0,.08,0,.08,0S12.73,7.38,12.68,7.38Z"/><path class="cls-2" d="M12.37,7.48c-.06,0-.11,0-.11-.08s.05-.07.11-.07.11,0,.11.07S12.43,7.48,12.37,7.48Zm0-.11s-.08,0-.08,0,0,0,.08,0,.07,0,.07,0S12.41,7.37,12.37,7.37Z"/><path class="cls-2" d="M12.05,7.3H12v.12h.07c.07,0,.12,0,.12-.07S12.12,7.3,12.05,7.3Zm0,.11H12V7.35h.05s.08,0,.08,0S12.1,7.41,12.05,7.41Z"/><path class="cls-1" d="M11.08,10.92s-1.25,1.18-1.9,1.69l.79.25L12.1,11l-.83-.2Z"/><path class="cls-2" d="M10,12.88l-.82-.27,0,0c.64-.49,1.89-1.67,1.9-1.68h0l.19-.17.87.21Zm-.75-.28.75.24L12.06,11l-.79-.19-.18.16S9.87,12.09,9.22,12.6Z"/><path class="cls-1" d="M10.12,12.73s-1.36,1.28-2.23,1c-.06,0-.1-.07.1-.24a13.76,13.76,0,0,0,1.16-1Z"/><path class="cls-2" d="M8.12,13.83a.85.85,0,0,1-.23,0s-.06,0-.06-.06,0-.12.15-.21l.09-.08a11,11,0,0,0,1.07-1h0l1,.25,0,0A4,4,0,0,1,8.12,13.83Zm1-1.32c-.28.3-.76.7-1.07,1L8,13.55c-.13.12-.14.16-.14.18s0,0,0,0c.78.21,2-.85,2.18-1Z"/><path class="cls-1" d="M8.12,13.74a.64.64,0,0,1-.2,0A.59.59,0,0,1,8,13.59l.08-.07a13.57,13.57,0,0,0,1.06-.95l.79.19A3.64,3.64,0,0,1,8.12,13.74Z"/><path class="cls-2" d="M8.12,13.75a.65.65,0,0,1-.2,0h0l0,0A.46.46,0,0,1,8,13.58l.09-.07a13.51,13.51,0,0,0,1.06-1h0l.84.21,0,0A3.61,3.61,0,0,1,8.12,13.75ZM8,13.7l.17,0a3.64,3.64,0,0,0,1.81-1l-.75-.18a13.43,13.43,0,0,1-1,.95l-.08.07Z"/><path class="cls-2" d="M9.47,12.75a.13.13,0,0,0-.1,0,.12.12,0,0,1-.07,0h0l0,0h0s0,.06,0,.06H9.3a.16.16,0,0,0,.09,0,.15.15,0,0,1,.08,0,.15.15,0,0,1,.15.13s-.06.05-.09.05H9.47c-.1,0-.12,0-.12.06h0c0,.07,0,.11-.08.11s0,0-.06-.11,0-.12-.07-.12h0a.05.05,0,0,0,0,0s0,0,0,0H9s0,0,0,0H9s-.15.18-.15.19v0a.38.38,0,0,1,0,.14v0l-.11-.06a.37.37,0,0,0-.14-.07.16.16,0,0,0-.15.16,0,0,0,0,0,0,0v0s0,.08,0,.09H8.29v0H8.4a.11.11,0,0,0,.07,0,.17.17,0,0,0,0-.12v-.07a.12.12,0,0,1,.11-.12.27.27,0,0,1,.12.06.36.36,0,0,0,.13.06s0,0,0-.05a.34.34,0,0,0-.06-.16h0A.91.91,0,0,1,9,13v0s0,0,0,0a.07.07,0,0,0,.07,0l0,0h0s0,0,0,.08,0,.14.09.14.1,0,.11-.14h0s0,0,.09,0h.06s.12,0,.12-.08A.18.18,0,0,0,9.47,12.75Z"/><path class="cls-2" d="M9.85,12.62h0v-.07a.13.13,0,0,0,0-.06v-.06l0,0s0,0,0,0,0,0,0,0h0a.24.24,0,0,0,.2.07c.13,0,.17,0,.17-.1a.65.65,0,0,0-.08-.17l0,0s0-.05.07-.05a.15.15,0,0,1,.09,0,.07.07,0,0,0,.06,0,.18.18,0,0,0,.17-.16V12a0,0,0,0,1,0,0s0,0,0,0a.1.1,0,0,0,.1.07h0l0,0-.06,0a.14.14,0,0,1-.11-.05v0a.22.22,0,0,1-.21.2.09.09,0,0,1-.08,0,.08.08,0,0,0-.07,0h0l0,0a.48.48,0,0,1,.08.19c0,.13-.09.14-.2.14a.39.39,0,0,1-.2,0v.15Z"/><path class="cls-2" d="M10.67,11.93a.19.19,0,0,1-.07-.14v0a.25.25,0,0,1,.24-.22l.15,0h0s.09,0,.09,0a.06.06,0,0,0,0-.05.2.2,0,0,1,0-.1,1.5,1.5,0,0,1,.31-.24h.12v0h-.12a1.24,1.24,0,0,0-.27.21.14.14,0,0,0,0,.07.09.09,0,0,1,0,.07c0,.06-.09.08-.14.08h0l-.14,0a.23.23,0,0,0-.21.19v0c0,.05,0,.07.06.11Z"/><path class="cls-1" d="M14.56,10.92s1.25,1.18,1.9,1.69l-.79.25-2.55-2.3.3-.66Z"/><path class="cls-2" d="M15.67,12.88h0L13.1,10.57l.32-.7,1.15,1s1.26,1.19,1.9,1.68l0,0Zm-2.53-2.32,2.54,2.28.74-.24c-.64-.51-1.85-1.65-1.87-1.67l-1.12-1Z"/><path class="cls-1" d="M15.52,12.73s1.37,1.28,2.23,1c.06,0,.1-.07-.1-.24a13.76,13.76,0,0,1-1.16-1Z"/><path class="cls-2" d="M17.52,13.83a4,4,0,0,1-2-1.09l0,0,1-.25h0a11.11,11.11,0,0,0,1.08,1l.08.08c.12.09.17.16.16.21a.09.09,0,0,1-.07.06A.85.85,0,0,1,17.52,13.83Zm-2-1.09c.19.17,1.4,1.23,2.18,1,0,0,0,0,0,0s0-.06-.14-.18l-.09-.07c-.31-.27-.79-.67-1.07-1Z"/><path class="cls-1" d="M17.52,13.74a.64.64,0,0,0,.2,0l-.11-.12-.09-.07c-.31-.26-.77-.65-1.06-.95l-.79.19A3.68,3.68,0,0,0,17.52,13.74Z"/><path class="cls-2" d="M17.52,13.75a3.65,3.65,0,0,1-1.86-1l0,0,.84-.21h0a11.82,11.82,0,0,0,1.05,1l.09.07a1.25,1.25,0,0,1,.12.12v0h0A.71.71,0,0,1,17.52,13.75Zm-1.81-1a3.64,3.64,0,0,0,1.81,1l.17,0-.09-.09-.09-.07a13.43,13.43,0,0,1-1.05-.95Z"/><path class="cls-2" d="M17.25,13.55a.1.1,0,0,1-.07,0s0-.06,0-.12v-.07a.12.12,0,0,0-.11-.12.27.27,0,0,0-.12.06.3.3,0,0,1-.13.06s0,0,0-.05a.5.5,0,0,1,.05-.16h0L16.69,13v0s0,0-.05,0a.08.08,0,0,1-.07,0s0,0,0,0h0s0,0,0,.08,0,.14-.09.14-.1,0-.11-.14h0s0,0-.08,0h-.07S16,13,16,12.91a.19.19,0,0,1,.19-.16.12.12,0,0,1,.09,0l.07,0h.05s0,0,0,0h0s0,.06-.05.06h-.05a.19.19,0,0,1-.09,0,.15.15,0,0,0-.07,0,.15.15,0,0,0-.15.13s0,.05.08.05h.07c.09,0,.11,0,.11.06h0c0,.07,0,.11.08.11s.05,0,.06-.11,0-.12.07-.12h0s.05,0,.06,0a0,0,0,0,0,0,0h0s0,0,0,0h0s.15.18.15.19v0a.38.38,0,0,0,0,.14v0l.11-.06a.37.37,0,0,1,.14-.07.16.16,0,0,1,.15.16v.07s0,.08,0,.09h.16v0h-.11Z"/><path class="cls-2" d="M15.83,12.62h0s0,0,0-.06v-.09a.37.37,0,0,1-.2,0c-.1,0-.2,0-.2-.14a.4.4,0,0,1,.09-.19v0h0a.06.06,0,0,0-.06,0,.11.11,0,0,1-.09,0,.21.21,0,0,1-.2-.2v0a.11.11,0,0,1-.1.05l-.07,0,0,0h0a.12.12,0,0,0,.1-.07l0,0s0,0,0,0V12a.18.18,0,0,0,.17.16.07.07,0,0,0,.06,0,.15.15,0,0,1,.09,0s.07,0,.07.05v0a.44.44,0,0,0-.08.17c0,.08,0,.1.16.1s.18,0,.2-.07h0s0,0,0,0,0,0,0,0a.08.08,0,0,1,0,0,.35.35,0,0,0,0,.06s0,0,0,.06Z"/><path class="cls-2" d="M15,11.93l0,0s.06-.06.06-.11v0a.23.23,0,0,0-.2-.19l-.14,0h0s-.13,0-.13-.08a.1.1,0,0,1,0-.07l0-.07a1.57,1.57,0,0,0-.28-.21h-.12v0h.12a1.5,1.5,0,0,1,.31.24.2.2,0,0,1,0,.1.06.06,0,0,0,0,.05s.06,0,.1,0h0l.15,0a.26.26,0,0,1,.24.22v0A.22.22,0,0,1,15,11.93Z"/><path class="cls-2" d="M13,8.25c-.06,0-.11,0-.11-.07s.05-.07.11-.07.11,0,.11.07S13,8.25,13,8.25Zm0-.11s-.07,0-.07,0,0,0,.07,0,.08,0,.08,0S13,8.14,13,8.14Z"/><path class="cls-2" d="M13.29,8.24c-.07,0-.12,0-.12-.08s.05-.07.12-.07.11,0,.11.07S13.35,8.24,13.29,8.24Zm0-.11s-.08,0-.08,0,0,0,.08,0,.07,0,.07,0S13.33,8.13,13.29,8.13Z"/><path class="cls-2" d="M13.66,8.07H13.6c-.06,0-.11,0-.11.07s0,.08.11.08h.07V8.08Zm0,.09H13.6s-.07,0-.07,0,0,0,.07,0h.05Z"/><path class="cls-2" d="M12.68,8.25c-.06,0-.11,0-.11-.07s0-.07.11-.07.11,0,.11.07S12.75,8.25,12.68,8.25Zm0-.11s-.07,0-.07,0,0,0,.07,0,.08,0,.08,0S12.73,8.14,12.68,8.14Z"/><path class="cls-2" d="M12.37,8.24c-.06,0-.11,0-.11-.08s.05-.07.11-.07.11,0,.11.07S12.43,8.24,12.37,8.24Zm0-.11s-.08,0-.08,0,0,0,.08,0,.07,0,.07,0S12.41,8.13,12.37,8.13Z"/><path class="cls-2" d="M12.05,8.06H12v.11h.07c.07,0,.12,0,.12-.08S12.12,8.06,12.05,8.06Zm0,.11H12V8.11h.05s.08,0,.08,0S12.1,8.17,12.05,8.17Z"/><path class="cls-1" d="M13.65,8.27V9.92a.9.9,0,0,1-.06.22.69.69,0,0,1-.07.15,1.41,1.41,0,0,1-.63.56,1.69,1.69,0,0,1-.27.1l-.22,0-.19,0h-.67l-.15,0-.16,0-.15,0-.15,0-.15,0-.15,0-.15,0-.15,0-.14,0-.69-.15-.32-.09c-.53-.16-.87-.34-.87-.52s.36-.26.87-.33l.34,0c.58-.06,1.29-.08,1.89-.1h.36l.06,0h0a.15.15,0,0,0,.07-.1h0c0-.05,0-.12,0-.19L12,9c0-.2,0-.45,0-.72Z"/><path class="cls-2" d="M12.06,11h-.67l-.16,0-.15,0-.15,0-.16,0-.15,0-.14,0h-.15l-.15,0-.68-.15-.33-.09c-.58-.18-.88-.36-.88-.54s.29-.27.89-.35l.34,0c.6-.06,1.32-.08,1.89-.09h.36l.05,0h0a.15.15,0,0,0,.06-.09h0c0-.05,0-.12,0-.2s0-.12,0-.2a5.79,5.79,0,0,0,0-.72v0h1.69V9.92a.86.86,0,0,1-.06.23,1,1,0,0,1-.07.15,1.53,1.53,0,0,1-.64.57,2.29,2.29,0,0,1-.28.09l-.22,0-.19,0Zm-.21-1.52h0l-.06,0h-.37c-.56,0-1.29,0-1.89.1l-.34,0c-.7.09-.85.22-.85.31s.3.33.85.5l.32.09c.21.05.44.11.69.15l.14,0,.09,0h.06l.15,0,.15,0,.15,0,.15,0,.16,0,.15,0,.16,0h0l.14,0h.5l.2,0,.21,0a1.69,1.69,0,0,0,.27-.1,1.46,1.46,0,0,0,.63-.55l.07-.14a1.55,1.55,0,0,0,.05-.23s0-.07,0-.1V8.29H12A5.74,5.74,0,0,1,12,9l0,.2c0,.08,0,.14,0,.2h0A.18.18,0,0,1,11.85,9.51Z"/><path class="cls-1" d="M9.5,10.62l-.32-.09a2.57,2.57,0,0,1,0-.85l.34,0A3.43,3.43,0,0,0,9.5,10.62Z"/><path class="cls-2" d="M9.52,10.64h0l-.33-.09h0a2.87,2.87,0,0,1,0-.85v0h0l.35,0h0v0a3.38,3.38,0,0,0,0,1Zm-.33-.13.29.08a3.49,3.49,0,0,1,0-.93l-.31,0A3,3,0,0,0,9.19,10.51Z"/><rect class="cls-2" x="8.82" y="9.68" width="0.04" height="0.9" transform="translate(-4.6 9.8) rotate(-47.52)"/><rect class="cls-2" x="8.39" y="9.97" width="0.85" height="0.04" transform="translate(-4.16 6.99) rotate(-35.56)"/><path class="cls-1" d="M11.81,10.88s0,.08,0,.13h-.27v0a1,1,0,0,1,0-.15s0-.1,0-.16,0-.1,0-.16v-.35c0-.06,0-.12,0-.18s0-.13,0-.19a1.23,1.23,0,0,0,0-.19v0h.21l.06,0a1.48,1.48,0,0,0,0,.16c0,.05,0,.12,0,.19a1.15,1.15,0,0,1,0,.18v.52c0,.06,0,.11,0,.17S11.81,10.83,11.81,10.88Z"/><path class="cls-2" d="M11.85,11h-.31a.78.78,0,0,1,0-.16c0-.05,0-.1,0-.16s0-.11,0-.16v-.35c0-.06,0-.12,0-.18s0-.13,0-.19a1.23,1.23,0,0,1,0-.2V9.52h.23l.05,0,0,0v0s0,.05,0,.15a1.34,1.34,0,0,1,0,.19c0,.06,0,.12,0,.18v.52a1,1,0,0,0,0,.17s0,.1,0,.16h0s0,.08,0,.12ZM11.57,11l.13,0h.11a.41.41,0,0,1,0-.11c0-.05,0-.11,0-.16a1,1,0,0,0,0-.17v-.34a1.09,1.09,0,0,1,0-.18,1,1,0,0,1,0-.18,1,1,0,0,1,0-.19c0-.05,0-.1,0-.12h-.24v0c0,.06,0,.12,0,.19s0,.12,0,.19a1.09,1.09,0,0,0,0,.18v.35a.92.92,0,0,0,0,.16s0,.11,0,.16a1,1,0,0,1,0,.15Z"/><rect class="cls-2" x="9.46" y="9.71" width="0.52" height="0.04" transform="translate(-3.5 5.94) rotate(-29.03)"/><polygon class="cls-2" points="9.48 10.03 9.48 10.03 9.48 10.02 9.47 10 10.25 9.57 10.26 9.6 9.48 10.03"/><rect class="cls-2" x="9.4" y="9.84" width="1.19" height="0.04" transform="translate(-3.53 6.09) rotate(-29.03)"/><polygon class="cls-2" points="8.94 10.47 8.94 10.47 8.94 10.43 8.94 10.47"/><rect class="cls-2" x="9.38" y="9.91" width="1.52" height="0.04" transform="translate(-3.54 6.16) rotate(-28.99)"/><rect class="cls-2" x="9.36" y="9.98" width="1.83" height="0.04" transform="translate(-3.56 6.25) rotate(-29.07)"/><rect class="cls-2" x="9.36" y="10.04" width="2.1" height="0.04" transform="translate(-3.57 6.31) rotate(-29.01)"/><rect class="cls-2" x="9.44" y="10.07" width="2.26" height="0.04" transform="translate(-3.57 6.41) rotate(-29.09)"/><polygon class="cls-2" points="10.1 10.77 10.08 10.74 11.51 9.94 11.53 9.97 10.1 10.77"/><rect class="cls-2" x="10.2" y="10.43" width="1.4" height="0.04" transform="translate(-3.7 6.58) rotate(-28.93)"/><rect class="cls-2" x="10.37" y="10.5" width="1.22" height="0.04" transform="translate(-3.74 6.68) rotate(-29.15)"/><rect class="cls-2" x="10.6" y="10.6" width="0.97" height="0.04" transform="translate(-3.76 6.71) rotate(-29.01)"/><rect class="cls-2" x="10.8" y="10.68" width="0.75" height="0.04" transform="translate(-3.79 6.78) rotate(-29.05)"/><polygon class="cls-2" points="11.02 10.93 11.02 10.93 11.02 10.91 11.01 10.89 11.51 10.62 11.53 10.65 11.02 10.93"/><rect class="cls-2" x="11.18" y="10.82" width="0.38" height="0.04" transform="translate(-3.84 6.91) rotate(-29.15)"/><polygon class="cls-2" points="11.38 10.97 11.37 10.94 11.53 10.85 11.55 10.88 11.38 10.97"/><rect class="cls-2" x="9.8" y="10.25" width="1.84" height="0.04" transform="translate(-3.64 6.49) rotate(-29.03)"/><rect class="cls-2" x="9.6" y="10.17" width="2.07" height="0.04" transform="translate(-3.54 6.21) rotate(-28.09)"/><polygon class="cls-2" points="11.83 9.56 11.83 9.56 11.83 9.53 11.83 9.56"/><polygon class="cls-2" points="9.52 9.74 9.5 9.71 9.69 9.61 9.7 9.61 9.7 9.62 9.71 9.64 9.71 9.64 9.52 9.74"/><rect class="cls-2" x="11.9" y="10.76" width="0.04" height="0.3" transform="translate(-4.22 11.62) rotate(-45.02)"/><rect class="cls-2" x="11.97" y="10.54" width="0.04" height="0.56" transform="translate(-4.13 11.65) rotate(-45)"/><polygon class="cls-2" points="12.34 11.01 11.78 10.45 11.8 10.43 12.36 10.98 12.34 11.01"/><rect class="cls-2" x="12.13" y="10.12" width="0.04" height="1" transform="translate(-3.95 11.7) rotate(-45)"/><rect class="cls-2" x="12.2" y="9.92" width="0.04" height="1.2" transform="translate(-3.86 11.72) rotate(-45)"/><polygon class="cls-2" points="12.76 10.91 11.79 9.94 11.81 9.91 12.78 10.88 12.76 10.91"/><rect class="cls-2" x="12.33" y="9.54" width="0.04" height="1.53" transform="translate(-3.67 11.75) rotate(-45)"/><rect class="cls-2" x="12.4" y="9.35" width="0.04" height="1.68" transform="translate(-3.57 11.76) rotate(-45)"/><rect class="cls-2" x="12.47" y="9.21" width="0.04" height="1.77" transform="translate(-3.48 11.79) rotate(-45)"/><rect class="cls-2" x="12.54" y="9.07" width="0.04" height="1.84" transform="translate(-3.39 11.81) rotate(-45)"/><rect class="cls-2" x="12.6" y="8.91" width="0.04" height="1.94" transform="translate(-3.29 11.82) rotate(-45)"/><rect class="cls-2" x="12.65" y="8.74" width="0.04" height="2.03" transform="translate(-3.19 11.82) rotate(-45)"/><rect class="cls-2" x="12.7" y="8.57" width="0.04" height="2.11" transform="translate(-3.08 11.81) rotate(-45)"/><rect class="cls-2" x="12.74" y="8.4" width="0.04" height="2.19" transform="translate(-2.98 11.8) rotate(-45)"/><rect class="cls-2" x="12.78" y="8.23" width="0.04" height="2.25" transform="translate(-2.87 11.79) rotate(-45)"/><rect class="cls-2" x="12.8" y="8.05" width="0.04" height="2.3" transform="translate(-2.75 11.76) rotate(-45)"/><polygon class="cls-2" points="13.64 9.88 12.04 8.28 12.07 8.26 13.66 9.85 13.64 9.88"/><rect class="cls-2" x="12.92" y="7.98" width="0.04" height="2.01" transform="translate(-2.56 11.78) rotate(-45)"/><rect class="cls-2" x="13.01" y="8.01" width="0.04" height="1.77" transform="translate(-2.47 11.82) rotate(-45)"/><rect class="cls-2" x="13.1" y="8.05" width="0.04" height="1.52" transform="translate(-2.39 11.85) rotate(-45)"/><rect class="cls-2" x="13.19" y="8.08" width="0.04" height="1.28" transform="translate(-2.3 11.89) rotate(-45)"/><rect class="cls-2" x="13.27" y="8.12" width="0.04" height="1.03" transform="translate(-2.21 11.93) rotate(-45)"/><rect class="cls-2" x="13.36" y="8.16" width="0.04" height="0.78" transform="translate(-2.13 11.96) rotate(-44.99)"/><rect class="cls-2" x="13.45" y="8.19" width="0.04" height="0.54" transform="translate(-2.04 12) rotate(-44.99)"/><rect class="cls-2" x="13.53" y="8.23" width="0.04" height="0.29" transform="translate(-1.95 12.03) rotate(-44.99)"/><rect class="cls-2" x="12.74" y="10.48" width="1" height="0.04" transform="translate(-3.55 12.4) rotate(-44.89)"/><rect class="cls-2" x="12.4" y="10.41" width="1.46" height="0.04" transform="translate(-3.53 12.34) rotate(-45)"/><polygon class="cls-2" points="12.41 11 12.39 10.98 13.64 9.72 13.67 9.75 12.41 11"/><polygon class="cls-2" points="12.22 11.02 12.19 11 13.64 9.55 13.67 9.57 12.22 11.02"/><rect class="cls-2" x="11.69" y="10.18" width="2.3" height="0.04" transform="translate(-3.45 12.07) rotate(-45)"/><polygon class="cls-2" points="11.87 11.02 11.85 11 13.64 9.2 13.67 9.23 11.87 11.02"/><rect class="cls-2" x="11.43" y="9.94" width="2.6" height="0.04" transform="translate(-3.31 11.95) rotate(-45.11)"/><polygon class="cls-2" points="11.81 10.73 11.79 10.71 13.64 8.85 13.67 8.88 11.81 10.73"/><rect class="cls-2" x="11.54" y="10.95" width="0.02" height="0.04" transform="translate(-4.37 11.38) rotate(-45)"/><polygon class="cls-2" points="11.8 10.57 11.78 10.54 13.64 8.68 13.67 8.71 11.8 10.57"/><rect class="cls-2" x="11.4" y="9.44" width="2.63" height="0.04" transform="translate(-2.96 11.76) rotate(-44.98)"/><rect class="cls-2" x="11.4" y="9.26" width="2.64" height="0.04" transform="translate(-2.83 11.72) rotate(-45.02)"/><polygon class="cls-2" points="11.81 10.04 11.78 10.02 13.54 8.26 13.57 8.28 11.81 10.04"/><polygon class="cls-2" points="11.82 9.86 11.79 9.84 13.37 8.26 13.39 8.28 11.82 9.86"/><polygon class="cls-2" points="11.83 9.67 11.8 9.65 13.19 8.26 13.22 8.28 11.83 9.67"/><rect class="cls-2" x="11.66" y="8.82" width="1.6" height="0.04" transform="translate(-2.6 11.4) rotate(-45)"/><polygon class="cls-2" points="11.95 9.21 11.92 9.18 12.85 8.26 12.87 8.28 11.95 9.21"/><rect class="cls-2" x="11.81" y="8.61" width="1.02" height="0.04" transform="translate(-2.5 11.24) rotate(-45)"/><rect class="cls-2" x="11.87" y="8.52" width="0.76" height="0.04" transform="translate(-2.45 11.17) rotate(-45.02)"/><rect class="cls-2" x="11.92" y="8.43" width="0.51" height="0.04" transform="translate(-2.41 11.08) rotate(-45)"/><rect class="cls-2" x="11.96" y="8.34" width="0.26" height="0.04" transform="translate(-2.37 11) rotate(-45)"/><path class="cls-1" d="M13.59,8.12a.37.37,0,0,0-.31.4.32.32,0,1,0,.62,0A.37.37,0,0,0,13.59,8.12Zm0,.65c-.1,0-.18-.11-.18-.25s.08-.25.18-.25.18.11.18.25S13.69,8.77,13.59,8.77Z"/><path class="cls-2" d="M13.59,8.93a.37.37,0,0,1-.32-.41.37.37,0,0,1,.32-.41.42.42,0,0,1,0,.82Zm0-.79a.39.39,0,1,0,.29.38A.34.34,0,0,0,13.59,8.14Zm0,.64c-.11,0-.2-.11-.2-.26s.09-.27.2-.27.2.12.2.27S13.7,8.78,13.59,8.78Zm0-.49c-.09,0-.16.1-.16.23s.07.23.16.23.16-.1.16-.23S13.68,8.29,13.59,8.29Z"/><rect class="cls-1" x="13.07" y="8.36" width="0.42" height="0.36"/><path class="cls-2" d="M13.51,8.74h-.45v-.4h.45Zm-.42,0h.38V8.38h-.38Z"/><rect class="cls-1" x="11.93" y="8.39" width="1.14" height="0.3"/><path class="cls-2" d="M13.09,8.71H11.92V8.37h1.17ZM12,8.67h1.11V8.41H12Z"/><path class="cls-1" d="M12.13,8.08c-.16,0-.28.19-.28.42s.12.42.28.42.28-.18.28-.42S12.28,8.08,12.13,8.08Zm0,.75c-.12,0-.22-.15-.22-.33s.1-.32.22-.32.19.14.19.32S12.25,8.83,12.13,8.83Z"/><path class="cls-2" d="M12.13,8.94c-.17,0-.3-.19-.3-.44s.13-.43.3-.43.29.19.29.43S12.29,8.94,12.13,8.94Zm0-.84c-.15,0-.26.18-.26.4s.11.41.26.41.26-.18.26-.41S12.27,8.1,12.13,8.1Zm0,.75c-.13,0-.24-.16-.24-.35s.11-.34.24-.34.2.14.2.34S12.25,8.85,12.13,8.85Zm0-.65c-.11,0-.2.13-.2.3s.09.31.2.31.17-.12.17-.31S12.23,8.2,12.13,8.2Z"/><path class="cls-1" d="M11,8.05a.54.54,0,0,0-.59.47A.54.54,0,0,0,11,9a.54.54,0,0,0,.59-.48A.54.54,0,0,0,11,8.05Zm0,.85a.38.38,0,1,1,.36-.38A.37.37,0,0,1,11,8.9Z"/><path class="cls-2" d="M11,9a.56.56,0,0,1-.6-.5.62.62,0,0,1,1.21,0A.57.57,0,0,1,11,9Zm0-.95a.52.52,0,0,0-.57.45.59.59,0,0,0,1.15,0A.53.53,0,0,0,11,8.07Zm0,.85a.39.39,0,0,1-.37-.4.38.38,0,1,1,.75,0A.39.39,0,0,1,11,8.92Zm0-.76a.36.36,0,0,0,0,.72.36.36,0,0,0,0-.72Z"/><path class="cls-1" d="M11.67,8.18a.35.35,0,0,0,0,.68c.15,0,.26-.15.26-.34S11.82,8.18,11.67,8.18Zm0,.55c-.09,0-.16-.09-.16-.21s.07-.21.16-.21.16.09.16.21S11.76,8.73,11.67,8.73Z"/><path class="cls-2" d="M11.67,8.88a.37.37,0,0,1,0-.72.37.37,0,0,1,0,.72Zm0-.68a.33.33,0,1,0,.25.32A.29.29,0,0,0,11.67,8.2Zm0,.55a.24.24,0,0,1,0-.46c.1,0,.17.1.17.23S11.77,8.75,11.67,8.75Zm0-.43c-.08,0-.14.09-.14.2s.06.19.14.19.14-.08.14-.19S11.75,8.32,11.67,8.32Z"/><rect class="cls-1" x="8.04" y="7.98" width="2.16" height="1.2"/><rect class="cls-1" x="8.11" y="8.05" width="2.02" height="1.07"/><path class="cls-2" d="M10.13,9.13h-2s0,0,0,0V8.05a0,0,0,0,1,0,0h2s0,0,0,0V9.12S10.14,9.13,10.13,9.13Zm0-1.06h-2v1h2Z"/><rect class="cls-1" x="11.22" y="8.36" width="0.42" height="0.36"/><path class="cls-2" d="M11.65,8.74H11.2v-.4h.45Zm-.41,0h.38V8.38h-.38Z"/><path class="cls-1" d="M9.16,8.59a.09.09,0,1,1-.09-.09A.09.09,0,0,1,9.16,8.59Z"/><path class="cls-2" d="M9.07,8.7a.11.11,0,0,1,0-.22.11.11,0,0,1,0,.22Zm0-.18a.07.07,0,0,0,0,.14.07.07,0,1,0,0-.14Z"/><path class="cls-2" d="M9.15,8.87H9V8.8l-.08,0,0,.05h0l-.08-.08v0h0l0,0H8.69s0,0,0,0V8.53s0,0,0,0h.13l-.07-.07h0v0l.1-.08h0L9,8.4H9v0l0,0h.12l0,0V8.4l.05,0,.06-.05h0l.08.07v0h0l-.06,0h.1l0,0v.1l0,0H9.35l.05.05s0,0,0,0l-.07.08h0l-.05-.06-.08,0v.07Zm-.09,0h.08V8.75a.15.15,0,0,0,.09,0h0l.05,0,0,0,0-.05h0s0,0,0,0v0s0,0,0,0h.08V8.56H9.33a0,0,0,0,1,0,0v0s0,0,0,0h0l0-.05,0,0-.05,0h0s0,0,0,0a.11.11,0,0,0-.07,0l0,0h0v0H9.05v0h0l0,0L9,8.44h0l-.08-.06-.07.06.06.06h0a0,0,0,0,1,0,0l0,0s0,0,0,0H8.71v.07h.11s0,0,0,0l0,0v0h0l0,0,0,0,.05,0h0a.19.19,0,0,0,.1,0l0,0h0Z"/><rect class="cls-1" x="9.97" y="8.29" width="0.79" height="0.5"/><path class="cls-2" d="M10.78,8.81H10V8.27h.83Zm-.79,0h.75V8.31H10Z"/><polygon class="cls-2" points="8.2 9.1 8.18 9.07 8.31 8.94 8.34 8.96 8.2 9.1"/><rect class="cls-2" x="8.29" y="9" width="0.19" height="0.04" transform="translate(-3.92 8.57) rotate(-44.98)"/><rect class="cls-2" x="8.42" y="9" width="0.19" height="0.04" transform="translate(-3.88 8.66) rotate(-45.02)"/><rect class="cls-2" x="8.54" y="9" width="0.19" height="0.04" transform="translate(-3.85 8.77) rotate(-45.11)"/><rect class="cls-2" x="8.67" y="9" width="0.19" height="0.04" transform="translate(-3.81 8.84) rotate(-45)"/><polygon class="cls-2" points="8.84 9.1 8.81 9.07 8.95 8.94 8.97 8.96 8.84 9.1"/><rect class="cls-2" x="8.92" y="9" width="0.19" height="0.04" transform="translate(-3.74 9.04) rotate(-45.11)"/><rect class="cls-2" x="9.05" y="9" width="0.19" height="0.04" transform="translate(-3.7 9.1) rotate(-44.98)"/><polygon class="cls-2" points="9.22 9.1 9.19 9.07 9.32 8.94 9.35 8.96 9.22 9.1"/><rect class="cls-2" x="9.3" y="9" width="0.19" height="0.04" transform="translate(-3.62 9.29) rotate(-45)"/><polygon class="cls-2" points="9.47 9.1 9.45 9.07 9.58 8.94 9.6 8.96 9.47 9.1"/><rect class="cls-2" x="9.56" y="9" width="0.19" height="0.04" transform="translate(-3.55 9.49) rotate(-45.11)"/><rect class="cls-2" x="9.69" y="9" width="0.19" height="0.04" transform="translate(-3.51 9.56) rotate(-45)"/><polygon class="cls-2" points="9.85 9.1 9.83 9.07 9.96 8.94 9.98 8.96 9.85 9.1"/><rect class="cls-2" x="9.93" y="8.92" width="0.04" height="0.19" transform="translate(-3.46 9.68) rotate(-45.02)"/><rect class="cls-2" x="9.81" y="8.92" width="0.04" height="0.19" transform="translate(-3.5 9.59) rotate(-45)"/><rect class="cls-2" x="9.68" y="8.92" width="0.04" height="0.19" transform="translate(-3.54 9.5) rotate(-45)"/><polygon class="cls-2" points="9.62 9.1 9.49 8.96 9.52 8.94 9.65 9.07 9.62 9.1"/><rect class="cls-2" x="9.42" y="8.92" width="0.04" height="0.19" transform="translate(-3.61 9.32) rotate(-45)"/><rect class="cls-2" x="9.3" y="8.92" width="0.04" height="0.19" transform="translate(-3.65 9.23) rotate(-45)"/><rect class="cls-2" x="9.17" y="8.92" width="0.04" height="0.19" transform="translate(-3.69 9.14) rotate(-45)"/><polygon class="cls-2" points="9.11 9.1 8.98 8.96 9 8.94 9.14 9.07 9.11 9.1"/><rect class="cls-2" x="8.91" y="8.92" width="0.04" height="0.19" transform="translate(-3.76 8.96) rotate(-45)"/><rect class="cls-2" x="8.78" y="8.92" width="0.04" height="0.19" transform="translate(-3.8 8.87) rotate(-45)"/><polygon class="cls-2" points="8.73 9.1 8.6 8.96 8.62 8.94 8.75 9.07 8.73 9.1"/><rect class="cls-2" x="8.53" y="8.92" width="0.04" height="0.19" transform="translate(-3.87 8.69) rotate(-45.02)"/><rect class="cls-2" x="8.4" y="8.92" width="0.04" height="0.19" transform="translate(-3.91 8.6) rotate(-45.02)"/><rect class="cls-2" x="8.27" y="8.92" width="0.04" height="0.19" transform="translate(-3.95 8.5) rotate(-45)"/><rect class="cls-2" x="8.24" y="8.07" width="0.04" height="0.19" transform="translate(-3.36 8.23) rotate(-45)"/><polygon class="cls-2" points="8.44 8.24 8.3 8.11 8.33 8.09 8.46 8.22 8.44 8.24"/><rect class="cls-2" x="8.49" y="8.07" width="0.04" height="0.19" transform="translate(-3.28 8.41) rotate(-45)"/><rect class="cls-2" x="8.62" y="8.07" width="0.04" height="0.19" transform="translate(-3.24 8.5) rotate(-45.02)"/><polygon class="cls-2" points="8.82 8.24 8.69 8.11 8.71 8.09 8.84 8.22 8.82 8.24"/><rect class="cls-2" x="8.87" y="8.07" width="0.04" height="0.19" transform="translate(-3.17 8.68) rotate(-45)"/><rect class="cls-2" x="9" y="8.07" width="0.04" height="0.19" transform="translate(-3.13 8.77) rotate(-45.02)"/><polygon class="cls-2" points="9.2 8.24 9.07 8.11 9.09 8.09 9.22 8.22 9.2 8.24"/><rect class="cls-2" x="9.25" y="8.07" width="0.04" height="0.19" transform="translate(-3.06 8.95) rotate(-45)"/><polygon class="cls-2" points="9.45 8.24 9.32 8.11 9.35 8.09 9.48 8.22 9.45 8.24"/><rect class="cls-2" x="9.51" y="8.07" width="0.04" height="0.19" transform="translate(-2.98 9.13) rotate(-45)"/><rect class="cls-2" x="9.63" y="8.07" width="0.04" height="0.19" transform="translate(-2.95 9.22) rotate(-45.02)"/><polygon class="cls-2" points="9.83 8.24 9.7 8.11 9.72 8.09 9.86 8.22 9.83 8.24"/><rect class="cls-2" x="9.89" y="8.07" width="0.04" height="0.19" transform="translate(-2.87 9.4) rotate(-45)"/><rect class="cls-2" x="9.86" y="8.15" width="0.19" height="0.04" transform="translate(-2.86 9.43) rotate(-45)"/><polygon class="cls-2" points="9.77 8.24 9.74 8.22 9.88 8.09 9.9 8.11 9.77 8.24"/><rect class="cls-2" x="9.6" y="8.15" width="0.19" height="0.04" transform="translate(-2.94 9.22) rotate(-44.89)"/><rect class="cls-2" x="9.48" y="8.15" width="0.19" height="0.04" transform="translate(-2.97 9.16) rotate(-45)"/><polygon class="cls-2" points="9.39 8.24 9.36 8.22 9.49 8.09 9.52 8.11 9.39 8.24"/><polygon class="cls-2" points="9.26 8.24 9.23 8.22 9.37 8.09 9.39 8.11 9.26 8.24"/><rect class="cls-2" x="9.09" y="8.15" width="0.19" height="0.04" transform="translate(-3.08 8.86) rotate(-44.89)"/><rect class="cls-2" x="8.96" y="8.15" width="0.19" height="0.04" transform="translate(-3.12 8.8) rotate(-45)"/><polygon class="cls-2" points="8.88 8.24 8.85 8.22 8.98 8.09 9.01 8.11 8.88 8.24"/><polygon class="cls-2" points="8.75 8.24 8.72 8.22 8.86 8.09 8.88 8.11 8.75 8.24"/><rect class="cls-2" x="8.58" y="8.15" width="0.19" height="0.04" transform="translate(-3.23 8.53) rotate(-45)"/><rect class="cls-2" x="8.45" y="8.15" width="0.19" height="0.04" transform="translate(-3.27 8.44) rotate(-45)"/><rect class="cls-2" x="8.33" y="8.15" width="0.19" height="0.04" transform="translate(-3.31 8.35) rotate(-45)"/><polygon class="cls-2" points="8.24 8.24 8.21 8.22 8.35 8.09 8.37 8.11 8.24 8.24"/><path class="cls-1" d="M14.11,8.52A.54.54,0,0,0,14.7,9a.54.54,0,0,0,.59-.48.54.54,0,0,0-.59-.47A.54.54,0,0,0,14.11,8.52Zm.23,0a.36.36,0,1,1,.36.38A.37.37,0,0,1,14.34,8.52Z"/><path class="cls-2" d="M14.7,9a.57.57,0,0,1-.61-.5.62.62,0,0,1,1.21,0A.56.56,0,0,1,14.7,9Zm0-.95a.52.52,0,0,0-.57.45A.52.52,0,0,0,14.7,9a.53.53,0,0,0,.57-.46A.52.52,0,0,0,14.7,8.07Zm0,.85a.39.39,0,0,1-.38-.4.38.38,0,1,1,.75,0A.39.39,0,0,1,14.7,8.92Zm0-.76a.36.36,0,0,0,0,.72.36.36,0,0,0,0-.72Z"/><rect class="cls-1" x="15.49" y="7.98" width="2.16" height="1.2" transform="translate(33.15 17.16) rotate(180)"/><rect class="cls-1" x="15.57" y="8.05" width="2.02" height="1.07" transform="translate(33.15 17.16) rotate(180)"/><path class="cls-2" d="M17.6,9.13H15.55V8H17.6Zm0-1.06h-2v1h2Z"/><path class="cls-1" d="M16.53,8.59a.09.09,0,1,0,.09-.09A.09.09,0,0,0,16.53,8.59Z"/><path class="cls-2" d="M16.62,8.7a.11.11,0,1,1,.11-.11A.11.11,0,0,1,16.62,8.7Zm0-.18a.07.07,0,1,0,0,.14.07.07,0,0,0,0-.14Z"/><path class="cls-2" d="M16.65,8.87h-.13V8.79l-.08,0-.05.06h0l-.07-.08s0,0,0,0l.05-.05h-.08l0,0v-.1l0,0h.1l-.06,0h0v0l.08-.07h0l.06.05.05,0V8.35a0,0,0,0,1,0,0h.12l0,0v0h.06l.09-.07h0l.1.08v0h0l-.07.07H17a0,0,0,0,1,0,0v.11a0,0,0,0,1,0,0h-.13l0,0h0v0l-.08.08h0l-.06-.05-.08,0v.06Zm-.09,0h.07V8.78h0l0,0a.19.19,0,0,0,.1,0h0l.05,0,.06,0,0,0h0v0l0,0s0,0,0,0H17V8.55h-.12a0,0,0,0,1,0,0l0,0a0,0,0,0,1,0,0h0l.06-.06-.07-.06-.08.06h0l-.08,0s0,0,0,0h0v0h-.09v.05h0v0a.13.13,0,0,0-.08,0h0l-.05,0-.05,0,.05.05h0s0,0,0,0v0l0,0h-.08v.06h.08s0,0,0,0v0s0,0,0,0h0l0,.05,0,0,.05,0h0a.18.18,0,0,0,.09,0l0,0Z"/><rect class="cls-1" x="14.93" y="8.29" width="0.79" height="0.5" transform="translate(30.66 17.08) rotate(180)"/><path class="cls-2" d="M15.74,8.81h-.83V8.27h.83Zm-.79,0h.76V8.31H15Z"/><polygon class="cls-2" points="17.49 9.1 17.36 8.96 17.38 8.94 17.51 9.07 17.49 9.1"/><rect class="cls-2" x="17.29" y="8.92" width="0.04" height="0.19" transform="translate(-1.31 14.88) rotate(-45)"/><rect class="cls-2" x="17.16" y="8.92" width="0.04" height="0.19" transform="translate(-1.34 14.8) rotate(-45.02)"/><rect class="cls-1" x="13.67" y="8.39" width="0.7" height="0.3"/><path class="cls-2" d="M14.39,8.71h-.74V8.37h.74Zm-.7,0h.66V8.41h-.66Z"/><polygon class="cls-2" points="17.11 9.1 16.98 8.96 17 8.94 17.13 9.07 17.11 9.1"/><rect class="cls-2" x="16.91" y="8.92" width="0.04" height="0.19" transform="translate(-1.42 14.61) rotate(-45)"/><rect class="cls-2" x="16.78" y="8.92" width="0.04" height="0.19" transform="translate(-1.45 14.53) rotate(-45.02)"/><polygon class="cls-2" points="16.73 9.1 16.59 8.96 16.62 8.94 16.75 9.07 16.73 9.1"/><rect class="cls-2" x="16.53" y="8.92" width="0.04" height="0.19" transform="translate(-1.53 14.34) rotate(-45)"/><polygon class="cls-2" points="16.47 9.1 16.34 8.96 16.37 8.94 16.5 9.07 16.47 9.1"/><rect class="cls-2" x="16.28" y="8.92" width="0.04" height="0.19" transform="translate(-1.6 14.16) rotate(-45)"/><rect class="cls-2" x="16.15" y="8.92" width="0.04" height="0.19" transform="translate(-1.64 14.08) rotate(-45.02)"/><polygon class="cls-2" points="16.09 9.1 15.96 8.96 15.99 8.94 16.12 9.07 16.09 9.1"/><rect class="cls-2" x="15.89" y="8.92" width="0.04" height="0.19" transform="translate(-1.72 13.89) rotate(-45)"/><rect class="cls-2" x="15.77" y="8.92" width="0.04" height="0.19" transform="translate(-1.75 13.81) rotate(-45.02)"/><rect class="cls-2" x="15.65" y="9" width="0.19" height="0.04" transform="translate(-1.77 13.77) rotate(-45)"/><rect class="cls-2" x="15.77" y="9" width="0.19" height="0.04" transform="translate(-1.73 13.87) rotate(-45.02)"/><rect class="cls-2" x="15.9" y="9" width="0.19" height="0.04" transform="translate(-1.69 13.95) rotate(-45)"/><polygon class="cls-2" points="16.07 9.1 16.04 9.07 16.18 8.94 16.2 8.96 16.07 9.1"/><rect class="cls-2" x="16.16" y="9" width="0.19" height="0.04" transform="translate(-1.62 14.14) rotate(-45.02)"/><rect class="cls-2" x="16.28" y="9" width="0.19" height="0.04" transform="translate(-1.58 14.22) rotate(-45)"/><rect class="cls-2" x="16.41" y="9" width="0.19" height="0.04" transform="translate(-1.53 14.35) rotate(-45.11)"/><polygon class="cls-2" points="16.58 9.1 16.55 9.07 16.69 8.94 16.71 8.96 16.58 9.1"/><rect class="cls-2" x="16.67" y="9" width="0.19" height="0.04" transform="translate(-1.47 14.49) rotate(-45)"/><rect class="cls-2" x="16.8" y="9" width="0.19" height="0.04" transform="translate(-1.43 14.58) rotate(-45)"/><rect class="cls-2" x="16.92" y="9" width="0.19" height="0.04" transform="translate(-1.38 14.71) rotate(-45.11)"/><polygon class="cls-2" points="17.09 9.1 17.07 9.07 17.2 8.94 17.22 8.96 17.09 9.1"/><rect class="cls-2" x="17.18" y="9" width="0.19" height="0.04" transform="translate(-1.32 14.85) rotate(-45)"/><rect class="cls-2" x="17.31" y="9" width="0.19" height="0.04" transform="translate(-1.28 14.94) rotate(-45)"/><rect class="cls-2" x="17.34" y="8.15" width="0.19" height="0.04" transform="translate(-0.67 14.72) rotate(-45)"/><rect class="cls-2" x="17.21" y="8.15" width="0.19" height="0.04" transform="translate(-0.72 14.59) rotate(-44.89)"/><rect class="cls-2" x="17.09" y="8.15" width="0.19" height="0.04" transform="translate(-0.74 14.54) rotate(-45)"/><rect class="cls-2" x="16.96" y="8.15" width="0.19" height="0.04" transform="translate(-0.78 14.45) rotate(-45)"/><polygon class="cls-2" points="16.87 8.24 16.85 8.22 16.98 8.09 17.01 8.11 16.87 8.24"/><rect class="cls-2" x="16.71" y="8.15" width="0.19" height="0.04" transform="translate(-0.85 14.28) rotate(-45.02)"/><rect class="cls-2" x="16.58" y="8.15" width="0.19" height="0.04" transform="translate(-0.89 14.18) rotate(-45)"/><polygon class="cls-2" points="16.49 8.24 16.47 8.22 16.6 8.09 16.63 8.11 16.49 8.24"/><rect class="cls-2" x="16.33" y="8.15" width="0.19" height="0.04" transform="translate(-0.96 14) rotate(-45)"/><polygon class="cls-2" points="16.24 8.24 16.21 8.22 16.35 8.09 16.37 8.11 16.24 8.24"/><rect class="cls-2" x="16.07" y="8.15" width="0.19" height="0.04" transform="translate(-1.04 13.82) rotate(-45)"/><rect class="cls-2" x="15.95" y="8.15" width="0.19" height="0.04" transform="translate(-1.07 13.74) rotate(-45.02)"/><polygon class="cls-2" points="15.86 8.24 15.83 8.22 15.97 8.09 15.99 8.11 15.86 8.24"/><rect class="cls-2" x="15.69" y="8.15" width="0.19" height="0.04" transform="translate(-1.15 13.55) rotate(-44.98)"/><rect class="cls-2" x="15.72" y="8.07" width="0.04" height="0.19" transform="translate(-1.16 13.52) rotate(-45)"/><polygon class="cls-2" points="15.92 8.24 15.79 8.11 15.81 8.09 15.95 8.22 15.92 8.24"/><polygon class="cls-2" points="16.05 8.24 15.92 8.11 15.94 8.09 16.07 8.22 16.05 8.24"/><rect class="cls-2" x="16.11" y="8.07" width="0.04" height="0.19" transform="translate(-1.05 13.79) rotate(-45)"/><rect class="cls-2" x="16.23" y="8.07" width="0.04" height="0.19" transform="translate(-1.01 13.88) rotate(-45)"/><polygon class="cls-2" points="16.43 8.24 16.3 8.11 16.32 8.09 16.46 8.22 16.43 8.24"/><rect class="cls-2" x="16.49" y="8.07" width="0.04" height="0.19" transform="translate(-0.94 14.07) rotate(-45.02)"/><rect class="cls-2" x="16.62" y="8.07" width="0.04" height="0.19" transform="translate(-0.9 14.15) rotate(-45)"/><rect class="cls-2" x="16.74" y="8.07" width="0.04" height="0.19" transform="translate(-0.86 14.24) rotate(-45)"/><polygon class="cls-2" points="16.94 8.24 16.81 8.11 16.84 8.09 16.97 8.22 16.94 8.24"/><rect class="cls-2" x="17" y="8.07" width="0.04" height="0.19" transform="translate(-0.79 14.43) rotate(-45.02)"/><rect class="cls-2" x="17.13" y="8.07" width="0.04" height="0.19" transform="translate(-0.75 14.51) rotate(-45)"/><rect class="cls-2" x="17.25" y="8.07" width="0.04" height="0.19" transform="translate(-0.71 14.6) rotate(-45)"/><polygon class="cls-2" points="17.45 8.24 17.32 8.11 17.35 8.09 17.48 8.22 17.45 8.24"/><rect class="cls-2" x="14.06" y="7.51" width="0.72" height="0.04" transform="translate(-1.81 8.55) rotate(-31.16)"/><path class="cls-2" d="M14.33,11h-.06s0,0,0,0h0s-.11-.17-.18-.17h-.19l0,0h0s0,0,0,0a0,0,0,0,0,0,0s0,0,0,0h-.06s0,0,0,0-.23-.19-.23-.31h0c0,.11.09.27.2.27l0,0,.05,0h0a.08.08,0,0,1,.06.07.08.08,0,0,1,0,0h.06l.11,0c.08,0,.22.16.22.21h.17v0h-.1Z"/></g></g></svg>