<svg xmlns="http://www.w3.org/2000/svg" viewBox="0 0 40.5 40.5"><defs><style>.cls-1{fill:#01411c;}.cls-2{fill:#fff;}</style></defs><g id="Ebene_2" data-name="Ebene 2"><g id="Ńëîé_1" data-name="Ńëîé 1"><path class="cls-1" d="M40.5,20.25A20.24,20.24,0,0,1,7.75,36.17V4.33A20.24,20.24,0,0,1,40.5,20.25Z"/><path class="cls-2" d="M7.75,4.33V36.17a20.23,20.23,0,0,1,0-31.84Z"/><path class="cls-2" d="M29.79,28.63a11.27,11.27,0,0,1-11.4-11.14,11,11,0,0,1,4.65-9A12.24,12.24,0,1,0,37.36,25.82,11.49,11.49,0,0,1,29.79,28.63Z"/><polygon class="cls-2" points="30.95 11.06 32.97 13.3 35.72 12.07 34.22 14.68 36.24 16.92 33.29 16.3 31.79 18.91 31.47 15.91 28.52 15.29 31.27 14.06 30.95 11.06"/></g></g></svg>