<svg viewBox="0 0 705 635.47" xmlns="http://www.w3.org/2000/svg" xmlns:xlink="http://www.w3.org/1999/xlink"><clipPath id="a" transform="translate(31.58 -.26)"><circle cx="318.5" cy="318.5" r="318.5"/></clipPath><linearGradient id="b" gradientUnits="userSpaceOnUse" x1="-49.4" x2="754.4" y1="549.64" y2="85.57"><stop offset="0" stop-color="#fff"/><stop offset="1" stop-color="#fff"/></linearGradient><g clip-path="url(#a)"><path d="m0 0h705v635.21h-705z" fill="url(#b)"/><path d="m0 317.61h352.5v317.87h-352.5z" fill="#005293"/><path d="m352.5 0h352.5v317.87h-352.5z" fill="#d21034"/><path d="m515.66 411.32 13.13-39.4 13.3 39.4h42.27l-34.35 24.58 12.84 39.52-34.34-24.34-34.05 24.34 12.92-39.24-34.24-24.91z" fill="#d21034"/><path d="m163.16 199.44 13.13-39.39 13.3 39.39h42.27l-34.35 24.58 12.84 39.53-34.34-24.34-34.05 24.34 12.92-39.24-34.24-24.91z" fill="#005293"/></g></svg>