<svg xmlns="http://www.w3.org/2000/svg" xmlns:xlink="http://www.w3.org/1999/xlink" viewBox="0 0 705 635.47"><defs><style>.cls-1{fill:none;}.cls-2{clip-path:url(#clip-path);}.cls-3{fill:url(#linear-gradient);}.cls-4{fill:#005293;}.cls-5{fill:#d21034;}</style><clipPath id="clip-path" transform="translate(31.58 -0.26)"><circle class="cls-1" cx="318.5" cy="318.5" r="318.5"/></clipPath><linearGradient id="linear-gradient" x1="-49.4" y1="549.64" x2="754.4" y2="85.57" gradientUnits="userSpaceOnUse"><stop offset="0" stop-color="#fff"/><stop offset="1" stop-color="#fff"/></linearGradient></defs><title>PAN</title><g id="Layer_2" data-name="Layer 2"><g id="Layer_1-2" data-name="Layer 1"><g class="cls-2"><rect class="cls-3" width="705" height="635.21"/><rect class="cls-4" y="317.61" width="352.5" height="317.87"/><rect class="cls-5" x="352.5" width="352.5" height="317.87"/><polygon class="cls-5" points="515.66 411.32 528.79 371.92 542.09 411.32 584.36 411.32 550.01 435.9 562.85 475.42 528.51 451.08 494.46 475.42 507.38 436.18 473.14 411.27 515.66 411.32"/><polygon class="cls-4" points="163.16 199.44 176.29 160.05 189.59 199.44 231.86 199.44 197.51 224.02 210.35 263.55 176.01 239.21 141.96 263.55 154.88 224.31 120.64 199.4 163.16 199.44"/></g></g></g></svg>