<svg xmlns="http://www.w3.org/2000/svg" viewBox="0 0 40.5 40.5"><defs><style>.cls-1{fill:#0038a8;}.cls-2{fill:#ce1126;}.cls-3{fill:#fff;}.cls-4{fill:#fcd116;}</style></defs><g id="Ebene_2" data-name="Ebene 2"><g id="Ńëîé_1" data-name="Ńëîé 1"><path class="cls-1" d="M40.5,20.25H0A20.3,20.3,0,0,1,20.25,0,20.25,20.25,0,0,1,40.5,20.25Z"/><path class="cls-2" d="M40.5,20.25A20.23,20.23,0,0,1,5.12,33.68,20.05,20.05,0,0,1,0,20.25Z"/><path class="cls-3" d="M28.42,20.25,5.12,33.68a20.17,20.17,0,0,1,0-26.86Z"/><path class="cls-4" d="M14,20.25a4,4,0,1,1-4-4A4,4,0,0,1,14,20.25Z"/><polygon class="cls-4" points="9.93 11.69 9.4 12.23 9.69 16.49 9.93 16.49 10.17 16.49 10.45 12.23 9.93 11.69"/><polygon class="cls-4" points="10.92 12.62 11.38 13.04 10.62 16.72 10.4 16.7 10.92 12.62"/><polygon class="cls-4" points="8.94 12.62 8.48 13.04 9.23 16.72 9.46 16.7 8.94 12.62"/><polygon class="cls-4" points="3.88 14.2 3.88 14.95 7.1 17.76 7.27 17.59 7.44 17.42 4.62 14.21 3.88 14.2"/><polygon class="cls-4" points="5.23 14.15 5.86 14.13 7.93 17.26 7.75 17.41 5.23 14.15"/><polygon class="cls-4" points="3.83 15.55 3.81 16.18 6.94 18.25 7.08 18.07 3.83 15.55"/><polygon class="cls-4" points="1.37 20.25 1.9 20.77 6.17 20.49 6.17 20.25 6.17 20.01 1.9 19.73 1.37 20.25"/><polygon class="cls-4" points="2.29 19.26 2.72 18.8 6.4 19.55 6.38 19.78 2.29 19.26"/><polygon class="cls-4" points="2.29 21.24 2.72 21.7 6.4 20.95 6.38 20.72 2.29 21.24"/><polygon class="cls-4" points="3.88 26.3 4.62 26.29 7.44 23.08 7.27 22.91 7.1 22.74 3.88 25.55 3.88 26.3"/><polygon class="cls-4" points="3.83 24.95 3.81 24.32 6.94 22.25 7.08 22.43 3.83 24.95"/><polygon class="cls-4" points="5.23 26.35 5.86 26.37 7.93 23.24 7.75 23.09 5.23 26.35"/><polygon class="cls-4" points="9.93 28.81 10.45 28.27 10.17 24.01 9.93 24.01 9.69 24.01 9.4 28.27 9.93 28.81"/><polygon class="cls-4" points="8.94 27.88 8.48 27.46 9.23 23.78 9.46 23.8 8.94 27.88"/><polygon class="cls-4" points="10.92 27.88 11.38 27.46 10.62 23.78 10.4 23.8 10.92 27.88"/><polygon class="cls-4" points="15.98 26.3 15.97 25.55 12.76 22.74 12.58 22.91 12.41 23.08 15.23 26.29 15.98 26.3"/><polygon class="cls-4" points="14.62 26.35 14 26.37 11.93 23.24 12.11 23.09 14.62 26.35"/><polygon class="cls-4" points="16.02 24.95 16.05 24.32 12.91 22.25 12.77 22.43 16.02 24.95"/><polygon class="cls-4" points="18.48 20.25 17.95 19.73 13.68 20.01 13.68 20.25 13.68 20.49 17.95 20.77 18.48 20.25"/><polygon class="cls-4" points="17.56 21.24 17.13 21.7 13.45 20.95 13.48 20.72 17.56 21.24"/><polygon class="cls-4" points="17.56 19.26 17.13 18.8 13.45 19.55 13.48 19.78 17.56 19.26"/><polygon class="cls-4" points="15.98 14.2 15.23 14.21 12.41 17.42 12.58 17.59 12.76 17.76 15.97 14.95 15.98 14.2"/><polygon class="cls-4" points="16.02 15.55 16.05 16.18 12.91 18.25 12.77 18.07 16.02 15.55"/><polygon class="cls-4" points="14.62 14.15 14 14.13 11.93 17.26 12.11 17.41 14.62 14.15"/><polygon class="cls-4" points="22.76 18.13 21.8 19.43 20.26 18.92 21.2 20.24 20.24 21.54 21.79 21.05 22.73 22.37 22.74 20.75 24.29 20.26 22.75 19.75 22.76 18.13"/></g></g></svg>