<svg xmlns="http://www.w3.org/2000/svg" viewBox="0 0 40.5 40.5"><defs><style>.cls-1{fill:#ce1126;}.cls-2{fill:#fff;}.cls-3{fill:#fcd116;}</style></defs><g id="Ebene_2" data-name="Ebene 2"><g id="Ńëîé_1" data-name="Ńëîé 1"><path class="cls-1" d="M40.5,20.25A20.25,20.25,0,1,1,20.25,0,20.16,20.16,0,0,1,40.5,20.25Z"/><path d="M36.45,32.4A20.25,20.25,0,1,1,4.05,8.1Z"/><polygon class="cls-2" points="12.3 15.52 12.87 17.25 14.6 17.25 13.22 18.32 13.72 20.05 12.3 18.98 10.89 20.05 11.39 18.32 10.01 17.25 11.74 17.25 12.3 15.52"/><polygon class="cls-2" points="12.3 31.84 12.87 33.58 14.6 33.58 13.22 34.65 13.72 36.38 12.3 35.31 10.89 36.38 11.39 34.65 10.01 33.58 11.74 33.58 12.3 31.84"/><polygon class="cls-2" points="6.87 22.44 7.43 24.18 9.16 24.18 7.78 25.25 8.29 26.98 6.87 25.91 5.45 26.98 5.96 25.25 4.57 24.18 6.3 24.18 6.87 22.44"/><polygon class="cls-2" points="17.74 21.97 18.3 23.7 20.04 23.7 18.65 24.77 19.16 26.51 17.74 25.44 16.32 26.51 16.83 24.77 15.44 23.7 17.18 23.7 17.74 21.97"/><polygon class="cls-2" points="14.73 28.05 15.03 28.91 15.87 28.91 15.18 29.44 15.44 30.29 14.73 29.76 14.03 30.29 14.28 29.44 13.59 28.91 14.44 28.91 14.73 28.05"/><path class="cls-3" d="M36.65,19.33l-.17-.24a4.34,4.34,0,0,0-1.06-3c-.09-.18.08-.1.11-.07.29.3.38.29.41.27s-.07-.48-.14-.63c-.13-.34.14-.12.18-.08.38.31.69.52.79.6s.06,0,0,0A4.86,4.86,0,0,0,36,14.08s0,0,0,0a1.2,1.2,0,0,1,.31.13.05.05,0,0,0,0,0c-1-1.83-1.5-2.1-1.64-2.14s0,0,0,0a2.12,2.12,0,0,1,.41-.08s0,0,0-.05a5.26,5.26,0,0,0-1.9-1.39.05.05,0,0,1,0-.07A2.33,2.33,0,0,1,34,10s0,0,0,0a4.07,4.07,0,0,0-4,0c-.19.11-.07-.06-.06-.08s.6-.55.79-.75.2-.29.13-.34a2,2,0,0,1-.31-.24s0-.07,0-.08a1.83,1.83,0,0,1,.35-.32c.19-.13.2-.16.2-.2s0-.19-.27-.17h-.21a.11.11,0,0,1-.06-.1,2.33,2.33,0,0,1,.38-.52C31,7.05,31,7,31,7s-.29-.1-.42-.09a.07.07,0,0,1-.07-.08,3.4,3.4,0,0,1,.16-.37c.1-.2,0-.25-.08-.24a1.25,1.25,0,0,1-.26,0,.08.08,0,0,1-.08-.09c0-.16.08-.18.3-.55a1.06,1.06,0,0,0,.19-.48s0-.06-.08,0a4.62,4.62,0,0,0-.91.49c-2.16,1.39-2.53,3-2.18,4.1a1.37,1.37,0,0,1,0,.78c-.16.64-.26.74-.47.74-.45,0-1.19-.67-1.53-1a.87.87,0,0,0-.89-.19c-.73.17-.75.21-1,.17a4.73,4.73,0,0,0-1.24-.13s0,0,0,0a5.1,5.1,0,0,0,.93.44c.6.2.58.46.8.58a6.88,6.88,0,0,0,.73.33c.9.48.89.71.75,1-.23.51-1.2-.07-1.55-.23a2.29,2.29,0,0,0-2.77.7,7.38,7.38,0,0,0-1.79,3s0,0,0,0a2.37,2.37,0,0,0,.65-.6c.25-.26.16,0,.15.09-.14.27-.18.39-.17.45l0,0a3.32,3.32,0,0,0,.89-.52c.24-.16.19.09.16.13-.12.29-.08.42-.06.46h0a2.33,2.33,0,0,0,.65-.51c.2-.17.14.06.12.08a1.07,1.07,0,0,0-.11.69h0a5.09,5.09,0,0,0,.92-.78c.27-.26.19.07.18.12s-.06.46-.07.59a0,0,0,0,0,0,0,6.34,6.34,0,0,0,.68-.61c.08-.1.48-.62.46-.22a5.53,5.53,0,0,0,0,.77s0,0,0,0A6.75,6.75,0,0,0,25.14,15h0A3.3,3.3,0,0,0,25.65,17a8.68,8.68,0,0,0,2.08,1.88s0,0,0,0a4.58,4.58,0,0,0,0-.54c0-.36.13-.08.17,0a2.79,2.79,0,0,0,.92.71s0,0,0,0a.82.82,0,0,0,0-.42c0-.23.12-.07.15,0a7,7,0,0,0,3.5,2.28,0,0,0,0,0,0,0c0-.12-.33-.56-.43-.75s.08-.11.12-.1a3.72,3.72,0,0,0,.5.2c.12.05.09,0,.08-.05-.37-.49-.68-1-.89-1.32s.07-.22.27-.16.13-.06.11-.09a8.37,8.37,0,0,1-1.08-1.43c-.14-.24.1-.2.14-.16s.23.08.25.07a2,2,0,0,0-.25-.82c-.2-.48.22-.26.3-.21l.65.37c.31.17.39.17.45.13a.44.44,0,0,0,.06-.33,14.73,14.73,0,0,1,2.7,2.61c.12.18.25.34.34.5a3.17,3.17,0,0,1-1,2.2,3.06,3.06,0,0,1-3.32.64,2.6,2.6,0,0,0,3,.5,3,3,0,0,0,1.83-2.39,4.27,4.27,0,0,1,.45,2,2.75,2.75,0,0,1-1.08,2.34,4.12,4.12,0,0,1-2.46.51,2.83,2.83,0,0,0,2.49.09A2.53,2.53,0,0,0,37.52,23,5.24,5.24,0,0,0,36.65,19.33ZM33,15.78c-.37-.36,0-.26.11-.24a4.26,4.26,0,0,1,.64.31c.23.13.28.17.38.13a.19.19,0,0,0,.13-.2c0-.2.07-.15.07-.15a5.83,5.83,0,0,1,1.51,2.72A15.68,15.68,0,0,0,33,15.78Z"/></g></g></svg>