<svg xmlns="http://www.w3.org/2000/svg" viewBox="0 0 40.5 40.5"><defs><style>.cls-1{fill:#024fa2;}.cls-2{fill:#fff;}.cls-3{fill:#ed1c27;}</style></defs><g id="Ebene_2" data-name="Ebene 2"><g id="Ńëîé_1" data-name="Ńëîé 1"><path class="cls-1" d="M35.33,6.75H5.17a20.22,20.22,0,0,1,30.16,0Z"/><path class="cls-2" d="M36.26,7.87h-32c.3-.39.61-.76.93-1.12H35.33C35.65,7.11,36,7.48,36.26,7.87Z"/><path class="cls-1" d="M35.33,33.75a20.22,20.22,0,0,1-30.16,0Z"/><path class="cls-2" d="M36.26,32.63c-.3.39-.61.76-.93,1.12H5.17c-.32-.36-.63-.73-.93-1.12Z"/><path class="cls-3" d="M40.5,20.25a20.1,20.1,0,0,1-4.24,12.38h-32a20.19,20.19,0,0,1,0-24.76h32A20.1,20.1,0,0,1,40.5,20.25Z"/><circle class="cls-2" cx="10.78" cy="20.25" r="8.99"/><polygon class="cls-3" points="10.78 11.6 12.72 17.58 19 17.58 13.92 21.27 15.86 27.25 10.78 23.55 5.7 27.25 7.64 21.27 2.56 17.58 8.84 17.58 10.78 11.6"/></g></g></svg>