<svg viewBox="0 0 40.5 40.5" xmlns="http://www.w3.org/2000/svg"><path d="m14.18.92v38.66a20.27 20.27 0 0 1 0-38.66z" fill="#060"/><path d="m14.18.92v38.66a20.27 20.27 0 0 1 0-38.66z" fill="#060"/><path d="m40.5 20.25a20.28 20.28 0 0 1 -26.32 19.33v-38.66a20.28 20.28 0 0 1 26.32 19.33z" fill="#f00"/><path d="m5.65 25.8.47.35-.31-.59z" fill="#919100"/><path d="m6.12 26.17-.48-.35s0 0 0 0l.16-.24.3.59s0 0 0 0zm-.44-.37.37.27-.24-.46z"/><path d="m5.23 25.05.39.34.06-.44-.24-.22z" fill="#919100"/><path d="m5.62 25.41-.38-.34s0 0 0 0l.21-.33.24.23-.06.43a0 0 0 0 1 0 0zm-.36-.36.34.29.05-.34-.2-.2z"/><path d="m5.56 14.75.14.47.34-.08-.03-.33-.01-.2z" fill="#919100"/><path d="m5.7 15.25-.14-.47s0 0 0 0l.44-.19v.53s0 0 0 0l-.33.08zm-.11-.48.13.43.28-.07v-.49z"/><path d="m5.55 17.32a14 14 0 0 0 1.73 1.32c.52.27 1.34-.27 1.34-.27l.11-1.6-1.31-.59-1.53-.32z" fill="#ff0"/><path d="m7.62 18.74a.78.78 0 0 1 -.35-.07 15.89 15.89 0 0 1 -1.74-1.33 0 0 0 0 1 0 0l.34-1.47a0 0 0 0 1 0 0l1.53.32 1.31.59-.11 1.6a2.18 2.18 0 0 1 -.98.36zm-2-1.43a14.13 14.13 0 0 0 1.71 1.31c.47.25 1.21-.2 1.3-.26l.11-1.57-1.29-.58-1.5-.32z"/><path d="m7.52 18.59c-.41-.24-1.82-1.41-1.83-1.42a0 0 0 0 1 0 0s0 0 0 0 1.41 1.18 1.83 1.42a0 0 0 0 1 0 0z"/><path d="m4.8 16.25.18.53.23-.64h-.28z" fill="#919100"/><path d="m5 16.8s0 0 0 0l-.18-.53a0 0 0 0 1 0 0l.12-.11h.32s0 0 0 0l-.26.63s0 .01 0 .01zm-.15-.54.15.45.2-.55h-.26z"/><path d="m18.48 25.34 1.51.72 2.04-.49-1.42-1.68-.87-.36z" fill="#ff0"/><path d="m20 26.08-1.51-.72s0 0 0 0l1.25-1.8s0 0 0 0l.87.35 1.39 1.64a0 0 0 0 1 0 0l-2 .49zm-1.47-.75 1.47.67 2-.48-1.39-1.64-.84-.35z"/><path d="m20 25.81-1.32-.59s0 0 0 0l1.32.59s0 0 0 0a0 0 0 0 1 0 0z"/><path d="m23.09 25.21-.37.11.06-.39.25-.08.08.17z" fill="#919100"/><path d="m22.72 25.34a0 0 0 0 1 0 0l.05-.39s0 0 0 0l.25-.07s0 0 0 0l.08.16v.19a0 0 0 0 1 0 0l-.36.11zm.08-.4-.05.34.31-.09v-.17l-.06-.14z"/><path d="m22.16 26.64-.37.03.04-.4.26-.1.1.22z" fill="#919100"/><path d="m21.79 26.69v-.4l.26-.1.1.22v.26a0 0 0 0 1 0 0h-.37zm.06-.4v.35h.32v-.22l-.1-.2z"/><path d="m17.8 26a23.71 23.71 0 0 0 4.34-.76c1-.46-1.4 1.34-1.4 1.34a30.41 30.41 0 0 1 -6.25.77z" fill="#ff0"/><path d="m14.49 27.33h-.12l3.42-1.4a22.32 22.32 0 0 0 4.34-.77c.21-.09.26-.08.28-.05s.06.1-.8.78l-.86.66a30 30 0 0 1 -6.26.78zm3.31-1.33-3.19 1.3a31.07 31.07 0 0 0 6.12-.77 10.42 10.42 0 0 0 1.64-1.37s-.06 0-.22.07a23.53 23.53 0 0 1 -4.35.77z"/><path d="m17.56 26.27a0 0 0 0 1 0 0s0 0 0 0a34.78 34.78 0 0 0 4-.67 0 0 0 0 1 0 0s0 0 0 0a33.65 33.65 0 0 1 -4.06.68z"/><path d="m15.94 27.06a0 0 0 0 1 0 0s0 0 0 0a30.23 30.23 0 0 0 5-.79s0 0 0 0a28.53 28.53 0 0 1 -5.07.79z"/><path d="m10.57 26a23.71 23.71 0 0 1 -4.34-.76c-1-.46 1.4 1.34 1.4 1.34a30.41 30.41 0 0 0 6.25.77z" fill="#ff0"/><path d="m14 27.33h-.12a30.31 30.31 0 0 1 -6.26-.78l-.86-.66c-.86-.68-.83-.74-.81-.78s.08 0 .29.05a22.37 22.37 0 0 0 4.33.77zm-6.36-.82a31 31 0 0 0 6.11.77l-3.18-1.28a23.53 23.53 0 0 1 -4.35-.77c-.16-.07-.21-.08-.22-.07a10.42 10.42 0 0 0 1.64 1.35z"/><path d="m10.81 26.27a33.84 33.84 0 0 1 -4.05-.68s0 0 0 0a0 0 0 0 1 0 0 34.44 34.44 0 0 0 4 .67s0 0 0 0a0 0 0 0 1 .05.01z"/><path d="m12.43 27.06a28.53 28.53 0 0 1 -5.07-.79s0 0 0 0a30.23 30.23 0 0 0 5.05.79 0 0 0 0 1 0 0 0 0 0 0 1 .02-.06z"/><path d="m20 21a16.38 16.38 0 0 0 3.34-.78c.64-.4-.21 1.19-.21 1.19a22 22 0 0 1 -3.11.66c-.72 0-.02-1.07-.02-1.07z" fill="#ff0"/><path d="m20 22.1a.31.31 0 0 1 -.31-.15c-.17-.29.25-.94.27-1a16.63 16.63 0 0 0 3.34-.79c.11-.07.19-.08.24 0s-.36 1.16-.42 1.28a23.17 23.17 0 0 1 -3.12.66zm0-1.1c-.05.08-.4.66-.26.91q.06.12.27.12a21.33 21.33 0 0 0 3.1-.66c.22-.41.52-1.1.41-1.2s-.09 0-.18 0a15.71 15.71 0 0 1 -3.34.83z"/><path d="m20.06 21.22s0 0 0 0a18.26 18.26 0 0 0 3.19-.64 0 0 0 0 1 0 0 17.86 17.86 0 0 1 -3.2.65z"/><path d="m20 21.87s0 0 0 0a24.15 24.15 0 0 0 3.14-.68s0 0 0 0a25.47 25.47 0 0 1 -3.16.69z"/><path d="m8.35 21a16.38 16.38 0 0 1 -3.35-.78c-.64-.4.21 1.19.21 1.19a22 22 0 0 0 3.11.66c.73 0 .03-1.07.03-1.07z" fill="#ff0"/><path d="m8.33 22.1a23.17 23.17 0 0 1 -3.12-.66c-.06-.12-.58-1.12-.41-1.28s.13 0 .24 0a16.72 16.72 0 0 0 3.31.84s.43.67.27 1a.31.31 0 0 1 -.29.1zm-3.1-.71a21.33 21.33 0 0 0 3.1.66q.21 0 .27-.12c.14-.25-.21-.83-.26-.91a15.58 15.58 0 0 1 -3.34-.78c-.09-.06-.16-.08-.19 0s.19.76.42 1.15z"/><path d="m8.29 21.22a17.86 17.86 0 0 1 -3.2-.65 0 0 0 0 1 0 0 18.08 18.08 0 0 0 3.19.64s0 0 0 0z"/><path d="m8.32 21.87a25.08 25.08 0 0 1 -3.16-.69s0 0 0 0a23.8 23.8 0 0 0 3.14.68s0 0 0 0 .04.01.02.01z"/><path d="m24.32 20.88-.22.25-.01-.51.15.06z" fill="#919100"/><path d="m24.1 21.15a0 0 0 0 1 0 0v-.51s0 0 0 0l.15.06s0 0 0 0l.07.19a0 0 0 0 1 0 0l-.22.25zm0-.49v.41l.17-.19-.07-.18z"/><path d="m20 15.71a11.74 11.74 0 0 0 1.83-.49l.37 1a16 16 0 0 1 -2.2.51z" fill="#ff0"/><path d="m20 16.8s0 0 0 0v-1.09a0 0 0 0 1 0 0 12.83 12.83 0 0 0 1.83-.48s0 0 0 0l.36 1a17.51 17.51 0 0 1 -2.19.57zm0-1.07v1a17.17 17.17 0 0 0 2.15-.51l-.35-1a13.66 13.66 0 0 1 -1.75.51z"/><path d="m20.1 16s0 0 0 0c.56-.12 1.65-.37 1.76-.43a0 0 0 0 1 0 0c-.14.08-1.7.42-1.77.44z"/><path d="m20.09 16.57a0 0 0 0 1 0 0s0 0 0 0a10.91 10.91 0 0 0 2-.48s0 0 0 0a10.24 10.24 0 0 1 -2 .5z"/><path d="m23.34 15.86-.11.08-.14-.29z" fill="#919100"/><path d="m23.23 16s0 0 0 0l-.14-.28s0 0 0 0l.24.2s0 0 0 0l-.11.08a0 0 0 0 1 .01 0zm-.07-.22.08.16.06-.05z"/><path d="m4.03 20.88.22.25.01-.51-.15.06z" fill="#919100"/><path d="m4.25 21.15-.25-.25a0 0 0 0 1 0 0l.07-.19s0 0 0 0l.15-.06s0 0 0 0v.51a0 0 0 0 1 0 0zm-.19-.27.17.19v-.41h-.12z"/><path d="m24.2 19.75a10.09 10.09 0 0 0 -1.15-4.17 9.39 9.39 0 0 0 -.56-.92 10 10 0 0 0 -16.49-.13.61.61 0 0 1 -.07.1l-.15.23c-.12.19-.23.39-.34.58l-.06.12a1.74 1.74 0 0 0 -.1.19c-.06.12-.12.23-.17.35a10.12 10.12 0 0 0 .19 8.9c.13.24.27.48.42.71a10 10 0 0 0 16.51.61 9.26 9.26 0 0 0 .88-1.41 10.1 10.1 0 0 0 1.1-4.24v-.34c0-.23 0-.41-.01-.58zm-1.82 4.25a9.36 9.36 0 0 1 -.85 1.47 9 9 0 0 1 -14.92-.33c-.15-.24-.29-.49-.43-.75a9 9 0 0 1 -.07-8.08 8.83 8.83 0 0 1 .63-1.07 1 1 0 0 1 .11-.17l.07-.1.13-.17.44-.54.15-.15.12-.11a9 9 0 0 1 13 .14 10.09 10.09 0 0 1 .78 1 9.07 9.07 0 0 1 1.6 4.18 8.69 8.69 0 0 1 .05.89v.14a9.09 9.09 0 0 1 -.81 3.65z" fill="#ff0"/><path d="m22.92 15.05-.19.12-.16-.4z" fill="#919100"/><path d="m22.73 15.19-.16-.4s0 0 0 0l.35.28s0 0 0 0l-.18.12zm-.1-.34.11.28.14-.08z"/><path d="m14.18 29.51a9.23 9.23 0 1 1 9.23-9.23 9.24 9.24 0 0 1 -9.23 9.23zm0-18.41a9.18 9.18 0 1 0 9.19 9.18 9.19 9.19 0 0 0 -9.19-9.18z" fill="#231f20"/><path d="m14.18 29.31a9 9 0 1 1 9-9 9 9 0 0 1 -9 9zm0-18a9 9 0 1 0 9 9 9 9 0 0 0 -9-9.01z" fill="#231f20"/><path d="m24.32 20.02-.14.15-.09-.36.14-.02z" fill="#919100"/><path d="m24.18 20.19-.09-.36s0 0 0 0h.16l.08.22s0 0 0 0l-.13.15zm-.06-.36.07.29.1-.11-.07-.19z"/><path d="m14.18 30.14a9.86 9.86 0 1 1 9.82-9.86 9.86 9.86 0 0 1 -9.82 9.86zm0-19.67a9.81 9.81 0 1 0 9.82 9.81 9.83 9.83 0 0 0 -9.82-9.81z" fill="#231f20"/><path d="m14.18 30.35a10.07 10.07 0 1 1 10.07-10.07 10.08 10.08 0 0 1 -10.07 10.07zm0-20.09a10 10 0 1 0 10 10 10 10 0 0 0 -10-10z" fill="#231f20"/><path d="m9.17 24.42-2 .49-.52.23-.51.23-.38.29c-.15-.23-.29-.47-.42-.71l.13-.18.5-.29.25-.09 1.89-.63.71-.14z" fill="#ff0"/><path d="m5.71 25.7c-.15-.22-.29-.47-.42-.71l.15-.19.51-.3 2.13-.71.74-.14.41.84-2.07.49-1 .46zm-.38-.7c.12.23.26.46.39.68l.37-.28 1-.46 2-.48-.37-.76-.7.13-2.13.72-.49.29z"/><path d="m8.67 23.54s-2.84.56-3.45 1.29v.22a8.43 8.43 0 0 1 3.46-1.29z" fill="#ff0"/><path d="m5.23 25.07s0 0 0 0v-.22c.61-.74 3.35-1.28 3.47-1.3v.22s0 0 0 0a8.5 8.5 0 0 0 -3.44 1.29zm0-.23v.16a8.86 8.86 0 0 1 3.41-1.27v-.17c-.28.07-2.82.6-3.4 1.28z"/><path d="m9 24.34s-2.82.54-3.41 1.27v.2a7.78 7.78 0 0 1 3.5-1.23z" fill="#ff0"/><path d="m5.65 25.83s0 0 0 0v-.2c.59-.73 3.31-1.25 3.42-1.27l.12.24a8.07 8.07 0 0 0 -3.49 1.21zm0-.22v.15a8.27 8.27 0 0 1 3.45-1.2l-.1-.19c-.23.05-2.79.56-3.36 1.24z"/><path d="m23.11 24.86a9.26 9.26 0 0 1 -.88 1.41l-.35-.5-.35-.3-1-.84-1.03-.73.59-1.76a17.85 17.85 0 0 1 2.29 1.86 6.19 6.19 0 0 1 .73.86z" fill="#ff0"/><path d="m22.23 26.31-.37-.53-1.31-1.13-1.08-.74.61-1.81a18.84 18.84 0 0 1 2.31 1.9 5.73 5.73 0 0 1 .74.87 10.46 10.46 0 0 1 -.88 1.42zm-2.7-2.41 1 .71 1.32 1.14.33.48a9.2 9.2 0 0 0 .85-1.37 6 6 0 0 0 -.72-.85 18.91 18.91 0 0 0 -2.26-1.84z"/><path d="m20 22c1.3.73 3.42 2.6 3.16 3.1l-.06.14a0 0 0 0 1 -.06 0 1.6 1.6 0 0 0 -.31-.68 11.32 11.32 0 0 0 -2.73-2.35z" fill="#ff0"/><path d="m23.08 25.24s0 0 0 0a1.78 1.78 0 0 0 -.31-.67 11.46 11.46 0 0 0 -2.77-2.34s0 0 0 0v-.23s0 0 0 0c1.33.74 3.44 2.61 3.18 3.13l-.07.14a.09.09 0 0 1 -.03-.03zm0 0 .07-.14c.25-.49-1.84-2.32-3.12-3.06v.21a11.14 11.14 0 0 1 2.75 2.29 1.92 1.92 0 0 1 .32.7z"/><path d="m19.34 23.69c1.29.73 3.18 2.24 2.93 2.74l-.11.21a1.72 1.72 0 0 0 -.41-.83 12.33 12.33 0 0 0 -2.44-1.81z" fill="#ff0"/><path d="m22.16 26.67a1.63 1.63 0 0 0 -.4-.82 11.94 11.94 0 0 0 -2.46-1.85 0 0 0 0 1 0 0v-.25s0 0 0 0c1.34.76 3.2 2.25 2.94 2.77l-.11.21s.04-.06.03-.06zm-2.82-2.74a12.2 12.2 0 0 1 2.42 1.87 1.69 1.69 0 0 1 .41.77l.07-.15c.24-.47-1.57-1.94-2.88-2.69z"/><path d="m24.21 20.28v.34a10.56 10.56 0 0 0 -1-.48 5.2 5.2 0 0 0 -.55-.21 12.92 12.92 0 0 0 -2.66-.59c-.55.13 0-.87 0-.87a22.47 22.47 0 0 1 2.61.6l.51.18a8.06 8.06 0 0 1 1.08.5c.01.17.01.35.01.53z" fill="#ff0"/><path d="m24.21 20.65c-.34-.18-.69-.34-1-.48-.18-.08-.37-.15-.55-.21a12.88 12.88 0 0 0 -2.66-.6c-.11 0-.18 0-.22 0s.19-.79.23-.86a21 21 0 0 1 2.62.6l.5.18a7.32 7.32 0 0 1 1.09.5s0 0 0 0v.53s0 .23 0 .34zm-4.21-1.34a13.21 13.21 0 0 1 2.65.59l.56.21c.33.14.67.3 1 .47 0-.1 0-.2 0-.3s0-.34 0-.52a8 8 0 0 0 -1.06-.49l-.51-.18a21.13 21.13 0 0 0 -2.64-.59c-.1.18-.33.65-.23.79s.09.05.18 0z"/><path d="m20.06 18.35c1.48.24 3.65.79 4.26 1.43v.22s-1.06-.95-4.26-1.45z" fill="#ff0"/><path d="m24.32 20s-1.09-.95-4.25-1.45a0 0 0 0 1 0 0v-.22s0 0 0 0c1.65.27 3.7.83 4.27 1.43v.24a0 0 0 0 1 0 0zm-4.24-1.49a9.56 9.56 0 0 1 4.21 1.49v-.18c-.57-.59-2.57-1.14-4.21-1.41z"/><path d="m20.06 19.22c1.5.18 3.65.79 4.26 1.42v.24s-1.05-1-4.26-1.45z" fill="#ff0"/><path d="m24.32 20.91s-1.08-1-4.25-1.44v-.27c1.59.2 3.69.82 4.27 1.43a0 0 0 0 1 0 0v.24a0 0 0 0 1 0 0zm-4.24-1.5a8.75 8.75 0 0 1 4.21 1.42v-.18c-.58-.6-2.64-1.21-4.21-1.41z"/><path d="m4.03 20.02.14.15.09-.36-.15-.02z" fill="#919100"/><path d="m4.17 20.19-.17-.19s0 0 0 0l.08-.22s0 0 0 0h.16l-.09.36zm-.11-.19.1.11.07-.29h-.1z"/><path d="m4.14 20.28v.34a10.56 10.56 0 0 1 1-.48 4.48 4.48 0 0 1 .55-.21 12.92 12.92 0 0 1 2.65-.59c.55.13 0-.87 0-.87a22.47 22.47 0 0 0 -2.61.6l-.51.18a8.06 8.06 0 0 0 -1.08.5z" fill="#ff0"/><path d="m4.14 20.65s0 0 0 0 0-.23 0-.34 0-.35 0-.53a7.32 7.32 0 0 1 1.09-.5l.5-.18a21.53 21.53 0 0 1 2.61-.6c0 .07.38.67.23.86s-.11.07-.22 0a12.88 12.88 0 0 0 -2.61.64c-.18.06-.37.13-.55.21-.34.14-.69.3-1 .48zm0-.89v.52s0 .2 0 .3c.33-.17.67-.33 1-.47l.56-.21a13.21 13.21 0 0 1 2.65-.59h.18s-.13-.61-.23-.79a21.12 21.12 0 0 0 -2.6.59l-.5.18a8.84 8.84 0 0 0 -1.03.47z"/><path d="m8.29 18.35c-1.48.24-3.65.79-4.26 1.43v.22s1.06-.95 4.26-1.45z" fill="#ff0"/><path d="m4 20s0 0 0 0v-.24s0 0 0 0c.57-.6 2.61-1.16 4.27-1.43s0 0 0 0v.22a0 0 0 0 1 0 0c-3.13.54-4.21 1.45-4.22 1.45zm0-.25v.25a9.56 9.56 0 0 1 4.21-1.42v-.17c-1.58.24-3.58.79-4.15 1.38z"/><path d="m8.29 19.22c-1.5.18-3.65.78-4.29 1.42v.24s1-1 4.26-1.45z" fill="#ff0"/><path d="m4 20.91s0 0 0 0v-.24a0 0 0 0 1 0 0c.6-.67 2.7-1.28 4.29-1.48v.23s0 0 0 0c-3.17.44-4.24 1.43-4.25 1.44zm0-.26v.18a8.75 8.75 0 0 1 4.21-1.42v-.17c-1.51.2-3.57.81-4.15 1.41z"/><path d="m23.05 15.58c-.34-.13-.94-.34-1.53-.51a5.1 5.1 0 0 0 -1.52-.27v-.8s.3 0 .73.13a7.48 7.48 0 0 1 1.75.54 9.39 9.39 0 0 1 .57.91z" fill="#ff0"/><path d="m23.05 15.6c-.31-.11-.92-.33-1.53-.5a4.69 4.69 0 0 0 -1.52-.28v-.82s0 0 0 0l.73.13a8.6 8.6 0 0 1 1.76.54c.2.3.39.61.56.92a0 0 0 0 1 0 0zm-2.94-.83a5.76 5.76 0 0 1 1.42.28c.57.16 1.14.37 1.47.48-.16-.29-.34-.58-.52-.86a8.46 8.46 0 0 0 -1.75-.53l-.73-.14v.76z"/><path d="m13.88 27.3h.62v3.05h-.62z" fill="#ff0"/><path d="m14.52 30.38h-.67v-3.1h.67zm-.62-.05h.57v-3h-.57z"/><path d="m14.49 27.23h.22v3.25h-.22z" fill="#ff0"/><path d="m14.74 30.5h-.27v-3.3h.27zm-.22-.05h.17v-3.2h-.17z"/><path d="m13.65 27.23h.22v3.25h-.22z" fill="#ff0" transform="matrix(-1 0 0 -1 27.53 57.7)"/><path d="m13.9 30.5h-.27v-3.3h.27zm-.22-.05h.17v-3.2h-.17z"/><path d="m20.06 14.67a16.15 16.15 0 0 1 3.11.88l.17.3a13.31 13.31 0 0 0 -3.27-1z" fill="#ff0"/><path d="m23.34 15.88a13 13 0 0 0 -3.26-1 0 0 0 0 1 0 0v-.23a16.87 16.87 0 0 1 3.13.89l.16.3a0 0 0 0 1 0 0 0 0 0 0 1 -.03.04zm-3.25-1a13.45 13.45 0 0 1 3.19.93l-.12-.23a15.35 15.35 0 0 0 -3.08-.87z"/><path d="m20.07 13.88a8.34 8.34 0 0 1 2.64.84l.21.33a7.34 7.34 0 0 0 -2.83-1z" fill="#ff0"/><path d="m22.92 15.07a7.21 7.21 0 0 0 -2.81-.94v-.22a0 0 0 0 1 0 0 8.27 8.27 0 0 1 2.64.84l.21.34a0 0 0 0 1 0 0zm-2.81-1a8.34 8.34 0 0 1 2.73.89l-.15-.24a8.13 8.13 0 0 0 -2.59-.82z"/><path d="m8.36 14.8h-.08a5.77 5.77 0 0 0 -1.43.28c-.44.13-.89.28-1.22.4l-.28.1.06-.12c.11-.19.22-.39.34-.58l.15-.23.35-.14a8.48 8.48 0 0 1 1.38-.38c.28-.06.51-.09.63-.11h.07z" fill="#ff0"/><path d="m5.33 15.59s0 0 0 0l.06-.12c.11-.2.22-.39.34-.58s.11-.17.16-.23l.35-.14a8.47 8.47 0 0 1 1.39-.39l.63-.13h.08v.81h-.1a5.32 5.32 0 0 0 -1.42.27c-.46.13-.92.28-1.23.39l-.24.09zm.57-.93-.15.22c-.12.19-.23.39-.34.58v.06l.22-.07c.3-.11.76-.27 1.22-.4a5.31 5.31 0 0 1 1.43-.27h.06v-.76h-.07l-.63.11a9.52 9.52 0 0 0 -1.38.38z"/><path d="m8.29 14.67v.22a12.65 12.65 0 0 0 -1.54.35 11.66 11.66 0 0 0 -1.23.41l-.28.11a1.74 1.74 0 0 1 .1-.19l.06-.12.29-.11a11.91 11.91 0 0 1 1.23-.34c.73-.21 1.37-.33 1.37-.33z" fill="#ff0"/><path d="m5.23 15.78a0 0 0 0 1 0 0 1.14 1.14 0 0 1 .1-.19l.06-.12.29-.11a9.72 9.72 0 0 1 1.24-.36c.72-.19 1.36-.3 1.37-.31v.23a13 13 0 0 0 -1.54.34 11.21 11.21 0 0 0 -1.22.41l-.28.11zm.18-.31-.06.11a.83.83 0 0 0 -.07.13l.22-.09c.27-.1.7-.26 1.23-.41a14.35 14.35 0 0 1 1.52-.34v-.17c-.14 0-.71.13-1.34.29s-.91.25-1.24.37z"/><path d="m8.28 13.88v.22l-.77.16a9.91 9.91 0 0 0 -1.42.46l-.34.15.15-.23a.76.76 0 0 0 .1-.11 1.94 1.94 0 0 1 .36-.15 9.08 9.08 0 0 1 1.4-.38c.31-.09.52-.12.52-.12z" fill="#ff0"/><path d="m5.73 14.9a0 0 0 0 1 0 0c.06-.09.11-.17.16-.23l.07-.12h.04a3 3 0 0 1 .36-.15 9.6 9.6 0 0 1 1.4-.4l.51-.09a0 0 0 0 1 0 0v.22s0 0 0 0l-.76.16a9.54 9.54 0 0 0 -1.42.45l-.34.15zm.27-.35a1 1 0 0 0 -.08.11l-.1.15.26-.12a9.18 9.18 0 0 1 1.42-.45c.23-.06.49-.11.74-.16v-.17l-.47.09a9.08 9.08 0 0 0 -1.44.4z"/><path d="m8.42 15.39v1.86l-.84-.39-.92-.38-.52-.17-.2-.06-.78-.14h-.1c.05-.12.11-.23.17-.35a1.74 1.74 0 0 1 .1-.19l.06-.12c.11-.19.22-.39.34-.58l.15-.23h.32l.84.2.28.07z" fill="#ff0"/><path d="m8.39 17.27-.84-.38-.92-.39-.72-.23-.78-.14h-.13a0 0 0 0 1 0 0 3.78 3.78 0 0 1 .17-.35 1.14 1.14 0 0 1 .1-.19l.06-.12c.11-.2.22-.39.34-.58s.11-.17.16-.23h.32l1.11.27 1.09.51a0 0 0 0 1 0 0v1.86s0 0 0 0zm-3.26-1.19.78.14.73.22.92.39.81.37v-1.81l-1.07-.51-1.11-.27h-.31l-.15.22c-.12.19-.23.39-.34.58l-.06.12a1.74 1.74 0 0 0 -.1.19l-.15.32z"/><path d="m8.29 15.44s-1.88-1-2.73-.69c0 0 0-.26.42-.24a5.25 5.25 0 0 1 2.3.68z" fill="#ff0"/><path d="m8.29 15.47s-1.88-1-2.71-.69 0-.28.44-.26a5.35 5.35 0 0 1 2.31.68v.27s0 0 0 0zm-2.36-.79a6.52 6.52 0 0 1 2.33.72v-.19a5.3 5.3 0 0 0 -2.26-.68c-.27 0-.35.12-.37.19a1.15 1.15 0 0 1 .3-.04z"/><path d="m8.32 17.34s-2.67-1.34-3.52-1.09c0 0 0-.27.41-.24a8.92 8.92 0 0 1 3.1 1.06z" fill="#ff0"/><path d="m8.32 17.36s-2.68-1.36-3.51-1.09 0 0 0 0a.33.33 0 0 1 .09-.18.47.47 0 0 1 .32-.09 8.85 8.85 0 0 1 3.1 1.06s0 0 0 0v.27s0 0 0 0zm-3.24-1.17a10.55 10.55 0 0 1 3.21 1.11v-.22a8.81 8.81 0 0 0 -3.08-1 .35.35 0 0 0 -.3.07.19.19 0 0 0 -.08.11 1 1 0 0 1 .25-.07z"/><path d="m20.16 13.36v8.3a5.2 5.2 0 0 1 -.26 1.63 6 6 0 0 1 -4.08 3.86 5.61 5.61 0 0 1 -1.64.24 5.54 5.54 0 0 1 -1.63-.24 6 6 0 0 1 -4.08-3.86 5.2 5.2 0 0 1 -.26-1.63v-8.3z" fill="#fff"/><path d="m14.18 27.41a6 6 0 0 1 -6-5.75v-8.32h12v8.32a6 6 0 0 1 -6 5.75zm-5.95-14v8.27a6 6 0 0 0 11.91 0v-8.29z"/><path d="m19.92 13.61v8.2a5.75 5.75 0 0 1 -5.35 5.35h-.78a5.74 5.74 0 0 1 -5.34-5.35v-8.2z" fill="#f00"/><path d="m8.43 13.58v7.84a2.55 2.55 0 0 0 0 .39 5.74 5.74 0 0 0 5.34 5.35 3.81 3.81 0 0 0 .78 0 5.75 5.75 0 0 0 5.35-5.35 2.55 2.55 0 0 0 0-.39v-7.84zm11.46 7.84a5.71 5.71 0 1 1 -11.42 0v-7.79h11.42z"/><path d="m17.58 15.94v5.84a3.41 3.41 0 0 1 -3 3h-.7a3.41 3.41 0 0 1 -3-3v-5.84z" fill="#fff"/><path d="m10.77 15.92v5.51.35a3.41 3.41 0 0 0 3 3h.35.35a3.41 3.41 0 0 0 3-3c0-.12 0-.23 0-.35v-5.51zm6.79 5.51a3.38 3.38 0 0 1 -6.75 0v-5.43h6.75z"/><g fill="#039"><path d="m13.43 16.77v1.23a.76.76 0 0 0 .75.75.76.76 0 0 0 .76-.75v-1.23zm.33 1.39a.15.15 0 0 1 -.14-.15.14.14 0 0 1 .28 0 .15.15 0 0 1 -.14.15zm0-.84a.15.15 0 0 1 -.14-.15.14.14 0 0 1 .28 0 .15.15 0 0 1 -.14.15zm.42.42a.14.14 0 0 1 -.18-.14.15.15 0 0 1 .14-.15.15.15 0 0 1 .15.15.15.15 0 0 1 -.11.14zm.43.42a.15.15 0 0 1 -.15-.15.15.15 0 0 1 .15-.14.14.14 0 0 1 .14.14.15.15 0 0 1 -.14.15zm0-.84a.15.15 0 0 1 -.15-.15.15.15 0 0 1 .15-.14.14.14 0 0 1 .14.14.15.15 0 0 1 -.14.15z"/><path d="m13.43 19.4v1.18a.76.76 0 0 0 .75.75.76.76 0 0 0 .76-.75v-1.18zm.33 1.39a.15.15 0 0 1 -.14-.15.14.14 0 0 1 .28 0 .15.15 0 0 1 -.14.15zm0-.84a.15.15 0 0 1 -.14-.15.14.14 0 0 1 .28 0 .15.15 0 0 1 -.14.2zm.42.42a.14.14 0 0 1 -.14-.14.15.15 0 0 1 .14-.15.15.15 0 0 1 .15.15.15.15 0 0 1 -.15.14zm.43.42a.15.15 0 0 1 -.15-.15.15.15 0 0 1 .15-.14.14.14 0 0 1 .14.14.15.15 0 0 1 -.14.15zm0-.84a.15.15 0 0 1 -.15-.15.15.15 0 0 1 .15-.14.14.14 0 0 1 .14.14.15.15 0 0 1 -.14.2z"/><path d="m11.32 19.4v1.18a.76.76 0 0 0 .75.75.75.75 0 0 0 .75-.75v-1.18zm.33 1.39a.15.15 0 0 1 -.15-.15.15.15 0 0 1 .15-.14.14.14 0 0 1 .14.14.15.15 0 0 1 -.14.15zm0-.84a.15.15 0 0 1 -.15-.15.15.15 0 0 1 .15-.14.14.14 0 0 1 .14.14.15.15 0 0 1 -.14.2zm.42.42a.14.14 0 0 1 -.14-.14.15.15 0 0 1 .14-.15.15.15 0 0 1 .15.15.15.15 0 0 1 -.15.14zm.43.42a.15.15 0 0 1 -.15-.15.15.15 0 0 1 .15-.14.14.14 0 0 1 .14.14.15.15 0 0 1 -.14.15zm0-.84a.15.15 0 0 1 -.15-.15.15.15 0 0 1 .15-.14.14.14 0 0 1 .14.14.15.15 0 0 1 -.14.2z"/><path d="m15.53 19.4v1.18a.75.75 0 0 0 .75.75.76.76 0 0 0 .75-.75v-1.18zm.32 1.39a.15.15 0 0 1 -.14-.15.14.14 0 0 1 .14-.14.15.15 0 0 1 .15.14.15.15 0 0 1 -.15.15zm0-.84a.15.15 0 0 1 -.14-.15.14.14 0 0 1 .14-.14.15.15 0 0 1 .15.14.15.15 0 0 1 -.15.2zm.43.42a.15.15 0 0 1 -.15-.14.15.15 0 0 1 .15-.15.15.15 0 0 1 .14.15.14.14 0 0 1 -.14.14zm.42.42a.15.15 0 0 1 -.14-.15.14.14 0 0 1 .14-.14.15.15 0 0 1 .15.14.15.15 0 0 1 -.15.15zm0-.84a.15.15 0 0 1 -.14-.15.14.14 0 0 1 .14-.14.15.15 0 0 1 .15.14.15.15 0 0 1 -.15.2z"/><path d="m13.43 22v1.2a.75.75 0 0 0 .75.75.75.75 0 0 0 .76-.75v-1.2zm.33 1.38a.14.14 0 0 1 -.14-.14.14.14 0 1 1 .28 0 .14.14 0 0 1 -.14.17zm0-.84a.14.14 0 0 1 -.14-.14.14.14 0 1 1 .28 0 .14.14 0 0 1 -.14.17zm.42.43a.15.15 0 0 1 -.14-.15.14.14 0 0 1 .14-.14.15.15 0 0 1 .15.14.15.15 0 0 1 -.15.18zm.43.41a.15.15 0 0 1 -.15-.14.15.15 0 0 1 .15-.15.15.15 0 0 1 .14.15.14.14 0 0 1 -.14.17zm0-.84a.15.15 0 0 1 -.15-.14.15.15 0 0 1 .15-.15.15.15 0 0 1 .14.15.14.14 0 0 1 -.14.17z"/></g><path d="m13.29 14.7h1.77v.14h-1.77z" fill="#ff0"/><path d="m15.09 14.86h-1.83v-.19h1.83zm-1.78 0h1.69v-.09h-1.69z"/><path d="m13.96 14.03h.43v.67h-.43z" fill="#ff0"/><path d="m14.41 14.72h-.47v-.72h.47zm-.41-.05h.38v-.61h-.38z"/><path d="m15.01 15.61h-1.67l.06-.63h1.55z" fill="#ff0"/><path d="m15 15.63h-1.69l.07-.68h1.62zm-1.66-.05h1.66l-.07-.58h-1.51z"/><path d="m14.6 15.68a.8.8 0 0 0 -.43-.79.8.8 0 0 0 -.42.79z" fill="#ff0"/><path d="m14.62 15.71h-.89a.82.82 0 0 1 .44-.81.82.82 0 0 1 .44.81zm-.85-.05h.8a.76.76 0 0 0 -.4-.74.78.78 0 0 0 -.4.74z"/><path d="m13.25 15.61h1.84v.14h-1.84z" fill="#ff0"/><path d="m15.12 15.77h-1.89v-.19h1.89zm-1.84 0h1.79v-.09h-1.79z"/><path d="m13.35 14.84h1.65v.14h-1.65z" fill="#ff0"/><path d="m15 15h-1.67v-.19h1.67zm-1.62 0h1.62v-.09h-1.62z"/><path d="m14.35 13.76v.06h-.1v-.06h-.15v.06h-.1v-.06h-.1v.27h.54v-.27z" fill="#ff0"/><path d="m14.47 14.06h-.59v-.33h.12v.07h.05v-.07h.19v.07h.05v-.07h.15zm-.54-.06h.49v-.23h-.05v.07h-.14v-.07h-.11v.07h-.12v-.07h-.05z"/><path d="m14.5 14.32h.43v.38h-.43z" fill="#ff0"/><path d="m15 14.72h-.47v-.42h.47zm-.43-.05h.38v-.32h-.38z"/><path d="m14.88 14.05v.06h-.09v-.06h-.15v.06h-.1v-.06h-.1v.27h.54v-.27z" fill="#ff0"/><path d="m15 14.35h-.59v-.35h.15v.06-.06h.19v.06-.06h.25zm-.54 0h.54v-.23h-.05v.07h-.15v-.07h-.1v.07h-.14v-.07z"/><path d="m14.13 14.2h.09v.18h-.09z"/><path d="m14.68 14.45h.06v.12h-.06z"/><path d="m13.42 14.32h.43v.38h-.43z" fill="#ff0" transform="matrix(-1 0 0 -1 27.27 29.02)"/><path d="m13.87 14.72h-.47v-.42h.47zm-.43-.05h.38v-.32h-.38z"/><path d="m13.46 14.05v.06h.1v-.06h.15v.06h.09v-.06h.1v.27h-.53v-.27z" fill="#ff0"/><path d="m13.93 14.35h-.59v-.35h.15v.06-.06h.19v.06-.06h.15zm-.54 0h.49v-.23h-.05v.07h-.14v-.07h-.11v.07h-.14v-.07z"/><path d="m13.6 14.45h.06v.12h-.06z" transform="matrix(-1 0 0 -1 27.27 29.02)"/><path d="m14.41 15.61c0-.35-.11-.45-.24-.45s-.23.1-.23.45z" fill="#ff0"/><path d="m14.44 15.63h-.53c0-.31.09-.47.26-.47s.27.16.27.47zm-.44-.05h.43c0-.26-.07-.39-.22-.39s-.21.13-.21.39z"/><path d="m17.87 14.7h1.77v.14h-1.77z" fill="#ff0"/><path d="m19.67 14.86h-1.83v-.19h1.83zm-1.78 0h1.73v-.09h-1.73z"/><path d="m18.54 14.03h.43v.67h-.43z" fill="#ff0"/><path d="m19 14.72h-.47v-.72h.47zm-.43-.05h.38v-.61h-.38z"/><path d="m19.59 15.61h-1.67l.06-.63h1.55z" fill="#ff0"/><path d="m19.61 15.63h-1.71l.1-.63h1.59zm-1.61-.05h1.61v-.58h-1.61z"/><path d="m19.18 15.68a.8.8 0 0 0 -.43-.79.8.8 0 0 0 -.42.79z" fill="#ff0"/><path d="m19.2 15.71h-.89a.82.82 0 0 1 .44-.81.82.82 0 0 1 .44.81zm-.85-.05h.8a.76.76 0 0 0 -.4-.74.78.78 0 0 0 -.4.74z"/><path d="m17.83 15.61h1.84v.14h-1.84z" fill="#ff0"/><path d="m19.7 15.77h-1.89v-.19h1.89zm-1.84 0h1.79v-.09h-1.79z"/><path d="m17.93 14.84h1.65v.14h-1.65z" fill="#ff0"/><path d="m19.6 15h-1.69v-.19h1.69zm-1.6 0h1.59v-.09h-1.59z"/><path d="m18.93 13.76v.06h-.1v-.06h-.15v.06h-.1v-.06h-.1v.27h.54v-.27z" fill="#ff0"/><path d="m19.05 14.06h-.59v-.33h.15v.07h.05v-.07h.19v.07-.07h.15zm-.54-.06h.49v-.23.07h-.14v-.07h-.16v.07h-.14v-.07z"/><path d="m19.08 14.32h.43v.38h-.43z" fill="#ff0"/><path d="m19.53 14.72h-.47v-.42h.47zm-.43-.05h.38v-.32h-.38z"/><path d="m19.46 14.05v.06h-.09v-.06h-.15v.06h-.1v-.06h-.1v.27h.54v-.27z" fill="#ff0"/><path d="m19.59 14.35h-.59v-.35h.15v.06h.05v-.06h.19v.06h.05v-.06h.15zm-.54 0h.49v-.23h-.05v.07h-.15v-.07h-.1v.07h-.14v-.07h-.05z"/><path d="m18.71 14.2h.09v.18h-.09z"/><path d="m19.26 14.45h.06v.12h-.06z"/><path d="m18 14.32h.43v.38h-.43z" fill="#ff0" transform="matrix(-1 0 0 -1 36.43 29.02)"/><path d="m18.45 14.72h-.45v-.42h.47zm-.45-.05h.38v-.32h-.38z"/><path d="m18.04 14.05v.06h.1v-.06h.15v.06h.1v-.06h.09v.27h-.53v-.27z" fill="#ff0"/><path d="m18.51 14.35h-.59v-.35h.15v.06h.05v-.06h.19v.06h.05v-.06h.15zm-.54 0h.49v-.23h-.05v.07h-.14v-.07h-.11v.07h-.16v-.07z"/><path d="m18.19 14.45h.06v.12h-.06z" transform="matrix(-1 0 0 -1 36.43 29.02)"/><path d="m19 15.61c0-.35-.11-.45-.24-.45s-.23.1-.23.45z" fill="#ff0"/><path d="m19 15.63h-.53c0-.31.09-.47.26-.47s.27.16.27.47zm-.48-.05h.48c0-.26-.07-.39-.22-.39s-.24.13-.24.39z"/><path d="m17.87 19.4h1.77v.14h-1.77z" fill="#ff0"/><path d="m19.67 19.57h-1.83v-.19h1.83zm-1.78-.05h1.73v-.09h-1.73z"/><path d="m18.54 18.74h.43v.67h-.43z" fill="#ff0"/><path d="m19 19.43h-.47v-.72h.47zm-.43-.05h.38v-.62h-.38z"/><path d="m19.59 20.31h-1.67l.06-.63h1.55z" fill="#ff0"/><path d="m19.61 20.34h-1.71l.06-.68h1.59zm-1.61-.05h1.61v-.58h-1.61z"/><path d="m19.18 20.39a.79.79 0 0 0 -.43-.79.79.79 0 0 0 -.42.79z" fill="#ff0"/><path d="m19.2 20.41h-.89a.82.82 0 0 1 .44-.81.82.82 0 0 1 .44.81zm-.85 0h.8a.74.74 0 0 0 -.4-.74.76.76 0 0 0 -.4.7z"/><path d="m17.83 20.31h1.84v.14h-1.84z" fill="#ff0"/><path d="m19.7 20.48h-1.89v-.19h1.89zm-1.84-.05h1.79v-.09h-1.79z"/><path d="m17.93 19.54h1.65v.14h-1.65z" fill="#ff0"/><path d="m19.6 19.71h-1.69v-.19h1.69zm-1.6-.05h1.59v-.09h-1.59z"/><path d="m18.93 18.46v.07h-.1v-.07h-.15v.07h-.1v-.07h-.1v.28h.54v-.28z" fill="#ff0"/><path d="m19.05 18.76h-.59v-.32h.15v.06h.05v-.06h.19v.06-.06h.15zm-.54-.05h.49v-.22.06h-.14v-.06h-.16v.06h-.14v-.06z"/><path d="m19.08 19.03h.43v.38h-.43z" fill="#ff0"/><path d="m19.53 19.43h-.47v-.43h.47zm-.43-.05h.38v-.33h-.38z"/><path d="m19.46 18.76v.06h-.09v-.06h-.15v.06h-.1v-.06h-.1v.27h.54v-.27z" fill="#ff0"/><path d="m19.59 19.05h-.59v-.32h.15v.07h.05v-.07h.19v.07h.05v-.07h.15zm-.54 0h.49v-.23h-.05v.06h-.15v-.06h-.1v.06h-.14v-.06h-.05z"/><path d="m18.71 18.91h.09v.18h-.09z"/><path d="m19.26 19.16h.06v.12h-.06z"/><path d="m18 19.03h.43v.38h-.43z" fill="#ff0" transform="matrix(-1 0 0 -1 36.43 38.43)"/><path d="m18.45 19.43h-.45v-.43h.47zm-.45-.05h.38v-.33h-.38z"/><path d="m18.04 18.76v.06h.1v-.06h.15v.06h.1v-.06h.09v.27h-.53v-.27z" fill="#ff0"/><path d="m18.51 19.05h-.59v-.32h.15v.07h.05v-.07h.19v.07h.05v-.07h.15zm-.51-.05h.49v-.23h-.05v.06h-.14v-.06h-.11v.06h-.19v-.06z"/><path d="m18.19 19.16h.06v.12h-.06z" transform="matrix(-1 0 0 -1 36.43 38.43)"/><path d="m19 20.31c0-.35-.11-.44-.24-.44s-.23.09-.23.44z" fill="#ff0"/><path d="m19 20.34h-.53c0-.31.09-.46.26-.46s.27.15.27.46zm-.48-.05h.48c0-.27-.07-.4-.22-.4s-.24.11-.24.4z"/><path d="m16.81 24.25h1.77v.14h-1.77z" fill="#ff0" transform="matrix(.70698336 .70723018 -.70723018 .70698336 22.39 -5.39)"/><path d="m18.27 25-1.27-1.25.13-.14 1.29 1.29zm-1.22-1.28 1.22 1.28.07-.07-1.22-1.22z"/><path d="m17.77 23.71h.43v.67h-.43z" fill="#ff0" transform="matrix(.70698336 .70723018 -.70723018 .70698336 22.27 -5.67)"/><path d="m17.9 24.46-.34-.34.5-.5.34.34zm-.27-.34.27.27.43-.43-.27-.27z"/><path d="m17.69 25.51-1.18-1.18.49-.41 1.09 1.1z" fill="#ff0"/><path d="m17.69 25.54-1.21-1.21.52-.44 1.13 1.11zm-1.14-1.21 1.14 1.14.37-.45-1.06-1.02z"/><path d="m17.35 25.27a.81.81 0 0 0 .26-.86.81.81 0 0 0 -.86.26z" fill="#ff0"/><path d="m17.35 25.31-.64-.64a.85.85 0 0 1 .89-.26.85.85 0 0 1 -.26.89zm-.57-.64.57.57a.8.8 0 0 0 .24-.81.8.8 0 0 0 -.81.24z"/><path d="m16.13 24.9h1.84v.14h-1.84z" fill="#ff0" transform="matrix(.70698336 .70723018 -.70723018 .70698336 22.66 -4.74)"/><path d="m17.65 25.7-1.33-1.33.13-.14 1.34 1.34zm-1.26-1.33 1.26 1.26.07-.06-1.27-1.27z"/><path d="m16.77 24.35h1.65v.14h-1.65z" fill="#ff0" transform="matrix(.70698336 .70723018 -.70723018 .70698336 22.43 -5.29)"/><path d="m18.13 25.09-1.2-1.2.13-.13 1.2 1.2zm-1.13-1.2 1.13 1.11.06-.06-1.13-1.13z"/><path d="m18.53 23.73-.05.05-.06-.07.04-.05-.1-.1-.05.04-.07-.06.05-.05-.07-.07-.2.19.39.39.19-.2z" fill="#ff0"/><path d="m18.41 24-.41-.39.23-.22.1.1v.05l.05-.05.13.14v.05h.05l.1.1zm-.35-.42.35.35.16-.16h-.05l-.1-.1.05-.05-.07-.07-.05.05-.1-.1v-.05z"/><path d="m18.05 24.34h.43v.38h-.43z" fill="#ff0" transform="matrix(.70710678 .70710678 -.70710678 .70710678 22.69 -5.73)"/><path d="m18.28 24.84-.34-.33.3-.3.34.33zm-.28-.33.27.26.23-.23-.27-.27z"/><path d="m18.71 24.32-.05.04-.07-.06.05-.05-.11-.1-.04.04-.07-.07.04-.04-.07-.07-.19.19.38.38.2-.19z" fill="#ff0"/><path d="m18.58 24.62-.41-.42.22-.23.11.11h-.05v-.05l.14.14v.05h.05l.1.1zm-.35-.42.35.35.16-.16h-.05l-.1-.1v-.05l-.07-.07-.1-.1z"/><path d="m17.98 23.9h.09v.18h-.09z" transform="matrix(.70710678 .70710678 -.70710678 .70710678 22.24 -5.72)"/><path d="m18.24 24.59-.05-.04.09-.09.04.04z"/><path d="m17.28 23.57h.43v.38h-.43z" fill="#ff0" transform="matrix(-.70710678 -.70710678 .70710678 -.70710678 13.07 52.93)"/><path d="m17.51 24.08-.33-.34.3-.3.33.34zm-.26-.34.26.27.24-.23-.27-.27z"/><path d="m17.7 23.31-.04.05.06.07.05-.05.1.11-.04.04.07.07.04-.05.07.08-.19.19-.38-.38.19-.2z" fill="#ff0"/><path d="m17.82 23.85-.42-.41.23-.23.1.1v.05h.05l.14.14h-.05v-.05l.11.11zm-.35-.41.35.35.16-.16-.1-.1-.07-.07h-.05l-.1-.1.05-.05z"/><path d="m17.47 23.7h.06v.12h-.06z" transform="matrix(-.70710678 -.70710678 .70710678 -.70710678 13.07 52.93)"/><path d="m17.27 25.09c.25-.25.23-.4.15-.49s-.24-.1-.49.15z" fill="#ff0"/><path d="m17.27 25.12-.37-.37a.62.62 0 0 1 .31-.2.19.19 0 0 1 .2.06c.13.12.08.29-.14.51zm-.3-.37.3.3c.19-.19.23-.33.13-.43a.19.19 0 0 0 -.16-.05.63.63 0 0 0 -.24.18z"/><path d="m8.71 14.7h1.77v.14h-1.77z" fill="#ff0" transform="matrix(-1 0 0 -1 19.19 29.54)"/><path d="m10.51 14.86h-1.83v-.19h1.83zm-1.78 0h1.73v-.09h-1.73z"/><path d="m9.38 14.03h.43v.67h-.43z" fill="#ff0" transform="matrix(-1 0 0 -1 19.19 28.73)"/><path d="m9.83 14.72h-.47v-.72h.47zm-.43-.05h.38v-.61h-.38z"/><path d="m8.76 15.61h1.67l-.06-.63h-1.55z" fill="#ff0"/><path d="m10.45 15.63h-1.72l.07-.63h1.59zm-1.66-.05h1.61l-.05-.58h-1.51z"/><path d="m9.17 15.68a.8.8 0 0 1 .42-.79.8.8 0 0 1 .43.79z" fill="#ff0"/><path d="m10 15.71h-.85a.82.82 0 0 1 .44-.81.82.82 0 0 1 .44.81zm-.85-.05h.85a.76.76 0 0 0 -.4-.74.78.78 0 0 0 -.41.74z"/><path d="m8.67 15.61h1.84v.14h-1.84z" fill="#ff0" transform="matrix(-1 0 0 -1 19.19 31.35)"/><path d="m10.54 15.77h-1.89v-.19h1.89zm-1.84 0h1.79v-.09h-1.79z"/><path d="m8.77 14.84h1.65v.14h-1.65z" fill="#ff0" transform="matrix(-1 0 0 -1 19.19 29.81)"/><path d="m10.44 15h-1.69v-.19h1.69zm-1.64 0h1.59v-.09h-1.59z"/><path d="m9.42 13.76v.06h.1v-.06h.15v.06h.1v-.06h.09v.27h-.54v-.27z" fill="#ff0"/><path d="m9.89 14.06h-.59v-.33h.15v.07h.05v-.07h.19v.07h.05v-.07h.15zm-.54-.06h.49v-.23h-.05v.07h-.14v-.07h-.11v.07h-.14v-.07h-.05z"/><path d="m8.84 14.32h.43v.38h-.43z" fill="#ff0" transform="matrix(-1 0 0 -1 18.11 29.02)"/><path d="m9.29 14.72h-.47v-.42h.47zm-.43-.05h.38v-.32h-.38z"/><path d="m8.88 14.05v.06h.1v-.06h.15v.06h.09v-.06h.1v.27h-.53v-.27z" fill="#ff0"/><path d="m9.35 14.35h-.59v-.35h.15v.06h.09v-.06h.19v.06-.06h.15zm-.54 0h.49v-.23h-.05v.07h-.14v-.07h-.11v.07h-.14v-.07z"/><path d="m9.55 14.2h.09v.18h-.09z" transform="matrix(-1 0 0 -1 19.19 28.59)"/><path d="m9.02 14.45h.06v.12h-.06z" transform="matrix(-1 0 0 -1 18.11 29.02)"/><path d="m9.92 14.32h.43v.38h-.43z" fill="#ff0"/><path d="m10.37 14.72h-.47v-.42h.47zm-.43-.05h.38v-.32h-.38z"/><path d="m10.3 14.05v.06h-.09v-.06h-.15v.06h-.1v-.06h-.1v.27h.54v-.27z" fill="#ff0"/><path d="m10.43 14.35h-.59v-.35h.16v.06-.06h.19v.06-.06h.15zm-.54 0h.49v-.23h-.05v.07h-.15v-.07h-.1v.07h-.14v-.07z"/><path d="m10.1 14.45h.06v.12h-.06z"/><path d="m9.36 15.61c0-.35.11-.45.23-.45s.24.1.24.45z" fill="#ff0"/><path d="m9.86 15.63h-.53c0-.31.09-.47.26-.47s.27.16.27.47zm-.48-.05h.43c0-.26-.07-.39-.22-.39s-.21.13-.21.39z"/><path d="m8.71 19.4h1.77v.14h-1.77z" fill="#ff0" transform="matrix(-1 0 0 -1 19.19 38.95)"/><path d="m10.51 19.57h-1.83v-.19h1.83zm-1.78-.05h1.73v-.09h-1.73z"/><path d="m9.38 18.74h.43v.67h-.43z" fill="#ff0" transform="matrix(-1 0 0 -1 19.19 38.14)"/><path d="m9.83 19.43h-.47v-.72h.47zm-.43-.05h.38v-.62h-.38z"/><path d="m8.76 20.31h1.67l-.06-.63h-1.55z" fill="#ff0"/><path d="m10.45 20.34h-1.72l.07-.68h1.59zm-1.66-.05h1.61l-.05-.58h-1.51z"/><path d="m9.17 20.39a.79.79 0 0 1 .42-.79.79.79 0 0 1 .43.79z" fill="#ff0"/><path d="m10 20.41h-.85a.82.82 0 0 1 .44-.81.82.82 0 0 1 .44.81zm-.85 0h.85a.74.74 0 0 0 -.4-.74.76.76 0 0 0 -.41.7z"/><path d="m8.67 20.31h1.84v.14h-1.84z" fill="#ff0" transform="matrix(-1 0 0 -1 19.19 40.77)"/><path d="m10.54 20.48h-1.89v-.19h1.89zm-1.84-.05h1.79v-.09h-1.79z"/><path d="m8.77 19.54h1.65v.14h-1.65z" fill="#ff0" transform="matrix(-1 0 0 -1 19.19 39.23)"/><path d="m10.44 19.71h-1.69v-.19h1.69zm-1.64-.05h1.59v-.09h-1.59z"/><path d="m9.42 18.46v.07h.1v-.07h.15v.07h.1v-.07h.09v.28h-.54v-.28z" fill="#ff0"/><path d="m9.89 18.76h-.59v-.32h.15v.06h.05v-.06h.19v.06h.05v-.06h.15zm-.54-.05h.49v-.22h-.05v.06h-.14v-.06h-.11v.06h-.14v-.06h-.05z"/><path d="m8.84 19.03h.43v.38h-.43z" fill="#ff0" transform="matrix(-1 0 0 -1 18.11 38.43)"/><path d="m9.29 19.43h-.47v-.43h.47zm-.43-.05h.38v-.33h-.38z"/><path d="m8.88 18.76v.06h.1v-.06h.15v.06h.09v-.06h.1v.27h-.53v-.27z" fill="#ff0"/><path d="m9.35 19.05h-.59v-.32h.15v.07h.09v-.07h.19v.07-.07h.15zm-.54 0h.49v-.23h-.05v.06h-.14v-.06h-.11v.06h-.14v-.06z"/><path d="m9.55 18.91h.09v.18h-.09z" transform="matrix(-1 0 0 -1 19.19 38)"/><path d="m9.02 19.16h.06v.12h-.06z" transform="matrix(-1 0 0 -1 18.11 38.43)"/><path d="m9.92 19.03h.43v.38h-.43z" fill="#ff0"/><path d="m10.37 19.43h-.47v-.43h.47zm-.43-.05h.38v-.33h-.38z"/><path d="m10.3 18.76v.06h-.09v-.06h-.15v.06h-.1v-.06h-.1v.27h.54v-.27z" fill="#ff0"/><path d="m10.43 19.05h-.59v-.32h.16v.07-.07h.19v.07-.07h.15zm-.54 0h.49v-.23h-.05v.06h-.15v-.06h-.1v.06h-.14v-.06z"/><path d="m10.1 19.16h.06v.12h-.06z"/><path d="m9.36 20.31c0-.35.11-.44.23-.44s.24.09.24.44z" fill="#ff0"/><path d="m9.86 20.34h-.53c0-.31.09-.46.26-.46s.27.15.27.46zm-.48-.05h.43c0-.27-.07-.4-.22-.4s-.21.11-.21.4z"/><path d="m9.77 24.25h1.77v.14h-1.77z" fill="#ff0" transform="matrix(-.70698336 .70723018 -.70723018 -.70698336 35.39 33.99)"/><path d="m10.08 25-.14-.13 1.29-1.29.13.14zm-.08-.1.07.07 1.22-1.22-.07-.07z"/><path d="m10.16 23.71h.43v.67h-.43z" fill="#ff0" transform="matrix(-.70698336 .70723018 -.70723018 -.70698336 34.7 33.7)"/><path d="m10.45 24.46-.45-.46.33-.34.51.5zm-.45-.46.43.43.27-.27-.44-.43z"/><path d="m10.66 25.51 1.18-1.18-.49-.41-1.1 1.1z" fill="#ff0"/><path d="m10.66 25.54-.44-.54 1.13-1.13.52.44zm-.37-.54.37.45 1.14-1.14-.45-.31z"/><path d="m11 25.27a.81.81 0 0 1 -.26-.86.81.81 0 0 1 .86.26z" fill="#ff0"/><path d="m11 25.31a.85.85 0 0 1 -.26-.89.85.85 0 0 1 .89.26zm-.24-.88a.8.8 0 0 0 .24.81l.57-.57a.8.8 0 0 0 -.81-.24z"/><path d="m10.38 24.9h1.84v.14h-1.84z" fill="#ff0" transform="matrix(-.70698336 .70723018 -.70723018 -.70698336 36.94 34.63)"/><path d="m10.7 25.7-.14-.13 1.34-1.34.13.14zm-.07-.13.07.06 1.3-1.26-.06-.07z"/><path d="m9.93 24.35h1.65v.14h-1.65z" fill="#ff0" transform="matrix(-.70698336 .70723018 -.70723018 -.70698336 35.63 34.08)"/><path d="m10.22 25.09-.13-.09 1.2-1.2.13.13zm-.07-.09.07.06 1.13-1.13-.06-.06z"/><path d="m9.82 23.73.05.05.06-.07-.04-.05.1-.1.05.04.07-.06-.05-.05.07-.07.19.19-.38.39-.19-.2z" fill="#ff0"/><path d="m9.94 24-.22-.23.1-.1-.05-.05.14-.14v.05-.05l.1-.1.23.22zm-.16-.23.16.16.35-.35-.16-.16.05.05-.1.1v-.05l-.07.07.05.05-.11.1z"/><path d="m9.88 24.34h.43v.38h-.43z" fill="#ff0" transform="matrix(-.70710678 .70710678 -.70710678 -.70710678 34.57 34.73)"/><path d="m10.07 24.84-.3-.3.34-.33.3.3zm-.23-.3.23.23.27-.26-.23-.24z"/><path d="m9.64 24.32.05.04.07-.06-.05-.05.11-.1.04.04.07-.07-.05-.04.08-.07.19.19-.38.38-.2-.19z" fill="#ff0"/><path d="m9.77 24.62-.23-.23.1-.1v-.05l.14-.14v.05h-.05l.27-.15.23.23zm-.16-.23.16.16.34-.35-.11-.2-.1.1-.07.07v.05l-.1.1z"/><path d="m10.27 23.9h.09v.18h-.09z" transform="matrix(-.70760026 .70661296 -.70661296 -.70760026 34.57 33.68)"/><path d="m10.11 24.59.04-.04-.08-.09-.04.04z"/><path d="m10.64 23.57h.43v.38h-.43z" fill="#ff0" transform="matrix(.70710678 -.70710678 .70710678 .70710678 -13.62 14.63)"/><path d="m10.84 24.08-.3-.3.33-.34.3.3zm-.24-.3.24.23.26-.27-.23-.23z"/><path d="m10.65 23.31.04.05-.06.07-.05-.05-.11.11.05.04-.07.07-.04-.05-.07.08.19.19.38-.38-.19-.2z" fill="#ff0"/><path d="m10.53 23.85-.23-.22.11-.11v.05h-.05l.14-.14h.05l-.05-.05.11-.1.23.23zm-.16-.22.16.16.35-.35-.16-.16.05.05-.1.1h-.05l-.07.07-.1.1z"/><path d="m10.82 23.7h.06v.12h-.06z" transform="matrix(.70710678 -.70710678 .70710678 .70710678 -13.62 14.63)"/><path d="m11.08 25.09c-.25-.25-.23-.4-.15-.49s.24-.1.49.15z" fill="#ff0"/><path d="m11.08 25.12c-.22-.22-.27-.39-.14-.51a.19.19 0 0 1 .2-.06.62.62 0 0 1 .31.2zm0-.55a.18.18 0 0 0 -.12.05c-.1.1-.06.24.13.43l.3-.3a.63.63 0 0 0 -.27-.18z"/><path d="m13.88 10.2h.62v3.16h-.62z" fill="#ff0"/><path d="m14.52 13.39h-.67v-3.22h.67zm-.62-.05h.57v-3.12h-.57z"/><path d="m14.49 10.09h.22v3.27h-.22z" fill="#ff0"/><path d="m14.74 13.39h-.27v-3.32h.27zm-.22-.05h.17v-3.22h-.17z"/><path d="m13.65 10.09h.22v3.27h-.22z" fill="#ff0" transform="matrix(-1 0 0 -1 27.53 23.46)"/><path d="m13.9 13.39h-.27v-3.32h.27zm-.22-.05h.17v-3.22h-.17z"/></svg>