<svg xmlns="http://www.w3.org/2000/svg" viewBox="0 0 40.5 40.5"><defs><style>.cls-1{fill:#060;}.cls-2{fill:red;}.cls-3{fill:#919100;}.cls-4{fill:#ff0;}.cls-5{fill:#231f20;}.cls-6{fill:#fff;}.cls-7{fill:#039;}</style></defs><g id="Ebene_2" data-name="Ebene 2"><g id="Ńëîé_1" data-name="Ńëîé 1"><path class="cls-1" d="M14.18.92V39.58a20.27,20.27,0,0,1,0-38.66Z"/><path class="cls-1" d="M14.18.92V39.58a20.27,20.27,0,0,1,0-38.66Z"/><path class="cls-2" d="M40.5,20.25A20.28,20.28,0,0,1,14.18,39.58V.92A20.28,20.28,0,0,1,40.5,20.25Z"/><polygon class="cls-3" points="5.65 25.8 6.12 26.15 5.81 25.56 5.65 25.8"/><path d="M6.12,26.17h0l-.48-.35s0,0,0,0l.16-.24h0l.3.59s0,0,0,0Zm-.44-.37.37.27-.24-.46Z"/><polygon class="cls-3" points="5.23 25.05 5.62 25.39 5.68 24.95 5.44 24.73 5.23 25.05"/><path d="M5.62,25.41h0l-.38-.34s0,0,0,0l.21-.33h0l.24.23v0l-.06.43a0,0,0,0,1,0,0Zm-.36-.36.34.29L5.65,25l-.2-.2Z"/><polygon class="cls-3" points="5.56 14.75 5.7 15.22 6.04 15.14 6.01 14.81 6 14.61 5.56 14.75"/><path d="M5.7,15.25l0,0-.14-.47s0,0,0,0L6,14.59H6v0l0,.53s0,0,0,0l-.33.08Zm-.11-.48.13.43L6,15.13l0-.49Z"/><path class="cls-4" d="M5.55,17.32a14,14,0,0,0,1.73,1.32c.52.27,1.34-.27,1.34-.27l.11-1.6-1.31-.59-1.53-.32Z"/><path d="M7.62,18.74a.78.78,0,0,1-.35-.07,15.89,15.89,0,0,1-1.74-1.33,0,0,0,0,1,0,0l.34-1.47a0,0,0,0,1,0,0l1.53.32h0l1.31.59v0l-.11,1.6v0A2.18,2.18,0,0,1,7.62,18.74Zm-2-1.43a14.13,14.13,0,0,0,1.71,1.31c.47.25,1.21-.2,1.3-.26l.11-1.57-1.29-.58-1.5-.32Z"/><path d="M7.52,18.59h0c-.41-.24-1.82-1.41-1.83-1.42a0,0,0,0,1,0,0s0,0,0,0,1.41,1.18,1.83,1.42a0,0,0,0,1,0,0Z"/><polygon class="cls-3" points="4.8 16.25 4.98 16.78 5.21 16.14 4.93 16.14 4.8 16.25"/><path d="M5,16.8H5s0,0,0,0l-.18-.53a0,0,0,0,1,0,0l.12-.11h.32s0,0,0,0L5,16.79S5,16.8,5,16.8Zm-.15-.54.15.45.2-.55H4.94Z"/><polygon class="cls-4" points="18.48 25.34 19.99 26.06 22.03 25.57 20.61 23.89 19.74 23.53 18.48 25.34"/><path d="M20,26.08h0l-1.51-.72s0,0,0,0,0,0,0,0l1.25-1.8s0,0,0,0l.87.35h0L22,25.55a0,0,0,0,1,0,0h0l-2,.49Zm-1.47-.75L20,26l2-.48-1.39-1.64-.84-.35Z"/><path d="M20,25.81h0l-1.32-.59s0,0,0,0h0l1.32.59s0,0,0,0A0,0,0,0,1,20,25.81Z"/><polygon class="cls-3" points="23.09 25.21 22.72 25.32 22.78 24.93 23.03 24.85 23.11 25.02 23.09 25.21"/><path d="M22.72,25.34h0a0,0,0,0,1,0,0l.05-.39s0,0,0,0l.25-.07s0,0,0,0l.08.16v0l0,.19a0,0,0,0,1,0,0l-.36.11Zm.08-.4-.05.34.31-.09,0-.17L23,24.88Zm.29.27Z"/><polygon class="cls-3" points="22.16 26.64 21.79 26.67 21.83 26.27 22.09 26.17 22.19 26.39 22.16 26.64"/><path d="M21.79,26.69h0v0l0-.4v0l.26-.1h0l.1.22h0l0,.26a0,0,0,0,1,0,0l-.37,0Zm.37-.05Zm-.31-.35,0,.35.32,0,0-.22-.1-.2Z"/><path class="cls-4" d="M17.8,26a23.71,23.71,0,0,0,4.34-.76c1-.46-1.4,1.34-1.4,1.34a30.41,30.41,0,0,1-6.25.77Z"/><path d="M14.49,27.33h-.12l3.42-1.4a22.32,22.32,0,0,0,4.34-.77c.21-.09.26-.08.28-.05s.06.1-.8.78l-.86.66h0A30,30,0,0,1,14.49,27.33ZM17.8,26l-3.19,1.3a31.07,31.07,0,0,0,6.12-.77,10.42,10.42,0,0,0,1.64-1.37s-.06,0-.22.07A23.53,23.53,0,0,1,17.8,26Z"/><path d="M17.56,26.27a0,0,0,0,1,0,0s0,0,0,0a34.78,34.78,0,0,0,4-.67,0,0,0,0,1,0,0s0,0,0,0a33.65,33.65,0,0,1-4.06.68Z"/><path d="M15.94,27.06a0,0,0,0,1,0,0s0,0,0,0a30.23,30.23,0,0,0,5-.79s0,0,0,0,0,0,0,0a28.53,28.53,0,0,1-5.07.79Z"/><path class="cls-4" d="M10.57,26a23.71,23.71,0,0,1-4.34-.76c-1-.46,1.4,1.34,1.4,1.34a30.41,30.41,0,0,0,6.25.77Z"/><path d="M14,27.33h-.12a30.31,30.31,0,0,1-6.26-.78h0l-.86-.66c-.86-.68-.83-.74-.81-.78s.08,0,.29.05a22.37,22.37,0,0,0,4.33.77h0Zm-6.36-.82a31,31,0,0,0,6.11.77L10.57,26a23.53,23.53,0,0,1-4.35-.77c-.16-.07-.21-.08-.22-.07A10.42,10.42,0,0,0,7.64,26.51Z"/><path d="M10.81,26.27h0a33.84,33.84,0,0,1-4.05-.68s0,0,0,0a0,0,0,0,1,0,0,34.44,34.44,0,0,0,4,.67s0,0,0,0A0,0,0,0,1,10.81,26.27Z"/><path d="M12.43,27.06h0a28.53,28.53,0,0,1-5.07-.79s0,0,0,0,0,0,0,0a30.23,30.23,0,0,0,5.05.79,0,0,0,0,1,0,0A0,0,0,0,1,12.43,27Z"/><path class="cls-4" d="M20,21a16.38,16.38,0,0,0,3.34-.78c.64-.4-.21,1.19-.21,1.19a22,22,0,0,1-3.11.66C19.3,22.07,20,21,20,21Z"/><path d="M20,22.1a.31.31,0,0,1-.31-.15c-.17-.29.25-.94.27-1h0a16.63,16.63,0,0,0,3.34-.79c.11-.07.19-.08.24,0s-.36,1.16-.42,1.28h0A23.17,23.17,0,0,1,20,22.1ZM20,21c-.05.08-.4.66-.26.91q.06.12.27.12a21.33,21.33,0,0,0,3.1-.66c.22-.41.52-1.1.41-1.2s-.09,0-.18,0A15.71,15.71,0,0,1,20,21Z"/><path d="M20.06,21.22s0,0,0,0,0,0,0,0a18.26,18.26,0,0,0,3.19-.64,0,0,0,0,1,0,0,0,0,0,0,1,0,0,17.86,17.86,0,0,1-3.2.65Z"/><path d="M20,21.87s0,0,0,0,0,0,0,0a24.15,24.15,0,0,0,3.14-.68h0s0,0,0,0a25.47,25.47,0,0,1-3.16.69Z"/><path class="cls-4" d="M8.35,21A16.38,16.38,0,0,1,5,20.22c-.64-.4.21,1.19.21,1.19a22,22,0,0,0,3.11.66C9.05,22.07,8.35,21,8.35,21Z"/><path d="M8.33,22.1a23.17,23.17,0,0,1-3.12-.66h0c-.06-.12-.58-1.12-.41-1.28s.13,0,.24,0A16.72,16.72,0,0,0,8.35,21h0s.43.67.27,1A.31.31,0,0,1,8.33,22.1Zm-3.1-.71a21.33,21.33,0,0,0,3.1.66q.21,0,.27-.12c.14-.25-.21-.83-.26-.91A15.58,15.58,0,0,1,5,20.24c-.09-.06-.16-.08-.19,0S5,21,5.23,21.39Z"/><path d="M8.29,21.22h0a17.86,17.86,0,0,1-3.2-.65,0,0,0,0,1,0,0,0,0,0,0,1,0,0,18.08,18.08,0,0,0,3.19.64s0,0,0,0Z"/><path d="M8.32,21.87h0a25.08,25.08,0,0,1-3.16-.69s0,0,0,0h0a23.8,23.8,0,0,0,3.14.68s0,0,0,0S8.34,21.87,8.32,21.87Z"/><polygon class="cls-3" points="24.32 20.88 24.1 21.13 24.09 20.62 24.24 20.68 24.32 20.88"/><path d="M24.1,21.15h0a0,0,0,0,1,0,0v-.51s0,0,0,0h0l.15.06s0,0,0,0l.07.19a0,0,0,0,1,0,0l-.22.25Zm0-.49v.41l.17-.19-.07-.18Z"/><path class="cls-4" d="M20,15.71a11.74,11.74,0,0,0,1.83-.49l.37,1a16,16,0,0,1-2.2.51Z"/><path d="M20,16.8h0s0,0,0,0V15.71a0,0,0,0,1,0,0,12.83,12.83,0,0,0,1.83-.48s0,0,0,0h0l.36,1v0h0A17.51,17.51,0,0,1,20,16.8Zm0-1.07v1a17.17,17.17,0,0,0,2.15-.51l-.35-1A13.66,13.66,0,0,1,20.05,15.73Z"/><path d="M20.1,16s0,0,0,0,0,0,0,0c.56-.12,1.65-.37,1.76-.43a0,0,0,0,1,0,0,0,0,0,0,1,0,0c-.14.08-1.7.42-1.77.44Z"/><path d="M20.09,16.57a0,0,0,0,1,0,0s0,0,0,0a10.91,10.91,0,0,0,2-.48h0s0,0,0,0a10.24,10.24,0,0,1-2,.5Z"/><polygon class="cls-3" points="23.34 15.86 23.23 15.94 23.09 15.65 23.34 15.86"/><path d="M23.23,16h0s0,0,0,0l-.14-.28s0,0,0,0h0l.24.2s0,0,0,0h0l-.11.08A0,0,0,0,1,23.23,16Zm-.07-.22.08.16.06-.05Z"/><polygon class="cls-3" points="4.03 20.88 4.25 21.13 4.26 20.62 4.11 20.68 4.03 20.88"/><path d="M4.25,21.15h0L4,20.9a0,0,0,0,1,0,0l.07-.19s0,0,0,0l.15-.06h0s0,0,0,0v.51a0,0,0,0,1,0,0Zm-.19-.27.17.19v-.41l-.12,0Z"/><path class="cls-4" d="M24.2,19.75a10.09,10.09,0,0,0-1.15-4.17,9.39,9.39,0,0,0-.56-.92A10,10,0,0,0,6,14.53a.61.61,0,0,1-.07.1h0l-.15.23c-.12.19-.23.39-.34.58l-.06.12a1.74,1.74,0,0,0-.1.19c-.06.12-.12.23-.17.35A10.12,10.12,0,0,0,5.3,25c.13.24.27.48.42.71a10,10,0,0,0,16.51.61,9.26,9.26,0,0,0,.88-1.41,10.1,10.1,0,0,0,1.1-4.24v-.34C24.21,20.1,24.21,19.92,24.2,19.75ZM22.38,24a9.36,9.36,0,0,1-.85,1.47,9,9,0,0,1-14.92-.33c-.15-.24-.29-.49-.43-.75a9,9,0,0,1-.07-8.08,8.83,8.83,0,0,1,.63-1.07,1,1,0,0,1,.11-.17l.07-.1.13-.17.44-.54.15-.15L7.76,14a9,9,0,0,1,13,.14,10.09,10.09,0,0,1,.78,1,9.07,9.07,0,0,1,1.6,4.18,8.69,8.69,0,0,1,.05.89v.14A9.09,9.09,0,0,1,22.38,24Z"/><polygon class="cls-3" points="22.92 15.05 22.73 15.17 22.57 14.77 22.92 15.05"/><path d="M22.73,15.19h0l-.16-.4s0,0,0,0h0l.35.28s0,0,0,0v0l-.18.12Zm-.1-.34.11.28.14-.08Z"/><path class="cls-5" d="M14.18,29.51a9.23,9.23,0,1,1,9.23-9.23A9.24,9.24,0,0,1,14.18,29.51Zm0-18.41a9.18,9.18,0,1,0,9.19,9.18A9.19,9.19,0,0,0,14.18,11.1Z"/><path class="cls-5" d="M14.18,29.31a9,9,0,1,1,9-9A9,9,0,0,1,14.18,29.31Zm0-18a9,9,0,1,0,9,9A9,9,0,0,0,14.18,11.3Z"/><polygon class="cls-3" points="24.32 20.02 24.18 20.17 24.09 19.81 24.23 19.79 24.32 20.02"/><path d="M24.18,20.19h0v0l-.09-.36s0,0,0,0h.16l0,0,.08.22s0,0,0,0l-.13.15Zm-.06-.36.07.29.1-.11-.07-.19Z"/><path class="cls-5" d="M14.18,30.14A9.86,9.86,0,1,1,24,20.28,9.86,9.86,0,0,1,14.18,30.14Zm0-19.67A9.81,9.81,0,1,0,24,20.28,9.83,9.83,0,0,0,14.18,10.47Z"/><path class="cls-5" d="M14.18,30.35A10.07,10.07,0,1,1,24.25,20.28,10.08,10.08,0,0,1,14.18,30.35Zm0-20.09a10,10,0,1,0,10,10A10,10,0,0,0,14.18,10.26Z"/><path class="cls-4" d="M9.17,24.42l-2,.49-.52.23-.51.23-.38.29c-.15-.23-.29-.47-.42-.71l.13-.18.5-.29.25-.09,1.89-.63.71-.14Z"/><path d="M5.71,25.7v0c-.15-.22-.29-.47-.42-.71v0l.15-.19.51-.3,2.13-.71.74-.14.41.84-2.07.49-1,.46ZM5.33,25c.12.23.26.46.39.68l.37-.28,1-.46,2-.48-.37-.76-.7.13-2.13.72-.49.29Z"/><path class="cls-4" d="M8.67,23.54s-2.84.56-3.45,1.29v.22a8.43,8.43,0,0,1,3.46-1.29Z"/><path d="M5.23,25.07h0s0,0,0,0v-.22h0c.61-.74,3.35-1.28,3.47-1.3h0v0l0,.22s0,0,0,0a8.5,8.5,0,0,0-3.44,1.29Zm0-.23V25a8.86,8.86,0,0,1,3.41-1.27v-.17C8.36,23.63,5.82,24.16,5.24,24.84Z"/><path class="cls-4" d="M9,24.34s-2.82.54-3.41,1.27l0,.2a7.78,7.78,0,0,1,3.5-1.23Z"/><path d="M5.65,25.83h0s0,0,0,0l0-.2v0c.59-.73,3.31-1.25,3.42-1.27h0l.12.24v0l0,0a8.07,8.07,0,0,0-3.49,1.21Zm0-.22,0,.15a8.27,8.27,0,0,1,3.45-1.2L9,24.37C8.77,24.42,6.21,24.93,5.64,25.61Z"/><path class="cls-4" d="M23.11,24.86a9.26,9.26,0,0,1-.88,1.41l-.35-.5-.35-.3-1-.84L19.5,23.9l.59-1.76A17.85,17.85,0,0,1,22.38,24,6.19,6.19,0,0,1,23.11,24.86Z"/><path d="M22.23,26.31l-.37-.53-1.31-1.13-1.08-.74.61-1.81,0,0A18.84,18.84,0,0,1,22.39,24a5.73,5.73,0,0,1,.74.87h0a10.46,10.46,0,0,1-.88,1.42Zm-2.7-2.41,1,.71,1.32,1.14.33.48a9.2,9.2,0,0,0,.85-1.37,6,6,0,0,0-.72-.85,18.91,18.91,0,0,0-2.26-1.84Z"/><path class="cls-4" d="M20,22c1.3.73,3.42,2.6,3.16,3.1l-.06.14a0,0,0,0,1-.06,0,1.6,1.6,0,0,0-.31-.68A11.32,11.32,0,0,0,20,22.21Z"/><path d="M23.08,25.24h0s0,0,0,0a1.78,1.78,0,0,0-.31-.67A11.46,11.46,0,0,0,20,22.23s0,0,0,0L20,22h0s0,0,0,0c1.33.74,3.44,2.61,3.18,3.13l-.07.14A.09.09,0,0,1,23.08,25.24Zm0,0h0l.07-.14c.25-.49-1.84-2.32-3.12-3.06l0,.21a11.14,11.14,0,0,1,2.75,2.29,1.92,1.92,0,0,1,.32.7Z"/><path class="cls-4" d="M19.34,23.69c1.29.73,3.18,2.24,2.93,2.74l-.11.21a1.72,1.72,0,0,0-.41-.83A12.33,12.33,0,0,0,19.31,24Z"/><path d="M22.16,26.67h0l0,0a1.63,1.63,0,0,0-.4-.82A11.94,11.94,0,0,0,19.3,24a0,0,0,0,1,0,0l0-.25s0,0,0,0h0c1.34.76,3.2,2.25,2.94,2.77l-.11.21S22.17,26.67,22.16,26.67Zm-2.82-2.74a12.2,12.2,0,0,1,2.42,1.87,1.69,1.69,0,0,1,.41.77l.07-.15c.24-.47-1.57-1.94-2.88-2.69Z"/><path class="cls-4" d="M24.21,20.28v.34a10.56,10.56,0,0,0-1-.48,5.2,5.2,0,0,0-.55-.21A12.92,12.92,0,0,0,20,19.34c-.55.13,0-.87,0-.87a22.47,22.47,0,0,1,2.61.6l.51.18a8.06,8.06,0,0,1,1.08.5C24.21,19.92,24.21,20.1,24.21,20.28Z"/><path d="M24.21,20.65h0c-.34-.18-.69-.34-1-.48-.18-.08-.37-.15-.55-.21A12.88,12.88,0,0,0,20,19.36c-.11,0-.18,0-.22,0s.19-.79.23-.86h0a21,21,0,0,1,2.62.6l.5.18a7.32,7.32,0,0,1,1.09.5s0,0,0,0c0,.18,0,.35,0,.53s0,.23,0,.34v0ZM20,19.31a13.21,13.21,0,0,1,2.65.59l.56.21c.33.14.67.3,1,.47,0-.1,0-.2,0-.3s0-.34,0-.52a8,8,0,0,0-1.06-.49l-.51-.18A21.13,21.13,0,0,0,20,18.5c-.1.18-.33.65-.23.79s.09.05.18,0Z"/><path class="cls-4" d="M20.06,18.35c1.48.24,3.65.79,4.26,1.43V20s-1.06-.95-4.26-1.45Z"/><path d="M24.32,20h0s-1.09-.95-4.25-1.45a0,0,0,0,1,0,0v-.22s0,0,0,0h0c1.65.27,3.7.83,4.27,1.43,0,0,0,0,0,0V20a0,0,0,0,1,0,0Zm-4.24-1.49A9.56,9.56,0,0,1,24.29,20v-.18c-.57-.59-2.57-1.14-4.21-1.41Z"/><path class="cls-4" d="M20.06,19.22c1.5.18,3.65.79,4.26,1.42v.24s-1.05-1-4.26-1.45Z"/><path d="M24.32,20.91h0s-1.08-1-4.25-1.44c0,0,0,0,0,0V19.2h0c1.59.2,3.69.82,4.27,1.43a0,0,0,0,1,0,0v.24a0,0,0,0,1,0,0Zm-4.24-1.5a8.75,8.75,0,0,1,4.21,1.42v-.18c-.58-.6-2.64-1.21-4.21-1.41Z"/><polygon class="cls-3" points="4.03 20.02 4.17 20.17 4.26 19.81 4.11 19.79 4.03 20.02"/><path d="M4.17,20.19h0L4,20s0,0,0,0l.08-.22s0,0,0,0h.16v0l-.09.36v0ZM4.06,20l.1.11.07-.29h-.1Z"/><path class="cls-4" d="M4.14,20.28v.34a10.56,10.56,0,0,1,1-.48,4.48,4.48,0,0,1,.55-.21,12.92,12.92,0,0,1,2.65-.59c.55.13,0-.87,0-.87a22.47,22.47,0,0,0-2.61.6l-.51.18a8.06,8.06,0,0,0-1.08.5C4.14,19.92,4.14,20.1,4.14,20.28Z"/><path d="M4.14,20.65h0s0,0,0,0,0-.23,0-.34,0-.35,0-.53c0,0,0,0,0,0a7.32,7.32,0,0,1,1.09-.5l.5-.18a21.53,21.53,0,0,1,2.61-.6h0c0,.07.38.67.23.86s-.11.07-.22,0A12.88,12.88,0,0,0,5.74,20c-.18.06-.37.13-.55.21-.34.14-.69.3-1,.48Zm0-.89c0,.18,0,.35,0,.52s0,.2,0,.3c.33-.17.67-.33,1-.47l.56-.21a13.21,13.21,0,0,1,2.65-.59h0c.09,0,.15,0,.18,0s-.13-.61-.23-.79a21.12,21.12,0,0,0-2.6.59l-.5.18A8.84,8.84,0,0,0,4.17,19.76Z"/><path class="cls-4" d="M8.29,18.35c-1.48.24-3.65.79-4.26,1.43V20s1.06-.95,4.26-1.45Z"/><path d="M4,20H4s0,0,0,0v-.24s0,0,0,0c.57-.6,2.61-1.16,4.27-1.43h0s0,0,0,0v.22a0,0,0,0,1,0,0C5.14,19.09,4.06,20,4.05,20Zm0-.25V20a9.56,9.56,0,0,1,4.21-1.42v-.17C6.63,18.65,4.63,19.2,4.06,19.79Z"/><path class="cls-4" d="M8.29,19.22C6.79,19.4,4.64,20,4,20.64v.24s1-1,4.26-1.45Z"/><path d="M4,20.91H4s0,0,0,0v-.24a0,0,0,0,1,0,0C4.6,20,6.7,19.39,8.29,19.19h0v.23s0,0,0,0c-3.17.44-4.24,1.43-4.25,1.44Zm0-.26v.18a8.75,8.75,0,0,1,4.21-1.42v-.17C6.7,19.44,4.64,20.05,4.06,20.65Z"/><path class="cls-4" d="M23.05,15.58c-.34-.13-.94-.34-1.53-.51A5.1,5.1,0,0,0,20,14.8L20,14s.3,0,.73.13a7.48,7.48,0,0,1,1.75.54A9.39,9.39,0,0,1,23.05,15.58Z"/><path d="M23.05,15.6h0c-.31-.11-.92-.33-1.53-.5A4.69,4.69,0,0,0,20,14.82h0v0L20,14s0,0,0,0h0l.73.13a8.6,8.6,0,0,1,1.76.54h0c.2.3.39.61.56.92a0,0,0,0,1,0,0Zm-2.94-.83a5.76,5.76,0,0,1,1.42.28c.57.16,1.14.37,1.47.48-.16-.29-.34-.58-.52-.86a8.46,8.46,0,0,0-1.75-.53L20,14l0,.76Z"/><rect class="cls-4" x="13.88" y="27.3" width="0.62" height="3.05"/><path d="M14.52,30.38h-.67v-3.1h.67Zm-.62-.05h.57v-3H13.9Z"/><rect class="cls-4" x="14.49" y="27.23" width="0.22" height="3.25"/><path d="M14.74,30.5h-.27V27.2h.27Zm-.22-.05h.17v-3.2h-.17Z"/><rect class="cls-4" x="13.65" y="27.23" width="0.22" height="3.25" transform="translate(27.53 57.7) rotate(180)"/><path d="M13.9,30.5h-.27V27.2h.27Zm-.22-.05h.17v-3.2h-.17Z"/><path class="cls-4" d="M20.06,14.67a16.15,16.15,0,0,1,3.11.88l.17.3a13.31,13.31,0,0,0-3.27-1Z"/><path d="M23.34,15.88h0a13,13,0,0,0-3.26-1,0,0,0,0,1,0,0l0-.23v0h0a16.87,16.87,0,0,1,3.13.89h0l.16.3a0,0,0,0,1,0,0A0,0,0,0,1,23.34,15.88Zm-3.25-1a13.45,13.45,0,0,1,3.19.93l-.12-.23a15.35,15.35,0,0,0-3.08-.87Z"/><path class="cls-4" d="M20.07,13.88a8.34,8.34,0,0,1,2.64.84l.21.33a7.34,7.34,0,0,0-2.83-1Z"/><path d="M22.92,15.07h0a7.21,7.21,0,0,0-2.81-.94l0,0,0-.22a0,0,0,0,1,0,0h0a8.27,8.27,0,0,1,2.64.84h0l.21.34a0,0,0,0,1,0,0Zm-2.81-1a8.34,8.34,0,0,1,2.73.89l-.15-.24a8.13,8.13,0,0,0-2.59-.82Z"/><path class="cls-4" d="M8.36,14.8H8.28a5.77,5.77,0,0,0-1.43.28h0c-.44.13-.89.28-1.22.4l-.28.1.06-.12c.11-.19.22-.39.34-.58l.15-.23.35-.14a8.48,8.48,0,0,1,1.38-.38h0c.28-.06.51-.09.63-.11h.07Z"/><path d="M5.33,15.59h0s0,0,0,0l.06-.12c.11-.2.22-.39.34-.58s.11-.17.16-.23h0l.35-.14a8.47,8.47,0,0,1,1.39-.39h0L8.26,14l.08,0h0v0l0,.81v0h-.1a5.32,5.32,0,0,0-1.42.27h0c-.46.13-.92.28-1.23.39l-.24.09h0Zm.57-.93-.15.22c-.12.19-.23.39-.34.58l0,.06.22-.07c.3-.11.76-.27,1.22-.4h0a5.31,5.31,0,0,1,1.43-.27h.06l0-.76H8.27l-.63.11h0a9.52,9.52,0,0,0-1.38.38Z"/><path class="cls-4" d="M8.29,14.67v.22a12.65,12.65,0,0,0-1.54.35,11.66,11.66,0,0,0-1.23.41l-.28.11a1.74,1.74,0,0,1,.1-.19l.06-.12.29-.11A11.91,11.91,0,0,1,6.92,15C7.65,14.79,8.29,14.67,8.29,14.67Z"/><path d="M5.23,15.78h0a0,0,0,0,1,0,0,1.14,1.14,0,0,1,.1-.19l.06-.12h0l.29-.11A9.72,9.72,0,0,1,6.92,15c.72-.19,1.36-.3,1.37-.31h0v0l0,.23,0,0a13,13,0,0,0-1.54.34,11.21,11.21,0,0,0-1.22.41l-.28.11Zm.18-.31-.06.11a.83.83,0,0,0-.07.13l.22-.09c.27-.1.7-.26,1.23-.41a14.35,14.35,0,0,1,1.52-.34l0-.17c-.14,0-.71.13-1.34.29s-.91.25-1.24.37Z"/><path class="cls-4" d="M8.28,13.88v.22l-.77.16a9.91,9.91,0,0,0-1.42.46h0l-.34.15.15-.23A.76.76,0,0,0,6,14.53a1.94,1.94,0,0,1,.36-.15A9.08,9.08,0,0,1,7.76,14C8.07,13.91,8.28,13.88,8.28,13.88Z"/><path d="M5.73,14.9h0a0,0,0,0,1,0,0c.06-.09.11-.17.16-.23l.07-.12H6a3,3,0,0,1,.36-.15A9.6,9.6,0,0,1,7.76,14l.51-.09h0a0,0,0,0,1,0,0l0,.22s0,0,0,0l-.76.16a9.54,9.54,0,0,0-1.42.45h0l-.34.15ZM6,14.55a1,1,0,0,0-.08.11l-.1.15.26-.12h0a9.18,9.18,0,0,1,1.42-.45c.23-.06.49-.11.74-.16l0-.17L7.77,14a9.08,9.08,0,0,0-1.44.4Z"/><path class="cls-4" d="M8.42,15.39l0,1.86-.84-.39-.92-.38-.52-.17-.2-.06-.78-.14H5.06c.05-.12.11-.23.17-.35a1.74,1.74,0,0,1,.1-.19l.06-.12c.11-.19.22-.39.34-.58l.15-.23h0l.32,0,.84.2.28.07Z"/><path d="M8.39,17.27h0l-.84-.38-.92-.39-.72-.23-.78-.14H5a0,0,0,0,1,0,0,3.78,3.78,0,0,1,.17-.35,1.14,1.14,0,0,1,.1-.19l.06-.12c.11-.2.22-.39.34-.58s.11-.17.16-.23h0l.32,0h0l1.11.27h0l1.09.51a0,0,0,0,1,0,0l0,1.86s0,0,0,0ZM5.13,16.08h0l.78.14.73.22.92.39.81.37,0-1.81-1.07-.51-1.11-.27-.31,0-.15.22c-.12.19-.23.39-.34.58l-.06.12a1.74,1.74,0,0,0-.1.19l-.15.32Z"/><path class="cls-4" d="M8.29,15.44s-1.88-1-2.73-.69c0,0,0-.26.42-.24a5.25,5.25,0,0,1,2.3.68Z"/><path d="M8.29,15.47h0s-1.88-1-2.71-.69h0v0s0-.28.44-.26a5.35,5.35,0,0,1,2.31.68v.27s0,0,0,0Zm-2.36-.79a6.52,6.52,0,0,1,2.33.72v-.19A5.3,5.3,0,0,0,6,14.53c-.27,0-.35.12-.37.19A1.15,1.15,0,0,1,5.93,14.68Z"/><path class="cls-4" d="M8.32,17.34S5.65,16,4.8,16.25c0,0,0-.27.41-.24a8.92,8.92,0,0,1,3.1,1.06Z"/><path d="M8.32,17.36h0S5.64,16,4.81,16.27c0,0,0,0,0,0s0,0,0,0a.33.33,0,0,1,.09-.18A.47.47,0,0,1,5.22,16a8.85,8.85,0,0,1,3.1,1.06s0,0,0,0v.27s0,0,0,0ZM5.08,16.19A10.55,10.55,0,0,1,8.29,17.3v-.22a8.81,8.81,0,0,0-3.08-1,.35.35,0,0,0-.3.07.19.19,0,0,0-.08.11A1,1,0,0,1,5.08,16.19Z"/><path class="cls-6" d="M20.16,13.36v8.3a5.2,5.2,0,0,1-.26,1.63,6,6,0,0,1-4.08,3.86,5.61,5.61,0,0,1-1.64.24,5.54,5.54,0,0,1-1.63-.24,6,6,0,0,1-4.08-3.86,5.2,5.2,0,0,1-.26-1.63v-8.3Z"/><path d="M14.18,27.41a6,6,0,0,1-6-5.75V13.34h12v8.32A6,6,0,0,1,14.18,27.41Zm-5.95-14v8.27a6,6,0,0,0,11.91,0V13.39Z"/><path class="cls-2" d="M19.92,13.61v8.2a5.75,5.75,0,0,1-5.35,5.35h-.78a5.74,5.74,0,0,1-5.34-5.35v-8.2Z"/><path d="M8.43,13.58v7.84a2.55,2.55,0,0,0,0,.39,5.74,5.74,0,0,0,5.34,5.35,3.81,3.81,0,0,0,.78,0,5.75,5.75,0,0,0,5.35-5.35,2.55,2.55,0,0,0,0-.39V13.58Zm11.46,7.84a5.71,5.71,0,1,1-11.42,0V13.63H19.89Z"/><path class="cls-6" d="M17.58,15.94v5.84a3.41,3.41,0,0,1-3,3h-.7a3.41,3.41,0,0,1-3-3V15.94Z"/><path d="M10.77,15.92v5.51c0,.12,0,.23,0,.35a3.41,3.41,0,0,0,3,3l.35,0,.35,0a3.41,3.41,0,0,0,3-3c0-.12,0-.23,0-.35V15.92Zm6.79,5.51a3.38,3.38,0,0,1-6.75,0V16h6.75Z"/><path class="cls-7" d="M13.43,16.77V18a.76.76,0,0,0,.75.75h0a.76.76,0,0,0,.76-.75V16.77Zm.33,1.39a.15.15,0,0,1-.14-.15.14.14,0,0,1,.28,0A.15.15,0,0,1,13.76,18.16Zm0-.84a.15.15,0,0,1-.14-.15.14.14,0,0,1,.28,0A.15.15,0,0,1,13.76,17.32Zm.42.42A.14.14,0,0,1,14,17.6a.15.15,0,0,1,.14-.15.15.15,0,0,1,.15.15A.15.15,0,0,1,14.18,17.74Zm.43.42a.15.15,0,0,1-.15-.15.15.15,0,0,1,.15-.14.14.14,0,0,1,.14.14A.15.15,0,0,1,14.61,18.16Zm0-.84a.15.15,0,0,1-.15-.15.15.15,0,0,1,.15-.14.14.14,0,0,1,.14.14A.15.15,0,0,1,14.61,17.32Z"/><path class="cls-7" d="M13.43,19.4v1.18a.76.76,0,0,0,.75.75h0a.76.76,0,0,0,.76-.75V19.4Zm.33,1.39a.15.15,0,0,1-.14-.15.14.14,0,0,1,.28,0A.15.15,0,0,1,13.76,20.79Zm0-.84a.15.15,0,0,1-.14-.15.14.14,0,0,1,.28,0A.15.15,0,0,1,13.76,20Zm.42.42a.14.14,0,0,1-.14-.14.15.15,0,0,1,.14-.15.15.15,0,0,1,.15.15A.15.15,0,0,1,14.18,20.37Zm.43.42a.15.15,0,0,1-.15-.15.15.15,0,0,1,.15-.14.14.14,0,0,1,.14.14A.15.15,0,0,1,14.61,20.79Zm0-.84a.15.15,0,0,1-.15-.15.15.15,0,0,1,.15-.14.14.14,0,0,1,.14.14A.15.15,0,0,1,14.61,20Z"/><path class="cls-7" d="M11.32,19.4v1.18a.76.76,0,0,0,.75.75h0a.75.75,0,0,0,.75-.75V19.4Zm.33,1.39a.15.15,0,0,1-.15-.15.15.15,0,0,1,.15-.14.14.14,0,0,1,.14.14A.15.15,0,0,1,11.65,20.79Zm0-.84a.15.15,0,0,1-.15-.15.15.15,0,0,1,.15-.14.14.14,0,0,1,.14.14A.15.15,0,0,1,11.65,20Zm.42.42a.14.14,0,0,1-.14-.14.15.15,0,0,1,.14-.15.15.15,0,0,1,.15.15A.15.15,0,0,1,12.07,20.37Zm.43.42a.15.15,0,0,1-.15-.15.15.15,0,0,1,.15-.14.14.14,0,0,1,.14.14A.15.15,0,0,1,12.5,20.79Zm0-.84a.15.15,0,0,1-.15-.15.15.15,0,0,1,.15-.14.14.14,0,0,1,.14.14A.15.15,0,0,1,12.5,20Z"/><path class="cls-7" d="M15.53,19.4v1.18a.75.75,0,0,0,.75.75h0a.76.76,0,0,0,.75-.75V19.4Zm.32,1.39a.15.15,0,0,1-.14-.15.14.14,0,0,1,.14-.14.15.15,0,0,1,.15.14A.15.15,0,0,1,15.85,20.79Zm0-.84a.15.15,0,0,1-.14-.15.14.14,0,0,1,.14-.14.15.15,0,0,1,.15.14A.15.15,0,0,1,15.85,20Zm.43.42a.15.15,0,0,1-.15-.14.15.15,0,0,1,.15-.15.15.15,0,0,1,.14.15A.14.14,0,0,1,16.28,20.37Zm.42.42a.15.15,0,0,1-.14-.15.14.14,0,0,1,.14-.14.15.15,0,0,1,.15.14A.15.15,0,0,1,16.7,20.79Zm0-.84a.15.15,0,0,1-.14-.15.14.14,0,0,1,.14-.14.15.15,0,0,1,.15.14A.15.15,0,0,1,16.7,20Z"/><path class="cls-7" d="M13.43,22V23.2a.75.75,0,0,0,.75.75h0a.75.75,0,0,0,.76-.75V22Zm.33,1.38a.14.14,0,0,1-.14-.14.14.14,0,1,1,.28,0A.14.14,0,0,1,13.76,23.41Zm0-.84a.14.14,0,0,1-.14-.14.14.14,0,1,1,.28,0A.14.14,0,0,1,13.76,22.57Zm.42.43a.15.15,0,0,1-.14-.15.14.14,0,0,1,.14-.14.15.15,0,0,1,.15.14A.15.15,0,0,1,14.18,23Zm.43.41a.15.15,0,0,1-.15-.14.15.15,0,0,1,.15-.15.15.15,0,0,1,.14.15A.14.14,0,0,1,14.61,23.41Zm0-.84a.15.15,0,0,1-.15-.14.15.15,0,0,1,.15-.15.15.15,0,0,1,.14.15A.14.14,0,0,1,14.61,22.57Z"/><rect class="cls-4" x="13.29" y="14.7" width="1.77" height="0.14"/><path d="M15.09,14.86H13.26v-.19h1.83Zm-1.78,0H15v-.09H13.31Z"/><rect class="cls-4" x="13.96" y="14.03" width="0.43" height="0.67"/><path d="M14.41,14.72h-.47V14h.47ZM14,14.67h.38v-.61H14Z"/><polygon class="cls-4" points="15.01 15.61 13.34 15.61 13.4 14.98 14.95 14.98 15.01 15.61"/><path d="M15,15.63H13.31l.07-.68H15Zm-1.66-.05H15L14.93,15H13.42Z"/><path class="cls-4" d="M14.6,15.68a.8.8,0,0,0-.43-.79.8.8,0,0,0-.42.79Z"/><path d="M14.62,15.71h-.89v0a.82.82,0,0,1,.44-.81h0a.82.82,0,0,1,.44.81Zm-.85-.05h.8a.76.76,0,0,0-.4-.74A.78.78,0,0,0,13.77,15.66Z"/><rect class="cls-4" x="13.25" y="15.61" width="1.84" height="0.14"/><path d="M15.12,15.77H13.23v-.19h1.89Zm-1.84,0h1.79v-.09H13.28Z"/><rect class="cls-4" x="13.35" y="14.84" width="1.65" height="0.14"/><path d="M15,15H13.33v-.19H15ZM13.38,15H15v-.09H13.38Z"/><polygon class="cls-4" points="14.35 13.76 14.35 13.82 14.25 13.82 14.25 13.76 14.1 13.76 14.1 13.82 14 13.82 14 13.76 13.9 13.76 13.9 14.03 14.44 14.03 14.44 13.76 14.35 13.76"/><path d="M14.47,14.06h-.59v-.33H14v.07h.05v-.07h.19v.07h.05v-.07h.15ZM13.93,14h.49v-.23h-.05v.07h-.14v-.07h-.11v.07H14v-.07h-.05Z"/><rect class="cls-4" x="14.5" y="14.32" width="0.43" height="0.38"/><path d="M15,14.72h-.47V14.3H15Zm-.43-.05h.38v-.32h-.38Z"/><polygon class="cls-4" points="14.88 14.05 14.88 14.11 14.79 14.11 14.79 14.05 14.64 14.05 14.64 14.11 14.54 14.11 14.54 14.05 14.44 14.05 14.44 14.32 14.98 14.32 14.98 14.05 14.88 14.05"/><path d="M15,14.35h-.59V14h.15v.06h0V14h.19v.06h0V14H15Zm-.54,0H15v-.23h-.05v.07h-.15v-.07h-.1v.07h-.14v-.07h0Z"/><rect x="14.13" y="14.2" width="0.09" height="0.18"/><rect x="14.68" y="14.45" width="0.06" height="0.12"/><rect class="cls-4" x="13.42" y="14.32" width="0.43" height="0.38" transform="translate(27.27 29.02) rotate(180)"/><path d="M13.87,14.72H13.4V14.3h.47Zm-.43-.05h.38v-.32h-.38Z"/><polygon class="cls-4" points="13.46 14.05 13.46 14.11 13.56 14.11 13.56 14.05 13.71 14.05 13.71 14.11 13.8 14.11 13.8 14.05 13.9 14.05 13.9 14.32 13.37 14.32 13.37 14.05 13.46 14.05"/><path d="M13.93,14.35h-.59V14h.15v.06h0V14h.19v.06h0V14h.15Zm-.54,0h.49v-.23h-.05v.07h-.14v-.07h-.11v.07h-.14v-.07h0Z"/><rect x="13.6" y="14.45" width="0.06" height="0.12" transform="translate(27.27 29.02) rotate(180)"/><path class="cls-4" d="M14.41,15.61c0-.35-.11-.45-.24-.45s-.23.1-.23.45Z"/><path d="M14.44,15.63h-.53v0c0-.31.09-.47.26-.47s.27.16.27.47ZM14,15.58h.43c0-.26-.07-.39-.22-.39S14,15.32,14,15.58Z"/><rect class="cls-4" x="17.87" y="14.7" width="1.77" height="0.14"/><path d="M19.67,14.86H17.84v-.19h1.83Zm-1.78,0h1.73v-.09H17.89Z"/><rect class="cls-4" x="18.54" y="14.03" width="0.43" height="0.67"/><path d="M19,14.72h-.47V14H19Zm-.43-.05h.38v-.61h-.38Z"/><polygon class="cls-4" points="19.59 15.61 17.92 15.61 17.98 14.98 19.53 14.98 19.59 15.61"/><path d="M19.61,15.63H17.9L18,15h1.59ZM18,15.58h1.61l0-.58H18Z"/><path class="cls-4" d="M19.18,15.68a.8.8,0,0,0-.43-.79.8.8,0,0,0-.42.79Z"/><path d="M19.2,15.71h-.89v0a.82.82,0,0,1,.44-.81h0a.82.82,0,0,1,.44.81Zm-.85-.05h.8a.76.76,0,0,0-.4-.74A.78.78,0,0,0,18.35,15.66Z"/><rect class="cls-4" x="17.83" y="15.61" width="1.84" height="0.14"/><path d="M19.7,15.77H17.81v-.19H19.7Zm-1.84,0h1.79v-.09H17.86Z"/><rect class="cls-4" x="17.93" y="14.84" width="1.65" height="0.14"/><path d="M19.6,15H17.91v-.19H19.6ZM18,15h1.59v-.09H18Z"/><polygon class="cls-4" points="18.93 13.76 18.93 13.82 18.83 13.82 18.83 13.76 18.68 13.76 18.68 13.82 18.58 13.82 18.58 13.76 18.48 13.76 18.48 14.03 19.02 14.03 19.02 13.76 18.93 13.76"/><path d="M19.05,14.06h-.59v-.33h.15v.07h.05v-.07h.19v.07h0v-.07h.15ZM18.51,14H19v-.23H19v.07h-.14v-.07H18.7v.07h-.14v-.07h0Z"/><rect class="cls-4" x="19.08" y="14.32" width="0.43" height="0.38"/><path d="M19.53,14.72h-.47V14.3h.47Zm-.43-.05h.38v-.32H19.1Z"/><polygon class="cls-4" points="19.46 14.05 19.46 14.11 19.37 14.11 19.37 14.05 19.22 14.05 19.22 14.11 19.12 14.11 19.12 14.05 19.02 14.05 19.02 14.32 19.56 14.32 19.56 14.05 19.46 14.05"/><path d="M19.59,14.35H19V14h.15v.06h.05V14h.19v.06h.05V14h.15Zm-.54,0h.49v-.23h-.05v.07h-.15v-.07h-.1v.07H19.1v-.07h-.05Z"/><rect x="18.71" y="14.2" width="0.09" height="0.18"/><rect x="19.26" y="14.45" width="0.06" height="0.12"/><rect class="cls-4" x="18" y="14.32" width="0.43" height="0.38" transform="translate(36.43 29.02) rotate(180)"/><path d="M18.45,14.72H18V14.3h.47ZM18,14.67h.38v-.32H18Z"/><polygon class="cls-4" points="18.04 14.05 18.04 14.11 18.14 14.11 18.14 14.05 18.29 14.05 18.29 14.11 18.39 14.11 18.39 14.05 18.48 14.05 18.48 14.32 17.95 14.32 17.95 14.05 18.04 14.05"/><path d="M18.51,14.35h-.59V14h.15v.06h.05V14h.19v.06h.05V14h.15Zm-.54,0h.49v-.23h-.05v.07h-.14v-.07h-.11v.07H18v-.07H18Z"/><rect x="18.19" y="14.45" width="0.06" height="0.12" transform="translate(36.43 29.02) rotate(180)"/><path class="cls-4" d="M19,15.61c0-.35-.11-.45-.24-.45s-.23.1-.23.45Z"/><path d="M19,15.63h-.53v0c0-.31.09-.47.26-.47s.27.16.27.47Zm-.48-.05H19c0-.26-.07-.39-.22-.39S18.54,15.32,18.54,15.58Z"/><rect class="cls-4" x="17.87" y="19.4" width="1.77" height="0.14"/><path d="M19.67,19.57H17.84v-.19h1.83Zm-1.78-.05h1.73v-.09H17.89Z"/><rect class="cls-4" x="18.54" y="18.74" width="0.43" height="0.67"/><path d="M19,19.43h-.47v-.72H19Zm-.43-.05h.38v-.62h-.38Z"/><polygon class="cls-4" points="19.59 20.31 17.92 20.31 17.98 19.68 19.53 19.68 19.59 20.31"/><path d="M19.61,20.34H17.9l.06-.68h1.59ZM18,20.29h1.61l0-.58H18Z"/><path class="cls-4" d="M19.18,20.39a.79.79,0,0,0-.43-.79.79.79,0,0,0-.42.79Z"/><path d="M19.2,20.41h-.89v0a.82.82,0,0,1,.44-.81h0a.82.82,0,0,1,.44.81Zm-.85,0h.8a.74.74,0,0,0-.4-.74A.76.76,0,0,0,18.35,20.37Z"/><rect class="cls-4" x="17.83" y="20.31" width="1.84" height="0.14"/><path d="M19.7,20.48H17.81v-.19H19.7Zm-1.84-.05h1.79v-.09H17.86Z"/><rect class="cls-4" x="17.93" y="19.54" width="1.65" height="0.14"/><path d="M19.6,19.71H17.91v-.19H19.6ZM18,19.66h1.59v-.09H18Z"/><polygon class="cls-4" points="18.93 18.46 18.93 18.53 18.83 18.53 18.83 18.46 18.68 18.46 18.68 18.53 18.58 18.53 18.58 18.46 18.48 18.46 18.48 18.74 19.02 18.74 19.02 18.46 18.93 18.46"/><path d="M19.05,18.76h-.59v-.32h.15v.06h.05v-.06h.19v.06h0v-.06h.15Zm-.54-.05H19v-.22H19v.06h-.14v-.06H18.7v.06h-.14v-.06h0Z"/><rect class="cls-4" x="19.08" y="19.03" width="0.43" height="0.38"/><path d="M19.53,19.43h-.47V19h.47Zm-.43-.05h.38v-.33H19.1Z"/><polygon class="cls-4" points="19.46 18.76 19.46 18.82 19.37 18.82 19.37 18.76 19.22 18.76 19.22 18.82 19.12 18.82 19.12 18.76 19.02 18.76 19.02 19.03 19.56 19.03 19.56 18.76 19.46 18.76"/><path d="M19.59,19.05H19v-.32h.15v.07h.05v-.07h.19v.07h.05v-.07h.15Zm-.54,0h.49v-.23h-.05v.06h-.15v-.06h-.1v.06H19.1v-.06h-.05Z"/><rect x="18.71" y="18.91" width="0.09" height="0.18"/><rect x="19.26" y="19.16" width="0.06" height="0.12"/><rect class="cls-4" x="18" y="19.03" width="0.43" height="0.38" transform="translate(36.43 38.43) rotate(180)"/><path d="M18.45,19.43H18V19h.47ZM18,19.38h.38v-.33H18Z"/><polygon class="cls-4" points="18.04 18.76 18.04 18.82 18.14 18.82 18.14 18.76 18.29 18.76 18.29 18.82 18.39 18.82 18.39 18.76 18.48 18.76 18.48 19.03 17.95 19.03 17.95 18.76 18.04 18.76"/><path d="M18.51,19.05h-.59v-.32h.15v.07h.05v-.07h.19v.07h.05v-.07h.15ZM18,19h.49v-.23h-.05v.06h-.14v-.06h-.11v.06H18v-.06H18Z"/><rect x="18.19" y="19.16" width="0.06" height="0.12" transform="translate(36.43 38.43) rotate(180)"/><path class="cls-4" d="M19,20.31c0-.35-.11-.44-.24-.44s-.23.09-.23.44Z"/><path d="M19,20.34h-.53v0c0-.31.09-.46.26-.46s.27.15.27.46Zm-.48-.05H19c0-.27-.07-.4-.22-.4S18.54,20,18.54,20.29Z"/><rect class="cls-4" x="16.81" y="24.25" width="1.77" height="0.14" transform="translate(22.39 -5.39) rotate(45.01)"/><path d="M18.27,25,17,23.75l.13-.14,1.29,1.29Zm-1.22-1.28L18.27,25l.07-.07-1.22-1.22Z"/><rect class="cls-4" x="17.77" y="23.71" width="0.43" height="0.67" transform="translate(22.27 -5.67) rotate(45.01)"/><path d="M17.9,24.46l-.34-.34.5-.5.34.34Zm-.27-.34.27.27.43-.43-.27-.27Z"/><polygon class="cls-4" points="17.69 25.51 16.51 24.33 17 23.92 18.09 25.02 17.69 25.51"/><path d="M17.69,25.54l-1.21-1.21.52-.44L18.13,25Zm-1.14-1.21,1.14,1.14.37-.45L17,24Z"/><path class="cls-4" d="M17.35,25.27a.81.81,0,0,0,.26-.86.81.81,0,0,0-.86.26Z"/><path d="M17.35,25.31l-.64-.64,0,0a.85.85,0,0,1,.89-.26h0a.85.85,0,0,1-.26.89Zm-.57-.64.57.57a.8.8,0,0,0,.24-.81A.8.8,0,0,0,16.78,24.67Z"/><rect class="cls-4" x="16.13" y="24.9" width="1.84" height="0.14" transform="translate(22.66 -4.74) rotate(45.01)"/><path d="M17.65,25.7l-1.33-1.33.13-.14,1.34,1.34Zm-1.26-1.33,1.26,1.26.07-.06L16.45,24.3Z"/><rect class="cls-4" x="16.77" y="24.35" width="1.65" height="0.14" transform="translate(22.43 -5.29) rotate(45.01)"/><path d="M18.13,25.09l-1.2-1.2.13-.13,1.2,1.2ZM17,23.89,18.13,25l.06-.06-1.13-1.13Z"/><polygon class="cls-4" points="18.53 23.73 18.48 23.78 18.42 23.71 18.46 23.66 18.36 23.56 18.31 23.6 18.24 23.54 18.29 23.49 18.22 23.42 18.02 23.61 18.41 24 18.6 23.8 18.53 23.73"/><path d="M18.41,24,18,23.61l.23-.22.1.1,0,.05,0,0,.05-.05.13.14,0,.05,0,0,.05,0,.1.1Zm-.35-.42.35.35.16-.16,0,0-.05,0-.1-.1.05-.05-.07-.07-.05.05-.1-.1,0-.05,0,0Z"/><rect class="cls-4" x="18.05" y="24.34" width="0.43" height="0.38" transform="translate(22.69 -5.73) rotate(45)"/><path d="M18.28,24.84l-.34-.33.3-.3.34.33ZM18,24.51l.27.26.23-.23-.27-.27Z"/><polygon class="cls-4" points="18.71 24.32 18.66 24.36 18.59 24.3 18.64 24.25 18.53 24.15 18.49 24.19 18.42 24.12 18.46 24.08 18.39 24.01 18.2 24.2 18.58 24.58 18.78 24.39 18.71 24.32"/><path d="M18.58,24.62l-.41-.42.22-.23.11.11-.05,0,0,0,0-.05.14.14,0,.05,0,0,.05,0,.1.1Zm-.35-.42.35.35.16-.16,0,0-.05,0-.1-.1,0-.05-.07-.07,0,0-.1-.1,0,0,0,0Z"/><rect x="17.98" y="23.9" width="0.09" height="0.18" transform="translate(22.24 -5.72) rotate(45)"/><polygon points="18.24 24.59 18.19 24.55 18.28 24.46 18.32 24.5 18.24 24.59"/><rect class="cls-4" x="17.28" y="23.57" width="0.43" height="0.38" transform="translate(13.07 52.93) rotate(-135)"/><path d="M17.51,24.08l-.33-.34.3-.3.33.34Zm-.26-.34.26.27.24-.23-.27-.27Z"/><polygon class="cls-4" points="17.7 23.31 17.66 23.36 17.72 23.43 17.77 23.38 17.87 23.49 17.83 23.53 17.9 23.6 17.94 23.55 18.01 23.63 17.82 23.82 17.44 23.44 17.63 23.24 17.7 23.31"/><path d="M17.82,23.85l-.42-.41.23-.23.1.1,0,.05,0,0,.05,0,.14.14-.05,0,0,0,0-.05.11.11Zm-.35-.41.35.35.16-.16,0,0,0,0-.1-.1,0,0-.07-.07-.05,0-.1-.1.05-.05,0,0Z"/><rect x="17.47" y="23.7" width="0.06" height="0.12" transform="translate(13.07 52.93) rotate(-135)"/><path class="cls-4" d="M17.27,25.09c.25-.25.23-.4.15-.49s-.24-.1-.49.15Z"/><path d="M17.27,25.12l-.37-.37,0,0a.62.62,0,0,1,.31-.2.19.19,0,0,1,.2.06c.13.12.08.29-.14.51Zm-.3-.37.3.3c.19-.19.23-.33.13-.43a.19.19,0,0,0-.16-.05A.63.63,0,0,0,17,24.75Z"/><rect class="cls-4" x="8.71" y="14.7" width="1.77" height="0.14" transform="translate(19.19 29.54) rotate(180)"/><path d="M10.51,14.86H8.68v-.19h1.83Zm-1.78,0h1.73v-.09H8.73Z"/><rect class="cls-4" x="9.38" y="14.03" width="0.43" height="0.67" transform="translate(19.19 28.73) rotate(180)"/><path d="M9.83,14.72H9.36V14h.47Zm-.43-.05h.38v-.61H9.4Z"/><polygon class="cls-4" points="8.76 15.61 10.43 15.61 10.37 14.98 8.82 14.98 8.76 15.61"/><path d="M10.45,15.63H8.73L8.8,15h1.59Zm-1.66-.05H10.4L10.35,15H8.84Z"/><path class="cls-4" d="M9.17,15.68a.8.8,0,0,1,.42-.79.8.8,0,0,1,.43.79Z"/><path d="M10,15.71H9.15v0a.82.82,0,0,1,.44-.81h0a.82.82,0,0,1,.44.81Zm-.85-.05H10a.76.76,0,0,0-.4-.74A.78.78,0,0,0,9.19,15.66Z"/><rect class="cls-4" x="8.67" y="15.61" width="1.84" height="0.14" transform="translate(19.19 31.35) rotate(180)"/><path d="M10.54,15.77H8.65v-.19h1.89Zm-1.84,0h1.79v-.09H8.7Z"/><rect class="cls-4" x="8.77" y="14.84" width="1.65" height="0.14" transform="translate(19.19 29.81) rotate(180)"/><path d="M10.44,15H8.75v-.19h1.69ZM8.8,15h1.59v-.09H8.8Z"/><polygon class="cls-4" points="9.42 13.76 9.42 13.82 9.52 13.82 9.52 13.76 9.67 13.76 9.67 13.82 9.77 13.82 9.77 13.76 9.86 13.76 9.86 14.03 9.32 14.03 9.32 13.76 9.42 13.76"/><path d="M9.89,14.06H9.3v-.33h.15v.07H9.5v-.07h.19v.07h.05v-.07h.15ZM9.35,14h.49v-.23H9.79v.07H9.65v-.07H9.54v.07H9.4v-.07H9.35Z"/><rect class="cls-4" x="8.84" y="14.32" width="0.43" height="0.38" transform="translate(18.11 29.02) rotate(180)"/><path d="M9.29,14.72H8.82V14.3h.47Zm-.43-.05h.38v-.32H8.86Z"/><polygon class="cls-4" points="8.88 14.05 8.88 14.11 8.98 14.11 8.98 14.05 9.13 14.05 9.13 14.11 9.22 14.11 9.22 14.05 9.32 14.05 9.32 14.32 8.79 14.32 8.79 14.05 8.88 14.05"/><path d="M9.35,14.35H8.76V14h.15v.06H9V14h.19v.06h0V14h.15Zm-.54,0H9.3v-.23H9.25v.07H9.11v-.07H9v.07H8.86v-.07h0Z"/><rect x="9.55" y="14.2" width="0.09" height="0.18" transform="translate(19.19 28.59) rotate(180)"/><rect x="9.02" y="14.45" width="0.06" height="0.12" transform="translate(18.11 29.02) rotate(180)"/><rect class="cls-4" x="9.92" y="14.32" width="0.43" height="0.38"/><path d="M10.37,14.72H9.9V14.3h.47Zm-.43-.05h.38v-.32H9.94Z"/><polygon class="cls-4" points="10.3 14.05 10.3 14.11 10.21 14.11 10.21 14.05 10.06 14.05 10.06 14.11 9.96 14.11 9.96 14.05 9.86 14.05 9.86 14.32 10.4 14.32 10.4 14.05 10.3 14.05"/><path d="M10.43,14.35H9.84V14H10v.06h0V14h.19v.06h0V14h.15Zm-.54,0h.49v-.23h-.05v.07h-.15v-.07h-.1v.07H9.94v-.07h0Z"/><rect x="10.1" y="14.45" width="0.06" height="0.12"/><path class="cls-4" d="M9.36,15.61c0-.35.11-.45.23-.45s.24.1.24.45Z"/><path d="M9.86,15.63H9.33v0c0-.31.09-.47.26-.47s.27.16.27.47Zm-.48-.05h.43c0-.26-.07-.39-.22-.39S9.38,15.32,9.38,15.58Z"/><rect class="cls-4" x="8.71" y="19.4" width="1.77" height="0.14" transform="translate(19.19 38.95) rotate(180)"/><path d="M10.51,19.57H8.68v-.19h1.83Zm-1.78-.05h1.73v-.09H8.73Z"/><rect class="cls-4" x="9.38" y="18.74" width="0.43" height="0.67" transform="translate(19.19 38.14) rotate(180)"/><path d="M9.83,19.43H9.36v-.72h.47Zm-.43-.05h.38v-.62H9.4Z"/><polygon class="cls-4" points="8.76 20.31 10.43 20.31 10.37 19.68 8.82 19.68 8.76 20.31"/><path d="M10.45,20.34H8.73l.07-.68h1.59Zm-1.66-.05H10.4l-.05-.58H8.84Z"/><path class="cls-4" d="M9.17,20.39a.79.79,0,0,1,.42-.79.79.79,0,0,1,.43.79Z"/><path d="M10,20.41H9.15v0a.82.82,0,0,1,.44-.81h0a.82.82,0,0,1,.44.81Zm-.85,0H10a.74.74,0,0,0-.4-.74A.76.76,0,0,0,9.19,20.37Z"/><rect class="cls-4" x="8.67" y="20.31" width="1.84" height="0.14" transform="translate(19.19 40.77) rotate(180)"/><path d="M10.54,20.48H8.65v-.19h1.89ZM8.7,20.43h1.79v-.09H8.7Z"/><rect class="cls-4" x="8.77" y="19.54" width="1.65" height="0.14" transform="translate(19.19 39.23) rotate(180)"/><path d="M10.44,19.71H8.75v-.19h1.69ZM8.8,19.66h1.59v-.09H8.8Z"/><polygon class="cls-4" points="9.42 18.46 9.42 18.53 9.52 18.53 9.52 18.46 9.67 18.46 9.67 18.53 9.77 18.53 9.77 18.46 9.86 18.46 9.86 18.74 9.32 18.74 9.32 18.46 9.42 18.46"/><path d="M9.89,18.76H9.3v-.32h.15v.06H9.5v-.06h.19v.06h.05v-.06h.15Zm-.54-.05h.49v-.22H9.79v.06H9.65v-.06H9.54v.06H9.4v-.06H9.35Z"/><rect class="cls-4" x="8.84" y="19.03" width="0.43" height="0.38" transform="translate(18.11 38.43) rotate(180)"/><path d="M9.29,19.43H8.82V19h.47Zm-.43-.05h.38v-.33H8.86Z"/><polygon class="cls-4" points="8.88 18.76 8.88 18.82 8.98 18.82 8.98 18.76 9.13 18.76 9.13 18.82 9.22 18.82 9.22 18.76 9.32 18.76 9.32 19.03 8.79 19.03 8.79 18.76 8.88 18.76"/><path d="M9.35,19.05H8.76v-.32h.15v.07H9v-.07h.19v.07h0v-.07h.15Zm-.54,0H9.3v-.23H9.25v.06H9.11v-.06H9v.06H8.86v-.06h0Z"/><rect x="9.55" y="18.91" width="0.09" height="0.18" transform="translate(19.19 38) rotate(180)"/><rect x="9.02" y="19.16" width="0.06" height="0.12" transform="translate(18.11 38.43) rotate(180)"/><rect class="cls-4" x="9.92" y="19.03" width="0.43" height="0.38"/><path d="M10.37,19.43H9.9V19h.47Zm-.43-.05h.38v-.33H9.94Z"/><polygon class="cls-4" points="10.3 18.76 10.3 18.82 10.21 18.82 10.21 18.76 10.06 18.76 10.06 18.82 9.96 18.82 9.96 18.76 9.86 18.76 9.86 19.03 10.4 19.03 10.4 18.76 10.3 18.76"/><path d="M10.43,19.05H9.84v-.32H10v.07h0v-.07h.19v.07h0v-.07h.15Zm-.54,0h.49v-.23h-.05v.06h-.15v-.06h-.1v.06H9.94v-.06h0Z"/><rect x="10.1" y="19.16" width="0.06" height="0.12"/><path class="cls-4" d="M9.36,20.31c0-.35.11-.44.23-.44s.24.09.24.44Z"/><path d="M9.86,20.34H9.33v0c0-.31.09-.46.26-.46s.27.15.27.46Zm-.48-.05h.43c0-.27-.07-.4-.22-.4S9.38,20,9.38,20.29Z"/><rect class="cls-4" x="9.77" y="24.25" width="1.77" height="0.14" transform="translate(35.39 33.99) rotate(134.99)"/><path d="M10.08,25l-.14-.13,1.29-1.29.13.14ZM10,24.9l.07.07,1.22-1.22-.07-.07Z"/><rect class="cls-4" x="10.16" y="23.71" width="0.43" height="0.67" transform="translate(34.7 33.7) rotate(134.99)"/><path d="M10.45,24.46,10,24l.33-.34.51.5ZM10,24l.43.43.27-.27-.44-.43Z"/><polygon class="cls-4" points="10.66 25.51 11.84 24.33 11.35 23.92 10.25 25.02 10.66 25.51"/><path d="M10.66,25.54,10.22,25l1.13-1.13.52.44ZM10.29,25l.37.45,1.14-1.14L11.35,24Z"/><path class="cls-4" d="M11,25.27a.81.81,0,0,1-.26-.86.81.81,0,0,1,.86.26Z"/><path d="M11,25.31l0,0a.85.85,0,0,1-.26-.89h0a.85.85,0,0,1,.89.26v0Zm-.24-.88a.8.8,0,0,0,.24.81l.57-.57A.8.8,0,0,0,10.76,24.43Z"/><rect class="cls-4" x="10.38" y="24.9" width="1.84" height="0.14" transform="translate(36.94 34.63) rotate(134.99)"/><path d="M10.7,25.7l-.14-.13,1.34-1.34.13.14Zm-.07-.13.07.06L12,24.37l-.06-.07Z"/><rect class="cls-4" x="9.93" y="24.35" width="1.65" height="0.14" transform="translate(35.63 34.08) rotate(134.99)"/><path d="M10.22,25.09,10.09,25l1.2-1.2.13.13ZM10.15,25l.07.06,1.13-1.13-.06-.06Z"/><polygon class="cls-4" points="9.82 23.73 9.87 23.78 9.93 23.71 9.89 23.66 9.99 23.56 10.04 23.6 10.11 23.54 10.06 23.49 10.13 23.42 10.32 23.61 9.94 24 9.75 23.8 9.82 23.73"/><path d="M9.94,24l-.22-.23.1-.1,0,0,0,0-.05-.05.14-.14,0,.05,0,0,0-.05.1-.1.23.22Zm-.16-.23.16.16.35-.35-.16-.16,0,0,.05.05-.1.1,0-.05-.07.07.05.05-.11.1,0,0Z"/><rect class="cls-4" x="9.88" y="24.34" width="0.43" height="0.38" transform="translate(34.57 34.73) rotate(135)"/><path d="M10.07,24.84l-.3-.3.34-.33.3.3Zm-.23-.3.23.23.27-.26-.23-.24Z"/><polygon class="cls-4" points="9.64 24.32 9.69 24.36 9.76 24.3 9.71 24.25 9.82 24.15 9.86 24.19 9.93 24.12 9.88 24.08 9.96 24.01 10.15 24.2 9.77 24.58 9.57 24.39 9.64 24.32"/><path d="M9.77,24.62l-.23-.23.1-.1,0,0,0,0,0-.05.14-.14,0,.05,0,0-.05,0L10,24l.23.23Zm-.16-.23.16.16.34-.35L10,24l0,0,0,0-.1.1,0,0-.07.07,0,.05-.1.1,0,0Z"/><rect x="10.27" y="23.9" width="0.09" height="0.18" transform="translate(34.57 33.68) rotate(135.04)"/><polygon points="10.11 24.59 10.15 24.55 10.07 24.46 10.03 24.5 10.11 24.59"/><rect class="cls-4" x="10.64" y="23.57" width="0.43" height="0.38" transform="translate(-13.62 14.63) rotate(-45)"/><path d="M10.84,24.08l-.3-.3.33-.34.3.3Zm-.24-.3.24.23.26-.27-.23-.23Z"/><polygon class="cls-4" points="10.65 23.31 10.69 23.36 10.63 23.43 10.58 23.38 10.47 23.49 10.52 23.53 10.45 23.6 10.41 23.55 10.34 23.63 10.53 23.82 10.91 23.44 10.72 23.24 10.65 23.31"/><path d="M10.53,23.85l-.23-.22.11-.11,0,.05,0,0-.05,0,.14-.14.05,0,0,0-.05-.05.11-.1.23.23Zm-.16-.22.16.16.35-.35-.16-.16,0,0,.05.05-.1.1-.05,0-.07.07,0,0-.1.1,0,0Z"/><rect x="10.82" y="23.7" width="0.06" height="0.12" transform="translate(-13.62 14.63) rotate(-45)"/><path class="cls-4" d="M11.08,25.09c-.25-.25-.23-.4-.15-.49s.24-.1.49.15Z"/><path d="M11.08,25.12l0,0c-.22-.22-.27-.39-.14-.51a.19.19,0,0,1,.2-.06.62.62,0,0,1,.31.2l0,0Zm0-.55a.18.18,0,0,0-.12.05c-.1.1-.06.24.13.43l.3-.3a.63.63,0,0,0-.27-.18Z"/><rect class="cls-4" x="13.88" y="10.2" width="0.62" height="3.16"/><path d="M14.52,13.39h-.67V10.17h.67Zm-.62-.05h.57V10.22H13.9Z"/><rect class="cls-4" x="14.49" y="10.09" width="0.22" height="3.27"/><path d="M14.74,13.39h-.27V10.07h.27Zm-.22-.05h.17V10.12h-.17Z"/><rect class="cls-4" x="13.65" y="10.09" width="0.22" height="3.27" transform="translate(27.53 23.46) rotate(180)"/><path d="M13.9,13.39h-.27V10.07h.27Zm-.22-.05h.17V10.12h-.17Z"/></g></g></svg>