<svg xmlns="http://www.w3.org/2000/svg" viewBox="0 0 40.5 40.5"><defs><style>.cls-1{fill:#d52b1e;}.cls-2{fill:#fff;}.cls-3{fill:#0038a8;}.cls-4{fill:#009b3a;}.cls-5{fill:#fedf00;}</style></defs><g id="Ebene_2" data-name="Ebene 2"><g id="Ńëîé_1" data-name="Ńëîé 1"><path class="cls-1" d="M39.34,13.5H1.16a20.25,20.25,0,0,1,38.18,0Z"/><path class="cls-2" d="M40.5,20.25A20.15,20.15,0,0,1,39.34,27H1.16a20.22,20.22,0,0,1,0-13.5H39.34A20.19,20.19,0,0,1,40.5,20.25Z"/><path class="cls-3" d="M39.34,27A20.25,20.25,0,0,1,1.16,27Z"/><path class="cls-4" d="M20.6,22.51a.79.79,0,0,1,.23-.09.26.26,0,0,0,.18-.14.28.28,0,0,0,0-.09s0-.06,0-.1,0-.06,0-.08.13-.11.17-.18,0-.06,0-.09a.33.33,0,0,1,.13-.13.64.64,0,0,1,.18-.06.06.06,0,0,1,0,.08s0,0,0,.07,0,.05,0,.07.12-.16.19-.24.14-.11.17-.18,0,0,0,.06a0,0,0,0,0,.06,0s0,0,0-.06a.42.42,0,0,0,0-.16l0-.15S22,21,22,21l0-.06a.29.29,0,0,0,0-.16.25.25,0,0,1,0-.19.12.12,0,0,1,.05,0,.09.09,0,0,1,.09,0l.06.08s0-.05.06-.06.06,0,.09,0a0,0,0,0,0,0,0,.16.16,0,0,0,0-.09,1.63,1.63,0,0,1-.24-.4.17.17,0,0,1,0-.07.19.19,0,0,1,0-.08v-.15l.08,0,0,0h.05v-.29a.27.27,0,0,1,.14.07.17.17,0,0,0-.11-.16c-.14-.08-.32-.1-.44-.22s-.11-.19-.2-.26a.1.1,0,0,1,.09,0,.19.19,0,0,0,.08,0h0s0,0,0,0l0-.3v0s-.07-.05-.09-.09a.12.12,0,0,1,0,.09.08.08,0,0,1-.08,0,.11.11,0,0,1-.07-.09.67.67,0,0,1-.31-.05,1.19,1.19,0,0,1-.3-.18s-.07-.06-.08-.1H21s.17,0,.17,0,0,0,0,0l0-.05L21,18a.33.33,0,0,1,0-.17,1,1,0,0,0,.42.12h0s0,0,0,0-.09-.18-.1-.27a.37.37,0,0,1,.2.07,1.88,1.88,0,0,1,.18.12l0,.05a.33.33,0,0,1,0,.06l0,.14a.24.24,0,0,1,0,.08l.07,0h0a.07.07,0,0,1,0,.05.13.13,0,0,1,0,.06v0h0l.28.27c0-.07,0-.15.05-.22a.22.22,0,0,1,.05-.11.31.31,0,0,1,.09.14,1.22,1.22,0,0,1,0,.17l.05.38a.66.66,0,0,1,.13-.36.14.14,0,0,1,0,.09c0,.14,0,.28,0,.43v.05a.42.42,0,0,1-.06.14.08.08,0,0,0,0,.05.17.17,0,0,0,0,.14s0,0,0,0l0,0s.05-.05.08-.06a.29.29,0,0,0,0,.09.13.13,0,0,1,0,.06,1.7,1.7,0,0,1,0,.22A.31.31,0,0,1,23,19.6a.57.57,0,0,0,.11-.11,3,3,0,0,1,0,.31.62.62,0,0,1,0,.19L23,20.1s0,.11-.07.16a.55.55,0,0,1-.13.17l-.17.16s-.06.07,0,.1l.09,0h0a.05.05,0,0,1,0,0,.14.14,0,0,1,0,.11.16.16,0,0,1-.07.09.27.27,0,0,0,.25-.08.19.19,0,0,1-.05.13l-.07.11a.33.33,0,0,0,0,.16s0,0,0,0l0,0a.32.32,0,0,1,.17-.06.37.37,0,0,1-.07.2l-.15.2a.49.49,0,0,1-.17.15.58.58,0,0,1-.18,0l-.17,0a.15.15,0,0,1-.14.18s0,0-.06,0-.05,0,0,0,0,0,0,0a1.06,1.06,0,0,0,.31,0,.22.22,0,0,1-.11.14.48.48,0,0,1-.17.05l-.27.06.14.07,0,0,0,0a1,1,0,0,1-.89.1.15.15,0,0,0-.13,0,.1.1,0,0,0-.07,0A.26.26,0,0,1,20.6,22.51Z"/><path d="M21.41,22.6a.88.88,0,0,1-.33-.06h0s-.07,0-.11,0l0,0h0a.27.27,0,0,1-.31,0v0h0a.58.58,0,0,1,.18-.08h.05a.25.25,0,0,0,.18-.14v-.09s0-.06,0-.09l0-.09a.38.38,0,0,1,.09-.09.26.26,0,0,0,.09-.09.17.17,0,0,1,0-.05v0a.39.39,0,0,1,.15-.14,1.27,1.27,0,0,1,.18-.06h0a.08.08,0,0,1,0,.09l0,.06v0l0,0a1.25,1.25,0,0,0,.09-.12.61.61,0,0,1,.07-.1l.07-.06a.38.38,0,0,0,.1-.12s0,0,0,0h0s0,0,0,.06l0,0a.05.05,0,0,0,0-.05.28.28,0,0,0,0-.13v0a.83.83,0,0,1,0-.15.34.34,0,0,1,0-.1l0,0s0,0,0,0a.24.24,0,0,0,0-.15v0a.25.25,0,0,1,0-.17s0-.05.07-.05a.1.1,0,0,1,.1,0l0,0v0a.12.12,0,0,1,0-.05h.09v0s0-.05,0-.07a.36.36,0,0,1-.07-.1.85.85,0,0,1-.17-.31.14.14,0,0,1,0-.06.28.28,0,0,1,0-.09v-.15h0a.12.12,0,0,1,.1,0h.07l0-.28h0s0,0,0,0a.25.25,0,0,1,.12,0c0-.05-.07-.09-.09-.11l-.18-.07a.56.56,0,0,1-.27-.15.34.34,0,0,1-.09-.12.75.75,0,0,0-.11-.13v0h0a.11.11,0,0,1,.11,0h0l.05,0h0a0,0,0,0,0,0,0l0-.29s0,0,0,0l0,0v0a.09.09,0,0,1,0,.06.09.09,0,0,1-.1,0,.13.13,0,0,1-.07-.09.61.61,0,0,1-.3-.05,1.45,1.45,0,0,1-.31-.18.38.38,0,0,1-.09-.12h0s0,0,0,0H21c.11,0,.14,0,.14,0v0h0L21,18a.27.27,0,0,1-.05-.18,0,0,0,0,1,0,0h0a1.32,1.32,0,0,0,.42.12h0s0,0,0,0a.21.21,0,0,0-.05-.13.78.78,0,0,1,0-.14,0,0,0,0,1,0,0h0a.58.58,0,0,1,.21.07l.18.13,0,.05a.14.14,0,0,1,0,.06l0,.14s0,0,0,.06l.06,0a.06.06,0,0,1,.06,0s0,0,.05,0a.2.2,0,0,1,0,.07h0l.25.24c0-.06,0-.12,0-.18a.31.31,0,0,1,.06-.13h0a.37.37,0,0,1,.1.16l0,.17,0,.26a.58.58,0,0,1,.12-.25h0a.13.13,0,0,1,0,.09c0,.15,0,.29,0,.44v.05a.33.33,0,0,1-.05.15h0l0,0a.2.2,0,0,0,0,.11h0l0-.05.08-.05h0s0,0,0,0v0s0,0,0,.05v.07a1.08,1.08,0,0,1,0,.18l0,0,0,0,.11-.11a0,0,0,0,1,0,0l0,0v.1a1.36,1.36,0,0,1,0,.21.42.42,0,0,1,0,.19l0,.07,0,0,0,.08,0,.09a.58.58,0,0,1-.14.17l-.17.16a.1.1,0,0,0,0,.07.13.13,0,0,1,.08,0h0s0,0,.06,0a.2.2,0,0,1,0,.13.18.18,0,0,1-.05.07h0a.3.3,0,0,0,.2-.08h0a.23.23,0,0,1,0,.14l0,.05-.05.06a.28.28,0,0,0,0,.15s0,0,0,0h0a.34.34,0,0,1,.19-.07h0a.27.27,0,0,1-.06.2,1.92,1.92,0,0,1-.16.21.49.49,0,0,1-.17.15.7.7,0,0,1-.18.05l-.16,0a.13.13,0,0,1,0,.12.17.17,0,0,1-.12.07h-.07s0,0,0,0l0,0a.76.76,0,0,0,.3,0h0a.21.21,0,0,1-.11.15.39.39,0,0,1-.17.06l-.23.05.1,0s0,0,0,0a0,0,0,0,1,0,0A1.17,1.17,0,0,1,21.41,22.6ZM21,22.48l.09,0h0a1,1,0,0,0,.88-.1h0l-.14-.07a0,0,0,0,1,0,0v0l.28-.05a.52.52,0,0,0,.16-.06.15.15,0,0,0,.09-.1.88.88,0,0,1-.28,0A.09.09,0,0,1,22,22s0-.05,0-.06h.08a.12.12,0,0,0,.09-.05.11.11,0,0,0,0-.11h0l.17,0a.48.48,0,0,0,.17,0,.44.44,0,0,0,.16-.14,1.56,1.56,0,0,0,.16-.2.35.35,0,0,0,.06-.17.26.26,0,0,0-.14.05l0,0h0s0,0,0-.06a.33.33,0,0,1,0-.17l.05-.06,0,0a.16.16,0,0,0,0-.08.33.33,0,0,1-.22.05s0,0,0,0,0,0,0,0a.24.24,0,0,0,.06-.08.09.09,0,0,0,0-.1l0,0h0l-.09,0h0a.11.11,0,0,1,.05-.12l.16-.16a.52.52,0,0,0,.14-.16l0-.09,0-.08L23,20l0-.06a.58.58,0,0,0,0-.18,1.48,1.48,0,0,0,0-.21v-.06l-.09.09,0,0-.06,0a0,0,0,0,1,0,0,0,0,0,0,1,0,0,1.48,1.48,0,0,0,0-.21.13.13,0,0,0,0-.06.11.11,0,0,0,0-.05h0a.1.1,0,0,0-.05,0l-.05,0h0a.29.29,0,0,1,0-.16s0,0,0-.05h0a.43.43,0,0,0,.05-.13V19c0-.14,0-.29,0-.43a.13.13,0,0,0,0-.06.55.55,0,0,0-.11.33s0,0,0,0,0,0,0,0l0-.37a.85.85,0,0,0,0-.17.27.27,0,0,0-.07-.13.3.3,0,0,0,0,.1c0,.07,0,.14,0,.21a0,0,0,0,1,0,0h0L22,18.26a0,0,0,0,1,0,0v0s0,0,0-.06,0,0,0,0h0l-.07,0h0s0,0,0,0,0-.05,0-.08l0-.14s0,0,0-.06l-.05,0-.17-.12a.58.58,0,0,0-.17-.06l0,.1a.27.27,0,0,1,.05.15s0,0,0,0a.05.05,0,0,1,0,0,1.35,1.35,0,0,1-.41-.11.5.5,0,0,0,0,.13l.07.14h0s0,0,0,.05-.07,0-.18,0H20.9l.07.07a1.4,1.4,0,0,0,.3.18.76.76,0,0,0,.3.05h0s0,.07.05.08a.1.1,0,0,0,.07,0,.11.11,0,0,0,0-.08,0,0,0,0,1,0,0s0,0,0,0l0,0,.05.05a.06.06,0,0,1,0,0l0,.3a.08.08,0,0,1,0,.05h0a.15.15,0,0,1-.07,0h-.07a.47.47,0,0,1,.09.12,1.25,1.25,0,0,0,.09.12.72.72,0,0,0,.26.14l.18.07c.08.05.13.12.12.18a0,0,0,0,1,0,0h0a.24.24,0,0,0-.11-.06v.27h0a.06.06,0,0,1-.06,0h0l0,0h-.06V20s0,0,0,.06a.9.9,0,0,0,.17.3l.06.1a.18.18,0,0,1,0,.1.08.08,0,0,1,0,0,.07.07,0,0,1-.06,0h0s0,0,0,.06h0l0,0,0,0s-.05,0-.07,0a.07.07,0,0,0-.05,0,.32.32,0,0,0,0,.14v0a.26.26,0,0,1,0,.17l0,0,0,0a.14.14,0,0,0,0,.09.35.35,0,0,0,0,.14v0a.32.32,0,0,1,0,.14.07.07,0,0,1,0,.08.08.08,0,0,1-.08,0s0,0,0,0l-.09.09-.06.06a.61.61,0,0,0-.07.1.61.61,0,0,1-.13.15h0a.16.16,0,0,1,0-.09v0l0-.05s0,0,0-.05l-.17.05a.29.29,0,0,0-.13.12s0,0,0,0,0,0,0,.06a.24.24,0,0,1-.08.09.36.36,0,0,0-.09.08.29.29,0,0,0,0,.09.29.29,0,0,0,0,.09v0a.17.17,0,0,1,0,.07.27.27,0,0,1-.2.16h0a1,1,0,0,0-.16.06.23.23,0,0,0,.26,0h0l.05,0Z"/><path class="cls-4" d="M20.22,22.43a.32.32,0,0,1,.15-.06,2.89,2.89,0,0,1,.86.43s-.12.06-.21.05a3.39,3.39,0,0,1-.81-.39A0,0,0,0,1,20.22,22.43Z"/><path d="M21.07,22.87H21c-.06,0-.83-.32-.83-.41a.05.05,0,0,1,0,0,.29.29,0,0,1,.16-.06c.06,0,.88.33.88.44l0,0A.24.24,0,0,1,21.07,22.87Zm-.7-.48a.34.34,0,0,0-.14.05h0v0a3.62,3.62,0,0,0,.79.37.27.27,0,0,0,.19,0h0A3.13,3.13,0,0,0,20.37,22.39Z"/><path d="M20.26,23.52a3.27,3.27,0,1,1,3.26-3.27A3.28,3.28,0,0,1,20.26,23.52Zm0-6.43a3.17,3.17,0,1,0,3.16,3.16A3.17,3.17,0,0,0,20.26,17.09Z"/><path class="cls-4" d="M19.41,22.74a0,0,0,0,0,0,0v0s.1.06.16.06a1.84,1.84,0,0,0,.62-.25h0a.14.14,0,0,0-.09-.05h0A6.19,6.19,0,0,0,19.41,22.74Z"/><path d="M19.55,22.86c-.05,0-.17,0-.17-.08v0a0,0,0,0,1,0,0h0a3.83,3.83,0,0,1,.65-.22.17.17,0,0,1,.13,0v0a0,0,0,0,1,0,0A1.78,1.78,0,0,1,19.55,22.86Zm-.13-.1h0s.07,0,.14,0a1.94,1.94,0,0,0,.6-.24.09.09,0,0,0-.09,0A3.45,3.45,0,0,0,19.42,22.76Zm.74-.19Z"/><path d="M20.26,24.6a4.35,4.35,0,1,1,4.35-4.35A4.35,4.35,0,0,1,20.26,24.6Zm0-8.6a4.25,4.25,0,1,0,4.25,4.25A4.25,4.25,0,0,0,20.26,16Z"/><path d="M20.26,25.5a5.25,5.25,0,1,1,5.24-5.25A5.25,5.25,0,0,1,20.26,25.5Zm0-10.29a5,5,0,1,0,5,5A5,5,0,0,0,20.26,15.21Z"/><polygon class="cls-5" points="20.26 19.04 20.52 19.85 21.38 19.85 20.68 20.35 20.95 21.17 20.26 20.66 19.56 21.17 19.83 20.35 19.14 19.85 19.99 19.85 20.26 19.04"/><path d="M21,21.18h0l-.68-.5-.69.5h0v0l.26-.8-.68-.5s0,0,0,0H20l.26-.8s0,0,0,0l.26.8h.86a0,0,0,0,1,0,0l-.69.5.27.8a0,0,0,0,1,0,0Zm-.69-.53h0l.65.47-.25-.76v0l.66-.47h-.81s0,0,0,0l-.25-.76-.25.76a0,0,0,0,1,0,0h-.8l.65.47a0,0,0,0,1,0,0l-.24.76.65-.47Z"/><path class="cls-4" d="M19.15,21.91c.07.05.12.16.21.17h0s0,0,0,0-.38-.51-.38-.59a0,0,0,0,1,0-.05h0c.42.29.37.65,1,1,.13.06.57.23.24.23a4.25,4.25,0,0,0-.94-.29h-.2a1,1,0,0,1-1-.46h0a1.36,1.36,0,0,0,.66.16S19,22,19,22h0c-.09-.13-1.14-.31-1.2-1.09a1.9,1.9,0,0,0,.72.6v0c0-.1-1-1.17-.81-1.17s.13.07.19.1h0s0,0,0-.05c0-.32-.44-.89-.49-1h0c.21.09.3.31.43.49h0s0,0,0-.09-.05-.21-.05-.35S18,19,18,18.78c0-.59.1.11.1.28l.1-.47c.06-.34.29-.41.44-.73h0a.29.29,0,0,1,0,.09c0,.28-.3.24-.3.75v.05h0a2.19,2.19,0,0,0-.1.38s0,.05,0,.05h0s0,0,0-.07a1.18,1.18,0,0,1,.06-.18c0-.14.2-.22.2-.34s0-.07,0-.1a1.08,1.08,0,0,1,.51-.74h0a1.47,1.47,0,0,0-.32.63h0a5.11,5.11,0,0,1,.44-.32c.27-.17.43-.22.45-.2s-.19.27-.45.48-.36.21-.5.34a1.08,1.08,0,0,0-.36.52c0,.13.29-.44.48-.48s.21,0,.26-.06.23-.27.26-.23a.41.41,0,0,1-.29.37,1.28,1.28,0,0,0-.81.85A1.16,1.16,0,0,1,19,19s-.17.17-.44.45a1.25,1.25,0,0,0-.39.83c0,.16.23.77.14.35a1.47,1.47,0,0,1-.05-.29c0-.07.25-.65.25-.66h0a0,0,0,0,1,0,0,.29.29,0,0,1,0,.16c0,.05-.14.56-.14.6s0,0,.09,0c.29,0,.35.79.36,1.08A.56.56,0,0,0,19.15,21.91Z"/><path d="M20.35,22.64a1,1,0,0,1-.25-.09,2,2,0,0,0-.69-.2h-.2c-.68,0-.88-.3-1-.45l0,0v0h0s0,0,0,0a1.34,1.34,0,0,0,.65.16h0s0,0,0,0h0a.73.73,0,0,0-.23-.12c-.34-.15-.92-.4-1-1,0,0,0,0,0,0h0a2,2,0,0,0,.69.59,3.48,3.48,0,0,0-.34-.46c-.32-.39-.52-.64-.49-.7l0,0a.25.25,0,0,1,.14.06l.06,0s0,0,0,0a2,2,0,0,0-.37-.81l-.12-.21h0l0,0h0a.72.72,0,0,1,.36.37l.08.12h0a.1.1,0,0,0,0-.07,1,1,0,0,0,0-.17.48.48,0,0,1,0-.18,1.25,1.25,0,0,1,0-.29,1.07,1.07,0,0,0,.06-.32.87.87,0,0,1,0-.18s0-.07,0-.07.08.25.09.4c0-.14.07-.34.07-.35a.9.9,0,0,1,.23-.42,1.11,1.11,0,0,0,.21-.31h0a0,0,0,0,1,0,0,.18.18,0,0,1,0,.1.36.36,0,0,1-.12.26.64.64,0,0,0-.18.49v.05h0a.45.45,0,0,1,0,.11,1.31,1.31,0,0,0-.06.27s0,0,0,0,0,0,0,0v0a.37.37,0,0,1,0-.09.34.34,0,0,0,0-.08.5.5,0,0,1,.11-.17.29.29,0,0,0,.09-.17v-.1c0-.28.38-.76.52-.76h0l0,0s0,0,0,0a1.46,1.46,0,0,0-.31.57l.41-.3c.23-.14.44-.23.47-.19s0,0,0,0a1.78,1.78,0,0,1-.46.49l-.23.15a1.59,1.59,0,0,0-.27.18,1.16,1.16,0,0,0-.35.5l.1-.13c.1-.14.24-.33.35-.36H19c.06,0,.11,0,.14,0a.94.94,0,0,1,.1-.1c.07-.09.12-.14.16-.14s0,0,0,0,0,0,0,.06a.51.51,0,0,1-.31.34,1.37,1.37,0,0,0-.69.58A1,1,0,0,1,19,19s0,0,0,0,0,0-.11.14-.21.19-.34.34a1.2,1.2,0,0,0-.39.81,1.91,1.91,0,0,0,.13.45.51.51,0,0,0,0-.09v-.07a1,1,0,0,1,0-.23c0-.07.25-.66.25-.67h0a0,0,0,0,1,0,0,.34.34,0,0,1,.05.17,2.55,2.55,0,0,1-.08.33c0,.12-.06.25-.06.27h0l.07,0c.32,0,.37.84.38,1.1a.51.51,0,0,0,.25.39.34.34,0,0,1,.09.08s.07.08.12.09,0,0,0,0a1,1,0,0,0-.21-.32,1,1,0,0,1-.17-.27c0-.06.05-.08.08-.06a1.57,1.57,0,0,1,.38.4,1.42,1.42,0,0,0,.66.57l.07,0c.22.1.32.15.31.2S20.44,22.64,20.35,22.64Zm-.94-.32a1.78,1.78,0,0,1,.7.2.93.93,0,0,0,.24.09.21.21,0,0,0,.11,0,1.78,1.78,0,0,0-.29-.16l-.07,0a1.51,1.51,0,0,1-.68-.58,1.45,1.45,0,0,0-.36-.39h0s0,0,0,0a.79.79,0,0,0,.16.24,1.08,1.08,0,0,1,.22.35,0,0,0,0,1,0,.05h0a.23.23,0,0,1-.15-.1.23.23,0,0,0-.07-.07.56.56,0,0,1-.27-.42c0-.18-.06-1.07-.35-1.07a.07.07,0,0,0-.06,0s0,0,0,0,0,0,0-.06h0a2,2,0,0,1,.06-.27c0-.14.07-.31.07-.33a.32.32,0,0,0,0-.14,6.27,6.27,0,0,0-.23.63,1.66,1.66,0,0,0,0,.22s0,0,0,.07,0,.15,0,.16h0a1.27,1.27,0,0,1-.17-.51,1.28,1.28,0,0,1,.39-.84l.34-.34L19,19a1.22,1.22,0,0,0-.7.69h0v0a1.32,1.32,0,0,1,.82-.86.44.44,0,0,0,.29-.35h0s-.09.08-.14.13l-.1.11a.25.25,0,0,1-.16,0l-.11,0c-.1,0-.24.21-.33.34s-.12.16-.15.15,0,0,0,0a1.15,1.15,0,0,1,.37-.54A2.53,2.53,0,0,1,19,18.5l.23-.15a2,2,0,0,0,.44-.46,1.28,1.28,0,0,0-.42.2c-.13.08-.26.19-.44.32,0,0,0,0,0,0v0h0a1.26,1.26,0,0,1,.32-.62h0a1.1,1.1,0,0,0-.49.72v0a.13.13,0,0,1,0,.06.32.32,0,0,1-.1.19.57.57,0,0,0-.11.16.37.37,0,0,0,0,.09.26.26,0,0,0,0,.08v0s0,.07,0,.07h0c-.05,0-.05-.05-.05-.07a1,1,0,0,1,.07-.28.43.43,0,0,0,0-.1h0V18.7a.63.63,0,0,1,.19-.51.32.32,0,0,0,.11-.24.13.13,0,0,0,0-.06,1.14,1.14,0,0,1-.21.3.85.85,0,0,0-.22.4h0s0,0-.09.47a0,0,0,0,1,0,0s0,0,0,0a2.21,2.21,0,0,0-.07-.47s0,.08,0,.19a1.53,1.53,0,0,1,0,.33.82.82,0,0,0-.06.28,1,1,0,0,0,0,.18.86.86,0,0,1,0,.17c0,.08,0,.11-.06.11l0,0-.08-.13a.85.85,0,0,0-.31-.34l.1.17a2.12,2.12,0,0,1,.38.83s0,.06-.05.06h0l-.07,0a.23.23,0,0,0-.12-.06h0a3.25,3.25,0,0,0,.48.67,2.5,2.5,0,0,1,.36.48,0,0,0,0,1,0,0h0A1.9,1.9,0,0,1,17.8,21c.08.52.62.75.95.89.13.05.22.09.24.13v0s0,0,0,0h-.08a1.44,1.44,0,0,1-.63-.14,1,1,0,0,0,.93.42h.2Z"/><path d="M18.76,21.68h0a.7.7,0,0,1-.22-.14l0,0a0,0,0,0,1,0,0s0,0,0,0l0,0a.76.76,0,0,0,.21.14s0,0,0,0Z"/><path d="M18.83,21.63h0a1.56,1.56,0,0,1-.47-.64,1.25,1.25,0,0,0-.45-.57v0h0a1.3,1.3,0,0,1,.46.59,1.47,1.47,0,0,0,.47.62v0Z"/><path d="M18.83,21.62h0l-.09-.11a.71.71,0,0,1-.18-.55,1.48,1.48,0,0,1,0-.21v-.21a.15.15,0,0,0,0-.09,0,0,0,0,1,0,0h0a.19.19,0,0,1,0,.1v0c0,.06,0,.13,0,.2s0,.13,0,.2a.62.62,0,0,0,.18.52l.09.12s0,0,0,0Z"/><path d="M18.51,21.25s0,0,0,0v0h0v0a2.2,2.2,0,0,0,0-.27,3.29,3.29,0,0,1,0-.38.28.28,0,0,1,0-.09s0,0,0,0,0,0,0,0a.19.19,0,0,0,0,.08,3.19,3.19,0,0,0,0,.37,1.78,1.78,0,0,1,0,.28v0h0v0s0,0,0,0Z"/><path d="M18.1,20.3h0l0-.12c-.06-.11-.14-.29-.16-.33a0,0,0,0,1,0,0s0,0,0,0l.16.33c0,.05,0,.11.05.11v0Z"/><path d="M18.13,19.92h0a.77.77,0,0,1-.06-.4v-.09a1.09,1.09,0,0,1,0-.18V19l0,0v.46a.7.7,0,0,0,0,.38s0,0,0,0Z"/><path d="M18.57,18.73h0s0,0,0,0l0-.06a.69.69,0,0,0,.17-.25s0,0,0,0,0,0,0,0a.77.77,0,0,1-.17.26l-.05.06Z"/><path d="M18.22,19.45s0,0,0,0v0a.46.46,0,0,1,.06-.23s0,0,0,0a0,0,0,0,1,0,0,.54.54,0,0,0-.05.22v0a0,0,0,0,1,0,0Z"/><path d="M19.7,22.83a0,0,0,0,1,0,0h0a.2.2,0,0,0-.19-.06l0,0a0,0,0,0,1,0,0,.27.27,0,0,1,.23.1h0A0,0,0,0,1,19.7,22.83Z"/><path d="M20.86,22.8s0,0,0,0h0v0c0-.06.14-.1.19-.1h0a0,0,0,0,1,0,0h0s-.15,0-.15.08h0v0s0,0,0,0Z"/><path d="M21.2,22.4l0,0s0-.08.15-.29l.22-.31s0,0,0,0a0,0,0,0,1,0,0l-.22.31c-.09.14-.16.23-.15.25s.05,0,.1,0a2.29,2.29,0,0,1,.49-.06h.05s0,0,0,0h-.06a1.69,1.69,0,0,0-.48.07Z"/><path d="M21.08,22.33a2.63,2.63,0,0,1,.15-.35,1.29,1.29,0,0,1,.09-.16.42.42,0,0,1,.16-.11.49.49,0,0,0-.11.14,1.3,1.3,0,0,0-.08.17A1.54,1.54,0,0,1,21.08,22.33Z"/><path d="M21.23,22.48a1,1,0,0,1,.24-.05.69.69,0,0,1,.25,0,1,1,0,0,1-.24.05A.71.71,0,0,1,21.23,22.48Z"/><path d="M22.08,21.65h0a.1.1,0,0,1-.06-.09h0c0-.12.07-.18.11-.19h0a.18.18,0,0,1,.12,0h0v0A.21.21,0,0,1,22.08,21.65Zm0-.27a.26.26,0,0,0-.08.16h0s0,0,0,.06h0a.17.17,0,0,0,.12-.16h0a.13.13,0,0,0-.09,0Z"/><path d="M21.5,22.32h0a0,0,0,0,1,0,0,1.94,1.94,0,0,0,.57-.67s0,0,0,0,0,0,0,0a2,2,0,0,1-.57.68Z"/><path d="M21.65,22.21v0s0,0,0,0a1.87,1.87,0,0,0,.45,0l.13,0,0,0a0,0,0,0,1,0,0h-.12a2.34,2.34,0,0,1-.46.05Z"/><path d="M21.83,22.06h0s0,0,0,0v0A.4.4,0,0,0,22,22H22s0,0,0,0h0A.47.47,0,0,1,21.83,22.06Z"/><path d="M22.08,22h0v0a.12.12,0,0,1,0-.07c0-.08.07-.13.16-.13h.09s0,0,0,0h-.09c-.08,0-.12,0-.12.1s0,0,0,.05v0a0,0,0,0,1,0,0Z"/><path d="M22.16,21.38h0s0,0,0,0,0-.07,0-.07a.91.91,0,0,0,0-.17c0-.06,0-.14,0-.21a.41.41,0,0,1,0-.1.13.13,0,0,1,.05-.12h0l0,0a0,0,0,0,1,0,0h0a.1.1,0,0,0,0,.09s0,.06,0,.1a1.49,1.49,0,0,1,0,.21c0,.19,0,.2,0,.2h0v0A0,0,0,0,1,22.16,21.38Z"/><path d="M22.37,20.82h0c-.07,0-.11,0-.12-.08v0h0a.24.24,0,0,1,0-.07h0a0,0,0,0,1,0,0,.06.06,0,0,0,0,0h0s0,.05.09.06h0s.08,0,.08-.1h0a.1.1,0,0,0,0-.08l0,0s0,0,0,0,0,0,0,0h0a.15.15,0,0,1,.06.11h0A.14.14,0,0,1,22.37,20.82Z"/><path d="M22.19,21.77h0a0,0,0,0,1,0,0,.44.44,0,0,1,.31-.27c.13-.06.26-.12.28-.25s0,0,0,0a0,0,0,0,1,0,0c0,.16-.16.22-.3.28a.44.44,0,0,0-.29.24A0,0,0,0,1,22.19,21.77Z"/><path d="M22.35,21.48h0v0a.85.85,0,0,0,.14-.19,1.37,1.37,0,0,1,.27-.31s0,0,0,0h0a0,0,0,0,1,0,0l0,0a1.1,1.1,0,0,0-.26.3.85.85,0,0,1-.14.19Z"/><path d="M22.28,21.31h0s0,0,0-.07a.93.93,0,0,0,0-.27c0-.09,0-.13,0-.14v0s0,0,0,0,0,.07,0,.15a.86.86,0,0,1-.05.26l.06-.09.21-.26h0a0,0,0,0,1,0,0l-.2.26C22.32,21.29,22.3,21.31,22.28,21.31Z"/><path d="M22.65,20.9a.14.14,0,0,1-.13-.07v0a.49.49,0,0,1,0-.11s0,0,0,0h0s0,0,0,0h0a.63.63,0,0,0,0,.09h0c0,.05.06.06.1.06h.06a0,0,0,0,1,0,0h-.06Z"/><path d="M21.44,22.22c0-.07.07-.12.09-.18a1,1,0,0,1,.11-.17,1.93,1.93,0,0,1,.27-.3,2.46,2.46,0,0,1-.22.34l-.11.16-.07.07Z"/><path d="M22.23,21.7l.18-.05.17-.08a.78.78,0,0,0,.15-.1.28.28,0,0,0,.12-.14.3.3,0,0,1-.08.18.61.61,0,0,1-.16.12.67.67,0,0,1-.18.07A.45.45,0,0,1,22.23,21.7Z"/><path d="M22.46,20.63h0s0,0,0,0a0,0,0,0,1,0,0v-.12h0a.46.46,0,0,0-.09-.23.43.43,0,0,1-.1-.24.65.65,0,0,1,0-.2s0,0,0,0,0,0,0,0a.58.58,0,0,0,0,.19.47.47,0,0,0,.09.22.44.44,0,0,1,.11.25h0v0h0v0a.22.22,0,0,1,0,.06s0,0,0,0Z"/><path d="M22.47,20.63h0a0,0,0,0,1,0,0,.22.22,0,0,1,.14-.1s.07,0,.09,0a0,0,0,0,1,0,0h0l-.07,0a.14.14,0,0,0-.1.08Z"/><path d="M22.49,20.57l0,0a0,0,0,0,1,0,0v0c0-.21,0-.46,0-.56h0a1.12,1.12,0,0,0-.07-.38s0,0,0,0h0a1,1,0,0,1,.09.4h0c0,.09,0,.34,0,.55v.05Z"/><path d="M22.5,20.36h0s0,0,0,0a1,1,0,0,1,.36-.68,0,0,0,0,1,0,0v0a1,1,0,0,0-.36.66A0,0,0,0,1,22.5,20.36Z"/><path d="M22.71,19.78h-.07a.21.21,0,0,1-.08-.18.17.17,0,0,1,.12-.17h0s0,0,0,0h0a.13.13,0,0,0-.09.14.16.16,0,0,0,.06.15h.13s0,0,0,0,0,0,0,0h-.09Z"/><path d="M22.87,19.57s0,0,0,0h0s-.08-.06-.11-.07l0,0a0,0,0,0,1,0,0s0,0,0,0l0,0c.07,0,.13.06.14.1h0Z"/><path d="M22.6,20.43a.42.42,0,0,1,.06-.19c0-.07.07-.12.1-.18l.11-.17a1,1,0,0,0,.09-.18.35.35,0,0,1-.05.2.76.76,0,0,1-.09.18l-.11.17A1.63,1.63,0,0,0,22.6,20.43Z"/><path d="M21.88,19l.12.12.13.1.14.09s.1.07.12.13l-.07,0-.08,0-.14-.09L22,19.13A.48.48,0,0,1,21.88,19Z"/><path d="M21.57,18.53h0a0,0,0,0,1,0,0h0a.1.1,0,0,1,.1,0,.11.11,0,0,1,.11.06s0,0,0,0a0,0,0,0,1,0,0s0,0-.08,0-.05,0-.07,0h0Z"/><path d="M21.75,18.48h-.06s0,0,0,0v0h0v-.05c0-.05,0-.07,0-.07v0a.09.09,0,0,1,.08,0,.12.12,0,0,1,.13.12h0v0A.12.12,0,0,1,21.75,18.48Zm0,0h0c.06,0,.07,0,.11-.06h0a.1.1,0,0,0-.1-.09s0,0-.05,0h0s0,0,0,.06v0h0v0Z"/><path d="M21.84,18.29h0a.36.36,0,0,1,0-.1h0s0,0,0,0,0,0,0,0v0a.24.24,0,0,0,0,.08h0Z"/><path d="M21.9,18.34h0s0,0,0,0,0,0,0,0h0l.08,0h0v0s0,0,0,0,0,0,0,0,0,0,0,0a0,0,0,0,1,0,0h0l-.1,0h0Z"/><path d="M21.7,18.3h-.09a.62.62,0,0,1-.35-.2L21.17,18s0,0,0,0h0l.09.07a.63.63,0,0,0,.34.2h.08s0,0,0,0Z"/><path d="M21.78,18.28h0a0,0,0,0,1,0,0,.9.9,0,0,0-.19-.36h0a0,0,0,0,1,0,0h0a.84.84,0,0,1,.21.38h0Z"/><path d="M21.73,18.27h0a.42.42,0,0,1-.1-.12l-.05-.06h0L21.45,18a0,0,0,0,1,0,0h0l.13.13,0,.06a.59.59,0,0,0,.09.11s0,0,0,0Z"/><path d="M21.55,18.38a.38.38,0,0,1-.29-.1.5.5,0,0,0-.12-.08s0,0,0,0,0,0,0,0l.13.08a.31.31,0,0,0,.27.1l.11,0s0,0,0,0,0,0,0,0Z"/><path d="M21.06,18.27l.18.09.09,0,.1,0-.11,0-.1,0A.29.29,0,0,1,21.06,18.27Z"/><path d="M22.42,19.28h0a1.3,1.3,0,0,1-.57-.59s0,0,0,0h0a1.29,1.29,0,0,0,.55.56,0,0,0,0,1,0,0Z"/><path d="M22.42,19.28h0l0,0a0,0,0,0,0,0,0h0v0a.6.6,0,0,0-.47-.47h-.08a0,0,0,0,1,0,0h.06a.62.62,0,0,1,.5.5h0v0h0v0Z"/><path d="M22.29,18.93h0s0,0,0,0a1.63,1.63,0,0,0-.11-.17,1.12,1.12,0,0,1-.21-.4s0,0,0,0,0,0,0,0a1.15,1.15,0,0,0,.21.39,1.08,1.08,0,0,1,.11.18h0a0,0,0,0,1,0,0Z"/><path d="M22.28,18.62h0a1.19,1.19,0,0,1-.19-.2,0,0,0,0,1,0,0h0a1.14,1.14,0,0,0,.19.19v0Z"/><path d="M22.28,18.59l0,.07a.22.22,0,0,1,0,.08.25.25,0,0,1,0,.08l0,0,0,0v-.08a.17.17,0,0,1,0-.07v-.07S22.27,18.62,22.28,18.59Z"/><path d="M22.5,19.25a0,0,0,0,1,0,0c0-.08,0-.2,0-.27a.28.28,0,0,1,0-.05,1,1,0,0,1,0-.11.31.31,0,0,0,0-.11v0a.15.15,0,0,0,0-.07s0-.07,0-.13v0a0,0,0,0,1,0,0,0,0,0,0,1,0,0v0a.33.33,0,0,0,0,.12.25.25,0,0,0,0,.08v0c0,.06,0,.09,0,.12a.22.22,0,0,0,0,.1v0a1.26,1.26,0,0,1,0,.28s0,0,0,0Z"/><path d="M22.59,19.49h0a.15.15,0,0,1,0-.07h0a.38.38,0,0,1,.05-.16h0s0,0,0,0a.57.57,0,0,0,0,.14v0h0s0,0,0,.06h0s0,0,0,0Z"/><path d="M22.5,19.25a0,0,0,0,1,0,0,0,0,0,0,1,0,0,.73.73,0,0,0,.24-.05h0s0,0,0,0,0,0,0,0h0a1.15,1.15,0,0,1-.24.06Z"/><path d="M22.65,19.2a.23.23,0,0,1,0-.11.34.34,0,0,1,0-.1.7.7,0,0,1,.08-.2.66.66,0,0,1,0,.2s0,.07,0,.1S22.66,19.16,22.65,19.2Z"/><path d="M16.89,22.51a1.56,1.56,0,0,1-.12-.17.35.35,0,0,1-.06-.22A.15.15,0,0,1,16.8,22a.18.18,0,0,1,.2,0h0a.14.14,0,0,1,.06-.14l.14-.15.08.14a1.25,1.25,0,0,1-.12.12c-.06.06-.06.1,0,.15l0,0,.23-.14.08.14Zm.17-.28,0-.06c0-.06-.09-.08-.14-.05s-.06.08,0,.14a.19.19,0,0,0,0,.06Z"/><path d="M16.73,21.24l.08.24.15-.05-.09-.27.12,0,.14.41-.65.22-.13-.4.12,0,.08.25.14,0-.08-.24Z"/><path d="M16.27,21a1.58,1.58,0,0,1,0-.21.34.34,0,0,1,0-.21.2.2,0,0,1,.15-.09.21.21,0,0,1,.17,0,.34.34,0,0,1,.09.21.11.11,0,0,1,0,.05l.24,0,0,.15Zm.29-.19v-.05c0-.08-.06-.13-.13-.12s-.09.05-.08.13,0,.05,0,.06Z"/><path d="M16.21,20l.39,0c.12,0,.18,0,.19-.11s0-.13-.17-.14l-.39,0,0-.15.38,0c.21,0,.3.13.28.31s-.12.26-.34.24l-.38,0Z"/><path d="M16.35,19.18a1.43,1.43,0,0,1,0-.2.43.43,0,0,1,.1-.18.16.16,0,0,1,.15,0,.17.17,0,0,1,.11.15h0a.17.17,0,0,1,.2-.07.15.15,0,0,1,.11.11.4.4,0,0,1,0,.28,1.13,1.13,0,0,1-.07.15Zm.3-.06v-.05c0-.08,0-.13,0-.15s-.09,0-.11.08,0,.05,0,.06Zm.28.09s0,0,0-.05S17,19,16.9,19s-.11,0-.13.1l0,0Z"/><path d="M16.66,18.36l.08-.13.48.28.14-.23.11.06-.22.37Z"/><path d="M17.18,17.61l.52.44-.1.12-.52-.44Z"/><path d="M18.24,17.51a.49.49,0,0,1-.11.14.32.32,0,0,1-.49,0,.34.34,0,0,1,0-.51.27.27,0,0,1,.15-.09l.05.11a.28.28,0,0,0-.11.07.2.2,0,0,0,0,.31.21.21,0,0,0,.31,0l.09-.11Z"/><path d="M18.5,17.17l0,.17-.14.08-.13-.7.17-.1.51.51-.15.08-.12-.13Zm.1-.19-.1-.1-.1-.1h0l0,.13,0,.14Z"/><path d="M19.38,16.29l.2,0a.43.43,0,0,1,.29,0,.3.3,0,0,1,.15.24.34.34,0,0,1-.07.29.49.49,0,0,1-.3.13l-.17,0Zm.23.53h.05a.22.22,0,0,0,.2-.27.2.2,0,0,0-.25-.19l-.06,0Z"/><path d="M20.72,16.62l-.25,0v.16l.28,0v.13l-.43,0,0-.68.42,0v.13l-.26,0v.14l.25,0Z"/><path d="M21.13,16.29l.15,0-.14.53.26.07,0,.13L21,17Z"/><path d="M22.24,16.72a.56.56,0,0,1,.18.1.35.35,0,0,1,.15.15.2.2,0,0,1,0,.18.21.21,0,0,1-.14.1.31.31,0,0,1-.22-.06l-.05,0-.13.21-.13-.09Zm0,.34,0,0c.07,0,.13,0,.17,0a.1.1,0,0,0-.05-.15l-.05,0Z"/><path d="M22.65,17.63l-.16.09-.11-.11.62-.35.15.15-.33.63-.12-.11.09-.16Zm.2,0,.07-.14.07-.12h0l-.12.08-.13.07Z"/><path d="M23.51,17.84a1.47,1.47,0,0,1,.13.17.33.33,0,0,1,.07.21.16.16,0,0,1-.08.13.18.18,0,0,1-.21,0h0a.16.16,0,0,1-.05.14l-.14.15-.08-.13.1-.13c.07-.06.07-.1,0-.15l0,0-.22.15L23,18.21Zm-.16.29,0,.05a.1.1,0,0,0,.15.05c.05,0,.05-.09,0-.15l0,0Z"/><path d="M23.55,18.92l-.18,0-.06-.15.71,0,.07.19-.56.43-.06-.15.15-.11Zm.17.13.12-.09.11-.08h-.29Z"/><path d="M23.67,20.11a.71.71,0,0,1-.07-.22.4.4,0,0,1,.06-.28.34.34,0,0,1,.23-.13.36.36,0,0,1,.41.34.5.5,0,0,1,0,.19h-.13a.39.39,0,0,0,0-.16.21.21,0,0,0-.25-.2.2.2,0,0,0-.19.24.1.1,0,0,0,0,.07h.14v-.11H24l0,.25Z"/><path d="M24.3,20.59l-.39-.05c-.12,0-.18,0-.19.11s0,.13.16.14l.39,0,0,.16-.38,0c-.21,0-.29-.14-.27-.31s.12-.26.34-.24l.38,0Z"/><path d="M23.64,21.33l-.15-.1.05-.15.58.42-.07.19-.72,0,.06-.16h.18Zm.05.2H24l-.12-.07-.12-.09Z"/><path d="M23.2,21.91l.24.14.45,0-.09.15-.17,0-.14,0h0a1,1,0,0,1,.08.11l.11.14-.09.15-.23-.4L23.12,22Z"/></g></g></svg>