<svg viewBox="0 0 40.5 40.5" xmlns="http://www.w3.org/2000/svg"><path d="m40.5 20.25a20.25 20.25 0 0 1 -20.25 20.25 20 20 0 0 1 -6.6-1.11 18.82 18.82 0 0 1 -4.05-1.93 20.23 20.23 0 0 1 0-34.46 18.61 18.61 0 0 1 4.08-1.93 19.56 19.56 0 0 1 6.57-1.07 20.25 20.25 0 0 1 20.25 20.25z" fill="#8d1b3d"/><g fill="#fff"><path d="m17.9 2.25-4.16 1.13-4.14 1.12v-1.5a18.61 18.61 0 0 1 4.08-1.93h.06z"/><path d="m17.9 6.75-4.15 1.12-4.15 1.13v-2.25-2.25l4.15 1.12z"/><path d="m17.9 11.24-4.15 1.13-4.15 1.12v-2.25-2.24l4.15 1.12z"/><path d="m17.9 15.74-4.15 1.13-4.15 1.12v-2.25-2.25l4.15 1.13z"/><path d="m17.9 20.24-4.15 1.13-4.15 1.12v-2.25-2.25l4.15 1.13z"/><path d="m17.9 24.74-4.15 1.12-4.15 1.13v-2.25-2.25l4.15 1.12z"/><path d="m17.9 29.24-4.15 1.12-4.15 1.13v-2.25-2.25l4.15 1.12z"/><path d="m17.9 33.74-4.15 1.12-4.15 1.12v-2.24-2.25l4.15 1.12z"/><path d="m17.9 38.25-4.16 1.12h-.09a18.82 18.82 0 0 1 -4.05-1.91v-1.46l4.14 1.12z"/><path d="m9.6 3v34.46a20.23 20.23 0 0 1 0-34.46z"/></g></svg>