<svg xmlns="http://www.w3.org/2000/svg" viewBox="0 0 40.5 40.5"><defs><style>.cls-1{fill:#8d1b3d;}.cls-2{fill:#fff;}</style></defs><g id="Ebene_2" data-name="Ebene 2"><g id="Ńëîé_1" data-name="Ńëîé 1"><path class="cls-1" d="M40.5,20.25A20.25,20.25,0,0,1,20.25,40.5a20,20,0,0,1-6.6-1.11A18.82,18.82,0,0,1,9.6,37.46,20.23,20.23,0,0,1,9.6,3a18.61,18.61,0,0,1,4.08-1.93h0A19.56,19.56,0,0,1,20.25,0,20.25,20.25,0,0,1,40.5,20.25Z"/><path class="cls-2" d="M17.9,2.25,13.74,3.38,9.6,4.5V3a18.61,18.61,0,0,1,4.08-1.93h.06Z"/><polygon class="cls-2" points="17.9 6.75 13.75 7.87 9.6 9 9.6 6.75 9.6 4.5 13.75 5.62 17.9 6.75"/><polygon class="cls-2" points="17.9 11.24 13.75 12.37 9.6 13.49 9.6 11.24 9.6 9 13.75 10.12 17.9 11.24"/><polygon class="cls-2" points="17.9 15.74 13.75 16.87 9.6 17.99 9.6 15.74 9.6 13.49 13.75 14.62 17.9 15.74"/><polygon class="cls-2" points="17.9 20.24 13.75 21.37 9.6 22.49 9.6 20.24 9.6 17.99 13.75 19.12 17.9 20.24"/><polygon class="cls-2" points="17.9 24.74 13.75 25.86 9.6 26.99 9.6 24.74 9.6 22.49 13.75 23.61 17.9 24.74"/><polygon class="cls-2" points="17.9 29.24 13.75 30.36 9.6 31.49 9.6 29.24 9.6 26.99 13.75 28.11 17.9 29.24"/><polygon class="cls-2" points="17.9 33.74 13.75 34.86 9.6 35.98 9.6 33.74 9.6 31.49 13.75 32.61 17.9 33.74"/><path class="cls-2" d="M17.9,38.25l-4.16,1.12-.09,0A18.82,18.82,0,0,1,9.6,37.46V36l4.14,1.12Z"/><path class="cls-2" d="M9.6,3V37.46A20.23,20.23,0,0,1,9.6,3Z"/></g></g></svg>