<svg viewBox="0 0 40.5 40.5" xmlns="http://www.w3.org/2000/svg"><path d="m40.5 20.25h-40.5a20.25 20.25 0 0 1 40.5 0z" fill="#00a1de"/><path d="m40.5 20.25a20.21 20.21 0 0 1 -2.71 10.13h-35.08a20.21 20.21 0 0 1 -2.71-10.13z" fill="#fad201"/><path d="m37.79 30.38a20.26 20.26 0 0 1 -35.08 0z" fill="#20603d"/><g fill="#fad201"><path d="m30.23 10.59a1.84 1.84 0 1 1 -1.84-1.83 1.84 1.84 0 0 1 1.84 1.83z"/><path d="m28.39 4.1-.27 4.47a2 2 0 0 1 .27 0 1.83 1.83 0 0 1 .27 0z"/><path d="m26.71 4.32.9 4.39a1.28 1.28 0 0 1 .25-.09 1.54 1.54 0 0 1 .27 0z"/><path d="m25.15 5 2 4a2.05 2.05 0 0 1 .22-.15l.24-.12z"/><path d="m23.8 6 3 3.35a1.35 1.35 0 0 1 .18-.2l.2-.18z"/><path d="m22.77 7.35 3.73 2.46a2.28 2.28 0 0 1 .12-.24 2.05 2.05 0 0 1 .15-.22z"/><path d="m22.12 8.91 4.25 1.42a1.54 1.54 0 0 1 .05-.27 1.28 1.28 0 0 1 .09-.25z"/><path d="m21.9 10.59 4.47.27a1.83 1.83 0 0 1 0-.27 2 2 0 0 1 0-.27z"/><path d="m22.12 12.28 4.39-.9a1.28 1.28 0 0 1 -.09-.25 1.54 1.54 0 0 1 -.05-.27z"/><path d="m22.77 13.84 4-2a2.05 2.05 0 0 1 -.15-.22 2 2 0 0 1 -.12-.25z"/><path d="m23.8 15.19 3.35-3-.15-.19a1.35 1.35 0 0 1 -.18-.2z"/><path d="m25.15 16.22 2.46-3.73a2.28 2.28 0 0 1 -.24-.12 2.05 2.05 0 0 1 -.22-.15z"/><path d="m26.71 16.87 1.42-4.25a1.54 1.54 0 0 1 -.27 0 1.28 1.28 0 0 1 -.25-.09z"/><path d="m28.39 17.09.27-4.47a1.83 1.83 0 0 1 -.27 0 2 2 0 0 1 -.27 0z"/><path d="m30.07 16.87-.89-4.39a1.23 1.23 0 0 1 -.26.09 1.36 1.36 0 0 1 -.26 0z"/><path d="m31.64 16.22-2-4a2.05 2.05 0 0 1 -.22.15 2 2 0 0 1 -.25.12z"/><path d="m33 15.19-3-3.35s-.08.1-.18.2l-.2.18z"/><path d="m34 13.84-3.73-2.47a2 2 0 0 1 -.12.25 2.05 2.05 0 0 1 -.15.22z"/><path d="m34.67 12.28-4.25-1.42a1.54 1.54 0 0 1 -.05.27 1.28 1.28 0 0 1 -.09.25z"/><path d="m34.89 10.59-4.47-.27a2 2 0 0 1 0 .27 1.83 1.83 0 0 1 0 .27z"/><path d="m34.67 8.91-4.39.9a1.28 1.28 0 0 1 .09.25 1.54 1.54 0 0 1 .05.27z"/><path d="m34 7.35-4 2a2.05 2.05 0 0 1 .15.22 2.28 2.28 0 0 1 .12.24z"/><path d="m33 6-3.36 3 .2.18c.1.1.18.2.18.2z"/><path d="m31.64 5-2.47 3.7a2 2 0 0 1 .25.12 2.05 2.05 0 0 1 .22.15z"/><path d="m30.07 4.32-1.41 4.25a1.36 1.36 0 0 1 .26 0 1.23 1.23 0 0 1 .26.09z"/></g></svg>