<svg xmlns="http://www.w3.org/2000/svg" viewBox="0 0 40.5 40.5"><defs><style>.cls-1{fill:#00a1de;}.cls-2{fill:#fad201;}.cls-3{fill:#20603d;}</style></defs><g id="Ebene_2" data-name="Ebene 2"><g id="Ńëîé_1" data-name="Ńëîé 1"><path class="cls-1" d="M40.5,20.25H0a20.25,20.25,0,0,1,40.5,0Z"/><path class="cls-2" d="M40.5,20.25a20.21,20.21,0,0,1-2.71,10.13H2.71A20.21,20.21,0,0,1,0,20.25Z"/><path class="cls-3" d="M37.79,30.38a20.26,20.26,0,0,1-35.08,0Z"/><path class="cls-2" d="M30.23,10.59a1.84,1.84,0,1,1-1.84-1.83A1.84,1.84,0,0,1,30.23,10.59Z"/><path class="cls-2" d="M28.39,4.1l-.27,4.47a2,2,0,0,1,.27,0,1.83,1.83,0,0,1,.27,0Z"/><path class="cls-2" d="M26.71,4.32l.9,4.39a1.28,1.28,0,0,1,.25-.09,1.54,1.54,0,0,1,.27,0Z"/><path class="cls-2" d="M25.15,5l2,4a2.05,2.05,0,0,1,.22-.15l.24-.12Z"/><path class="cls-2" d="M23.8,6l3,3.35a1.35,1.35,0,0,1,.18-.2l.2-.18Z"/><path class="cls-2" d="M22.77,7.35,26.5,9.81a2.28,2.28,0,0,1,.12-.24,2.05,2.05,0,0,1,.15-.22Z"/><path class="cls-2" d="M22.12,8.91l4.25,1.42a1.54,1.54,0,0,1,.05-.27,1.28,1.28,0,0,1,.09-.25Z"/><path class="cls-2" d="M21.9,10.59l4.47.27a1.83,1.83,0,0,1,0-.27,2,2,0,0,1,0-.27Z"/><path class="cls-2" d="M22.12,12.28l4.39-.9a1.28,1.28,0,0,1-.09-.25,1.54,1.54,0,0,1-.05-.27Z"/><path class="cls-2" d="M22.77,13.84l4-2a2.05,2.05,0,0,1-.15-.22,2,2,0,0,1-.12-.25Z"/><path class="cls-2" d="M23.8,15.19l3.35-3L27,12a1.35,1.35,0,0,1-.18-.2Z"/><path class="cls-2" d="M25.15,16.22l2.46-3.73a2.28,2.28,0,0,1-.24-.12,2.05,2.05,0,0,1-.22-.15Z"/><path class="cls-2" d="M26.71,16.87l1.42-4.25a1.54,1.54,0,0,1-.27,0,1.28,1.28,0,0,1-.25-.09Z"/><path class="cls-2" d="M28.39,17.09l.27-4.47a1.83,1.83,0,0,1-.27,0,2,2,0,0,1-.27,0Z"/><path class="cls-2" d="M30.07,16.87l-.89-4.39a1.23,1.23,0,0,1-.26.09,1.36,1.36,0,0,1-.26,0Z"/><path class="cls-2" d="M31.64,16.22l-2-4a2.05,2.05,0,0,1-.22.15,2,2,0,0,1-.25.12Z"/><path class="cls-2" d="M33,15.19l-3-3.35s-.08.1-.18.2l-.2.18Z"/><path class="cls-2" d="M34,13.84l-3.73-2.47a2,2,0,0,1-.12.25,2.05,2.05,0,0,1-.15.22Z"/><path class="cls-2" d="M34.67,12.28l-4.25-1.42a1.54,1.54,0,0,1-.05.27,1.28,1.28,0,0,1-.09.25Z"/><path class="cls-2" d="M34.89,10.59l-4.47-.27a2,2,0,0,1,0,.27,1.83,1.83,0,0,1,0,.27Z"/><path class="cls-2" d="M34.67,8.91l-4.39.9a1.28,1.28,0,0,1,.09.25,1.54,1.54,0,0,1,.05.27Z"/><path class="cls-2" d="M34,7.35l-4,2a2.05,2.05,0,0,1,.15.22,2.28,2.28,0,0,1,.12.24Z"/><path class="cls-2" d="M33,6,29.64,9l.2.18c.1.1.18.2.18.2Z"/><path class="cls-2" d="M31.64,5,29.17,8.7a2,2,0,0,1,.25.12,2.05,2.05,0,0,1,.22.15Z"/><path class="cls-2" d="M30.07,4.32,28.66,8.57a1.36,1.36,0,0,1,.26,0,1.23,1.23,0,0,1,.26.09Z"/></g></g></svg>