<svg xmlns="http://www.w3.org/2000/svg" viewBox="0 0 40.5 40.5"><defs><style>.cls-1{fill:#00853f;}.cls-2{fill:#fdef42;}.cls-3{fill:#e31b23;}</style></defs><g id="Ebene_2" data-name="Ebene 2"><g id="Ńëîé_1" data-name="Ńëîé 1"><path class="cls-1" d="M13.5,1.16V39.34a20.25,20.25,0,0,1,0-38.18Z"/><path class="cls-2" d="M27,1.16V39.34a20.22,20.22,0,0,1-13.5,0V1.16a20.22,20.22,0,0,1,13.5,0Z"/><path class="cls-3" d="M40.5,20.25A20.24,20.24,0,0,1,27,39.34V1.16A20.24,20.24,0,0,1,40.5,20.25Z"/><polygon class="cls-1" points="20.25 15.7 21.27 18.84 24.58 18.84 21.9 20.79 22.93 23.93 20.25 21.99 17.57 23.93 18.6 20.79 15.92 18.84 19.23 18.84 20.25 15.7"/></g></g></svg>