<svg xmlns="http://www.w3.org/2000/svg" viewBox="0 0 40.5 40.5"><defs><style>.cls-1{fill:#ed2939;}.cls-2{fill:#fff;}</style></defs><g id="Ebene_2" data-name="Ebene 2"><g id="Ńëîé_1" data-name="Ńëîé 1"><path class="cls-1" d="M40.5,20.25H0a20.25,20.25,0,0,1,40.5,0Z"/><path class="cls-2" d="M10.19,10.13a7.19,7.19,0,0,1,6.94-7.19,7.62,7.62,0,1,0,0,14.38A7.19,7.19,0,0,1,10.19,10.13Z"/><polygon class="cls-2" points="18.53 4.01 18.93 5.25 20.23 5.25 19.18 6.01 19.55 7.25 18.53 6.48 17.51 7.25 17.88 6.01 16.83 5.25 18.13 5.25 18.53 4.01"/><polygon class="cls-2" points="22.59 7.04 22.99 8.28 24.29 8.28 23.24 9.04 23.61 10.28 22.59 9.51 21.57 10.28 21.94 9.04 20.89 8.28 22.19 8.28 22.59 7.04"/><polygon class="cls-2" points="21.08 11.84 21.48 13.07 22.78 13.07 21.73 13.84 22.1 15.07 21.08 14.31 20.06 15.07 20.43 13.84 19.38 13.07 20.68 13.07 21.08 11.84"/><polygon class="cls-2" points="14.47 7.04 14.07 8.28 12.77 8.28 13.82 9.04 13.45 10.28 14.47 9.51 15.49 10.28 15.12 9.04 16.17 8.28 14.87 8.28 14.47 7.04"/><polygon class="cls-2" points="15.98 11.84 15.58 13.07 14.28 13.07 15.33 13.84 14.96 15.07 15.98 14.31 17 15.07 16.63 13.84 17.68 13.07 16.39 13.07 15.98 11.84"/><path class="cls-2" d="M40.5,20.25a20.25,20.25,0,0,1-40.5,0Z"/></g></g></svg>