<svg viewBox="0 0 40.5 40.5" xmlns="http://www.w3.org/2000/svg"><path d="m40.5 20.25h-40.5a20.25 20.25 0 0 1 40.5 0z" fill="#ed2939"/><g fill="#fff"><path d="m10.19 10.13a7.19 7.19 0 0 1 6.94-7.19 7.62 7.62 0 1 0 0 14.38 7.19 7.19 0 0 1 -6.94-7.19z"/><path d="m18.53 4.01.4 1.24h1.3l-1.05.76.37 1.24-1.02-.77-1.02.77.37-1.24-1.05-.76h1.3z"/><path d="m22.59 7.04.4 1.24h1.3l-1.05.76.37 1.24-1.02-.77-1.02.77.37-1.24-1.05-.76h1.3z"/><path d="m21.08 11.84.4 1.23h1.3l-1.05.77.37 1.23-1.02-.76-1.02.76.37-1.23-1.05-.77h1.3z"/><path d="m14.47 7.04-.4 1.24h-1.3l1.05.76-.37 1.24 1.02-.77 1.02.77-.37-1.24 1.05-.76h-1.3z"/><path d="m15.98 11.84-.4 1.23h-1.3l1.05.77-.37 1.23 1.02-.76 1.02.76-.37-1.23 1.05-.77h-1.29z"/><path d="m40.5 20.25a20.25 20.25 0 0 1 -40.5 0z"/></g></svg>