<svg viewBox="0 0 40.5 40.5" xmlns="http://www.w3.org/2000/svg"><path d="m37.48 9.61-36.08 18.05a20.25 20.25 0 0 1 36.08-18z" fill="#0051ba"/><path d="m40.5 20.25a20.24 20.24 0 0 1 -37.5 10.65l36.07-18a20.09 20.09 0 0 1 1.43 7.35z" fill="#215b33"/><path d="m39.11 12.87-36.11 18.03a18.94 18.94 0 0 1 -1.6-3.24l36.08-18a21.11 21.11 0 0 1 1.63 3.21z" fill="#ed2939"/><path d="m39.11 12.87-36.11 18.03a18.94 18.94 0 0 1 -1.6-3.24l36.08-18a21.11 21.11 0 0 1 1.63 3.21z" fill="#fcd116"/><g fill="#fff"><path d="m12.49 9.75.5 1.54h1.62l-1.31.95.5 1.55-1.31-.96-1.31.96.5-1.55-1.32-.95h1.63z"/><path d="m16.89 5.93.5 1.54h1.62l-1.31.95.5 1.55-1.31-.96-1.31.96.5-1.55-1.31-.95h1.62z"/><path d="m16.89 13.49.5 1.55h1.62l-1.31.95.5 1.54-1.31-.95-1.31.95.5-1.54-1.31-.95h1.62z"/><path d="m8.09 5.93-.51 1.54h-1.62l1.31.95-.5 1.55 1.32-.96 1.31.96-.5-1.55 1.31-.95h-1.62z"/><path d="m8.09 13.49-.51 1.55h-1.62l1.31.95-.5 1.54 1.32-.95 1.31.95-.5-1.54 1.31-.95h-1.62z"/></g></svg>