<svg xmlns="http://www.w3.org/2000/svg" viewBox="0 0 40.5 40.5"><defs><style>.cls-1{fill:#0051ba;}.cls-2{fill:#215b33;}.cls-3{fill:#ed2939;}.cls-4{fill:#fcd116;}.cls-5{fill:#fff;}</style></defs><g id="Ebene_2" data-name="Ebene 2"><g id="Ńëîé_1" data-name="Ńëîé 1"><path class="cls-1" d="M37.48,9.61,1.4,27.66a20.25,20.25,0,0,1,36.08-18Z"/><path class="cls-2" d="M40.5,20.25A20.24,20.24,0,0,1,3,30.9l36.07-18A20.09,20.09,0,0,1,40.5,20.25Z"/><path class="cls-3" d="M39.11,12.87,3,30.9A18.94,18.94,0,0,1,1.4,27.66l36.08-18A21.11,21.11,0,0,1,39.11,12.87Z"/><path class="cls-4" d="M39.11,12.87,3,30.9A18.94,18.94,0,0,1,1.4,27.66l36.08-18A21.11,21.11,0,0,1,39.11,12.87Z"/><polygon class="cls-5" points="12.49 9.75 12.99 11.29 14.61 11.29 13.3 12.24 13.8 13.79 12.49 12.83 11.18 13.79 11.68 12.24 10.36 11.29 11.99 11.29 12.49 9.75"/><polygon class="cls-5" points="16.89 5.93 17.39 7.47 19.01 7.47 17.7 8.42 18.2 9.97 16.89 9.01 15.58 9.97 16.08 8.42 14.77 7.47 16.39 7.47 16.89 5.93"/><polygon class="cls-5" points="16.89 13.49 17.39 15.04 19.01 15.04 17.7 15.99 18.2 17.53 16.89 16.58 15.58 17.53 16.08 15.99 14.77 15.04 16.39 15.04 16.89 13.49"/><polygon class="cls-5" points="8.09 5.93 7.58 7.47 5.96 7.47 7.27 8.42 6.77 9.97 8.09 9.01 9.4 9.97 8.9 8.42 10.21 7.47 8.59 7.47 8.09 5.93"/><polygon class="cls-5" points="8.09 13.49 7.58 15.04 5.96 15.04 7.27 15.99 6.77 17.53 8.09 16.58 9.4 17.53 8.9 15.99 10.21 15.04 8.59 15.04 8.09 13.49"/></g></g></svg>