<svg viewBox="0 0 40.5 40.5" xmlns="http://www.w3.org/2000/svg"><path d="m40.5 20.25a20.22 20.22 0 0 1 -2 8.73h-36.5c-.12-.25-.24-.5-.35-.75a20.35 20.35 0 0 1 0-16l.35-.73h36.52a20.34 20.34 0 0 1 1.98 8.75z" fill="#ffce00"/><path d="m38.52 11.5h-36.52a20.26 20.26 0 0 1 36.54 0z" fill="#12ad2b"/><path d="m38.52 29a20.25 20.25 0 0 1 -36.52 0z" fill="#12ad2b"/><path d="m9.58 20.25-7.95 8a20.35 20.35 0 0 1 0-16z" fill="#d21034"/><path d="m17.21 15.69.99 3.07h3.23l-2.61 1.89 1 3.06-2.61-1.89-2.61 1.89 1-3.06-2.61-1.89h3.22z"/><path d="m31.02 15.69.99 3.07h3.22l-2.6 1.89 1 3.06-2.61-1.89-2.61 1.89 1-3.06-2.61-1.89h3.22z"/></svg>