<svg xmlns="http://www.w3.org/2000/svg" viewBox="0 0 40.5 40.5"><defs><style>.cls-1{fill:#ffce00;}.cls-2{fill:#12ad2b;}.cls-3{fill:#d21034;}</style></defs><g id="Ebene_2" data-name="Ebene 2"><g id="Ńëîé_1" data-name="Ńëîé 1"><path class="cls-1" d="M40.5,20.25a20.22,20.22,0,0,1-2,8.73H2c-.12-.25-.24-.5-.35-.75a20.35,20.35,0,0,1,0-16L2,11.5H38.52A20.34,20.34,0,0,1,40.5,20.25Z"/><path class="cls-2" d="M38.52,11.5H2a20.26,20.26,0,0,1,36.54,0Z"/><path class="cls-2" d="M38.52,29A20.25,20.25,0,0,1,2,29Z"/><path class="cls-3" d="M9.58,20.25l-7.95,8a20.35,20.35,0,0,1,0-16Z"/><polygon points="17.21 15.69 18.2 18.76 21.43 18.76 18.82 20.65 19.82 23.71 17.21 21.82 14.6 23.71 15.6 20.65 12.99 18.76 16.21 18.76 17.21 15.69"/><polygon points="31.02 15.69 32.01 18.76 35.23 18.76 32.63 20.65 33.63 23.71 31.02 21.82 28.41 23.71 29.41 20.65 26.8 18.76 30.02 18.76 31.02 15.69"/></g></g></svg>