<svg xmlns="http://www.w3.org/2000/svg" viewBox="0 0 40.5 40.5"><defs><style>.cls-1{fill:#b40a2d;}.cls-2{fill:#377e3f;}.cls-3{fill:#fff;}.cls-4{fill:#ecc81d;}</style></defs><g id="Ebene_2" data-name="Ebene 2"><g id="Ńëîé_1" data-name="Ńëîé 1"><path class="cls-1" d="M40.5,20.25a20.08,20.08,0,0,1-1.67,8.06H1.67a20.29,20.29,0,0,1,0-16.12H38.83A20.08,20.08,0,0,1,40.5,20.25Z"/><path class="cls-2" d="M36.41,8.06H4.09a20.23,20.23,0,0,1,32.32,0Z"/><path class="cls-2" d="M36.41,32.44a20.23,20.23,0,0,1-32.32,0Z"/><path class="cls-3" d="M38.83,12.19H1.67A20.32,20.32,0,0,1,4.09,8.06H36.41A20.32,20.32,0,0,1,38.83,12.19Z"/><path class="cls-3" d="M38.83,28.31a20.32,20.32,0,0,1-2.42,4.13H4.09a20.32,20.32,0,0,1-2.42-4.13Z"/><polygon class="cls-4" points="20.26 13.05 22.06 18.59 27.88 18.59 23.17 22.01 24.97 27.54 20.26 24.12 15.55 27.54 17.35 22.01 12.64 18.59 18.46 18.59 20.26 13.05"/></g></g></svg>