<svg viewBox="0 0 1018.17 1003.25" xmlns="http://www.w3.org/2000/svg"><path d="m989 331.87h-960c134.6-442.61 825.5-442.38 960 0z" fill="#fff"/><path d="m989 671.47c-134.68 442.39-825.45 442.36-960 0z" fill="#ed1c24"/><path d="m1018.17 501.62a506.86 506.86 0 0 1 -29.17 169.85h-960c-38.56-105.28-38.76-234.26 0-339.6h960a503.77 503.77 0 0 1 29.17 169.75z" fill="#0f4ea0"/><path d="m609.89 413.49c-2.25-48.87-4.4-136.83-6.07-186.21h-429c-17.31 203.62-34.68 455.83 214.56 548.78 149.06-53.29 251.62-234 220.51-362.57zm-56.6 205.86c-36.11 59.55-102.24 102.3-163.91 135-225-83.35-213.12-321.57-196-508h391.92c-6.48 130.51 39.5 237.7-32.01 373z" fill="#fff"/><path d="m589.76 390.51c1.94 62.07 13.6 147.45-36.47 228.84-45-68.47-83.9-26.75-99-11.66-17.26-33.26-34.41-47.21-46.64-52.92v-81.27a646.36 646.36 0 0 1 106 11.43v-60.58a660.87 660.87 0 0 1 -106 11.43v-55.21a444.33 444.33 0 0 1 83.35 11.31v-60.58a448.39 448.39 0 0 1 -81.86 11.2c1.49-25.26 4.13-50.29 8-75.32h-55.65c3.89 25 6.63 50.06 8.12 75.32a441.22 441.22 0 0 1 -82-11.2v60.58a446.57 446.57 0 0 1 83.39-11.31c.23 8.11 0 46.82.1 55.21a662.23 662.23 0 0 1 -106.1-11.43v60.58a647.69 647.69 0 0 1 106.09-11.43v81.27c-12.34 5.71-29.38 19.66-46.64 52.92-15.08-15.09-54.05-56.81-99 11.66-70.95-130.42-25.9-246.73-32.12-373h391.97z" fill="#ed1c24"/><path d="m513.63 424.35v60.58a646.36 646.36 0 0 0 -106-11.43v81.27c-17.17-5.79-19.5-5.8-36.58 0v-81.27a647.69 647.69 0 0 0 -106.05 11.43v-60.58a662.23 662.23 0 0 0 106.07 11.43c-.06-8.63.13-46.88-.1-55.21a446.57 446.57 0 0 0 -83.34 11.31v-60.58a441.22 441.22 0 0 0 82 11.2c-1.49-25.26-4.23-50.29-8.12-75.32h55.67c-3.88 25-6.52 50.06-8 75.32a448.39 448.39 0 0 0 81.82-11.2v60.58a444.33 444.33 0 0 0 -83.34-11.31v55.21a660.87 660.87 0 0 0 105.97-11.43z" fill="#fff"/><path d="m453.53 607.69c-28.15-46.51-43.29-64.94-83.21-52.92-12.35 5.71-29.38 19.66-46.64 52.92-15.09-15.09-54.05-56.81-99 11.66 36 59.6 102.37 102.42 163.92 135 61.51-32.67 127.77-75.45 163.91-135-45.03-68.47-83.89-26.75-98.98-11.66z" fill="#0f4ea0"/></svg>