<svg xmlns="http://www.w3.org/2000/svg" viewBox="0 0 373 373"><defs><style>.cls-1{fill:#fff;}.cls-2{fill:#ec1c24;}.cls-3{fill:#055da3;}.cls-4{fill:#fcdb19;}</style></defs><g id="Ebene_2" data-name="Ebene 2"><g id="Ebene_1-2" data-name="Ebene 1"><path class="cls-1" d="M362.28,124.33H10.68C36.3,52,105.45,0,186.5,0S336.66,52,362.28,124.33Z"/><path class="cls-2" d="M362.28,248.71C336.66,321.05,267.51,373,186.5,373S36.34,321.05,10.68,248.71Z"/><path class="cls-3" d="M373,186.5a184.64,184.64,0,0,1-10.72,62.21H10.68a186.41,186.41,0,0,1,0-124.38h351.6A184.58,184.58,0,0,1,373,186.5Z"/><path class="cls-1" d="M129.48,152.84c6,0,6-3.05,12-3.05s6,3.05,12,3.05c4.39,0,5.57-1.63,8.25-2.51a49.17,49.17,0,0,1-2.35,4.35,11.19,11.19,0,0,1-5.9,1.51c-6,0-6-3.05-12-3.05s-6,3.05-12,3.05-6-3.05-12-3.05-6,3.05-12,3.05a11,11,0,0,1-5.82-1.46c-.92-1.51-1.68-3-2.39-4.4,2.68.88,3.85,2.51,8.21,2.51,6,0,6-3.05,12-3.05S123.5,152.84,129.48,152.84Z"/><path class="cls-1" d="M129.48,159.5c6,0,6-3.06,12-3.06s6,3.06,12,3.06a14,14,0,0,0,2.84-.29c-5.48,7.41-13.89,14.77-26.75,19.38-12.89-4.61-21.3-12-26.79-19.38a11.39,11.39,0,0,0,2.81.29c6,0,6-3.06,12-3.06S123.5,159.5,129.48,159.5Z"/><path class="cls-1" d="M141.46,146.48c-6,0-6,3.05-12,3.05s-6-3.05-12-3.05-6,3.05-12,3.05c-5.15,0-5.86-2.3-9.8-2.88A55,55,0,0,1,93,137.52l18.5-24.45,7.29,10,10.71-21.35,10.76,21.35,7.29-10L166,137.52a54.17,54.17,0,0,1-2.72,9.13h0c-3.94.58-4.65,2.88-9.84,2.88C147.44,149.53,147.44,146.48,141.46,146.48Z"/><path class="cls-3" d="M153.22,63.42a125.48,125.48,0,0,0-47.39,0,89.8,89.8,0,0,0-21.69,6.74l.21,3.18,3.86,51L89,134.42c.13,1.43,3.56,35.38,40.56,47.85,37-12.47,40.4-46.42,40.53-47.81l.75-10.13,3.85-51,.21-3.09,0,0C171.35,68.45,164.27,65.56,153.22,63.42ZM139.4,69.07l2.52.26.46-1L143,67l.59,1.38.42.93,2.51-.26L145,71.13l1.51,2L144,72.88l-1,2.31-1-2.31-2.52.25,1.51-2ZM126,87.08l2.51.25,1-2.31,1,2.31,2.51-.25-1.51,2L133,91.14l-2.51-.26-1,2.31-1-2.31-2.51.26,1.5-2.06Zm-13.44-18,2.51.26.42-.93L116,67l.59,1.26.46,1,2.51-.26-1.5,2.06,1.5,2-2.51-.25-1,2.31-1-2.31-2.51.25,1.51-2Zm17,109.52c-12.89-4.61-21.3-12-26.79-19.38a11.39,11.39,0,0,0,2.81.29c6,0,6-3.06,12-3.06s6,3.06,12,3.06,6-3.06,12-3.06,6,3.06,12,3.06a11.38,11.38,0,0,0,2.84-.29C150.79,166.62,142.38,174,129.52,178.59Zm29.81-23.91a11.19,11.19,0,0,1-5.9,1.51c-6,0-6-3.05-12-3.05s-6,3.05-12,3.05-6-3.05-12-3.05-6,3.05-12,3.05a11,11,0,0,1-5.82-1.46,46.56,46.56,0,0,1-2.35-4.4c2.64.88,3.81,2.55,8.17,2.55,6,0,6-3.09,12-3.09s6,3.09,12,3.09,6-3.09,12-3.09,6,3.09,12,3.09c4.39,0,5.57-1.67,8.25-2.55C161,151.75,160.21,153.22,159.33,154.68Zm6.7-17.16a54.17,54.17,0,0,1-2.72,9.13h0c-3.94.58-4.65,2.88-9.84,2.88-6,0-6-3.05-12-3.05s-6,3.05-12,3.05-6-3.05-12-3.05-6,3.05-12,3.05c-5.15,0-5.86-2.3-9.8-2.88A56.11,56.11,0,0,1,93,137.52l10-13.19,8.54-11.26,7.29,10,10.71-21.35,10.76,21.35,7.29-10L156,124.33Z"/><polygon class="cls-4" points="141.92 72.88 139.4 73.14 140.91 71.13 139.4 69.07 141.92 69.33 142.38 68.28 142.42 68.28 142.96 67.02 143.55 68.4 143.55 68.4 143.97 69.33 146.48 69.07 144.97 71.13 146.48 73.14 143.97 72.88 142.96 75.19 141.92 72.88"/><polygon class="cls-4" points="130.53 87.33 133.04 87.08 131.53 89.08 133.04 91.14 130.53 90.84 129.52 93.19 128.48 90.84 125.97 91.14 127.47 89.08 125.97 87.08 128.48 87.33 129.52 85.02 130.53 87.33"/><polygon class="cls-4" points="117.09 72.88 116.09 75.19 115.04 72.88 112.53 73.14 114.03 71.13 112.53 69.07 115.04 69.33 115.46 68.4 116.09 67.02 116.63 68.28 117.09 69.33 119.6 69.07 118.1 71.13 119.6 73.14 117.09 72.88"/><path class="cls-2" d="M172.94,134.67s-3.23,37.64-43.42,50.66c-40.23-13-43.45-50.66-43.45-50.66l-4.73-63a21.83,21.83,0,0,1,2.8-1.51l.21,3.1L89,134.42c.13,1.47,3.6,35.38,40.56,47.85,36.93-12.47,40.4-46.38,40.53-47.81l4.6-61.16.26-3v0a28.66,28.66,0,0,1,2.76,1.51Z"/></g></g></svg>