<svg viewBox="0 0 373 373" xmlns="http://www.w3.org/2000/svg"><path d="m362.28 124.33h-351.6c25.62-72.33 94.77-124.33 175.82-124.33s150.16 52 175.78 124.33z" fill="#fff"/><path d="m362.28 248.71c-25.62 72.34-94.77 124.29-175.78 124.29s-150.16-51.95-175.82-124.29z" fill="#ec1c24"/><path d="m373 186.5a184.64 184.64 0 0 1 -10.72 62.21h-351.6a186.41 186.41 0 0 1 0-124.38h351.6a184.58 184.58 0 0 1 10.72 62.17z" fill="#055da3"/><g fill="#fff"><path d="m129.48 152.84c6 0 6-3.05 12-3.05s6 3.05 12 3.05c4.39 0 5.57-1.63 8.25-2.51a49.17 49.17 0 0 1 -2.35 4.35 11.19 11.19 0 0 1 -5.9 1.51c-6 0-6-3.05-12-3.05s-6 3.05-12 3.05-6-3.05-12-3.05-6 3.05-12 3.05a11 11 0 0 1 -5.82-1.46c-.92-1.51-1.68-3-2.39-4.4 2.68.88 3.85 2.51 8.21 2.51 6 0 6-3.05 12-3.05s6.02 3.05 12 3.05z"/><path d="m129.48 159.5c6 0 6-3.06 12-3.06s6 3.06 12 3.06a14 14 0 0 0 2.84-.29c-5.48 7.41-13.89 14.77-26.75 19.38-12.89-4.61-21.3-12-26.79-19.38a11.39 11.39 0 0 0 2.81.29c6 0 6-3.06 12-3.06s5.91 3.06 11.89 3.06z"/><path d="m141.46 146.48c-6 0-6 3.05-12 3.05s-6-3.05-12-3.05-6 3.05-12 3.05c-5.15 0-5.86-2.3-9.8-2.88a55 55 0 0 1 -2.66-9.13l18.5-24.45 7.29 10 10.71-21.35 10.76 21.35 7.29-10 18.45 24.45a54.17 54.17 0 0 1 -2.72 9.13c-3.94.58-4.65 2.88-9.84 2.88-6 0-6-3.05-11.98-3.05z"/></g><path d="m153.22 63.42a125.48 125.48 0 0 0 -47.39 0 89.8 89.8 0 0 0 -21.69 6.74l.21 3.18 3.86 51 .79 10.08c.13 1.43 3.56 35.38 40.56 47.85 37-12.47 40.4-46.42 40.53-47.81l.75-10.13 3.85-51 .21-3.09c-3.55-1.79-10.63-4.68-21.68-6.82zm-13.82 5.65 2.52.26.46-1 .62-1.33.59 1.38.42.93 2.51-.26-1.52 2.08 1.51 2-2.51-.25-1 2.31-1-2.31-2.52.25 1.51-2zm-13.4 18.01 2.51.25 1-2.31 1 2.31 2.51-.25-1.51 2 1.49 2.06-2.51-.26-1 2.31-1-2.31-2.51.26 1.5-2.06zm-13.44-18 2.51.26.42-.93.51-1.41.59 1.26.46 1 2.51-.26-1.5 2.06 1.5 2-2.51-.25-1 2.31-1-2.31-2.51.25 1.51-2zm17 109.52c-12.89-4.61-21.3-12-26.79-19.38a11.39 11.39 0 0 0 2.81.29c6 0 6-3.06 12-3.06s6 3.06 12 3.06 6-3.06 12-3.06 6 3.06 12 3.06a11.38 11.38 0 0 0 2.84-.29c-5.63 7.4-14.04 14.78-26.9 19.37zm29.81-23.91a11.19 11.19 0 0 1 -5.9 1.51c-6 0-6-3.05-12-3.05s-6 3.05-12 3.05-6-3.05-12-3.05-6 3.05-12 3.05a11 11 0 0 1 -5.82-1.46 46.56 46.56 0 0 1 -2.35-4.4c2.64.88 3.81 2.55 8.17 2.55 6 0 6-3.09 12-3.09s6 3.09 12 3.09 6-3.09 12-3.09 6 3.09 12 3.09c4.39 0 5.57-1.67 8.25-2.55-.72 1.41-1.51 2.88-2.39 4.34zm6.7-17.16a54.17 54.17 0 0 1 -2.72 9.13c-3.94.58-4.65 2.88-9.84 2.88-6 0-6-3.05-12-3.05s-6 3.05-12 3.05-6-3.05-12-3.05-6 3.05-12 3.05c-5.15 0-5.86-2.3-9.8-2.88a56.11 56.11 0 0 1 -2.71-9.14l10-13.19 8.54-11.26 7.29 10 10.71-21.35 10.76 21.35 7.29-10 8.41 11.26z" fill="#055da3"/><path d="m141.92 72.88-2.52.26 1.51-2.01-1.51-2.06 2.52.26.46-1.05h.04l.54-1.26.59 1.38.42.93 2.51-.26-1.51 2.06 1.51 2.01-2.51-.26-1.01 2.31z" fill="#fcdb19"/><path d="m130.53 87.33 2.51-.25-1.51 2 1.51 2.06-2.51-.3-1.01 2.35-1.04-2.35-2.51.3 1.5-2.06-1.5-2 2.51.25 1.04-2.31z" fill="#fcdb19"/><path d="m117.09 72.88-1 2.31-1.05-2.31-2.51.26 1.5-2.01-1.5-2.06 2.51.26.42-.93.63-1.38.54 1.26.46 1.05 2.51-.26-1.5 2.06 1.5 2.01z" fill="#fcdb19"/><path d="m172.94 134.67s-3.23 37.64-43.42 50.66c-40.23-13-43.45-50.66-43.45-50.66l-4.73-63a21.83 21.83 0 0 1 2.8-1.51l.21 3.1 4.65 61.16c.13 1.47 3.6 35.38 40.56 47.85 36.93-12.47 40.4-46.38 40.53-47.81l4.6-61.16.26-3a28.66 28.66 0 0 1 2.76 1.51z" fill="#ec1c24"/></svg>