<svg xmlns="http://www.w3.org/2000/svg" viewBox="0 0 40.5 40.5"><defs><style>.cls-1{fill:#b10c0c;}.cls-2{fill:#fff;}.cls-3{fill:#231f20;}.cls-4{fill:#ffd900;}.cls-5{fill:#3e5eb9;}.cls-6{fill:#3d5da7;}</style></defs><g id="Ebene_2" data-name="Ebene 2"><g id="Ńëîé_1" data-name="Ńëîé 1"><path class="cls-1" d="M40.5,20.25a20,20,0,0,1-1,6.33c0,.15-.1.28-.15.42-.11.32-.23.63-.35.94a18.77,18.77,0,0,1-1.22,2.46h-35a18.77,18.77,0,0,1-1.22-2.46c-.12-.31-.24-.62-.35-.94A2,2,0,0,1,1,26.58a19.49,19.49,0,0,1-1-6.33,20.06,20.06,0,0,1,1-6.32c.15-.47.31-.92.5-1.37a19.06,19.06,0,0,1,1.23-2.48h35A20.36,20.36,0,0,1,39,12.56c.19.45.35.9.5,1.37A20.06,20.06,0,0,1,40.5,20.25Z"/><polygon class="cls-2" points="33.85 17.19 35.03 16.77 36.92 17.41 35.05 18.05 33.85 17.63 33.85 17.19"/><path class="cls-3" d="M35.06,18.08l-1.24-.43v-.48L35,16.74h0l2,.67Zm-1.18-.47,1.18.4,1.77-.6-1.8-.6-1.15.4Z"/><path class="cls-4" d="M34.07,17.41a.25.25,0,0,1-.06.16.23.23,0,0,1-.16.06H7a.22.22,0,0,1-.22-.22.24.24,0,0,1,.07-.16A.2.2,0,0,1,7,17.19H33.85A.22.22,0,0,1,34.07,17.41Z"/><path class="cls-3" d="M33.85,17.66H7a.25.25,0,0,1-.25-.25.29.29,0,0,1,.07-.18A.24.24,0,0,1,7,17.16H33.85a.25.25,0,0,1,.25.25.24.24,0,0,1-.07.18A.29.29,0,0,1,33.85,17.66ZM7,17.22a.19.19,0,0,0-.13.05A.19.19,0,0,0,7,17.6H33.85a.2.2,0,0,0,.14-.06.19.19,0,0,0,0-.13.18.18,0,0,0-.19-.19Z"/><path class="cls-3" d="M33.22,17.42a.29.29,0,0,1-.12.21H33a0,0,0,0,1,0,0,.22.22,0,0,0,.13-.18.31.31,0,0,0-.13-.21s0,0,0,0h.08A.34.34,0,0,1,33.22,17.42Z"/><path class="cls-3" d="M33.45,17.42a.29.29,0,0,1-.12.21h-.08a0,0,0,0,1,0,0,.22.22,0,0,0,.13-.18.31.31,0,0,0-.13-.21s0,0,0,0h.08A.34.34,0,0,1,33.45,17.42Z"/><path class="cls-3" d="M33.67,17.42a.31.31,0,0,1-.13.21h-.08v0a.22.22,0,0,0,.13-.18.28.28,0,0,0-.13-.21v0h.08A.34.34,0,0,1,33.67,17.42Z"/><polygon class="cls-2" points="32.06 18.5 33.25 18.09 35.13 18.73 33.27 19.36 32.06 18.95 32.06 18.5"/><path class="cls-3" d="M33.27,19.39,32,19v-.49l1.22-.42h0l2,.67Zm-1.18-.47,1.18.41,1.77-.6-1.79-.61-1.16.41Z"/><path class="cls-4" d="M32.28,18.72a.21.21,0,0,1-.06.16.24.24,0,0,1-.16.07H5.24A.22.22,0,0,1,5,18.72a.21.21,0,0,1,.07-.15.2.2,0,0,1,.15-.06H32.06A.21.21,0,0,1,32.28,18.72Z"/><path class="cls-3" d="M32.06,19H5.24A.26.26,0,0,1,5,18.72a.28.28,0,0,1,.25-.25H32.06a.25.25,0,0,1,.25.25.23.23,0,0,1-.07.18A.25.25,0,0,1,32.06,19ZM5.24,18.54a.19.19,0,0,0-.13.05.18.18,0,0,0-.06.13.2.2,0,0,0,.19.2H32.06a.2.2,0,0,0,.14-.06.22.22,0,0,0,0-.14.18.18,0,0,0-.19-.18Z"/><path class="cls-3" d="M31.43,18.73a.29.29,0,0,1-.12.22h-.08a0,0,0,0,1,0,0,.23.23,0,0,0,.13-.19c0-.11-.13-.2-.13-.2v0h.08A.34.34,0,0,1,31.43,18.73Z"/><path class="cls-3" d="M31.66,18.73a.29.29,0,0,1-.12.22h-.08a0,0,0,0,1,0,0,.23.23,0,0,0,.13-.19c0-.11-.13-.2-.13-.2v0h.08A.34.34,0,0,1,31.66,18.73Z"/><path class="cls-3" d="M31.88,18.73a.28.28,0,0,1-.13.22h-.08v0c.09-.06.14-.12.14-.19a.3.3,0,0,0-.14-.2s0,0,0,0h.08A.31.31,0,0,1,31.88,18.73Z"/><rect class="cls-4" x="1.99" y="19.91" width="37.09" height="0.68" rx="0.34"/><path class="cls-3" d="M38.74,20.62H2.33A.38.38,0,0,1,2,20.25a.37.37,0,0,1,.37-.37H38.74a.37.37,0,0,1,.37.37A.38.38,0,0,1,38.74,20.62ZM2.33,19.94a.31.31,0,0,0,0,.62H38.74a.31.31,0,1,0,0-.62Z"/><path class="cls-2" d="M31.24,20.25s-3.72,5-8.66,6.27a9,9,0,0,1-2.26.3c-6,0-10.92-6.57-10.92-6.57s4.87-6.55,10.89-6.57h0C26.35,13.68,31.24,20.25,31.24,20.25Z"/><path d="M20.32,26.85c-3.13,0-5.94-1.79-7.75-3.29a22.42,22.42,0,0,1-3.2-3.29v0A21,21,0,0,1,12.57,17c1.8-1.5,4.6-3.29,7.72-3.3h0c3.12,0,5.93,1.79,7.74,3.29a21.86,21.86,0,0,1,3.2,3.29v0c0,.05-3.77,5-8.67,6.28A9,9,0,0,1,20.32,26.85ZM9.43,20.25a22.1,22.1,0,0,0,3.18,3.26c1.8,1.5,4.6,3.28,7.71,3.28a8.87,8.87,0,0,0,2.25-.3c4.73-1.22,8.38-5.91,8.63-6.24A21.58,21.58,0,0,0,28,17c-1.8-1.5-4.6-3.28-7.7-3.28h0c-3.1,0-5.89,1.79-7.68,3.28A21.58,21.58,0,0,0,9.43,20.25Z"/><path class="cls-5" d="M36,7.56H4.47A22.76,22.76,0,0,1,6.76,5.14,20.26,20.26,0,0,1,36,7.56Z"/><path class="cls-4" d="M37.77,10.08h-35A21.24,21.24,0,0,1,4.47,7.56H36A18.82,18.82,0,0,1,37.77,10.08Z"/><path class="cls-4" d="M37.77,30.4A19,19,0,0,1,36,32.94H4.47A19,19,0,0,1,2.73,30.4Z"/><path class="cls-5" d="M36,32.94A20.26,20.26,0,0,1,6.76,35.36a22.76,22.76,0,0,1-2.29-2.42Z"/><path class="cls-6" d="M3.53,20.5s-.91-.17-1.19,1.58l.19-.17a2,2,0,0,0,.13.72l.22-.21.21.73.12-.32a1.24,1.24,0,0,1,.27.43A1,1,0,0,0,4,24l.17-.19.53.26s-.09-.15.1-.28a4.7,4.7,0,0,0,.64-.45l0,.13a1.71,1.71,0,0,1,.27-.79l.11,0s0-.76,0-1.34L6,21.5s.14-.92-.28-1.17c0,0-.14-.22-1,0a8.5,8.5,0,0,0-.87-.22s.15.41-.34.14C3.55,20.25,3.65,20.48,3.53,20.5Z"/><path class="cls-3" d="M4.66,24.07h0l-.51-.26L4,24H4a1.12,1.12,0,0,1-.5-.73.94.94,0,0,0-.23-.38l-.1.27,0,0s0,0,0,0l-.2-.68-.18.17h0l0,0A2.47,2.47,0,0,1,2.5,22l-.15.12h0a0,0,0,0,1,0,0A2.13,2.13,0,0,1,3,20.62a.75.75,0,0,1,.53-.15s0,0,0,0,0-.14,0-.19,0,0,0,0h0c.21.12.28.1.3.08s0-.14,0-.18,0,0,0,0h0c.27,0,.79.2.87.22.79-.2,1,0,1,0,.43.25.3,1.16.29,1.2l0,0H6l-.11-.11c0,.56,0,1.26,0,1.27v0h0l-.09,0a1.71,1.71,0,0,0-.25.76s0,0,0,0,0,0,0,0l0-.09a5.36,5.36,0,0,1-.61.43c-.16.11-.09.23-.09.23s0,0,0,0S4.67,24.07,4.66,24.07Zm-.53-.33h0l.47.23a.26.26,0,0,1,.14-.24,6.58,6.58,0,0,0,.63-.45h0a0,0,0,0,1,0,0h0a1.54,1.54,0,0,1,.27-.68h0l.07,0c0-.17,0-.8,0-1.3,0,0,0,0,0,0h0l.12.11c0-.21.06-.89-.28-1.08h0s-.15-.2-1,0h0s-.53-.16-.82-.21a.24.24,0,0,1,0,.2c-.06,0-.15,0-.3,0a.25.25,0,0,1,0,.17.12.12,0,0,1-.07.05h0a.71.71,0,0,0-.49.14A2,2,0,0,0,2.38,22l.14-.11s0,0,0,0,0,0,0,0a1.73,1.73,0,0,0,.1.66l.19-.18h0l0,0,.18.64.09-.23,0,0h0a1.25,1.25,0,0,1,.28.44,1,1,0,0,0,.45.68l.14-.17Z"/><path class="cls-1" d="M2.93,22.23a1.55,1.55,0,0,0,.77-1.15s-.12-.28-.2,0A4.72,4.72,0,0,1,2.93,22.23Z"/><path class="cls-1" d="M3.49,23.05a1.69,1.69,0,0,0,.43-1,.14.14,0,0,0-.11-.15c-.12,0-.12.1-.12.25v.07A3.15,3.15,0,0,1,3.5,23S3.49,23,3.49,23.05Z"/><path class="cls-1" d="M4.12,23.48c0-.3.1-.2.1-.53,0-.11,0-.21,0-.27s0-.14.06-.14h0a0,0,0,0,1,0,0c.07.06.1.05.1.34a1.24,1.24,0,0,1-.26.78h0s0,0,0-.05a.76.76,0,0,1,0-.11h0Z"/><path class="cls-1" d="M4.5,21.81h0s0,.05,0,.11a1.24,1.24,0,0,0,.4.57s0,0,0,0a1,1,0,0,0,.36.22h0a6.78,6.78,0,0,1-.58-.82h0a.25.25,0,0,0,0-.07H4.52s0,0,0,0Z"/><path class="cls-1" d="M4.32,20.83s0,.07,0,.09c0,.28.69.82,1.07.82h0l-.95-.89H4.32Z"/><path class="cls-6" d="M38.39,21c-.21-.49-1.54-.84-1.73-.84a1.5,1.5,0,0,0-.24,0s-.06,0-.06,0,.07-.17.07-.19c-1.71,1.14-1.73,2.1-1.73,2.1h0s.34-.2.36-.21,0,.21,0,.32a3.77,3.77,0,0,0,.34,1.24c.1,0,.41-.42.41-.38h0c.34.68.5.55,1.17,1.22v-.05c0-.15.47-.63.48-.72s.12.17.15.17h0l.18-.47c.07-.16.29.34.29.06,0-.84.08-.46.22-.4h0v-.08c0-.1,0-.17,0-.3s0-.08,0-.11v-.05c0-.07,0-.14,0-.21v0c0-.09.25.37.25.21a3.87,3.87,0,0,1-.13-.63s0-.09,0-.1h0s.09.15.16.15h0s0-.07,0-.08A2.15,2.15,0,0,0,38.39,21Z"/><path d="M37,24.32h0a5.69,5.69,0,0,0-.57-.5,1.64,1.64,0,0,1-.59-.7l-.07.07c-.14.16-.26.29-.33.29A3.05,3.05,0,0,1,35,22.2c0-.08,0-.15,0-.23v0l-.09.05-.21.12a0,0,0,0,1,0,0s0,0,0,0h0v0c0-.14.15-1,1.75-2.11a0,0,0,0,1,0,0s0,0,0,0,0,0,0,.07a.38.38,0,0,0,0,.12s0,0,0,0a1.35,1.35,0,0,1,.24,0c.17,0,1.54.35,1.75.85l0,.07a1.62,1.62,0,0,1,.21.53c0,.09,0,.12,0,.12s-.09-.06-.13-.11l0-.05v.06h0a2.3,2.3,0,0,0,.1.51c0,.08,0,.11,0,.12s0,.06,0,.07-.08,0-.18-.16l0-.06v.35a.79.79,0,0,0,0,.17s0,.09,0,.13,0,.06,0,.08,0,0-.06,0a.43.43,0,0,1-.1-.09l0,0a1.34,1.34,0,0,0,0,.5s0,.1,0,.12-.09,0-.14-.09-.08-.09-.1-.09a0,0,0,0,0,0,0l-.12.32-.06.15s0,0,0,0-.1-.08-.14-.14a1.61,1.61,0,0,1-.18.24,1.48,1.48,0,0,0-.28.42v.06l0,0ZM35.79,23h0s0,0,0,0a1.57,1.57,0,0,0,.59.7,7,7,0,0,1,.53.47,1.48,1.48,0,0,1,.29-.45.89.89,0,0,0,.19-.27l0,0s0,0,0,0l.1.13.05-.13.12-.32h0a.06.06,0,0,1,.06-.05s.1.05.16.11l.07.07v-.06c0-.5,0-.55.07-.56s.08,0,.11.06l.06,0v0a.49.49,0,0,0,0-.12c0-.05,0-.11,0-.18v-.16a.41.41,0,0,1,0-.11v-.14s0,0,0,0,.06,0,.13.12l.1.12a.47.47,0,0,0,0-.09,2.36,2.36,0,0,1-.1-.53h0s0-.1,0-.12h0s.05,0,.07.08,0,0,.06.06v0a1.78,1.78,0,0,0-.21-.5l0-.07h0c-.2-.46-1.49-.81-1.7-.81h-.23c-.06,0-.1,0-.1-.07a.3.3,0,0,1,0-.11A3.44,3.44,0,0,0,34.73,22l.17-.09.13-.08s0,0,0,0,0,0,0,0V22c0,.08,0,.15,0,.23a4.09,4.09,0,0,0,.32,1.21,2.3,2.3,0,0,0,.28-.27C35.75,23.05,35.77,23,35.79,23Z"/><path class="cls-1" d="M35.25,22.74l.53-.92a.23.23,0,0,1,.11,0s.09,0,.09.12-.46.83-.72.83Z"/><path class="cls-1" d="M36.14,22.67v.06a1.73,1.73,0,0,1,0,.38c0,.25,0,.29,0,.29s.23-.23.23-.47,0-.34-.16-.34h-.06A.11.11,0,0,0,36.14,22.67Z"/><path class="cls-1" d="M36.86,23.8a.43.43,0,0,1,0-.24c0-.09,0-.17,0-.25a3.71,3.71,0,0,0-.13-.53c0-.07,0-.07.09-.07s.21.47.21.57a1.72,1.72,0,0,1-.05.37A.55.55,0,0,1,36.86,23.8Z"/><path class="cls-1" d="M37.46,22.8h0a.76.76,0,0,1-.51-.61A.08.08,0,0,1,37,22.1a2.56,2.56,0,0,1,.26.45c0,.08.12.13.17.21A.06.06,0,0,1,37.46,22.8Z"/><path class="cls-1" d="M36.85,21.4s0,.07,0,.08.4.38.62.38c0,0,.09,0,.09,0v0h0l-.61-.4h-.09Z"/><path d="M22.58,26.52a9,9,0,0,1-2.26.3c-6,0-10.92-6.57-10.92-6.57s4.87-6.55,10.89-6.57a3.34,3.34,0,0,0-.94,1.65s-.08.26.38.87a.78.78,0,0,1,.19.55c0,.26.4.18.54.21s.22.13.31.47a.37.37,0,0,0,.4.28c.22-.05-.38,2.21.84,2.31.1,0,.21.21,0,.4a1.65,1.65,0,0,0-1,1.55.86.86,0,0,1-.41.49c-.38.25-.85.56.05.9s1.1.47,1.1.64-.49.26-.49.26-3.14.26,0,1.17C21.29,25.43,22.53,25.9,22.58,26.52Z"/><rect x="21.5" y="20.83" width="0.5" height="1.73"/><rect x="22.55" y="20.83" width="0.5" height="1.73"/><rect x="23.61" y="20.83" width="0.5" height="1.73"/><rect x="24.68" y="20.83" width="0.5" height="1.73"/><rect x="25.72" y="20.83" width="0.5" height="1.73"/><rect x="26.79" y="20.83" width="0.5" height="1.73"/><rect x="21.5" y="17.93" width="0.5" height="1.73"/><rect x="22.55" y="17.93" width="0.5" height="1.73"/><rect x="23.61" y="17.93" width="0.5" height="1.73"/><rect x="24.68" y="17.93" width="0.5" height="1.73"/><rect x="25.72" y="17.93" width="0.5" height="1.73"/><rect x="26.79" y="17.93" width="0.5" height="1.73"/><rect class="cls-2" x="13.48" y="20.83" width="0.5" height="1.73"/><rect class="cls-2" x="14.52" y="20.83" width="0.5" height="1.73"/><rect class="cls-2" x="15.58" y="20.83" width="0.5" height="1.73"/><rect class="cls-2" x="16.65" y="20.83" width="0.5" height="1.73"/><rect class="cls-2" x="17.7" y="20.83" width="0.5" height="1.73"/><rect class="cls-2" x="18.77" y="20.83" width="0.5" height="1.73"/><rect class="cls-2" x="16.65" y="17.93" width="0.5" height="1.73"/><rect class="cls-2" x="13.48" y="17.93" width="0.5" height="1.73"/><rect class="cls-2" x="14.52" y="17.93" width="0.5" height="1.73"/><rect class="cls-2" x="15.58" y="17.93" width="0.5" height="1.73"/><rect class="cls-2" x="17.7" y="17.93" width="0.5" height="1.73"/><rect class="cls-2" x="18.77" y="17.93" width="0.5" height="1.73"/><path class="cls-6" d="M19.05,16.39a1.89,1.89,0,0,0-1.76-1.23h-.35c-.13,0-.25,0-.25-.18,0,0,0,0,0,0h0a3.07,3.07,0,0,0-1.46,1.95c0,.18.12-.11.38-.2h0a0,0,0,0,1,0,0h0a1.43,1.43,0,0,0-.18.64.66.66,0,0,0,.07.33h0c.53-.49-.18-.27.8.53h0s.14-.23.14-.27h0l.21.33a4.27,4.27,0,0,0,.44.41h0s.1-.29.13-.29h0c.1.09.65.68,1.05.68l.21-.53a1.22,1.22,0,0,0,0-.26c0-.16-.11-.28-.11-.43v0h0a1,1,0,0,0,.4.25s0,0,0-.05-.19-.28-.19-.46c0,0,0,0,0,0s.2.16.3.16,0-.05,0-.08a3.11,3.11,0,0,0-.55-1.08h0c.1,0,.57.29.71.29h0s0,0,0-.06a.17.17,0,0,0,0-.1A2.39,2.39,0,0,1,19.05,16.39Z"/><path d="M18.26,19.14c-.36,0-.81-.44-1-.63l0,0,0,.11c0,.13-.06.17-.09.17s0,0,0,0a1.45,1.45,0,0,0-.19-.17,1.13,1.13,0,0,1-.25-.24l-.18-.28c0,.09-.1.22-.15.22h0a1.52,1.52,0,0,1-.57-.73,1.48,1.48,0,0,1-.19.2h0c-.06,0-.1-.22-.1-.36a1.12,1.12,0,0,1,.14-.55.13.13,0,0,0,0-.07,1,1,0,0,0-.22.17c-.05.05-.08.08-.11.07a.1.1,0,0,1,0-.09,3.05,3.05,0,0,1,1.47-2h.07a.08.08,0,0,1,0,0h0a.17.17,0,0,0,0,.12.22.22,0,0,0,.15,0h.38a1.92,1.92,0,0,1,1.79,1.25h0a1.59,1.59,0,0,0,.12.27.2.2,0,0,1,0,.11c0,.08,0,.09,0,.09h0a1.5,1.5,0,0,1-.41-.16l-.28-.13,0,0a2.66,2.66,0,0,1,.52,1s0,.11-.06.11a.26.26,0,0,1-.17-.09.21.21,0,0,0-.13-.07h0a.7.7,0,0,0,.12.3.47.47,0,0,1,.07.16c0,.07,0,.08-.05.08s-.3-.16-.38-.23a.42.42,0,0,0,0,.16.65.65,0,0,1,.06.24,1.39,1.39,0,0,1,0,.27l-.21.53S18.27,19.14,18.26,19.14Zm-1.05-.74s0,0,0,0l.07.06c.16.16.6.6.94.61,0-.09.2-.5.2-.51a1.13,1.13,0,0,0,0-.25.65.65,0,0,0,0-.21.55.55,0,0,1-.06-.22s0,0,0,0,0,0,0,0h0s0,0,0,0a1.22,1.22,0,0,0,.37.24v0a.43.43,0,0,0-.06-.12.71.71,0,0,1-.13-.34s0-.08.06-.08a.28.28,0,0,1,.17.1s.08.07.12.07a.43.43,0,0,0,0-.05,2.75,2.75,0,0,0-.51-1l0-.05a.05.05,0,0,1,0-.06.05.05,0,0,1,0,0,1.26,1.26,0,0,1,.33.13,2.25,2.25,0,0,0,.37.16v0a.11.11,0,0,0,0-.08,2.36,2.36,0,0,1-.12-.28h0a1.86,1.86,0,0,0-1.73-1.21h-.38a.28.28,0,0,1-.2,0,.26.26,0,0,1-.05-.15,3,3,0,0,0-1.42,1.91v0l0,0a.79.79,0,0,1,.28-.21s.06,0,.06.05v0a.26.26,0,0,1,0,.1,1,1,0,0,0-.14.53.77.77,0,0,0,.05.28,2,2,0,0,0,.18-.21s0,0,.05,0a0,0,0,0,1,0,0c0,.2.21.46.55.74a.88.88,0,0,0,.1-.22h0s0,0,0,0,0,0,0,0,.2.32.21.32a1,1,0,0,0,.23.23,1.37,1.37,0,0,1,.18.16l0-.11C17.16,18.44,17.17,18.4,17.21,18.4Z"/><path class="cls-1" d="M16.05,17.6v0h0c.1-.27.33-1.43.33-1.43.15,0,.17.19.17.34s-.25,1.13-.45,1.13Z"/><path class="cls-1" d="M16.91,18.37c0-.08,0-.15,0-.22s0-.4,0-.41-.1-.37-.1-.56,0-.1.07-.1h0c.16,0,.19.67.19.78s0,.09-.12.31Z"/><path class="cls-1" d="M18.14,18.88c-.2-.05-.42-.94-.57-.94a.11.11,0,0,0-.11.12c0,.21.33.82.61.82Z"/><path class="cls-1" d="M17.72,16.72h0s-.07.07-.07.11c0,.25.77.66,1,.66,0,0,0,0,0,0a4.67,4.67,0,0,1-.82-.64.71.71,0,0,0-.14-.1Z"/><path class="cls-1" d="M17.2,15.77h0a.13.13,0,0,0,0,.1c0,.3.9.57,1.31.57h.18l0,0h0L17.78,16c-.21-.08-.12,0-.35-.15l-.16-.1Z"/></g></g></svg>