<svg viewBox="0 0 40.5 40.5" xmlns="http://www.w3.org/2000/svg"><path d="m40.5 20.25a20 20 0 0 1 -1 6.33c0 .15-.1.28-.15.42-.11.32-.23.63-.35.94a18.77 18.77 0 0 1 -1.22 2.46h-35a18.77 18.77 0 0 1 -1.22-2.46c-.12-.31-.24-.62-.35-.94a2 2 0 0 1 -.21-.42 19.49 19.49 0 0 1 -1-6.33 20.06 20.06 0 0 1 1-6.32c.15-.47.31-.92.5-1.37a19.06 19.06 0 0 1 1.23-2.48h35a20.36 20.36 0 0 1 1.27 2.48c.19.45.35.9.5 1.37a20.06 20.06 0 0 1 1 6.32z" fill="#b10c0c"/><path d="m33.85 17.19 1.18-.42 1.89.64-1.87.64-1.2-.42z" fill="#fff"/><path d="m35.06 18.08-1.24-.43v-.48l1.18-.43 2 .67zm-1.18-.47 1.18.4 1.77-.6-1.8-.6-1.15.4z" fill="#231f20"/><path d="m34.07 17.41a.25.25 0 0 1 -.06.16.23.23 0 0 1 -.16.06h-26.85a.22.22 0 0 1 -.22-.22.24.24 0 0 1 .07-.16.2.2 0 0 1 .15-.06h26.85a.22.22 0 0 1 .22.22z" fill="#ffd900"/><path d="m33.85 17.66h-26.85a.25.25 0 0 1 -.25-.25.29.29 0 0 1 .07-.18.24.24 0 0 1 .18-.07h26.85a.25.25 0 0 1 .25.25.24.24 0 0 1 -.07.18.29.29 0 0 1 -.18.07zm-26.85-.44a.19.19 0 0 0 -.13.05.19.19 0 0 0 .13.33h26.85a.2.2 0 0 0 .14-.06.19.19 0 0 0 0-.13.18.18 0 0 0 -.19-.19z" fill="#231f20"/><path d="m33.22 17.42a.29.29 0 0 1 -.12.21h-.1a0 0 0 0 1 0 0 .22.22 0 0 0 .13-.18.31.31 0 0 0 -.13-.21s0 0 0 0h.08a.34.34 0 0 1 .14.18z" fill="#231f20"/><path d="m33.45 17.42a.29.29 0 0 1 -.12.21h-.08a0 0 0 0 1 0 0 .22.22 0 0 0 .13-.18.31.31 0 0 0 -.13-.21s0 0 0 0h.08a.34.34 0 0 1 .12.18z" fill="#231f20"/><path d="m33.67 17.42a.31.31 0 0 1 -.13.21h-.08a.22.22 0 0 0 .13-.18.28.28 0 0 0 -.13-.21h.08a.34.34 0 0 1 .13.18z" fill="#231f20"/><path d="m32.06 18.5 1.19-.41 1.88.64-1.86.63-1.21-.41z" fill="#fff"/><path d="m33.27 19.39-1.27-.39v-.49l1.22-.42 2 .67zm-1.18-.47 1.18.41 1.77-.6-1.79-.61-1.16.41z" fill="#231f20"/><path d="m32.28 18.72a.21.21 0 0 1 -.06.16.24.24 0 0 1 -.16.07h-26.82a.22.22 0 0 1 -.24-.23.21.21 0 0 1 .07-.15.2.2 0 0 1 .15-.06h26.84a.21.21 0 0 1 .22.21z" fill="#ffd900"/><path d="m32.06 19h-26.82a.26.26 0 0 1 -.24-.28.28.28 0 0 1 .25-.25h26.81a.25.25 0 0 1 .25.25.23.23 0 0 1 -.07.18.25.25 0 0 1 -.18.1zm-26.82-.46a.19.19 0 0 0 -.13.05.18.18 0 0 0 -.06.13.2.2 0 0 0 .19.2h26.82a.2.2 0 0 0 .14-.06.22.22 0 0 0 0-.14.18.18 0 0 0 -.19-.18z" fill="#231f20"/><path d="m31.43 18.73a.29.29 0 0 1 -.12.22h-.08a0 0 0 0 1 0 0 .23.23 0 0 0 .13-.19c0-.11-.13-.2-.13-.2h.08a.34.34 0 0 1 .12.17z" fill="#231f20"/><path d="m31.66 18.73a.29.29 0 0 1 -.12.22h-.08a0 0 0 0 1 0 0 .23.23 0 0 0 .13-.19c0-.11-.13-.2-.13-.2h.08a.34.34 0 0 1 .12.17z" fill="#231f20"/><path d="m31.88 18.73a.28.28 0 0 1 -.13.22h-.08c.09-.06.14-.12.14-.19a.3.3 0 0 0 -.14-.2s0 0 0 0h.08a.31.31 0 0 1 .13.17z" fill="#231f20"/><rect fill="#ffd900" height=".68" rx=".34" width="37.09" x="1.99" y="19.91"/><path d="m38.74 20.62h-36.41a.38.38 0 0 1 -.33-.37.37.37 0 0 1 .37-.37h36.37a.37.37 0 0 1 .37.37.38.38 0 0 1 -.37.37zm-36.41-.68a.31.31 0 0 0 0 .62h36.41a.31.31 0 1 0 0-.62z" fill="#231f20"/><path d="m31.24 20.25s-3.72 5-8.66 6.27a9 9 0 0 1 -2.26.3c-6 0-10.92-6.57-10.92-6.57s4.87-6.55 10.89-6.57c6.06 0 10.95 6.57 10.95 6.57z" fill="#fff"/><path d="m20.32 26.85c-3.13 0-5.94-1.79-7.75-3.29a22.42 22.42 0 0 1 -3.2-3.29 21 21 0 0 1 3.2-3.27c1.8-1.5 4.6-3.29 7.72-3.3 3.12 0 5.93 1.79 7.74 3.29a21.86 21.86 0 0 1 3.2 3.29c0 .05-3.77 5-8.67 6.28a9 9 0 0 1 -2.24.29zm-10.89-6.6a22.1 22.1 0 0 0 3.18 3.26c1.8 1.5 4.6 3.28 7.71 3.28a8.87 8.87 0 0 0 2.25-.3c4.73-1.22 8.38-5.91 8.63-6.24a21.58 21.58 0 0 0 -3.2-3.25c-1.8-1.5-4.6-3.28-7.7-3.28-3.1 0-5.89 1.79-7.68 3.28a21.58 21.58 0 0 0 -3.19 3.25z"/><path d="m36 7.56h-31.53a22.76 22.76 0 0 1 2.29-2.42 20.26 20.26 0 0 1 29.24 2.42z" fill="#3e5eb9"/><path d="m37.77 10.08h-35a21.24 21.24 0 0 1 1.7-2.52h31.53a18.82 18.82 0 0 1 1.77 2.52z" fill="#ffd900"/><path d="m37.77 30.4a19 19 0 0 1 -1.77 2.54h-31.53a19 19 0 0 1 -1.74-2.54z" fill="#ffd900"/><path d="m36 32.94a20.26 20.26 0 0 1 -29.24 2.42 22.76 22.76 0 0 1 -2.29-2.42z" fill="#3e5eb9"/><path d="m3.53 20.5s-.91-.17-1.19 1.58l.19-.17a2 2 0 0 0 .13.72l.22-.21.21.73.12-.32a1.24 1.24 0 0 1 .27.43 1 1 0 0 0 .52.74l.17-.19.53.26s-.09-.15.1-.28a4.7 4.7 0 0 0 .64-.45v.13a1.71 1.71 0 0 1 .27-.79h.11s0-.76 0-1.34l.18.16s.14-.92-.28-1.17c0 0-.14-.22-1 0a8.5 8.5 0 0 0 -.87-.22s.15.41-.34.14c.04 0 .14.23.02.25z" fill="#3d5da7"/><path d="m4.66 24.07-.51-.26-.15.19a1.12 1.12 0 0 1 -.5-.73.94.94 0 0 0 -.23-.38l-.1.27s0 0 0 0l-.2-.68-.18.17a2.47 2.47 0 0 1 -.29-.65l-.15.12a0 0 0 0 1 0 0 2.13 2.13 0 0 1 .65-1.5.75.75 0 0 1 .53-.15s0 0 0 0 0-.14 0-.19 0 0 0 0c.21.12.28.1.3.08s0-.14 0-.18 0 0 0 0c.27 0 .79.2.87.22.79-.2 1 0 1 0 .43.25.3 1.16.29 1.2h.01l-.11-.11v1.27h-.09a1.71 1.71 0 0 0 -.25.76s0 0 0 0v-.09a5.36 5.36 0 0 1 -.61.43c-.16.11-.09.23-.09.23s0 0 0 0-.18-.02-.19-.02zm-.53-.33.47.23a.26.26 0 0 1 .14-.24 6.58 6.58 0 0 0 .63-.45 0 0 0 0 1 0 0 1.54 1.54 0 0 1 .27-.68h.07c0-.17 0-.8 0-1.3l.12.11c0-.21.06-.89-.28-1.08s-.15-.2-1 0-.53-.16-.82-.21a.24.24 0 0 1 0 .2c-.06 0-.15 0-.3 0a.25.25 0 0 1 0 .17.12.12 0 0 1 -.07.05.71.71 0 0 0 -.49.14 2 2 0 0 0 -.49 1.32l.14-.11s0 0 0 0a1.73 1.73 0 0 0 .1.66l.19-.18.18.64.09-.23a1.25 1.25 0 0 1 .28.44 1 1 0 0 0 .45.68l.14-.17z" fill="#231f20"/><path d="m2.93 22.23a1.55 1.55 0 0 0 .77-1.15s-.12-.28-.2 0a4.72 4.72 0 0 1 -.57 1.15z" fill="#b10c0c"/><path d="m3.49 23.05a1.69 1.69 0 0 0 .43-1 .14.14 0 0 0 -.11-.15c-.12 0-.12.1-.12.25v.07a3.15 3.15 0 0 1 -.19.78s-.01 0-.01.05z" fill="#b10c0c"/><path d="m4.12 23.48c0-.3.1-.2.1-.53 0-.11 0-.21 0-.27s0-.14.06-.14a0 0 0 0 1 0 0c.07.06.1.05.1.34a1.24 1.24 0 0 1 -.26.78s0 0 0-.05a.76.76 0 0 1 0-.11z" fill="#b10c0c"/><path d="m4.5 21.81s0 .05 0 .11a1.24 1.24 0 0 0 .4.57s0 0 0 0a1 1 0 0 0 .36.22 6.78 6.78 0 0 1 -.58-.82.25.25 0 0 0 0-.07h-.16s0 0 0 0z" fill="#b10c0c"/><path d="m4.32 20.83s0 .07 0 .09c0 .28.69.82 1.07.82l-.95-.89h-.12z" fill="#b10c0c"/><path d="m38.39 21c-.21-.49-1.54-.84-1.73-.84a1.5 1.5 0 0 0 -.24 0s-.06 0-.06 0 .07-.17.07-.19c-1.71 1.14-1.73 2.1-1.73 2.1s.34-.2.36-.21 0 .21 0 .32a3.77 3.77 0 0 0 .34 1.24c.1 0 .41-.42.41-.38.34.68.5.55 1.17 1.22v-.05c0-.15.47-.63.48-.72s.12.17.15.17l.18-.47c.07-.16.29.34.29.06 0-.84.08-.46.22-.4v-.08c0-.1 0-.17 0-.3s0-.08 0-.11v-.05c0-.07 0-.14 0-.21 0-.09.25.37.25.21a3.87 3.87 0 0 1 -.13-.63s0-.09 0-.1.09.15.16.15 0-.07 0-.08a2.15 2.15 0 0 0 -.19-.65z" fill="#3d5da7"/><path d="m37 24.32a5.69 5.69 0 0 0 -.57-.5 1.64 1.64 0 0 1 -.59-.7l-.07.07c-.14.16-.26.29-.33.29a3.05 3.05 0 0 1 -.44-1.28c0-.08 0-.15 0-.23l-.09.05-.21.12a0 0 0 0 1 0 0s0 0 0 0c0-.14.15-1 1.75-2.11a0 0 0 0 1 0 0s0 0 0 0 0 0 0 .07a.38.38 0 0 0 0 .12s0 0 0 0a1.35 1.35 0 0 1 .24 0c.17 0 1.54.35 1.75.85v.07a1.62 1.62 0 0 1 .21.53v.12s-.09-.06-.13-.11v-.05.06a2.3 2.3 0 0 0 .1.51v.12s0 .06 0 .07-.08 0-.18-.16v-.06.35a.79.79 0 0 0 0 .17s0 .09 0 .13 0 .06 0 .08 0 0-.06 0a.43.43 0 0 1 -.1-.09 1.34 1.34 0 0 0 0 .5s0 .1 0 .12-.09 0-.14-.09-.08-.09-.1-.09a0 0 0 0 0 0 0l-.12.32-.06.15s0 0 0 0-.1-.08-.14-.14a1.61 1.61 0 0 1 -.18.24 1.48 1.48 0 0 0 -.28.42v.06zm-1.21-1.32s0 0 0 0a1.57 1.57 0 0 0 .59.7 7 7 0 0 1 .53.47 1.48 1.48 0 0 1 .29-.45.89.89 0 0 0 .19-.27s0 0 0 0l.1.13.05-.13.12-.32a.06.06 0 0 1 .06-.05s.1.05.16.11l.07.07v-.06c0-.5 0-.55.07-.56s.08 0 .11.06h.06a.49.49 0 0 0 0-.12c0-.05 0-.11 0-.18v-.16a.41.41 0 0 1 0-.11v-.14s0 0 0 0 .06 0 .13.12l.1.12a.47.47 0 0 0 0-.09 2.36 2.36 0 0 1 -.1-.53s0-.1 0-.12.05 0 .07.08 0 0 .06.06a1.78 1.78 0 0 0 -.21-.5v-.07c-.2-.46-1.49-.81-1.7-.81h-.23c-.06 0-.1 0-.1-.07a.3.3 0 0 1 0-.11 3.44 3.44 0 0 0 -1.48 1.93l.17-.09.13-.08s0 0 0 0v.17.23a4.09 4.09 0 0 0 .32 1.21 2.3 2.3 0 0 0 .28-.27c.12-.12.14-.17.16-.17z"/><path d="m35.25 22.74.53-.92a.23.23 0 0 1 .11 0s.09 0 .09.12-.46.83-.72.83z" fill="#b10c0c"/><path d="m36.14 22.67v.06a1.73 1.73 0 0 1 0 .38v.29s.23-.23.23-.47 0-.34-.16-.34h-.06a.11.11 0 0 0 -.01.08z" fill="#b10c0c"/><path d="m36.86 23.8a.43.43 0 0 1 0-.24c0-.09 0-.17 0-.25a3.71 3.71 0 0 0 -.13-.53c0-.07 0-.07.09-.07s.21.47.21.57a1.72 1.72 0 0 1 -.05.37.55.55 0 0 1 -.12.15z" fill="#b10c0c"/><path d="m37.46 22.8a.76.76 0 0 1 -.51-.61.08.08 0 0 1 .05-.09 2.56 2.56 0 0 1 .26.45c0 .08.12.13.17.21a.06.06 0 0 1 .03.04z" fill="#b10c0c"/><path d="m36.85 21.4s0 .07 0 .08.4.38.62.38h.09l-.61-.4h-.09z" fill="#b10c0c"/><path d="m22.58 26.52a9 9 0 0 1 -2.26.3c-6 0-10.92-6.57-10.92-6.57s4.87-6.55 10.89-6.57a3.34 3.34 0 0 0 -.94 1.65s-.08.26.38.87a.78.78 0 0 1 .19.55c0 .26.4.18.54.21s.22.13.31.47a.37.37 0 0 0 .4.28c.22-.05-.38 2.21.84 2.31.1 0 .21.21 0 .4a1.65 1.65 0 0 0 -1 1.55.86.86 0 0 1 -.41.49c-.38.25-.85.56.05.9s1.1.47 1.1.64-.49.26-.49.26-3.14.26 0 1.17c.03 0 1.27.47 1.32 1.09z"/><path d="m21.5 20.83h.5v1.73h-.5z"/><path d="m22.55 20.83h.5v1.73h-.5z"/><path d="m23.61 20.83h.5v1.73h-.5z"/><path d="m24.68 20.83h.5v1.73h-.5z"/><path d="m25.72 20.83h.5v1.73h-.5z"/><path d="m26.79 20.83h.5v1.73h-.5z"/><path d="m21.5 17.93h.5v1.73h-.5z"/><path d="m22.55 17.93h.5v1.73h-.5z"/><path d="m23.61 17.93h.5v1.73h-.5z"/><path d="m24.68 17.93h.5v1.73h-.5z"/><path d="m25.72 17.93h.5v1.73h-.5z"/><path d="m26.79 17.93h.5v1.73h-.5z"/><g fill="#fff"><path d="m13.48 20.83h.5v1.73h-.5z"/><path d="m14.52 20.83h.5v1.73h-.5z"/><path d="m15.58 20.83h.5v1.73h-.5z"/><path d="m16.65 20.83h.5v1.73h-.5z"/><path d="m17.7 20.83h.5v1.73h-.5z"/><path d="m18.77 20.83h.5v1.73h-.5z"/><path d="m16.65 17.93h.5v1.73h-.5z"/><path d="m13.48 17.93h.5v1.73h-.5z"/><path d="m14.52 17.93h.5v1.73h-.5z"/><path d="m15.58 17.93h.5v1.73h-.5z"/><path d="m17.7 17.93h.5v1.73h-.5z"/><path d="m18.77 17.93h.5v1.73h-.5z"/></g><path d="m19.05 16.39a1.89 1.89 0 0 0 -1.76-1.23h-.35c-.13 0-.25 0-.25-.18a3.07 3.07 0 0 0 -1.46 1.95c0 .18.12-.11.38-.2a0 0 0 0 1 0 0 1.43 1.43 0 0 0 -.18.64.66.66 0 0 0 .07.33c.53-.49-.18-.27.8.53s.14-.23.14-.27l.21.33a4.27 4.27 0 0 0 .44.41s.1-.29.13-.29c.1.09.65.68 1.05.68l.21-.53a1.22 1.22 0 0 0 0-.26c0-.16-.11-.28-.11-.43a1 1 0 0 0 .4.25s0 0 0-.05-.19-.28-.19-.46.2.16.3.16 0-.05 0-.08a3.11 3.11 0 0 0 -.55-1.08c.1 0 .57.29.71.29s0 0 0-.06a.17.17 0 0 0 0-.1 2.39 2.39 0 0 1 .01-.35z" fill="#3d5da7"/><path d="m18.26 19.14c-.36 0-.81-.44-1-.63v.11c0 .13-.06.17-.09.17s0 0 0 0a1.45 1.45 0 0 0 -.19-.17 1.13 1.13 0 0 1 -.25-.24l-.18-.28c0 .09-.1.22-.15.22a1.52 1.52 0 0 1 -.57-.73 1.48 1.48 0 0 1 -.19.2c-.06 0-.1-.22-.1-.36a1.12 1.12 0 0 1 .14-.55.13.13 0 0 0 0-.07 1 1 0 0 0 -.22.17c-.05.05-.08.08-.11.07a.1.1 0 0 1 0-.09 3.05 3.05 0 0 1 1.47-2h.07a.08.08 0 0 1 0 0 .17.17 0 0 0 0 .12.22.22 0 0 0 .15 0h.38a1.92 1.92 0 0 1 1.79 1.25 1.59 1.59 0 0 0 .12.27.2.2 0 0 1 0 .11v.09a1.5 1.5 0 0 1 -.41-.16l-.28-.13a2.66 2.66 0 0 1 .52 1s0 .11-.06.11a.26.26 0 0 1 -.17-.09.21.21 0 0 0 -.13-.07.7.7 0 0 0 .12.3.47.47 0 0 1 .07.16c0 .07 0 .08-.05.08s-.3-.16-.38-.23a.42.42 0 0 0 0 .16.65.65 0 0 1 .06.24 1.39 1.39 0 0 1 0 .27l-.21.53s-.14.17-.15.17zm-1.05-.74s0 0 0 0l.07.06c.16.16.6.6.94.61 0-.09.2-.5.2-.51a1.13 1.13 0 0 0 0-.25.65.65 0 0 0 0-.21.55.55 0 0 1 -.06-.22s0 0 0 0a1.22 1.22 0 0 0 .37.24.43.43 0 0 0 -.06-.12.71.71 0 0 1 -.13-.34s0-.08.06-.08a.28.28 0 0 1 .17.1s.08.07.12.07a.43.43 0 0 0 0-.05 2.75 2.75 0 0 0 -.51-1v-.05a.05.05 0 0 1 0-.06 1.26 1.26 0 0 1 .33.13 2.25 2.25 0 0 0 .37.16.11.11 0 0 0 0-.08 2.36 2.36 0 0 1 -.12-.28 1.86 1.86 0 0 0 -1.73-1.21h-.38a.28.28 0 0 1 -.2 0 .26.26 0 0 1 -.05-.15 3 3 0 0 0 -1.42 1.91.79.79 0 0 1 .28-.21s.06 0 .06.05a.26.26 0 0 1 0 .1 1 1 0 0 0 -.14.53.77.77 0 0 0 .05.28 2 2 0 0 0 .18-.21s0 0 .05 0a0 0 0 0 1 0 0c0 .2.21.46.55.74a.88.88 0 0 0 .1-.22s0 0 0 0 .2.32.21.32a1 1 0 0 0 .23.23 1.37 1.37 0 0 1 .18.16v-.11c.23-.29.24-.33.28-.33z"/><path d="m16.05 17.6c.1-.27.33-1.43.33-1.43.15 0 .17.19.17.34s-.25 1.13-.45 1.13z" fill="#b10c0c"/><path d="m16.91 18.37c0-.08 0-.15 0-.22s0-.4 0-.41-.1-.37-.1-.56 0-.1.07-.1c.16 0 .19.67.19.78s0 .09-.12.31z" fill="#b10c0c"/><path d="m18.14 18.88c-.2-.05-.42-.94-.57-.94a.11.11 0 0 0 -.11.12c0 .21.33.82.61.82z" fill="#b10c0c"/><path d="m17.72 16.72s-.07.07-.07.11c0 .25.77.66 1 .66a4.67 4.67 0 0 1 -.82-.64.71.71 0 0 0 -.14-.1z" fill="#b10c0c"/><path d="m17.2 15.77a.13.13 0 0 0 0 .1c0 .3.9.57 1.31.57h.18l-.91-.44c-.21-.08-.12 0-.35-.15l-.16-.1z" fill="#b10c0c"/></svg>