<svg xmlns="http://www.w3.org/2000/svg" viewBox="0 0 40.5 40.5"><defs><style>.cls-1{fill:#fff;}.cls-2{fill:#003f87;}.cls-3{fill:#fcd856;}.cls-4{fill:#d62828;}.cls-5{fill:#007a3d;}</style></defs><g id="Ebene_2" data-name="Ebene 2"><g id="Ńëîé_1" data-name="Ńëîé 1"><path class="cls-1" d="M40.5,20.25a20.69,20.69,0,0,1-.38,3.89A20.21,20.21,0,0,1,6.7,35.28,20,20,0,0,1,.8,25.84,19.52,19.52,0,0,1,0,20.25,20.25,20.25,0,0,1,17.9.15L18,0h2.25A20.31,20.31,0,0,1,40.5,20.25Z"/><path class="cls-2" d="M17.9.15.8,25.84A19.52,19.52,0,0,1,0,20.25,20.25,20.25,0,0,1,17.9.15Z"/><path class="cls-3" d="M35.61,7.09,3.29,31.31A19.93,19.93,0,0,1,.8,25.84L17.9.15,18,0h2.25A20.12,20.12,0,0,1,35.61,7.09Z"/><path class="cls-4" d="M40.5,20.25a20.69,20.69,0,0,1-.38,3.89L6.7,35.28a19.89,19.89,0,0,1-3.41-4L35.61,7.09A20.08,20.08,0,0,1,40.5,20.25Z"/><path class="cls-5" d="M36,33A20.22,20.22,0,0,1,9.52,37.42Z"/></g></g></svg>