<svg xmlns="http://www.w3.org/2000/svg" viewBox="0 0 40.5 40.5"><defs><style>.cls-1{fill:#fff;}.cls-2{fill:#ce1126;}.cls-3{fill:#007a3d;}</style></defs><g id="Ebene_2" data-name="Ebene 2"><g id="Ńëîé_1" data-name="Ńëîé 1"><path class="cls-1" d="M40.5,20.25A20,20,0,0,1,39.34,27H1.16a20.22,20.22,0,0,1,0-13.5H39.34A20,20,0,0,1,40.5,20.25Z"/><path class="cls-2" d="M39.34,13.5H1.16a20.25,20.25,0,0,1,38.18,0Z"/><path d="M39.34,27A20.25,20.25,0,0,1,1.16,27Z"/><polygon class="cls-3" points="8.12 16.06 9.05 18.94 12.09 18.94 9.63 20.73 10.57 23.61 8.12 21.83 5.66 23.61 6.6 20.73 4.14 18.94 7.18 18.94 8.12 16.06"/><polygon class="cls-3" points="32.43 16.06 33.36 18.94 36.4 18.94 33.94 20.73 34.88 23.61 32.43 21.83 29.97 23.61 30.91 20.73 28.45 18.94 31.49 18.94 32.43 16.06"/></g></g></svg>