<svg xmlns="http://www.w3.org/2000/svg" viewBox="0 0 40.5 40.5"><defs><style>.cls-1{fill:#939598;}.cls-2{fill:#006a4e;}.cls-3{fill:#ffce00;}.cls-4{fill:#d21034;}.cls-5{fill:#fff;}</style></defs><g id="Ebene_2" data-name="Ebene 2"><g id="Ńëîé_1" data-name="Ńëîé 1"><path class="cls-1" d="M40.5,20.25a20.27,20.27,0,0,1-4,12.15,20.25,20.25,0,0,1-32.4,0A20.24,20.24,0,0,1,.41,16.2,20,20,0,0,1,4.05,8.1a20.25,20.25,0,0,1,32.4,0,20.27,20.27,0,0,1,4,12.15Z"/><path class="cls-2" d="M36.45,8.1H4.05a20.25,20.25,0,0,1,32.4,0Z"/><path class="cls-3" d="M40.09,16.2H.41A20,20,0,0,1,4.05,8.1h32.4A20,20,0,0,1,40.09,16.2Z"/><path class="cls-2" d="M40.5,20.25a20,20,0,0,1-.41,4.05H.41a20.21,20.21,0,0,1,0-8.1H40.09A20,20,0,0,1,40.5,20.25Z"/><path class="cls-3" d="M40.09,24.3a20,20,0,0,1-3.64,8.1H4.05A20,20,0,0,1,.41,24.3Z"/><path class="cls-2" d="M36.45,32.4a20.25,20.25,0,0,1-32.4,0Z"/><path class="cls-4" d="M20.25,0V24.3H.41A20.25,20.25,0,0,1,4.05,8.1,20.24,20.24,0,0,1,20.25,0Z"/><polygon class="cls-5" points="10.46 7.09 12.17 12.35 17.7 12.35 13.22 15.6 14.93 20.86 10.46 17.61 5.98 20.86 7.69 15.6 3.22 12.35 8.75 12.35 10.46 7.09"/></g></g></svg>