<svg viewBox="0 0 40.5 40.5" xmlns="http://www.w3.org/2000/svg"><path d="m40.5 20.25a20.27 20.27 0 0 1 -4 12.15 20.25 20.25 0 0 1 -32.4 0 20.24 20.24 0 0 1 -3.69-16.2 20 20 0 0 1 3.64-8.1 20.25 20.25 0 0 1 32.4 0 20.27 20.27 0 0 1 4 12.15z" fill="#939598"/><path d="m36.45 8.1h-32.4a20.25 20.25 0 0 1 32.4 0z" fill="#006a4e"/><path d="m40.09 16.2h-39.68a20 20 0 0 1 3.64-8.1h32.4a20 20 0 0 1 3.64 8.1z" fill="#ffce00"/><path d="m40.5 20.25a20 20 0 0 1 -.41 4.05h-39.68a20.21 20.21 0 0 1 0-8.1h39.68a20 20 0 0 1 .41 4.05z" fill="#006a4e"/><path d="m40.09 24.3a20 20 0 0 1 -3.64 8.1h-32.4a20 20 0 0 1 -3.64-8.1z" fill="#ffce00"/><path d="m36.45 32.4a20.25 20.25 0 0 1 -32.4 0z" fill="#006a4e"/><path d="m20.25 0v24.3h-19.84a20.25 20.25 0 0 1 3.64-16.2 20.24 20.24 0 0 1 16.2-8.1z" fill="#d21034"/><path d="m10.46 7.09 1.71 5.26h5.53l-4.48 3.25 1.71 5.26-4.47-3.25-4.48 3.25 1.71-5.26-4.47-3.25h5.53z" fill="#fff"/></svg>