<svg xmlns="http://www.w3.org/2000/svg" viewBox="0 0 40.5 40.5"><defs><style>.cls-1{fill:#c00;}.cls-2{fill:#060;}.cls-3{fill:#fff;}.cls-4{fill:#f8c300;}</style></defs><g id="Ebene_2" data-name="Ebene 2"><g id="Ńëîé_1" data-name="Ńëîé 1"><path class="cls-1" d="M38.54,11.56H2a20.25,20.25,0,0,1,36.58,0Z"/><path class="cls-2" d="M38.54,28.94A20.25,20.25,0,0,1,2,28.94Z"/><path class="cls-3" d="M40.5,20.25a20,20,0,0,1-2,8.69H2A20.24,20.24,0,0,1,2,11.56H38.54A20,20,0,0,1,40.5,20.25Z"/><polygon class="cls-4" points="20.25 12.42 20.57 13.42 21.63 13.42 20.78 14.04 21.1 15.04 20.25 14.42 19.4 15.04 19.72 14.04 18.87 13.42 19.93 13.42 20.25 12.42"/><polygon class="cls-4" points="24.3 13.52 24.63 14.52 25.68 14.52 24.83 15.14 25.15 16.14 24.3 15.52 23.45 16.14 23.77 15.14 22.92 14.52 23.98 14.52 24.3 13.52"/><polygon class="cls-4" points="27.28 16.51 27.6 17.51 28.65 17.51 27.8 18.13 28.13 19.13 27.28 18.51 26.43 19.13 26.75 18.13 25.9 17.51 26.95 17.51 27.28 16.51"/><polygon class="cls-4" points="28.36 20.54 28.69 21.54 29.74 21.54 28.89 22.16 29.21 23.16 28.36 22.54 27.51 23.16 27.84 22.16 26.99 21.54 28.04 21.54 28.36 20.54"/><polygon class="cls-4" points="16.2 13.52 15.88 14.52 14.82 14.52 15.67 15.14 15.35 16.14 16.2 15.52 17.05 16.14 16.73 15.14 17.58 14.52 16.52 14.52 16.2 13.52"/><polygon class="cls-4" points="13.22 16.51 12.9 17.51 11.85 17.51 12.7 18.13 12.37 19.13 13.22 18.51 14.07 19.13 13.75 18.13 14.6 17.51 13.55 17.51 13.22 16.51"/><polygon class="cls-4" points="12.14 20.54 11.81 21.54 10.76 21.54 11.61 22.16 11.29 23.16 12.14 22.54 12.99 23.16 12.66 22.16 13.51 21.54 12.46 21.54 12.14 20.54"/><path class="cls-4" d="M20.65,25.24a1.24,1.24,0,0,0-.4-.76,1.23,1.23,0,0,0-.41.76,1.28,1.28,0,0,0-.65.18,1.18,1.18,0,0,0,2.12,0A1.3,1.3,0,0,0,20.65,25.24Z"/><path class="cls-4" d="M24.14,25.59a1.2,1.2,0,0,0-.3-.81,1.21,1.21,0,0,0-.5.69,1.27,1.27,0,0,0-.68.09,1.24,1.24,0,0,0,1,.81,1.23,1.23,0,0,0,1.14-.51A1.2,1.2,0,0,0,24.14,25.59Z"/><path class="cls-4" d="M16.36,25.59a1.21,1.21,0,0,1,.29-.81,1.25,1.25,0,0,1,.51.69,1.23,1.23,0,0,1,.67.09,1.17,1.17,0,0,1-2.09.3A1.2,1.2,0,0,1,16.36,25.59Z"/><path class="cls-4" d="M25.72,28.13a17.66,17.66,0,0,0-10.95,0c-.1-.3-.19-.6-.29-.9a18.62,18.62,0,0,1,11.53,0C25.92,27.53,25.82,27.83,25.72,28.13Z"/><path class="cls-4" d="M26.37,24.64a2.57,2.57,0,0,1-2.18-1.42,2,2,0,0,1-1.59.57,2.21,2.21,0,0,1-2.05-2V20.09a.56.56,0,0,1,.09-.39.74.74,0,0,1,1.24,0,1.69,1.69,0,0,0-.09-1.22,1.67,1.67,0,0,0-3.07,0,1.8,1.8,0,0,0-.09,1.22.74.74,0,0,1,1.24,0,.49.49,0,0,1,.11.39V21.8a2.21,2.21,0,0,1-2.05,2,2,2,0,0,1-1.61-.57,2.53,2.53,0,0,1-2.17,1.42,2.22,2.22,0,0,1-1.3-.43,1.52,1.52,0,0,0,1.49,1.4,2.08,2.08,0,0,0,2.1-1.76,1.92,1.92,0,0,0,1.7,1c.41,0,1.49-.1,2.12-1.91.62,1.81,1.7,1.91,2.11,1.91a1.93,1.93,0,0,0,1.71-1,2.08,2.08,0,0,0,2.1,1.76,1.52,1.52,0,0,0,1.49-1.4A2.22,2.22,0,0,1,26.37,24.64Zm-6.11-5.15a1.1,1.1,0,0,0-1.2-.55,1.23,1.23,0,0,1,1.2-1.07,1.21,1.21,0,0,1,1.19,1.07A1.11,1.11,0,0,0,20.26,19.49Z"/></g></g></svg>