<svg xmlns="http://www.w3.org/2000/svg" viewBox="0 0 40.5 40.5"><defs><style>.cls-1{fill:#dc241f;}.cls-2{fill:#ffc726;}.cls-3{fill:#fff;}</style></defs><g id="Ebene_2" data-name="Ebene 2"><g id="Ńëîé_1" data-name="Ńëîé 1"><path class="cls-1" d="M40.5,20.25A20.25,20.25,0,0,1,4.63,33.13a20.67,20.67,0,0,1-1.71-2.42,20.19,20.19,0,0,1,0-20.92A20.67,20.67,0,0,1,4.63,7.37,20.25,20.25,0,0,1,40.5,20.25Z"/><path class="cls-2" d="M30.38,20.25,4.63,33.13a20.67,20.67,0,0,1-1.71-2.42,20.19,20.19,0,0,1,0-20.92A20.67,20.67,0,0,1,4.63,7.37Z"/><path d="M16.85,20.25,2.92,30.71a20.19,20.19,0,0,1,0-20.92Z"/><polygon class="cls-3" points="4.42 15.59 6.98 18.19 10.25 16.56 8.56 19.8 11.12 22.41 7.52 21.8 5.83 25.04 5.29 21.43 1.69 20.83 4.96 19.2 4.42 15.59"/></g></g></svg>