<svg viewBox="0 0 40.5 40.5" xmlns="http://www.w3.org/2000/svg"><path d="m40.5 20.25a20.25 20.25 0 0 1 -35.87 12.88 20.67 20.67 0 0 1 -1.71-2.42 20.19 20.19 0 0 1 0-20.92 20.67 20.67 0 0 1 1.71-2.42 20.25 20.25 0 0 1 35.87 12.88z" fill="#dc241f"/><path d="m30.38 20.25-25.75 12.88a20.67 20.67 0 0 1 -1.71-2.42 20.19 20.19 0 0 1 0-20.92 20.67 20.67 0 0 1 1.71-2.42z" fill="#ffc726"/><path d="m16.85 20.25-13.93 10.46a20.19 20.19 0 0 1 0-20.92z"/><path d="m4.42 15.59 2.56 2.6 3.27-1.63-1.69 3.24 2.56 2.61-3.6-.61-1.69 3.24-.54-3.61-3.6-.6 3.27-1.63z" fill="#fff"/></svg>