<svg xmlns="http://www.w3.org/2000/svg" viewBox="0 0 40.5 40.5"><defs><style>.cls-1{fill:#da1a35;}.cls-2{fill:#fff;}</style></defs><g id="Ebene_2" data-name="Ebene 2"><g id="Ńëîé_1" data-name="Ńëîé 1"><path d="M38.12,29.75a20.08,20.08,0,0,1-5.88,6.81L2.38,10.75A20.08,20.08,0,0,1,8.26,3.94Z"/><path class="cls-1" d="M32.24,36.56a20.1,20.1,0,0,1-12,3.94A20.26,20.26,0,0,1,1.39,12.87a16.35,16.35,0,0,1,1-2.12Z"/><path class="cls-1" d="M40.5,20.25a20.09,20.09,0,0,1-1.39,7.38,16.35,16.35,0,0,1-1,2.12L8.26,3.94A20.1,20.1,0,0,1,20.25,0,20.25,20.25,0,0,1,40.5,20.25Z"/><path class="cls-2" d="M32.24,36.56a20,20,0,0,1-2,1.28l-28.89-25a16.35,16.35,0,0,1,1-2.12Z"/><path class="cls-2" d="M39.11,27.63a16.35,16.35,0,0,1-1,2.12L8.26,3.94a20,20,0,0,1,2-1.28Z"/></g></g></svg>