<svg xmlns="http://www.w3.org/2000/svg" viewBox="0 0 40.5 40.5"><defs><style>.cls-1{fill:#e70013;}.cls-2{fill:#fff;}</style></defs><g id="Ebene_2" data-name="Ebene 2"><g id="Ńëîé_1" data-name="Ńëîé 1"><circle class="cls-1" cx="20.25" cy="20.25" r="20.25"/><path class="cls-2" d="M20.26,10.13A10.13,10.13,0,1,0,30.39,20.25,10.11,10.11,0,0,0,20.26,10.13Zm5.62,12.74-3.09-1L20.88,24.5V21.26l-3.09-1,3.09-1V16l1.92,2.62,3.09-1L24,20.25Zm-3.59-8.7a6.08,6.08,0,0,0,0,12.16,6,6,0,0,0,3.94-1.46,7.55,7.55,0,1,1,0-9.24A6,6,0,0,0,22.29,14.17Z"/></g></g></svg>