<svg xmlns="http://www.w3.org/2000/svg" viewBox="0 0 40.5 40.5"><defs><style>.cls-1{fill:#0096c8;}.cls-2{fill:#00247d;}.cls-3{fill:#fff;}.cls-4{fill:#cf142b;}.cls-5{fill:#ffce00;}</style></defs><g id="Ebene_2" data-name="Ebene 2"><g id="Ńëîé_1" data-name="Ńëîé 1"><path class="cls-1" d="M40.5,20.25A20.25,20.25,0,0,1,0,21.24a.49.49,0,0,1,0-.17,7.49,7.49,0,0,1,0-.82c0-.43,0-.86,0-1.28s.08-1,.15-1.47c0-.26.07-.5.11-.75a17.22,17.22,0,0,1,.55-2.28c.07-.24.14-.5.23-.74s.19-.54.3-.81c0-.11.08-.22.13-.34s.19-.47.31-.7.31-.68.49-1,.32-.6.48-.88A20.25,20.25,0,0,1,40.5,20.25Z"/><path class="cls-2" d="M20.59,10V21.24H0a.49.49,0,0,1,0-.17,7.49,7.49,0,0,1,0-.82c0-.43,0-.86,0-1.28s.08-1,.15-1.47c0-.26.07-.5.11-.75a17.22,17.22,0,0,1,.55-2.28c.07-.24.14-.5.23-.74s.19-.54.3-.81c0-.11.08-.22.13-.34s.19-.47.31-.7.31-.68.49-1,.32-.6.48-.88Z"/><path class="cls-3" d="M20.59,13.73V17.5H.19c0-.26.07-.5.11-.75a17.22,17.22,0,0,1,.55-2.28c.07-.24.14-.5.23-.74Z"/><rect class="cls-3" x="7.42" y="9.98" width="3.76" height="11.26"/><path class="cls-4" d="M20.59,14.47v2.28H10.45v4.49H8.17V16.75H.3a17.22,17.22,0,0,1,.55-2.28H8.17V10h2.28v4.48Z"/><polygon class="cls-3" points="11.18 13.43 18.06 9.98 20.58 9.98 20.58 11.24 15.62 13.73 11.18 13.73 11.18 13.43"/><polygon class="cls-4" points="11.38 13.73 18.9 9.98 20.58 9.98 13.09 13.73 11.38 13.73"/><polygon class="cls-3" points="11.18 17.79 18.06 21.24 20.58 21.24 20.58 19.98 15.62 17.49 11.18 17.49 11.18 17.79"/><path class="cls-3" d="M7.42,17.5v.29L.55,21.24H0a.49.49,0,0,1,0-.17,7.49,7.49,0,0,1,0-.82c0-.43,0-.86,0-1.28L3,17.5Z"/><path class="cls-4" d="M7.22,17.5,0,21.07a7.49,7.49,0,0,1,0-.82L5.52,17.5Z"/><path class="cls-3" d="M7.42,13.43v.3H3l-1.6-.81c0-.11.08-.22.13-.34s.19-.47.31-.7.31-.68.49-1Z"/><path class="cls-4" d="M5.55,13.73H3.82L1.51,12.58c.1-.23.19-.47.31-.7Z"/><polygon class="cls-4" points="20.58 21.24 13.06 17.49 14.78 17.49 20.58 20.39 20.58 21.24"/><polygon class="cls-5" points="36.37 20.23 36.78 21.49 38.11 21.49 37.03 22.28 37.45 23.55 36.37 22.76 35.29 23.55 35.7 22.28 34.62 21.49 35.95 21.49 36.37 20.23"/><polygon class="cls-5" points="32.37 22.81 32.78 24.08 34.12 24.08 33.04 24.86 33.45 26.13 32.37 25.35 31.29 26.13 31.71 24.86 30.63 24.08 31.96 24.08 32.37 22.81"/><polygon class="cls-5" points="36.36 11.44 36.77 12.71 38.11 12.71 37.03 13.49 37.44 14.76 36.36 13.98 35.28 14.76 35.7 13.49 34.62 12.71 35.95 12.71 36.36 11.44"/><polygon class="cls-5" points="19.17 28.46 19.58 29.73 20.91 29.73 19.84 30.51 20.25 31.78 19.17 31 18.09 31.78 18.5 30.51 17.42 29.73 18.76 29.73 19.17 28.46"/><polygon class="cls-5" points="25.61 27.45 25.2 28.72 26.28 29.5 24.95 29.51 24.54 30.78 24.13 29.51 22.79 29.51 23.87 28.73 23.45 27.46 24.53 28.24 25.61 27.45"/><polygon class="cls-5" points="30.36 26.3 29.95 27.57 31.03 28.35 29.7 28.36 29.29 29.63 28.87 28.36 27.54 28.36 28.62 27.58 28.2 26.31 29.28 27.09 30.36 26.3"/><polygon class="cls-5" points="25.63 22.86 25.22 24.13 26.3 24.91 24.97 24.92 24.56 26.18 24.15 24.92 22.81 24.92 23.89 24.14 23.47 22.87 24.55 23.65 25.63 22.86"/><polygon class="cls-5" points="30.35 16.31 29.94 17.57 31.02 18.36 29.69 18.36 29.28 19.63 28.86 18.36 27.53 18.37 28.61 17.58 28.19 16.31 29.27 17.09 30.35 16.31"/><polygon class="cls-5" points="34.35 14.96 33.94 16.23 35.02 17.01 33.69 17.02 33.28 18.28 32.86 17.02 31.53 17.02 32.6 16.23 32.19 14.97 33.27 15.75 34.35 14.96"/></g></g></svg>