<svg viewBox="0 0 40.5 40.5" xmlns="http://www.w3.org/2000/svg"><path d="m40.5 20.25a20.25 20.25 0 0 1 -40.5.99.49.49 0 0 1 0-.17 7.49 7.49 0 0 1 0-.82c0-.43 0-.86 0-1.28s.08-1 .15-1.47c0-.26.07-.5.11-.75a17.22 17.22 0 0 1 .55-2.28c.07-.24.14-.5.23-.74s.19-.54.3-.81c0-.11.08-.22.13-.34s.19-.47.31-.7.31-.68.49-1 .32-.6.48-.88a20.25 20.25 0 0 1 37.75 10.25z" fill="#0096c8"/><path d="m20.59 10v11.24h-20.59a.49.49 0 0 1 0-.17 7.49 7.49 0 0 1 0-.82c0-.43 0-.86 0-1.28s.08-1 .15-1.47c0-.26.07-.5.11-.75a17.22 17.22 0 0 1 .55-2.28c.07-.24.14-.5.23-.74s.19-.54.3-.81c0-.11.08-.22.13-.34s.19-.47.31-.7.31-.68.49-1 .32-.6.48-.88z" fill="#00247d"/><path d="m20.59 13.73v3.77h-20.4c0-.26.07-.5.11-.75a17.22 17.22 0 0 1 .55-2.28c.07-.24.14-.5.23-.74z" fill="#fff"/><path d="m7.42 9.98h3.76v11.26h-3.76z" fill="#fff"/><path d="m20.59 14.47v2.28h-10.14v4.49h-2.28v-4.49h-7.87a17.22 17.22 0 0 1 .55-2.28h7.32v-4.47h2.28v4.48z" fill="#cf142b"/><path d="m11.18 13.43 6.88-3.45h2.52v1.26l-4.96 2.49h-4.44z" fill="#fff"/><path d="m11.38 13.73 7.52-3.75h1.68l-7.49 3.75z" fill="#cf142b"/><path d="m11.18 17.79 6.88 3.45h2.52v-1.26l-4.96-2.49h-4.44z" fill="#fff"/><path d="m7.42 17.5v.29l-6.87 3.45h-.55a.49.49 0 0 1 0-.17 7.49 7.49 0 0 1 0-.82c0-.43 0-.86 0-1.28l3-1.47z" fill="#fff"/><path d="m7.22 17.5-7.22 3.57a7.49 7.49 0 0 1 0-.82l5.52-2.75z" fill="#cf142b"/><path d="m7.42 13.43v.3h-4.42l-1.6-.81c0-.11.08-.22.13-.34s.19-.47.31-.7.31-.68.49-1z" fill="#fff"/><path d="m5.55 13.73h-1.73l-2.31-1.15c.1-.23.19-.47.31-.7z" fill="#cf142b"/><path d="m20.58 21.24-7.52-3.75h1.72l5.8 2.9z" fill="#cf142b"/><g fill="#ffce00"><path d="m36.37 20.23.41 1.26h1.33l-1.08.79.42 1.27-1.08-.79-1.08.79.41-1.27-1.08-.79h1.33z"/><path d="m32.37 22.81.41 1.27h1.34l-1.08.78.41 1.27-1.08-.78-1.08.78.42-1.27-1.08-.78h1.33z"/><path d="m36.36 11.44.41 1.27h1.34l-1.08.78.41 1.27-1.08-.78-1.08.78.42-1.27-1.08-.78h1.33z"/><path d="m19.17 28.46.41 1.27h1.33l-1.07.78.41 1.27-1.08-.78-1.08.78.41-1.27-1.08-.78h1.34z"/><path d="m25.61 27.45-.41 1.27 1.08.78-1.33.01-.41 1.27-.41-1.27h-1.34l1.08-.78-.42-1.27 1.08.78z"/><path d="m30.36 26.3-.41 1.27 1.08.78-1.33.01-.41 1.27-.42-1.27h-1.33l1.08-.78-.42-1.27 1.08.78z"/><path d="m25.63 22.86-.41 1.27 1.08.78-1.33.01-.41 1.26-.41-1.26h-1.34l1.08-.78-.42-1.27 1.08.78z"/><path d="m30.35 16.31-.41 1.26 1.08.79h-1.33l-.41 1.27-.42-1.27-1.33.01 1.08-.79-.42-1.27 1.08.78z"/><path d="m34.35 14.96-.41 1.27 1.08.78-1.33.01-.41 1.26-.42-1.26h-1.33l1.07-.79-.41-1.26 1.08.78z"/></g></svg>