<svg viewBox="0 0 40.5 40.5" xmlns="http://www.w3.org/2000/svg"><path d="m31.27 3.27-30.95 20.63a20.91 20.91 0 0 1 -.32-3.65 20.24 20.24 0 0 1 31.27-17z" fill="#1eb53a"/><path d="m39.5 14-32.43 21.61a20.11 20.11 0 0 1 -6.07-9.11l32.43-21.61a20.11 20.11 0 0 1 6.07 9.11z"/><path d="m40.5 20.25a20.24 20.24 0 0 1 -31.27 17l31-20.63a20.91 20.91 0 0 1 .27 3.63z" fill="#00a3dd"/><g fill="#fcd116"><path d="m33.43 4.89-32.43 21.61a20.68 20.68 0 0 1 -.68-2.6l31-20.63a17.63 17.63 0 0 1 2.11 1.62z"/><path d="m40.18 16.6-30.95 20.63a17.63 17.63 0 0 1 -2.16-1.62l32.43-21.61a20.68 20.68 0 0 1 .68 2.6z"/></g></svg>