<svg xmlns="http://www.w3.org/2000/svg" viewBox="0 0 40.5 40.5"><defs><style>.cls-1{fill:#fcdc04;}.cls-2{fill:#d90000;}.cls-3{fill:#fff;}.cls-4{fill:#9ca69c;}</style></defs><g id="Ebene_2" data-name="Ebene 2"><g id="Ńëîé_1" data-name="Ńëîé 1"><path d="M35.34,6.75H5.16a20.24,20.24,0,0,1,30.18,0Z"/><path class="cls-1" d="M39.34,13.5H1.16a20.11,20.11,0,0,1,4-6.75H35.34A20.11,20.11,0,0,1,39.34,13.5Z"/><path class="cls-2" d="M40.5,20.25H0A20,20,0,0,1,1.16,13.5H39.34A20.19,20.19,0,0,1,40.5,20.25Z"/><path d="M40.5,20.25A20.19,20.19,0,0,1,39.34,27H1.16A20,20,0,0,1,0,20.25Z"/><path class="cls-1" d="M39.34,27a20.11,20.11,0,0,1-4,6.75H5.16a20.11,20.11,0,0,1-4-6.75Z"/><path class="cls-2" d="M35.34,33.75a20.24,20.24,0,0,1-30.18,0Z"/><path class="cls-3" d="M26.55,20.25a6.31,6.31,0,1,1-6.3-6.31A6.31,6.31,0,0,1,26.55,20.25Z"/><path d="M19.34,26.15c-.1-.22.28-.58.29-.58s0,0,0,0,0-.09-.71-.09h-.1c.16-.28,1-.3,1.31-.3h.15s0,0,0,0a13.45,13.45,0,0,0-.14-1.77,0,0,0,0,0,0,0h-.08c-.18,0-.61,0-.93,0h-.06c-.35,0-.45.31-.52.49,0,0,0,0,0,.08l-.07.13a.62.62,0,0,1-.14-.41l0,0h0c-.1.06-.15.4-.17.59a.55.55,0,0,1-.14-.32s0,0,0,0h0a0,0,0,0,0,0,0,.93.93,0,0,1-.18.4,1.1,1.1,0,0,1,.24-1c.08-.09.35-.21,1.15-.21.53,0,1,.05,1.05.05h0a0,0,0,0,0,0,0l0-1v0s-.38-.44-.56-.5a4,4,0,0,1-1.06-.8h-.05l-.05,0a1.88,1.88,0,0,1-.59-1.38A3.48,3.48,0,0,1,19,17.25s0,0,0,0l0,0a.27.27,0,0,1-.16-.19.6.6,0,0,1,.18-.39,0,0,0,0,0,0,0s0,0,0,0h0a3.82,3.82,0,0,1-.63.08h-.06l.73-.14a.1.1,0,0,0,.05-.06.09.09,0,0,0,0-.09l-.08,0a4.41,4.41,0,0,0-.81.19,2.21,2.21,0,0,1,.85-.36l0,0v0a.58.58,0,0,1,.1-.63l.05-.06a0,0,0,0,0,0,0l-.38-.72a1,1,0,0,1,.58-.22l.21,0h.1a1.66,1.66,0,0,1,.62.1,2.15,2.15,0,0,1,.52.3l.07.06a1.1,1.1,0,0,1,.41.82l-.6.15s0,0,0,0a1.09,1.09,0,0,1-.44,1l-.12.11a1.75,1.75,0,0,0-.26,1.74v0l0,0H20a.69.69,0,0,1,.3.1l.11.05c.6.3,1.61.78,2.24,1v0a.08.08,0,0,0,0,.05l0,0,.34.12a2.53,2.53,0,0,1,.77.48,1.58,1.58,0,0,1,.44,1.59c-.32,1.39-1.05,1.65-1.3,1.69.11-.13.23-.32.3-.42a0,0,0,0,0,0-.05h-.05c-.18.18-.27.21-.32.21h0a.59.59,0,0,0,.12-.2s0,0,0,0h0a1,1,0,0,1-.47.18l.1-.1v0s0,0,0,0l-.09-.08A1.24,1.24,0,0,0,23,21.87v0s0,0,0,0h0a.05.05,0,0,0,0,0v0a.71.71,0,0,1-.27.74.84.84,0,0,0,0-.31.73.73,0,0,0,0-.08l0,0h0l0,0a.68.68,0,0,0-.16-.25,1.52,1.52,0,0,0-.76-.11h-.33a.05.05,0,0,0,0,0,1.08,1.08,0,0,0,.28.78,1.09,1.09,0,0,1,.14.21c.07.14.09.25.05.32a.33.33,0,0,1-.25.09h-.06l-.48,0a2.71,2.71,0,0,0-.37,0s0,0,0,0a6.47,6.47,0,0,0,.08,1.77s0,0,0,0h0c.68,0,.85.25.89.36a2.56,2.56,0,0,0-.47,0A2.89,2.89,0,0,0,19.34,26.15Zm1.26-4h0a.05.05,0,0,0,0,0l0,.87,0,0a2.27,2.27,0,0,0,.28,0l.24,0s.09,0,.08-.16S20.81,22.16,20.6,22.16Z"/><path d="M23.81,20.63a2.76,2.76,0,0,0-.77-.48L22.7,20h0s0-.08-.05-.09c-.66-.26-1.74-.79-2.34-1.08a.76.76,0,0,0-.32-.1H19.9v0A1.92,1.92,0,0,1,20.14,17a1.21,1.21,0,0,0,.56-1.13l.62-.15a1.05,1.05,0,0,0-.42-.88l-.07-.06a2.3,2.3,0,0,0-.52-.3,1.65,1.65,0,0,0-.64-.1h-.31a1.05,1.05,0,0,0-.62.25l.39.75,0,0a.63.63,0,0,0-.11.68s-.85.2-.93.44a6.23,6.23,0,0,1,.89-.21h0c.07.07,0,.09,0,.09l-.88.17s0,0,.22,0a3.58,3.58,0,0,0,.63-.08s-.41.42,0,.64c0,0-2.08,1.93-.45,3.54l.07-.05a4.26,4.26,0,0,0,1.08.8,2.48,2.48,0,0,1,.54.49l0,1S19.66,23,19.12,23a2,2,0,0,0-1.18.22,1.18,1.18,0,0,0-.23,1.12,1.08,1.08,0,0,0,.23-.47.66.66,0,0,0,.2.4s.06-.58.16-.64a.68.68,0,0,0,.17.44h0s.06,0,.11-.15.14-.55.51-.55h.06c.32,0,.75,0,.93,0h.08a13,13,0,0,1,.13,1.77h-.15c-.37,0-1.26,0-1.36.36h.15a2,2,0,0,1,.67.06s-.45.42-.27.66a2.81,2.81,0,0,1,1.85-.7,3.26,3.26,0,0,1,.52.05s0-.44-.94-.44h0a6.88,6.88,0,0,1-.09-1.75,1.82,1.82,0,0,1,.37,0l.48,0h.06c.16,0,.43-.07.23-.47-.11-.23-.5-.58-.41-1h.33a1.55,1.55,0,0,1,.73.11.54.54,0,0,1,.17.29h0l.07-.08a.28.28,0,0,1,0,.08.69.69,0,0,1-.08.38.76.76,0,0,0,.38-.83v0a1.22,1.22,0,0,1-.61,1.5l.13.11-.14.15h.07a.92.92,0,0,0,.49-.18.8.8,0,0,1-.14.21.09.09,0,0,0,.08,0c.07,0,.17,0,.35-.23,0,0-.22.33-.36.5,0,0,1,0,1.41-1.73A1.66,1.66,0,0,0,23.81,20.63Zm.38,1.61c-.28,1.25-.88,1.57-1.17,1.65.09-.12.18-.26.24-.35h0a.06.06,0,0,0,0-.09h0s0,0-.05,0a.6.6,0,0,1-.27.19.81.81,0,0,0,.09-.15.08.08,0,0,0,0-.08l0,0h0a1.34,1.34,0,0,1-.36.17l0,0a.08.08,0,0,0,0-.05s0,0,0-.05l-.06-.05A1.25,1.25,0,0,0,23,21.86a0,0,0,0,0,0,0,.05.05,0,0,0-.05,0h0a.07.07,0,0,0,0,.08h0a.77.77,0,0,1-.17.64.8.8,0,0,0,0-.21c0-.05,0-.09,0-.09s0,0,0-.05h0l-.05,0h0a.64.64,0,0,0-.15-.21s-.13-.12-.78-.12h-.34s-.05,0-.06.06a1,1,0,0,0,.29.79c.05.08.1.15.13.21a.33.33,0,0,1,.05.29.3.3,0,0,1-.22.08h-.05a2.85,2.85,0,0,0-.49,0,2.14,2.14,0,0,0-.38,0s-.05,0-.05.05a6.6,6.6,0,0,0,.08,1.79s0,.05.07.05h0c.56,0,.76.17.83.28l-.41,0a2.85,2.85,0,0,0-1.82.66c0-.17.19-.41.29-.5a.14.14,0,0,0,0-.06c0-.06,0-.11-.74-.11h0a2.15,2.15,0,0,1,1.24-.24h.15a.07.07,0,0,0,.07-.06,14.14,14.14,0,0,0-.13-1.79.09.09,0,0,0-.07-.06h-.08c-.17,0-.6,0-.93,0h-.06c-.37,0-.48.33-.55.52a.25.25,0,0,0,0,.07l0,.09a.62.62,0,0,1-.11-.34.06.06,0,0,0,0-.06h-.07a.89.89,0,0,0-.17.53.42.42,0,0,1-.09-.23.07.07,0,0,0-.06-.07h0a.06.06,0,0,0-.06.06,1.11,1.11,0,0,1-.13.31,1.07,1.07,0,0,1,.24-.91c.07-.07.3-.19,1.13-.19.53,0,1,.05,1,.05h0l0,0a.08.08,0,0,0,0-.05l0-1a.08.08,0,0,0,0-.05s-.38-.45-.57-.51a4.08,4.08,0,0,1-1.05-.79l-.05,0h0l0,0a1.87,1.87,0,0,1-.57-1.33A3.44,3.44,0,0,1,19,17.27s0,0,0-.06a.05.05,0,0,0,0-.05.21.21,0,0,1-.14-.17.57.57,0,0,1,.16-.36.06.06,0,0,0,0-.08s0,0,0,0h0a.11.11,0,0,0,.07-.08.12.12,0,0,0,0-.12.13.13,0,0,0-.1,0,3.49,3.49,0,0,0-.63.13,3.23,3.23,0,0,1,.68-.24.09.09,0,0,0,.05,0s0,0,0-.06a.55.55,0,0,1,.09-.6l.05-.06a0,0,0,0,0,0-.07l-.37-.71a1,1,0,0,1,.54-.19l.21,0h.1a1.61,1.61,0,0,1,.61.1,1.83,1.83,0,0,1,.5.29l.08.07a1,1,0,0,1,.4.77l-.58.13a.08.08,0,0,0-.05.07,1,1,0,0,1-.42,1l-.12.11a1.77,1.77,0,0,0-.27,1.78v0l0,.05H20a.66.66,0,0,1,.28.09h0l.1.06c.6.28,1.6.77,2.23,1v0l0,.06,0,0h0l.33.12a2.47,2.47,0,0,1,.75.47A1.54,1.54,0,0,1,24.19,22.24Z"/><path d="M20.6,22.13h-.05a.08.08,0,0,0-.05.07l0,.87s0,.05.06.06a1.4,1.4,0,0,0,.28,0,1,1,0,0,0,.25,0s.12-.05.1-.2S20.84,22.13,20.6,22.13Zm.49.93a.85.85,0,0,1-.23,0,1.24,1.24,0,0,1-.27,0l0-.86h0C20.83,22.19,21.3,23,21.09,23.06Z"/><path class="cls-4" d="M19.65,16.41c.09-.13.59-.16.42-.88,0,0,.54.19.22.82,0,0-.26.46-.59.3C19.64,16.62,19.56,16.55,19.65,16.41Z"/><circle class="cls-3" cx="19.44" cy="16.06" r="0.12"/><path class="cls-4" d="M19.57,17c-.09,0-1.6,1.81-.8,3l0-.3.17.08v-.25h.19L19,19.33h.25l-.06-.25h.26s-.47-.58.15-2C19.62,17,19.65,16.93,19.57,17Z"/><path class="cls-4" d="M20,20.56a.94.94,0,0,0,0,.79.86.86,0,0,1,.65-.05s.05,0,0-.07A6.57,6.57,0,0,1,20,20.56Z"/><path class="cls-4" d="M23.81,20.63,23,21.88h0l-.3.45a.28.28,0,0,0,0-.08l-.07.08a2.85,2.85,0,0,0-1.54-1.51c-.62-.2-.84-.18-1.24-.91a1.17,1.17,0,0,1,.08-1.15h0a.62.62,0,0,1,.4.09c.6.29,1.68.82,2.34,1.08,0,0,0,.09.06.1A2.86,2.86,0,0,1,23.81,20.63Z"/><path d="M22.6,22.36h0a0,0,0,0,1,0,0,2.81,2.81,0,0,0-1.51-1.48l-.21-.07a1.33,1.33,0,0,1-1.05-.85,1.2,1.2,0,0,1,.08-1.19h0a.58.58,0,0,1,.43.1l.1,0c.6.3,1.61.78,2.23,1,0,0,0,0,.05.07s0,0,0,0a2.72,2.72,0,0,1,1.12.61s0,0,0,0l-1.13,1.69s0,0,0,0,0,0,0,0h0l0,0Zm-2.68-3.57a1.12,1.12,0,0,0-.07,1.11,1.29,1.29,0,0,0,1,.82l.21.06a3,3,0,0,1,1.54,1.48l0,0h0s0,0,0,0l1.06-1.6a2.79,2.79,0,0,0-1.07-.58s0,0-.05-.07a0,0,0,0,1,0,0c-.63-.25-1.64-.73-2.24-1l-.1-.05A.62.62,0,0,0,19.92,18.79Z"/><path class="cls-2" d="M19,16.63a.09.09,0,0,1,.09,0c.07.05.2.13.23.21s-.22.33-.4.29S18.79,16.86,19,16.63Z"/><path class="cls-2" d="M24.26,22.26C23.87,24,22.85,24,22.85,24a5.64,5.64,0,0,0,.36-.5c-.35.36-.43.18-.43.18a.8.8,0,0,0,.14-.21c-.39.24-.56.18-.56.18l.14-.15-.17-.08A1.3,1.3,0,0,0,23,21.88v0a.76.76,0,0,1-.38.83.69.69,0,0,0,.08-.38.28.28,0,0,0,0-.08s.1-.67-1.31-1.55c0,0-.14-.26,0-.39a2.05,2.05,0,0,1,.4-.27l.53.15.22.08a2.1,2.1,0,0,0-.36-.4c-.12-.08.41.06.55.15h0l.34.12a2.76,2.76,0,0,1,.77.48A1.66,1.66,0,0,1,24.26,22.26Z"/><path d="M22.85,24l0,0a0,0,0,0,1,0,0l.21-.29a.32.32,0,0,1-.2.07.11.11,0,0,1-.09-.06,0,0,0,0,1,0,0,.35.35,0,0,0,.08-.1.69.69,0,0,1-.48.12s0,0,0,0,0,0,0,0l.1-.11-.12-.06a0,0,0,0,1,0,0s0,0,0,0A1.33,1.33,0,0,0,23,22.2a.71.71,0,0,1-.39.54,0,0,0,0,1,0,0,0,0,0,0,1,0,0,.68.68,0,0,0,.08-.37.17.17,0,0,0,0-.07v0s.07-.66-1.29-1.51c0,0,0,0,0,0s-.16-.28,0-.43a1.94,1.94,0,0,1,.41-.28s0,0,0,0l.53.15.11.05a1.33,1.33,0,0,0-.27-.3c-.05,0,0,0,0-.07s.53.11.61.16h0l.34.12a2.31,2.31,0,0,1,.78.49,1.65,1.65,0,0,1,.46,1.66C23.91,24,22.86,24,22.85,24Zm.36-.56h0s0,0,0,0-.2.3-.31.43c.25,0,1-.3,1.3-1.69h0a1.58,1.58,0,0,0-.44-1.59,2.53,2.53,0,0,0-.77-.48,2,2,0,0,1-.34-.13v0l0,0a1.83,1.83,0,0,0-.45-.16,3.68,3.68,0,0,1,.31.36.08.08,0,0,1,0,0s0,0,0,0l-.23-.08-.5-.15a2,2,0,0,0-.38.27c-.1.1,0,.3,0,.34,1.34.84,1.32,1.48,1.31,1.56s0,.05,0,.08a.84.84,0,0,1,0,.31.72.72,0,0,0,.27-.74h0s0,0,0,0,0,0,0,0a0,0,0,0,1,0,0,1.33,1.33,0,0,1-.61,1.54l.11,0s0,0,0,0,0,0,0,0l-.1.1a.94.94,0,0,0,.47-.18h0s0,0,0,0a.59.59,0,0,1-.12.2h0s.14,0,.33-.21Z"/><path class="cls-3" d="M20.27,19.5c-.08.1-.17.27.13.49a5,5,0,0,0,.46.27,2.92,2.92,0,0,1,.49.43.13.13,0,0,0,.1,0h.34l-.31-.27.76.17a1.69,1.69,0,0,0-.36-.44l.89.37a1,1,0,0,0-.44-.48c-.22-.1-.71-.19-.9-.29S20.46,19.25,20.27,19.5Z"/><path d="M21.79,20.77h-.34a.17.17,0,0,1-.12-.05,4.62,4.62,0,0,0-.49-.44s-.36-.19-.46-.26a.51.51,0,0,1-.22-.29.39.39,0,0,1,.08-.25h0c.19-.25.84.07,1.21.28a3,3,0,0,0,.48.16,2.21,2.21,0,0,1,.41.13,1,1,0,0,1,.46.5,0,0,0,0,1,0,0s0,0,0,0-.49-.2-.72-.3a2.89,2.89,0,0,1,.23.32.06.06,0,0,1,0,0,0,0,0,0,1,0,0l-.63-.14.21.19s0,0,0,0Zm-1.32-1.31a.21.21,0,0,0-.17.06h0a.29.29,0,0,0-.07.2.37.37,0,0,0,.19.24c.1.08.45.26.46.27a2.57,2.57,0,0,1,.5.44.08.08,0,0,0,.07,0h.25l-.24-.22a.06.06,0,0,1,0,0l0,0,.68.16a1.27,1.27,0,0,0-.31-.36.07.07,0,0,1,0,0,0,0,0,0,1,0,0l.8.34a1,1,0,0,0-.39-.39c-.09,0-.24-.08-.4-.13a2.34,2.34,0,0,1-.49-.16A2.31,2.31,0,0,0,20.47,19.46Z"/><path class="cls-2" d="M19.57,14.38l-.05.78a.62.62,0,0,0-.38.23l-.4-.75a1.05,1.05,0,0,1,.62-.25Z"/><path d="M19.14,15.42h0l0,0-.4-.74a0,0,0,0,1,0,0,1,1,0,0,1,.64-.26l.22,0h0a0,0,0,0,1,0,0l0,.78a0,0,0,0,1,0,0,.62.62,0,0,0-.37.22Zm-.36-.77.36.68a.73.73,0,0,1,.35-.2l0-.72-.17,0A1,1,0,0,0,18.78,14.65Z"/><path class="cls-1" d="M20.9,14.84l-.41.62a1,1,0,0,0-1-.3l-.16-.77h.21a1.77,1.77,0,0,1,.74.1A2.23,2.23,0,0,1,20.9,14.84Z"/><path d="M20.49,15.49h0a1,1,0,0,0-.94-.29h0l0,0-.17-.77a0,0,0,0,1,0,0h0l.22,0a1.75,1.75,0,0,1,.75.11,2.19,2.19,0,0,1,.6.37,0,0,0,0,1,0,0l-.41.62Zm-.75-.39a1.09,1.09,0,0,1,.75.31l.37-.56a2.1,2.1,0,0,0-.57-.34,1.78,1.78,0,0,0-.72-.1H19.4l.15.7Z"/><path class="cls-2" d="M21.32,15.72l-.62.15a.71.71,0,0,0-.21-.41l.34-.68.07.06A1.05,1.05,0,0,1,21.32,15.72Z"/><path d="M20.7,15.9h0a0,0,0,0,1,0,0,.66.66,0,0,0-.2-.38s0,0,0,0l.34-.68a0,0,0,0,1,0,0h0l.07.07a1,1,0,0,1,.43.91l0,0-.62.15Zm-.17-.45a.79.79,0,0,1,.2.38l.56-.14a1.1,1.1,0,0,0-.41-.82l0,0Z"/></g></g></svg>