<svg xmlns="http://www.w3.org/2000/svg" viewBox="0 0 40.5 40.5"><defs><style>.cls-1{fill:#fff;}.cls-2{fill:#0038a8;}.cls-3{fill:#7b3f00;}.cls-4{fill:#fcd116;}</style></defs><g id="Ebene_2" data-name="Ebene 2"><g id="Ńëîé_1" data-name="Ńëîé 1"><path class="cls-1" d="M22.5.14A20.07,20.07,0,0,1,33,4.51H7.51A20.16,20.16,0,0,1,20.25,0Z"/><path class="cls-2" d="M37.1,9H3.4A21.36,21.36,0,0,1,7.51,4.51H33A21.27,21.27,0,0,1,37.1,9Z"/><path class="cls-1" d="M39.34,13.5H1.16A20.33,20.33,0,0,1,3.4,9H37.1A20.33,20.33,0,0,1,39.34,13.5Z"/><path class="cls-2" d="M40.36,18H.14a19.21,19.21,0,0,1,1-4.51H39.34A19.21,19.21,0,0,1,40.36,18Z"/><path class="cls-1" d="M40.5,20.25a16.78,16.78,0,0,1-.14,2.25H.14A16.78,16.78,0,0,1,0,20.25,16.53,16.53,0,0,1,.14,18H40.36A16.53,16.53,0,0,1,40.5,20.25Z"/><path class="cls-2" d="M40.36,22.5a19.24,19.24,0,0,1-1,4.5H1.16a19.24,19.24,0,0,1-1-4.5Z"/><path class="cls-1" d="M39.34,27a19.05,19.05,0,0,1-2.26,4.51H3.42A19.05,19.05,0,0,1,1.16,27Z"/><path class="cls-2" d="M37.08,31.51A20.14,20.14,0,0,1,33,36H7.53a19.94,19.94,0,0,1-4.11-4.49Z"/><path class="cls-1" d="M33,36A20.24,20.24,0,0,1,7.53,36Z"/><path class="cls-1" d="M20.25,0A20.16,20.16,0,0,0,7.51,4.51,21.36,21.36,0,0,0,3.4,9a20.33,20.33,0,0,0-2.24,4.5A19.21,19.21,0,0,0,.14,18,16.53,16.53,0,0,0,0,20.25,16.78,16.78,0,0,0,.14,22.5H22.5V.14Z"/><path class="cls-3" d="M15.92,4.94h0a2,2,0,0,0-.71.91c-.08.45.16,1.33,0,2a6.71,6.71,0,0,1-.54,1.69,2.1,2.1,0,0,1-.93.64c-.28.12-.51.19-.51.19L12.9,8.81,13,8.57s1.06-.38,1.5-2.59C14.49,6,14.68,5.2,15.92,4.94Z"/><path class="cls-4" d="M13.76,9.91a8.22,8.22,0,0,0,.84-2.25,4.85,4.85,0,0,0,.08-.55,2.29,2.29,0,0,1,.89-1.91,2.09,2.09,0,0,0-.36.63,3.31,3.31,0,0,0,0,1,3.78,3.78,0,0,1,0,1,6.18,6.18,0,0,1-.53,1.67,2.56,2.56,0,0,1-1,.63A1.86,1.86,0,0,1,13.76,9.91Z"/><path class="cls-3" d="M14.54,7.64a10.2,10.2,0,0,1-1,2.61,3.37,3.37,0,0,0,1.18-.74,6.71,6.71,0,0,0,.54-1.69c.12-.63-.11-1.53,0-2A2,2,0,0,1,15.91,5C14.57,5.5,14.71,6.7,14.54,7.64Zm.61-1.83a3.1,3.1,0,0,0,0,1,4.09,4.09,0,0,1,0,1,6.67,6.67,0,0,1-.53,1.65,2,2,0,0,1-.77.52v0a8.57,8.57,0,0,0,.85-2.27c0-.18.05-.37.08-.55a2.69,2.69,0,0,1,.51-1.56A1.89,1.89,0,0,0,15.15,5.81Z"/><path class="cls-3" d="M9.53,4.85h0A2,2,0,0,0,9.67,6c.26.39,1.05.84,1.41,1.37a6.36,6.36,0,0,1,.81,1.57,2,2,0,0,1-.2,1.11,5.06,5.06,0,0,1-.22.5l-1.34-.82L10,9.48s.48-1-.77-2.89A1.67,1.67,0,0,1,9.53,4.85Z"/><path class="cls-4" d="M11.51,9.88a7.91,7.91,0,0,0-1-2.19c-.1-.14-.21-.29-.33-.44a2.31,2.31,0,0,1-.73-2,2.43,2.43,0,0,0,.2.7,2.64,2.64,0,0,0,.66.7A4.43,4.43,0,0,1,11,7.4,6.37,6.37,0,0,1,11.83,9a2.47,2.47,0,0,1-.25,1.14Z"/><path class="cls-3" d="M11.89,8.93a6.36,6.36,0,0,0-.81-1.57c-.36-.53-1.15-1-1.36-1.42a2.09,2.09,0,0,1-.19-1.09c-.56,1.34.39,2.09.93,2.88a9.86,9.86,0,0,1,1.12,2.56A3.2,3.2,0,0,0,11.89,8.93Zm-.3,1v0a8.26,8.26,0,0,0-1-2.21l-.33-.44A2.73,2.73,0,0,1,9.5,5.75,2.6,2.6,0,0,0,9.6,6a2.92,2.92,0,0,0,.67.72,4.67,4.67,0,0,1,.7.71A6.51,6.51,0,0,1,11.77,9,2.21,2.21,0,0,1,11.59,9.89Z"/><path class="cls-3" d="M4.94,9.29h0s.47.62.91.7,1.34-.15,2,0a6.5,6.5,0,0,1,1.68.54,2.05,2.05,0,0,1,.65.92c.12.29.19.52.19.52l-1.53.36-.24-.09S8.19,11.15,6,10.72C6,10.72,5.2,10.53,4.94,9.29Z"/><path class="cls-4" d="M9.91,11.45a8.35,8.35,0,0,0-2.25-.84,4.85,4.85,0,0,0-.55-.08A2.31,2.31,0,0,1,5.2,9.64a1.89,1.89,0,0,0,.63.35,1.4,1.4,0,0,0,.45.06l.51,0,.57,0a1.83,1.83,0,0,1,.44,0,6.07,6.07,0,0,1,1.67.53,2.43,2.43,0,0,1,.64,1Z"/><path class="cls-3" d="M9.5,10.51A6.5,6.5,0,0,0,7.82,10a2.25,2.25,0,0,0-.46,0c-.36,0-.75.05-1.08.05a1.41,1.41,0,0,1-.43-.05,2.2,2.2,0,0,1-.91-.63c.55,1.34,1.76,1.2,2.7,1.37a10,10,0,0,1,2.6,1A3.1,3.1,0,0,0,9.5,10.51Zm-1.83,0-.55-.08A2.69,2.69,0,0,1,5.56,10l.25.11a1.49,1.49,0,0,0,.47.06l.52,0,.56,0a2.63,2.63,0,0,1,.43,0,6.67,6.67,0,0,1,1.65.53,2,2,0,0,1,.52.77h0A8.24,8.24,0,0,0,7.67,10.54Z"/><path class="cls-3" d="M4.85,15.68h0A2,2,0,0,0,6,15.54c.39-.26.84-1,1.37-1.41a6,6,0,0,1,1.57-.81,2,2,0,0,1,1.11.19l.5.23-.83,1.34-.23.1s-1-.48-2.89.77A1.67,1.67,0,0,1,4.85,15.68Z"/><path class="cls-4" d="M5.63,15.78a1.47,1.47,0,0,1-.36,0,2.11,2.11,0,0,0,.7-.19,2.8,2.8,0,0,0,.7-.66,4.37,4.37,0,0,1,.72-.71A6.61,6.61,0,0,1,9,13.38l.12,0a3.68,3.68,0,0,1,1,.27l-.21.07a7.91,7.91,0,0,0-2.19,1c-.15.1-.29.21-.44.33a2.62,2.62,0,0,1-1.62.76Z"/><path class="cls-3" d="M9.07,13.3a.32.32,0,0,0-.14,0,6,6,0,0,0-1.57.81c-.53.36-1,1.15-1.42,1.36a2.11,2.11,0,0,1-.91.2H4.85a2,2,0,0,0,.78.17c.88,0,1.48-.68,2.1-1.1a9.53,9.53,0,0,1,2.56-1.12A4.42,4.42,0,0,0,9.07,13.3ZM7.65,14.64a4.59,4.59,0,0,0-.44.33,2.75,2.75,0,0,1-1.47.74,1.39,1.39,0,0,0,.26-.1,2.8,2.8,0,0,0,.72-.68,4.57,4.57,0,0,1,.71-.69A6.51,6.51,0,0,1,9,13.44h.1a3.09,3.09,0,0,1,.82.19h0A8.26,8.26,0,0,0,7.65,14.64Z"/><path class="cls-3" d="M9.29,20.27h0a1.85,1.85,0,0,0,.71-.91c.09-.45-.15-1.33,0-2a6.71,6.71,0,0,1,.54-1.69,2.12,2.12,0,0,1,.92-.64,5.11,5.11,0,0,1,.52-.19l.36,1.53-.09.24s-1.07.37-1.51,2.59C10.71,19.23,10.53,20,9.29,20.27Z"/><path class="cls-4" d="M9.64,20a1.89,1.89,0,0,0,.35-.63,3,3,0,0,0,0-1,3.78,3.78,0,0,1,0-1,6.18,6.18,0,0,1,.53-1.67,2.56,2.56,0,0,1,1-.63,1.86,1.86,0,0,1-.1.2,8.22,8.22,0,0,0-.84,2.25,4.85,4.85,0,0,0-.08.55A2.31,2.31,0,0,1,9.64,20Z"/><path class="cls-3" d="M10.51,15.7A6.71,6.71,0,0,0,10,17.39c-.12.63.11,1.53,0,2a2,2,0,0,1-.64.91c1.35-.55,1.2-1.75,1.38-2.69a10.2,10.2,0,0,1,1-2.61A3.28,3.28,0,0,0,10.51,15.7Zm0,1.84c0,.18-.06.37-.08.55A2.69,2.69,0,0,1,10,19.65a1.89,1.89,0,0,0,.11-.25,2.87,2.87,0,0,0,0-1,4.63,4.63,0,0,1,0-1,6.27,6.27,0,0,1,.53-1.65,2,2,0,0,1,.77-.52v0A8.24,8.24,0,0,0,10.54,17.54Z"/><path class="cls-3" d="M15.68,20.36h0a2,2,0,0,0-.14-1.14c-.26-.39-1-.84-1.41-1.37a6.42,6.42,0,0,1-.82-1.57,2.14,2.14,0,0,1,.2-1.11c.12-.29.23-.5.23-.5l1.34.82.1.24s-.48,1,.77,2.89A1.67,1.67,0,0,1,15.68,20.36Z"/><path class="cls-4" d="M15.74,19.94a2.11,2.11,0,0,0-.19-.7,2.81,2.81,0,0,0-.66-.7,4.06,4.06,0,0,1-.71-.73,6.37,6.37,0,0,1-.8-1.55,2.55,2.55,0,0,1,.24-1.14,1,1,0,0,1,.07.21,8.28,8.28,0,0,0,1,2.19L15,18A2.31,2.31,0,0,1,15.74,19.94Z"/><path class="cls-3" d="M14.75,17.48a9.53,9.53,0,0,1-1.12-2.56,3.22,3.22,0,0,0-.32,1.36,6.42,6.42,0,0,0,.82,1.57c.36.53,1.15,1,1.36,1.42a2.09,2.09,0,0,1,.19,1.09C16.24,19,15.29,18.27,14.75,17.48Zm.86,1.73a2.8,2.8,0,0,0-.68-.72,4.16,4.16,0,0,1-.69-.71,6.51,6.51,0,0,1-.8-1.54,2,2,0,0,1,.18-.92v0a8.52,8.52,0,0,0,1,2.21L15,18a2.8,2.8,0,0,1,.74,1.46A2.6,2.6,0,0,0,15.61,19.21Z"/><path class="cls-3" d="M20.26,15.92h0a2,2,0,0,0-.91-.7c-.45-.09-1.33.15-2,0a6.71,6.71,0,0,1-1.69-.54,2.12,2.12,0,0,1-.64-.92c-.12-.29-.2-.52-.2-.52l1.54-.36.23.09s.38,1.07,2.6,1.5C19.23,14.49,20,14.68,20.26,15.92Z"/><path class="cls-4" d="M20,15.57a1.89,1.89,0,0,0-.63-.35,1.42,1.42,0,0,0-.46-.06l-.51,0a5.25,5.25,0,0,1-.56,0,2,2,0,0,1-.45,0,6.18,6.18,0,0,1-1.67-.53,2.56,2.56,0,0,1-.63-1l.2.1a8.1,8.1,0,0,0,2.25.84,4.85,4.85,0,0,0,.55.08A2.31,2.31,0,0,1,20,15.57Z"/><path class="cls-3" d="M17.56,14.54a10.26,10.26,0,0,1-2.6-1,3.37,3.37,0,0,0,.74,1.18,6.71,6.71,0,0,0,1.69.54,2.25,2.25,0,0,0,.46,0c.36,0,.75,0,1.07,0a1.34,1.34,0,0,1,.43,0,2,2,0,0,1,.91.63C19.71,14.57,18.51,14.71,17.56,14.54Zm1.84.61a1.52,1.52,0,0,0-.48-.06l-.51,0-.56,0a2.63,2.63,0,0,1-.43,0,6.75,6.75,0,0,1-1.66-.53,2.08,2.08,0,0,1-.52-.77h0a8.24,8.24,0,0,0,2.27.85l.55.08a2.72,2.72,0,0,1,1.56.51Z"/><path class="cls-3" d="M20.36,9.53h0a2,2,0,0,0-1.14.14c-.39.26-.84,1.05-1.37,1.41a6,6,0,0,1-1.57.81,2,2,0,0,1-1.11-.19c-.29-.12-.5-.23-.5-.23l.82-1.34.24-.1s1,.48,2.89-.77A1.67,1.67,0,0,1,20.36,9.53Z"/><path class="cls-4" d="M16.14,11.85a3.84,3.84,0,0,1-1-.27l.21-.07a8,8,0,0,0,2.2-1l.44-.33a2.62,2.62,0,0,1,1.61-.76,1.55,1.55,0,0,1,.37,0,2.11,2.11,0,0,0-.7.19,2.64,2.64,0,0,0-.7.66,4.41,4.41,0,0,1-.73.71,6.56,6.56,0,0,1-1.55.8Z"/><path class="cls-3" d="M19.57,9.36c-.87,0-1.47.68-2.09,1.1a9.67,9.67,0,0,1-2.56,1.12,4.42,4.42,0,0,0,1.22.33.32.32,0,0,0,.14,0,6,6,0,0,0,1.57-.81c.53-.36,1-1.15,1.42-1.36a2.09,2.09,0,0,1,.91-.2h.18A2,2,0,0,0,19.57,9.36Zm-.36.24a3,3,0,0,0-.73.68,3.79,3.79,0,0,1-.7.69,6.56,6.56,0,0,1-1.55.8h-.09a3.09,3.09,0,0,1-.82-.19h0a8.08,8.08,0,0,0,2.2-1l.45-.33a2.72,2.72,0,0,1,1.47-.74A1.17,1.17,0,0,0,19.21,9.6Z"/><polygon class="cls-4" points="12.67 11.51 12.67 4.98 13.91 11.51 12.67 11.51"/><path class="cls-3" d="M12.6,4.26v7.32H14Zm.14,1.44,1.09,5.75H12.74Z"/><polygon class="cls-3" points="12.6 4.26 11.21 11.58 12.6 11.58 12.6 4.26"/><polygon class="cls-4" points="7.26 7.17 12.76 10.91 11.88 11.79 7.26 7.17"/><path class="cls-3" d="M6.71,6.71l5.17,5.17,1-1Zm1.1.91,4.84,3.3-.77.77Z"/><polygon class="cls-3" points="6.71 6.71 10.9 12.87 11.88 11.88 6.71 6.71"/><polygon class="cls-4" points="4.98 12.54 11.51 11.29 11.51 12.54 4.98 12.54"/><path class="cls-3" d="M4.26,12.6h7.32V11.21Zm7.19-.13H5.69l5.76-1.09Z"/><polygon class="cls-3" points="4.26 12.61 11.58 14 11.58 12.61 4.26 12.61"/><polygon class="cls-4" points="10.91 12.45 11.79 13.33 7.16 17.95 10.91 12.45"/><path class="cls-3" d="M10.9,12.34,6.71,18.5l5.17-5.17Zm0,.22.77.77L7.62,17.4Z"/><polygon class="cls-3" points="6.71 18.5 12.86 14.31 11.88 13.33 6.71 18.5"/><polygon class="cls-4" points="11.29 13.7 12.54 13.7 12.54 20.23 11.29 13.7"/><path class="cls-3" d="M11.21,13.63,12.6,21V13.63Zm1.26,5.88-1.1-5.75h1.1Z"/><polygon class="cls-3" points="12.6 20.95 14 13.63 12.6 13.63 12.6 20.95"/><polygon class="cls-4" points="12.45 14.3 13.33 13.42 17.95 18.05 12.45 14.3"/><path class="cls-3" d="M13.33,13.33l-1,1L18.5,18.5Zm0,.19,4.06,4.07-4.84-3.3Z"/><polygon class="cls-3" points="18.5 18.5 14.31 12.34 13.33 13.33 18.5 18.5"/><polygon class="cls-4" points="13.7 12.67 20.23 12.67 13.7 13.92 13.7 12.67"/><path class="cls-3" d="M13.63,12.6V14L21,12.6Zm.13.14h5.75l-5.75,1.09Z"/><polygon class="cls-3" points="20.95 12.61 13.63 11.21 13.63 12.61 20.95 12.61"/><polygon class="cls-4" points="13.42 11.88 18.04 7.26 14.3 12.76 13.42 11.88"/><path class="cls-3" d="M13.33,11.88l1,1L18.5,6.71Zm1,.77-.77-.77,4.07-4.07Z"/><polygon class="cls-3" points="18.5 6.71 12.34 10.9 13.33 11.88 18.5 6.71"/><path class="cls-4" d="M15.32,12.6A2.72,2.72,0,1,1,12.6,9.89,2.72,2.72,0,0,1,15.32,12.6Z"/><path class="cls-3" d="M12.6,15.39a2.79,2.79,0,1,1,2.79-2.79A2.79,2.79,0,0,1,12.6,15.39Zm0-5.43a2.65,2.65,0,1,0,2.65,2.64A2.64,2.64,0,0,0,12.6,10Z"/><path class="cls-3" d="M12.9,11.6a1.49,1.49,0,0,1,.79-.48c.16,0,.79.15.92.39h0v0s-.07,0-.1,0a2,2,0,0,0-.82-.2,1.55,1.55,0,0,0-.75.3.05.05,0,0,1,0-.05Z"/><path class="cls-3" d="M13.08,12c0-.29.32-.35.61-.35a.93.93,0,0,1,.74.37h0a2,2,0,0,1-.29-.15h0v.05h0s0,0,0,0h0c0-.07-.1-.1-.16-.1h0l0,0h0a.24.24,0,0,1,.05.13.29.29,0,0,1-.11.21v0s0,0,0,0,.27-.12.27-.17,0-.06,0-.08v0h0s0,0,0,0h0v0s0,0,0,.05h.05l0,0a.82.82,0,0,1-.59.26c-.16,0-.49-.06-.49-.21s0-.07.05-.07.11.16.29.16c0,0,.06,0,.06,0a.46.46,0,0,1-.21-.35h0l0,0h0a.76.76,0,0,0-.23.21h0a0,0,0,0,1,0,0Z"/><path class="cls-3" d="M12.31,11.6a1.49,1.49,0,0,0-.79-.48c-.16,0-.79.15-.92.39h0v0s.07,0,.1,0a2,2,0,0,1,.82-.2,1.55,1.55,0,0,1,.75.3.05.05,0,0,0,.05-.05Z"/><path class="cls-3" d="M12.13,12c0-.29-.32-.35-.61-.35a1,1,0,0,0-.75.37h0a2,2,0,0,0,.29-.15h0v.05h0l0,0h0c0-.07.09-.1.16-.1h0s0,0,0,0h0a.18.18,0,0,0,0,.13.29.29,0,0,0,.11.21v0s0,0,0,0-.27-.12-.27-.17,0-.06,0-.08v0h0s0,0,0,0h0v0A.08.08,0,0,1,11,12H11v0a.82.82,0,0,0,.59.26c.16,0,.49-.06.49-.21S12,12,12,12s-.11.16-.29.16c0,0-.06,0-.06,0a.46.46,0,0,0,.21-.35h0l0,0h0a.76.76,0,0,1,.23.21h0a0,0,0,0,0,0,0Z"/><path class="cls-3" d="M13.35,13.19h0a.13.13,0,0,1-.12-.13v0c0-.08-.11-.24-.21-.24h0c0,.11.11.08.11.22a.09.09,0,0,1-.1.09.14.14,0,0,1-.14-.08s0,.07,0,.1,0,0,0,.05h0l-.08,0-.05,0,0,0-.08,0h-.05s0,0,0-.05,0-.1-.05-.1a.14.14,0,0,1-.14.08c-.08,0-.1,0-.1-.09s.07-.11.11-.22h0c-.1,0-.21.16-.21.24v0a.13.13,0,0,1-.12.13h0a.28.28,0,0,0-.26.17h0a1.06,1.06,0,0,1,.56-.16.62.62,0,0,1,.37.12c.05,0,.06,0,.06,0l.07,0A.66.66,0,0,1,13,13.2a1.06,1.06,0,0,1,.56.16h0A.28.28,0,0,0,13.35,13.19Z"/><path class="cls-3" d="M13.78,13.66c.2.18.24.38.24.28s-.11-.28-.23-.28Z"/><path class="cls-3" d="M11.42,13.66c-.2.18-.24.38-.24.28s.12-.28.24-.28Z"/><path class="cls-3" d="M13.71,13.8a.08.08,0,0,0-.07,0h-.05c-.22,0-.44-.19-.64-.19a1.82,1.82,0,0,0-.35.1,1.49,1.49,0,0,0-.35-.1c-.19,0-.41.18-.63.19h0a.08.08,0,0,0-.07,0h0a2.5,2.5,0,0,0,.41.07c.18,0,.21-.06.4-.06a.67.67,0,0,1,.24,0h.13a.66.66,0,0,1,.23,0c.2,0,.23.06.4.06a2.33,2.33,0,0,0,.41-.07Z"/><path class="cls-3" d="M13.67,13.89h-.05c-.12,0-.66.2-.84.2h-.35c-.18,0-.72-.2-.84-.2h-.05v0c.32.12.52.33.92.33h.26a2.19,2.19,0,0,0,.92-.33l0,0Z"/><path class="cls-3" d="M12.78,14.51H12.6v.06h0l.16,0h0Z"/><path class="cls-3" d="M12.5,14.51h-.08v0h0l.16,0h0V14.5h-.1Z"/></g></g></svg>