<svg viewBox="0 0 40.5 40.5" xmlns="http://www.w3.org/2000/svg"><path d="m22.5.14a20.07 20.07 0 0 1 10.5 4.37h-25.49a20.16 20.16 0 0 1 12.74-4.51z" fill="#fff"/><path d="m37.1 9h-33.7a21.36 21.36 0 0 1 4.11-4.49h25.49a21.27 21.27 0 0 1 4.1 4.49z" fill="#0038a8"/><path d="m39.34 13.5h-38.18a20.33 20.33 0 0 1 2.24-4.5h33.7a20.33 20.33 0 0 1 2.24 4.5z" fill="#fff"/><path d="m40.36 18h-40.22a19.21 19.21 0 0 1 1-4.51h38.2a19.21 19.21 0 0 1 1.02 4.51z" fill="#0038a8"/><path d="m40.5 20.25a16.78 16.78 0 0 1 -.14 2.25h-40.22a16.78 16.78 0 0 1 -.14-2.25 16.53 16.53 0 0 1 .14-2.25h40.22a16.53 16.53 0 0 1 .14 2.25z" fill="#fff"/><path d="m40.36 22.5a19.24 19.24 0 0 1 -1 4.5h-38.2a19.24 19.24 0 0 1 -1-4.5z" fill="#0038a8"/><path d="m39.34 27a19.05 19.05 0 0 1 -2.26 4.51h-33.66a19.05 19.05 0 0 1 -2.26-4.51z" fill="#fff"/><path d="m37.08 31.51a20.14 20.14 0 0 1 -4.08 4.49h-25.47a19.94 19.94 0 0 1 -4.11-4.49z" fill="#0038a8"/><path d="m33 36a20.24 20.24 0 0 1 -25.47 0z" fill="#fff"/><path d="m20.25 0a20.16 20.16 0 0 0 -12.74 4.51 21.36 21.36 0 0 0 -4.11 4.49 20.33 20.33 0 0 0 -2.24 4.5 19.21 19.21 0 0 0 -1.02 4.5 16.53 16.53 0 0 0 -.14 2.25 16.78 16.78 0 0 0 .14 2.25h22.36v-22.36z" fill="#fff"/><path d="m15.92 4.94a2 2 0 0 0 -.71.91c-.08.45.16 1.33 0 2a6.71 6.71 0 0 1 -.54 1.69 2.1 2.1 0 0 1 -.93.64c-.28.12-.51.19-.51.19l-.33-1.56.1-.24s1.06-.38 1.5-2.59c-.01.02.18-.78 1.42-1.04z" fill="#7b3f00"/><path d="m13.76 9.91a8.22 8.22 0 0 0 .84-2.25 4.85 4.85 0 0 0 .08-.55 2.29 2.29 0 0 1 .89-1.91 2.09 2.09 0 0 0 -.36.63 3.31 3.31 0 0 0 0 1 3.78 3.78 0 0 1 0 1 6.18 6.18 0 0 1 -.53 1.67 2.56 2.56 0 0 1 -1 .63 1.86 1.86 0 0 1 .08-.22z" fill="#fcd116"/><path d="m14.54 7.64a10.2 10.2 0 0 1 -1 2.61 3.37 3.37 0 0 0 1.18-.74 6.71 6.71 0 0 0 .54-1.69c.12-.63-.11-1.53 0-2a2 2 0 0 1 .65-.82c-1.34.5-1.2 1.7-1.37 2.64zm.61-1.83a3.1 3.1 0 0 0 0 1 4.09 4.09 0 0 1 0 1 6.67 6.67 0 0 1 -.53 1.65 2 2 0 0 1 -.77.52 8.57 8.57 0 0 0 .85-2.27c0-.18.05-.37.08-.55a2.69 2.69 0 0 1 .51-1.56 1.89 1.89 0 0 0 -.14.21z" fill="#7b3f00"/><path d="m9.53 4.85a2 2 0 0 0 .14 1.15c.26.39 1.05.84 1.41 1.37a6.36 6.36 0 0 1 .81 1.57 2 2 0 0 1 -.2 1.11 5.06 5.06 0 0 1 -.22.5l-1.34-.82-.13-.25s.48-1-.77-2.89a1.67 1.67 0 0 1 .3-1.74z" fill="#7b3f00"/><path d="m11.51 9.88a7.91 7.91 0 0 0 -1-2.19c-.1-.14-.21-.29-.33-.44a2.31 2.31 0 0 1 -.73-2 2.43 2.43 0 0 0 .2.7 2.64 2.64 0 0 0 .66.7 4.43 4.43 0 0 1 .69.75 6.37 6.37 0 0 1 .83 1.6 2.47 2.47 0 0 1 -.25 1.14z" fill="#fcd116"/><path d="m11.89 8.93a6.36 6.36 0 0 0 -.81-1.57c-.36-.53-1.15-1-1.36-1.42a2.09 2.09 0 0 1 -.19-1.09c-.56 1.34.39 2.09.93 2.88a9.86 9.86 0 0 1 1.12 2.56 3.2 3.2 0 0 0 .31-1.36zm-.3 1a8.26 8.26 0 0 0 -1-2.21l-.33-.44a2.73 2.73 0 0 1 -.76-1.53 2.6 2.6 0 0 0 .1.25 2.92 2.92 0 0 0 .67.72 4.67 4.67 0 0 1 .7.71 6.51 6.51 0 0 1 .8 1.57 2.21 2.21 0 0 1 -.18.89z" fill="#7b3f00"/><path d="m4.94 9.29s.47.62.91.7 1.34-.15 2 0a6.5 6.5 0 0 1 1.68.54 2.05 2.05 0 0 1 .65.92c.12.29.19.52.19.52l-1.53.36-.24-.09s-.41-1.09-2.6-1.52c0 0-.8-.19-1.06-1.43z" fill="#7b3f00"/><path d="m9.91 11.45a8.35 8.35 0 0 0 -2.25-.84 4.85 4.85 0 0 0 -.55-.08 2.31 2.31 0 0 1 -1.91-.89 1.89 1.89 0 0 0 .63.35 1.4 1.4 0 0 0 .45.06h.51.57a1.83 1.83 0 0 1 .44 0 6.07 6.07 0 0 1 1.67.53 2.43 2.43 0 0 1 .64 1z" fill="#fcd116"/><path d="m9.5 10.51a6.5 6.5 0 0 0 -1.68-.51 2.25 2.25 0 0 0 -.46 0c-.36 0-.75.05-1.08.05a1.41 1.41 0 0 1 -.43-.05 2.2 2.2 0 0 1 -.91-.63c.55 1.34 1.76 1.2 2.7 1.37a10 10 0 0 1 2.6 1 3.1 3.1 0 0 0 -.74-1.23zm-1.83 0-.55-.08a2.69 2.69 0 0 1 -1.56-.43l.25.11a1.49 1.49 0 0 0 .47.06h.52.56a2.63 2.63 0 0 1 .43 0 6.67 6.67 0 0 1 1.65.53 2 2 0 0 1 .52.77 8.24 8.24 0 0 0 -2.29-.93z" fill="#7b3f00"/><path d="m4.85 15.68a2 2 0 0 0 1.15-.14c.39-.26.84-1 1.37-1.41a6 6 0 0 1 1.57-.81 2 2 0 0 1 1.11.19l.5.23-.83 1.34-.23.1s-1-.48-2.89.77a1.67 1.67 0 0 1 -1.75-.27z" fill="#7b3f00"/><path d="m5.63 15.78a1.47 1.47 0 0 1 -.36 0 2.11 2.11 0 0 0 .7-.19 2.8 2.8 0 0 0 .7-.66 4.37 4.37 0 0 1 .72-.71 6.61 6.61 0 0 1 1.61-.84h.12a3.68 3.68 0 0 1 1 .27l-.21.07a7.91 7.91 0 0 0 -2.19 1c-.15.1-.29.21-.44.33a2.62 2.62 0 0 1 -1.62.76z" fill="#fcd116"/><path d="m9.07 13.3a.32.32 0 0 0 -.14 0 6 6 0 0 0 -1.57.81c-.53.36-1 1.15-1.42 1.36a2.11 2.11 0 0 1 -.91.2h-.18a2 2 0 0 0 .78.17c.88 0 1.48-.68 2.1-1.1a9.53 9.53 0 0 1 2.56-1.12 4.42 4.42 0 0 0 -1.22-.32zm-1.42 1.34a4.59 4.59 0 0 0 -.44.33 2.75 2.75 0 0 1 -1.47.74 1.39 1.39 0 0 0 .26-.1 2.8 2.8 0 0 0 .72-.68 4.57 4.57 0 0 1 .71-.69 6.51 6.51 0 0 1 1.57-.8h.1a3.09 3.09 0 0 1 .82.19 8.26 8.26 0 0 0 -2.27 1.01z" fill="#7b3f00"/><path d="m9.29 20.27a1.85 1.85 0 0 0 .71-.91c.09-.45-.15-1.33 0-2a6.71 6.71 0 0 1 .54-1.69 2.12 2.12 0 0 1 .92-.64 5.11 5.11 0 0 1 .52-.19l.36 1.53-.09.24s-1.07.37-1.51 2.59c-.03.03-.21.8-1.45 1.07z" fill="#7b3f00"/><path d="m9.64 20a1.89 1.89 0 0 0 .35-.63 3 3 0 0 0 0-1 3.78 3.78 0 0 1 0-1 6.18 6.18 0 0 1 .53-1.67 2.56 2.56 0 0 1 1-.63 1.86 1.86 0 0 1 -.1.2 8.22 8.22 0 0 0 -.84 2.25 4.85 4.85 0 0 0 -.08.55 2.31 2.31 0 0 1 -.86 1.93z" fill="#fcd116"/><path d="m10.51 15.7a6.71 6.71 0 0 0 -.51 1.69c-.12.63.11 1.53 0 2a2 2 0 0 1 -.64.91c1.35-.55 1.2-1.75 1.38-2.69a10.2 10.2 0 0 1 1-2.61 3.28 3.28 0 0 0 -1.23.7zm0 1.84c0 .18-.06.37-.08.55a2.69 2.69 0 0 1 -.43 1.56 1.89 1.89 0 0 0 .11-.25 2.87 2.87 0 0 0 0-1 4.63 4.63 0 0 1 0-1 6.27 6.27 0 0 1 .53-1.65 2 2 0 0 1 .77-.52 8.24 8.24 0 0 0 -.87 2.31z" fill="#7b3f00"/><path d="m15.68 20.36a2 2 0 0 0 -.14-1.14c-.26-.39-1-.84-1.41-1.37a6.42 6.42 0 0 1 -.82-1.57 2.14 2.14 0 0 1 .2-1.11c.12-.29.23-.5.23-.5l1.34.82.1.24s-.48 1 .77 2.89a1.67 1.67 0 0 1 -.27 1.74z" fill="#7b3f00"/><path d="m15.74 19.94a2.11 2.11 0 0 0 -.19-.7 2.81 2.81 0 0 0 -.66-.7 4.06 4.06 0 0 1 -.71-.73 6.37 6.37 0 0 1 -.8-1.55 2.55 2.55 0 0 1 .24-1.14 1 1 0 0 1 .07.21 8.28 8.28 0 0 0 1 2.19l.31.48a2.31 2.31 0 0 1 .74 1.94z" fill="#fcd116"/><path d="m14.75 17.48a9.53 9.53 0 0 1 -1.12-2.56 3.22 3.22 0 0 0 -.32 1.36 6.42 6.42 0 0 0 .82 1.57c.36.53 1.15 1 1.36 1.42a2.09 2.09 0 0 1 .19 1.09c.56-1.36-.39-2.09-.93-2.88zm.86 1.73a2.8 2.8 0 0 0 -.68-.72 4.16 4.16 0 0 1 -.69-.71 6.51 6.51 0 0 1 -.8-1.54 2 2 0 0 1 .18-.92 8.52 8.52 0 0 0 1 2.21l.38.47a2.8 2.8 0 0 1 .74 1.46 2.6 2.6 0 0 0 -.13-.25z" fill="#7b3f00"/><path d="m20.26 15.92a2 2 0 0 0 -.91-.7c-.45-.09-1.33.15-2 0a6.71 6.71 0 0 1 -1.69-.54 2.12 2.12 0 0 1 -.64-.92c-.12-.29-.2-.52-.2-.52l1.54-.36.23.09s.38 1.07 2.6 1.5c.04.02.81.21 1.07 1.45z" fill="#7b3f00"/><path d="m20 15.57a1.89 1.89 0 0 0 -.63-.35 1.42 1.42 0 0 0 -.46-.06h-.51a5.25 5.25 0 0 1 -.56 0 2 2 0 0 1 -.45 0 6.18 6.18 0 0 1 -1.67-.53 2.56 2.56 0 0 1 -.63-1l.2.1a8.1 8.1 0 0 0 2.25.84 4.85 4.85 0 0 0 .55.08 2.31 2.31 0 0 1 1.91.92z" fill="#fcd116"/><path d="m17.56 14.54a10.26 10.26 0 0 1 -2.6-1 3.37 3.37 0 0 0 .74 1.18 6.71 6.71 0 0 0 1.69.54 2.25 2.25 0 0 0 .46 0h1.07a1.34 1.34 0 0 1 .43 0 2 2 0 0 1 .91.63c-.55-1.32-1.75-1.18-2.7-1.35zm1.84.61a1.52 1.52 0 0 0 -.48-.06h-.51-.56a2.63 2.63 0 0 1 -.43 0 6.75 6.75 0 0 1 -1.66-.53 2.08 2.08 0 0 1 -.52-.77 8.24 8.24 0 0 0 2.27.85l.55.08a2.72 2.72 0 0 1 1.56.51z" fill="#7b3f00"/><path d="m20.36 9.53a2 2 0 0 0 -1.14.14c-.39.26-.84 1.05-1.37 1.41a6 6 0 0 1 -1.57.81 2 2 0 0 1 -1.11-.19c-.29-.12-.5-.23-.5-.23l.82-1.34.24-.1s1 .48 2.89-.77a1.67 1.67 0 0 1 1.74.27z" fill="#7b3f00"/><path d="m16.14 11.85a3.84 3.84 0 0 1 -1-.27l.21-.07a8 8 0 0 0 2.2-1l.44-.33a2.62 2.62 0 0 1 1.61-.76 1.55 1.55 0 0 1 .37 0 2.11 2.11 0 0 0 -.7.19 2.64 2.64 0 0 0 -.7.66 4.41 4.41 0 0 1 -.73.71 6.56 6.56 0 0 1 -1.55.8z" fill="#fcd116"/><path d="m19.57 9.36c-.87 0-1.47.68-2.09 1.1a9.67 9.67 0 0 1 -2.56 1.12 4.42 4.42 0 0 0 1.22.33.32.32 0 0 0 .14 0 6 6 0 0 0 1.57-.81c.53-.36 1-1.15 1.42-1.36a2.09 2.09 0 0 1 .91-.2h.18a2 2 0 0 0 -.79-.18zm-.36.24a3 3 0 0 0 -.73.68 3.79 3.79 0 0 1 -.7.69 6.56 6.56 0 0 1 -1.55.8h-.09a3.09 3.09 0 0 1 -.82-.19 8.08 8.08 0 0 0 2.2-1l.45-.33a2.72 2.72 0 0 1 1.47-.74 1.17 1.17 0 0 0 -.23.09z" fill="#7b3f00"/><path d="m12.67 11.51v-6.53l1.24 6.53z" fill="#fcd116"/><path d="m12.6 4.26v7.32h1.4zm.14 1.44 1.09 5.75h-1.09z" fill="#7b3f00"/><path d="m12.6 4.26-1.39 7.32h1.39z" fill="#7b3f00"/><path d="m7.26 7.17 5.5 3.74-.88.88z" fill="#fcd116"/><path d="m6.71 6.71 5.17 5.17 1-1zm1.1.91 4.84 3.3-.77.77z" fill="#7b3f00"/><path d="m6.71 6.71 4.19 6.16.98-.99z" fill="#7b3f00"/><path d="m4.98 12.54 6.53-1.25v1.25z" fill="#fcd116"/><path d="m4.26 12.6h7.32v-1.39zm7.19-.13h-5.76l5.76-1.09z" fill="#7b3f00"/><path d="m4.26 12.61 7.32 1.39v-1.39z" fill="#7b3f00"/><path d="m10.91 12.45.88.88-4.63 4.62z" fill="#fcd116"/><path d="m10.9 12.34-4.19 6.16 5.17-5.17zm0 .22.77.77-4.05 4.07z" fill="#7b3f00"/><path d="m6.71 18.5 6.15-4.19-.98-.98z" fill="#7b3f00"/><path d="m11.29 13.7h1.25v6.53z" fill="#fcd116"/><path d="m11.21 13.63 1.39 7.37v-7.37zm1.26 5.88-1.1-5.75h1.1z" fill="#7b3f00"/><path d="m12.6 20.95 1.4-7.32h-1.4z" fill="#7b3f00"/><path d="m12.45 14.3.88-.88 4.62 4.63z" fill="#fcd116"/><path d="m13.33 13.33-1 1 6.17 4.17zm0 .19 4.06 4.07-4.84-3.3z" fill="#7b3f00"/><path d="m18.5 18.5-4.19-6.16-.98.99z" fill="#7b3f00"/><path d="m13.7 12.67h6.53l-6.53 1.25z" fill="#fcd116"/><path d="m13.63 12.6v1.4l7.37-1.4zm.13.14h5.75l-5.75 1.09z" fill="#7b3f00"/><path d="m20.95 12.61-7.32-1.4v1.4z" fill="#7b3f00"/><path d="m13.42 11.88 4.62-4.62-3.74 5.5z" fill="#fcd116"/><path d="m13.33 11.88 1 1 4.17-6.17zm1 .77-.77-.77 4.07-4.07z" fill="#7b3f00"/><path d="m18.5 6.71-6.16 4.19.99.98z" fill="#7b3f00"/><path d="m15.32 12.6a2.72 2.72 0 1 1 -2.72-2.71 2.72 2.72 0 0 1 2.72 2.71z" fill="#fcd116"/><g fill="#7b3f00"><path d="m12.6 15.39a2.79 2.79 0 1 1 2.79-2.79 2.79 2.79 0 0 1 -2.79 2.79zm0-5.43a2.65 2.65 0 1 0 2.65 2.64 2.64 2.64 0 0 0 -2.65-2.6z"/><path d="m12.9 11.6a1.49 1.49 0 0 1 .79-.48c.16 0 .79.15.92.39s-.07 0-.1 0a2 2 0 0 0 -.82-.2 1.55 1.55 0 0 0 -.75.3.05.05 0 0 1 0-.05z"/><path d="m13.08 12c0-.29.32-.35.61-.35a.93.93 0 0 1 .74.37 2 2 0 0 1 -.29-.15v.05s0 0 0 0c0-.07-.1-.1-.16-.1a.24.24 0 0 1 .05.13.29.29 0 0 1 -.11.21s0 0 0 0 .27-.12.27-.17 0-.06 0-.08 0 0 0 0 0 0 0 .05h.05a.82.82 0 0 1 -.59.26c-.16 0-.49-.06-.49-.21s0-.07.05-.07.11.16.29.16h.06a.46.46 0 0 1 -.21-.35.76.76 0 0 0 -.23.21 0 0 0 0 1 0 0z"/><path d="m12.31 11.6a1.49 1.49 0 0 0 -.79-.48c-.16 0-.79.15-.92.39s.07 0 .1 0a2 2 0 0 1 .82-.2 1.55 1.55 0 0 1 .75.3.05.05 0 0 0 .05-.05z"/><path d="m12.13 12c0-.29-.32-.35-.61-.35a1 1 0 0 0 -.75.37 2 2 0 0 0 .29-.15v.05c0-.07.09-.1.16-.1s0 0 0 0a.18.18 0 0 0 0 .13.29.29 0 0 0 .11.21s0 0 0 0-.27-.12-.27-.17 0-.06 0-.08 0 0 0 0a.08.08 0 0 1 -.06.09.82.82 0 0 0 .59.26c.16 0 .49-.06.49-.21s-.08-.05-.08-.05-.11.16-.29.16h-.06a.46.46 0 0 0 .21-.35.76.76 0 0 1 .23.21 0 0 0 0 0 0 0z"/><path d="m13.35 13.19a.13.13 0 0 1 -.12-.13c0-.08-.11-.24-.21-.24 0 .11.11.08.11.22a.09.09 0 0 1 -.1.09.14.14 0 0 1 -.14-.08s0 .07 0 .1 0 0 0 .05h-.08-.05-.08-.05s0 0 0-.05 0-.1-.05-.1a.14.14 0 0 1 -.14.08c-.08 0-.1 0-.1-.09s.07-.11.11-.22c-.1 0-.21.16-.21.24a.13.13 0 0 1 -.12.13.28.28 0 0 0 -.26.17 1.06 1.06 0 0 1 .56-.16.62.62 0 0 1 .37.12h.06.07a.66.66 0 0 1 .08-.12 1.06 1.06 0 0 1 .56.16.28.28 0 0 0 -.21-.17z"/><path d="m13.78 13.66c.2.18.24.38.24.28s-.11-.28-.23-.28z"/><path d="m11.42 13.66c-.2.18-.24.38-.24.28s.12-.28.24-.28z"/><path d="m13.71 13.8a.08.08 0 0 0 -.07 0h-.05c-.22 0-.44-.19-.64-.19a1.82 1.82 0 0 0 -.35.1 1.49 1.49 0 0 0 -.35-.1c-.19 0-.41.18-.63.19a.08.08 0 0 0 -.07 0 2.5 2.5 0 0 0 .41.07c.18 0 .21-.06.4-.06a.67.67 0 0 1 .24 0h.13a.66.66 0 0 1 .23 0c.2 0 .23.06.4.06a2.33 2.33 0 0 0 .41-.07z"/><path d="m13.67 13.89h-.05c-.12 0-.66.2-.84.2h-.35c-.18 0-.72-.2-.84-.2h-.05c.32.12.52.33.92.33h.26a2.19 2.19 0 0 0 .92-.33z"/><path d="m12.78 14.51h-.18v.06h.16z"/><path d="m12.5 14.51h-.08.16v-.01h-.1z"/></g></svg>