<svg xmlns="http://www.w3.org/2000/svg" viewBox="0 0 40.5 40.5"><defs><style>.cls-1{fill:#b22234;}.cls-2{fill:#fff;}.cls-3{fill:#3c3b6e;}</style></defs><g id="Ebene_2" data-name="Ebene 2"><g id="Ńëîé_1" data-name="Ńëîé 1"><path class="cls-1" d="M31,3.12H9.46A19.86,19.86,0,0,1,11.53,2l.39-.17a2.52,2.52,0,0,1,.34-.15c.13-.07.27-.12.4-.18A20.22,20.22,0,0,1,20.14,0h.11A20.15,20.15,0,0,1,31,3.12Z"/><path class="cls-2" d="M34.84,6.24H5.66a19.33,19.33,0,0,1,3.8-3.12H31A19.33,19.33,0,0,1,34.84,6.24Z"/><path class="cls-1" d="M37.3,9.34H3.2c.19-.29.38-.58.58-.86l.09-.14a21.1,21.1,0,0,1,1.79-2.1H34.84A19.49,19.49,0,0,1,37.3,9.34Z"/><path class="cls-2" d="M39,12.46H1.55c.12-.28.25-.57.38-.85l.55-1.09c.23-.41.46-.8.72-1.18H37.3A21.11,21.11,0,0,1,39,12.46Z"/><path class="cls-1" d="M40,15.58H.54a20.3,20.3,0,0,1,1-3.12H39A20.3,20.3,0,0,1,40,15.58Z"/><path class="cls-2" d="M40.43,18.7H.07a2,2,0,0,1,0-.43,3.85,3.85,0,0,1,.05-.5,1.52,1.52,0,0,1,0-.21c0-.16,0-.32,0-.47.08-.51.18-1,.3-1.51H40A18.78,18.78,0,0,1,40.43,18.7Z"/><path class="cls-1" d="M40.5,20.25a13.2,13.2,0,0,1-.07,1.55H.07A13.2,13.2,0,0,1,0,20.25,13.2,13.2,0,0,1,.07,18.7H40.43A13.2,13.2,0,0,1,40.5,20.25Z"/><path class="cls-2" d="M40.43,21.8A18.78,18.78,0,0,1,40,24.92H.54A18.78,18.78,0,0,1,.07,21.8Z"/><path class="cls-1" d="M40,24.92A20.3,20.3,0,0,1,39,28H1.55a20.3,20.3,0,0,1-1-3.12Z"/><path class="cls-2" d="M39,28a21.11,21.11,0,0,1-1.65,3.12H3.2A21.11,21.11,0,0,1,1.55,28Z"/><path class="cls-1" d="M37.3,31.16a19.49,19.49,0,0,1-2.46,3.1H5.66a19.49,19.49,0,0,1-2.46-3.1Z"/><path class="cls-2" d="M34.84,34.26A19.33,19.33,0,0,1,31,37.38H9.46a19.33,19.33,0,0,1-3.8-3.12Z"/><path class="cls-1" d="M31,37.38a20.22,20.22,0,0,1-21.58,0Z"/><path class="cls-3" d="M20.14,0V21.8H.07A13.2,13.2,0,0,1,0,20.25,13.2,13.2,0,0,1,.07,18.7a2,2,0,0,1,0-.43,3.85,3.85,0,0,1,.05-.5,1.52,1.52,0,0,1,0-.21c0-.16,0-.32,0-.47.08-.51.18-1,.3-1.51a20.3,20.3,0,0,1,1-3.12c.12-.28.25-.57.38-.85l.55-1.09c.23-.41.46-.8.72-1.18s.38-.58.58-.86l.09-.14a21.1,21.1,0,0,1,1.79-2.1,19.33,19.33,0,0,1,3.8-3.12A19.86,19.86,0,0,1,11.53,2l.39-.17a2.52,2.52,0,0,1,.34-.15c.13-.07.27-.12.4-.18A20.22,20.22,0,0,1,20.14,0Z"/><polygon class="cls-2" points="9.92 3.12 10.2 3.98 11.1 3.98 10.37 4.51 10.65 5.37 9.92 4.83 9.19 5.37 9.46 4.51 8.73 3.98 9.64 3.98 9.92 3.12"/><polygon class="cls-2" points="15.05 3.12 15.33 3.98 16.23 3.98 15.5 4.51 15.78 5.37 15.05 4.83 14.32 5.37 14.6 4.51 13.86 3.98 14.77 3.98 15.05 3.12"/><path class="cls-2" d="M5.39,9.34l.13.39L5,9.34l-.19-.13-.19.13-.55.39.13-.39.15-.46-.55-.4.09-.14h.64l.28-.85.27.85H6l-.73.54Z"/><polygon class="cls-2" points="9.92 7.49 10.2 8.35 11.1 8.35 10.37 8.88 10.65 9.74 9.92 9.21 9.19 9.74 9.46 8.88 8.73 8.35 9.64 8.35 9.92 7.49"/><polygon class="cls-2" points="15.05 7.49 15.33 8.35 16.23 8.35 15.5 8.88 15.78 9.74 15.05 9.21 14.32 9.74 14.6 8.88 13.86 8.35 14.77 8.35 15.05 7.49"/><polygon class="cls-2" points="4.79 11.86 5.07 12.72 5.97 12.72 5.24 13.25 5.52 14.11 4.79 13.58 4.05 14.11 4.33 13.25 3.6 12.72 4.51 12.72 4.79 11.86"/><polygon class="cls-2" points="9.92 11.86 10.2 12.72 11.1 12.72 10.37 13.25 10.65 14.11 9.92 13.58 9.19 14.11 9.46 13.25 8.73 12.72 9.64 12.72 9.92 11.86"/><polygon class="cls-2" points="15.05 11.86 15.33 12.72 16.23 12.72 15.5 13.25 15.78 14.11 15.05 13.58 14.32 14.11 14.6 13.25 13.86 12.72 14.77 12.72 15.05 11.86"/><path class="cls-2" d="M.16,17.77l.23.71-.28-.21A3.85,3.85,0,0,1,.16,17.77Z"/><path class="cls-2" d="M.84,17.09l-.65.47c0-.16,0-.32,0-.47Z"/><polygon class="cls-2" points="4.79 16.23 5.07 17.09 5.97 17.09 5.24 17.62 5.52 18.48 4.79 17.95 4.05 18.48 4.33 17.62 3.6 17.09 4.51 17.09 4.79 16.23"/><polygon class="cls-2" points="9.92 16.23 10.2 17.09 11.1 17.09 10.37 17.62 10.65 18.48 9.92 17.95 9.19 18.48 9.46 17.62 8.73 17.09 9.64 17.09 9.92 16.23"/><polygon class="cls-2" points="15.05 16.23 15.33 17.09 16.23 17.09 15.5 17.62 15.78 18.48 15.05 17.95 14.32 18.48 14.6 17.62 13.86 17.09 14.77 17.09 15.05 16.23"/><path class="cls-2" d="M13.19,3.12l0,.07-.1-.07-.63-.46-.65.46-.09.07,0-.07L12,2.34,11.53,2l.39-.17h.28l.06-.15c.13-.07.27-.12.4-.18l.1.33h.9l-.73.54Z"/><polygon class="cls-2" points="17.61 0.94 17.89 1.8 18.8 1.8 18.06 2.33 18.34 3.19 17.61 2.66 16.88 3.19 17.16 2.33 16.43 1.8 17.33 1.8 17.61 0.94"/><polygon class="cls-2" points="7.35 5.31 7.63 6.17 8.53 6.17 7.8 6.7 8.08 7.56 7.35 7.03 6.62 7.56 6.9 6.7 6.17 6.17 7.07 6.17 7.35 5.31"/><polygon class="cls-2" points="12.48 5.31 12.76 6.17 13.66 6.17 12.93 6.7 13.21 7.56 12.48 7.03 11.75 7.56 12.03 6.7 11.3 6.17 12.2 6.17 12.48 5.31"/><polygon class="cls-2" points="17.61 5.31 17.89 6.17 18.8 6.17 18.06 6.7 18.34 7.56 17.61 7.03 16.88 7.56 17.16 6.7 16.43 6.17 17.33 6.17 17.61 5.31"/><path class="cls-2" d="M2.67,11.07l.29.86-.73-.52-.3.2.55-1.09,0,0h.9Z"/><polygon class="cls-2" points="7.35 9.68 7.63 10.54 8.53 10.54 7.8 11.07 8.08 11.93 7.35 11.4 6.62 11.93 6.9 11.07 6.17 10.54 7.07 10.54 7.35 9.68"/><polygon class="cls-2" points="12.48 9.68 12.76 10.54 13.66 10.54 12.93 11.07 13.21 11.93 12.48 11.4 11.75 11.93 12.03 11.07 11.3 10.54 12.2 10.54 12.48 9.68"/><polygon class="cls-2" points="17.61 9.68 17.89 10.54 18.8 10.54 18.06 11.07 18.34 11.93 17.61 11.4 16.88 11.93 17.16 11.07 16.43 10.54 17.33 10.54 17.61 9.68"/><polygon class="cls-2" points="2.22 14.06 2.5 14.92 3.4 14.92 2.67 15.45 2.95 16.31 2.22 15.78 1.49 16.31 1.77 15.45 1.04 14.92 1.94 14.92 2.22 14.06"/><polygon class="cls-2" points="7.35 14.06 7.63 14.92 8.53 14.92 7.8 15.45 8.08 16.31 7.35 15.78 6.62 16.31 6.9 15.45 6.17 14.92 7.07 14.92 7.35 14.06"/><polygon class="cls-2" points="12.48 14.06 12.76 14.92 13.66 14.92 12.93 15.45 13.21 16.31 12.48 15.78 11.75 16.31 12.03 15.45 11.3 14.92 12.2 14.92 12.48 14.06"/><polygon class="cls-2" points="17.61 14.06 17.89 14.92 18.8 14.92 18.06 15.45 18.34 16.31 17.61 15.78 16.88 16.31 17.16 15.45 16.43 14.92 17.33 14.92 17.61 14.06"/><polygon class="cls-2" points="2.22 18.38 2.5 19.24 3.4 19.24 2.67 19.77 2.95 20.63 2.22 20.1 1.49 20.63 1.77 19.77 1.04 19.24 1.94 19.24 2.22 18.38"/><polygon class="cls-2" points="7.35 18.38 7.63 19.24 8.53 19.24 7.8 19.77 8.08 20.63 7.35 20.1 6.62 20.63 6.9 19.77 6.17 19.24 7.07 19.24 7.35 18.38"/><polygon class="cls-2" points="12.48 18.38 12.76 19.24 13.66 19.24 12.93 19.77 13.21 20.63 12.48 20.1 11.75 20.63 12.03 19.77 11.3 19.24 12.2 19.24 12.48 18.38"/><polygon class="cls-2" points="17.61 18.38 17.89 19.24 18.8 19.24 18.06 19.77 18.34 20.63 17.61 20.1 16.88 20.63 17.16 19.77 16.43 19.24 17.33 19.24 17.61 18.38"/></g></g></svg>