<svg xmlns="http://www.w3.org/2000/svg" viewBox="0 0 40.5 40.5"><defs><style>.cls-1{fill:#0099b5;}.cls-2{fill:#1eb53a;}.cls-3{fill:#fff;}.cls-4{fill:#ce1126;}</style></defs><g id="Ebene_2" data-name="Ebene 2"><g id="Ńëîé_1" data-name="Ńëîé 1"><path class="cls-1" d="M39.87,15.19H.63a20.27,20.27,0,0,1,39.24,0Z"/><path class="cls-2" d="M38.12,29.77a20.25,20.25,0,0,1-35.74,0Z"/><path class="cls-3" d="M40.5,20.25a20,20,0,0,1-2,8.72H2a20,20,0,0,1-2-8.72A20.76,20.76,0,0,1,.45,16h39.6A20.76,20.76,0,0,1,40.5,20.25Z"/><path class="cls-4" d="M40.05,16H.45l.18-.79H39.87Z"/><path class="cls-4" d="M38.53,29a8.62,8.62,0,0,1-.41.8H2.38A8.62,8.62,0,0,1,2,29Z"/><path class="cls-3" d="M8.12,8.71a4.86,4.86,0,0,1,4.12-4.8,4.58,4.58,0,0,0-.9-.09,4.89,4.89,0,0,0,0,9.77,4.58,4.58,0,0,0,.9-.09A4.85,4.85,0,0,1,8.12,8.71Z"/><polygon class="cls-3" points="14.26 11.61 14.48 12.3 15.21 12.3 14.62 12.73 14.85 13.42 14.26 12.99 13.67 13.42 13.9 12.73 13.31 12.3 14.04 12.3 14.26 11.61"/><polygon class="cls-3" points="18.15 11.61 18.37 12.3 19.1 12.3 18.51 12.73 18.74 13.42 18.15 12.99 17.56 13.42 17.78 12.73 17.2 12.3 17.92 12.3 18.15 11.61"/><polygon class="cls-3" points="22.03 11.61 22.26 12.3 22.99 12.3 22.4 12.73 22.62 13.42 22.03 12.99 21.45 13.42 21.67 12.73 21.08 12.3 21.81 12.3 22.03 11.61"/><polygon class="cls-3" points="25.92 11.61 26.15 12.3 26.87 12.3 26.29 12.73 26.51 13.42 25.92 12.99 25.33 13.42 25.56 12.73 24.97 12.3 25.7 12.3 25.92 11.61"/><polygon class="cls-3" points="29.81 11.61 30.03 12.3 30.76 12.3 30.17 12.73 30.4 13.42 29.81 12.99 29.22 13.42 29.44 12.73 28.86 12.3 29.58 12.3 29.81 11.61"/><polygon class="cls-3" points="18.15 7.71 18.37 8.4 19.1 8.4 18.51 8.83 18.74 9.52 18.15 9.1 17.56 9.52 17.78 8.83 17.2 8.4 17.92 8.4 18.15 7.71"/><polygon class="cls-3" points="22.03 7.71 22.26 8.4 22.99 8.4 22.4 8.83 22.62 9.52 22.03 9.1 21.45 9.52 21.67 8.83 21.08 8.4 21.81 8.4 22.03 7.71"/><polygon class="cls-3" points="25.92 7.71 26.15 8.4 26.87 8.4 26.29 8.83 26.51 9.52 25.92 9.1 25.33 9.52 25.56 8.83 24.97 8.4 25.7 8.4 25.92 7.71"/><polygon class="cls-3" points="29.81 7.71 30.03 8.4 30.76 8.4 30.17 8.83 30.4 9.52 29.81 9.1 29.22 9.52 29.44 8.83 28.86 8.4 29.58 8.4 29.81 7.71"/><polygon class="cls-3" points="22.03 3.81 22.26 4.51 22.99 4.51 22.4 4.93 22.62 5.63 22.03 5.2 21.45 5.63 21.67 4.93 21.08 4.51 21.81 4.51 22.03 3.81"/><polygon class="cls-3" points="25.92 3.81 26.15 4.51 26.87 4.51 26.29 4.93 26.51 5.63 25.92 5.2 25.33 5.63 25.56 4.93 24.97 4.51 25.7 4.51 25.92 3.81"/><polygon class="cls-3" points="29.81 3.81 30.03 4.51 30.76 4.51 30.17 4.93 30.4 5.63 29.81 5.2 29.22 5.63 29.44 4.93 28.86 4.51 29.58 4.51 29.81 3.81"/></g></g></svg>