<svg xmlns="http://www.w3.org/2000/svg" viewBox="0 0 40.5 40.5"><defs><style>.cls-1{fill:#fff;}.cls-2{fill:#fa0204;}.cls-3{fill:#ffe000;}.cls-4{fill:red;}.cls-5{fill:#ccc;}</style></defs><g id="Ebene_2" data-name="Ebene 2"><g id="Ńëîé_1" data-name="Ńëîé 1"><path class="cls-1" d="M40.5,20.25A20.26,20.26,0,0,1,20.25,40.5V0A20.26,20.26,0,0,1,40.5,20.25Z"/><path class="cls-2" d="M33.69,25.11c.1.08.22.1.27,0s0-.18-.09-.25-.22-.1-.27,0S33.59,25,33.69,25.11Z"/><path d="M33.87,25.2h0a.36.36,0,0,1-.17-.07c-.11-.09-.15-.21-.1-.28s.19-.06.3,0A.36.36,0,0,1,34,25a.17.17,0,0,1,0,.14A.14.14,0,0,1,33.87,25.2Zm-.18-.35a.11.11,0,0,0-.08,0c0,.05,0,.16.1.23h0a.25.25,0,0,0,.14.06.11.11,0,0,0,.1,0,.12.12,0,0,0,0-.1.31.31,0,0,0-.1-.13A.27.27,0,0,0,33.69,24.85Z"/><path class="cls-2" d="M32.71,25.77c.11.07.23.07.27,0s0-.18-.12-.24-.22-.08-.27,0S32.61,25.7,32.71,25.77Z"/><path d="M32.88,25.84h0a.41.41,0,0,1-.17-.05h0c-.11-.08-.17-.2-.12-.27s.17-.08.29,0a.33.33,0,0,1,.13.13.17.17,0,0,1,0,.14A.15.15,0,0,1,32.88,25.84Zm-.16-.09a.33.33,0,0,0,.15.05.13.13,0,0,0,.1,0,.12.12,0,0,0,0-.1.25.25,0,0,0-.11-.12c-.09-.06-.2-.07-.24,0s0,.15.11.21Z"/><path class="cls-2" d="M32.4,25.86c.1.07.22.08.26,0s0-.17-.12-.24-.22-.07-.26,0S32.29,25.8,32.4,25.86Z"/><path d="M32.56,25.94h0a.32.32,0,0,1-.17-.06h0c-.11-.07-.17-.19-.12-.27s.18-.07.29,0a.33.33,0,0,1,.13.13.15.15,0,0,1,0,.13A.12.12,0,0,1,32.56,25.94Zm-.15-.09a.27.27,0,0,0,.15,0,.1.1,0,0,0,.09,0,.12.12,0,0,0,0-.1.29.29,0,0,0-.11-.11c-.09-.06-.2-.07-.24,0s0,.15.12.21Z"/><path class="cls-1" d="M28.46,17.83l.64.75a2.31,2.31,0,0,0,.55-1.28c0-.12,0-.24.05-.35a6.54,6.54,0,0,0,0-1l-.88-.09a8.24,8.24,0,0,1-.05,1q0,.19-.06.33C28.62,17.71,28.46,17.83,28.46,17.83Z"/><path d="M29.09,18.61l-.66-.78,0,0a1.21,1.21,0,0,0,.26-.61q0-.15.06-.33a9.2,9.2,0,0,0,.05-1v0l.92.09v0a6.56,6.56,0,0,1,0,1c0,.12,0,.24,0,.35a2.32,2.32,0,0,1-.56,1.3Zm-.6-.78.61.72a2.17,2.17,0,0,0,.53-1.26,3.27,3.27,0,0,0,.05-.35,8.22,8.22,0,0,0,0-.93l-.84-.09a8.66,8.66,0,0,1-.05,1c0,.12,0,.24-.06.34A1.38,1.38,0,0,1,28.49,17.83Z"/><path class="cls-3" d="M28.83,17.75l.32.11a1.79,1.79,0,0,0,.21-.6l.29,0c0-.12,0-.24.05-.35l-.3,0v-.35h-.29v.33l-.32,0q0,.19-.06.33l.35,0S29,17.67,28.83,17.75Z"/><path d="M29.15,17.89l-.37-.14,0,0c.11-.06.2-.34.24-.47l-.36,0v0q0-.15.06-.33v0l.32,0v-.33h.33v.35l.3,0v0c0,.12,0,.24,0,.35v0l-.29,0a1.72,1.72,0,0,1-.22.58Zm-.28-.15.27.1a2,2,0,0,0,.21-.58v0l.28,0c0-.09,0-.2.05-.31l-.3,0v-.35h-.25v.33l-.33,0a2.34,2.34,0,0,1-.05.3l.36,0v0A1.29,1.29,0,0,1,28.87,17.74Z"/><path class="cls-2" d="M32.09,26c.1.07.22.08.27,0s0-.17-.13-.24-.22-.07-.26,0S32,25.92,32.09,26Z"/><path d="M32.25,26.06h0a.27.27,0,0,1-.17-.06h0a.33.33,0,0,1-.13-.13.17.17,0,0,1,0-.14.16.16,0,0,1,.13-.05.41.41,0,0,1,.17.05c.11.08.17.2.12.27A.12.12,0,0,1,32.25,26.06ZM32.1,26a.3.3,0,0,0,.15.05.1.1,0,0,0,.09,0c0-.05,0-.15-.12-.21a.27.27,0,0,0-.14-.05.13.13,0,0,0-.1,0,.12.12,0,0,0,0,.1.25.25,0,0,0,.11.12Z"/><path class="cls-2" d="M31.8,26.05c.09.06.2.07.24,0s0-.16-.11-.22-.21-.07-.24,0S31.7,26,31.8,26.05Z"/><path d="M32,26.12h0a.3.3,0,0,1-.15-.05h0a.46.46,0,0,1-.12-.12.15.15,0,0,1,0-.13c0-.07.16-.07.27,0a.31.31,0,0,1,.11.12.12.12,0,0,1,0,.13A.13.13,0,0,1,32,26.12Zm-.17-.31a.11.11,0,0,0-.08,0,.1.1,0,0,0,0,.09.19.19,0,0,0,.1.1h0a.24.24,0,0,0,.13,0s.07,0,.08,0A.07.07,0,0,0,32,26a.24.24,0,0,0-.1-.1A.3.3,0,0,0,31.78,25.81Z"/><path class="cls-2" d="M31.49,26.15c.1.06.22.06.26,0s0-.16-.12-.22-.21-.07-.25,0S31.39,26.08,31.49,26.15Z"/><path d="M31.65,26.22h0a.27.27,0,0,1-.16-.06h0a.25.25,0,0,1-.11-.12.12.12,0,0,1,0-.13c.05-.07.17-.07.28,0s.17.18.12.25A.11.11,0,0,1,31.65,26.22Zm-.17-.32s-.07,0-.08,0a.07.07,0,0,0,0,.09.35.35,0,0,0,.1.11h0a.3.3,0,0,0,.14.05.1.1,0,0,0,.09,0c0-.05,0-.14-.11-.2A.27.27,0,0,0,31.48,25.9Z"/><path class="cls-2" d="M30.86,26.24c.09.08.21.11.26.05s0-.17-.07-.26-.22-.11-.27-.05S30.76,26.15,30.86,26.24Z"/><path d="M31,26.34h0a.43.43,0,0,1-.16-.09h0c-.1-.1-.14-.22-.08-.29a.17.17,0,0,1,.14,0,.33.33,0,0,1,.16.09.31.31,0,0,1,.1.15.12.12,0,0,1,0,.13A.12.12,0,0,1,31,26.34Zm-.17-.12a.29.29,0,0,0,.14.08.11.11,0,0,0,.1,0,.11.11,0,0,0,0-.1A.24.24,0,0,0,31,26a.27.27,0,0,0-.14-.07.11.11,0,0,0-.1,0c0,.05,0,.15.08.23Z"/><path class="cls-2" d="M30.52,26.3c.1.09.22.11.27.06s0-.18-.08-.26S30.5,26,30.45,26,30.43,26.21,30.52,26.3Z"/><path d="M30.71,26.41h0a.4.4,0,0,1-.16-.08h0a.44.44,0,0,1-.1-.15.13.13,0,0,1,0-.14.12.12,0,0,1,.14,0,.4.4,0,0,1,.16.08.65.65,0,0,1,.1.15.16.16,0,0,1,0,.14A.13.13,0,0,1,30.71,26.41ZM30.53,26l-.07,0a.11.11,0,0,0,0,.1.24.24,0,0,0,.09.14h0a.27.27,0,0,0,.14.07s.08,0,.1,0,0-.05,0-.1a.51.51,0,0,0-.09-.13.29.29,0,0,0-.14-.08Z"/><path class="cls-2" d="M30.23,26.33c.09.09.21.11.26.05s0-.17-.07-.26-.22-.11-.27-.05S30.13,26.24,30.23,26.33Z"/><path d="M30.42,26.43h-.05a.33.33,0,0,1-.16-.09h0a.29.29,0,0,1-.09-.15.14.14,0,0,1,0-.14.14.14,0,0,1,.13,0,.29.29,0,0,1,.16.09.36.36,0,0,1,.1.15.14.14,0,0,1,0,.14A.14.14,0,0,1,30.42,26.43Zm-.19-.37a.08.08,0,0,0-.06,0,.11.11,0,0,0,0,.1.38.38,0,0,0,.09.13h0a.29.29,0,0,0,.14.08.09.09,0,0,0,.11-.12.22.22,0,0,0-.09-.13.29.29,0,0,0-.14-.08Z"/><path class="cls-2" d="M31.16,26.18c.09.08.19.1.24.05s0-.15-.07-.23-.19-.1-.24-.05S31.07,26.1,31.16,26.18Z"/><path d="M31.33,26.28a.27.27,0,0,1-.18-.08c-.1-.09-.13-.21-.07-.27s.17,0,.26.05.13.21.07.27A.11.11,0,0,1,31.33,26.28Zm-.17-.34-.06,0s0,.14.07.21.18.09.22,0,0-.14-.07-.21A.28.28,0,0,0,31.16,25.94Z"/><path class="cls-1" d="M31.77,17.83l-.63.75a2.25,2.25,0,0,1-.56-1.28c0-.12,0-.24,0-.35a5.87,5.87,0,0,1,0-1l.88-.09a6.33,6.33,0,0,0,.06,1,2.32,2.32,0,0,0,.05.33A1.21,1.21,0,0,0,31.77,17.83Z"/><path d="M31.14,18.61h0a2.32,2.32,0,0,1-.56-1.3c0-.11,0-.23,0-.35a7.61,7.61,0,0,1,0-1v0l.91-.09v0a7,7,0,0,0,.06,1,2.88,2.88,0,0,0,.05.33,1.14,1.14,0,0,0,.26.61l0,0h0ZM30.53,16a6.94,6.94,0,0,0,0,.93,3.39,3.39,0,0,0,0,.35,2.24,2.24,0,0,0,.54,1.26l.6-.72a1.31,1.31,0,0,1-.25-.62,1.72,1.72,0,0,1-.06-.34,6.6,6.6,0,0,1-.06-1Z"/><path class="cls-3" d="M31.84,14.58a.47.47,0,0,1-.33.16c-.2,0-.34-.3-.34-.3a.84.84,0,0,1-.51.2c-.29,0-.55-.4-.55-.4s-.26.4-.55.4a.84.84,0,0,1-.51-.2s-.14.3-.34.3a.47.47,0,0,1-.33-.16l-.15-.17V15l.2.15L29.71,15l.4-.2.4.2,1.28.13L32,15v-.55Z"/><path d="M31.79,15.13h0L30.5,15h0l-.39-.19-.39.19h0l-1.29.13h0l-.2-.15v-.57a0,0,0,0,1,0,0h0l.15.17a.43.43,0,0,0,.31.15c.19,0,.32-.28.32-.29h0a.85.85,0,0,0,.5.19c.27,0,.53-.39.53-.39h0s.26.39.53.39a.85.85,0,0,0,.5-.19h0s.14.29.32.29a.43.43,0,0,0,.31-.15h0L32,14.4h0a0,0,0,0,1,0,0V15l-.2.15ZM30.51,15l1.28.13L32,15v-.49l-.12.13a.48.48,0,0,1-.34.17c-.18,0-.31-.21-.34-.29a.88.88,0,0,1-.51.19c-.25,0-.49-.3-.55-.39-.06.09-.29.39-.55.39a.85.85,0,0,1-.5-.19c0,.08-.17.29-.35.29a.43.43,0,0,1-.34-.17l-.12-.13V15l.19.14L29.71,15l.39-.19h0Z"/><path class="cls-3" d="M30.11,14.78s-1.35,0-1.68.33l.2.4.88-.23.6-.11.6.11.88.23.2-.4C31.46,14.78,30.11,14.78,30.11,14.78Z"/><path d="M31.6,15.53l-.89-.23-.6-.11-.6.11-.89.23-.21-.42h0c.33-.33,1.64-.34,1.69-.34s1.36,0,1.7.34h0Zm-1.49-.38h0l.61.11.86.23.19-.38a4.6,4.6,0,0,0-3.32,0l.19.38.86-.23Z"/><path class="cls-3" d="M30.11,15.17s-1.23,0-1.59.34v.24l1.59-.22,1.59.22v-.24C31.34,15.14,30.11,15.17,30.11,15.17Z"/><path d="M31.72,15.78l-1.61-.23-1.61.23V15.5h0c.36-.36,1.54-.34,1.6-.34s1.24,0,1.6.34h0Zm-1.61-.27h0l1.57.22v-.21c-.36-.35-1.56-.33-1.57-.33h0s-1.21,0-1.57.33v.21Z"/><path class="cls-4" d="M31.7,15.75c0,.25-.71.45-1.59.45s-1.59-.2-1.59-.45.71-.44,1.59-.44S31.7,15.51,31.7,15.75Z"/><path d="M30.11,16.22c-.9,0-1.61-.2-1.61-.47s.71-.46,1.61-.46,1.61.2,1.61.46S31,16.22,30.11,16.22Zm0-.89c-.85,0-1.57.19-1.57.42s.72.43,1.57.43,1.58-.19,1.58-.43S31,15.33,30.11,15.33Z"/><path class="cls-3" d="M31.32,14.34a.15.15,0,1,1-.29,0,.15.15,0,0,1,.14-.14A.15.15,0,0,1,31.32,14.34Z"/><path d="M31.17,14.51a.17.17,0,0,1-.16-.17.16.16,0,0,1,.16-.16.17.17,0,0,1,.17.16A.18.18,0,0,1,31.17,14.51Zm0-.29a.13.13,0,0,0-.12.12.13.13,0,0,0,.12.13.13.13,0,0,0,.13-.13A.13.13,0,0,0,31.17,14.22Z"/><path class="cls-2" d="M32.75,24.59c.09.08.21.09.26,0s0-.18-.06-.26a.2.2,0,0,0-.26,0C32.63,24.4,32.66,24.51,32.75,24.59Z"/><path d="M32.91,24.67h0a.23.23,0,0,1-.15-.07h0a.24.24,0,0,1-.09-.14.12.12,0,0,1,0-.14.13.13,0,0,1,.13-.05.26.26,0,0,1,.16.07.42.42,0,0,1,.09.14.16.16,0,0,1,0,.14A.13.13,0,0,1,32.91,24.67Zm-.11-.36a.12.12,0,0,0-.09,0,.14.14,0,0,0,0,.11.2.2,0,0,0,.08.12h0a.19.19,0,0,0,.13.06.13.13,0,0,0,.11,0,.14.14,0,0,0,0-.11.23.23,0,0,0-.08-.12.19.19,0,0,0-.13-.06Z"/><path class="cls-2" d="M33.43,24.92c.09.07.21.08.26,0s0-.18-.06-.26a.18.18,0,0,0-.26,0C33.31,24.72,33.34,24.84,33.43,24.92Z"/><path d="M33.59,25h0a.23.23,0,0,1-.15-.07h0a.24.24,0,0,1-.09-.14.12.12,0,0,1,0-.14.13.13,0,0,1,.13,0,.25.25,0,0,1,.16.06.46.46,0,0,1,.09.15.17.17,0,0,1,0,.14A.17.17,0,0,1,33.59,25Zm-.12-.37a.12.12,0,0,0-.08,0,.11.11,0,0,0,0,.11.23.23,0,0,0,.08.12h0a.19.19,0,0,0,.13.06.14.14,0,0,0,.11,0,.11.11,0,0,0,0-.1.26.26,0,0,0-.08-.13.24.24,0,0,0-.13-.05Z"/><path class="cls-3" d="M32.21,13.23c-.09,0-.21-.27-.21-.27s0,.15-.23.15-.45-.45-.45-.45a.6.6,0,0,1-.49.27,1.33,1.33,0,0,1-.71-.37,1.37,1.37,0,0,1-.72.37.57.57,0,0,1-.48-.27s-.24.45-.46.45-.23-.15-.23-.15-.12.27-.2.27.11.21.11.21l.43.09,1.23-.29.32-.11.32.11,1.23.29.43-.09S32.29,13.23,32.21,13.23Z"/><path d="M31.67,13.55h0l-1.23-.29-.31-.11-.32.11-1.23.29-.44-.09h0c-.06-.07-.15-.18-.13-.22s0,0,0,0,.14-.16.18-.27l0-.07V13s0,.13.21.13.44-.43.44-.44l0,0v0a.58.58,0,0,0,.47.26,1.34,1.34,0,0,0,.7-.36h0a1.39,1.39,0,0,0,.7.36.54.54,0,0,0,.47-.26l0,0,0,0s.23.44.43.44S32,13,32,13v-.08L32,13c0,.11.14.27.19.27l0,0s-.08.15-.14.22h0Zm-1.55-.45.32.12,1.23.29.42-.08a.66.66,0,0,0,.12-.18h0c-.08,0-.16-.15-.2-.24a.25.25,0,0,1-.24.12c-.19,0-.4-.33-.45-.43a.62.62,0,0,1-.49.25,1.33,1.33,0,0,1-.71-.36,1.41,1.41,0,0,1-.72.36.6.6,0,0,1-.48-.25c-.06.1-.26.43-.46.43a.23.23,0,0,1-.23-.12c0,.09-.13.24-.2.24h0a.8.8,0,0,0,.13.18l.42.08,1.22-.29Z"/><path class="cls-3" d="M30.23,13c0,.08-.11.09-.11.09S30,13.12,30,13a6,6,0,0,0-1.87.4V14l1.26-.45H30l.13-.11.12.11h.6L32.1,14v-.56A6,6,0,0,0,30.23,13Z"/><path d="M32.12,14l-1.29-.45h-.59l-.12-.1-.12.1h-.6L28.12,14v-.59h0A6.33,6.33,0,0,1,30,13l0,0c0,.06.08.07.09.07s.09,0,.09-.07a0,0,0,0,1,0,0,6.45,6.45,0,0,1,1.89.42h0Zm-1.87-.5h.59l1.24.44v-.51A7,7,0,0,0,30.24,13c0,.08-.08.1-.12.1s-.13,0-.13-.1a6.89,6.89,0,0,0-1.83.42V14l1.24-.44H30l.14-.11Z"/><path class="cls-3" d="M32.09,13.81a5.2,5.2,0,0,0-4,0L28,14.1l0,.12a3.93,3.93,0,0,1,1.4-.55,1.42,1.42,0,0,1,.71.11,1.37,1.37,0,0,1,.7-.11,4,4,0,0,1,1.41.55l0-.12Z"/><path d="M32.23,14.26l0,0a4.21,4.21,0,0,0-1.39-.54,1.35,1.35,0,0,0-.69.11h0a1.37,1.37,0,0,0-.7-.11,4.21,4.21,0,0,0-1.39.54l0,0L28,14.1l.18-.3h0a5.13,5.13,0,0,1,4,0h0l.18.3ZM28,14.1l0,.09a4,4,0,0,1,1.39-.54,1.44,1.44,0,0,1,.71.11,1.39,1.39,0,0,1,.71-.11,4.19,4.19,0,0,1,1.39.54l0-.09-.16-.27a4.71,4.71,0,0,0-2-.4,4.6,4.6,0,0,0-2,.4Z"/><path class="cls-3" d="M30.41,14a.31.31,0,0,1-.6,0,.31.31,0,0,1,.6,0Z"/><path d="M30.11,14.24A.29.29,0,0,1,29.8,14a.28.28,0,0,1,.31-.26.29.29,0,0,1,.32.26A.3.3,0,0,1,30.11,14.24Zm0-.48a.23.23,0,1,0,.28.22A.26.26,0,0,0,30.11,13.76Z"/><path class="cls-3" d="M30.6,14.27a.23.23,0,0,1-.46,0,.23.23,0,0,1,.46,0Z"/><path d="M30.37,14.51a.25.25,0,0,1-.25-.24.25.25,0,0,1,.5,0A.25.25,0,0,1,30.37,14.51Zm0-.43a.2.2,0,1,0,0,.39.2.2,0,1,0,0-.39Z"/><path class="cls-3" d="M29.62,14.27a.23.23,0,0,0,.46,0,.23.23,0,0,0-.46,0Z"/><path d="M29.85,14.51a.25.25,0,0,1-.25-.24.25.25,0,0,1,.5,0A.25.25,0,0,1,29.85,14.51Zm0-.43a.2.2,0,1,0,.21.19A.2.2,0,0,0,29.85,14.08Z"/><path class="cls-3" d="M30.31,14.29a.2.2,0,1,1-.2-.16A.18.18,0,0,1,30.31,14.29Z"/><path d="M30.11,14.47a.18.18,0,1,1,.22-.18A.2.2,0,0,1,30.11,14.47Zm0-.32a.14.14,0,1,0,.18.14A.16.16,0,0,0,30.11,14.15Z"/><path class="cls-3" d="M32,14.43s.11-.36.27-.3,0,.21,0,.21a.56.56,0,0,1-.17.14C32,14.52,32,14.43,32,14.43Z"/><path d="M32.08,14.51h0s0-.07,0-.07h0a.59.59,0,0,1,.2-.3.12.12,0,0,1,.1,0s.07,0,.08.08-.08.16-.09.17a.46.46,0,0,1-.17.13Zm0-.08a.06.06,0,0,0,0,0h0a.5.5,0,0,0,.16-.13s.09-.09.08-.13,0,0,0,0h-.07A.54.54,0,0,0,32.06,14.43Z"/><path class="cls-3" d="M32.21,14.52a.15.15,0,0,1-.3,0,.15.15,0,0,1,.3,0Z"/><path d="M32.06,14.69a.17.17,0,0,1-.17-.17.17.17,0,0,1,.34,0A.17.17,0,0,1,32.06,14.69Zm0-.29a.12.12,0,0,0-.13.12.13.13,0,0,0,.26,0A.12.12,0,0,0,32.06,14.4Z"/><circle class="cls-3" cx="31.81" cy="14.51" r="0.18"/><path d="M31.81,14.7a.2.2,0,1,1,.2-.19A.2.2,0,0,1,31.81,14.7Zm0-.35a.16.16,0,0,0-.16.16.16.16,0,0,0,.32,0A.16.16,0,0,0,31.81,14.35Z"/><path class="cls-3" d="M28.9,14.34a.15.15,0,0,0,.15.15.15.15,0,0,0,.14-.15.14.14,0,0,0-.14-.14A.15.15,0,0,0,28.9,14.34Z"/><path d="M29.05,14.51a.18.18,0,0,1-.17-.17.17.17,0,0,1,.17-.16.16.16,0,0,1,.16.16A.17.17,0,0,1,29.05,14.51Zm0-.29a.13.13,0,0,0-.13.12.13.13,0,0,0,.13.13.13.13,0,0,0,.12-.13A.13.13,0,0,0,29.05,14.22Z"/><path class="cls-3" d="M28.18,14.43s-.11-.36-.27-.3,0,.21,0,.21a.56.56,0,0,0,.17.14C28.2,14.52,28.18,14.43,28.18,14.43Z"/><path d="M28.14,14.51l-.05,0a.45.45,0,0,1-.18-.13s-.1-.1-.09-.17,0-.06.08-.08a.11.11,0,0,1,.1,0,.59.59,0,0,1,.2.3h0s0,.05,0,.07Zm-.2-.37h0a.08.08,0,0,0-.06,0s.05.11.08.13a.69.69,0,0,0,.16.13h.06s0,0,0,0-.07-.23-.18-.28Z"/><path class="cls-3" d="M28,14.52a.15.15,0,1,0,.3,0,.15.15,0,0,0-.3,0Z"/><path d="M28.16,14.69a.17.17,0,0,1-.17-.17.17.17,0,0,1,.34,0A.17.17,0,0,1,28.16,14.69Zm0-.29a.12.12,0,0,0-.13.12.13.13,0,0,0,.26,0A.12.12,0,0,0,28.16,14.4Z"/><path class="cls-3" d="M28.23,14.51a.18.18,0,0,0,.36,0,.18.18,0,0,0-.36,0Z"/><path d="M28.41,14.7a.2.2,0,1,1,.2-.19A.2.2,0,0,1,28.41,14.7Zm0-.35a.16.16,0,0,0-.16.16.16.16,0,0,0,.32,0A.16.16,0,0,0,28.41,14.35Z"/><circle class="cls-3" cx="31.36" cy="12.55" r="0.14"/><path d="M31.36,12.71a.16.16,0,0,1-.16-.16.17.17,0,0,1,.16-.17.18.18,0,0,1,.17.17A.17.17,0,0,1,31.36,12.71Zm0-.29a.12.12,0,0,0-.12.13.12.12,0,0,0,.12.12.12.12,0,0,0,.13-.12A.13.13,0,0,0,31.36,12.42Z"/><path class="cls-3" d="M30.42,12.26a.31.31,0,0,1-.62,0,.31.31,0,0,1,.62,0Z"/><path d="M30.11,12.57a.32.32,0,0,1-.33-.31.33.33,0,0,1,.66,0A.32.32,0,0,1,30.11,12.57Zm0-.57a.27.27,0,0,0-.29.26.29.29,0,0,0,.58,0A.27.27,0,0,0,30.11,12Z"/><path class="cls-3" d="M30.35,10.94a.23.23,0,0,1-.24.23.23.23,0,1,1,0-.45A.23.23,0,0,1,30.35,10.94Z"/><path d="M30.11,11.19a.25.25,0,1,1,0-.49.25.25,0,1,1,0,.49Zm0-.45a.21.21,0,1,0,0,.41.21.21,0,1,0,0-.41Z"/><rect x="30.07" y="9.08" width="0.09" height="0.22"/><path class="cls-3" d="M31.45,10.66s.12-.33.34-.41-.21.51-.21.51h-.1Z"/><path d="M31.59,10.78h-.13l0-.11h0s.12-.35.36-.43c0,0,.06,0,.08,0s-.2.43-.28.53Zm-.1,0h.08a1.33,1.33,0,0,0,.27-.48h0c-.2.06-.31.35-.33.4Z"/><path class="cls-3" d="M30.37,10.27c0,.11-.12.19-.26.19s-.25-.08-.25-.19a.23.23,0,0,1,.25-.19C30.25,10.08,30.37,10.17,30.37,10.27Z"/><path d="M30.11,10.48a.24.24,0,0,1-.27-.21.25.25,0,0,1,.27-.21c.15,0,.28.1.28.21S30.26,10.48,30.11,10.48Zm0-.38c-.13,0-.24.08-.24.17s.11.17.24.17.24-.07.24-.17S30.24,10.1,30.11,10.1Z"/><path class="cls-3" d="M31.5,10.71s.5-.13.19.16-.17,0-.17,0Z"/><path d="M31.5,11h0s0-.08,0-.12l0-.2h0c.06,0,.27-.06.31,0s0,.1-.11.18S31.53,11,31.5,11Zm0-.3,0,.17h0a.41.41,0,0,0,0,.08.57.57,0,0,0,.18-.13c.1-.1.09-.13.09-.13S31.63,10.7,31.52,10.72Z"/><path class="cls-3" d="M30.61,10.63a.2.2,0,0,1-.21.19.19.19,0,1,1,0-.38A.2.2,0,0,1,30.61,10.63Z"/><path d="M30.4,10.84a.21.21,0,1,1,0-.42.21.21,0,1,1,0,.42Zm0-.38a.18.18,0,0,0-.18.17.17.17,0,0,0,.18.17.17.17,0,0,0,.19-.17A.18.18,0,0,0,30.4,10.46Z"/><path d="M30.11,11.68c-.7,0-1.27-.41-1.27-.91a1.12,1.12,0,0,1,.93-.87v0c-.54.13-.9.53-.9.83,0,.48.55.87,1.23.87s1.23-.39,1.23-.87c0-.29-.37-.7-.9-.83v0c.55.14.93.57.93.87C31.38,11.27,30.81,11.68,30.11,11.68Z"/><path class="cls-3" d="M30.11,9.23s-.55.19-.12.43l.12,0,.12,0C30.66,9.42,30.11,9.23,30.11,9.23Z"/><path d="M30.23,9.68l-.12,0-.12,0h0c-.12-.06-.18-.13-.17-.21s.28-.25.29-.25h0s.28.1.3.25-.06.15-.18.21Zm-.12-.06.12,0q.15-.09.15-.18c0-.1-.19-.18-.27-.21s-.26.11-.26.21,0,.12.15.18Z"/><path class="cls-3" d="M29.61,10.63a.2.2,0,0,0,.21.19.19.19,0,1,0,0-.38A.2.2,0,0,0,29.61,10.63Z"/><path d="M29.82,10.84a.21.21,0,1,1,0-.42.21.21,0,1,1,0,.42Zm0-.38a.18.18,0,0,0-.19.17.17.17,0,0,0,.19.17.17.17,0,0,0,.18-.17A.18.18,0,0,0,29.82,10.46Z"/><polygon class="cls-3" points="30.95 10.76 30.82 10.98 31.01 11.07 31.19 11.09 31.19 10.99 31.19 10.92 30.99 10.74 30.95 10.76"/><path d="M31.21,11.11l-.2,0-.22-.1.14-.25.07,0,.21.19ZM31,11.05l.15,0v-.14L31,10.76h0l-.12.21Z"/><path class="cls-3" d="M30.44,9.87a.07.07,0,0,1,0,.05,1.65,1.65,0,0,0-.32,0,1.12,1.12,0,0,0-.32,0,.09.09,0,0,1,0-.05c0-.13.15-.23.33-.23S30.44,9.74,30.44,9.87Z"/><path d="M30.45,10h0a1.38,1.38,0,0,0-.64,0h0a.13.13,0,0,1,0-.06c0-.14.16-.25.35-.25s.35.11.35.25a.13.13,0,0,1,0,.06Zm-.34-.09a1.1,1.1,0,0,1,.31,0v0c0-.11-.14-.21-.31-.21s-.31.1-.31.21v0A1.1,1.1,0,0,1,30.11,9.86Z"/><path class="cls-3" d="M30.32,10.59a.21.21,0,1,1-.21-.19A.21.21,0,0,1,30.32,10.59Z"/><path d="M30.11,10.8a.22.22,0,0,1-.23-.21.23.23,0,0,1,.23-.21.22.22,0,0,1,.23.21A.22.22,0,0,1,30.11,10.8Zm0-.38a.18.18,0,1,0,.19.17A.19.19,0,0,0,30.11,10.42Z"/><ellipse class="cls-3" cx="30.36" cy="8.97" rx="0.18" ry="0.13"/><path d="M30.36,9.13a.18.18,0,0,1-.2-.16c0-.08.09-.15.2-.15s.21.07.21.15S30.48,9.13,30.36,9.13Zm0-.27c-.08,0-.16.05-.16.11s.08.12.16.12.17-.05.17-.12S30.45,8.86,30.36,8.86Z"/><ellipse class="cls-3" cx="29.86" cy="8.97" rx="0.18" ry="0.13"/><path d="M29.86,9.13a.18.18,0,0,1-.2-.16c0-.08.09-.15.2-.15s.2.07.2.15A.18.18,0,0,1,29.86,9.13Zm0-.27c-.09,0-.16.05-.16.11s.07.12.16.12S30,9,30,9,30,8.86,29.86,8.86Z"/><rect x="30.07" y="8.72" width="0.09" height="0.22"/><path class="cls-3" d="M30.24,8.62a.13.13,0,1,1-.13-.12A.13.13,0,0,1,30.24,8.62Z"/><path d="M30.11,8.76a.14.14,0,1,1,0-.28.14.14,0,1,1,0,.28Zm0-.24a.1.1,0,1,0,.11.1A.11.11,0,0,0,30.11,8.52Z"/><path class="cls-3" d="M31.19,10.92s.26,0,.3-.11.2.06.2.06V11l-.16.11-.31-.05-.13,0Z"/><path d="M31.54,11.17l-.32-.05-.16,0,.12-.17h0c.06,0,.25,0,.28-.1a.07.07,0,0,1,.05,0c.07,0,.17.08.18.09h0v.19Zm-.42-.12.11,0,.3,0,.14-.1v-.16s-.11-.08-.14-.07,0,0,0,0-.26.12-.31.12Z"/><path class="cls-3" d="M31.08,10.7a.12.12,0,0,1-.12.11.12.12,0,1,1,0-.23A.12.12,0,0,1,31.08,10.7Z"/><path d="M31,10.83a.14.14,0,1,1,.14-.13A.14.14,0,0,1,31,10.83Zm0-.23a.1.1,0,1,0,0,.19.1.1,0,0,0,.1-.09A.1.1,0,0,0,31,10.6Z"/><ellipse class="cls-3" cx="31.41" cy="10.73" rx="0.16" ry="0.15"/><path d="M31.41,10.89a.17.17,0,0,1-.17-.16.18.18,0,0,1,.17-.17.18.18,0,0,1,.18.17A.17.17,0,0,1,31.41,10.89Zm0-.29a.13.13,0,0,0-.13.13.12.12,0,0,0,.13.12.13.13,0,0,0,.14-.12A.13.13,0,0,0,31.41,10.6Z"/><path class="cls-3" d="M28.77,10.66s-.12-.33-.34-.41.21.51.21.51h.1Z"/><path d="M28.64,10.78h0c-.08-.1-.33-.45-.28-.53a.08.08,0,0,1,.08,0c.24.08.35.41.36.43h0l0,.11Zm-.25-.52h0s.11.28.26.48h.08l0-.06c0-.05-.13-.34-.33-.4Z"/><path class="cls-3" d="M28.72,10.71s-.5-.13-.19.16.17,0,.17,0Z"/><path d="M28.72,11s-.08,0-.2-.14-.13-.14-.11-.18.25,0,.31,0h0v.2s0,.1,0,.12Zm-.2-.32a.1.1,0,0,0-.07,0s0,0,.1.13a.49.49,0,0,0,.17.13.41.41,0,0,0,0-.08h0l0-.17Z"/><path class="cls-2" d="M30.52,21.3c0,.13.06.23.13.23s.14-.09.15-.22-.06-.23-.13-.24S30.53,21.17,30.52,21.3Z"/><path d="M30.65,21.55h0c-.09,0-.15-.11-.15-.25a.29.29,0,0,1,.05-.17.15.15,0,0,1,.12-.08c.09,0,.15.12.15.26a.42.42,0,0,1-.05.17A.13.13,0,0,1,30.65,21.55Zm0-.46a.09.09,0,0,0-.08.06.25.25,0,0,0-.05.15c0,.11.05.21.11.21s.06,0,.08-.05a.25.25,0,0,0,.05-.15c0-.12-.05-.21-.11-.22Z"/><path class="cls-2" d="M30.68,21.69c0,.13.05.24.13.24s.14-.1.14-.23-.05-.23-.13-.23S30.68,21.57,30.68,21.69Z"/><path d="M30.81,22h0c-.09,0-.16-.12-.15-.26a.34.34,0,0,1,.05-.17.13.13,0,0,1,.11-.07c.09,0,.16.11.15.25a.35.35,0,0,1,0,.18A.15.15,0,0,1,30.81,22Zm0-.46a.1.1,0,0,0-.08.05.37.37,0,0,0,0,.15c0,.12,0,.22.11.22a.09.09,0,0,0,.08-.06.24.24,0,0,0,0-.15c0-.11,0-.21-.11-.21Z"/><path class="cls-2" d="M30.82,22c0,.12.05.22.12.22s.13-.09.13-.21-.05-.21-.12-.21S30.82,21.92,30.82,22Z"/><path d="M30.94,22.27h0c-.09,0-.15-.11-.14-.24h0a.42.42,0,0,1,0-.16.14.14,0,0,1,.11-.06.13.13,0,0,1,.11.07.41.41,0,0,1,0,.16C31.09,22.17,31,22.27,30.94,22.27Zm-.1-.24c0,.11,0,.2.1.2h0c.06,0,.11-.08.11-.19a.32.32,0,0,0,0-.14s0,0-.07,0-.05,0-.07,0a.18.18,0,0,0,0,.13Z"/><path class="cls-2" d="M31,22.32c0,.12.05.22.12.22s.13-.09.13-.21,0-.21-.12-.22S31,22.2,31,22.32Z"/><path d="M31.11,22.56h0c-.05,0-.08,0-.11-.08a.38.38,0,0,1,0-.16c0-.13.07-.23.15-.23a.21.21,0,0,1,.14.24C31.26,22.46,31.19,22.56,31.11,22.56Zm0-.43c-.06,0-.11.09-.11.19h0a.26.26,0,0,0,0,.14s0,.06.07.06.11-.09.11-.19,0-.19-.1-.2Z"/><path class="cls-2" d="M31.14,22.63c0,.12.05.22.12.22s.13-.09.13-.21,0-.21-.11-.21S31.15,22.52,31.14,22.63Z"/><path d="M31.26,22.87h0a.11.11,0,0,1-.1-.08.27.27,0,0,1,0-.16c0-.13.07-.23.16-.22s.14.1.13.23S31.34,22.87,31.26,22.87Zm0-.43c-.05,0-.11.09-.11.19h0a.33.33,0,0,0,0,.15s0,0,.07,0,.11-.08.11-.19,0-.19-.1-.2Z"/><path class="cls-2" d="M31.32,22.9c0,.12,0,.22.08.24s.14-.07.17-.19,0-.22-.09-.23S31.34,22.79,31.32,22.9Z"/><path d="M31.42,23.16h0a.13.13,0,0,1-.09-.09.32.32,0,0,1,0-.17h0c0-.13.1-.22.18-.2a.12.12,0,0,1,.09.09.22.22,0,0,1,0,.16.3.3,0,0,1-.06.15A.14.14,0,0,1,31.42,23.16Zm0-.42c-.05,0-.11.07-.12.17h0a.33.33,0,0,0,0,.14.08.08,0,0,0,.15,0,.26.26,0,0,0,.06-.13.35.35,0,0,0,0-.15s0-.06-.06-.06Z"/><path class="cls-2" d="M31.47,23.17c0,.11,0,.22.09.23s.14-.07.16-.19,0-.22-.08-.23S31.49,23.05,31.47,23.17Z"/><path d="M31.57,23.42h0a.15.15,0,0,1-.1-.09.47.47,0,0,1,0-.17h0a.35.35,0,0,1,.07-.15.13.13,0,0,1,.12-.05.13.13,0,0,1,.09.09.29.29,0,0,1,0,.16C31.72,23.33,31.65,23.42,31.57,23.42Zm-.08-.25a.32.32,0,0,0,0,.14.14.14,0,0,0,.06.07c.06,0,.12-.07.14-.17a.25.25,0,0,0,0-.15s0-.06-.06-.06-.05,0-.08,0a.26.26,0,0,0-.06.13Z"/><path class="cls-2" d="M31.65,23.47c0,.12,0,.22.08.23s.14-.07.17-.19,0-.21-.09-.23S31.67,23.35,31.65,23.47Z"/><path d="M31.75,23.72h0a.13.13,0,0,1-.09-.09.29.29,0,0,1,0-.16h0a.3.3,0,0,1,.06-.15.14.14,0,0,1,.12-.06.12.12,0,0,1,.09.09.32.32,0,0,1,0,.17C31.89,23.64,31.82,23.72,31.75,23.72Zm-.08-.25a.38.38,0,0,0,0,.15s0,.06.07.06.12-.07.14-.17a.32.32,0,0,0,0-.14.14.14,0,0,0-.06-.07.12.12,0,0,0-.09,0,.39.39,0,0,0,0,.13Z"/><path class="cls-2" d="M31.85,23.66c0,.11,0,.22.09.23s.14-.07.16-.19,0-.22-.09-.23S31.87,23.54,31.85,23.66Z"/><path d="M32,23.91h0c-.08,0-.12-.13-.1-.25s.11-.22.19-.21.12.13.1.26S32,23.91,32,23.91Zm.05-.42c-.05,0-.11.08-.13.17s0,.2.07.21.12-.07.14-.17,0-.2-.07-.21Z"/><path class="cls-2" d="M32.05,23.94c0,.12,0,.22.09.23s.14-.07.16-.19,0-.21-.09-.23S32.07,23.82,32.05,23.94Z"/><path d="M32.15,24.19h0A.13.13,0,0,1,32,24.1a.42.42,0,0,1,0-.16.3.3,0,0,1,.07-.15.14.14,0,0,1,.12-.06.13.13,0,0,1,.09.09.32.32,0,0,1,0,.17C32.3,24.11,32.23,24.19,32.15,24.19Zm.05-.42a.13.13,0,0,0-.07,0,.26.26,0,0,0-.06.13.24.24,0,0,0,0,.15s0,.06.06.06.12-.07.14-.17a.22.22,0,0,0,0-.14.09.09,0,0,0-.06-.07Z"/><path class="cls-2" d="M32.26,24.15c0,.12,0,.22.08.23s.15-.07.17-.18,0-.22-.09-.24S32.28,24,32.26,24.15Z"/><path d="M32.36,24.4h0a.13.13,0,0,1-.09-.09.29.29,0,0,1,0-.16h0a.24.24,0,0,1,.07-.15.12.12,0,0,1,.11-.06.12.12,0,0,1,.09.09.32.32,0,0,1,0,.17C32.5,24.32,32.43,24.4,32.36,24.4Zm-.08-.25a.38.38,0,0,0,0,.15s0,.06.07.06.12-.07.14-.17a.32.32,0,0,0,0-.14.14.14,0,0,0-.06-.07.12.12,0,0,0-.09,0,.39.39,0,0,0,0,.13Z"/><path class="cls-2" d="M32.46,24.31c0,.11,0,.22,0,.24s.15,0,.19-.15,0-.22,0-.25S32.5,24.2,32.46,24.31Z"/><path d="M32.53,24.57h0a.14.14,0,0,1-.08-.11.47.47,0,0,1,0-.16h0a.39.39,0,0,1,.1-.14.14.14,0,0,1,.12,0,.15.15,0,0,1,.08.11.34.34,0,0,1-.12.3A.16.16,0,0,1,32.53,24.57Zm.1-.4-.07,0a.36.36,0,0,0-.08.12h0a.39.39,0,0,0,0,.15.1.1,0,0,0,0,.07.1.1,0,0,0,.09,0,.36.36,0,0,0,.08-.12.24.24,0,0,0,0-.14.12.12,0,0,0-.05-.08Z"/><path class="cls-3" d="M30.25,9a.13.13,0,0,1-.14.13A.14.14,0,0,1,30,9a.13.13,0,0,1,.14-.12A.13.13,0,0,1,30.25,9Z"/><path d="M30.11,9.17A.16.16,0,0,1,30,9a.16.16,0,0,1,.32,0A.16.16,0,0,1,30.11,9.17Zm0-.25A.11.11,0,0,0,30,9a.12.12,0,0,0,.24,0A.11.11,0,0,0,30.11,8.92Z"/><polygon class="cls-3" points="29.27 10.76 29.41 10.98 29.21 11.07 29.03 11.09 29.03 10.99 29.03 10.92 29.23 10.74 29.27 10.76"/><path d="M29,11.11v-.2l.22-.19.06,0,.14.25-.22.1Zm0-.18v.14l.15,0,.18-.07-.12-.21h0Z"/><path class="cls-3" d="M29,10.92s-.26,0-.3-.11-.2.06-.2.06V11l.16.11L29,11.1l.13,0Z"/><path d="M28.68,11.17l-.17-.12v-.19h0s.11-.1.18-.09a.07.07,0,0,1,.05,0c0,.07.22.1.29.1h0l.11.17-.16,0ZM28.55,11l.14.1.3-.05.11,0L29,10.94c-.05,0-.26,0-.31-.12s0,0,0,0-.1,0-.14.07Z"/><path class="cls-3" d="M29.14,10.7a.12.12,0,0,0,.13.11.12.12,0,0,0,.12-.11.12.12,0,0,0-.12-.12A.12.12,0,0,0,29.14,10.7Z"/><path d="M29.27,10.83a.14.14,0,1,1,.14-.13A.14.14,0,0,1,29.27,10.83Zm0-.23a.1.1,0,1,0,0,.19.1.1,0,0,0,.1-.09A.1.1,0,0,0,29.27,10.6Z"/><path class="cls-3" d="M28.65,10.73a.15.15,0,0,0,.16.14.15.15,0,0,0,.15-.14.15.15,0,0,0-.15-.15A.16.16,0,0,0,28.65,10.73Z"/><path d="M28.81,10.89a.17.17,0,0,1-.18-.16.18.18,0,0,1,.18-.17.18.18,0,0,1,.17.17A.17.17,0,0,1,28.81,10.89Zm0-.29a.13.13,0,0,0-.14.13.13.13,0,0,0,.14.12.12.12,0,0,0,.13-.12A.13.13,0,0,0,28.81,10.6Z"/><path class="cls-3" d="M30.7,12.59a.26.26,0,0,1-.26.26.26.26,0,0,1-.26-.26.26.26,0,0,1,.26-.26A.25.25,0,0,1,30.7,12.59Z"/><path d="M30.44,12.87a.29.29,0,0,1-.28-.28.28.28,0,0,1,.28-.28.27.27,0,0,1,.28.28A.28.28,0,0,1,30.44,12.87Zm0-.52a.24.24,0,0,0-.24.24.24.24,0,1,0,.48,0A.24.24,0,0,0,30.44,12.35Z"/><path class="cls-3" d="M29.52,12.59a.26.26,0,0,0,.52,0,.26.26,0,0,0-.52,0Z"/><path d="M29.78,12.87a.29.29,0,0,1-.28-.28.28.28,0,0,1,.56,0A.29.29,0,0,1,29.78,12.87Zm0-.52a.24.24,0,0,0-.24.24.24.24,0,1,0,.48,0A.24.24,0,0,0,29.78,12.35Z"/><ellipse class="cls-3" cx="30.11" cy="12.55" rx="0.22" ry="0.2"/><path d="M30.11,12.77a.23.23,0,1,1,.24-.22A.23.23,0,0,1,30.11,12.77Zm0-.41a.2.2,0,0,0-.2.19.2.2,0,0,0,.4,0A.2.2,0,0,0,30.11,12.36Z"/><path class="cls-3" d="M28.73,12.55a.14.14,0,0,0,.14.14.15.15,0,0,0,.15-.14.15.15,0,0,0-.15-.15A.15.15,0,0,0,28.73,12.55Z"/><path d="M28.87,12.71a.16.16,0,0,1-.16-.16.17.17,0,0,1,.16-.17.18.18,0,0,1,.17.17A.17.17,0,0,1,28.87,12.71Zm0-.29a.12.12,0,0,0-.12.13.12.12,0,0,0,.12.12.12.12,0,0,0,.13-.12A.13.13,0,0,0,28.87,12.42Z"/><path class="cls-3" d="M30.11,10.92s-2,0-1.67.48l.31,0,.72-.06.49-.08.16,0,.14,0,.49.08.72.06.31,0C32.12,10.92,30.11,10.92,30.11,10.92Z"/><path d="M28.75,11.44l-.32,0h0a.17.17,0,0,1,0-.18c.17-.33,1.65-.33,1.71-.33h0c.06,0,1.54,0,1.71.33a.17.17,0,0,1,0,.18h0l-.32,0-.72,0-.49-.08-.14,0-.16,0-.48.08Zm-.3-.06.3,0,.72-.06.49-.08.16,0,.15,0,.48.08.72.06.3,0a.13.13,0,0,0,0-.13c-.16-.31-1.66-.31-1.68-.31s-1.52,0-1.68.31A.13.13,0,0,0,28.45,11.38Z"/><path class="cls-2" d="M29.23,19.66c0,.1,0,.2.08.2s.12-.07.13-.18,0-.2-.08-.21S29.24,19.55,29.23,19.66Z"/><path d="M29.32,19.88h0s-.06,0-.08-.07a.41.41,0,0,1,0-.16c0-.12.08-.2.15-.2s.11.11.1.23S29.39,19.88,29.32,19.88Zm0-.39s-.09.07-.1.17h0a.53.53,0,0,0,0,.13s0,.05.06.05.09-.06.1-.16,0-.18-.06-.19Z"/><path class="cls-3" d="M31.81,11.42a4.36,4.36,0,0,0-1.7-.25,4.36,4.36,0,0,0-1.7.25.31.31,0,0,0,0,.44l.28,0,.77-.16.56-.05.13,0,.11,0,.56.05.77.16.28,0A.31.31,0,0,0,31.81,11.42Z"/><path d="M31.56,11.9l-.78-.16-.55-.06-.11,0-.13,0-.56.06-.77.16h0l-.29,0h0a.33.33,0,0,1,0-.47,4.49,4.49,0,0,1,1.71-.25,4.46,4.46,0,0,1,1.71.25.33.33,0,0,1,0,.47h0Zm-1.44-.28.11,0,.56,0,.77.16.27,0a.29.29,0,0,0,0-.41,4.65,4.65,0,0,0-1.69-.24,4.65,4.65,0,0,0-1.69.24.29.29,0,0,0,0,.41l.27,0,.77-.16.56,0Z"/><path class="cls-2" d="M30.27,21.12c-.09.09-.13.2-.08.25s.16,0,.25-.08.12-.2.08-.25S30.36,21,30.27,21.12Z"/><path d="M30.25,21.41a.08.08,0,0,1-.07,0c-.06-.05,0-.18.07-.28h0c.1-.1.22-.13.28-.07s0,.18-.08.28a.31.31,0,0,1-.14.09Zm.21-.37a.28.28,0,0,0-.18.09h0c-.08.08-.12.18-.08.22a.07.07,0,0,0,.09,0,.29.29,0,0,0,.14-.08c.08-.08.11-.18.07-.22Z"/><path class="cls-2" d="M30.31,21.38c-.09.09-.12.2-.07.25s.16,0,.25-.07.12-.21.07-.26S30.4,21.29,30.31,21.38Z"/><path d="M30.3,21.67a.11.11,0,0,1-.08,0s0-.07,0-.12a.36.36,0,0,1,.1-.15h0a.36.36,0,0,1,.15-.1.14.14,0,0,1,.13,0,.18.18,0,0,1,0,.13.44.44,0,0,1-.1.15A.29.29,0,0,1,30.3,21.67Zm0-.28a.28.28,0,0,0-.09.14s0,.07,0,.09.14,0,.22-.08a.51.51,0,0,0,.09-.13s0-.07,0-.09-.05,0-.09,0a.26.26,0,0,0-.13.08Z"/><path class="cls-2" d="M30.3,21.7c-.08.08-.11.18-.07.22s.15,0,.23-.06.11-.19.06-.23S30.38,21.62,30.3,21.7Z"/><path d="M30.29,22l-.07,0a.1.1,0,0,1,0-.12.28.28,0,0,1,.09-.14h0c.09-.09.2-.12.25-.06s0,.16-.07.25a.51.51,0,0,1-.13.09Zm.18-.33a.3.3,0,0,0-.16.08h0a.37.37,0,0,0-.07.12s0,.06,0,.08a.08.08,0,0,0,.07,0,.23.23,0,0,0,.12-.08c.08-.08.1-.16.07-.2Z"/><path class="cls-2" d="M30.29,22c-.08.08-.11.18-.07.22s.15,0,.23-.07.11-.18.07-.22S30.37,21.91,30.29,22Z"/><path d="M30.28,22.26a.09.09,0,0,1-.07,0s0-.06,0-.11a.42.42,0,0,1,.09-.14h0a.31.31,0,0,1,.13-.08.12.12,0,0,1,.12,0,.12.12,0,0,1,0,.12.24.24,0,0,1-.09.14.31.31,0,0,1-.13.08Zm.18-.33h0a.38.38,0,0,0-.11.08h0a.28.28,0,0,0-.08.12.08.08,0,0,0,0,.08.07.07,0,0,0,.08,0,.25.25,0,0,0,.12-.07.37.37,0,0,0,.07-.12.08.08,0,0,0,0-.08Z"/><path class="cls-2" d="M30.31,22.27c-.09.07-.13.17-.09.22s.14,0,.23,0,.13-.17.09-.22S30.4,22.19,30.31,22.27Z"/><path d="M30.28,22.53a.11.11,0,0,1-.08,0,.13.13,0,0,1,0-.12.28.28,0,0,1,.09-.13.34.34,0,0,1,.15-.07.1.1,0,0,1,.11,0,.1.1,0,0,1,0,.12.28.28,0,0,1-.1.12.29.29,0,0,1-.14.08Zm.19-.31h0a.34.34,0,0,0-.12.06h0a.44.44,0,0,0-.09.11s0,.07,0,.08a.11.11,0,0,0,.08,0,.28.28,0,0,0,.13-.07.21.21,0,0,0,.08-.11.06.06,0,0,0,0-.08Z"/><path class="cls-2" d="M30.31,22.54c-.09.07-.13.17-.09.22s.14,0,.23-.05.13-.17.09-.21S30.4,22.47,30.31,22.54Z"/><path d="M30.28,22.8a.11.11,0,0,1-.08,0,.13.13,0,0,1,0-.12.26.26,0,0,1,.09-.12.37.37,0,0,1,.15-.08.1.1,0,0,1,.11,0,.1.1,0,0,1,0,.12.31.31,0,0,1-.1.13.27.27,0,0,1-.14.07Zm.19-.31h0a.25.25,0,0,0-.12.07h0a.31.31,0,0,0-.09.11.11.11,0,0,0,0,.08.11.11,0,0,0,.08,0,.38.38,0,0,0,.13-.06.26.26,0,0,0,.08-.11s0-.07,0-.08A.06.06,0,0,0,30.47,22.49Z"/><path class="cls-2" d="M30.31,22.83c-.09.07-.13.17-.09.21s.14,0,.23,0,.13-.17.09-.22S30.4,22.75,30.31,22.83Z"/><path d="M30.28,23.09a.11.11,0,0,1-.08,0c0-.06,0-.17.09-.25h0a.34.34,0,0,1,.15-.07.1.1,0,0,1,.11,0,.1.1,0,0,1,0,.12.28.28,0,0,1-.1.12A.31.31,0,0,1,30.28,23.09Zm.19-.32h0a.34.34,0,0,0-.12.06h0c-.09.07-.12.16-.09.19s.12,0,.21-.05a.21.21,0,0,0,.08-.11.06.06,0,0,0,0-.08A.06.06,0,0,0,30.47,22.77Z"/><path class="cls-2" d="M30.27,23.14c-.08.07-.12.17-.09.22s.15,0,.24-.05.12-.17.08-.22S30.36,23.07,30.27,23.14Z"/><path d="M30.25,23.4a.1.1,0,0,1-.08,0c-.05-.06,0-.17.09-.25h0c.1-.08.21-.1.26,0a.12.12,0,0,1,0,.12.38.38,0,0,1-.1.12.41.41,0,0,1-.14.08Zm.19-.31a.26.26,0,0,0-.15.06h0c-.09.07-.12.16-.09.19s0,0,.08,0a.25.25,0,0,0,.12-.07.31.31,0,0,0,.09-.11.11.11,0,0,0,0-.08Z"/><path class="cls-2" d="M30.28,23.43c-.09.08-.12.18-.07.24s.15,0,.24,0,.12-.18.08-.24A.2.2,0,0,0,30.28,23.43Z"/><path d="M30.29,23.72a.12.12,0,0,1-.1,0c-.05-.07,0-.18.08-.26h0c.1-.08.22-.1.27,0a.14.14,0,0,1,0,.13.31.31,0,0,1-.1.13.3.3,0,0,1-.15.07Zm0-.27c-.08.06-.12.16-.08.2s.05,0,.09,0a.38.38,0,0,0,.13-.06.21.21,0,0,0,.08-.11.11.11,0,0,0,0-.1.16.16,0,0,0-.21,0Z"/><path class="cls-2" d="M30.3,23.76c-.09.07-.13.18-.08.23s.15,0,.24,0,.13-.18.08-.23S30.38,23.69,30.3,23.76Z"/><path d="M30.3,24.05a.18.18,0,0,1-.1,0c-.05-.07,0-.18.08-.27h0c.1-.08.22-.09.27,0a.1.1,0,0,1,0,.12.31.31,0,0,1-.09.14.51.51,0,0,1-.15.07Zm0-.28c-.08.07-.11.16-.08.21a.12.12,0,0,0,.09,0,.31.31,0,0,0,.13-.06.28.28,0,0,0,.08-.12.07.07,0,0,0,0-.09s-.13,0-.21,0Z"/><path class="cls-2" d="M30.3,24.09c-.09.08-.13.18-.08.24s.15,0,.24,0,.13-.18.08-.24A.19.19,0,0,0,30.3,24.09Z"/><path d="M30.3,24.38a.13.13,0,0,1-.1,0c-.05-.07,0-.18.08-.26h0c.1-.08.22-.1.27,0a.12.12,0,0,1,0,.13.28.28,0,0,1-.09.13.34.34,0,0,1-.15.07Zm0-.27c-.08.06-.11.16-.08.2s.05,0,.09,0a.31.31,0,0,0,.13-.06.21.21,0,0,0,.08-.11.09.09,0,0,0,0-.1s-.13,0-.21,0Z"/><path class="cls-2" d="M30.28,24.44c-.09.07-.12.18-.08.23s.16,0,.25,0,.12-.18.07-.23S30.37,24.37,30.28,24.44Z"/><path d="M30.29,24.73a.15.15,0,0,1-.1,0,.21.21,0,0,1,.08-.27h0c.1-.08.22-.09.27,0a.12.12,0,0,1,0,.12.33.33,0,0,1-.1.14.41.41,0,0,1-.15.07Zm0-.28c-.07.07-.11.16-.07.21a.12.12,0,0,0,.09,0,.38.38,0,0,0,.13-.06.42.42,0,0,0,.08-.12.09.09,0,0,0,0-.09c0-.05-.14,0-.22,0Z"/><path class="cls-2" d="M30.28,24.77c-.09.08-.12.18-.08.24a.2.2,0,0,0,.25,0c.09-.08.12-.18.07-.24S30.37,24.7,30.28,24.77Z"/><path d="M30.29,25.06a.12.12,0,0,1-.1,0c-.05-.07,0-.18.08-.26a.3.3,0,0,1,.15-.07.13.13,0,0,1,.12,0,.14.14,0,0,1,0,.13.31.31,0,0,1-.1.13.3.3,0,0,1-.15.07Zm.15-.33h0a.19.19,0,0,0-.13.06h0c-.07.06-.11.16-.07.2s.05,0,.09,0a.38.38,0,0,0,.13-.06.28.28,0,0,0,.08-.11.11.11,0,0,0,0-.1Z"/><path class="cls-2" d="M30.28,25.09c-.09.08-.12.18-.08.24a.2.2,0,0,0,.25,0c.09-.08.12-.18.07-.24S30.37,25,30.28,25.09Z"/><path d="M30.29,25.38a.12.12,0,0,1-.1,0c-.05-.07,0-.18.08-.26h0c.1-.08.22-.1.27,0a.14.14,0,0,1,0,.13.31.31,0,0,1-.1.13.3.3,0,0,1-.15.07Zm0-.27c-.07.06-.11.16-.07.2a.08.08,0,0,0,.09,0,.38.38,0,0,0,.13-.06.28.28,0,0,0,.08-.11s0-.07,0-.09-.14,0-.22,0Z"/><path class="cls-2" d="M30.28,25.42c-.09.07-.12.18-.07.23s.15.05.24,0,.12-.17.08-.23S30.37,25.35,30.28,25.42Z"/><path d="M30.29,25.71a.12.12,0,0,1-.1,0c-.05-.07,0-.18.08-.26h0c.1-.09.22-.1.27,0s0,.18-.08.26A.25.25,0,0,1,30.29,25.71Zm0-.27c-.07.06-.11.16-.07.2s.14,0,.22,0,.11-.16.07-.21-.14,0-.22,0Z"/><path class="cls-2" d="M30.28,25.75c-.09.07-.13.18-.08.23s.16,0,.24,0,.13-.18.08-.23S30.37,25.67,30.28,25.75Z"/><path d="M30.28,26a.11.11,0,0,1-.09-.05.12.12,0,0,1,0-.13.51.51,0,0,1,.09-.13.22.22,0,0,1,.28,0,.15.15,0,0,1,0,.13.31.31,0,0,1-.09.14.32.32,0,0,1-.15.06Zm.16-.34a.24.24,0,0,0-.15.06h0a.28.28,0,0,0-.08.12.09.09,0,0,0,0,.09.07.07,0,0,0,.08,0,.21.21,0,0,0,.13,0,.28.28,0,0,0,.08-.12.09.09,0,0,0,0-.09A.09.09,0,0,0,30.44,25.7Z"/><path class="cls-2" d="M30.27,26.09c-.09.08-.13.18-.08.24s.15,0,.24,0,.13-.18.08-.24A.19.19,0,0,0,30.27,26.09Z"/><path d="M30.27,26.38a.13.13,0,0,1-.1,0c-.05-.07,0-.18.08-.26A.26.26,0,0,1,30.4,26a.15.15,0,0,1,.13,0,.14.14,0,0,1,0,.13.28.28,0,0,1-.09.13.34.34,0,0,1-.15.07Zm.16-.33h0a.18.18,0,0,0-.13.06h0c-.08.06-.11.16-.08.2a.12.12,0,0,0,.09,0,.31.31,0,0,0,.13-.06.21.21,0,0,0,.08-.11.09.09,0,0,0,0-.1A.08.08,0,0,0,30.43,26.05Z"/><path class="cls-2" d="M30.28,26.4c-.09.08-.12.18-.08.24a.2.2,0,0,0,.25,0c.09-.08.12-.18.07-.24S30.37,26.33,30.28,26.4Z"/><path d="M30.29,26.69a.12.12,0,0,1-.1,0c-.05-.07,0-.18.08-.26a.3.3,0,0,1,.15-.07.13.13,0,0,1,.12,0,.14.14,0,0,1,0,.13.31.31,0,0,1-.1.13.3.3,0,0,1-.15.07Zm.15-.33h0a.25.25,0,0,0-.13.06h0c-.07.06-.11.16-.07.2a.08.08,0,0,0,.09,0,.25.25,0,0,0,.13-.06.28.28,0,0,0,.08-.11s0-.07,0-.09A.09.09,0,0,0,30.44,26.36Z"/><path class="cls-2" d="M30.28,26.72c-.09.07-.12.18-.07.23s.15.05.24,0,.12-.17.08-.23S30.37,26.65,30.28,26.72Z"/><path d="M30.29,27a.15.15,0,0,1-.1,0c-.05-.07,0-.18.08-.27h0a.28.28,0,0,1,.15-.06.11.11,0,0,1,.12,0c.05.06,0,.18-.08.26A.31.31,0,0,1,30.29,27Zm0-.27c-.07.06-.11.15-.07.2s.14,0,.22,0,.11-.16.07-.21a.09.09,0,0,0-.09,0,.19.19,0,0,0-.13.06Z"/><path class="cls-2" d="M30.28,27.05c-.09.08-.12.18-.08.24a.2.2,0,0,0,.25,0c.09-.08.12-.18.07-.24S30.37,27,30.28,27.05Z"/><path d="M30.29,27.34a.12.12,0,0,1-.1,0c-.05-.06,0-.18.08-.26a.3.3,0,0,1,.15-.07.13.13,0,0,1,.12,0,.14.14,0,0,1,0,.13.31.31,0,0,1-.1.13.3.3,0,0,1-.15.07Zm.15-.33h0a.38.38,0,0,0-.13.06h0c-.07.06-.11.16-.07.21a.09.09,0,0,0,.09,0,.25.25,0,0,0,.13-.06.28.28,0,0,0,.08-.11s0-.07,0-.09A.09.09,0,0,0,30.44,27Z"/><path class="cls-2" d="M30.27,27.39c-.11.09-.15.21-.09.28s.18,0,.28-.05.15-.2.1-.27S30.37,27.31,30.27,27.39Z"/><path d="M30.27,27.72a.12.12,0,0,1-.11,0c-.06-.08,0-.21.1-.3s.25-.12.31,0,0,.2-.1.3a.38.38,0,0,1-.17.08Zm.19-.39a.31.31,0,0,0-.18.08c-.09.08-.13.19-.09.24a.1.1,0,0,0,.11,0,.34.34,0,0,0,.15-.07c.09-.08.14-.19.09-.25A.1.1,0,0,0,30.46,27.33Z"/><path class="cls-3" d="M30.11,11.56c-2.06,0-2.05.68-2.05.68l.06.13a2.71,2.71,0,0,1,2-.59,2.64,2.64,0,0,1,2,.59l.06-.13S32.17,11.56,30.11,11.56Z"/><path d="M32.1,12.41v0a2.63,2.63,0,0,0-2-.59,2.63,2.63,0,0,0-2,.59l0,0L28,12.24a.41.41,0,0,1,.13-.25c.2-.21.7-.45,1.94-.45s1.74.24,1.94.45a.41.41,0,0,1,.13.25h0Zm-4-.17.05.1a2.7,2.7,0,0,1,2-.58,2.67,2.67,0,0,1,2,.58l0-.1A.34.34,0,0,0,32,12c-.2-.2-.69-.44-1.91-.44s-1.71.24-1.91.44A.34.34,0,0,0,28.08,12.24Z"/><path class="cls-3" d="M32.06,12.68c0-.1-.07-.51.33-.51,0,0,.15.05,0,.2s-.19.25,0,.34.1.24,0,.26S32.06,12.77,32.06,12.68Z"/><path d="M32.34,13a.22.22,0,0,1-.13-.06.43.43,0,0,1-.17-.25v0a.52.52,0,0,1,.09-.4.33.33,0,0,1,.26-.1.11.11,0,0,1,.1.06s0,.1-.07.18-.13.16-.12.21a.11.11,0,0,0,.07.09.21.21,0,0,1,.1.19.14.14,0,0,1-.11.11Zm0-.8a.29.29,0,0,0-.23.09.46.46,0,0,0-.08.36v0a.42.42,0,0,0,.16.22.15.15,0,0,0,.11,0,.11.11,0,0,0,.08-.08.14.14,0,0,0-.08-.14q-.09-.06-.09-.12c0-.07,0-.14.13-.25s.08-.11.06-.14A.07.07,0,0,0,32.39,12.19Z"/><ellipse class="cls-3" cx="31.97" cy="12.82" rx="0.22" ry="0.2"/><path d="M32,13a.22.22,0,1,1,.24-.22A.23.23,0,0,1,32,13Zm0-.4a.18.18,0,1,0,.2.18A.19.19,0,0,0,32,12.64Z"/><path class="cls-3" d="M28.18,12.68c0-.1.07-.51-.34-.51-.05,0-.15.05,0,.2s.18.25,0,.34-.1.24,0,.26S28.17,12.77,28.18,12.68Z"/><path d="M27.89,13h0a.14.14,0,0,1-.1-.11.18.18,0,0,1,.09-.19.12.12,0,0,0,.08-.09s0-.11-.13-.21-.08-.14-.06-.18a.1.1,0,0,1,.09-.06.33.33,0,0,1,.27.1.57.57,0,0,1,.09.4v0h0a.43.43,0,0,1-.17.25A.2.2,0,0,1,27.89,13Zm-.05-.8a.07.07,0,0,0-.06,0s0,.08.06.14.14.18.14.25a.21.21,0,0,1-.1.12.14.14,0,0,0-.07.14.08.08,0,0,0,.07.08.19.19,0,0,0,.12,0,.49.49,0,0,0,.16-.22h0v0a.5.5,0,0,0-.08-.36A.3.3,0,0,0,27.84,12.19Z"/><polygon class="cls-5" points="24.67 17.23 24.89 17.41 25.15 17.24 25.52 17.25 25.68 17 25.4 16.77 24.92 16.52 24.63 16.62 24.35 16.81 24.21 17.02 24.24 17.27 24.44 17.32 24.67 17.23"/><path d="M24.89,17.43l-.22-.17-.23.08-.22-.05,0-.27.15-.23.29-.19.29-.1.49.26.29.24-.17.26h-.37Zm-.22-.22.22.17.26-.16h.36l.14-.22-.27-.22-.46-.25-.28.1-.27.18-.14.21,0,.23.18,0Z"/><path class="cls-3" d="M32.58,23a.6.6,0,0,0,.79-.16c.25-.27.3-.62.11-.8s-.53-.1-.78.17A.59.59,0,0,0,32.58,23Z"/><path d="M32.84,23.08a.42.42,0,0,1-.27-.09h0a.62.62,0,0,1,.12-.83.51.51,0,1,1,.69.66A.77.77,0,0,1,32.84,23.08ZM32.6,23c.17.16.51.09.75-.17s.3-.6.12-.76-.52-.09-.76.16-.29.6-.11.77Z"/><polygon class="cls-5" points="24.66 17.29 24.66 17.82 24.34 18.04 23.43 17.34 23.43 16.75 23.84 16.75 24.42 17.23 24.66 17.29"/><path d="M24.34,18.06l-.93-.71v-.62h.44l.58.48.25.06v.56Zm-.9-.73.9.68.3-.21v-.5l-.23-.06-.58-.47h-.39Z"/><polygon class="cls-5" points="26.3 18.26 25.43 19.03 24.72 18.4 24.74 17.88 25.92 17.8 26.18 17.48 26.54 17.79 26.3 18.26"/><path d="M25.43,19.06l-.73-.65,0-.55,1.19-.08.27-.33.38.33-.25.49Zm-.69-.67.69.61.85-.75.23-.46-.32-.28-.26.31-1.17.08Z"/><polygon class="cls-5" points="24.21 15.95 24.21 16.57 24.76 16.22 24.46 15.95 24.21 15.95"/><path d="M24.19,16.6v-.67h.27l.33.3Zm0-.63v.56l.5-.31L24.45,16Z"/><polygon class="cls-5" points="25.16 17.27 25.16 17.82 25.51 17.74 25.85 17.27 25.44 17.29 25.16 17.27"/><path d="M25.14,17.84v-.59l.31,0,.44,0-.37.5Zm0-.55v.5l.33-.07.31-.43-.36,0Z"/><path class="cls-3" d="M24.32,14.37a3,3,0,0,1-.53-.25l-.11.08.35.67.34-.4Z"/><path d="M24,14.9l-.37-.7.13-.11h0a2.81,2.81,0,0,0,.52.25h0l.06.12Zm-.32-.69.33.62.31-.37-.05-.08a2.12,2.12,0,0,1-.5-.24Z"/><path class="cls-3" d="M24.87,14.68s-.14-.78-.73-.16-.05.78.17.71S24.87,14.68,24.87,14.68Z"/><path d="M24.21,15.27a.36.36,0,0,1-.32-.15c-.06-.1-.07-.29.24-.61s.35-.28.48-.24.27.39.27.41h0s-.33.5-.56.56Zm.33-1a.61.61,0,0,0-.39.24c-.28.3-.28.47-.23.56a.39.39,0,0,0,.39.12c.2-.06.49-.48.53-.54s-.07-.32-.24-.37Z"/><polygon class="cls-5" points="26.34 17.7 25.46 18.46 24.74 17.88 24.97 17.57 25.17 17.74 25.42 17.5 25.16 17.27 25.44 17.06 25.12 16.77 24.89 16.98 24.68 16.8 24.41 17.07 24.66 17.29 24.35 17.55 23.43 16.75 23.82 16.32 24.07 16.56 24.46 16.2 24.21 15.95 24.63 15.47 25.52 16.04 26.22 16.66 26.41 16.89 26.52 17.46 26.34 17.7"/><path d="M25.46,18.49l-.75-.61.25-.33.21.16.22-.21-.27-.23.29-.21-.29-.27-.23.22-.21-.18-.24.24.25.21-.34.29-1-.82.42-.46.25.25.36-.34L24.18,16l.44-.5.91.57.7.62.2.24.11.58-.19.25Zm-.69-.61.69.56.87-.76.17-.23-.1-.56-.2-.22-.7-.62-.87-.55-.4.45.26.25-.42.39-.25-.24-.37.4.9.77.28-.24-.25-.21.3-.3.21.18.23-.21.35.32-.28.21.26.22-.28.27L25,17.6Z"/><path class="cls-5" d="M24.87,14.68l1.18,1,.38.34,4.76,4.16.24-.23a13.54,13.54,0,0,0,.94,1c.24.18,1.08.81.57,1.32s-.83.21-1,0l-.73-.67c-.19-.18-.69-.67-.81-.65l.23-.25-5.42-4.73-.45-.39-.41-.36A.49.49,0,0,1,24.87,14.68Z"/><path d="M32.4,22.63a.75.75,0,0,1-.49-.25h0l-.33-.3-.41-.37-.07-.06a2.92,2.92,0,0,0-.72-.58h0s0,0,0,0l.22-.23-6.26-5.47h0a.61.61,0,0,1,.08-.47.56.56,0,0,1,.47-.18h0l6.31,5.52.23-.22h0a11.8,11.8,0,0,0,.94,1h0c.19.15.7.54.72.94a.51.51,0,0,1-.16.41A.84.84,0,0,1,32.4,22.63Zm-2-1.61a3.64,3.64,0,0,1,.71.59l.07.06.4.37.34.3h0c.19.17.49.45,1,0a.47.47,0,0,0,.15-.37c0-.39-.52-.77-.7-.91l0,0a11.51,11.51,0,0,1-.93-1l-.23.22h0L24.86,14.7a.53.53,0,0,0-.44.17.57.57,0,0,0-.07.43l6.28,5.48h0v0Z"/><path class="cls-1" d="M25.37,13.87l.51.78a2.09,2.09,0,0,1,.27-.2,1.18,1.18,0,0,1,.19-.11,1.15,1.15,0,0,1,.31-.11.78.78,0,0,1,.22,0l.05.12a.82.82,0,0,1,0,.48,5.44,5.44,0,0,1-.31.79c-.05.13-.1.24-.14.32l-.06.15s-1,2.64.89,3.1v-.41l-.4-.26-.1-.24a2.53,2.53,0,0,1,.45-1.72l.11-.22c0-.1.09-.2.12-.3a4.43,4.43,0,0,0,.29-1.39c0-.19,0-.29,0-.29a.45.45,0,0,0,0-.08,1.16,1.16,0,0,0-1.26-.88h0a1.28,1.28,0,0,0-.28,0,1.81,1.81,0,0,0-.38.12,1.49,1.49,0,0,0-.24.14A1.07,1.07,0,0,0,25.37,13.87Z"/><path d="M27.37,19.19h0a1.43,1.43,0,0,1-1-.73,3.45,3.45,0,0,1,.08-2.4,1.19,1.19,0,0,1,.06-.14l.15-.33a7.82,7.82,0,0,0,.3-.78.79.79,0,0,0-.05-.47l0-.11a.63.63,0,0,0-.19,0,1.28,1.28,0,0,0-.31.11l-.19.1a2.78,2.78,0,0,0-.26.2l0,0-.53-.81h0a.93.93,0,0,1,.23-.21,1.48,1.48,0,0,1,.25-.14,2,2,0,0,1,.37-.12l.29,0h0a1.18,1.18,0,0,1,1.28.89.45.45,0,0,1,0,.08s0,.12,0,.3a4.33,4.33,0,0,1-.29,1.4c0,.1-.08.2-.13.3l-.1.22a2.46,2.46,0,0,0-.45,1.7l.1.23.4.27Zm-.5-5h0a.87.87,0,0,1,.06.13.85.85,0,0,1,0,.49,6.26,6.26,0,0,1-.31.79c-.05.12-.1.24-.14.32a1.42,1.42,0,0,1-.07.14,3.48,3.48,0,0,0-.07,2.38,1.39,1.39,0,0,0,.93.7v-.38l-.39-.26-.11-.25a2.53,2.53,0,0,1,.45-1.73l.11-.22c0-.09.09-.19.13-.3a4.39,4.39,0,0,0,.28-1.38c0-.18,0-.29,0-.29a.45.45,0,0,0,0-.08,1.13,1.13,0,0,0-1.24-.86h0l-.28,0a2.29,2.29,0,0,0-.37.12,1.83,1.83,0,0,0-.24.13,1.29,1.29,0,0,0-.21.19l.49.75a2.11,2.11,0,0,1,.25-.19l.19-.11a1.52,1.52,0,0,1,.32-.11A.83.83,0,0,1,26.87,14.18Z"/><path class="cls-1" d="M28.64,19.07a1,1,0,0,1-1.25.12s-.6-.41-.54-.94c0,0,.32.78,1.1.21Z"/><path d="M28,19.37a1.19,1.19,0,0,1-.58-.16s-.61-.43-.55-1v-.07l0,.07a.81.81,0,0,0,.42.39.77.77,0,0,0,.66-.18h0l.72.63h0A.94.94,0,0,1,28,19.37Zm-1.1-1.05a1.29,1.29,0,0,0,.54.85,1,1,0,0,0,1.21-.1L28,18.49a.78.78,0,0,1-.68.18A.73.73,0,0,1,26.86,18.32Z"/><path d="M27.71,15.35A1,1,0,0,0,27,14.24l-.11,0v0l.11,0a1.09,1.09,0,0,1,.77,1.15Z"/><path class="cls-3" d="M26.82,16.06l-.29.57.26.12.29-.57.33.13c0-.1.09-.2.12-.3a2.28,2.28,0,0,1-.34-.16l.18-.34-.21-.1-.19.32-.31-.14c-.05.13-.1.24-.14.32Z"/><path d="M26.8,16.78l-.29-.14.29-.57-.31-.15h0l.15-.33h0l.31.14.19-.33.25.12-.18.34a2,2,0,0,0,.32.15h0v0c0,.1-.08.2-.13.3v0l-.33-.13Zm-.24-.16.22.1.29-.56.33.13.11-.27a2.37,2.37,0,0,1-.33-.15h0l.18-.34-.18-.09-.19.33-.31-.14c0,.11-.09.21-.12.28l.3.15Z"/><path class="cls-3" d="M26.09,14.12a1.92,1.92,0,0,1,.39-.2l.17.31a.78.78,0,0,1,.22,0l.1,0-.19-.34a1.06,1.06,0,0,1,1,.74c0-.19,0-.29,0-.29a.45.45,0,0,0,0-.08,1.31,1.31,0,0,0-1.13-.64l-.13-.24h0a1.28,1.28,0,0,0-.28,0l.14.24s-.39.14-.42.24S26.09,14.12,26.09,14.12Z"/><path d="M27.83,14.72l0-.1a1,1,0,0,0-1-.72l.19.35h0l-.11,0-.2,0h0l-.17-.31a1.84,1.84,0,0,0-.37.2h0s-.2-.16-.16-.26.32-.21.42-.24l-.16-.24h0l.29,0h.05l.13.24a1.34,1.34,0,0,1,1.14.64h0a.45.45,0,0,1,0,.08s0,.12,0,.3Zm-1-.86a1.07,1.07,0,0,1,1,.66,1.49,1.49,0,0,0,0-.19.45.45,0,0,0,0-.08,1.29,1.29,0,0,0-1.11-.62h0l-.13-.24h0a1.41,1.41,0,0,0-.25,0l.14.24h0c-.15.06-.39.17-.41.23s.08.17.13.21a1.58,1.58,0,0,1,.39-.2h0l.17.3.21,0h.06l-.18-.32h.07Z"/><path class="cls-3" d="M25.37,13.87l.51.78a2.09,2.09,0,0,1,.27-.2,1.18,1.18,0,0,1,.19-.11l-.5-.81a1.49,1.49,0,0,0-.24.14A1.07,1.07,0,0,0,25.37,13.87Z"/><path d="M25.88,14.68l-.53-.81h0a.93.93,0,0,1,.23-.21,1.48,1.48,0,0,1,.25-.14h0l.52.85h0l-.19.1a2.78,2.78,0,0,0-.26.2Zm-.48-.81.49.75a2.11,2.11,0,0,1,.25-.19,1,1,0,0,1,.17-.1l-.47-.78a1.71,1.71,0,0,0-.23.13A1.29,1.29,0,0,0,25.4,13.87Z"/><path class="cls-3" d="M25.37,13.87l.51.78a1.53,1.53,0,0,1,.25-.19l-.53-.79A1.07,1.07,0,0,0,25.37,13.87Z"/><path d="M25.88,14.68l-.53-.81h0a.93.93,0,0,1,.23-.21h0l.56.82h0a2.8,2.8,0,0,0-.25.19Zm-.48-.81.49.75a1.54,1.54,0,0,1,.22-.17l-.52-.76A1.66,1.66,0,0,0,25.4,13.87Z"/><path class="cls-3" d="M23.33,14a.27.27,0,0,0,.53,0,.27.27,0,1,0-.53,0Z"/><path d="M23.6,14.3a.28.28,0,0,1-.29-.28.29.29,0,1,1,.57,0A.28.28,0,0,1,23.6,14.3Zm0-.53a.25.25,0,1,0,0,.49.25.25,0,0,0,0-.49Z"/><polygon class="cls-3" points="24.74 15.67 25.19 16.05 26.43 16.05 26.05 15.72 24.74 15.67"/><path d="M26.49,16.08H25.18l-.49-.43,1.37,0Zm-1.3,0h1.19l-.34-.3-1.24-.05Z"/><polygon class="cls-3" points="25.83 15.53 26.11 16.86 25.61 16.42 25.38 15.13 25.83 15.53"/><path d="M26.14,16.91l-.55-.48-.24-1.35.5.44Zm-.51-.5.45.4-.27-1.27-.4-.35Z"/><path class="cls-3" d="M27.83,17.27s-.51.2-.59.58c0,0-.29.19-.24-.21s.55-.6.55-.6a.18.18,0,0,1,.22.07A.21.21,0,0,1,27.83,17.27Z"/><path d="M27.1,17.91H27c-.06,0-.08-.12-.06-.26.06-.41.55-.61.57-.62a.2.2,0,0,1,.24.08.25.25,0,0,1,.06.18h0s-.5.2-.57.56h0A.41.41,0,0,1,27.1,17.91Zm.51-.86h-.05s-.48.21-.54.59c0,.12,0,.2,0,.22a.15.15,0,0,0,.16,0c.08-.34.51-.54.59-.57a.2.2,0,0,0,0-.14A.2.2,0,0,0,27.61,17.05Z"/><rect x="25.16" y="18.73" width="0.57" height="0.04" transform="translate(5.62 43.36) rotate(-87.54)"/><rect x="24.1" y="17.77" width="0.49" height="0.04" transform="translate(6.13 41.82) rotate(-88.99)"/><rect x="24.87" y="16.98" width="0.04" height="0.43"/><rect x="25.1" y="16.77" width="0.04" height="0.5"/><rect x="24.43" y="17.02" width="0.48" height="0.04" transform="translate(6.95 41.23) rotate(-88.4)"/><path d="M32.56,22.25h0a.31.31,0,0,1-.22-.15.55.55,0,0,1,0-.24h0a.54.54,0,0,1-.18,0,.21.21,0,0,1-.12,0,.18.18,0,0,1-.07-.19.18.18,0,0,1,.15-.13h.13a.09.09,0,0,0,0,0,0,0,0,0,0,0,0,.08.08,0,0,0-.07,0,.15.15,0,0,0-.09,0l0,0-.06,0-.1,0h0a.8.8,0,0,1-.65-.34.2.2,0,0,1,0-.16.24.24,0,0,1,.13-.09.86.86,0,0,1,.23-.05l-.07-.12-.05-.06a.79.79,0,0,1-.1-.62h0a.72.72,0,0,0,.1.59.21.21,0,0,0,0,.06.54.54,0,0,1,.09.15v0h0a.7.7,0,0,0-.25.05.14.14,0,0,0-.1.07.15.15,0,0,0,0,.12.77.77,0,0,0,.63.32l.09,0,0,0,0,0a.27.27,0,0,1,.12,0,.1.1,0,0,1,.09.06,0,0,0,0,1,0,.06.12.12,0,0,1-.08.05h-.12a.14.14,0,0,0-.12.1.12.12,0,0,0,0,.15.18.18,0,0,0,.11,0h.22a.61.61,0,0,1,.23,0,.24.24,0,0,1,.17.17.17.17,0,0,1-.09.21Zm-.25-.39a.39.39,0,0,0,0,.22.26.26,0,0,0,.18.13h.07a.14.14,0,0,0,.07-.17.2.2,0,0,0-.14-.14.56.56,0,0,0-.22,0Z"/><path d="M31.2,21a6.07,6.07,0,0,1-.59-.24l0,0,.58.25Z"/><path class="cls-3" d="M36.23,22.27a.29.29,0,0,0,.29.29.29.29,0,0,0,0-.58A.29.29,0,0,0,36.23,22.27Z"/><path d="M36.52,22.58a.31.31,0,1,1,0-.62.31.31,0,0,1,0,.62Zm0-.58a.27.27,0,1,0,.26.27A.27.27,0,0,0,36.52,22Z"/><circle class="cls-3" cx="36.6" cy="25.58" r="0.29"/><path d="M36.6,25.89a.31.31,0,1,1,.31-.31A.31.31,0,0,1,36.6,25.89Zm0-.58a.27.27,0,1,0,.27.27A.27.27,0,0,0,36.6,25.31Z"/><circle class="cls-3" cx="33.41" cy="25.77" r="0.29"/><path d="M33.41,26.08a.31.31,0,0,1-.31-.31.31.31,0,0,1,.62,0A.31.31,0,0,1,33.41,26.08Zm0-.57a.27.27,0,1,0,.27.26A.27.27,0,0,0,33.41,25.51Z"/><path class="cls-5" d="M32.79,24a2.11,2.11,0,1,0,2.1-2.11A2.1,2.1,0,0,0,32.79,24Zm2.45-1.66-.33.34-.34-.34a1.19,1.19,0,0,1,.34-.05A1.08,1.08,0,0,1,35.24,22.32Zm1,1.67.34-.34a1.19,1.19,0,0,1,.05.34,1.08,1.08,0,0,1-.05.33Zm-1.66,1.64.33-.34.34.34a1.19,1.19,0,0,1-.34.05A1.08,1.08,0,0,1,34.55,25.63Zm-1.1-.92a.67.67,0,0,1,.66-.66h.1v-.17h-.1a.66.66,0,1,1,.67-.66s0,0,0,.06H35a.13.13,0,0,1,0-.06.67.67,0,1,1,.67.66h-.1v.17h.1a.66.66,0,1,1-.67.66.13.13,0,0,1,0-.06h-.25s0,0,0,.06a.67.67,0,0,1-1.33,0Zm-.21-.41a1.19,1.19,0,0,1-.05-.34,1.08,1.08,0,0,1,.05-.33l.34.33Z"/><path d="M34.89,26.1A2.13,2.13,0,1,1,37,24,2.12,2.12,0,0,1,34.89,26.1Zm0-4.21A2.09,2.09,0,1,0,37,24,2.08,2.08,0,0,0,34.89,21.89Zm0,3.81a1.19,1.19,0,0,1-.34-.05l0,0,.37-.37.37.37,0,0A1.19,1.19,0,0,1,34.88,25.7Zm-.3-.08a1.15,1.15,0,0,0,.6,0l-.3-.3Zm1.1-.23a.68.68,0,0,1-.69-.68v0h-.2v0a.69.69,0,1,1-.69-.68h.08v-.11h-.08a.68.68,0,1,1,.69-.68v0a.67.67,0,0,1,.2,0v0a.69.69,0,1,1,.69.68H35.6V24h.08a.68.68,0,0,1,0,1.36ZM35,24.63v0a.15.15,0,0,0,0,.06.65.65,0,1,0,.65-.64h-.13v-.21h.13a.64.64,0,0,0,.64-.64.65.65,0,0,0-1.29,0,.13.13,0,0,0,0,.06v0h0a.45.45,0,0,0-.23,0h0v0a.13.13,0,0,0,0-.06.65.65,0,1,0-.65.64h.13v.21h-.13a.64.64,0,0,0-.64.64.65.65,0,0,0,1.29,0,.13.13,0,0,0,0-.06v0h0a.45.45,0,0,0,.23,0Zm1.51-.27L36.18,24l.37-.37v0a1,1,0,0,1,0,.68ZM36.24,24l.3.3a1.44,1.44,0,0,0,0-.3,1.34,1.34,0,0,0,0-.3Zm-3,.34,0,0a1.41,1.41,0,0,1,0-.35,1.28,1.28,0,0,1,0-.34l0,0,.37.37Zm0-.67a1.44,1.44,0,0,0,0,.3,1.34,1.34,0,0,0,0,.3l.3-.3Zm1.66-1-.37-.37h0a.91.91,0,0,1,.35-.06.84.84,0,0,1,.34.06h0Zm-.3-.36.3.3.3-.3a1.44,1.44,0,0,0-.3,0A1.34,1.34,0,0,0,34.61,22.33Z"/><circle class="cls-5" cx="34.89" cy="23.43" r="0.25"/><path d="M34.89,23.7a.27.27,0,1,1,.27-.27A.27.27,0,0,1,34.89,23.7Zm0-.5a.23.23,0,0,0-.22.23.23.23,0,1,0,.45,0A.23.23,0,0,0,34.89,23.2Z"/><path class="cls-5" d="M34.35,24.22A.25.25,0,1,0,34.1,24,.25.25,0,0,0,34.35,24.22Z"/><path d="M34.35,24.24a.27.27,0,1,1,.27-.26A.27.27,0,0,1,34.35,24.24Zm0-.49a.23.23,0,1,0,0,.45.23.23,0,1,0,0-.45Z"/><path class="cls-2" d="M31.08,19.49c0,.1,0,.2.08.2s.12-.07.13-.18,0-.2-.08-.21S31.09,19.38,31.08,19.49Z"/><path d="M31.17,19.71h0s-.06,0-.08-.08a.34.34,0,0,1,0-.15h0c0-.12.08-.21.15-.2s.11.11.1.23S31.24,19.71,31.17,19.71Zm-.07-.22a.27.27,0,0,0,0,.13s0,.05.05.05.09-.06.1-.16,0-.18-.06-.19-.1.06-.11.17Z"/><path class="cls-2" d="M30.9,19.61c0,.11,0,.21.08.21s.11-.07.13-.18,0-.2-.09-.21S30.91,19.51,30.9,19.61Z"/><path d="M31,19.84h0c-.07,0-.12-.11-.1-.23h0c0-.12.08-.21.15-.2a.13.13,0,0,1,.08.08.36.36,0,0,1,0,.15C31.11,19.76,31.05,19.84,31,19.84Zm0-.39s-.09.07-.1.17h0c0,.1,0,.18.06.18s.1-.06.11-.16a.32.32,0,0,0,0-.14s0-.05-.05-.05Z"/><circle class="cls-5" cx="34.89" cy="24.52" r="0.25"/><path d="M34.89,24.79a.27.27,0,1,1,.27-.27A.27.27,0,0,1,34.89,24.79Zm0-.5a.22.22,0,0,0-.22.23.23.23,0,1,0,.45,0A.23.23,0,0,0,34.89,24.29Z"/><path class="cls-2" d="M30.52,20.06c0,.1,0,.2.08.2s.12-.07.13-.18,0-.2-.08-.21S30.53,20,30.52,20.06Z"/><path d="M30.61,20.28h0a.08.08,0,0,1-.08-.07.29.29,0,0,1,0-.16h0c0-.12.08-.2.15-.2s.11.11.1.23S30.67,20.28,30.61,20.28Zm-.07-.22a.27.27,0,0,0,0,.13s0,0,.05,0,.1-.06.11-.16,0-.18-.07-.19-.09.07-.1.17Z"/><path class="cls-2" d="M30.75,19.83c0,.11,0,.2.08.21S31,20,31,19.85s0-.2-.08-.2S30.76,19.72,30.75,19.83Z"/><path d="M30.84,20.06h0a.11.11,0,0,1-.08-.08.25.25,0,0,1,0-.15c0-.12.08-.21.15-.2s.06,0,.08.07a.39.39,0,0,1,0,.15.53.53,0,0,1-.05.15A.12.12,0,0,1,30.84,20.06Zm0-.4s-.09.07-.1.17h0a.27.27,0,0,0,0,.13s0,.05,0,.06a.13.13,0,0,0,.07,0,.5.5,0,0,0,0-.13.49.49,0,0,0,0-.13s0,0-.06,0Z"/><circle class="cls-5" cx="35.44" cy="23.98" r="0.25"/><path d="M35.44,24.24a.27.27,0,1,1,.27-.26A.27.27,0,0,1,35.44,24.24Zm0-.49a.23.23,0,1,0,0,.45.23.23,0,1,0,0-.45Z"/><path class="cls-3" d="M28.05,12.82a.2.2,0,0,0,.21.2.2.2,0,1,0,0-.4A.2.2,0,0,0,28.05,12.82Z"/><path d="M28.26,13a.22.22,0,1,1,0-.44.22.22,0,1,1,0,.44Zm0-.4a.18.18,0,1,0,0,.36.18.18,0,1,0,0-.36Z"/><path class="cls-3" d="M31.4,17.75l-.31.11a1.71,1.71,0,0,1-.22-.6l-.29,0c0-.12,0-.24,0-.35l.3,0v-.35h.28v.33l.33,0a2.32,2.32,0,0,0,.05.33l-.35,0S31.26,17.67,31.4,17.75Z"/><path d="M31.08,17.89v0a1.72,1.72,0,0,1-.22-.58l-.29,0v0c0-.11,0-.23,0-.35v0l.31,0v-.35h.32v.33l.32,0v0a2.88,2.88,0,0,0,.05.33v0l-.35,0a1,1,0,0,0,.23.47l0,0Zm-.19-.65v0a1.74,1.74,0,0,0,.21.58l.26-.1a1.46,1.46,0,0,1-.23-.5v0l.35,0a2.34,2.34,0,0,1-.05-.3l-.33,0v-.33h-.24v.35l-.3,0a2.61,2.61,0,0,0,0,.31Z"/><polygon class="cls-3" points="35.56 17.23 35.34 17.41 35.08 17.24 34.71 17.25 34.56 17 34.84 16.77 35.31 16.52 35.6 16.62 35.88 16.81 36.03 17.02 35.99 17.27 35.8 17.32 35.56 17.23"/><path d="M35.34,17.43l-.27-.17H34.7L34.53,17l.29-.24.49-.26.3.1.28.2.16.22,0,.27-.22.05-.22-.08Zm-.25-.21.25.16.22-.17.24.09.17,0L36,17l-.15-.21-.27-.18-.28-.1-.46.25-.27.22.14.22Z"/><path class="cls-5" d="M27.65,23a.6.6,0,0,1-.79-.16c-.24-.27-.3-.62-.11-.8s.53-.1.78.17A.59.59,0,0,1,27.65,23Z"/><path d="M27.39,23.08a.79.79,0,0,1-.54-.26.59.59,0,0,1-.11-.82c.19-.18.55-.11.81.16a.62.62,0,0,1,.11.83h0A.4.4,0,0,1,27.39,23.08ZM27,21.94a.37.37,0,0,0-.25.09c-.17.16-.12.51.12.76s.58.33.75.17h0c.18-.17.13-.51-.11-.77A.77.77,0,0,0,27,21.94Z"/><polygon class="cls-3" points="35.57 17.29 35.57 17.82 35.89 18.04 36.81 17.34 36.81 16.75 36.39 16.75 35.82 17.23 35.57 17.29"/><path d="M35.89,18.06l-.34-.23v-.56l.26-.06.58-.48h.44v.62Zm-.3-.26.3.21.9-.68v-.56H36.4l-.58.47-.23.06Z"/><polygon class="cls-3" points="33.94 18.26 34.8 19.03 35.51 18.4 35.49 17.88 34.31 17.8 34.05 17.48 33.69 17.79 33.94 18.26"/><path d="M34.8,19.06l-.88-.79-.25-.49.38-.33.27.33,1.19.08,0,.55ZM34,18.25l.85.75.69-.61,0-.49-1.17-.08-.25-.31-.33.28Z"/><polygon class="cls-3" points="36.03 15.95 36.03 16.57 35.47 16.22 35.78 15.95 36.03 15.95"/><path d="M36.05,16.6l-.61-.37.33-.3h.28Zm-.54-.38.5.31V16h-.23Z"/><polygon class="cls-3" points="35.08 17.27 35.08 17.82 34.73 17.74 34.38 17.27 34.79 17.29 35.08 17.27"/><path d="M35.1,17.84l-.39-.09-.37-.5.45,0,.31,0Zm-.36-.12.32.07v-.5l-.27,0-.37,0Z"/><path class="cls-5" d="M35.92,14.37a2.8,2.8,0,0,0,.52-.25l.11.08-.35.67-.34-.4Z"/><path d="M36.21,14.9l-.37-.43.06-.12h0a2.51,2.51,0,0,0,.52-.25h0l.14.11Zm-.32-.44.31.37.33-.62-.09-.07a2.23,2.23,0,0,1-.51.24Z"/><path class="cls-5" d="M35.37,14.68s.14-.78.72-.16,0,.78-.17.71S35.37,14.68,35.37,14.68Z"/><path d="M36,15.27l-.12,0c-.23-.06-.55-.54-.56-.56h0s.06-.34.27-.41.3,0,.49.24.29.51.23.61A.35.35,0,0,1,36,15.27Zm-.64-.59c0,.06.33.48.53.54a.39.39,0,0,0,.39-.12c0-.09.06-.26-.23-.56s-.33-.27-.45-.23S35.4,14.63,35.39,14.68Z"/><path class="cls-2" d="M33.63,25.36a.21.21,0,0,0,.27,0c0-.07,0-.17-.12-.24s-.23-.07-.27,0S33.52,25.29,33.63,25.36Z"/><path d="M33.79,25.43a.3.3,0,0,1-.17-.05.4.4,0,0,1-.13-.13.17.17,0,0,1,0-.14.14.14,0,0,1,.13-.06l.17.06c.11.08.17.19.12.27S33.85,25.43,33.79,25.43Zm-.18-.34a.13.13,0,0,0-.09,0,.12.12,0,0,0,0,.1.29.29,0,0,0,.11.11c.09.07.2.07.24,0s0-.15-.11-.22a.53.53,0,0,0-.15-.05Z"/><path class="cls-2" d="M33.34,25.52c.11.07.23.07.27,0s0-.18-.12-.24-.23-.08-.27,0S33.23,25.45,33.34,25.52Z"/><path d="M33.5,25.59h0a.34.34,0,0,1-.17-.05.36.36,0,0,1-.12-.13.14.14,0,0,1,0-.14.15.15,0,0,1,.13-.06.32.32,0,0,1,.17.06.3.3,0,0,1,.12.13.12.12,0,0,1,0,.14A.14.14,0,0,1,33.5,25.59Zm-.18-.34a.09.09,0,0,0-.08.14.29.29,0,0,0,.11.11.3.3,0,0,0,.15.05s.08,0,.09,0,0-.06,0-.1a.32.32,0,0,0-.11-.12.33.33,0,0,0-.15-.05Z"/><polygon class="cls-3" points="33.89 17.7 34.78 18.46 35.49 17.88 35.27 17.57 35.06 17.74 34.81 17.5 35.08 17.27 34.79 17.06 35.11 16.77 35.34 16.98 35.55 16.8 35.82 17.07 35.57 17.29 35.88 17.55 36.81 16.75 36.41 16.32 36.16 16.56 35.77 16.2 36.03 15.95 35.61 15.47 34.72 16.04 34.02 16.66 33.82 16.89 33.71 17.46 33.89 17.7"/><path d="M34.78,18.49l-.9-.78-.19-.25.11-.58.2-.23.7-.63.91-.57.44.5-.25.25.36.34.25-.25.43.46-1,.82-.34-.29.25-.21-.24-.24-.21.18-.23-.22-.29.27.29.21-.27.23.22.21.21-.16.25.33Zm-.87-.81.87.76.68-.56-.2-.28-.2.16-.28-.27.27-.22-.29-.21.35-.32.23.21.22-.18.29.3-.25.21.28.24.9-.77-.37-.4-.24.24-.43-.39L36,16l-.4-.45-.87.55-.7.62-.19.22-.11.56Z"/><path class="cls-3" d="M35.37,14.68l-1.19,1-.38.34-4.75,4.16L28.8,20a11.66,11.66,0,0,1-.94,1c-.24.18-1.08.81-.57,1.32s.83.21,1,0l.74-.67c.19-.18.68-.67.81-.65l-.24-.25,5.43-4.73.44-.39.41-.36A.48.48,0,0,0,35.37,14.68Z"/><path d="M27.83,22.63a.82.82,0,0,1-.55-.29.52.52,0,0,1-.17-.41c0-.4.53-.79.72-.94h0a11.36,11.36,0,0,0,.93-1h0l.24.22,6.3-5.52h0a.56.56,0,0,1,.47.18.61.61,0,0,1,.08.47h0l-6.26,5.47.22.23a0,0,0,0,1,0,0h0c-.1,0-.53.4-.72.58l-.07.06-.4.37-.34.3h0A.75.75,0,0,1,27.83,22.63Zm1-2.62a11.51,11.51,0,0,1-.93,1v0c-.19.14-.69.52-.71.91a.47.47,0,0,0,.15.37c.5.49.81.21,1,0h0l.33-.3.4-.37.07-.06a3.35,3.35,0,0,1,.72-.59l-.21-.21s0,0,0,0h0l6.27-5.48a.53.53,0,0,0-.07-.43.52.52,0,0,0-.44-.17l-6.31,5.53h0Z"/><path class="cls-1" d="M34.86,13.87l-.51.78a2.09,2.09,0,0,0-.27-.2.86.86,0,0,0-.19-.11,1,1,0,0,0-.31-.11l-.21,0-.06.12a.92.92,0,0,0-.05.48,5.44,5.44,0,0,0,.31.79c0,.13.1.24.14.32l.07.15s1,2.64-.9,3.1v-.41l.4-.26.11-.24a2.59,2.59,0,0,0-.46-1.72c0-.08-.07-.15-.1-.22s-.09-.2-.13-.3a4.36,4.36,0,0,1-.28-1.39,2.13,2.13,0,0,1,0-.29.45.45,0,0,1,0-.08,1.16,1.16,0,0,1,1.26-.88h0a1.4,1.4,0,0,1,.29,0,1.58,1.58,0,0,1,.37.12,1.49,1.49,0,0,1,.24.14A.87.87,0,0,1,34.86,13.87Z"/><path d="M32.86,19.19v-.45l.4-.27.11-.23a2.62,2.62,0,0,0-.45-1.7l-.11-.22c-.05-.1-.09-.2-.13-.3a4.55,4.55,0,0,1-.28-1.4,2.46,2.46,0,0,1,0-.3.45.45,0,0,1,0-.08,1.2,1.2,0,0,1,1.28-.89h0l.29,0a2.4,2.4,0,0,1,.38.12l.25.14a1.51,1.51,0,0,1,.23.21h0l-.53.81v0l-.27-.2-.19-.1a1.21,1.21,0,0,0-.3-.11l-.2,0-.05.11a.79.79,0,0,0,0,.47,6.21,6.21,0,0,0,.31.78c0,.13.1.24.14.33l.07.14a3.54,3.54,0,0,1,.07,2.4,1.41,1.41,0,0,1-1,.73Zm0-.43v.38a1.43,1.43,0,0,0,.94-.7,3.52,3.52,0,0,0-.08-2.38,1.42,1.42,0,0,1-.07-.14c0-.08-.08-.2-.14-.32a6.26,6.26,0,0,1-.31-.79.85.85,0,0,1,0-.49.87.87,0,0,1,.06-.13h0l.22,0a1.45,1.45,0,0,1,.31.11,1.18,1.18,0,0,1,.19.11,1.48,1.48,0,0,1,.25.19l.5-.75-.22-.19a1.36,1.36,0,0,0-.24-.13,2,2,0,0,0-.37-.12l-.28,0h0a1.14,1.14,0,0,0-1.24.86.45.45,0,0,0,0,.08,2.2,2.2,0,0,0,0,.29A4.12,4.12,0,0,0,32.72,16q.06.16.12.3l.11.22a2.67,2.67,0,0,1,.46,1.73l-.12.25Z"/><path class="cls-1" d="M31.59,19.07a1,1,0,0,0,1.25.12s.6-.41.55-.94a.66.66,0,0,1-1.1.21Z"/><path d="M32.27,19.37a.94.94,0,0,1-.69-.29h0l.71-.63h0a.76.76,0,0,0,.65.18.73.73,0,0,0,.42-.39l0-.07v.07c.05.54-.53,1-.56,1A1.27,1.27,0,0,1,32.27,19.37Zm-.65-.3a1,1,0,0,0,1.21.1,1.25,1.25,0,0,0,.54-.85.73.73,0,0,1-.41.35.76.76,0,0,1-.67-.18Z"/><path d="M32.53,15.35h0a1.07,1.07,0,0,1,.77-1.15l.11,0v0l-.11,0A1,1,0,0,0,32.53,15.35Z"/><path class="cls-3" d="M33.41,16.06l.29.57-.26.12-.29-.57-.32.13c0-.1-.09-.2-.13-.3a2.28,2.28,0,0,0,.34-.16l-.18-.34.21-.1.19.32.31-.14c0,.13.1.24.14.32Z"/><path d="M33.43,16.78l-.29-.57-.32.13v0c-.05-.1-.09-.2-.13-.3v0h0a2,2,0,0,0,.32-.15l-.18-.34.25-.12.19.33.31-.14h0c0,.13.1.24.14.33h0l-.3.15.28.57Zm-.27-.62.29.56.22-.1-.29-.57.31-.15c0-.07-.08-.17-.13-.28l-.31.14-.19-.33-.17.09.18.34h0a2.37,2.37,0,0,1-.33.15l.12.27Z"/><path class="cls-3" d="M34.14,14.12a1.67,1.67,0,0,0-.39-.2l-.17.31-.21,0-.11,0,.19-.34a1,1,0,0,0-1,.74,2.13,2.13,0,0,1,0-.29.45.45,0,0,1,0-.08,1.31,1.31,0,0,1,1.13-.64l.13-.24h0a1.4,1.4,0,0,1,.29,0l-.15.24s.39.14.42.24S34.14,14.12,34.14,14.12Z"/><path d="M32.4,14.72v-.1a2.46,2.46,0,0,1,0-.3.45.45,0,0,1,0-.08h0a1.31,1.31,0,0,1,1.13-.64l.13-.24h0l.29,0h0l-.15.24c.09,0,.38.15.41.24s-.13.24-.15.26h0a1.84,1.84,0,0,0-.37-.2l-.17.31h0l-.21,0-.11,0h0l.2-.35a1,1,0,0,0-1,.72Zm.05-.47a.45.45,0,0,0,0,.08,1.49,1.49,0,0,0,0,.19,1.07,1.07,0,0,1,1-.66h0l-.18.32h.07l.2,0,.17-.3h0a1.5,1.5,0,0,1,.38.2s.16-.15.13-.21-.26-.17-.41-.23h0l.14-.24a1.41,1.41,0,0,0-.25,0h0l-.12.24h0A1.3,1.3,0,0,0,32.45,14.25Z"/><path class="cls-3" d="M34.86,13.87l-.51.78a2.09,2.09,0,0,0-.27-.2.86.86,0,0,0-.19-.11l.5-.81a1.49,1.49,0,0,1,.24.14A.87.87,0,0,1,34.86,13.87Z"/><path d="M34.35,14.68v0l-.27-.2-.19-.1h0l.52-.85h0l.25.14a1.51,1.51,0,0,1,.23.21h0Zm-.43-.35a1,1,0,0,1,.17.1,1.48,1.48,0,0,1,.25.19l.5-.75-.22-.19a.94.94,0,0,0-.22-.12Z"/><path class="cls-3" d="M34.86,13.87l-.51.78a1.53,1.53,0,0,0-.25-.19l.53-.79A.87.87,0,0,1,34.86,13.87Z"/><path d="M34.35,14.68v0s-.09-.08-.25-.19h0l.56-.82h0a1.51,1.51,0,0,1,.23.21h0Zm-.22-.23.22.17.49-.75-.2-.18Z"/><path class="cls-5" d="M36.9,14a.27.27,0,0,1-.53,0,.27.27,0,1,1,.53,0Z"/><path d="M36.64,14.3a.28.28,0,0,1-.29-.28.29.29,0,1,1,.57,0A.28.28,0,0,1,36.64,14.3Zm0-.53a.25.25,0,1,0,0,.49.25.25,0,0,0,0-.49Z"/><polygon class="cls-5" points="35.49 15.67 35.05 16.05 33.8 16.05 34.18 15.72 35.49 15.67"/><path d="M35.05,16.08h-1.3l.42-.38h0l1.37,0Zm-1.2,0H35l.4-.35-1.25.05Z"/><polygon class="cls-5" points="34.4 15.53 34.12 16.86 34.63 16.42 34.85 15.13 34.4 15.53"/><path d="M34.09,16.91l.29-1.39.5-.44-.24,1.35Zm.33-1.37-.27,1.27.46-.4.21-1.22Z"/><path class="cls-5" d="M32.41,17.27s.51.2.58.58c0,0,.3.19.24-.21s-.55-.6-.55-.6a.18.18,0,0,0-.22.07A.18.18,0,0,0,32.41,17.27Z"/><path d="M33.13,17.91a.41.41,0,0,1-.15-.05h0c-.08-.36-.58-.56-.58-.56h0a.22.22,0,0,1,0-.18.22.22,0,0,1,.25-.08s.5.21.56.62c0,.14,0,.22-.06.26ZM33,17.83s.12.06.16,0,.06-.1,0-.22c-.05-.38-.53-.58-.54-.59a.19.19,0,0,0-.2.07.18.18,0,0,0,0,.14C32.5,17.29,32.93,17.49,33,17.83Z"/><rect x="34.77" y="18.46" width="0.04" height="0.57" transform="translate(-0.78 1.53) rotate(-2.49)"/><path class="cls-2" d="M27.33,24.53c0,.13.05.23.12.23s.11-.1.11-.23,0-.23-.12-.23S27.32,24.4,27.33,24.53Z"/><path d="M27.45,24.78c-.08,0-.14-.11-.14-.25a.43.43,0,0,1,0-.17c0-.05.06-.08.1-.08a.11.11,0,0,1,.1.08.29.29,0,0,1,0,.17c0,.14-.06.25-.13.25Zm-.1-.25c0,.12,0,.21.1.21h0s.09-.09.09-.21a.38.38,0,0,0,0-.16s0-.05-.07-.05h0a.07.07,0,0,0-.06.06A.33.33,0,0,0,27.35,24.53Z"/><rect x="35.86" y="17.55" width="0.04" height="0.49" transform="translate(-0.35 0.73) rotate(-1.15)"/><rect x="35.32" y="16.98" width="0.04" height="0.43"/><rect x="35.09" y="16.77" width="0.04" height="0.5"/><rect x="35.54" y="16.8" width="0.04" height="0.48" transform="translate(-0.45 0.97) rotate(-1.56)"/><path d="M27.67,22.25l-.07,0a.19.19,0,0,1-.09-.21.24.24,0,0,1,.17-.17.63.63,0,0,1,.23,0h.23a.15.15,0,0,0,.1,0,.14.14,0,0,0,.06-.15.17.17,0,0,0-.12-.1h-.13A.16.16,0,0,1,28,21.5a.07.07,0,0,1,0-.06.1.1,0,0,1,.1-.06.2.2,0,0,1,.11,0l0,0,0,0,.09,0a.77.77,0,0,0,.63-.32s.05-.09,0-.12-.06-.06-.1-.07a.69.69,0,0,0-.24-.05h0v0a.38.38,0,0,1,.09-.15l0-.06a.69.69,0,0,0,.1-.59h0a.75.75,0,0,1-.1.62l0,.06a.83.83,0,0,0-.08.12.86.86,0,0,1,.23.05c.05,0,.11,0,.13.09a.17.17,0,0,1,0,.16.82.82,0,0,1-.66.34l-.1,0,0,0,0,0a.15.15,0,0,0-.09,0s-.06,0-.06,0,0,0,0,0a.09.09,0,0,0,.05,0h.13a.2.2,0,0,1,.16.13.2.2,0,0,1-.08.19.21.21,0,0,1-.12,0,.48.48,0,0,1-.17,0h0a.43.43,0,0,1-.05.24.31.31,0,0,1-.21.15Zm.2-.39a.57.57,0,0,0-.18,0,.22.22,0,0,0-.14.14.14.14,0,0,0,.07.17h.07a.3.3,0,0,0,.19-.13.47.47,0,0,0,0-.22h-.05Z"/><path d="M29,21l0,0,.58-.25,0,0C29.43,20.89,29.23,21,29,21Z"/><path class="cls-5" d="M24,22.27a.28.28,0,0,1-.28.29.29.29,0,0,1,0-.58A.28.28,0,0,1,24,22.27Z"/><path d="M23.72,22.58a.31.31,0,1,1,0-.62.31.31,0,0,1,0,.62Zm0-.58a.27.27,0,0,0,0,.54.27.27,0,0,0,0-.54Z"/><path class="cls-5" d="M23.92,25.58a.29.29,0,1,1-.29-.29A.29.29,0,0,1,23.92,25.58Z"/><path d="M23.63,25.89a.31.31,0,1,1,.31-.31A.31.31,0,0,1,23.63,25.89Zm0-.58a.27.27,0,1,0,.27.27A.27.27,0,0,0,23.63,25.31Z"/><path class="cls-2" d="M26.55,24.63c-.1.08-.15.19-.11.24s.16,0,.26-.05.15-.18.11-.23S26.65,24.56,26.55,24.63Z"/><path d="M26.51,24.92a.09.09,0,0,1-.08,0c-.05-.06,0-.17.11-.26h0c.11-.09.24-.11.28-.05s0,.18-.11.27A.37.37,0,0,1,26.51,24.92Zm.06-.27c-.1.08-.14.17-.11.21s.13,0,.23-.05.13-.18.1-.21-.13,0-.22,0Z"/><path class="cls-5" d="M27.11,25.77a.29.29,0,1,1-.29-.28A.29.29,0,0,1,27.11,25.77Z"/><path d="M26.82,26.08a.31.31,0,0,1-.31-.31.31.31,0,0,1,.62,0A.31.31,0,0,1,26.82,26.08Zm0-.57a.27.27,0,1,0,.27.26A.27.27,0,0,0,26.82,25.51Z"/><path class="cls-3" d="M25.34,21.87A2.11,2.11,0,1,0,27.44,24,2.1,2.1,0,0,0,25.34,21.87Zm0,.4a1.19,1.19,0,0,1,.34.05l-.34.34L25,22.32A1.16,1.16,0,0,1,25.32,22.27Zm-1.63,2.05a.92.92,0,0,1-.06-.33,1,1,0,0,1,.06-.34L24,24Zm1.66,1.36a1.08,1.08,0,0,1-.33-.05l.33-.34.34.34A1.19,1.19,0,0,1,25.35,25.68Zm.77-.31a.65.65,0,0,1-.66-.66v-.06h-.24v.06a.67.67,0,0,1-1.33,0,.67.67,0,0,1,.67-.66h.1a.25.25,0,0,1,0-.08.28.28,0,0,1,0-.09h-.1a.66.66,0,1,1,0-1.32.66.66,0,0,1,.66.66v.06h.24v-.06a.66.66,0,1,1,.66.66H26S26,24,26,24s0,.05,0,.08h.1a.66.66,0,1,1,0,1.32ZM26.65,24l.34-.33a.92.92,0,0,1,.06.33,1,1,0,0,1-.06.34Z"/><path d="M25.34,26.1A2.13,2.13,0,1,1,27.46,24,2.13,2.13,0,0,1,25.34,26.1Zm0-4.21A2.09,2.09,0,1,0,27.42,24,2.09,2.09,0,0,0,25.34,21.89Zm0,3.81a1.19,1.19,0,0,1-.34-.05l0,0,.37-.37.37.37,0,0A1.19,1.19,0,0,1,25.35,25.7Zm-.3-.08a1.14,1.14,0,0,0,.6,0l-.3-.3Zm1.07-.23a.67.67,0,0,1-.68-.68v0h-.2v0a.69.69,0,0,1-1.37,0,.69.69,0,0,1,.69-.68h.07v-.11h-.07a.68.68,0,1,1,0-1.36.68.68,0,0,1,.68.68v0a.67.67,0,0,1,.2,0v0a.68.68,0,1,1,.68.68H26s0,0,0,.06A.43.43,0,0,0,26,24h.08a.68.68,0,0,1,0,1.36Zm-.64-.76v.08a.64.64,0,0,0,1.28,0,.64.64,0,0,0-.64-.64H26v0S26,24,26,24s0-.06,0-.08v0h.12a.64.64,0,0,0,.64-.64.64.64,0,1,0-1.28,0v.08h0a.49.49,0,0,0-.24,0h0v-.08a.65.65,0,0,0-1.29,0,.65.65,0,0,0,.65.64h.12v0a.19.19,0,0,0,0,.08.25.25,0,0,0,0,.08v0h-.12a.64.64,0,1,0,0,1.28.64.64,0,0,0,.64-.64v-.08h0a.49.49,0,0,0,.24,0Zm-1.8-.27v0a1,1,0,0,1,0-.68v0l.37.37Zm0-.67a.86.86,0,0,0-.05.3.91.91,0,0,0,.05.3L24,24Zm3.3.64L26.63,24l.37-.37v0a1.09,1.09,0,0,1,.06.34,1.2,1.2,0,0,1-.06.35ZM26.68,24l.3.3A.86.86,0,0,0,27,24a.91.91,0,0,0-.05-.3Zm-1.36-1.27L25,22.32h0a.89.89,0,0,1,.34-.06.91.91,0,0,1,.35.06h0ZM25,22.33l.29.3.3-.3a1.34,1.34,0,0,0-.3,0A1.32,1.32,0,0,0,25,22.33Z"/><circle class="cls-3" cx="25.34" cy="23.43" r="0.25"/><path d="M25.34,23.7a.27.27,0,1,1,.27-.27A.27.27,0,0,1,25.34,23.7Zm0-.5a.23.23,0,0,0-.23.23.23.23,0,0,0,.23.23.23.23,0,0,0,.23-.23A.24.24,0,0,0,25.34,23.2Z"/><path class="cls-3" d="M25.88,24.22a.25.25,0,1,1,0-.49.25.25,0,1,1,0,.49Z"/><path d="M25.88,24.24a.27.27,0,1,1,.27-.26A.27.27,0,0,1,25.88,24.24Zm0-.49a.23.23,0,1,0,0,.45.23.23,0,1,0,0-.45Z"/><circle class="cls-3" cx="25.34" cy="24.52" r="0.25"/><path d="M25.34,24.79a.27.27,0,1,1,.27-.27A.27.27,0,0,1,25.34,24.79Zm0-.5a.23.23,0,0,0-.23.23.23.23,0,0,0,.23.23.24.24,0,0,0,.23-.23A.23.23,0,0,0,25.34,24.29Z"/><path class="cls-2" d="M29.64,26.24c0,.12.12.2.19.18s.08-.14,0-.26-.12-.2-.18-.18S29.6,26.12,29.64,26.24Z"/><path d="M29.81,26.44c-.07,0-.15-.08-.19-.2h0c0-.13,0-.25.05-.28a.12.12,0,0,1,.12,0,.38.38,0,0,1,.09.15c.05.14,0,.26-.05.29ZM29.7,26h0s-.06.11,0,.23h0c0,.12.12.18.16.17s.07-.11,0-.23a.37.37,0,0,0-.08-.14Z"/><path class="cls-2" d="M29.94,26.26c0,.12.12.21.19.18s.07-.13,0-.25S30,26,30,26,29.9,26.14,29.94,26.26Z"/><path d="M30.11,26.47c-.07,0-.15-.08-.19-.2h0c0-.13,0-.26,0-.28a.12.12,0,0,1,.12,0,.38.38,0,0,1,.09.15c.05.14,0,.26-.05.28ZM30,26h0s-.06.11,0,.23h0c0,.12.11.18.16.17s.06-.12,0-.24a.22.22,0,0,0-.08-.13S30,26,30,26Z"/><circle class="cls-3" cx="24.79" cy="23.98" r="0.25"/><path d="M24.79,24.24a.27.27,0,0,1,0-.53.27.27,0,1,1,0,.53Zm0-.49a.22.22,0,0,0-.22.23.22.22,0,0,0,.22.22.23.23,0,1,0,0-.45Z"/><path class="cls-5" d="M32,17.68s.5.19.58.57c0,0,.29.2.24-.21s-.55-.6-.55-.6a.2.2,0,0,0-.22.07A.21.21,0,0,0,32,17.68Z"/><path d="M32.68,18.32a.27.27,0,0,1-.15-.06h0c-.07-.36-.57-.55-.57-.55h0a.23.23,0,0,1,0-.18.22.22,0,0,1,.25-.08s.5.21.56.62c0,.14,0,.22-.06.26Zm-.12-.08s.12.06.16,0,.06-.11,0-.22c-.06-.39-.53-.59-.54-.59s-.1-.05-.2.07a.24.24,0,0,0-.05.13C32.05,17.7,32.48,17.89,32.56,18.24Z"/><path class="cls-3" d="M28.28,17.68s-.51.19-.59.57c0,0-.29.2-.24-.21s.55-.6.55-.6a.21.21,0,0,1,.23.07A.26.26,0,0,1,28.28,17.68Z"/><path d="M27.55,18.32l-.06,0c-.06,0-.07-.12,0-.26,0-.41.54-.61.56-.62a.2.2,0,0,1,.24.08.26.26,0,0,1,.06.18h0s-.5.19-.57.55h0A.23.23,0,0,1,27.55,18.32Zm.51-.87h0s-.48.2-.54.59c0,.11,0,.19,0,.22s.13,0,.16,0c.08-.35.51-.54.59-.58a.18.18,0,0,0-.05-.13A.19.19,0,0,0,28.06,17.45Z"/><path class="cls-2" d="M29.73,27.86c.09.09.21.12.27.06s0-.17-.07-.26-.21-.12-.26-.06S29.64,27.77,29.73,27.86Z"/><path d="M29.92,28a.28.28,0,0,1-.2-.1c-.1-.1-.13-.22-.06-.29s.18,0,.28.07.13.22.07.29A.12.12,0,0,1,29.92,28Zm-.18-.38-.06,0c0,.05,0,.15.07.23s.19.11.23.07,0-.15-.06-.23A.28.28,0,0,0,29.74,27.59Z"/><path class="cls-2" d="M29.73,27.5c.09.09.21.12.27.06s0-.17-.07-.26-.21-.12-.26-.06S29.64,27.41,29.73,27.5Z"/><path d="M29.92,27.61a.28.28,0,0,1-.2-.1c-.1-.1-.13-.22-.06-.29s.18,0,.28.07.13.23.07.29A.12.12,0,0,1,29.92,27.61Zm-.18-.38-.06,0c0,.05,0,.15.07.24s.19.11.23.06,0-.15-.06-.23A.28.28,0,0,0,29.74,27.23Z"/><path class="cls-2" d="M29.76,27.18c.09.09.2.12.26.06s0-.17-.07-.26-.2-.12-.26-.06S29.67,27.09,29.76,27.18Z"/><path d="M29.94,27.29a.29.29,0,0,1-.2-.1c-.1-.1-.13-.22-.06-.29s.19,0,.29.07.12.22.06.29A.12.12,0,0,1,29.94,27.29Zm-.18-.38-.05,0c-.05.05,0,.15.06.23s.19.11.23.07,0-.15-.06-.23A.26.26,0,0,0,29.76,26.91Z"/><path class="cls-2" d="M29.76,26.83c.09.09.2.12.26.07s0-.17-.07-.26-.2-.12-.26-.07S29.67,26.74,29.76,26.83Z"/><path d="M29.94,26.94a.32.32,0,0,1-.2-.09c-.1-.1-.13-.23-.06-.29s.19,0,.29.06.12.23.06.29A.12.12,0,0,1,29.94,26.94Zm-.18-.38-.05,0c-.05.05,0,.16.06.24s.19.11.23.06,0-.15-.06-.23A.31.31,0,0,0,29.76,26.56Z"/><path class="cls-2" d="M29.77,26.48c.09.09.21.12.26.06s0-.17-.07-.26-.2-.12-.26-.06S29.68,26.39,29.77,26.48Z"/><path d="M30,26.59a.26.26,0,0,1-.2-.1c-.1-.1-.13-.22-.07-.29s.19,0,.29.07.13.23.06.29A.11.11,0,0,1,30,26.59Zm-.18-.38-.06,0c0,.05,0,.15.06.23s.19.11.24.07,0-.15-.07-.23A.24.24,0,0,0,29.78,26.21Z"/><path class="cls-2" d="M29.36,26.18c0,.12.12.2.18.18s.08-.14,0-.26-.12-.2-.19-.18S29.32,26.06,29.36,26.18Z"/><path d="M29.52,26.38c-.07,0-.14-.08-.18-.19h0c-.05-.14,0-.26.05-.29a.13.13,0,0,1,.12.05.32.32,0,0,1,.09.15c0,.13,0,.25-.05.28Zm-.11-.44h0s-.06.12,0,.23h0c0,.12.11.19.16.17s.06-.11,0-.23a.64.64,0,0,0-.08-.14A.11.11,0,0,0,29.41,25.94Z"/><path class="cls-2" d="M29.07,26.1c0,.12.13.2.19.18s.08-.13,0-.25-.13-.21-.19-.19S29,26,29.07,26.1Z"/><path d="M29.24,26.3a.14.14,0,0,1-.1,0,.54.54,0,0,1-.09-.15c0-.14,0-.26.05-.28s.08,0,.12,0a.32.32,0,0,1,.09.15.26.26,0,0,1,0,.17.1.1,0,0,1-.07.11Zm-.11-.44h0c-.05,0-.07.12,0,.23a.37.37,0,0,0,.08.14s.06,0,.08,0,0,0,.05-.07a.47.47,0,0,0,0-.16.41.41,0,0,0-.08-.13S29.15,25.86,29.13,25.86Z"/><path class="cls-2" d="M28.79,26c0,.13.12.21.19.19s.07-.14,0-.26-.12-.2-.18-.18S28.75,25.91,28.79,26Z"/><path d="M29,26.24a.14.14,0,0,1-.09,0,.32.32,0,0,1-.09-.15h0a.35.35,0,0,1,0-.17c0-.06,0-.1.07-.11a.12.12,0,0,1,.12,0A.38.38,0,0,1,29,26a.39.39,0,0,1,0,.18c0,.05,0,.09-.07.1ZM28.81,26a.41.41,0,0,0,.08.13.12.12,0,0,0,.08,0,.09.09,0,0,0,0-.08A.39.39,0,0,0,29,26a.37.37,0,0,0-.08-.14.09.09,0,0,0-.09,0s0,0,0,.07a.31.31,0,0,0,0,.16Z"/><path class="cls-2" d="M28.5,26c0,.12.12.2.19.18s.09-.14,0-.26-.13-.2-.2-.18S28.46,25.87,28.5,26Z"/><path d="M28.67,26.19c-.07,0-.15-.07-.19-.19a.39.39,0,0,1,0-.18.15.15,0,0,1,.08-.11c.07,0,.17.06.21.2s0,.25-.05.28Zm-.1-.44h0s0,0-.05.08a.31.31,0,0,0,0,.16h0c0,.1.11.18.16.16s.07-.12,0-.23S28.62,25.75,28.57,25.75Z"/><path class="cls-2" d="M28.19,25.94c0,.11.15.19.21.16s.08-.15,0-.27-.15-.18-.21-.16S28.14,25.82,28.19,25.94Z"/><path d="M28.37,26.12a.16.16,0,0,1-.09,0,.4.4,0,0,1-.11-.14h0c-.05-.13,0-.26,0-.29s.18,0,.24.17a.55.55,0,0,1,0,.17.15.15,0,0,1-.07.12Zm-.12-.43h0s-.06.14,0,.24h0a.43.43,0,0,0,.09.13s.07,0,.09,0,0,0,.05-.08a.5.5,0,0,0,0-.16C28.37,25.75,28.3,25.69,28.25,25.69Z"/><path class="cls-2" d="M27.87,25.89c0,.12.13.2.19.17s.1-.14.05-.26-.12-.2-.19-.17S27.83,25.77,27.87,25.89Z"/><path d="M28,26.09c-.07,0-.15-.08-.19-.2h0a.35.35,0,0,1,0-.17.12.12,0,0,1,.08-.11c.08,0,.18.05.22.19a.35.35,0,0,1,0,.17.12.12,0,0,1-.08.11Zm-.15-.21c0,.11.11.18.17.17a.12.12,0,0,0,.05-.08.45.45,0,0,0,0-.16c0-.11-.12-.18-.18-.16s0,0-.05.07a.3.3,0,0,0,0,.16Z"/><path class="cls-2" d="M27.57,25.75c0,.12.13.2.19.18s.08-.14,0-.26-.13-.2-.19-.18S27.53,25.63,27.57,25.75Z"/><path d="M27.74,26c-.07,0-.14-.08-.18-.2h0c0-.13,0-.25.05-.28a.13.13,0,0,1,.12,0,.54.54,0,0,1,.09.15c0,.14,0,.26-.05.29Zm-.15-.21c0,.12.12.18.16.17s.07-.12,0-.23a.37.37,0,0,0-.08-.14s-.06,0-.08,0-.07.11,0,.23Z"/><path class="cls-2" d="M27.28,25.57c0,.12.06.23.13.22s.11-.1.11-.23-.05-.23-.12-.23S27.28,25.44,27.28,25.57Z"/><path d="M27.4,25.81c-.07,0-.13-.1-.14-.24a.48.48,0,0,1,0-.18c0-.05.06-.08.1-.08h0a.11.11,0,0,1,.1.08.33.33,0,0,1,0,.17c0,.14-.06.25-.13.25Zm-.1-.25c0,.13.06.21.1.21h0c.05,0,.1-.08.1-.21a.33.33,0,0,0,0-.15.1.1,0,0,0-.07-.06.07.07,0,0,0-.06.06A.26.26,0,0,0,27.3,25.56Z"/><path class="cls-2" d="M27.57,24.42c0,.13.05.23.12.23s.12-.1.11-.23-.05-.23-.12-.23S27.57,24.3,27.57,24.42Z"/><path d="M27.69,24.67a.1.1,0,0,1-.1-.07.34.34,0,0,1,0-.18c0-.14.06-.25.13-.25h0c.08,0,.14.11.14.25a.29.29,0,0,1,0,.17c0,.06-.06.08-.1.08Zm0-.46h0s-.09.09-.09.21a.38.38,0,0,0,0,.16s0,.05.07.05a.07.07,0,0,0,.06-.05.27.27,0,0,0,0-.16C27.78,24.3,27.73,24.21,27.68,24.21Z"/><path class="cls-2" d="M27.79,24.21c0,.12.05.23.12.23s.11-.11.11-.24S28,24,27.9,24,27.79,24.08,27.79,24.21Z"/><path d="M27.91,24.46a.11.11,0,0,1-.1-.08.33.33,0,0,1,0-.17h0c0-.14.06-.25.13-.25h0c.08,0,.14.1.14.24a.48.48,0,0,1,0,.18c0,.05-.06.08-.1.08Zm0-.46h0s-.09.08-.09.21h0a.33.33,0,0,0,0,.15s0,.06.07.06h0s0,0,.06-.06a.38.38,0,0,0,0-.16C28,24.08,28,24,27.9,24Z"/><path class="cls-2" d="M28,24c0,.13.06.23.12.23s.12-.1.12-.23-.05-.23-.12-.23S28,23.91,28,24Z"/><path d="M28.14,24.29c-.07,0-.13-.11-.14-.25h0a.47.47,0,0,1,0-.17c0-.05.06-.08.1-.08h0a.11.11,0,0,1,.1.08.31.31,0,0,1,0,.17c0,.14-.06.25-.13.25Zm0-.46h0a.07.07,0,0,0-.06.06A.24.24,0,0,0,28,24h0c0,.13.06.21.1.21h0c.05,0,.1-.09.1-.21a.33.33,0,0,0,0-.15A.1.1,0,0,0,28.14,23.83Z"/><path class="cls-2" d="M28.23,23.81c0,.12.06.23.12.23s.12-.11.12-.23-.06-.23-.12-.23S28.23,23.68,28.23,23.81Z"/><path d="M28.35,24.06c-.08,0-.14-.11-.14-.25h0a.29.29,0,0,1,0-.17.1.1,0,0,1,.1-.08s.07,0,.1.07a.48.48,0,0,1,0,.18c0,.14-.06.25-.14.25Zm0-.46h0s-.05,0-.07,0a.38.38,0,0,0,0,.16h0c0,.12.06.21.1.21h0s.1-.09.1-.21a.27.27,0,0,0,0-.16A.07.07,0,0,0,28.35,23.6Z"/><path class="cls-2" d="M28.44,23.55c0,.13,0,.23.12.23s.11-.1.11-.23-.05-.23-.12-.23S28.44,23.43,28.44,23.55Z"/><path d="M28.56,23.8c-.08,0-.14-.11-.14-.25h0a.47.47,0,0,1,0-.17c0-.05.06-.08.1-.08h0a.14.14,0,0,1,.11.08.43.43,0,0,1,0,.17c0,.14-.05.25-.13.25Zm0-.46h0s0,0-.06.06a.33.33,0,0,0,0,.15h0c0,.13.05.21.1.21s.1-.08.09-.21a.33.33,0,0,0,0-.15S28.58,23.34,28.55,23.34Z"/><path class="cls-2" d="M28.61,23.26c0,.13.06.23.12.23s.12-.11.12-.23-.06-.23-.12-.23S28.61,23.13,28.61,23.26Z"/><path d="M28.73,23.51c-.07,0-.14-.11-.14-.25h0a.29.29,0,0,1,0-.17.11.11,0,0,1,.1-.08h0s.07,0,.1.07a.48.48,0,0,1,0,.18.33.33,0,0,1,0,.17.11.11,0,0,1-.1.08Zm-.1-.25c0,.12.06.21.1.21h0s.05,0,.07-.06a.33.33,0,0,0,0-.15.38.38,0,0,0,0-.16.1.1,0,0,0-.07-.05s-.05,0-.07.05a.41.41,0,0,0,0,.16Z"/><path class="cls-2" d="M28.79,22.94c0,.13.05.23.12.23s.12-.11.12-.23-.06-.23-.12-.23S28.79,22.81,28.79,22.94Z"/><path d="M28.91,23.19c-.08,0-.14-.11-.14-.25s.06-.25.14-.25h0c.07,0,.13.11.14.25s-.06.25-.14.25Zm0-.46h0c-.05,0-.1.08-.1.21s.05.21.1.21h0c.05,0,.1-.09.1-.21S29,22.73,28.91,22.73Z"/><path class="cls-2" d="M29,22.69c0,.13.09.22.15.21s.1-.12.08-.24-.08-.23-.15-.22S29,22.56,29,22.69Z"/><path d="M29.11,22.92a.14.14,0,0,1-.1-.06.38.38,0,0,1-.06-.17c0-.14,0-.25.1-.27a.13.13,0,0,1,.11.07.28.28,0,0,1,.06.16c0,.14,0,.26-.09.27Zm-.05-.46h0s-.09.1-.07.23a.3.3,0,0,0,.06.14.08.08,0,0,0,.07.05c.05,0,.08-.1.07-.22a.34.34,0,0,0-.06-.15A.1.1,0,0,0,29.06,22.46Z"/><path class="cls-2" d="M29.14,22.43c0,.13.09.22.15.21s.11-.12.09-.25-.09-.22-.15-.21S29.12,22.3,29.14,22.43Z"/><path d="M29.28,22.66a.14.14,0,0,1-.1-.06.43.43,0,0,1-.06-.17c0-.14,0-.25.1-.27a.13.13,0,0,1,.11.07.39.39,0,0,1,.07.16.35.35,0,0,1,0,.18.11.11,0,0,1-.08.09Zm-.05-.46h0c-.05,0-.09.1-.07.23a.3.3,0,0,0,.06.14.08.08,0,0,0,.07.05s0,0,.06-.07a.35.35,0,0,0,0-.15.34.34,0,0,0-.06-.15S29.26,22.2,29.23,22.2Z"/><path class="cls-2" d="M29.3,22.18c.05.12.13.2.19.18s.08-.14,0-.26-.13-.2-.19-.18S29.26,22.06,29.3,22.18Z"/><path d="M29.47,22.38a.12.12,0,0,1-.09,0,.35.35,0,0,1-.09-.16h0c-.05-.13,0-.25.05-.28a.13.13,0,0,1,.12,0,.48.48,0,0,1,.09.16c0,.13,0,.25-.05.28Zm-.15-.21a.37.37,0,0,0,.08.14s.06,0,.08,0,.07-.11,0-.23a.37.37,0,0,0-.08-.14s-.06,0-.08,0-.07.11,0,.23Z"/><path class="cls-2" d="M29.47,21.94c0,.12.13.2.19.18s.08-.14,0-.26-.13-.2-.19-.18S29.43,21.82,29.47,21.94Z"/><path d="M29.64,22.14a.16.16,0,0,1-.1-.05.43.43,0,0,1-.09-.15h0c0-.13,0-.25.05-.28a.12.12,0,0,1,.12,0,.38.38,0,0,1,.09.15c.05.14,0,.26-.05.28S29.65,22.14,29.64,22.14Zm-.15-.21a.41.41,0,0,0,.08.13.12.12,0,0,0,.08,0c.05,0,.07-.12,0-.23a.37.37,0,0,0-.08-.14s-.06,0-.08,0-.07.11,0,.23Z"/><path class="cls-2" d="M29.59,21.7c.05.12.15.19.21.16s.06-.14,0-.26-.15-.18-.21-.15S29.53,21.59,29.59,21.7Z"/><path d="M29.77,21.89c-.07,0-.15-.07-.2-.18a.35.35,0,0,1,0-.17c0-.05,0-.1,0-.11s.18,0,.24.16a.38.38,0,0,1,0,.17.12.12,0,0,1-.06.12Zm-.16-.19c.05.11.14.16.18.14s0,0,0-.08a.31.31,0,0,0,0-.15c-.05-.11-.14-.17-.18-.15s0,0,0,.08A.34.34,0,0,0,29.61,21.7Z"/><path class="cls-2" d="M29.72,21.51c.07.11.17.16.22.13s0-.15,0-.26-.18-.16-.23-.13S29.65,21.4,29.72,21.51Z"/><path d="M29.91,21.67a.11.11,0,0,1-.08,0,.37.37,0,0,1-.13-.12.35.35,0,0,1-.06-.16.14.14,0,0,1,0-.13c.06,0,.17,0,.25.14a.37.37,0,0,1,.07.16c0,.06,0,.1-.05.12Zm-.18-.41h0s0,0,0,.08a.3.3,0,0,0,.05.15.4.4,0,0,0,.12.11.08.08,0,0,0,.08,0s0,0,0-.08a.47.47,0,0,0-.06-.15A.29.29,0,0,0,29.73,21.26Z"/><path class="cls-2" d="M27,25.48c0,.13.06.23.12.23s.12-.11.12-.23-.06-.23-.12-.23S27,25.35,27,25.48Z"/><path d="M27.13,25.73c-.07,0-.14-.11-.14-.25a.29.29,0,0,1,0-.17.11.11,0,0,1,.1-.08h0s.07,0,.1.07a.48.48,0,0,1,0,.18c0,.14-.06.25-.14.25Zm-.1-.25c0,.12.06.21.1.21h0c.05,0,.1-.09.1-.21a.38.38,0,0,0,0-.16s-.05-.06-.07-.05a.1.1,0,0,0-.07.05A.41.41,0,0,0,27,25.48Z"/><path class="cls-2" d="M26.74,25.38c0,.12,0,.23,0,.26s.15,0,.21-.16,0-.23,0-.26S26.79,25.27,26.74,25.38Z"/><path d="M26.78,25.67h0c-.07,0-.08-.16,0-.29s.16-.2.23-.17.08.16,0,.29A.24.24,0,0,1,26.78,25.67Zm0-.29h0c-.05.11,0,.21,0,.23s.13,0,.18-.15,0-.21,0-.23-.13,0-.18.15Z"/><path class="cls-2" d="M26.52,25.28c-.05.12-.05.23,0,.26s.15-.05.2-.16.05-.23,0-.26S26.57,25.16,26.52,25.28Z"/><path d="M26.56,25.57h0c-.07,0-.08-.16,0-.29h0c.06-.13.16-.2.23-.17s.08.16,0,.29S26.62,25.57,26.56,25.57Zm.14-.44c-.05,0-.12.06-.16.16h0c-.06.11,0,.21,0,.23s.12,0,.18-.15,0-.21,0-.23Z"/><path class="cls-2" d="M26.42,25c-.05.11,0,.23,0,.25s.15,0,.2-.16.05-.23,0-.26S26.48,24.91,26.42,25Z"/><path d="M26.46,25.31h0c-.07,0-.08-.15,0-.28h0c.05-.13.15-.21.23-.17s.08.15,0,.28S26.53,25.31,26.46,25.31Zm.14-.43s-.11.06-.16.15h0c-.05.12,0,.22,0,.24s.13,0,.18-.15,0-.22,0-.24Z"/><path class="cls-2" d="M29.77,26.12c.09.09.21.12.26.07s0-.17-.07-.26-.2-.12-.26-.07S29.68,26,29.77,26.12Z"/><path d="M30,26.24a.3.3,0,0,1-.2-.1c-.1-.1-.13-.23-.07-.29s.19,0,.29.07.13.22.06.28A.09.09,0,0,1,30,26.24Zm-.18-.38s-.05,0-.06,0,0,.15.06.23.19.11.24.07,0-.16-.07-.24A.27.27,0,0,0,29.78,25.86Z"/><path class="cls-2" d="M29.79,25.8c.09.09.21.11.26.06s0-.17-.07-.26-.2-.12-.26-.07S29.7,25.7,29.79,25.8Z"/><path d="M30,25.91h-.05a.33.33,0,0,1-.16-.09h0c-.09-.1-.12-.23-.06-.29s.19,0,.29.07a.34.34,0,0,1,.09.15.14.14,0,0,1,0,.13A.09.09,0,0,1,30,25.91Zm-.18-.13a.29.29,0,0,0,.14.08.11.11,0,0,0,.1,0,.11.11,0,0,0,0-.1.29.29,0,0,0-.08-.14c-.08-.08-.19-.11-.23-.06s0,.15.06.23Z"/><path class="cls-2" d="M29.79,25.47c.09.09.21.12.26.07s0-.17-.07-.26-.2-.12-.26-.07S29.7,25.38,29.79,25.47Z"/><path d="M30,25.58a.32.32,0,0,1-.21-.09c-.09-.1-.12-.23-.06-.29s.19,0,.29.06.13.23.06.29A.11.11,0,0,1,30,25.58Zm-.18-.38a.06.06,0,0,0-.06,0s0,.15.06.23.19.11.24.06,0-.15-.07-.23A.31.31,0,0,0,29.8,25.2Z"/><path class="cls-2" d="M29.8,25.13c.09.09.2.12.25.08s0-.16-.08-.25-.2-.13-.25-.08S29.71,25,29.8,25.13Z"/><path d="M30,25.25a.33.33,0,0,1-.21-.11h0c-.09-.09-.13-.22-.07-.27s.18,0,.28.07.13.22.07.28A.09.09,0,0,1,30,25.25Zm-.18-.13c.08.08.19.11.23.07s0-.14-.08-.22-.18-.12-.22-.08,0,.15.07.23Z"/><path class="cls-2" d="M29.78,24.79c.09.09.2.13.25.08s0-.16-.08-.25-.2-.12-.25-.08S29.69,24.7,29.78,24.79Z"/><path d="M30,24.91a.28.28,0,0,1-.2-.1h0c-.1-.1-.14-.22-.08-.28s.18,0,.28.08.13.22.07.27A.08.08,0,0,1,30,24.91Zm-.18-.13c.08.08.19.12.23.08s0-.15-.08-.23-.18-.11-.22-.07,0,.14.07.22Z"/><path class="cls-2" d="M29.78,24.48c.09.09.2.13.25.08s0-.16-.08-.25-.2-.13-.25-.08S29.69,24.39,29.78,24.48Z"/><path d="M30,24.6a.32.32,0,0,1-.2-.1h0c-.1-.1-.14-.23-.08-.28s.18,0,.28.07.13.22.07.28A.08.08,0,0,1,30,24.6Zm-.18-.13c.08.08.19.11.23.07s0-.14-.08-.22-.18-.11-.22-.07,0,.14.07.22Z"/><path class="cls-2" d="M29.8,24.16c.09.09.2.12.25.08s0-.16-.08-.25-.2-.13-.25-.08S29.71,24.07,29.8,24.16Z"/><path d="M30,24.28a.33.33,0,0,1-.21-.11h0c-.09-.09-.13-.22-.07-.27s.18,0,.28.07.13.22.07.28A.09.09,0,0,1,30,24.28Zm-.18-.13c.08.08.19.11.23.07s0-.14-.08-.22-.18-.12-.22-.08,0,.15.07.23Z"/><path class="cls-2" d="M29.76,23.56c.09.09.21.12.25.07s0-.16-.07-.25-.2-.12-.25-.07S29.67,23.47,29.76,23.56Z"/><path d="M30,23.68a.31.31,0,0,1-.2-.11h0c-.1-.1-.13-.22-.08-.28s.18,0,.28.08.14.22.08.28A.11.11,0,0,1,30,23.68Zm-.17-.14c.08.09.18.12.22.08s0-.14-.07-.22-.19-.12-.23-.08,0,.14.08.22Z"/><path class="cls-2" d="M29.8,23.27c.09.09.2.12.25.07s0-.16-.08-.25-.2-.12-.25-.07S29.71,23.18,29.8,23.27Z"/><path d="M30,23.39a.33.33,0,0,1-.21-.11h0c-.09-.1-.13-.22-.07-.28s.18,0,.28.08.13.22.07.28A.09.09,0,0,1,30,23.39Zm-.18-.14c.08.09.19.12.23.08s0-.14-.08-.22-.18-.12-.22-.08,0,.14.07.22Z"/><path class="cls-2" d="M29.76,22.93c.09.09.21.12.25.07s0-.16-.07-.25-.2-.12-.25-.07S29.67,22.84,29.76,22.93Z"/><path d="M30,23.05a.31.31,0,0,1-.2-.11h0c-.1-.1-.13-.22-.08-.28s.18,0,.28.08.14.22.08.28A.11.11,0,0,1,30,23.05Zm-.17-.14c.08.08.18.12.22.08s0-.14-.07-.22-.19-.12-.23-.08,0,.14.08.22Z"/><path class="cls-2" d="M29.82,22.63c.09.09.2.12.25.07s0-.16-.08-.25-.2-.12-.25-.07S29.73,22.54,29.82,22.63Z"/><path d="M30,22.74a.31.31,0,0,1-.21-.1h0c-.09-.1-.13-.22-.07-.28s.18,0,.28.08.13.22.07.28Zm-.18-.13c.08.08.19.12.23.08s0-.14-.08-.22-.18-.12-.22-.08,0,.14.07.22Z"/><path class="cls-2" d="M29.81,22.3c.09.09.2.12.25.07s0-.16-.08-.25-.2-.12-.25-.07S29.72,22.21,29.81,22.3Z"/><path d="M30,22.41a.31.31,0,0,1-.21-.1h0c-.09-.1-.13-.22-.07-.28s.18,0,.28.08.13.22.07.28A.08.08,0,0,1,30,22.41Zm-.18-.13c.08.08.19.12.23.08s0-.14-.08-.22-.18-.12-.22-.08,0,.14.07.22Z"/><ellipse class="cls-2" cx="29.91" cy="21.88" rx="0.12" ry="0.23" transform="translate(-6.71 27.56) rotate(-45)"/><path d="M30,22.09A.33.33,0,0,1,29.8,22h0c-.09-.1-.13-.22-.07-.28s.18,0,.28.08.13.22.07.28A.09.09,0,0,1,30,22.09ZM29.83,22c.08.09.19.12.23.08s0-.14-.08-.22-.18-.12-.22-.08,0,.14.07.22Z"/><path class="cls-2" d="M29.8,21.61c.09.09.2.13.25.08s0-.16-.08-.25-.2-.13-.25-.08S29.71,21.52,29.8,21.61Z"/><path d="M30,21.73a.37.37,0,0,1-.21-.1h0c-.09-.1-.13-.22-.07-.28s.18,0,.28.07.13.23.07.28A.09.09,0,0,1,30,21.73Zm-.18-.13c.08.08.19.11.23.07s0-.14-.08-.22-.18-.11-.22-.07,0,.14.07.22Z"/><path class="cls-2" d="M29.25,20.35c0,.13,0,.24,0,.26s.15-.06.19-.18,0-.24-.05-.26S29.28,20.23,29.25,20.35Z"/><path d="M29.32,20.63h0a.12.12,0,0,1-.08-.11.35.35,0,0,1,0-.17h0a.32.32,0,0,1,.09-.15.13.13,0,0,1,.12-.05s.06.05.08.11a.35.35,0,0,1,0,.17.35.35,0,0,1-.09.16A.12.12,0,0,1,29.32,20.63Zm-.06-.27a.45.45,0,0,0,0,.16s0,.07.05.07a.07.07,0,0,0,.08,0,.22.22,0,0,0,.08-.14.27.27,0,0,0,0-.15.12.12,0,0,0-.05-.08.09.09,0,0,0-.09,0,.47.47,0,0,0-.08.14Z"/><path class="cls-2" d="M29.05,20.18c0,.09,0,.18,0,.2s.12,0,.16-.12,0-.18,0-.2S29.09,20.09,29.05,20.18Z"/><path d="M29.09,20.41h0a.09.09,0,0,1,0-.09.24.24,0,0,1,0-.14c0-.1.13-.16.19-.13s.05,0,.05.09a.2.2,0,0,1,0,.13C29.21,20.35,29.15,20.41,29.09,20.41Zm.1-.34a.24.24,0,0,0-.14.24s0,.05,0,.05.09,0,.13-.11a.17.17,0,0,0,0-.12.06.06,0,0,0,0-.06Z"/><path class="cls-2" d="M28.87,20c0,.11,0,.2.09.21s.11-.08.12-.19,0-.2-.08-.21S28.88,19.92,28.87,20Z"/><path d="M29,20.26h0c-.07,0-.11-.11-.1-.23h0c0-.12.08-.21.15-.2a.11.11,0,0,1,.09.07.38.38,0,0,1,0,.15C29.09,20.17,29,20.26,29,20.26ZM28.89,20c0,.1,0,.18.07.19s.09-.07.1-.17a.27.27,0,0,0,0-.13.1.1,0,0,0-.05-.06s-.1.07-.11.17Z"/><path class="cls-2" d="M29.68,20.67c0,.11,0,.2.09.21s.11-.07.12-.18,0-.2-.08-.21S29.7,20.57,29.68,20.67Z"/><path d="M29.77,20.9h0c-.07,0-.11-.11-.1-.23s.08-.21.15-.2.07,0,.09.08a.35.35,0,0,1,0,.15C29.9,20.82,29.84,20.9,29.77,20.9Zm0-.39s-.09.07-.11.17,0,.18.07.18.09-.06.1-.16a.22.22,0,0,0,0-.14s0,0-.05,0Z"/><path class="cls-2" d="M29.88,20.81c0,.13,0,.24.1.25s.13-.09.15-.22,0-.23-.1-.24S29.89,20.69,29.88,20.81Z"/><path d="M30,21.08h0a.13.13,0,0,1-.1-.09.35.35,0,0,1,0-.18c0-.14.09-.24.17-.23s.08,0,.1.09a.47.47,0,0,1,0,.17.38.38,0,0,1-.06.17A.13.13,0,0,1,30,21.08Zm0-.46c-.05,0-.11.09-.12.2a.25.25,0,0,0,0,.15S30,21,30,21a.15.15,0,0,0,.08-.05.53.53,0,0,0,.05-.15.41.41,0,0,0,0-.16.07.07,0,0,0-.06-.06Z"/><path class="cls-2" d="M30.18,20.56c-.06.09-.07.19,0,.22s.14,0,.2-.11.07-.19,0-.22S30.24,20.47,30.18,20.56Z"/><path d="M30.2,20.81h-.05c-.06,0,0-.15,0-.25h0a.29.29,0,0,1,.11-.11.11.11,0,0,1,.11,0,.12.12,0,0,1,0,.11.24.24,0,0,1-.05.14A.28.28,0,0,1,30.2,20.81Zm0-.24c-.06.08-.06.17,0,.19s.12,0,.17-.1a.21.21,0,0,0,.05-.12s0-.06,0-.07h-.08a.45.45,0,0,0-.09.1Z"/><path class="cls-2" d="M30.66,20.79c.1.05.2.05.23,0s0-.13-.13-.18-.2-.05-.22,0S30.57,20.74,30.66,20.79Z"/><path d="M30.8,20.85a.27.27,0,0,1-.14,0h0c-.11-.06-.17-.15-.14-.21a.11.11,0,0,1,.1-.05.28.28,0,0,1,.15,0c.11.05.17.15.14.21A.13.13,0,0,1,30.8,20.85Zm-.13-.07c.1,0,.18,0,.2,0s0-.11-.12-.16a.31.31,0,0,0-.13,0s-.06,0-.06,0,0,.11.11.16Z"/><ellipse class="cls-3" cx="30.37" cy="28.56" rx="0.24" ry="0.45"/><path d="M30.37,29c-.15,0-.26-.21-.26-.47s.08-.47.26-.47.25.15.25.47S30.51,29,30.37,29Zm0-.91c-.15,0-.22.15-.22.44s.1.43.22.43.21-.2.21-.43S30.51,28.12,30.37,28.12Z"/><path class="cls-2" d="M30.76,20.57c.07.08.17.11.21.06s0-.13-.06-.21-.18-.1-.22-.06S30.68,20.5,30.76,20.57Z"/><path d="M30.92,20.67h-.05l-.13-.08h0a.31.31,0,0,1-.08-.13.12.12,0,0,1,0-.12.1.1,0,0,1,.11,0,.31.31,0,0,1,.13.08.28.28,0,0,1,.08.12.12.12,0,0,1,0,.12Zm-.18-.31h0a.11.11,0,0,0,0,.08.49.49,0,0,0,.07.11h0l.11.07a.1.1,0,0,0,.08,0,.08.08,0,0,0,0-.07.19.19,0,0,0-.07-.11.28.28,0,0,0-.11-.08Z"/><path class="cls-2" d="M30.94,20.41c.08.08.17.11.21.07s0-.14-.06-.22-.18-.1-.22-.06S30.86,20.34,30.94,20.41Z"/><path d="M31.1,20.52h-.05a.31.31,0,0,1-.13-.08h0c-.08-.09-.11-.19-.06-.24s.15,0,.24.06a.26.26,0,0,1,.08.13.1.1,0,0,1,0,.11A.09.09,0,0,1,31.1,20.52ZM31,20.4a.37.37,0,0,0,.12.07.06.06,0,0,0,.07,0,.08.08,0,0,0,0-.07.28.28,0,0,0-.08-.11c-.07-.07-.16-.09-.18-.06s0,.11.06.18Z"/><path class="cls-2" d="M31.08,20.2c.08.08.18.11.22.07s0-.14-.07-.22S31.06,20,31,20,31,20.13,31.08,20.2Z"/><path d="M31.25,20.31a.26.26,0,0,1-.18-.09.31.31,0,0,1-.08-.13A.1.1,0,0,1,31,20c.05-.05.16,0,.25.06s.11.19.06.24A.07.07,0,0,1,31.25,20.31ZM31.07,20a.05.05,0,0,0,0,0,.08.08,0,0,0,0,.07.19.19,0,0,0,.07.11c.07.07.16.09.18.06s0-.11-.06-.18A.25.25,0,0,0,31.07,20Z"/><path class="cls-2" d="M30.12,20.91c-.07.11-.09.22,0,.25s.14,0,.21-.13.09-.22,0-.25S30.19,20.81,30.12,20.91Z"/><path d="M30.11,21.19h0a.15.15,0,0,1,0-.12.56.56,0,0,1,.07-.16h0a.45.45,0,0,1,.12-.12c.05,0,.09,0,.12,0s0,.06,0,.12a.35.35,0,0,1-.06.16.68.68,0,0,1-.12.12Zm.19-.4-.06,0a.29.29,0,0,0-.11.11h0a.47.47,0,0,0-.06.15s0,.06,0,.07a.08.08,0,0,0,.08,0,1.14,1.14,0,0,0,.11-.11.47.47,0,0,0,.06-.15.12.12,0,0,0,0-.07Z"/><path class="cls-2" d="M30.4,20.81c0,.1,0,.2,0,.22s.14,0,.19-.12,0-.2,0-.23S30.45,20.71,30.4,20.81Z"/><path d="M30.43,21.06h0a.1.1,0,0,1-.05-.1.42.42,0,0,1,0-.15.27.27,0,0,1,.1-.11s.08,0,.11,0a.1.1,0,0,1,.05.1.28.28,0,0,1,0,.15.25.25,0,0,1-.09.11Zm.12-.36a.06.06,0,0,0-.05,0,.27.27,0,0,0-.08.1.22.22,0,0,0,0,.13.08.08,0,0,0,0,.07.07.07,0,0,0,.07,0,.22.22,0,0,0,.09-.1.31.31,0,0,0,0-.13.08.08,0,0,0,0-.07Z"/><path class="cls-2" d="M30.09,18.93c-.11,0-.21,0-.21.09s.09.11.2.12.2,0,.2-.1S30.2,18.93,30.09,18.93Z"/><path d="M30.09,19.16h0a.33.33,0,0,1-.14,0c-.05,0-.07-.06-.07-.1s.1-.12.23-.11a.21.21,0,0,1,.14,0,.1.1,0,0,1,.07.09.11.11,0,0,1-.07.09A.32.32,0,0,1,30.09,19.16Zm0-.21c-.1,0-.17,0-.17.07a.07.07,0,0,0,.05.06.25.25,0,0,0,.13,0l.13,0s.05,0,.05-.06,0,0-.05-.06a.25.25,0,0,0-.13,0Z"/><path class="cls-2" d="M30.19,19.15c-.12,0-.23,0-.23.09s.1.11.22.12.23,0,.24-.1S30.32,19.15,30.19,19.15Z"/><path d="M30.21,19.38h0c-.14,0-.24-.07-.24-.14s.11-.12.25-.11h0c.14,0,.25.07.25.14S30.34,19.38,30.21,19.38Zm0-.21c-.11,0-.19,0-.19.07s.08.09.2.1.21,0,.22-.08-.08-.09-.21-.09h0Z"/><path class="cls-2" d="M30.26,19.4c-.12,0-.23,0-.25,0s.07.13.19.17.23,0,.25,0S30.38,19.43,30.26,19.4Z"/><path d="M30.32,19.64l-.12,0a.6.6,0,0,1-.16-.08s-.06-.08-.05-.11.05-.06.1-.07a.39.39,0,0,1,.18,0h0c.13,0,.22.12.2.19a.11.11,0,0,1-.1.06Zm-.18-.24h0s-.06,0-.07,0,0,0,0,.07a.37.37,0,0,0,.14.07.41.41,0,0,0,.15,0s.07,0,.07,0-.06-.11-.17-.15h-.12Z"/><path class="cls-2" d="M30.22,19.63c-.12,0-.23,0-.24.08s.09.11.22.13.23,0,.24-.08S30.35,19.65,30.22,19.63Z"/><path d="M30.26,19.86h-.07L30,19.81A.13.13,0,0,1,30,19.7a.15.15,0,0,1,.09-.08.47.47,0,0,1,.17,0,.58.58,0,0,1,.17.05.1.1,0,0,1,.06.11s0,.06-.08.08Zm-.1-.21h-.1s-.06,0-.06.05,0,0,.05.06a.33.33,0,0,0,.15.05.35.35,0,0,0,.15,0,.1.1,0,0,0,.07,0s0,0-.05-.06a.33.33,0,0,0-.15-.05h-.06Z"/><path class="cls-2" d="M30.78,29.88a.49.49,0,0,1-.67,0l.16-.26h.31Z"/><path d="M30.44,30a.53.53,0,0,1-.35-.14s0,0,0,0l.16-.26h.34l.21.26v0A.58.58,0,0,1,30.44,30Zm-.31-.16a.46.46,0,0,0,.63,0l-.19-.23h-.29Z"/><path class="cls-2" d="M30.78,29.88s.22-1.19-.35-1.19-.32,1.19-.32,1.19a.78.78,0,0,1,.32-.05A.73.73,0,0,1,30.78,29.88Z"/><path d="M30.78,29.9h0a.9.9,0,0,0-.34-.05h0a1,1,0,0,0-.31.05h0s0,0,0,0-.17-.79.08-1.09a.31.31,0,0,1,.26-.12.34.34,0,0,1,.26.12c.25.3.12,1.06.11,1.09s0,0,0,0Zm-.35-.09a1,1,0,0,1,.34,0,1.69,1.69,0,0,0-.11-1,.3.3,0,0,0-.23-.11.27.27,0,0,0-.23.11c-.21.25-.1.9-.08,1a.82.82,0,0,1,.31,0Z"/><path class="cls-2" d="M30.3,19.88c-.13,0-.23,0-.24.09s.08.13.21.14.23,0,.24-.08S30.42,19.9,30.3,19.88Z"/><path d="M30.33,20.14h-.06a.29.29,0,0,1-.17-.05S30,20,30,20s.12-.12.26-.1h0c.14,0,.24.09.23.16s0,.07-.09.09Zm-.09-.24c-.09,0-.16,0-.16.07s0,.05,0,.07a.34.34,0,0,0,.15.06.41.41,0,0,0,.16,0s.06,0,.06,0-.07-.11-.19-.13Z"/><path class="cls-2" d="M30.43,20.16c-.11-.05-.23,0-.26,0s0,.17.15.22.24,0,.27,0S30.55,20.21,30.43,20.16Z"/><path d="M30.46,20.46a.32.32,0,0,1-.14,0c-.13-.06-.2-.16-.17-.24a.15.15,0,0,1,.12-.08l.17,0h0a.4.4,0,0,1,.14.11.17.17,0,0,1,0,.13A.16.16,0,0,1,30.46,20.46Zm-.16-.31h0s-.07,0-.08.05,0,.15.14.19.21,0,.24,0a.13.13,0,0,0,0-.1.27.27,0,0,0-.12-.09h0Z"/><path class="cls-2" d="M29.69,19.93c-.1.05-.16.14-.13.21s.14.07.24,0,.16-.14.13-.21S29.79,19.88,29.69,19.93Z"/><path d="M29.67,20.21a.12.12,0,0,1-.12-.07.11.11,0,0,1,0-.12.32.32,0,0,1,.12-.11h0a.28.28,0,0,1,.15,0,.14.14,0,0,1,.11.07c0,.07,0,.17-.13.23A.23.23,0,0,1,29.67,20.21Zm.15-.3a.24.24,0,0,0-.13,0h0a.22.22,0,0,0-.1.09.1.1,0,0,0,0,.09c0,.05.13.05.22,0s.14-.13.11-.19,0,0-.08,0Z"/><path class="cls-2" d="M29.91,20.12c-.1.05-.16.14-.13.19s.13.06.23,0,.16-.14.13-.2S30,20.07,29.91,20.12Z"/><path d="M29.87,20.38a.11.11,0,0,1-.11-.06s0-.07,0-.11a.32.32,0,0,1,.12-.11h0a.42.42,0,0,1,.15,0,.13.13,0,0,1,.11.05c0,.07,0,.17-.14.22A.3.3,0,0,1,29.87,20.38Zm.18-.28a.22.22,0,0,0-.13,0h0a.2.2,0,0,0-.11.09s0,.06,0,.07.1.05.2,0,.14-.13.12-.17,0,0-.07,0Z"/><path class="cls-2" d="M30.05,20.35c-.06.1-.06.2,0,.23s.14,0,.2-.12.06-.2,0-.23S30.1,20.25,30.05,20.35Z"/><path d="M30.07,20.61h0a.13.13,0,0,1-.05-.11.3.3,0,0,1,.05-.15c.06-.11.16-.17.22-.13a.13.13,0,0,1,.05.11.48.48,0,0,1,0,.15.43.43,0,0,1-.11.12Zm.14-.37s-.1,0-.15.12h0a.38.38,0,0,0,0,.13.1.1,0,0,0,0,.08.09.09,0,0,0,.08,0,.29.29,0,0,0,.09-.1.24.24,0,0,0,0-.13s0-.07,0-.08Z"/><path class="cls-2" d="M29.44,19.81c-.09.07-.14.16-.1.21s.14,0,.23,0,.14-.16.1-.21S29.53,19.74,29.44,19.81Z"/><path d="M29.41,20.07a.1.1,0,0,1-.09,0c0-.06,0-.16.11-.23h0c.1-.08.21-.09.26,0s0,.16-.11.24A.32.32,0,0,1,29.41,20.07Zm0-.24c-.09.06-.12.14-.09.18s.11,0,.2,0,.12-.14.09-.18-.11,0-.2,0Z"/><path class="cls-2" d="M29.46,20.57c0,.13,0,.24.1.24s.13-.08.14-.21,0-.23-.09-.24S29.48,20.45,29.46,20.57Z"/><path d="M29.57,20.83h0c-.08,0-.13-.12-.12-.26h0c0-.14.09-.24.17-.23s.13.13.11.26S29.64,20.83,29.57,20.83Zm-.09-.25c0,.11,0,.21.08.21s.11-.08.12-.19,0-.21-.07-.22-.11.08-.13.2Z"/><ellipse class="cls-2" cx="29.96" cy="21.22" rx="0.12" ry="0.23" transform="translate(-6.23 27.4) rotate(-45)"/><path d="M30.06,21.43h0a.46.46,0,0,1-.15-.09h0c-.1-.1-.13-.23-.08-.28s.18,0,.28.07a.44.44,0,0,1,.1.15.17.17,0,0,1,0,.13A.11.11,0,0,1,30.06,21.43Zm-.2-.37h-.05s0,.15.08.23h0a.26.26,0,0,0,.13.08s.07,0,.09,0,0-.05,0-.09a.51.51,0,0,0-.09-.13A.26.26,0,0,0,29.86,21.06Z"/><path class="cls-2" d="M29.78,23.82c.09.09.2.12.25.08s0-.16-.08-.25-.2-.13-.25-.08S29.69,23.73,29.78,23.82Z"/><path d="M30,23.94a.29.29,0,0,1-.2-.11h0c-.1-.1-.14-.22-.08-.27s.18,0,.28.07.13.22.07.28A.08.08,0,0,1,30,23.94Zm-.18-.13c.08.08.19.11.23.07s0-.14-.08-.22-.18-.12-.22-.08,0,.15.07.23Z"/><path class="cls-2" d="M33,25.66c.11.07.23.07.27,0s0-.18-.11-.24-.23-.07-.28,0S32.91,25.59,33,25.66Z"/><path d="M33.18,25.73a.41.41,0,0,1-.17-.05.29.29,0,0,1-.12-.13.14.14,0,0,1,0-.15.16.16,0,0,1,.13-.06h0a.32.32,0,0,1,.17.06.3.3,0,0,1,.12.13.17.17,0,0,1,0,.14A.15.15,0,0,1,33.18,25.73ZM33,25.38a.13.13,0,0,0-.1,0,.11.11,0,0,0,0,.11.29.29,0,0,0,.11.11c.1.07.21.07.25,0a.12.12,0,0,0,0-.1.29.29,0,0,0-.1-.12.33.33,0,0,0-.15-.05Z"/><ellipse class="cls-3" cx="29.87" cy="28.83" rx="0.28" ry="0.45"/><path d="M29.87,29.3c-.17,0-.3-.21-.3-.47s.1-.47.3-.47.3.15.3.47S30,29.3,29.87,29.3Zm0-.9c-.18,0-.26.13-.26.43s.11.44.26.44.26-.2.26-.44S30,28.4,29.87,28.4Z"/><path class="cls-3" d="M30.1,28.17a.23.23,0,0,1-.23.23.23.23,0,1,1,0-.46A.23.23,0,0,1,30.1,28.17Z"/><path d="M29.87,28.42a.25.25,0,1,1,0-.5.25.25,0,1,1,0,.5Zm0-.47a.22.22,0,1,0,0,.43.22.22,0,0,0,0-.43Z"/><path class="cls-3" d="M30.55,27.9a.2.2,0,1,1-.2-.2A.2.2,0,0,1,30.55,27.9Z"/><path d="M30.35,28.12a.22.22,0,1,1,.22-.22A.22.22,0,0,1,30.35,28.12Zm0-.4a.18.18,0,0,0-.18.18.18.18,0,1,0,.36,0A.18.18,0,0,0,30.35,27.72Z"/><path class="cls-2" d="M29.38,30.2a.72.72,0,0,0,.92,0l-.22-.31h-.42Z"/><path d="M29.84,30.39a.76.76,0,0,1-.47-.17,0,0,0,0,1,0,0l.28-.31h.45l.21.31a0,0,0,0,1,0,0A.76.76,0,0,1,29.84,30.39Zm-.43-.19a.69.69,0,0,0,.86,0l-.2-.29h-.4Z"/><path class="cls-2" d="M29.38,30.2s-.28-1.44.49-1.44.43,1.44.43,1.44a1.19,1.19,0,0,0-.43-.06A1.46,1.46,0,0,0,29.38,30.2Z"/><path d="M29.38,30.22h0s-.18-.92.14-1.3a.43.43,0,0,1,.37-.17.44.44,0,0,1,.36.16c.3.38.1,1.27.09,1.31h0s0,0,0,0a1.16,1.16,0,0,0-.42-.06h0a1.39,1.39,0,0,0-.47.06Zm.49-1.44a.41.41,0,0,0-.34.15c-.28.33-.16,1.11-.13,1.25a1.4,1.4,0,0,1,.47-.06,1.13,1.13,0,0,1,.41.06c0-.14.18-.92-.08-1.25A.4.4,0,0,0,29.87,28.78Z"/><path d="M29.62,30.17a0,0,0,0,1,0,0,1.3,1.3,0,0,1,0-.85h0s0,0,0,0a1.26,1.26,0,0,0,0,.82s0,0,0,0Z"/><path d="M29.87,30.16s0,0,0,0a2.36,2.36,0,0,1-.08-.8,0,0,0,0,1,0,0s0,0,0,0a2.22,2.22,0,0,0,.09.79l0,0Z"/><path d="M30.6,29.85h0s0,0,0,0a1.18,1.18,0,0,0,0-.67s0,0,0,0a0,0,0,0,1,0,0,1,1,0,0,1,0,.69S30.61,29.85,30.6,29.85Z"/><path class="cls-3" d="M20.25,0V40.5a20.25,20.25,0,0,1,0-40.5Z"/></g></g></svg>