<svg viewBox="0 0 40.5 40.5" xmlns="http://www.w3.org/2000/svg"><path d="m40.5 20.25a20.26 20.26 0 0 1 -20.25 20.25v-40.5a20.26 20.26 0 0 1 20.25 20.25z" fill="#fff"/><path d="m33.69 25.11c.1.08.22.1.27 0s0-.18-.09-.25-.22-.1-.27 0-.01.14.09.25z" fill="#fa0204"/><path d="m33.87 25.2a.36.36 0 0 1 -.17-.07c-.11-.09-.15-.21-.1-.28s.19-.06.3 0a.36.36 0 0 1 .1.15.17.17 0 0 1 0 .14.14.14 0 0 1 -.13.06zm-.18-.35a.11.11 0 0 0 -.08 0c0 .05 0 .16.1.23a.25.25 0 0 0 .14.06.11.11 0 0 0 .1 0 .12.12 0 0 0 0-.1.31.31 0 0 0 -.1-.13.27.27 0 0 0 -.16-.06z"/><path d="m32.71 25.77c.11.07.23.07.27 0s0-.18-.12-.24-.22-.08-.27 0 .02.17.12.24z" fill="#fa0204"/><path d="m32.88 25.84a.41.41 0 0 1 -.17-.05c-.11-.08-.17-.2-.12-.27s.17-.08.29 0a.33.33 0 0 1 .13.13.17.17 0 0 1 0 .14.15.15 0 0 1 -.13.05zm-.16-.09a.33.33 0 0 0 .15.05.13.13 0 0 0 .1 0 .12.12 0 0 0 0-.1.25.25 0 0 0 -.11-.12c-.09-.06-.2-.07-.24 0s0 .15.11.21z"/><path d="m32.4 25.86c.1.07.22.08.26 0s0-.17-.12-.24-.22-.07-.26 0 .01.18.12.24z" fill="#fa0204"/><path d="m32.56 25.94a.32.32 0 0 1 -.17-.06c-.11-.07-.17-.19-.12-.27s.18-.07.29 0a.33.33 0 0 1 .13.13.15.15 0 0 1 0 .13.12.12 0 0 1 -.13.07zm-.15-.09a.27.27 0 0 0 .15 0 .1.1 0 0 0 .09 0 .12.12 0 0 0 0-.1.29.29 0 0 0 -.11-.11c-.09-.06-.2-.07-.24 0s0 .15.12.21z"/><path d="m28.46 17.83.64.75a2.31 2.31 0 0 0 .55-1.28c0-.12 0-.24.05-.35a6.54 6.54 0 0 0 0-1l-.88-.09a8.24 8.24 0 0 1 -.05 1q0 .19-.06.33c-.09.52-.25.64-.25.64z" fill="#fff"/><path d="m29.09 18.61-.66-.78a1.21 1.21 0 0 0 .26-.61q0-.15.06-.33a9.2 9.2 0 0 0 .05-1l.92.09a6.56 6.56 0 0 1 0 1v.35a2.32 2.32 0 0 1 -.56 1.3zm-.6-.78.61.72a2.17 2.17 0 0 0 .53-1.26 3.27 3.27 0 0 0 .05-.35 8.22 8.22 0 0 0 0-.93l-.84-.09a8.66 8.66 0 0 1 -.05 1c0 .12 0 .24-.06.34a1.38 1.38 0 0 1 -.24.57z"/><path d="m28.83 17.75.32.11a1.79 1.79 0 0 0 .21-.6h.29c0-.12 0-.24.05-.35h-.3v-.35h-.29v.33h-.32q0 .19-.06.33h.35s-.08.45-.25.53z" fill="#ffe000"/><path d="m29.15 17.89-.37-.14c.11-.06.2-.34.24-.47h-.36q0-.15.06-.33h.32v-.33h.33v.35h.3v.35h-.29a1.72 1.72 0 0 1 -.22.58zm-.28-.15.27.1a2 2 0 0 0 .21-.58h.28c0-.09 0-.2.05-.31h-.3v-.35h-.25v.33h-.33a2.34 2.34 0 0 1 -.05.3h.36a1.29 1.29 0 0 1 -.24.51z"/><path d="m32.09 26c.1.07.22.08.27 0s0-.17-.13-.24-.22-.07-.26 0 .03.16.12.24z" fill="#fa0204"/><path d="m32.25 26.06a.27.27 0 0 1 -.17-.06.33.33 0 0 1 -.13-.13.17.17 0 0 1 0-.14.16.16 0 0 1 .13-.05.41.41 0 0 1 .17.05c.11.08.17.2.12.27a.12.12 0 0 1 -.12.06zm-.15-.06a.3.3 0 0 0 .15.05.1.1 0 0 0 .09 0c0-.05 0-.15-.12-.21a.27.27 0 0 0 -.14-.05.13.13 0 0 0 -.1 0 .12.12 0 0 0 0 .1.25.25 0 0 0 .11.12z"/><path d="m31.8 26.05c.09.06.2.07.24 0s0-.16-.11-.22-.21-.07-.24 0 .01.17.11.22z" fill="#fa0204"/><path d="m32 26.12a.3.3 0 0 1 -.15-.05.46.46 0 0 1 -.12-.12.15.15 0 0 1 0-.13c0-.07.16-.07.27 0a.31.31 0 0 1 .11.12.12.12 0 0 1 0 .13.13.13 0 0 1 -.11.05zm-.17-.31a.11.11 0 0 0 -.08 0 .1.1 0 0 0 0 .09.19.19 0 0 0 .1.1.24.24 0 0 0 .13 0s.07 0 .08 0a.07.07 0 0 0 -.06 0 .24.24 0 0 0 -.1-.1.3.3 0 0 0 -.12-.09z"/><path d="m31.49 26.15c.1.06.22.06.26 0s0-.16-.12-.22-.21-.07-.25 0 .01.15.11.22z" fill="#fa0204"/><path d="m31.65 26.22a.27.27 0 0 1 -.16-.06.25.25 0 0 1 -.11-.12.12.12 0 0 1 0-.13c.05-.07.17-.07.28 0s.17.18.12.25a.11.11 0 0 1 -.13.06zm-.17-.32s-.07 0-.08 0a.07.07 0 0 0 0 .09.35.35 0 0 0 .1.11.3.3 0 0 0 .14.05.1.1 0 0 0 .09 0c0-.05 0-.14-.11-.2a.27.27 0 0 0 -.14-.05z"/><path d="m30.86 26.24c.09.08.21.11.26.05s0-.17-.07-.26-.22-.11-.27-.05-.02.17.08.26z" fill="#fa0204"/><path d="m31 26.34a.43.43 0 0 1 -.16-.09c-.1-.1-.14-.22-.08-.29a.17.17 0 0 1 .14 0 .33.33 0 0 1 .16.09.31.31 0 0 1 .1.15.12.12 0 0 1 0 .13.12.12 0 0 1 -.16.01zm-.17-.12a.29.29 0 0 0 .14.08.11.11 0 0 0 .1 0 .11.11 0 0 0 0-.1.24.24 0 0 0 -.07-.2.27.27 0 0 0 -.14-.07.11.11 0 0 0 -.1 0c0 .05 0 .15.08.23z"/><path d="m30.52 26.3c.1.09.22.11.27.06s0-.18-.08-.26-.21-.1-.26-.1-.02.21.07.3z" fill="#fa0204"/><path d="m30.71 26.41a.4.4 0 0 1 -.16-.08.44.44 0 0 1 -.1-.15.13.13 0 0 1 0-.14.12.12 0 0 1 .14 0 .4.4 0 0 1 .16.08.65.65 0 0 1 .1.15.16.16 0 0 1 0 .14.13.13 0 0 1 -.14 0zm-.18-.41h-.07a.11.11 0 0 0 0 .1.24.24 0 0 0 .09.14.27.27 0 0 0 .14.07s.08 0 .1 0 0-.05 0-.1a.51.51 0 0 0 -.09-.13.29.29 0 0 0 -.14-.08z"/><path d="m30.23 26.33c.09.09.21.11.26.05s0-.17-.07-.26-.22-.11-.27-.05-.02.17.08.26z" fill="#fa0204"/><path d="m30.42 26.43h-.05a.33.33 0 0 1 -.16-.09.29.29 0 0 1 -.09-.15.14.14 0 0 1 0-.14.14.14 0 0 1 .13 0 .29.29 0 0 1 .16.09.36.36 0 0 1 .1.15.14.14 0 0 1 0 .14.14.14 0 0 1 -.09 0zm-.19-.37a.08.08 0 0 0 -.06 0 .11.11 0 0 0 0 .1.38.38 0 0 0 .09.13.29.29 0 0 0 .14.08.09.09 0 0 0 .11-.12.22.22 0 0 0 -.09-.13.29.29 0 0 0 -.14-.08z"/><path d="m31.16 26.18c.09.08.19.1.24.05s0-.15-.07-.23-.19-.1-.24-.05-.02.15.07.23z" fill="#fa0204"/><path d="m31.33 26.28a.27.27 0 0 1 -.18-.08c-.1-.09-.13-.21-.07-.27s.17 0 .26.05.13.21.07.27a.11.11 0 0 1 -.08.03zm-.17-.34h-.06s0 .14.07.21.18.09.22 0 0-.14-.07-.21a.28.28 0 0 0 -.16 0z"/><path d="m31.77 17.83-.63.75a2.25 2.25 0 0 1 -.56-1.28c0-.12 0-.24 0-.35a5.87 5.87 0 0 1 0-1l.88-.09a6.33 6.33 0 0 0 .06 1 2.32 2.32 0 0 0 .05.33 1.21 1.21 0 0 0 .2.64z" fill="#fff"/><path d="m31.14 18.61a2.32 2.32 0 0 1 -.56-1.3c0-.11 0-.23 0-.35a7.61 7.61 0 0 1 0-1l.91-.09a7 7 0 0 0 .06 1 2.88 2.88 0 0 0 .05.33 1.14 1.14 0 0 0 .26.61zm-.61-2.61a6.94 6.94 0 0 0 0 .93 3.39 3.39 0 0 0 0 .35 2.24 2.24 0 0 0 .54 1.26l.6-.72a1.31 1.31 0 0 1 -.25-.62 1.72 1.72 0 0 1 -.06-.34 6.6 6.6 0 0 1 -.06-1z"/><path d="m31.84 14.58a.47.47 0 0 1 -.33.16c-.2 0-.34-.3-.34-.3a.84.84 0 0 1 -.51.2c-.29 0-.55-.4-.55-.4s-.26.4-.55.4a.84.84 0 0 1 -.51-.2s-.14.3-.34.3a.47.47 0 0 1 -.33-.16l-.15-.17v.59l.2.15 1.28-.15.4-.2.4.2 1.28.13.21-.13v-.55z" fill="#ffe000"/><path d="m31.79 15.13-1.29-.13-.39-.19-.39.19-1.29.13-.2-.15v-.57a0 0 0 0 1 0 0l.15.17a.43.43 0 0 0 .31.15c.19 0 .32-.28.32-.29a.85.85 0 0 0 .5.19c.27 0 .53-.39.53-.39s.26.39.53.39a.85.85 0 0 0 .5-.19s.14.29.32.29a.43.43 0 0 0 .31-.15l.3-.18a0 0 0 0 1 0 0v.6l-.2.15zm-1.28-.13 1.28.13.21-.13v-.49l-.12.13a.48.48 0 0 1 -.34.17c-.18 0-.31-.21-.34-.29a.88.88 0 0 1 -.51.19c-.25 0-.49-.3-.55-.39-.06.09-.29.39-.55.39a.85.85 0 0 1 -.5-.19c0 .08-.17.29-.35.29a.43.43 0 0 1 -.34-.17l-.12-.13v.49l.19.14 1.24-.14.39-.19z"/><path d="m30.11 14.78s-1.35 0-1.68.33l.2.4.88-.23.6-.11.6.11.88.23.2-.4c-.33-.33-1.68-.33-1.68-.33z" fill="#ffe000"/><path d="m31.6 15.53-.89-.23-.6-.11-.6.11-.89.23-.21-.42c.33-.33 1.64-.34 1.69-.34s1.36 0 1.7.34zm-1.49-.38.61.11.86.23.19-.38a4.6 4.6 0 0 0 -3.32 0l.19.38.86-.23z"/><path d="m30.11 15.17s-1.23 0-1.59.34v.24l1.59-.22 1.59.22v-.24c-.36-.37-1.59-.34-1.59-.34z" fill="#ffe000"/><path d="m31.72 15.78-1.61-.23-1.61.23v-.28c.36-.36 1.54-.34 1.6-.34s1.24 0 1.6.34zm-1.61-.27 1.57.22v-.21c-.36-.35-1.56-.33-1.57-.33s-1.21 0-1.57.33v.21z"/><path d="m31.7 15.75c0 .25-.71.45-1.59.45s-1.59-.2-1.59-.45.71-.44 1.59-.44 1.59.2 1.59.44z" fill="#f00"/><path d="m30.11 16.22c-.9 0-1.61-.2-1.61-.47s.71-.46 1.61-.46 1.61.2 1.61.46-.72.47-1.61.47zm0-.89c-.85 0-1.57.19-1.57.42s.72.43 1.57.43 1.58-.19 1.58-.43-.69-.42-1.58-.42z"/><path d="m31.32 14.34a.15.15 0 1 1 -.29 0 .15.15 0 0 1 .14-.14.15.15 0 0 1 .15.14z" fill="#ffe000"/><path d="m31.17 14.51a.17.17 0 0 1 -.16-.17.16.16 0 0 1 .16-.16.17.17 0 0 1 .17.16.18.18 0 0 1 -.17.17zm0-.29a.13.13 0 0 0 -.12.12.13.13 0 0 0 .12.13.13.13 0 0 0 .13-.13.13.13 0 0 0 -.13-.12z"/><path d="m32.75 24.59c.09.08.21.09.26 0s0-.18-.06-.26a.2.2 0 0 0 -.26 0c-.06.07-.03.18.06.26z" fill="#fa0204"/><path d="m32.91 24.67a.23.23 0 0 1 -.15-.07.24.24 0 0 1 -.09-.14.12.12 0 0 1 0-.14.13.13 0 0 1 .13-.05.26.26 0 0 1 .16.07.42.42 0 0 1 .09.14.16.16 0 0 1 0 .14.13.13 0 0 1 -.14.05zm-.11-.36a.12.12 0 0 0 -.09 0 .14.14 0 0 0 0 .11.2.2 0 0 0 .08.12.19.19 0 0 0 .13.06.13.13 0 0 0 .11 0 .14.14 0 0 0 0-.11.23.23 0 0 0 -.08-.12.19.19 0 0 0 -.13-.06z"/><path d="m33.43 24.92c.09.07.21.08.26 0s0-.18-.06-.26a.18.18 0 0 0 -.26 0c-.06.06-.03.18.06.26z" fill="#fa0204"/><path d="m33.59 25a.23.23 0 0 1 -.15-.07.24.24 0 0 1 -.09-.14.12.12 0 0 1 0-.14.13.13 0 0 1 .13 0 .25.25 0 0 1 .16.06.46.46 0 0 1 .09.15.17.17 0 0 1 0 .14.17.17 0 0 1 -.14 0zm-.12-.37a.12.12 0 0 0 -.08 0 .11.11 0 0 0 0 .11.23.23 0 0 0 .08.12.19.19 0 0 0 .13.06.14.14 0 0 0 .11 0 .11.11 0 0 0 0-.1.26.26 0 0 0 -.08-.13.24.24 0 0 0 -.13-.05z"/><path d="m32.21 13.23c-.09 0-.21-.27-.21-.27s0 .15-.23.15-.45-.45-.45-.45a.6.6 0 0 1 -.49.27 1.33 1.33 0 0 1 -.71-.37 1.37 1.37 0 0 1 -.72.37.57.57 0 0 1 -.48-.27s-.24.45-.46.45-.23-.15-.23-.15-.12.27-.2.27.11.21.11.21l.43.09 1.23-.29.32-.11.32.11 1.23.29.43-.09s.19-.21.11-.21z" fill="#ffe000"/><path d="m31.67 13.55-1.23-.29-.31-.11-.32.11-1.23.29-.44-.09c-.06-.07-.15-.18-.13-.22s0 0 0 0 .14-.16.18-.27v-.07.1s0 .13.21.13.44-.43.44-.44a.58.58 0 0 0 .47.26 1.34 1.34 0 0 0 .7-.36 1.39 1.39 0 0 0 .7.36.54.54 0 0 0 .47-.26s.23.44.43.44.39-.13.39-.13v-.08.08c0 .11.14.27.19.27s-.08.15-.14.22zm-1.55-.45.32.12 1.23.29.42-.08a.66.66 0 0 0 .12-.18c-.08 0-.16-.15-.2-.24a.25.25 0 0 1 -.24.12c-.19 0-.4-.33-.45-.43a.62.62 0 0 1 -.49.25 1.33 1.33 0 0 1 -.71-.36 1.41 1.41 0 0 1 -.72.36.6.6 0 0 1 -.48-.25c-.06.1-.26.43-.46.43a.23.23 0 0 1 -.23-.12c0 .09-.13.24-.2.24a.8.8 0 0 0 .13.18l.42.08 1.22-.29z"/><path d="m30.23 13c0 .08-.11.09-.11.09s-.12.03-.12-.09a6 6 0 0 0 -1.87.4v.6l1.26-.45h.61l.13-.11.12.11h.6l1.25.45v-.56a6 6 0 0 0 -1.87-.44z" fill="#ffe000"/><path d="m32.12 14-1.29-.45h-.59l-.12-.1-.12.1h-.6l-1.28.45v-.59a6.33 6.33 0 0 1 1.88-.41c0 .06.08.07.09.07s.09 0 .09-.07a0 0 0 0 1 0 0 6.45 6.45 0 0 1 1.89.42zm-1.87-.5h.59l1.24.44v-.51a7 7 0 0 0 -1.84-.43c0 .08-.08.1-.12.1s-.13 0-.13-.1a6.89 6.89 0 0 0 -1.83.42v.58l1.24-.44h.6l.14-.11z"/><path d="m32.09 13.81a5.2 5.2 0 0 0 -4 0l-.09.29v.12a3.93 3.93 0 0 1 1.4-.55 1.42 1.42 0 0 1 .71.11 1.37 1.37 0 0 1 .7-.11 4 4 0 0 1 1.41.55v-.12z" fill="#ffe000"/><path d="m32.23 14.26a4.21 4.21 0 0 0 -1.39-.54 1.35 1.35 0 0 0 -.69.11 1.37 1.37 0 0 0 -.7-.11 4.21 4.21 0 0 0 -1.39.54l-.06-.16.18-.3a5.13 5.13 0 0 1 4 0l.18.3zm-4.23-.16v.09a4 4 0 0 1 1.39-.54 1.44 1.44 0 0 1 .71.11 1.39 1.39 0 0 1 .71-.11 4.19 4.19 0 0 1 1.39.54v-.09l-.16-.27a4.71 4.71 0 0 0 -2-.4 4.6 4.6 0 0 0 -2 .4z"/><path d="m30.41 14a.31.31 0 0 1 -.6 0 .31.31 0 0 1 .6 0z" fill="#ffe000"/><path d="m30.11 14.24a.29.29 0 0 1 -.31-.24.28.28 0 0 1 .31-.26.29.29 0 0 1 .32.26.3.3 0 0 1 -.32.24zm0-.48a.23.23 0 1 0 .28.22.26.26 0 0 0 -.28-.22z"/><path d="m30.6 14.27a.23.23 0 0 1 -.46 0 .23.23 0 0 1 .46 0z" fill="#ffe000"/><path d="m30.37 14.51a.25.25 0 0 1 -.25-.24.25.25 0 0 1 .5 0 .25.25 0 0 1 -.25.24zm0-.43a.2.2 0 1 0 0 .39.2.2 0 1 0 0-.39z"/><path d="m29.62 14.27a.23.23 0 0 0 .46 0 .23.23 0 0 0 -.46 0z" fill="#ffe000"/><path d="m29.85 14.51a.25.25 0 0 1 -.25-.24.25.25 0 0 1 .5 0 .25.25 0 0 1 -.25.24zm0-.43a.2.2 0 1 0 .21.19.2.2 0 0 0 -.21-.19z"/><path d="m30.31 14.29a.2.2 0 1 1 -.2-.16.18.18 0 0 1 .2.16z" fill="#ffe000"/><path d="m30.11 14.47a.18.18 0 1 1 .22-.18.2.2 0 0 1 -.22.18zm0-.32a.14.14 0 1 0 .18.14.16.16 0 0 0 -.18-.14z"/><path d="m32 14.43s.11-.36.27-.3 0 .21 0 .21a.56.56 0 0 1 -.17.14c-.1.04-.1-.05-.1-.05z" fill="#ffe000"/><path d="m32.08 14.51s0-.07 0-.07a.59.59 0 0 1 .2-.3.12.12 0 0 1 .1 0s.07 0 .08.08-.08.16-.09.17a.46.46 0 0 1 -.17.13zm0-.08a.06.06 0 0 0 0 0 .5.5 0 0 0 .16-.13s.09-.09.08-.13 0 0 0 0h-.07a.54.54 0 0 0 -.19.26z"/><path d="m32.21 14.52a.15.15 0 0 1 -.3 0 .15.15 0 0 1 .3 0z" fill="#ffe000"/><path d="m32.06 14.69a.17.17 0 0 1 -.17-.17.17.17 0 0 1 .34 0 .17.17 0 0 1 -.17.17zm0-.29a.12.12 0 0 0 -.13.12.13.13 0 0 0 .26 0 .12.12 0 0 0 -.13-.12z"/><circle cx="31.81" cy="14.51" fill="#ffe000" r=".18"/><path d="m31.81 14.7a.2.2 0 1 1 .2-.19.2.2 0 0 1 -.2.19zm0-.35a.16.16 0 0 0 -.16.16.16.16 0 0 0 .32 0 .16.16 0 0 0 -.16-.16z"/><path d="m28.9 14.34a.15.15 0 0 0 .15.15.15.15 0 0 0 .14-.15.14.14 0 0 0 -.14-.14.15.15 0 0 0 -.15.14z" fill="#ffe000"/><path d="m29.05 14.51a.18.18 0 0 1 -.17-.17.17.17 0 0 1 .17-.16.16.16 0 0 1 .16.16.17.17 0 0 1 -.16.17zm0-.29a.13.13 0 0 0 -.13.12.13.13 0 0 0 .13.13.13.13 0 0 0 .12-.13.13.13 0 0 0 -.12-.12z"/><path d="m28.18 14.43s-.11-.36-.27-.3 0 .21 0 .21a.56.56 0 0 0 .17.14c.12.04.1-.05.1-.05z" fill="#ffe000"/><path d="m28.14 14.51h-.05a.45.45 0 0 1 -.18-.13s-.1-.1-.09-.17 0-.06.08-.08a.11.11 0 0 1 .1 0 .59.59 0 0 1 .2.3s0 .05 0 .07zm-.2-.37a.08.08 0 0 0 -.06 0s.05.11.08.13a.69.69 0 0 0 .16.13h.06s0 0 0 0-.07-.23-.18-.28z"/><path d="m28 14.52a.15.15 0 1 0 .3 0 .15.15 0 0 0 -.3 0z" fill="#ffe000"/><path d="m28.16 14.69a.17.17 0 0 1 -.17-.17.17.17 0 0 1 .34 0 .17.17 0 0 1 -.17.17zm0-.29a.12.12 0 0 0 -.13.12.13.13 0 0 0 .26 0 .12.12 0 0 0 -.13-.12z"/><path d="m28.23 14.51a.18.18 0 0 0 .36 0 .18.18 0 0 0 -.36 0z" fill="#ffe000"/><path d="m28.41 14.7a.2.2 0 1 1 .2-.19.2.2 0 0 1 -.2.19zm0-.35a.16.16 0 0 0 -.16.16.16.16 0 0 0 .32 0 .16.16 0 0 0 -.16-.16z"/><circle cx="31.36" cy="12.55" fill="#ffe000" r=".14"/><path d="m31.36 12.71a.16.16 0 0 1 -.16-.16.17.17 0 0 1 .16-.17.18.18 0 0 1 .17.17.17.17 0 0 1 -.17.16zm0-.29a.12.12 0 0 0 -.12.13.12.12 0 0 0 .12.12.12.12 0 0 0 .13-.12.13.13 0 0 0 -.13-.13z"/><path d="m30.42 12.26a.31.31 0 0 1 -.62 0 .31.31 0 0 1 .62 0z" fill="#ffe000"/><path d="m30.11 12.57a.32.32 0 0 1 -.33-.31.33.33 0 0 1 .66 0 .32.32 0 0 1 -.33.31zm0-.57a.27.27 0 0 0 -.29.26.29.29 0 0 0 .58 0 .27.27 0 0 0 -.29-.26z"/><path d="m30.35 10.94a.23.23 0 0 1 -.24.23.23.23 0 1 1 0-.45.23.23 0 0 1 .24.22z" fill="#ffe000"/><path d="m30.11 11.19a.25.25 0 1 1 0-.49.25.25 0 1 1 0 .49zm0-.45a.21.21 0 1 0 0 .41.21.21 0 1 0 0-.41z"/><path d="m30.07 9.08h.09v.22h-.09z"/><path d="m31.45 10.66s.12-.33.34-.41-.21.51-.21.51h-.1z" fill="#ffe000"/><path d="m31.59 10.78h-.13v-.11s.12-.35.36-.43h.08s-.2.43-.28.53zm-.1 0h.08a1.33 1.33 0 0 0 .27-.48c-.2.06-.31.35-.33.4z"/><path d="m30.37 10.27c0 .11-.12.19-.26.19s-.25-.08-.25-.19a.23.23 0 0 1 .25-.19c.14 0 .26.09.26.19z" fill="#ffe000"/><path d="m30.11 10.48a.24.24 0 0 1 -.27-.21.25.25 0 0 1 .27-.21c.15 0 .28.1.28.21s-.13.21-.28.21zm0-.38c-.13 0-.24.08-.24.17s.11.17.24.17.24-.07.24-.17-.11-.17-.24-.17z"/><path d="m31.5 10.71s.5-.13.19.16-.17 0-.17 0z" fill="#ffe000"/><path d="m31.5 11s0-.08 0-.12v-.2c.06 0 .27-.06.31 0s0 .1-.11.18-.17.14-.2.14zm0-.3v.17a.41.41 0 0 0 0 .08.57.57 0 0 0 .18-.13c.1-.1.09-.13.09-.13s-.14.01-.25.03z"/><path d="m30.61 10.63a.2.2 0 0 1 -.21.19.19.19 0 1 1 0-.38.2.2 0 0 1 .21.19z" fill="#ffe000"/><path d="m30.4 10.84a.21.21 0 1 1 0-.42.21.21 0 1 1 0 .42zm0-.38a.18.18 0 0 0 -.18.17.17.17 0 0 0 .18.17.17.17 0 0 0 .19-.17.18.18 0 0 0 -.19-.17z"/><path d="m30.11 11.68c-.7 0-1.27-.41-1.27-.91a1.12 1.12 0 0 1 .93-.87c-.54.13-.9.53-.9.83 0 .48.55.87 1.23.87s1.23-.39 1.23-.87c0-.29-.37-.7-.9-.83.55.14.93.57.93.87.02.5-.55.91-1.25.91z"/><path d="m30.11 9.23s-.55.19-.12.43h.12.12c.43-.24-.12-.43-.12-.43z" fill="#ffe000"/><path d="m30.23 9.68h-.12-.12c-.12-.06-.18-.13-.17-.21s.28-.25.29-.25.28.1.3.25-.06.15-.18.21zm-.12-.06h.12q.15-.09.15-.18c0-.1-.19-.18-.27-.21s-.26.11-.26.21 0 .12.15.18z"/><path d="m29.61 10.63a.2.2 0 0 0 .21.19.19.19 0 1 0 0-.38.2.2 0 0 0 -.21.19z" fill="#ffe000"/><path d="m29.82 10.84a.21.21 0 1 1 0-.42.21.21 0 1 1 0 .42zm0-.38a.18.18 0 0 0 -.19.17.17.17 0 0 0 .19.17.17.17 0 0 0 .18-.17.18.18 0 0 0 -.18-.17z"/><path d="m30.95 10.76-.13.22.19.09.18.02v-.1-.07l-.2-.18z" fill="#ffe000"/><path d="m31.21 11.11h-.2l-.22-.1.14-.25h.07l.21.19zm-.21-.06h.15v-.14l-.15-.15-.12.21z"/><path d="m30.44 9.87a.07.07 0 0 1 0 .05 1.65 1.65 0 0 0 -.32 0 1.12 1.12 0 0 0 -.32 0 .09.09 0 0 1 0-.05c0-.13.15-.23.33-.23s.31.1.31.23z" fill="#ffe000"/><path d="m30.45 10a1.38 1.38 0 0 0 -.64 0 .13.13 0 0 1 0-.06c0-.14.16-.25.35-.25s.35.11.35.25a.13.13 0 0 1 0 .06zm-.34-.09a1.1 1.1 0 0 1 .31 0c0-.11-.14-.21-.31-.21s-.31.1-.31.21a1.1 1.1 0 0 1 .31-.05z"/><path d="m30.32 10.59a.21.21 0 1 1 -.21-.19.21.21 0 0 1 .21.19z" fill="#ffe000"/><path d="m30.11 10.8a.22.22 0 0 1 -.23-.21.23.23 0 0 1 .23-.21.22.22 0 0 1 .23.21.22.22 0 0 1 -.23.21zm0-.38a.18.18 0 1 0 .19.17.19.19 0 0 0 -.19-.17z"/><ellipse cx="30.36" cy="8.97" fill="#ffe000" rx=".18" ry=".13"/><path d="m30.36 9.13a.18.18 0 0 1 -.2-.16c0-.08.09-.15.2-.15s.21.07.21.15-.09.16-.21.16zm0-.27c-.08 0-.16.05-.16.11s.08.12.16.12.17-.05.17-.12-.08-.11-.17-.11z"/><ellipse cx="29.86" cy="8.97" fill="#ffe000" rx=".18" ry=".13"/><path d="m29.86 9.13a.18.18 0 0 1 -.2-.16c0-.08.09-.15.2-.15s.2.07.2.15a.18.18 0 0 1 -.2.16zm0-.27c-.09 0-.16.05-.16.11s.07.12.16.12.14-.09.14-.09 0-.14-.14-.14z"/><path d="m30.07 8.72h.09v.22h-.09z"/><path d="m30.24 8.62a.13.13 0 1 1 -.13-.12.13.13 0 0 1 .13.12z" fill="#ffe000"/><path d="m30.11 8.76a.14.14 0 1 1 0-.28.14.14 0 1 1 0 .28zm0-.24a.1.1 0 1 0 .11.1.11.11 0 0 0 -.11-.1z"/><path d="m31.19 10.92s.26 0 .3-.11.2.06.2.06v.13l-.16.11-.31-.05h-.13z" fill="#ffe000"/><path d="m31.54 11.17-.32-.05h-.16l.12-.17c.06 0 .25 0 .28-.1a.07.07 0 0 1 .05 0c.07 0 .17.08.18.09v.19zm-.42-.12h.11.3l.14-.1v-.16s-.11-.08-.14-.07 0 0 0 0-.26.12-.31.12z"/><path d="m31.08 10.7a.12.12 0 0 1 -.12.11.12.12 0 1 1 0-.23.12.12 0 0 1 .12.12z" fill="#ffe000"/><path d="m31 10.83a.14.14 0 1 1 .14-.13.14.14 0 0 1 -.14.13zm0-.23a.1.1 0 1 0 0 .19.1.1 0 0 0 .1-.09.1.1 0 0 0 -.1-.1z"/><ellipse cx="31.41" cy="10.73" fill="#ffe000" rx=".16" ry=".15"/><path d="m31.41 10.89a.17.17 0 0 1 -.17-.16.18.18 0 0 1 .17-.17.18.18 0 0 1 .18.17.17.17 0 0 1 -.18.16zm0-.29a.13.13 0 0 0 -.13.13.12.12 0 0 0 .13.12.13.13 0 0 0 .14-.12.13.13 0 0 0 -.14-.13z"/><path d="m28.77 10.66s-.12-.33-.34-.41.21.51.21.51h.1z" fill="#ffe000"/><path d="m28.64 10.78c-.08-.1-.33-.45-.28-.53a.08.08 0 0 1 .08 0c.24.08.35.41.36.43v.11zm-.25-.52s.11.28.26.48h.08v-.06c0-.05-.13-.34-.33-.4z"/><path d="m28.72 10.71s-.5-.13-.19.16.17 0 .17 0z" fill="#ffe000"/><path d="m28.72 11s-.08 0-.2-.14-.13-.14-.11-.18.25 0 .31 0v.2s0 .1 0 .12zm-.2-.32a.1.1 0 0 0 -.07 0s0 0 .1.13a.49.49 0 0 0 .17.13.41.41 0 0 0 0-.08v-.17z"/><path d="m30.52 21.3c0 .13.06.23.13.23s.14-.09.15-.22-.06-.23-.13-.24-.14.1-.15.23z" fill="#fa0204"/><path d="m30.65 21.55c-.09 0-.15-.11-.15-.25a.29.29 0 0 1 .05-.17.15.15 0 0 1 .12-.08c.09 0 .15.12.15.26a.42.42 0 0 1 -.05.17.13.13 0 0 1 -.12.07zm0-.46a.09.09 0 0 0 -.08.06.25.25 0 0 0 -.05.15c0 .11.05.21.11.21s.06 0 .08-.05a.25.25 0 0 0 .05-.15c0-.12-.05-.21-.11-.22z"/><path d="m30.68 21.69c0 .13.05.24.13.24s.14-.1.14-.23-.05-.23-.13-.23-.14.1-.14.22z" fill="#fa0204"/><path d="m30.81 22c-.09 0-.16-.12-.15-.26a.34.34 0 0 1 .05-.17.13.13 0 0 1 .11-.07c.09 0 .16.11.15.25a.35.35 0 0 1 0 .18.15.15 0 0 1 -.16.07zm0-.46a.1.1 0 0 0 -.08.05.37.37 0 0 0 0 .15c0 .12 0 .22.11.22a.09.09 0 0 0 .08-.06.24.24 0 0 0 0-.15c0-.11 0-.21-.11-.21z"/><path d="m30.82 22c0 .12.05.22.12.22s.13-.09.13-.21-.05-.21-.12-.21-.13.12-.13.2z" fill="#fa0204"/><path d="m30.94 22.27c-.09 0-.15-.11-.14-.24a.42.42 0 0 1 0-.16.14.14 0 0 1 .11-.06.13.13 0 0 1 .11.07.41.41 0 0 1 0 .16c.07.13-.02.23-.08.23zm-.1-.24c0 .11 0 .2.1.2.06 0 .11-.08.11-.19a.32.32 0 0 0 0-.14s0 0-.07 0-.05 0-.07 0a.18.18 0 0 0 0 .13z"/><path d="m31 22.32c0 .12.05.22.12.22s.13-.09.13-.21 0-.21-.12-.22-.13.09-.13.21z" fill="#fa0204"/><path d="m31.11 22.56c-.05 0-.08 0-.11-.08a.38.38 0 0 1 0-.16c0-.13.07-.23.15-.23a.21.21 0 0 1 .14.24c-.03.13-.1.23-.18.23zm0-.43c-.06 0-.11.09-.11.19a.26.26 0 0 0 0 .14s0 .06.07.06.11-.09.11-.19 0-.19-.1-.2z"/><path d="m31.14 22.63c0 .12.05.22.12.22s.13-.09.13-.21 0-.21-.11-.21-.13.09-.14.2z" fill="#fa0204"/><path d="m31.26 22.87a.11.11 0 0 1 -.1-.08.27.27 0 0 1 0-.16c0-.13.07-.23.16-.22s.14.1.13.23-.11.23-.19.23zm0-.43c-.05 0-.11.09-.11.19a.33.33 0 0 0 0 .15s0 0 .07 0 .11-.08.11-.19 0-.19-.1-.2z"/><path d="m31.32 22.9c0 .12 0 .22.08.24s.14-.07.17-.19 0-.22-.09-.23-.14.07-.16.18z" fill="#fa0204"/><path d="m31.42 23.16a.13.13 0 0 1 -.09-.09.32.32 0 0 1 0-.17c0-.13.1-.22.18-.2a.12.12 0 0 1 .09.09.22.22 0 0 1 0 .16.3.3 0 0 1 -.06.15.14.14 0 0 1 -.12.06zm0-.42c-.05 0-.11.07-.12.17a.33.33 0 0 0 0 .14.08.08 0 0 0 .15 0 .26.26 0 0 0 .06-.13.35.35 0 0 0 0-.15s0-.06-.06-.06z"/><path d="m31.47 23.17c0 .11 0 .22.09.23s.14-.07.16-.19 0-.22-.08-.23-.15.07-.17.19z" fill="#fa0204"/><path d="m31.57 23.42a.15.15 0 0 1 -.1-.09.47.47 0 0 1 0-.17.35.35 0 0 1 .07-.15.13.13 0 0 1 .12-.05.13.13 0 0 1 .09.09.29.29 0 0 1 0 .16c-.03.12-.1.21-.18.21zm-.08-.25a.32.32 0 0 0 0 .14.14.14 0 0 0 .06.07c.06 0 .12-.07.14-.17a.25.25 0 0 0 0-.15s0-.06-.06-.06-.05 0-.08 0a.26.26 0 0 0 -.06.13z"/><path d="m31.65 23.47c0 .12 0 .22.08.23s.14-.07.17-.19 0-.21-.09-.23-.14.07-.16.19z" fill="#fa0204"/><path d="m31.75 23.72a.13.13 0 0 1 -.09-.09.29.29 0 0 1 0-.16.3.3 0 0 1 .06-.15.14.14 0 0 1 .12-.06.12.12 0 0 1 .09.09.32.32 0 0 1 0 .17c-.04.12-.11.2-.18.2zm-.08-.25a.38.38 0 0 0 0 .15s0 .06.07.06.12-.07.14-.17a.32.32 0 0 0 0-.14.14.14 0 0 0 -.06-.07.12.12 0 0 0 -.09 0 .39.39 0 0 0 0 .13z"/><path d="m31.85 23.66c0 .11 0 .22.09.23s.14-.07.16-.19 0-.22-.09-.23-.14.07-.16.19z" fill="#fa0204"/><path d="m32 23.91c-.08 0-.12-.13-.1-.25s.11-.22.19-.21.12.13.1.26-.19.2-.19.2zm.05-.42c-.05 0-.11.08-.13.17s0 .2.07.21.12-.07.14-.17 0-.2-.07-.21z"/><path d="m32.05 23.94c0 .12 0 .22.09.23s.14-.07.16-.19 0-.21-.09-.23-.14.07-.16.19z" fill="#fa0204"/><path d="m32.15 24.19a.13.13 0 0 1 -.15-.09.42.42 0 0 1 0-.16.3.3 0 0 1 .07-.15.14.14 0 0 1 .12-.06.13.13 0 0 1 .09.09.32.32 0 0 1 0 .17c.02.12-.05.2-.13.2zm.05-.42a.13.13 0 0 0 -.07 0 .26.26 0 0 0 -.06.13.24.24 0 0 0 0 .15s0 .06.06.06.12-.07.14-.17a.22.22 0 0 0 0-.14.09.09 0 0 0 -.06-.07z"/><path d="m32.26 24.15c0 .12 0 .22.08.23s.15-.07.17-.18 0-.22-.09-.24-.14.04-.16.19z" fill="#fa0204"/><path d="m32.36 24.4a.13.13 0 0 1 -.09-.09.29.29 0 0 1 0-.16.24.24 0 0 1 .07-.15.12.12 0 0 1 .11-.06.12.12 0 0 1 .09.09.32.32 0 0 1 0 .17c-.04.12-.11.2-.18.2zm-.08-.25a.38.38 0 0 0 0 .15s0 .06.07.06.12-.07.14-.17a.32.32 0 0 0 0-.14.14.14 0 0 0 -.06-.07.12.12 0 0 0 -.09 0 .39.39 0 0 0 0 .13z"/><path d="m32.46 24.31v.24s.15 0 .19-.15 0-.22 0-.25-.15.05-.19.16z" fill="#fa0204"/><path d="m32.53 24.57a.14.14 0 0 1 -.08-.11.47.47 0 0 1 0-.16.39.39 0 0 1 .1-.14.14.14 0 0 1 .12 0 .15.15 0 0 1 .08.11.34.34 0 0 1 -.12.3.16.16 0 0 1 -.1 0zm.1-.4h-.07a.36.36 0 0 0 -.08.12.39.39 0 0 0 0 .15.1.1 0 0 0 0 .07.1.1 0 0 0 .09 0 .36.36 0 0 0 .08-.12.24.24 0 0 0 0-.14.12.12 0 0 0 -.05-.08z"/><path d="m30.25 9a.13.13 0 0 1 -.14.13.14.14 0 0 1 -.11-.13.13.13 0 0 1 .14-.12.13.13 0 0 1 .11.12z" fill="#ffe000"/><path d="m30.11 9.17a.16.16 0 0 1 -.11-.17.16.16 0 0 1 .32 0 .16.16 0 0 1 -.21.17zm0-.25a.11.11 0 0 0 -.11.08.12.12 0 0 0 .24 0 .11.11 0 0 0 -.13-.08z"/><path d="m29.27 10.76.14.22-.2.09-.18.02v-.1-.07l.2-.18z" fill="#ffe000"/><path d="m29 11.11v-.2l.22-.19h.06l.14.25-.22.1zm0-.18v.14h.15l.18-.07-.12-.21z"/><path d="m29 10.92s-.26 0-.3-.11-.2.06-.2.06v.13l.16.11.34-.01h.13z" fill="#ffe000"/><path d="m28.68 11.17-.17-.12v-.19s.11-.1.18-.09a.07.07 0 0 1 .05 0c0 .07.22.1.29.1l.11.17h-.16zm-.13-.17.14.1.3-.05h.11l-.1-.11c-.05 0-.26 0-.31-.12s0 0 0 0-.1 0-.14.07z"/><path d="m29.14 10.7a.12.12 0 0 0 .13.11.12.12 0 0 0 .12-.11.12.12 0 0 0 -.12-.12.12.12 0 0 0 -.13.12z" fill="#ffe000"/><path d="m29.27 10.83a.14.14 0 1 1 .14-.13.14.14 0 0 1 -.14.13zm0-.23a.1.1 0 1 0 0 .19.1.1 0 0 0 .1-.09.1.1 0 0 0 -.1-.1z"/><path d="m28.65 10.73a.15.15 0 0 0 .16.14.15.15 0 0 0 .15-.14.15.15 0 0 0 -.15-.15.16.16 0 0 0 -.16.15z" fill="#ffe000"/><path d="m28.81 10.89a.17.17 0 0 1 -.18-.16.18.18 0 0 1 .18-.17.18.18 0 0 1 .17.17.17.17 0 0 1 -.17.16zm0-.29a.13.13 0 0 0 -.14.13.13.13 0 0 0 .14.12.12.12 0 0 0 .13-.12.13.13 0 0 0 -.13-.13z"/><path d="m30.7 12.59a.26.26 0 0 1 -.26.26.26.26 0 0 1 -.26-.26.26.26 0 0 1 .26-.26.25.25 0 0 1 .26.26z" fill="#ffe000"/><path d="m30.44 12.87a.29.29 0 0 1 -.28-.28.28.28 0 0 1 .28-.28.27.27 0 0 1 .28.28.28.28 0 0 1 -.28.28zm0-.52a.24.24 0 0 0 -.24.24.24.24 0 1 0 .48 0 .24.24 0 0 0 -.24-.24z"/><path d="m29.52 12.59a.26.26 0 0 0 .52 0 .26.26 0 0 0 -.52 0z" fill="#ffe000"/><path d="m29.78 12.87a.29.29 0 0 1 -.28-.28.28.28 0 0 1 .56 0 .29.29 0 0 1 -.28.28zm0-.52a.24.24 0 0 0 -.24.24.24.24 0 1 0 .48 0 .24.24 0 0 0 -.24-.24z"/><ellipse cx="30.11" cy="12.55" fill="#ffe000" rx=".22" ry=".2"/><path d="m30.11 12.77a.23.23 0 1 1 .24-.22.23.23 0 0 1 -.24.22zm0-.41a.2.2 0 0 0 -.2.19.2.2 0 0 0 .4 0 .2.2 0 0 0 -.2-.19z"/><path d="m28.73 12.55a.14.14 0 0 0 .14.14.15.15 0 0 0 .15-.14.15.15 0 0 0 -.15-.15.15.15 0 0 0 -.14.15z" fill="#ffe000"/><path d="m28.87 12.71a.16.16 0 0 1 -.16-.16.17.17 0 0 1 .16-.17.18.18 0 0 1 .17.17.17.17 0 0 1 -.17.16zm0-.29a.12.12 0 0 0 -.12.13.12.12 0 0 0 .12.12.12.12 0 0 0 .13-.12.13.13 0 0 0 -.13-.13z"/><path d="m30.11 10.92s-2 0-1.67.48h.31l.72-.06.49-.08h.16.14l.49.08.72.06h.31c.34-.48-1.67-.48-1.67-.48z" fill="#ffe000"/><path d="m28.75 11.44h-.32a.17.17 0 0 1 0-.18c.17-.33 1.65-.33 1.71-.33.06 0 1.54 0 1.71.33a.17.17 0 0 1 0 .18h-.32-.72l-.49-.08h-.14-.16l-.48.08zm-.3-.06h.3l.72-.06.49-.08h.16.15l.48.08.72.06h.3a.13.13 0 0 0 0-.13c-.16-.31-1.66-.31-1.68-.31s-1.52 0-1.68.31a.13.13 0 0 0 .04.13z"/><path d="m29.23 19.66c0 .1 0 .2.08.2s.12-.07.13-.18 0-.2-.08-.21-.12.08-.13.19z" fill="#fa0204"/><path d="m29.32 19.88s-.06 0-.08-.07a.41.41 0 0 1 0-.16c0-.12.08-.2.15-.2s.11.11.1.23-.1.2-.17.2zm0-.39s-.09.07-.1.17a.53.53 0 0 0 0 .13s0 .05.06.05.09-.06.1-.16 0-.18-.06-.19z"/><path d="m31.81 11.42a4.36 4.36 0 0 0 -1.7-.25 4.36 4.36 0 0 0 -1.7.25.31.31 0 0 0 0 .44h.28l.77-.16.56-.05h.13.11l.56.05.77.16h.28a.31.31 0 0 0 -.06-.44z" fill="#ffe000"/><path d="m31.56 11.9-.78-.16-.55-.06h-.11-.13l-.56.06-.77.16h-.29a.33.33 0 0 1 0-.47 4.49 4.49 0 0 1 1.71-.25 4.46 4.46 0 0 1 1.71.25.33.33 0 0 1 0 .47zm-1.44-.28h.11.56l.77.16h.27a.29.29 0 0 0 0-.41 4.65 4.65 0 0 0 -1.69-.24 4.65 4.65 0 0 0 -1.69.24.29.29 0 0 0 0 .41h.27l.77-.16h.56z"/><path d="m30.27 21.12c-.09.09-.13.2-.08.25s.16 0 .25-.08.12-.2.08-.25-.16-.04-.25.08z" fill="#fa0204"/><path d="m30.25 21.41a.08.08 0 0 1 -.07 0c-.06-.05 0-.18.07-.28.1-.1.22-.13.28-.07s0 .18-.08.28a.31.31 0 0 1 -.14.09zm.21-.37a.28.28 0 0 0 -.18.09c-.08.08-.12.18-.08.22a.07.07 0 0 0 .09 0 .29.29 0 0 0 .14-.08c.08-.08.11-.18.07-.22z"/><path d="m30.31 21.38c-.09.09-.12.2-.07.25s.16 0 .25-.07.12-.21.07-.26-.16-.01-.25.08z" fill="#fa0204"/><path d="m30.3 21.67a.11.11 0 0 1 -.08 0s0-.07 0-.12a.36.36 0 0 1 .1-.15.36.36 0 0 1 .15-.1.14.14 0 0 1 .13 0 .18.18 0 0 1 0 .13.44.44 0 0 1 -.1.15.29.29 0 0 1 -.2.09zm0-.28a.28.28 0 0 0 -.09.14s0 .07 0 .09.14 0 .22-.08a.51.51 0 0 0 .09-.13s0-.07 0-.09-.05 0-.09 0a.26.26 0 0 0 -.13.08z"/><path d="m30.3 21.7c-.08.08-.11.18-.07.22s.15 0 .23-.06.11-.19.06-.23-.14-.01-.22.07z" fill="#fa0204"/><path d="m30.29 22h-.07a.1.1 0 0 1 0-.12.28.28 0 0 1 .09-.14c.09-.09.2-.12.25-.06s0 .16-.07.25a.51.51 0 0 1 -.13.09zm.18-.33a.3.3 0 0 0 -.16.08.37.37 0 0 0 -.07.12s0 .06 0 .08a.08.08 0 0 0 .07 0 .23.23 0 0 0 .12-.08c.08-.08.1-.16.07-.2z"/><path d="m30.29 22c-.08.08-.11.18-.07.22s.15 0 .23-.07.11-.18.07-.22-.15-.02-.23.07z" fill="#fa0204"/><path d="m30.28 22.26a.09.09 0 0 1 -.07 0s0-.06 0-.11a.42.42 0 0 1 .09-.14.31.31 0 0 1 .13-.08.12.12 0 0 1 .12 0 .12.12 0 0 1 0 .12.24.24 0 0 1 -.09.14.31.31 0 0 1 -.13.08zm.18-.33a.38.38 0 0 0 -.11.08.28.28 0 0 0 -.08.12.08.08 0 0 0 0 .08.07.07 0 0 0 .08 0 .25.25 0 0 0 .12-.07.37.37 0 0 0 .07-.12.08.08 0 0 0 0-.08z"/><path d="m30.31 22.27c-.09.07-.13.17-.09.22s.14 0 .23 0 .13-.17.09-.22-.14-.08-.23 0z" fill="#fa0204"/><path d="m30.28 22.53a.11.11 0 0 1 -.08 0 .13.13 0 0 1 0-.12.28.28 0 0 1 .09-.13.34.34 0 0 1 .15-.07.1.1 0 0 1 .11 0 .1.1 0 0 1 0 .12.28.28 0 0 1 -.1.12.29.29 0 0 1 -.14.08zm.19-.31a.34.34 0 0 0 -.12.06.44.44 0 0 0 -.09.11s0 .07 0 .08a.11.11 0 0 0 .08 0 .28.28 0 0 0 .13-.07.21.21 0 0 0 .08-.11.06.06 0 0 0 0-.08z"/><path d="m30.31 22.54c-.09.07-.13.17-.09.22s.14 0 .23-.05.13-.17.09-.21-.14-.03-.23.04z" fill="#fa0204"/><path d="m30.28 22.8a.11.11 0 0 1 -.08 0 .13.13 0 0 1 0-.12.26.26 0 0 1 .09-.12.37.37 0 0 1 .15-.08.1.1 0 0 1 .11 0 .1.1 0 0 1 0 .12.31.31 0 0 1 -.1.13.27.27 0 0 1 -.14.07zm.19-.31a.25.25 0 0 0 -.12.07.31.31 0 0 0 -.09.11.11.11 0 0 0 0 .08.11.11 0 0 0 .08 0 .38.38 0 0 0 .13-.06.26.26 0 0 0 .08-.11s0-.07 0-.08a.06.06 0 0 0 -.08-.01z"/><path d="m30.31 22.83c-.09.07-.13.17-.09.21s.14 0 .23 0 .13-.17.09-.22-.14-.07-.23.01z" fill="#fa0204"/><path d="m30.28 23.09a.11.11 0 0 1 -.08 0c0-.06 0-.17.09-.25a.34.34 0 0 1 .15-.07.1.1 0 0 1 .11 0 .1.1 0 0 1 0 .12.28.28 0 0 1 -.1.12.31.31 0 0 1 -.17.08zm.19-.32a.34.34 0 0 0 -.12.06c-.09.07-.12.16-.09.19s.12 0 .21-.05a.21.21 0 0 0 .08-.11.06.06 0 0 0 0-.08.06.06 0 0 0 -.08-.01z"/><path d="m30.27 23.14c-.08.07-.12.17-.09.22s.15 0 .24-.05.12-.17.08-.22-.14-.02-.23.05z" fill="#fa0204"/><path d="m30.25 23.4a.1.1 0 0 1 -.08 0c-.05-.06 0-.17.09-.25.1-.08.21-.1.26 0a.12.12 0 0 1 0 .12.38.38 0 0 1 -.1.12.41.41 0 0 1 -.14.08zm.19-.31a.26.26 0 0 0 -.15.06c-.09.07-.12.16-.09.19s0 0 .08 0a.25.25 0 0 0 .12-.07.31.31 0 0 0 .09-.11.11.11 0 0 0 0-.08z"/><path d="m30.28 23.43c-.09.08-.12.18-.07.24s.15 0 .24 0 .12-.18.08-.24a.2.2 0 0 0 -.25 0z" fill="#fa0204"/><path d="m30.29 23.72a.12.12 0 0 1 -.1 0c-.05-.07 0-.18.08-.26.1-.08.22-.1.27 0a.14.14 0 0 1 0 .13.31.31 0 0 1 -.1.13.3.3 0 0 1 -.15.07zm0-.27c-.08.06-.12.16-.08.2s.05 0 .09 0a.38.38 0 0 0 .13-.06.21.21 0 0 0 .08-.11.11.11 0 0 0 0-.1.16.16 0 0 0 -.21 0z"/><path d="m30.3 23.76c-.09.07-.13.18-.08.23s.15 0 .24 0 .13-.18.08-.23-.16-.07-.24 0z" fill="#fa0204"/><path d="m30.3 24.05a.18.18 0 0 1 -.1 0c-.05-.07 0-.18.08-.27.1-.08.22-.09.27 0a.1.1 0 0 1 0 .12.31.31 0 0 1 -.09.14.51.51 0 0 1 -.15.07zm0-.28c-.08.07-.11.16-.08.21a.12.12 0 0 0 .09 0 .31.31 0 0 0 .13-.06.28.28 0 0 0 .08-.12.07.07 0 0 0 0-.09s-.13 0-.21 0z"/><path d="m30.3 24.09c-.09.08-.13.18-.08.24s.15 0 .24 0 .13-.18.08-.24a.19.19 0 0 0 -.24 0z" fill="#fa0204"/><path d="m30.3 24.38a.13.13 0 0 1 -.1 0c-.05-.07 0-.18.08-.26.1-.08.22-.1.27 0a.12.12 0 0 1 0 .13.28.28 0 0 1 -.09.13.34.34 0 0 1 -.15.07zm0-.27c-.08.06-.11.16-.08.2s.05 0 .09 0a.31.31 0 0 0 .13-.06.21.21 0 0 0 .08-.11.09.09 0 0 0 0-.1s-.13 0-.21 0z"/><path d="m30.28 24.44c-.09.07-.12.18-.08.23s.16 0 .25 0 .12-.18.07-.23-.15-.07-.24 0z" fill="#fa0204"/><path d="m30.29 24.73a.15.15 0 0 1 -.1 0 .21.21 0 0 1 .08-.27c.1-.08.22-.09.27 0a.12.12 0 0 1 0 .12.33.33 0 0 1 -.1.14.41.41 0 0 1 -.15.07zm0-.28c-.07.07-.11.16-.07.21a.12.12 0 0 0 .09 0 .38.38 0 0 0 .13-.06.42.42 0 0 0 .08-.12.09.09 0 0 0 0-.09c0-.05-.14 0-.22 0z"/><path d="m30.28 24.77c-.09.08-.12.18-.08.24a.2.2 0 0 0 .25 0c.09-.08.12-.18.07-.24s-.15-.07-.24 0z" fill="#fa0204"/><path d="m30.29 25.06a.12.12 0 0 1 -.1 0c-.05-.07 0-.18.08-.26a.3.3 0 0 1 .15-.07.13.13 0 0 1 .12 0 .14.14 0 0 1 0 .13.31.31 0 0 1 -.1.13.3.3 0 0 1 -.15.07zm.15-.33a.19.19 0 0 0 -.13.06c-.07.06-.11.16-.07.2s.05 0 .09 0a.38.38 0 0 0 .13-.06.28.28 0 0 0 .08-.11.11.11 0 0 0 0-.1z"/><path d="m30.28 25.09c-.09.08-.12.18-.08.24a.2.2 0 0 0 .25 0c.09-.08.12-.18.07-.24s-.15-.09-.24 0z" fill="#fa0204"/><path d="m30.29 25.38a.12.12 0 0 1 -.1 0c-.05-.07 0-.18.08-.26.1-.08.22-.1.27 0a.14.14 0 0 1 0 .13.31.31 0 0 1 -.1.13.3.3 0 0 1 -.15.07zm0-.27c-.07.06-.11.16-.07.2a.08.08 0 0 0 .09 0 .38.38 0 0 0 .13-.06.28.28 0 0 0 .08-.11s0-.07 0-.09-.14 0-.22 0z"/><path d="m30.28 25.42c-.09.07-.12.18-.07.23s.15.05.24 0 .12-.17.08-.23-.16-.07-.25 0z" fill="#fa0204"/><path d="m30.29 25.71a.12.12 0 0 1 -.1 0c-.05-.07 0-.18.08-.26.1-.09.22-.1.27 0s0 .18-.08.26a.25.25 0 0 1 -.17 0zm0-.27c-.07.06-.11.16-.07.2s.14 0 .22 0 .11-.16.07-.21-.14 0-.22 0z"/><path d="m30.28 25.75c-.09.07-.13.18-.08.23s.16 0 .24 0 .13-.18.08-.23-.15-.08-.24 0z" fill="#fa0204"/><path d="m30.28 26a.11.11 0 0 1 -.09-.05.12.12 0 0 1 0-.13.51.51 0 0 1 .09-.13.22.22 0 0 1 .28 0 .15.15 0 0 1 0 .13.31.31 0 0 1 -.09.14.32.32 0 0 1 -.15.06zm.16-.34a.24.24 0 0 0 -.15.06.28.28 0 0 0 -.08.12.09.09 0 0 0 0 .09.07.07 0 0 0 .08 0 .21.21 0 0 0 .13 0 .28.28 0 0 0 .08-.12.09.09 0 0 0 0-.09.09.09 0 0 0 -.06-.02z"/><path d="m30.27 26.09c-.09.08-.13.18-.08.24s.15 0 .24 0 .13-.18.08-.24a.19.19 0 0 0 -.24 0z" fill="#fa0204"/><path d="m30.27 26.38a.13.13 0 0 1 -.1 0c-.05-.07 0-.18.08-.26a.26.26 0 0 1 .15-.12.15.15 0 0 1 .13 0 .14.14 0 0 1 0 .13.28.28 0 0 1 -.09.13.34.34 0 0 1 -.15.07zm.16-.33a.18.18 0 0 0 -.13.06c-.08.06-.11.16-.08.2a.12.12 0 0 0 .09 0 .31.31 0 0 0 .13-.06.21.21 0 0 0 .08-.11.09.09 0 0 0 0-.1.08.08 0 0 0 -.09.01z"/><path d="m30.28 26.4c-.09.08-.12.18-.08.24a.2.2 0 0 0 .25 0c.09-.08.12-.18.07-.24s-.15-.07-.24 0z" fill="#fa0204"/><path d="m30.29 26.69a.12.12 0 0 1 -.1 0c-.05-.07 0-.18.08-.26a.3.3 0 0 1 .15-.07.13.13 0 0 1 .12 0 .14.14 0 0 1 0 .13.31.31 0 0 1 -.1.13.3.3 0 0 1 -.15.07zm.15-.33a.25.25 0 0 0 -.13.06c-.07.06-.11.16-.07.2a.08.08 0 0 0 .09 0 .25.25 0 0 0 .13-.06.28.28 0 0 0 .08-.11s0-.07 0-.09a.09.09 0 0 0 -.1 0z"/><path d="m30.28 26.72c-.09.07-.12.18-.07.23s.15.05.24 0 .12-.17.08-.23-.16-.07-.25 0z" fill="#fa0204"/><path d="m30.29 27a.15.15 0 0 1 -.1 0c-.05-.07 0-.18.08-.27a.28.28 0 0 1 .15-.06.11.11 0 0 1 .12 0c.05.06 0 .18-.08.26a.31.31 0 0 1 -.17.07zm0-.27c-.07.06-.11.15-.07.2s.14 0 .22 0 .11-.16.07-.21a.09.09 0 0 0 -.09 0 .19.19 0 0 0 -.13.06z"/><path d="m30.28 27.05c-.09.08-.12.18-.08.24a.2.2 0 0 0 .25 0c.09-.08.12-.18.07-.24s-.15-.05-.24 0z" fill="#fa0204"/><path d="m30.29 27.34a.12.12 0 0 1 -.1 0c-.05-.06 0-.18.08-.26a.3.3 0 0 1 .15-.07.13.13 0 0 1 .12 0 .14.14 0 0 1 0 .13.31.31 0 0 1 -.1.13.3.3 0 0 1 -.15.07zm.15-.33a.38.38 0 0 0 -.13.06c-.07.06-.11.16-.07.21a.09.09 0 0 0 .09 0 .25.25 0 0 0 .13-.06.28.28 0 0 0 .08-.11s0-.07 0-.09a.09.09 0 0 0 -.1-.02z"/><path d="m30.27 27.39c-.11.09-.15.21-.09.28s.18 0 .28-.05.15-.2.1-.27-.19-.04-.29.04z" fill="#fa0204"/><path d="m30.27 27.72a.12.12 0 0 1 -.11 0c-.06-.08 0-.21.1-.3s.25-.12.31 0 0 .2-.1.3a.38.38 0 0 1 -.17.08zm.19-.39a.31.31 0 0 0 -.18.08c-.09.08-.13.19-.09.24a.1.1 0 0 0 .11 0 .34.34 0 0 0 .15-.07c.09-.08.14-.19.09-.25a.1.1 0 0 0 -.08 0z"/><path d="m30.11 11.56c-2.06 0-2.05.68-2.05.68l.06.13a2.71 2.71 0 0 1 2-.59 2.64 2.64 0 0 1 2 .59l.06-.13s-.01-.68-2.07-.68z" fill="#ffe000"/><path d="m32.1 12.41a2.63 2.63 0 0 0 -2-.59 2.63 2.63 0 0 0 -2 .59l-.1-.17a.41.41 0 0 1 .13-.25c.2-.21.7-.45 1.94-.45s1.74.24 1.94.45a.41.41 0 0 1 .13.25zm-4-.17.05.1a2.7 2.7 0 0 1 2-.58 2.67 2.67 0 0 1 2 .58v-.1a.34.34 0 0 0 -.15-.24c-.2-.2-.69-.44-1.91-.44s-1.71.24-1.91.44a.34.34 0 0 0 -.1.24z"/><path d="m32.06 12.68c0-.1-.07-.51.33-.51 0 0 .15.05 0 .2s-.19.25 0 .34.1.24 0 .26-.33-.2-.33-.29z" fill="#ffe000"/><path d="m32.34 13a.22.22 0 0 1 -.13-.06.43.43 0 0 1 -.17-.25.52.52 0 0 1 .09-.4.33.33 0 0 1 .26-.1.11.11 0 0 1 .1.06s0 .1-.07.18-.13.16-.12.21a.11.11 0 0 0 .07.09.21.21 0 0 1 .1.19.14.14 0 0 1 -.11.11zm0-.8a.29.29 0 0 0 -.23.09.46.46 0 0 0 -.08.36.42.42 0 0 0 .16.22.15.15 0 0 0 .11 0 .11.11 0 0 0 .08-.08.14.14 0 0 0 -.08-.14q-.09-.06-.09-.12c0-.07 0-.14.13-.25s.08-.11.06-.14a.07.07 0 0 0 -.01.05z"/><ellipse cx="31.97" cy="12.82" fill="#ffe000" rx=".22" ry=".2"/><path d="m32 13a.22.22 0 1 1 .24-.22.23.23 0 0 1 -.24.22zm0-.4a.18.18 0 1 0 .2.18.19.19 0 0 0 -.2-.14z"/><path d="m28.18 12.68c0-.1.07-.51-.34-.51-.05 0-.15.05 0 .2s.18.25 0 .34-.1.24 0 .26.33-.2.34-.29z" fill="#ffe000"/><path d="m27.89 13a.14.14 0 0 1 -.1-.11.18.18 0 0 1 .09-.19.12.12 0 0 0 .08-.09s0-.11-.13-.21-.08-.14-.06-.18a.1.1 0 0 1 .09-.06.33.33 0 0 1 .27.1.57.57 0 0 1 .09.4.43.43 0 0 1 -.17.25.2.2 0 0 1 -.16.09zm-.05-.8a.07.07 0 0 0 -.06 0s0 .08.06.14.14.18.14.25a.21.21 0 0 1 -.1.12.14.14 0 0 0 -.07.14.08.08 0 0 0 .07.08.19.19 0 0 0 .12 0 .49.49 0 0 0 .16-.22.5.5 0 0 0 -.08-.36.3.3 0 0 0 -.24-.16z"/><path d="m24.67 17.23.22.18.26-.17.37.01.16-.25-.28-.23-.48-.25-.29.1-.28.19-.14.21.03.25.2.05z" fill="#ccc"/><path d="m24.89 17.43-.22-.17-.23.08-.22-.05v-.27l.15-.23.29-.19.29-.1.49.26.29.24-.17.26h-.37zm-.22-.22.22.17.26-.16h.36l.14-.22-.27-.22-.46-.25-.28.1-.27.18-.14.21v.23h.18z"/><path d="m32.58 23a.6.6 0 0 0 .79-.16c.25-.27.3-.62.11-.8s-.53-.1-.78.17a.59.59 0 0 0 -.12.79z" fill="#ffe000"/><path d="m32.84 23.08a.42.42 0 0 1 -.27-.09.62.62 0 0 1 .12-.83.51.51 0 1 1 .69.66.77.77 0 0 1 -.54.26zm-.24-.08c.17.16.51.09.75-.17s.3-.6.12-.76-.52-.09-.76.16-.29.6-.11.77z"/><path d="m24.66 17.29v.53l-.32.22-.91-.7v-.59h.41l.58.48z" fill="#ccc"/><path d="m24.34 18.06-.93-.71v-.62h.44l.58.48.25.06v.56zm-.9-.73.9.68.3-.21v-.5l-.23-.06-.58-.47h-.39z"/><path d="m26.3 18.26-.87.77-.71-.63.02-.52 1.18-.08.26-.32.36.31z" fill="#ccc"/><path d="m25.43 19.06-.73-.65v-.55l1.19-.08.27-.33.38.33-.25.49zm-.69-.67.69.61.85-.75.23-.46-.32-.28-.26.31-1.17.08z"/><path d="m24.21 15.95v.62l.55-.35-.3-.27z" fill="#ccc"/><path d="m24.19 16.6v-.67h.27l.33.3zm0-.63v.56l.5-.31-.24-.22z"/><path d="m25.16 17.27v.55l.35-.08.34-.47-.41.02z" fill="#ccc"/><path d="m25.14 17.84v-.59h.31.44l-.37.5zm0-.55v.5l.33-.07.31-.43h-.36z"/><path d="m24.32 14.37a3 3 0 0 1 -.53-.25l-.11.08.35.67.34-.4z" fill="#ffe000"/><path d="m24 14.9-.37-.7.13-.11a2.81 2.81 0 0 0 .52.25l.06.12zm-.32-.69.33.62.31-.37-.05-.08a2.12 2.12 0 0 1 -.5-.24z"/><path d="m24.87 14.68s-.14-.78-.73-.16-.05.78.17.71.56-.55.56-.55z" fill="#ffe000"/><path d="m24.21 15.27a.36.36 0 0 1 -.32-.15c-.06-.1-.07-.29.24-.61s.35-.28.48-.24.27.39.27.41-.33.5-.56.56zm.33-1a.61.61 0 0 0 -.39.24c-.28.3-.28.47-.23.56a.39.39 0 0 0 .39.12c.2-.06.49-.48.53-.54s-.07-.32-.24-.37z"/><path d="m26.34 17.7-.88.76-.72-.58.23-.31.2.17.25-.24-.26-.23.28-.21-.32-.29-.23.21-.21-.18-.27.27.25.22-.31.26-.92-.8.39-.43.25.24.39-.36-.25-.25.42-.48.89.57.7.62.19.23.11.57z" fill="#ccc"/><path d="m25.46 18.49-.75-.61.25-.33.21.16.22-.21-.27-.23.29-.21-.29-.27-.23.22-.21-.18-.24.24.25.21-.34.29-1-.82.42-.46.25.25.36-.34-.2-.2.44-.5.91.57.7.62.2.24.11.58-.19.25zm-.69-.61.69.56.87-.76.17-.23-.1-.56-.2-.22-.7-.62-.87-.55-.4.45.26.25-.42.39-.25-.24-.37.4.9.77.28-.24-.25-.21.3-.3.21.18.23-.21.35.32-.28.21.26.22-.28.27-.17-.16z"/><path d="m24.87 14.68 1.18 1 .38.34 4.76 4.16.24-.23a13.54 13.54 0 0 0 .94 1c.24.18 1.08.81.57 1.32s-.83.21-1 0l-.73-.67c-.19-.18-.69-.67-.81-.65l.23-.25-5.42-4.73-.45-.39-.41-.36a.49.49 0 0 1 .52-.54z" fill="#ccc"/><path d="m32.4 22.63a.75.75 0 0 1 -.49-.25l-.33-.3-.41-.37-.07-.06a2.92 2.92 0 0 0 -.72-.58s0 0 0 0l.22-.23-6.26-5.47a.61.61 0 0 1 .08-.47.56.56 0 0 1 .47-.18l6.31 5.52.23-.22a11.8 11.8 0 0 0 .94 1c.19.15.7.54.72.94a.51.51 0 0 1 -.16.41.84.84 0 0 1 -.53.26zm-2-1.61a3.64 3.64 0 0 1 .71.59l.07.06.4.37.34.3c.19.17.49.45 1 0a.47.47 0 0 0 .15-.37c0-.39-.52-.77-.7-.91a11.51 11.51 0 0 1 -.93-1l-.23.22-6.35-5.58a.53.53 0 0 0 -.44.17.57.57 0 0 0 -.07.43l6.28 5.48z"/><path d="m25.37 13.87.51.78a2.09 2.09 0 0 1 .27-.2 1.18 1.18 0 0 1 .19-.11 1.15 1.15 0 0 1 .31-.11.78.78 0 0 1 .22 0l.05.12a.82.82 0 0 1 0 .48 5.44 5.44 0 0 1 -.31.79c-.05.13-.1.24-.14.32l-.06.15s-1 2.64.89 3.1v-.41l-.4-.26-.1-.24a2.53 2.53 0 0 1 .45-1.72l.11-.22c0-.1.09-.2.12-.3a4.43 4.43 0 0 0 .29-1.39c0-.19 0-.29 0-.29a.45.45 0 0 0 0-.08 1.16 1.16 0 0 0 -1.26-.88 1.28 1.28 0 0 0 -.28 0 1.81 1.81 0 0 0 -.38.12 1.49 1.49 0 0 0 -.24.14 1.07 1.07 0 0 0 -.24.21z" fill="#fff"/><path d="m27.37 19.19a1.43 1.43 0 0 1 -1-.73 3.45 3.45 0 0 1 .08-2.4 1.19 1.19 0 0 1 .06-.14l.15-.33a7.82 7.82 0 0 0 .3-.78.79.79 0 0 0 -.05-.47v-.11a.63.63 0 0 0 -.19 0 1.28 1.28 0 0 0 -.31.11l-.19.1a2.78 2.78 0 0 0 -.26.2l-.53-.81a.93.93 0 0 1 .23-.21 1.48 1.48 0 0 1 .25-.14 2 2 0 0 1 .37-.12h.29a1.18 1.18 0 0 1 1.28.89.45.45 0 0 1 0 .08s0 .12 0 .3a4.33 4.33 0 0 1 -.29 1.4c0 .1-.08.2-.13.3l-.1.22a2.46 2.46 0 0 0 -.45 1.7l.1.23.4.27zm-.5-5a.87.87 0 0 1 .06.13.85.85 0 0 1 0 .49 6.26 6.26 0 0 1 -.31.79c-.05.12-.1.24-.14.32a1.42 1.42 0 0 1 -.07.14 3.48 3.48 0 0 0 -.07 2.38 1.39 1.39 0 0 0 .93.7v-.38l-.39-.26-.11-.25a2.53 2.53 0 0 1 .45-1.73l.11-.22c0-.09.09-.19.13-.3a4.39 4.39 0 0 0 .28-1.38c0-.18 0-.29 0-.29a.45.45 0 0 0 0-.08 1.13 1.13 0 0 0 -1.24-.86h-.28a2.29 2.29 0 0 0 -.37.12 1.83 1.83 0 0 0 -.24.13 1.29 1.29 0 0 0 -.21.19l.49.75a2.11 2.11 0 0 1 .25-.19l.19-.11a1.52 1.52 0 0 1 .32-.11.83.83 0 0 1 .22.01z"/><path d="m28.64 19.07a1 1 0 0 1 -1.25.12s-.6-.41-.54-.94c0 0 .32.78 1.1.21z" fill="#fff"/><path d="m28 19.37a1.19 1.19 0 0 1 -.58-.16s-.61-.43-.55-1v-.07.07a.81.81 0 0 0 .42.39.77.77 0 0 0 .66-.18l.72.63a.94.94 0 0 1 -.67.32zm-1.1-1.05a1.29 1.29 0 0 0 .54.85 1 1 0 0 0 1.21-.1l-.65-.58a.78.78 0 0 1 -.68.18.73.73 0 0 1 -.46-.35z"/><path d="m27.71 15.35a1 1 0 0 0 -.71-1.11h-.11.11a1.09 1.09 0 0 1 .77 1.15z"/><path d="m26.82 16.06-.29.57.26.12.29-.57.33.13c0-.1.09-.2.12-.3a2.28 2.28 0 0 1 -.34-.16l.18-.34-.21-.1-.19.32-.31-.14c-.05.13-.1.24-.14.32z" fill="#ffe000"/><path d="m26.8 16.78-.29-.14.29-.57-.31-.15.15-.33.31.14.19-.33.25.12-.18.34a2 2 0 0 0 .32.15c0 .1-.08.2-.13.3l-.33-.13zm-.24-.16.22.1.29-.56.33.13.11-.27a2.37 2.37 0 0 1 -.33-.15l.18-.34-.18-.09-.19.33-.31-.14c0 .11-.09.21-.12.28l.3.15z"/><path d="m26.09 14.12a1.92 1.92 0 0 1 .39-.2l.17.31a.78.78 0 0 1 .22 0h.1l-.19-.34a1.06 1.06 0 0 1 1 .74c0-.19 0-.29 0-.29a.45.45 0 0 0 0-.08 1.31 1.31 0 0 0 -1.13-.64l-.13-.24a1.28 1.28 0 0 0 -.28 0l.14.24s-.39.14-.42.24.13.26.13.26z" fill="#ffe000"/><path d="m27.83 14.72v-.1a1 1 0 0 0 -1-.72l.19.35h-.11-.2l-.17-.31a1.84 1.84 0 0 0 -.37.2s-.2-.16-.16-.26.32-.21.42-.24l-.16-.24h.29.05l.13.24a1.34 1.34 0 0 1 1.14.64.45.45 0 0 1 0 .08s0 .12 0 .3zm-1-.86a1.07 1.07 0 0 1 1 .66 1.49 1.49 0 0 0 0-.19.45.45 0 0 0 0-.08 1.29 1.29 0 0 0 -1.11-.62l-.13-.24a1.41 1.41 0 0 0 -.25 0l.14.24c-.15.06-.39.17-.41.23s.08.17.13.21a1.58 1.58 0 0 1 .39-.2l.17.3h.21.06l-.18-.32h.07z"/><path d="m25.37 13.87.51.78a2.09 2.09 0 0 1 .27-.2 1.18 1.18 0 0 1 .19-.11l-.5-.81a1.49 1.49 0 0 0 -.24.14 1.07 1.07 0 0 0 -.23.2z" fill="#ffe000"/><path d="m25.88 14.68-.53-.81a.93.93 0 0 1 .23-.21 1.48 1.48 0 0 1 .25-.14l.52.85-.19.1a2.78 2.78 0 0 0 -.26.2zm-.48-.81.49.75a2.11 2.11 0 0 1 .25-.19 1 1 0 0 1 .17-.1l-.47-.78a1.71 1.71 0 0 0 -.23.13 1.29 1.29 0 0 0 -.21.19z"/><path d="m25.37 13.87.51.78a1.53 1.53 0 0 1 .25-.19l-.53-.79a1.07 1.07 0 0 0 -.23.2z" fill="#ffe000"/><path d="m25.88 14.68-.53-.81a.93.93 0 0 1 .23-.21l.56.82a2.8 2.8 0 0 0 -.25.19zm-.48-.81.49.75a1.54 1.54 0 0 1 .22-.17l-.52-.76a1.66 1.66 0 0 0 -.19.18z"/><path d="m23.33 14a.27.27 0 0 0 .53 0 .27.27 0 1 0 -.53 0z" fill="#ffe000"/><path d="m23.6 14.3a.28.28 0 0 1 -.29-.28.29.29 0 1 1 .57 0 .28.28 0 0 1 -.28.28zm0-.53a.25.25 0 1 0 0 .49.25.25 0 0 0 0-.49z"/><path d="m24.74 15.67.45.38h1.24l-.38-.33z" fill="#ffe000"/><path d="m26.49 16.08h-1.31l-.49-.43h1.37zm-1.3 0h1.19l-.34-.3-1.24-.05z"/><path d="m25.83 15.53.28 1.33-.5-.44-.23-1.29z" fill="#ffe000"/><path d="m26.14 16.91-.55-.48-.24-1.35.5.44zm-.51-.5.45.4-.27-1.27-.4-.35z"/><path d="m27.83 17.27s-.51.2-.59.58c0 0-.29.19-.24-.21s.55-.6.55-.6a.18.18 0 0 1 .22.07.21.21 0 0 1 .06.16z" fill="#ffe000"/><path d="m27.1 17.91h-.1c-.06 0-.08-.12-.06-.26.06-.41.55-.61.57-.62a.2.2 0 0 1 .24.08.25.25 0 0 1 .06.18s-.5.2-.57.56a.41.41 0 0 1 -.14.06zm.51-.86h-.05s-.48.21-.54.59v.22a.15.15 0 0 0 .16 0c.08-.34.51-.54.59-.57a.2.2 0 0 0 0-.14.2.2 0 0 0 -.16-.1z"/><path d="m25.16 18.73h.57v.04h-.57z" transform="matrix(.04292191 -.99907843 .99907843 .04292191 5.62 43.36)"/><path d="m24.1 17.77h.49v.04h-.49z" transform="matrix(.01762691 -.99984463 .99984463 .01762691 6.13 41.82)"/><path d="m24.87 16.98h.04v.43h-.04z"/><path d="m25.1 16.77h.04v.5h-.04z"/><path d="m24.43 17.02h.48v.04h-.48z" transform="matrix(.02792164 -.99961012 .99961012 .02792164 6.95 41.23)"/><path d="m32.56 22.25a.31.31 0 0 1 -.22-.15.55.55 0 0 1 0-.24.54.54 0 0 1 -.18 0 .21.21 0 0 1 -.12 0 .18.18 0 0 1 -.07-.19.18.18 0 0 1 .15-.13h.13a.09.09 0 0 0 0 0 0 0 0 0 0 0 0 .08.08 0 0 0 -.07 0 .15.15 0 0 0 -.09 0h-.06-.1a.8.8 0 0 1 -.65-.34.2.2 0 0 1 0-.16.24.24 0 0 1 .13-.09.86.86 0 0 1 .23-.05l-.07-.12-.05-.06a.79.79 0 0 1 -.1-.62.72.72 0 0 0 .1.59.21.21 0 0 0 0 .06.54.54 0 0 1 .09.15.7.7 0 0 0 -.25.05.14.14 0 0 0 -.1.07.15.15 0 0 0 0 .12.77.77 0 0 0 .63.32h.09a.27.27 0 0 1 .12 0 .1.1 0 0 1 .09.06 0 0 0 0 1 0 .06.12.12 0 0 1 -.08.05h-.12a.14.14 0 0 0 -.12.1.12.12 0 0 0 0 .15.18.18 0 0 0 .11 0h.22a.61.61 0 0 1 .23 0 .24.24 0 0 1 .17.17.17.17 0 0 1 -.09.21zm-.25-.39a.39.39 0 0 0 0 .22.26.26 0 0 0 .18.13h.07a.14.14 0 0 0 .07-.17.2.2 0 0 0 -.14-.14.56.56 0 0 0 -.22 0z"/><path d="m31.2 21a6.07 6.07 0 0 1 -.59-.24l.58.25z"/><path d="m36.23 22.27a.29.29 0 0 0 .29.29.29.29 0 0 0 0-.58.29.29 0 0 0 -.29.29z" fill="#ffe000"/><path d="m36.52 22.58a.31.31 0 1 1 0-.62.31.31 0 0 1 0 .62zm0-.58a.27.27 0 1 0 .26.27.27.27 0 0 0 -.26-.27z"/><circle cx="36.6" cy="25.58" fill="#ffe000" r=".29"/><path d="m36.6 25.89a.31.31 0 1 1 .31-.31.31.31 0 0 1 -.31.31zm0-.58a.27.27 0 1 0 .27.27.27.27 0 0 0 -.27-.27z"/><circle cx="33.41" cy="25.77" fill="#ffe000" r=".29"/><path d="m33.41 26.08a.31.31 0 0 1 -.31-.31.31.31 0 0 1 .62 0 .31.31 0 0 1 -.31.31zm0-.57a.27.27 0 1 0 .27.26.27.27 0 0 0 -.27-.26z"/><path d="m32.79 24a2.11 2.11 0 1 0 2.1-2.11 2.1 2.1 0 0 0 -2.1 2.11zm2.45-1.66-.33.34-.34-.34a1.19 1.19 0 0 1 .34-.05 1.08 1.08 0 0 1 .33.03zm1 1.67.34-.34a1.19 1.19 0 0 1 .05.34 1.08 1.08 0 0 1 -.05.33zm-1.66 1.64.33-.34.34.34a1.19 1.19 0 0 1 -.34.05 1.08 1.08 0 0 1 -.36-.07zm-1.1-.92a.67.67 0 0 1 .66-.66h.1v-.17h-.1a.66.66 0 1 1 .67-.66s0 0 0 .06h.19a.13.13 0 0 1 0-.06.67.67 0 1 1 .67.66h-.1v.17h.1a.66.66 0 1 1 -.67.66.13.13 0 0 1 0-.06h-.25s0 0 0 .06a.67.67 0 0 1 -1.33 0zm-.21-.41a1.19 1.19 0 0 1 -.05-.34 1.08 1.08 0 0 1 .05-.33l.34.33z" fill="#ccc"/><path d="m34.89 26.1a2.13 2.13 0 1 1 2.11-2.1 2.12 2.12 0 0 1 -2.11 2.1zm0-4.21a2.09 2.09 0 1 0 2.11 2.11 2.08 2.08 0 0 0 -2.11-2.11zm0 3.81a1.19 1.19 0 0 1 -.34-.05l.37-.37.37.37a1.19 1.19 0 0 1 -.41.05zm-.3-.08a1.15 1.15 0 0 0 .6 0l-.3-.3zm1.1-.23a.68.68 0 0 1 -.69-.68h-.2a.69.69 0 1 1 -.69-.68h.08v-.11h-.08a.68.68 0 1 1 .69-.68.67.67 0 0 1 .2 0 .69.69 0 1 1 .69.68h-.09v.08h.08a.68.68 0 0 1 0 1.36zm-.69-.76a.15.15 0 0 0 0 .06.65.65 0 1 0 .65-.64h-.13v-.21h.13a.64.64 0 0 0 .64-.64.65.65 0 0 0 -1.29 0 .13.13 0 0 0 0 .06.45.45 0 0 0 -.23 0 .13.13 0 0 0 0-.06.65.65 0 1 0 -.65.64h.13v.21h-.13a.64.64 0 0 0 -.64.64.65.65 0 0 0 1.29 0 .13.13 0 0 0 0-.06.45.45 0 0 0 .23 0zm1.51-.27-.33-.36.37-.37a1 1 0 0 1 0 .68zm-.27-.36.3.3a1.44 1.44 0 0 0 0-.3 1.34 1.34 0 0 0 0-.3zm-3 .34a1.41 1.41 0 0 1 0-.35 1.28 1.28 0 0 1 0-.34l.37.37zm0-.67a1.44 1.44 0 0 0 0 .3 1.34 1.34 0 0 0 0 .3l.3-.3zm1.66-1-.37-.37a.91.91 0 0 1 .35-.06.84.84 0 0 1 .34.06zm-.3-.36.3.3.3-.3a1.44 1.44 0 0 0 -.3 0 1.34 1.34 0 0 0 -.29.02z"/><circle cx="34.89" cy="23.43" fill="#ccc" r=".25"/><path d="m34.89 23.7a.27.27 0 1 1 .27-.27.27.27 0 0 1 -.27.27zm0-.5a.23.23 0 0 0 -.22.23.23.23 0 1 0 .45 0 .23.23 0 0 0 -.23-.23z"/><path d="m34.35 24.22a.25.25 0 1 0 -.25-.22.25.25 0 0 0 .25.22z" fill="#ccc"/><path d="m34.35 24.24a.27.27 0 1 1 .27-.26.27.27 0 0 1 -.27.26zm0-.49a.23.23 0 1 0 0 .45.23.23 0 1 0 0-.45z"/><path d="m31.08 19.49c0 .1 0 .2.08.2s.12-.07.13-.18 0-.2-.08-.21-.12.08-.13.19z" fill="#fa0204"/><path d="m31.17 19.71s-.06 0-.08-.08a.34.34 0 0 1 0-.15c0-.12.08-.21.15-.2s.11.11.1.23-.1.2-.17.2zm-.07-.22a.27.27 0 0 0 0 .13s0 .05.05.05.09-.06.1-.16 0-.18-.06-.19-.1.06-.11.17z"/><path d="m30.9 19.61c0 .11 0 .21.08.21s.11-.07.13-.18 0-.2-.09-.21-.11.08-.12.18z" fill="#fa0204"/><path d="m31 19.84c-.07 0-.12-.11-.1-.23 0-.12.08-.21.15-.2a.13.13 0 0 1 .08.08.36.36 0 0 1 0 .15c-.02.12-.08.2-.13.2zm0-.39s-.09.07-.1.17c0 .1 0 .18.06.18s.1-.06.11-.16a.32.32 0 0 0 0-.14s0-.05-.05-.05z"/><circle cx="34.89" cy="24.52" fill="#ccc" r=".25"/><path d="m34.89 24.79a.27.27 0 1 1 .27-.27.27.27 0 0 1 -.27.27zm0-.5a.22.22 0 0 0 -.22.23.23.23 0 1 0 .45 0 .23.23 0 0 0 -.23-.23z"/><path d="m30.52 20.06c0 .1 0 .2.08.2s.12-.07.13-.18 0-.2-.08-.21-.12.13-.13.19z" fill="#fa0204"/><path d="m30.61 20.28a.08.08 0 0 1 -.08-.07.29.29 0 0 1 0-.16c0-.12.08-.2.15-.2s.11.11.1.23-.11.2-.17.2zm-.07-.22a.27.27 0 0 0 0 .13s0 0 .05 0 .1-.06.11-.16 0-.18-.07-.19-.09.07-.1.17z"/><path d="m30.75 19.83c0 .11 0 .2.08.21s.17-.04.17-.19 0-.2-.08-.2-.16.07-.17.18z" fill="#fa0204"/><path d="m30.84 20.06a.11.11 0 0 1 -.08-.08.25.25 0 0 1 0-.15c0-.12.08-.21.15-.2s.06 0 .08.07a.39.39 0 0 1 0 .15.53.53 0 0 1 -.05.15.12.12 0 0 1 -.1.06zm0-.4s-.09.07-.1.17a.27.27 0 0 0 0 .13s0 .05 0 .06a.13.13 0 0 0 .07 0 .5.5 0 0 0 0-.13.49.49 0 0 0 0-.13s0 0-.06 0z"/><circle cx="35.44" cy="23.98" fill="#ccc" r=".25"/><path d="m35.44 24.24a.27.27 0 1 1 .27-.26.27.27 0 0 1 -.27.26zm0-.49a.23.23 0 1 0 0 .45.23.23 0 1 0 0-.45z"/><path d="m28.05 12.82a.2.2 0 0 0 .21.2.2.2 0 1 0 0-.4.2.2 0 0 0 -.21.2z" fill="#ffe000"/><path d="m28.26 13a.22.22 0 1 1 0-.44.22.22 0 1 1 0 .44zm0-.4a.18.18 0 1 0 0 .36.18.18 0 1 0 0-.36z"/><path d="m31.4 17.75-.31.11a1.71 1.71 0 0 1 -.22-.6h-.29c0-.12 0-.24 0-.35h.3v-.35h.28v.33h.33a2.32 2.32 0 0 0 .05.33h-.35s.07.45.21.53z" fill="#ffe000"/><path d="m31.08 17.89a1.72 1.72 0 0 1 -.22-.58h-.29c0-.11 0-.23 0-.35h.31v-.35h.32v.33h.32a2.88 2.88 0 0 0 .05.33h-.35a1 1 0 0 0 .23.47zm-.19-.65a1.74 1.74 0 0 0 .21.58l.26-.1a1.46 1.46 0 0 1 -.23-.5h.35a2.34 2.34 0 0 1 -.05-.3h-.33v-.33h-.24v.35h-.3a2.61 2.61 0 0 0 0 .31z"/><path d="m35.56 17.23-.22.18-.26-.17-.37.01-.15-.25.28-.23.47-.25.29.1.28.19.15.21-.04.25-.19.05z" fill="#ffe000"/><path d="m35.34 17.43-.27-.17h-.37l-.17-.26.29-.24.49-.26.3.1.28.2.16.22v.27l-.22.05-.22-.08zm-.25-.21.25.16.22-.17.24.09h.17l.03-.3-.15-.21-.27-.18-.28-.1-.46.25-.27.22.14.22z"/><path d="m27.65 23a.6.6 0 0 1 -.79-.16c-.24-.27-.3-.62-.11-.8s.53-.1.78.17a.59.59 0 0 1 .12.79z" fill="#ccc"/><path d="m27.39 23.08a.79.79 0 0 1 -.54-.26.59.59 0 0 1 -.11-.82c.19-.18.55-.11.81.16a.62.62 0 0 1 .11.83.4.4 0 0 1 -.27.09zm-.39-1.14a.37.37 0 0 0 -.25.09c-.17.16-.12.51.12.76s.58.33.75.17c.18-.17.13-.51-.11-.77a.77.77 0 0 0 -.51-.25z"/><path d="m35.57 17.29v.53l.32.22.92-.7v-.59h-.42l-.57.48z" fill="#ffe000"/><path d="m35.89 18.06-.34-.23v-.56l.26-.06.58-.48h.44v.62zm-.3-.26.3.21.9-.68v-.56h-.39l-.58.47-.23.06z"/><path d="m33.94 18.26.86.77.71-.63-.02-.52-1.18-.08-.26-.32-.36.31z" fill="#ffe000"/><path d="m34.8 19.06-.88-.79-.25-.49.38-.33.27.33 1.19.08v.55zm-.8-.81.85.75.69-.61v-.49l-1.17-.08-.25-.31-.33.28z"/><path d="m36.03 15.95v.62l-.56-.35.31-.27z" fill="#ffe000"/><path d="m36.05 16.6-.61-.37.33-.3h.28zm-.54-.38.5.31v-.53h-.23z"/><path d="m35.08 17.27v.55l-.35-.08-.35-.47.41.02z" fill="#ffe000"/><path d="m35.1 17.84-.39-.09-.37-.5h.45.31zm-.36-.12.32.07v-.5h-.27-.37z"/><path d="m35.92 14.37a2.8 2.8 0 0 0 .52-.25l.11.08-.35.67-.34-.4z" fill="#ccc"/><path d="m36.21 14.9-.37-.43.06-.12a2.51 2.51 0 0 0 .52-.25l.14.11zm-.32-.44.31.37.33-.62-.09-.07a2.23 2.23 0 0 1 -.51.24z"/><path d="m35.37 14.68s.14-.78.72-.16 0 .78-.17.71-.55-.55-.55-.55z" fill="#ccc"/><path d="m36 15.27h-.12c-.23-.06-.55-.54-.56-.56s.06-.34.27-.41.3 0 .49.24.29.51.23.61a.35.35 0 0 1 -.31.12zm-.64-.59c0 .06.33.48.53.54a.39.39 0 0 0 .39-.12c0-.09.06-.26-.23-.56s-.33-.27-.45-.23-.2.32-.21.37z"/><path d="m33.63 25.36a.21.21 0 0 0 .27 0c0-.07 0-.17-.12-.24s-.23-.07-.27 0 .01.17.12.24z" fill="#fa0204"/><path d="m33.79 25.43a.3.3 0 0 1 -.17-.05.4.4 0 0 1 -.13-.13.17.17 0 0 1 0-.14.14.14 0 0 1 .13-.06l.17.06c.11.08.17.19.12.27s-.06.05-.12.05zm-.18-.34a.13.13 0 0 0 -.09 0 .12.12 0 0 0 0 .1.29.29 0 0 0 .11.11c.09.07.2.07.24 0s0-.15-.11-.22a.53.53 0 0 0 -.15-.05z"/><path d="m33.34 25.52c.11.07.23.07.27 0s0-.18-.12-.24-.23-.08-.27 0 .01.17.12.24z" fill="#fa0204"/><path d="m33.5 25.59a.34.34 0 0 1 -.17-.05.36.36 0 0 1 -.12-.13.14.14 0 0 1 0-.14.15.15 0 0 1 .13-.06.32.32 0 0 1 .17.06.3.3 0 0 1 .12.13.12.12 0 0 1 0 .14.14.14 0 0 1 -.13.05zm-.18-.34a.09.09 0 0 0 -.08.14.29.29 0 0 0 .11.11.3.3 0 0 0 .15.05s.08 0 .09 0 0-.06 0-.1a.32.32 0 0 0 -.11-.12.33.33 0 0 0 -.15-.05z"/><path d="m33.89 17.7.89.76.71-.58-.22-.31-.21.17-.25-.24.27-.23-.29-.21.32-.29.23.21.21-.18.27.27-.25.22.31.26.93-.8-.4-.43-.25.24-.39-.36.26-.25-.42-.48-.89.57-.7.62-.2.23-.11.57z" fill="#ffe000"/><path d="m34.78 18.49-.9-.78-.19-.25.11-.58.2-.23.7-.63.91-.57.44.5-.25.25.36.34.25-.25.43.46-1 .82-.34-.29.25-.21-.24-.24-.21.18-.23-.22-.29.27.29.21-.27.23.22.21.21-.16.25.33zm-.87-.81.87.76.68-.56-.2-.28-.2.16-.28-.27.27-.22-.29-.21.35-.32.23.21.22-.18.29.3-.25.21.28.24.9-.77-.37-.4-.24.24-.43-.39.26-.2-.4-.45-.87.55-.7.62-.19.22-.11.56z"/><path d="m35.37 14.68-1.19 1-.38.34-4.75 4.16-.25-.18a11.66 11.66 0 0 1 -.94 1c-.24.18-1.08.81-.57 1.32s.83.21 1 0l.74-.67c.19-.18.68-.67.81-.65l-.24-.25 5.43-4.73.44-.39.41-.36a.48.48 0 0 0 -.51-.59z" fill="#ffe000"/><path d="m27.83 22.63a.82.82 0 0 1 -.55-.29.52.52 0 0 1 -.17-.41c0-.4.53-.79.72-.94a11.36 11.36 0 0 0 .93-1l.24.22 6.3-5.52a.56.56 0 0 1 .47.18.61.61 0 0 1 .08.47l-6.26 5.47.22.23a0 0 0 0 1 0 0c-.1 0-.53.4-.72.58l-.07.06-.4.37-.34.3a.75.75 0 0 1 -.45.28zm1-2.62a11.51 11.51 0 0 1 -.93 1c-.19.14-.69.52-.71.91a.47.47 0 0 0 .15.37c.5.49.81.21 1 0l.33-.3.4-.37.07-.06a3.35 3.35 0 0 1 .72-.59l-.21-.21s0 0 0 0l6.27-5.48a.53.53 0 0 0 -.07-.43.52.52 0 0 0 -.44-.17l-6.31 5.53z"/><path d="m34.86 13.87-.51.78a2.09 2.09 0 0 0 -.27-.2.86.86 0 0 0 -.19-.11 1 1 0 0 0 -.31-.11h-.21l-.06.12a.92.92 0 0 0 -.05.48 5.44 5.44 0 0 0 .31.79c0 .13.1.24.14.32l.07.15s1 2.64-.9 3.1v-.41l.4-.26.11-.24a2.59 2.59 0 0 0 -.46-1.72c0-.08-.07-.15-.1-.22s-.09-.2-.13-.3a4.36 4.36 0 0 1 -.28-1.39 2.13 2.13 0 0 1 0-.29.45.45 0 0 1 0-.08 1.16 1.16 0 0 1 1.26-.88 1.4 1.4 0 0 1 .29 0 1.58 1.58 0 0 1 .37.12 1.49 1.49 0 0 1 .24.14.87.87 0 0 1 .28.21z" fill="#fff"/><path d="m32.86 19.19v-.45l.4-.27.11-.23a2.62 2.62 0 0 0 -.45-1.7l-.11-.22c-.05-.1-.09-.2-.13-.3a4.55 4.55 0 0 1 -.28-1.4 2.46 2.46 0 0 1 0-.3.45.45 0 0 1 0-.08 1.2 1.2 0 0 1 1.28-.89h.29a2.4 2.4 0 0 1 .38.12l.25.14a1.51 1.51 0 0 1 .23.21l-.53.81-.27-.2-.19-.1a1.21 1.21 0 0 0 -.3-.11h-.2l-.05.11a.79.79 0 0 0 0 .47 6.21 6.21 0 0 0 .31.78c0 .13.1.24.14.33l.07.14a3.54 3.54 0 0 1 .07 2.4 1.41 1.41 0 0 1 -1 .73zm0-.43v.38a1.43 1.43 0 0 0 .94-.7 3.52 3.52 0 0 0 -.08-2.38 1.42 1.42 0 0 1 -.07-.14c0-.08-.08-.2-.14-.32a6.26 6.26 0 0 1 -.31-.79.85.85 0 0 1 0-.49.87.87 0 0 1 .06-.13h.22a1.45 1.45 0 0 1 .31.11 1.18 1.18 0 0 1 .19.11 1.48 1.48 0 0 1 .25.19l.5-.75-.22-.19a1.36 1.36 0 0 0 -.24-.13 2 2 0 0 0 -.37-.12h-.28a1.14 1.14 0 0 0 -1.24.86.45.45 0 0 0 0 .08 2.2 2.2 0 0 0 0 .29 4.12 4.12 0 0 0 .34 1.36q.06.16.12.3l.11.22a2.67 2.67 0 0 1 .46 1.73l-.12.25z"/><path d="m31.59 19.07a1 1 0 0 0 1.25.12s.6-.41.55-.94a.66.66 0 0 1 -1.1.21z" fill="#fff"/><path d="m32.27 19.37a.94.94 0 0 1 -.69-.29l.71-.63a.76.76 0 0 0 .65.18.73.73 0 0 0 .42-.39v-.07.07c.05.54-.53 1-.56 1a1.27 1.27 0 0 1 -.53.13zm-.65-.3a1 1 0 0 0 1.21.1 1.25 1.25 0 0 0 .54-.85.73.73 0 0 1 -.41.35.76.76 0 0 1 -.67-.18z"/><path d="m32.53 15.35a1.07 1.07 0 0 1 .77-1.15h.11-.11a1 1 0 0 0 -.77 1.15z"/><path d="m33.41 16.06.29.57-.26.12-.29-.57-.32.13c0-.1-.09-.2-.13-.3a2.28 2.28 0 0 0 .34-.16l-.18-.34.21-.1.19.32.31-.14c0 .13.1.24.14.32z" fill="#ffe000"/><path d="m33.43 16.78-.29-.57-.32.13c-.05-.1-.09-.2-.13-.3a2 2 0 0 0 .32-.15l-.18-.34.25-.12.19.33.31-.14c0 .13.1.24.14.33l-.3.15.28.57zm-.27-.62.29.56.22-.1-.29-.57.31-.15c0-.07-.08-.17-.13-.28l-.31.14-.19-.33-.17.09.18.34a2.37 2.37 0 0 1 -.33.15l.12.27z"/><path d="m34.14 14.12a1.67 1.67 0 0 0 -.39-.2l-.17.31h-.21-.11l.19-.34a1 1 0 0 0 -1 .74 2.13 2.13 0 0 1 0-.29.45.45 0 0 1 0-.08 1.31 1.31 0 0 1 1.13-.64l.13-.24a1.4 1.4 0 0 1 .29 0l-.15.24s.39.14.42.24-.13.26-.13.26z" fill="#ffe000"/><path d="m32.4 14.72v-.1a2.46 2.46 0 0 1 0-.3.45.45 0 0 1 0-.08 1.31 1.31 0 0 1 1.13-.64l.13-.24h.29l-.15.24c.09 0 .38.15.41.24s-.13.24-.15.26a1.84 1.84 0 0 0 -.37-.2l-.17.31h-.21-.11l.2-.35a1 1 0 0 0 -1 .72zm.05-.47a.45.45 0 0 0 0 .08 1.49 1.49 0 0 0 0 .19 1.07 1.07 0 0 1 1-.66l-.18.32h.07.2l.17-.3a1.5 1.5 0 0 1 .38.2s.16-.15.13-.21-.26-.17-.41-.23l.14-.24a1.41 1.41 0 0 0 -.25 0l-.12.24a1.3 1.3 0 0 0 -1.13.61z"/><path d="m34.86 13.87-.51.78a2.09 2.09 0 0 0 -.27-.2.86.86 0 0 0 -.19-.11l.5-.81a1.49 1.49 0 0 1 .24.14.87.87 0 0 1 .23.2z" fill="#ffe000"/><path d="m34.35 14.68-.27-.2-.19-.1.52-.85.25.14a1.51 1.51 0 0 1 .23.21zm-.43-.35a1 1 0 0 1 .17.1 1.48 1.48 0 0 1 .25.19l.5-.75-.22-.19a.94.94 0 0 0 -.22-.12z"/><path d="m34.86 13.87-.51.78a1.53 1.53 0 0 0 -.25-.19l.53-.79a.87.87 0 0 1 .23.2z" fill="#ffe000"/><path d="m34.35 14.68s-.09-.08-.25-.19l.56-.82a1.51 1.51 0 0 1 .23.21zm-.22-.23.22.17.49-.75-.2-.18z"/><path d="m36.9 14a.27.27 0 0 1 -.53 0 .27.27 0 1 1 .53 0z" fill="#ccc"/><path d="m36.64 14.3a.28.28 0 0 1 -.29-.28.29.29 0 1 1 .57 0 .28.28 0 0 1 -.28.28zm0-.53a.25.25 0 1 0 0 .49.25.25 0 0 0 0-.49z"/><path d="m35.49 15.67-.44.38h-1.25l.38-.33z" fill="#ccc"/><path d="m35.05 16.08h-1.3l.42-.38h1.37zm-1.2 0h1.15l.4-.35-1.25.05z"/><path d="m34.4 15.53-.28 1.33.51-.44.22-1.29z" fill="#ccc"/><path d="m34.09 16.91.29-1.39.5-.44-.24 1.35zm.33-1.37-.27 1.27.46-.4.21-1.22z"/><path d="m32.41 17.27s.51.2.58.58c0 0 .3.19.24-.21s-.55-.6-.55-.6a.18.18 0 0 0 -.22.07.18.18 0 0 0 -.05.16z" fill="#ccc"/><path d="m33.13 17.91a.41.41 0 0 1 -.15-.05c-.08-.36-.58-.56-.58-.56a.22.22 0 0 1 0-.18.22.22 0 0 1 .25-.08s.5.21.56.62c0 .14 0 .22-.06.26zm-.13-.08s.12.06.16 0 .06-.1 0-.22c-.05-.38-.53-.58-.54-.59a.19.19 0 0 0 -.2.07.18.18 0 0 0 0 .14c.08.06.51.26.58.6z"/><path d="m34.77 18.46h.04v.57h-.04z" transform="matrix(.99905582 -.04344502 .04344502 .99905582 -.78 1.53)"/><path d="m27.33 24.53c0 .13.05.23.12.23s.11-.1.11-.23 0-.23-.12-.23-.12.1-.11.23z" fill="#fa0204"/><path d="m27.45 24.78c-.08 0-.14-.11-.14-.25a.43.43 0 0 1 0-.17c0-.05.06-.08.1-.08a.11.11 0 0 1 .1.08.29.29 0 0 1 0 .17c0 .14-.06.25-.13.25zm-.1-.25c0 .12 0 .21.1.21s.09-.09.09-.21a.38.38 0 0 0 0-.16s0-.05-.07-.05a.07.07 0 0 0 -.06.06.33.33 0 0 0 -.06.15z"/><path d="m35.86 17.55h.04v.49h-.04z" transform="matrix(.99979858 -.02006994 .02006994 .99979858 -.35 .73)"/><path d="m35.32 16.98h.04v.43h-.04z"/><path d="m35.09 16.77h.04v.5h-.04z"/><path d="m35.54 16.8h.04v.48h-.04z" transform="matrix(.99962936 -.02722377 .02722377 .99962936 -.45 .97)"/><path d="m27.67 22.25h-.07a.19.19 0 0 1 -.09-.21.24.24 0 0 1 .17-.17.63.63 0 0 1 .23 0h.23a.15.15 0 0 0 .1 0 .14.14 0 0 0 .06-.15.17.17 0 0 0 -.12-.1h-.13a.16.16 0 0 1 -.05-.12.07.07 0 0 1 0-.06.1.1 0 0 1 .1-.06.2.2 0 0 1 .11 0h.09a.77.77 0 0 0 .63-.32s.05-.09 0-.12-.06-.06-.1-.07a.69.69 0 0 0 -.24-.05.38.38 0 0 1 .09-.15v-.06a.69.69 0 0 0 .1-.59.75.75 0 0 1 -.1.62v.06a.83.83 0 0 0 -.08.12.86.86 0 0 1 .23.05c.05 0 .11 0 .13.09a.17.17 0 0 1 0 .16.82.82 0 0 1 -.66.34h-.1a.15.15 0 0 0 -.09 0s-.06 0-.06 0a.09.09 0 0 0 .05 0h.13a.2.2 0 0 1 .16.13.2.2 0 0 1 -.08.19.21.21 0 0 1 -.12 0 .48.48 0 0 1 -.17 0 .43.43 0 0 1 -.05.24.31.31 0 0 1 -.21.15zm.2-.39a.57.57 0 0 0 -.18 0 .22.22 0 0 0 -.14.14.14.14 0 0 0 .07.17h.07a.3.3 0 0 0 .19-.13.47.47 0 0 0 0-.22h-.05z"/><path d="m29 21 .58-.25c-.15.14-.35.25-.58.25z"/><path d="m24 22.27a.28.28 0 0 1 -.28.29.29.29 0 0 1 0-.58.28.28 0 0 1 .28.29z" fill="#ccc"/><path d="m23.72 22.58a.31.31 0 1 1 0-.62.31.31 0 0 1 0 .62zm0-.58a.27.27 0 0 0 0 .54.27.27 0 0 0 0-.54z"/><path d="m23.92 25.58a.29.29 0 1 1 -.29-.29.29.29 0 0 1 .29.29z" fill="#ccc"/><path d="m23.63 25.89a.31.31 0 1 1 .31-.31.31.31 0 0 1 -.31.31zm0-.58a.27.27 0 1 0 .27.27.27.27 0 0 0 -.27-.27z"/><path d="m26.55 24.63c-.1.08-.15.19-.11.24s.16 0 .26-.05.15-.18.11-.23-.16-.03-.26.04z" fill="#fa0204"/><path d="m26.51 24.92a.09.09 0 0 1 -.08 0c-.05-.06 0-.17.11-.26.11-.09.24-.11.28-.05s0 .18-.11.27a.37.37 0 0 1 -.2.04zm.06-.27c-.1.08-.14.17-.11.21s.13 0 .23-.05.13-.18.1-.21-.13 0-.22 0z"/><path d="m27.11 25.77a.29.29 0 1 1 -.29-.28.29.29 0 0 1 .29.28z" fill="#ccc"/><path d="m26.82 26.08a.31.31 0 0 1 -.31-.31.31.31 0 0 1 .62 0 .31.31 0 0 1 -.31.31zm0-.57a.27.27 0 1 0 .27.26.27.27 0 0 0 -.27-.26z"/><path d="m25.34 21.87a2.11 2.11 0 1 0 2.1 2.13 2.1 2.1 0 0 0 -2.1-2.13zm0 .4a1.19 1.19 0 0 1 .34.05l-.34.34-.34-.34a1.16 1.16 0 0 1 .32-.05zm-1.63 2.05a.92.92 0 0 1 -.06-.33 1 1 0 0 1 .06-.34l.29.35zm1.66 1.36a1.08 1.08 0 0 1 -.33-.05l.33-.34.34.34a1.19 1.19 0 0 1 -.36.05zm.77-.31a.65.65 0 0 1 -.66-.66v-.06h-.24v.06a.67.67 0 0 1 -1.33 0 .67.67 0 0 1 .67-.66h.1a.25.25 0 0 1 0-.08.28.28 0 0 1 0-.09h-.1a.66.66 0 1 1 0-1.32.66.66 0 0 1 .66.66v.06h.24v-.06a.66.66 0 1 1 .66.66h-.14s0 .12 0 .12 0 .05 0 .08h.1a.66.66 0 1 1 0 1.32zm.51-1.37.34-.33a.92.92 0 0 1 .06.33 1 1 0 0 1 -.06.34z" fill="#ffe000"/><path d="m25.34 26.1a2.13 2.13 0 1 1 2.12-2.1 2.13 2.13 0 0 1 -2.12 2.1zm0-4.21a2.09 2.09 0 1 0 2.08 2.11 2.09 2.09 0 0 0 -2.08-2.11zm0 3.81a1.19 1.19 0 0 1 -.34-.05l.37-.37.37.37a1.19 1.19 0 0 1 -.39.05zm-.3-.08a1.14 1.14 0 0 0 .6 0l-.3-.3zm1.07-.23a.67.67 0 0 1 -.68-.68h-.2a.69.69 0 0 1 -1.37 0 .69.69 0 0 1 .69-.68h.07v-.11h-.07a.68.68 0 1 1 0-1.36.68.68 0 0 1 .68.68.67.67 0 0 1 .2 0 .68.68 0 1 1 .68.68h-.11s0 0 0 .06a.43.43 0 0 0 0 .02h.08a.68.68 0 0 1 0 1.36zm-.64-.76v.08a.64.64 0 0 0 1.28 0 .64.64 0 0 0 -.64-.64h-.11s0-.07 0-.07 0-.06 0-.08h.12a.64.64 0 0 0 .64-.64.64.64 0 1 0 -1.28 0v.08a.49.49 0 0 0 -.24 0v-.08a.65.65 0 0 0 -1.29 0 .65.65 0 0 0 .65.64h.12a.19.19 0 0 0 0 .08.25.25 0 0 0 0 .08h-.12a.64.64 0 1 0 0 1.28.64.64 0 0 0 .64-.64v-.08a.49.49 0 0 0 .24 0zm-1.8-.27a1 1 0 0 1 0-.68l.37.37zm0-.67a.86.86 0 0 0 -.05.3.91.91 0 0 0 .05.3l.33-.29zm3.3.64-.34-.33.37-.37a1.09 1.09 0 0 1 .06.34 1.2 1.2 0 0 1 -.06.35zm-.29-.33.3.3a.86.86 0 0 0 .02-.3.91.91 0 0 0 -.05-.3zm-1.36-1.27-.32-.41a.89.89 0 0 1 .34-.06.91.91 0 0 1 .35.06zm-.32-.4.29.3.3-.3a1.34 1.34 0 0 0 -.3 0 1.32 1.32 0 0 0 -.29 0z"/><circle cx="25.34" cy="23.43" fill="#ffe000" r=".25"/><path d="m25.34 23.7a.27.27 0 1 1 .27-.27.27.27 0 0 1 -.27.27zm0-.5a.23.23 0 0 0 -.23.23.23.23 0 0 0 .23.23.23.23 0 0 0 .23-.23.24.24 0 0 0 -.23-.23z"/><path d="m25.88 24.22a.25.25 0 1 1 0-.49.25.25 0 1 1 0 .49z" fill="#ffe000"/><path d="m25.88 24.24a.27.27 0 1 1 .27-.26.27.27 0 0 1 -.27.26zm0-.49a.23.23 0 1 0 0 .45.23.23 0 1 0 0-.45z"/><circle cx="25.34" cy="24.52" fill="#ffe000" r=".25"/><path d="m25.34 24.79a.27.27 0 1 1 .27-.27.27.27 0 0 1 -.27.27zm0-.5a.23.23 0 0 0 -.23.23.23.23 0 0 0 .23.23.24.24 0 0 0 .23-.23.23.23 0 0 0 -.23-.23z"/><path d="m29.64 26.24c0 .12.12.2.19.18s.08-.14 0-.26-.12-.2-.18-.18-.05.14-.01.26z" fill="#fa0204"/><path d="m29.81 26.44c-.07 0-.15-.08-.19-.2 0-.13 0-.25.05-.28a.12.12 0 0 1 .12 0 .38.38 0 0 1 .09.15c.05.14 0 .26-.05.29zm-.11-.44s-.06.11 0 .23c0 .12.12.18.16.17s.07-.11 0-.23a.37.37 0 0 0 -.08-.14z"/><path d="m29.94 26.26c0 .12.12.21.19.18s.07-.13 0-.25-.13-.19-.13-.19-.1.14-.06.26z" fill="#fa0204"/><path d="m30.11 26.47c-.07 0-.15-.08-.19-.2 0-.13 0-.26 0-.28a.12.12 0 0 1 .12 0 .38.38 0 0 1 .09.15c.05.14 0 .26-.05.28zm-.11-.47s-.06.11 0 .23c0 .12.11.18.16.17s.06-.12 0-.24a.22.22 0 0 0 -.08-.13s-.08-.03-.08-.03z"/><circle cx="24.79" cy="23.98" fill="#ffe000" r=".25"/><path d="m24.79 24.24a.27.27 0 0 1 0-.53.27.27 0 1 1 0 .53zm0-.49a.22.22 0 0 0 -.22.23.22.22 0 0 0 .22.22.23.23 0 1 0 0-.45z"/><path d="m32 17.68s.5.19.58.57c0 0 .29.2.24-.21s-.55-.6-.55-.6a.2.2 0 0 0 -.22.07.21.21 0 0 0 -.05.17z" fill="#ccc"/><path d="m32.68 18.32a.27.27 0 0 1 -.15-.06c-.07-.36-.57-.55-.57-.55a.23.23 0 0 1 0-.18.22.22 0 0 1 .25-.08s.5.21.56.62c0 .14 0 .22-.06.26zm-.12-.08s.12.06.16 0 .06-.11 0-.22c-.06-.39-.53-.59-.54-.59s-.1-.05-.2.07a.24.24 0 0 0 -.05.13c.12.07.55.26.63.61z"/><path d="m28.28 17.68s-.51.19-.59.57c0 0-.29.2-.24-.21s.55-.6.55-.6a.21.21 0 0 1 .23.07.26.26 0 0 1 .05.17z" fill="#ffe000"/><path d="m27.55 18.32h-.06c-.06 0-.07-.12 0-.26 0-.41.54-.61.56-.62a.2.2 0 0 1 .24.08.26.26 0 0 1 .06.18s-.5.19-.57.55a.23.23 0 0 1 -.23.07zm.51-.87s-.48.2-.54.59v.22s.13 0 .16 0c.08-.35.51-.54.59-.58a.18.18 0 0 0 -.05-.13.19.19 0 0 0 -.16-.1z"/><path d="m29.73 27.86c.09.09.21.12.27.06s0-.17-.07-.26-.21-.12-.26-.06-.03.17.06.26z" fill="#fa0204"/><path d="m29.92 28a.28.28 0 0 1 -.2-.1c-.1-.1-.13-.22-.06-.29s.18 0 .28.07.13.22.07.29a.12.12 0 0 1 -.09.03zm-.18-.38h-.06c0 .05 0 .15.07.23s.19.11.23.07 0-.15-.06-.23a.28.28 0 0 0 -.18-.1z"/><path d="m29.73 27.5c.09.09.21.12.27.06s0-.17-.07-.26-.21-.12-.26-.06-.03.17.06.26z" fill="#fa0204"/><path d="m29.92 27.61a.28.28 0 0 1 -.2-.1c-.1-.1-.13-.22-.06-.29s.18 0 .28.07.13.23.07.29a.12.12 0 0 1 -.09.03zm-.18-.38h-.06c0 .05 0 .15.07.24s.19.11.23.06 0-.15-.06-.23a.28.28 0 0 0 -.18-.07z"/><path d="m29.76 27.18c.09.09.2.12.26.06s0-.17-.07-.26-.2-.12-.26-.06-.02.17.07.26z" fill="#fa0204"/><path d="m29.94 27.29a.29.29 0 0 1 -.2-.1c-.1-.1-.13-.22-.06-.29s.19 0 .29.07.12.22.06.29a.12.12 0 0 1 -.09.03zm-.18-.38h-.05c-.05.05 0 .15.06.23s.19.11.23.07 0-.15-.06-.23a.26.26 0 0 0 -.18-.07z"/><path d="m29.76 26.83c.09.09.2.12.26.07s0-.17-.07-.26-.2-.12-.26-.07-.02.17.07.26z" fill="#fa0204"/><path d="m29.94 26.94a.32.32 0 0 1 -.2-.09c-.1-.1-.13-.23-.06-.29s.19 0 .29.06.12.23.06.29a.12.12 0 0 1 -.09.03zm-.18-.38h-.05c-.05.05 0 .16.06.24s.19.11.23.06 0-.15-.06-.23a.31.31 0 0 0 -.18-.07z"/><path d="m29.77 26.48c.09.09.21.12.26.06s0-.17-.07-.26-.2-.12-.26-.06-.02.17.07.26z" fill="#fa0204"/><path d="m30 26.59a.26.26 0 0 1 -.2-.1c-.1-.1-.13-.22-.07-.29s.19 0 .29.07.13.23.06.29a.11.11 0 0 1 -.08.03zm-.18-.38h-.06c0 .05 0 .15.06.23s.19.11.24.07 0-.15-.07-.23a.24.24 0 0 0 -.21-.07z"/><path d="m29.36 26.18c0 .12.12.2.18.18s.08-.14 0-.26-.12-.2-.19-.18-.03.14.01.26z" fill="#fa0204"/><path d="m29.52 26.38c-.07 0-.14-.08-.18-.19-.05-.14 0-.26.05-.29a.13.13 0 0 1 .12.05.32.32 0 0 1 .09.15c0 .13 0 .25-.05.28zm-.11-.44s-.06.12 0 .23c0 .12.11.19.16.17s.06-.11 0-.23a.64.64 0 0 0 -.08-.14.11.11 0 0 0 -.08-.03z"/><path d="m29.07 26.1c0 .12.13.2.19.18s.08-.13 0-.25-.13-.21-.19-.19-.07.16 0 .26z" fill="#fa0204"/><path d="m29.24 26.3a.14.14 0 0 1 -.1 0 .54.54 0 0 1 -.09-.15c0-.14 0-.26.05-.28s.08 0 .12 0a.32.32 0 0 1 .09.15.26.26 0 0 1 0 .17.1.1 0 0 1 -.07.11zm-.11-.44c-.05 0-.07.12 0 .23a.37.37 0 0 0 .08.14s.06 0 .08 0 0 0 .05-.07a.47.47 0 0 0 0-.16.41.41 0 0 0 -.08-.13s-.11-.01-.13-.01z"/><path d="m28.79 26c0 .13.12.21.19.19s.07-.14 0-.26-.12-.2-.18-.18-.05.16-.01.25z" fill="#fa0204"/><path d="m29 26.24a.14.14 0 0 1 -.09 0 .32.32 0 0 1 -.09-.15.35.35 0 0 1 0-.17c0-.06 0-.1.07-.11a.12.12 0 0 1 .12 0 .38.38 0 0 1 -.01.19.39.39 0 0 1 0 .18c0 .05 0 .09-.07.1zm-.19-.24a.41.41 0 0 0 .08.13.12.12 0 0 0 .08 0 .09.09 0 0 0 0-.08.39.39 0 0 0 .03-.05.37.37 0 0 0 -.08-.14.09.09 0 0 0 -.09 0s0 0 0 .07a.31.31 0 0 0 0 .16z"/><path d="m28.5 26c0 .12.12.2.19.18s.09-.14 0-.26-.13-.2-.2-.18-.03.13.01.26z" fill="#fa0204"/><path d="m28.67 26.19c-.07 0-.15-.07-.19-.19a.39.39 0 0 1 0-.18.15.15 0 0 1 .08-.11c.07 0 .17.06.21.2s0 .25-.05.28zm-.1-.44s0 0-.05.08a.31.31 0 0 0 0 .16c0 .1.11.18.16.16s.07-.12 0-.23-.06-.17-.11-.17z"/><path d="m28.19 25.94c0 .11.15.19.21.16s.08-.15 0-.27-.15-.18-.21-.16-.05.15 0 .27z" fill="#fa0204"/><path d="m28.37 26.12a.16.16 0 0 1 -.09 0 .4.4 0 0 1 -.11-.14c-.05-.13 0-.26 0-.29s.18 0 .24.17a.55.55 0 0 1 0 .17.15.15 0 0 1 -.07.12zm-.12-.43s-.06.14 0 .24a.43.43 0 0 0 .09.13s.07 0 .09 0 0 0 .05-.08a.5.5 0 0 0 0-.16c-.11-.07-.18-.13-.23-.13z"/><path d="m27.87 25.89c0 .12.13.2.19.17s.1-.14.05-.26-.12-.2-.19-.17-.09.14-.05.26z" fill="#fa0204"/><path d="m28 26.09c-.07 0-.15-.08-.19-.2a.35.35 0 0 1 0-.17.12.12 0 0 1 .08-.11c.08 0 .18.05.22.19a.35.35 0 0 1 0 .17.12.12 0 0 1 -.08.11zm-.15-.21c0 .11.11.18.17.17a.12.12 0 0 0 .05-.08.45.45 0 0 0 0-.16c0-.11-.12-.18-.18-.16s0 0-.05.07a.3.3 0 0 0 0 .16z"/><path d="m27.57 25.75c0 .12.13.2.19.18s.08-.14 0-.26-.13-.2-.19-.18-.04.14 0 .26z" fill="#fa0204"/><path d="m27.74 26c-.07 0-.14-.08-.18-.2 0-.13 0-.25.05-.28a.13.13 0 0 1 .12 0 .54.54 0 0 1 .09.15c0 .14 0 .26-.05.29zm-.15-.21c0 .12.12.18.16.17s.07-.12 0-.23a.37.37 0 0 0 -.08-.14s-.06 0-.08 0-.07.11 0 .23z"/><path d="m27.28 25.57c0 .12.06.23.13.22s.11-.1.11-.23-.05-.23-.12-.23-.12.11-.12.24z" fill="#fa0204"/><path d="m27.4 25.81c-.07 0-.13-.1-.14-.24a.48.48 0 0 1 0-.18c0-.05.06-.08.1-.08a.11.11 0 0 1 .1.08.33.33 0 0 1 0 .17c0 .14-.06.25-.13.25zm-.1-.25c0 .13.06.21.1.21.05 0 .1-.08.1-.21a.33.33 0 0 0 0-.15.1.1 0 0 0 -.07-.06.07.07 0 0 0 -.06.06.26.26 0 0 0 -.07.15z"/><path d="m27.57 24.42c0 .13.05.23.12.23s.12-.1.11-.23-.05-.23-.12-.23-.11.11-.11.23z" fill="#fa0204"/><path d="m27.69 24.67a.1.1 0 0 1 -.1-.07.34.34 0 0 1 0-.18c0-.14.06-.25.13-.25.08 0 .14.11.14.25a.29.29 0 0 1 0 .17c0 .06-.06.08-.1.08zm0-.46s-.09.09-.09.21a.38.38 0 0 0 0 .16s0 .05.07.05a.07.07 0 0 0 .06-.05.27.27 0 0 0 0-.16c.05-.12 0-.21-.05-.21z"/><path d="m27.79 24.21c0 .12.05.23.12.23s.11-.11.11-.24-.02-.2-.12-.2-.11.08-.11.21z" fill="#fa0204"/><path d="m27.91 24.46a.11.11 0 0 1 -.1-.08.33.33 0 0 1 0-.17c0-.14.06-.25.13-.25.08 0 .14.1.14.24a.48.48 0 0 1 0 .18c0 .05-.06.08-.1.08zm0-.46s-.09.08-.09.21a.33.33 0 0 0 0 .15s0 .06.07.06 0 0 .06-.06a.38.38 0 0 0 0-.16c.05-.12.05-.2-.05-.2z"/><path d="m28 24c0 .13.06.23.12.23s.12-.1.12-.23-.05-.23-.12-.23-.12.14-.12.23z" fill="#fa0204"/><path d="m28.14 24.29c-.07 0-.13-.11-.14-.25a.47.47 0 0 1 0-.17c0-.05.06-.08.1-.08a.11.11 0 0 1 .1.08.31.31 0 0 1 0 .17c0 .14-.06.25-.13.25zm0-.46a.07.07 0 0 0 -.06.06.24.24 0 0 0 -.08.11c0 .13.06.21.1.21.05 0 .1-.09.1-.21a.33.33 0 0 0 0-.15.1.1 0 0 0 -.06-.02z"/><path d="m28.23 23.81c0 .12.06.23.12.23s.12-.11.12-.23-.06-.23-.12-.23-.12.1-.12.23z" fill="#fa0204"/><path d="m28.35 24.06c-.08 0-.14-.11-.14-.25a.29.29 0 0 1 0-.17.1.1 0 0 1 .1-.08s.07 0 .1.07a.48.48 0 0 1 0 .18c0 .14-.06.25-.14.25zm0-.46s-.05 0-.07 0a.38.38 0 0 0 0 .16c0 .12.06.21.1.21s.1-.09.1-.21a.27.27 0 0 0 0-.16.07.07 0 0 0 -.13 0z"/><path d="m28.44 23.55c0 .13 0 .23.12.23s.11-.1.11-.23-.05-.23-.12-.23-.11.11-.11.23z" fill="#fa0204"/><path d="m28.56 23.8c-.08 0-.14-.11-.14-.25a.47.47 0 0 1 0-.17c0-.05.06-.08.1-.08a.14.14 0 0 1 .11.08.43.43 0 0 1 0 .17c0 .14-.05.25-.13.25zm0-.46s0 0-.06.06a.33.33 0 0 0 0 .15c0 .13.05.21.1.21s.1-.08.09-.21a.33.33 0 0 0 0-.15s-.11-.06-.14-.06z"/><path d="m28.61 23.26c0 .13.06.23.12.23s.12-.11.12-.23-.06-.23-.12-.23-.12.1-.12.23z" fill="#fa0204"/><path d="m28.73 23.51c-.07 0-.14-.11-.14-.25a.29.29 0 0 1 0-.17.11.11 0 0 1 .1-.08s.07 0 .1.07a.48.48 0 0 1 0 .18.33.33 0 0 1 0 .17.11.11 0 0 1 -.1.08zm-.1-.25c0 .12.06.21.1.21s.05 0 .07-.06a.33.33 0 0 0 0-.15.38.38 0 0 0 0-.16.1.1 0 0 0 -.07-.05s-.05 0-.07.05a.41.41 0 0 0 0 .16z"/><path d="m28.79 22.94c0 .13.05.23.12.23s.12-.11.12-.23-.06-.23-.12-.23-.12.1-.12.23z" fill="#fa0204"/><path d="m28.91 23.19c-.08 0-.14-.11-.14-.25s.06-.25.14-.25c.07 0 .13.11.14.25s-.06.25-.14.25zm0-.46c-.05 0-.1.08-.1.21s.05.21.1.21c.05 0 .1-.09.1-.21s-.01-.21-.1-.21z"/><path d="m29 22.69c0 .13.09.22.15.21s.1-.12.08-.24-.08-.23-.15-.22-.08.12-.08.25z" fill="#fa0204"/><path d="m29.11 22.92a.14.14 0 0 1 -.1-.06.38.38 0 0 1 -.06-.17c0-.14 0-.25.1-.27a.13.13 0 0 1 .11.07.28.28 0 0 1 .06.16c0 .14 0 .26-.09.27zm-.05-.46s-.09.1-.07.23a.3.3 0 0 0 .06.14.08.08 0 0 0 .07.05c.05 0 .08-.1.07-.22a.34.34 0 0 0 -.06-.15.1.1 0 0 0 -.07-.05z"/><path d="m29.14 22.43c0 .13.09.22.15.21s.11-.12.09-.25-.09-.22-.15-.21-.11.12-.09.25z" fill="#fa0204"/><path d="m29.28 22.66a.14.14 0 0 1 -.1-.06.43.43 0 0 1 -.06-.17c0-.14 0-.25.1-.27a.13.13 0 0 1 .11.07.39.39 0 0 1 .07.16.35.35 0 0 1 0 .18.11.11 0 0 1 -.08.09zm-.05-.46c-.05 0-.09.1-.07.23a.3.3 0 0 0 .06.14.08.08 0 0 0 .07.05s0 0 .06-.07a.35.35 0 0 0 0-.15.34.34 0 0 0 -.06-.15s-.03-.05-.06-.05z"/><path d="m29.3 22.18c.05.12.13.2.19.18s.08-.14 0-.26-.13-.2-.19-.18-.04.14 0 .26z" fill="#fa0204"/><path d="m29.47 22.38a.12.12 0 0 1 -.09 0 .35.35 0 0 1 -.09-.16c-.05-.13 0-.25.05-.28a.13.13 0 0 1 .12 0 .48.48 0 0 1 .09.16c0 .13 0 .25-.05.28zm-.15-.21a.37.37 0 0 0 .08.14s.06 0 .08 0 .07-.11 0-.23a.37.37 0 0 0 -.08-.14s-.06 0-.08 0-.07.11 0 .23z"/><path d="m29.47 21.94c0 .12.13.2.19.18s.08-.14 0-.26-.13-.2-.19-.18-.04.14 0 .26z" fill="#fa0204"/><path d="m29.64 22.14a.16.16 0 0 1 -.1-.05.43.43 0 0 1 -.09-.15c0-.13 0-.25.05-.28a.12.12 0 0 1 .12 0 .38.38 0 0 1 .09.15c.05.14 0 .26-.05.28s-.01.05-.02.05zm-.15-.21a.41.41 0 0 0 .08.13.12.12 0 0 0 .08 0c.05 0 .07-.12 0-.23a.37.37 0 0 0 -.08-.14s-.06 0-.08 0-.07.11 0 .23z"/><path d="m29.59 21.7c.05.12.15.19.21.16s.06-.14 0-.26-.15-.18-.21-.15-.06.14 0 .25z" fill="#fa0204"/><path d="m29.77 21.89c-.07 0-.15-.07-.2-.18a.35.35 0 0 1 0-.17c0-.05 0-.1 0-.11s.18 0 .24.16a.38.38 0 0 1 0 .17.12.12 0 0 1 -.06.12zm-.16-.19c.05.11.14.16.18.14s0 0 0-.08a.31.31 0 0 0 0-.15c-.05-.11-.14-.17-.18-.15s0 0 0 .08a.34.34 0 0 0 0 .16z"/><path d="m29.72 21.51c.07.11.17.16.22.13s0-.15 0-.26-.18-.16-.23-.13-.06.15.01.26z" fill="#fa0204"/><path d="m29.91 21.67a.11.11 0 0 1 -.08 0 .37.37 0 0 1 -.13-.12.35.35 0 0 1 -.06-.16.14.14 0 0 1 0-.13c.06 0 .17 0 .25.14a.37.37 0 0 1 .07.16c0 .06 0 .1-.05.12zm-.18-.41s0 0 0 .08a.3.3 0 0 0 .05.15.4.4 0 0 0 .12.11.08.08 0 0 0 .08 0s0 0 0-.08a.47.47 0 0 0 -.06-.15.29.29 0 0 0 -.19-.11z"/><path d="m27 25.48c0 .13.06.23.12.23s.12-.11.12-.23-.06-.23-.12-.23-.12.1-.12.23z" fill="#fa0204"/><path d="m27.13 25.73c-.07 0-.14-.11-.14-.25a.29.29 0 0 1 0-.17.11.11 0 0 1 .1-.08s.07 0 .1.07a.48.48 0 0 1 0 .18c0 .14-.06.25-.14.25zm-.1-.25c0 .12.06.21.1.21.05 0 .1-.09.1-.21a.38.38 0 0 0 0-.16s-.05-.06-.07-.05a.1.1 0 0 0 -.07.05.41.41 0 0 0 -.09.16z"/><path d="m26.74 25.38v.26s.15 0 .21-.16 0-.23 0-.26-.16.05-.21.16z" fill="#fa0204"/><path d="m26.78 25.67c-.07 0-.08-.16 0-.29s.16-.2.23-.17.08.16 0 .29a.24.24 0 0 1 -.23.17zm0-.29c-.05.11 0 .21 0 .23s.13 0 .18-.15 0-.21 0-.23-.13 0-.18.15z"/><path d="m26.52 25.28c-.05.12-.05.23 0 .26s.15-.05.2-.16.05-.23 0-.26-.15.04-.2.16z" fill="#fa0204"/><path d="m26.56 25.57c-.07 0-.08-.16 0-.29.06-.13.16-.2.23-.17s.08.16 0 .29-.17.17-.23.17zm.14-.44c-.05 0-.12.06-.16.16-.06.11 0 .21 0 .23s.12 0 .18-.15 0-.21 0-.23z"/><path d="m26.42 25c-.05.11 0 .23 0 .25s.15 0 .2-.16.05-.23 0-.26-.14.08-.2.17z" fill="#fa0204"/><path d="m26.46 25.31c-.07 0-.08-.15 0-.28.05-.13.15-.21.23-.17s.08.15 0 .28-.16.17-.23.17zm.14-.43s-.11.06-.16.15c-.05.12 0 .22 0 .24s.13 0 .18-.15 0-.22 0-.24z"/><path d="m29.77 26.12c.09.09.21.12.26.07s0-.17-.07-.26-.2-.12-.26-.07-.02.14.07.26z" fill="#fa0204"/><path d="m30 26.24a.3.3 0 0 1 -.2-.1c-.1-.1-.13-.23-.07-.29s.19 0 .29.07.13.22.06.28a.09.09 0 0 1 -.08.04zm-.18-.38s-.05 0-.06 0 0 .15.06.23.19.11.24.07 0-.16-.07-.24a.27.27 0 0 0 -.21-.06z"/><path d="m29.79 25.8c.09.09.21.11.26.06s0-.17-.07-.26-.2-.12-.26-.07-.02.17.07.27z" fill="#fa0204"/><path d="m30 25.91h-.05a.33.33 0 0 1 -.16-.09c-.09-.1-.12-.23-.06-.29s.19 0 .29.07a.34.34 0 0 1 .09.15.14.14 0 0 1 0 .13.09.09 0 0 1 -.11.03zm-.18-.13a.29.29 0 0 0 .14.08.11.11 0 0 0 .1 0 .11.11 0 0 0 0-.1.29.29 0 0 0 -.08-.14c-.08-.08-.19-.11-.23-.06s0 .15.06.23z"/><path d="m29.79 25.47c.09.09.21.12.26.07s0-.17-.07-.26-.2-.12-.26-.07-.02.17.07.26z" fill="#fa0204"/><path d="m30 25.58a.32.32 0 0 1 -.21-.09c-.09-.1-.12-.23-.06-.29s.19 0 .29.06.13.23.06.29a.11.11 0 0 1 -.08.03zm-.18-.38a.06.06 0 0 0 -.06 0s0 .15.06.23.19.11.24.06 0-.15-.07-.23a.31.31 0 0 0 -.19-.06z"/><path d="m29.8 25.13c.09.09.2.12.25.08s0-.16-.08-.25-.2-.13-.25-.08-.01.12.08.25z" fill="#fa0204"/><path d="m30 25.25a.33.33 0 0 1 -.21-.11c-.09-.09-.13-.22-.07-.27s.18 0 .28.07.13.22.07.28a.09.09 0 0 1 -.07.03zm-.18-.13c.08.08.19.11.23.07s0-.14-.08-.22-.18-.12-.22-.08 0 .15.07.23z"/><path d="m29.78 24.79c.09.09.2.13.25.08s0-.16-.08-.25-.2-.12-.25-.08-.01.16.08.25z" fill="#fa0204"/><path d="m30 24.91a.28.28 0 0 1 -.2-.1c-.1-.1-.14-.22-.08-.28s.18 0 .28.08.13.22.07.27a.08.08 0 0 1 -.07.03zm-.18-.13c.08.08.19.12.23.08s0-.15-.08-.23-.18-.11-.22-.07 0 .14.07.22z"/><path d="m29.78 24.48c.09.09.2.13.25.08s0-.16-.08-.25-.2-.13-.25-.08-.01.16.08.25z" fill="#fa0204"/><path d="m30 24.6a.32.32 0 0 1 -.2-.1c-.1-.1-.14-.23-.08-.28s.18 0 .28.07.13.22.07.28a.08.08 0 0 1 -.07.03zm-.18-.13c.08.08.19.11.23.07s0-.14-.08-.22-.18-.11-.22-.07 0 .14.07.22z"/><path d="m29.8 24.16c.09.09.2.12.25.08s0-.16-.08-.25-.2-.13-.25-.08-.01.16.08.25z" fill="#fa0204"/><path d="m30 24.28a.33.33 0 0 1 -.21-.11c-.09-.09-.13-.22-.07-.27s.18 0 .28.07.13.22.07.28a.09.09 0 0 1 -.07.03zm-.18-.13c.08.08.19.11.23.07s0-.14-.08-.22-.18-.12-.22-.08 0 .15.07.23z"/><path d="m29.76 23.56c.09.09.21.12.25.07s0-.16-.07-.25-.2-.12-.25-.07-.02.16.07.25z" fill="#fa0204"/><path d="m30 23.68a.31.31 0 0 1 -.2-.11c-.1-.1-.13-.22-.08-.28s.18 0 .28.08.14.22.08.28a.11.11 0 0 1 -.08.03zm-.17-.14c.08.09.18.12.22.08s0-.14-.07-.22-.19-.12-.23-.08 0 .14.08.22z"/><path d="m29.8 23.27c.09.09.2.12.25.07s0-.16-.08-.25-.2-.12-.25-.07-.01.16.08.25z" fill="#fa0204"/><path d="m30 23.39a.33.33 0 0 1 -.21-.11c-.09-.1-.13-.22-.07-.28s.18 0 .28.08.13.22.07.28a.09.09 0 0 1 -.07.03zm-.18-.14c.08.09.19.12.23.08s0-.14-.08-.22-.18-.12-.22-.08 0 .14.07.22z"/><path d="m29.76 22.93c.09.09.21.12.25.07s0-.16-.07-.25-.2-.12-.25-.07-.02.16.07.25z" fill="#fa0204"/><path d="m30 23.05a.31.31 0 0 1 -.2-.11c-.1-.1-.13-.22-.08-.28s.18 0 .28.08.14.22.08.28a.11.11 0 0 1 -.08.03zm-.17-.14c.08.08.18.12.22.08s0-.14-.07-.22-.19-.12-.23-.08 0 .14.08.22z"/><path d="m29.82 22.63c.09.09.2.12.25.07s0-.16-.08-.25-.2-.12-.25-.07-.01.16.08.25z" fill="#fa0204"/><path d="m30 22.74a.31.31 0 0 1 -.21-.1c-.09-.1-.13-.22-.07-.28s.18 0 .28.08.13.22.07.28zm-.18-.13c.08.08.19.12.23.08s0-.14-.08-.22-.18-.12-.22-.08 0 .14.07.22z"/><path d="m29.81 22.3c.09.09.2.12.25.07s0-.16-.08-.25-.2-.12-.25-.07-.01.16.08.25z" fill="#fa0204"/><path d="m30 22.41a.31.31 0 0 1 -.21-.1c-.09-.1-.13-.22-.07-.28s.18 0 .28.08.13.22.07.28a.08.08 0 0 1 -.07.02zm-.18-.13c.08.08.19.12.23.08s0-.14-.08-.22-.18-.12-.22-.08 0 .14.07.22z"/><ellipse cx="29.91" cy="21.88" fill="#fa0204" rx=".12" ry=".23" transform="matrix(.70710678 -.70710678 .70710678 .70710678 -6.71 27.56)"/><path d="m30 22.09a.33.33 0 0 1 -.2-.09c-.09-.1-.13-.22-.07-.28s.18 0 .28.08.13.22.07.28a.09.09 0 0 1 -.08.01zm-.17-.09c.08.09.19.12.23.08s0-.14-.08-.22-.18-.12-.22-.08 0 .14.07.22z"/><path d="m29.8 21.61c.09.09.2.13.25.08s0-.16-.08-.25-.2-.13-.25-.08-.01.16.08.25z" fill="#fa0204"/><path d="m30 21.73a.37.37 0 0 1 -.21-.1c-.09-.1-.13-.22-.07-.28s.18 0 .28.07.13.23.07.28a.09.09 0 0 1 -.07.03zm-.18-.13c.08.08.19.11.23.07s0-.14-.08-.22-.18-.11-.22-.07 0 .14.07.22z"/><path d="m29.25 20.35v.26s.15-.06.19-.18 0-.24-.05-.26-.11.06-.14.18z" fill="#fa0204"/><path d="m29.32 20.63a.12.12 0 0 1 -.08-.11.35.35 0 0 1 0-.17.32.32 0 0 1 .09-.15.13.13 0 0 1 .12-.05s.06.05.08.11a.35.35 0 0 1 0 .17.35.35 0 0 1 -.09.16.12.12 0 0 1 -.12.04zm-.06-.27a.45.45 0 0 0 0 .16s0 .07.05.07a.07.07 0 0 0 .08 0 .22.22 0 0 0 .08-.14.27.27 0 0 0 0-.15.12.12 0 0 0 -.05-.08.09.09 0 0 0 -.09 0 .47.47 0 0 0 -.08.14z"/><path d="m29.05 20.18v.2s.12 0 .16-.12 0-.18 0-.2-.12.03-.16.12z" fill="#fa0204"/><path d="m29.09 20.41a.09.09 0 0 1 0-.09.24.24 0 0 1 0-.14c0-.1.13-.16.19-.13s.05 0 .05.09a.2.2 0 0 1 0 .13c-.12.08-.18.14-.24.14zm.1-.34a.24.24 0 0 0 -.14.24s0 .05 0 .05.09 0 .13-.11a.17.17 0 0 0 0-.12.06.06 0 0 0 0-.06z"/><path d="m28.87 20c0 .11 0 .2.09.21s.11-.08.12-.19 0-.2-.08-.21-.12.11-.13.19z" fill="#fa0204"/><path d="m29 20.26c-.07 0-.11-.11-.1-.23 0-.12.08-.21.15-.2a.11.11 0 0 1 .09.07.38.38 0 0 1 0 .15c-.05.12-.14.21-.14.21zm-.11-.26c0 .1 0 .18.07.19s.09-.07.1-.17a.27.27 0 0 0 0-.13.1.1 0 0 0 -.05-.06s-.1.07-.11.17z"/><path d="m29.68 20.67c0 .11 0 .2.09.21s.11-.07.12-.18 0-.2-.08-.21-.11.08-.13.18z" fill="#fa0204"/><path d="m29.77 20.9c-.07 0-.11-.11-.1-.23s.08-.21.15-.2.07 0 .09.08a.35.35 0 0 1 0 .15c-.01.12-.07.2-.14.2zm0-.39s-.09.07-.11.17 0 .18.07.18.09-.06.1-.16a.22.22 0 0 0 0-.14s0 0-.05 0z"/><path d="m29.88 20.81c0 .13 0 .24.1.25s.13-.09.15-.22 0-.23-.1-.24-.14.09-.15.21z" fill="#fa0204"/><path d="m30 21.08a.13.13 0 0 1 -.1-.09.35.35 0 0 1 0-.18c0-.14.09-.24.17-.23s.08 0 .1.09a.47.47 0 0 1 0 .17.38.38 0 0 1 -.06.17.13.13 0 0 1 -.11.07zm0-.46c-.05 0-.11.09-.12.2a.25.25 0 0 0 0 .15s.12.03.12.03a.15.15 0 0 0 .08-.05.53.53 0 0 0 .05-.15.41.41 0 0 0 0-.16.07.07 0 0 0 -.06-.06z"/><path d="m30.18 20.56c-.06.09-.07.19 0 .22s.14 0 .2-.11.07-.19 0-.22-.14.02-.2.11z" fill="#fa0204"/><path d="m30.2 20.81h-.05c-.06 0 0-.15 0-.25a.29.29 0 0 1 .11-.11.11.11 0 0 1 .11 0 .12.12 0 0 1 0 .11.24.24 0 0 1 -.05.14.28.28 0 0 1 -.12.11zm0-.24c-.06.08-.06.17 0 .19s.12 0 .17-.1a.21.21 0 0 0 .05-.12s0-.06 0-.07h-.08a.45.45 0 0 0 -.09.1z"/><path d="m30.66 20.79c.1.05.2.05.23 0s0-.13-.13-.18-.2-.05-.22 0 .03.13.12.18z" fill="#fa0204"/><path d="m30.8 20.85a.27.27 0 0 1 -.14 0c-.11-.06-.17-.15-.14-.21a.11.11 0 0 1 .1-.05.28.28 0 0 1 .15 0c.11.05.17.15.14.21a.13.13 0 0 1 -.11.05zm-.13-.07h.2s0-.11-.12-.16a.31.31 0 0 0 -.13 0s-.06 0-.06 0 0 .11.11.16z"/><ellipse cx="30.37" cy="28.56" fill="#ffe000" rx=".24" ry=".45"/><path d="m30.37 29c-.15 0-.26-.21-.26-.47s.08-.47.26-.47.25.15.25.47-.11.47-.25.47zm0-.91c-.15 0-.22.15-.22.44s.1.43.22.43.21-.2.21-.43-.07-.41-.21-.41z"/><path d="m30.76 20.57c.07.08.17.11.21.06s0-.13-.06-.21-.18-.1-.22-.06-.01.14.07.21z" fill="#fa0204"/><path d="m30.92 20.67h-.05l-.13-.08a.31.31 0 0 1 -.08-.13.12.12 0 0 1 0-.12.1.1 0 0 1 .11 0 .31.31 0 0 1 .13.08.28.28 0 0 1 .08.12.12.12 0 0 1 0 .12zm-.18-.31a.11.11 0 0 0 0 .08.49.49 0 0 0 .07.11l.11.07a.1.1 0 0 0 .08 0 .08.08 0 0 0 0-.07.19.19 0 0 0 -.07-.11.28.28 0 0 0 -.11-.08z"/><path d="m30.94 20.41c.08.08.17.11.21.07s0-.14-.06-.22-.18-.1-.22-.06-.01.14.07.21z" fill="#fa0204"/><path d="m31.1 20.52h-.05a.31.31 0 0 1 -.13-.08c-.08-.09-.11-.19-.06-.24s.15 0 .24.06a.26.26 0 0 1 .08.13.1.1 0 0 1 0 .11.09.09 0 0 1 -.08.02zm-.1-.12a.37.37 0 0 0 .12.07.06.06 0 0 0 .07 0 .08.08 0 0 0 0-.07.28.28 0 0 0 -.08-.11c-.07-.07-.16-.09-.18-.06s0 .11.06.18z"/><path d="m31.08 20.2c.08.08.18.11.22.07s0-.14-.07-.22-.17-.05-.23-.05 0 .13.08.2z" fill="#fa0204"/><path d="m31.25 20.31a.26.26 0 0 1 -.18-.09.31.31 0 0 1 -.08-.13.1.1 0 0 1 .01-.09c.05-.05.16 0 .25.06s.11.19.06.24a.07.07 0 0 1 -.06.01zm-.18-.31a.05.05 0 0 0 0 0 .08.08 0 0 0 0 .07.19.19 0 0 0 .07.11c.07.07.16.09.18.06s0-.11-.06-.18a.25.25 0 0 0 -.19-.06z"/><path d="m30.12 20.91c-.07.11-.09.22 0 .25s.14 0 .21-.13.09-.22 0-.25-.14.03-.21.13z" fill="#fa0204"/><path d="m30.11 21.19a.15.15 0 0 1 0-.12.56.56 0 0 1 .07-.16.45.45 0 0 1 .12-.12h.12s0 .06 0 .12a.35.35 0 0 1 -.06.16.68.68 0 0 1 -.12.12zm.19-.4h-.06a.29.29 0 0 0 -.11.11.47.47 0 0 0 -.06.15s0 .06 0 .07a.08.08 0 0 0 .08 0 1.14 1.14 0 0 0 .11-.11.47.47 0 0 0 .06-.15.12.12 0 0 0 0-.07z"/><path d="m30.4 20.81v.22s.14 0 .19-.12 0-.2 0-.23-.14.03-.19.13z" fill="#fa0204"/><path d="m30.43 21.06a.1.1 0 0 1 -.05-.1.42.42 0 0 1 0-.15.27.27 0 0 1 .1-.11s.08 0 .11 0a.1.1 0 0 1 .05.1.28.28 0 0 1 0 .15.25.25 0 0 1 -.09.11zm.12-.36a.06.06 0 0 0 -.05 0 .27.27 0 0 0 -.08.1.22.22 0 0 0 0 .13.08.08 0 0 0 0 .07.07.07 0 0 0 .07 0 .22.22 0 0 0 .09-.1.31.31 0 0 0 0-.13.08.08 0 0 0 0-.07z"/><path d="m30.09 18.93c-.11 0-.21 0-.21.09s.09.11.2.12.2 0 .2-.1-.08-.11-.19-.11z" fill="#fa0204"/><path d="m30.09 19.16a.33.33 0 0 1 -.14 0c-.05 0-.07-.06-.07-.1s.1-.12.23-.11a.21.21 0 0 1 .14 0 .1.1 0 0 1 .07.09.11.11 0 0 1 -.07.09.32.32 0 0 1 -.16.03zm0-.21c-.1 0-.17 0-.17.07a.07.07 0 0 0 .05.06.25.25 0 0 0 .13 0h.13s.05 0 .05-.06 0 0-.05-.06a.25.25 0 0 0 -.13 0z"/><path d="m30.19 19.15c-.12 0-.23 0-.23.09s.1.11.22.12.23 0 .24-.1-.1-.11-.23-.11z" fill="#fa0204"/><path d="m30.21 19.38c-.14 0-.24-.07-.24-.14s.11-.12.25-.11c.14 0 .25.07.25.14s-.13.11-.26.11zm0-.21c-.11 0-.19 0-.19.07s.08.09.2.1.21 0 .22-.08-.08-.09-.21-.09z"/><path d="m30.26 19.4c-.12 0-.23 0-.25 0s.07.13.19.17.23 0 .25 0-.07-.14-.19-.17z" fill="#fa0204"/><path d="m30.32 19.64h-.12a.6.6 0 0 1 -.16-.08s-.06-.08-.05-.11.05-.06.1-.07a.39.39 0 0 1 .18 0c.13 0 .22.12.2.19a.11.11 0 0 1 -.1.06zm-.18-.24s-.06 0-.07 0 0 0 0 .07a.37.37 0 0 0 .14.07.41.41 0 0 0 .15 0s.07 0 .07 0-.06-.11-.17-.15h-.12z"/><path d="m30.22 19.63c-.12 0-.23 0-.24.08s.09.11.22.13.23 0 .24-.08-.09-.11-.22-.13z" fill="#fa0204"/><path d="m30.26 19.86h-.07l-.19-.05a.13.13 0 0 1 0-.11.15.15 0 0 1 .09-.08.47.47 0 0 1 .17 0 .58.58 0 0 1 .17.05.1.1 0 0 1 .06.11s0 .06-.08.08zm-.1-.21h-.1s-.06 0-.06.05 0 0 .05.06a.33.33 0 0 0 .15.05.35.35 0 0 0 .15 0 .1.1 0 0 0 .07 0s0 0-.05-.06a.33.33 0 0 0 -.15-.05h-.06z"/><path d="m30.78 29.88a.49.49 0 0 1 -.67 0l.16-.26h.31z" fill="#fa0204"/><path d="m30.44 30a.53.53 0 0 1 -.35-.14s0 0 0 0l.16-.26h.34l.21.26a.58.58 0 0 1 -.36.14zm-.31-.16a.46.46 0 0 0 .63 0l-.19-.23h-.29z"/><path d="m30.78 29.88s.22-1.19-.35-1.19-.32 1.19-.32 1.19a.78.78 0 0 1 .32-.05.73.73 0 0 1 .35.05z" fill="#fa0204"/><path d="m30.78 29.9a.9.9 0 0 0 -.34-.05 1 1 0 0 0 -.31.05s0 0 0 0-.17-.79.08-1.09a.31.31 0 0 1 .26-.12.34.34 0 0 1 .26.12c.25.3.12 1.06.11 1.09s0 0 0 0zm-.35-.09a1 1 0 0 1 .34 0 1.69 1.69 0 0 0 -.11-1 .3.3 0 0 0 -.23-.11.27.27 0 0 0 -.23.11c-.21.25-.1.9-.08 1a.82.82 0 0 1 .31 0z"/><path d="m30.3 19.88c-.13 0-.23 0-.24.09s.08.13.21.14.23 0 .24-.08-.09-.13-.21-.15z" fill="#fa0204"/><path d="m30.33 20.14h-.06a.29.29 0 0 1 -.17-.05s-.1-.09-.1-.09.12-.12.26-.1c.14 0 .24.09.23.16s0 .07-.09.09zm-.09-.24c-.09 0-.16 0-.16.07s0 .05 0 .07a.34.34 0 0 0 .15.06.41.41 0 0 0 .16 0s.06 0 .06 0-.07-.11-.19-.13z"/><path d="m30.43 20.16c-.11-.05-.23 0-.26 0s0 .17.15.22.24 0 .27 0-.04-.17-.16-.22z" fill="#fa0204"/><path d="m30.46 20.46a.32.32 0 0 1 -.14 0c-.13-.06-.2-.16-.17-.24a.15.15 0 0 1 .12-.08h.17a.4.4 0 0 1 .14.11.17.17 0 0 1 0 .13.16.16 0 0 1 -.12.08zm-.16-.31s-.07 0-.08.05 0 .15.14.19.21 0 .24 0a.13.13 0 0 0 0-.1.27.27 0 0 0 -.12-.09z"/><path d="m29.69 19.93c-.1.05-.16.14-.13.21s.14.07.24 0 .16-.14.13-.21-.14-.05-.24 0z" fill="#fa0204"/><path d="m29.67 20.21a.12.12 0 0 1 -.12-.07.11.11 0 0 1 0-.12.32.32 0 0 1 .12-.11.28.28 0 0 1 .15 0 .14.14 0 0 1 .11.07c0 .07 0 .17-.13.23a.23.23 0 0 1 -.13 0zm.15-.3a.24.24 0 0 0 -.13 0 .22.22 0 0 0 -.1.09.1.1 0 0 0 0 .09c0 .05.13.05.22 0s.14-.13.11-.19 0 0-.08 0z"/><path d="m29.91 20.12c-.1.05-.16.14-.13.19s.13.06.23 0 .16-.14.13-.2-.14-.04-.23.01z" fill="#fa0204"/><path d="m29.87 20.38a.11.11 0 0 1 -.11-.06s0-.07 0-.11a.32.32 0 0 1 .12-.11.42.42 0 0 1 .15 0 .13.13 0 0 1 .11.05c0 .07 0 .17-.14.22a.3.3 0 0 1 -.13.01zm.18-.28a.22.22 0 0 0 -.13 0 .2.2 0 0 0 -.11.09s0 .06 0 .07.1.05.2 0 .14-.13.12-.17 0 0-.07 0z"/><path d="m30.05 20.35c-.06.1-.06.2 0 .23s.14 0 .2-.12.06-.2 0-.23-.15.02-.2.12z" fill="#fa0204"/><path d="m30.07 20.61a.13.13 0 0 1 -.05-.11.3.3 0 0 1 .05-.15c.06-.11.16-.17.22-.13a.13.13 0 0 1 .05.11.48.48 0 0 1 0 .15.43.43 0 0 1 -.11.12zm.14-.37s-.1 0-.15.12a.38.38 0 0 0 0 .13.1.1 0 0 0 0 .08.09.09 0 0 0 .08 0 .29.29 0 0 0 .09-.1.24.24 0 0 0 0-.13s0-.07 0-.08z"/><path d="m29.44 19.81c-.09.07-.14.16-.1.21s.14 0 .23 0 .14-.16.1-.21-.14-.07-.23 0z" fill="#fa0204"/><path d="m29.41 20.07a.1.1 0 0 1 -.09 0c0-.06 0-.16.11-.23.1-.08.21-.09.26 0s0 .16-.11.24a.32.32 0 0 1 -.17-.01zm0-.24c-.09.06-.12.14-.09.18s.11 0 .2 0 .12-.14.09-.18-.11 0-.2 0z"/><path d="m29.46 20.57c0 .13 0 .24.1.24s.13-.08.14-.21 0-.23-.09-.24-.13.09-.15.21z" fill="#fa0204"/><path d="m29.57 20.83c-.08 0-.13-.12-.12-.26 0-.14.09-.24.17-.23s.13.13.11.26-.09.23-.16.23zm-.09-.25c0 .11 0 .21.08.21s.11-.08.12-.19 0-.21-.07-.22-.11.08-.13.2z"/><ellipse cx="29.96" cy="21.22" fill="#fa0204" rx=".12" ry=".23" transform="matrix(.70710678 -.70710678 .70710678 .70710678 -6.23 27.4)"/><path d="m30.06 21.43a.46.46 0 0 1 -.15-.09c-.1-.1-.13-.23-.08-.28s.18 0 .28.07a.44.44 0 0 1 .1.15.17.17 0 0 1 0 .13.11.11 0 0 1 -.15.02zm-.2-.37h-.05s0 .15.08.23a.26.26 0 0 0 .13.08s.07 0 .09 0 0-.05 0-.09a.51.51 0 0 0 -.09-.13.26.26 0 0 0 -.16-.09z"/><path d="m29.78 23.82c.09.09.2.12.25.08s0-.16-.08-.25-.2-.13-.25-.08-.01.16.08.25z" fill="#fa0204"/><path d="m30 23.94a.29.29 0 0 1 -.2-.11c-.1-.1-.14-.22-.08-.27s.18 0 .28.07.13.22.07.28a.08.08 0 0 1 -.07.03zm-.18-.13c.08.08.19.11.23.07s0-.14-.08-.22-.18-.12-.22-.08 0 .15.07.23z"/><path d="m33 25.66c.11.07.23.07.27 0s0-.18-.11-.24-.23-.07-.28 0 .03.17.12.24z" fill="#fa0204"/><path d="m33.18 25.73a.41.41 0 0 1 -.17-.05.29.29 0 0 1 -.12-.13.14.14 0 0 1 0-.15.16.16 0 0 1 .13-.06.32.32 0 0 1 .17.06.3.3 0 0 1 .12.13.17.17 0 0 1 0 .14.15.15 0 0 1 -.13.06zm-.18-.35a.13.13 0 0 0 -.1 0 .11.11 0 0 0 0 .11.29.29 0 0 0 .11.11c.1.07.21.07.25 0a.12.12 0 0 0 0-.1.29.29 0 0 0 -.1-.12.33.33 0 0 0 -.15-.05z"/><ellipse cx="29.87" cy="28.83" fill="#ffe000" rx=".28" ry=".45"/><path d="m29.87 29.3c-.17 0-.3-.21-.3-.47s.1-.47.3-.47.3.15.3.47-.17.47-.3.47zm0-.9c-.18 0-.26.13-.26.43s.11.44.26.44.26-.2.26-.44-.13-.43-.26-.43z"/><path d="m30.1 28.17a.23.23 0 0 1 -.23.23.23.23 0 1 1 0-.46.23.23 0 0 1 .23.23z" fill="#ffe000"/><path d="m29.87 28.42a.25.25 0 1 1 0-.5.25.25 0 1 1 0 .5zm0-.47a.22.22 0 1 0 0 .43.22.22 0 0 0 0-.43z"/><path d="m30.55 27.9a.2.2 0 1 1 -.2-.2.2.2 0 0 1 .2.2z" fill="#ffe000"/><path d="m30.35 28.12a.22.22 0 1 1 .22-.22.22.22 0 0 1 -.22.22zm0-.4a.18.18 0 0 0 -.18.18.18.18 0 1 0 .36 0 .18.18 0 0 0 -.18-.18z"/><path d="m29.38 30.2a.72.72 0 0 0 .92 0l-.22-.31h-.42z" fill="#fa0204"/><path d="m29.84 30.39a.76.76 0 0 1 -.47-.17 0 0 0 0 1 0 0l.28-.31h.45l.21.31a0 0 0 0 1 0 0 .76.76 0 0 1 -.47.17zm-.43-.19a.69.69 0 0 0 .86 0l-.2-.29h-.4z"/><path d="m29.38 30.2s-.28-1.44.49-1.44.43 1.44.43 1.44a1.19 1.19 0 0 0 -.43-.06 1.46 1.46 0 0 0 -.49.06z" fill="#fa0204"/><path d="m29.38 30.22s-.18-.92.14-1.3a.43.43 0 0 1 .37-.17.44.44 0 0 1 .36.16c.3.38.1 1.27.09 1.31s0 0 0 0a1.16 1.16 0 0 0 -.42-.06 1.39 1.39 0 0 0 -.47.06zm.49-1.44a.41.41 0 0 0 -.34.15c-.28.33-.16 1.11-.13 1.25a1.4 1.4 0 0 1 .47-.06 1.13 1.13 0 0 1 .41.06c0-.14.18-.92-.08-1.25a.4.4 0 0 0 -.33-.15z"/><path d="m29.62 30.17a0 0 0 0 1 0 0 1.3 1.3 0 0 1 0-.85s0 0 0 0a1.26 1.26 0 0 0 0 .82s0 0 0 0z"/><path d="m29.87 30.16s0 0 0 0a2.36 2.36 0 0 1 -.08-.8 0 0 0 0 1 0 0s0 0 0 0a2.22 2.22 0 0 0 .09.79z"/><path d="m30.6 29.85s0 0 0 0a1.18 1.18 0 0 0 0-.67s0 0 0 0a0 0 0 0 1 0 0 1 1 0 0 1 0 .69s.01-.02 0-.02z"/><path d="m20.25 0v40.5a20.25 20.25 0 0 1 0-40.5z" fill="#ffe000"/></svg>