<svg xmlns="http://www.w3.org/2000/svg" viewBox="0 0 40.5 40.5"><defs><style>.cls-1{fill:#0072c6;}.cls-2{fill:#009e60;}.cls-3{fill:#fcd116;}</style></defs><g id="Ebene_2" data-name="Ebene 2"><g id="Ńëîé_1" data-name="Ńëîé 1"><path class="cls-1" d="M10.14,2.71V37.79a20.24,20.24,0,0,1,0-35.08Z"/><path class="cls-2" d="M40.5,20.25A20.24,20.24,0,0,1,30.36,37.79V2.71A20.24,20.24,0,0,1,40.5,20.25Z"/><path class="cls-3" d="M30.36,2.71V37.79a20.21,20.21,0,0,1-20.22,0V2.71a20.21,20.21,0,0,1,20.22,0Z"/><polygon class="cls-2" points="20.26 21.43 22.45 25.79 20.26 30.32 18 25.87 20.26 21.43"/><polygon class="cls-2" points="23.07 15.81 25.26 20.17 23.07 24.69 20.81 20.25 23.07 15.81"/><polygon class="cls-2" points="17.45 15.81 15.25 20.17 17.45 24.69 19.71 20.25 17.45 15.81"/></g></g></svg>