<svg xmlns="http://www.w3.org/2000/svg" viewBox="0 0 40.5 40.5"><defs><style>.cls-1{fill:#d21034;}.cls-2{fill:#009543;}.cls-3{fill:#fdce12;}</style></defs><g id="Ebene_2" data-name="Ebene 2"><g id="Ńëîé_1" data-name="Ńëîé 1"><path class="cls-1" d="M40.5,20.25H0A20.11,20.11,0,0,1,3.9,8.3c.45-.59.91-1.16,1.41-1.7A17.93,17.93,0,0,1,7.25,4.74,20.24,20.24,0,0,1,40.18,16.6a22,22,0,0,1,.29,2.6Q40.5,19.73,40.5,20.25Z"/><path class="cls-2" d="M40.5,20.25q0,.53,0,1.05a21.65,21.65,0,0,1-.29,2.58A20.24,20.24,0,0,1,7.25,35.76,17.93,17.93,0,0,1,5.31,33.9c-.5-.54-1-1.11-1.41-1.7a20.11,20.11,0,0,1-3.9-12Z"/><path d="M37.38,20.25l-2,1.05-5,2.58L7.25,35.76A17.93,17.93,0,0,1,5.31,33.9c-.5-.54-1-1.11-1.41-1.7a20.26,20.26,0,0,1,0-23.9c.45-.59.91-1.16,1.41-1.7A17.93,17.93,0,0,1,7.25,4.74L30.31,16.6l5,2.6Z"/><path d="M40.5,20.25q0,.53,0,1.05a21.65,21.65,0,0,1-.29,2.58H29V16.6H40.18a22,22,0,0,1,.29,2.6Q40.5,19.73,40.5,20.25Z"/><path class="cls-3" d="M31.81,20.25l-2,1.05-.81.42L5.31,33.9c-.5-.54-1-1.11-1.41-1.7a20.26,20.26,0,0,1,0-23.9c.45-.59.91-1.16,1.41-1.7L29,18.78l.79.42Z"/><path d="M27.09,20.25,3.9,32.2a20.26,20.26,0,0,1,0-23.9Z"/><path class="cls-3" d="M9.42,19.83a3.06,3.06,0,0,1-3,2.54A3.07,3.07,0,0,1,3.1,19.5a3.52,3.52,0,0,1,3.05-3.59c2.73-.38,3.94,2.57,4,3.27a4.08,4.08,0,0,1-1.84,4.24,4.55,4.55,0,0,1-2.07.69V26.4a6.06,6.06,0,0,0,5.94-5.72c.69-5.78-4.2-6.56-5-6.58-1.78-.06-5.05.63-5.58,4.37a4.21,4.21,0,0,0,3.54,4.84A3.26,3.26,0,0,0,9.42,19.83Z"/><path class="cls-3" d="M8.44,21.22c-.1-.18-.2-.36-.31-.53s-.23-.35-.35-.52a10.37,10.37,0,0,0-.77-1l-.43-.45-.23-.21-.24-.21a6.23,6.23,0,0,0-1-.72,7.31,7.31,0,0,1,1,.69,2.43,2.43,0,0,1,.25.2,2.29,2.29,0,0,1,.23.21,6.14,6.14,0,0,1,.45.43c.29.31.56.63.82,1l.37.51c.11.18.23.35.33.54Z"/><path class="cls-3" d="M8.16,20.42a.5.5,0,0,1,0-.12v-.09a2.45,2.45,0,0,1,0-.27s0-.05,0-.07a.12.12,0,0,1,.1,0,.18.18,0,0,1,.08.07.59.59,0,0,1,0,.23v.22a.56.56,0,0,1-.08.2l0,.07a.09.09,0,0,1-.06,0l0,0s-.06,0-.07-.08A.75.75,0,0,1,8.16,20.42Z"/><path class="cls-3" d="M7.94,20a1,1,0,0,1,0-.35.14.14,0,0,1,0-.06s0,0,.06,0h.05l.06,0s0,0,0,.06a.5.5,0,0,1,0,.12,1.36,1.36,0,0,1,0,.2,3.4,3.4,0,0,0-.06.46v0h0a.19.19,0,0,1-.1-.2A2.62,2.62,0,0,0,7.94,20Z"/><path class="cls-3" d="M7.7,19.27s0,0,0,0h0a.08.08,0,0,1,.08,0,.21.21,0,0,1,0,.11,3.22,3.22,0,0,1,0,.62.18.18,0,0,1,0,.12h0s0,0,0,0a.89.89,0,0,1-.15-.64Z"/><path class="cls-3" d="M7.37,19.4a.46.46,0,0,0,0-.2.88.88,0,0,1,0-.17.34.34,0,0,1,0-.1.08.08,0,0,1,.08,0l0,0a.36.36,0,0,1,.1.18,1.52,1.52,0,0,1,0,.21,1.9,1.9,0,0,1,0,.34s0,.06,0,.05h0l-.13-.15C7.34,19.48,7.36,19.46,7.37,19.4Z"/><path class="cls-3" d="M7.06,18.91c0-.07,0-.15,0-.22a.09.09,0,0,1,0-.05,0,0,0,0,1,.06,0,.06.06,0,0,1,.06,0,.27.27,0,0,1,.1.16.49.49,0,0,1,0,.12v.35s0,0,0,0,0,0,0,0-.07,0-.09-.07-.09-.1-.07-.16A.55.55,0,0,0,7.06,18.91Z"/><path class="cls-3" d="M6.78,18.45s0-.05,0-.05h0a.11.11,0,0,1,.09.06s0,0,0,.05a.13.13,0,0,1,0,.06,1.6,1.6,0,0,1,0,.38.06.06,0,0,1,0,0h0a.28.28,0,0,1-.09-.1s0-.08,0-.13A1.5,1.5,0,0,0,6.78,18.45Z"/><path class="cls-3" d="M6.38,18.32a1.12,1.12,0,0,0,0-.13.13.13,0,0,0,0-.06s0,0,0-.06a.09.09,0,0,1,0,0s.06,0,.08.06a.42.42,0,0,1,0,.1.9.9,0,0,1,0,.28.14.14,0,0,1,0,.07s0,.05,0,.05a.11.11,0,0,1-.09-.09A.61.61,0,0,0,6.38,18.32Z"/><path class="cls-3" d="M6.6,18.5a.61.61,0,0,1,0-.12.17.17,0,0,1,0-.07.07.07,0,0,1,0,0,0,0,0,0,1,0,0s.07,0,.08.06a.36.36,0,0,1,0,.11.84.84,0,0,1,0,.27.22.22,0,0,1,0,.08.08.08,0,0,1-.06,0,.11.11,0,0,1-.09-.09A.59.59,0,0,0,6.6,18.5Z"/><path class="cls-3" d="M6.12,18.16c0-.06,0-.11-.07-.16a.67.67,0,0,1,0-.24v0H6a.12.12,0,0,1,.13,0,.27.27,0,0,1,.06.12,2.37,2.37,0,0,1,.09.36v.09a.13.13,0,0,1,0,.06,0,0,0,0,1,0,0l0,0s-.08-.05-.09-.09S6.14,18.2,6.12,18.16Z"/><path class="cls-3" d="M5.82,18s0,0,0-.06a1.43,1.43,0,0,1-.13-.28s0-.06,0-.08a.1.1,0,0,1,.07,0l0,0a.66.66,0,0,1,.14.2s0,.05,0,.07L6,18a.37.37,0,0,1,0,.18s0,0,0,0,0,0,0,0l-.1-.07s0,0,0,0Z"/><path class="cls-3" d="M5.39,17.62a.54.54,0,0,1-.07-.13.39.39,0,0,1,0-.15.09.09,0,0,1,.07,0,.3.3,0,0,1,.13.12.53.53,0,0,1,.08.17,1.23,1.23,0,0,0,.19.31s0,0,0,.06H5.73l0,0-.06,0a.2.2,0,0,1-.13-.12A1.32,1.32,0,0,0,5.39,17.62Z"/><path class="cls-3" d="M5.34,17.79A.85.85,0,0,0,5,17.73a1.32,1.32,0,0,1-.39-.1.13.13,0,0,1-.07-.05,0,0,0,0,1,0-.07h0a.76.76,0,0,1,.44.09.31.31,0,0,0-.07-.09l-.15-.08a.26.26,0,0,1-.14-.15.34.34,0,0,1,0-.1s0,0,0,0h0a.1.1,0,0,1,.09,0,.18.18,0,0,1,.07.05,1.46,1.46,0,0,1,.16.19l.06.1.07.06a.1.1,0,0,0,0-.09l0-.07a.86.86,0,0,1-.07-.1s0-.05,0-.07,0,0,.07,0a.49.49,0,0,1,.23.28l0,.07s0,.06.07.1l.06.07s.09,0,.11.07a0,0,0,0,1,0,0l0,0H5.43s0,0,0,0Z"/><path class="cls-3" d="M5.63,17.88a.24.24,0,0,0-.12,0H5.4l-.08,0,0,0h-.2a.16.16,0,0,0-.1.05A.1.1,0,0,0,5,18l0,0h.07a3.25,3.25,0,0,0,.54,0h0a0,0,0,0,0,0,0A.11.11,0,0,0,5.63,17.88Z"/><path class="cls-3" d="M5.6,18.06l-.21,0h-.1a0,0,0,0,0,0,0v0a.1.1,0,0,0,.05,0l.15.05h.06l.38,0h0a.07.07,0,0,0,0,0l0,0,0-.05s0,0-.06,0h0A.86.86,0,0,1,5.6,18.06Z"/><path class="cls-3" d="M6.14,18.32a.29.29,0,0,0-.13,0H5.63s0,0,0,.05l0,0a.1.1,0,0,0,0,.05.34.34,0,0,0,.14.05l.13,0H6a.89.89,0,0,0,.23,0h0s0-.06,0-.08a.27.27,0,0,0-.07-.08Z"/><path class="cls-3" d="M6.2,18.65h0a.32.32,0,0,0-.14,0H6a.1.1,0,0,0,0,.09s0,0,.06.06a.18.18,0,0,0,.07.05l.09,0a3.42,3.42,0,0,0,.45,0,0,0,0,0,0,0,0l0,0s0,0,0-.05l-.08-.08a.24.24,0,0,0-.18-.07Z"/><path class="cls-3" d="M6.63,19h0a.06.06,0,0,0-.06,0,.11.11,0,0,0,0,.08s0,0,.06.06l.08.06.11,0,.3,0h0l0,0v0l-.07-.09A.2.2,0,0,0,7,19.11l-.1,0-.13,0Z"/><path class="cls-3" d="M7.28,19.54A1.34,1.34,0,0,0,7,19.42l-.12-.05s0,0-.06,0l-.05,0a.13.13,0,0,0,0,.06.09.09,0,0,0,0,.05.53.53,0,0,0,.14.12,2.79,2.79,0,0,0,.37.14.34.34,0,0,0,.17,0h0a0,0,0,0,0,0-.05A.55.55,0,0,0,7.28,19.54Z"/><path class="cls-3" d="M7.6,19.91l-.33-.12H7.21s0,0,0,0a.11.11,0,0,0,0,.11l.07,0,.19.11.09,0,.1,0,.11,0,.08,0a.13.13,0,0,0,0-.06l0-.05L7.73,20Z"/><path class="cls-3" d="M7.48,20.15l-.08,0a.07.07,0,0,0-.06,0,.11.11,0,0,0,0,.09.08.08,0,0,0,0,0,.73.73,0,0,0,.28.17l.33.1a.2.2,0,0,0,.11,0l0,0v0a.14.14,0,0,0,0-.1A.2.2,0,0,0,8,20.38l-.1,0-.25-.13Z"/><path class="cls-3" d="M8.1,20.66,8,20.59l-.19-.07a.5.5,0,0,0-.21,0h0a0,0,0,0,0,0,.06.13.13,0,0,0,0,.06.91.91,0,0,0,.17.09,2.44,2.44,0,0,0,.46.14s.06,0,.07,0a0,0,0,0,0,0,0,.14.14,0,0,0,0-.07s0,0-.06,0Z"/><path class="cls-3" d="M5.74,18s.09,0,.11.06a0,0,0,0,1,0,0s0,0,0,0H5.76s0,0,0,0h0A.15.15,0,0,0,5.62,18h0a0,0,0,0,1,0,0h0l.07,0Z"/><path class="cls-3" d="M6.1,18.22a.33.33,0,0,1,.06.1v0a0,0,0,0,1,0,0,.06.06,0,0,1-.08,0L6,18.28a.6.6,0,0,1-.08-.08.15.15,0,0,1,0-.09l0,0s.06,0,.09,0Z"/><path class="cls-3" d="M6.39,18.45l.1.08.14.16.14.11s0,0,0,.05a.33.33,0,0,1-.17,0l-.1-.09-.06,0a.92.92,0,0,1-.23-.25.43.43,0,0,0,0-.05c0-.05,0,0,.07,0Z"/><path class="cls-3" d="M4.63,21.21c.1-.18.2-.36.31-.53s.23-.35.35-.52a12.3,12.3,0,0,1,.77-1l.43-.45.23-.21L7,18.31a6.63,6.63,0,0,1,1-.71,6.5,6.5,0,0,0-1.05.68l-.25.2-.23.21a4.67,4.67,0,0,0-.45.44,12.41,12.41,0,0,0-.82.95c-.12.17-.25.34-.36.51a6.1,6.1,0,0,0-.34.54Z"/><path class="cls-3" d="M4.92,20.41l0-.12V20.2a2.45,2.45,0,0,0,0-.27s0-.05,0-.07a.11.11,0,0,0-.1,0,.16.16,0,0,0-.07.07.46.46,0,0,0,0,.23v.22a.84.84,0,0,0,.08.2l0,.07a.09.09,0,0,0,.07,0l0,0s.06-.05.07-.08A.76.76,0,0,0,4.92,20.41Z"/><path class="cls-3" d="M5.13,20a1.37,1.37,0,0,0,0-.35l0-.06a.07.07,0,0,0-.06,0H5l-.06.05s0,0,0,.06a.5.5,0,0,0,0,.12.69.69,0,0,0,0,.2,2.31,2.31,0,0,1,0,.46s0,0,0,0a0,0,0,0,0,0,0,.21.21,0,0,0,.11-.19A1.4,1.4,0,0,1,5.13,20Z"/><path class="cls-3" d="M5.37,19.27s0,0,0,0h0a.11.11,0,0,0-.08,0,.21.21,0,0,0,0,.11c0,.21,0,.41,0,.62a.27.27,0,0,0,0,.12s0,0,0,0,0,0,0,0a.79.79,0,0,0,.15-.63Z"/><path class="cls-3" d="M5.7,19.39a.68.68,0,0,1,0-.2.88.88,0,0,0,0-.17.09.09,0,0,0,0-.09.07.07,0,0,0-.08-.05l0,0a.46.46,0,0,0-.1.18,1.52,1.52,0,0,0,0,.21c0,.12,0,.23,0,.35s0,.05,0,.05l0,0a.93.93,0,0,0,.13-.15C5.73,19.47,5.71,19.45,5.7,19.39Z"/><path class="cls-3" d="M6,18.9c0-.07,0-.14,0-.22a.09.09,0,0,0,0-.05,0,0,0,0,0-.06,0,.09.09,0,0,0-.06,0,.34.34,0,0,0-.1.16v.5s0,0,0,0,.07,0,.09-.07.09-.1.07-.16A.53.53,0,0,1,6,18.9Z"/><path class="cls-3" d="M6.29,18.44s0,0,0-.05h0a.11.11,0,0,0-.09.06s0,0,0,0a.13.13,0,0,0,0,.06,2.38,2.38,0,0,0,0,.38.06.06,0,0,0,0,0s0,0,0,0,0,0,0,0a.28.28,0,0,0,.09-.1.13.13,0,0,0,0-.12A1.6,1.6,0,0,1,6.29,18.44Z"/><path class="cls-3" d="M6.69,18.31a.61.61,0,0,1,0-.12s0-.05,0-.07a.13.13,0,0,0,0-.06.09.09,0,0,0,0,0s-.06,0-.08.06a.42.42,0,0,0,0,.1.67.67,0,0,0,0,.28.22.22,0,0,0,0,.08.07.07,0,0,0,0,0,.11.11,0,0,0,.09-.09A.61.61,0,0,1,6.69,18.31Z"/><path class="cls-3" d="M6.48,18.49s0-.08,0-.12a.17.17,0,0,0,0-.07s0,0,0-.05a.07.07,0,0,0,0,0s-.06,0-.08.06a.36.36,0,0,0,0,.11.86.86,0,0,0,0,.28.19.19,0,0,0,0,.07.07.07,0,0,0,0,0,.11.11,0,0,0,.09-.09A.6.6,0,0,1,6.48,18.49Z"/><path class="cls-3" d="M7,18.15,7,18a.5.5,0,0,0,0-.24v0H7a.12.12,0,0,0-.13,0,.39.39,0,0,0-.06.13,2,2,0,0,0-.09.35v.09s0,.05,0,.06,0,0,0,0l0,0s.08-.05.09-.08S6.93,18.19,7,18.15Z"/><path class="cls-3" d="M7.25,18l0-.06a1.43,1.43,0,0,0,.13-.28.08.08,0,0,0,0-.08.06.06,0,0,0-.07,0,.07.07,0,0,0,0,0,.52.52,0,0,0-.14.19s0,.05,0,.07l0,.08a.37.37,0,0,0,0,.18s0,0,0,0,0,0,0,0l.1-.07s0,0,0,0Z"/><path class="cls-3" d="M7.68,17.61a.33.33,0,0,0,.07-.13.39.39,0,0,0,0-.15.09.09,0,0,0-.07,0,.37.37,0,0,0-.13.12.89.89,0,0,0-.08.17,1.2,1.2,0,0,1-.18.31s0,0,0,.06a.09.09,0,0,0,.07,0s0,0,0,0l0,0a.24.24,0,0,0,.14-.12A.78.78,0,0,1,7.68,17.61Z"/><path class="cls-3" d="M7.73,17.78a.88.88,0,0,1,.36-.06,1.47,1.47,0,0,0,.4-.1l.07-.05s0-.06,0-.07h0a.85.85,0,0,0-.44.09.31.31,0,0,1,.07-.09l.15-.08a.26.26,0,0,0,.14-.15.31.31,0,0,0,0-.1v0h0s-.06,0-.09,0a.19.19,0,0,0-.07.06.93.93,0,0,0-.16.18.53.53,0,0,1-.06.1L8,17.54a.1.1,0,0,1,0-.09l0-.06.07-.11s0-.05,0-.07,0,0-.07,0a.49.49,0,0,0-.23.28l0,.07a.23.23,0,0,1-.07.1l-.06.07a.26.26,0,0,0-.11.07s0,0,0,0,0,0,0,0h.06a.08.08,0,0,0,0,0Z"/><path class="cls-3" d="M7.44,17.87a.42.42,0,0,1,.12,0,.41.41,0,0,0,.11,0l.08,0,0,0H8a.16.16,0,0,1,.1.05.11.11,0,0,1,0,.1l0,0H7.94a3.25,3.25,0,0,1-.54,0h0v0A.11.11,0,0,1,7.44,17.87Z"/><path class="cls-3" d="M7.47,18.05l.21,0h.1l0,0a0,0,0,0,1,0,0,.1.1,0,0,1,0,0,.44.44,0,0,1-.15.05H7.54l-.38,0h0a0,0,0,0,1,0,0l0,0,.06-.05a.09.09,0,0,1,.06,0h.2Z"/><path class="cls-3" d="M6.93,18.32a.3.3,0,0,1,.13,0h.38s0,0,0,.05l0,0a.1.1,0,0,1,0,.05.19.19,0,0,1-.14.05l-.13,0H7a.89.89,0,0,1-.23,0h0a.07.07,0,0,1,0-.08.23.23,0,0,1,.07-.07A.26.26,0,0,1,6.93,18.32Z"/><path class="cls-3" d="M6.87,18.64h0a.34.34,0,0,1,.14,0h0a0,0,0,0,1,0,0,.08.08,0,0,1,0,.08.17.17,0,0,1-.06.06.18.18,0,0,1-.07,0,.15.15,0,0,1-.09,0l-.45,0h0a0,0,0,0,1,0,0s0,0,0-.05l.08-.08a.24.24,0,0,1,.18-.07Z"/><path class="cls-3" d="M6.44,19h0a.06.06,0,0,1,.06.05.11.11,0,0,1,0,.08.1.1,0,0,1,0,.06l-.08.06-.12,0-.3,0h0a0,0,0,0,1,0,0s0,0,0,0L6,19.18a.2.2,0,0,1,.08-.08l.1,0,.13,0Z"/><path class="cls-3" d="M5.79,19.53A1.92,1.92,0,0,1,6,19.41l.11,0a.07.07,0,0,1,.06,0l0,0a.07.07,0,0,1,0,.06.05.05,0,0,1,0,0,.53.53,0,0,1-.14.12,2.79,2.79,0,0,1-.37.14.53.53,0,0,1-.17,0h0a0,0,0,0,1,0-.05A.55.55,0,0,1,5.79,19.53Z"/><path class="cls-3" d="M5.47,19.9l.33-.12s0,0,.06,0l0,0a.11.11,0,0,1,0,.11L5.8,20l-.2.11-.09.05-.09,0-.12,0-.08,0a.06.06,0,0,1,0-.06s0,0,0-.05a1.21,1.21,0,0,1,.1-.14A.47.47,0,0,1,5.47,19.9Z"/><path class="cls-3" d="M5.59,20.14l.08,0a.07.07,0,0,1,.06,0,.09.09,0,0,1,0,.05v0l0,0a.62.62,0,0,1-.28.17l-.32.1a.25.25,0,0,1-.12,0l0,0v0a.14.14,0,0,1,0-.1.2.2,0,0,1,.09-.06l.1,0,.25-.13Z"/><path class="cls-3" d="M5,20.65l.14-.07.19-.07a.5.5,0,0,1,.21,0h0a0,0,0,0,1,0,.06.07.07,0,0,1,0,.06.65.65,0,0,1-.16.09,2.79,2.79,0,0,1-.47.14s-.06,0-.07,0a0,0,0,0,1,0,0,.19.19,0,0,1,0-.07l.06,0Z"/><path class="cls-3" d="M7.33,17.94s-.09,0-.11.06a0,0,0,0,0,0,0s0,0,0,0h.09A.18.18,0,0,1,7.45,18h0a0,0,0,0,0,0,0h0s0,0-.07,0S7.35,17.92,7.33,17.94Z"/><path class="cls-3" d="M7,18.21a.19.19,0,0,0,0,.1v0a0,0,0,0,0,0,0,.06.06,0,0,0,.08,0,.34.34,0,0,0,.06-.06l.08-.07a.14.14,0,0,0,0-.1,0,0,0,0,0,0,0s-.07,0-.09,0Z"/><path class="cls-3" d="M6.68,18.44l-.1.08-.14.16-.14.11a.05.05,0,0,0,0,.05.33.33,0,0,0,.17,0l.1-.09.06,0a.79.79,0,0,0,.23-.25.11.11,0,0,0,0-.05c0-.05,0,0-.07,0S6.72,18.42,6.68,18.44Z"/><path class="cls-3" d="M40.5,20.25q0,.53,0,1.05H29V19.2H40.47Q40.5,19.73,40.5,20.25Z"/></g></g></svg>