<svg xmlns="http://www.w3.org/2000/svg" viewBox="0 0 40.5 40.5"><defs><style>.cls-1{fill:#ce1126;}.cls-2{fill:#002b7f;}.cls-3{fill:#fff;}</style></defs><g id="Ebene_2" data-name="Ebene 2"><g id="Ńëîé_1" data-name="Ńëîé 1"><circle class="cls-1" cx="20.25" cy="20.25" r="20.25"/><path class="cls-2" d="M20.25,0V20.25H0A20.25,20.25,0,0,1,20.25,0Z"/><polygon class="cls-3" points="10.81 3.9 11.22 5.15 12.53 5.15 11.47 5.93 11.87 7.18 10.81 6.4 9.75 7.18 10.15 5.93 9.09 5.15 10.4 5.15 10.81 3.9"/><polygon class="cls-3" points="15.7 7.2 16.08 8.37 17.31 8.37 16.31 9.09 16.69 10.26 15.7 9.53 14.71 10.26 15.09 9.09 14.09 8.37 15.32 8.37 15.7 7.2"/><polygon class="cls-3" points="13.2 11.2 13.46 11.99 14.29 11.99 13.62 12.47 13.88 13.26 13.2 12.78 12.53 13.26 12.79 12.47 12.12 11.99 12.95 11.99 13.2 11.2"/><polygon class="cls-3" points="6.03 7.81 6.44 9.06 7.75 9.06 6.69 9.83 7.1 11.08 6.03 10.31 4.97 11.08 5.38 9.83 4.32 9.06 5.63 9.06 6.03 7.81"/><polygon class="cls-3" points="10.81 14.15 11.32 15.71 12.96 15.71 11.63 16.68 12.14 18.24 10.81 17.27 9.48 18.24 9.99 16.68 8.66 15.71 10.3 15.71 10.81 14.15"/></g></g></svg>