<svg viewBox="0 0 40.5 40.5" xmlns="http://www.w3.org/2000/svg"><circle cx="20.25" cy="20.25" fill="#ce1126" r="20.25"/><path d="m20.25 0v20.25h-20.25a20.25 20.25 0 0 1 20.25-20.25z" fill="#002b7f"/><g fill="#fff"><path d="m10.81 3.9.41 1.25h1.31l-1.06.78.4 1.25-1.06-.78-1.06.78.4-1.25-1.06-.78h1.31z"/><path d="m15.7 7.2.38 1.17h1.23l-1 .72.38 1.17-.99-.73-.99.73.38-1.17-1-.72h1.23z"/><path d="m13.2 11.2.26.79h.83l-.67.48.26.79-.68-.48-.67.48.26-.79-.67-.48h.83z"/><path d="m6.03 7.81.41 1.25h1.31l-1.06.77.41 1.25-1.07-.77-1.06.77.41-1.25-1.06-.77h1.31z"/><path d="m10.81 14.15.51 1.56h1.64l-1.33.97.51 1.56-1.33-.97-1.33.97.51-1.56-1.33-.97h1.64z"/></g></svg>