<svg xmlns="http://www.w3.org/2000/svg" viewBox="0 0 40.5 40.5"><defs><style>.cls-1{fill:#de3831;}.cls-2{fill:#fff;}.cls-3{fill:#007a4d;}.cls-4{fill:#002395;}.cls-5{fill:#ffb612;}</style></defs><g id="Ebene_2" data-name="Ebene 2"><g id="Ńëîé_1" data-name="Ńëîé 1"><path class="cls-1" d="M15.65,20.25H10.79L1.07,13.78a18.74,18.74,0,0,1,1.05-2.55Z"/><path class="cls-1" d="M40.11,16.28H24.3L7.13,4.85A20.09,20.09,0,0,1,20.25,0,20.26,20.26,0,0,1,39.37,13.57,20,20,0,0,1,40.11,16.28Z"/><path class="cls-2" d="M40.11,16.28H24.16L7.07,4.89l.06,0a20,20,0,0,1,2.29-1.7L25,13.57H39.37A20,20,0,0,1,40.11,16.28Z"/><path d="M10.79,20.25,1.07,26.72a20.1,20.1,0,0,1,0-12.94Z"/><path class="cls-3" d="M40.5,20.25a20.72,20.72,0,0,1-.39,4H24.3L7.13,35.65l-.06,0a20,20,0,0,1-4.95-6.34l13.53-9-13.53-9a20,20,0,0,1,5-6.34l.06,0L24.3,16.28H40.11A20.72,20.72,0,0,1,40.5,20.25Z"/><path class="cls-1" d="M15.65,20.25l-13.53,9a18.74,18.74,0,0,1-1-2.55l9.72-6.47Z"/><path class="cls-4" d="M40.11,24.22a20,20,0,0,1-.74,2.71A20.24,20.24,0,0,1,9.42,37.35a20,20,0,0,1-2.29-1.7L24.3,24.22Z"/><path class="cls-5" d="M15.65,20.25l-13.53,9a18.74,18.74,0,0,1-1-2.55l9.72-6.47L1.07,13.78a18.74,18.74,0,0,1,1.05-2.55Z"/><path class="cls-2" d="M40.11,24.22a20,20,0,0,1-.74,2.71H25L9.42,37.35a20,20,0,0,1-2.29-1.7l-.06,0L24.16,24.22Z"/></g></g></svg>