<svg xmlns="http://www.w3.org/2000/svg" viewBox="0 0 40.5 40.5"><defs><style>.cls-1{fill:#198a00;}.cls-2{fill:#ef7d00;}.cls-3{fill:#de2010;}</style></defs><g id="Ebene_2" data-name="Ebene 2"><g id="Ńëîé_1" data-name="Ńëîé 1"><path class="cls-1" d="M40.5,20.25A20.27,20.27,0,0,1,20.25,40.5H18.81v0A20.24,20.24,0,1,1,40.5,20.25Z"/><path class="cls-2" d="M16.65,8.37s0,0,0,0,.42,0,.73-.22a9.16,9.16,0,0,0-1,0,1.42,1.42,0,0,1-.77-.25s1.43-.29,1.06-.29a5.23,5.23,0,0,1-.75.08c-.23,0-.8-.05-.82-.28h.08s.28,0,.28-.07h0a2.69,2.69,0,0,0-.61-.19c-.67-.16-1.44-.45-1.45-1h0c.05,0,1.1.65.37.11-.17-.13-.38-.29-.38-.51,0-.05,0-.08.06-.08s.56.4.83.54a1.58,1.58,0,0,1-.68-.9c0-.08,0-.16.09-.16a3.1,3.1,0,0,0,1.44.84c-.26-.36-.81-.62-.81-1,0-.06,0-.12.07-.12l1.25.54c.05,0,.64.31.8.37,1.55.63.2,0,.2-.35,0,0,0-.05.06-.05a11.19,11.19,0,0,0,3.91,1.23l.34.08h0A1.33,1.33,0,0,1,22.37,5.4c.43,0,.58.29.86.29h.17a.31.31,0,0,1,.33.25c0,.12-.2.35-.2.24A.16.16,0,0,0,23.36,6L23,6.1c-.19.07-.24.22-.24.42s.11.31.19.31.1-.11,1-.11h.67a30.78,30.78,0,0,0,4.14-1s.06,0,.06.09c0,.4-1.31.89,1.3-.18.28-.11,1.07-.52,1.07-.52s0,0,0,0c0,.3-2.36,1.75-.12.52.28-.15.52-.47.84-.47.1,0,.12,0,.12,0,0,.79-2.4,1.67.35.4h0a0,0,0,0,1,0,0c0,.51-2,1.41-.3.74h0s0,0,0,.05c0,.21-.76.75-.89.88.1,0,.2-.14.31-.14s0,0,0,0c0,.74-2.26,1.31-3,1.46,0,0-.31.53-1.45.49.11.06.24.09.24.17s-.17.11-.26.11h-.32c-.33,0,.12,0,.12.11s-.51.15-.55.15-.14,0-.21,0,.36.19.36.39-.12.09-.17.09a3,3,0,0,1-1.33-.52h0c.06.23.75.55.75.65s-.13.09-.21.09c-.54,0-.67-.53-.67-.11,0,0-.05,0-.09,0s-.6-.34-.6-.31.42.43.42.44,0,0-.07,0-.36-.23-.41-.23a0,0,0,0,0,0,0,3.21,3.21,0,0,0,.38.66s0,0-.05,0c-.24,0-.4-.29-.4,0s0,.17.18.17h.1c.14,0,.25,0,.25.2,0,0,0,.08,0,.08h0c-.08,0-.09-.14-.26-.14h-.05a0,0,0,0,0,0,0c0,.17.21,0,.21.31,0,.09-.05.38-.27.38,0,0,0-.08,0-.15s-.17,0-.32-.21c0-.05,0-.12-.09-.12s0,.26-.09.42-.16.1-.16.26.05.1.05.12,0,0,0,0a.19.19,0,0,1-.18-.19V12c0-.12-.06-.08-.06-.22a1,1,0,0,1,.09-.25s0,0,0,0c-.19,0-.13.16-.27.16h0c-.08,0-.15,0-.15.1s.06.1.06.16h0a.37.37,0,0,1-.2-.35c0-.63.74-.22.74-.63,0,0,0-.23,0-.23h0l-.12.1a.92.92,0,0,1,0-.29c0-.05,0-.1,0-.15S23,8.89,23,9.62v.25c0,.07,0,.78,0,.85h0c-.11,0-.21-.44-.21.12,0,.4.14.28.22.38a0,0,0,0,1,0,0c0,.06-.15.23-.15.32a.59.59,0,0,1,.07.27c0,.2-.12.1-.12.33s.16.14.05.14-.27-.35-.42-.47h0a.55.55,0,0,1-.26.24c-.05,0-.09,0-.09.1s.05.05.05.1h0a.21.21,0,0,1-.18-.19v-.06c0-.09,0-.08,0-.15s.35-.39.05-.28c-.12.05-.17.13-.33.13h-.07c-.29,0-.25.39-.25,0,0,0,.09-.47.48-.47h.12a.43.43,0,0,0,.39-.41.23.23,0,0,1-.08-.18c0-.13,0-.17,0-.27s-.19.29-.29.29,0-.05,0-.1c0-.2.21-.73.21-.86s-.12.09-.14.09,0,0,0,0,0-.06,0-.08,0-.06,0-.06a.46.46,0,0,1-.27.07h-.25c-.05,0-.52-.12-.52-.24s.48-.31.29-.31a3.93,3.93,0,0,1-.91.22c-.14,0-.21,0-.21-.11s.27-.2.14-.2-.39.17-.73.17c-.05,0-.14,0-.14-.09v0c0-.07.25-.1,0-.1,0,0-.22,0-.35,0h0s-.24,0-.24-.06.1-.07.1-.16,0,0,0,0-.23.06-.42.06-.61-.05-.61-.19.51-.11.51-.23h0s0,0-.05,0a7.54,7.54,0,0,1-.85.06C16.79,8.49,16.74,8.43,16.65,8.37Z"/><path d="M22.78,12.37c-.17,0-.25-.15-.32-.29a1,1,0,0,0-.1-.17.54.54,0,0,1-.26.22h0s0,0,0,.06a0,0,0,0,0,0,0,.07.07,0,0,1,0,.07,0,0,0,0,1,0,0,.25.25,0,0,1-.22-.23v-.06s0-.05,0-.06a.11.11,0,0,1,0-.09.48.48,0,0,1,.11-.21l0,0-.05,0-.1.05a.4.4,0,0,1-.24.08h-.07a.22.22,0,0,0-.21.14s0,0-.05,0,0,0,0-.09v-.11c0-.06.1-.51.52-.51h.12a.4.4,0,0,0,.36-.35.29.29,0,0,1-.09-.2.57.57,0,0,1,0-.16s0-.05,0-.08a.22.22,0,0,1-.05.08c-.08.14-.14.22-.2.22s-.08-.1-.08-.14a2.59,2.59,0,0,1,.13-.52A2.16,2.16,0,0,0,22,9.82l0,0s-.05.05-.08.05-.05-.09-.05-.09V9.73h0a.61.61,0,0,1-.26,0h-.25s-.56-.11-.56-.28.1-.15.24-.23l0,0a3.56,3.56,0,0,1-.84.2c-.12,0-.24,0-.24-.15s.06-.1.12-.15h0a.68.68,0,0,0-.21.06,1.45,1.45,0,0,1-.49.1h0a.19.19,0,0,1-.13,0,.11.11,0,0,1,0-.09h0a.1.1,0,0,1,0-.07h-.06l-.3,0h0c-.25,0-.28-.06-.28-.1s0-.06.05-.08,0,0,0-.07h0a1,1,0,0,0-.17,0,1.56,1.56,0,0,1-.25,0s-.65,0-.65-.22.14-.12.29-.15.22-.05.22-.08h0a5.54,5.54,0,0,1-.85.07c-.48,0-.56,0-.65-.12h0a.05.05,0,0,1,0-.06c0-.11.13-.12.27-.13a1.27,1.27,0,0,0,.37-.07l-.62,0h-.23c-.29,0-.8-.18-.8-.28s0,0,0,0l.8-.17a4,4,0,0,1-.49,0s-.83,0-.85-.32a0,0,0,0,1,0,0h.11a.73.73,0,0,0,.21,0,2.44,2.44,0,0,0-.48-.15h-.08c-1-.23-1.47-.59-1.48-1.08,0,0,0,0,.08,0s.06,0,.27.13l.12.07,0,0c-.2-.15-.39-.32-.39-.54,0,0,0-.11.09-.11h0L14,5.9a1.25,1.25,0,0,1-.37-.65c0-.09.06-.2.13-.2h0a3.08,3.08,0,0,0,1.32.81c-.09-.1-.21-.2-.32-.3s-.44-.37-.44-.61c0,0,0-.16.11-.16h0l1.25.54h0c.52.25.71.33.77.35l.65.25-.08-.06c-.17-.15-.41-.34-.41-.5s0-.08.09-.08h0a11.13,11.13,0,0,0,3.89,1.23l.31.07h0a1.37,1.37,0,0,1,1.38-1.27,1,1,0,0,1,.54.17.58.58,0,0,0,.32.12h.17a.34.34,0,0,1,.37.28c0,.11-.14.3-.22.3s0,0-.05,0,0,0,0,0A.12.12,0,0,0,23.37,6l-.24.06-.14,0h0c-.15.05-.22.16-.22.38s.09.26.15.27a2.33,2.33,0,0,1,1-.11h.67a31.06,31.06,0,0,0,4.13-1.05h0c.1,0,.1.09.1.12s-.17.31-.27.4c.13,0,.38-.14.77-.3l.75-.31c.27-.11,1.05-.52,1.06-.53h0a.06.06,0,0,1,.06.06c0,.14-.33.41-.77.75L30.23,6c.22-.1.64-.34.81-.43a2.22,2.22,0,0,0,.27-.19,1,1,0,0,1,.59-.29c.09,0,.16,0,.16.09a1.15,1.15,0,0,1-.53.76l.82-.39h.06a.08.08,0,0,1,.08.08c0,.27-.49.63-.78.84l-.1.07.52-.21h0s.06,0,.06.09-.31.42-.67.71h.06s.08,0,.08.06c0,.86-2.77,1.44-3,1.5a1.51,1.51,0,0,1-1.3.49c.06,0,.11.06.11.13s-.21.14-.3.14H27A.1.1,0,0,1,27,9.5c0,.18-.57.19-.59.19h-.08c.12.08.26.2.26.33s-.15.13-.2.13a2.62,2.62,0,0,1-1.23-.45,2.5,2.5,0,0,0,.39.3c.19.13.28.19.28.25s-.12.12-.24.12a.86.86,0,0,1-.56-.21s0-.05-.07-.05a.68.68,0,0,0,0,.12s-.05.08-.12.08a1.34,1.34,0,0,1-.46-.23L24.31,10a1.26,1.26,0,0,0,.34.32c.05,0,.06,0,.06.06s0,.07-.1.07a.7.7,0,0,1-.25-.13.89.89,0,0,0-.16-.1h0a2.4,2.4,0,0,0,.35.6l0,.06,0,0a.07.07,0,0,1-.06,0,.59.59,0,0,1-.29-.1l-.08,0h0v.11s0,.07,0,.08h.24c.14,0,.28,0,.28.24v.05s0,.07,0,.07h0a.22.22,0,0,1-.09-.07.19.19,0,0,0-.16-.08h-.05s0,.06.05.07.16,0,.16.24-.08.41-.31.41l0,0a.09.09,0,0,1,0-.08.19.19,0,0,0,0-.08s0,0-.05,0a.3.3,0,0,1-.27-.16l0-.06s0,0,0,0,0,0,0,0a.37.37,0,0,0,0,.11.61.61,0,0,1,0,.27s0,.05-.06.07a.2.2,0,0,0-.09.18.33.33,0,0,0,0,.06s0,0,0,.06a0,0,0,0,1-.05,0,.23.23,0,0,1-.22-.22V12s0-.06,0-.08a.22.22,0,0,1,0-.14.88.88,0,0,1,.07-.23.12.12,0,0,0-.11.08.13.13,0,0,1-.14.08h0s-.11,0-.11.07a.1.1,0,0,0,0,.08l0,.07a0,0,0,0,1-.05.05h0a.29.29,0,0,1-.15-.14h0a.23.23,0,0,1-.07.18s-.06.05-.06.15,0,.07.06.09,0,0,0,.06S22.81,12.37,22.78,12.37Zm-.43-.55h0a.94.94,0,0,1,.15.22c0,.11.11.22.2.24a.15.15,0,0,1,0-.1.24.24,0,0,1,.08-.21.13.13,0,0,0,.05-.12.49.49,0,0,0-.07-.24v0a.53.53,0,0,1,.09-.21.3.3,0,0,0,.06-.11h0l-.06,0c-.1,0-.17-.07-.17-.36s0-.3.06-.32.08,0,.11.08l.06.08v-.12c0-.22,0-.66,0-.71V9.62a.81.81,0,0,1,0-.17c0-.06,0-.08.07-.08s.44.94.44,1v.15c0,.11,0,.19,0,.23l0,0c.06-.06.07-.06.08-.06h0s.07,0,.07.27-.18.24-.34.26-.39,0-.39.37a.37.37,0,0,0,.09.25s0,0,0-.06.07-.14.18-.14h0c.05,0,.06,0,.08-.05a.19.19,0,0,1,.19-.11s.07,0,.07.05,0,0,0,0a.8.8,0,0,0-.07.2.19.19,0,0,0,0,.1.17.17,0,0,1,0,.12v.05a.17.17,0,0,0,.11.15.38.38,0,0,1,0-.1.27.27,0,0,1,.11-.23s0,0,.05-.05a.63.63,0,0,0,0-.24.41.41,0,0,1,0-.12c0-.07.06-.08.08-.08a.11.11,0,0,1,.1.09.08.08,0,0,0,0,0,.23.23,0,0,0,.21.13c.05,0,.12,0,.12.1a.35.35,0,0,1,0,.11c.15,0,.19-.28.19-.34s-.05-.16-.11-.17a.14.14,0,0,1-.1-.14.08.08,0,0,1,.07-.08h.05a.26.26,0,0,1,.21.1l0,0v0c0-.14-.07-.17-.21-.17h-.1a.3.3,0,0,1-.19,0,.18.18,0,0,1,0-.13v0c0-.05,0-.11,0-.13s.09,0,.15,0a.43.43,0,0,0,.23.09,2.05,2.05,0,0,1-.36-.64.08.08,0,0,1,.08-.07s.08,0,.2.11a1.28,1.28,0,0,0,.21.12h0c-.12-.09-.39-.28-.39-.44s0,0,0,0,0,0,.19.08a1.94,1.94,0,0,0,.43.22h.05c0-.11,0-.17.05-.19s.08,0,.14.06a.79.79,0,0,0,.52.2c.09,0,.17,0,.17,0a1.08,1.08,0,0,0-.25-.19c-.21-.14-.45-.3-.5-.45h0s0,0,.05,0h0a2.85,2.85,0,0,0,1.31.51c.12,0,.13,0,.13-.05s-.2-.26-.29-.32-.08,0-.07-.08a0,0,0,0,1,0,0l.11,0h.1c.21,0,.52,0,.52-.11s0,0-.18-.07-.07,0-.06,0,0,0,.15,0h.32c.11,0,.23,0,.23-.07s-.06-.06-.13-.09l-.1,0s0,0,0,0a0,0,0,0,1,0,0c1.11.05,1.41-.46,1.41-.46l0,0c.82-.17,3-.74,3-1.42h0a.4.4,0,0,0-.2.07l-.1.06s0,0,0,0a0,0,0,0,1,0,0l.21-.17c.23-.19.67-.54.67-.68h0c-.67.27-.68.26-.7.22s0-.07.2-.21.76-.54.76-.78h0c-.87.4-1.22.58-1.31.63s0,0-.05,0a0,0,0,0,1,0,0c.1-.06.95-.56.95-1H31.9a1,1,0,0,0-.55.28,1.73,1.73,0,0,1-.28.19c-1,.54-1,.52-1,.48s0-.07.34-.33a3.65,3.65,0,0,0,.74-.68c-.13.07-.79.41-1.05.52l-.74.3c-.9.37-.9.37-.93.32s0-.06.08-.12.24-.23.24-.36,0,0,0,0a30.43,30.43,0,0,1-4.14,1h-.67a2.22,2.22,0,0,0-1,.1s0,0,0,0-.23-.11-.23-.34A.42.42,0,0,1,23,6.07l.14,0L23.36,6a.2.2,0,0,1,.2.18.37.37,0,0,0,.14-.22c0-.09-.12-.21-.3-.21h-.17a.71.71,0,0,1-.35-.13.94.94,0,0,0-.51-.17,1.31,1.31,0,0,0-1.32,1.23s0,0,0,0h-.1l-.3-.07a11.21,11.21,0,0,1-3.91-1.23h0c0,.12.24.32.39.44s.17.15.15.19,0,.06-.79-.25c-.1,0-.36-.15-.78-.35l0,0-1.23-.54s0,0,0,.09.2.38.41.56a2.06,2.06,0,0,1,.39.39,0,0,0,0,1,0,0s0,0,0,0a3.1,3.1,0,0,1-1.44-.83.15.15,0,0,0,0,.12,1.54,1.54,0,0,0,.66.87s0,0,0,0,0,0-.05,0c-.25-.14-.74-.48-.82-.54h0v0c0,.19.17.34.37.48s.28.23.26.26,0,0-.42-.17l-.24-.13h0c0,.43.51.76,1.43,1l.08,0a2.49,2.49,0,0,1,.53.16.05.05,0,0,1,0,0c0,.08-.11.1-.29.11h0c.07.15.49.21.77.21a5.22,5.22,0,0,0,.74-.08h0s.09,0,.09,0,0,.09-1.07.31a1.63,1.63,0,0,0,.69.19h.22c.78-.06.78,0,.8,0a.06.06,0,0,1,0,.05,1.05,1.05,0,0,1-.52.13c-.12,0-.2,0-.2.06h0c.08.06.15.11.61.11a6.7,6.7,0,0,0,.85-.07h0c.06,0,.09,0,.09.07h0c0,.09-.13.11-.28.15s-.24,0-.24.08.37.15.58.15a1.43,1.43,0,0,0,.23,0,1.08,1.08,0,0,1,.19,0s.05,0,.06,0a.06.06,0,0,1,0,0,.19.19,0,0,1-.07.14l0,0a.56.56,0,0,0,.21,0h0l.29,0h.06c.11,0,.15,0,.15,0s0,0-.05.06l-.05,0h0a.05.05,0,0,0,0,0h.09a1.26,1.26,0,0,0,.47-.1.72.72,0,0,1,.26-.07s.06,0,.07,0,0,.06-.08.1-.09.08-.09.1,0,.07.17.07a4.27,4.27,0,0,0,.9-.21h0s.07,0,.08,0,0,.07-.14.14-.2.12-.2.17.42.2.49.2h.25a.42.42,0,0,0,.24-.06h0s.06,0,.06.09v.08h0c.05-.06.08-.09.12-.08a.06.06,0,0,1,0,0,1.71,1.71,0,0,1-.09.37,2.25,2.25,0,0,0-.13.49.24.24,0,0,0,0,.07.66.66,0,0,0,.14-.19c.07-.11.1-.16.15-.15s0,.06,0,.08a.5.5,0,0,1,0,.13.52.52,0,0,0,0,.14.23.23,0,0,0,.07.15l0,0a.47.47,0,0,1-.43.45h-.12c-.36,0-.45.39-.45.44v0a.28.28,0,0,1,.22-.09h.07a.32.32,0,0,0,.2-.07l.11-.06c.09,0,.14,0,.16,0s0,.08-.06.15-.1.13-.1.17,0,0,0,0a.14.14,0,0,1,0,.1v.06a.19.19,0,0,0,.07.12v0c0-.1,0-.11.08-.13h0a.43.43,0,0,0,.25-.22Zm.46-.24h0v-.06Zm-.06-.95a.8.8,0,0,0,0,.23c0,.26.06.28.12.3a.24.24,0,0,1,.1.05l0,0a.69.69,0,0,1,.31-.09c.18,0,.28-.05.28-.19a.91.91,0,0,0,0-.17l-.08.07h-.06s0,0,0-.31v-.15a3.08,3.08,0,0,0-.36-1s0,.05,0,.17v.25c0,.05,0,.48,0,.71v.14h0a0,0,0,0,1-.05,0c-.06,0-.1-.06-.14-.12Z"/><path d="M22.39,5.82h-.11l-.11,0a.42.42,0,0,0-.15,0s0,0,0,0,0,0,0,0a.25.25,0,0,0,.12,0,.49.49,0,0,1,.27-.07c.14,0,.2.07.2.14S22.54,5.82,22.39,5.82Zm-.24-.14.05,0,.1,0h.09c.11,0,.15-.06.15-.08s0-.07-.13-.07a.44.44,0,0,0-.24.06Z"/><path d="M23.38,6h0l-.13,0c-.07,0-.08,0-.27-.1,0,0,0,0,0,0a0,0,0,0,1,.05,0c.17.09.18.09.23.09l.14,0s0,0,0,0S23.4,6,23.38,6Z"/><path d="M22.35,11.9s0,0,0,0v-.08a.06.06,0,0,0,0,0v-.05h0v0a0,0,0,0,1,0,0s0,0,0,0h0v.05a.07.07,0,0,1,0,0v.07A0,0,0,0,1,22.35,11.9Z"/><path d="M23.79,8.61s0,0,0,0C23.69,7.5,23.39,7.28,23,7a2.12,2.12,0,0,1-.51-.49s0,0,0,0a0,0,0,0,1,.05,0,2,2,0,0,0,.49.47c.35.26.68.5.75,1.6a0,0,0,0,1,0,0Z"/><path d="M24,7.65l-.35,0h-.06s0,0,0,0,0,0,0,0h.06l.35,0a.17.17,0,0,0,.12,0,.37.37,0,0,1,.29-.09h.19c.21,0,.21,0,.22,0s.05-.09.16-.09h.55c0-.07-.15-.12-.22-.15s-.09,0-.08-.07,0,0,.18,0l.18,0h.26c.11,0,.37,0,.37-.16s0,0,0-.06a.05.05,0,0,1,0-.05s0,0,.05,0A2.48,2.48,0,0,0,27,6.64h0l.13,0,.21,0a10,10,0,0,0,1.11-.36s0,0,0,0a0,0,0,0,1,0,0c-.9.31-1,.33-1.12.36a.92.92,0,0,0-.2,0L27,6.7h0a2.75,2.75,0,0,1-.7.16v.06c0,.15-.15.23-.44.23h-.26l-.18,0c.09,0,.19.1.19.18a.08.08,0,0,1-.07.08H25c-.09,0-.09,0-.09,0s-.06.11-.29.11h-.19a.35.35,0,0,0-.25.07A.2.2,0,0,1,24,7.65Z"/><path d="M26.28,6.87H26s0,0,0,0a0,0,0,0,1,0,0h.29s0,0,0,0A0,0,0,0,1,26.28,6.87Z"/><path d="M24.92,7.4a.82.82,0,0,1-.36-.13l-.06,0a0,0,0,0,1,0,0s0,0,0,0l.07,0a.87.87,0,0,0,.33.12s0,0,0,0A0,0,0,0,1,24.92,7.4Z"/><path d="M24.34,7.53h-.06A1.3,1.3,0,0,1,24,7.44s0,0,0,0a0,0,0,0,1,.05,0l.29.07h.05s0,0,0,0A0,0,0,0,1,24.34,7.53Z"/><path d="M25.87,9.15c-.69,0-2-1.19-2.24-1.42,0,0,0,0,0-.05h.05c.18.22,1.53,1.4,2.18,1.4l.38,0-1.19-.64a5.39,5.39,0,0,1-.89-.59,0,0,0,0,1,0,0s0,0,.05,0a6.09,6.09,0,0,0,.86.57L26.35,9a0,0,0,0,1,0,0s0,0,0,0S26.37,9.15,25.87,9.15Z"/><path d="M26.86,9A5,5,0,0,1,25,8.26L24.58,8l-.38-.19h0l0,0a0,0,0,0,1,0-.05h0l.38.19.45.24a4.91,4.91,0,0,0,1.8.73.5.5,0,0,0,.49-.24s0,0,0,0,0,0,0,.05A.56.56,0,0,1,26.86,9Z"/><path d="M27.38,8.74h0c-.46-.09-2.38-.62-2.7-1.22,0,0,0,0,0,0h0A2.53,2.53,0,0,0,26.07,8c.34,0,.36-.06.36-.06s-.07-.13-.68-.39c-.13-.06-.14-.07-.13-.1s0,0,.34.06a3.24,3.24,0,0,0,1,.17,1.55,1.55,0,0,0,.4,0,1,1,0,0,0-.21-.09c-.13,0-.16-.06-.16-.1s.06,0,.09,0h.33a.85.85,0,0,0,.28,0s-.06-.07-.16-.1a0,0,0,0,1,0,0s0,0,.08,0h.15c.59,0,.86-.22.86-.27H28a3.15,3.15,0,0,1-1.15-.2s0,0,0,0,0,0,0,0A3.3,3.3,0,0,0,28,6.88h.51l.08,0a.07.07,0,0,1,0,.07c0,.14-.36.34-.93.34h0a.14.14,0,0,1,.06.11s0,.09-.35.09h-.23c.2.07.28.1.27.16s-.05.09-.49.09a3,3,0,0,1-.8-.12c.25.13.4.23.38.32s-.15.12-.43.12A2.69,2.69,0,0,1,25,7.71a7.56,7.56,0,0,0,2.44,1s0,0,0,0A0,0,0,0,1,27.38,8.74Z"/><path d="M27,7.49H27a3.35,3.35,0,0,1-.64-.17,0,0,0,0,1,0,0s0,0,.05,0a4,4,0,0,0,.62.16H27s0,0,0,0S27,7.49,27,7.49Z"/><path d="M27.52,7.29h0a1.87,1.87,0,0,1-.59-.16,0,0,0,0,1,0,0,0,0,0,0,1,.05,0,2.13,2.13,0,0,0,.56.15s0,0,0,0A0,0,0,0,1,27.52,7.29Z"/><path d="M28.1,6.85a.05.05,0,0,1,0,0,.05.05,0,0,1,0,0h0a5.49,5.49,0,0,0,2-.75s0,0,.05,0,0,0,0,0a5.66,5.66,0,0,1-2,.76h0Z"/><path d="M27.86,7.48h-.24s0,0,0,0,0,0,0,0h.24a9.56,9.56,0,0,0,3.21-1.23s0,0,.05,0a0,0,0,0,1,0,.05A9.2,9.2,0,0,1,27.86,7.48Z"/><path d="M29.42,7.51s0,0,0,0a0,0,0,0,1,0,0l.52-.18a5.46,5.46,0,0,0,1.54-.69s0,0,.05,0a0,0,0,0,1,0,0,5.74,5.74,0,0,1-1.56.7,4,4,0,0,0-.52.18Z"/><path d="M26.79,8h-.33s0,0,0,0a0,0,0,0,1,0,0l.23,0h.1a1.42,1.42,0,0,0,.42,0,0,0,0,0,1,.05,0s0,0,0,0A1.3,1.3,0,0,1,26.79,8Z"/><path d="M28,8.3a6.49,6.49,0,0,1-1.44-.16s0,0,0,0,0,0,0,0A6.25,6.25,0,0,0,28,8.23a6.39,6.39,0,0,0,3.35-1,0,0,0,0,1,.05,0s0,0,0,0A6.42,6.42,0,0,1,28,8.3Z"/><path d="M27.79,8.76H27.6l-.11,0h-.11a0,0,0,0,1,0,0s0,0,0,0h.12l.1,0h.19a2.71,2.71,0,0,0,.55-.06l.35-.05a0,0,0,0,1,0,0s0,0,0,0l-.34,0A2.93,2.93,0,0,1,27.79,8.76Z"/><path d="M27.21,9.15h-.08a1.68,1.68,0,0,1-.8-.24,0,0,0,1,1,.05-.05,1.65,1.65,0,0,0,.75.22h.08a0,0,0,0,1,0,0S27.23,9.15,27.21,9.15Z"/><path d="M26.77,9.43h-.08a2.6,2.6,0,0,1-.83-.27,0,0,0,0,1,0-.05s0,0,.05,0a2.64,2.64,0,0,0,.78.25h.08a0,0,0,0,1,0,.08Z"/><path d="M26.22,9.65h0A4.22,4.22,0,0,1,25.38,9a0,0,0,0,1,0,0h.05a4.71,4.71,0,0,0,.8.61.05.05,0,0,1,0,.05Z"/><path d="M23.3,9.18s0,0,0,0a2.23,2.23,0,0,0-.37-.5.61.61,0,0,1-.22-.38v0h0s0,0,0,0a0,0,0,0,1,0,0v0c0,.12.08.21.2.33a1.94,1.94,0,0,1,.38.52,0,0,0,0,1,0,0Z"/><path d="M25,10.1h0s-.28-.12-.32-.2,0,0,0-.05a0,0,0,0,1,.05,0A1.14,1.14,0,0,0,25,10s0,0,0,0A0,0,0,0,1,25,10.1Z"/><path d="M24.11,10.82h0a.59.59,0,0,1-.36-.4v.05a.46.46,0,0,1-.09.2l-.05.1s0,0,0,0a0,0,0,0,1,0,0,.58.58,0,0,1,0-.11.37.37,0,0,0,.08-.18c0-.11,0-.15.08-.15s.05,0,.07.09a.54.54,0,0,0,.31.37s0,0,0,0A0,0,0,0,1,24.11,10.82Z"/><path d="M22.23,10.93h0a0,0,0,0,1,0-.05c.26-.33.26-.35.29-.49a1,1,0,0,0,0-.12l0,0s0,0,0,0v0a1.39,1.39,0,0,0,.18.25s0,0,0,.05h-.05a1.44,1.44,0,0,1-.15-.22v0c0,.15,0,.18-.3.51Z"/><path d="M22.17,10.43h0a0,0,0,0,1,0,0,1.7,1.7,0,0,0,.08-.53V9.79s0,0,0,0,0,0,0,0,0,0,0,.07a1.37,1.37,0,0,1-.1.56Z"/><path d="M22.05,9.8h0a0,0,0,0,1,0,0,.54.54,0,0,0,.07-.13h0l0,0a.05.05,0,0,1,.05,0v0a.67.67,0,0,1-.09.14S22.07,9.8,22.05,9.8Zm.06-.18Z"/><path d="M21.17,9.23l0,0a0,0,0,0,1,0-.05l.06,0A1.86,1.86,0,0,0,21.47,9a0,0,0,1,1,0,.06,2,2,0,0,1-.26.14l-.06,0Z"/><path d="M20.18,9.12l0,0s0,0,0,0a1.86,1.86,0,0,0,.58-.31h.05a0,0,0,0,1,0,.05,1.63,1.63,0,0,1-.61.32Z"/><path d="M24.25,10l0,0a2.62,2.62,0,0,1-.13-.35,1.16,1.16,0,0,0-.21-.4c-.17-.2-.27-.31-.31-.37s-.06-.06,0-.09.05,0,.08,0a2,2,0,0,0,1.12.67c.05,0,.05,0,.05,0s0,0,0-.07L24.37,9C24,8.6,24,8.6,24.05,8.57s0,0,.17.09.93.77,1.31.77h.07l-.13-.12c-.18-.17-.47-.43-.53-.51a0,0,0,0,1,0,0s0,0,.05,0,.35.34.52.5.16.15.16.17-.11.08-.15.08a2.42,2.42,0,0,1-1.14-.61l0,0,.36.39a.17.17,0,0,1,.06.12s0,.09-.12.09a1.52,1.52,0,0,1-.81-.37l0,0a1.15,1.15,0,0,1,.21.43c0,.1.08.21.14.34a0,0,0,0,1,0,0Z"/><path d="M21.89,9.7h0s0,0,0,0A.49.49,0,0,0,22,9.38a.51.51,0,0,0-.06-.2.92.92,0,0,1-.08-.37c0-.14,0-.2,0-.22s.08,0,.16.05a1.88,1.88,0,0,0,.54.24c.11,0,.46.23.46.46v.05a0,0,0,0,1,0,0s0,0,0,0V9.34c0-.18-.31-.36-.41-.39A2.39,2.39,0,0,1,22,8.7l-.08,0a.62.62,0,0,0,0,.15.81.81,0,0,0,.08.34.65.65,0,0,1,.06.23.46.46,0,0,1-.15.32Z"/><path d="M21.88,9h0l-.16-.22-.15-.2-.11-.14a1.3,1.3,0,0,1-.68.21h-.1a.05.05,0,0,1,0-.06.48.48,0,0,1,.1-.09c.12-.12.36-.32.36-.45l0-.06a1.37,1.37,0,0,1-.22-.63A.57.57,0,0,1,21,7l0-.08s0,0,0,0a0,0,0,0,1,0,0L21,7a.53.53,0,0,0-.06.31,1.32,1.32,0,0,0,.2.6l0,.08c0,.15-.2.33-.39.51l-.05,0h0a1.18,1.18,0,0,0,.67-.22s0,0,0,0l.12.16.16.21.16.22s0,0,0,0Z"/><path d="M21.1,6.76h0a.33.33,0,0,1-.12,0,0,0,0,0,1,0,0,0,0,0,0,1,.05,0l.11.05s0,0,0,0S21.12,6.76,21.1,6.76Z"/><path d="M19.38,9.09a0,0,0,0,1,0,0s0,0,0,0a7.44,7.44,0,0,0,1.73-1h.05s0,0,0,.05a7.23,7.23,0,0,1-1.77,1Z"/><path d="M19.71,8.42a.53.53,0,0,1-.18,0h0s-.18-.05-.18-.11h0s0,0,0,0,.69-.47,1.55-1.19a0,0,0,0,1,0,.06c-.76.64-1.39,1.07-1.52,1.17l.09,0h0a.59.59,0,0,0,.17,0A1.91,1.91,0,0,0,21,7.68H21s0,0,0,.05A2,2,0,0,1,19.71,8.42Z"/><path d="M18.75,8.88s0,0,0,0a0,0,0,0,1,0,0,1.65,1.65,0,0,0,.73-.44,0,0,0,0,1,.05,0s0,0,0,.05A1.75,1.75,0,0,1,18.75,8.88Z"/><path d="M18.84,8.09c-.19,0-.31-.05-.37-.16a0,0,0,0,1,0,0,0,0,0,0,1,0,0,2.13,2.13,0,0,0,.85-.4,3.94,3.94,0,0,1-1.09.27c-.05,0-.22,0-.22-.07s0,0,0,0l.42-.24a1.58,1.58,0,0,1-.41.12s-.34,0-.34-.08,0-.06.19-.18l.17-.14h-.36c-.35,0-.41,0-.43-.07s.05-.09.16-.16a1.12,1.12,0,0,0,.32-.23.73.73,0,0,1-.3.07.52.52,0,0,1-.43-.2v0a.05.05,0,0,1,.05,0c.47,0,.53-.07.54-.09s-.16-.16-.26-.23A.94.94,0,0,1,17.19,6s0,0,0,0a0,0,0,0,1,0,0l.17.13c.16.11.32.22.28.32s-.1.13-.56.13a.48.48,0,0,0,.34.13.61.61,0,0,0,.4-.14h0a0,0,0,0,1,0,0,1,1,0,0,1-.44.39l-.12.08h.75s.05,0,.05,0,0,.09-.22.24l-.13.1.24,0a3.23,3.23,0,0,0,.7-.24c.18-.08.18-.08.2,0s0,0-.2.16l-.61.35h.1a3.37,3.37,0,0,0,1.29-.39h.05a0,0,0,0,1,0,0,2.19,2.19,0,0,1-1,.6.43.43,0,0,0,.28.08,2.67,2.67,0,0,0,1-.23L20,7.72l.1,0s0,0,0,0a0,0,0,0,1,0,0l-.1,0-.17.06A2.66,2.66,0,0,1,18.84,8.09Z"/><path d="M20,7.3h0a.58.58,0,0,0-.19,0h-.09c-.05,0-.07,0-.07-.06a.11.11,0,0,1,0-.09h-.42c-.2,0-.24,0-.25-.06s0-.07.11-.11l0,0H19c-.26,0-.5,0-.5-.15a.29.29,0,0,1,.08-.14A1.46,1.46,0,0,1,18,6.48a1.92,1.92,0,0,0-.41-.18.08.08,0,0,1,0,0,.05.05,0,0,1,0,0,2,2,0,0,1,.41.19,1.51,1.51,0,0,0,.69.16,0,0,0,0,1,0,0s0,0,0,0-.08.08-.08.11,0,.08.43.08c.16,0,.22,0,.23,0s0,.07-.11.11l0,0h.67s.05,0,.05,0,0,0,0,0-.08,0-.08.09h.09a.75.75,0,0,1,.21,0s0,0,0,0S20,7.3,20,7.3Zm-1.34-.65Z"/><path d="M18.14,7.12h0s0,0,0-.05a1.66,1.66,0,0,0,.22-.19.54.54,0,0,1,.2-.16l.05,0a0,0,0,0,1,0,0,.42.42,0,0,0-.18.14,2.65,2.65,0,0,1-.22.2Z"/><path d="M17.35,8.13s0,0,0,0,0,0,0,0L17.48,8l.31-.1s0,0,.05,0,0,0,0,.05a1.82,1.82,0,0,1-.33.11l-.14,0Z"/><path d="M16.71,7.66s0,0,0,0,0-.06,0-.06h0A2.57,2.57,0,0,0,17,7.47s0,0,.06,0a0,0,0,0,1,0,.07,1.94,1.94,0,0,1-.33.1h-.05Z"/><path d="M15.49,7.38h0a0,0,0,0,1,0,0s0,0,0,0h0A4.44,4.44,0,0,0,16,7.24l.21,0s0,0,0,0,0,0,0,0l-.21,0a2.74,2.74,0,0,1-.5.07Z"/><path d="M15.76,7.11h0c-.37-.09-1.65-.64-1.7-.66a0,0,0,0,1,0,0s0,0,0,0S15.41,7,15.77,7c0,0,0,0,0,0S15.78,7.11,15.76,7.11Z"/><path d="M16.51,7h0l-.33-.11a11.05,11.05,0,0,1-1.88-.73,0,0,0,0,1,0,0s0,0,.05,0a12.79,12.79,0,0,0,1.86.72l.34.12a0,0,0,0,1,0,0Z"/><path d="M16.61,6.61h0l-.14-.06A5.2,5.2,0,0,1,15.14,6s0,0,0,0h0a5.34,5.34,0,0,0,1.27.58l.16.06s0,0,0,0S16.62,6.61,16.61,6.61Z"/><path class="cls-2" d="M40.5,20.25a20.2,20.2,0,0,1-7.22,15.5V14.49h6.38A20.26,20.26,0,0,1,40.5,20.25Z"/><path d="M33.28,14.49V35.75A20,20,0,0,1,26,39.65V14.49Z"/><path class="cls-3" d="M26,14.49V39.65a20.12,20.12,0,0,1-5.79.85H18.81v-26Z"/></g></g></svg>