<?xml version="1.0" standalone="no"?>
<!DOCTYPE svg PUBLIC "-//W3C//DTD SVG 20010904//EN"
 "http://www.w3.org/TR/2001/REC-SVG-20010904/DTD/svg10.dtd">
<svg version="1.0" xmlns="http://www.w3.org/2000/svg"
 width="512.000000pt" height="512.000000pt" viewBox="0 0 512.000000 512.000000"
 preserveAspectRatio="xMidYMid meet">
<metadata>
Created by potrace 1.14, written by Peter Selinger 2001-2017
</metadata>
<g transform="translate(0.000000,512.000000) scale(0.100000,-0.100000)"
fill="#000000" stroke="none">
<path d="M3205 4662 c-31 -6 -68 -37 -240 -204 -88 -85 -186 -179 -219 -209
l-59 -54 -401 0 c-373 -1 -403 -2 -432 -19 -23 -14 -57 -63 -122 -175 -50 -86
-217 -376 -372 -646 -156 -269 -342 -593 -415 -720 -165 -286 -175 -305 -175
-331 0 -12 16 -97 36 -190 19 -93 37 -180 40 -194 6 -30 69 -329 119 -565 20
-93 39 -181 41 -195 2 -14 9 -45 14 -70 6 -25 12 -54 14 -65 8 -37 24 -70 42
-86 55 -46 740 -461 770 -466 70 -11 73 -9 389 362 23 28 53 62 66 77 l24 28
452 3 453 3 26 25 c14 13 70 98 124 189 126 214 485 823 515 875 13 22 118
202 235 400 117 198 214 371 216 385 5 28 -1 59 -76 390 -28 124 -60 263 -71
310 -10 47 -35 155 -54 240 -30 130 -53 231 -70 310 -20 95 -31 111 -112 163
-261 166 -684 421 -708 427 -16 3 -39 4 -50 2z m81 -234 c44 -73 84 -143 91
-155 6 -13 19 -33 27 -45 9 -12 16 -25 16 -28 0 -3 -133 -5 -295 -5 -162 0
-295 2 -295 4 0 2 25 28 55 57 30 28 114 108 186 178 72 69 132 126 134 126 2
0 38 -60 81 -132z m374 -114 c101 -63 182 -115 180 -115 -3 -1 -74 -2 -157 -3
l-152 -1 -91 151 c-49 83 -90 153 -90 157 0 3 28 -13 63 -35 34 -22 145 -91
247 -154z m-1070 -215 c0 -3 -59 -62 -130 -131 -72 -69 -244 -237 -384 -374
-139 -137 -423 -415 -631 -619 -208 -203 -393 -386 -412 -405 -43 -44 -36 -24
45 114 36 61 74 127 84 146 34 59 129 224 139 240 10 17 172 298 201 350 113
199 383 664 393 673 9 9 97 12 353 12 188 0 342 -3 342 -6z m886 -1 c13 -8 84
-125 84 -138 0 -4 -73 -50 -162 -103 -90 -52 -341 -198 -558 -325 -217 -126
-411 -239 -430 -251 -19 -11 -48 -28 -65 -37 -16 -9 -70 -40 -120 -69 -220
-130 -1085 -632 -1085 -631 0 3 350 350 475 472 84 81 600 586 925 904 48 47
111 108 141 135 l54 51 365 -1 c201 0 370 -4 376 -7z m334 5 c0 -3 -58 -40
-121 -76 l-46 -27 -26 49 c-15 27 -27 50 -27 53 0 2 50 4 110 3 61 0 110 -1
110 -2z m174 -43 c2 -14 25 -115 51 -225 25 -110 62 -270 81 -355 20 -85 37
-162 39 -170 2 -8 12 -55 23 -105 11 -49 23 -103 27 -120 7 -28 6 -29 -8 -10
-8 11 -23 36 -34 55 -32 59 -434 733 -454 762 l-19 27 27 18 c43 28 258 152
260 150 1 -2 4 -14 7 -27z m169 -1091 c4 -8 18 -32 32 -54 13 -22 24 -43 25
-46 0 -4 -24 -10 -52 -14 -29 -4 -60 -8 -68 -10 -8 -1 -40 -6 -70 -10 -30 -4
-62 -8 -70 -10 -8 -1 -51 -8 -95 -15 -127 -18 -139 -20 -165 -25 -24 -4 -45
-7 -140 -20 -25 -3 -67 -10 -95 -15 -27 -5 -70 -11 -95 -15 -25 -3 -54 -7 -65
-9 -11 -2 -42 -7 -70 -10 -27 -4 -90 -13 -140 -21 -75 -12 -168 -26 -395 -60
-14 -2 -45 -7 -70 -10 -50 -7 -87 -13 -187 -30 -16 -2 -46 -7 -68 -9 -58 -7
-116 -16 -145 -22 -14 -2 -43 -7 -64 -9 -22 -3 -51 -7 -66 -10 -15 -3 -42 -7
-61 -9 -19 -3 -81 -12 -139 -21 -58 -9 -118 -18 -133 -20 -16 -2 -40 -6 -55
-9 -15 -3 -47 -8 -72 -11 -25 -3 -54 -7 -65 -9 -11 -2 -42 -7 -70 -10 -27 -4
-106 -16 -175 -26 -69 -11 -143 -23 -165 -26 -22 -4 -51 -8 -65 -11 -13 -2
-22 -1 -18 2 5 5 1399 820 1518 887 63 36 815 474 959 559 l64 37 267 -447
c147 -246 270 -454 273 -462z m-19 -218 c-5 -5 -72 -64 -149 -131 -169 -148
-264 -232 -279 -245 -6 -6 -87 -77 -181 -159 -93 -83 -177 -157 -186 -165 -19
-19 -35 -33 -244 -216 -88 -77 -162 -143 -165 -146 -17 -19 -352 -309 -358
-309 -4 0 -43 21 -87 46 -44 25 -105 60 -135 76 -30 17 -131 75 -225 128 -93
53 -195 110 -225 127 -30 17 -224 126 -430 243 -206 117 -400 226 -430 243
-78 42 -78 44 -14 52 32 4 66 8 76 10 9 2 68 11 130 20 144 21 168 24 198 30
14 3 45 7 70 10 25 3 70 9 100 15 30 5 75 12 100 15 25 3 70 10 100 15 30 5
71 11 90 14 19 3 143 21 275 41 132 19 256 38 275 40 19 3 76 12 125 20 50 7
110 17 135 20 25 3 52 8 60 10 8 2 38 7 65 10 105 13 122 16 185 26 36 6 79
12 95 15 32 4 97 14 130 20 11 2 40 6 65 9 43 5 142 21 185 29 11 2 43 7 70
10 28 4 61 9 75 11 24 3 150 23 199 30 14 3 75 12 135 21 61 9 112 17 113 17
1 1 16 3 34 4 18 1 28 -1 23 -6z m-6 -143 c-8 -13 -219 -369 -468 -793 -249
-424 -457 -773 -463 -777 -6 -3 -17 -4 -25 0 -13 5 -502 280 -511 288 -3 3 14
19 169 154 35 30 68 60 74 65 6 6 148 132 316 279 168 148 334 295 370 327 36
32 76 67 90 79 14 12 43 38 65 58 22 20 74 66 115 102 41 36 93 81 115 101 73
67 158 139 163 139 2 0 -2 -10 -10 -22z m-2985 -527 c95 -54 193 -109 218
-123 24 -14 134 -76 244 -138 301 -171 475 -269 525 -297 25 -14 59 -33 75
-43 17 -10 50 -29 75 -42 25 -14 87 -49 137 -78 l93 -52 -29 -37 c-16 -20 -67
-81 -113 -136 l-84 -100 -331 -3 -331 -2 -33 57 c-18 32 -78 137 -134 233 -56
96 -113 195 -127 220 -14 25 -98 170 -187 324 -186 320 -183 316 -176 316 3 0
83 -44 178 -99z m108 -589 c88 -151 159 -278 159 -283 0 -5 5 -9 10 -9 6 0 10
-4 10 -10 0 -5 20 -43 45 -85 35 -61 41 -75 27 -76 -9 0 -97 -1 -195 -2 l-178
-2 -9 35 c-5 19 -25 114 -45 210 -20 96 -38 182 -40 190 -15 71 -48 230 -52
250 -2 14 -9 45 -14 70 -29 127 -59 276 -59 289 0 8 41 -57 91 -145 51 -87
163 -282 250 -432z m1531 -339 c103 -60 188 -110 188 -113 0 -3 -128 -6 -285
-7 l-285 -3 67 83 c37 45 78 93 90 107 13 14 23 28 23 32 0 15 16 7 202 -99z
m-1122 -368 c49 -82 87 -151 85 -153 -3 -4 -484 292 -485 298 0 3 70 5 156 5
l156 0 88 -150z m529 138 c-8 -10 -16 -20 -19 -23 -3 -3 -39 -45 -80 -95 -41
-49 -82 -97 -90 -105 -8 -8 -35 -39 -59 -67 -23 -29 -46 -53 -51 -53 -7 0
-187 304 -202 342 -6 16 11 17 254 18 249 0 260 0 247 -17z"/>
</g>
</svg>
