<svg viewBox="0 0 40.5 40.5" xmlns="http://www.w3.org/2000/svg">
    <path
        d="m40.5 20.25a20.25 20.25 0 0 1 -40.5 0c0-.13 0-.28 0-.42s0-.47 0-.71a1 1 0 0 1 0-.17c0-.47.07-.93.14-1.39 0-.21 0-.44.09-.66s0-.26.07-.38 0-.19.05-.28.07-.32.11-.49c.12-.52.27-1.05.43-1.56.07-.22.14-.45.22-.66a.67.67 0 0 1 .06-.15c.09-.26.18-.51.29-.77a2.12 2.12 0 0 0 .14-.31l.06-.15a1.24 1.24 0 0 1 .1-.2v-.1a5 5 0 0 1 .3-.62c.15-.3.29-.59.47-.89l.08-.13a20.24 20.24 0 0 1 37.89 10.04z"
        fill="#012169" />
    <path
        d="m20.59 12.57v3.91h-20.24c0-.09 0-.19.05-.28s.07-.32.11-.49c.12-.52.27-1.05.43-1.56.07-.22.14-.45.22-.66a.67.67 0 0 1 .06-.15c.09-.26.18-.51.29-.77z"
        fill="#fff" />
    <path d="m2.97 12.57h11.73v3.92h-11.73z" fill="#fff" transform="matrix(0 1 -1 0 23.37 5.69)" />
    <path
        d="m20.59 13.34v2.37h-10.59v4.68h-2.36v-4.68h-7.13c.12-.52.27-1.05.43-1.56.07-.22.14-.45.22-.66a.67.67 0 0 1 .06-.15h6.42v-4.67h2.36v4.67z"
        fill="#cf142b" />
    <path d="m10.79 12.26 7.17-3.6h2.63v1.32l-5.17 2.59h-4.63z" fill="#fff" />
    <path d="m11 12.57 7.84-3.91h1.75l-7.81 3.91z" fill="#cf142b" />
    <path d="m10.79 16.8 7.17 3.6h2.63v-1.32l-5.17-2.59h-4.63z" fill="#fff" />
    <path d="m6.87 16.48v.31l-6.87 3.45c0-.13 0-.28 0-.42s0-.47 0-.71a1 1 0 0 1 0-.17c0-.47.07-.93.14-1.39l2.06-1z"
        fill="#fff" />
    <path d="m6.67 16.48-6.67 3.32c0-.24 0-.47 0-.71a1 1 0 0 1 0-.17l4.84-2.43z" fill="#cf142b" />
    <g fill="#fff">
        <path
            d="m6.87 12.26v.31h-4.62l-.6-.31.06-.15a1.24 1.24 0 0 1 .1-.2v-.1a5 5 0 0 1 .3-.62c.15-.3.29-.59.47-.89l.08-.13z" />
        <path
            d="m8.84 22.8.69 2.07 2.05-.75-1.18 1.84 1.86 1.13-2.17.23.27 2.15-1.52-1.54-1.53 1.54.27-2.15-2.16-.23 1.85-1.13-1.18-1.84 2.05.75z" />
        <path d="m26.48 17.32.32.96.95-.35-.54.86.86.52-1.01.11.12 1-.7-.72-.71.72.12-1-1-.11.86-.52-.55-.86.95.35z" />
        <path
            d="m32.35 10.94.32.96.95-.35-.54.85.86.53-1.01.11.13 1-.71-.72-.71.72.13-1-1.01-.11.86-.53-.55-.85.95.35z" />
        <path
            d="m37.57 15.74.33.96.95-.35-.55.86.86.52-1 .11.12 1-.71-.72-.71.72.13-1-1.01-.11.86-.52-.54-.86.95.35z" />
        <path
            d="m32.35 26.63.33.96.95-.35-.55.85.86.53-1 .11.12 1-.71-.72-.71.72.13-1-1.01-.11.86-.53-.54-.85.95.35z" />
        <path d="m34.71 20.43.26.63.67.05-.51.44.15.65-.57-.34-.58.34.16-.65-.51-.44.67-.05z" />
    </g>
    <path d="m4.91 12.57h-1.78l-1.32-.66v-.1a5 5 0 0 1 .3-.62z" fill="#cf142b" />
    <path d="m20.59 20.4-7.83-3.91h1.79l6.04 3.02z" fill="#cf142b" />
</svg>