<svg viewBox="0 0 40.5 40.5" xmlns="http://www.w3.org/2000/svg">
    <path d="m39.34 13.5h-38.18a20.25 20.25 0 0 1 38.18 0z" fill="#00b9e4" />
    <path d="m40.5 20.25a20 20 0 0 1 -1.16 6.75h-38.18a20.22 20.22 0 0 1 0-13.5h38.18a20 20 0 0 1 1.16 6.75z"
        fill="#ed2939" />
    <path d="m39.34 27a20.25 20.25 0 0 1 -38.18 0z" fill="#3f9c35" />
    <g fill="#fff">
        <path d="m20.24 25.3a5.05 5.05 0 1 1 3.57-8.63 6.08 6.08 0 1 0 0 7.16 5.06 5.06 0 0 1 -3.57 1.47z" />
        <path
            d="m25.64 16.89.65 1.81 1.73-.83-.82 1.74 1.81.64-1.81.64.82 1.74-1.73-.83-.65 1.81-.64-1.81-1.74.83.83-1.74-1.81-.64 1.81-.64-.83-1.74 1.74.83z" />
    </g>
</svg>