<svg viewBox="0 0 40.5 40.5" xmlns="http://www.w3.org/2000/svg">
    <path
        d="m40.5 20.25a20.14 20.14 0 0 1 -6 14.42 18.89 18.89 0 0 1 -3.24 2.59 18.65 18.65 0 0 1 -2.95 1.59 19.66 19.66 0 0 1 -3.31 1.15 20.27 20.27 0 0 1 -25-19.75 20 20 0 0 1 .2-2.81 19.49 19.49 0 0 1 1.84-6 16.92 16.92 0 0 1 1.19-2.15 20.25 20.25 0 0 1 37.27 11z"
        fill="#002395" />
    <path d="m34.45 5.83v28.84a18.89 18.89 0 0 1 -3.24 2.59l-28-28a20.22 20.22 0 0 1 31.24-3.43z" fill="#fecb00" />
    <g fill="#fff">
        <path d="m28.26 38.85a19.66 19.66 0 0 1 -3.26 1.15l-1.5-1.1h2.82l.88-2.68.8 2.63z" />
        <path d="m22.07 31.12.88 2.68h2.82l-2.28 1.66.87 2.69-2.29-1.66-2.28 1.66.87-2.69-2.28-1.66h2.82z" />
        <path d="m17.05 26.04.87 2.69h2.82l-2.28 1.66.87 2.69-2.28-1.67-2.29 1.67.87-2.69-2.28-1.66h2.82z" />
        <path d="m11.96 21 .87 2.68h2.82l-2.28 1.66.87 2.69-2.28-1.66-2.29 1.66.88-2.69-2.29-1.66h2.83z" />
        <path d="m6.89 15.91.88 2.69h2.82l-2.29 1.66.88 2.69-2.29-1.66-2.28 1.66.87-2.69-2.28-1.66h2.82z" />
        <path d="m3.27 15.21.87 2.69-2.28-1.66-1.66 1.2a19.49 19.49 0 0 1 1.84-6l.69 2.14h2.83z" />
    </g>
</svg>