<svg viewBox="0 0 40.5 40.5" xmlns="http://www.w3.org/2000/svg">
    <path d="m40.5 20.25a20.24 20.24 0 0 1 -13.5 19.09v-38.18a20.23 20.23 0 0 1 13.5 19.09z" fill="#00267f" />
    <path d="m27 1.16v38.18a20.22 20.22 0 0 1 -13.5 0v-38.18a20.22 20.22 0 0 1 13.5 0z" fill="#ffc726" />
    <path d="m13.5 1.16v38.18a20.25 20.25 0 0 1 0-38.18z" fill="#00267f" />
    <path
        d="m26 15.58c-1.32.09-3.39 1.72-3 1.57.65-.24.91-.47.39.51a25.1 25.1 0 0 0 -1 4.52l-1.45-.18v-5.09a2.79 2.79 0 0 1 1.12.2 9.73 9.73 0 0 1 -1.81-3.37 9.73 9.73 0 0 1 -1.81 3.37 2.79 2.79 0 0 1 1.12-.2v5.09l-1.43.21a25.1 25.1 0 0 0 -1-4.52c-.52-1-.26-.75.39-.51.41.15-1.66-1.48-3-1.57a0 0 0 0 0 0 .06c.37.6 3.06 4.92 2.63 7.93l2.46-.36v3.54h1.38v-3.57l2.46.36c-.43-3 2.26-7.33 2.63-7.93a0 0 0 0 0 -.08-.06z"
        fill="#231f20" />
</svg>