<svg viewBox="0 0 40.5 40.5" xmlns="http://www.w3.org/2000/svg">
    <path
        d="m40.5 20.25a19.53 19.53 0 0 1 -.28 3.36c-.1.57-.22 1.14-.35 1.69a20.26 20.26 0 0 1 -39.24 0c-.13-.55-.25-1.12-.35-1.69a20.3 20.3 0 0 1 0-6.72c.1-.57.22-1.14.35-1.69a20.26 20.26 0 0 1 39.24 0c.13.55.25 1.12.35 1.69a19.53 19.53 0 0 1 .28 3.36z"
        fill="#75aadb" />
    <path
        d="m40.5 20.25a19.53 19.53 0 0 1 -.28 3.36c-.1.57-.22 1.14-.35 1.69h-39.24c-.13-.55-.25-1.12-.35-1.69a20.3 20.3 0 0 1 0-6.72c.1-.57.22-1.14.35-1.69h39.24c.13.55.25 1.12.35 1.69a19.53 19.53 0 0 1 .28 3.36z"
        fill="#fff" />
    <path d="m40.5 20.25a19.53 19.53 0 0 1 -.28 3.36h-39.94a20.3 20.3 0 0 1 0-6.72h39.94a19.53 19.53 0 0 1 .28 3.36z" />
</svg>