<svg viewBox="0 0 40.5 40.5" xmlns="http://www.w3.org/2000/svg">
    <path d="m30.38 2.71v35.08a20.27 20.27 0 0 1 -20.25 0v-35.08a20.27 20.27 0 0 1 20.25 0z" fill="#fff" />
    <g fill="#f00">
        <path
            d="m24.38 23.7 3.8-3.08-.82-.38a.36.36 0 0 1 -.2-.43l.69-2.46-2.22.47a.33.33 0 0 1 -.38-.23l-.29-1-1.83 2a.31.31 0 0 1 -.54-.26l.77-4.2-1.17.59a.41.41 0 0 1 -.54-.17l-1.4-2.55-1.4 2.58a.41.41 0 0 1 -.54.17l-1.17-.59.77 4.2a.31.31 0 0 1 -.54.26l-1.83-2-.29 1a.33.33 0 0 1 -.38.23l-2.22-.47.69 2.46a.36.36 0 0 1 -.2.43l-.82.38 3.8 3.08a.52.52 0 0 1 .17.57l-.33 1 3.69-.51a.34.34 0 0 1 .39.35l-.11 4h.64l-.11-4a.34.34 0 0 1 .39-.35l3.69.51-.33-1a.52.52 0 0 1 .17-.6z" />
        <path d="m10.13 2.71v35.08a20.25 20.25 0 0 1 0-35.08z" />
        <path d="m40.5 20.25a20.28 20.28 0 0 1 -10.12 17.54v-35.08a20.28 20.28 0 0 1 10.12 17.54z" />
    </g>
</svg>