<svg viewBox="0 0 40.5 40.5" xmlns="http://www.w3.org/2000/svg">
    <path d="m39.14 13-34.2 20.48a20.07 20.07 0 0 1 -3.59-5.94l34.21-20.54a19.83 19.83 0 0 1 3.58 6z" fill="#ce1021" />
    <path
        d="m35.56 7-34.21 20.54a12.48 12.48 0 0 1 -.55-1.7 19.52 19.52 0 0 1 -.8-5.59 20.23 20.23 0 0 1 34.33-14.53 12.54 12.54 0 0 1 1.23 1.28z"
        fill="#007fff" />
    <path
        d="m40.5 20.25a20.24 20.24 0 0 1 -34.33 14.54 13.74 13.74 0 0 1 -1.23-1.31l34.2-20.48a11.54 11.54 0 0 1 .56 1.69 19.59 19.59 0 0 1 .8 5.56z"
        fill="#007fff" />
    <g fill="#f7d618">
        <path d="m35.56 7-34.21 20.54a12.48 12.48 0 0 1 -.55-1.7l33.53-20.12a12.54 12.54 0 0 1 1.23 1.28z" />
        <path d="m39.7 14.65-33.53 20.14a13.74 13.74 0 0 1 -1.23-1.31l34.2-20.48a11.54 11.54 0 0 1 .56 1.65z" />
        <path d="m10.29 4.62 1.3 4.01h3.94l-3.22 2.48 1.23 4-3.25-2.47-3.26 2.47 1.23-4-3.21-2.48h3.94z" />
    </g>
</svg>