<svg viewBox="0 0 40.5 40.5" xmlns="http://www.w3.org/2000/svg">
    <path
        d="m40.5 20.25a19.85 19.85 0 0 1 -.28 3.38 19 19 0 0 1 -.88 3.37 19.86 19.86 0 0 1 -1.55 3.38 20.26 20.26 0 0 1 -35.08 0 19.86 19.86 0 0 1 -1.55-3.38 19 19 0 0 1 -.88-3.37 19.85 19.85 0 0 1 -.28-3.38 20.25 20.25 0 0 1 40.5 0z"
        fill="#003893" />
    <path d="m40.5 20.25a19.85 19.85 0 0 1 -.28 3.38h-39.94a19.85 19.85 0 0 1 -.28-3.38z" fill="#fff" />
    <path d="m40.22 23.63a19 19 0 0 1 -.88 3.37h-38.18a19 19 0 0 1 -.88-3.37z" fill="#cf2027" />
    <path d="m39.34 27a19.86 19.86 0 0 1 -1.55 3.38h-35.08a19.86 19.86 0 0 1 -1.55-3.38z" fill="#fff" />
    <g fill="#f7d116">
        <path d="m15.33 13.17.45 1.39h1.47l-1.19.86.46 1.4-1.19-.86-1.19.86.46-1.4-1.19-.86h1.47z" />
        <path d="m15.33 33.42.45 1.39h1.47l-1.19.86.46 1.4-1.19-.86-1.19.86.46-1.4-1.19-.86h1.47z" />
        <path d="m21.27 15.08.45 1.4h1.47l-1.19.86.46 1.39-1.19-.86-1.18.86.45-1.39-1.19-.86h1.47z" />
        <path d="m24.96 20.16.45 1.4h1.47l-1.19.86.45 1.39-1.18-.86-1.19.86.46-1.39-1.19-.86h1.46z" />
        <path d="m24.96 26.41.45 1.4h1.47l-1.19.86.45 1.39-1.18-.86-1.19.86.46-1.39-1.19-.86h1.46z" />
        <path d="m21.27 31.47.45 1.39h1.47l-1.19.86.46 1.4-1.19-.86-1.18.86.45-1.4-1.19-.86h1.47z" />
        <path d="m9.39 15.08-.45 1.4h-1.47l1.19.86-.45 1.39 1.18-.86 1.19.86-.46-1.39 1.19-.86h-1.47z" />
        <path d="m5.7 20.16-.45 1.4h-1.46l1.18.86-.45 1.39 1.18-.86 1.19.86-.45-1.39 1.18-.86h-1.46z" />
        <path d="m5.7 26.41-.45 1.4h-1.46l1.18.86-.45 1.39 1.18-.86 1.19.86-.45-1.39 1.18-.86h-1.46z" />
        <path d="m9.39 31.47-.45 1.39h-1.47l1.19.86-.45 1.4 1.18-.86 1.19.86-.46-1.4 1.19-.86h-1.47z" />
    </g>
</svg>