<svg viewBox="0 0 40.5 40.5" xmlns="http://www.w3.org/2000/svg">
    <path d="M36.45 8.1H4.05a20.25 20.25 0 0132.4 0z" fill="#002a8f" />
    <path d="M40.09 16.2H.41a20.23 20.23 0 012-5.45A21.28 21.28 0 014.05 8.1h32.4a20 20 0 013.64 8.1z" fill="#fff" />
    <path d="M40.5 20.25a20 20 0 01-.41 4.05H.41a20.21 20.21 0 010-8.1h39.68a20 20 0 01.41 4.05z" fill="#002a8f" />
    <path d="M40.09 24.3a20 20 0 01-3.64 8.1H4.05a21.28 21.28 0 01-1.69-2.65A20.23 20.23 0 01.41 24.3z" fill="#fff" />
    <path d="M36.45 32.4a20.25 20.25 0 01-32.4 0z" fill="#002a8f" />
    <path
        d="M18.76 20.25l-7 4.05-9.4 5.45A20.23 20.23 0 01.41 24.3a20.21 20.21 0 010-8.1 20.23 20.23 0 012-5.45l9.41 5.45z"
        fill="#cf142b" />
    <path d="M6.79 15.65l.99 3.04h3.19l-2.58 1.87.98 3.04-2.58-1.88-2.58 1.88.98-3.04-2.58-1.87H5.8z" fill="#fff" />
</svg>