<svg viewBox="0 0 40.5 40.5" xmlns="http://www.w3.org/2000/svg">
    <path d="m36.45 8.1h-32.4a20.25 20.25 0 0 1 32.4 0z" fill="#002a8f" />
    <path d="m40.09 16.2h-39.68a20.23 20.23 0 0 1 2-5.45 21.28 21.28 0 0 1 1.64-2.65h32.4a20 20 0 0 1 3.64 8.1z"
        fill="#fff" />
    <path d="m40.5 20.25a20 20 0 0 1 -.41 4.05h-39.68a20.21 20.21 0 0 1 0-8.1h39.68a20 20 0 0 1 .41 4.05z"
        fill="#002a8f" />
    <path d="m40.09 24.3a20 20 0 0 1 -3.64 8.1h-32.4a21.28 21.28 0 0 1 -1.69-2.65 20.23 20.23 0 0 1 -1.95-5.45z"
        fill="#fff" />
    <path d="m36.45 32.4a20.25 20.25 0 0 1 -32.4 0z" fill="#002a8f" />
    <path
        d="m18.76 20.25-7 4.05-9.4 5.45a20.23 20.23 0 0 1 -1.95-5.45 20.21 20.21 0 0 1 0-8.1 20.23 20.23 0 0 1 2-5.45l9.41 5.45z"
        fill="#cf142b" />
    <path d="m6.79 15.65.99 3.04h3.19l-2.58 1.87.98 3.04-2.58-1.88-2.58 1.88.98-3.04-2.58-1.87h3.19z" fill="#fff" />
</svg>