<svg viewBox="0 0 40.5 40.5" xmlns="http://www.w3.org/2000/svg">
    <circle cx="20.25" cy="20.25" fill="#fff" r="20.25" />
    <path
        d="m12.72 15.76v-.05s0-.07.11-.07h.1c.06 0 .12-.1.19-.1h.1a.66.66 0 0 1 .38.13h.11a1.14 1.14 0 0 1 .79.28h.11.06l.39.18s0 .05.09.05h.29c.16 0 .74-.33.84-.62a2.3 2.3 0 0 0 .12-.43s0-.05 0-.09l.08-.59a.09.09 0 0 0 0 0c0-.09.05-.44.05-.54a.49.49 0 0 0 -.18-.45.18.18 0 0 1 0-.09c0-.09.06-.07.06-.18s0-.07 0-.1a1.09 1.09 0 0 1 -.05-.17s0 0 0-.06v-.05h.05a.4.4 0 0 1 .15 0h.05a2.94 2.94 0 0 0 .59.39.44.44 0 0 0 .24.09h.2c.13 0 .24.11.35.18h.12a1.49 1.49 0 0 0 .33-.06c.14 0 .1-.1.28-.1a.77.77 0 0 1 .35.13h.06.13a1 1 0 0 0 .31-.07.25.25 0 0 1 .14 0c.19 0 0 .11.19.11h.1c.12 0 0 .06.11.1.06 0 0-.06.12-.06h.1s0 0 .07 0 .05-.08.18-.08a1 1 0 0 1 .23.11.23.23 0 0 0 .11 0h.2.08l.09.06h.35a1.21 1.21 0 0 0 .21 0h.16.23.36.13s.08 0 .12 0h.08a.31.31 0 0 1 .11 0c.09 0 .19-.11.4-.11h.17c.23 0 .42-.16.58-.16h.16a.4.4 0 0 0 .23 0 .44.44 0 0 1 .15-.05s.05 0 .05.06a2.61 2.61 0 0 0 .68-.38.15.15 0 0 0 .07-.05s.05 0 .07 0a2.7 2.7 0 0 1 .63-.19 1.62 1.62 0 0 1 .23 0h.49a1.26 1.26 0 0 0 .36-.09l.51-.19.24-.08a5.31 5.31 0 0 0 1.66-.78.74.74 0 0 0 .52-.32l.76-.47a.46.46 0 0 0 .07-.14s0 0 0-.05h.1c.16 0 .05 0 .16.08h.28a.55.55 0 0 0 .34-.18h.15c.13 0 0-.08.15-.08h.1.11s.12-.16.23-.16a.08.08 0 0 0 .08-.05s0 0 0-.05 0-.06 0-.06.07 0 .11 0c.14 0 .11-.36.3-.36h.06c.19 0 .05-.14.3-.14h.16c.11 0 .25-.3.43-.3s0 .08.18.08a.16.16 0 0 0 .14-.07.17.17 0 0 1 .13-.05h.12a.18.18 0 0 0 .14-.14s0 0 0-.05.1-.08.16-.08a.14.14 0 0 1 .11 0c.1 0 .39-.29.49-.29h.09c.09 0 .09-.09.18-.09h.13a.14.14 0 0 1 -.07.08s0 0 0 .06 0 0 0 .06-.08.12-.08.15v.08c0 .12 0 .25-.13.27h-.07s-.21 0-.22 0c0 .08 0 .09-.09.09h-.12a5.23 5.23 0 0 0 -.9.48c-.06 0-.14 0-.17.08 0 .11-.17.18-.17.25v.05c0 .37-.66.43-.71.54l-.1.07c-.49.36 0 .33-1.17.75-.12 0-1.69.74-2 1.8s0 .07-.1.09c-.11 0-.1.1-.38.1h-.15c-.09 0-.23-.06-.31-.06h-.26c-.13 0-.31.2-.42.36a5.37 5.37 0 0 0 -.37.65v.07a.38.38 0 0 1 0 .17c-.05.09-.05 0-.05.18a1.66 1.66 0 0 0 .11.47c0 .16-.13 0-.13.15l.45.46 1.18 1.22c.46.67.5.71.5.71s-.05 0-.08.09c0 .13.24.12.24.21s0 0-.05.08a0 0 0 0 1 0 0s0-.06-.06-.06h-.1c-.17 0-.54-.32-.62-.32a1 1 0 0 1 -.19.05c-.07 0-.05-.05-.12-.05s-.07 0-.09 0-.13-.05-.21-.05c-.06 0-.08.13-.17.13h-.23c-.07 0-.05.06-.13.06h-.05c-.22 0 0 .23-.24.25-.11 0-.16.19-.34.19a.39.39 0 0 1 -.34-.21c0-.05-.13-.17-.19-.17h-.21a1.52 1.52 0 0 0 -.59-.06c-.47 0-.92 0-1.1.43-.1.13-.11.17-.11.25s0 .08 0 .11v.13a1.92 1.92 0 0 1 0 .3s0 .07 0 .11v.07c0 .17-.24.22-.3.46s0 0 0 .07 0 0 0 .05c0 .06 0 .06-.11.06l-.44-.06c-.15 0-.43.28-.46.33s-.05 0-.05.06 0 0-.1 0c-.5 0-1.49.77-1.63.77h-.13c-.15 0 0 .09-.19.09h-.06c-.13 0-.09.1-.17.1s-.16-.07-.27-.07a.3.3 0 0 0 -.29.23.13.13 0 0 1 -.09 0c-.19 0-1.08-.11-1.19-.11a3.55 3.55 0 0 0 -1.28.48l-.2.15c-.09.07-.19.11-.23.22 0 .18 0 0-.07.17v.15a1.09 1.09 0 0 0 0 .18 2.55 2.55 0 0 0 .3.5c0 .07 0 .08-.08.08s-.18-.09-.29-.09h-.11c-.07 0 0-.05-.12-.05s-.48.69-.53.69h-.15c-.06 0-.11.06-.15.06h-.07c0-.11.1 0 .1-.14s-.18-.21-.18-.4a.18.18 0 0 0 -.06-.14s-.23-.3-.23-.3h-.08c-.05 0-.11-.07-.13-.1a.08.08 0 0 0 -.08 0h-.08c-.08 0-.11-.06-.19-.06s-.15 0-.18 0h-.05a.08.08 0 0 0 -.06 0h-.08l-.24.11s0 0-.16 0h-.11-.09c-.07 0-.16.16-.24.16h-.15c-.21 0-.16.1-.33.1s-.16-.12-.26-.12h-.13l-.62-.48c-.14-.06-.13 0-.23-.15l-.22-.14a.57.57 0 0 0 -.31-.15 1.44 1.44 0 0 0 -.23-.07c-.12 0 0 0-.12 0s-.1-.09-.14-.12h-.09s-.12.07-.13.07c-.08 0-.51-.41-.58-.44s0 0-.05 0-.13-.14-.16-.2 0 0 0 0-.08-.05-.12-.05h-.09c-.06 0-.06 0-.06 0a.1.1 0 0 1 0-.08s0 0 0-.06a.15.15 0 0 0 0-.07s0 0 0 0c0-.1-.09-.17-.09-.24s0-.1 0-.14-.1-.12-.1-.25v-.1a.38.38 0 0 0 -.38-.31h-.18a.13.13 0 0 1 -.12-.19.21.21 0 0 0 0-.08.2.2 0 0 0 0-.14 2.37 2.37 0 0 1 -.27-.28c0-.11.16 0 .16-.21v-.08c0-.11 0-.14-.19-.31s-.05 0-.05-.09.1-.11.1-.13-.06 0-.06-.09.06 0 .06-.11 0 0 0-.09a2.27 2.27 0 0 0 -.45-.79s0 0 0 0 0 0 0-.1.06-.14.06-.37c0 0 0-.07 0-.1a.3.3 0 0 1 0-.13s0-.08.07-.08a.28.28 0 0 1 .08.06h-.11l.62.58a1 1 0 0 0 .55.2h.26a.73.73 0 0 0 .21-.06 1.9 1.9 0 0 0 .77-.63 1.24 1.24 0 0 0 .21-.53c.09-.27.36-.13.36-.43v-.1a.1.1 0 0 1 .1-.07.16.16 0 0 1 .09.05.11.11 0 0 0 .1.06c.14 0 .1-.12.3-.12z"
        fill="#d57800" />
    <g fill="#4e5b31">
        <path d="m21.46 32.26s.84-1.64 2.06-1.59c0 0 .11 1.33-2.06 1.59z" />
        <path d="m21.75 32.78s1.84-.91 2.54-.05a2.53 2.53 0 0 1 -2.54.05z" />
        <path d="m23.1 32a2.48 2.48 0 0 1 2.17-.59s-.08.83-2.17.59z" />
        <path d="m24 30.94s-.2-.44.39-.51c-.04 0 .07.57-.39.51z" />
        <path d="m24.84 32.65s-.2-.53.42-.54c0 0 .1.6-.42.54z" />
        <path d="m24.84 30.77s.48-1.59 1.88-1.33c0 0-.11.97-1.88 1.33z" />
        <path d="m26 30.89s1.05-1.28 2.19-1.11c0 0-.19 1.04-2.19 1.11z" />
        <path d="m25.55 31.69s.44-.76 2.39-.34c0 0-1.42 1.12-2.39.34z" />
        <path d="m28 31.05s-.25-.3.27-.47c-.04 0 .06.47-.27.47z" />
        <path d="m27.12 29.63s-.21-.54.42-.52c0 0 .07.56-.42.52z" />
        <path d="m27.76 29.38s.63-2.29 1.74-2a3.91 3.91 0 0 1 -1.74 2z" />
        <path d="m28.74 29.43s.63-1.6 1.62-1.57c0 0 .13.9-1.62 1.57z" />
        <path d="m28.41 30.27a2.28 2.28 0 0 1 2.36-.64s.05 1-2.36.64z" />
        <path d="m30.06 29.28s-.13-.45.65-.4c0 0 .07.58-.65.4z" />
        <path
            d="m30 27.47a11.22 11.22 0 0 1 0-1.18c0-.18.07-.29.5-.51a8.39 8.39 0 0 0 -.08 1 1.82 1.82 0 0 1 -.42.69z" />
        <path
            d="m30.72 27.43a1.87 1.87 0 0 1 .26-.78c.29-.55.88-1.3 1.54-1.38a1.41 1.41 0 0 1 -.13 1.13 2.35 2.35 0 0 1 -1.67 1.03z" />
        <path d="m30.67 28.4c0-.15.2-.95 1.72-.93 0 0-.14.73-.48.86s-1.24.21-1.24.07z" />
        <path
            d="m21.17 34.11.52-.48-.92-.71.4-.19-.17-.22-.73.31-.72-.31-.19.22.4.19-.92.71.52.48s-.12 0-.08.09.13 0 .13 0l.86-1 .87 1s.09.07.13 0-.1-.09-.1-.09z" />
        <path d="m19 32.26s-.8-1.64-2-1.59c0 0-.12 1.33 2 1.59z" />
        <path d="m18.76 32.78s-1.85-.91-2.54-.05a2.53 2.53 0 0 0 2.54.05z" />
        <path d="m17.41 32a2.49 2.49 0 0 0 -2.18-.59s.08.83 2.18.59z" />
        <path d="m16.55 30.94s.2-.44-.4-.51c0 0-.1.57.4.51z" />
        <path d="m15.67 32.65s.2-.53-.42-.54c0 0-.1.6.42.54z" />
        <path d="m15.67 30.77s-.48-1.59-1.89-1.33c0 0 .12.97 1.89 1.33z" />
        <path d="m14.51 30.89s-1.06-1.28-2.19-1.11c0 0 .22 1.04 2.19 1.11z" />
        <path d="m15 31.69s-.45-.76-2.4-.34c-.04 0 1.4 1.12 2.4.34z" />
        <path d="m12.55 31.05s.25-.3-.27-.47c0 0-.1.47.27.47z" />
        <path d="m13.38 29.63s.21-.54-.42-.52c.04 0-.07.56.42.52z" />
        <path d="m12.74 29.38s-.63-2.29-1.73-2a3.92 3.92 0 0 0 1.73 2z" />
        <path d="m11.77 29.43s-.63-1.6-1.62-1.57c0 0-.15.9 1.62 1.57z" />
        <path d="m12.1 30.27a2.29 2.29 0 0 0 -2.37-.64s-.04 1 2.37.64z" />
        <path d="m10.45 29.28s.13-.45-.65-.4c0 0-.08.58.65.4z" />
        <path d="m10.47 27.47s0-.89 0-1.18-.07-.29-.5-.51a9.24 9.24 0 0 1 .07 1 1.75 1.75 0 0 0 .43.69z" />
        <path
            d="m9.79 27.43a2.09 2.09 0 0 0 -.26-.78c-.3-.55-.89-1.3-1.54-1.38a1.41 1.41 0 0 0 .13 1.13 2.32 2.32 0 0 0 1.67 1.03z" />
        <path d="m9.84 28.4c0-.15-.21-.95-1.72-.93 0 0 .14.73.48.86s1.24.21 1.24.07z" />
    </g>
</svg>