<svg viewBox="0 0 40.5 40.5" xmlns="http://www.w3.org/2000/svg">
    <path
        d="m40.5 20.25a21.14 21.14 0 0 1 -.2 2.89 20.28 20.28 0 0 1 -20 17.36h-2.3v-.14a19.92 19.92 0 0 1 -5.76-1.53 20.3 20.3 0 0 1 -12.04-15.69 21 21 0 0 1 0-5.78 20.3 20.3 0 0 1 12-15.69 19.92 19.92 0 0 1 5.8-1.53v-.14h2.3a20.28 20.28 0 0 1 20 17.36 21.14 21.14 0 0 1 .2 2.89z"
        fill="#c60c30" />
    <path
        d="m40.5 20.25a21.14 21.14 0 0 1 -.2 2.89h-22.3v17.22a19.92 19.92 0 0 1 -5.76-1.53v-15.69h-12.04a21 21 0 0 1 0-5.78h12v-15.69a19.92 19.92 0 0 1 5.8-1.53v17.22h22.3a21.14 21.14 0 0 1 .2 2.89z"
        fill="#fff" />
</svg>