<svg viewBox="0 0 40.5 40.5" xmlns="http://www.w3.org/2000/svg">
    <path
        d="m40.5 20.25a20.21 20.21 0 0 1 -16.2 19.84 20.21 20.21 0 0 1 -8.1 0 20.25 20.25 0 0 1 0-39.68 20.21 20.21 0 0 1 8.1 0 20.24 20.24 0 0 1 16.2 19.84z"
        fill="#fff" />
    <path d="m16.2.41v15.78h-15.79a20.26 20.26 0 0 1 15.79-15.78z" fill="#002d62" />
    <path d="m40.09 16.19h-15.79v-15.78a20.26 20.26 0 0 1 15.79 15.78z" fill="#ce1126" />
    <path d="m16.2 24.33v15.76a20.28 20.28 0 0 1 -15.79-15.76z" fill="#ce1126" />
    <path d="m40.09 24.33a20.28 20.28 0 0 1 -15.79 15.76v-15.76z" fill="#002d62" />
    <path
        d="m18.91 22.53s0 0 0 0-.08.12-.11.15a.17.17 0 0 0 0-.06.58.58 0 0 0 -.22-.22s0 0 0 0a.62.62 0 0 1 0 .16h-.06a.07.07 0 0 0 -.07-.07s-.05 0-.05.06a.52.52 0 0 0 -.26-.17h-.07-.11s0 0 0 0 .12 0 .12.12a.17.17 0 0 0 -.09 0s0-.12 0-.13 0-.09.07-.09c.15 0 .24-.24.24-.31s0 0 0 0-.3.03-.3.03 0-.14 0-.16.07-.11.07-.18c-.14 0-.29.23-.32.24s-.14-.15-.17-.15-.07.24-.07.28c0 .37.26.31.26.46s-.07 0-.08 0a1 1 0 0 1 -.28-.61.18.18 0 0 1 .16-.16h.12s.3-.22.36-.38c-.23 0-.26.15-.26 0s.24 0 .24-.07a.61.61 0 0 0 -.44-.31c-.11 0-.28.07-.08-.07a.58.58 0 0 0 .29.1.4.4 0 0 0 .36-.3.33.33 0 0 1 -.13 0h-.07s0 0 0 0a.71.71 0 0 0 .11-.28h-.22s-.06-.2-.09-.2-.25.18-.25.3 0 .14 0 .23-.07.15-.07.11a1 1 0 0 0 0-.19.11.11 0 0 0 0-.08s0-.09-.07-.09a.11.11 0 0 0 -.07 0 .22.22 0 0 0 0-.1s0 0 0 0a.81.81 0 0 0 .17-.33s0 0 0 0 .11.2.32.2a.73.73 0 0 0 .21-.06s0 0 0 0h-.07a.9.9 0 0 0 .16-.17s0 0 0 0h-.14-.06a.21.21 0 0 0 -.12 0c-.16 0-.34.2-.34.2s.16-.32.27-.32h.13a.61.61 0 0 0 .43-.31 0 0 0 0 0 0 0h-.09s0 0 0 0a1.43 1.43 0 0 0 0-.21s0 0 0 0-.06.13-.22.13 0 0 0 0a.42.42 0 0 0 0-.12l-.15.12a.52.52 0 0 0 -.12.18.28.28 0 0 0 0 .09 1.64 1.64 0 0 1 0 .23s0 0 0 .05v.05l-.07.11a.27.27 0 0 0 -.06.12s0 0 0 0h-.06l-.14.1a.22.22 0 0 0 0-.05s0 0 0 0 0 0 0-.05v-.05a.14.14 0 0 0 .07 0 .4.4 0 0 0 .33-.41v-.29s0 0 0 0c-.11.11-.18 0-.3.17a.14.14 0 0 0 0-.06h.11a.33.33 0 0 0 .3-.29v-.12-.11c0-.12-.08.07-.16.07s-.15.07-.18.08a.24.24 0 0 1 .21-.24h.06c.22 0 .44-.41.44-.45a.71.71 0 0 1 -.17.05s0 0 0 0v-.15a.71.71 0 0 0 -.37.23s0-.15-.07-.23a1.09 1.09 0 0 0 -.18.43v.02a.48.48 0 0 0 .11.26.14.14 0 0 1 0 .06.31.31 0 0 0 -.07-.08.06.06 0 0 0 0 0 .12.12 0 0 0 -.07-.07.11.11 0 0 0 -.08 0 .1.1 0 0 0 0 .09.1.1 0 0 0 .08.05s.06.06.07.1a.5.5 0 0 1 0 .12 1.46 1.46 0 0 1 -.05.2 0 0 0 0 1 0 0 1.76 1.76 0 0 0 0-.23.31.31 0 0 0 -.13-.2h-.07a.64.64 0 0 1 0-.07s0-.05 0-.06v.05a1.6 1.6 0 0 0 0 .23.3.3 0 0 0 .05.19.83.83 0 0 0 -.06.21.59.59 0 0 0 0 .13.18.18 0 0 1 -.05-.07 0 0 0 0 0 0 0v.09-.09l-.08-.06a.33.33 0 0 1 -.13-.19s0 0 0 0a.36.36 0 0 0 0 .11v.07s0 0 0 .06a.58.58 0 0 0 0 .19.36.36 0 0 0 .12.15.36.36 0 0 1 -.19-.08.34.34 0 0 0 0 .1.49.49 0 0 0 0 .11.35.35 0 0 0 .05.08.44.44 0 0 0 .15.12.21.21 0 0 0 .11 0h.17a.15.15 0 0 1 .11.11h-.07-.07a.08.08 0 0 0 -.07 0 1.54 1.54 0 0 0 -.3 0 .74.74 0 0 0 .33.22.16.16 0 0 0 .1 0 .37.37 0 0 0 .14 0 .33.33 0 0 1 .06.1.13.13 0 0 1 0 .06v.18a1.09 1.09 0 0 0 -.17-.13h-.07s0 0 0 0a.27.27 0 0 0 -.11-.1.57.57 0 0 0 -.13-.08h-.13-.14a.56.56 0 0 0 .08.2.91.91 0 0 0 .13.19.15.15 0 0 1 -.11 0h-.07-.06s0 0 0 0l.15.13a.45.45 0 0 0 .18.07.61.61 0 0 0 .27 0 .21.21 0 0 0 0 .06h.06a.31.31 0 0 1 .15.1.38.38 0 0 1 .06.13s0 .07 0 .1 0 0 0 0l-.69-.28a.07.07 0 0 0 0-.09.08.08 0 0 0 -.07-.05s-.07 0-.08 0a.25.25 0 0 0 -.15-.08.55.55 0 0 0 -.18 0h-.18a.48.48 0 0 0 .18.22.3.3 0 0 0 .19.1s.06 0 .09 0a.61.61 0 0 1 .19 0l.14.19a.57.57 0 0 0 -.28-.11.11.11 0 0 0 -.06-.07.07.07 0 0 0 -.09 0 .07.07 0 0 0 0 .09 0 0 0 0 0 0 0s0 0 0 0a.07.07 0 0 0 0 .05s0 0 0 0h-.07s0 0 0 0a.2.2 0 0 1 .16.11.16.16 0 0 0 .07.07l.09.05a.45.45 0 0 0 .16 0h.07s0 0 0 0a.16.16 0 0 1 0 .07h-.07-.1a.21.21 0 0 1 -.11 0h-.07a.48.48 0 0 0 .4.38.26.26 0 0 0 .14 0 1.77 1.77 0 0 0 .15.18s-.05 0-.08.06-.05 0-.05 0 .27.11.32.11h.13c.15 0 .12-.16.22-.16l.1.18a.09.09 0 0 0 .06 0c.09 0 .16-.08.31-.08s.14-.12.14-.42c.27.28.27.11.24.1zm-1.91-2.33s0 0 0 0a.05.05 0 0 1 0 0 1.09 1.09 0 0 0 -.05.17.09.09 0 0 0 0-.06.05.05 0 0 1 0 0 .77.77 0 0 1 0-.15s0 0 0-.06a.28.28 0 0 0 0-.09.13.13 0 0 0 0-.06s0 0 0 0l.1.05a.09.09 0 0 1 -.05.2zm0-.12a.54.54 0 0 0 0-.28.12.12 0 0 0 -.05-.07l-.08-.05s0 0 0-.05v-.05a.27.27 0 0 0 .22.1v.05c-.09.12-.09.27-.09.35zm.15.2a.48.48 0 0 1 .11-.09.86.86 0 0 1 -.12.3v-.09s0 0 0 0 0-.11.02-.12zm-.11.7s.05-.12.09-.22.1.1.1.15 0-.07-.07-.07a.08.08 0 0 0 -.09.09.07.07 0 0 0 .06.07h.07s0 0 0 0l-.14.26zm.1 1.07h-.14a.14.14 0 0 0 0-.07.38.38 0 0 1 .22.16.19.19 0 0 0 -.07-.09zm.12-.12s-.13-.41-.15-.53a1.43 1.43 0 0 1 .12-.21c.08 0 .09.14.19.21l-.06.06s-.11-.23-.14-.23 0 .14 0 .25a.86.86 0 0 0 .14.36s-.08.09-.09.09zm1.06.73h.05s-.04.02-.04 0zm.12.18h-.07s0 0 0 0h.1a0 0 0 0 0 0 0 .43.43 0 0 1 0 .05z"
        fill="#006300" />
    <path
        d="m16.72 21.12s0 0-.06 0h-.09l-.16.05a.29.29 0 0 1 -.16 0c.05 0 .08.06.12.09h.08a.45.45 0 0 0 .11 0h.09.11v-.06h-.11-.09-.08s0 0 0 0h.13v-.05a0 0 0 0 1 0 0 .15.15 0 0 0 .09 0s.03-.02.02-.03z"
        fill="#00873f" />
    <path
        d="m20.19 18h-2.19l.45.46v3c0 .78.53.82.82.82h.57a.42.42 0 0 1 .36.21.4.4 0 0 1 .35-.21h.57c.29 0 .82 0 .82-.82v-3l.45-.46z"
        fill="#fff" />
    <path d="m22.38 18-.45.46v1.31h-1.39v-1.77z" fill="#ce1126" />
    <path d="m21.93 20.51v.95c0 .78-.53.82-.82.82h-.57v-1.77z" fill="#002d62" />
    <path d="m20.48 19.54.65-1.13.05.03-.67 1.15z" fill="#eac102" />
    <path d="m20.51 19.6v-.06l.66-1.12h.05zm0-.06v.05l.67-1.15h-.05z" />
    <path d="m21.17 18.38a.11.11 0 0 0 0-.09l.21-.22-.06.3s-.07 0-.1 0z" fill="#eac102" />
    <path
        d="m21.19 18.4a.11.11 0 0 0 0-.09l.21-.23-.06.32s-.06 0-.09 0zm0 0a.11.11 0 0 1 .1 0l.05-.29-.2.21a.11.11 0 0 1 0 .09z" />
    <path d="m21.18 18.41-.01-.01.17-.33h.01z" />
    <path d="m21.22 18.43s0 0-.06 0 0 0 0-.05h.06s0 .04 0 .05z" fill="#eac102" />
    <path d="m21.2 18.44h.06s0 0 0 0-.05 0-.06 0zm-.06-.07s0 0 0 0z" />
    <path d="m20.98 19.23.47-.62v.37l-.47.48z" fill="#002d62" />
    <path d="m21.42 18.63-.45.59v.26l.45-.45zm0 .34-.45.46v-.2l.45-.58z" />
    <path d="m20.8 19.49v.13l.19-.21v-.18z" fill="#fff" />
    <path
        d="m21.57 18.86s0 .68 0 1.34v.85c0 .51-.23.76-.55.76a.56.56 0 0 1 -.54-.44c0-.08 0-.14 0-.14l-.16-1.15.36-.28.34-.35z"
        fill="#fff" />
    <path d="m21.57 18.86s0 .68 0 1.34l-.59.57v-1.32z" fill="#002d62" />
    <path
        d="m21.56 20.53v.52c0 .51-.23.76-.55.76a.56.56 0 0 1 -.54-.44.42.42 0 0 0 .25.1c.13 0 .23-.1.27-.39a3.72 3.72 0 0 0 .57-.55z"
        fill="#ce1126" />
    <path
        d="m21 21.82a.57.57 0 0 1 -.55-.44 1.16 1.16 0 0 1 0-.15l-.17-1.16.37-.28 1-1s0 .68 0 1.34v.85c-.08.56-.28.84-.65.84zm-.53-.46a.53.53 0 0 0 .52.42c.34 0 .54-.27.54-.74v-.84c0-.58 0-1.17 0-1.31l-.91.92-.36.27.17 1.15a.53.53 0 0 0 .05.13z" />
    <path d="m20.58 19.7.93-1.21.04.03-.94 1.24z" fill="#eac102" />
    <path d="m20.61 19.76v-.06l.93-1.21zm0-.06v.05l.94-1.23z" />
    <path d="m21.55 18.46a.09.09 0 0 0 0-.09l.24-.19-.1.29a.09.09 0 0 0 -.1 0z" fill="#eac102" />
    <path
        d="m21.57 18.49a.13.13 0 0 0 0-.09l.24-.19-.09.3s-.06 0-.09 0zm0 0a.1.1 0 0 1 .1 0l.09-.27-.22.18a.13.13 0 0 1 0 .09z" />
    <path d="m21.56 18.48h-.01l.22-.3z" />
    <path d="m21.59 18.52s0 0-.06 0 0-.05 0-.06 0 0 .06 0 .01.05 0 .06z" fill="#eac102" />
    <path d="m21.58 18.53s0-.05 0-.06 0 0 .07 0 0 .05 0 .06zm-.06-.08a0 0 0 0 0 0 0s0 0 0 0 0 0 0-.05z" />
    <path d="m20.6 19.81.98-1.02.04.04-1 1.04z" fill="#eac102" />
    <path d="m20.62 19.88v-.08l1-1zm0-.07v.05l1-1z" />
    <path d="m21.63 18.76s0 0 0-.09l.26-.16-.14.28a.08.08 0 0 0 -.1 0z" fill="#eac102" />
    <path
        d="m21.75 18.8a.09.09 0 0 0 -.09 0 .11.11 0 0 0 0-.09l.26-.16zm-.12 0a.09.09 0 0 1 .1 0l.13-.27-.25.15a.12.12 0 0 1 0 .1z" />
    <path d="m21.63 18.79h-.01l.26-.28v.01z" />
    <path d="m21.66 18.83s0 0-.06 0 0 0 0-.06 0 0 .06 0 .01.05 0 .06z" fill="#eac102" />
    <path d="m21.65 18.84a.05.05 0 0 1 0 0s0 0 0-.06 0 0 .06 0 0 0 0 0zm-.06-.09s0 0 0 0 0 0 .06 0z" />
    <path d="m20.71 20.92a.31.31 0 0 1 -.21 0c-.12-.05-.05-.53-.05-.53l.26-.1z" fill="#ce1126" />
    <path d="m18 18 .45.46v1.31h1.39v-1.77z" fill="#ce1126" />
    <path d="m18.44 20.51v.95c0 .78.53.82.82.82h.57v-1.77z" fill="#002d62" />
    <path d="m19.98 19.67-.74-1.26-.05.03.75 1.29z" fill="#eac102" />
    <path d="m19.94 19.73-.75-1.29.81 1.23zm-.74-1.29.74 1.28-.73-1.25z" />
    <path d="m19.2 18.38a.11.11 0 0 1 0-.09l-.2-.22.06.3s.07 0 .1 0z" fill="#eac102" />
    <path
        d="m19.18 18.4s-.1 0-.1 0l-.08-.34.22.23a.16.16 0 0 0 0 .09zm-.07 0s.05 0 .07 0a.11.11 0 0 1 0-.09l-.2-.21v.29z" />
    <path d="m19.2 18.41-.18-.34h.01l.17.33z" />
    <path d="m19.16 18.43s0 0 .06 0 0 0 0-.05h-.06s-.01.04 0 .05z" fill="#eac102" />
    <path d="m19.18 18.44s0 0 0 0h.06s0 0 0 0zm.05-.07s0 0 0 0z" />
    <path d="m18.92 18.98v-.37l.47.62v.23z" fill="#002d62" />
    <path d="m19.4 19.22-.4-.59v-.06.43l.45.45v-.26zm0 .21-.47-.43v-.32l.45.58z" />
    <path d="m19.57 19.49v.13l-.19-.21v-.18z" fill="#fff" />
    <path
        d="m18.8 18.86s0 .68 0 1.34v.85c0 .51.23.76.55.76a.56.56 0 0 0 .54-.44c0-.08 0-.14 0-.14l.17-1.15-.37-.28-.34-.35z"
        fill="#fff" />
    <path
        d="m18.81 20.53v.52c0 .51.23.76.55.76a.56.56 0 0 0 .54-.44.42.42 0 0 1 -.25.1c-.13 0-.23-.1-.26-.39a4.16 4.16 0 0 1 -.58-.55z"
        fill="#ce1126" />
    <path d="m18.8 18.86s0 .68 0 1.34l.6.57v-1.28z" fill="#002d62" />
    <path
        d="m19.36 21.82c-.35 0-.56-.28-.56-.77v-.85c0-.66 0-1.34 0-1.34l.95 1 .37.28-.17 1.15a.43.43 0 0 1 0 .15.57.57 0 0 1 -.59.38zm-.55-2.93v1.31.33.52c0 .47.19.74.53.74a.54.54 0 0 0 .53-.42 1.32 1.32 0 0 0 0-.13l.16-1.15-.35-.27z" />
    <path d="m19.79 19.7-.93-1.21-.04.03.94 1.24z" fill="#eac102" />
    <path d="m19.76 19.76-1-1.24h.05l.93 1.21zm-.94-1.24.94 1.23v-.05l-.93-1.21z" />
    <path d="m18.82 18.46a.09.09 0 0 1 0-.09l-.24-.19.1.29a.09.09 0 0 1 .1 0z" fill="#eac102" />
    <path
        d="m18.8 18.49a.09.09 0 0 0 -.1 0l-.1-.3.24.2a.13.13 0 0 0 0 .09zm-.06 0a.07.07 0 0 1 .06 0 .13.13 0 0 1 0-.09l-.22-.18.09.27z" />
    <path d="m18.82 18.48-.22-.3h.01z" />
    <path d="m18.78 18.52s0 0 .06 0a.11.11 0 0 0 0-.06s0 0-.06 0-.01.05 0 .06z" fill="#eac102" />
    <path d="m18.79 18.53s0 0 0-.06.06 0 .07 0 0 0 0 .06zm.06-.08s0 0 0 .05 0 0 0 0 .01-.05 0-.05z" />
    <path d="m19.77 19.81-.98-1.02-.04.04 1 1.04z" fill="#eac102" />
    <path d="m19.75 19.88-1-1zm-1-1.05 1 1v-.06l-1-1z" />
    <path d="m18.74 18.76a.16.16 0 0 1 0-.09l-.26-.16.14.28s.06 0 .1 0z" fill="#eac102" />
    <path d="m18.63 18.8-.13-.28.26.16v.09a.11.11 0 0 0 -.1 0zm.05 0h.05a.12.12 0 0 1 0-.1l-.25-.15.13.27z" />
    <path d="m18.75 18.79-.26-.27.01-.01z" />
    <path d="m18.71 18.83s0 0 .06 0 0 0 0-.06 0 0-.06 0-.01.05 0 .06z" fill="#eac102" />
    <path d="m18.73 18.84s0 0 0 0 .05 0 .06 0 0 0 0 .06a.05.05 0 0 1 -.06-.06zm.05-.09s0 0 0 0 0 0 .05 0 0 0 0 0z" />
    <path d="m19.66 20.92a.31.31 0 0 0 .21 0c.12-.05 0-.54 0-.54l-.22-.09z" fill="#ce1126" />
    <path d="m19.93 21s-.17.19-.3.16.05.13.15.13a.44.44 0 0 0 .21-.1z" fill="#002d62" />
    <path d="m20.27 18.62v-.2h-.08-.09v.2h-.21v.16h.21v.76h.09.09v-.76h.2v-.16z" fill="#eac102" />
    <path
        d="m20.29 19.54h-.2v-.75h-.21v-.18h.21v-.2h.19v.2h.21v.18h-.2zm-.18 0h.16v-.76h.2v-.14h-.21v-.2h-.15v.2h-.21v.14h.21z" />
    <path d="m19.94 20.81-.11.73s0 .07.14.07.09-.86.09-.86h-.09z" fill="#ce1126" />
    <path
        d="m20 21.62c-.14 0-.15-.08-.15-.08l.11-.73h.11s0 .76-.07.86zm-.13-.08s0 .06.13.06a0 0 0 0 0 0 0 2.6 2.6 0 0 0 .07-.83h-.08z" />
    <path d="m20 21.8s0 .14.13.14.16-.17.16-.21-.05-.08-.05-.08h-.24v.09z" fill="#002d62" />
    <path
        d="m20.09 22a.15.15 0 0 1 -.09-.1.12.12 0 0 1 0-.11v-.06-.09h.2a.26.26 0 0 1 .06.09.21.21 0 0 1 0 .16.17.17 0 0 1 -.17.11zm-.09-.2a.12.12 0 0 0 0 .09.11.11 0 0 0 .1 0 .16.16 0 0 0 .12 0 .22.22 0 0 0 0-.15s0-.06 0-.07h-.22z" />
    <path d="m20 20.83v.23s0 0 0 0h.06c.06 0 .07-.28.07-.28v-.16l-.07.06z" fill="#002d62" />
    <path
        d="m20.33 21.75a.78.78 0 0 0 -.21 0 .21.21 0 0 0 -.15.09l.06-1 .08-.06.17-.13.08-.06.12 1.05c.04.13-.1.12-.15.11z"
        fill="#002d62" />
    <path
        d="m20 21.81.06-1 .37-.29s.09.8.12 1.06a.24.24 0 0 1 -.05.2.13.13 0 0 1 -.13 0 1 1 0 0 0 -.18 0 .2.2 0 0 0 -.14.08zm.07-1-.06 1a.21.21 0 0 1 .14-.07.84.84 0 0 1 .18 0 .14.14 0 0 0 .12 0 .26.26 0 0 0 0-.19c0-.24-.1-.92-.11-1z" />
    <path d="m20.09 21.36s0 .11.06.13h.05s.1 0 .12 0 0-.07 0-.07v-.21h-.17z" fill="#ce1126" />
    <path
        d="m20.17 21.5c-.08 0-.08-.1-.07-.15l.07-.15h.19v.22s0 .08 0 .08h-.1zm-.07-.14s0 .1 0 .12h.05.12a.11.11 0 0 0 0-.06v-.19h-.14z" />
    <path d="m20.53 21.1a.56.56 0 0 0 .21.08s0 .13-.15.13a.44.44 0 0 1 -.21-.1z" fill="#002d62" />
    <path d="m20.33 21.27c-.17 0-.21.09-.21.09v-.66l.17-.13v.28s.23.43.04.42z" fill="#ce1126" />
    <path
        d="m20.07 21.41v-.72l.22-.17v.29s.13.34 0 .44a.08.08 0 0 1 -.07 0c-.16 0-.2.08-.2.08zm0-.71v.62a.24.24 0 0 1 .2-.06.05.05 0 0 0 .05 0c.06-.07 0-.32-.05-.41v-.26z" />
    <path d="m20.47 21.24s.12 0 .1-.13-.14-.67-.14-.67h-.14l.06.55z" fill="#ce1126" />
    <path
        d="m20.46 21.25-.12-.25-.07-.55.16-.05s.11.49.14.67-.11.14-.11.14zm-.1-.23.11.21s.11 0 .09-.12-.12-.59-.14-.66h-.12z" />
    <path d="m20.33 21.75v-.48-.7l.08-.06.12 1.05c-.01.21-.15.2-.2.19z" fill="#fff" />
    <path
        d="m20.36 21.77a0 0 0 0 1 0 0l-.06-1.18.12-.09s.09.8.12 1.06a.24.24 0 0 1 -.05.2.14.14 0 0 1 -.13.01zm0 0a.12.12 0 0 0 .11 0 .26.26 0 0 0 0-.19c0-.24-.1-.92-.11-1l-.1.08z" />
    <path d="m19.42 19.99.05-.03.95-.57.54.8-1.05.68z" fill="#fff" />
    <path d="m19.4 19.99.5.9 1.08-.7-.56-.8-.01.01.54.78-1.04.67-.47-.86.03-.03-.01-.01z" />
    <path
        d="m19.45 20v-.09h.1c.06 0 .09-.05.11-.07a.43.43 0 0 1 .16-.13.24.24 0 0 1 .14 0 .3.3 0 0 1 .07-.11.74.74 0 0 1 .18-.09c.08 0 .09-.16.09-.16l.59.91-1 .64z"
        fill="#020000" />
    <path
        d="m19.48 19.89a.32.32 0 0 0 .13 0 1.79 1.79 0 0 1 .14-.13.23.23 0 0 1 .2-.08s0 0 0 0c.13.17.45.73.45.73a.36.36 0 0 0 -.19.06.73.73 0 0 0 -.16.16.13.13 0 0 1 -.16 0z"
        fill="#fff" />
    <path
        d="m20.34 19.3.49.74a.14.14 0 0 1 -.06.11c-.07 0-.14 0-.19.08a.28.28 0 0 0 -.14.17l-.44-.7a.06.06 0 0 1 0 0 .24.24 0 0 1 .11-.16l.14-.07c.07-.06.09-.17.09-.17z"
        fill="#fff" />
    <path d="m19.46 19.91v.09l.45.79a.32.32 0 0 0 0-.08z" fill="#fff" />
    <path d="m19.85 20a0 0 0 0 1 0 0z" />
    <path d="m19.86 20s0 0 0 0z" />
    <path d="m19.81 20.29s0 0 0 0z" />
    <path d="m20 20.14s0 .01 0 0z" />
    <path d="m20 20.31a0 0 0 0 1 0 0z" />
    <path d="m20.14 20.26s0 0 0 0z" />
    <path d="m20.05 20.39s0 0 0 0z" />
    <path d="m20.19 20.31a0 0 0 0 1 0 0z" />
    <path d="m20 20.51s0 0 0 0z" />
    <path d="m23 17.38s.87.27 1 .46h-.42l.21.35a2 2 0 0 0 -.68-.3c-.21 0-.71-.14-.78-.37 0-.06 0-.11.1-.21s.42 0 .42 0z"
        fill="#002d62" />
    <path
        d="m23.78 18.23-.07-.05a2.09 2.09 0 0 0 -.67-.29c-.18 0-.72-.13-.8-.39 0-.07 0-.13.11-.22s.42 0 .43 0l.18.13c.07 0 .88.27 1 .46h-.41zm-1.21-1a.3.3 0 0 0 -.2 0c-.09.09-.1.14-.09.18.07.23.59.33.76.36a2.1 2.1 0 0 1 .63.26l-.19-.31h.41a3.66 3.66 0 0 0 -.89-.32l-.18-.12z" />
    <path
        d="m20.63 16.73v.22c0 .08 0 .19.24.19h.67a2.32 2.32 0 0 1 .83.2c.33.14.4.22.42.3a1.65 1.65 0 0 0 .28-.34.14.14 0 0 0 -.05-.19 1.9 1.9 0 0 0 -.7-.34 3.48 3.48 0 0 0 -1.13-.16c-.49-.02-.56.12-.56.12z"
        fill="#002d62" />
    <path
        d="m22.74 17.66c0-.09-.09-.16-.4-.29a2.28 2.28 0 0 0 -.83-.2h-.67a.26.26 0 0 1 -.23-.09.13.13 0 0 1 0-.12v-.23s.08-.15.53-.15a3.78 3.78 0 0 1 1.12.15 2 2 0 0 1 .71.34.17.17 0 0 1 .05.22 1.73 1.73 0 0 1 -.28.35zm-1.24-.56a2.28 2.28 0 0 1 .84.2c.3.13.39.2.42.29a1.54 1.54 0 0 0 .25-.31.12.12 0 0 0 -.01-.18 2.12 2.12 0 0 0 -.69-.34 3.7 3.7 0 0 0 -1.11-.15c-.39 0-.48.11-.49.12s0 .17 0 .22a.17.17 0 0 0 0 .1.25.25 0 0 0 .2.07h.67z" />
    <path
        d="m21 17.05a.31.31 0 0 1 -.16 0 .36.36 0 0 0 -.21 0 .44.44 0 0 1 .22.05.26.26 0 0 0 .15-.1.11.11 0 0 0 .12-.11.15.15 0 0 1 -.12.16z" />
    <path
        d="m22.69 17.68a.38.38 0 0 1 -.16-.11.45.45 0 0 0 -.2-.12.43.43 0 0 1 .23.13.5.5 0 0 0 .14.1h.05a.07.07 0 0 1 0 0z" />
    <path
        d="m17.4 17.38s-.86.27-1 .46h.41l-.21.35a2.1 2.1 0 0 1 .69-.3c.21 0 .71-.14.78-.37 0-.06 0-.11-.1-.21s-.42 0-.42 0z"
        fill="#002d62" />
    <path
        d="m16.59 18.23.23-.39h-.41c.1-.19.91-.44 1-.46l.18-.13s.33-.06.44 0 .13.15.1.22c-.07.26-.61.35-.79.39a2.33 2.33 0 0 0 -.68.29zm.3-.43-.19.31a2.14 2.14 0 0 1 .62-.26c.18 0 .7-.13.77-.36 0 0 0-.09-.1-.18s-.31 0-.4 0l-.18.12a3.11 3.11 0 0 0 -.93.42z" />
    <path
        d="m19.74 16.73v.22c0 .08 0 .19-.24.19h-.67a2.36 2.36 0 0 0 -.84.2c-.33.14-.39.22-.41.3a1.65 1.65 0 0 1 -.28-.34.14.14 0 0 1 .05-.19 1.9 1.9 0 0 1 .7-.34 3.48 3.48 0 0 1 1.13-.16c.49-.02.56.12.56.12z"
        fill="#002d62" />
    <path
        d="m17.63 17.66a2.18 2.18 0 0 1 -.28-.35.17.17 0 0 1 .06-.22 2 2 0 0 1 .7-.34 3.78 3.78 0 0 1 1.12-.15c.46 0 .53.14.53.15v.23a.13.13 0 0 1 0 .12.28.28 0 0 1 -.23.09h-.67a2.28 2.28 0 0 0 -.83.2c-.31.13-.38.2-.4.29zm1.59-1.05a3.7 3.7 0 0 0 -1.11.15 2.34 2.34 0 0 0 -.69.34.13.13 0 0 0 0 .18 1.54 1.54 0 0 0 .25.31c0-.09.12-.16.42-.29a2.28 2.28 0 0 1 .84-.2h.67a.28.28 0 0 0 .2-.07.12.12 0 0 0 0-.1c0-.05 0-.19 0-.22s-.18-.1-.58-.1z" />
    <path
        d="m20.8 16.21h-1.23c-.4 0-.42.17-.42.23a1.11 1.11 0 0 0 .08.46c.09-.22.95-.19.95-.19s.86 0 1 .19a1.11 1.11 0 0 0 .08-.46c-.04-.06-.07-.21-.46-.23z"
        fill="#002d62" />
    <path
        d="m21.14 17c-.07-.17-.7-.19-.94-.18s-.86 0-.94.18a1.19 1.19 0 0 1 -.08-.47c0-.11.08-.23.44-.25h1.18c.36 0 .44.14.44.25a1.19 1.19 0 0 1 -.08.47zm-1-.73h-.61c-.18 0-.4.05-.4.21a1.37 1.37 0 0 0 .06.42c.17-.19.92-.17.95-.17s.79 0 1 .17a1.37 1.37 0 0 0 .06-.42c0-.16-.22-.2-.4-.21h-.62z" />
    <path
        d="m19.36 17.05a.14.14 0 0 1 -.15-.14.1.1 0 0 0 .11.11.27.27 0 0 0 .15 0 .44.44 0 0 1 .22-.05.34.34 0 0 0 -.21 0 .32.32 0 0 1 -.12.08z" />
    <path
        d="m17.68 17.68a.07.07 0 0 1 0 0s0 0 .08 0a.5.5 0 0 0 .14-.1.43.43 0 0 1 .23-.13.55.55 0 0 0 -.21.12.3.3 0 0 1 -.15.11z" />
    <path
        d="m19.59 16.45a.45.45 0 0 1 0-.08s0 0 0 0h.09.08a.07.07 0 0 1 0 0 .1.1 0 0 1 -.09.1.07.07 0 0 0 .05-.07.09.09 0 0 0 0-.05h-.06v.15a.19.19 0 0 0 0 .08s0 0 0 0h-.07a0 0 0 0 0 0 0 .54.54 0 0 1 0-.08z"
        fill="#eac102" />
    <path d="m19.82 16.51a0 0 0 0 0 0 0h-.07s0 0 0 0l.09-.24s0 0 0 0l.1.23h-.08s0 0 0 0v-.08h-.09zm.08 0v-.09.09h.07z"
        fill="#eac102" />
    <path d="m20.09 16.33h-.09s0 0 0-.05h.24v.05s0 0-.05 0h-.05v.23s0 0 0 0h-.07s0 0 0 0v-.23z" fill="#eac102" />
    <path
        d="m20.3 16.42v-.08s0 0 0 0h.1a.1.1 0 0 1 .07 0 .08.08 0 0 1 0 .05s0 .05 0 .08a.49.49 0 0 0 .08.1s0 0 0 0h-.07s0 0 0-.06v-.05.09h-.08s0 0 0 0 0 0 0-.08zm0 0h.06s0 0 0-.05 0-.07-.05-.07z"
        fill="#eac102" />
    <path d="m20.58 16.43v-.08s0 0 0 0h.07s0 0 0 0a.45.45 0 0 1 0 .08v.07s0 .06 0 .08 0 0 0 0h-.06v-.15z"
        fill="#eac102" />
    <path
        d="m20.75 16.52v.05a0 0 0 0 0 0 0s0 0 0 0h-.07s0 0 0 0l.11-.23.08.24s0 0 0 0h-.07v-.08h-.08zm.07 0v-.09l-.05.09h.07z"
        fill="#eac102" />
    <path d="m21.35 16.89v.08h.07a0 0 0 0 0 0 0h-.12s0 0 0 0v-.21s0 0 0 0h.07v.14z" fill="#eac102" />
    <path d="m21.51 16.83v-.07s0 0 0 0h.07s0 0 0 0v.24h-.05a0 0 0 0 0 0 0v-.14z" fill="#eac102" />
    <path
        d="m21.66 16.85v-.08s0 0 0 0h.07c.06 0 .07.05.06.06a.07.07 0 0 1 0 .06.07.07 0 0 1 .05.08.07.07 0 0 1 -.09.07h-.08a.23.23 0 0 1 0-.07zm.07 0v.15s0 0 0 0a.1.1 0 0 0 0-.11zm0 0s0 0 0 0 0-.06 0-.06z"
        fill="#eac102" />
    <path
        d="m21.87 16.88a.17.17 0 0 0 0-.07s0 0 0 0a0 0 0 0 1 0 0h.08v.05h-.06v.09h.11v.05h-.06s0 0 0 0a.06.06 0 0 1 0 0s0 0 0 0h-.11a.56.56 0 0 0 0-.07z"
        fill="#eac102" />
    <path
        d="m22.08 16.92c0-.05 0-.06 0-.07s0 0 0 0h.05s0 0 0 .05 0 0-.06.06v.11s0 0 0 0h-.06a.08.08 0 0 1 0-.06.39.39 0 0 1 0-.06.45.45 0 0 1 0 .08.45.45 0 0 1 0-.08zm0 0s0 0 0-.05a0 0 0 0 0 0-.07z"
        fill="#eac102" />
    <path d="m22.37 16.94s0 0 0 0h.11s0 0 0 0l-.06.13v.08a0 0 0 0 0 0 0h-.05a.24.24 0 0 0 0-.07z" fill="#eac102" />
    <path d="m22.47 17.15s0 0 0 0l.17-.16s0 .17 0 .22 0 .05 0 .05h-.05v-.08zm.07 0v-.09l-.06.06z" fill="#eac102" />
    <path
        d="m22.7 17.2.05-.06s.07.06.07.11a.11.11 0 0 1 0 .09.16.16 0 0 1 -.09.06.2.2 0 0 1 -.11 0s0 0 0 0a0 0 0 0 0 0 0l.05-.06zm0 .06s0 0-.05 0 0 0 0 0a0 0 0 0 0 0 0 .13.13 0 0 0 .08 0 .19.19 0 0 0 .07-.06.1.1 0 0 0 0-.08.13.13 0 0 0 -.05-.09h-.05z"
        fill="#eac102" />
    <path
        d="m18.06 17s0-.06 0-.07a0 0 0 0 0 0 0 .15.15 0 0 1 .13 0 .1.1 0 0 1 .05.07.15.15 0 0 1 0 .11.14.14 0 0 1 -.08.07h-.06s0 0 0 0a.25.25 0 0 0 0-.07zm.05 0v.07a0 0 0 0 0 0 0 .09.09 0 0 0 .06 0 .14.14 0 0 0 0-.09.11.11 0 0 0 -.06-.08.08.08 0 0 0 -.08 0v.07z"
        fill="#eac102" />
    <path d="m18.33 16.9a.17.17 0 0 1 0-.07s0 0 0 0 0 0 0 .07v.06.07s0 0 0 0a.12.12 0 0 1 0-.07z" fill="#eac102" />
    <path
        d="m18.44 16.9c0-.06 0-.15.09-.16a.11.11 0 0 1 .14.1.13.13 0 0 1 -.08.17.14.14 0 0 1 -.15-.11zm.2 0c0-.08-.07-.12-.11-.11s-.07 0-.05.13.06.12.11.11.07-.03.05-.17z"
        fill="#eac102" />
    <path
        d="m18.75 17a.11.11 0 0 1 0-.05s0 0 0 0 0 0 .05 0 0 0 0 0 0 0 0-.05a.18.18 0 0 1 -.05-.08.08.08 0 0 1 .06-.08h.05a0 0 0 0 0 0 0s0 0 0 0 0 0 0 .05.06.05.06.09a.07.07 0 0 1 0 .06z"
        fill="#eac102" />
    <path
        d="m21.18 23.53-.49.21-.21.05.12.17.43.19a.08.08 0 0 1 0 .09.07.07 0 0 1 -.11 0 7.09 7.09 0 0 1 -.76-.42 4.92 4.92 0 0 1 -.82.43s-.08 0-.11 0a0 0 0 0 1 0-.05s0 0 0-.05l.47-.15-.17-.24h-.09v-.08l-.28-.12.84-.16h.52z"
        fill="#006300" />
    <path
        d="m23.12 23.61a.19.19 0 0 0 .16.08c.1 0 .23-.17.29-.23a1.07 1.07 0 0 0 .27-.44 1.09 1.09 0 0 1 .29-.5.64.64 0 0 0 -.4.16l.09-.41a1.69 1.69 0 0 0 -.48.61c-.14.37-.19.54-.19.54z"
        fill="#ce1126" />
    <path
        d="m23.28 23.7a.2.2 0 0 1 -.17-.08v-.19a3.49 3.49 0 0 1 .19-.55 1.58 1.58 0 0 1 .48-.61l-.09.4a.62.62 0 0 1 .37-.13 1 1 0 0 0 -.28.48 1 1 0 0 1 -.25.42c-.05.14-.16.26-.25.26zm-.14-.1a.18.18 0 0 0 .14.07c.08 0 .19-.12.25-.2a1 1 0 0 0 .24-.41 1.08 1.08 0 0 1 .27-.47.73.73 0 0 0 -.35.15l.09-.4a1.59 1.59 0 0 0 -.43.57 5.2 5.2 0 0 0 -.19.54z" />
    <path
        d="m21.83 23.73s-.17.23 0 .38a.67.67 0 0 0 .39.18.63.63 0 0 0 .61-.2 1.56 1.56 0 0 0 .34-.51c.05-.13.22-.44.4-.39 0 0 0-.13-.26-.34a.12.12 0 0 0 -.1 0 .43.43 0 0 0 -.28.21l-.26.4-.3.31-.3-.09z"
        fill="#ce1126" />
    <path
        d="m22.32 24.32h-.14a.63.63 0 0 1 -.39-.19c-.15-.15 0-.39 0-.4l.23-.08.29.09.29-.3s.21-.3.27-.4a.41.41 0 0 1 .28-.22.12.12 0 0 1 .12 0c.27.21.27.35.27.35-.16 0-.32.23-.38.38a1.55 1.55 0 0 1 -.34.5.6.6 0 0 1 -.5.27zm-.48-.57s-.14.22 0 .34a.6.6 0 0 0 .36.18.58.58 0 0 0 .59-.2 1.29 1.29 0 0 0 .33-.49s.18-.42.4-.4a.77.77 0 0 0 -.25-.3.16.16 0 0 0 -.09 0 .39.39 0 0 0 -.26.21c-.06.1-.26.4-.27.4l-.31.31-.3-.09z" />
    <path
        d="m22.3 24.23c-.11 0-.24-.12-.31-.18s-.17-.12-.23-.1c.08 0 .23.08.27.11s.18.17.28.17a.16.16 0 0 0 .14-.07.19.19 0 0 1 -.15.07z" />
    <path
        d="m23.19 23.65a.17.17 0 0 1 .09-.14h.07l.16-.11a.13.13 0 0 0 0-.15.18.18 0 0 1 0 .2.69.69 0 0 1 -.17.11h-.06a.13.13 0 0 0 -.09.09z" />
    <path
        d="m17.25 23.61a.19.19 0 0 1 -.16.08c-.1 0-.23-.17-.29-.23a1.19 1.19 0 0 1 -.27-.44 1.09 1.09 0 0 0 -.29-.5.64.64 0 0 1 .4.16l-.09-.41a1.69 1.69 0 0 1 .48.61 4.25 4.25 0 0 1 .19.54z"
        fill="#ce1126" />
    <path
        d="m17.09 23.7c-.09 0-.2-.12-.28-.2a1 1 0 0 1 -.24-.42 1.07 1.07 0 0 0 -.29-.48.61.61 0 0 1 .37.13l-.09-.4a1.66 1.66 0 0 1 .49.61 5.75 5.75 0 0 1 .19.55v.19a.2.2 0 0 1 -.15.02zm-.8-1.16a1.08 1.08 0 0 1 .26.47 1 1 0 0 0 .24.41c.07.08.17.2.25.2a.17.17 0 0 0 .14-.07v-.18a3.92 3.92 0 0 0 -.19-.53 1.59 1.59 0 0 0 -.43-.57l.09.4a.75.75 0 0 0 -.36-.13z" />
    <path
        d="m24.27 21.7a2.16 2.16 0 0 0 -.44 0 1.5 1.5 0 0 0 .13-.11.38.38 0 0 1 .13-.09.22.22 0 0 1 .08 0h.11a0 0 0 0 1 0 0h-.14l.11-.12s0 0 0-.05 0 0 0 0-.15.16-.24.19a2.13 2.13 0 0 1 -.25 0l.24-.18a.61.61 0 0 1 .14-.07.28.28 0 0 0 .12 0 2.07 2.07 0 0 0 -.33.1.8.8 0 0 1 -.2.07 1.25 1.25 0 0 1 .23-.23l.04-.21.07-.05h.08l.07-.05h-.06a1 1 0 0 0 -.13.09l-.14.09a1.73 1.73 0 0 1 -.3.16c.2-.23.48-.37.67-.61a7.11 7.11 0 0 0 -.72.5 1.22 1.22 0 0 1 .29-.42c.12-.12.26-.22.39-.33s.06 0 .06-.08a3 3 0 0 0 -.85.78.38.38 0 0 1 -.11.11 2.17 2.17 0 0 1 .44-.52 1.16 1.16 0 0 0 .33-.59 5.86 5.86 0 0 1 -.62.7 4.16 4.16 0 0 1 .8-1.07.9.9 0 0 0 -.43.23c-.05.05-.09.11-.14.17l-.07.09v.05a.5.5 0 0 1 .08-.27 1.09 1.09 0 0 0 .08-.15.86.86 0 0 1 .1-.16 2 2 0 0 1 .2-.31 3.13 3.13 0 0 0 -.52.73.83.83 0 0 1 .16-.39c.07-.12.15-.24.23-.36a1.24 1.24 0 0 0 -.34.38 4 4 0 0 0 -.23.46 1.33 1.33 0 0 1 .1-.34 2.06 2.06 0 0 1 .12-.26 2 2 0 0 1 .17-.23 1.17 1.17 0 0 0 .17-.26 1.26 1.26 0 0 0 -.34.35.58.58 0 0 1 -.1.12 2.44 2.44 0 0 0 .1-.24 1.55 1.55 0 0 1 .19-.32.15.15 0 0 0 .06-.1 2.16 2.16 0 0 0 -.56.64 2.27 2.27 0 0 1 .28-.79.32.32 0 0 0 -.15.13.39.39 0 0 0 -.06.11.15.15 0 0 1 -.07.09c.09-.14.1-.33.19-.47s0 0 0 0a0 0 0 0 0 0 0 .91.91 0 0 0 -.16.24.42.42 0 0 1 -.09.16.45.45 0 0 1 .08-.22l.05-.08a.58.58 0 0 0 -.16.19 1.4 1.4 0 0 0 -.09.17.57.57 0 0 1 0 .14s-.05.07-.05.11a1.51 1.51 0 0 1 .05-.47v-.11a.37.37 0 0 0 0-.11 1.89 1.89 0 0 0 -.18.52 1.07 1.07 0 0 1 -.14-.35 1.07 1.07 0 0 0 -.35-.52 2 2 0 0 1 .18.52.51.51 0 0 1 -.14-.18.78.78 0 0 0 -.11-.2.51.51 0 0 0 0 .13 1 1 0 0 0 .18.41v.06a.31.31 0 0 1 .06.13.33.33 0 0 1 -.16-.17c0-.08-.07-.16-.1-.23a2.44 2.44 0 0 0 -.1-.24 1.4 1.4 0 0 0 .05.41l-.23-.12s0 0 0 0l.05.06c.08.07.21.11.25.21a1.58 1.58 0 0 0 .24.39c-.13-.14-.29-.26-.43-.39a1 1 0 0 0 .15.21c.06.07.13.12.19.19a.93.93 0 0 1 .13.15l.05.1a2.14 2.14 0 0 0 -.65-.58l.06.06c.12.14.25.26.37.39a1.52 1.52 0 0 1 .31.44c-.19-.16-.33-.37-.53-.52a6.63 6.63 0 0 1 .57.74c-.11-.11-.19-.24-.3-.34a1.53 1.53 0 0 0 -.21-.14h-.08c0 .09.14.14.22.2a1 1 0 0 1 .27.34.58.58 0 0 0 -.21-.17l-.2-.14-.09-.05a3.52 3.52 0 0 1 .37.27 1.12 1.12 0 0 1 .29.36 1.73 1.73 0 0 1 .11.32.78.78 0 0 1 0 .21c-.06-.17-.12-.34-.19-.52a.37.37 0 0 0 -.05-.11.12.12 0 0 0 -.11 0 .09.09 0 0 0 -.07 0s0 0 0 .06a0 0 0 0 1 0 0h-.07a.41.41 0 0 0 -.05.09c-.05.1-.06.22-.11.33a.11.11 0 0 0 0 .11s0-.07.06-.11a.48.48 0 0 1 .13-.23 1.28 1.28 0 0 1 -.06.33s0 0 0 0a1.83 1.83 0 0 1 .11-.33.25.25 0 0 1 .08.1v.12a4.44 4.44 0 0 1 .07.49 1.31 1.31 0 0 0 -.22-.4.23.23 0 0 0 -.11.17.18.18 0 0 0 -.07-.05h-.05s0 0-.05.07a.76.76 0 0 0 0 .26s0 .09 0 .12 0-.19 0-.28 0-.05 0-.05a.44.44 0 0 1 .07.19.82.82 0 0 1 0 .44 1.41 1.41 0 0 1 -.19.39 1 1 0 0 1 -.2.24 1.58 1.58 0 0 0 .23-.53 1.2 1.2 0 0 0 .06-.33s0 0 0 0-.06.22-.1.32a4 4 0 0 1 -.17.36l-.16.26a.41.41 0 0 0 0-.22l-.14.37c0-.07 0-.14 0-.21a.5.5 0 0 0 0-.21c0 .05 0 .1-.05.16s0 .05 0 .08v.05s0 0 0 0a1.7 1.7 0 0 1 0-.22 0 0 0 0 0 0 0 .82.82 0 0 1 -.1.3 1.24 1.24 0 0 1 -.22.34 1 1 0 0 0 .6 0 3.31 3.31 0 0 1 .77 0l-.34-.06h.59l-.49-.11h.68s0 0 0 0l-.24-.05h.55s0 0 0 0l-.44-.11.08-.05a3.49 3.49 0 0 1 .69-.23h.05a0 0 0 0 0 0-.05 3 3 0 0 1 -.52.08l.21-.1h.1.13s0 0 0 0h-.06c.22-.07.44-.1.65-.19a.87.87 0 0 1 -.23 0h-.2a.65.65 0 0 1 -.24 0 1.46 1.46 0 0 1 .44-.16s.07 0 .09 0c-.18 0-.35.11-.53.1a1.15 1.15 0 0 1 .36-.11 1.12 1.12 0 0 1 .31-.05 0 0 0 0 0 0 0s-.01-.27-.02-.27zm-1.59 0a.62.62 0 0 1 -.07-.19 1.06 1.06 0 0 0 0-.25.14.14 0 0 0 0 .06s0 0 0 .07a.41.41 0 0 0 -.09-.23.23.23 0 0 1 .07-.1c.06.14.11.29.16.44a.19.19 0 0 1 0 .08.31.31 0 0 1 -.07.15z"
        fill="#006300" />
    <path
        d="m21.62 23.15a.8.8 0 0 1 -.3-.06 1.46 1.46 0 0 0 .22-.35.58.58 0 0 0 .09-.29 0 0 0 0 1 0 0v.19a.94.94 0 0 0 0-.09s0 0 0 0a.3.3 0 0 1 0-.1.49.49 0 0 1 0 .21v.06s0 .06 0 .08l.11-.3a0 0 0 0 1 0 0s0 0 0 0a.55.55 0 0 1 0 .18c.05-.07.09-.15.14-.23a2.6 2.6 0 0 0 .16-.35l.06-.19a.57.57 0 0 0 0-.14s0 0 0 0a1.14 1.14 0 0 1 -.06.33 1.83 1.83 0 0 1 -.21.5.78.78 0 0 0 .16-.21 1.65 1.65 0 0 0 .2-.4.92.92 0 0 0 0-.43.38.38 0 0 0 -.07-.18s0 0 0 0 0 .18 0 .28a.16.16 0 0 1 0-.12.46.46 0 0 1 0-.26s0-.07.05-.07a0 0 0 0 1 .05 0 .18.18 0 0 1 .07.05.23.23 0 0 1 .11-.17 2.16 2.16 0 0 1 .2.36 3.64 3.64 0 0 0 -.07-.44.23.23 0 0 0 0-.11l-.06-.1a1.59 1.59 0 0 0 -.12.32.06.06 0 0 1 0 0 1.2 1.2 0 0 0 .06-.32.94.94 0 0 0 -.12.22.17.17 0 0 1 -.06.1.15.15 0 0 1 0-.11 1.77 1.77 0 0 0 .06-.17 1.09 1.09 0 0 1 .05-.17v-.08h.07s0 0 0 0a.1.1 0 0 1 .07 0 .12.12 0 0 1 .11.05.24.24 0 0 1 .06.11c.06.16.12.32.17.48a.86.86 0 0 0 0-.17 1.75 1.75 0 0 0 -.12-.32 1.11 1.11 0 0 0 -.28-.35 2.72 2.72 0 0 0 -.37-.27l.08.05.13.06.12.06a.52.52 0 0 1 .18.13.79.79 0 0 0 -.25-.29.1.1 0 0 0 -.05 0 .69.69 0 0 1 -.17-.17h.05a.9.9 0 0 1 .2.14 1 1 0 0 1 .17.18l.1.12a1.72 1.72 0 0 0 -.31-.4l-.24-.29a1.81 1.81 0 0 1 .32.3l.19.2a1.57 1.57 0 0 0 -.29-.42l-.17-.17-.21-.21-.05-.07a2.64 2.64 0 0 1 .57.48 1.34 1.34 0 0 0 -.11-.14l-.09-.08-.1-.11.1-.49.08.07.28.25a1.57 1.57 0 0 1 -.18-.31.38.38 0 0 0 -.15-.13l-.11-.08a.1.1 0 0 1 0-.06s0 0 0-.05l.21.12a1.62 1.62 0 0 1 -.05-.4c0 .08.07.15.1.23v.05a1 1 0 0 0 .07.18.36.36 0 0 0 .15.17.34.34 0 0 0 -.06-.12 1.38 1.38 0 0 1 -.18-.41s0-.08 0-.13a.86.86 0 0 1 .1.16.48.48 0 0 0 .12.16 2 2 0 0 0 -.17-.49 1.23 1.23 0 0 1 .35.52v.1a1.17 1.17 0 0 0 .09.24 1.73 1.73 0 0 1 .18-.51.14.14 0 0 1 0 .11.29.29 0 0 1 0 .09 1.18 1.18 0 0 0 -.05.42s0 0 0 0a.32.32 0 0 0 0-.09s0 0 0-.05a.89.89 0 0 1 .08-.17.78.78 0 0 1 .16-.2.7.7 0 0 0 -.08.2.39.39 0 0 0 .08-.14.8.8 0 0 1 .13-.19v-.05a.77.77 0 0 0 -.1.25 1.07 1.07 0 0 1 -.07.19.16.16 0 0 0 0-.07.59.59 0 0 1 0-.08.93.93 0 0 1 .15-.13 2.3 2.3 0 0 0 -.27.76 1.91 1.91 0 0 1 .55-.62s0 .08-.06.11a1.22 1.22 0 0 0 -.24.32.36.36 0 0 1 0 .09.61.61 0 0 1 -.05.12l.06-.08a1.26 1.26 0 0 1 .35-.34 1.7 1.7 0 0 1 -.18.26 1.53 1.53 0 0 0 -.17.23 1.89 1.89 0 0 0 -.11.25 1.76 1.76 0 0 0 -.1.3v-.06c.06-.12.12-.25.19-.36a1.31 1.31 0 0 1 .33-.39l-.18.29-.05.07a1 1 0 0 0 -.15.36 2.88 2.88 0 0 1 .5-.7l-.2.31-.09.16v.05l-.06.1a.46.46 0 0 0 -.08.25l.08-.1.1-.12a.76.76 0 0 1 .43-.23 4.31 4.31 0 0 0 -.78 1 4.8 4.8 0 0 0 .59-.68 1.05 1.05 0 0 1 -.33.59l-.09.09a1.86 1.86 0 0 0 -.33.41.43.43 0 0 0 .09-.1 3.11 3.11 0 0 1 .84-.78.15.15 0 0 1 -.06.1h-.05a3 3 0 0 0 -.33.29 1.28 1.28 0 0 0 -.29.39 6.33 6.33 0 0 1 .71-.48 2.5 2.5 0 0 1 -.34.31 2.79 2.79 0 0 0 -.32.28 1.84 1.84 0 0 0 .28-.15l.09-.06h.09.06s0 0 0 0h-.08l.3.11-.05.05a1.45 1.45 0 0 0 -.22.21l.15-.05a1.39 1.39 0 0 1 .33-.1h-.07-.05l-.13.07-.23.16h.27a.46.46 0 0 0 .16-.11l.09-.08s0 0 0 0a.09.09 0 0 1 0 .05l-.1.12h.12a0 0 0 0 1 0 0h-.19a.25.25 0 0 0 -.12.08l-.07.07a2.79 2.79 0 0 1 .41 0s0 0 0 0a0 0 0 0 1 0 0 1.67 1.67 0 0 0 -.31.05 1.83 1.83 0 0 0 -.33.11.71.71 0 0 0 .24-.06 1.09 1.09 0 0 1 .26-.05s-.05 0-.09 0a1.26 1.26 0 0 0 -.42.16.86.86 0 0 0 .22 0h.07.13.08a.38.38 0 0 0 .15 0 2 2 0 0 1 -.42.13l-.17.05s0 0 0 0h-.12-.11a.82.82 0 0 0 -.19.09 4 4 0 0 0 .5-.08.05.05 0 0 1 0 .05h-.05a3.56 3.56 0 0 0 -.68.22.18.18 0 0 0 -.07.05l.21.05.21.05a0 0 0 0 1 0 0h-.48.17s0 0 0 .05h-.63l.44.09h-.09-.47l.13.05.22.08a3.3 3.3 0 0 0 -.77 0 2.58 2.58 0 0 1 -.31.59zm-.29-.07a1.14 1.14 0 0 0 .58 0 3.46 3.46 0 0 1 .72 0l-.16-.08h-.16.5l-.44-.09h.68l-.24-.06h.55l-.2-.05-.23-.05h.07a3.64 3.64 0 0 1 .69-.22h.05s0 0 0 0a3.12 3.12 0 0 1 -.52.08 1.07 1.07 0 0 1 .22-.1h.05.12-.05l.23-.06a2.47 2.47 0 0 0 .36-.11h-.15a.31.31 0 0 0 -.13 0h-.07a.65.65 0 0 1 -.24 0 1.12 1.12 0 0 1 .44-.17.11.11 0 0 0 .08 0 1 1 0 0 0 -.25.06 1.08 1.08 0 0 1 -.27.05 1.52 1.52 0 0 1 .36-.12 1.67 1.67 0 0 1 .31-.05 1.61 1.61 0 0 0 -.44 0l.09-.07a.29.29 0 0 1 .13-.08h.17l-.11-.05.11-.13a.05.05 0 0 0 0 0l-.09.07a.45.45 0 0 1 -.16.12h-.13-.13a2.27 2.27 0 0 1 .25-.18.56.56 0 0 1 .13-.07h.05.07a1.19 1.19 0 0 0 -.32.1.58.58 0 0 1 -.17.06 1 1 0 0 1 .24-.23l.08-.65h.05l.07-.05s0 0 0 0a.26.26 0 0 0 -.09.05h-.05.02a1.68 1.68 0 0 1 -.3.16 2.43 2.43 0 0 1 .34-.3 2.8 2.8 0 0 0 .31-.28 6.45 6.45 0 0 0 -.69.47 1.34 1.34 0 0 1 .3-.41c.1-.1.22-.2.33-.29a.19.19 0 0 0 .06-.07 3 3 0 0 0 -.83.77.68.68 0 0 1 -.12.12 1.89 1.89 0 0 1 .35-.44l.09-.09a1 1 0 0 0 .33-.56 5.68 5.68 0 0 1 -.61.69 4.25 4.25 0 0 1 .79-1.06.82.82 0 0 0 -.4.23.52.52 0 0 0 -.1.11l-.08.09v.05a.5.5 0 0 1 .08-.27l.07-.11.09-.17a1.43 1.43 0 0 1 .16-.24 3.51 3.51 0 0 0 -.47.67.83.83 0 0 1 .16-.39v-.08l.16-.25a1.17 1.17 0 0 0 -.3.35c-.07.12-.13.24-.19.36l-.05.1a1.33 1.33 0 0 1 .1-.34l.12-.25a1.53 1.53 0 0 1 .17-.23 2.49 2.49 0 0 0 .17-.24 1.29 1.29 0 0 0 -.33.33.22.22 0 0 1 -.09.1.69.69 0 0 0 .07-.15.3.3 0 0 1 0-.08 1.07 1.07 0 0 1 .11-.3.2.2 0 0 0 .06-.09 1.88 1.88 0 0 0 -.55.64 2.5 2.5 0 0 1 .27-.78.5.5 0 0 0 -.13.12.59.59 0 0 0 0 .08.3.3 0 0 1 -.07.1 1 1 0 0 0 .08-.22 1 1 0 0 1 .11-.25s0 0 0 0a.8.8 0 0 0 -.13.19.65.65 0 0 1 -.09.16.53.53 0 0 1 .08-.22v-.05a1 1 0 0 0 -.22.34s0 0 0 .06a.11.11 0 0 1 0 .08.05.05 0 0 1 0 0 .14.14 0 0 0 0 .07 2.5 2.5 0 0 1 .05-.47.29.29 0 0 0 0-.09.27.27 0 0 0 0-.09 1.78 1.78 0 0 0 -.18.5.82.82 0 0 1 -.1-.26v-.09a1.07 1.07 0 0 0 -.33-.5 1.89 1.89 0 0 1 .17.49.36.36 0 0 1 -.14-.18l-.08-.14a.36.36 0 0 0 0 .11 1.32 1.32 0 0 0 .17.41.37.37 0 0 1 .07.14.43.43 0 0 1 -.17-.18l-.08-.18v-.05l-.09-.21a1.48 1.48 0 0 0 0 .38l-.22-.13s0 0 0 0l.05.06.1.07a.44.44 0 0 1 .16.14 2 2 0 0 0 .25.39c-.11-.11-.24-.21-.36-.32h-.05l.13.18.1.1.09.08a1 1 0 0 1 .12.16l.06.1a2 2 0 0 0 -.62-.55l.21.21.17.17a1.57 1.57 0 0 1 .31.45 2.18 2.18 0 0 1 -.22-.21 2.47 2.47 0 0 0 -.28-.28 2.65 2.65 0 0 0 .21.26 2.09 2.09 0 0 1 .33.45l-.13-.15a1.37 1.37 0 0 0 -.16-.18 1.28 1.28 0 0 0 -.21-.14.73.73 0 0 0 .16.14h.05a1 1 0 0 1 .28.34.56.56 0 0 0 -.22-.17l-.36.01h-.13l-.07-.05a2.72 2.72 0 0 1 .37.27 1.32 1.32 0 0 1 .29.35 2 2 0 0 1 .11.32.65.65 0 0 1 0 .21l-.19-.51a.39.39 0 0 0 -.06-.11.1.1 0 0 0 -.1-.05h-.06s0 0 0 0a.05.05 0 0 1 0 0h-.07l-.05.08c0 .05 0 .11-.05.16a.49.49 0 0 1 -.06.17s0 .06 0 .09a.16.16 0 0 0 .05-.09.58.58 0 0 1 .14-.24 1.28 1.28 0 0 1 -.06.33s0 0 0 0a1.84 1.84 0 0 1 .12-.32.26.26 0 0 1 .07.1.56.56 0 0 1 0 .12c0 .16.05.33.07.49a1.81 1.81 0 0 0 -.22-.41.21.21 0 0 0 -.1.17l-.07-.05s-.05 0-.05.06a.76.76 0 0 0 0 .26.17.17 0 0 0 0 .1v-.26s0-.05 0-.05a.05.05 0 0 1 0 0 .47.47 0 0 1 .07.19 1 1 0 0 1 0 .44 2 2 0 0 1 -.19.39 1 1 0 0 1 -.21.25 1.64 1.64 0 0 0 .23-.53.88.88 0 0 0 .06-.33s0 0 0 0 0 .09 0 .14a.82.82 0 0 1 -.06.19 2.48 2.48 0 0 1 -.16.35l-.17.27a.41.41 0 0 0 0-.22l-.14.37v-.15-.06a.58.58 0 0 0 0-.19v.08a.14.14 0 0 1 0 .06v.09-.22s0 0 0 0a.65.65 0 0 1 -.09.3 1.41 1.41 0 0 1 -.34.52zm1.35-1.34a.52.52 0 0 1 -.08-.19v-.11a.53.53 0 0 0 0-.13.06.06 0 0 0 0 0 .13.13 0 0 1 0 .06.31.31 0 0 0 -.09-.22.28.28 0 0 1 .08-.11 4.43 4.43 0 0 1 .15.43.29.29 0 0 1 0 .09.28.28 0 0 1 0 .13zm-.09-.45a.38.38 0 0 1 0 .15v.1a.56.56 0 0 0 .07.18.21.21 0 0 0 0-.11.19.19 0 0 0 0-.08 4.43 4.43 0 0 0 -.15-.43.31.31 0 0 0 -.07.09.32.32 0 0 1 .09.17.07.07 0 0 1 0-.06z"
        fill="#808000" />
    <path d="m21.76 23h.1a2.42 2.42 0 0 1 .6 0 .11.11 0 0 1 .08 0 3.47 3.47 0 0 0 -.72 0h-.07s0 0-.05 0 .04 0 .06 0z"
        fill="#008f4c" />
    <path
        d="m18.55 23.73s.16.23 0 .38a.67.67 0 0 1 -.38.18.64.64 0 0 1 -.62-.2 1.47 1.47 0 0 1 -.33-.51c-.06-.13-.22-.44-.41-.39 0 0 0-.13.26-.34a.12.12 0 0 1 .1 0 .43.43 0 0 1 .28.21l.26.4.3.31.3-.09z"
        fill="#ce1126" />
    <path
        d="m18.05 24.32a.61.61 0 0 1 -.49-.22 1.76 1.76 0 0 1 -.34-.5c-.06-.15-.22-.42-.38-.38s0-.14.27-.35a.13.13 0 0 1 .12 0 .41.41 0 0 1 .28.22c.06.1.25.38.27.4l.29.3.29-.09.23.08s.17.25 0 .4a.63.63 0 0 1 -.39.19h-.14zm-1.18-1.15c.21 0 .38.39.38.4a1.29 1.29 0 0 0 .33.49.58.58 0 0 0 .59.2.58.58 0 0 0 .36-.18c.12-.12 0-.31 0-.34l-.2-.07-.3.09-.31-.32s-.21-.3-.27-.4a.37.37 0 0 0 -.26-.21.16.16 0 0 0 -.09 0c-.18.15-.23.25-.24.3z" />
    <path
        d="m22.75 23.54a4.52 4.52 0 0 0 -2.56-.61c-.32 0-2 0-2.57.61a.11.11 0 0 0 0 .11 1.49 1.49 0 0 0 .33.48s.45-.64 2.27-.64 2.26.64 2.26.64a1.49 1.49 0 0 0 .33-.48.09.09 0 0 0 -.06-.11z"
        fill="#ce1126" />
    <path
        d="m22.45 24.16s-.46-.63-2.24-.63-2.25.62-2.25.63a1.36 1.36 0 0 1 -.34-.49.13.13 0 0 1 0-.13 4.42 4.42 0 0 1 2.58-.61 4.41 4.41 0 0 1 2.57.61.13.13 0 0 1 0 .13 1.36 1.36 0 0 1 -.34.49zm-2.26-.69c1.65 0 2.17.52 2.26.63a1.11 1.11 0 0 0 .31-.46.08.08 0 0 0 0-.09 4.39 4.39 0 0 0 -2.55-.6 4.38 4.38 0 0 0 -2.55.6.09.09 0 0 0 0 .09 1.25 1.25 0 0 0 .31.46c.03-.1.56-.63 2.22-.63z" />
    <path d="m20.76 23.63a4.08 4.08 0 0 0 .43.12l-.14.09.08.18-.44-.14z" fill="#ce1126" />
    <path
        d="m21.13 24-.44-.14.08-.25a3.82 3.82 0 0 0 .42.12 0 0 0 0 0 0 0s0 0 0 0l-.13.08.08.17zm-.42-.16.4.13-.11-.13.12-.07-.39-.12z" />
    <path d="m19.56 23.65a3.54 3.54 0 0 1 -.45.13l.14.08-.08.18.4-.12z" fill="#ce1126" />
    <path d="m19.17 24.05.08-.17-.13-.08c.14 0 .44-.13.44-.13v.27l-.41.12zm0-.26.12.06-.07.16.37-.12v-.24z" />
    <path
        d="m18.07 24.23a.19.19 0 0 1 -.16-.09.16.16 0 0 0 .14.07c.1 0 .23-.12.29-.17s.18-.14.26-.11c-.06 0-.19.06-.23.1s-.2.18-.31.18z" />
    <path
        d="m17.19 23.65a.16.16 0 0 0 -.08-.11h-.06a.69.69 0 0 1 -.17-.11.16.16 0 0 1 0-.2.13.13 0 0 0 0 .15.76.76 0 0 0 .16.11h.06a.17.17 0 0 1 .09.14z" />
    <path d="m18.36 23.58v-.14h.11s0 0 0 0a.08.08 0 0 1 0 0zm0-.07s0 0 0 0h-.06z" fill="#eac102" />
    <path d="m18.48 23.33h.07v.06h-.05v.1.08.07h.06v-.05.07h-.07-.06v-.14z" fill="#eac102" />
    <path
        d="m18.75 23.47v-.14h.13s0 0 0 0a.08.08 0 0 1 0 .07.07.07 0 0 1 0 0zm0-.07a0 0 0 0 0 0 0 0 0 0 0 0 0-.05.05.05 0 0 0 0 0h-.05z"
        fill="#eac102" />
    <path
        d="m18.82 23.24h.08v.1a.16.16 0 0 0 0 .06 0 0 0 0 0 0 0 .05.05 0 0 0 0 0 .08.08 0 0 0 0-.07v-.1.1a.14.14 0 0 1 0 .09.09.09 0 0 1 -.06 0h-.07a.15.15 0 0 1 0-.08v-.1z"
        fill="#eac102" />
    <path
        d="m19.07 23.19h.15s0 0 0 0a.09.09 0 0 1 0 .07.05.05 0 0 1 0 0 .07.07 0 0 1 0 .06.06.06 0 0 1 -.06 0h-.07v-.14zm.09.1s0 0 0 0a0 0 0 0 0 0 0s0 0 0 0h-.05zm0 0v.11a.05.05 0 0 0 0 0h-.05z"
        fill="#eac102" />
    <path d="m19.36 23.2v.14h.06v-.05.07h-.13v-.14z" fill="#eac102" />
    <path d="m19.56 23.32v-.15h.05z" fill="#eac102" />
    <path
        d="m19.76 23.17v-.06s0 0-.05 0a.17.17 0 0 0 0 .08v.08a.09.09 0 0 0 .06 0h.05a.09.09 0 0 1 -.07 0 .11.11 0 0 1 -.08 0 .19.19 0 0 1 0-.09.15.15 0 0 1 0-.1.14.14 0 0 1 .08 0h.06z"
        fill="#eac102" />
    <path d="m19.85 23.27v.06l.07-.22.08.22h-.06zm0-.1v.07h.05v-.06z" fill="#eac102" />
    <path
        d="m20.13 23.35v-.19h.07a.11.11 0 0 1 .12.12.15.15 0 0 1 0 .1.1.1 0 0 1 -.09 0h-.06zm0 0a.05.05 0 0 0 0 0 .15.15 0 0 0 0-.08.2.2 0 0 0 0-.09z"
        fill="#eac102" />
    <path
        d="m20.57 23.22a.14.14 0 0 1 0 .11.11.11 0 0 1 -.08 0 .09.09 0 0 1 -.08 0 .15.15 0 0 1 0-.1.18.18 0 0 1 0-.1.12.12 0 0 1 .09 0 .09.09 0 0 1 .08 0 .2.2 0 0 1 -.01.09zm-.18 0a.2.2 0 0 0 0 .09s0 0 0 0h.05a.2.2 0 0 0 0-.09.22.22 0 0 0 0-.09.05.05 0 0 0 -.05 0s0 0-.05 0a.2.2 0 0 0 .05.09z"
        fill="#eac102" />
    <path d="m20.8 23.12h.05v.14-.06l-.08.17v-.18.15-.21h.05v.17z" fill="#eac102" />
    <path d="m21 23.34h-.1v-.14h.1z" fill="#eac102" />
    <path d="m21 23.39v-.14l.08.17v-.09.2l-.09-.19v.15z" fill="#eac102" />
    <path d="m21.31 23.4v-.14h.05z" fill="#eac102" />
    <path
        d="m21.55 23.32v-.06h-.06a.1.1 0 0 0 0 .08.11.11 0 0 0 0 .08.08.08 0 0 0 .05.05.13.13 0 0 1 -.07-.06.31.31 0 0 1 0-.1.15.15 0 0 1 .06-.09.1.1 0 0 1 .09 0h.05z"
        fill="#eac102" />
    <path d="m21.61 23.44.13-.2v.25-.05zm.06-.09v.05h.05v-.09z" fill="#eac102" />
    <path d="m21.79 23.55v-.14h.06l.06.18v-.1l-.06.2-.06-.2v.11z" fill="#eac102" />
    <path d="m22 23.57.14-.19v.25h-.05v-.05zm.06-.09v.06h.05v-.09z" fill="#eac102" />
    <path
        d="m20.14 23.63h.12c.11 0 .27-.1.44-.1s.11 0 .11.14 0 .08 0 .09a.28.28 0 0 1 0 .08.16.16 0 0 1 -.16.16c-.11 0-.38-.17-.44-.17s-.31.16-.49.16a.16.16 0 0 1 -.14-.17 1.09 1.09 0 0 1 0-.13c0-.16 0-.16.1-.16a3.46 3.46 0 0 1 .34.07z"
        fill="#ce1126" />
    <path
        d="m20.61 24.06a.87.87 0 0 1 -.28-.1l-.16-.07a.74.74 0 0 0 -.17.11.76.76 0 0 1 -.28.09c-.08 0-.15-.1-.15-.18v-.06s0-.06 0-.11.05-.17.11-.17a.81.81 0 0 1 .19 0h.15.29a.59.59 0 0 0 .17 0 .76.76 0 0 1 .27-.06c.07 0 .12.06.12.15a.1.1 0 0 1 0 .07 0 0 0 0 1 0 0 .54.54 0 0 1 0 .08.18.18 0 0 1 -.26.25zm-.44-.19a.59.59 0 0 1 .17.07.75.75 0 0 0 .27.1.15.15 0 0 0 .15-.15.17.17 0 0 0 0-.07s0 0 0-.06c0-.08 0-.13-.1-.13a.92.92 0 0 0 -.26.05.45.45 0 0 1 -.18 0h-.22-.15-.19c-.05 0-.09 0-.09.15s0 .09 0 .11v.06c0 .07.06.16.13.16a.65.65 0 0 0 .28-.09.65.65 0 0 1 .19-.2z" />
    <path d="m19.86 23.68c-.23 0-.25 0-.28-.06s0 .05.26.05h.16s0 0 0 0a0 0 0 0 1 0 0h-.17z" />
    <path d="m20.25 23.68s0 0 0 0h.15c.09 0 .29 0 .31-.07a0 0 0 0 1 0 0s0 0 0 0-.32.07-.33.07h-.15z" />
    <path d="m19.64 24a.83.83 0 0 1 .46-.17s0 0 0 0a.82.82 0 0 0 -.45.16z" />
    <path d="m20.69 23.93a1 1 0 0 0 -.4-.12c.06 0 .38.06.41.12z" />
    <path
        d="m19.71 24s-.05 0-.05 0c0-.06.3-.14.36-.14s0 0 0 0a.85.85 0 0 0 -.35.13 1.52 1.52 0 0 0 .31-.11 0 0 0 0 1 0 0 2.29 2.29 0 0 1 -.27.12z" />
    <path
        d="m20.61 24a1.19 1.19 0 0 1 -.29-.11s0 0 0 0a1.23 1.23 0 0 0 .28.12s-.29-.13-.35-.13a0 0 0 0 1 0 0s0 0 0 0 .37.08.37.15.03-.03-.01-.03z" />
    <path
        d="m20 23.85s0 0 0 0-.06-.1-.06-.17.16-.07.25-.08c.06 0 .08.27.08.3s-.21.05-.24.05-.06 0-.06-.06.03-.03.03-.04z"
        fill="#ce1126" />
    <path
        d="m20.07 24s-.07 0-.07-.12 0 0 0 0a.15.15 0 0 0 0-.08.14.14 0 0 1 0-.09c0-.08.12-.09.23-.09.08 0 .09.31.09.31 0 .01-.19.07-.25.07zm.16-.38c-.09 0-.21 0-.21.07a.19.19 0 0 0 0 .08.13.13 0 0 1 0 .09s0 0 0 0a0 0 0 0 0 0 0s0 .05.05.05.23 0 .23 0c0-.11-.02-.34-.07-.34z" />
    <path d="m19.36 24.18s-.07 0-.07.05 0 0 .06 0 .06 0 .06 0a.08.08 0 0 0 0-.05z" fill="#ff0" />
    <path d="m21 24.18s-.07 0-.07 0 .05.05.08.05.05 0 .05 0a.06.06 0 0 0 -.06-.05z" fill="#ff0" />
    <path
        d="m18.9 22.87a.16.16 0 0 1 -.08.12 0 0 0 0 1 0 0s0 0 0 0 0 0 0-.06v-.1s0-.06 0-.09 0 0 0 .06v-.07s.07-.11.11-.15v.15a.86.86 0 0 1 -.03.14z"
        fill="#00873f" />
    <path
        d="m18 22.48.07.06a.67.67 0 0 1 .11.18s0 0 0 .06 0 0 0 0l-.07-.11c-.05-.06-.12-.12-.17-.19h.07s.09 0 .13.07.05 0 .08.07a.15.15 0 0 1 0 .09s0 .1 0 .14l-.12-.2a.41.41 0 0 0 -.05-.09.11.11 0 0 0 -.05-.08z"
        fill="#00873f" />
    <path
        d="m17.87 23a0 0 0 0 0 0 0h.13a.1.1 0 0 0 -.05.08s0 0 .06 0l.05-.05h.07.13l-.06-.03a.5.5 0 0 1 -.07.08s-.05 0-.08 0h-.12-.14-.08s.08-.05.08-.06l.09-.05h.09.03.11.06a.14.14 0 0 0 .09 0s0 0 0 0h-.08a1.57 1.57 0 0 1 -.3.05z"
        fill="#00873f" />
    <path
        d="m18.22 22.87c-.07-.06-.09-.16-.15-.22a.35.35 0 0 0 -.13-.08h-.18-.18a.61.61 0 0 0 .13.22.38.38 0 0 1 .1.12l.16-.07a.12.12 0 0 0 -.1 0h-.12.13l-.12-.08.13.06v-.09s0 0 0 0a.12.12 0 0 0 0 .08h.08z"
        fill="#00873f" />
    <path d="m18.31 22.61s0 0 0 0h.06s0 0 0 0-.05-.01-.06 0z" fill="#f00" />
    <path d="m18.4 22.71a0 0 0 0 0 0 0s0-.07 0-.07-.01.04 0 .07z" fill="#f00" />
    <path
        d="m17.6 22.7a.3.3 0 0 1 -.15.05h-.08a.46.46 0 0 1 -.16-.11.35.35 0 0 1 -.05-.08.3.3 0 0 0 0-.08h.07a.21.21 0 0 0 .11 0h.1.07l.06.09s0 0 0 0-.05 0-.07 0l-.05-.06a.12.12 0 0 0 0 .08l-.13-.06a.24.24 0 0 0 .11.09.29.29 0 0 0 .13 0 0 0 0 0 1 0 0z"
        fill="#00873f" />
    <path
        d="m17.39 22.34h-.07a.3.3 0 0 1 -.23-.09l-.09-.09a.21.21 0 0 0 -.1-.06s0 0 0 0h.25.09a.45.45 0 0 1 .13.1.24.24 0 0 1 .07.16.54.54 0 0 0 -.24-.21.14.14 0 0 0 -.09 0s0 0 0 0h.09a.23.23 0 0 0 -.11 0h.14s0 0 0 0l.09.08a.09.09 0 0 1 .07.11z"
        fill="#00873f" />
    <path
        d="m17.69 22.4a.12.12 0 0 0 -.06-.06.36.36 0 0 1 -.14-.16.55.55 0 0 1 0-.18.65.65 0 0 1 0-.2l.13.11a.06.06 0 0 1 0 .08.3.3 0 0 0 0 .1s0 0 0 .05a0 0 0 0 0 0 0 .23.23 0 0 1 -.05-.15.07.07 0 0 0 0-.05.33.33 0 0 0 0 .17.76.76 0 0 0 .08.11s.05.14.04.18z"
        fill="#00873f" />
    <path
        d="m17.74 22.37a.49.49 0 0 0 -.06-.13.28.28 0 0 1 0-.13.29.29 0 0 1 0-.09.36.36 0 0 1 .11-.16.44.44 0 0 1 .15-.12.34.34 0 0 0 0 .2.5.5 0 0 1 0 .12.21.21 0 0 1 -.05.13.54.54 0 0 1 -.09.12v-.23a.14.14 0 0 1 0-.07v-.09a.23.23 0 0 0 -.06.12s0 0 0 0a0 0 0 0 0 0 0v.16a.43.43 0 0 0 0 .05v.19z"
        fill="#00873f" />
    <path
        d="m17.91 22.17a.19.19 0 0 0 0-.1l.14-.05a.59.59 0 0 1 -.07.16.17.17 0 0 1 -.14.08.18.18 0 0 1 .07-.08.11.11 0 0 0 .06-.09.34.34 0 0 0 -.06.08z"
        fill="#00873f" />
    <path d="m16.81 21.88a.08.08 0 0 0 0 .05.06.06 0 0 0 .06 0 .07.07 0 0 0 0-.1c-.04-.03-.06.02-.06.05z" fill="#f00" />
    <path d="m16.93 22a.07.07 0 0 0 0 .05.05.05 0 0 0 0 0 .05.05 0 0 0 .07-.05s0-.06-.05-.06-.01.06-.02.06z"
        fill="#f00" />
    <path
        d="m16.81 21.56a.35.35 0 0 0 -.16-.08h-.09-.13.05l.06.08a.27.27 0 0 0 .08.07h.25a.11.11 0 0 1 .08 0 .52.52 0 0 0 -.13-.06.41.41 0 0 0 -.19 0 0 0 0 0 1 0 0h.06-.1l.21.07.1.05s0 0 0 0z"
        fill="#00873f" />
    <path d="m17 21.62s0 0 0 0a.09.09 0 0 0 0-.05 0 0 0 0 0 0 0h-.07s0 0 0 0z" fill="#f00" />
    <path
        d="m17.28 21.69c0-.05-.05-.08-.07-.13a.11.11 0 0 0 0 0 .27.27 0 0 1 0-.09.35.35 0 0 1 0-.14l.07.11a.61.61 0 0 1 .05.12.51.51 0 0 1 0 .21 1.83 1.83 0 0 0 -.07-.32c-.02.05.04.14.02.24z"
        fill="#00873f" />
    <path
        d="m17.42 21.71.14-.12s0 0 0 0a0 0 0 0 0 0 0v-.1-.18a.18.18 0 0 0 -.1 0l-.08.06h-.06a.2.2 0 0 0 0 .08.44.44 0 0 0 0 .23l.06-.09v-.06s0-.08 0-.12 0 0 0 .05a.18.18 0 0 1 .06-.09l-.19.35z"
        fill="#00873f" />
    <path d="m17.69 21.42a.31.31 0 0 1 .19 0l-.13-.15a.08.08 0 0 0 0 .05.06.06 0 0 0 0 0s0 0 0 0z" fill="#00873f" />
    <path d="m17.32 21.18h.05a.25.25 0 0 0 .17 0s0 0 0 0-.06.06-.09 0v-.06z" fill="#00873f" />
    <path d="m17.37 21.18a.42.42 0 0 1 .15 0l.08-.05a.37.37 0 0 0 -.2-.05.49.49 0 0 1 -.17 0z" fill="#00873f" />
    <path
        d="m17.42 21.73a.38.38 0 0 0 .11-.08s0 0 .05 0l.13-.07a.42.42 0 0 1 .15 0l-.1.17a.2.2 0 0 1 -.09.11.16.16 0 0 1 -.1 0h-.09-.08a.23.23 0 0 1 .11 0h.1a.1.1 0 0 0 .06-.09.35.35 0 0 1 -.11.1.13.13 0 0 0 0-.06s0 .05-.06.06-.05 0-.08 0 .02-.16 0-.14z"
        fill="#00873f" />
    <path
        d="m17.09 21.49a1.17 1.17 0 0 1 -.05-.2.35.35 0 0 0 0-.11.36.36 0 0 0 -.07-.1.41.41 0 0 0 -.19-.13 1 1 0 0 0 0 .24.31.31 0 0 0 .13.2.29.29 0 0 0 .13.05 3.9 3.9 0 0 1 -.19-.35l.08.09a.06.06 0 0 0 0 0 .07.07 0 0 1 0-.05.68.68 0 0 1 0 .15.21.21 0 0 0 0 .06 1.18 1.18 0 0 1 .16.15z"
        fill="#00873f" />
    <path
        d="m16.73 21.07a.36.36 0 0 0 0-.11l-.06-.08-.06-.05h-.07l-.24-.07a1.28 1.28 0 0 0 .16.28h.13s-.06-.07-.11-.07-.05 0-.06 0h.05a.52.52 0 0 1 -.11-.1c.08 0 .13.1.2.14l.12.08z"
        fill="#00873f" />
    <path d="m17.14 21a0 0 0 0 0 0 0s0 0 0 0a0 0 0 0 1 .07 0 .06.06 0 0 1 -.07 0z" fill="#f00" />
    <path d="m17.27 20.73a.07.07 0 0 0 0-.05s0 0-.05 0a0 0 0 0 0 0 .05.05.05 0 0 0 0 .05c.03.05.06-.01.05-.05z"
        fill="#f00" />
    <path
        d="m16.69 20.73h.09a.1.1 0 0 0 .07-.07.41.41 0 0 0 -.22 0 .24.24 0 0 1 -.14-.05.34.34 0 0 1 .14 0h.08.11a.39.39 0 0 0 -.25-.1h-.14s0 0 0 0a.46.46 0 0 1 .07.07.31.31 0 0 0 .11.09z"
        fill="#00873f" />
    <path
        d="m17 20.84a.08.08 0 0 0 0-.06.21.21 0 0 1 0-.06s0 0 0-.08 0-.07 0-.1v-.11a.53.53 0 0 1 .08-.17l.08.21v.09a.28.28 0 0 1 0 .09.42.42 0 0 1 -.09.19s0-.1 0-.14 0 0 0-.05 0 0 0 0a0 0 0 0 0 0-.05.09.09 0 0 0 0 .06v-.15a0 0 0 0 0 0 0s0 0 0 .06v.06a.65.65 0 0 1 0 .14v.05a.15.15 0 0 0 -.07.02z"
        fill="#00873f" />
    <path
        d="m17.38 20.77s0-.07 0-.11a.14.14 0 0 1 0-.06.32.32 0 0 1 .08-.12.29.29 0 0 1 .12-.1l.05.18a0 0 0 0 1 0 0 .27.27 0 0 0 -.12.09.18.18 0 0 1 0-.1s0 0 0 0a1.21 1.21 0 0 0 -.05.18s0 .09 0 .08 0 0 0 0a.08.08 0 0 0 -.08-.04z"
        fill="#00873f" />
    <path
        d="m17.45 20.88s0-.08.05-.12a.27.27 0 0 1 .08-.1l.12-.07h.2a.68.68 0 0 1 -.13.27l-.1.09h-.05-.07a.29.29 0 0 0 -.13 0l.26-.2s0 0 0 0l-.09.05v-.07a0 0 0 0 0 0 0s0 0 0 .05a.1.1 0 0 1 -.05 0z"
        fill="#00873f" />
    <path
        d="m18 20.86a.3.3 0 0 1 -.21 0 .17.17 0 0 1 -.11.09h.17a1.16 1.16 0 0 1 -.37 0c.05 0 .09.06.15.08a.11.11 0 0 0 .08 0h.06a.18.18 0 0 0 .07 0l.08-.06a.22.22 0 0 1 .08-.11z"
        fill="#00873f" />
    <path
        d="m16.29 20.19a.41.41 0 0 0 .1.13s.05.06.08.07a.27.27 0 0 0 .12 0h.11l-.09-.07h-.11l-.14-.08.15.06a0 0 0 0 1 0 0s0 0 0 0a.05.05 0 0 1 .05 0h.06l-.07-.08a.22.22 0 0 0 -.09-.1c-.05 0-.1 0-.15 0h-.05s0 0-.05 0 0 0 0 0 .07.05.08.07z"
        fill="#00873f" />
    <path
        d="m16.53 20.12a.4.4 0 0 1 -.22-.22.37.37 0 0 1 0-.31 1.13 1.13 0 0 0 .1.13l.06.05a.22.22 0 0 1 .05.08.14.14 0 0 1 0 .06v.09.12a.31.31 0 0 1 -.05-.1.36.36 0 0 1 0-.1s0 0 0 0a.13.13 0 0 0 0 .06.49.49 0 0 1 -.06-.17s0 0 0 0a.26.26 0 0 0 .07.16.51.51 0 0 1 .05.15z"
        fill="#00873f" />
    <path
        d="m16.78 20.34a.27.27 0 0 0 -.08-.07.31.31 0 0 1 -.09-.22.51.51 0 0 1 0-.24.16.16 0 0 0 .06.08.42.42 0 0 1 .12.25.08.08 0 0 1 0 .07s0 .09 0 .13a.56.56 0 0 0 0-.12.14.14 0 0 1 0-.06s0 0 0 0a.09.09 0 0 0 0-.05v.05-.09s0-.05 0-.06-.04.21-.01.33z"
        fill="#00873f" />
    <path
        d="m16.94 20.07h-.05a.24.24 0 0 1 -.09-.07s0 0 0-.06 0-.13 0-.2a.14.14 0 0 1 0-.06.21.21 0 0 0 .09.1.32.32 0 0 1 .08.31.22.22 0 0 0 -.05-.08 0 0 0 0 1 0 0 .06.06 0 0 1 0 0s0 0 0 0v.06-.13s0 0 0 0a.61.61 0 0 0 .05.18z"
        fill="#00873f" />
    <path
        d="m17.42 19.67-.21.1-.06.06s0 .05 0 .07v.11a.12.12 0 0 0 .09-.05.21.21 0 0 0 0-.11 0 0 0 0 1 0 0s0 .05 0 .06a.1.1 0 0 0 .05-.06s0 0 0 0l-.08.13a.2.2 0 0 1 -.06.07h-.06-.06a.3.3 0 0 0 .19 0 .36.36 0 0 0 .1-.15.34.34 0 0 0 .1-.23z"
        fill="#00873f" />
    <path
        d="m17.59 20a.15.15 0 0 1 .07 0 .17.17 0 0 1 .1 0h.1a.24.24 0 0 0 .14 0l-.11.12a.53.53 0 0 1 -.15.08h-.09a.47.47 0 0 1 -.15-.06h-.06a3.49 3.49 0 0 0 .44-.05h-.09s0 0 0 0a.46.46 0 0 1 -.23.05h-.07s0 0 0 0z"
        fill="#00873f" />
    <path d="m17.53 20.23h.29a.09.09 0 0 0 -.06 0h.06a1 1 0 0 0 .16.06l-.14.06h-.09-.1-.07a.12.12 0 0 1 -.05-.12z"
        fill="#00873f" />
    <path
        d="m16.83 19.54a.4.4 0 0 1 -.08-.26.75.75 0 0 1 0-.16s0 0 0 .06a.2.2 0 0 0 .08.08.26.26 0 0 1 .09.09.16.16 0 0 1 0 .13.29.29 0 0 1 0 .09.14.14 0 0 0 0 .09 1 1 0 0 1 -.06-.16.28.28 0 0 0 -.1-.14l.07.13s0 0 0 0a.21.21 0 0 1 0 .07s0 .05 0 .06-.05 0-.06 0z"
        fill="#00873f" />
    <path
        d="m17.13 19.61c.05-.08.06-.19.12-.27a.46.46 0 0 1 .17-.09h.12v.12a.61.61 0 0 1 -.07.14l-.06.08a.48.48 0 0 1 -.23.07.76.76 0 0 1 .09-.09l.05-.05h.05l.07-.08a0 0 0 0 0 0 0 1.22 1.22 0 0 1 -.15.17l-.08.06s-.07-.09-.08-.06z"
        fill="#00873f" />
    <path
        d="m17.56 19.5a.29.29 0 0 1 .07-.16c0-.05.1-.07.13-.12a1 1 0 0 1 0 .24 1.83 1.83 0 0 1 .3-.18 1.8 1.8 0 0 1 0 .19.42.42 0 0 1 0 .1l-.09.08a.29.29 0 0 1 -.13.05.21.21 0 0 1 .15-.15h-.06a.2.2 0 0 0 .08-.12.44.44 0 0 0 -.12.15 1.67 1.67 0 0 1 -.12.16v-.09l-.12.09a.46.46 0 0 1 .07-.16.39.39 0 0 0 .06-.17l-.06.11s0 0 0-.05 0 .07 0 .11-.05.06-.05.09 0-.06 0-.08z"
        fill="#00873f" />
    <path
        d="m17.9 19.68a.26.26 0 0 0 .12-.11s0 0 0-.05a.12.12 0 0 1 .1 0l-.05.07a1.25 1.25 0 0 1 -.09.12.38.38 0 0 1 -.27.08h-.07s0 0 0 0a1.8 1.8 0 0 0 .26-.11z"
        fill="#00873f" />
    <path d="m17 19.18a.1.1 0 0 0 0 0s0 0 .06 0a.07.07 0 0 0 0-.05.06.06 0 0 0 -.05-.06.06.06 0 0 0 -.01.11z"
        fill="#f00" />
    <path
        d="m17.12 19a.4.4 0 0 1 0-.24.88.88 0 0 1 .1-.22 2.21 2.21 0 0 0 .05.25.25.25 0 0 1 0 .07.27.27 0 0 1 0 .12.89.89 0 0 1 -.08.17v-.2a.86.86 0 0 1 0-.16 0 0 0 0 0 0 0v.08s0 0 0 0a.28.28 0 0 1 0 .09v.04s0 0 0 .05 0 0 0 0a.36.36 0 0 1 -.07-.05z"
        fill="#00873f" />
    <path
        d="m17.35 18.91a.66.66 0 0 1 0-.14.23.23 0 0 1 .08-.11h.07a.58.58 0 0 1 .18-.08 1 1 0 0 1 -.06.23.34.34 0 0 1 -.1.16.51.51 0 0 1 -.21.06c.06 0 .08-.11.13-.15h.05a.36.36 0 0 0 .08-.15.76.76 0 0 0 -.08.11s0 0 0 0a0 0 0 0 0 0 0s0 0 0 0a0 0 0 0 1 0 0 .47.47 0 0 0 -.14.07z"
        fill="#00873f" />
    <path
        d="m17.54 19 .06-.05.07-.08.07-.07s0 0 0 0l-.06.06a.3.3 0 0 0 0-.1h.14l-.05.1a.71.71 0 0 1 -.1.14l-.08.06h-.07-.02s0 0 0 0z"
        fill="#00873f" />
    <path
        d="m18.58 23-.07-.06h-.11a.51.51 0 0 0 .09.27h.09l-.13-.21a.1.1 0 0 1 0-.09.3.3 0 0 0 .1.14v-.05a.3.3 0 0 1 0 .1h.11z"
        fill="#00873f" />
    <path
        d="m18.71 23a.17.17 0 0 1 0-.07v-.14a.25.25 0 0 0 -.05-.15 1 1 0 0 1 0 .17l-.06-.05a0 0 0 0 0 0 0 .05.05 0 0 1 0 0s0 0 0 .05 0 0 0 0h-.07s0-.05 0-.08a.29.29 0 0 1 0-.09.29.29 0 0 0 0-.09.83.83 0 0 0 0-.15.58.58 0 0 1 .22.22s0 .08 0 .13a.25.25 0 0 1 -.04.25z"
        fill="#00873f" />
    <g fill="#008f4c">
        <path
            d="m21.56 22.73v-.09c0-.05 0-.1 0-.13a1.09 1.09 0 0 1 -.07.24 1.51 1.51 0 0 1 -.09.18s0 0 0 0a.93.93 0 0 1 .05-.1z" />
        <path d="m21.76 22.45a.34.34 0 0 1 0 .17l-.06.14v.07s0 0 0 0 0 0 0-.05v-.07a1 1 0 0 1 .07-.15z" />
        <path d="m21.83 22.54v.09.09a1.22 1.22 0 0 1 -.07.17v.07s0 0 0 0l.09-.18z" />
        <path
            d="m22.2 22a1.31 1.31 0 0 1 -.15.46l-.14.25-.09.12s-.07.1-.09.07 0-.05 0-.06l.05-.07a1.09 1.09 0 0 1 .08-.15l.16-.29c.05-.09.09-.19.14-.29z" />
        <path
            d="m22.08 22.67a2 2 0 0 0 .47-1.08 1 1 0 0 0 0-.24 1.28 1.28 0 0 1 0 .55 1.25 1.25 0 0 1 -.12.34 2.85 2.85 0 0 1 -.26.41.07.07 0 0 1 -.09.02z" />
        <path
            d="m22.33 21.25s0 0 0 0h.05s0 0 0 .06a.49.49 0 0 1 0 .11 2.25 2.25 0 0 1 .08.24l.06.24.06.24a2.52 2.52 0 0 0 -.19-.81l-.06-.1v.07.09.07s0-.05 0-.07a0 0 0 0 1 0 0 .06.06 0 0 1 0 0z" />
        <path
            d="m22.34 21a.94.94 0 0 1 .17-.31s0 0 0 0a.06.06 0 0 1 .07 0 .2.2 0 0 1 .08.15 4.68 4.68 0 0 1 .08.54v.38.13a.88.88 0 0 0 0 .28 4.84 4.84 0 0 0 0-.85 1.49 1.49 0 0 0 -.19-.69.09.09 0 0 0 -.06-.06.08.08 0 0 0 -.07 0l-.05.06a1.26 1.26 0 0 0 -.03.37z" />
        <path
            d="m22.53 20.8a.59.59 0 0 1 .06-.14l.05-.05s0 0 0 0a.08.08 0 0 1 .08 0 .2.2 0 0 1 0 .08 1.86 1.86 0 0 1 .11.58c0 .19 0 .39.05.58a1.14 1.14 0 0 0 0-.32v-.33a3.55 3.55 0 0 0 -.08-.47 1 1 0 0 0 -.08-.18.2.2 0 0 0 -.08-.08.05.05 0 0 0 0 0 1.15 1.15 0 0 0 -.11.33z" />
        <path
            d="m23.11 20.64a.41.41 0 0 1 .08.27 2.17 2.17 0 0 0 -.51-.69s0 0 0 0 0 0 .05 0l.12.1a1.2 1.2 0 0 1 .22.23z" />
        <path
            d="m22.65 19.94c.07.07.13.15.19.22s.11.13.15.2a.44.44 0 0 1 .06.25.81.81 0 0 1 -.1-.21.85.85 0 0 0 -.24-.32l-.14-.14-.08-.07s0 0-.06-.07h.06z" />
        <path
            d="m22.84 20 .07.11.12.23s0 .09.06.05a.06.06 0 0 0 0 0 1.59 1.59 0 0 0 -.07-.2 1.46 1.46 0 0 0 -.22-.35 3.82 3.82 0 0 0 -.55-.51.05.05 0 0 0 0 0z" />
        <path
            d="m23.05 20.15a2.46 2.46 0 0 0 -.34-.56.93.93 0 0 0 -.13-.15c-.06-.07-.13-.12-.19-.19l.07.05a1.64 1.64 0 0 1 .3.29l.14.18a.76.76 0 0 1 .12.19.49.49 0 0 1 .03.19z" />
        <path d="m22.88 19.16-.24-.07-.22-.09c0-.1-.17-.14-.25-.21l-.05-.06.07.06.17.1.19.1a2.52 2.52 0 0 1 .33.17z" />
        <path
            d="m22.49 19c.05.1.11.19.17.29l.07.11a.5.5 0 0 1 -.12-.13 2.16 2.16 0 0 1 -.18-.3.44.44 0 0 1 -.06-.16.24.24 0 0 1 0-.08 0 0 0 0 0 0 0v-.13a0 0 0 0 1 0 0s0 0 0 0v.08.09a.87.87 0 0 0 .12.23z" />
        <path
            d="m22.88 19.17a.91.91 0 0 1 -.23-.21v-.06a1 1 0 0 1 -.18-.41v.06l.06.12a2.39 2.39 0 0 0 .13.21 1.89 1.89 0 0 0 .22.29z" />
        <path
            d="m22.69 18.58a.88.88 0 0 1 .07.23l.06.28a.35.35 0 0 1 -.06-.14 3.12 3.12 0 0 0 -.17-.46 1.39 1.39 0 0 1 -.06-.13v.05s0 0 0 0a.54.54 0 0 1 .16.17z" />
        <path
            d="m22.93 19.2a.76.76 0 0 0 0 .26.84.84 0 0 0 .16.33v-.07a.64.64 0 0 1 0-.07.59.59 0 0 0 0-.13 2.72 2.72 0 0 1 0-.28 2.81 2.81 0 0 1 -.09-.24.13.13 0 0 0 0-.06s0-.06 0-.08a.1.1 0 0 0 0 .07c0 .1-.05.19-.07.28z" />
        <path
            d="m23.05 19.93a1.3 1.3 0 0 1 0-.44 1.5 1.5 0 0 1 .15-.42l.17-.34a.06.06 0 0 1 0 0s0 0 0 .05a1.07 1.07 0 0 0 -.1.22c0 .09-.05.18-.08.28a3 3 0 0 0 -.12.54.09.09 0 0 1 -.02.11z" />
        <path
            d="m23.19 19.71a3.16 3.16 0 0 1 .47-.62s0 0 0 0l-.06.08a3.21 3.21 0 0 0 -.19.31.56.56 0 0 0 -.05.08s0 0 0 0l-.08.17-.06.1s0 0 0 .05 0 0 0 0a.55.55 0 0 1 .1-.25z" />
        <path d="m23.77 19.23a2.75 2.75 0 0 0 -.6.84.56.56 0 0 0 -.06.21.45.45 0 0 0 .15-.21 4 4 0 0 1 .51-.84z" />
        <path
            d="m23.72 19.58a1.11 1.11 0 0 0 -.31.48l-.11.24-.05.11s0 .08 0 .12a1 1 0 0 0 0 .3.55.55 0 0 0 .06-.18 3.51 3.51 0 0 1 .3-.73 1.86 1.86 0 0 1 .11-.34z" />
        <path
            d="m23.2 21.1s0-.07 0-.11a.34.34 0 0 1 0-.1 1.6 1.6 0 0 1 .05-.21 1.54 1.54 0 0 1 .08-.19c0-.06.06-.12.08-.18l.09-.21a4.19 4.19 0 0 1 .31-.5 7.27 7.27 0 0 0 -.52 1.26c-.01.08-.05.14-.09.24z" />
        <path
            d="m23.39 20.53.32-.41a1.57 1.57 0 0 1 .33-.3l.15-.09a6.46 6.46 0 0 0 -.8 1 .63.63 0 0 1 -.11.12.76.76 0 0 1 .11-.32z" />
        <path
            d="m23.23 21 .35-.33a3.7 3.7 0 0 0 .33-.36l.13-.17a.78.78 0 0 1 -.14.29c-.06.08-.14.15-.21.23l-.25.23a.59.59 0 0 1 -.2.12z" />
        <path
            d="m23.21 21.48a4 4 0 0 1 .83-1 2 2 0 0 0 -.49.47 3.59 3.59 0 0 0 -.37.5 1.31 1.31 0 0 0 -.18.5.52.52 0 0 0 .06-.13 2 2 0 0 1 .15-.34z" />
        <path
            d="m23.3 21.29v-.13a.36.36 0 0 0 0-.11.31.31 0 0 1 0 .12s0 .09 0 .13a1 1 0 0 1 0 .25s0 .05 0 0 0 0 0-.06a.8.8 0 0 0 0-.15.28.28 0 0 1 0-.05z" />
        <path
            d="m23 21.9a1.39 1.39 0 0 1 .56-.66l.29-.17.15-.07h.06a.1.1 0 0 1 -.06 0c-.17.12-.34.25-.49.38a2.61 2.61 0 0 0 -.51.52z" />
        <path d="m23.14 21.76s0 0 0 0h.1l.16-.12.29-.21.14-.1.07-.05s0 0 0 0h-.08l-.13.07-.26.17-.25.19z" />
        <path
            d="m23.61 21.68a2.46 2.46 0 0 1 .63-.21 1 1 0 0 0 -.39 0 2.78 2.78 0 0 0 -.38.12 1.26 1.26 0 0 0 -.26.13l-.13.1-.06.07s0 0 0 0c.12 0 .24-.1.36-.15z" />
        <path
            d="m23.83 21.69a1.19 1.19 0 0 0 .35-.39 6.39 6.39 0 0 1 -1.33 1l-.27.16a.11.11 0 0 0 -.07.06.22.22 0 0 0 .16 0l.15-.06a1.1 1.1 0 0 0 .21-.14c.07 0 .13-.1.2-.15l.4-.3z" />
        <path d="m24.11 21.75a2.27 2.27 0 0 1 -.25.06l-.34.06-.29.05h-.14-.09a.06.06 0 0 1 0 0h.07.12.12l.49-.07z" />
        <path d="m23.05 22.11.7-.21a1.42 1.42 0 0 1 -.45.16 2.85 2.85 0 0 1 -.39.11h-.11s0 0 0 0h.07z" />
        <path d="m24 22a3.29 3.29 0 0 1 -.54.14l-.66.12s0 0-.05 0 0 0 0 0 0 0 .06 0h.13l.26-.05.26-.05.24-.16z" />
        <path
            d="m22.53 22.56.33-.09.56-.13a5.52 5.52 0 0 1 -.53.18c-.11 0-.21.09-.32.12a1 1 0 0 1 -.17 0h-.08l.05-.05z" />
        <path d="m22.43 22.66a3.68 3.68 0 0 1 .74 0h.06-.87s0 0 0 0z" />
        <path d="m23 22.78a.07.07 0 0 1 -.06 0h-.44-.27-.11s0 0 0 0h.07a1 1 0 0 1 .25 0h.25.26z" />
        <path
            d="m21.93 22.94h.26.26a2.85 2.85 0 0 1 .29 0 1.83 1.83 0 0 1 -.47 0l-.27.06h-.2s0 0 0 0a.61.61 0 0 1 .13-.06z" />
        <path
            d="m23.09 21.79a.18.18 0 0 0 -.07.05l-.06.08a.24.24 0 0 0 -.06.08.5.5 0 0 1 -.29.22s0 0 0 0a1.14 1.14 0 0 0 .49-.25.79.79 0 0 0 .12-.15s0-.05 0-.06z" />
    </g>
    <path
        d="m20.19 22.52a.37.37 0 0 0 -.34-.21h-.57c-.36 0-.83-.08-.83-.83v-3l-.45-.48h4.45l-.46.48v3a.73.73 0 0 1 -.84.83h-.57a.37.37 0 0 0 -.34.21zm-2.19-4.52.43.44v3a.71.71 0 0 0 .81.81h.57a.43.43 0 0 1 .36.2.39.39 0 0 1 .35-.2h.57a.71.71 0 0 0 .81-.81v-3l.43-.44z" />
</svg>