<svg viewBox="0 0 540 540" xmlns="http://www.w3.org/2000/svg">
    <rect fill="#039" height="540" rx="270" width="540" />
    <g fill="#fc0">
        <path d="m268.53 60.45-9.27 28.55 14.27 4.63z" />
        <path d="m268.53 60.45 9.27 28.55-14.26 4.63z" />
        <path d="m297.06 81.18h-30v15z" />
        <path d="m297.06 81.18-24.27 17.64-8.79-12.14z" />
        <path d="m286.17 114.72-9.28-28.53-14.26 4.64z" />
        <path d="m286.17 114.72-24.28-17.63 8.82-12.09z" />
        <path d="m240 81.18h30v15z" />
        <path d="m240 81.18 24.27 17.64 8.82-12.14z" />
        <path d="m250.9 114.72 9.27-28.53 14.26 4.64z" />
        <path d="m250.9 114.72 24.27-17.63-8.82-12.09z" />
        <path d="m268.53 420.45-9.27 28.55 14.27 4.63z" />
        <path d="m268.53 420.45 9.27 28.55-14.26 4.63z" />
        <path d="m297.06 441.18h-30v15z" />
        <path d="m297.06 441.18-24.27 17.64-8.79-12.14z" />
        <path d="m286.17 474.72-9.28-28.53-14.26 4.64z" />
        <path d="m286.17 474.72-24.28-17.63 8.82-12.09z" />
        <path d="m240 441.18h30v15z" />
        <path d="m240 441.18 24.27 17.64 8.82-12.14z" />
        <path d="m250.9 474.72 9.27-28.53 14.26 4.64z" />
        <path d="m250.9 474.72 24.27-17.63-8.82-12.09z" />
        <path d="m88.53 240.45-9.27 28.55 14.27 4.63z" />
        <path d="m88.53 240.45 9.27 28.55-14.26 4.63z" />
        <path d="m117.06 261.18h-30v15z" />
        <path d="m117.06 261.18-24.27 17.64-8.79-12.14z" />
        <path d="m106.17 294.72-9.28-28.53-14.26 4.64z" />
        <path d="m106.17 294.72-24.28-17.63 8.82-12.09z" />
        <path d="m60 261.18h30v15z" />
        <path d="m60 261.18 24.27 17.64 8.82-12.14z" />
        <path d="m70.9 294.72 9.27-28.53 14.26 4.64z" />
        <path d="m70.9 294.72 24.27-17.63-8.82-12.09z" />
        <path d="m160.9 138.84 24.27-17.63-8.82-12.14z" />
        <path d="m160.9 138.84 9.27-28.53 14.26 4.63z" />
        <path d="m150 105.3 24.27 17.63 8.82-12.13z" />
        <path d="m150 105.3h30v15z" />
        <path d="m178.53 84.57-9.27 28.53 14.27 4.64z" />
        <path d="m178.53 84.57 9.27 28.53-14.26 4.64z" />
        <path d="m196.17 138.84-24.28-17.63 8.82-12.14z" />
        <path d="m196.17 138.84-9.28-28.53-14.26 4.63z" />
        <path d="m207.06 105.3-24.27 17.63-8.79-12.13z" />
        <path d="m207.06 105.3h-30v15z" />
        <path d="m130.28 204.72-9.28-28.53-14.27 4.64z" />
        <path d="m130.28 204.72-24.28-17.63 8.83-12.09z" />
        <path d="m95 204.72 24.27-17.63-8.8-12.09z" />
        <path d="m95 204.72 9.27-28.53 14.27 4.64z" />
        <path d="m84.12 171.18 24.27 17.64 8.81-12.14z" />
        <path d="m84.12 171.18h30v15z" />
        <path d="m141.18 171.18-24.27 17.64-8.82-12.14z" />
        <path d="m141.18 171.18h-30v15z" />
        <path d="m112.65 150.45 9.27 28.55-14.27 4.63z" />
        <path d="m112.65 150.45-9.27 28.55 14.26 4.63z" />
        <path d="m141.18 351.18h-30v15z" />
        <path d="m141.18 351.18-24.27 17.64-8.82-12.14z" />
        <path d="m130.28 384.72-9.28-28.53-14.27 4.64z" />
        <path d="m130.28 384.72-24.28-17.63 8.83-12.09z" />
        <path d="m95 384.72 24.27-17.63-8.8-12.09z" />
        <path d="m95 384.72 9.27-28.53 14.27 4.64z" />
        <path d="m112.65 330.45 9.27 28.55-14.27 4.63z" />
        <path d="m112.65 330.45-9.27 28.55 14.26 4.63z" />
        <path d="m84.12 351.18h30v15z" />
        <path d="m84.12 351.18 24.27 17.64 8.81-12.14z" />
        <path d="m207.06 417.07h-30v15z" />
        <path d="m207.06 417.07-24.27 17.63-8.79-12.13z" />
        <path d="m196.17 450.61-9.28-28.53-14.26 4.63z" />
        <path d="m196.17 450.61-24.28-17.61 8.82-12.14z" />
        <path d="m160.9 450.61 24.27-17.61-8.82-12.14z" />
        <path d="m160.9 450.61 9.27-28.53 14.26 4.63z" />
        <path d="m178.53 396.34 9.27 28.53-14.26 4.64z" />
        <path d="m178.53 396.34-9.27 28.53 14.27 4.64z" />
        <path d="m150 417.07h30v15z" />
        <path d="m150 417.07 24.27 17.63 8.82-12.13z" />
        <path d="m448.53 240.45 9.27 28.55-14.26 4.63z" />
        <path d="m448.53 240.45-9.27 28.55 14.27 4.63z" />
        <path d="m420 261.18h30v15z" />
        <path d="m420 261.18 24.27 17.64 8.82-12.14z" />
        <path d="m430.9 294.72 9.27-28.53 14.26 4.64z" />
        <path d="m430.9 294.72 24.27-17.63-8.82-12.09z" />
        <path d="m477.06 261.18h-30v15z" />
        <path d="m477.06 261.18-24.27 17.64-8.79-12.14z" />
        <path d="m466.17 294.72-9.28-28.53-14.26 4.64z" />
        <path d="m466.17 294.72-24.28-17.63 8.82-12.09z" />
        <path d="m376.17 138.84-24.28-17.63 8.82-12.14z" />
        <path d="m376.17 138.84-9.28-28.53-14.26 4.63z" />
        <path d="m387.06 105.3-24.27 17.63-8.79-12.13z" />
        <path d="m387.06 105.3h-30v15z" />
        <path d="m358.53 84.57 9.27 28.53-14.26 4.64z" />
        <path d="m358.53 84.57-9.27 28.53 14.27 4.64z" />
        <path d="m340.9 138.84 24.27-17.63-8.82-12.14z" />
        <path d="m340.9 138.84 9.27-28.53 14.26 4.63z" />
        <path d="m330 105.3 24.27 17.63 8.82-12.13z" />
        <path d="m330 105.3h30v15z" />
        <path d="m406.78 204.72 9.27-28.53 14.27 4.64z" />
        <path d="m406.78 204.72 24.27-17.63-8.81-12.09z" />
        <path d="m442.05 204.72-24.27-17.63 8.82-12.09z" />
        <path d="m442.05 204.72-9.27-28.53-14.27 4.64z" />
        <path d="m453 171.18-24.27 17.64-8.82-12.14z" />
        <path d="m453 171.18h-30v15z" />
        <path d="m395.88 171.18 24.28 17.64 8.84-12.14z" />
        <path d="m395.88 171.18h30v15z" />
        <path d="m424.42 150.45-9.27 28.55 14.26 4.63z" />
        <path d="m424.42 150.45 9.27 28.55-14.27 4.63z" />
        <path d="m395.88 351.18h30v15z" />
        <path d="m395.88 351.18 24.28 17.64 8.84-12.14z" />
        <path d="m406.78 384.72 9.27-28.53 14.27 4.64z" />
        <path d="m406.78 384.72 24.27-17.63-8.81-12.09z" />
        <path d="m442.05 384.72-24.27-17.63 8.82-12.09z" />
        <path d="m442.05 384.72-9.27-28.53-14.27 4.64z" />
        <path d="m424.42 330.45-9.27 28.55 14.26 4.63z" />
        <path d="m424.42 330.45 9.27 28.55-14.27 4.63z" />
        <path d="m453 351.18h-30v15z" />
        <path d="m453 351.18-24.27 17.64-8.82-12.14z" />
        <path d="m330 417.07h30v15z" />
        <path d="m330 417.07 24.27 17.63 8.82-12.13z" />
        <path d="m340.9 450.61 9.27-28.53 14.26 4.63z" />
        <path d="m340.9 450.61 24.27-17.61-8.82-12.14z" />
        <path d="m376.17 450.61-24.28-17.61 8.82-12.14z" />
        <path d="m376.17 450.61-9.28-28.53-14.26 4.63z" />
        <path d="m358.53 396.34-9.27 28.53 14.27 4.64z" />
        <path d="m358.53 396.34 9.27 28.53-14.26 4.64z" />
        <path d="m387.06 417.07h-30v15z" />
        <path d="m387.06 417.07-24.27 17.63-8.79-12.13z" />
    </g>
</svg>