<svg viewBox="0 0 40.5 40.5" xmlns="http://www.w3.org/2000/svg">
    <path d="m39.34 13.5h-38.18a20.25 20.25 0 0 1 38.18 0z" fill="#3e9a00" />
    <path d="m40.5 20.25a19.9 19.9 0 0 1 -1.16 6.75h-38.18a20.22 20.22 0 0 1 0-13.5h38.18a20 20 0 0 1 1.16 6.75z"
        fill="#fff" />
    <path d="m39.34 27a20.23 20.23 0 0 1 -38.18 0z" fill="#e32118" />
    <path
        d="m20.26 24.92-.05-.2a.68.68 0 0 0 -.71-.46h-.3a2.54 2.54 0 0 1 -1.87-.37 1.3 1.3 0 0 1 -.36-1v-6.74h6.57v6.77a1.38 1.38 0 0 1 -.38 1 2.37 2.37 0 0 1 -1.79.31h-.36a.69.69 0 0 0 -.71.46zm-.76-.76a.79.79 0 0 1 .75.41.82.82 0 0 1 .76-.41h.37a2.32 2.32 0 0 0 1.71-.28 1.3 1.3 0 0 0 .35-1v-6.63h-6.37v6.67a1.21 1.21 0 0 0 .33.91 2.51 2.51 0 0 0 1.79.34z" />
    <path d="m21.13 14.25.18.34.38.01-.2.33.18.34-.38-.02-.21.33-.18-.34-.38-.02.2-.32-.18-.34.39.01z" fill="#ffd700" />
    <path
        d="m21.08 15.64-.2-.37h-.42l.22-.36-.19-.37h.42l.22-.36.2.38h.42l-.22.36.19.37h-.42zm-.5-.45h.34l.16.31.19-.29h.34l-.16-.3.18-.3h-.34l-.16-.3-.19.29h-.34l.16.3z" />
    <path d="m22.92 14.51.1.37.36.11-.27.27.1.37-.37-.11-.27.27-.1-.37-.37-.1.27-.27-.09-.37.37.1z" fill="#ffd700" />
    <path
        d="m22.55 15.86-.11-.41-.4-.11.3-.3-.11-.41.41.11.3-.29.1.41.41.11-.3.3.11.4-.41-.11zm-.38-.56.33.09.08.34.25-.24.33.09-.09-.34.25-.24-.32-.09-.09-.33-.24.24-.34-.09.09.33z" />
    <path d="m24.59 15.04.02.39.34.17-.32.21.02.38-.34-.17-.32.21-.02-.38-.35-.18.33-.21-.03-.38.35.17z"
        fill="#ffd700" />
    <path
        d="m24 16.29v-.42l-.37-.19.35-.23v-.43l.37.2.36-.24v.43l.38.19-.36.23v.42l-.38-.19zm-.27-.62.31.15v.35l.29-.19.3.15v-.34l.29-.19-.31-.15v-.35l-.29.19-.32-.15v.34z" />
    <path
        d="m21 23.25s.25.56-.37.37c0 0-.22.32-.43 0s-.25.3-.42 0c0 0-.42.17-.29-.17a9.36 9.36 0 0 0 .46-1.53 10.85 10.85 0 0 0 .05-1.8c0-.61 0-.95-.48-1.19s.18-.17.18-.17.42.3.45.4v-.64h.3v.56a3.5 3.5 0 0 1 .53-.4c.16-.08.31.13.31.13s-.83.34-.83.94a16.28 16.28 0 0 0 .07 2.09 9.36 9.36 0 0 0 .47 1.41z"
        fill="#a36629" />
    <path
        d="m20.35 23.77a.23.23 0 0 1 -.2-.13.32.32 0 0 1 -.22.13c-.07 0-.13-.06-.19-.17s-.21.08-.29 0 0-.1 0-.2 0-.11.06-.18a6.74 6.74 0 0 0 .4-1.34c0-.08 0-.18 0-.29a9.84 9.84 0 0 0 .1-1.48v-.06c0-.58 0-.89-.47-1.12-.13-.06-.18-.11-.17-.14s.29-.05.35-.05a2.75 2.75 0 0 1 .44.37v-.6h.31v.54a3.35 3.35 0 0 1 .53-.35c.16-.08.31.13.32.13s-.82.35-.82.93v.32a12.84 12.84 0 0 0 .07 1.77 11.32 11.32 0 0 0 .43 1.4s.11.25 0 .36-.19.08-.38 0a.34.34 0 0 1 -.27.16zm-.2-.15a.22.22 0 0 0 .19.13c.12 0 .23-.14.23-.14.18.06.3.05.36 0s0-.34 0-.34a10.6 10.6 0 0 1 -.38-1.39 12.78 12.78 0 0 1 -.07-1.77v-.32c0-.56.72-.9.82-.94s-.15-.19-.28-.12a2.94 2.94 0 0 0 -.53.4v-.55h-.28v.63s0 0 0 0c0-.1-.41-.38-.45-.4s-.31 0-.32 0 0 .05.16.13c.44.22.46.55.48 1.13v.06a9.84 9.84 0 0 1 -.08 1.47v.29a6.56 6.56 0 0 1 -.4 1.35c0 .07-.05.13-.06.18s0 .14 0 .18.27 0 .27 0c.05.11.11.16.17.17a.3.3 0 0 0 .23-.13z" />
    <path
        d="m21 23.25s.25.56-.37.37c0 0-.22.32-.43 0 0-.59.08-1.56.07-1.9 0-.51 0-1.54 0-2 0-.3 0-1.18 0-1.18h.3v.56a3.5 3.5 0 0 1 .53-.4c.16-.08.31.13.31.13s-.83.34-.83.94a16.28 16.28 0 0 0 .07 2.09 9.36 9.36 0 0 0 .35 1.39z"
        fill="#73452b" />
    <path
        d="m20.35 23.77a.25.25 0 0 1 -.21-.13c0-.57.08-1.56.07-1.9v-.6c0-.51 0-1.09 0-1.43s0-1.17 0-1.18h.31v.54a3.35 3.35 0 0 1 .48-.37c.16-.08.31.13.32.13s-.82.35-.82.93v.32a12.84 12.84 0 0 0 .07 1.77 11.32 11.32 0 0 0 .43 1.4s.11.25 0 .36-.19.08-.38 0a.34.34 0 0 1 -.27.16zm-.19-.15a.22.22 0 0 0 .19.13c.12 0 .23-.14.23-.14.18.06.3.05.36 0s0-.34 0-.34a10.6 10.6 0 0 1 -.38-1.39 12.78 12.78 0 0 1 -.07-1.77v-.32c0-.56.72-.9.82-.94s-.15-.19-.28-.12a2.94 2.94 0 0 0 -.53.4v-.55h-.28v1.17s0 .92 0 1.43v.59c.02.3-.03 1.29-.06 1.85z" />
    <path d="m19.45 14.25-.18.34-.38.01.2.33-.18.34.39-.02.2.33.18-.34.38-.02-.2-.32.18-.34-.39.01z" fill="#ffd700" />
    <path
        d="m19.5 15.64-.22-.35h-.42l.19-.37-.22-.36h.42l.2-.38.22.36h.42l-.19.37.22.36h-.42zm-.19-.42.19.29.16-.31h.34l-.18-.29.16-.3h-.34l-.19-.29-.16.3h-.29l.18.3-.16.3z" />
    <path d="m17.66 14.51-.09.37-.37.11.27.27-.1.37.37-.11.27.27.1-.37.37-.1-.27-.27.09-.37-.37.1z" fill="#ffd700" />
    <path
        d="m18 15.86-.3-.3-.41.11.11-.4-.3-.3.41-.11.1-.41.3.29.41-.11-.11.41.31.3-.41.11zm-.28-.37.25.24.08-.34.33-.09-.24-.24.09-.33-.34.09-.24-.24-.09.33-.33.09.25.24-.09.34z" />
    <path d="m15.99 15.04-.02.39-.34.17.32.21-.02.38.34-.17.32.21.02-.38.35-.18-.32-.21.02-.38-.34.17z"
        fill="#ffd700" />
    <path
        d="m16.62 16.29-.35-.23-.38.19v-.42l-.36-.23.38-.19.09-.41.36.24.37-.2v.43l.35.23-.37.19zm-.35-.29.29.19v-.35l.31-.15-.29-.19v-.34l-.31.15-.27-.21v.35l-.31.15.29.19v.34z" />
    <path
        d="m22.84 18.22a.38.38 0 0 0 -.43-.42c-.27 0-.08.06-.08-.14a.19.19 0 0 0 -.17-.19h-.07-.08c-.06-.12-.08-.22-.3-.22s-.1.09-.2.15h-.11c-.19 0-.13 0-.19.11a.29.29 0 0 0 -.27-.24c-.11 0-.12 0-.12 0v-.08a.52.52 0 0 0 -.53-.46.33.33 0 0 0 -.36.23 1 1 0 0 0 -.2 0c-.12 0-.17.05-.17.16s.05.06.07.12h-.1a.11.11 0 0 0 -.1.11v.08h-.1a.28.28 0 0 0 -.24.23s0 .05 0 .07a.24.24 0 0 1 0 .08.12.12 0 0 0 -.08 0c-.2 0-.2.09-.2.15v.18s-.23.08-.23.16.07.16.12.28c-.06 0-.13 0-.15.08s0 .07 0 .09 0 0-.06 0a.11.11 0 0 0 -.12.11c0 .07 0 0-.18 0a.22.22 0 0 0 -.24.23h-.13a.22.22 0 0 0 -.19.13.18.18 0 0 0 .19.16h.06c.08 0 .13.17.35.17a.35.35 0 0 0 .14-.06.54.54 0 0 0 .12-.18c.1 0 .15.13.28.13h.08s0 0 0 0a.37.37 0 0 0 .33.17c.15 0 .27-.06.27-.22s0-.16 0-.2h.11c.14 0 .21-.07.22-.16v-.1s0-.06 0-.06h.06c.15 0 .06-.11.15-.19s0 0 0 0a.48.48 0 0 0 .31.15c.23 0 .26-.1.4-.13a.51.51 0 0 0 .49.31h.19c.09 0 .2.28.34.28h.07c.33 0 .32-.16.44-.18a.35.35 0 0 0 .16 0c.16 0 .36 0 .41-.17s0 0 0 0h.05a.35.35 0 0 0 .2-.28.32.32 0 0 0 -.21-.44z"
        fill="#009a3b" />
    <path
        d="m19.18 19.61a.37.37 0 0 1 -.34-.18s0 0 0 0h-.08a.33.33 0 0 1 -.18-.07.24.24 0 0 0 -.09-.06.62.62 0 0 1 -.13.18.35.35 0 0 1 -.14.06.36.36 0 0 1 -.27-.12.15.15 0 0 0 -.08-.05h-.06a.19.19 0 0 1 -.2-.17.21.21 0 0 1 .2-.14h.12a.25.25 0 0 1 .07-.17.24.24 0 0 1 .18-.06.45.45 0 0 1 .17 0 .12.12 0 0 1 .13-.12h.06s0 0 0 0v-.05c0-.06.08-.07.13-.08l-.06-.1a.32.32 0 0 1 -.06-.18c0-.08.19-.15.23-.17v-.16c0-.06 0-.16.21-.16a.2.2 0 0 1 .07 0 .08.08 0 0 0 0-.06v-.07a.29.29 0 0 1 .25-.24h.1v-.07a.11.11 0 0 1 .11-.12h.09a.09.09 0 0 1 0-.08c0-.12.06-.17.18-.17h.19a.35.35 0 0 1 .37-.23.52.52 0 0 1 .54.47v.08s0 0 0 0h.1a.3.3 0 0 1 .28.23s0-.06.17-.06h.11a.15.15 0 0 0 .05-.07c0-.05 0-.08.15-.08a.26.26 0 0 1 .29.2h.07.07a.21.21 0 0 1 .18.2.21.21 0 0 1 0 .14h.11a.48.48 0 0 1 .35.13.4.4 0 0 1 .09.29.33.33 0 0 1 .29.36.35.35 0 0 1 -.21.29h-.05s0 0 0 0v.05c-.05.15-.27.17-.42.17a.55.55 0 0 1 -.16 0s-.06 0-.09.05a.41.41 0 0 1 -.35.13h-.07c-.09 0-.17-.1-.24-.18s-.07-.09-.1-.1h-.19a.54.54 0 0 1 -.5-.31h-.11a.44.44 0 0 1 -.28.08.53.53 0 0 1 -.31-.14.16.16 0 0 0 -.05.1s0 .09-.11.09-.07 0-.07.05v.06a.21.21 0 0 1 -.23.17h-.09s0 .05 0 .08a.49.49 0 0 1 0 .12c-.11.16-.21.24-.39.24zm-.36-.22s0 0 0 0a.34.34 0 0 0 .32.16c.1 0 .26 0 .26-.2a.49.49 0 0 0 0-.12s0-.06 0-.08a0 0 0 0 1 0 0h.1a.19.19 0 0 0 .21-.16v-.08s0-.08.06-.08h.06c.08 0 .08 0 .09-.08a.34.34 0 0 1 .05-.11.47.47 0 0 0 .31.15.41.41 0 0 0 .27-.08h.13a.5.5 0 0 0 .48.31h.2s.07.06.11.11.14.17.22.17h.07a.39.39 0 0 0 .33-.12.15.15 0 0 1 .1-.06.32.32 0 0 0 .15 0c.15 0 .35 0 .4-.16s0 0 0 0a.31.31 0 0 0 .2-.27.31.31 0 0 0 -.27-.34h-.05a.39.39 0 0 0 -.09-.29.42.42 0 0 0 -.33-.12h-.15s0 0 0 0a.17.17 0 0 0 .06-.14.18.18 0 0 0 -.16-.18h-.07-.07a.25.25 0 0 0 -.28-.19c-.1 0-.11 0-.13.06a.16.16 0 0 1 -.06.09h-.12c-.12 0-.13 0-.15.05s0 0 0 .05c0-.13-.16-.23-.26-.23h-.12a.07.07 0 0 1 0-.05v-.08a.5.5 0 0 0 -.52-.45.32.32 0 0 0 -.35.23h-.21c-.11 0-.16 0-.16.15s0 .05 0 .06v.05h-.11a.09.09 0 0 0 -.09.1v.08s0 0 0 0h-.1a.27.27 0 0 0 -.23.22v.07a.24.24 0 0 1 0 .08s0 0 0 0h-.07c-.19 0-.19.07-.19.13v.18c-.07 0-.23.09-.23.15a.29.29 0 0 0 .06.17l.06.1s0 0 0 0-.09 0-.11.06 0 0 0 0a.17.17 0 0 1 0 .05h-.07a.1.1 0 0 0 -.11.1s0 0 0 0a.41.41 0 0 0 -.17 0 .22.22 0 0 0 -.17.06.25.25 0 0 0 -.06.16h-.14a.21.21 0 0 0 -.18.12.17.17 0 0 0 .18.15h.06s.06 0 .1.06a.31.31 0 0 0 .25.11l.13-.05a.66.66 0 0 0 .12-.19.3.3 0 0 1 .11.06.22.22 0 0 0 .16.07h.08z" />
    <path d="m18.82 19.4a0 0 0 0 1 0 0c.11-.21.19-.22.29-.22h.05s0 0 0 0c-.09 0-.16 0-.27.21z" />
    <path d="m19 19.19a.22.22 0 0 0 -.2-.17c-.06 0-.07 0-.09 0a0 0 0 0 1 0 0s0 0 .1 0 .17.06.22.19 0 0 0 0z" />
    <path
        d="m19 18.56a.21.21 0 0 0 -.17-.06.27.27 0 0 0 -.14 0h-.06s0 0 0 0h.06a.32.32 0 0 1 .15 0 .22.22 0 0 1 .18.06s0 0 0 0z" />
    <path
        d="m19.38 18.75s0 0 0 0h.16s.08 0 .09 0 .06-.11.12-.11a0 0 0 0 1 0 0s-.09.06-.1.09-.07 0-.11 0h-.14a0 0 0 0 1 -.02.02z" />
    <path
        d="m19.31 18.23a.16.16 0 0 0 -.17-.08h-.14a0 0 0 0 1 0 0h.11c.11 0 .12 0 .19.09a.2.2 0 0 0 .07-.1.21.21 0 0 1 .23-.14c-.14 0-.17.05-.2.1a.26.26 0 0 1 -.08.11z" />
    <path
        d="m19.87 17.76s0 0 0 0v-.06a.2.2 0 0 0 -.14-.2c-.08 0-.08 0-.09 0s0 0 0 .07a0 0 0 0 1 0 0c0-.07-.07-.12-.16-.12a0 0 0 0 1 0 0 .17.17 0 0 1 .17.13.09.09 0 0 0 0 0s0-.05.11-.05a.22.22 0 0 1 .16.22v.06z" />
    <path
        d="m20.48 17.62a.09.09 0 0 0 -.08-.05.33.33 0 0 0 -.14 0 .33.33 0 0 1 .15 0 .13.13 0 0 1 .09.05.35.35 0 0 1 .3-.3 0 0 0 0 1 0 0 .33.33 0 0 0 -.28.28s-.02.02-.04.02z" />
    <path d="m20.75 18.68s0 0 0 0 0-.05 0-.07a.16.16 0 0 1 .09-.16.14.14 0 0 0 -.08.14s0 0 0 .06z" />
    <path
        d="m21.1 17.94s0 0 0 0a.22.22 0 0 0 .07-.16.31.31 0 0 0 0-.08.17.17 0 0 1 0-.12s0 0 0 0a.15.15 0 0 0 0 .11.19.19 0 0 1 0 .08.3.3 0 0 1 -.08.18z" />
    <path
        d="m21.82 18.51-.08-.08a.7.7 0 0 0 -.15-.13h-.11s0 0 0 0h.12s.07 0 .16.14l.08.07.13-.1h.15s0 0 0 0h-.12l-.13.1z" />
    <path d="m21.9 18a.76.76 0 0 1 .34-.13 0 0 0 0 1 0 0 .66.66 0 0 0 -.32.12z" />
    <path d="m21.44 19c.06-.12.1-.13.18-.15h.1s0 0 0 0h-.1c-.09 0-.12 0-.17.14z" />
    <path d="m22.27 19.08v-.08a.25.25 0 0 0 -.08-.18s0 0 0 0a.26.26 0 0 1 .09.19v.07z" />
    <path
        d="m22.85 18.86a.22.22 0 0 0 -.16-.05h-.06s0 0 0 0a.17.17 0 0 1 -.05-.12s0 0-.13-.09 0 0 0 0 .15.07.14.11a.14.14 0 0 0 0 .1s0 0 .07 0a.21.21 0 0 1 .17.06s0 0 0 0z" />
    <path
        d="m20.48 18.32c-.09-.12-.2-.26-.34-.26h-.14s0 0 0 0h.08c.15 0 .26.15.35.26v.05a.29.29 0 0 1 .25-.15 0 0 0 0 1 0 0 .28.28 0 0 0 -.24.14z" />
    <path
        d="m19.73 23.59a.17.17 0 0 1 0-.09 1.92 1.92 0 0 1 .18-.59 2.81 2.81 0 0 0 .22-.85v-.17a0 0 0 0 1 0 0v.17a2.57 2.57 0 0 1 -.23.85 2.27 2.27 0 0 0 -.17.59v.07s0 0 0 0z" />
    <path
        d="m20.72 23.65v-.05a.45.45 0 0 0 0-.19 1.92 1.92 0 0 0 -.17-.81.3.3 0 0 1 0-.08 0 0 0 0 1 0 0 .94.94 0 0 1 0 .09 1.71 1.71 0 0 1 .18.81.5.5 0 0 1 0 .2z" />
    <path
        d="m20.58 23.63s-.07-.12-.07-.3v-.33a.93.93 0 0 0 0-.29 1.07 1.07 0 0 1 0-.35v-.16c0-.15 0-.3 0-.43a2.69 2.69 0 0 1 0-.4c0-.17 0-.29 0-.41s0-.29 0-.51 0-.32 0-.48v.48s0 .37 0 .51 0 .24 0 .41a2.56 2.56 0 0 0 0 .39v.44.18a1.07 1.07 0 0 0 0 .35.89.89 0 0 1 0 .29v.3c0 .21 0 .27.06.28a0 0 0 0 1 0 0z" />
    <path d="m20.5 19.88c0-.06 0-.39 0-.44a1.83 1.83 0 0 1 0-.33 0 0 0 0 1 0 0 1.83 1.83 0 0 0 0 .33v.43s0 0 0 0z" />
    <path d="m22 25.54a0 0 0 0 1 0 0v-.64a0 0 0 0 1 0 0v.61s.05.03 0 .03z" />
    <path d="m21.36 25.26s0 0 0 0v-.67s0 0 0 0a0 0 0 0 1 0 0v.67a0 0 0 0 1 0 0z" />
    <path d="m24.88 23.37s0 0 0 0l-.12-.57a.05.05 0 0 1 0 0s0 0 0 0l.11.56a0 0 0 0 1 0 0z" />
    <path d="m24.52 23.45-.52-.68a0 0 0 0 1 0-.05s0 0 0 0l.47.67s0 0 0 .05z" />
    <path
        d="m20.25 26.27c-1.65 0-1.8-.42-1.81-.43v-.29a3.38 3.38 0 0 1 -3-1.21.53.53 0 0 1 -.12-.44 3.49 3.49 0 0 0 .21-.54.64.64 0 0 1 -.34-.84 5.51 5.51 0 0 0 .28-1.27 0 0 0 0 1 0 0 2.06 2.06 0 0 0 .58 1l.2.24c.13.18.17.28.12.34s-.33 0-.41-.06a.22.22 0 0 0 -.2-.06.27.27 0 0 0 -.1.13c.47 2.14 3.27 1.57 3.3 1.57s0 0 0 0a.18.18 0 0 1 .09.21.12.12 0 0 1 -.11.09c-.32 0-.46.07-.51.13a.16.16 0 0 0 0 .12.13.13 0 0 0 0 .11c.29.28 1.68.23 1.69.23s1.4.05 1.7-.23a.16.16 0 0 0 .18-.17.16.16 0 0 0 -.05-.12.73.73 0 0 0 -.52-.13.14.14 0 0 1 -.11-.09.19.19 0 0 1 .09-.21s0 0 0 0 2.83.57 3.29-1.57c0 0 0-.1-.09-.13a.22.22 0 0 0 -.2.06c-.08 0-.34.15-.42.06s0-.16.12-.34l.21-.24a2.13 2.13 0 0 0 .57-1s0 0 0 0a5.28 5.28 0 0 0 .27 1.27.65.65 0 0 1 -.33.84 5 5 0 0 0 .21.54c.05.09 0 .26-.11.44a3.4 3.4 0 0 1 -2.95 1.21v.29s-.08.49-1.73.49zm-1.74-.45s.24.38 1.74.38 1.75-.34 1.75-.38v-.31a0 0 0 0 1 0 0 3.36 3.36 0 0 0 3-1.21c.11-.19.14-.33.11-.38a4.36 4.36 0 0 1 -.22-.57s0 0 0 0a.58.58 0 0 0 .31-.76 5.39 5.39 0 0 1 -.26-1.1 2.73 2.73 0 0 1 -.54.81 1.92 1.92 0 0 0 -.2.23c-.15.21-.13.25-.12.25s.19 0 .32-.07a.27.27 0 0 1 .26-.06.25.25 0 0 1 .14.18c-.46 2.14-3.13 1.68-3.36 1.63-.05 0-.07.09-.05.13s0 .05 0 .05a.82.82 0 0 1 .57.14.23.23 0 0 1 .07.17.26.26 0 0 1 -.07.16c-.32.3-1.69.25-1.75.25s-1.42.05-1.74-.25a.21.21 0 0 1 -.07-.16.23.23 0 0 1 .07-.17.77.77 0 0 1 .56-.14.08.08 0 0 0 .05-.05.13.13 0 0 0 -.06-.13c-.22.05-2.9.51-3.35-1.63a.25.25 0 0 1 .13-.18.29.29 0 0 1 .27.06c.12.06.29.11.32.07s0 0-.12-.25l-.2-.23a2.58 2.58 0 0 1 -.55-.81 4.33 4.33 0 0 1 -.26 1.1.58.58 0 0 0 .31.76 0 0 0 0 1 0 0 5.24 5.24 0 0 1 -.23.57.54.54 0 0 0 .12.38 3.34 3.34 0 0 0 2.92 1.18s0 0 0 0z" />
    <path d="m18.47 25.54a0 0 0 0 1 0 0v-.64a0 0 0 0 1 0 0v.61s.02.03 0 .03z" />
    <path d="m19.15 25.26s0 0 0 0v-.67s0 0 0 0a0 0 0 0 1 0 0v.67a0 0 0 0 1 0 0z" />
    <path d="m15.62 23.37s0 0 0 0l.12-.56s0 0 0 0l-.11.57a.05.05 0 0 1 -.01-.01z" />
    <path d="m16 23.45a0 0 0 0 1 0-.05l.47-.67s0 0 0 0 0 0 0 .05z" />
    <path
        d="m19.65 25.47h.17a.24.24 0 0 1 .16 0 .16.16 0 0 1 .06.13.19.19 0 0 1 -.05.13.24.24 0 0 1 -.18.06v.21h-.12zm.12.25c.07 0 .11 0 .11-.09s0-.08-.1-.08h-.05z" />
    <path d="m20.2 25.87v.14h-.2l.17-.55h.16l.17.55h-.1v-.14zm.14-.09v-.12-.1s0 .07 0 .1z" />
    <path d="m20.57 25.94.26-.37h-.23v-.11h.4v.07l-.25.37h.25v.1h-.43z" />
    <path d="m22.24 24.82h.1l.06.28c0 .13 0 .18-.13.2h-.08v-.1s.07 0 .05-.1z" />
    <path
        d="m22.56 24.76v.26c0 .08 0 .11.1.1s.08-.05.07-.13v-.25h.1v.25a.19.19 0 0 1 -.16.24c-.11 0-.19 0-.21-.18v-.25z" />
    <path
        d="m23 25a.24.24 0 0 0 .12 0c.05 0 .07 0 .06-.07s0 0-.09 0a.16.16 0 0 1 -.15-.11c0-.07 0-.14.14-.17a.24.24 0 0 1 .12 0v.09a.17.17 0 0 0 -.1 0 .06.06 0 0 0 -.06.05s0 0 .1.05.13 0 .14.1 0 .15-.15.18a.28.28 0 0 1 -.13 0z" />
    <path d="m23.4 24.67h-.12v-.09l.33-.11v.08h-.12l.13.35h-.1z" />
    <path d="m23.72 24.44.21.4-.09.05-.21-.4z" />
    <path
        d="m24.33 24.57a.24.24 0 0 1 -.09.08.21.21 0 0 1 -.32 0 .23.23 0 0 1 .06-.34.24.24 0 0 1 .11 0v.07h-.09a.14.14 0 0 0 0 .21.14.14 0 0 0 .2 0 .23.23 0 0 0 .07-.07z" />
    <path d="m24.21 24.09.29.35-.08.06-.29-.34z" />
    <path
        d="m24.6 24.19v.11l-.07.07-.17-.37.09-.09.42.22-.07.08-.11-.06zm0-.13h-.09l-.05-.06a.59.59 0 0 0 0 .08l.05.09z" />
    <path
        d="m16.13 24-.15.21q-.06.11 0 .15c.05 0 .09 0 .14-.05l.15-.22.08.06-.14.21a.18.18 0 0 1 -.28.06c-.09-.06-.11-.15 0-.27l.14-.21z" />
    <path
        d="m16.19 24.61.25-.38.1.06v.19a1.1 1.1 0 0 1 0 .18l.1-.17.07-.11.08.05-.25.38-.09-.06v-.2c0-.05 0-.12 0-.17l-.1.16-.08.12z" />
    <path d="m16.93 24.53-.21.4-.09-.05.21-.4z" />
    <path
        d="m17 24.58h.14a.34.34 0 0 1 .16.11.21.21 0 0 1 0 .19.2.2 0 0 1 -.13.15.35.35 0 0 1 -.17-.03.34.34 0 0 1 -.1 0zm0 .42a.15.15 0 0 0 .2-.1.13.13 0 0 0 -.09-.19z" />
    <path d="m17.49 25.06v.11h-.11l.21-.43h.13l.08.47h-.11v-.12zm.12-.06v-.1s0-.06 0-.09v.09.09z" />
    <path
        d="m17.87 24.78h.13a.33.33 0 0 1 .19.05.25.25 0 0 1 .07.18.22.22 0 0 1 -.08.18.28.28 0 0 1 -.21.05h-.11zm.1.37c.1 0 .16 0 .16-.15s-.05-.15-.14-.15h.01z" />
    <path
        d="m10 20.25-5.09 6.75-2.35 3.12a20.34 20.34 0 0 1 -1.4-3.12 20.22 20.22 0 0 1 0-13.5 20.34 20.34 0 0 1 1.4-3.12l2.35 3.12z"
        fill="#0073ce" />
</svg>