<svg viewBox="0 0 40.5 40.5" xmlns="http://www.w3.org/2000/svg">
    <path
        d="m33 4.5h-25.45c.45-.38.96-.75 1.45-1.08a19.17 19.17 0 0 1 4.5-2.26 20.19 20.19 0 0 1 6.75-1.16h2.24v.14a19.81 19.81 0 0 1 10.51 4.36z"
        fill="#0d5eaf" />
    <path d="m37.08 9h-33.66a19.46 19.46 0 0 1 4.13-4.5h25.45a19.46 19.46 0 0 1 4.08 4.5z" fill="#fff" />
    <path d="m39.34 13.5h-38.18a19 19 0 0 1 2.26-4.5h33.66a19 19 0 0 1 2.26 4.5z" fill="#0d5eaf" />
    <path d="m40.36 18h-40.22a19.13 19.13 0 0 1 1-4.5h38.2a19.13 19.13 0 0 1 1.02 4.5z" fill="#fff" />
    <path d="m40.5 20.25a16.68 16.68 0 0 1 -.14 2.25h-40.36v-4.5h40.36a16.68 16.68 0 0 1 .14 2.25z" fill="#0d5eaf" />
    <path d="m40.36 22.5a19.13 19.13 0 0 1 -1 4.5h-38.2a19.13 19.13 0 0 1 -1-4.5z" fill="#fff" />
    <path d="m39.34 27a19 19 0 0 1 -2.26 4.5h-33.66a19 19 0 0 1 -2.26-4.5z" fill="#0d5eaf" />
    <path d="m37.08 31.5a19.46 19.46 0 0 1 -4.08 4.5h-25.45a19.46 19.46 0 0 1 -4.13-4.5z" fill="#fff" />
    <path d="m33 36a20.17 20.17 0 0 1 -25.4 0z" fill="#0d5eaf" />
    <path
        d="m22.49 0v22.5h-22.49v-4.5h.14a19.13 19.13 0 0 1 1-4.5 19 19 0 0 1 2.28-4.5 19.46 19.46 0 0 1 4.13-4.5c.45-.38.96-.75 1.45-1.08a19.17 19.17 0 0 1 4.5-2.26 20.19 20.19 0 0 1 6.75-1.16z"
        fill="#0d5eaf" />
    <g fill="#fff">
        <path d="m22.49 9v4.5h-21.33a19 19 0 0 1 2.26-4.5z" />
        <path d="m13.5 1.16v21.34h-4.5v-19.08a19.17 19.17 0 0 1 4.5-2.26z" />
    </g>
</svg>