<svg viewBox="0 0 40.5 40.5" xmlns="http://www.w3.org/2000/svg">
    <path
        d="m40.5 20.25a20.25 20.25 0 0 1 -37.15 11.15c-.15-.23-.31-.47-.46-.73l-.11-.19c-.16-.28-.32-.56-.48-.86a20.24 20.24 0 0 1 0-18.74c.16-.3.32-.58.48-.86l.11-.19c.15-.26.31-.5.46-.73a20.25 20.25 0 0 1 37.15 11.15z"
        fill="#009e49" />
    <path
        d="m40.5 20.25-37.15 11.15c-.15-.23-.31-.47-.46-.73l-.11-.19c-.16-.28-.32-.56-.48-.86a20.24 20.24 0 0 1 0-18.74c.16-.3.32-.58.48-.86l.11-.19c.15-.26.31-.5.46-.73z"
        fill="#fff" />
    <path d="m36.9 20.25-33.3 10-.82.24c-.16-.28-.32-.56-.48-.86a20.24 20.24 0 0 1 0-18.74c.16-.3.32-.58.48-.86l.82.24z"
        fill="#fcd116" />
    <path
        d="m20.25 20.25-16.65 9.99-.71.43-.11-.19c-.16-.28-.32-.56-.48-.86a20.24 20.24 0 0 1 0-18.74c.16-.3.32-.58.48-.86l.11-.19.71.43z" />
    <path d="m17.91 20.25-15.61 9.37a20.24 20.24 0 0 1 0-18.74z" fill="#ce1126" />
</svg>