<svg viewBox="0 0 40.5 40.5" xmlns="http://www.w3.org/2000/svg">
    <path d="m39.34 13.5h-38.18a20.25 20.25 0 0 1 38.18 0z" fill="#f00" />
    <path d="m40.5 20.25a19.82 19.82 0 0 1 -1.16 6.75h-38.18a20.22 20.22 0 0 1 0-13.5h38.18a20 20 0 0 1 1.16 6.75z"
        fill="#fff" />
    <path d="m39.34 27a20.25 20.25 0 0 1 -38.18 0z" fill="#171796" />
    <path
        d="m28.28 7-2.28.82-1.68-1.82-2.15 1.19-1.92-1.57-1.92 1.57-2.15-1.19-1.64 1.82-2.32-.82-1.41 2.23 1.85 4.18a18.27 18.27 0 0 1 15.13 0l1.84-4.18z"
        fill="#fff" />
    <path d="m25.9 8-1.06 4.2a19.51 19.51 0 0 0 -3-.52l.35-4.31 2.13-1.22z" fill="#171796" />
    <path d="m22.67 8.44a0 0 0 0 0 0 0v-.16h.17.07a.15.15 0 0 1 0 .07 0 0 0 0 1 0 0h-.09z" fill="#f7db17" />
    <path
        d="m22.75 8.48a.05.05 0 0 1 0 0h.17.08a.19.19 0 0 1 0 .08s0 0 0 0h-.1zm-.06-.19h-.09s0 0 0 0a0 0 0 0 1 0 0h.09a.15.15 0 0 0 0-.07h-.06-.07z" />
    <path
        d="m25 9.39a.14.14 0 0 1 -.13.06.08.08 0 0 1 0 .07s0 0 0 0a0 0 0 0 1 0 0h-.07s0 0-.06 0a.11.11 0 0 1 -.09 0 .2.2 0 0 0 0 .08s0 0 0 0h-.07s0 0 0 0a.21.21 0 0 1 0 .08 0 0 0 0 1 0 0s0 0 0 0a.09.09 0 0 1 0 .07.07.07 0 0 1 -.06 0 .08.08 0 0 1 0 .08s0 0 0 .06 0 0 0 .05-.06 0-.1.06a.22.22 0 0 0 -.06.07l-.19.23s0 .05-.07.05a.07.07 0 0 1 0 .05.07.07 0 0 1 0 .06.32.32 0 0 1 -.15.06h-.06a.1.1 0 0 1 -.05 0s0 0 0 0h-.08s0 0 0 0a.1.1 0 0 0 .1 0 .2.2 0 0 1 0-.08h.06a.32.32 0 0 0 .14-.14.41.41 0 0 0 0-.09.07.07 0 0 1 0-.06s-.05 0-.06 0a.07.07 0 0 0 -.06 0h.06l-.07.07h-.05a.32.32 0 0 0 -.12.11 1.11 1.11 0 0 0 -.07.16 0 0 0 0 1 0 0h-.09s0 0 0 0h-.18a.08.08 0 0 1 -.05-.07.05.05 0 0 1 0-.05.09.09 0 0 0 .07 0 .39.39 0 0 1 .1-.08.2.2 0 0 0 .1-.08s0 0 0-.05a.47.47 0 0 0 .06-.09.29.29 0 0 1 0-.16h-.07s-.05 0-.06 0a.06.06 0 0 1 0 0 0 0 0 0 0 0 0h-.12a.06.06 0 0 1 -.06 0s0 0 0 .05 0 0 0 0 0 .05 0 .08 0 0 0 .07 0 0 0 0a0 0 0 0 1 0 0s0 0 0 0-.07.06-.07.1a.09.09 0 0 1 0 .06h-.05-.37s0 0 0 0a.05.05 0 0 1 0 0s0 0 0 0a.38.38 0 0 0 0-.1s0 0 0-.06 0 0 0-.07 0-.05 0-.08a.19.19 0 0 0 0-.08.19.19 0 0 1 0-.07h.1s0 0 0 0a.1.1 0 0 0 0 .07s-.07.07-.08.11 0 .05 0 .07 0 .05 0 .06 0 0 0 .06a.23.23 0 0 1 -.11 0 .13.13 0 0 1 -.1 0 .06.06 0 0 1 0-.06 0 0 0 0 1 -.06 0s0 0 0 0l.11-.05a.27.27 0 0 0 .07-.08.1.1 0 0 1 0-.09v-.05-.09s0-.06 0-.08 0 0 0 0a0 0 0 0 0 0 0s0 0 0 0a0 0 0 0 0 0 0 .14.14 0 0 1 0-.06h-.07a0 0 0 0 1 0 0l.06-.07a.09.09 0 0 0 0-.07l.05-.05a0 0 0 0 1 0 0s0 0 0 0h-.06s0 0 0 0v-.43a.11.11 0 0 0 0-.08h-.05-.06s0 0 0 0a0 0 0 0 1 0 0 .39.39 0 0 1 .08-.1s0 0 0 0a.16.16 0 0 1 0-.07.07.07 0 0 1 .07 0 1.1 1.1 0 0 1 .44-.23 1 1 0 0 1 .24 0h.15a.38.38 0 0 1 .13.06l.19.1.12.07a.73.73 0 0 0 .3.05.18.18 0 0 0 .1 0 .33.33 0 0 1 -.13.07.88.88 0 0 1 -.39-.46h-.06l-.26-.1a1 1 0 0 1 .29.19 2.34 2.34 0 0 0 .31.24.9.9 0 0 0 .4.09h.09a.52.52 0 0 1 -.25.07h-.13a.42.42 0 0 1 -.12 0 .94.94 0 0 1 -.27-.23l-.15-.12a.68.68 0 0 0 -.62-.09h.13.13s0 0 0 0h-.05-.09a.1.1 0 0 1 -.07 0s0 .06 0 .08a0 0 0 0 1 0 0v.07s0 0 0 .06 0 0 0 0h.06a.16.16 0 0 1 0 .07s0 0 0 0a0 0 0 0 1 0 0l.06.06a.48.48 0 0 1 .33.08h.05s.1 0 .15 0h.12a.26.26 0 0 1 .15 0s.08.08.13.09a.51.51 0 0 0 .17 0s.08 0 .13 0a.25.25 0 0 0 .12 0h.05a0 0 0 0 1 .06 0 .07.07 0 0 1 .14.42z"
        fill="#f7db17" />
    <path d="m23.54 10.8h-.18a.08.08 0 0 1 -.05-.07.05.05 0 0 1 0-.05.09.09 0 0 0 .07 0h.1.05s.02.11.01.12z"
        fill="#f00" />
    <path
        d="m22.78 10.56a.23.23 0 0 1 -.11 0 .13.13 0 0 1 -.1 0 .06.06 0 0 1 0-.06 0 0 0 0 1 -.06 0s0 0 0 0l.11-.05h.06.05s.06.09.05.11z"
        fill="#f00" />
    <path d="m23 10.74a.09.09 0 0 1 0 .06h-.05-.05s0 0 0 0a.05.05 0 0 1 0 0s0 0 0 0h.1z" fill="#f00" />
    <path
        d="m24.11 10.89a.07.07 0 0 1 0 .06.32.32 0 0 1 -.15.06h-.06a.1.1 0 0 1 -.05 0s0 0 0 0h-.08s0 0 0 0a.1.1 0 0 0 .1 0h.15a.07.07 0 0 1 .09-.12z"
        fill="#f00" />
    <path
        d="m24.76 8.79a.52.52 0 0 1 -.25.07h-.13a.42.42 0 0 1 -.12 0 .94.94 0 0 1 -.26-.19l-.15-.12a.68.68 0 0 0 -.62-.09h-.15-.18a1.1 1.1 0 0 1 .44-.23 1 1 0 0 1 .24 0h.15a.38.38 0 0 1 .13.06l.19.1.12.07a.73.73 0 0 0 .3.05.18.18 0 0 0 .1 0 .33.33 0 0 1 -.13.07.88.88 0 0 1 -.44-.17h-.06l-.26-.1a1 1 0 0 1 .29.19 2.34 2.34 0 0 0 .31.24.9.9 0 0 0 .4.09z"
        fill="#f00" />
    <path
        d="m23.9 11a.08.08 0 0 1 -.06 0 0 0 0 0 0 0 0h-.08a0 0 0 0 1 0 0 .1.1 0 0 0 .09 0s0 0 0 0v-.06a.32.32 0 0 0 .14-.14s0 0 0-.08a.07.07 0 0 1 0-.06s0 0 0 0h.01a.25.25 0 0 0 -.12.11.51.51 0 0 0 -.07.15s0 0 0 0h-.07s0 0 0 .05h-.18a.09.09 0 0 1 -.06-.07.06.06 0 0 1 0 0h.08l.1-.07a.23.23 0 0 0 .09-.08.32.32 0 0 1 0-.14h-.06a0 0 0 0 1 -.07 0s0 0-.05 0h-.18s0 0 0 0a.05.05 0 0 1 0 0s0 0 0 0a0 0 0 0 0 0 0s0 0 0 0a.13.13 0 0 1 0 .06.09.09 0 0 1 0 .06h-.06-.45a.06.06 0 0 1 -.06 0s0 0 0 0a.05.05 0 0 1 -.05 0v-.05s0 0 0 0a.08.08 0 0 0 0-.05.43.43 0 0 0 0 0s0 0 0 0a.09.09 0 0 1 0-.06.22.22 0 0 0 0-.08.43.43 0 0 0 0-.05h.21s0 0 0 0 0 0 0 .06a.09.09 0 0 0 0 .05.1.1 0 0 1 0 .07s0 0 0 .05a.35.35 0 0 1 -.11 0 .12.12 0 0 1 -.1 0s0 0 0-.05h-.05a0 0 0 0 1 0 0l.12-.05s.05 0 .06-.07a.12.12 0 0 1 0-.1v-.08s0-.05 0-.07 0 0 0 0a.14.14 0 0 1 0-.06 0 0 0 0 1 0 0 .16.16 0 0 0 0-.07h.06s0 0 0 0h-.05a.08.08 0 0 1 0 0s0 0 0 0a.07.07 0 0 0 0-.06h-.07a0 0 0 0 1 0 0h-.05s0 0 0-.06a.31.31 0 0 1 .09-.11s0 0 0 0a.2.2 0 0 1 0-.08.08.08 0 0 1 .08 0 1.07 1.07 0 0 1 .45-.23.93.93 0 0 1 .23 0h.16a.52.52 0 0 1 .13.06l.19.1h.09a.79.79 0 0 0 .3.05.15.15 0 0 0 .09 0s0 0 0 0a.25.25 0 0 1 -.12.07h-.06a.74.74 0 0 1 -.44-1.44l-.12-.05.16.12h.06a1.5 1.5 0 0 0 .25.19.78.78 0 0 0 .39.09h.1s0 0 0 0a.56.56 0 0 1 -.26.07h-.14-.12a1.3 1.3 0 0 1 -.32-.16l-.07-.06-.08-.06a.67.67 0 0 0 -.53-.11h.12.12s0 0 0 0a.1.1 0 0 0 -.05 0h-.09a.08.08 0 0 1 -.08 0 .11.11 0 0 0 0 .06.06.06 0 0 1 0 0v.06s0 0 0 0h.05v.06s0 .05.05.06a.46.46 0 0 1 .32.08.25.25 0 0 0 .12 0h.11a.36.36 0 0 1 .15 0h.06.07a.17.17 0 0 0 .1 0h.07.13a.2.2 0 0 0 .11 0h.32a0 0 0 0 1 .06 0 .08.08 0 0 1 0 .07.16.16 0 0 1 -.13.06.1.1 0 0 1 0 .07s0 0 0 0a.08.08 0 0 1 0 0h-.13s0 0-.08 0a.16.16 0 0 0 0 .07s0 0 0 0h-.07a.14.14 0 0 1 0 .09 0 0 0 0 1 0 0 .12.12 0 0 1 0 .08.06.06 0 0 1 -.06 0 .11.11 0 0 1 0 .08s0 0 0 0a0 0 0 0 1 0 .05s0 0 0 0h-.07a.17.17 0 0 0 -.06.06 1.81 1.81 0 0 1 -.18.23.17.17 0 0 1 -.06.06.05.05 0 0 1 0 0 .09.09 0 0 1 0 .07.23.23 0 0 1 -.15 0zm-.07 0h.06a.25.25 0 0 0 .14 0 .09.09 0 0 0 0-.06s0 0 0 0 0 0 .06-.05l.19-.23s0 0 .07-.06a.1.1 0 0 0 0 0 0 0 0 0 1 0-.05.08.08 0 0 1 0 0 .24.24 0 0 0 0-.08.05.05 0 0 0 0 0 .2.2 0 0 0 0-.07s0 0 0 0 0 0 0-.07 0 0 0 0h.07a.3.3 0 0 1 0-.08s.07 0 .08 0h.05a0 0 0 0 0 0 0 .07.07 0 0 0 0-.06.14.14 0 0 0 .11 0 .43.43 0 0 0 0-.05h-.1a.27.27 0 0 1 -.13 0h-.12-.07a.16.16 0 0 1 -.1 0l-.09-.05a.1.1 0 0 0 0 0 .32.32 0 0 0 -.14 0h-.1s-.08 0-.12 0a.55.55 0 0 0 -.31-.07h-.06l-.06-.07s0 0 0 0 0 0 0-.06a0 0 0 0 1 0 0 0 0 0 0 0 0 0v-1.14a0 0 0 0 0 0 0s0-.07 0-.07.05 0 .06 0h.1s0 0 0 0h.05-.13-.19a.68.68 0 0 1 .62.09l.08.07.08.06a1 1 0 0 0 .27.14h.12.13a.65.65 0 0 0 .2 0 .82.82 0 0 1 -.4-.09 1 1 0 0 1 -.25-.42h-.06a1 1 0 0 0 -.29-.19l.26.1h.05a.76.76 0 0 0 .36.06h.07a.82.82 0 0 1 -.3-.05h-.09l-.19-.1a.31.31 0 0 0 -.13-.06h-.14a1 1 0 0 0 -.24 0 1.1 1.1 0 0 0 -.43.22.07.07 0 0 0 -.07 0 .33.33 0 0 0 0 .06 0 0 0 0 1 0 0s0 0 0 0a.2.2 0 0 0 -.08.1s0 0 0 0h.12a0 0 0 0 1 .06 0 .14.14 0 0 1 0 .09v.24s0 0 0 0a.08.08 0 0 1 0 0 0 0 0 0 1 0 0l-.06.05a.09.09 0 0 1 0 .07s0 0 0 .06 0 0 0 0h.07a.14.14 0 0 0 0 .06 0 0 0 0 1 0 0s0 0 0 0a0 0 0 0 1 0 .06s0 .06 0 .08v.09s0 0 0 0a.1.1 0 0 0 0 .08l-.07.08-.12.05a0 0 0 0 0 .05 0 0 0 0 0 0 0 .05.12.12 0 0 0 .09 0 .17.17 0 0 0 .1 0 0 0 0 0 0 0 0 0 0 0 0 1 0 0v-.05a.07.07 0 0 0 0-.06 0 0 0 0 1 0-.05s0 0 0-.06v-.05a.08.08 0 0 1 0-.05.08.08 0 0 1 .06 0 .43.43 0 0 0 0 .05.28.28 0 0 1 0 .09 0 0 0 0 1 0 .05v.05s0 0 0 .05a.14.14 0 0 1 0 .06.1.1 0 0 1 -.05 0h.06a0 0 0 0 0 0 0h-.03.05s0 0 0 0 0 0 0-.06a0 0 0 0 1 0 0 .08.08 0 0 1 0-.05.43.43 0 0 0 0-.05v-.07s0 0 0 0h.25s0 0 0 0h.07.05a.23.23 0 0 0 0 .14v.06s0 0 0 0a.28.28 0 0 1 -.1.09l-.1.08a0 0 0 0 1 -.06 0 .07.07 0 0 0 0 .06h.17a0 0 0 0 0 0 0h.09s0 0 0 0a1.11 1.11 0 0 1 .07-.16.29.29 0 0 1 .13-.12.09.09 0 0 1 .07 0s0 0 0 0a.08.08 0 0 0 0 0 .41.41 0 0 1 -.05.09s-.08.12-.15.14a.05.05 0 0 0 0 0s0 0 0 0a.16.16 0 0 1 -.11 0h.07a.05.05 0 0 1 0 0z" />
    <path
        d="m29.5 9.24-.64 1.45-.11.26-.44 1-.13.28-.43 1c-.92-.41-2.91-1-2.91-1l.27-1.05.07-.29.27-1.07.07-.26.38-1.56 2.31-.85z"
        fill="#0093dd" />
    <path d="m18.7 11.69a19.64 19.64 0 0 0 -3 .52l-.27-1.07-.26-1-.58-2.14 1.62-1.85 2.13 1.22.18 2.16.09 1.07z"
        fill="#171796" />
    <path d="m20.25 5.82-1.91 1.56.36 4.31c.52 0 1-.07 1.55-.07s1 0 1.55.07l.35-4.31z" fill="#0093dd" />
    <path d="m11 9.24 1.74 4c.93-.41 2.91-1 2.91-1l-1.06-4.24-2.3-.85z" fill="#0093dd" />
    <path d="m27.97 7.87.08.42.4.14-.32.27.07.42-.39-.14-.32.27-.08-.41-.4-.14.32-.28-.08-.41.4.14z" fill="#f7db17" />
    <path
        d="m27.48 9.27-.08-.43-.4-.14.33-.28-.09-.42.4.14.36-.29.08.43.4.14-.32.28.08.43-.43-.13zm-.48-.58.39.14.07.39.34-.22.38.13-.08-.4.31-.27-.41-.17v-.4l-.31.27-.43-.16.08.41z"
        fill="#231f00" />
    <path d="m27.8 8.98-.16-.83h.01l.16.82z" fill="#231f00" />
    <path d="m28.2 9.12-.95-1.11.96 1.1z" fill="#231f00" />
    <path d="m27.49 9.25h-.01l.48-1.38h.01z" fill="#231f00" />
    <path d="m27.72 8.14h.01v.84h-.01z" fill="#231f00"
        transform="matrix(.32952587 -.94414655 .94414655 .32952587 10.51 31.92)" />
    <path d="m27.41 8.84v-.01l.63-.55.01.01z" fill="#231f00" />
    <path d="m27.01 8.7v-.01l1.43-.27.01.01z" fill="#231f00" />
    <path
        d="m28.86 10.69-.11.26-.44 1-.13.28a21 21 0 0 0 -3.07-1.06l.07-.29.27-1.07.07-.26a14.93 14.93 0 0 1 3.34 1.14z"
        fill="#fff" />
    <path d="m12.7 8.38-.08.42-.4.14.32.27-.07.41.39-.14.32.28.08-.41.4-.14-.32-.28.08-.41-.4.14z" fill="#f7db17" />
    <path
        d="m12.86 9.5-.39.13.08-.43-.32-.28.4-.14.08-.43.33.29.4-.14-.08.43.33.28-.41.14-.08.43zm.47-.56.08-.41-.41.14-.31-.27-.08.4-.38.14.31.27-.08.4.38-.13.31.27.07-.4.39-.14z"
        fill="#231f00" />
    <path d="m12.87 9.49.16-.83h-.01l-.16.82z" fill="#231f00" />
    <path d="m12.47 9.63.95-1.11h-.01l-.95 1.1z" fill="#231f00" />
    <path d="m13.18 9.76h.01l-.48-1.38h-.01z" fill="#231f00" />
    <path d="m12.55 9.21.79-.27v-.01l-.8.28z" fill="#231f00" />
    <path d="m12.94 8.65h.01v.84h-.01z" fill="#231f00"
        transform="matrix(.65776972 -.75321909 .75321909 .65776972 -2.4 12.85)" />
    <path d="m13.66 9.21v-.01l-1.43-.27-.01.01z" fill="#231f00" />
    <path d="m28.75 11-.44 1a20.61 20.61 0 0 0 -3.13-1.07l.27-1.07a26.24 26.24 0 0 1 3.3 1.14z" fill="#f00" />
    <path d="m14.59 8a21.15 21.15 0 0 1 3.75-.63l.1 1.07a21 21 0 0 0 -3.58.6z" fill="#f00" />
    <path d="m18.61 10.61a20.59 20.59 0 0 0 -3.23.53l-.26-1a21.08 21.08 0 0 1 3.4-.56z" fill="#f00" />
    <path d="m14.45 10a1 1 0 0 1 0 .24 1.13 1.13 0 0 1 -2.16.47 1.14 1.14 0 0 0 2.27-.16 1.12 1.12 0 0 0 -.11-.55z"
        fill="#fff" />
    <path
        d="m13.45 11.73a1.16 1.16 0 0 1 -1.14-1 1.12 1.12 0 0 0 2.14-.46 1 1 0 0 0 0-.24 1.18 1.18 0 0 1 .14.55 1.15 1.15 0 0 1 -1.14 1.15zm-1.1-.93a1.13 1.13 0 0 0 2.23-.22 1.12 1.12 0 0 0 -.1-.48 1 1 0 0 1 0 .17 1.13 1.13 0 0 1 -2.14.53z" />
    <path
        d="m26.31 10.42h-.1s0 0 0 0a0 0 0 0 0 0 0 .1.1 0 0 0 -.07 0h-.08a0 0 0 0 0 0 0h-.06a.07.07 0 0 1 -.06 0h-.15s0 0 0 0h.13s0 0 0 0a.05.05 0 0 1 0 0s0 0 0 0h-.37a0 0 0 0 0 0 0s0 0 .07 0h.41.09a.15.15 0 0 0 -.07 0h-.13a.12.12 0 0 0 -.1 0s0 0 0 0h.07a.11.11 0 0 0 .07 0h.35a.18.18 0 0 1 .12 0h.06.06a.3.3 0 0 0 .45.58l-.06.05a.11.11 0 0 1 -.1 0h-.1s0 0 0 0a0 0 0 0 0 0 0 .15.15 0 0 1 .09 0h.16s0 0 0 0h.08.12a.26.26 0 0 1 .09.05h.05a.34.34 0 0 0 .09.08h.08a.11.11 0 0 0 0 .08 0 0 0 0 1 0 0h.2a0 0 0 0 0 0 0s0 0 0 0a.41.41 0 0 0 .11-.07s0 0 0-.05a.09.09 0 0 1 0-.05v-.07a.06.06 0 0 0 0 0s-.05 0-.07 0a.12.12 0 0 1 -.09-.12v.1-.05h.08.06.06a.39.39 0 0 0 .14.08 0 0 0 0 1 0 0h.08.05.1a.08.08 0 0 0 .07 0s0 0 0-.06a.12.12 0 0 0 -.06-.06.78.78 0 0 0 -.21-.09h-.1-.2-.18-.08a.44.44 0 0 0 -.16-.06h-.1a1.1 1.1 0 0 1 -.18 0h-.16-.08-.08-.06-.05l-.1-.05h-.06-.06z" />
    <path d="m26.85 10.87h.14s.09 0 .12 0l.08.08a.2.2 0 0 1 -.11 0h-.16-.05-.08-.09s0 0 0 0a.16.16 0 0 1 .15-.08z"
        fill="#fff" />
    <path d="m20.73 9.67a0 0 0 0 1 0 0s0 0 .05 0-.04 0-.05 0zm0-.08s0 0 0 0a0 0 0 0 0 0 0z" />
    <path
        d="m20.85 10.41c0-.12-.1-.12-.1-.12a.22.22 0 0 0 .18-.16h-.16a.39.39 0 0 0 .13-.31h-.08a.31.31 0 0 0 -.13 0l.06-.13.14-.26a.53.53 0 0 1 -.18.07.13.13 0 0 0 0 .07c-.11-.08-.17.07-.17.07s-.07-.1-.07-.1 0-.07 0-.07a1.08 1.08 0 0 0 -.14-.15 1.16 1.16 0 0 0 -.13.15s-.07 0 0 .07-.07 0-.07.1-.07-.15-.18-.07a.09.09 0 0 0 0-.07.53.53 0 0 1 -.18-.07l.14.26v.13a.31.31 0 0 0 -.13 0 .2.2 0 0 1 -.08 0 .39.39 0 0 0 .13.31h-.17a.25.25 0 0 0 .19.16s-.08 0-.1.12a.12.12 0 0 1 0 .09s.07.07.21 0a.24.24 0 0 0 -.07.19.18.18 0 0 0 .14 0 .14.14 0 0 0 0 .1.26.26 0 0 1 0 .07.21.21 0 0 0 .2 0 .38.38 0 0 0 -.23.14.56.56 0 0 1 .13-.11l.06.07a.11.11 0 0 1 0 .07c.06 0 .12-.12.12-.12a.3.3 0 0 1 .1.09.38.38 0 0 0 0-.18c.06.08.19 0 .19 0v-.07a.14.14 0 0 0 0-.1.18.18 0 0 0 .14 0 .24.24 0 0 0 -.07-.19c.14.07.21 0 .21 0a.12.12 0 0 1 -.03-.05z"
        fill="#f7db17" />
    <path
        d="m20.24 11-.05-.07a.72.72 0 0 0 -.19.07.44.44 0 0 1 0-.15.24.24 0 0 1 -.18 0v-.06s0-.06 0-.07a.28.28 0 0 1 -.12 0 .27.27 0 0 1 0-.17.2.2 0 0 1 -.18 0s0-.08 0-.08a.16.16 0 0 1 .07-.12.3.3 0 0 1 -.16-.16h.16a.42.42 0 0 1 -.12-.3.13.13 0 0 0 .07 0 .27.27 0 0 1 .13 0l-.05-.13-.14-.26a.33.33 0 0 0 .14.06.06.06 0 0 1 0 .06.12.12 0 0 1 .08 0 .17.17 0 0 1 .08.06.08.08 0 0 1 0-.07 0 0 0 0 1 0 0l.14-.15.14.15a0 0 0 0 1 0 0 .11.11 0 0 1 0 .07.17.17 0 0 1 .08-.06.12.12 0 0 1 .08 0 .06.06 0 0 1 0-.06.39.39 0 0 0 .14-.06l-.14.27-.06.12a.27.27 0 0 1 .13 0 .13.13 0 0 0 .07 0 .42.42 0 0 1 -.12.3h.15a.23.23 0 0 1 -.16.16.14.14 0 0 1 .08.12s0 .06 0 .08a.21.21 0 0 1 -.18 0 .27.27 0 0 1 0 .17.28.28 0 0 1 -.12 0 .56.56 0 0 1 0 .07.39.39 0 0 0 0 .06.24.24 0 0 1 -.18 0 .44.44 0 0 1 0 .15.32.32 0 0 0 -.09-.09.31.31 0 0 1 -.11.12zm-.08-.16.06.08a.08.08 0 0 1 0 .05.28.28 0 0 0 .1-.12.36.36 0 0 1 .09.08.32.32 0 0 0 0-.15s0 0 0 0a.16.16 0 0 0 .17 0v-.06c0-.07 0-.09 0-.09s0 0 0 0a.21.21 0 0 0 .13 0 .2.2 0 0 0 -.07-.17.2.2 0 0 0 .19 0 .13.13 0 0 1 0-.09c0-.11-.09-.11-.09-.11s0 0 0 0a.22.22 0 0 0 .18-.15h-.15s0 0 0 0a.39.39 0 0 0 .13-.28h-.06a.31.31 0 0 0 -.13 0l.06-.13.12-.23h-.11s0 .06 0 .06a.08.08 0 0 0 -.08 0c-.05 0-.08.08-.08.08 0-.06 0-.08 0-.09h-.22s0 0 0-.05l-.13-.14a1.49 1.49 0 0 0 -.12.14s0 0 0 .05h-.15s0 0 0 .09 0-.07-.08-.08a.08.08 0 0 0 -.08 0s0-.05 0-.06h-.11l.12.23.05.13a.31.31 0 0 0 -.13 0h-.06a.39.39 0 0 0 .13.28 0 0 0 0 1 0 0h-.15a.21.21 0 0 0 .17.15s0 0 0 0-.07 0-.09.11a.13.13 0 0 1 0 .09.2.2 0 0 0 .19 0 .2.2 0 0 0 -.07.17.21.21 0 0 0 .13 0s0 0 0 .09v.06a.16.16 0 0 0 .17 0s0 0 0 0a.32.32 0 0 0 -.19.22l.13-.1z" />
    <path d="m20.66 9.81s0 0 0 0a0 0 0 1 1 .06 0s-.05 0-.06 0zm0 0s0 0 0 0a0 0 0 0 0 0 0s.01-.04 0-.04z" />
    <path
        d="m20.72 10c.08-.08.07-.14.07-.14a.15.15 0 0 1 -.05.14.14.14 0 0 0 .07-.11.11.11 0 0 0 .08-.1.12.12 0 0 1 -.08.1.13.13 0 0 1 -.1.12z" />
    <path d="m20.69 10.22s0 0 0 0h-.05a0 0 0 0 0 0 0z" />
    <path d="m20.73 10.24h.08.07a.18.18 0 0 1 -.07 0z" />
    <path d="m20.32 9.89s0 0 0 0z" />
    <path d="m20.41 9.89s0 0 0 0z" />
    <path d="m20.52 9.92s0 0 .06 0h-.07z" />
    <path d="m20.6 9.94s0 0 0 0a.09.09 0 0 1 0 .05z" />
    <path d="m20.32 10.1.13-.07-.12.07z" />
    <path d="m20.33 10.17v-.07a.08.08 0 0 0 0 0v-.06.07a0 0 0 0 0 0 0v.07h.07.09s0 0 0 0a0 0 0 0 1 0 0h-.09-.07z" />
    <path d="m20.36 10.24a.06.06 0 0 1 0 0 .06.06 0 0 0 0 0c.05 0 .1-.05.1-.1 0 .06-.05.09-.11.11z" />
    <path d="m20.84 10.43a.16.16 0 0 0 -.12-.06.18.18 0 0 1 .13.06z" />
    <path d="m20.85 10.52h-.06z" />
    <path d="m20.68 10.5h-.06z" />
    <path d="m20.75 10.68a.21.21 0 0 0 -.09-.1.29.29 0 0 1 .09.11z" />
    <path d="m20.74 10.69s0 0 0-.05 0 0 .06.05z" />
    <path d="m20.62 10.84h-.08.07z" />
    <path d="m20.65 10.84h-.05a.06.06 0 0 0 0 0s0 0 0 .05z" />
    <path d="m20.42 10.93a.31.31 0 0 1 0-.09s0 .07 0 .09z" />
    <path d="m20.31 10.59h.07.05-.06-.07z" />
    <path d="m20.32 10.63h.08-.07z" />
    <path d="m20.47 10.16a0 0 0 0 1 -.08 0 0 0 0 0 1 .08 0z" />
    <path d="m20.24 9.6v-.08-.08l.05.08zm0-.08v.06-.06-.06z" />
    <path d="m20.32 10.69h-.05z" />
    <path d="m20.71 9.75a3.38 3.38 0 0 0 -.46 0 3.38 3.38 0 0 0 -.46 0 2.86 2.86 0 0 1 .46 0 2.86 2.86 0 0 1 .46 0z" />
    <path
        d="m19.78 9.75a0 0 0 0 1 0 0 4.19 4.19 0 0 1 .48 0 4 4 0 0 1 .47 0 0 0 0 0 1 0 0 2.5 2.5 0 0 0 -.47 0 2.5 2.5 0 0 0 -.47 0z" />
    <path d="m19.76 9.67s0 0 .05 0 0 .05 0 .06zm0-.08a0 0 0 0 0 0 0s0 0 0 0a0 0 0 0 0 0 0z" />
    <path d="m19.83 9.81s0 0 0 0a0 0 0 0 1 0 0s0 0 0 0a0 0 0 0 1 0 0zm0 0s0 0 0 0a0 0 0 0 0 0 0s.01-.04 0-.04z" />
    <path d="m20.68 9.84c-.2 0-.43 0-.43 0s-.24 0-.43 0a2.6 2.6 0 0 1 .43 0 2.6 2.6 0 0 1 .43 0z" />
    <path d="m19.82 9.88a2.34 2.34 0 0 1 .41 0 2.36 2.36 0 0 1 .41 0 2.34 2.34 0 0 0 -.41 0 2.34 2.34 0 0 0 -.41 0z" />
    <path
        d="m19.77 10a.13.13 0 0 1 -.1-.12.12.12 0 0 1 -.08-.1.12.12 0 0 0 .07.1.14.14 0 0 0 .07.11.15.15 0 0 1 -.05-.14s0 .06.07.14z" />
    <path d="m19.8 10.22s0 0 0 0h.06s0 0 0 0z" />
    <path d="m19.76 10.24h-.05a.13.13 0 0 1 -.07 0 .14.14 0 0 0 .07 0h.08z" />
    <path d="m20.01 9.89-.01-.01-.01-.01-.01-.01v-.01h.01l.01.01.01.01.01.01v.01z" />
    <path d="m20 9.92s0 0-.06 0 .05 0 .06 0z" />
    <path d="m19.89 9.94a.09.09 0 0 1 0-.05s0 0 0 0z" />
    <path d="m20.19 10.09-.12-.09.13.07z" />
    <path d="m20.19 10.18h-.05-.14.08.06a0 0 0 0 0 0 0v-.06a0 0 0 0 0 0 0v-.06.07a0 0 0 0 0 0 0v.08z" />
    <path d="m20.16 10.24c-.06 0-.11-.05-.11-.11 0 .05.05.07.1.09s0 0 0 0a.09.09 0 0 1 0 .05z" />
    <path d="m19.64 10.43a.18.18 0 0 1 .13-.06.16.16 0 0 0 -.13.06z" />
    <path d="m19.64 10.52h-.06z" />
    <path d="m19.81 10.5h.07-.06z" />
    <path d="m19.74 10.68a.29.29 0 0 1 .09-.11.25.25 0 0 0 -.08.1z" />
    <path d="m19.75 10.69s0 0 0-.05l-.05.05z" />
    <path d="m19.87 10.84h.07-.08z" />
    <path d="m19.83 10.84h.05s0 0 0-.05a.06.06 0 0 0 0 0z" />
    <path d="m20.1 10.9s0 0 0 0z" />
    <path d="m20.07 10.93v-.13a.31.31 0 0 1 0 .09z" />
    <path d="m20.18 10.59h-.07-.06.05.07z" />
    <path d="m20.17 10.63h-.07z" />
    <path d="m20.05 10.17a0 0 0 0 0 .08 0 0 0 0 1 0 -.08 0z" />
    <path d="m20.16 10.32a.12.12 0 0 1 0 0z" />
    <path d="m20.27 10.54h-.11v-.08.06h.17a0 0 0 0 0 0 0s0 0 0 0h-.06z" />
    <path d="m20.24 10.66v-.01-.11-.01l.01.01v.11z" />
    <path d="m20.13 10.87s0 0 0 0z" />
    <path d="m20.18 10.88a.09.09 0 0 1 0-.05s0 0 0 0z" />
    <path d="m20.25 11a.21.21 0 0 0 0-.08.19.19 0 0 0 0-.08.16.16 0 0 1 0 .09s0 .06 0 .09z" />
    <path d="m21.61 7.75s0 0 0 0a0 0 0 0 1 0 0s0 0 .05 0 0 0 0 0a.05.05 0 0 1 -.05 0zm0-.08s0 0 0 0a0 0 0 0 0 0 0z" />
    <path
        d="m21.71 8.5c0-.13-.1-.13-.1-.13a.21.21 0 0 0 .19-.15h-.16a.38.38 0 0 0 .13-.3.12.12 0 0 1 -.07 0 .37.37 0 0 0 -.14 0l.06-.13.15-.25a.45.45 0 0 1 -.19.06.09.09 0 0 0 0 .07c-.11-.08-.18.07-.18.07s-.07-.1-.07-.1 0-.08 0-.08l-.14-.15-.19.13s-.07 0 0 .08-.07 0-.07.1-.06-.15-.17-.08a.08.08 0 0 0 0-.07.42.42 0 0 1 -.18-.08l.14.27.05.13a.5.5 0 0 0 -.14 0h-.07a.41.41 0 0 0 .12.31h-.17a.24.24 0 0 0 .19.17s-.09 0-.11.12 0 .06 0 .08a.19.19 0 0 0 .21 0 .23.23 0 0 0 -.08.19.2.2 0 0 0 .15 0 .13.13 0 0 0 0 .1.14.14 0 0 1 0 .07.2.2 0 0 0 .19 0 .37.37 0 0 0 0 .18.56.56 0 0 1 -.06-.18l.06.07s0 .06 0 .07.12-.12.12-.12a.41.41 0 0 1 .1.1.38.38 0 0 0 0-.18c.06.08.2 0 .2 0a.14.14 0 0 1 0-.07.18.18 0 0 0 0-.1.2.2 0 0 0 .15 0 .24.24 0 0 0 -.07-.19c.14.07.21 0 .21 0a.12.12 0 0 1 -.06-.01z"
        fill="#f7db17" />
    <path
        d="m21.09 9.08s0 0 0 0v-.07a.64.64 0 0 0 -.13.1.27.27 0 0 1 0-.15.25.25 0 0 1 -.19 0 .1.1 0 0 0 0-.06.12.12 0 0 1 0-.07c-.07 0-.12 0-.12 0a.34.34 0 0 1 .05-.17.17.17 0 0 1 -.18 0 .08.08 0 0 0 0-.07.13.13 0 0 1 .08-.12.22.22 0 0 1 -.16-.17h.16a.41.41 0 0 1 -.11-.3h.07a.35.35 0 0 1 .13 0l-.05-.13-.14-.26.14.06v.06a.09.09 0 0 1 .07 0 .11.11 0 0 1 .08.07s0-.06 0-.07a0 0 0 0 1 0 0s0 0 0 0l.14-.14s.11.11.13.15a.05.05 0 0 1 0 0s0 0 0 0 0 0 0 .07a.17.17 0 0 1 .08-.06.11.11 0 0 1 .08 0 .05.05 0 0 1 0 0 .3.3 0 0 0 .14-.05 0 0 0 0 1 0 0l-.16.26-.05.12a.24.24 0 0 1 .13 0h.07a.38.38 0 0 1 -.13.29h.15a.21.21 0 0 1 -.16.15.16.16 0 0 1 .07.13.11.11 0 0 0 0 .08.18.18 0 0 1 -.19 0 .23.23 0 0 1 .05.16.17.17 0 0 1 -.12 0s0 0 0 .07a.18.18 0 0 0 0 .06.24.24 0 0 1 -.18 0 .47.47 0 0 1 0 .15.24.24 0 0 0 .37-.17s-.07.1-.12.11zm-.09-.16.06.08s0 0 0 .05a.33.33 0 0 0 .14-.05h.1a.27.27 0 0 0 0-.15.17.17 0 0 0 .17 0 .21.21 0 0 1 0-.06c0-.06 0-.09 0-.09a.15.15 0 0 0 .13 0 .2.2 0 0 0 -.07-.17h.19a.13.13 0 0 1 0-.08c0-.11-.09-.12-.09-.12s0 0 0 0a.23.23 0 0 0 .18-.14h-.16a.36.36 0 0 0 .13-.27h-.08a.31.31 0 0 0 -.13 0l.06-.13.13-.22a.27.27 0 0 1 -.12 0s0 .06 0 .06-.05 0-.07 0a.14.14 0 0 0 -.09.08c0-.07 0-.09 0-.09s0 0 0 0a0 0 0 0 0 0 0 .58.58 0 0 0 -.13-.14 1.59 1.59 0 0 0 -.13.13s0 0 0 0 0 0 0 .09a.19.19 0 0 0 -.08-.09.08.08 0 0 0 -.08 0s0 0 0-.06h-.11l.12.22.05.14a.49.49 0 0 0 -.13 0 .1.1 0 0 1 -.06 0 .38.38 0 0 0 .12.29h-.16s0 .11.17.15-.08 0-.09.11 0 0-.05.08a.19.19 0 0 0 .2 0 .22.22 0 0 0 -.08.17.19.19 0 0 0 .13 0 .13.13 0 0 0 0 .09.12.12 0 0 1 0 .06.16.16 0 0 0 .17 0 .37.37 0 0 0 0 .16.45.45 0 0 1 .13-.1z" />
    <path d="m21.54 7.89s0 0 0 0a0 0 0 0 1 0 0s0 0 0 0a0 0 0 0 1 0 0z" />
    <path
        d="m21.59 8.13c.09-.07.07-.14.07-.14a.15.15 0 0 1 -.05.14.16.16 0 0 0 .07-.13.11.11 0 0 0 .08-.09.17.17 0 0 1 -.06.09.15.15 0 0 1 -.11.12z" />
    <path d="m21.56 8.3s0 0 0 0h.05-.06z" />
    <path d="m21.6 8.32h.05a.09.09 0 0 0 .06 0 .16.16 0 0 1 -.08 0h-.05z" />
    <path d="m21.39 8h.07-.06z" />
    <path d="m21.48 8a.1.1 0 0 1 0 0z" />
    <path d="m21.19 8.17a.52.52 0 0 1 .13-.06l-.12.06z" />
    <path d="m21.2 8.25s0 0 0 0v-.06.07a0 0 0 0 0 0 0v-.06a0 0 0 0 0 0 0s0 0 0 0h.07s0 0 0 0h-.07z" />
    <path d="m21.23 8.31s0 0 0 0a.08.08 0 0 0 0 0c.06 0 .11 0 .11-.09 0 .06-.06.08-.11.11z" />
    <path d="m21.71 8.51a.15.15 0 0 0 -.12-.07.17.17 0 0 1 .12.07z" />
    <path d="m21.54 8.59h-.06z" />
    <path d="m21.61 8.76a.19.19 0 0 0 -.08-.1.44.44 0 0 1 .09.11z" />
    <path d="m21.6 8.77a.08.08 0 0 0 -.05-.05.08.08 0 0 1 0 .05z" />
    <path d="m21.32 8.88a0 0 0 0 1 0 0z" />
    <path d="m21.47 8.92h-.08.07z" />
    <path d="m21.5 8.92h-.06s0 0 0 .05h.05z" />
    <path d="m21.24 9s0 0 0 0z" />
    <path d="m21.27 9v-.13z" />
    <path d="m21.17 8.66h.08.05-.06z" />
    <path d="m21.17 8.71h.07-.08z" />
    <path d="m21.34 8.24a0 0 0 0 1 0 0 0 0 0 0 1 -.05 0 .07.07 0 0 1 .05 0 0 0 0 0 1 0 0z" />
    <path d="m21.13 7.67-.05-.08.06-.07v.07l-.05.07zm0-.08v.06-.06-.06z" />
    <path d="m21.18 8.76h-.05z" />
    <path d="m21.59 7.83a2.55 2.55 0 0 0 -.46 0 2.86 2.86 0 0 0 -.46 0 2.48 2.48 0 0 1 .46 0 2.55 2.55 0 0 1 .46 0z" />
    <path
        d="m20.66 7.81a0 0 0 0 1 0 0 3.26 3.26 0 0 1 .48 0s.26 0 .47 0 0 0 0 0a3.07 3.07 0 0 0 -.47 0 4.22 4.22 0 0 0 -.47 0z" />
    <path d="m20.64 7.73s0 0 0 0a0 0 0 0 1 0 0s0 0 .05 0 0 0 0 .06zm0-.08a.08.08 0 0 0 0 0s0 0 0 0z" />
    <path d="m20.71 7.87s0 0 0 0a0 0 0 0 1 0 0s0 0 0 0a0 0 0 0 1 0 0zm0 0a0 0 0 0 0 0 0z" />
    <path d="m21.55 7.93a2.49 2.49 0 0 0 -.43 0 3.53 3.53 0 0 0 -.43 0 3.53 3.53 0 0 1 .43 0 3.21 3.21 0 0 1 .43 0z" />
    <path d="m20.7 7.94a3.36 3.36 0 0 1 .42 0 3.1 3.1 0 0 1 .42 0v.06a3.1 3.1 0 0 0 -.42 0 3.36 3.36 0 0 0 -.42 0z" />
    <path
        d="m20.64 8.1a.13.13 0 0 1 -.1-.12.17.17 0 0 1 -.08-.11c0 .07.07.09.07.1a.14.14 0 0 0 .07.11c-.06-.08-.05-.14 0-.14a.16.16 0 0 0 .06.15z" />
    <path d="m20.67 8.28s0 0 0 0a0 0 0 0 0 0 0h-.05.06s0 0 0 0z" />
    <path d="m20.62 8.3s-.06 0-.07-.05a.09.09 0 0 0 .06 0z" />
    <path d="m21.05 8s0 0 0 0z" />
    <path d="m21 8a0 0 0 0 1 0 0z" />
    <path d="m20.89 7.96h-.01v-.02h-.01v-.01h-.01l-.01-.01h.01.01l.01.01.01.01v.01z" />
    <path d="m20.84 8h-.06.07z" />
    <path d="m20.76 8v-.05z" />
    <path d="m21.06 8.16-.12-.07.13.07z" />
    <path d="m21.05 8.25h-.05-.11s0 0 0 0h.11.08a0 0 0 0 0 0 0v-.15-.06.07a0 0 0 0 0 0 0s0 0 0 0z" />
    <path d="m21 8.31c-.05 0-.11 0-.11-.11 0 .06.05.08.1.1s0 0 0 0a.09.09 0 0 1 0 0z" />
    <path d="m20.51 8.48a.16.16 0 0 1 .13-.06.13.13 0 0 0 -.13.06z" />
    <path d="m20.5 8.58h.06z" />
    <path d="m20.67 8.56h.07-.06z" />
    <path d="m20.59 8.74a.25.25 0 0 1 .08-.1.25.25 0 0 0 -.08.1z" />
    <path d="m20.6 8.75a.12.12 0 0 1 .05-.05z" />
    <path d="m20.87 8.87s0 0 0 0z" />
    <path d="m20.72 8.9h.1-.09z" />
    <path d="m20.69 8.9a.11.11 0 0 0 0 0 .08.08 0 0 1 0 0s0 0 0 .05h-.05z" />
    <path d="m20.91 9v-.14a.31.31 0 0 1 0 .09z" />
    <path d="m21 8.66h-.07-.05.06.07z" />
    <path d="m21 8.7h-.08.07z" />
    <path d="m20.91 8.23a0 0 0 0 0 .05 0 0 0 0 0 0 -.05 0z" />
    <path d="m21 8.76h.05z" />
    <path d="m21 8.39a0 0 0 0 1 0 0h-.05a0 0 0 0 0 0 0z" />
    <path d="m21.13 8.62h-.13v-.11h.19a.06.06 0 0 0 0 0s0 0 0 0a0 0 0 0 1 0 .05h-.08z" />
    <path d="m21.1 8.73-.01-.01v-.11l.01-.01.01.01v.11z" />
    <path d="m21 8.94s0 0 0 0a.09.09 0 0 1 0 .05z" />
    <path d="m21 9a.07.07 0 0 1 0-.05v.1z" />
    <path d="m21.1 9.07v-.07a.19.19 0 0 0 0-.08.11.11 0 0 0 0-.08.16.16 0 0 1 0 .09s0 .06 0 .09z" />
    <path d="m19.89 7.72v-.06s0 0 .05 0a0 0 0 0 1 0 0s-.03.06-.05.06zm0-.08a0 0 0 0 0 0 0s0 0 0 0z" />
    <path
        d="m20 8.46c0-.13-.1-.12-.1-.12a.24.24 0 0 0 .18-.17h-.08a.43.43 0 0 0 .12-.32.17.17 0 0 1 -.07 0 .5.5 0 0 0 -.14 0v-.13l.09-.24a.42.42 0 0 1 -.18.08.09.09 0 0 0 0 .07c-.11-.07-.17.08-.17.08s-.08-.1-.08-.1 0-.07 0-.07a.9.9 0 0 0 -.14-.14 1.16 1.16 0 0 0 -.13.15s-.07 0 0 .07-.07 0-.07.11c0 0-.06-.15-.17-.07a.13.13 0 0 0 0-.07.46.46 0 0 1 -.18-.06l.15.25.06.13a.37.37 0 0 0 -.14 0 .17.17 0 0 1 -.08 0 .4.4 0 0 0 .14.3h-.16a.23.23 0 0 0 .19.15s-.08 0-.09.13a.12.12 0 0 1 0 .09s.07.06.21 0a.24.24 0 0 0 -.07.19.2.2 0 0 0 .15 0 .13.13 0 0 0 0 .1.14.14 0 0 1 0 .07.21.21 0 0 0 .2 0 .33.33 0 0 0 0 .17.56.56 0 0 1 .13-.11l.06.07s0 .05 0 .06.11-.12.11-.12a.3.3 0 0 1 .1.09.38.38 0 0 0 0-.18c.06.08.19 0 .19 0a.14.14 0 0 1 0-.07.18.18 0 0 0 0-.1h.14a.23.23 0 0 0 -.07-.18.19.19 0 0 0 .21 0 .1.1 0 0 1 -.31-.11z"
        fill="#f7db17" />
    <path
        d="m19.46 9.08a.09.09 0 0 0 0-.05l-.06-.06a.72.72 0 0 0 -.12.11.47.47 0 0 1 0-.15.24.24 0 0 1 -.18 0 .1.1 0 0 0 0-.06.12.12 0 0 1 0-.07.17.17 0 0 1 -.12 0 .24.24 0 0 1 0-.16c-.11 0-.18 0-.18 0a.11.11 0 0 0 0-.08.12.12 0 0 1 .06-.12.22.22 0 0 1 -.16-.16h.15a.38.38 0 0 1 -.13-.29.11.11 0 0 0 .07 0h.13l-.06-.12-.15-.26a.34.34 0 0 0 .14.05.1.1 0 0 1 0 0 .09.09 0 0 1 .07 0 .13.13 0 0 1 .08.06s0-.06 0-.07a.05.05 0 0 1 0 0l.13-.15.14.14a0 0 0 0 1 0 0s0 0 0 .07l.08-.07h.08a.07.07 0 0 1 0-.06.49.49 0 0 0 .57-.1l-.14.26v.13a.35.35 0 0 1 .13 0h.06a.41.41 0 0 1 -.1.3h.15a.24.24 0 0 1 -.16.17.13.13 0 0 1 .08.12.08.08 0 0 0 0 .07.17.17 0 0 1 -.18 0 .26.26 0 0 1 .06.17.2.2 0 0 1 -.12 0 .12.12 0 0 1 0 .07.1.1 0 0 0 0 .06.25.25 0 0 1 -.19 0 .27.27 0 0 1 0 .15s0 0-.1-.08-.06.11-.11.12zm-.09-.16.06.07a.06.06 0 0 1 0 0 .28.28 0 0 0 .1-.12.36.36 0 0 1 .09.08.37.37 0 0 0 0-.16.18.18 0 0 0 .18 0 .1.1 0 0 1 0-.06.17.17 0 0 0 0-.09 0 0 0 0 1 0 0 .21.21 0 0 0 .13 0 .2.2 0 0 0 -.07-.17s0 0 0 0a.17.17 0 0 0 .19 0 .11.11 0 0 1 0-.08c0-.12-.09-.11-.09-.11a.25.25 0 0 0 .18-.15h-.17a.38.38 0 0 0 .12-.29h-.06a.61.61 0 0 0 -.14 0v-.13l.11-.19h-.11s0 .06 0 .06a.1.1 0 0 0 -.07 0 .19.19 0 0 0 -.08.09.11.11 0 0 0 0-.09h-.05s0 0 0-.05a.8.8 0 0 0 -.13-.13 1.49 1.49 0 0 0 -.12.14.09.09 0 0 0 0 0s0 0 0 .09 0 0 0 0 0-.07-.09-.08a.07.07 0 0 0 -.07 0s0 0 0-.06h-.11l.13.22.06.13v.16a.31.31 0 0 0 -.13 0h-.07a.47.47 0 0 0 .14.28h-.16a.21.21 0 0 0 .18.14s0 0 0 0-.07 0-.08.12a.14.14 0 0 1 0 .09.22.22 0 0 0 .19 0 .21.21 0 0 0 -.06.17s.06 0 .13 0 0 0 0 0 0 0 0 .09a.21.21 0 0 1 0 .06.17.17 0 0 0 .17 0 .27.27 0 0 0 0 .15.69.69 0 0 1 .12-.1z" />
    <path d="m19.83 7.86s0 0 0 0a0 0 0 0 1 0 0s.02 0 0 0zm0 0s.01-.04 0-.04z" />
    <path
        d="m19.9 8.09a.16.16 0 0 0 .1-.16.16.16 0 0 1 0 .14.14.14 0 0 0 0-.07.11.11 0 0 0 .07-.09.21.21 0 0 1 -.07.09.13.13 0 0 1 -.1.12z" />
    <path d="m19.88 8.27a0 0 0 0 1 0 0h.06s0 0-.05 0 0 0 0 0z" />
    <path d="m19.92 8.29h.05a.09.09 0 0 0 .06 0s0 0-.07.06h-.05z" />
    <path d="m19.59 8s0 0 0 0z" />
    <path d="m19.7 8h.06z" />
    <path d="m19.78 8a.08.08 0 0 0 0 0z" />
    <path d="m19.5 8.17a.35.35 0 0 1 .12-.07z" />
    <path d="m19.52 8.24a0 0 0 0 1 0 0v-.15-.07.07a0 0 0 0 0 0 0v.06s0 0 0 0 0 0 .05 0h.09-.09z" />
    <path d="m19.55 8.3s0 0 0 0v-.07.06c.06 0 .11 0 .1-.1 0 .06-.06.09-.11.11z" />
    <path d="m20 8.47a.16.16 0 0 0 -.12-.06.14.14 0 0 1 .13.06z" />
    <path d="m19.88 8.55h-.09.07z" />
    <path d="m20 8.72a.21.21 0 0 0 -.09-.1.21.21 0 0 1 .09.1z" />
    <path d="m20 8.74-.05-.05a.1.1 0 0 1 .06 0z" />
    <path d="m19.83 8.89h-.09.08z" />
    <path d="m19.86 8.89h-.05s0 0 0 .05a.11.11 0 0 0 .05 0z" />
    <path d="m19.64 9a.31.31 0 0 1 0-.09s0 .07 0 .09z" />
    <path d="m19.51 8.65h.07.05-.06-.07z" />
    <path d="m19.52 8.7h.07z" />
    <path d="m19.66 8.22a0 0 0 0 1 0 0s-.05 0-.05 0a0 0 0 0 1 0 0s.05-.03.05 0z" />
    <path d="m19.41 7.67v-.07-.07l.05.07zm0-.08v.06-.07h-.05z" />
    <path d="m19.53 8.75h-.05.09z" />
    <path d="m19.88 7.8a2.48 2.48 0 0 0 -.46 0 2.55 2.55 0 0 0 -.46 0 3 3 0 0 1 .46-.05 4.13 4.13 0 0 1 .47 0z" />
    <path
        d="m19 7.83s0 0 0 0a4 4 0 0 1 .48 0 4.39 4.39 0 0 1 .48 0 0 0 0 0 1 0 0 4.39 4.39 0 0 0 -.48 0 3.76 3.76 0 0 0 -.47 0z" />
    <path d="m18.93 7.75a.05.05 0 0 1 0 0 .08.08 0 0 1 0 0s0 0 .05 0 0 0 0 .06zm0-.08s0 0 0 0a0 0 0 0 0 -.02 0z" />
    <path d="m19 7.89a0 0 0 0 1 .06 0s-.06 0-.06 0zm0 0s0 0 0 0 0-.04 0-.04z" />
    <path d="m19.85 7.9a3.53 3.53 0 0 0 -.43 0 2.42 2.42 0 0 0 -.43 0 3.21 3.21 0 0 1 .43 0 2.75 2.75 0 0 1 .43 0z" />
    <path d="m19 8a3 3 0 0 1 .42 0 2.64 2.64 0 0 1 .42 0 2.64 2.64 0 0 0 -.42 0 3 3 0 0 0 -.42 0z" />
    <path
        d="m19 8.13a.15.15 0 0 1 -.16-.13.14.14 0 0 1 -.08-.1c0 .08.08.09.08.1a.16.16 0 0 0 .07.11.15.15 0 0 1 -.03-.11s0 .07.07.14z" />
    <path d="m19 8.3h-.06.05s0 0 0 0z" />
    <path d="m19 8.32h-.09a.1.1 0 0 1 -.07 0 .15.15 0 0 0 .06 0z" />
    <path d="m19.19 7.97h-.01v-.02h-.01l-.02-.01v-.01h.01.01l.01.01v.01l.02.01z" />
    <path d="m19.15 8h-.06.07z" />
    <path d="m19.06 8a.1.1 0 0 1 0 0z" />
    <path d="m19.38 8.16-.12-.06a.31.31 0 0 1 .13.06z" />
    <path d="m19.37 8.25h-.07-.1a0 0 0 0 1 0 0h.22v-.12a0 0 0 0 0 0 0v-.07.06s0 0 0 0a0 0 0 0 1 0 0s0 0 0 0z" />
    <path d="m19.35 8.31c-.06 0-.12-.05-.12-.11 0 .05.06.07.11.09s0 0 0 0z" />
    <path d="m18.84 8.51a.19.19 0 0 1 .16-.08.17.17 0 0 0 -.13.07z" />
    <path d="m19 8.59h.07-.06z" />
    <path d="m18.94 8.76a.38.38 0 0 1 .06-.15.25.25 0 0 0 -.08.1z" />
    <path d="m19 8.77s0 0 .05-.05a.1.1 0 0 0 0 .05z" />
    <path d="m19.08 8.92h.07-.08z" />
    <path d="m19 8.92h.05s0 0 0-.05 0 0-.06.05z" />
    <path d="m19.31 9a0 0 0 0 0 0 0z" />
    <path d="m19.28 9v-.13z" />
    <path d="m19.38 8.66h-.08-.05.06z" />
    <path d="m19.37 8.7h-.07.08z" />
    <path d="m19.23 8.24a0 0 0 0 0 .05 0 0 0 0 0 0 -.05-.05s0 .03 0 .05z" />
    <path d="m19.37 8.76h-.05z" />
    <path d="m19.35 8.39s0 0 0 0v-.06.06s0 0 0 0z" />
    <path d="m19.47 8.61h-.13v-.1h.19a.06.06 0 0 0 0 0s0 0 0 0a.11.11 0 0 1 0 .05z" />
    <path d="m19.45 8.73-.01-.01-.01-.12h.01.01v.12z" />
    <path d="m19.34 8.94a0 0 0 0 0 0 0 .09.09 0 0 1 0 .05z" />
    <path d="m19.4 9v-.1a.09.09 0 0 0 0 .05z" />
    <path d="m19.47 9.07v-.07s0-.06 0-.08v-.09a.17.17 0 0 1 0 .1.25.25 0 0 1 0 .08z" />
    <path d="m22.94 8.42h.05l.15-.06h.39.13-.13-.39a.84.84 0 0 0 -.14.06s0-.02-.06 0z" />
    <path d="m22.83 8.85s0 0 0 0z" />
    <path d="m22.81 9.1.05-.1v-.06.06l-.05.05z" />
    <path d="m23 10s0 0 0 0a.11.11 0 0 1 0-.08.22.22 0 0 0 0 .08s0 0 0 0z" />
    <path d="m22.75 8.36s0 0 0 0z" />
    <path d="m22.69 8.37s0 0 0 0z" />
    <path d="m22.63 8.73s0 0 0 0v-.08a0 0 0 0 0 0 0v.05z" />
    <path d="m22.75 8.55s0 0 0 0z" />
    <path d="m22.72 8.65v-.01-.03-.01l.01.01v.03z" />
    <path d="m22.9 8.72s0 0 0 0z" />
    <path d="m23.2 8.54s0 0 0 0z" />
    <path d="m23.22 8.57a0 0 0 0 1 0 0z" />
    <path d="m23.47 8.59h-.13.12z" />
    <path d="m23.06 8.67s0 0 0 0z" />
    <path d="m23.08 8.73s0 0 0 0h.09.07-.07z" />
    <path d="m22.83 8.55h.06-.05z" />
    <path d="m22.9 9a0 0 0 0 1 0 0s0 0 0 0 0 0 0-.05a0 0 0 0 1 0 0s0 0 0 .05z" />
    <path d="m22.83 9s0 0 0 0z" />
    <path d="m23 9.05a0 0 0 0 1 0 0v-.06a.09.09 0 0 0 0 0 .09.09 0 0 1 0 0v.01a0 0 0 0 0 0 0z" />
    <path d="m22.82 9.14a.15.15 0 0 0 .06 0l.12-.14-.06.07a.18.18 0 0 1 -.07.05z" />
    <path d="m23.15 9a.38.38 0 0 0 0-.1.34.34 0 0 1 0 .1z" />
    <path d="m23.18 8.85a0 0 0 0 0 0 0z" />
    <path d="m23.21 8.89s0 0 0 0a0 0 0 0 1 0 0z" />
    <path d="m23.25 8.93s0 0 0 0a0 0 0 0 1 0 0z" />
    <path d="m23.24 9.07a0 0 0 0 0 0 0 .23.23 0 0 0 0-.11.27.27 0 0 1 0 .12z" />
    <path d="m23.33 9.05v-.05s0 0 0 0z" />
    <path d="m22.94 9.11a.07.07 0 0 1 0-.05.09.09 0 0 0 0 .05z" />
    <path d="m22.81 9.2h.06s0 0-.06 0z" />
    <path d="m22.81 9.25a.15.15 0 0 0 .07 0 .12.12 0 0 1 -.08 0z" />
    <path d="m22.74 9.35h.07s0 0 0 0h-.08z" />
    <path d="m22.91 9.31a.08.08 0 0 1 0-.07.08.08 0 0 0 0-.07.08.08 0 0 1 0 .07s0 0 0 0a.13.13 0 0 0 0 .06z" />
    <path d="m23.05 9.12a.07.07 0 0 1 0-.06 0 0 0 0 0 0 0v-.06a.06.06 0 0 1 0 0 .09.09 0 0 0 0 .06z" />
    <path
        d="m23 9.51a.19.19 0 0 0 0-.08.11.11 0 0 0 0 0 .08.08 0 0 1 0 0v-.07.06a0 0 0 0 0 0 0 .07.07 0 0 0 0 0v.06a.28.28 0 0 1 0 .09z" />
    <path d="m22.7 9.55a.14.14 0 0 1 0-.06l.06-.07a.18.18 0 0 0 -.05.07.08.08 0 0 0 0 .05z" />
    <path d="m22.88 9.44a.17.17 0 0 0 0-.07.15.15 0 0 1 0 .07z" />
    <path d="m22.74 9.62a.1.1 0 0 1 .05-.06.05.05 0 0 1 0 0l-.05.05z" />
    <path
        d="m23.08 9.39a.33.33 0 0 1 0-.12.09.09 0 0 1 0-.07.12.12 0 0 1 .05-.07.08.08 0 0 0 0 .06.07.07 0 0 0 0 .06.16.16 0 0 0 .05.11z" />
    <path d="m23.22 9.24a.15.15 0 0 1 0-.07s0 0 0 0a0 0 0 0 0 0 0 0 0 0 0 1 0 .06.15.15 0 0 0 0 .07z" />
    <path d="m23.12 9.25v-.06a0 0 0 0 0 0 0z" />
    <path d="m22.81 9.63.06-.06a.09.09 0 0 0 0-.07.13.13 0 0 1 0 .08l-.05.06z" />
    <path d="m22.78 9.8a.18.18 0 0 1 .05-.07.13.13 0 0 0 0-.06.17.17 0 0 1 0 .07v.06z" />
    <path d="m23 9.82a0 0 0 0 1 0 0 .21.21 0 0 1 0-.14.21.21 0 0 0 .05-.13.24.24 0 0 1 0 .14.33.33 0 0 0 0 .14z" />
    <path d="m23.15 9.42a.08.08 0 0 0 0 0s0 0 0 0z" />
    <path
        d="m23.19 9.55s0 0 0 0a.33.33 0 0 0 0-.14.1.1 0 0 1 0-.09.15.15 0 0 0 0 .09 0 0 0 0 1 0 0 .38.38 0 0 1 0 .15z" />
    <path d="m23.25 9.33v-.06a.05.05 0 0 0 0 0v.05z" />
    <path d="m23.34 9.33a.08.08 0 0 0 0-.07.14.14 0 0 1 0-.06.43.43 0 0 0 0 .05s0 .06 0 .08z" />
    <path d="m23.39 9.25a.28.28 0 0 1 0-.09.25.25 0 0 0 0 .08z" />
    <path d="m23.4 9.17a.13.13 0 0 0 0-.06.13.13 0 0 1 0 .06z" />
    <path d="m23.48 9.2a0 0 0 0 0 0 0 0 0 0 0 1 0 0z" />
    <path d="m23.56 9.36a.32.32 0 0 0 0-.14.41.41 0 0 1 0 .16z" />
    <path d="m23.51 9.49a.13.13 0 0 1 0-.06.19.19 0 0 0 0-.1.17.17 0 0 1 0 .1.13.13 0 0 0 0 .06z" />
    <path d="m23.4 9.49a.13.13 0 0 0 0-.06.34.34 0 0 0 0-.1.22.22 0 0 1 0 .14z" />
    <path d="m23.28 9.6s0-.06 0-.08a.18.18 0 0 1 0 .09.08.08 0 0 1 0 0z" />
    <path d="m23 9.87a.14.14 0 0 1 0-.06.43.43 0 0 0 0 0 .14.14 0 0 1 0 .06s0 0 0 0z" />
    <path d="m23.13 9.9a.16.16 0 0 1 0-.07s0 0 0-.06v-.05-.12.08s0 0 0 .05 0 0 0 .06a.16.16 0 0 0 0 .07z" />
    <path d="m23.23 9.73a.25.25 0 0 1 0-.12.2.2 0 0 0 0 .11z" />
    <path d="m23.23 9.92a.18.18 0 0 0 0-.07s0 0 0 0 0 0 0-.06 0 0 0 .06a0 0 0 0 0 0 0l.05.07v-.08.05a0 0 0 0 1 0 0z" />
    <path d="m23 10a.17.17 0 0 1 0-.07.17.17 0 0 0 0 .07z" />
    <path d="m22.82 10.11h-.01v-.06h.01z" />
    <path d="m22.93 10.03-.01-.01v-.01l.01-.01v.01.01z" />
    <path d="m22.87 9.94v-.1z" />
    <path d="m23 10.56s0 0 0 0z" />
    <path d="m23.09 10.4a.06.06 0 0 0 0 0s0 0 0 0z" />
    <path d="m23.11 10.3s0 0 0 0z" />
    <path d="m23.14 10.14a.43.43 0 0 0 0 0 .19.19 0 0 1 0-.07.19.19 0 0 0 0 .07.18.18 0 0 0 0-.09.18.18 0 0 1 0 .1z" />
    <path d="m23.21 10a.05.05 0 0 1 0 0z" />
    <path d="m23.26 10.19s0 0 0 0v-.19s0 0 0 0z" />
    <path d="m23.33 10.17s0 0 0 0z" />
    <path d="m23.43 10.15a.28.28 0 0 1 0-.09.09.09 0 0 1 0-.05s0 0 0 0a.28.28 0 0 0 0 .09z" />
    <path
        d="m23.35 9.88a.07.07 0 0 0 0-.05.08.08 0 0 1 0 0s0 0 0 0 0 0 0-.05a.12.12 0 0 0 0-.11.16.16 0 0 1 0 .12.08.08 0 0 0 0 0 0 0 0 0 0 0 0 .08.08 0 0 0 0 .05.13.13 0 0 1 0 .06z" />
    <path d="m23.52 9.74s0 0 0-.06a.18.18 0 0 0 0-.11.21.21 0 0 1 0 .12.1.1 0 0 1 0 .07z" />
    <path d="m23.38 10v-.06a0 0 0 0 0 0 0v-.15.05a.06.06 0 0 1 0 0 .12.12 0 0 1 -.05 0z" />
    <path d="m23.34 9.88a.1.1 0 0 1 0-.05l.06-.09-.06.1v.06z" />
    <path d="m23.7 9.37s0 0 0 0a0 0 0 0 1 0 0v.06a.05.05 0 0 0 0 0z" />
    <path d="m23.71 9.28a.1.1 0 0 0 0 0v.06z" />
    <path d="m23.67 9.44a.08.08 0 0 1 0 0 0 0 0 0 0 0 0z" />
    <path d="m23.58 9.58s0 0 0 0z" />
    <path d="m23.54 9.81a.05.05 0 0 1 0 0 .41.41 0 0 0 0-.11.22.22 0 0 1 0 .11.05.05 0 0 0 0 0z" />
    <path d="m23.56 9.88a.05.05 0 0 1 0 0l.05-.07s0 0 0 0l-.05.07s0 0 0 0z" />
    <path d="m23.69 9.68v-.11l-.05-.07.05.07a0 0 0 0 1 0 0v.08z" />
    <path d="m23.79 9.38s0 0 0 0z" />
    <path d="m23.83 9.33s0 0 0-.06a.19.19 0 0 1 0 .07z" />
    <path
        d="m23.69 9.64a.25.25 0 0 0 0-.09.14.14 0 0 0 0-.07.31.31 0 0 1 .06.13.22.22 0 0 0 0-.11.14.14 0 0 1 0 .06.19.19 0 0 1 0 .1z" />
    <path d="m23.84 9.43s0 0 0 0a0 0 0 0 1 0 0z" />
    <path d="m23.52 10.15.07-.07s0 0 .06 0h-.05l-.08.06z" />
    <path d="m23.63 10v-.09s0 0 0 0a.05.05 0 0 1 0 0 .19.19 0 0 0 0-.09.12.12 0 0 1 0 .09z" />
    <path
        d="m23.79 9.87a.13.13 0 0 1 0-.08s0 0 0 0a.19.19 0 0 0 0-.08.28.28 0 0 1 0 .09v.06a.24.24 0 0 0 .21-.13s-.05.06-.09.07z" />
    <path d="m24 9.6a.08.08 0 0 0 0 0 .11.11 0 0 1 0 0 .06.06 0 0 0 0 0 .14.14 0 0 1 0 .06z" />
    <path d="m24 9.46a.4.4 0 0 0 0-.15.37.37 0 0 1 0 .15z" />
    <path d="m24 9.47a.19.19 0 0 0 0-.07 0 0 0 0 0 0 0 0 0 0 0 1 0 0s0 0 0 .07z" />
    <path d="m23.66 10.16h.05z" />
    <path
        d="m23.75 10.17a.17.17 0 0 1 0-.12s0 0 0 0l.05-.06-.05.06s0 0 0 0a.05.05 0 0 0 0 0 .14.14 0 0 0 0 .11.12.12 0 0 0 .05-.05v-.05a.09.09 0 0 0 0 .05.1.1 0 0 1 -.05 0h-.06z" />
    <path d="m23.77 10.31a.11.11 0 0 1 0-.05 0 0 0 0 1 0 0 .11.11 0 0 0 0 .05z" />
    <path d="m23.89 10.3a.08.08 0 0 1 0-.05z" />
    <path d="m24 10.3a.12.12 0 0 1 -.06-.08v-.08l-.06.07a.23.23 0 0 1 .07-.07.27.27 0 0 0 0 .09.13.13 0 0 0 .05.07z" />
    <path d="m23.87 10.18v-.11h.01v.11z" />
    <path d="m23.71 10s0 0 0 0z" />
    <path d="m24 9.84a.22.22 0 0 0 0-.09s0 0 0 0a.16.16 0 0 1 0 .07h.05a.12.12 0 0 0 0-.05s0 0 0 .06z" />
    <path d="m24.01 9.56v-.01-.04h.01v.04z" />
    <path d="m23.79 9.67s0 0 0 0a0 0 0 0 0 0 0z" />
    <path d="m24.09 10.08a.17.17 0 0 0 -.09-.08.16.16 0 0 1 .1.11s0 0 0 0v-.08.08s0 0 0 0v.07z" />
    <path d="m24 10.14s0 0 0 0z" />
    <path d="m24 10.29.1-.11a.52.52 0 0 0 -.1.11z" />
    <path d="m24.19 10.38a.14.14 0 0 0 0-.06.14.14 0 0 1 0 .06z" />
    <path d="m24.21 10.44a.12.12 0 0 1 .05-.05v.05z" />
    <path d="m24.2 10.56s0 0 0 0z" />
    <path d="m24.35 10.53v-.05a.11.11 0 0 1 0 .05z" />
    <path d="m24.33 10.4s0 0 0 0z" />
    <path d="m24.42 10.44a.08.08 0 0 0 0 0 .17.17 0 0 1 0 .05z" />
    <path d="m24.22 10.22h-.01v-.01l.01-.06h.01l-.01.06z" />
    <path d="m24.29 10.27a0 0 0 0 1 0 0z" />
    <path d="m24.34 10.21v-.06a.09.09 0 0 0 0-.05s0 0 0 .05a.09.09 0 0 0 0 .06z" />
    <path d="m24.41 10.21v-.01-.1h.01v.1z" />
    <path d="m24.5 10.29s0 0 0-.06a.08.08 0 0 0 0-.08.11.11 0 0 1 0 .08.13.13 0 0 0 0 .06z" />
    <path d="m24.59 10.19v.07z" />
    <path d="m24.57 10.07h.06-.07z" />
    <path d="m24.43 10v-.09.09s0 0 0 0a.22.22 0 0 0 0-.08.22.22 0 0 1 0 .08.43.43 0 0 0 0 0z" />
    <path d="m24.2 10s0 0 0 0a.14.14 0 0 0 0-.06.64.64 0 0 0 0 .07z" />
    <path d="m24.12 9.34s0 0 0 0z" />
    <path d="m24.23 9.48a0 0 0 0 0 0 0 .89.89 0 0 0 -.08-.17.76.76 0 0 1 .09.18 0 0 0 0 1 0 0z" />
    <path d="m24.23 9.32s0 0 0 0z" />
    <path d="m24.34 9.45a.08.08 0 0 0 0-.07s0 0 0 0a.19.19 0 0 1 0 .08z" />
    <path d="m24.34 9.38a.05.05 0 0 0 0 0s0 0 0 0 0 0 0 .05z" />
    <path d="m24.37 9.48v-.03h.01v.03z" />
    <path d="m24.45 9.51a.78.78 0 0 0 0-.14.68.68 0 0 1 0 .14z" />
    <path
        d="m24.19 9.85a.43.43 0 0 1 0-.05.33.33 0 0 1 0-.06.13.13 0 0 0 0-.08.1.1 0 0 1 0 .08v.06a.43.43 0 0 1 0 .05z" />
    <path d="m24.3 9.63a0 0 0 0 1 0 0z" />
    <path d="m24.18 9.85a.17.17 0 0 1 -.06-.06 0 0 0 0 1 0 0 .18.18 0 0 0 0-.1.23.23 0 0 1 0 .11s0 0 0 0l.05.06z" />
    <path
        d="m24.29 9.86a.17.17 0 0 0 0-.14.17.17 0 0 1 0 .14s.05 0 .06-.06 0-.07 0-.1a.06.06 0 0 0 0 0 .08.08 0 0 0 0 0 .1.1 0 0 0 0-.05v.05a.14.14 0 0 1 0 .06.08.08 0 0 1 0 0s0 .07 0 .1a0 0 0 0 0 0 0 .16.16 0 0 1 -.08.06z" />
    <path d="m24.5 9.43s0 0 0 0z" />
    <path d="m24.59 9.48v-.07l.05.07s0 0 0 0z" />
    <path d="m24.55 9.58a.09.09 0 0 0 0-.07.13.13 0 0 1 0 .08z" />
    <path d="m24.48 9.74v-.06a.11.11 0 0 0 0-.08.14.14 0 0 1 0 .09z" />
    <path d="m24.49 9.79a0 0 0 0 1 0 0 0 0 0 0 0 0 0z" />
    <path d="m24.74 9.65a.18.18 0 0 0 -.08-.07.16.16 0 0 1 .07.07z" />
    <path d="m24.94 9.41a0 0 0 0 0 0 0s0 0 0 0z" />
    <path d="m24.77 9.45v-.03-.01h.01v.01.03z" />
    <path d="m23.18 8.41s0 0 0 0z" />
    <path d="m23.33 8.4a.13.13 0 0 0 0-.08l-.06-.05.07.05a.11.11 0 0 1 0 .08z" />
    <path d="m23.4 8.24v-.06a.05.05 0 0 0 0 0h.05a.15.15 0 0 1 0 .07z" />
    <path d="m23.47 8.42s0 0 0-.05a.06.06 0 0 0 0-.06 0 0 0 0 1 0 0 .07.07 0 0 1 0 .06.1.1 0 0 1 0 .05z" />
    <path d="m23.59 8.24a.08.08 0 0 0 0-.08.1.1 0 0 1 0 .09z" />
    <path d="m23.9 8.35s0 0 0 0a.08.08 0 0 1 0 .05z" />
    <path d="m24.21 8.47a0 0 0 0 0 0 0 0 0 0 0 1 0 0z" />
    <path d="m24.33 8.48s0 0 0 0z" />
    <path d="m23.64 8.46a.12.12 0 0 0 .08-.06.14.14 0 0 0 0-.09.09.09 0 0 1 0 .1.22.22 0 0 1 -.07.06z" />
    <path d="m23.77 8.52h.08a.08.08 0 0 0 0-.07.09.09 0 0 1 -.06.09z" />
    <path d="m24 8.65a.09.09 0 0 0 0 0 .07.07 0 0 1 0 0z" />
    <path d="m24.13 8.77h.11s0 0 0 0a0 0 0 0 1 0 0z" />
    <path d="m24.32 8.84h.05a0 0 0 0 0 0 0s0 0 0 0z" />
    <path d="m24.47 8.87s0 0 0 0z" />
    <path d="m22.93 8.54s0 0 0 0a0 0 0 0 1 0 0 0 0 0 0 1 -.04 0z" />
    <path d="m20.25 30.73a7.87 7.87 0 0 1 -7.86-7.86v-9.37h15.72v9.37a7.87 7.87 0 0 1 -7.86 7.86z" fill="#f00" />
    <path d="m20.25 30.59a7.74 7.74 0 0 1 -7.74-7.73v-9.22h15.49v9.22a7.74 7.74 0 0 1 -7.75 7.73z" fill="#fff" />
    <g fill="#f00">
        <path d="m18.76 13.94h2.97v3.27h-2.97z" />
        <path d="m15.79 17.21h2.97v3.27h-2.97z" />
        <path d="m21.73 17.21h2.97v3.27h-2.97z" />
        <path d="m15.79 23.74h2.97v3.27h-2.97z" />
        <path d="m21.73 23.74h2.97v3.27h-2.97z" />
        <path d="m12.82 13.94h2.97v3.27h-2.97z" />
        <path d="m24.7 13.94h2.97v3.27h-2.97z" transform="matrix(-1 0 0 -1 52.38 31.15)" />
        <path d="m18.76 20.47h2.97v3.27h-2.97z" />
        <path d="m15.79 20.47v3.27h-2.92a6.55 6.55 0 0 1 0-.89v-2.38z" />
        <path d="m27.67 20.47v2.38a6.55 6.55 0 0 1 -.05.89h-2.92v-3.27z" />
        <path d="m21.73 27v3.13a9.26 9.26 0 0 1 -3 0v-3.13z" />
        <path d="m15.79 27v1.8a7.46 7.46 0 0 1 -1.7-1.8z" />
        <path d="m26.4 27a7.42 7.42 0 0 1 -1.7 1.79v-1.79z" />
    </g>
</svg>