<svg viewBox="0 0 40.5 40.5" xmlns="http://www.w3.org/2000/svg">
    <path d="m39.34 13.5h-38.18a20.25 20.25 0 0 1 38.18 0z" fill="#f93" />
    <path d="m40.5 20.25a20 20 0 0 1 -1.16 6.75h-38.18a20.22 20.22 0 0 1 0-13.5h38.18a20 20 0 0 1 1.16 6.75z"
        fill="#fff" />
    <path d="m39.34 27a20.25 20.25 0 0 1 -38.18 0z" fill="#128807" />
    <g fill="#008">
        <circle cx="20.25" cy="20.25" r=".93" />
        <path
            d="m20.25 14.84a5.41 5.41 0 1 0 5.41 5.41 5.42 5.42 0 0 0 -5.41-5.41zm4.48 7a2.67 2.67 0 0 1 -.2.46 3 3 0 0 1 -.37.65c-.09.13-.2.27-.31.4a4.1 4.1 0 0 1 -.51.51c-.13.11-.27.22-.4.31a3 3 0 0 1 -.65.37 2.67 2.67 0 0 1 -.46.2 4.26 4.26 0 0 1 -.7.19 4.08 4.08 0 0 1 -.52.07h-.72a4.08 4.08 0 0 1 -.52-.07 4.26 4.26 0 0 1 -.7-.19 2.67 2.67 0 0 1 -.46-.2 3 3 0 0 1 -.65-.37c-.13-.09-.27-.2-.4-.31a4.1 4.1 0 0 1 -.51-.51c-.11-.13-.22-.27-.31-.4a3 3 0 0 1 -.37-.65 2.67 2.67 0 0 1 -.2-.46 4.26 4.26 0 0 1 -.19-.7 2.85 2.85 0 0 1 -.06-.52c0-.12 0-.24 0-.36s0-.24 0-.36a2.85 2.85 0 0 1 .06-.52 4.26 4.26 0 0 1 .19-.7 2.67 2.67 0 0 1 .2-.46 3 3 0 0 1 .37-.65c.09-.13.2-.27.31-.4a4.1 4.1 0 0 1 .51-.51c.13-.11.27-.22.4-.31a3 3 0 0 1 .65-.37 2.67 2.67 0 0 1 .46-.2 4.26 4.26 0 0 1 .7-.19 2.85 2.85 0 0 1 .52-.06h.72a2.85 2.85 0 0 1 .52.06 4.26 4.26 0 0 1 .7.19 2.67 2.67 0 0 1 .46.2 3 3 0 0 1 .65.37c.13.09.27.2.4.31a4.1 4.1 0 0 1 .51.51c.11.13.22.27.31.4a3 3 0 0 1 .37.65 2.67 2.67 0 0 1 .2.46 4.26 4.26 0 0 1 .19.7 4.08 4.08 0 0 1 .07.52v.36s0 .24 0 .36a4.08 4.08 0 0 1 -.07.52 4.26 4.26 0 0 1 -.19.69z" />
        <path d="m20.25 19.63-.16-1.25.16-2.76.16 2.76z" />
        <path d="m20.09 19.65-.48-1.17-.56-2.7.87 2.62z" />
        <path d="m19.94 19.71-.77-1-1.24-2.47 1.52 2.3z" />
        <path d="m19.81 19.81-1-.77-1.83-2.06 2.06 1.83z" />
        <path d="m19.71 19.94-1.17-.49-2.3-1.52 2.47 1.24z" />
        <path d="m19.65 20.09-1.25-.17-2.62-.87 2.7.56z" />
        <path d="m19.63 20.25-1.25.16-2.76-.16 2.76-.16z" />
        <path d="m19.65 20.41-1.17.48-2.7.56 2.62-.87z" />
        <path d="m19.71 20.56-1 .77-2.47 1.24 2.3-1.52z" />
        <path d="m19.81 20.69-.77 1-2.06 1.83 1.83-2.06z" />
        <path d="m19.94 20.79-.49 1.17-1.52 2.3 1.24-2.47z" />
        <path d="m20.09 20.85-.17 1.25-.87 2.62.56-2.7z" />
        <path d="m20.25 20.87.16 1.26-.16 2.75-.16-2.75z" />
        <path d="m20.41 20.85.48 1.17.56 2.7-.87-2.62z" />
        <path d="m20.56 20.79.77 1 1.24 2.47-1.52-2.3z" />
        <path d="m20.69 20.69 1 .77 1.83 2.06-2.06-1.83z" />
        <path d="m20.79 20.56 1.17.49 2.3 1.52-2.47-1.24z" />
        <path d="m20.85 20.41 1.25.17 2.62.87-2.7-.56z" />
        <path d="m20.87 20.25 1.26-.16 2.75.16-2.75.16z" />
        <path d="m20.85 20.09 1.17-.48 2.7-.56-2.62.87z" />
        <path d="m20.79 19.94 1-.77 2.47-1.24-2.3 1.52z" />
        <path d="m20.69 19.81.77-1 2.06-1.83-1.83 2.06z" />
        <path d="m20.56 19.71.49-1.17 1.52-2.3-1.24 2.47z" />
        <path d="m20.41 19.65.17-1.25.87-2.62-.56 2.7z" />
        <path d="m19.88 15.51a.26.26 0 0 1 -.22.29.25.25 0 0 1 -.28-.22.26.26 0 0 1 .22-.29.24.24 0 0 1 .28.22z" />
        <path d="m18.67 15.77a.25.25 0 0 1 -.14.33.25.25 0 0 1 -.19-.47.25.25 0 0 1 .33.14z" />
        <path d="m17.56 16.33a.26.26 0 0 1 0 .36.26.26 0 0 1 -.36-.05.25.25 0 0 1 .05-.36.25.25 0 0 1 .31.05z" />
        <path d="m16.64 17.16a.26.26 0 0 1 .05.36.26.26 0 0 1 -.36 0 .25.25 0 0 1 0-.35.25.25 0 0 1 .31-.01z" />
        <path d="m16 18.2a.25.25 0 0 1 .14.33.25.25 0 1 1 -.47-.19.25.25 0 0 1 .33-.14z" />
        <path d="m15.58 19.38a.25.25 0 0 1 .22.28.26.26 0 0 1 -.29.22.24.24 0 0 1 -.22-.28.26.26 0 0 1 .29-.22z" />
        <path d="m15.51 20.62a.26.26 0 0 1 .29.22.25.25 0 0 1 -.22.28.26.26 0 0 1 -.29-.22.24.24 0 0 1 .22-.28z" />
        <path d="m15.77 21.83a.25.25 0 0 1 .33.14.25.25 0 1 1 -.47.19.25.25 0 0 1 .14-.33z" />
        <path d="m16.33 22.94a.26.26 0 0 1 .36 0 .26.26 0 0 1 -.05.36.25.25 0 0 1 -.36-.05.25.25 0 0 1 .05-.31z" />
        <path d="m17.16 23.86a.26.26 0 0 1 .36-.05.26.26 0 0 1 0 .36.25.25 0 0 1 -.35 0 .25.25 0 0 1 -.01-.31z" />
        <path d="m18.2 24.54a.25.25 0 0 1 .33-.14.25.25 0 1 1 -.19.47.25.25 0 0 1 -.14-.33z" />
        <path d="m19.38 24.92a.25.25 0 0 1 .28-.22.26.26 0 0 1 .22.29.24.24 0 0 1 -.28.22.26.26 0 0 1 -.22-.29z" />
        <path d="m20.62 25a.26.26 0 0 1 .22-.29.25.25 0 0 1 .28.22.26.26 0 0 1 -.22.29.24.24 0 0 1 -.28-.22z" />
        <path d="m21.83 24.73a.25.25 0 0 1 .17-.33.25.25 0 0 1 .19.47.25.25 0 0 1 -.36-.14z" />
        <path d="m22.94 24.17a.26.26 0 0 1 0-.36.26.26 0 0 1 .36.05.25.25 0 0 1 -.05.36.25.25 0 0 1 -.31-.05z" />
        <path d="m23.86 23.34a.26.26 0 0 1 -.05-.36.26.26 0 0 1 .36 0 .25.25 0 0 1 0 .35.25.25 0 0 1 -.31.01z" />
        <path d="m24.54 22.3a.25.25 0 0 1 -.14-.3.25.25 0 0 1 .47.19.25.25 0 0 1 -.33.11z" />
        <path d="m24.92 21.12a.25.25 0 0 1 -.22-.28.26.26 0 0 1 .29-.22.24.24 0 0 1 .22.28.26.26 0 0 1 -.29.22z" />
        <path d="m25 19.88a.26.26 0 0 1 -.29-.22.25.25 0 0 1 .22-.28.26.26 0 0 1 .29.22.24.24 0 0 1 -.22.28z" />
        <path d="m24.73 18.67a.25.25 0 0 1 -.33-.14.25.25 0 0 1 .47-.19.25.25 0 0 1 -.14.33z" />
        <path d="m24.17 17.56a.26.26 0 0 1 -.36 0 .26.26 0 0 1 .05-.36.25.25 0 0 1 .36.05.25.25 0 0 1 -.05.31z" />
        <path d="m23.34 16.64a.26.26 0 0 1 -.36.05.26.26 0 0 1 0-.36.25.25 0 0 1 .35 0 .25.25 0 0 1 .01.31z" />
        <path d="m22.3 16a.25.25 0 0 1 -.33.14.25.25 0 0 1 .19-.47.25.25 0 0 1 .14.33z" />
        <path d="m21.12 15.58a.25.25 0 0 1 -.28.22.26.26 0 0 1 -.22-.29.24.24 0 0 1 .28-.22.26.26 0 0 1 .22.29z" />
    </g>
</svg>