<svg viewBox="0 0 40.5 40.5" xmlns="http://www.w3.org/2000/svg">
    <path d="m40.5 20.25a20.17 20.17 0 0 1 -1.16 6.75h-38.18a20.3 20.3 0 0 1 0-13.5h38.2a20.34 20.34 0 0 1 1.14 6.75z"
        fill="#fff" />
    <path
        d="m39.34 27v.13c-.06.16-.12.32-.19.49s-.1.22-.14.34l-.13.31a2.76 2.76 0 0 1 -.18.39 2 2 0 0 1 -.09.22 2.79 2.79 0 0 1 -.18.34 20.23 20.23 0 0 1 -36.28 0 2.79 2.79 0 0 1 -.18-.34l-.12-.28a2.41 2.41 0 0 1 -.15-.33l-.17-.27c0-.12-.1-.23-.14-.34l-.2-.54a.11.11 0 0 1 0-.08z"
        fill="#da0000" />
    <path
        d="m39.35 13.51h-38.2s0-.06 0-.1c.09-.27.2-.53.31-.8s.19-.46.3-.69.09-.2.13-.31l.16-.32a20.25 20.25 0 0 1 36.32 0l.16.32c0 .11.09.2.13.31a6.17 6.17 0 0 1 .29.65c.11.27.21.53.31.79a1.31 1.31 0 0 0 .09.15z"
        fill="#239f40" />
    <g fill="#fff">
        <path d="m1.19 13.41v.1s-.02-.06 0-.1z" />
        <path d="m1.5 13.18h2.84v.33h-2.84z" />
        <path d="m2.44 11.29v.32h-.51l.16-.32z" />
        <path
            d="m4.33 11.29v1.58h-1.58v-.61h-.94v.28h.63v.33h-.94v-.26q.14-.34.3-.69h1v-.63h.33v1.25h.27v-1.25h.31v1.25h.29v-1.25z" />
        <path d="m4.65 13.18h2.84v.33h-2.84z" />
        <path d="m7.8 13.18h2.84v.33h-2.84z" />
        <path d="m4.65 11.28h4.09v.33h-4.09z" />
        <path d="m5.29 12.54h.31v.33h-.31z" />
        <path
            d="m10.33 11.29v1.25h-.32v-1.25h-.31v1.25h-.32v-.29-.32-.64h-.32v.64h-.95-.02-.29v.94h.29.02.63v-.33h-.63v-.29h.95v.62h.22.1.32.31.32.1.21v-1.58z" />
        <path
            d="m7.16 11.93h-.61v.32h.61v.29h-.93v-.29-.32h-.33-.92-.33v.32.62h.33v-.62h.92v.29.33h.33.93.33v-.33-.29-.32z" />
        <path d="m10.95 13.18h2.84v.33h-2.84z" />
        <path d="m14.1 13.18h2.84v.33h-2.84z" />
        <path d="m10.95 11.28h4.09v.33h-4.09z" />
        <path d="m11.59 12.54h.31v.33h-.31z" />
        <path
            d="m16.63 11.29v1.25h-.32v-1.25h-.31v1.25h-.32v-.29-.32-.64h-.32v.64h-.95-.02-.29v.94h.29.02.63v-.33h-.63v-.29h.95v.62h.21.11.32.31.32.1.21v-1.58z" />
        <path
            d="m13.46 11.93h-.61v.32h.61v.29h-.93v-.29-.32h-.33-.92-.33v.32.62h.33v-.62h.92v.29.33h.33.93.33v-.33-.29-.32z" />
        <path d="m17.25 13.18h2.84v.33h-2.84z" />
        <path d="m20.4 13.18h2.84v.33h-2.84z" />
        <path d="m17.25 11.28h4.09v.33h-4.09z" />
        <path d="m17.89 12.54h.31v.33h-.31z" />
        <path
            d="m22.93 11.29v1.25h-.32v-1.25h-.31v1.25h-.32v-.29-.32-.64h-.32v.64h-.95-.02-.29v.94h.29.02.63v-.33h-.63v-.29h.95v.62h.22.1.32.31.32.1.21v-1.58z" />
        <path
            d="m19.76 11.93h-.6v.32h.6v.29h-.93v-.29-.32h-.33-.92-.33v.32.62h.33v-.62h.92v.29.33h.33.93.33v-.33-.29-.32z" />
        <path d="m23.55 13.18h2.84v.33h-2.84z" />
        <path d="m26.7 13.18h2.84v.33h-2.84z" />
        <path d="m23.55 11.28h4.09v.33h-4.09z" />
        <path d="m24.19 12.54h.31v.33h-.31z" />
        <path
            d="m29.23 11.29v1.25h-.32v-1.25h-.31v1.25h-.32v-.29-.32-.64h-.32v.64h-.94-.03-.29v.94h.29.03.62v-.33h-.62v-.29h.94v.62h.22.1.32.31.32.11.2v-1.58z" />
        <path
            d="m26.07 11.93h-.61v.32h.61v.29h-.94v-.29-.32h-.33-.92-.33v.32.62h.33v-.62h.92v.29.33h.33.94.32v-.33-.29-.32z" />
        <path d="m29.86 13.18h2.84v.33h-2.84z" />
        <path d="m33 13.18h2.84v.33h-2.84z" />
        <path d="m29.86 11.28h4.09v.33h-4.09z" />
        <path d="m30.49 12.54h.31v.33h-.31z" />
        <path
            d="m35.53 11.29v1.25h-.31v-1.25h-.32v1.25h-.32v-.29-.32-.64h-.32v.64h-.94-.03-.29v.94h.29.03.62v-.33h-.62v-.29h.94v.62h.22.1.32.32.31.11.2v-1.58z" />
        <path
            d="m32.37 11.93h-.61v.32h.61v.29h-.94v-.29-.32h-.33-.92-.32v.32.62h.32v-.62h.92v.29.33h.33.94.32v-.33-.29-.32z" />
        <path d="m36.16 13.18h2.84v.33h-2.84z" />
        <path d="m39.35 13.51h-.05v-.15a1.31 1.31 0 0 0 .05.15z" />
        <path d="m38.57 11.61h-2.42v-.32h2.26z" />
        <path d="m36.79 12.54h.31v.33h-.31z" />
        <path d="m39 12.57v.3h-1.59v-.61h-.93v.61h-.33v-.95h1.58v.62h.93v-.28h-.6v-.34h.64a6.17 6.17 0 0 1 .3.65z" />
        <path d="m2.44 27.63v.37h-.91c0-.12-.1-.23-.14-.34z" />
        <path d="m1.93 28.89h.51v.34h-.33a2.79 2.79 0 0 1 -.18-.34z" />
        <path
            d="m4.33 27.63v1.6h-1.58v-.62h-.94a2.41 2.41 0 0 1 -.15-.33h1.09v-.65h.33v1.26h.32v-1.26h.31v1.26h.29v-1.26z" />
        <path d="m4.65 27.64h4.09v.33h-4.09z" />
        <path d="m5.29 28.89h.31v.33h-.31z" />
        <path
            d="m10.33 27.64v1.25h-.32v-1.25h-.31v1.25h-.32v-.28-.33-.64h-.32v.64h-.95-.02-.29v.94h.29.02.63v-.33h-.63v-.28h.95v.61h.22.1.32.31.32.1.21v-1.58z" />
        <path
            d="m7.16 28.28h-.61v.33h.61v.28h-.93v-.28-.33h-.33-.92-.33v.33.61h.33v-.61h.92v.28.33h.33.93.33v-.33-.28-.33z" />
        <path d="m10.95 27.64h4.09v.33h-4.09z" />
        <path d="m11.59 28.89h.31v.33h-.31z" />
        <path
            d="m16.63 27.64v1.25h-.32v-1.25h-.31v1.25h-.32v-.28-.33-.64h-.32v.64h-.95-.02-.29v.94h.29.02.63v-.33h-.63v-.28h.95v.61h.21.11.32.31.32.1.21v-1.58z" />
        <path
            d="m13.46 28.28h-.61v.33h.61v.28h-.93v-.28-.33h-.33-.92-.33v.33.61h.33v-.61h.92v.28.33h.33.93.33v-.33-.28-.33z" />
        <path d="m17.25 27.64h4.09v.33h-4.09z" />
        <path d="m17.89 28.89h.31v.33h-.31z" />
        <path
            d="m22.93 27.64v1.25h-.32v-1.25h-.31v1.25h-.32v-.28-.33-.64h-.32v.64h-.95-.02-.29v.94h.29.02.63v-.33h-.63v-.28h.95v.61h.22.1.32.31.32.1.21v-1.58z" />
        <path
            d="m19.76 28.28h-.6v.33h.6v.28h-.93v-.28-.33h-.33-.92-.33v.33.61h.33v-.61h.92v.28.33h.33.93.33v-.33-.28-.33z" />
        <path d="m23.55 27.64h4.09v.33h-4.09z" />
        <path d="m24.19 28.89h.31v.33h-.31z" />
        <path
            d="m29.23 27.64v1.25h-.32v-1.25h-.31v1.25h-.32v-.28-.33-.64h-.32v.64h-.94-.03-.29v.94h.29.03.62v-.33h-.62v-.28h.94v.61h.22.1.32.31.32.11.2v-1.58z" />
        <path
            d="m26.07 28.28h-.61v.33h.61v.28h-.94v-.28-.33h-.33-.92-.33v.33.61h.33v-.61h.92v.28.33h.33.94.32v-.33-.28-.33z" />
        <path d="m29.86 27.64h4.09v.33h-4.09z" />
        <path d="m30.49 28.89h.31v.33h-.31z" />
        <path
            d="m35.53 27.64v1.25h-.31v-1.25h-.32v1.25h-.32v-.28-.33-.64h-.32v.64h-.94-.03-.29v.94h.29.03.62v-.33h-.62v-.28h.94v.61h.22.1.32.32.31.11.2v-1.58z" />
        <path
            d="m32.37 28.28h-.61v.33h.61v.28h-.94v-.28-.33h-.33-.92-.32v.33.61h.32v-.61h.92v.28.33h.33.94.32v-.33-.28-.33z" />
        <path d="m39.11 27.63c0 .11-.1.22-.14.34h-2.82v-.34z" />
        <path d="m36.79 28.89h.31v.33h-.31z" />
        <path d="m37.73 28.89h.84a2.79 2.79 0 0 1 -.18.34h-1v-.62h-.93v.62h-.33v-.95h1.58z" />
        <path d="m38.66 28.67v-.06h-.6v-.33h.78a2.76 2.76 0 0 1 -.18.39z" />
        <path d="m1.19 27v.08a.11.11 0 0 1 0-.08z" />
        <path d="m1.5 27.02h2.84v.33h-2.84z" />
        <path d="m4.65 27.02h2.84v.33h-2.84z" />
        <path d="m7.8 27.02h2.84v.33h-2.84z" />
        <path d="m10.95 27.02h2.84v.33h-2.84z" />
        <path d="m14.1 27.02h2.84v.33h-2.84z" />
        <path d="m17.25 27.02h2.84v.33h-2.84z" />
        <path d="m20.4 27.02h2.84v.33h-2.84z" />
        <path d="m23.55 27.02h2.84v.33h-2.84z" />
        <path d="m26.7 27.02h2.84v.33h-2.84z" />
        <path d="m29.86 27.02h2.84v.33h-2.84z" />
        <path d="m33 27.02h2.84v.33h-2.84z" />
        <path d="m36.16 27.02h2.84v.33h-2.84z" />
        <path d="m39.34 27v.13z" />
    </g>
    <path
        d="m21.54 15.39a.72.72 0 0 1 -1.3.19.71.71 0 0 1 -1.24-.19s-.11 1 .62 1a.89.89 0 0 0 .67-.31.88.88 0 0 0 .67.31c.7-.04.58-1 .58-1z"
        fill="#da0000" />
    <path
        d="m20.24 16.29a1.82 1.82 0 0 1 -.6.46s.07 6.19.19 8l.41.53.42-.53c.11-1.83.18-8 .18-8a1.82 1.82 0 0 1 -.6-.46z"
        fill="#da0000" />
    <path d="m25.31 20.26a3.89 3.89 0 0 1 -2 3.42 5 5 0 0 0 -1-7.2 3.87 3.87 0 0 1 3 3.78z" fill="#da0000" />
    <path d="m23.51 20.08a4.63 4.63 0 0 1 -6.07 4.4h.3a5 5 0 0 0 4.16-7.91 4.6 4.6 0 0 1 1.61 3.51z" fill="#da0000" />
    <path d="m15.18 20.26a3.9 3.9 0 0 0 2 3.42 5 5 0 0 1 1-7.2 3.86 3.86 0 0 0 -3 3.78z" fill="#da0000" />
    <path d="m17 20.08a4.63 4.63 0 0 0 6 4.4h-.29a5 5 0 0 1 -4.17-7.91 4.6 4.6 0 0 0 -1.54 3.51z" fill="#da0000" />
</svg>