<svg viewBox="0 0 40.5 40.5" xmlns="http://www.w3.org/2000/svg">
    <path d="m37.79 10.13h-35.08a20.25 20.25 0 0 1 35.08 0z" fill="#032ea1" />
    <path d="m37.77 30.39a20.24 20.24 0 0 1 -35 0z" fill="#032ea1" />
    <path
        d="m40.5 20.25a20.16 20.16 0 0 1 -2.73 10.14h-35a20.21 20.21 0 0 1 -1.61-16.89 21.93 21.93 0 0 1 1.55-3.37h35.08a21.93 21.93 0 0 1 1.55 3.37 20.19 20.19 0 0 1 1.16 6.75z"
        fill="#e00025" />
    <path d="m10.91 19.24h18.67v4.94h-18.67z" fill="#fff" />
    <path
        d="m29.58 24.22h-18.67a0 0 0 0 1 0 0v-4.98a0 0 0 0 1 0 0h18.67a0 0 0 0 1 0 0v4.93a0 0 0 0 1 0 .05zm-18.58-.09h18.54v-4.85h-18.54z" />
    <path d="m20.25 12.61h-.69v.27h1.34v-.27z" fill="#fff" />
    <path d="m20.9 12.92h-1.31s0 0 0 0v-.27s0 0 0 0h1.37s0 0 0 0v.27a0 0 0 0 1 -.06 0zm-1.27-.08h1.24v-.19h-1.26z" />
    <path d="m20.25 12.88h-.8v.32h1.55v-.32z" fill="#fff" />
    <path d="m21 13.24h-1.52s0 0 0 0v-.31s0 0 0 0h1.65s0 0 0 0v.31a0 0 0 0 1 -.13 0zm-1.49-.08h1.49v-.24h-1.5z" />
    <path d="m20.25 13.2h-.86l.09.54h1.52l.09-.54z" fill="#fff" />
    <path
        d="m21 13.78h-1.52s0 0 0 0l-.09-.54s0 0 0 0h1.77s0 0 0 0l-.09.54s-.07 0-.07 0zm-1.49-.08h1.49l.08-.46h-1.64z" />
    <path
        d="m21.25 13.59a.28.28 0 0 1 -.15.15h-1.71a.28.28 0 0 1 -.15-.15s-.17.15-.07.29.16.09.16.41h1.83a.45.45 0 0 1 .16-.41c.1-.14-.07-.29-.07-.29z"
        fill="#fff" />
    <path
        d="m21.16 14.33h-1.83a0 0 0 0 1 0 0c0-.23-.05-.28-.1-.33l-.05-.06a.26.26 0 0 1 .07-.34s0 0 0 0 .09.1.12.12h1.69s.11-.06.13-.12 0 0 0 0a.26.26 0 0 1 .07.34s0 0-.05.06-.1.1-.1.33a0 0 0 0 1 .05 0zm-1.79-.08h1.75c0-.24.07-.3.13-.35v-.05c.05-.06 0-.14 0-.19a.35.35 0 0 1 -.14.12h-1.73a.3.3 0 0 1 -.15-.12c0 .05-.07.13 0 .19v.05c.07.1.14.1.14.35z" />
    <path
        d="m21.46 14a1.06 1.06 0 0 1 -.11.21.15.15 0 0 1 -.14.06h-1.92a.14.14 0 0 1 -.14-.06 1.13 1.13 0 0 1 -.15-.21s-.15.29-.05.45.16.09.13.47h2.28c0-.38.06-.37.13-.47s-.03-.45-.03-.45z"
        fill="#fff" />
    <path
        d="m21.39 15h-2.28a0 0 0 0 1 0 0c0-.27 0-.33-.08-.38v-.06c-.11-.18 0-.48.06-.49s0 0 0 0a0 0 0 0 1 0 0 1.52 1.52 0 0 0 .11.2s.05 0 .11 0h1.92.1a.84.84 0 0 0 .11-.2 0 0 0 0 1 0 0 0 0 0 0 1 .05 0s.16.31.05.49l-.05.06c-.05 0-.1.11-.07.38zm-2.24-.09h2.19c0-.27 0-.33.1-.4a.1.1 0 0 0 0-.05.4.4 0 0 0 0-.32l-.08.14a.19.19 0 0 1 -.17.07h-1.9a.2.2 0 0 1 -.18-.07l-.11-.16a.4.4 0 0 0 0 .32v.05c.11.07.17.13.15.4z" />
    <path
        d="m21.67 14.5a2.12 2.12 0 0 1 -.12.41 1.09 1.09 0 0 1 -.34 0h-1.92a1.13 1.13 0 0 1 -.35 0 3.17 3.17 0 0 1 -.12-.41 1 1 0 0 0 -.05.69c.06.12.16.12.13.57h2.7c0-.45.06-.45.13-.57a1.09 1.09 0 0 0 -.06-.69z"
        fill="#fff" />
    <path
        d="m21.6 15.8h-2.7s0 0 0 0a0 0 0 0 1 0 0c0-.34 0-.41-.08-.48l-.05-.07a1.09 1.09 0 0 1 .06-.73 0 0 0 0 1 0 0 3.57 3.57 0 0 0 .1.35 1.26 1.26 0 0 0 .28 0h2a1.26 1.26 0 0 0 .28 0 2 2 0 0 0 .1-.35s0 0 0 0a1 1 0 0 1 .05.73.18.18 0 0 1 -.05.07c-.05.07-.1.14-.07.48zm-2.66-.08h2.61c0-.33 0-.41.1-.49s0 0 0-.06a.77.77 0 0 0 0-.52 1.31 1.31 0 0 1 -.09.28s-.1.05-.35.05h-2c-.24 0-.32 0-.34-.05a1.31 1.31 0 0 1 -.09-.28.77.77 0 0 0 0 .52l.05.06a.66.66 0 0 1 .11.49z" />
    <path
        d="m21.92 15.28c0 .48-.32.48-.32.48h-2.7s-.3 0-.33-.48a.52.52 0 0 0 0 .7.87.87 0 0 1 .26.67h2.87a.84.84 0 0 1 .3-.65.51.51 0 0 0 -.08-.72z"
        fill="#fff" />
    <path
        d="m21.68 16.69h-2.9a0 0 0 0 1 0 0 .7.7 0 0 0 -.2-.57l-.07-.12a.57.57 0 0 1 0-.75h.05s0 0 0 0c0 .43.28.44.29.44h2.7s.25 0 .28-.44a0 0 0 0 1 0 0 .56.56 0 0 1 .17.75l-.06.08a.77.77 0 0 0 -.2.57s0 0 0 0-.04.04-.06.04zm-2.82-.08h2.78a.74.74 0 0 1 .22-.58.35.35 0 0 0 .05-.08.46.46 0 0 0 0-.57c-.06.42-.35.42-.35.42h-2.66s-.29 0-.36-.42a.48.48 0 0 0 0 .57l.06.08a.81.81 0 0 1 .26.58z" />
    <path
        d="m22 16.38c-.07.31-.28.27-.28.27h-2.91s-.21 0-.28-.27a.4.4 0 0 0 0 .53c.07.08.23.2.23.35s0 .6 0 .6h3v-.6c0-.15.16-.27.23-.35a.39.39 0 0 0 .01-.53z"
        fill="#fff" />
    <path
        d="m21.73 17.9h-3a0 0 0 0 1 0 0s0-.45 0-.6-.09-.19-.16-.26l-.06-.06a.44.44 0 0 1 0-.59s0 0 0 0c.06.26.23.24.23.24h2.89s.17 0 .23-.24t0 0a.44.44 0 0 1 0 .59.17.17 0 0 1 -.06.06.48.48 0 0 0 -.16.26v.6a0 0 0 0 1 0 0zm-2.93-.08h2.89v-.56a.54.54 0 0 1 .18-.31.17.17 0 0 1 .06-.06.37.37 0 0 0 .05-.42c-.09.23-.27.23-.3.22h-2.87s-.21 0-.29-.22a.34.34 0 0 0 .05.42l.05.06a.49.49 0 0 1 .18.31c.01.13 0 .44 0 .56z" />
    <path
        d="m20.43 13.63c0-.08-.18-.18-.18-.18s-.17.1-.19.18a.42.42 0 0 0 -.22-.09v.34l.41.22.41-.22v-.34a.47.47 0 0 0 -.23.09z"
        fill="#fff" />
    <path
        d="m20.25 14.14-.41-.21a.08.08 0 0 1 0 0v-.34a0 0 0 0 1 0 0 .44.44 0 0 1 .21.07.58.58 0 0 1 .18-.16 1 1 0 0 1 .18.16.4.4 0 0 1 .21-.07 0 0 0 0 1 0 0v.34a.08.08 0 0 1 0 0l-.41.21zm-.37-.29.37.2.36-.2v-.27a.49.49 0 0 0 -.15.09 0 0 0 0 1 0 0 .37.37 0 0 0 -.14-.14.34.34 0 0 0 -.15.14s0 0 0 0a.47.47 0 0 0 -.16-.09z" />
    <path d="m20.25 17.86a2 2 0 0 0 -.71 1.5s-.18-.38-.35-.38v.66h1.06z" fill="#fff" />
    <path
        d="m20.25 19.68h-1.06a0 0 0 0 1 0 0v-.68a0 0 0 0 1 0 0c.12 0 .24.16.31.27a2 2 0 0 1 .72-1.38 0 0 0 0 1 .05 0 .05.05 0 0 1 0 0v1.78a0 0 0 0 1 -.02.01zm-1-.09h1v-1.59a1.9 1.9 0 0 0 -.63 1.41s0 0 0 0a0 0 0 0 1 -.05 0 .77.77 0 0 0 -.26-.34z" />
    <path
        d="m22.68 20.23h-1.54a0 0 0 0 1 -.05 0v-.55a0 0 0 0 1 .05-.05h1.54a0 0 0 0 1 0 .05v.55a0 0 0 0 1 0 0zm-1.5-.08h1.46v-.47h-1.46z" />
    <path d="m22 17.47s.24-.44.5-.44v.49a.4.4 0 0 0 -.12.68v1.44h-.38z" fill="#fff" />
    <path
        d="m22.4 19.68h-.4a0 0 0 0 1 0 0v-2.23s.25-.46.53-.46a0 0 0 0 1 0 0v.49s0 0 0 0a.49.49 0 0 0 -.24.29.37.37 0 0 0 .14.32v1.47a0 0 0 0 1 -.03.12zm-.33-.09h.29v-1.38a.45.45 0 0 1 -.15-.38.51.51 0 0 1 .26-.33v-.42c-.19 0-.37.34-.4.4z" />
    <path d="m30 21.13s0 1.58 0 2.09c0 .17.22.5.43.5h-.71v-4.72l.32-.05s.17-.29.38-.29v1.95s-.42.2-.42.52z"
        fill="#fff" />
    <path
        d="m30.47 23.77h-.71a0 0 0 0 1 0-.05v-4.72a0 0 0 0 1 0 0h.3c0-.07.2-.3.4-.3a0 0 0 0 1 0 0v1.95s0 0 0 0-.41.2-.41.49v2.09c0 .16.21.46.39.46a0 0 0 0 1 0 0 0 0 0 0 1 .03.08zm-.66-.09h.45a.68.68 0 0 1 -.27-.46v-2.09c0-.3.34-.5.43-.55v-1.88c-.16 0-.3.27-.3.27s0 0 0 0h-.28z" />
    <path d="m22.4 18.2h.28v1.44h-.28z" fill="#fff" />
    <path
        d="m22.68 19.68h-.28a0 0 0 0 1 0 0v-1.48s0-.05 0-.05h.28a0 0 0 0 1 0 .05v1.44a0 0 0 0 1 0 .04zm-.24-.09h.2v-1.35h-.2z" />
    <path d="m29.89 23.22v-2.58l.06-.19h-.69l-.34.34v2.43a.77.77 0 0 0 .37.5h.86a.7.7 0 0 1 -.26-.5z" fill="#fff" />
    <path
        d="m30.15 23.77h-.88a.77.77 0 0 1 -.39-.53v-2.48l.34-.33h.78a.05.05 0 0 1 0 0 0 0 0 0 1 0 0l-.06.17v2.58a.69.69 0 0 0 .25.47 0 0 0 0 1 0 0 0 0 0 0 1 -.04.12zm-.85-.09h.75a.71.71 0 0 1 -.2-.46v-2.6-.12h-.62l-.32.31v2.41a.7.7 0 0 0 .39.46z" />
    <path d="m17.81 19.64h1.54v.55h-1.54z" fill="#fff" transform="matrix(-1 0 0 -1 37.17 39.82)" />
    <path
        d="m19.36 20.23h-1.55a0 0 0 0 1 0 0v-.55a0 0 0 0 1 0-.05h1.55a0 0 0 0 1 0 .05v.55a0 0 0 0 1 0 0zm-1.51-.08h1.47v-.47h-1.47z" />
    <path
        d="m21.14 20.06s0 0 0 0v-.38a0 0 0 0 1 .05-.05 0 0 0 0 1 0 .05v.29a3.83 3.83 0 0 1 .81-.37s0 0 0 0 0 .05 0 .05a2.72 2.72 0 0 0 -.87.37z" />
    <path d="m25.73 23.22v-2.51l-.23-.26h.86l.34.34v2.43a.73.73 0 0 1 -.37.5h-.86a.7.7 0 0 0 .26-.5z" fill="#fff" />
    <path
        d="m26.33 23.77h-.86a0 0 0 0 1 0 0 .69.69 0 0 0 .25-.47v-2.57l-.22-.25a.06.06 0 0 1 0 0 .05.05 0 0 1 0 0h.86l.34.33a0 0 0 0 1 0 0v2.43a.77.77 0 0 1 -.39.53zm-.76-.09h.76a.72.72 0 0 0 .33-.46v-2.41l-.31-.31h-.76l.17.18a0 0 0 0 1 0 0v2.51a.66.66 0 0 1 -.19.49z" />
    <path d="m22.68 18.2v-.27s.08-.27.25-.27v2.79h-1.29s.17-.26.3-.26h.74z" fill="#fff" />
    <path
        d="m22.93 20.5h-1.29s0 0 0 0a0 0 0 0 1 0 0c0-.05.2-.28.34-.28h.7v-2.29s.09-.3.29-.3a0 0 0 0 1 0 0v2.79a0 0 0 0 1 -.04.08zm-1.21-.09h1.17v-2.7c-.1 0-.16.2-.17.23v2.25a0 0 0 0 1 0 0h-.74c-.1.04-.19.13-.26.22z" />
    <path d="m21 23.22v-2.34l.15-.2h-.45v3h.65c-.2.04-.35-.46-.35-.46z" fill="#fff" />
    <path
        d="m21.34 23.77h-.65a0 0 0 0 1 0-.05v-3a0 0 0 0 1 0 0h.45s0 0 0 0a0 0 0 0 1 0 .05l-.14.13v2.32c.06.18.19.46.31.46a0 0 0 0 1 0 0s.06.09.03.09zm-.61-.09h.45a1.32 1.32 0 0 1 -.23-.44v-2.38l.1-.14h-.32z" />
    <path d="m21.64 20.45v2.77s.17.5.48.5h.94s-.42-.22-.42-.5v-2.43l.29-.34z" fill="#fff" />
    <path
        d="m23.06 23.77h-.94c-.33 0-.51-.51-.52-.53v-2.79a0 0 0 0 1 0 0h1.29s0 0 0 0l-.28.33v2.41c0 .25.39.47.4.47a.08.08 0 0 1 0 0s.06.11.05.11zm-1.38-.55c0 .05.18.46.44.46h.8a.69.69 0 0 1 -.33-.46v-2.43l.23-.26h-1.14z" />
    <path d="m21.64 21.54h.31v1.68h-.31z" fill="#fff" />
    <path
        d="m22 23.27h-.31s0 0 0-.05v-1.68a0 0 0 0 1 0 0h.31a0 0 0 0 1 0 0v1.68a0 0 0 0 1 0 .05zm-.27-.09h.23v-1.6h-.23z" />
    <path d="m22.93 19.11h2.57v.21h-2.57z" fill="#fff" />
    <path
        d="m25.5 19.35h-2.57a0 0 0 0 1 0 0v-.2a0 0 0 0 1 0 0h2.57a0 0 0 0 1 0 0v.2a0 0 0 0 1 0 0zm-2.5-.08h2.49v-.12h-2.49z" />
    <path d="m22.93 19.31h2.57v.44h-2.57z" fill="#fff" />
    <path
        d="m25.5 19.8h-2.57a0 0 0 0 1 0 0v-.45a0 0 0 0 1 0 0h2.57a0 0 0 0 1 0 0v.45a0 0 0 0 1 0 0zm-2.5-.08h2.49v-.37h-2.49z" />
    <path d="m22.93 19.76h2.57v.26h-2.57z" fill="#fff" />
    <path
        d="m25.5 20.06h-2.57a0 0 0 0 1 0 0v-.26a0 0 0 0 1 0 0h2.57a0 0 0 0 1 0 0v.2a0 0 0 0 1 0 .06zm-2.5-.06h2.49v-.2h-2.49z" />
    <path d="m22.93 20.02h2.57v.44h-2.57z" fill="#fff" />
    <path
        d="m25.5 20.5h-2.57a0 0 0 0 1 0-.05v-.45a0 0 0 0 1 0 0h2.57a0 0 0 0 1 0 0v.43a0 0 0 0 1 0 .07zm-2.5-.09h2.49v-.35h-2.49z" />
    <path d="m22.93 20.45-.22.26h3.02l-.23-.26z" fill="#fff" />
    <path d="m25.73 20.75h-3a0 0 0 0 1 0-.05l.22-.25h2.55l.23.25s0 0 0 .05zm-2.93-.08h2.84l-.16-.17h-2.48z" />
    <path d="m22.64 21.24h3.1v1.98h-3.1z" fill="#fff" />
    <path
        d="m25.73 23.27h-3.09a0 0 0 0 1 -.05-.05v-2a0 0 0 0 1 .05 0h3.09a0 0 0 0 1 0 0v2s.03.05 0 .05zm-3.05-.09h3v-1.9h-3z" />
    <path d="m22.64 21.54h.26v1.68h-.26z" fill="#fff" />
    <path
        d="m22.9 23.27h-.26a0 0 0 0 1 -.05-.05v-1.68a0 0 0 0 1 .05 0h.26a0 0 0 0 1 0 0v1.68a0 0 0 0 1 0 .05zm-.22-.09h.18v-1.6h-.18z" />
    <path d="m23.23 21.54h.37v1.68h-.37z" fill="#fff" />
    <path
        d="m23.59 23.27h-.36s0 0 0-.05v-1.68a0 0 0 0 1 0 0h.36a0 0 0 0 1 .05 0v1.68a0 0 0 0 1 -.05.05zm-.32-.09h.28v-1.6h-.28z" />
    <path d="m23.98 21.54h.37v1.68h-.37z" fill="#fff" />
    <path
        d="m24.35 23.27h-.35a0 0 0 0 1 0-.05v-1.68a0 0 0 0 1 0 0h.37a0 0 0 0 1 0 0v1.68a0 0 0 0 1 -.02.05zm-.35-.09h.29v-1.6h-.29z" />
    <path d="m24.74 21.54h.37v1.68h-.37z" fill="#fff" />
    <path
        d="m25.11 23.27h-.37a0 0 0 0 1 0-.05v-1.68a0 0 0 0 1 0 0h.37a0 0 0 0 1 0 0v1.68a0 0 0 0 1 0 .05zm-.33-.09h.29v-1.6h-.29z" />
    <path d="m26.04 21.54h.37v1.68h-.37z" fill="#fff" />
    <path
        d="m26.41 23.27h-.41a0 0 0 0 1 0-.05v-1.68a0 0 0 0 1 0 0h.37a0 0 0 0 1 0 0v1.68a0 0 0 0 1 .04.05zm-.32-.09h.28v-1.6h-.28z" />
    <path d="m29.17 21.54h.37v1.68h-.37z" fill="#fff" />
    <path
        d="m29.53 23.27h-.36s0 0 0-.05v-1.68a0 0 0 0 1 0 0h.36a0 0 0 0 1 0 0v1.68a0 0 0 0 1 0 .05zm-.32-.09h.28v-1.6h-.28z" />
    <path d="m25.5 19.11h.7v1.35h-.7z" fill="#fff" />
    <path
        d="m26.2 20.5h-.7a0 0 0 0 1 0-.05v-1.34a0 0 0 0 1 0 0h.7a0 0 0 0 1 0 0v1.34a0 0 0 0 1 0 .05zm-.66-.09h.62v-1.26h-.62z" />
    <path d="m25.47 21.54h.27v1.68h-.27z" fill="#fff" />
    <path
        d="m25.73 23.27h-.26s0 0 0-.05v-1.68a0 0 0 0 1 0 0h.26a0 0 0 0 1 0 0v1.68s.03.05 0 .05zm-.22-.09h.18v-1.6h-.18z" />
    <path d="m25.5 19.11v-.15h.21v.8.15h-.21z" fill="#fff" />
    <path
        d="m25.71 20h-.21a0 0 0 0 1 0 0v-1a0 0 0 0 1 0 0h.21a0 0 0 0 1 .05 0v.95a0 0 0 0 1 -.05.05zm-.17-.08h.13v-.92h-.13z" />
    <path d="m25.5 19.65s.7.27.7.8h-.7z" fill="#fff" />
    <path
        d="m26.2 20.5h-.7a0 0 0 0 1 0-.05v-.8a.05.05 0 0 1 0 0s.72.29.72.84a0 0 0 0 1 -.02.01zm-.66-.09h.62c0-.39-.46-.63-.62-.7z" />
    <path
        d="m29 17.92c-.17 0-.12-.19-.09-.24s.26-.39.08-.69c0 0-.1.2-.25.2s.09-.28.13-.37a.39.39 0 0 0 0-.39s-.07.24-.19.24-.05-.17 0-.22.2-.34 0-.52c0 0-.07.22-.15.22s-.06-.27-.05-.36a.58.58 0 0 0 -.41-.63s-.06-.31-.21-.31-.21.31-.21.31a.56.56 0 0 0 -.4.63c0 .09 0 .36-.05.36s-.16-.22-.16-.22c-.17.18 0 .4 0 .52s.09.22 0 .22-.19-.24-.19-.24a.39.39 0 0 0 0 .39c.05.09.29.37.14.37s-.25-.2-.25-.2c-.19.3 0 .53.08.69s.08.24-.1.24-.44-.43-.44-.43v3h3.22v-3s-.34.43-.5.43z"
        fill="#fff" />
    <path
        d="m29.42 20.5h-3.22a0 0 0 0 1 0-.05v-3s0 0 0 0a.05.05 0 0 1 0 0c.1.16.3.4.41.4s.07 0 .07 0a.16.16 0 0 0 0-.15.16.16 0 0 0 0-.07.61.61 0 0 1 0-.66.05.05 0 0 1 0 0 0 0 0 0 1 0 0s.09.17.22.17a.89.89 0 0 0 -.13-.22.35.35 0 0 0 -.06-.09.42.42 0 0 1 0-.43s0 0 0 0a0 0 0 0 1 0 0c0 .08.09.21.15.21s0-.1 0-.16c-.06-.13-.18-.36 0-.54 0 .1.09.18.12.18s0 0 0-.3a.58.58 0 0 1 .4-.67c0-.08.09-.32.25-.32s.23.24.25.32a.6.6 0 0 1 .41.67v.31a.39.39 0 0 0 .11-.19c.18.18.07.41 0 .54v.16c.06 0 .12-.13.15-.21a0 0 0 0 1 0 0s0 0 0 0a.42.42 0 0 1 0 .43l-.06.09c0 .06-.13.18-.12.22.12 0 .21-.17.21-.17a0 0 0 0 1 0 0 .05.05 0 0 1 0 0 .59.59 0 0 1 0 .66.43.43 0 0 0 0 .07.19.19 0 0 0 0 .15.1.1 0 0 0 .07 0c.11 0 .31-.24.41-.4s0 0 0 0v3s.39.05.36.05zm-3.18-.09h3.14v-2.78c-.09.13-.26.33-.4.33a.16.16 0 0 1 -.14-.07c-.05-.07 0-.18 0-.23a.25.25 0 0 1 0-.07.51.51 0 0 0 .07-.51.33.33 0 0 1 -.24.16.1.1 0 0 1 -.09 0c0-.06 0-.17.13-.31l.06-.08a.38.38 0 0 0 0-.27c0 .08-.1.18-.19.18a.1.1 0 0 1 -.09 0c-.05-.08 0-.21 0-.24.05-.1.13-.25.05-.38 0 .07-.09.17-.16.17a.06.06 0 0 1 -.06 0c-.05-.05-.06-.16 0-.37a.52.52 0 0 0 -.32-.74s0 0 0 0-.07-.28-.17-.28-.16.21-.17.28a.52.52 0 0 0 -.38.59v.37a.05.05 0 0 1 -.05 0c-.08 0-.14-.1-.17-.17-.08.13 0 .28.05.38s.07.16 0 .24a.1.1 0 0 1 -.09 0c-.09 0-.15-.1-.19-.18a.32.32 0 0 0 0 .27l.05.08c.1.14.16.25.13.31a.08.08 0 0 1 -.08 0 .33.33 0 0 1 -.25-.16.53.53 0 0 0 .07.51.25.25 0 0 1 0 .07.23.23 0 0 1 0 .23.16.16 0 0 1 -.14.07c-.14 0-.3-.2-.4-.33z" />
    <path
        d="m28.06 16c0-.15-.25-.26-.25-.26s-.24.11-.24.26a.27.27 0 0 0 -.16-.09v.21l.21.17h.38l.21-.17v-.21a.24.24 0 0 0 -.15.09z"
        fill="#fff" />
    <path
        d="m28 16.3h-.38s0 0 0 0l-.21-.17s0 0 0 0v-.21a0 0 0 0 1 0 0 .25.25 0 0 1 .13.05.54.54 0 0 1 .25-.22.54.54 0 0 1 .25.22.25.25 0 0 1 .13-.05 0 0 0 0 1 0 0v.21a0 0 0 0 1 0 0l-.22.17s.05 0 .05 0zm-.36-.08h.36l.19-.15v-.13a.18.18 0 0 0 -.08.06 0 0 0 0 1 -.11 0s0 0 0 0-.14-.18-.21-.22-.2.13-.2.22 0 0 0 0a0 0 0 0 1 0 0 .18.18 0 0 0 -.08-.06v.13z" />
    <path
        d="m28.05 16.4c0-.19-.24-.31-.24-.31s-.24.12-.24.31c0 0-.07-.12-.16-.12v.28l.16.24h.48l.16-.24v-.28c-.09 0-.16.12-.16.12z"
        fill="#fff" />
    <path
        d="m28.05 16.84h-.48a.05.05 0 0 1 0 0l-.15-.24s0 0 0 0v-.28a0 0 0 0 1 0 0 .22.22 0 0 1 .14.06.56.56 0 0 1 .24-.25.56.56 0 0 1 .24.25.25.25 0 0 1 .14-.06 0 0 0 0 1 0 0v.3l-.16.24a.05.05 0 0 1 .03-.02zm-.46-.08h.41l.14-.21v-.21a.2.2 0 0 0 -.08.08h-.05s0 0 0 0-.15-.23-.2-.26-.2.13-.2.26 0 0 0 0a.36.36 0 0 0 -.09-.08v.21z" />
    <path
        d="m28.18 16.89c0-.19-.37-.36-.37-.36s-.37.17-.37.36a.29.29 0 0 0 -.22-.15v.34l.28.32.31-.06.31.06.29-.32v-.34a.29.29 0 0 0 -.23.15z"
        fill="#fff" />
    <path
        d="m28.12 17.44-.31-.05-.3.05a.05.05 0 0 1 0 0l-.28-.31a0 0 0 0 1 0 0v-.34a0 0 0 0 1 0 0 .26.26 0 0 1 .2.1.91.91 0 0 1 .37-.31.91.91 0 0 1 .37.31.26.26 0 0 1 .21-.1 0 0 0 0 1 0 0v.34s0 0 0 0l-.29.31zm-.86-.37.25.28.29-.05.29.05.25-.28v-.28a.24.24 0 0 0 -.14.12 0 0 0 0 1 0 0c0-.13-.22-.26-.33-.31s-.33.18-.33.31 0 0 0 0a0 0 0 0 1 -.05 0 .24.24 0 0 0 -.14-.12z" />
    <path
        d="m28.23 17.47c0-.3-.42-.49-.42-.49s-.42.19-.42.49a.45.45 0 0 0 -.32-.18v.36s.23.42.37.42h.37.37c.14 0 .37-.42.37-.42v-.36a.45.45 0 0 0 -.32.18z"
        fill="#fff" />
    <path
        d="m28.18 18.11h-.37-.37c-.15 0-.36-.37-.4-.44s0 0 0 0v-.36a0 0 0 0 1 0 0 .42.42 0 0 1 .29.13c.07-.27.42-.43.43-.44s.36.17.43.44a.42.42 0 0 1 .29-.13 0 0 0 0 1 0 0v.38c.07.05-.15.42-.3.42zm-.37-.1h.37c.07 0 .22-.19.33-.38v-.31a.38.38 0 0 0 -.25.17s0 0 0 0c0-.24-.3-.41-.38-.45s-.38.21-.38.45 0 0 0 0a.38.38 0 0 0 -.25-.17v.31c.11.19.26.38.33.38z" />
    <path d="m21.88 17.44v.42h-3.27v-.42s0-.26-.14-.26v2.46h3.53v-2.46c-.11 0-.12.26-.12.26z" fill="#fff" />
    <path
        d="m22 19.68h-3.53a0 0 0 0 1 0 0v-2.5a0 0 0 0 1 0 0c.14 0 .18.19.18.3v.38h3.19v-.38c0-.11.05-.3.18-.3a0 0 0 0 1 .05 0v2.46a0 0 0 0 1 -.07.04zm-3.51-.09h3.51v-2.35a.36.36 0 0 0 -.06.2v.42a0 0 0 0 1 0 0h-3.33a0 0 0 0 1 0 0v-.42s0-.16-.06-.2z" />
    <path
        d="m28.37 18.42a1.59 1.59 0 0 0 -.56-1 1.59 1.59 0 0 0 -.56 1s-.18-.35-.43-.35v.6l.57.72.42-.22.42.22.57-.72v-.6c-.25 0-.43.35-.43.35z"
        fill="#fff" />
    <path
        d="m27.39 19.43-.57-.72a0 0 0 0 1 0 0v-.6a0 0 0 0 1 0-.05.55.55 0 0 1 .4.27 1.79 1.79 0 0 1 .56-.86h.06a1.79 1.79 0 0 1 .56.86.55.55 0 0 1 .4-.27s0 0 0 .05v.6a0 0 0 0 1 0 0l-.56.72a.07.07 0 0 1 -.06 0l-.4-.22-.4.22zm-.53-.77.54.68.39-.21.39.21.54-.68v-.55c-.2 0-.35.33-.35.33s0 0-.05 0a0 0 0 0 1 0 0 1.48 1.48 0 0 0 -.52-.9 1.48 1.48 0 0 0 -.52.9s0 0 0 0 0 0-.05 0-.15-.29-.35-.33z" />
    <path
        d="m28.37 19.31a1.45 1.45 0 0 0 -.56-.95 1.45 1.45 0 0 0 -.56.95s-.11-.39-.43-.39v.55s.37.52.5.52.49-.06.49-.06.37.06.5.06.49-.52.49-.52v-.55c-.32 0-.43.39-.43.39z"
        fill="#fff" />
    <path
        d="m28.31 20a4.92 4.92 0 0 1 -.5-.06 4.68 4.68 0 0 1 -.49.06c-.14 0-.44-.41-.53-.54s0 0 0 0v-.55a0 0 0 0 1 0 0 .48.48 0 0 1 .41.27 1.5 1.5 0 0 1 .56-.82s0 0 .05 0a1.62 1.62 0 0 1 .56.82.45.45 0 0 1 .4-.27 0 0 0 0 1 0 0v.57c-.02.14-.33.52-.46.52zm-.5-.14s.37.06.49.06.28-.25.45-.49v-.43c-.25 0-.35.35-.35.36s0 0-.05 0 0 0 0 0a1.37 1.37 0 0 0 -.52-.9 1.37 1.37 0 0 0 -.52.9s0 0 0 0 0 0-.05 0-.09-.33-.35-.36v.49c.17.24.39.49.46.49s.48-.06.48-.06z" />
    <path d="m27.81 19.27s-.61.4-.61.91a.57.57 0 0 0 .61.5.64.64 0 0 0 .61-.5c0-.51-.61-.91-.61-.91z" fill="#fff" />
    <path
        d="m27.81 20.72a.61.61 0 0 1 -.65-.54 1.32 1.32 0 0 1 .63-.94 1.32 1.32 0 0 1 .63.94.69.69 0 0 1 -.61.54zm0-1.4c-.11.08-.57.43-.57.86a.51.51 0 0 0 .57.46.59.59 0 0 0 .57-.46c0-.43-.46-.78-.57-.86z" />
    <path d="m28.24 20.4c0-.34-.43-.76-.43-.76s-.43.42-.43.76c0 0-.27-.38-.56-.38v.68h2v-.7c-.3 0-.58.4-.58.4z"
        fill="#fff" />
    <path
        d="m28.8 20.74h-2a0 0 0 0 1 0 0v-.74a0 0 0 0 1 0 0 .8.8 0 0 1 .53.32 1.74 1.74 0 0 1 .43-.69 0 0 0 0 1 .06 0 1.54 1.54 0 0 1 .43.69.8.8 0 0 1 .55-.32 0 0 0 0 1 0 0v.68a0 0 0 0 1 0 .06zm-1.94-.08h1.9v-.6a.91.91 0 0 0 -.48.37 0 0 0 0 1 -.05 0s0 0 0 0a1.35 1.35 0 0 0 -.39-.71c-.09.11-.39.44-.39.71s0 0-.05 0a.91.91 0 0 0 -.48-.37z" />
    <path d="m29.42 18.4h.66v2.05h-.66z" fill="#fff" />
    <path
        d="m30.08 20.5h-.66a0 0 0 0 1 0-.05v-2.05a0 0 0 0 1 0 0h.66a0 0 0 0 1 0 0v2.05a0 0 0 0 1 0 .05zm-.62-.09h.54v-2h-.58z" />
    <path d="m29.83 18.16h.26v1.86h-.26z" fill="#fff" />
    <path
        d="m30.08 20.06h-.25a0 0 0 0 1 0 0v-1.9s0 0 0 0h.25a0 0 0 0 1 0 0v1.84a0 0 0 0 1 0 .06zm-.21-.06h.13v-1.8h-.17z" />
    <path d="m29.42 18.4h.4v.31h-.4z" fill="#fff" />
    <path
        d="m29.83 18.76h-.41a0 0 0 0 1 0 0v-.36a0 0 0 0 1 0 0h.41a0 0 0 0 1 0 0v.32a0 0 0 0 1 0 .04zm-.37-.08h.33v-.24h-.33z" />
    <path d="m29.42 20.33a1 1 0 0 1 .66-.66v.78h-.66z" fill="#fff" />
    <path
        d="m30.08 20.5h-.66a0 0 0 0 1 0-.05v-.12a1 1 0 0 1 .69-.69s0 0 0 0v.78a0 0 0 0 1 -.03.08zm-.62-.09h.54v-.68a.9.9 0 0 0 -.58.6z" />
    <path d="m26.9 20.7.23.32v2.2a.84.84 0 0 1 -.33.5h.58v-3z" fill="#fff" />
    <path
        d="m27.38 23.77h-.58a0 0 0 0 1 0 0 .86.86 0 0 0 .32-.47v-2.3l-.22-.31a0 0 0 0 1 0 0h.48a0 0 0 0 1 0 0v3a0 0 0 0 1 0 .08zm-.47-.09h.43v-2.94h-.34l.18.25a0 0 0 0 1 0 0v2.2a.82.82 0 0 1 -.27.49z" />
    <path d="m28.8 20.7-.22.32v2.2a.84.84 0 0 0 .33.5h-.58v-3z" fill="#fff" />
    <path
        d="m28.91 23.77h-.58a0 0 0 0 1 0-.05v-3a0 0 0 0 1 0 0h.47a.05.05 0 0 1 0 0s0 0 0 0l-.22.31v2.19a.77.77 0 0 0 .31.47s0 0 0 0 .04.08.02.08zm-.54-.09h.43a.82.82 0 0 1 -.26-.45v-2.23s0 0 0 0l.18-.25h-.35z" />
    <path d="m20.25 12.34h-.44v.27h.87v-.27z" fill="#fff" />
    <path
        d="m20.68 12.65h-.87a0 0 0 0 1 0 0v-.27a0 0 0 0 1 0 0h.87a0 0 0 0 1 0 0v.27a0 0 0 0 1 0 0zm-.83-.08h.79v-.18h-.79z" />
    <path d="m20.25 11.91s-.22 0-.22.43h.43c0-.43-.21-.43-.21-.43z" fill="#fff" />
    <path
        d="m20.46 12.39h-.46a0 0 0 0 1 0-.05.53.53 0 0 1 .12-.4.19.19 0 0 1 .14-.07.17.17 0 0 1 .13.07.53.53 0 0 1 .12.4s-.02.05-.05.05zm-.39-.09h.35c0-.34-.17-.35-.17-.35s-.17.05-.18.35z" />
    <path d="m10.46 21.13v2.09c0 .17-.22.5-.43.5h.7v-4.72h-.32s-.17-.29-.38-.29v1.95s.43.15.43.47z" fill="#fff" />
    <path
        d="m10.73 23.77h-.73a0 0 0 0 1 0-.05c.17 0 .39-.3.39-.46v-2.13c0-.29-.4-.48-.4-.49a0 0 0 0 1 0 0v-1.98s0 0 0 0c.2 0 .36.23.41.3h.29a0 0 0 0 1 0 0v4.72a0 0 0 0 1 .04.09zm-.5-.09h.46v-4.68h-.28s0 0 0 0-.14-.23-.3-.27v1.88c.09.05.42.25.42.55v2.09a.68.68 0 0 1 -.3.43z" />
    <path d="m18.47 17.47s-.23-.47-.47-.47v.49a.4.4 0 0 1 .12.68v1.44h.37z" fill="#fff" />
    <path
        d="m18.47 19.68h-.37a0 0 0 0 1 0 0v-1.48a0 0 0 0 1 0 0 .39.39 0 0 0 .13-.32.49.49 0 0 0 -.24-.29.05.05 0 0 1 0 0v-.59a0 0 0 0 1 0 0c.28 0 .52.44.52.46s0 0 0 0v2.17a0 0 0 0 1 -.04.05zm-.33-.09h.29v-2.11c0-.06-.21-.36-.41-.4v.42a.55.55 0 0 1 .27.33.45.45 0 0 1 -.15.38z" />
    <path d="m10.61 23.22v-2.58l-.07-.19h.69l.34.34v2.43a.74.74 0 0 1 -.36.5h-.87a.7.7 0 0 0 .27-.5z" fill="#fff" />
    <path
        d="m11.21 23.77h-.87s0 0 0 0a0 0 0 0 1 0 0 .65.65 0 0 0 .25-.47v-2.66l-.06-.17a.06.06 0 0 1 0 0h.69s0 0 0 0l.34.33a0 0 0 0 1 0 0v2.43a.77.77 0 0 1 -.39.53zm-.77-.09h.76a.72.72 0 0 0 .33-.46v-2.41l-.31-.31h-.62v.12 2.6a.67.67 0 0 1 -.16.46z" />
    <path d="m17.81 18.2h.28v1.44h-.28z" fill="#fff" />
    <path
        d="m18.1 19.68h-.29a0 0 0 0 1 0 0v-1.48a0 0 0 0 1 0-.05h.29a0 0 0 0 1 0 .05v1.44a0 0 0 0 1 0 .04zm-.25-.09h.21v-1.35h-.21z" />
    <path d="m14.76 23.22v-2.51l.23-.26h-.86l-.34.34v2.43a.77.77 0 0 0 .37.5h.84a.7.7 0 0 1 -.24-.5z" fill="#fff" />
    <path
        d="m15 23.77h-.89a.8.8 0 0 1 -.39-.53v-2.48l.34-.33h.94s0 0 0 0l-.22.25v2.49a.69.69 0 0 0 .25.47s0 0 0 0zm-.86-.09h.75a.71.71 0 0 1 -.2-.46v-2.51a0 0 0 0 1 0 0l.17-.18h-.75l-.32.31v2.41a.7.7 0 0 0 .38.43z" />
    <path
        d="m19.36 20.06a.05.05 0 0 1 0 0 3.21 3.21 0 0 0 -.86-.37 0 0 0 0 1 0-.05 0 0 0 0 1 .05 0 4.48 4.48 0 0 1 .84.33v-.29s0-.05 0-.05a0 0 0 0 1 0 .05v.32s0 0 0 0z" />
    <path d="m17.81 18.2v-.27s-.08-.27-.25-.27v2.79h1.3s-.18-.26-.31-.26h-.74z" fill="#fff" />
    <path
        d="m18.86 20.5h-1.3a0 0 0 0 1 0-.05v-2.79a0 0 0 0 1 0 0c.2 0 .29.29.29.3v2.22h.7c.14 0 .31.23.34.28a0 0 0 0 1 0 0 0 0 0 0 1 -.03.04zm-1.26-.09h1.18c-.07-.09-.17-.18-.23-.18h-.74a0 0 0 0 1 0 0v-2.29c0-.06-.08-.2-.17-.23z" />
    <path d="m20.25 20.68h-.45v3.04h.45.44v-3.04z" fill="#fff" />
    <path
        d="m20.69 23.77h-.89a0 0 0 0 1 0-.05v-3a0 0 0 0 1 0 0h.89a0 0 0 0 1 0 0v3a0 0 0 0 1 0 .05zm-.85-.09h.81v-3h-.81z" />
    <path d="m19.51 23.22v-2.34l-.15-.2h.44v3h-.65c.2.04.36-.46.36-.46z" fill="#fff" />
    <path
        d="m19.8 23.77h-.65a0 0 0 0 1 0-.05c.12 0 .26-.28.32-.46v-2.36l-.15-.19s0 0 0-.05h.44a0 0 0 0 1 0 0v3s.07.11.04.11zm-.49-.09h.45v-3h-.32l.1.14v2.38a1.65 1.65 0 0 1 -.23.48z" />
    <path d="m18.86 20.45v2.77s-.18.5-.49.5h-.93s.41-.22.42-.5v-2.43l-.3-.34z" fill="#fff" />
    <path
        d="m18.37 23.77h-.93a0 0 0 0 1 0 0s0 0 0 0 .39-.22.4-.47v-2.49l-.29-.33a.06.06 0 0 1 0 0 .05.05 0 0 1 0 0h1.3a0 0 0 0 1 0 0v2.79s-.14.5-.48.5zm-.79-.09h.79c.26 0 .42-.41.45-.46v-2.72h-1.17l.24.26a0 0 0 0 1 0 0v2.43a.65.65 0 0 1 -.31.49z" />
    <path d="m18.55 21.54h.31v1.68h-.31z" fill="#fff" transform="matrix(-1 0 0 -1 37.4 44.77)" />
    <path
        d="m18.86 23.27h-.31s0 0 0-.05v-1.68a0 0 0 0 1 0 0h.31a0 0 0 0 1 0 0v1.68a0 0 0 0 1 0 .05zm-.27-.09h.23v-1.6h-.23z" />
    <path d="m14.99 19.11h2.57v.21h-2.57z" fill="#fff" transform="matrix(-1 0 0 -1 32.55 38.42)" />
    <path
        d="m17.56 19.35h-2.56a0 0 0 0 1 0 0v-.2a0 0 0 0 1 0 0h2.57s0 0 0 0v.2s.02 0-.01 0zm-2.56-.08h2.49v-.12h-2.49z" />
    <path d="m14.99 19.31h2.57v.44h-2.57z" fill="#fff" transform="matrix(-1 0 0 -1 32.55 39.07)" />
    <path
        d="m17.56 19.8h-2.56a0 0 0 0 1 0 0v-.45a0 0 0 0 1 0 0h2.57a0 0 0 0 1 0 0v.45a0 0 0 0 1 -.01 0zm-2.56-.08h2.49v-.37h-2.49z" />
    <path d="m14.99 19.76h2.57v.26h-2.57z" fill="#fff" transform="matrix(-1 0 0 -1 32.55 39.78)" />
    <path
        d="m17.56 20.06h-2.56a0 0 0 0 1 0 0v-.26a0 0 0 0 1 0 0h2.57a0 0 0 0 1 0 0v.2a0 0 0 0 1 -.01.06zm-2.56-.06h2.49v-.2h-2.49z" />
    <path d="m14.99 20.02h2.57v.44h-2.57z" fill="#fff" transform="matrix(-1 0 0 -1 32.55 40.47)" />
    <path
        d="m17.56 20.5h-2.56a0 0 0 0 1 0-.05v-.45a0 0 0 0 1 0 0h2.57a0 0 0 0 1 0 0v.43s.02.07-.01.07zm-2.56-.09h2.49v-.35h-2.49z" />
    <path d="m17.56 20.45.23.26h-3.03l.23-.26z" fill="#fff" />
    <path d="m17.79 20.75h-3a.07.07 0 0 1 0-.05l.23-.25h2.57l.23.25a0 0 0 0 1 0 .05zm-2.94-.08h2.85l-.16-.17h-2.54z" />
    <path d="m14.76 21.24h3.1v1.98h-3.1z" fill="#fff" />
    <path
        d="m17.86 23.27h-3.1a0 0 0 0 1 0-.05v-2a0 0 0 0 1 0 0h3.1a0 0 0 0 1 0 0v2a0 0 0 0 1 0 .05zm-3.06-.09h3v-1.9h-3z" />
    <path d="m17.6 21.54h.26v1.68h-.26z" fill="#fff" transform="matrix(-1 0 0 -1 35.45 44.77)" />
    <path
        d="m17.86 23.27h-.26a0 0 0 0 1 -.05-.05v-1.68a0 0 0 0 1 .05 0h.26a0 0 0 0 1 0 0v1.68a0 0 0 0 1 0 .05zm-.22-.09h.18v-1.6h-.18z" />
    <path d="m16.9 21.54h.37v1.68h-.37z" fill="#fff" transform="matrix(-1 0 0 -1 34.17 44.77)" />
    <path
        d="m17.27 23.27h-.37a0 0 0 0 1 0-.05v-1.68a0 0 0 0 1 0 0h.37a0 0 0 0 1 0 0v1.68a0 0 0 0 1 0 .05zm-.33-.09h.29v-1.6h-.29z" />
    <path d="m16.14 21.54h.37v1.68h-.37z" fill="#fff" transform="matrix(-1 0 0 -1 32.66 44.77)" />
    <path
        d="m16.51 23.27h-.37a0 0 0 0 1 0-.05v-1.68a0 0 0 0 1 0 0h.37a0 0 0 0 1 0 0v1.68a0 0 0 0 1 0 .05zm-.32-.09h.28v-1.6h-.28z" />
    <path d="m15.39 21.54h.37v1.68h-.37z" fill="#fff" transform="matrix(-1 0 0 -1 31.14 44.77)" />
    <path
        d="m15.75 23.27h-.36a0 0 0 0 1 -.05-.05v-1.68a0 0 0 0 1 .05 0h.36a0 0 0 0 1 .05 0v1.68a0 0 0 0 1 -.05.05zm-.32-.09h.28v-1.6h-.28z" />
    <path d="m14.08 21.54h.37v1.68h-.37z" fill="#fff" transform="matrix(-1 0 0 -1 28.53 44.77)" />
    <path
        d="m14.45 23.27h-.37a0 0 0 0 1 0-.05v-1.68a0 0 0 0 1 0 0h.37a0 0 0 0 1 0 0v1.68a0 0 0 0 1 0 .05zm-.33-.09h.29v-1.6h-.29z" />
    <path d="m10.96 21.54h.37v1.68h-.37z" fill="#fff" transform="matrix(-1 0 0 -1 22.29 44.77)" />
    <path
        d="m11.33 23.27h-.33a0 0 0 0 1 0-.05v-1.68a0 0 0 0 1 0 0h.37a0 0 0 0 1 0 0v1.68a0 0 0 0 1 -.04.05zm-.33-.09h.29v-1.6h-.29z" />
    <path d="m14.29 19.11h.7v1.35h-.7z" fill="#fff" transform="matrix(-1 0 0 -1 29.29 39.56)" />
    <path
        d="m15 20.5h-.7a0 0 0 0 1 0-.05v-1.34a0 0 0 0 1 0 0h.7a0 0 0 0 1 0 0v1.34a0 0 0 0 1 0 .05zm-.65-.09h.65v-1.26h-.61z" />
    <path d="m14.76 21.54h.27v1.68h-.27z" fill="#fff" transform="matrix(-1 0 0 -1 29.79 44.77)" />
    <path
        d="m15 23.27h-.27a0 0 0 0 1 0-.05v-1.68a0 0 0 0 1 0 0h.27a0 0 0 0 1 0 0v1.68a0 0 0 0 1 0 .05zm-.23-.09h.23v-1.6h-.2z" />
    <path d="m14.99 19.11v-.15h-.21v.8.15h.21z" fill="#fff" />
    <path
        d="m15 20h-.21a0 0 0 0 1 0 0v-1a0 0 0 0 1 0 0h.21a0 0 0 0 1 0 0v.95a0 0 0 0 1 0 .05zm-.17-.08h.17v-.92h-.13z" />
    <path d="m15 19.65s-.7.27-.7.8h.7z" fill="#fff" />
    <path
        d="m15 20.5h-.7a0 0 0 0 1 0-.05c0-.55.7-.83.73-.84s0 0 0 0v.8a0 0 0 0 1 -.03.09zm-.65-.09h.65v-.7c-.21.07-.63.29-.66.7z" />
    <path
        d="m11.51 17.92c.18 0 .13-.19.1-.24s-.27-.39-.08-.69c0 0 .09.2.25.2s-.09-.28-.14-.37a.42.42 0 0 1 0-.39s.08.24.19.24.05-.17 0-.22-.19-.34 0-.52c0 0 .07.22.16.22s.06-.27.05-.36a.56.56 0 0 1 .4-.63s.06-.31.21-.31.21.31.21.31a.56.56 0 0 1 .41.63v.36s.15-.22.15-.22c.18.18 0 .4 0 .52s-.08.22 0 .22.19-.24.19-.24a.37.37 0 0 1 0 .39c0 .09-.29.37-.13.37s.25-.2.25-.2c.18.3 0 .53-.08.69s-.08.24.09.24.44-.43.44-.43v3h-3.11v-3s.27.43.44.43z"
        fill="#fff" />
    <path
        d="m14.29 20.5h-3.22a0 0 0 0 1 0-.05v-3s0 0 0 0c.09.16.29.4.4.4a.15.15 0 0 0 .08 0 .19.19 0 0 0 0-.15.16.16 0 0 0 0-.07.61.61 0 0 1 0-.66s0 0 0 0 .08.17.21.17a1.24 1.24 0 0 0 -.12-.22l-.06-.09a.44.44 0 0 1 0-.43s0 0 0 0a0 0 0 0 1 0 0c0 .08.1.21.15.21s0-.1 0-.16c-.06-.13-.18-.36 0-.54 0 .1.09.18.12.18s0 0 0-.3a.59.59 0 0 1 .41-.67c0-.08.08-.32.24-.32s.23.24.25.32a.6.6 0 0 1 .41.67v.31a.32.32 0 0 0 .11-.19c.18.18.07.41 0 .54a.26.26 0 0 0 0 .16c.06 0 .12-.13.15-.21s0 0 0 0a0 0 0 0 1 0 0 .44.44 0 0 1 0 .43l-.06.09c0 .06-.13.18-.12.22.12 0 .21-.17.21-.17s0 0 0 0a.05.05 0 0 1 0 0 .57.57 0 0 1 0 .66v.07a.25.25 0 0 0 0 .15.1.1 0 0 0 .07 0c.12 0 .31-.24.41-.4h.05s0 0 0 0v3a0 0 0 0 1 .31.05zm-3.18-.09h3.14v-2.78c-.09.13-.26.33-.4.33a.16.16 0 0 1 -.14-.07c-.05-.07 0-.18 0-.23v-.07a.53.53 0 0 0 .08-.51.37.37 0 0 1 -.25.16.11.11 0 0 1 -.09 0c0-.06 0-.17.13-.31a.33.33 0 0 0 .06-.08.38.38 0 0 0 0-.27c0 .08-.1.18-.19.18a.1.1 0 0 1 -.09 0c-.05-.08 0-.21 0-.24a.4.4 0 0 0 .06-.38c0 .07-.09.17-.17.17a.09.09 0 0 1 -.06 0c0-.05 0-.16 0-.37a.52.52 0 0 0 -.38-.59c0-.07-.07-.28-.17-.28s-.15.21-.17.28a.52.52 0 0 0 -.38.59v.37a.09.09 0 0 1 -.06 0c-.08 0-.14-.1-.17-.17-.08.13 0 .28.05.38s.07.16 0 .24a.1.1 0 0 1 -.09 0c-.09 0-.15-.1-.19-.18a.32.32 0 0 0 0 .27l.05.08c.1.14.16.25.13.31a.08.08 0 0 1 -.08 0 .35.35 0 0 1 -.25-.16.51.51 0 0 0 .08.51v.07a.26.26 0 0 1 0 .23.16.16 0 0 1 -.15.07c-.13 0-.3-.2-.4-.33z" />
    <path
        d="m12.44 16c0-.15.24-.26.24-.26s.25.11.25.26a.24.24 0 0 1 .15-.09v.21l-.21.17h-.38l-.21-.17v-.21a.27.27 0 0 1 .16.09z"
        fill="#fff" />
    <path
        d="m12.87 16.3h-.4l-.21-.17s0 0 0 0v-.21a0 0 0 0 1 0 0 .25.25 0 0 1 .13.05.55.55 0 0 1 .26-.22.5.5 0 0 1 .25.22.29.29 0 0 1 .13-.05 0 0 0 0 1 0 0v.21a0 0 0 0 1 0 0l-.21.17zm-.36-.08h.35l.18-.15v-.13a.28.28 0 0 0 -.04.06 0 0 0 0 1 -.05 0s0 0 0 0-.14-.18-.21-.22-.2.13-.2.22 0 0 0 0-.05-.05-.09-.06v.13z" />
    <path
        d="m12.44 16.4c0-.19.24-.31.24-.31s.24.12.24.31c0 0 .07-.12.16-.12v.28l-.15.24h-.49l-.16-.24v-.28c.09 0 .16.12.16.12z"
        fill="#fff" />
    <path
        d="m12.93 16.84h-.49a.05.05 0 0 1 0 0l-.15-.24s0 0 0 0v-.28a0 0 0 0 1 0 0 .22.22 0 0 1 .14.06.61.61 0 0 1 .24-.25.62.62 0 0 1 .25.25.2.2 0 0 1 .13-.06 0 0 0 0 1 0 0v.3l-.16.24zm-.47-.08h.44l.14-.21v-.21a.2.2 0 0 0 -.08.08h-.05s0 0 0 0-.14-.23-.2-.26-.2.13-.2.26 0 0 0 0a.24.24 0 0 0 -.09-.08v.21z" />
    <path
        d="m12.31 16.89c0-.19.37-.36.37-.36s.37.17.37.36a.29.29 0 0 1 .23-.15v.34l-.28.32-.31-.06-.31.06-.28-.32v-.34a.29.29 0 0 1 .21.15z"
        fill="#fff" />
    <path
        d="m13 17.44-.31-.05-.3.05a.05.05 0 0 1 0 0l-.28-.31a0 0 0 0 1 0 0v-.34a0 0 0 0 1 0 0 .26.26 0 0 1 .2.1.87.87 0 0 1 .38-.31.91.91 0 0 1 .37.31.28.28 0 0 1 .21-.1 0 0 0 0 1 0 0v.34s0 0 0 0l-.29.31s.02 0 .02 0zm-.31-.14.29.05.26-.28v-.28a.24.24 0 0 0 -.15.12s0 0 0 0a0 0 0 0 1 0 0c0-.13-.22-.26-.33-.31s-.33.18-.33.31 0 0 0 0a0 0 0 0 1 -.05 0 .24.24 0 0 0 -.14-.12v.28l.26.28.29-.05z" />
    <path
        d="m12.26 17.47c0-.3.42-.49.42-.49s.42.19.42.49a.45.45 0 0 1 .32-.18v.36s-.23.42-.37.42h-.37-.37c-.13 0-.37-.42-.37-.42v-.36a.42.42 0 0 1 .32.18z"
        fill="#fff" />
    <path
        d="m13.05 18.11h-.37-.37c-.15 0-.36-.37-.4-.44s0 0 0 0v-.36a0 0 0 0 1 0 0 .46.46 0 0 1 .3.13c.07-.27.41-.43.43-.44s.36.17.43.44a.42.42 0 0 1 .29-.13s0 0 0 0v.38c.06.05-.15.42-.31.42zm-.37-.1h.37c.07 0 .23-.19.33-.38v-.31a.35.35 0 0 0 -.24.17 0 0 0 0 1 -.05 0s0 0 0 0c0-.24-.3-.41-.38-.45s-.37.21-.37.45a0 0 0 0 1 0 0 .38.38 0 0 0 -.25-.17v.31c.11.19.26.38.33.38z" />
    <path
        d="m12.12 18.42a1.59 1.59 0 0 1 .56-1 1.58 1.58 0 0 1 .57 1s.17-.35.42-.35v.6l-.56.72-.43-.22-.42.22-.57-.72v-.6c.25 0 .43.35.43.35z"
        fill="#fff" />
    <path
        d="m13.11 19.43-.41-.22-.4.22a0 0 0 0 1 0 0l-.57-.72a0 0 0 0 1 0 0v-.6a0 0 0 0 1 0-.05.55.55 0 0 1 .4.27 1.71 1.71 0 0 1 .57-.86h.05a1.78 1.78 0 0 1 .57.86.52.52 0 0 1 .39-.27 0 0 0 0 1 .05.05v.63l-.57.72zm-.43-.31.39.21.54-.68v-.55c-.2 0-.35.33-.35.33a0 0 0 0 1 0 0 1.48 1.48 0 0 0 -.52-.9 1.48 1.48 0 0 0 -.52.9s0 0 0 0 0 0-.05 0-.15-.29-.35-.33v.55l.54.68.39-.21z" />
    <path
        d="m12.12 19.31a1.45 1.45 0 0 1 .56-.95 1.45 1.45 0 0 1 .56.95s.11-.39.43-.39v.55s-.37.52-.49.52-.5-.06-.5-.06-.37.06-.49.06-.5-.52-.5-.52v-.55c.31 0 .43.39.43.39z"
        fill="#fff" />
    <path
        d="m13.18 20a4.92 4.92 0 0 1 -.5-.06 4.36 4.36 0 0 1 -.49.06c-.14 0-.44-.41-.53-.54s0 0 0 0v-.55a0 0 0 0 1 0 0 .48.48 0 0 1 .41.27 1.56 1.56 0 0 1 .56-.82s0 0 .05 0a1.56 1.56 0 0 1 .56.82.45.45 0 0 1 .4-.27 0 0 0 0 1 .05 0v.55a0 0 0 0 1 0 0c-.07.16-.38.54-.51.54zm-.5-.14s.37.06.49.06.28-.25.45-.49v-.43c-.25 0-.35.35-.35.36a0 0 0 0 1 0 0 1.37 1.37 0 0 0 -.52-.9 1.41 1.41 0 0 0 -.51.9 0 0 0 0 1 0 0s0 0-.05 0-.19-.36-.46-.36v.49a1.67 1.67 0 0 0 .46.49c.12 0 .48-.06.49-.06z" />
    <path d="m12.68 19.27s.61.4.61.91c0 0 0 .49-.61.49s-.61-.49-.61-.49c0-.51.61-.91.61-.91z" fill="#fff" />
    <path
        d="m12.68 20.71a.68.68 0 0 1 -.55-.2.45.45 0 0 1 -.1-.33 1.32 1.32 0 0 1 .63-.94 1.32 1.32 0 0 1 .63.94.46.46 0 0 1 -.13.35.68.68 0 0 1 -.48.18zm0-1.39c-.11.08-.57.43-.57.86a.38.38 0 0 0 .08.27.62.62 0 0 0 .49.17.62.62 0 0 0 .46-.16.41.41 0 0 0 .11-.29c0-.42-.46-.77-.57-.85z" />
    <path d="m12.25 20.4c0-.34.43-.76.43-.76s.44.42.44.76c0 0 .27-.38.55-.38v.68h-2v-.7c.33 0 .58.4.58.4z"
        fill="#fff" />
    <path
        d="m13.67 20.74h-2a0 0 0 0 1 0 0v-.74a0 0 0 0 1 0 0 .8.8 0 0 1 .53.32 1.74 1.74 0 0 1 .43-.69s0 0 .06 0a1.62 1.62 0 0 1 .44.69.78.78 0 0 1 .52-.32 0 0 0 0 1 .05 0v.68a0 0 0 0 1 -.03.06zm-1.94-.08h1.9v-.6a.91.91 0 0 0 -.48.37 0 0 0 0 1 -.05 0 1.35 1.35 0 0 0 -.39-.71c-.09.11-.39.44-.39.71s0 0 0 0-.24-.33-.49-.37z" />
    <path d="m10.41 18.4h.66v2.05h-.66z" fill="#fff" transform="matrix(-1 0 0 -1 21.48 38.86)" />
    <path
        d="m11.07 20.5h-.66a0 0 0 0 1 0-.05v-2.05a0 0 0 0 1 0 0h.66a0 0 0 0 1 0 0v2.05a0 0 0 0 1 0 .05zm-.62-.09h.55v-2h-.58z" />
    <path d="m10.41 18.16h.26v1.86h-.26z" fill="#fff" transform="matrix(-1 0 0 -1 21.08 38.18)" />
    <path
        d="m10.67 20.06h-.26a0 0 0 0 1 0 0v-1.9a0 0 0 0 1 0 0h.26a0 0 0 0 1 0 0v1.84a0 0 0 0 1 0 .06zm-.22-.06h.18v-1.8h-.18z" />
    <path d="m10.67 18.4h.4v.31h-.4z" fill="#fff" transform="matrix(-1 0 0 -1 21.74 37.12)" />
    <path
        d="m11.07 18.76h-.4a0 0 0 0 1 0 0v-.36a0 0 0 0 1 0 0h.4a0 0 0 0 1 0 0v.32a0 0 0 0 1 0 .04zm-.36-.08h.29v-.24h-.32z" />
    <path d="m11.07 20.33a1 1 0 0 0 -.66-.66v.78h.66z" fill="#fff" />
    <path
        d="m11.07 20.5h-.66a0 0 0 0 1 0-.05v-.78a.05.05 0 0 1 0 0 1 1 0 0 1 .68.69v.12a0 0 0 0 1 -.02.02zm-.62-.09h.55v-.08a.9.9 0 0 0 -.58-.6z" />
    <path d="m13.59 20.7-.23.32v2.2a.83.83 0 0 0 .34.5h-.59v-3z" fill="#fff" />
    <path
        d="m13.7 23.77h-.59a0 0 0 0 1 0-.05v-3a0 0 0 0 1 0 0h.48a.06.06 0 0 1 0 0l-.19.28v2.19a.86.86 0 0 0 .32.47s0 0 0 0zm-.55-.09h.43a.9.9 0 0 1 -.26-.45v-2.23a0 0 0 0 1 0 0l.18-.25h-.36z" />
    <path d="m11.69 20.7.23.32v2.2a.83.83 0 0 1 -.34.5h.59v-3z" fill="#fff" />
    <path
        d="m12.17 23.77h-.59a0 0 0 0 1 0 0 .86.86 0 0 0 .32-.47v-2.3l-.22-.31a.06.06 0 0 1 0 0h.48a0 0 0 0 1 0 0v3a0 0 0 0 1 .01.08zm-.47-.09h.43v-2.94h-.36l.23.26a0 0 0 0 1 0 0v2.2a.9.9 0 0 1 -.3.48z" />
    <path d="m20.25 23.72h-10.73v.64h10.73 10.72v-.64z" fill="#fff" />
    <path
        d="m31 24.41h-21.48a0 0 0 0 1 0-.05v-.64a0 0 0 0 1 0 0h21.48a0 0 0 0 1 0 0v.64a0 0 0 0 1 0 .05zm-21.4-.09h21.33v-.55h-21.36z" />
    <path d="m20.25 24.36h-11.12v.82h11.12 11.11v-.82z" fill="#fff" />
    <path
        d="m31.36 25.22h-22.23a0 0 0 0 1 0 0v-.82a0 0 0 0 1 0 0h22.23a0 0 0 0 1 0 0v.82a0 0 0 0 1 0 0zm-22.19-.08h22.15v-.73h-22.15z" />
    <path d="m20.25 25.18h-11.76v1.07h11.76 11.75v-1.07z" fill="#fff" />
    <path
        d="m32 26.3h-23.51a0 0 0 0 1 0-.05v-1.07a0 0 0 0 1 0 0h23.51a0 0 0 0 1 0 0v1.07a0 0 0 0 1 0 .05zm-23.47-.09h23.47v-1h-23.47z" />
    <path d="m20.25 26.25h-12.42v1.27h12.42 12.41v-1.27z" fill="#fff" />
    <path
        d="m32.66 27.56h-24.83a0 0 0 0 1 0 0v-1.31a0 0 0 0 1 0 0h24.83a0 0 0 0 1 0 0v1.27a0 0 0 0 1 0 .04zm-24.79-.08h24.75v-1.18h-24.75z" />
    <path d="m20.25 27.52h-13.08v1.26h13.08 13.07v-1.26z" fill="#fff" />
    <path
        d="m33.32 28.83h-26.15a0 0 0 0 1 0 0v-1.31a0 0 0 0 1 0 0h26.15a0 0 0 0 1 0 0v1.26a0 0 0 0 1 0 .05zm-26.11-.09h26.07v-1.18h-26.07z" />
    <path
        d="m20.52 14.14c0-.17-.27-.4-.27-.4s-.28.23-.28.4a.44.44 0 0 0 -.29-.16v.33l.57.4.57-.4v-.31a.48.48 0 0 0 -.3.14z"
        fill="#fff" />
    <path
        d="m20.25 14.75-.57-.4v-.35a0 0 0 0 1 .05-.05.45.45 0 0 1 .27.12 1.06 1.06 0 0 1 .27-.34 0 0 0 0 1 .05 0 1.05 1.05 0 0 1 .28.34.43.43 0 0 1 .27-.12 0 0 0 0 1 0 .05v.33l-.57.4zm-.53-.46.53.37.53-.37v-.29a.44.44 0 0 0 -.23.14 0 0 0 0 1 0 0 .05.05 0 0 1 0 0c0-.11-.15-.27-.23-.34s-.32.2-.32.34 0 0 0 0a.44.44 0 0 0 -.22-.14z" />
    <path
        d="m20.92 14.6a.45.45 0 0 0 -.36.26 1 1 0 0 0 -.31-.6 1 1 0 0 0 -.32.6.43.43 0 0 0 -.35-.26v.49l.67.52.67-.52z"
        fill="#fff" />
    <path
        d="m20.25 15.65-.67-.52a0 0 0 0 1 0 0v-.53a0 0 0 0 1 0 0 .43.43 0 0 1 .33.18 1.11 1.11 0 0 1 .31-.51 0 0 0 0 1 .05 0 1 1 0 0 1 .32.51.42.42 0 0 1 .33-.18 0 0 0 0 1 0 0v.49l-.67.52zm-.63-.58.63.49.63-.49v-.42a.39.39 0 0 0 -.28.22.05.05 0 0 1 -.05 0s0 0 0 0a.88.88 0 0 0 -.27-.54.83.83 0 0 0 -.27.54s0 0 0 0a.42.42 0 0 0 -.28-.22z" />
    <path d="m20.77 15.7c0-.21-.52-.79-.52-.79s-.52.58-.52.79c0 0-.21-.25-.35-.25v.55h1.73v-.56c-.11.01-.34.26-.34.26z"
        fill="#fff" />
    <path
        d="m21.11 16.05h-1.73a0 0 0 0 1 0 0v-.56a0 0 0 0 1 0 0 .55.55 0 0 1 .32.2 3.39 3.39 0 0 1 .52-.73.06.06 0 0 1 .06 0 3.41 3.41 0 0 1 .51.73.55.55 0 0 1 .32-.2 0 0 0 0 1 0 0v.51a0 0 0 0 1 0 .05zm-1.68-.05h1.64v-.5a.74.74 0 0 0 -.27.23 0 0 0 0 1 -.05 0 2.29 2.29 0 0 0 -.47-.73 2.17 2.17 0 0 0 -.48.73s0 0 0 0a1 1 0 0 0 -.27-.23z" />
    <path d="m20.81 16.65c0-.21-.56-.76-.56-.76s-.57.55-.57.76c0 0-.23-.23-.39-.23v.58h1.92v-.57c-.16-.01-.4.22-.4.22z"
        fill="#fff" />
    <path
        d="m21.21 17h-1.92a0 0 0 0 1 -.05 0v-.57a0 0 0 0 1 .05 0 .69.69 0 0 1 .37.19 3.11 3.11 0 0 1 .56-.71h.06a2.86 2.86 0 0 1 .55.71.76.76 0 0 1 .38-.19 0 0 0 0 1 0 0v.57a0 0 0 0 1 0 0zm-1.88-.09h1.84v-.47a.82.82 0 0 0 -.33.21 0 0 0 0 1 -.05 0 .05.05 0 0 1 0 0c0-.15-.35-.53-.52-.7-.22.22-.52.57-.52.7s0 0 0 0a1 1 0 0 0 -.33-.21z" />
    <path d="m21 17.86c0-.45-.73-1.05-.73-1.05s-.73.6-.73 1.05c0 0-.28-.35-.46-.35v.66h2.38v-.66c-.21 0-.46.35-.46.35z"
        fill="#fff" />
    <path
        d="m21.44 18.21h-2.38a0 0 0 0 1 0 0v-.66s0 0 0 0 .33.18.43.29a2.41 2.41 0 0 1 .73-1h.05a2.49 2.49 0 0 1 .74 1c.09-.11.28-.29.43-.29a0 0 0 0 1 0 0v.66a0 0 0 0 1 0 0zm-2.34-.09h2.29v-.57a1.23 1.23 0 0 0 -.38.33s0 0-.05 0a.05.05 0 0 1 0 0c0-.38-.56-.89-.69-1-.13.11-.69.62-.69 1s0 0-.05 0a1.12 1.12 0 0 0 -.38-.33z" />
    <path d="m21 19.36a2 2 0 0 0 -.7-1.5 2 2 0 0 0 -.71 1.5s-.18-.38-.35-.38v.66h2.06v-.64c-.16 0-.3.36-.3.36z"
        fill="#fff" />
    <path
        d="m21.3 19.68h-2.11a0 0 0 0 1 0 0v-.68a0 0 0 0 1 0 0c.12 0 .24.16.31.27a2 2 0 0 1 .72-1.38s0 0 .05 0a2 2 0 0 1 .73 1.32c.07-.11.19-.27.31-.27a0 0 0 0 1 0 0v.66a0 0 0 0 1 -.01.08zm-2.07-.09h2v-.59a.79.79 0 0 0 -.27.34 0 0 0 0 1 0 0 2 2 0 0 0 -.66-1.45 1.91 1.91 0 0 0 -.67 1.45s0 0 0 0a0 0 0 0 1 -.05 0 .72.72 0 0 0 -.27-.34z" />
    <path d="m20.9 16s0 0-.06 0l-.24.31a0 0 0 0 0 0 .06s0 0 0 0l.25-.31s.07-.06.05-.06z" />
    <path
        d="m20.84 17.51a0 0 0 0 1 0 0 .89.89 0 0 1 .25-.51 0 0 0 0 1 .05 0 0 0 0 0 1 0 .06.86.86 0 0 0 -.23.46 0 0 0 0 1 -.07-.01z" />
    <path
        d="m21.13 19.13a0 0 0 0 1 0 0 1.58 1.58 0 0 1 .24-.95 0 0 0 1 1 .07.05 1.43 1.43 0 0 0 -.23.9 0 0 0 0 1 -.08 0z" />
    <path d="m21.3 19.5s0 0 0 0c0-.23.67-.69.74-.74a0 0 0 0 1 .06 0s0 0 0 .05c-.27.2-.69.54-.71.69s-.07 0-.09 0z" />
    <path d="m19.65 16a0 0 0 0 0 0 0s0 0 0 .05l.24.31s0 0 0-.06z" />
    <path
        d="m19.65 17.51a0 0 0 0 1 0 0 1 1 0 0 0 -.22-.46s0 0 0-.06a0 0 0 0 1 .06 0 .9.9 0 0 1 .24.51 0 0 0 0 1 -.08.01z" />
    <path
        d="m19.36 19.13a0 0 0 0 1 0 0 1.56 1.56 0 0 0 -.22-.9s0 0 0-.06 0 0 .06 0a1.58 1.58 0 0 1 .24.95 0 0 0 0 1 -.08.01z" />
    <path d="m19.19 19.5s0 0 0 0-.52-.55-.71-.69a0 0 0 0 1 0-.05s0 0 0 0 .71.51.74.74z" />
    <path
        d="m20.82 20.23a1.3 1.3 0 0 0 -.57-1 1.3 1.3 0 0 0 -.57 1s-.16-.21-.32-.21v.66h1.78v-.68c-.14 0-.32.23-.32.23z"
        fill="#fff" />
    <path
        d="m21.14 20.72h-1.78a0 0 0 0 1 0 0v-.72a0 0 0 0 1 0 0 .43.43 0 0 1 .28.15 1.44 1.44 0 0 1 .58-.93h.05a1.4 1.4 0 0 1 .58.93.43.43 0 0 1 .29-.15 0 0 0 0 1 0 0v.66a0 0 0 0 1 0 .06zm-1.74-.08h1.69v-.57a.58.58 0 0 0 -.24.18 0 0 0 0 1 0 0s0 0 0 0a1.25 1.25 0 0 0 -.53-.94 1.22 1.22 0 0 0 -.53.94s0 0 0 0 0 0-.05 0a.52.52 0 0 0 -.24-.18z" />
    <path d="m28.33 25h-.95a0 0 0 0 1 0-.05h.95a0 0 0 0 1 0 0 0 0 0 0 1 0 .05z" />
    <path d="m28.33 25.66h-.95a0 0 0 0 1 0-.08h.95a0 0 0 1 1 0 .08z" />
    <path d="m27.02 23.72h.36v5.06h-.36z" fill="#fff" />
    <path
        d="m27.38 28.83h-.38a0 0 0 0 1 0 0v-5.11a0 0 0 0 1 0 0h.36a0 0 0 0 1 0 0v5.06a0 0 0 0 1 .02.05zm-.32-.09h.28v-5h-.28z" />
    <path d="m28.33 23.72h.36v5.06h-.36z" fill="#fff" />
    <path
        d="m28.69 28.83h-.36a0 0 0 0 1 0 0v-5.11a0 0 0 0 1 0 0h.36a0 0 0 0 1 0 0v5.06a0 0 0 0 1 0 .05zm-.32-.09h.28v-5h-.28z" />
    <path d="m28.33 26.93h-.95a0 0 0 0 1 0 0h.95a0 0 0 0 1 0 0z" />
    <path d="m28.33 28.19h-.95a0 0 0 1 1 0-.08h.95a0 0 0 1 1 0 .08z" />
    <path d="m27.38 24.98h.94v.64h-.94z" fill="#fff" />
    <path
        d="m28.33 25.66h-.95a0 0 0 0 1 0 0v-.66a0 0 0 0 1 0 0h.95a0 0 0 0 1 0 0v.64a0 0 0 0 1 0 .02zm-.91-.08h.86v-.58h-.86z" />
    <path d="m19.41 23.72h.39v5.06h-.39z" fill="#fff" />
    <path
        d="m19.8 28.83h-.39a0 0 0 0 1 0 0v-5.11a0 0 0 0 1 0 0h.39a0 0 0 0 1 0 0v5.06s.03.05 0 .05zm-.35-.09h.31v-5h-.31z" />
    <path d="m20.69 23.72h.39v5.06h-.39z" fill="#fff" />
    <path
        d="m21.08 28.83h-.39a0 0 0 0 1 0 0v-5.11a0 0 0 0 1 0 0h.39a0 0 0 0 1 0 0v5.06a0 0 0 0 1 0 .05zm-.35-.09h.27v-5h-.31z" />
    <path d="m20.69 26.93h-.89a0 0 0 0 1 0 0h.89a0 0 0 0 1 0 0z" />
    <path d="m20.69 28.19h-.89a0 0 0 1 1 0-.08h.89a0 0 0 0 1 0 .08z" />
    <path d="m19.8 24.98h.89v.64h-.89z" fill="#fff" />
    <path
        d="m20.69 25.66h-.89a0 0 0 0 1 0 0v-.66a0 0 0 0 1 0 0h.89a0 0 0 0 1 0 0v.64a0 0 0 0 1 0 .02zm-.85-.08h.81v-.58h-.81z" />
    <path d="m11.81 23.72h.36v5.06h-.36z" fill="#fff" />
    <path
        d="m12.17 28.83h-.36s0 0 0 0v-5.11a0 0 0 0 1 0 0h.36a0 0 0 0 1 0 0v5.06a0 0 0 0 1 0 .05zm-.32-.09h.28v-5h-.28z" />
    <path d="m13.11 23.72h.36v5.06h-.36z" fill="#fff" />
    <path
        d="m13.48 28.83h-.37a0 0 0 0 1 0 0v-5.11a0 0 0 0 1 0 0h.37a0 0 0 0 1 0 0v5.06a0 0 0 0 1 0 .05zm-.33-.09h.28v-5h-.28z" />
    <path d="m13.11 26.93h-.94a0 0 0 0 1 0 0h.94s0 0 0 0a0 0 0 0 1 0 0z" />
    <path d="m13.11 28.19h-.94a0 0 0 0 1 0-.08h.94a0 0 0 1 1 0 .08z" />
    <path d="m12.17 24.98h.94v.64h-.94z" fill="#fff" />
    <path
        d="m13.11 25.66h-.94a0 0 0 0 1 0 0v-.66a0 0 0 0 1 0 0h.94a0 0 0 0 1 0 0v.64a0 0 0 0 1 0 .02zm-.9-.08h.86v-.58h-.86z" />
    <path d="m30 23.18h-19.53a0 0 0 0 0 0 0 0 0 0 0 0 0 .05h19.53a0 0 0 0 0 0-.05z" />
</svg>