<svg viewBox="0 0 40.5 40.5" xmlns="http://www.w3.org/2000/svg">
    <path
        d="m40.5 20.25a7.77 7.77 0 0 1 0 .84 19 19 0 0 1 -.35 2.91 1.47 1.47 0 0 0 0 .29 21.47 21.47 0 0 1 -.83 2.87 1.8 1.8 0 0 1 -.08.21 18.44 18.44 0 0 1 -1.43 3 .05.05 0 0 1 0 0 19.1 19.1 0 0 1 -2 2.81s0 0 0 .06a18.26 18.26 0 0 1 -2.27 2.3l-.13.11a20.25 20.25 0 0 1 -26.06 0l-.13-.11a18.26 18.26 0 0 1 -2.27-2.3s0 0-.05-.06a19.1 19.1 0 0 1 -2-2.81.05.05 0 0 1 0 0 18.44 18.44 0 0 1 -1.43-3 1.8 1.8 0 0 1 -.08-.21 21.47 21.47 0 0 1 -.99-2.83 1.47 1.47 0 0 0 -.05-.33 19 19 0 0 1 -.35-2.91 7.77 7.77 0 0 1 0-.84 20.25 20.25 0 0 1 40.5 0z"
        fill="#ce1126" />
    <path d="m24.54 7.68h-1.73l-.37.38h2.56a.55.55 0 0 0 -.46-.38z" fill="#fcd116" />
    <path
        d="m25 8.14h-2.6a.08.08 0 0 1 -.07-.05.07.07 0 0 1 0-.09l.37-.38h.06 1.73a.63.63 0 0 1 .58.43.06.06 0 0 1 0 .07.07.07 0 0 1 -.07.02zm-2.35-.14h2.26a.45.45 0 0 0 -.37-.2h-1.69z"
        fill="#bd9c08" />
    <path
        d="m18.93 6.87s1.61-1.58 1.89-1.79a4.28 4.28 0 0 1 2.71-.85c2.87-.11 6.74-.67 6.74-.67s-2.55 1.69-7.76 2.26a5.25 5.25 0 0 0 -1.07 1.18l3.9.07s-2.93 1.04-4.21 1.53-3.87.34-5-1.21h-1.62c-.61-.42-.38-.65-.38-.65h1.49s.67-.88 2.23.14z"
        fill="#fcd116" />
    <g fill="#bd9c08">
        <path
            d="m19.59 8.93a4.42 4.42 0 0 1 -3.51-1.45h-1.57c-.29-.2-.44-.39-.46-.57a.26.26 0 0 1 .07-.21h.06 1.45a1.1 1.1 0 0 1 .55-.32 2.21 2.21 0 0 1 1.74.46h1c.21-.2 1.6-1.57 1.87-1.77a4.43 4.43 0 0 1 2.75-.87c2.84-.1 6.7-.66 6.74-.66a.08.08 0 0 1 .09 0 .09.09 0 0 1 0 .1 18.85 18.85 0 0 1 -7.83 2.26 5.92 5.92 0 0 0 -1 1l3.81.1a.08.08 0 0 1 .08.07.09.09 0 0 1 -.06.09l-4.21 1.52a4.62 4.62 0 0 1 -1.57.25zm-5.06-1.62h1.6a.07.07 0 0 1 .06 0c1.08 1.51 3.59 1.69 4.91 1.21l3.79-1.41-3.46-.06a.13.13 0 0 1 -.07 0 .14.14 0 0 1 0-.09 5.58 5.58 0 0 1 1.09-1.17h.05a20.56 20.56 0 0 0 7.35-2c-1.09.15-4 .53-6.32.61a4.24 4.24 0 0 0 -2.66.84c-.27.11-1.87 1.67-1.87 1.69h-.06-1.14c-1.47-1-2.09-.19-2.12-.16a.08.08 0 0 1 -.06 0h-1.45c.01.23.07.33.36.54z" />
        <path
            d="m19.28 8.61c-.28 0-.44 0-.46 0a.09.09 0 0 1 -.07-.1.07.07 0 0 1 .09-.07 6 6 0 0 0 3.65-.93.09.09 0 0 1 .12 0 .08.08 0 0 1 0 .11 6.5 6.5 0 0 1 -3.33.99z" />
        <path
            d="m19.53 8.25a1.21 1.21 0 0 1 -1-.51.09.09 0 0 1 .13-.11 1.06 1.06 0 0 0 .84.45c.9 0 1.83-1.16 1.84-1.17a.09.09 0 0 1 .12 0 .08.08 0 0 1 0 .12c0 .04-.95 1.22-1.93 1.22z" />
        <path
            d="m19.17 7.14a.1.1 0 0 1 -.08 0 .08.08 0 0 1 0-.11 11.28 11.28 0 0 0 1.45-1.12l.17-.15c.66-.6 1.23-1.12 3.47-1.24a39.27 39.27 0 0 0 6-1 .08.08 0 0 1 .1.06.09.09 0 0 1 -.06.1 39.46 39.46 0 0 1 -6.06 1c-2.18.12-2.73.62-3.37 1.2l-.1.12a11.62 11.62 0 0 1 -1.48 1.15z" />
        <path
            d="m15.92 7.09h-1.8a.09.09 0 0 1 -.12-.09.09.09 0 0 1 .08-.08h1.8a.09.09 0 0 1 .12.08.09.09 0 0 1 -.08.09z" />
        <path d="m16.64 6.79a.21.21 0 0 1 -.21.21.21.21 0 0 1 -.21-.21.22.22 0 0 1 .21-.21.21.21 0 0 1 .21.21z" />
    </g>
    <path d="m18.39 6.87s-.55-.87-3.91-1.38a9.15 9.15 0 0 1 -4.32-1.61s3.56.6 4.64.71 4 .13 4.64 1.78l-.51.5z"
        fill="#fcd116" />
    <path
        d="m18.39 7a.12.12 0 0 1 -.08 0s-.59-.9-3.84-1.34a9.18 9.18 0 0 1 -4.36-1.66.07.07 0 0 1 0-.1.07.07 0 0 1 .09-.05s3.57.6 4.64.71h.44c1.28.1 3.66.28 4.27 1.79a.1.1 0 0 1 0 .09l-.51.5h-.06zm-7.89-3a9.25 9.25 0 0 0 4 1.39c3 .41 3.79 1.19 3.94 1.38h.47l.44-.43c-.6-1.36-2.87-1.54-4.1-1.63h-.45c-.88-.12-3.36-.53-4.3-.71z"
        fill="#bd9c08" />
    <path
        d="m18.46 7a.1.1 0 0 1 -.08-.06c-.44-1.54-1.92-1.71-3.64-1.94l-1.08-.13a14.23 14.23 0 0 1 -3.54-1 .1.1 0 0 1 0-.12.08.08 0 0 1 .11 0 13.32 13.32 0 0 0 3.49.94l1.08.13c1.78.2 3.31.37 3.78 2a.07.07 0 0 1 -.05.1z"
        fill="#bd9c08" />
    <path d="m21.23 14.81h-1.96l.98-4.56.44 2.04.53 2.46z" fill="#fcd116" />
    <path
        d="m21.23 14.89h-2a.09.09 0 0 1 -.07 0 .1.1 0 0 1 0-.07l1-4.55a.08.08 0 0 1 .16 0l1 4.55a.08.08 0 0 1 0 .07.09.09 0 0 1 -.09 0zm-1.86-.17h1.76l-.88-4.07z"
        fill="#bd9c08" />
    <path d="m16.83 10.86.63 4.61 1.85-.67z" fill="#fcd116" />
    <path
        d="m17.46 15.56a.1.1 0 0 1 0-.07l-.63-4.61a.07.07 0 0 1 .05-.09.08.08 0 0 1 .1 0l2.48 3.94a.08.08 0 0 1 0 .08l-.05.05-1.85.67zm-.46-4.33.56 4.13 1.65-.6z"
        fill="#bd9c08" />
    <path d="m13.82 12.59 2.17 4.12 1.51-1.26z" fill="#fcd116" />
    <path
        d="m16 16.8s-.05 0-.06-.05l-2.17-4.12a.08.08 0 0 1 0-.1.07.07 0 0 1 .1 0l3.68 2.85a.1.1 0 0 1 0 .07.07.07 0 0 1 0 .06l-1.51 1.27zm-1.91-3.9 1.91 3.68 1.35-1.13z"
        fill="#bd9c08" />
    <path d="m11.59 15.25 3.45 3.13.98-1.7z" fill="#fcd116" />
    <path
        d="m15 18.47h-.06l-3.45-3.13a.09.09 0 0 1 0-.11.09.09 0 0 1 .09 0l4.44 1.43a.08.08 0 0 1 .05 0 .09.09 0 0 1 0 .07l-1 1.71a.09.09 0 0 1 -.06 0zm-3.11-3 3.11 2.78.88-1.52z"
        fill="#bd9c08" />
    <path d="m10.4 18.52 4.31 1.76.35-1.94z" fill="#fcd116" />
    <path
        d="m14.71 20.36-4.34-1.76a.09.09 0 0 1 0-.1.08.08 0 0 1 .08-.07l4.65-.18a.09.09 0 0 1 .07 0 .1.1 0 0 1 0 .07l-.34 1.94a.09.09 0 0 1 0 .06zm-3.92-1.77 3.86 1.57.35-1.73z"
        fill="#bd9c08" />
    <path d="m10.4 21.99 4.66.18-.35-1.94z" fill="#fcd116" />
    <path
        d="m15.06 22.25-4.65-.17s-.08 0-.08-.07a.09.09 0 0 1 0-.1l4.31-1.76a.08.08 0 0 1 .08 0 .09.09 0 0 1 0 .06l.34 1.94a.1.1 0 0 1 0 .07zm-4.27-.33 4.17.16-.31-1.73z"
        fill="#bd9c08" />
    <path d="m30.1 21.99-4.31-1.76-.35 1.94z" fill="#fcd116" />
    <path
        d="m25.44 22.25h-.06a.1.1 0 0 1 0-.07l.34-1.94a.09.09 0 0 1 0-.06.08.08 0 0 1 .08 0l4.31 1.76a.09.09 0 0 1 .05.1s0 .06-.08.07l-4.65.17zm.41-1.9-.31 1.73 4.17-.16z"
        fill="#bd9c08" />
    <path d="m30.1 18.52-4.66-.18.35 1.94z" fill="#fcd116" />
    <path
        d="m25.78 20.36a.09.09 0 0 1 0-.06l-.34-1.94a.1.1 0 0 1 0-.07.09.09 0 0 1 .07 0l4.65.18a.08.08 0 0 1 .08.07.09.09 0 0 1 -.05.1l-4.31 1.76zm-.24-1.93.31 1.73 3.86-1.57z"
        fill="#bd9c08" />
    <path d="m28.91 15.25-4.44 1.43.99 1.7z" fill="#fcd116" />
    <path
        d="m25.46 18.47a.09.09 0 0 1 -.06 0l-1-1.71a.09.09 0 0 1 0-.07s0 0 .05 0l4.44-1.43a.09.09 0 0 1 .09 0 .09.09 0 0 1 0 .11l-3.45 3.13zm-.86-1.74.88 1.52 3.09-2.8z"
        fill="#bd9c08" />
    <path d="m26.68 12.59-3.68 2.86 1.5 1.26z" fill="#fcd116" />
    <path
        d="m24.5 16.8h-.05l-1.51-1.27a.07.07 0 0 1 0-.06.09.09 0 0 1 0-.07l3.69-2.85a.07.07 0 0 1 .1 0 .08.08 0 0 1 0 .1l-2.17 4.12s0 0-.06.05zm-1.37-1.35 1.35 1.13 1.94-3.68z"
        fill="#bd9c08" />
    <path d="m23.67 10.86-.63 4.61-1.15-.42-.68-.24-.02-.01.03-.05 1.42-2.25z" fill="#fcd116" />
    <path
        d="m23 15.56-1.85-.67a.08.08 0 0 1 -.05-.05.08.08 0 0 1 0-.08v-.05l2.45-3.89a.08.08 0 0 1 .1 0 .07.07 0 0 1 .05.09l-.63 4.61a.07.07 0 0 1 0 .06zm-1.73-.8 1.66.6.56-4.13z"
        fill="#bd9c08" />
    <path d="m22.64 12.5-1.42 2.25-.53-2.46a4.43 4.43 0 0 1 1.36-2.29 3.92 3.92 0 0 0 .59 2.5z" fill="#fcd116" />
    <path
        d="m21.18 15-.58-2.69a4.55 4.55 0 0 1 1.4-2.39l.2-.14-.07.23a3.84 3.84 0 0 0 .58 2.45zm-.4-2.68.48 2.24 1.28-2a4.9 4.9 0 0 1 -.61-2.31 4.85 4.85 0 0 0 -1.15 2.04z"
        fill="#bd9c08" />
    <path d="m19.84 12.15-.56 2.6-1.34-2.13a4.51 4.51 0 0 1 .49-2.62s.04.8 1.41 2.15z" fill="#fcd116" />
    <path
        d="m19.32 15-1.47-2.33a4.59 4.59 0 0 1 .51-2.68l.14-.19v.2s.07.8 1.39 2.1zm-1.32-2.41 1.22 1.94.51-2.35a4.81 4.81 0 0 1 -1.36-2 4.85 4.85 0 0 0 -.37 2.41z"
        fill="#bd9c08" />
    <path d="m17.09 12.78.36 2.63-2-1.54a4.42 4.42 0 0 1 -.45-2.64s.34.77 2.09 1.55z" fill="#fcd116" />
    <path
        d="m17.56 15.6-2.16-1.68a4.6 4.6 0 0 1 -.45-2.69l.05-.23.09.22s.34.73 2 1.5zm-2-1.78 1.81 1.4-.37-2.38a5 5 0 0 1 -2-1.39 5 5 0 0 0 .53 2.37z"
        fill="#bd9c08" />
    <path d="m14.73 14.31 1.27 2.35-2.4-.77a4.5 4.5 0 0 1 -1.32-2.33 4 4 0 0 0 2.45.75z" fill="#fcd116" />
    <path
        d="m16.14 16.8-2.62-.8a4.6 4.6 0 0 1 -1.34-2.38v-.24l.17.18a4 4 0 0 0 2.41.72zm-2.52-1 2.17.7-1.12-2.13a4.82 4.82 0 0 1 -2.3-.63 4.75 4.75 0 0 0 1.25 2.08z"
        fill="#bd9c08" />
    <path d="m13 16.56 2 1.78-2.51.1a4.52 4.52 0 0 1 -2-1.74 4 4 0 0 0 2.51-.14z" fill="#fcd116" />
    <path
        d="m12.46 18.52a4.54 4.54 0 0 1 -2.07-1.77l-.09-.22.21.11a4 4 0 0 0 2.49-.16h.05l2.15 2zm-1.84-1.67a4.81 4.81 0 0 0 1.88 1.5l2.28-.08-1.78-1.62a4.92 4.92 0 0 1 -2.38.2z"
        fill="#bd9c08" />
    <path d="m12.2 19.25 2.46 1-2.33.95a4.51 4.51 0 0 1 -2.51-.93s.81.1 2.38-1.02z" fill="#fcd116" />
    <path
        d="m12.34 21.29a4.66 4.66 0 0 1 -2.56-1l-.16-.17h.24s.8.08 2.31-1l2.69 1.09zm-2.34-.94a5 5 0 0 0 2.29.77l2.11-.87-2.22-.9a5 5 0 0 1 -2.18 1z"
        fill="#bd9c08" />
    <path d="m28.3 21.26-2.46-1 2.33-.95a4.57 4.57 0 0 1 2.5.94s-.8-.11-2.37 1.01z" fill="#fcd116" />
    <path
        d="m28.31 21.35-2.69-1.1 2.54-1a4.66 4.66 0 0 1 2.56 1l.16.17h-.24a4 4 0 0 0 -2.31 1zm-2.24-1.1 2.22.91a5 5 0 0 1 2.18-1 5 5 0 0 0 -2.29-.77z"
        fill="#bd9c08" />
    <path d="m28.16 18.44-2.65-.1 1.86-1.69a4.43 4.43 0 0 1 2.67 0s-.79.21-1.88 1.79z" fill="#fcd116" />
    <path
        d="m28.2 18.53-2.9-.11 2-1.85a4.55 4.55 0 0 1 2.73 0l.21.1-.23.06s-.78.2-1.83 1.73zm-2.48-.26 2.39.09a5.11 5.11 0 0 1 1.71-1.69 4.87 4.87 0 0 0 -2.41.06z"
        fill="#bd9c08" />
    <path d="m27.06 15.85-2.53.81 1.18-2.23a4.56 4.56 0 0 1 2.52-.89s-.69.46-1.17 2.31z" fill="#fcd116" />
    <path
        d="m24.36 16.8 1.28-2.42a4.55 4.55 0 0 1 2.58-.9h.23l-.2.13a4.11 4.11 0 0 0 -1.13 2.26zm1.41-2.31-1.07 2 2.3-.71a4.83 4.83 0 0 1 1-2.16 4.81 4.81 0 0 0 -2.23.87z"
        fill="#bd9c08" />
    <path d="m25.14 13.78-2.09 1.63.34-2.49a4.52 4.52 0 0 1 2.06-1.7 4 4 0 0 0 -.31 2.56z" fill="#fcd116" />
    <path
        d="m22.93 15.6.38-2.71a4.51 4.51 0 0 1 2.11-1.73l.23-.06-.14.19a3.93 3.93 0 0 0 -.29 2.51zm.54-2.6-.31 2.27 1.9-1.47a4.83 4.83 0 0 1 .22-2.39 4.88 4.88 0 0 0 -1.81 1.59z"
        fill="#bd9c08" />
    <path d="m25.88 20.25a5.63 5.63 0 1 1 -5.63-5.63 5.63 5.63 0 0 1 5.63 5.63z" fill="#fcd116" />
    <path
        d="m20.25 26a5.72 5.72 0 1 1 5.75-5.75 5.73 5.73 0 0 1 -5.75 5.75zm0-11.26a5.55 5.55 0 1 0 5.55 5.54 5.55 5.55 0 0 0 -5.55-5.57z"
        fill="#bd9c08" />
    <path
        d="m37.76 30.42a.05.05 0 0 1 0 0 19.1 19.1 0 0 1 -2 2.81s0 0 0 .06a10 10 0 0 1 -3.83-.93 7.79 7.79 0 0 0 -3.5-.73 7.79 7.79 0 0 0 -3.5.73 10.3 10.3 0 0 1 -4.6 1 10.3 10.3 0 0 1 -4.6-1 7.79 7.79 0 0 0 -3.5-.73 7.79 7.79 0 0 0 -3.5.73 10 10 0 0 1 -3.83.93s0 0-.05-.06a19.1 19.1 0 0 1 -2-2.81.05.05 0 0 1 0 0 8.33 8.33 0 0 0 1.31.09 7.77 7.77 0 0 0 3.5-.74 10.47 10.47 0 0 1 4.6-.95 10.47 10.47 0 0 1 4.6.95 7.77 7.77 0 0 0 3.5.74 7.77 7.77 0 0 0 3.5-.74 10.47 10.47 0 0 1 4.6-.95 10.47 10.47 0 0 1 4.6.95 7.77 7.77 0 0 0 3.5.74 8.33 8.33 0 0 0 1.2-.09z"
        fill="#003f87" />
    <path
        d="m40.15 24a1.47 1.47 0 0 0 0 .29 21.47 21.47 0 0 1 -.83 2.87 1.8 1.8 0 0 1 -.08.21 11.12 11.12 0 0 1 -2.74.31 10.47 10.47 0 0 1 -4.6-.95 7.77 7.77 0 0 0 -3.5-.74 7.77 7.77 0 0 0 -3.5.74 10.47 10.47 0 0 1 -4.6.95 10.47 10.47 0 0 1 -4.6-.95 7.77 7.77 0 0 0 -3.5-.74 7.77 7.77 0 0 0 -3.5.74 10.47 10.47 0 0 1 -4.6.95 11.12 11.12 0 0 1 -2.74-.31 1.8 1.8 0 0 1 -.08-.21 21.47 21.47 0 0 1 -.88-2.83 1.47 1.47 0 0 0 -.05-.33l.2.08a7.65 7.65 0 0 0 3.5.73 7.65 7.65 0 0 0 3.5-.73 10.47 10.47 0 0 1 4.6-.95 10.47 10.47 0 0 1 4.6.95 7.65 7.65 0 0 0 3.5.73 7.65 7.65 0 0 0 3.5-.73 10.47 10.47 0 0 1 4.6-.95 10.47 10.47 0 0 1 4.6.95 7.65 7.65 0 0 0 3.5.73 7.65 7.65 0 0 0 3.5-.73z"
        fill="#003f87" />
    <path
        d="m35.73 33.28s0 0 0 .06a18.26 18.26 0 0 1 -2.27 2.3l-.13.11a13.59 13.59 0 0 1 -1.43-.53 7.89 7.89 0 0 0 -2.35-.67 11.05 11.05 0 0 0 -2.3 0 7.89 7.89 0 0 0 -2.35.67 10.48 10.48 0 0 1 -3.45.91c-.34 0-.72 0-1.15 0s-.81 0-1.15 0a10.48 10.48 0 0 1 -3.45-.91 7.89 7.89 0 0 0 -2.35-.67 11.05 11.05 0 0 0 -2.3 0 7.89 7.89 0 0 0 -2.35.67 13.59 13.59 0 0 1 -1.43.53l-.13-.11a18.26 18.26 0 0 1 -2.27-2.3s0 0-.05-.06a7.56 7.56 0 0 0 2.78-.7 10.44 10.44 0 0 1 4.6-1 10.44 10.44 0 0 1 4.6 1 7.8 7.8 0 0 0 3.5.72 7.8 7.8 0 0 0 3.5-.72 10.44 10.44 0 0 1 4.6-1 10.44 10.44 0 0 1 4.6 1 7.56 7.56 0 0 0 2.73.7z"
        fill="#fff" />
    <path
        d="m39.27 27.2a1.8 1.8 0 0 1 -.08.21 18.44 18.44 0 0 1 -1.43 3 .05.05 0 0 1 0 0 12.35 12.35 0 0 1 -1.28.07 10.3 10.3 0 0 1 -4.6-1 7.79 7.79 0 0 0 -3.5-.73 7.79 7.79 0 0 0 -3.5.73 10.3 10.3 0 0 1 -4.6 1 10.3 10.3 0 0 1 -4.6-1 7.79 7.79 0 0 0 -3.5-.73 7.79 7.79 0 0 0 -3.5.73 10.3 10.3 0 0 1 -4.6 1 12.35 12.35 0 0 1 -1.28-.07.05.05 0 0 1 0 0 18.44 18.44 0 0 1 -1.43-3 1.8 1.8 0 0 1 -.08-.21 7.34 7.34 0 0 0 2.82.47 7.77 7.77 0 0 0 3.5-.74 10.64 10.64 0 0 1 4.6-.94 10.64 10.64 0 0 1 4.6.94 7.77 7.77 0 0 0 3.5.74 7.77 7.77 0 0 0 3.5-.74 10.64 10.64 0 0 1 4.6-.94 10.64 10.64 0 0 1 4.6.94 7.77 7.77 0 0 0 3.5.74 7.34 7.34 0 0 0 2.76-.47z"
        fill="#fff" />
    <path
        d="m40.47 21.09a19 19 0 0 1 -.32 2.91 1.47 1.47 0 0 0 0 .29 10.55 10.55 0 0 1 -3.65.56 10.64 10.64 0 0 1 -4.6-.94 7.51 7.51 0 0 0 -3.5-.74 7.51 7.51 0 0 0 -3.5.74 10.64 10.64 0 0 1 -4.6.94 10.64 10.64 0 0 1 -4.6-.94 7.51 7.51 0 0 0 -3.5-.74 7.51 7.51 0 0 0 -3.5.74 10.64 10.64 0 0 1 -4.6.94 10.55 10.55 0 0 1 -3.7-.52 1.47 1.47 0 0 0 -.05-.33 19 19 0 0 1 -.35-2.91c.19.06.35.13.52.2a7.64 7.64 0 0 0 3.5.74 7.64 7.64 0 0 0 3.5-.74 10.47 10.47 0 0 1 4.6-.95 10.47 10.47 0 0 1 4.6.95 7.64 7.64 0 0 0 3.5.74 7.64 7.64 0 0 0 3.5-.74 10.47 10.47 0 0 1 4.6-.95 10.47 10.47 0 0 1 4.6.95 7.64 7.64 0 0 0 3.5.74 7.64 7.64 0 0 0 3.5-.74c.2-.07.36-.14.55-.2z"
        fill="#fff" />
    <path
        d="m33.41 35.64-.13.11a20.25 20.25 0 0 1 -26.06 0l-.13-.11.46-.19a9.81 9.81 0 0 1 3.45-.9 11.05 11.05 0 0 1 2.3 0 9.81 9.81 0 0 1 3.45.9 8.18 8.18 0 0 0 2.35.68h1.15s.81 0 1.15 0a8.18 8.18 0 0 0 2.35-.68 9.81 9.81 0 0 1 3.45-.9 11.05 11.05 0 0 1 2.3 0 9.81 9.81 0 0 1 3.45.9z"
        fill="#003f87" />
</svg>