<svg viewBox="0 0 40.5 40.5" xmlns="http://www.w3.org/2000/svg">
    <path d="m39.34 13.5h-38.18a19.55 19.55 0 0 1 2.46-4.79 20.24 20.24 0 0 1 35.72 4.79z" fill="#007a3d" />
    <path
        d="m40.5 20.25a20.19 20.19 0 0 1 -1.16 6.75h-38.18a20.22 20.22 0 0 1 0-13.5h38.18a20.19 20.19 0 0 1 1.16 6.75z"
        fill="#fff" />
    <path d="m39.34 27a20.24 20.24 0 0 1 -35.72 4.79 19.55 19.55 0 0 1 -2.46-4.79z" fill="#ce1126" />
    <path
        d="m10.8 13.5v13.5l-7.18 4.79a19.55 19.55 0 0 1 -2.46-4.79 20.22 20.22 0 0 1 0-13.5 19.55 19.55 0 0 1 2.46-4.79z" />
</svg>