<svg viewBox="0 0 40.5 40.5" xmlns="http://www.w3.org/2000/svg">
    <path d="m37.79 10.13h-35.08a20.25 20.25 0 0 1 35.08 0z" fill="#e70013" />
    <path d="m37.79 30.38a20.26 20.26 0 0 1 -35.08 0z" fill="#239e46" />
    <path
        d="m40.5 20.25a20.21 20.21 0 0 1 -2.71 10.13h-35.08a20.27 20.27 0 0 1 0-20.25h35.08a20.14 20.14 0 0 1 2.71 10.12z" />
    <g fill="#fff">
        <path d="m21.28 24.64a4.39 4.39 0 1 1 2.62-7.92 5.08 5.08 0 1 0 0 7.06 4.38 4.38 0 0 1 -2.62.86z" />
        <path d="m25.33 16.73 1.59 2.17 2.55-.83-1.58 2.18 1.59 2.17-2.56-.83-1.58 2.18v-2.69l-2.56-.83 2.56-.83z" />
    </g>
</svg>