<svg viewBox="0 0 40.5 40.5" xmlns="http://www.w3.org/2000/svg">
    <path d="m40.5 20.25h-40.5a20.25 20.25 0 0 1 40.5 0z" fill="#002b7f" />
    <path d="m40.5 20.25a20.25 20.25 0 0 1 -40.5 0z" fill="#ce1126" />
    <path d="m13.3 3.59-.36.64.36.65.36-.65z" fill="#ffd83d" />
    <path
        d="m13.3 4.93s0 0 0 0l-.36-.64a0 0 0 0 1 0 0l.36-.65a.06.06 0 0 1 .09 0l.35.65a0 0 0 0 1 0 0l-.35.64a.05.05 0 0 1 -.09 0zm-.3-.7.3.54.3-.54-.3-.54z" />
    <path
        d="m20.21 11.31a2.47 2.47 0 0 0 -1.1-.4c.66-2.44-.32-3.1-1.16-3.41a5.4 5.4 0 0 0 -2.69.13 9.32 9.32 0 0 1 -2 .34 9.2 9.2 0 0 1 -2-.34 5.4 5.4 0 0 0 -2.6-.13c-.85.31-1.83 1-1.16 3.41a2.5 2.5 0 0 0 -1.11.4c-.06 0 0 .12 0 .17a4.91 4.91 0 0 1 .78 1.35c.24.55.65 1.87 1.08 2.13s.89.57 5 .67c4.13-.1 4.61-.41 5-.67s.85-1.58 1.08-2.13a5.5 5.5 0 0 1 .78-1.35c.13-.05.16-.12.1-.17z" />
    <path d="m14.65 5.05-.65-.35-.64.35.64.36z" fill="#ffd83d" />
    <path
        d="m14 5.46-.65-.36a.08.08 0 0 1 0 0l.65-.45a0 0 0 0 1 0 0l.64.36a.05.05 0 0 1 0 0zm-.54-.41.54.3.54-.3-.54-.3z" />
    <path d="m11.96 5.05.64-.35.64.35-.64.36z" fill="#ffd83d" />
    <path
        d="m12.6 5.46-.65-.36a.08.08 0 0 1 0 0l.65-.36a0 0 0 0 1 .05 0l.64.36a.05.05 0 0 1 0 0l-.64.36zm-.54-.41.54.3.54-.3-.54-.3z" />
    <circle cx="13.3" cy="7.72" fill="#ffd83d" r=".26" />
    <path
        d="m13.3 8a.29.29 0 0 1 -.3-.3.3.3 0 0 1 .3-.31.31.31 0 0 1 .31.31.3.3 0 0 1 -.31.3zm0-.51a.21.21 0 0 0 -.2.21.2.2 0 0 0 .2.2.21.21 0 0 0 .21-.2.22.22 0 0 0 -.21-.19z" />
    <path d="m13.56 8.24a.26.26 0 0 1 -.26.27.27.27 0 0 1 0-.53.26.26 0 0 1 .26.26z" fill="#ffd83d" />
    <path
        d="m13.3 8.56a.32.32 0 1 1 .31-.32.31.31 0 0 1 -.31.32zm0-.53a.21.21 0 0 0 -.21.21.21.21 0 1 0 .42 0 .21.21 0 0 0 -.21-.24z" />
    <path d="m13.58 8.79a.27.27 0 0 1 -.28.28.28.28 0 0 1 -.3-.28.29.29 0 0 1 .28-.28.28.28 0 0 1 .3.28z"
        fill="#ffd83d" />
    <path
        d="m13.3 9.12a.33.33 0 1 1 .33-.33.33.33 0 0 1 -.33.33zm0-.56a.24.24 0 0 0 -.23.23.23.23 0 0 0 .23.21.23.23 0 0 0 .23-.23.23.23 0 0 0 -.23-.21z" />
    <path d="m13.63 9.4a.33.33 0 1 1 -.33-.33.33.33 0 0 1 .33.33z" fill="#ffd83d" />
    <path d="m13.3 9.78a.38.38 0 1 1 .38-.38.38.38 0 0 1 -.38.38zm0-.66a.28.28 0 1 0 .28.28.29.29 0 0 0 -.28-.28z" />
    <path d="m13.65 10.07a.35.35 0 1 1 -.35-.34.35.35 0 0 1 .35.34z" fill="#ffd83d" />
    <path d="m13.3 10.47a.4.4 0 1 1 .4-.4.4.4 0 0 1 -.4.4zm0-.69a.3.3 0 1 0 0 .59.3.3 0 1 0 0-.59z" />
    <circle cx="13.91" cy="7.62" fill="#ffd83d" r=".33" />
    <path d="m13.91 8a.4.4 0 1 1 0-.8.4.4 0 1 1 0 .8zm0-.66a.27.27 0 0 0 0 .53.27.27 0 1 0 0-.53z" />
    <circle cx="14.67" cy="7.44" fill="#ffd83d" r=".33" />
    <path d="m14.67 7.85a.41.41 0 1 1 .4-.41.4.4 0 0 1 -.4.41zm0-.67a.27.27 0 1 0 .26.26.27.27 0 0 0 -.26-.26z" />
    <path d="m15.76 7.26a.34.34 0 1 1 -.34-.33.34.34 0 0 1 .34.33z" fill="#ffd83d" />
    <path d="m15.42 7.66a.4.4 0 1 1 .4-.4.4.4 0 0 1 -.4.4zm0-.67a.27.27 0 1 0 .27.27.27.27 0 0 0 -.27-.26z" />
    <path d="m16.53 7.13a.34.34 0 0 1 -.67 0 .34.34 0 0 1 .67 0z" fill="#ffd83d" />
    <path d="m16.2 7.53a.4.4 0 1 1 .4-.4.4.4 0 0 1 -.4.4zm0-.66a.27.27 0 1 0 .26.26.27.27 0 0 0 -.26-.26z" />
    <path d="m17.28 7.07a.33.33 0 1 1 -.28-.34.33.33 0 0 1 .28.34z" fill="#ffd83d" />
    <path d="m17 7.47a.4.4 0 1 1 .4-.4.4.4 0 0 1 -.4.4zm0-.67a.27.27 0 1 0 0 .53.27.27 0 0 0 0-.53z" />
    <path d="m18 7.1a.34.34 0 0 1 -.67 0 .34.34 0 0 1 .67 0z" fill="#ffd83d" />
    <path d="m17.7 7.5a.4.4 0 1 1 .4-.4.4.4 0 0 1 -.4.4zm0-.67a.27.27 0 1 0 .3.27.27.27 0 0 0 -.3-.27z" />
    <path d="m18.75 7.34a.34.34 0 0 1 -.67 0 .34.34 0 0 1 .67 0z" fill="#ffd83d" />
    <path
        d="m18.41 7.74a.4.4 0 1 1 .4-.4.4.4 0 0 1 -.4.4zm0-.67a.27.27 0 0 0 -.26.27.27.27 0 0 0 .53 0 .27.27 0 0 0 -.27-.27z" />
    <circle cx="19.02" cy="7.78" fill="#ffd83d" r=".33" />
    <path d="m19 8.18a.4.4 0 1 1 .4-.4.4.4 0 0 1 -.4.4zm0-.66a.27.27 0 1 0 .27.26.27.27 0 0 0 -.27-.26z" />
    <circle cx="19.44" cy="8.39" fill="#ffd83d" r=".33" />
    <path d="m19.44 8.79a.4.4 0 1 1 .4-.4.4.4 0 0 1 -.4.4zm0-.66a.27.27 0 1 0 .27.26.27.27 0 0 0 -.27-.26z" />
    <circle cx="19.64" cy="9.12" fill="#ffd83d" r=".33" />
    <path d="m19.64 9.52a.4.4 0 1 1 .4-.4.4.4 0 0 1 -.4.4zm0-.66a.27.27 0 0 0 0 .53.27.27 0 1 0 0-.53z" />
    <circle cx="19.64" cy="9.87" fill="#ffd83d" r=".33" />
    <path
        d="m19.64 10.27a.4.4 0 1 1 .4-.4.4.4 0 0 1 -.4.4zm0-.66a.26.26 0 0 0 -.26.26.27.27 0 1 0 .53 0 .26.26 0 0 0 -.27-.26z" />
    <circle cx="19.49" cy="10.62" fill="#ffd83d" r=".33" />
    <path d="m19.49 11a.4.4 0 1 1 .4-.4.4.4 0 0 1 -.4.4zm0-.67a.27.27 0 0 0 0 .54.27.27 0 0 0 0-.54z" />
    <circle cx="12.69" cy="7.62" fill="#ffd83d" r=".33" />
    <path d="m12.69 8a.4.4 0 1 1 .4-.4.4.4 0 0 1 -.4.4zm0-.66a.27.27 0 1 0 0 .53.27.27 0 0 0 0-.53z" />
    <path d="m11.6 7.44a.34.34 0 1 0 .67 0 .34.34 0 0 0 -.67 0z" fill="#ffd83d" />
    <path d="m11.94 7.85a.41.41 0 1 1 .4-.41.4.4 0 0 1 -.4.41zm0-.67a.27.27 0 1 0 .26.26.27.27 0 0 0 -.26-.26z" />
    <path d="m10.85 7.26a.33.33 0 1 0 .33-.33.33.33 0 0 0 -.33.33z" fill="#ffd83d" />
    <path d="m11.18 7.66a.4.4 0 1 1 .4-.4.4.4 0 0 1 -.4.4zm0-.67a.27.27 0 0 0 0 .54.27.27 0 0 0 0-.54z" />
    <path d="m10.07 7.13a.34.34 0 0 0 .67 0 .34.34 0 0 0 -.67 0z" fill="#ffd83d" />
    <path d="m10.41 7.53a.4.4 0 1 1 .4-.4.4.4 0 0 1 -.4.4zm0-.66a.27.27 0 1 0 .26.26.27.27 0 0 0 -.26-.26z" />
    <path d="m9.32 7.07a.34.34 0 0 0 .67 0 .34.34 0 1 0 -.67 0z" fill="#ffd83d" />
    <path d="m9.65 7.47a.4.4 0 1 1 .4-.4.4.4 0 0 1 -.4.4zm0-.67a.27.27 0 1 0 .27.27.27.27 0 0 0 -.27-.27z" />
    <path d="m8.57 7.1a.33.33 0 0 0 .66 0 .33.33 0 0 0 -.66 0z" fill="#ffd83d" />
    <path d="m8.9 7.5a.4.4 0 1 1 .4-.4.4.4 0 0 1 -.4.4zm0-.67a.27.27 0 0 0 0 .53.27.27 0 1 0 0-.53z" />
    <path d="m13.3 6.52.36-.64-.36-.65-.36.65z" fill="#ffd83d" />
    <path
        d="m13.3 6.57s0 0 0 0l-.4-.67a0 0 0 0 1 0-.05l.36-.64a0 0 0 0 1 .09 0l.35.64a0 0 0 0 1 0 .05l-.35.64a.05.05 0 0 1 -.05.03zm-.3-.7.3.54.3-.54-.3-.54z" />
    <path d="m7.86 7.34a.33.33 0 1 0 .66 0 .33.33 0 0 0 -.66 0z" fill="#ffd83d" />
    <path
        d="m8.19 7.74a.4.4 0 1 1 .4-.4.4.4 0 0 1 -.4.4zm0-.67a.27.27 0 0 0 -.27.27.27.27 0 0 0 .54 0 .27.27 0 0 0 -.27-.27z" />
    <circle cx="7.58" cy="7.78" fill="#ffd83d" r=".33" />
    <path d="m7.58 8.18a.4.4 0 1 1 .4-.4.4.4 0 0 1 -.4.4zm0-.66a.27.27 0 0 0 0 .53.27.27 0 1 0 0-.53z" />
    <circle cx="7.16" cy="8.39" fill="#ffd83d" r=".33" />
    <path d="m7.16 8.79a.4.4 0 1 1 .4-.4.4.4 0 0 1 -.4.4zm0-.66a.27.27 0 0 0 0 .53.27.27 0 1 0 0-.53z" />
    <circle cx="6.96" cy="9.12" fill="#ffd83d" r=".33" />
    <path d="m7 9.52a.4.4 0 1 1 .4-.4.4.4 0 0 1 -.4.4zm0-.66a.27.27 0 1 0 .27.26.27.27 0 0 0 -.27-.26z" />
    <circle cx="6.96" cy="9.87" fill="#ffd83d" r=".33" />
    <path
        d="m7 10.27a.4.4 0 1 1 .4-.4.4.4 0 0 1 -.4.4zm0-.66a.26.26 0 0 0 -.27.26.27.27 0 1 0 .54 0 .26.26 0 0 0 -.27-.26z" />
    <circle cx="13.3" cy="6.75" fill="#ffd83d" r=".72" />
    <path d="m13.3 7.51a.77.77 0 1 1 .77-.76.77.77 0 0 1 -.77.76zm0-1.43a.67.67 0 1 0 .67.67.67.67 0 0 0 -.67-.67z" />
    <circle cx="7.11" cy="10.62" fill="#ffd83d" r=".33" />
    <path d="m7.11 11a.4.4 0 1 1 0-.8.4.4 0 0 1 0 .8zm0-.67a.27.27 0 1 0 .27.27.27.27 0 0 0 -.27-.25z" />
    <path d="m12.63 6.58v-.1s.2 0 .43-.06v-.42h.1v.48a2.91 2.91 0 0 0 -.53.1z" />
    <path d="m14 6.58a3.14 3.14 0 0 0 -.47-.06v-.52h.1v.38c.24 0 .43.06.44.06z" />
    <path
        d="m14 7a2.73 2.73 0 0 0 -1.35 0 .06.06 0 0 1 -.07 0 .05.05 0 0 1 0-.07 2.65 2.65 0 0 1 1.41 0 0 0 0 0 1 0 .06 0 0 0 0 1 .01.01z" />
    <path d="m13.56 5.05a.26.26 0 0 1 -.26.26.26.26 0 0 1 -.25-.26.25.25 0 0 1 .25-.25.26.26 0 0 1 .26.25z"
        fill="#ffd83d" />
    <path
        d="m13.3 5.36a.3.3 0 0 1 -.3-.31.29.29 0 0 1 .3-.3.3.3 0 0 1 .31.3.31.31 0 0 1 -.31.31zm0-.51a.2.2 0 0 0 -.2.2.2.2 0 0 0 .2.21.21.21 0 1 0 0-.41z" />
    <g fill="#ffd83d">
        <path
            d="m17.7 12.11s-.07 0-.07 0c-.05-1.1-.49-1.55-.95-1.56-.78 0-1.47 1-1.75 1.39a.08.08 0 0 1 -.14 0 1.34 1.34 0 0 0 -1.49-1.38 1.35 1.35 0 0 0 -1.49 1.38.08.08 0 0 1 -.14 0c-.28-.44-1-1.4-1.75-1.39-.45 0-.9.46-.94 1.56 0 0-.06.05-.08 0a1.48 1.48 0 0 0 -2.37-.71 6.32 6.32 0 0 1 .7 1.15 10.55 10.55 0 0 0 1 2.11.67.67 0 0 1 .25-.11l-.05-.23h.09l.05.22h.18l-.05-.23h.09l.05.24h.18v-.23h.09v.23h.18v-.25h.09v.24h.25v-.23h.1v.23h.28v-.2h.09v.2h.28v-.29h.09v.29h.26v-.24h.09v.24h.18v-.54h.1v.27h.23v-.29h.09v.29h.26v-.27h.09v.27h.23v-.37h.09v.29h.27v-.3h.09v.29h.31v-.31h.09v.31h.41v-.34h.09v.34h.4v-.31h.1v.31h.3v-.29h.09v.3h.27v-.29h.09v.29h.23v-.27h.09v.27h.26v-.29h.1v.29h.23v-.19h.09v.28h.21v-.24h.09v.24h.25v-.29h.09v.29h.28v-.2h.1v.2h.28v-.23h.1v.23h.25v-.24h.1v.25h.18v-.23h.09v.23h.18v-.24h.09l-.05.23h.18l.05-.22h.09l-.05.23c.21.06.25.11.25.11a10.55 10.55 0 0 0 1-2.11 6.32 6.32 0 0 1 .7-1.15 1.48 1.48 0 0 0 -2.36.97zm-9.35-.34h.05a.3.3 0 0 1 0 .26s0-.07-.05-.11a1.09 1.09 0 0 1 0-.18zm-.3-.16h.06a.12.12 0 0 1 .06.06.28.28 0 0 1 0 .09.86.86 0 0 1 0 .16s0 0 0 0l-.07-.14v-.08s-.1-.08-.05-.09zm-.36-.06s0 0 0 0a.09.09 0 0 1 .08 0 .43.43 0 0 1 0 .07 1 1 0 0 0 0 .16 0 0 0 0 0 0 0 .06.06 0 0 1 0 0v-.09a.25.25 0 0 1 -.08-.14zm-.36.23a0 0 0 0 1 0 0 .88.88 0 0 0 -.15-.12h-.06a.06.06 0 0 1 0-.06s0 0 .07 0a.55.55 0 0 1 .24.15s0 0 0 0a.06.06 0 0 1 0 0 0 0 0 0 1 -.1.03zm.23 0-.11-.12a.11.11 0 0 1 0-.11s0 0 0 0l.07.08s0 .05.06.09a.05.05 0 0 1 -.02.05zm1.12 1.92a3 3 0 0 0 -.33-.4.9.9 0 0 0 -.2-.19l-.15-.11a3.92 3.92 0 0 0 -.32-.25h-.07a.06.06 0 0 1 0-.08s0 0 .08 0h.13l.1.05a.13.13 0 0 0 .12 0s0 0 0 0a1.07 1.07 0 0 0 -.18-.39s-.07-.08-.06-.13a.12.12 0 0 1 .11 0 2.26 2.26 0 0 1 .37.39s.07.09.12.08 0 0 .05 0 .06-.16.1-.24 0 0 0 0 0 .05 0 .08a.28.28 0 0 1 0 .09c0 .11-.07.2-.09.31a1.93 1.93 0 0 0 0 .34 1.17 1.17 0 0 0 .05.27.78.78 0 0 0 .09.21.11.11 0 0 1 0 .08c.13-.01.1-.08.08-.11zm1.86-2.65a.08.08 0 0 1 0-.05 0 0 0 0 1 .06 0 .05.05 0 0 1 0 .05v.05a.43.43 0 0 0 0 .05.53.53 0 0 1 0 .12.13.13 0 0 1 0 .06 0 0 0 0 1 -.05 0 .67.67 0 0 1 -.06-.12.91.91 0 0 1 -.07-.14.28.28 0 0 1 .12-.02zm-.32-.05a.07.07 0 0 1 0-.06 0 0 0 0 1 .05 0 .05.05 0 0 1 0 .05.56.56 0 0 1 0 .12.28.28 0 0 1 0 .12.09.09 0 0 1 0 0 0 0 0 0 1 0 0s0 0 0 0a.51.51 0 0 0 -.09-.18.06.06 0 0 1 .04-.05zm-.29 0s0 0 0 0 .07.06.09.1v.08a.41.41 0 0 1 .05.09.08.08 0 0 1 0 .07s0 0-.06 0l-.1-.17s.01-.17.02-.17zm-.44 1.2a.08.08 0 0 1 -.07 0 .1.1 0 0 1 0-.05 1.47 1.47 0 0 0 -.1-.13s0 0 0 0a.43.43 0 0 0 0 0 .16.16 0 0 1 .09.07.17.17 0 0 1 .08.08zm.1-.3s0 0-.06 0a.18.18 0 0 1 -.08-.07l-.12-.14a.43.43 0 0 1 0-.07s0 0 0-.06 0 0 0 0a1 1 0 0 0 .08.11.71.71 0 0 1 .1.14s0 0 0 0a.08.08 0 0 1 .08.06zm.11-.29s0 0 0 0 0 0 0-.05a.76.76 0 0 1 -.08-.11.18.18 0 0 1 0-.12s0 0 0 0a0 0 0 0 1 .06 0v.06a.42.42 0 0 1 .08.22zm.07-.28v-.13a.17.17 0 0 1 0-.05s0 0 0-.06a0 0 0 0 1 0 0 .1.1 0 0 1 0 0v.13a.19.19 0 0 1 0 .08.07.07 0 0 1 0 0zm1 .64a2.76 2.76 0 0 1 -.08.27 1.26 1.26 0 0 0 0 .39v.2a2.07 2.07 0 0 0 0 .35v.18s0 .05 0 .07 0 0 0 0a.05.05 0 0 1 -.05 0s0 0 0-.05a1.68 1.68 0 0 0 -.3-.65 3.6 3.6 0 0 0 -.5-.53s0 0 0-.06.05 0 .07 0l.1.05.07.06a.12.12 0 0 0 .1 0s.05-.08.05-.12c0-.2-.12-.38-.12-.58 0 0 0-.08.05-.08s0 0 0 .05a2.89 2.89 0 0 0 .29.55s0 0 .06 0 .07-.06.1-.1a.47.47 0 0 1 .06-.09s0 0 .06 0 .06.04.05.06zm.25-.39a.09.09 0 0 1 0-.06.77.77 0 0 1 -.07-.26 0 0 0 0 1 0 0 .34.34 0 0 1 0 .17s.11.09.05.12zm1.22.37a0 0 0 0 1 0 0 .69.69 0 0 1 -.05-.24s0 0 0 0a0 0 0 0 1 .06 0 .47.47 0 0 1 0 .1.74.74 0 0 1 0 .11zm.15-.33a.14.14 0 0 1 0-.06v-.07a.29.29 0 0 1 0-.09.07.07 0 0 1 0 0 .07.07 0 0 1 0-.06.06.06 0 0 1 .08 0 .11.11 0 0 1 0 .08.39.39 0 0 1 0 .15s-.03.02-.07.02zm1.51-.62a.07.07 0 0 1 0-.05.06.06 0 0 1 .09 0c.05 0 0 .11 0 .16a.77.77 0 0 1 0 .15s0 0 0 0a0 0 0 0 1 0 0s0-.08 0-.12v-.14zm-.3-.07s0-.07 0-.09a0 0 0 0 1 .08 0 .34.34 0 0 1 0 .1v.13.05s0 0 0 0a0 0 0 0 1 0 0 .4.4 0 0 1 -.08-.22zm-.23.07v-.15a.06.06 0 0 1 0 0s0 0 0 0h.05a1.31 1.31 0 0 1 0 .28.07.07 0 0 0 0 .05s-.08.06-.09 0a.49.49 0 0 1 .04-.18zm-.25-.17a0 0 0 0 1 0 0s0 0 .05 0a.06.06 0 0 1 0 0v.17a1 1 0 0 1 0 .17s-.08 0-.1 0v-.05a.89.89 0 0 1 .05-.32zm-.25 0a.06.06 0 0 1 .09 0 .13.13 0 0 1 0 .09.4.4 0 0 1 0 .22 0 0 0 0 1 0 0 .09.09 0 0 1 0-.05v-.13a.17.17 0 0 1 -.09-.11zm-.27.06a.06.06 0 0 1 .09 0 .07.07 0 0 1 0 .05.34.34 0 0 1 0 .1.31.31 0 0 1 0 .1v.05a.05.05 0 0 1 0 0 0 0 0 0 1 -.05 0s0 0 0 0a.49.49 0 0 0 0-.12c-.07-.07-.09-.07-.04-.16zm1.46.84a2.45 2.45 0 0 0 -.69 1.7s0 .05-.07 0c-.06 0-.06 0-.06 0a2.45 2.45 0 0 0 -.7-1.7s0-.16.12 0a.45.45 0 0 0 .36.18.38.38 0 0 0 .22-.36c0-.25.06-.24.06-.24s.06 0 .06.24a.39.39 0 0 0 .22.36.45.45 0 0 0 .36-.18c.13-.14.14 0 .12.02zm.25-.4v.09.07.06s0-.09 0-.11a.77.77 0 0 1 0-.15.09.09 0 0 1 0-.08 0 0 0 0 1 .07 0 .07.07 0 0 1 0 .06zm.14.53a0 0 0 0 0 0 0 .5.5 0 0 1 0-.21.42.42 0 0 1 0-.1.06.06 0 0 1 .07 0 1 1 0 0 1 -.07.33zm1.18-.38a.09.09 0 0 1 0 .06s0-.1 0-.14a.48.48 0 0 1 0-.17s0 0 0 0a0 0 0 0 1 0 0 .79.79 0 0 1 0 .27zm.82-.3a.41.41 0 0 1 .05-.09v-.08s0-.09.08-.1 0 0 0 0 0 .07 0 .11l-.1.17s0 0 0 0 0 0-.06 0a.15.15 0 0 1 .03.01zm-.22-.09s0-.08 0-.12 0 0 0-.05a0 0 0 0 1 .05 0s0 0 0 .06a.13.13 0 0 1 0 .06s0 0 0 0a.76.76 0 0 0 -.09.18s0 0 0 0a.09.09 0 0 1 0 0 .28.28 0 0 1 .04-.11zm-.37.22v-.12s0 0 0-.05 0 0 0-.05l.14-.09a0 0 0 0 1 0 0s0 0 0 .05a.28.28 0 0 1 0 .09.91.91 0 0 1 -.07.14.67.67 0 0 1 -.06.12 0 0 0 0 1 -.05 0 .06.06 0 0 1 .04-.07zm.89.86a3.14 3.14 0 0 0 -.5.53 1.57 1.57 0 0 0 -.31.65.08.08 0 0 1 0 .05.05.05 0 0 1 -.05 0s0 0 0 0 0-.05 0-.07 0-.12 0-.18v-.35c0-.07 0-.13 0-.2a1.26 1.26 0 0 0 0-.39c0-.09-.07-.18-.09-.27a.07.07 0 0 1 0 0s.05 0 .06 0l.14.06s0 .1.09.1a.1.1 0 0 0 .07 0 2.38 2.38 0 0 0 .28-.55s0-.05.05-.05.05.05.05.08c0 .2-.1.38-.11.58 0 0 0 .1.05.12a.1.1 0 0 0 .09 0l.07-.06.1-.05s.07 0 .08 0-.06 0-.07.02zm.14-1-.06.13s0 0 0 0a.1.1 0 0 1 0 0 .19.19 0 0 1 0-.08.5.5 0 0 0 .05-.13.1.1 0 0 1 0 0 .07.07 0 0 1 .06 0 .06.06 0 0 1 0 .06.43.43 0 0 0 -.05.02zm0 .42a.53.53 0 0 1 .08-.22v-.06a.08.08 0 0 1 0 0s0 0 .05 0 0 0 0 0a.25.25 0 0 1 0 .12.76.76 0 0 0 -.08.11v.05a.09.09 0 0 1 -.01 0zm.08.28s0 0 0 0a1.71 1.71 0 0 1 .11-.14l.07-.11s0 0 0 0h.05a0 0 0 0 1 0 0 .13.13 0 0 1 0 .06.16.16 0 0 1 0 .07 1.71 1.71 0 0 0 -.11.14s-.05.06-.09.07 0-.07 0-.09zm.38.08a.69.69 0 0 0 -.11.13.1.1 0 0 1 0 .05s0 0-.06 0a.09.09 0 0 1 0-.07h.05a.18.18 0 0 1 .08-.07.11.11 0 0 1 .08.01zm1.31-.14s0 0 0 0 0-.11.06-.16a.16.16 0 0 1 0-.07.08.08 0 0 1 .07 0 .21.21 0 0 1 0 .17v.09s0 0 0 0a.06.06 0 0 1 0 0zm-.27-.06a.28.28 0 0 1 0-.09.15.15 0 0 1 0-.06h.07a.07.07 0 0 1 0 .05.11.11 0 0 1 0 .08s0 0 0 0l-.06.14s0 0 0 0a.43.43 0 0 1 .03-.12zm-.26.07h.05a.55.55 0 0 1 0 .18s0 .09-.05.11a.3.3 0 0 1 .04-.29zm.81.89a.13.13 0 0 1 -.07 0 3.76 3.76 0 0 0 -.31.25l-.15.1a1.19 1.19 0 0 0 -.2.19 4.12 4.12 0 0 0 -.33.4s-.05.1-.06 0a.11.11 0 0 1 0-.08.78.78 0 0 0 .09-.21.81.81 0 0 0 .05-.27 1.29 1.29 0 0 0 0-.34c0-.11-.06-.2-.08-.31a.29.29 0 0 1 0-.09s0-.07.06-.08a0 0 0 0 1 0 0c0 .08 0 .18.11.24a.05.05 0 0 0 .05 0s.08 0 .11-.08a2.72 2.72 0 0 1 .37-.39.13.13 0 0 1 .12 0 .22.22 0 0 1 -.06.13 1.09 1.09 0 0 0 -.19.39.13.13 0 0 0 .12 0l.11-.05h.12s.06 0 .08 0a.06.06 0 0 1 .12.2zm.26-1.1-.12.12h-.08s0 0 0-.07 0-.06.07-.09l.06-.08s0 0 .05 0a.11.11 0 0 1 0 .11.05.05 0 0 1 .06.01zm.31 0h-.05a1.67 1.67 0 0 0 -.16.12s0 0 0 0a.55.55 0 0 1 .24-.15s.06 0 .07 0 0 0 0 .06z" />
        <path
            d="m13.59 8.06.33-.06a11.47 11.47 0 0 0 .46 2.66 2.2 2.2 0 0 0 -.5-.23s-.13-.82-.17-1.1-.12-1.27-.12-1.27z" />
        <path
            d="m14.07 8.38v-.33a12.71 12.71 0 0 1 3.24-.52c1.46 0 2.43 1.55 1.61 3.39a1.74 1.74 0 0 0 -.56.19s1.42-3-1.05-3.24a5.77 5.77 0 0 0 -1.52.1c-.43.09-1.72.41-1.72.41z" />
        <path d="m14.35 9.27v.88a2.38 2.38 0 0 1 -.08-.48.85.85 0 0 1 .08-.4z" />
        <path d="m14.69 8.79v1.87a.7.7 0 0 1 -.24-.27v-1.31a1.93 1.93 0 0 1 .24-.29z" />
        <path d="m14.79 8.7.26-.18v2.2h-.12a.34.34 0 0 1 -.14 0z" />
        <path d="m15.14 8.46.25-.13v2.37h-.25z" />
        <path d="m15.49 8.29.23-.1v2.44l-.23.06z" />
        <path d="m15.82 8.15.26-.08v2.44h-.12-.14z" />
        <path d="m16.17 8h.25v2.45h-.25z" />
        <path d="m16.52 8h.24v2.49h-.24z" />
        <path d="m16.86 8h.25v2.61a.93.93 0 0 0 -.25-.1z" />
        <path d="m17.21 8h.23v2.85s0 0 0 0l-.21-.19z" />
        <path d="m17.54 8 .25.08v3a.49.49 0 0 1 -.25-.15z" />
        <path d="m17.89 8.14a1.28 1.28 0 0 1 .25.15v2.76a.47.47 0 0 1 -.21.06z" />
        <path d="m18.24 8.37a1.09 1.09 0 0 1 .23.29v2a.83.83 0 0 1 -.23.36z" />
        <path d="m18.64 9.37a5.33 5.33 0 0 1 -.07.9v-1.38a1.43 1.43 0 0 1 .07.48z" />
        <path d="m13 8.06-.32-.06a11.47 11.47 0 0 1 -.46 2.66 2.2 2.2 0 0 1 .5-.23s.13-.82.17-1.1.11-1.27.11-1.27z" />
        <path
            d="m12.53 8.38v-.33a12.71 12.71 0 0 0 -3.24-.52c-1.46 0-2.42 1.55-1.6 3.39a1.64 1.64 0 0 1 .55.19s-1.42-3 1-3.24a5.84 5.84 0 0 1 1.53.1c.48.09 1.76.41 1.76.41z" />
        <path d="m12.25 9.27v.88a2.38 2.38 0 0 0 .08-.48.85.85 0 0 0 -.08-.4z" />
        <path d="m11.91 8.79v1.87a.7.7 0 0 0 .24-.27v-1.31a1.93 1.93 0 0 0 -.24-.29z" />
        <path d="m11.81 8.7-.25-.18v2.2h.11a.32.32 0 0 0 .14 0z" />
        <path d="m11.46 8.46-.25-.13v2.37h.25z" />
        <path d="m11.11 8.29-.23-.1v2.44l.23.06z" />
        <path d="m10.79 8.15-.26-.08v2.44h.12.14z" />
        <path d="m10.43 8h-.25v2.45h.25z" />
        <path d="m10.09 8h-.25v2.49h.25z" />
        <path d="m9.74 8h-.25v2.61a1.09 1.09 0 0 1 .25-.1z" />
        <path d="m9.4 8h-.24v2.85l.22-.19z" />
        <path d="m9.07 8-.26.08v3a.55.55 0 0 0 .26-.08z" />
        <path d="m8.72 8.14a1.35 1.35 0 0 0 -.26.15v2.76a.47.47 0 0 0 .21.06h.05z" />
        <path d="m8.36 8.37a1.09 1.09 0 0 0 -.23.29v2a.93.93 0 0 0 .23.36z" />
        <path d="m8 9.37a5.33 5.33 0 0 0 .07.9v-1.38a1.73 1.73 0 0 0 -.07.48z" />
    </g>
</svg>