<svg viewBox="0 0 40.5 40.5" xmlns="http://www.w3.org/2000/svg">
    <path d="m38.79 12.1h-37.08a20.25 20.25 0 0 1 37.08 0z" fill="#00209f" />
    <path d="m38.79 28.4a20.25 20.25 0 0 1 -37.08 0z" fill="#009543" />
    <path
        d="m40.5 20.25a20.13 20.13 0 0 1 -1.71 8.15h-37.08a20.28 20.28 0 0 1 0-16.3h37.08a20.13 20.13 0 0 1 1.71 8.15z"
        fill="#fff" />
    <path
        d="m25.66 23.57-.52.27-.06-.08-3.14-4.13a8.41 8.41 0 0 0 .93-3.75 2.54 2.54 0 0 0 -2.19-2.76.48.48 0 0 0 -.86 0 2.16 2.16 0 0 0 -1.23.53 2.81 2.81 0 0 0 -1 2.23 8.41 8.41 0 0 0 .93 3.75l-3.14 4.13-.06.08-.54-.27-1.14 2.43a13.7 13.7 0 0 0 13.22 0zm-4.94-9.77s1.49.1 1.49 2.21v.16a6.22 6.22 0 0 1 -.73 2.83l-.5-.66v-1.49h.88l-1.14-1zm-2.43 2.37c-.08-2.27 1.49-2.37 1.49-2.37v2.08l-1.14 1h.88v1.52l-.52.6a6.22 6.22 0 0 1 -.71-2.83zm-3.06 8.47.19.6-.58.14zm-.23 1.1.58-.2.15.46zm.89-1 .88.27.2.44-.74.21zm.59 1.59-.12-.36.74-.24.38.83zm1-1.16.85.19.25.39-.74.31zm.62 1.52-.14-.34.83-.29.48.76zm1-1.25 1.4.06.16.28-1.1.43zm.85 1.42-.23-.36 1.11-.5.49.77zm1.23-1.4 1-.12.26.33-.87.44zm.82 1.23-.22-.37.9-.45.5.64zm.92-1.47.94-.29.23.31-.71.6zm.85 1.15-.22-.3.72-.57.44.62zm.66-1.61.81-.35.15.27-.46.73zm.72.93.43-.63.27.56-.58.23z" />
</svg>