<svg viewBox="0 0 40.5 40.5" xmlns="http://www.w3.org/2000/svg">
    <path d="m13.5 1.16v38.18a20.25 20.25 0 0 1 0-38.18z" fill="#0046ae" />
    <path d="m27 1.16v38.18a20.22 20.22 0 0 1 -13.5 0v-38.18a20.22 20.22 0 0 1 13.5 0z" fill="#ffd200" />
    <path
        d="m21.07 17.2a1.46 1.46 0 0 0 .63-.2 1.2 1.2 0 0 1 .58-.23 2.33 2.33 0 0 0 -.05-.59s.61-.55.82-.69c0 0 .78.47.9 1v7.13a.56.56 0 0 0 .07.21s-.28-.1-.58-.67v.06s-.85-.35-1.12-2.14a12.35 12.35 0 0 0 -1.23-3.5z" />
    <path
        d="m20.16 17 .25-.06h.32l.34.27a.94.94 0 0 0 .61-.15 1 1 0 0 1 .62-.15l.15-.21v-.54a4.52 4.52 0 0 0 .61-.48 3 3 0 0 1 .59.56.82.82 0 0 1 .14.28v6.82a.93.93 0 0 1 -.4-.51l-.11.13a1 1 0 0 1 -.38-.56v-.11l-.12-.12s-.14 0-.46-1.22-.76-3.3-.76-3.3l-.76-.16h-.63z"
        fill="#b07f55" />
    <path
        d="m21.57 17.13a.74.74 0 0 1 .21.09s.1-.13.06-.23a.52.52 0 0 1 .31.18 1 1 0 0 0 .15-.27.39.39 0 0 1 .15-.21.6.6 0 0 0 .32-.3s.05-.07-.05-.18h.06a.19.19 0 0 1 .06.17l.2.2.2-.29s0-.08-.07-.22h.06a.28.28 0 0 1 .08.22l.22.23.13-.25.09.12-.19.29-.25-.24-.19.28h-.07l-.23-.2a1.14 1.14 0 0 1 -.3.32 2.55 2.55 0 0 1 -.39.51.42.42 0 0 0 -.21-.2.38.38 0 0 1 -.15.21 1.25 1.25 0 0 0 -.2-.23z" />
    <path
        d="m22.5 16.79a2.09 2.09 0 0 0 .31.32l.28-.23.25.23.24-.23.26.21v.21l-.25-.23-.25.23-.25-.23-.26.23s-.38-.35-.38-.46.05-.05.05-.05z" />
    <path d="m22.36 17.46.23.24.24-.24.25.22.25-.22.25.21.26-.19v.18l-.25.23-.25-.26-.26.26-.25-.24-.25.24-.26-.27z" />
    <path d="m22.8 16.46h.07v1.16h-.07z" />
    <path d="m23.06 16.59h.07v1.16h-.07z" />
    <path d="m22.54 16.95h.07v.81h-.07z" />
    <path d="m23.3 16.39h.07v1.16h-.07z" />
    <path d="m23.27 17.62h.12v5.4h-.12z" />
    <path d="m22.77 17.57h.12v4.82h-.12z" />
    <path d="m23.55 16.52h.07v1.16h-.07z" />
    <path
        d="m19.24 17.2a1.4 1.4 0 0 1 -.62-.25 1.2 1.2 0 0 0 -.58-.23 2 2 0 0 1 0-.59s-.61-.55-.82-.69c0 0-.77.47-.89 1v7.13a.89.89 0 0 1 -.07.21s.27-.1.58-.67v.06s.85-.35 1.13-2.14a12.14 12.14 0 0 1 1.22-3.5z" />
    <path
        d="m20.16 17-.25-.06h-.32l-.35.27a.94.94 0 0 1 -.61-.15.94.94 0 0 0 -.63-.16l-.15-.21v-.54a4.55 4.55 0 0 1 -.62-.48 2.74 2.74 0 0 0 -.58.56.67.67 0 0 0 -.14.28v6.82a.9.9 0 0 0 .39-.51l.1.18a1 1 0 0 0 .37-.56v-.11l.11-.12s.15 0 .46-1.22.77-3.3.77-3.3l.75-.16h.64z"
        fill="#b07f55" />
    <path
        d="m18.75 17.13a.64.64 0 0 0 -.21.09s-.1-.13-.07-.23a.49.49 0 0 0 -.3.18.79.79 0 0 1 -.17-.27.45.45 0 0 0 -.15-.21.6.6 0 0 1 -.32-.3s-.05-.07.05-.18h-.07a.19.19 0 0 0 -.06.17l-.19.2-.21-.29s0-.08.07-.22h-.06a.26.26 0 0 0 -.07.22l-.22.23-.14-.25-.08.12.18.29.27-.28.2.28h.07l.22-.2a1.14 1.14 0 0 0 .3.32 3 3 0 0 0 .39.51.48.48 0 0 1 .21-.2.45.45 0 0 0 .15.21 1.41 1.41 0 0 1 .21-.19z" />
    <path
        d="m17.81 16.79a2.46 2.46 0 0 1 -.3.32l-.28-.23-.26.23-.23-.23-.26.21v.21l.25-.23.24.23.26-.23.25.23s.38-.35.38-.46-.05-.05-.05-.05z" />
    <path d="m17.96 17.46-.23.24-.25-.24-.24.22-.26-.22-.25.21-.25-.19v.18l.25.23.24-.26.27.26.24-.24.26.24.26-.27z" />
    <path d="m17.44 16.46h.07v1.16h-.07z" transform="matrix(-1 0 0 -1 34.96 34.08)" />
    <path d="m17.19 16.59h.07v1.16h-.07z" transform="matrix(-1 0 0 -1 34.45 34.33)" />
    <path d="m17.7 16.95h.07v.81h-.07z" transform="matrix(-1 0 0 -1 35.47 34.71)" />
    <path d="m16.94 16.39h.07v1.16h-.07z" transform="matrix(-1 0 0 -1 33.96 33.95)" />
    <path d="m16.92 17.62h.12v5.4h-.12z" transform="matrix(-1 0 0 -1 33.96 40.64)" />
    <path d="m17.42 17.57h.12v4.82h-.12z" transform="matrix(-1 0 0 -1 34.96 39.96)" />
    <path d="m16.69 16.52h.07v1.16h-.07z" transform="matrix(-1 0 0 -1 33.46 34.2)" />
    <path d="m40.5 20.25a20.23 20.23 0 0 1 -13.5 19.09v-38.18a20.24 20.24 0 0 1 13.5 19.09z" fill="#cc092f" />
    <path
        d="m22.12 24.3a2 2 0 0 1 -.23-.16 6.16 6.16 0 0 1 -1.21-1.89v-.11l-.48.08-.49-.08v.11a6 6 0 0 1 -1.2 1.89c-.06.05-.24.16-.24.16l.82.4.58-.79a2.49 2.49 0 0 1 -.3.69l-.12.19.54.34a1.73 1.73 0 0 1 .45.45 1.73 1.73 0 0 1 .45-.45l.53-.34-.22-.19a2.44 2.44 0 0 1 -.29-.69c.24.35.58.79.58.79z" />
    <path
        d="m21.32 24.45.45-.18a5.83 5.83 0 0 1 -1.21-2h-.8a5.93 5.93 0 0 1 -1.22 2l.45.18a4.85 4.85 0 0 0 .92-1.68s.19.55-.47 1.9a3.48 3.48 0 0 1 .72.46 3.22 3.22 0 0 1 .71-.46c-.66-1.35-.47-1.9-.47-1.9a4.85 4.85 0 0 0 .92 1.68z"
        fill="#b07f55" />
    <path
        d="m22.39 17.4-.08.13a.07.07 0 0 0 0 0v3.55a.35.35 0 0 1 -.1.24 2.36 2.36 0 0 1 -.89.56c-.93.39-1 .46-1.15.62-.15-.16-.23-.23-1.15-.62a2.43 2.43 0 0 1 -.9-.56.34.34 0 0 1 -.09-.24v-3.5a.08.08 0 0 0 0 0l-.07-.13z"
        fill="#0b45bb" />
    <path d="m22.39 17.4-.08.13a.07.07 0 0 0 0 0v2.06h-4.31v-2.01a.08.08 0 0 0 0 0l-.07-.13z" fill="#d10429" />
    <path
        d="m20.16 17.68.1.3.29-.14-.14.29.3.1-.3.11.14.29-.29-.14-.1.3-.11-.3-.28.14.13-.29-.3-.11.3-.1-.13-.29.28.14z"
        fill="#ffd200" />
    <path
        d="m20.16 18.89-.16-.35-.34.16.16-.34-.35-.13.35-.12-.16-.34.34.16.13-.35.12.35.34-.16-.16.34.35.12-.35.13.16.34-.34-.16zm-.09-.45.09.25.08-.25.24.11-.11-.23.24-.09-.24-.08.11-.24-.24.11-.08-.24-.09.24-.23-.11.11.24-.25.08.25.09-.11.23z" />
    <path d="m21.11 19.64s.3-.16.47-.28a4.82 4.82 0 0 0 .52.28 2.26 2.26 0 0 0 -.51.34 1.5 1.5 0 0 0 -.48-.34z"
        fill="#ffd200" />
    <path
        d="m21.59 20a1.35 1.35 0 0 0 -.47-.32h-.06.06s.29-.17.47-.29.36.22.52.28h.07-.07a2.11 2.11 0 0 0 -.5.32zm-.4-.4a1.61 1.61 0 0 1 .41.29 1.58 1.58 0 0 1 .43-.28c-.16-.08-.38-.21-.44-.25s-.31.23-.4.28z" />
    <path d="m20.66 20.19h.2v.2h-.2z" fill="#ffd200"
        transform="matrix(.70710678 -.70710678 .70710678 .70710678 -8.26 20.62)" />
    <path d="m20.76 20.48-.19-.19.19-.19.19.19zm-.09-.19.09.09.1-.09-.1-.1z" />
    <path d="m20.63 20.57a1.6 1.6 0 0 0 .25 0 3.14 3.14 0 0 0 -.07.89s-.39-.09-.18-.89z" fill="#ffd200" />
    <path
        d="m20.85 21.46h-.05a.27.27 0 0 1 -.18-.13 1 1 0 0 1 0-.76l.25-.05h.05v.05a3 3 0 0 0 -.08.88zm-.19-.86c-.1.4-.05.59 0 .68a.19.19 0 0 0 .09.09 3.08 3.08 0 0 1 .07-.8z" />
    <path
        d="m20.94 17.62c0 .17.16.47.25.85a.64.64 0 0 1 -.4.68.25.25 0 0 0 -.19.05 0 0 0 0 1 -.06 0l-.14-.07a.07.07 0 0 0 -.06 0 .36.36 0 0 1 -.18.09.41.41 0 0 1 -.19-.09 0 0 0 0 0 0 0l-.14.07a0 0 0 0 1 -.06 0 .28.28 0 0 0 -.2-.05.66.66 0 0 1 -.4-.68c.09-.38.24-.68.26-.85 0 0-1.58 1 .06 1.92l-.15.37s.52.06.55.48a3.93 3.93 0 0 1 0 .84c0 .07 0 .11-.16.23s-.26.22 0 .35l.27.18v.01a.38.38 0 0 0 .16 0 .42.42 0 0 0 .16 0h.07l.27-.18c.23-.13.14-.23 0-.35s-.16-.16-.17-.23a5.89 5.89 0 0 1 0-.84c0-.42.56-.48.56-.48l-.16-.37c1.63-.91.05-1.93.05-1.93z"
        fill="#ffd200" />
    <path
        d="m20.16 22.12a.53.53 0 0 1 -.18 0h-.08s-.11-.08-.27-.17a.29.29 0 0 1 -.17-.2c0-.09.09-.16.19-.24s.13-.13.14-.18a4.59 4.59 0 0 0 0-.84c0-.37-.49-.43-.51-.43h-.07l.17-.39c-.48-.27-.72-.58-.74-.92 0-.59.68-1 .71-1.06l.09-.06v.1a1.46 1.46 0 0 1 -.11.37 4.77 4.77 0 0 0 -.15.49.62.62 0 0 0 .17.49.39.39 0 0 0 .17.13.36.36 0 0 1 .23 0 .56.56 0 0 1 .16-.07.11.11 0 0 1 .11 0 .27.27 0 0 0 .15.08.3.3 0 0 0 .15-.08.11.11 0 0 1 .11 0l.15.07a.33.33 0 0 1 .24 0 .46.46 0 0 0 .18-.21.63.63 0 0 0 .16-.5c0-.17-.1-.33-.15-.48a1.89 1.89 0 0 1 -.1-.37v-.1l.09.06s.72.47.7 1.06c0 .34-.26.65-.73.92l.16.39h-.13s-.48.06-.51.43a5.74 5.74 0 0 0 0 .84c0 .05 0 .08.15.18s.18.15.18.24-.06.14-.17.2l-.26.17h-.09a.43.43 0 0 1 -.14.08zm-.8-2.25c.15 0 .5.16.53.52a4.69 4.69 0 0 1 0 .85c0 .08 0 .14-.18.25s-.15.12-.14.16 0 .07.11.11l.32.24h.14.14a.1.1 0 0 0 .05 0l.28-.18c.08 0 .12-.08.12-.11s-.09-.12-.14-.16-.18-.17-.19-.25a5.86 5.86 0 0 1 0-.85c0-.36.39-.48.54-.52l-.15-.35c.47-.26.71-.55.72-.86a1.32 1.32 0 0 0 -.55-.9 1.36 1.36 0 0 0 .07.22 4.11 4.11 0 0 1 .15.49.76.76 0 0 1 -.24.65c-.05 0-.15.12-.22.1a.21.21 0 0 0 -.15 0 .11.11 0 0 1 -.11 0l-.13-.07a.41.41 0 0 1 -.22.1.4.4 0 0 1 -.21-.1.46.46 0 0 0 -.14.07.11.11 0 0 1 -.11 0 .2.2 0 0 0 -.15 0c-.07 0-.16-.06-.21-.1a.75.75 0 0 1 -.25-.64 3.7 3.7 0 0 1 .16-.5c0-.08.05-.16.07-.22a1.29 1.29 0 0 0 -.56.9c0 .31.26.6.72.86z" />
    <path d="m19.2 19.65s-.29-.16-.47-.29a5.17 5.17 0 0 1 -.52.29 1.8 1.8 0 0 1 .51.34 1.32 1.32 0 0 1 .48-.34z"
        fill="#ffd200" />
    <path
        d="m18.72 20a1.65 1.65 0 0 0 -.5-.33h-.06.07c.16-.07.51-.29.51-.29a4.37 4.37 0 0 0 .47.29h.06-.06a1.16 1.16 0 0 0 -.47.33zm-.43-.39a1.75 1.75 0 0 1 .43.28 1.5 1.5 0 0 1 .41-.29c-.09-.05-.27-.15-.4-.24s-.29.22-.44.29z" />
    <path d="m19.45 20.19h.2v.2h-.2z" fill="#ffd200"
        transform="matrix(.70710678 -.70710678 .70710678 .70710678 -8.62 19.77)" />
    <path d="m19.55 20.48-.19-.19.19-.19.19.19zm-.09-.19.09.09.09-.09-.09-.1z" />
    <path d="m19.69 20.57a1.58 1.58 0 0 1 -.26 0 3.44 3.44 0 0 1 .08.89s.38-.09.18-.89z" fill="#ffd200" />
    <path
        d="m19.46 21.46v-.05a3.14 3.14 0 0 0 -.07-.88v-.05h.05l.25.05a1 1 0 0 1 0 .76.26.26 0 0 1 -.19.13zm0-.89a3.66 3.66 0 0 1 .07.8.25.25 0 0 0 .09-.09.85.85 0 0 0 0-.68.84.84 0 0 1 -.14-.03z" />
    <path d="m21.27 21.37a.48.48 0 0 1 .48-.47.4.4 0 0 0 -.34-.18.41.41 0 0 0 -.14.8.37.37 0 0 1 0-.15z"
        fill="#ffd200" />
    <path
        d="m21.35 21.58h-.07a.44.44 0 0 1 .16-.86.44.44 0 0 1 .37.19v.06h-.1a.44.44 0 0 0 -.44.44.32.32 0 0 0 0 .14zm.09-.83a.38.38 0 0 0 -.38.38.37.37 0 0 0 .19.33.28.28 0 0 1 0-.09.51.51 0 0 1 .47-.5.4.4 0 0 0 -.28-.12z" />
    <path d="m20.52 21.61c-.09 0-.16 0-.16.06s.07.06.16.06.15 0 .15-.06-.07-.06-.15-.06z" />
    <path d="m19.8 21.61c.08 0 .15 0 .15.06s-.07.06-.15.06-.16 0-.16-.06.07-.06.16-.06z" />
    <path d="m19 20.75a.21.21 0 0 1 -.22.21.21.21 0 0 1 -.21-.21.22.22 0 1 1 .43 0z" />
    <path d="m19.22 21.1a.21.21 0 0 1 -.22-.1.22.22 0 0 1 .13-.28.21.21 0 0 1 .27.13.22.22 0 0 1 -.18.25z" />
    <path d="m19 21.42a.21.21 0 1 1 .3 0 .22.22 0 0 1 -.3 0z" />
    <path d="m19.17 21.07a.17.17 0 0 1 -.17-.07.16.16 0 0 1 .31-.11.16.16 0 0 1 -.14.18z" fill="#ffd200" />
    <path d="m18.57 21.26a.21.21 0 0 1 .3-.05.22.22 0 1 1 -.25.35.21.21 0 0 1 -.05-.3z" />
    <path d="m22.91 22.85a.12.12 0 0 1 -.17 0 .11.11 0 0 1 0-.16.11.11 0 0 1 .16 0 .11.11 0 0 1 .01.16z"
        fill="#f5d402" />
    <path
        d="m22.81 22.92h-.08a.18.18 0 0 1 -.06-.09.16.16 0 0 1 0-.1.14.14 0 0 1 .25.05.11.11 0 0 1 0 .1.14.14 0 0 1 -.11.04zm0-.24a.1.1 0 0 0 -.08.05.06.06 0 0 0 0 .07.1.1 0 0 0 0 .07.11.11 0 0 0 .15 0 .08.08 0 0 0 0-.07s0-.05-.05-.07z" />
    <path d="m23.66 21.41s-.09 0-.15 0-.09-.08-.07-.12.08 0 .14 0 .09.08.08.12z" fill="#f5d402" />
    <path
        d="m23.59 21.46h-.08c-.07 0-.11-.1-.09-.15a.1.1 0 0 1 .07 0h.1c.07 0 .1.1.08.15s-.04 0-.08 0zm-.09-.17s0 0-.05 0 0 .07.07.1.11 0 .12 0 0-.07-.07-.1z" />
    <path d="m23.73 21.26s-.09 0-.15 0-.09-.09-.07-.13.09 0 .15 0 .09.09.07.13z" fill="#f5d402" />
    <path
        d="m23.65 21.31h-.08c-.07 0-.1-.1-.08-.15a.13.13 0 0 1 .17 0 .19.19 0 0 1 .08.07.11.11 0 0 1 0 .08.09.09 0 0 1 -.09 0zm-.07-.19a.07.07 0 0 0 -.06 0s0 .08.07.11.1 0 .12 0a0 0 0 0 0 0-.05l-.06-.06z" />
    <path d="m19 21.36a.17.17 0 0 1 0-.23.17.17 0 0 1 .24 0 .17.17 0 0 1 -.27.2z" fill="#ffd200" />
    <path d="m18.6 20.84a.22.22 0 0 1 .14.27.22.22 0 0 1 -.41-.13.22.22 0 0 1 .27-.14z" />
    <g fill="#ffd200">
        <path d="m18.63 20.89a.17.17 0 0 1 .1.21.16.16 0 0 1 -.21.11.17.17 0 0 1 -.1-.21.16.16 0 0 1 .21-.11z" />
        <path d="m18.62 21.25a.19.19 0 0 1 .24 0 .17.17 0 0 1 0 .23.17.17 0 0 1 -.24 0 .17.17 0 0 1 0-.23z" />
        <path d="m19 20.79a.16.16 0 0 1 -.16.16.17.17 0 0 1 -.17-.16.18.18 0 0 1 .17-.17.17.17 0 0 1 .16.17z" />
        <circle cx="18.87" cy="21.07" r=".2" />
    </g>
    <path
        d="m18.87 21.31a.24.24 0 0 1 -.24-.24.23.23 0 0 1 .24-.23.23.23 0 0 1 .23.23.23.23 0 0 1 -.23.24zm0-.4a.17.17 0 0 0 -.17.16.17.17 0 0 0 .17.17.16.16 0 0 0 .16-.17.16.16 0 0 0 -.16-.16z" />
    <path
        d="m21.87 22.1.45.69a.11.11 0 0 0 .09.06.3.3 0 0 0 .16 0c.16 0 .46.3.32.46l-.24.31s-.21.07-.42-.33a11.45 11.45 0 0 0 -.68-1c-.28-.34.25-.33.25-.33z"
        fill="#d10429" />
    <path
        d="m22.61 23.67c-.08 0-.26-.05-.43-.37a4.87 4.87 0 0 0 -.45-.65l-.22-.29a.28.28 0 0 1 -.08-.27c.07-.14.34-.14.38-.14l.08.12.45.69a.07.07 0 0 0 .06 0 .23.23 0 0 0 .14 0 .44.44 0 0 1 .36.23.26.26 0 0 1 0 .31l-.24.31h-.08zm-.83-1.62c-.09 0-.23 0-.25.09s0 .09.06.16l.22.29a5.43 5.43 0 0 1 .46.67c.16.29.31.31.35.31s.13-.17.23-.3a.18.18 0 0 0 0-.2.32.32 0 0 0 -.25-.18.38.38 0 0 1 -.18 0 .22.22 0 0 1 -.13-.08z" />
    <path d="m21.15 22.02.39.37.05-.22.15.07.03-.16.19.04-.22-.4z" fill="#b07f55" />
    <path d="m21.56 22.46-.47-.46.67-.33.26.48h-.22v.16l-.16-.07zm-.35-.46.31.29v-.2l.16.07v-.15h.14l-.16-.3z" />
    <path
        d="m22.64 23.55a.83.83 0 0 0 .26-.38s0-.15 0-.15 0 .05-.06.05-.13-.09-.23-.09h-.11a.34.34 0 0 1 -.17 0c0 .06.09.11.12.17a.1.1 0 0 1 -.08 0 0 0 0 0 0 0 0s0 0 0 0a.14.14 0 0 1 -.07.12c0 .14.23.27.3.26a.09.09 0 0 0 .06 0 0 0 0 0 1 -.05 0l-.17-.13s0 0 0-.06 0 0 .06 0l.17.13a0 0 0 0 1 0 .06zm.1-.45s.05 0 0 0 0 0-.06 0-.06 0 0-.05zm-.17 0a0 0 0 0 1 .06 0l.17.12a0 0 0 0 1 0 .07s0 0-.06 0l-.17-.12a0 0 0 0 1 0-.02zm-.08.17s0 0 0-.06a0 0 0 0 1 .06 0l.17.13a0 0 0 0 1 0 .06.06.06 0 0 1 -.07 0z" />
    <path d="m22.89 23.34s0 .06 0 .06a.19.19 0 0 0 .07-.16.28.28 0 0 0 -.06-.16.57.57 0 0 1 -.01.26z" />
    <path
        d="m18.45 22.1-.45.69a.13.13 0 0 1 -.1.06.31.31 0 0 1 -.16 0c-.16 0-.45.3-.32.46l.25.31s.2.07.42-.33a9.18 9.18 0 0 1 .67-1c.29-.34-.25-.33-.25-.33z"
        fill="#d10429" />
    <path
        d="m17.65 23.66s-.12-.15-.25-.31a.26.26 0 0 1 0-.31c.08-.13.23-.25.35-.23a.27.27 0 0 0 .15 0s0 0 .06 0l.44-.69.08-.12s.3 0 .37.14a.26.26 0 0 1 -.08.27l-.22.29c-.18.25-.35.47-.45.65s-.34.37-.43.37zm.39-.84a.2.2 0 0 1 -.13.08.38.38 0 0 1 -.18 0c-.06 0-.18.07-.25.18s-.07.13 0 .2a3.06 3.06 0 0 1 .23.3s.19 0 .35-.31a6.84 6.84 0 0 1 .46-.67l.22-.29c.06-.07.08-.13.07-.16s-.17-.09-.25-.09z" />
    <path d="m19.16 22.02-.39.37-.04-.22-.16.07-.03-.16-.18.04.21-.4z" fill="#b07f55" />
    <path d="m18.75 22.46-.05-.25-.15.07v-.16h-.22l.27-.48.66.33zm0-.34v.2l.32-.29-.52-.26-.17.3h.15v.15z" />
    <path
        d="m17.66 23.54s0-.05 0-.06l.17-.13a.06.06 0 0 1 .07 0 0 0 0 0 1 0 .06l-.17.13a0 0 0 0 1 0 0c.07 0 .3-.12.31-.26a.12.12 0 0 1 -.04-.08v-.07a.09.09 0 0 1 -.07 0s0 0 0 0c0-.06.1-.11.12-.17a.37.37 0 0 1 -.17 0h-.06c-.1 0-.2.09-.24.09s0 0-.05-.05-.05.11-.05.15a.91.91 0 0 0 .26.38zm0-.46s0 0 0 .05-.06 0-.07 0 0 0 0 0 .05-.06.06-.05zm.08.13-.17.12s0 0-.06 0a.06.06 0 0 1 0-.07l.17-.12a0 0 0 0 1 .06 0s.01.05-.01.07zm-.08.24s0 0-.06 0 0-.05 0-.06l.17-.13s0 0 .06 0a0 0 0 0 1 0 .06z" />
    <path d="m22.86 22.68s-.26-.21.13-.45l.45-.82s.1 0 .12.07l-.43.82s.05.41-.26.38z" fill="#f5d402" />
    <path
        d="m22.9 22.7h-.06a.26.26 0 0 1 -.08-.2c0-.09.08-.18.22-.27l.45-.82a.11.11 0 0 1 .14.08l-.44.83a.43.43 0 0 1 -.08.33.21.21 0 0 1 -.15.05zm0 0a.24.24 0 0 0 .17-.06.46.46 0 0 0 .07-.3l.43-.82c0-.05-.07-.05-.09-.05l-.44.81c-.13.08-.2.16-.21.25a.23.23 0 0 0 .07.16z" />
    <path d="m17.43 23.34v.06a.16.16 0 0 1 -.07-.16.23.23 0 0 1 .06-.16.57.57 0 0 0 .01.26z" />
    <path d="m22.35 23.68a.67.67 0 0 0 -.16 0v.32l.27-.19z" fill="#f5d402" />
    <path d="m22.17 24v-.37a.37.37 0 0 1 .16 0l.13.14zm0-.34v.34l.22-.16-.09-.1z" />
    <path d="m22.45 23.69s-.06 0-.1 0-.06-.07-.05-.09.06 0 .11 0 .06.07.04.09z" fill="#f5d402" />
    <path
        d="m22.41 23.72h-.07c-.05 0-.07-.09-.05-.12a.15.15 0 0 1 .09 0s.06.05.06.08a.06.06 0 0 1 0 0 .06.06 0 0 1 -.03.04zm-.07-.13s0 0 0 .07a.08.08 0 0 0 .08 0 .21.21 0 0 0 0-.06z" />
    <path d="m23.64 20.98.41-.77.01-.12.07-.04.11.06.01.08-.07.06-.41.78-.05-.04z" fill="#f5d402" />
    <path
        d="m23.77 21.05h-.06-.09l.41-.79v-.13h.08l.13.07v.1l-.07.07zm-.1-.08h.06l.41-.76h.06v-.07l-.1-.05h-.05v.12z" />
    <path d="m23.78 21.11a.09.09 0 0 1 -.12 0 .09.09 0 0 1 -.06-.11.09.09 0 0 1 .12 0 .09.09 0 0 1 .06.11z"
        fill="#f5d402" />
    <path
        d="m23.72 21.16h-.07a.17.17 0 0 1 -.06-.06.08.08 0 0 1 0-.08.13.13 0 0 1 .21 0 .08.08 0 0 1 0 .08.12.12 0 0 1 -.08.06zm-.06-.16s0 0-.05 0a.06.06 0 0 0 0 0 .08.08 0 0 0 .05.05s.08 0 .1 0a.06.06 0 0 0 0 0 .1.1 0 0 0 0 0z" />
    <path
        d="m20.16 22.63c-.14-.16-.21-.22-1.13-.62a2.59 2.59 0 0 1 -.92-.56.42.42 0 0 1 -.1-.28v-3.62l-.12-.2h4.63l-.11.2a0 0 0 0 0 0 0v3.55a.43.43 0 0 1 -.11.28 2.41 2.41 0 0 1 -.91.56c-.92.4-1 .46-1.13.62zm-2.16-5.18v.05a.24.24 0 0 1 0 .08v3.55a.32.32 0 0 0 .08.21 2.38 2.38 0 0 0 .88.54c.86.37 1 .45 1.13.6.13-.15.27-.23 1.13-.6a2.59 2.59 0 0 0 .88-.54.32.32 0 0 0 .08-.21v-3.55a.13.13 0 0 1 0-.08v-.05z"
        fill="#f5d402" />
    <path d="m24.66 19.39a.09.09 0 0 1 -.13 0c-.05 0-.08-.08-.05-.13a.09.09 0 0 1 .13 0 .1.1 0 0 1 .05.13z"
        fill="#f5d402" />
    <path
        d="m24.58 19.45h-.06a.11.11 0 0 1 -.06-.15.12.12 0 0 1 .22.11.11.11 0 0 1 -.1.04zm0-.19a.07.07 0 0 0 -.07 0 .07.07 0 0 0 0 .1.09.09 0 0 0 .12 0 .09.09 0 0 0 0-.11z" />
    <path
        d="m24.13 20.05-.05-.05s.17-.12.13-.49a0 0 0 0 1 0 0 .48.48 0 0 1 .29 0 .51.51 0 0 1 .17.22s0 .05 0 .06-.37.24-.32.39h-.13z"
        fill="#f5d402" />
    <path
        d="m24.24 20.12-.12-.05-.06-.07s.16-.11.12-.47c0 0 0-.06 0-.07a.48.48 0 0 1 .29 0 .57.57 0 0 1 .19.23.08.08 0 0 1 0 .09c-.08.05-.35.22-.31.37zm-.1-.08.11.05h.1c0-.16.22-.33.33-.39s0 0 0 0a.69.69 0 0 0 -.17-.22.53.53 0 0 0 -.28 0 .05.05 0 0 0 0 0 .53.53 0 0 1 -.12.49z" />
    <path d="m24.12 20a1 1 0 0 0 .21-.54l.18-.06.08.19a.89.89 0 0 0 -.34.46z" fill="#f5d402" />
    <path
        d="m24.25 20.11-.12-.06s0 0 0 0a1.07 1.07 0 0 0 .2-.53s0 0 0 0l.18-.07.08.19a.94.94 0 0 0 -.33.46zm-.1-.08h.09a.82.82 0 0 1 .33-.44l-.07-.17-.16.05a1 1 0 0 1 -.19.53z" />
    <path d="m24.51 19.19.2-.15v.25z" fill="#f5d402" />
    <path d="m24.73 19.31-.25-.12.25-.18zm-.19-.12.15.07v-.18z" />
    <path d="m17.99 23.84.06-.33.3.16-.07.32z" fill="#f5d402" />
    <path d="m18.3 24-.3-.15.08-.39.36.19zm-.3-.18.23.12.06-.25-.23-.13z" />
    <path d="m18.02 23.58-.05-.12.1-.12.05.2-.07-.03z" />
    <path d="m17.54 22c0 .18 0 .33.09.34s.16-.13.18-.3a.5.5 0 0 0 -.09-.34.49.49 0 0 0 -.18.3z" fill="#097754" />
    <path
        d="m17.64 22.37c-.05 0-.09-.05-.11-.12a.54.54 0 0 1 .18-.56s0 0 0 0a.58.58 0 0 1 .1.35.52.52 0 0 1 -.08.23.15.15 0 0 1 -.09.1zm.07-.62a.52.52 0 0 0 -.15.26.52.52 0 0 0 0 .22q0 .09.06.09s.06 0 .09-.06a.65.65 0 0 0 .07-.21.54.54 0 0 0 -.07-.3z" />
    <path d="m17.7 22.18c-.1.15-.13.3-.07.35s.2 0 .3-.19a.53.53 0 0 0 .07-.34.54.54 0 0 0 -.3.18z" fill="#097754" />
    <path
        d="m17.67 22.56h-.05c-.08-.05-.05-.22.06-.38a.7.7 0 0 1 .32-.18s0 0 0 0a.49.49 0 0 1 -.07.37.4.4 0 0 1 -.26.19zm.33-.56a.5.5 0 0 0 -.26.17c-.1.14-.12.28-.07.31s.16 0 .26-.18a.55.55 0 0 0 .07-.3z" />
    <path d="m17.06 21c0 .15 0 .28.08.29s.14-.1.16-.25a.46.46 0 0 0 -.08-.29.42.42 0 0 0 -.16.25z" fill="#097754" />
    <path
        d="m17.15 21.29a.16.16 0 0 1 -.1-.11.74.74 0 0 1 -.05-.18.41.41 0 0 1 .16-.27.55.55 0 0 1 .08.31c.06.13-.01.25-.09.25zm.06-.53a.35.35 0 0 0 -.12.22.54.54 0 0 0 0 .18c0 .05 0 .07.05.08s.11-.1.13-.24a.38.38 0 0 0 -.06-.24z" />
    <path d="m16.55 20c0 .13.05.22.09.22s.08-.1.07-.23a.33.33 0 0 0 -.09-.21.35.35 0 0 0 -.07.22z" fill="#097754" />
    <path
        d="m16.64 20.23s-.05 0-.08-.07a.75.75 0 0 1 0-.16.38.38 0 0 1 .08-.24s0 0 0 0a.49.49 0 0 1 .1.23.44.44 0 0 1 0 .23s0 0 0 0zm0-.42a.43.43 0 0 0 -.05.18q0 .09 0 .15a.12.12 0 0 0 0 0 .38.38 0 0 0 0-.19.52.52 0 0 0 .03-.14z" />
    <path d="m16.68 20.18c0 .19 0 .36.09.37s.15-.14.18-.34a.59.59 0 0 0 -.08-.37.63.63 0 0 0 -.19.34z" fill="#097754" />
    <path
        d="m16.78 20.58c-.11 0-.14-.22-.11-.41a.61.61 0 0 1 .19-.35.79.79 0 0 1 .09.4c.05.17-.08.36-.17.36zm.08-.7a.64.64 0 0 0 -.15.3c0 .2 0 .34.06.35s.13-.12.16-.32a.58.58 0 0 0 -.07-.33z" />
    <path d="m16.21 19.26c0 .15.05.26.11.26s.08-.13.07-.27a.4.4 0 0 0 -.11-.25.46.46 0 0 0 -.07.26z" fill="#097754" />
    <path
        d="m16.31 19.54s-.06 0-.09-.09a.49.49 0 0 1 0-.19.53.53 0 0 1 .08-.28.47.47 0 0 1 .12.27c0 .14 0 .29-.1.29zm0-.5a.44.44 0 0 0 -.06.22.39.39 0 0 0 0 .17s0 .06 0 .06.07-.09.06-.24a.46.46 0 0 0 -.02-.25z" />
    <path d="m17.18 21.12c-.06.16 0 .31 0 .34s.17-.09.23-.25a.51.51 0 0 0 0-.34.54.54 0 0 0 -.23.25z" fill="#097754" />
    <path
        d="m17.23 21.49c-.05 0-.07-.06-.08-.14a.7.7 0 0 1 0-.23.53.53 0 0 1 .24-.26.55.55 0 0 1 0 .36c.02.16-.08.27-.16.27zm0-.36a.56.56 0 0 0 0 .21v.1s.14-.08.2-.24a.44.44 0 0 0 0-.29.43.43 0 0 0 -.19.22z" />
    <path d="m17.68 22.81-1.52-3.34.07-.03 1.57 3.39-.11.01z" fill="#f5d402" />
    <path d="m17.67 22.87v-.05l-1.52-3.36.11-.06 1.6 3.45zm-1.48-3.39 1.51 3.33h.07l-1.55-3.33z" />
    <path d="m17.13 22.45c.17.08.33.09.36 0s-.09-.18-.26-.26a.55.55 0 0 0 -.36 0 .58.58 0 0 0 .26.26z" fill="#097754" />
    <path
        d="m17.38 22.54a.74.74 0 0 1 -.27-.06.63.63 0 0 1 -.26-.27s0 0 0 0a0 0 0 0 1 0 0 .66.66 0 0 1 .38 0c.16.07.31.2.27.29s-.06.04-.12.04zm-.24-.11c.17.08.31.08.32 0s-.06-.15-.24-.23a.6.6 0 0 0 -.31 0 .49.49 0 0 0 .23.22z" />
    <path d="m17.19 22.66c.18 0 .34 0 .35-.05s-.12-.16-.3-.2a.64.64 0 0 0 -.36.06.54.54 0 0 0 .31.19z" fill="#097754" />
    <path
        d="m17.35 22.71h-.17a.69.69 0 0 1 -.32-.2s0 0 0 0a0 0 0 0 1 0 0 .55.55 0 0 1 .37-.06c.18 0 .35.12.33.22s-.06.08-.14.09zm-.43-.23a.6.6 0 0 0 .27.16.62.62 0 0 0 .23 0h.1s-.1-.12-.29-.16a.48.48 0 0 0 -.31 0z" />
    <path d="m16.71 21.39c.13.06.26.07.29 0s-.07-.15-.2-.21a.46.46 0 0 0 -.29 0 .42.42 0 0 0 .2.21z" fill="#097754" />
    <path
        d="m16.9 21.47a.52.52 0 0 1 -.19-.06.43.43 0 0 1 -.21-.22 0 0 0 0 1 0 0 .4.4 0 0 1 .31 0 .56.56 0 0 1 .17.11s.06.1 0 .13a.12.12 0 0 1 -.08.04zm-.35-.27a.39.39 0 0 0 .17.17.38.38 0 0 0 .17 0h.08s0 0 0-.07a.58.58 0 0 0 -.15-.11.4.4 0 0 0 -.27.01z" />
    <path d="m16.24 20.3c.14.05.27.06.28 0s-.08-.12-.22-.18a.51.51 0 0 0 -.28 0 .48.48 0 0 0 .22.18z" fill="#097754" />
    <path
        d="m16.6 20.18h-.08a.6.6 0 0 0 -.16-.08.59.59 0 0 0 -.3 0s0 0 0 0a.52.52 0 0 0 .23.19.86.86 0 0 0 .21 0 .11.11 0 0 0 .1 0c0 .1 0 .2.1.2s.07 0 .07-.07a2.33 2.33 0 0 0 -.17-.24zm-.35.1a.43.43 0 0 1 -.19-.14.38.38 0 0 1 .23 0 .54.54 0 0 1 .17.08.17.17 0 0 1 0 .06s-.06.06-.21 0z" />
    <path d="m16 19.61c.12.1.24.14.28.1s-.05-.14-.17-.24a.47.47 0 0 0 -.27-.1.54.54 0 0 0 .16.24z" fill="#097754" />
    <path
        d="m16.19 19.75a.5.5 0 0 1 -.26-.12.57.57 0 0 1 -.17-.26 0 0 0 0 1 0 0s0 0 0 0a.59.59 0 0 1 .29.11.64.64 0 0 1 .14.15c.05.07 0 .11 0 .13a.07.07 0 0 1 0-.01zm-.19-.16c.13.11.22.12.24.11a.11.11 0 0 0 0-.07.57.57 0 0 0 -.13-.14.42.42 0 0 0 -.23-.09.55.55 0 0 0 .15.19z" />
    <path d="m16 19.26c.06.13.15.22.21.2s.06-.16 0-.29a.47.47 0 0 0 -.21-.17.45.45 0 0 0 0 .26z" fill="#097754" />
    <path
        d="m16.14 19.49a.16.16 0 0 1 -.1 0 .61.61 0 0 1 -.11-.18.49.49 0 0 1 0-.31.42.42 0 0 1 .22.22.54.54 0 0 1 .05.19c0 .07 0 .12-.06.13zm-.14-.49a.35.35 0 0 0 0 .25 1 1 0 0 0 .1.15.12.12 0 0 0 .08 0s0 0 0-.09a.59.59 0 0 0 0-.17.37.37 0 0 0 -.18-.14z" />
    <path d="m16.23 20.5c.15.06.28.06.3 0s-.09-.13-.24-.19a.58.58 0 0 0 -.3 0 .59.59 0 0 0 .24.19z" fill="#097754" />
    <path
        d="m16.44 20.57a.58.58 0 0 1 -.21-.05.45.45 0 0 1 -.25-.2s0 0 0 0a.47.47 0 0 1 .32 0c.15.05.28.15.26.22s-.04.03-.12.03zm-.21-.09a.79.79 0 0 0 .2 0h.08s-.07-.1-.23-.16a.54.54 0 0 0 -.25 0 .69.69 0 0 0 .2.15z" />
    <path d="m16.8 21.61c.14 0 .26 0 .27-.07s-.1-.12-.24-.13a.46.46 0 0 0 -.27.06.44.44 0 0 0 .24.14z" fill="#097754" />
    <path
        d="m16.88 21.64h-.08a.46.46 0 0 1 -.26-.15.44.44 0 0 1 .28-.07c.14 0 .28.08.27.17s-.09.05-.21.05zm-.07-.05c.14 0 .23 0 .24-.05s-.08-.09-.22-.11a.44.44 0 0 0 -.23.05.51.51 0 0 0 .21.11z" />
    <path d="m17.73 22.63c.1 0 .08-.07.18-.07a.08.08 0 0 1 .08.07.12.12 0 0 1 -.12.13s-.15-.06-.16-.12z" />
    <path d="m17.54 22.69c-.06 0-.14.07-.14.14 0 .06.06.08.12.08s.08 0 .08-.1 0-.07 0-.08 0 0 0 0-.05-.05-.06-.04z" />
    <path d="m17.06 21.78s-.08.06-.08.1a.1.1 0 0 0 .02.12c.06 0 .09 0 .09-.08s0-.07 0-.11 0 0 0 0 0-.06-.03-.03z" />
    <path
        d="m17.25 21.62c.1 0 0-.07.17-.07s.09 0 .09.08a.11.11 0 0 1 -.1.12c-.09 0-.09-.08-.14-.08s-.01-.05-.02-.05z" />
    <path d="m16.82 20.67s.07-.07.14-.07a.09.09 0 0 1 .1.09c0 .05-.07.1-.11.1s-.17-.07-.17-.12z" />
    <path d="m16.34 19.67s.06-.07.13-.07.11 0 .11.09-.07.1-.12.1-.16-.07-.16-.12z" />
    <path d="m16.71 20.72c-.05 0-.21.1-.21.16a.11.11 0 0 0 .12.11.09.09 0 0 0 .1-.1v-.05s0 0 0 0a.11.11 0 0 0 0-.06z" />
    <path
        d="m16.22 19.74c-.07.07-.21.05-.21.14a.14.14 0 0 0 .13.12.1.1 0 0 0 .1-.1c0-.06.05 0 .05-.08a0 0 0 0 0 0 0z" />
    <path d="m17 21.39a0 0 0 0 0 0 0s0 0 0 0a0 0 0 0 0 0 0z" />
    <path d="m17.12 21.27s.01 0 0 0z" />
    <path d="m16.61 20.21s0 .07.05.07 0 0 0-.05 0-.06-.05-.06z" />
    <path d="m16.48 20.34s.09.07.09.13h.1a0 0 0 0 0 0 0s-.07-.19-.11-.19z" />
    <path d="m16.23 19.71s0 0 0 0a0 0 0 0 0 0 0s0 0 0 0z" />
    <path
        d="m19.44 14.53c0 .06-.07.08-.1.08h-.21v-.24a.08.08 0 0 1 .06-.08.2.2 0 0 0 -.13 0 .17.17 0 0 0 -.12 0 .08.08 0 0 1 .06.08v.24h-.21s-.07 0-.1-.08a.26.26 0 0 0 0 .26.12.12 0 0 1 .1-.06h.21v.82a.17.17 0 0 1 -.06.12s.12.08.12.13.13-.13.13-.13a.17.17 0 0 1 -.06-.12v-.82h.21a.12.12 0 0 1 .1.06.26.26 0 0 0 0-.26z"
        fill="#f5d402" />
    <path
        d="m19.08 15.8s-.07-.09-.12-.12a.14.14 0 0 0 .05-.1v-.81h-.19a.11.11 0 0 0 -.09 0 .29.29 0 0 1 0-.27s.06.07.09.07h.18v-.23a.08.08 0 0 0 0-.07.31.31 0 0 1 .14 0 .3.3 0 0 1 .13 0 .08.08 0 0 0 0 .07v.23h.19s.06 0 .08-.07a.26.26 0 0 1 0 .27s0 0-.09 0h-.19v.81a.13.13 0 0 0 .05.1c-.16.03-.23.09-.23.12zm-.08-.13a.25.25 0 0 1 .09.09.27.27 0 0 1 .1-.09.19.19 0 0 1 -.05-.12v-.84h.23a.13.13 0 0 1 .1 0 .27.27 0 0 0 0-.18.14.14 0 0 1 -.1.06h-.23v-.26a.09.09 0 0 1 0-.08s-.07 0-.08 0a.1.1 0 0 0 -.09 0 .09.09 0 0 1 0 .08v.26h-.23a.12.12 0 0 1 -.1-.06.27.27 0 0 0 0 .18.13.13 0 0 1 .1 0h.26v.84a.19.19 0 0 1 0 .12z" />
    <path d="m16.18 19.51a0 0 0 0 0 -.05 0 .07.07 0 0 0 .06.06 0 0 0 0 0 0 0z" />
    <path
        d="m20.15 17.26a.76.76 0 0 0 .12-.19.74.74 0 0 0 .5.24.7.7 0 0 1 -.12-.24.91.91 0 0 0 .71.25s-.66-.2-.65-1.19a.43.43 0 0 1 0-.05l.1-.22a.06.06 0 0 0 0 0v-.27s.1 0 .12.09a.37.37 0 0 0 -.06-.29.26.26 0 0 1 .13 0 .44.44 0 0 0 -.18-.17.32.32 0 0 1 .16-.08 6.55 6.55 0 0 1 -.62-.24 1.1 1.1 0 0 0 -.78-.07.12.12 0 0 0 -.06.06.17.17 0 0 1 -.16.11c-.14 0-.33 0-.33.27 0 0 .18-.23.53 0 0 0 .06.07 0 0l-.39-.08s-.05 0 0 .06.53.19.45.92-.18.83-.62 1.13a1 1 0 0 0 .72-.24.7.7 0 0 1 -.14.24c-.08.06.26 0 .5-.24z" />
    <path d="m16.16 19.47c0 .12.07.25.15.25s0 0 .05 0c.18-.17-.1-.14-.16-.23s0 0-.06 0z" />
    <path
        d="m20.16 17.07.08-.09v-.88h.06v.84a.85.85 0 0 0 .34.3s-.17-.38-.18-.44v-.7h.05v.62a.68.68 0 0 0 .42.4 1.5 1.5 0 0 1 -.29-1 .78.78 0 0 1 .11-.24.17.17 0 0 0 0-.07v-.35h.14a.17.17 0 0 0 -.12-.16.16.16 0 0 1 .12-.06s0-.07-.14-.11a.1.1 0 0 1 .05-.08 5 5 0 0 0 -.66-.27c-.14 0-.57-.1-.55.09s.09.23.16.25a.58.58 0 0 1 .12.07s-.08 0 0 .09.13.13.11.19-.37-.27-.32 0a1.76 1.76 0 0 1 -.2 1.6.72.72 0 0 0 .4-.36v-.61h.06v.68a2 2 0 0 1 -.18.46.78.78 0 0 0 .33-.3v-.84h.08v.9z"
        fill="#b07f55" />
    <path d="m19.11 15.08s0-.12.38-.1a.05.05 0 0 1 0 0 .59.59 0 0 1 .14.26.6.6 0 0 0 -.52-.16z" fill="#cc092f" />
    <path d="m19.5 15.1s0 0 0 0a0 0 0 0 1 0 0s0 0 0 0 .01-.01 0 0z" />
    <path d="m19.37 15.3a.82.82 0 0 0 .16.12.44.44 0 0 1 .08-.09z" fill="#cc092f" />
    <path
        d="m19.57 15s0 0 .07 0a2.64 2.64 0 0 0 .38.11h.18s.27.19.37.19a.56.56 0 0 0 -.41-.25l-.16-.05c-.14 0-.1-.09-.29-.09s-.13 0-.13 0z" />
    <path d="m20 15.12a.1.1 0 0 1 -.11.09c-.07 0-.12 0-.12-.09s.05-.09.12-.09a.1.1 0 0 1 .11.09z" />
    <path d="m19.94 15.12a.09.09 0 0 1 -.08.09.09.09 0 0 1 0-.18.09.09 0 0 1 .08.09z" fill="#ffd200" />
    <path d="m19.89 15.12a0 0 0 0 1 0 0s0 0 0 0a0 0 0 0 1 0 0z" />
    <path d="m16.94 21.25c.07-.05.06-.18.21.24s0 0-.06 0-.09-.05-.09-.09 0-.11-.06-.15z" />
</svg>