<svg viewBox="0 0 40.5 40.5" xmlns="http://www.w3.org/2000/svg">
    <path
        d="m20.25 0v40.5a20.17 20.17 0 0 1 -13.49-5.14 20.45 20.45 0 0 1 -5.25-7.36c-.12-.32-.24-.63-.35-.95a1.87 1.87 0 0 1 -.16-.47 19.49 19.49 0 0 1 -1-6.33 20.06 20.06 0 0 1 1-6.32c.15-.47.31-.92.5-1.37a20.66 20.66 0 0 1 5.26-7.42 20.17 20.17 0 0 1 13.49-5.14z"
        fill="#fff" />
    <path
        d="m40.5 20.25a20 20 0 0 1 -1 6.33 4.11 4.11 0 0 1 -.15.42c-.11.32-.23.63-.35.95a20.25 20.25 0 0 1 -18.75 12.55v-40.5a20.28 20.28 0 0 1 18.75 12.56c.19.45.35.9.5 1.37a20.06 20.06 0 0 1 1 6.32z"
        fill="#cf142b" />
    <path
        d="m17.57 7.91h-3.06a1.1 1.1 0 0 0 -1-1v-3.09h-3.1v3.07a1.09 1.09 0 0 0 -1 1h-3.09v3.11h3.07a1.09 1.09 0 0 0 1 1v3.07h3.07v-3.07a1.1 1.1 0 0 0 1-1h3.06z"
        fill="#e60d2e" />
    <path
        d="m17.37 8.11h-3.07a1 1 0 0 0 -1-1v-3.11h-2.68v3.09a1 1 0 0 0 -1 1h-3.09v2.66h3.06a1 1 0 0 0 1 1v3.06h2.66v-3.01a1 1 0 0 0 1-1h3.07z"
        fill="#96877d" />
    <path
        d="m14.2 8.22a1 1 0 0 0 -1-1v-3.09h-2.48v3.06a1 1 0 0 0 -1 1h-3.09v2.45h3.07a1 1 0 0 0 1 1v3.07h2.46v-3.02a1 1 0 0 0 1-1h3.07v-2.47z"
        fill="#ccc" />
    <path d="m14.1 9.44a2.15 2.15 0 1 1 -2.1-2.14 2.15 2.15 0 0 1 2.1 2.14z" fill="#ccc" />
    <path
        d="m12 11.61a2.17 2.17 0 1 1 2.16-2.17 2.17 2.17 0 0 1 -2.16 2.17zm0-4.3a2.14 2.14 0 1 0 2.13 2.13 2.13 2.13 0 0 0 -2.13-2.13z"
        fill="#96877d" />
    <path d="m13.59 9.44a1.64 1.64 0 1 1 -1.59-1.63 1.64 1.64 0 0 1 1.59 1.63z" fill="#ccc" />
    <path
        d="m12 11.1a1.66 1.66 0 1 1 1.6-1.66 1.65 1.65 0 0 1 -1.6 1.66zm0-3.28a1.62 1.62 0 1 0 1.62 1.62 1.63 1.63 0 0 0 -1.62-1.62z"
        fill="#96877d" />
    <path d="m12.45 9.89s.23-.31.39-.32a.78.78 0 0 0 -.17.61z" fill="#96877d" />
    <path
        d="m12.67 10.18-.22-.29s.23-.32.4-.33a.77.77 0 0 0 -.16.61zm-.22-.29.21.27a.87.87 0 0 1 .16-.59c-.15.04-.34.29-.37.32z" />
    <path d="m13 9.72a.26.26 0 0 1 -.19-.05s.07.1.11.11.08-.06.08-.06z" fill="#96877d" />
    <path
        d="m12.93 9.79s-.11-.11-.11-.11c.1.06.18.05.18 0s0 .11-.07.11zm-.09-.1s.06.08.09.08.05 0 .06 0a.27.27 0 0 1 -.15-.08z" />
    <path
        d="m9.94 10.05-.07-.28.1-.06a.07.07 0 0 0 -.05 0 .13.13 0 0 0 0 .06l.08.23h.15s0 0 0 0h-.15.18v.1h.13v.14s0 0 0 0l-.31-.24z" />
    <path
        d="m9.86 9.24a.12.12 0 0 1 0-.09.27.27 0 0 1 .14-.07h.11a.21.21 0 0 1 .15.07.19.19 0 0 1 0 .14.18.18 0 0 1 -.09.14.23.23 0 0 1 -.14 0h-.11a.27.27 0 0 1 -.07-.08.17.17 0 0 1 .01-.11zm0 0a.22.22 0 0 0 0 .08s0 0 .06 0h.1.1.06a.09.09 0 0 0 0-.07.15.15 0 0 0 0-.07.18.18 0 0 0 -.07-.05.14.14 0 0 0 -.09 0h-.02-.07a.08.08 0 0 0 -.04.11z" />
    <path
        d="m10 8.73.08-.18v-.07h.05a.07.07 0 0 1 .06 0s0 0 0 0a.14.14 0 0 1 0 .06.25.25 0 0 1 0 .07h.16.05v.08h-.23.11l-.06.13-.24-.12zm0-.08.14.07v-.07s0 0 0-.06a.06.06 0 0 0 0 0s0 0 0 0h-.08z" />
    <path
        d="m10.83 7.67.1.09a.16.16 0 0 0 -.1 0 .08.08 0 0 0 -.07 0 .11.11 0 0 0 0 .1.19.19 0 0 0 0 .12.23.23 0 0 0 .07.07h.08l.09-.05s0 0 0 0v-.22l.08.12a.08.08 0 0 1 0 0v.06a.17.17 0 0 1 -.14 0 .22.22 0 0 1 -.24.04.23.23 0 0 1 0-.16.19.19 0 0 1 .07-.12h.06z" />
    <path d="m11.34 7.44.21.29s0 0 0 0h-.12v-.07h-.13v.12h.05-.11zm0 .23h.11l-.11-.15z" />
    <path d="m11.83 7.35h.17-.05v.33h.05.05v-.07.13h-.28v-.33s0 0 0 0z" />
    <path d="m12.42 7.4h.14s0 0 0 0l-.09.28h.11.05l-.08.11-.26-.08a0 0 0 0 1 0 0l.08-.26v-.02z" />
    <path d="m13.1 7.69-.1.38s0 0 0 0l-.11-.08s0 0 0 0l.11.01-.11-.08-.08.06v.02l-.09-.06zm-.17.17.1.06.05-.18z" />
    <path d="m13.49 8 .07.09-.14.33.19-.15.07.1s0 0 0 0l-.27.21.16-.39-.23.18s0 0 0 0l-.08-.1s0 0 0 0l.21-.16z" />
    <path d="m13.88 8.58.08.21-.1.08.05-.06a.17.17 0 0 0 0-.07l-.27.1-.05-.14s0 0 0 0l.28-.1h-.06z" />
    <path
        d="m14 9.17v.19a.22.22 0 0 1 0 .09s0 0 0 0h-.05-.06a.19.19 0 0 1 0-.08l-.13.11a0 0 0 0 0 0 0v-.01l.19-.15h-.16a0 0 0 0 0 0 0v-.13h.21zm0 .1h-.16v.08a.18.18 0 0 1 0 .06h.16s0 0 0 0 0 0 0-.05z" />
    <path d="m14 9.81v.19h-.16l.13.12v.11l-.15-.15h-.1-.05v-.15h.09l.24-.09s0 0 0 0z" />
    <path d="m14.24 8a.55.55 0 0 1 -.76-.11.55.55 0 0 1 -.11-.76.55.55 0 0 1 .76.11.55.55 0 0 1 .11.76z"
        fill="#96877d" />
    <path d="m13.9 7.5h.1v.61h-.1z" fill="#ccc"
        transform="matrix(.70661296 .70760026 -.70760026 .70661296 9.62 -7.58)" />
    <path d="m13.98 7.41-.07-.07-.29.14.15-.29-.08-.07-.29.58.15-.07z" fill="#ccc" />
    <path d="m10.53 7.16a.55.55 0 0 1 -.11.76.55.55 0 0 1 -.76.08.55.55 0 0 1 .11-.76.55.55 0 0 1 .76-.08z"
        fill="#96877d" />
    <path d="m10.26 7.14h.1v.61h-.1z" fill="#ccc"
        transform="matrix(.70710678 -.70710678 .70710678 .70710678 -2.24 9.47)" />
    <path d="m9.91 7.41-.07.07.15.29-.29-.14-.07.07.57.29-.07-.15z" fill="#ccc" />
    <path
        d="m11.74 10.37h-.22l-.06.06s0 0 0 0h-.52l.52.08h-.42l.09.1h1.77l.08-.07s0 0 0-.06l-.25-.12-.37-.08-.24-.08h-.08l-.12.07-.09.08z"
        fill="#96877d" />
    <path
        d="m12.85 10.67h-1.75l-.1-.09h.31l-.4-.07h.34.18a.15.15 0 0 1 0-.07h.22l.09-.07.13-.06h.07l.23.09.38.08.24.13s0 0 0 0a.06.06 0 0 1 0 0l-.09.06zm-1.85-.1.09.08h1.75l.09-.06a0 0 0 0 0 0 0l-.25-.13-.37-.08-.24-.08h-.07l-.12.06-.1.07s0 0 0 0h-.21a.16.16 0 0 0 0 .06s0 0 0 0h-.18-.39l.43.07z" />
    <path d="m9.66 10.86a.64.64 0 0 1 .87.87.64.64 0 0 1 -.87-.87z" fill="#96877d" />
    <path d="m9.9 10.77h.1v.61h-.1z" fill="#ccc"
        transform="matrix(-.70661296 -.70760026 .70760026 -.70661296 9.14 25.95)" />
    <path d="m9.91 11.48.08.07.29-.14v-.01l-.15.3.07.07.29-.58-.14.07z" fill="#ccc" />
    <path d="m13.37 11.73a.64.64 0 0 1 .87-.87.64.64 0 0 1 -.87.87z" fill="#96877d" />
    <path d="m13.53 11.13h.1v.61h-.1z" fill="#ccc"
        transform="matrix(-.70760026 .70661296 -.70661296 -.70760026 31.28 9.94)" />
    <path d="m13.98 11.48.07-.08-.14-.28.29.14.07-.07-.58-.29.08.14z" fill="#ccc" />
    <path d="m11.23 11.18a.1.1 0 0 1 -.2 0 .1.1 0 0 1 .2 0z" />
    <path d="m13.12 9.75h.14s0 0 0 0c-.08 0-.1-.07-.1-.1z" fill="#96877d" />
    <path d="m13.22 9.9c-.08 0-.09-.06-.09-.1h.14s0 0 0 0h-.06zm-.09-.14s0 .06.09.09h-.11z" />
    <path
        d="m11.77 10.27a.61.61 0 0 1 -.09.13s.09 0 .33-.15c0 0 0 .13.12.12v.08s-.11.09 0 0a.35.35 0 0 0 .15-.05s0 .06.07.06 0 0 0 0a.25.25 0 0 0 .16 0s0 0 .1 0 .06 0 .08 0 .06 0 .07 0a.19.19 0 0 0 .13-.05s.06 0 .14-.1a.91.91 0 0 0 .13-.2h.06s0 0 0 0 0 0-.05 0 0 0 0 0-.06 0-.05.17l-.15.11a.28.28 0 0 0 -.08-.15s-.15-.24.08-.08c0 0 .09.06.14 0a.31.31 0 0 0 .08-.2l-.08-.15h-.11a.41.41 0 0 0 0-.31s-.11.07-.09.13.1.09.1.09a.17.17 0 0 1 -.12 0s0 .06.1.05 0 0 .06.06 0 .07-.06.06-.16-.15-.23-.09-.1.07 0 .21-.34-.45-.72-.27c0 0 .16 0 .18.09s.14 0 .11.09a.07.07 0 0 1 .08.07s.06 0 .07 0a.07.07 0 0 1 .09.05.48.48 0 0 0 -.21 0l-.27.06a.2.2 0 0 0 -.27.08z"
        fill="#96877d" />
    <path
        d="m12.1 10.51s0 0 0-.05v-.07c-.08 0-.11-.09-.12-.12-.23.2-.33.15-.33.15a.76.76 0 0 0 .08-.13c.11-.17.25-.1.27-.08h.14.13a.34.34 0 0 1 .2 0 .07.07 0 0 0 -.07 0h-.06s0 0 0-.05a.05.05 0 0 0 0 0 0 0 0 0 0 0-.05.17.17 0 0 0 -.1 0c0-.1-.18-.08-.18-.08.37-.17.69.21.73.26a.18.18 0 0 1 -.07-.15s0-.06 0-.07.22.08.24.09 0 0 0 0a.19.19 0 0 1 .04-.36s-.07 0-.08 0a0 0 0 0 1 0 0 .18.18 0 0 0 .11 0s-.09 0-.1-.09.07-.21.07-.21a.54.54 0 0 1 0 .11h.05l.09.16a.31.31 0 0 1 -.08.2c-.06.07-.16 0-.16 0s-.1-.05-.11-.05 0 .08 0 .13a.23.23 0 0 1 .07.13l.14-.1a.19.19 0 0 1 .06-.16s0 0 0 0h.05a0 0 0 0 1 0 0 .1.1 0 0 1 0 0h-.07a1.33 1.33 0 0 1 -.13.21c-.07.08-.12.09-.13.09s-.11.05-.13.06a.13.13 0 0 1 -.08 0 .13.13 0 0 1 -.08 0 .09.09 0 0 1 -.1 0 .17.17 0 0 1 -.15 0s-.06 0-.07-.05a.27.27 0 0 1 -.15 0zm0-.14v.07a.09.09 0 0 0 0 .05h.07a.38.38 0 0 0 .14 0s0 .05.07.05 0 0 0 0a.3.3 0 0 0 .15 0 .1.1 0 0 0 .1 0s.06 0 .08 0 .06 0 .07 0a.19.19 0 0 0 .13-.05s.06 0 .13-.09a1.27 1.27 0 0 0 .13-.2h.07a0 0 0 0 0 0 0h-.05s0 0 0 0a.19.19 0 0 0 -.06.16l-.15.11a.27.27 0 0 0 -.07-.14s-.07-.12 0-.15.06 0 .13.05.09.06.14 0a.32.32 0 0 0 .07-.19l-.08-.15h-.17a.31.31 0 0 0 0-.11s-.1.07-.09.12a.18.18 0 0 0 .1.09.22.22 0 0 1 -.12 0s0 0 .08 0a.17.17 0 0 0 .06.07s0 0 0 .05 0 0-.06 0-.16-.15-.22-.08a.11.11 0 0 0 0 .06.19.19 0 0 0 .08.14s-.31-.41-.68-.27c.06 0 .14 0 .16.09a.14.14 0 0 1 .1 0 .09.09 0 0 1 0 .05s0 0 0 0 0 0 0 .05a.09.09 0 0 1 .09.06.48.48 0 0 0 -.21 0h-.12-.15s-.13-.09-.25.08-.06.09-.09.12.13 0 .31-.15 0 .12.11.12z" />
    <path d="m12.87 11.18a.1.1 0 0 1 -.1.1.1.1 0 0 1 -.11-.1.11.11 0 0 1 .11-.1.11.11 0 0 1 .1.1z" />
    <path
        d="m12.16 11.29h-.16v-.11a.07.07 0 0 0 0-.08.08.08 0 0 0 -.07.08v.11h-.15c-.05 0-.09 0-.09.05s0 .05.09.05h.15v.11a.07.07 0 0 0 .07.07.07.07 0 0 0 0-.07v-.11h.14c.06 0 .1 0 .1-.05s-.03-.05-.08-.05z" />
    <path
        d="m10.76 10.29s0-.05 0-.08v-.1c0-.05-.07 0-.07-.11s.16-.09.16-.16a.43.43 0 0 1 -.08-.25c0-.09 0-.13.09-.13s.28.11.33.11h.06s0 0 0 0a.11.11 0 0 1 -.11.08c-.07 0-.14-.07-.22-.07s-.05 0-.05 0 .13.11.13.21-.1.09-.1.12 0 0 0 .05a.08.08 0 0 1 0 .05c0 .09-.1 0-.12.1s-.01.17-.02.18z"
        fill="#96877d" />
    <path
        d="m10.76 10.34a0 0 0 0 1 0 0 0 0 0 0 0 0 0v-.14a.05.05 0 0 0 0 0 .07.07 0 0 1 0-.07s0-.06.08-.09.08 0 .08-.07a.46.46 0 0 1 -.08-.25c0-.08 0-.13.09-.13l.16.05h.17.06s.05 0 .05 0a.13.13 0 0 1 -.12.09.3.3 0 0 1 -.11 0 .21.21 0 0 0 -.11 0s0 0 0 0a.27.27 0 0 1 .1.17s0 .06-.07.09a0 0 0 0 0 0 0 .06.06 0 0 1 0 .05s0 0-.06 0-.05 0-.07.05zm0-.08s0 0 0 0c0-.06.05-.06.08-.06s.05 0 .05 0 .06-.05.06-.08a.26.26 0 0 0 -.09-.16v-.05s0 0 .05 0a.28.28 0 0 1 .12 0h.1a.12.12 0 0 0 .11-.07s0 0 0 0h-.06-.17l-.16-.05s-.08.05-.08.12a.38.38 0 0 0 .08.24s0 .06-.08.08-.08 0-.08.08a.07.07 0 0 0 0 .06 0 0 0 0 1 0 .05z" />
    <path
        d="m11.92 9.68s.09.19 0 .26a.08.08 0 0 1 0 .05 0 0 0 0 0 0 0s.19 0 .25 0a1 1 0 0 1 .19.16.17.17 0 0 1 -.17-.08 0 0 0 0 0 0 0s0 0-.05 0a.67.67 0 0 1 -.27 0s-.09.05-.1 0 0-.13 0-.2a.4.4 0 0 1 0-.17l.07-.06z"
        fill="#96877d" />
    <path
        d="m12.39 10.14a.16.16 0 0 1 -.15-.08h-.05a.91.91 0 0 1 -.27 0 .1.1 0 0 1 -.08 0s0 0 0 0v-.06a.16.16 0 0 0 0-.13.33.33 0 0 1 0-.17l.08-.05h.14s.08.19 0 .26a.07.07 0 0 1 -.06.09.65.65 0 0 0 .25 0 .76.76 0 0 1 .2.16zm-.15-.1a.15.15 0 0 0 .15.08 1 1 0 0 0 -.18-.15.69.69 0 0 1 -.21.03s0 0 0 0a.2.2 0 0 0 0-.05c.06-.06 0-.22 0-.24h-.12l-.08.05a.58.58 0 0 0 0 .17.21.21 0 0 1 0 .13s0 0 0 .06 0 0 0 0 .06 0 .08 0a.64.64 0 0 0 .26 0s0 0 0 0z" />
    <path
        d="m11.15 9.68c0 .11.12.2.38.29a.38.38 0 0 1 0 .21s0 .07 0 .07a.51.51 0 0 1 .34.15 0 0 0 0 1 0 0s0 0 0 0a.42.42 0 0 0 .13 0s-.07-.26-.22-.19c0 0-.17-.06-.19-.18a.2.2 0 0 0 .08-.21s.05 0 .06-.16h.1s.07.05.32-.14l.15-.08s.08 0 .43-.08a.14.14 0 0 0 .12 0 .53.53 0 0 1 .17.19s0 0 0 0 0 .13.15.12l-.12-.21-.23-.18a.42.42 0 0 0 -.25 0 .38.38 0 0 0 .3-.28s.08-.06.35.09a.12.12 0 0 0 .17 0l-.18-.09a2.31 2.31 0 0 0 -.33-.11.6.6 0 0 1 -.22.16.41.41 0 0 0 -.12-.13s0-.06-.2-.33a.54.54 0 0 0 .16-.05.19.19 0 0 0 .14 0s.09 0 0-.15a1.42 1.42 0 0 0 -.36-.06.1.1 0 0 0 0-.08.29.29 0 0 0 -.14.08 2.17 2.17 0 0 0 -.15.26v.08.17.15a1 1 0 0 1 -.07.16l-.18.09-.07.05a3.19 3.19 0 0 0 -.31.09.41.41 0 0 0 -.25.32z"
        fill="#96877d" />
    <path
        d="m12.05 10.46h-.05a0 0 0 0 0 0 0 .48.48 0 0 0 -.33-.15s0-.06 0-.06a.49.49 0 0 0 0-.2c-.26-.1-.33-.19-.38-.3a.43.43 0 0 1 0 0 .39.39 0 0 1 .26-.31l.3-.1h.08l.07-.25v-.16-.15-.17-.08a1.85 1.85 0 0 1 .16-.26.36.36 0 0 1 .14-.09.14.14 0 0 1 0 .09 1.68 1.68 0 0 1 .36.05.14.14 0 0 1 0 .14s-.12 0-.14 0a.3.3 0 0 1 -.15.05c.2.22.2.31.19.33a.33.33 0 0 1 .12.12.73.73 0 0 0 .22-.16 2.31 2.31 0 0 1 .33.11l.19.15a.12.12 0 0 1 -.17 0c-.25-.06-.36-.06-.37-.06a.5.5 0 0 1 -.16.26.37.37 0 0 1 .23 0l.22.18.11.2c-.09 0-.14-.07-.15-.11a.6.6 0 0 0 -.16-.18.13.13 0 0 1 -.12 0 .86.86 0 0 1 -.43.08l-.14.08c-.23.17-.32.14-.34.14h-.09c0 .13 0 .15-.05.16a.23.23 0 0 1 -.09.22c0 .1.17.16.19.17a.12.12 0 0 1 .1 0c.09 0 .13.19.13.2zm-.1 0h.12s0-.14-.11-.17a.09.09 0 0 0 -.1 0s-.17-.06-.2-.18a.21.21 0 0 0 .08-.21s0 0 .05-.15h.11s.08 0 .32-.13l.15-.08s.09 0 .43-.09 0 0 .11 0a.39.39 0 0 1 .17.18s0 0 0 0 0 .12.13.12l-.12-.2-.22-.17a.32.32 0 0 0 -.24 0 .42.42 0 0 0 .23-.38s.09-.06.36.09a.12.12 0 0 0 .15 0l-.16-.09a1.73 1.73 0 0 0 -.33-.12.55.55 0 0 1 -.22.17.42.42 0 0 0 -.12-.12s0-.07-.2-.33a.54.54 0 0 0 .16-.05.16.16 0 0 0 .13 0s0-.05 0-.12a1.32 1.32 0 0 0 -.36-.06.11.11 0 0 0 0-.07.24.24 0 0 0 -.13.08 2.89 2.89 0 0 0 -.16.25v.08.17.15l.02.07-.18.09-.08.05a1.74 1.74 0 0 0 -.31.09.38.38 0 0 0 -.24.31.06.06 0 0 0 0 0c0 .1.11.19.37.29s0 .07 0 .21a.05.05 0 0 0 0 .05.55.55 0 0 1 .33.16s0 0 0 0z" />
    <path d="m11.09 9.08.45.28.11.17-.2-.07-.45-.36s-.12-.1.09-.02z" fill="#96877d" />
    <path
        d="m11.65 9.53-.19-.06-.46-.36s0 0 0-.07 0 0 .14 0l.44.28.11.16zm-.2-.07h.18l-.1-.14-.44-.28c-.1-.05-.12 0-.12 0a.15.15 0 0 0 0 0z" />
    <path d="m12.14 8.22a.22.22 0 1 1 -.44 0 .22.22 0 1 1 .44 0z" fill="#96877d" />
    <path
        d="m11.92 8.45a.23.23 0 0 1 -.23-.23.23.23 0 0 1 .46 0 .23.23 0 0 1 -.23.23zm0-.45a.22.22 0 0 0 -.22.22.22.22 0 0 0 .44 0 .22.22 0 0 0 -.22-.22z" />
    <path d="m11.71 8.4.07-.05a.1.1 0 0 0 0-.07h.11.08.03s0 0 0 .05v.1a.08.08 0 0 1 -.07.05h-.06l-.09-.07z"
        fill="#96877d" />
    <path
        d="m11.84 8.53-.1-.06v-.06h.07a.16.16 0 0 0 0-.07h.19.06a.15.15 0 0 1 0 .06v.09s0 .05-.08.05h-.05zm-.09-.08.09.06h.05s.07-.05.07-.05v-.09a.07.07 0 0 0 0-.05h-.06-.18s0 .07 0 .08h-.06z" />
    <path
        d="m11.14 8.9s-.07 0-.27.2c0 0-.12.12-.25 0a.05.05 0 0 0 0-.07s-.14 0-.09-.09 0-.21.12-.21 0-.24.17-.22a.13.13 0 0 1 .18-.18s0-.1.11-.09a2.45 2.45 0 0 0 .58.13v.11l-.21.25a.71.71 0 0 1 -.26.16z"
        fill="#96877d" />
    <path
        d="m10.76 9.15a.19.19 0 0 1 -.14-.08.08.08 0 0 0 0 0v-.07s-.07 0-.09 0 0-.05 0-.09 0-.21.11-.22a.24.24 0 0 1 0-.17.12.12 0 0 1 .13 0 .15.15 0 0 1 .23-.2s0-.09.11-.09a2.45 2.45 0 0 0 .59.14v.11l-.21.26a.81.81 0 0 1 -.26.15h-.08s-.08 0-.27.19a.15.15 0 0 1 -.12.07zm-.12-.08a.17.17 0 0 0 .12.06.15.15 0 0 0 .1 0 .85.85 0 0 1 .28-.2h.07a1.08 1.08 0 0 0 .26-.15l.21-.25v-.1a3.41 3.41 0 0 1 -.58-.13c-.06 0-.09.08-.09.08a.14.14 0 0 0 -.11.14.14.14 0 0 0 -.13 0c-.06.05 0 .17 0 .17-.1 0-.11.2-.11.2s0 .07 0 .08.06 0 .08 0v.03z" />
    <path
        d="m11.19 9s-.07.11 0 .15 0 0 0 .05h-.05a.56.56 0 0 0 0 .07s0 0-.05 0a0 0 0 0 1 0 0s0 0 0 0-.09-.12-.09-.27 0-.26.13-.31.07-.13.14-.13a.15.15 0 0 1 .1-.09.1.1 0 0 1 .05-.06s.18-.12.26-.06a.5.5 0 0 0 .26.16c.11 0 .08.25.08.25l-.02.24v.1a.43.43 0 0 1 .29.12 1.45 1.45 0 0 0 .14.39 1.86 1.86 0 0 1 .26.23.3.3 0 0 1 -.18-.05s-.11 0-.1-.07a.52.52 0 0 1 -.24-.4 1.69 1.69 0 0 1 -.46-.07.47.47 0 0 1 -.14-.3.21.21 0 0 1 0-.29s-.07.12-.18.11-.15.17-.2.23z"
        fill="#96877d" />
    <path
        d="m12.61 9.84a.3.3 0 0 1 -.15-.05.15.15 0 0 1 -.09 0 .14.14 0 0 1 0-.06.53.53 0 0 1 -.24-.4 1.79 1.79 0 0 1 -.45-.07.52.52 0 0 1 -.17-.26.26.26 0 0 1 0-.25.18.18 0 0 1 -.13.06c0 .05-.09.16-.14.17a.11.11 0 0 0 0 .09.07.07 0 0 0 0 .05 0 0 0 0 1 0 .05h-.05v.03h-.06a0 0 0 0 1 0 0s0 0 0 0a.11.11 0 0 1 -.13-.2s0-.27.13-.32.06-.12.14-.13a.14.14 0 0 1 .1-.08.1.1 0 0 1 .05-.07c.06 0 .17-.1.23 0a.4.4 0 0 0 .22.12c.12 0 0 0 0 .05l.13.43v.09a.55.55 0 0 1 .29.13 1.12 1.12 0 0 0 .14.39c.18.13.26.21.25.23zm-.15-.07a.28.28 0 0 0 .16 0 1.89 1.89 0 0 0 -.25-.21 1.15 1.15 0 0 1 -.14-.38.4.4 0 0 0 -.23-.08v-.1h.06v-.2c0-.22.07-.23 0-.24a.52.52 0 0 1 -.23-.13c-.05-.05-.16 0-.21 0a.1.1 0 0 0 -.05.06.14.14 0 0 0 -.09.08c-.07 0-.13.12-.13.12-.11 0-.12.3-.12.3v.09a0 0 0 0 0 0 0s0 0 0 0a.15.15 0 0 1 0-.07s0 0 0 0a.07.07 0 0 1 0-.09s0-.07 0-.07a.43.43 0 0 0 .12-.14s0 0 0 0a.2.2 0 0 0 .16-.1.23.23 0 0 0 0 .28.49.49 0 0 0 .13.29 1.94 1.94 0 0 0 .46.08.47.47 0 0 0 .24.4s0 0 0 0a.08.08 0 0 0 .08 0z" />
    <path
        d="m12 9-.11-.08c-.09-.06-.12-.1-.13-.16s0-.18-.08-.21a.33.33 0 0 1 -.08-.13s0 0 .07.12.07.07.09.22 0 .09.11.15z" />
    <path d="m11.93 8.65h-.09a.15.15 0 0 1 .08 0zm-.08-.08h.07z" />
    <path
        d="m11.28 8.28a.13.13 0 0 1 .14-.06s0-.1.18 0 .05 0 .2 0a.15.15 0 0 1 .2-.08.19.19 0 0 1 .11.15.47.47 0 0 1 -.16 0 .23.23 0 0 0 -.14 0s-.15.07-.17.11a.23.23 0 0 1 -.14 0 .46.46 0 0 0 -.22-.12z"
        fill="#96877d" />
    <path
        d="m11.59 8.36a.28.28 0 0 1 -.13 0 .46.46 0 0 0 -.18 0 .14.14 0 0 1 .13-.07s.06-.09.19 0 .07 0 .2 0a.14.14 0 0 1 .2-.16.18.18 0 0 1 .11.16.36.36 0 0 1 -.16 0 .23.23 0 0 0 -.14 0s-.15.07-.16.1zm-.3-.08a.37.37 0 0 1 .18 0 .33.33 0 0 0 .13 0 .38.38 0 0 1 .17-.1.23.23 0 0 1 .14 0 .5.5 0 0 0 .15 0 .16.16 0 0 0 -.1-.13.13.13 0 0 0 -.16 0c-.14-.06-.19 0-.19 0a.14.14 0 0 0 -.18 0 .15.15 0 0 0 -.14.23z" />
    <path
        d="m12 9a.53.53 0 0 0 .07-.1.58.58 0 0 0 0-.17.26.26 0 0 1 0-.22 1.11 1.11 0 0 1 .11-.17 1 1 0 0 0 .07-.12.06.06 0 0 0 -.08 0l-.17.25h-.06v.2a.75.75 0 0 1 .05.16s.01.17.01.17z"
        fill="#96877d" />
    <path
        d="m12 9v-.12a.9.9 0 0 0 0-.16s0 0 0 0v-.2-.06l.14-.23a.07.07 0 0 1 .09 0 .31.31 0 0 1 -.07.12l-.1.17a.26.26 0 0 0 0 .22.74.74 0 0 1 0 .17zm0-.51v.21a1.21 1.21 0 0 1 .05.18.37.37 0 0 0 -.05.12.18.18 0 0 0 0-.08.44.44 0 0 0 0-.16.28.28 0 0 1 0-.24s.07-.12.11-.16a.88.88 0 0 0 .07-.12s0 0-.07 0l-.11.23z" />
    <path
        d="m11.94 8.63s0 .22 0 .24.26-.11.34-.17a1.47 1.47 0 0 0 .25-.25 1.49 1.49 0 0 1 -.21.22 1.26 1.26 0 0 1 -.21.15 1.14 1.14 0 0 1 -.11.08.09.09 0 0 1 -.09-.05.67.67 0 0 1 0-.2z"
        fill="#96877d" />
    <path
        d="m12 8.9s-.07 0-.09-.05a.46.46 0 0 1 0-.2s0 .21 0 .22.24-.09.34-.16a1.37 1.37 0 0 0 .24-.25 1.32 1.32 0 0 1 -.21.23.6.6 0 0 1 -.21.14.84.84 0 0 1 -.07.07zm-.08-.25a.41.41 0 0 0 0 .19.07.07 0 0 0 .08.05.6.6 0 0 0 .18-.07.91.91 0 0 0 .21-.14 1.83 1.83 0 0 0 .21-.22 1.17 1.17 0 0 1 -.25.25s-.25.19-.35.17-.05-.19 0-.23z" />
    <path d="m12.13 10.38v-.01l.01-.06.01-.01.01.01-.02.07z" />
    <path
        d="m12.42 10.47s0 0 0 0-.12.1-.17.07 0 0 0-.05 0-.08 0-.08 0 .07 0 .09.12-.05.15-.07a.11.11 0 0 1 0 .05s0 0 0 0z" />
    <path d="m12.29 10.41-.04-.03v-.01h.01l.03.03z" />
    <path d="m12.67 10.24a.08.08 0 0 0 -.07-.05s.06 0 .08.06 0 0 .07 0z" />
    <path d="m12.92 10.27s.18.23.2 0 0 0 0 0-.08.2-.33 0z" fill="#96877d" />
    <path
        d="m13.05 10.45a.4.4 0 0 1 -.2-.08l.06-.09s.1.11.15.1a.1.1 0 0 0 0-.09s0 0 0 0a.17.17 0 0 1 -.1.09zm-.18-.09c.09.06.16.09.22.07a.14.14 0 0 0 .09-.08s0 0 0 0 0 .07 0 .08-.13-.07-.15-.1z" />
    <path d="m12.87 10.36-.04-.02.06-.09.03.03-.01.04z" fill="#96877d" />
</svg>