<svg viewBox="0 0 40.5 40.5" xmlns="http://www.w3.org/2000/svg">
    <circle cx="20.25" cy="20.25" fill="#c40308" r="20.25" />
    <path
        d="m20.25 1.5a18.75 18.75 0 1 1 -18.75 18.75 18.77 18.77 0 0 1 18.75-18.75zm0-1.5a20.25 20.25 0 1 0 20.25 20.25 20.25 20.25 0 0 0 -20.25-20.25z"
        fill="#d4af3a" />
    <path
        d="m20.53 9.35a1.56 1.56 0 0 1 .71.47 1 1 0 0 1 .21.81c0 .11-.07.23 0 .33a.34.34 0 0 0 .29.15.53.53 0 0 0 .28 0 .48.48 0 0 0 .33-.38 1 1 0 0 0 0-.53c-.06-.16-.15-.32-.22-.49a1.81 1.81 0 0 1 .41.3.69.69 0 0 1 .2.46 2.54 2.54 0 0 1 0 .29.7.7 0 0 0 0 .29.26.26 0 0 0 .21.18c.13 0 .23-.11.29-.23a.67.67 0 0 0 .12-.39s.06 0 .08-.07a.25.25 0 0 0 0-.12.16.16 0 0 0 -.08-.14s-.1 0-.13-.06a.16.16 0 0 1 0-.09.22.22 0 0 0 0-.1.24.24 0 0 0 -.23-.14.33.33 0 0 0 0-.14.21.21 0 0 0 -.05-.13.19.19 0 0 0 -.13 0h-.15l-.19-.11h-.09a.18.18 0 0 1 -.07-.08s0-.1-.06-.13a.15.15 0 0 0 -.13 0h-.11s0 0-.07 0a.49.49 0 0 0 -.17-.06 1.66 1.66 0 0 1 -.22 0 2.14 2.14 0 0 1 -.42-.16.76.76 0 0 0 -.44-.09.11.11 0 0 0 -.08 0 .22.22 0 0 0 0 .14 2.26 2.26 0 0 1 -.09.22z"
        fill="#b96b29" />
    <path
        d="m20.25 17.26a2.59 2.59 0 0 0 .43-.6.3.3 0 0 1 -.11-.06.46.46 0 0 1 -.17-.28s0-.09 0-.14a.15.15 0 0 1 0-.06.1.1 0 0 1 0-.05l.11-.08.09-.05.18-.14a2.17 2.17 0 0 0 .37-.31.78.78 0 0 0 .1-.15h-.06a.69.69 0 0 1 -.13-.11.32.32 0 0 1 -.06-.23.11.11 0 0 1 0-.06.34.34 0 0 1 .12-.06l.14-.07a1.1 1.1 0 0 1 .14-.09 1.26 1.26 0 0 0 .38-.31h-.07a.62.62 0 0 1 -.14-.14h.1a1.55 1.55 0 0 0 .36-.19.89.89 0 0 0 .31-.3.72.72 0 0 1 -.47-.94 2.15 2.15 0 0 0 .71.27.92.92 0 0 0 .52-.06c.4-.17 1.28-.47 1.5.24h.12a1.33 1.33 0 0 1 .28 0 .72.72 0 0 1 .33.06.49.49 0 0 1 .25.24 1.1 1.1 0 0 1 0 .57.43.43 0 0 1 0 .11.07.07 0 0 1 -.06 0s0 0-.06 0a.44.44 0 0 0 -.08-.11v-.06a.54.54 0 0 0 -.33-.07.75.75 0 0 0 -.38.15 2.52 2.52 0 0 0 -.48.5 1.3 1.3 0 0 0 .69.07 1 1 0 0 1 -1.41.52s-.23.08-.32.76c0 0-.17.09-.36-.17a2.53 2.53 0 0 0 0 .38v.3a.78.78 0 0 0 0 .14.57.57 0 0 1 0 .14 0 0 0 0 1 0 0h-.17-.15a1.42 1.42 0 0 0 .27.78l-.1.77-2 .17-.5-.63z"
        fill="#b96b29" />
    <path
        d="m27.77 13.66v-.07c.05-.13.09-.27.13-.4s.06-.25.09-.38a7.63 7.63 0 0 0 .17-.83q.06-.42.09-.84c0-.14 0-.28 0-.42s0-.13 0-.2v-.1s0-.05 0-.06a.15.15 0 0 1 .08.08 2.15 2.15 0 0 1 .14.26 1.19 1.19 0 0 1 .13.25 2.55 2.55 0 0 1 .18.53 5.22 5.22 0 0 1 .07 1.31 3.73 3.73 0 0 1 0 .47c0 .26-.1.53-.17.79s-.08.26-.13.39-.07.15 0 .15.08-.13.1-.16a5.62 5.62 0 0 0 .55-1.43 8.17 8.17 0 0 0 .14-.84c0-.15 0-.29 0-.43a2 2 0 0 0 0-.23 1 1 0 0 0 0-.24.6.6 0 0 1 .09.13 4 4 0 0 1 .36 1.82 7.18 7.18 0 0 1 -.28 1.79 1.82 1.82 0 0 1 -.58 1 1.17 1.17 0 0 0 .6-.62 9.12 9.12 0 0 0 .87-2.38 1.72 1.72 0 0 1 .3.88 3.5 3.5 0 0 1 -.29 1.56 3.73 3.73 0 0 1 -.16.35c-.06.12-.14.23-.19.35a1.66 1.66 0 0 1 -.23.31l-.26.34a.83.83 0 0 0 .23-.15 5.94 5.94 0 0 0 1.28-1.91 1.69 1.69 0 0 1 0 1 5 5 0 0 1 -.33.92 3.5 3.5 0 0 1 -1.39 1.35 3.53 3.53 0 0 0 1.08-.66c.31-.29.6-.61.88-.93a1.08 1.08 0 0 1 0 .59 1.59 1.59 0 0 1 -.24.55 2.92 2.92 0 0 1 -1.61 1.25 2 2 0 0 0 .35-.06 3 3 0 0 0 .86-.39 8.23 8.23 0 0 0 .75-.57 1.79 1.79 0 0 1 -.43 1.13 3.3 3.3 0 0 1 -1 .7 8.76 8.76 0 0 1 -1.19.4 5 5 0 0 0 2.43-.86 2.73 2.73 0 0 1 -.18.68 1.39 1.39 0 0 1 -.42.54 2.27 2.27 0 0 1 -.72.29l-.52.13a2.24 2.24 0 0 1 -.52.06 1.5 1.5 0 0 0 .42 0 2.71 2.71 0 0 0 .55-.08 6.12 6.12 0 0 0 .82-.2 2 2 0 0 1 -.27.67 1.44 1.44 0 0 1 -.86.51c-.33.07-.67.08-1 .12a2.94 2.94 0 0 0 1.35-.09.86.86 0 0 1 -.21.63 1.13 1.13 0 0 1 -.48.29 2.11 2.11 0 0 1 -.5.1h-.25a2.38 2.38 0 0 0 -.26 0 .17.17 0 0 0 .11.09.44.44 0 0 0 .15.05l.51.1a.75.75 0 0 1 -.36.51 1.12 1.12 0 0 1 -.25.11 1.09 1.09 0 0 1 -.26 0 1 1 0 0 1 -.25 0h-.19l-.45-.09a1.33 1.33 0 0 0 .82.28.73.73 0 0 1 -.35.32 1.93 1.93 0 0 1 -1.47.13c.08.07.15.16.22.23a.1.1 0 0 1 0 .16.31.31 0 0 1 -.21.09 2.57 2.57 0 0 1 -.68.05 1.06 1.06 0 0 1 -.62-.24 3.84 3.84 0 0 0 -.3-.28s0 .08 0 .11l.2.25a.24.24 0 0 1 .07.12.12.12 0 0 1 0 .13.28.28 0 0 1 -.16.06 1 1 0 0 1 -.34 0 .59.59 0 0 1 -.31-.14 2.25 2.25 0 0 1 -.3-.39c.06-.12.21-.29.19-.42s-.12-.27-.11-.42a.51.51 0 0 1 .14-.26 1.46 1.46 0 0 1 .56-.39.62.62 0 0 0 .36-.2l.33-.44c.24-.32.47-.64.69-1a15.23 15.23 0 0 0 1.81-6 12.09 12.09 0 0 0 .05-1.32 1.62 1.62 0 0 0 -.02-.34z"
        fill="#b96b29" />
    <path
        d="m27.89 13.62a11.53 11.53 0 0 0 .44-3.25 3.17 3.17 0 0 1 .51 1.53 6.38 6.38 0 0 1 -.09 1.63 2.83 2.83 0 0 1 -.19.69 2.68 2.68 0 0 1 -.18.28 1 1 0 0 0 -.15.33.33.33 0 0 0 .2-.09c.05-.05.09-.11.14-.17a3.11 3.11 0 0 1 .23-.28.83.83 0 0 0 .09-.16 1.54 1.54 0 0 1 .08-.19 6.91 6.91 0 0 0 .25-.77l.06-.29a12.89 12.89 0 0 0 .16-1.51 1.9 1.9 0 0 1 .26.62 4.17 4.17 0 0 1 .06 1.65c-.05.26-.11.51-.17.77a6.93 6.93 0 0 1 -.9 2 3.3 3.3 0 0 0 1.17-1.44 9.63 9.63 0 0 0 .49-1.58c0-.06 0-.12 0-.17s0-.08.05 0a.16.16 0 0 1 0 .09 2.93 2.93 0 0 1 .07.41 4.33 4.33 0 0 1 -.32 2 2.92 2.92 0 0 1 -1.3 1.49.21.21 0 0 0 0 .11.1.1 0 0 0 .06.08.13.13 0 0 0 .08 0c.15-.09.3-.18.45-.29a3.84 3.84 0 0 0 1.19-1.4 5.18 5.18 0 0 0 .4-.73 2.45 2.45 0 0 1 0 .54 1.82 1.82 0 0 1 -.14.52 4.35 4.35 0 0 1 -.25.59 3.32 3.32 0 0 1 -1 1.13 10.27 10.27 0 0 1 -1.25.81.42.42 0 0 1 .12 0h.12l.25-.08.48-.21a5.47 5.47 0 0 0 .89-.55 5.11 5.11 0 0 0 .75-.72l.11-.15s.07-.12.11 0a.19.19 0 0 1 0 .08 2.25 2.25 0 0 1 -.94 1.53 4 4 0 0 1 -.92.52 9.51 9.51 0 0 1 -.96.01 4.22 4.22 0 0 0 3-1.06 1.8 1.8 0 0 1 -.54.94 3.81 3.81 0 0 1 -1.44.81 11.28 11.28 0 0 1 -1.63.36 2.44 2.44 0 0 0 .76.05 4.8 4.8 0 0 0 .75-.09 5.2 5.2 0 0 0 1.43-.51c.12-.07.25-.14.36-.22a.75.75 0 0 1 -.22.63 2.63 2.63 0 0 1 -1.34.75 3.63 3.63 0 0 1 -1.54 0 .63.63 0 0 0 .36.23 2.22 2.22 0 0 0 .45.06 5 5 0 0 0 1.72-.22 1.5 1.5 0 0 1 -.68.77 2.3 2.3 0 0 1 -1 .24 3.58 3.58 0 0 1 -1.7-.34.87.87 0 0 0 .33.33 2.32 2.32 0 0 0 .44.16 4.13 4.13 0 0 0 1.85 0 .76.76 0 0 1 -.2.36 1.41 1.41 0 0 1 -1 .42 2.41 2.41 0 0 1 -1.05-.24 6.68 6.68 0 0 1 -.93-.55.82.82 0 0 0 .37.43 5.71 5.71 0 0 0 1.78.75.87.87 0 0 1 -.56.43 1.7 1.7 0 0 1 -.71 0 3.58 3.58 0 0 1 -1.86-1.05 3.13 3.13 0 0 0 2.1 1.45.59.59 0 0 1 -.28.18 1.28 1.28 0 0 1 -.33.06 3.69 3.69 0 0 1 -.58 0 1 1 0 0 1 -.51-.13 1.77 1.77 0 0 1 -.28-.27c-.19-.23-.38-.47-.55-.71a4.08 4.08 0 0 0 .83 1.38s.09.09.07.14-.08.06-.13.07a1.62 1.62 0 0 1 -.79 0 1.14 1.14 0 0 1 -.44-.34 2.27 2.27 0 0 1 -.39-.58 4.68 4.68 0 0 1 -.28-1.1 2.82 2.82 0 0 0 .58 2 .13.13 0 0 1 .05.12c0 .05-.07.09-.12.1a.6.6 0 0 1 -.5-.13 1 1 0 0 1 -.29-.44 1.81 1.81 0 0 1 -.07-.52 2.53 2.53 0 0 1 .11-.91 1.48 1.48 0 0 1 .51-.74 5.52 5.52 0 0 0 2.05-2.65 18.48 18.48 0 0 0 .49-2.11 10.07 10.07 0 0 1 .83-2.24c.24-.44.08-.97.21-1.45z"
        fill="#d4af3a" />
    <path
        d="m20.41 17.34a1.63 1.63 0 0 0 .35-.68 1.51 1.51 0 0 0 .37 0 .63.63 0 0 0 .33-.12 1.19 1.19 0 0 1 -.46.46.81.81 0 0 0 .57-.54 4.77 4.77 0 0 0 .07.76v.16a.19.19 0 0 1 0 .08.21.21 0 0 1 0 .07s-.06 0-.09 0h-.05a3.68 3.68 0 0 1 -.58-.08l-.25-.06c-.09.04-.17-.02-.26-.05z"
        fill="#d4af3a" />
    <path
        d="m25.27 14.08c.17 0 .33.08.51.1a.57.57 0 0 0 .47-.16.78.78 0 0 0 .15-.5.63.63 0 0 1 .26.41.69.69 0 0 1 -.11.47.89.89 0 0 1 -.64.32 3 3 0 0 1 -.73-.09 2.25 2.25 0 0 0 -.73-.09h-.27a.43.43 0 0 1 -.25-.07.11.11 0 0 1 0-.21.43.43 0 0 1 .16 0 3.38 3.38 0 0 0 .42-.13 2 2 0 0 1 .48-.06z"
        fill="#b96b29" />
    <path
        d="m28.07 14.28a1.27 1.27 0 0 0 .2-.44c0-.16.08-.32.11-.48a4.62 4.62 0 0 0 .07-1 4.95 4.95 0 0 1 -.12 1.49 1.37 1.37 0 0 1 -.19.47s0 0-.06 0 0 0 0-.06z"
        fill="#b96b29" />
    <path
        d="m28.71 15.45a1.7 1.7 0 0 0 .29-.45c.05-.16.11-.32.17-.48a6.78 6.78 0 0 0 .27-1c0 .17-.06.33-.1.5s-.08.33-.13.49l-.21.49a1.74 1.74 0 0 1 -.24.47s0 0-.06 0 0 0 0-.06z"
        fill="#b96b29" />
    <path
        d="m29.26 16.41a.64.64 0 0 1 .13-.15l.13-.13a3.55 3.55 0 0 0 .23-.31 2.37 2.37 0 0 0 .3-.69 2.42 2.42 0 0 1 -.27.72 2.2 2.2 0 0 1 -.21.32.86.86 0 0 1 -.13.14 1.34 1.34 0 0 0 -.11.14 0 0 0 1 1 -.08 0z"
        fill="#b96b29" />
    <path d="m29.27 17.46a4 4 0 0 0 1-.88 4.17 4.17 0 0 1 -1 1 0 0 0 0 1 -.06 0 .06.06 0 0 1 0-.06z" fill="#b96b29" />
    <path d="m29.14 18.48a4.5 4.5 0 0 0 1.26-.67 4.56 4.56 0 0 1 -1.23.75 0 0 0 0 1 -.05 0s0-.05 0-.05z"
        fill="#b96b29" />
    <path d="m28.62 19.34a4.4 4.4 0 0 0 1.51-.34 4.41 4.41 0 0 1 -1.5.45.05.05 0 0 1 -.05 0 0 0 0 0 1 0 0z"
        fill="#b96b29" />
    <path
        d="m28.33 20.35a3.12 3.12 0 0 0 .75 0c.25 0 .5-.11.74-.17-.24.08-.48.15-.73.21a2.77 2.77 0 0 1 -.76.08 0 0 0 0 1 0-.08z"
        fill="#b96b29" />
    <path d="m27.81 21.1a2.55 2.55 0 0 0 1.13.2 2.54 2.54 0 0 1 -1.16-.12s0 0 0-.05a.07.07 0 0 1 .06 0z"
        fill="#b96b29" />
    <path d="m27.09 21.84a3.17 3.17 0 0 0 1.07.41 3.56 3.56 0 0 1 -1.11-.33 0 0 0 0 1 0-.06z" fill="#b96b29" />
    <path d="m26.44 22.39a3.25 3.25 0 0 0 .88.62 3.21 3.21 0 0 1 -.94-.56s0 0 0-.06 0 0 .06 0z" fill="#b96b29" />
    <path d="m25.71 23.05a3 3 0 0 0 .74.67 3.45 3.45 0 0 1 -.81-.61.06.06 0 0 1 0-.06s.05 0 .06 0z" fill="#b96b29" />
    <path
        d="m22.53 17a1.15 1.15 0 0 0 .22.35l-.18.11a.86.86 0 0 1 -.21.07s-.07 0-.08 0 0-.06.06-.08a1.28 1.28 0 0 0 .11-.2.63.63 0 0 0 .08-.25z"
        fill="#d4af3a" />
    <path d="m24 23.89.21.45-.28-.41s0-.05 0-.06.05 0 .06 0z" fill="#b96b29" />
    <path
        d="m25.56 13.31a.41.41 0 0 0 -.18-.19.51.51 0 0 0 -.3 0 2.54 2.54 0 0 0 -.71.22.35.35 0 0 1 0 .2.24.24 0 0 1 -.14.14h-.12-.11a.18.18 0 0 1 -.09-.1.58.58 0 0 1 0-.14 1.9 1.9 0 0 1 -1.32.19 2.29 2.29 0 0 1 -.27.27l-.32.1a.26.26 0 0 0 -.11.07s0 .07.05.08.05 0 .07 0a.05.05 0 0 1 0 .08s-.05.06-.07.08l-.08.09a1.57 1.57 0 0 1 -.24.21 1.28 1.28 0 0 1 -.21.14l-.11.06h-.12s0 0 0 0 0 .07.06.09l.11.09a.18.18 0 0 1 .07.08.11.11 0 0 1 0 .08l-.1.12a1.34 1.34 0 0 1 -.11.14l-.24.24a1.13 1.13 0 0 1 -.21.15l-.11.06-.11.05h-.05a.19.19 0 0 0 0 .08.16.16 0 0 0 0 .07.64.64 0 0 0 .46.17 1.08 1.08 0 0 0 .47-.15 3 3 0 0 0 .39-.31 4.38 4.38 0 0 0 0 1.4.3.3 0 0 0 .08.18 1 1 0 0 0 .32-.42 3 3 0 0 0 .15-.51c0-.11 0-.23.06-.33a.6.6 0 0 0 .34.11 1.19 1.19 0 0 1 -.05-.5 2.17 2.17 0 0 1 0-.36.52.52 0 0 1 .16-.31.85.85 0 0 0 .09.22.35.35 0 0 0 .18.16 1 1 0 0 1 .33-.75.21.21 0 0 1 .1-.06.43.43 0 0 1 .24.06.72.72 0 0 0 .54 0 .71.71 0 0 0 .39-.37.85.85 0 0 1 -.73.07c-.07 0-.15-.08-.15-.16s.05-.12.1-.17l.27-.23a2.67 2.67 0 0 1 .55-.4.77.77 0 0 1 .26-.07.54.54 0 0 1 .3.08 1.64 1.64 0 0 1 .26.2.77.77 0 0 0 -.04-.3zm-3.95 2.47a.93.93 0 0 1 -.15.13 1.54 1.54 0 0 1 -.42.17c.1-.07.2-.11.3-.17a1.08 1.08 0 0 0 .32-.32.27.27 0 0 1 -.05.19zm.57.36a3.86 3.86 0 0 1 -.1.75s0 .09 0 .08a1.11 1.11 0 0 1 0-.17c0-.22 0-.43 0-.64a.13.13 0 0 1 0-.09.06.06 0 0 1 .07 0 .1.1 0 0 1 0 0zm1-1.5-.08.08c-.24.19-.49.39-.75.56a1.32 1.32 0 0 1 .14-.65 1.85 1.85 0 0 1 .33-.46.07.07 0 0 1 0 .05.34.34 0 0 1 -.09.08l-.09.1a.5.5 0 0 0 -.13.22.74.74 0 0 0 0 .14s0 .07 0 .08a.1.1 0 0 0 .09 0 1.11 1.11 0 0 0 .32-.21h.06a.09.09 0 0 1 .07 0 .11.11 0 0 1 .15.01z"
        fill="#d4af3a" />
    <path
        d="m22.27 13.29a.88.88 0 0 0 .61.18 1.74 1.74 0 0 0 .62-.17 2.08 2.08 0 0 1 .51-.2.82.82 0 0 1 .41 0s.08 0 .11 0a.08.08 0 0 0 0-.09.35.35 0 0 0 0-.08.69.69 0 0 0 -.53-.23 1.2 1.2 0 0 0 -.56.09 2.14 2.14 0 0 0 -.64.37s-.06 0-.06 0l.12-.14s-.13 0-.15 0h-.15a1.32 1.32 0 0 1 -.3-.1l-.14-.07s-.09-.09-.1 0a.53.53 0 0 0 0 .28.62.62 0 0 0 .25.16z"
        fill="#d4af3a" />
    <path
        d="m26.36 16a5.23 5.23 0 0 0 1.37-2.78.17.17 0 0 1 .14 0 .4.4 0 0 1 .1.12 2 2 0 0 1 .28 1.31.91.91 0 0 0 .16-.24c0-.08.07-.17.15-.2a.17.17 0 0 1 .18.05c.11.12.07.28.07.43v.53a.15.15 0 0 1 0 .07.16.16 0 0 1 .14-.12.17.17 0 0 1 .16.07.36.36 0 0 1 .07.17 1.21 1.21 0 0 1 0 .19v.47c0-.05.06-.07.11-.07a.17.17 0 0 1 .13.07.34.34 0 0 1 .05.14.9.9 0 0 1 0 .4 2.43 2.43 0 0 1 -.13.38.27.27 0 0 1 .15.13.42.42 0 0 1 0 .19.94.94 0 0 1 0 .29 1 1 0 0 1 -.12.32l-.2.27a.26.26 0 0 1 .19.12.38.38 0 0 1 0 .21.78.78 0 0 1 -.21.49 1.52 1.52 0 0 1 -.44.31h.18a.24.24 0 0 1 .14.1.31.31 0 0 1 0 .21.6.6 0 0 1 -.28.41 1.11 1.11 0 0 1 -.48.13c.12.06.24.12.28.24a.39.39 0 0 1 -.06.28.81.81 0 0 1 -.6.4.42.42 0 0 1 -.06.39.71.71 0 0 1 -.33.23c-.11 0-.24.05-.36.08s-.05 0-.05.09a1.1 1.1 0 0 1 0 .18.41.41 0 0 1 -.13.23.4.4 0 0 1 -.23.1h-.26a.26.26 0 0 1 .12.33.38.38 0 0 1 -.25.24.87.87 0 0 1 -.36 0 .36.36 0 0 0 -.18 0 .4.4 0 0 0 -.12.21.63.63 0 0 1 -.51.33 1.2 1.2 0 0 1 -.62-.11 1.13 1.13 0 0 1 -.56-.42 1.18 1.18 0 0 1 -.07-1c.1-.33.29-.62.41-.94a2 2 0 0 1 .89-.86 2.22 2.22 0 0 0 .91-.86 2.05 2.05 0 0 0 .12-.74c.04-.73.08-1.63.11-2.57z"
        fill="#b96b29" />
    <path
        d="m26.48 16a2.22 2.22 0 0 0 .49-.64 5.68 5.68 0 0 0 .64-1.28c.07-.21.1-.43.15-.65a.06.06 0 0 1 0-.06s.06 0 .07 0a1.45 1.45 0 0 1 .24.52 2.89 2.89 0 0 1 .08.59 1.29 1.29 0 0 1 -.06.4 2.54 2.54 0 0 1 -.32.55 1.88 1.88 0 0 0 -.16.23.43.43 0 0 0 0 .07v.09a0 0 0 0 0 0 0l.06-.08a5.79 5.79 0 0 0 .78-1.34s0-.08.08-.08h.05a1 1 0 0 1 .13.76 1.9 1.9 0 0 1 -.36.69c-.13.17-.27.33-.4.49s-.07.06-.07.11h.06s0 0 0-.05a4.55 4.55 0 0 0 .81-1s.05-.08.09-.06 0 0 0 0a1 1 0 0 1 0 .76 1.44 1.44 0 0 1 -.19.31l-.13.14-.12.13-.26.27s0 0 0 0a0 0 0 0 0 0 0 3.8 3.8 0 0 0 .76-.74s0 0 .07-.06a.09.09 0 0 1 .1 0 .12.12 0 0 1 0 .1 1.07 1.07 0 0 1 -.12.63 1.64 1.64 0 0 1 -.41.5c-.11.09-.22.21-.32.3a0 0 0 0 0 0 0 .05.05 0 0 0 0 0 6.84 6.84 0 0 0 .72-.47s.08-.05.12 0 0 .16 0 .21a1.21 1.21 0 0 1 -.05.18 1.3 1.3 0 0 1 -.14.32l-.09.14-.05.05-.06.06a2 2 0 0 1 -.49.33.39.39 0 0 0 -.16.1s0 0 0 0a0 0 0 0 0 0 0l.28-.1.28-.11.2-.07s.07 0 .09 0a.13.13 0 0 1 0 .08.74.74 0 0 1 -.14.43 1 1 0 0 1 -.42.33 2.5 2.5 0 0 1 -.25.09h-.13a.27.27 0 0 0 -.12 0s0 0 0 0h.18.18a1 1 0 0 1 .25 0c.08 0 .16.08.16.16a.23.23 0 0 1 -.07.17 1 1 0 0 1 -.46.31 2.5 2.5 0 0 1 -.54.13s-.1 0-.09.06.05 0 .08 0h.29a.4.4 0 0 1 .27.09.26.26 0 0 1 0 .31.52.52 0 0 1 -.27.18 1.32 1.32 0 0 1 -.44.08c-.18 0-.36 0-.54 0s0 .07 0 .09.08 0 .11 0h.19.18a.27.27 0 0 1 .2.17.25.25 0 0 1 -.07.2.59.59 0 0 1 -.19.11l-.2.05h-.2.17a1.5 1.5 0 0 1 -.42 0h-.05s0 0 0 0a.66.66 0 0 0 .19.09.8.8 0 0 1 .28.63.19.19 0 0 1 .07.23.24.24 0 0 1 -.18.1 1.81 1.81 0 0 1 -.4 0 .89.89 0 0 1 -.36-.07.52.52 0 0 0 -.13-.06s0 0 0 0a.12.12 0 0 0 .08.11.82.82 0 0 0 .19.09l.22.07c.09.05.17.14.15.23s-.16.18-.28.2a1.55 1.55 0 0 1 -.43 0 2.6 2.6 0 0 1 -.4-.1h-.1-.08a.46.46 0 0 0 -.14-.07s-.05 0-.06 0a0 0 0 0 0 0 0 .28.28 0 0 0 .21.17c.12 0 .26.07.32.18a.27.27 0 0 1 -.08.32.51.51 0 0 1 -.34.11 1.22 1.22 0 0 1 -.74-.22.57.57 0 0 1 -.19-.22.64.64 0 0 1 0-.41 7 7 0 0 0 .2-1.87 6.51 6.51 0 0 0 1.03-.79 2.31 2.31 0 0 0 .73-1.2 4.46 4.46 0 0 0 -.05-1.41c-.05-.48-.14-1.11.24-1.39z"
        fill="#d4af3a" />
    <path
        d="m23.58 20.27a.47.47 0 0 0 .6-.15 1.71 1.71 0 0 1 .13-.23.57.57 0 0 1 .44-.13 1.17 1.17 0 0 0 .56-.07.42.42 0 0 0 .28-.44.45.45 0 0 0 -.22-.29c-.1-.07-.22-.12-.32-.2a.88.88 0 0 1 -.36-.56.91.91 0 0 1 .15-.66 16.31 16.31 0 0 0 1.43-2c0-.05.07-.1.12-.06a.33.33 0 0 1 .11.15 1.6 1.6 0 0 1 0 .23v.26c.09 0 .17-.09.26-.12a.76.76 0 0 1 .26-.06.36.36 0 0 1 .25.06.43.43 0 0 1 .17.33.42.42 0 0 1 -.07.31h.36a.41.41 0 0 1 .31.17.36.36 0 0 1 .05.21.5.5 0 0 1 -.19.41.35.35 0 0 1 .34.23.44.44 0 0 1 -.06.4.6.6 0 0 1 -.35.23.38.38 0 0 1 .22.32.53.53 0 0 1 -.05.39.74.74 0 0 1 -.36.19.67.67 0 0 1 .15.29.47.47 0 0 1 -.15.44.93.93 0 0 1 -.42.24.52.52 0 0 1 -.2.39.94.94 0 0 1 -.4.2.51.51 0 0 1 -.13.37.64.64 0 0 1 -.35.19 1.34 1.34 0 0 1 -.4 0 .5.5 0 0 1 -.13.52.57.57 0 0 1 -.34.16.81.81 0 0 1 -.38 0 .74.74 0 0 1 -.69.46.84.84 0 0 1 -.53-.26 1.24 1.24 0 0 1 -.28-.53 1.76 1.76 0 0 1 .19-1.39z"
        fill="#b96b29" />
    <path d="m24.29 13.39a.16.16 0 0 1 -.32 0 .16.16 0 0 1 .32 0z" fill="#d4af3a" />
    <path
        d="m25.29 14.15.39.08a.9.9 0 0 0 .4 0 .6.6 0 0 0 .38-.46.42.42 0 0 1 0 .51.69.69 0 0 1 -.46.27 1.43 1.43 0 0 1 -.54-.06c-.18 0-.35-.09-.53-.12a.91.91 0 0 0 -.54.06.85.85 0 0 1 -.22.09.18.18 0 0 1 -.13 0s-.08-.06-.06-.1.1-.06.13-.08l.15-.06a1.77 1.77 0 0 1 .64-.12 1.51 1.51 0 0 1 .39-.01z"
        fill="#c52126" />
    <path
        d="m20.25 17.26a2.93 2.93 0 0 1 -.43-.6.4.4 0 0 0 .28-.34s0-.09 0-.14a.15.15 0 0 0 0-.06.1.1 0 0 0 0-.05l-.1-.07-.08-.05-.19-.14a1.79 1.79 0 0 1 -.36-.31.83.83 0 0 1 -.11-.15s.06 0 .07 0a.63.63 0 0 0 .12-.11.32.32 0 0 0 .06-.21s0-.05 0-.06a.27.27 0 0 0 -.12-.06l-.14-.07a.67.67 0 0 0 -.14-.09 1.4 1.4 0 0 1 -.38-.31h.06a.62.62 0 0 0 .14-.14 0 0 0 0 0 0 0h-.1a1.78 1.78 0 0 1 -.36-.19.89.89 0 0 1 -.31-.3.72.72 0 0 0 .47-.94 2.15 2.15 0 0 1 -.71.27.93.93 0 0 1 -.52-.06c-.39-.17-1.28-.47-1.5.24h-.11-.29a.75.75 0 0 0 -.33.06.43.43 0 0 0 -.24.24 1.22 1.22 0 0 0 0 .57s0 .07 0 .11 0 0 .06 0 0 0 .06 0a1 1 0 0 1 .08-.11.34.34 0 0 1 .06-.06.51.51 0 0 1 .32-.07.82.82 0 0 1 .39.15 2.47 2.47 0 0 1 .47.5 1.27 1.27 0 0 1 -.69.07 1 1 0 0 0 1.32.22s.22.08.31.76c0 0 .18.09.36-.17a2.53 2.53 0 0 1 0 .38 1.53 1.53 0 0 1 0 .3.36.36 0 0 1 0 .14.32.32 0 0 0 0 .14 0 0 0 0 0 0 0h.17.14a1.32 1.32 0 0 1 -.27.78l.1.77 2 .17.49-.63z"
        fill="#b96b29" />
    <path
        d="m20.09 17.34a1.63 1.63 0 0 1 -.35-.68 1.45 1.45 0 0 1 -.36 0 .66.66 0 0 1 -.34-.12 1.27 1.27 0 0 0 .42.47.81.81 0 0 1 -.57-.54 4.77 4.77 0 0 1 -.06.76v.16s0 .05 0 .08a.21.21 0 0 0 0 .07s.06 0 .09 0h.08a3.68 3.68 0 0 0 .58-.08l.26-.06c.08.03.16-.03.25-.06z"
        fill="#d4af3a" />
    <path
        d="m15.24 14.08c-.17 0-.34.08-.51.1a.58.58 0 0 1 -.48-.16.78.78 0 0 1 -.15-.5.67.67 0 0 0 -.26.41.65.65 0 0 0 .12.47.85.85 0 0 0 .64.32 3 3 0 0 0 .72-.09 2.29 2.29 0 0 1 .73-.09h.27a.43.43 0 0 0 .25-.07.11.11 0 0 0 0-.21.38.38 0 0 0 -.16 0 3.38 3.38 0 0 1 -.42-.13 1.91 1.91 0 0 0 -.48-.06z"
        fill="#b96b29" />
    <path
        d="m18 17a1.36 1.36 0 0 1 -.21.35l.17.11a.86.86 0 0 0 .21.07s.07 0 .08 0 0-.06-.06-.08a1.28 1.28 0 0 1 -.11-.2.9.9 0 0 1 -.08-.25z"
        fill="#d4af3a" />
    <path
        d="m14.88 13.85a1.22 1.22 0 0 1 .25-.2.54.54 0 0 1 .3-.08.77.77 0 0 1 .26.07 2.67 2.67 0 0 1 .55.4l.27.23c0 .05.11.1.11.17s-.09.13-.16.16a.85.85 0 0 1 -.73-.07.71.71 0 0 0 .39.37.72.72 0 0 0 .54 0 .43.43 0 0 1 .24-.06.24.24 0 0 1 .11.06 1 1 0 0 1 .32.75.35.35 0 0 0 .18-.16.85.85 0 0 0 .09-.22.52.52 0 0 1 .16.31 2.17 2.17 0 0 1 0 .36.94.94 0 0 1 -.05.5.58.58 0 0 0 .34-.11c0 .1 0 .22.07.33a2.27 2.27 0 0 0 .14.51 1 1 0 0 0 .32.42.31.31 0 0 0 .09-.18 4.69 4.69 0 0 0 0-1.4 3 3 0 0 0 .39.31 1.18 1.18 0 0 0 .47.15.64.64 0 0 0 .46-.17s0 0 0-.07a.19.19 0 0 0 0-.08l-.12-.15h-.11l-.21-.15-.24-.24-.11-.14-.1-.12a.11.11 0 0 1 0-.08.18.18 0 0 1 .07-.08l.12-.09a.11.11 0 0 0 .06-.09h-.11l-.12-.06a1.28 1.28 0 0 1 -.21-.14 2.25 2.25 0 0 1 -.24-.21l-.08-.09a.29.29 0 0 1 -.07-.08.06.06 0 0 1 0-.08s.05 0 .07 0 .07 0 .05-.08a.26.26 0 0 0 -.11-.07l-.25-.17-.28-.43a1.86 1.86 0 0 1 -1.31-.19.58.58 0 0 1 -.05.14.19.19 0 0 1 -.1.1h-.1-.12a.27.27 0 0 1 -.14-.14.35.35 0 0 1 0-.2 2.48 2.48 0 0 0 -.7-.22.54.54 0 0 0 -.31 0 .41.41 0 0 0 -.18.19.77.77 0 0 0 -.11.57zm4 1.74a1.08 1.08 0 0 0 .32.32 2.91 2.91 0 0 1 .3.17 1.36 1.36 0 0 1 -.41-.17l-.16-.13a.27.27 0 0 1 -.09-.19zm-.52.49a.1.1 0 0 1 0 0 .07.07 0 0 1 .08 0 .25.25 0 0 1 0 .09v.64a1.11 1.11 0 0 1 0 .17s0-.06 0-.08a4.82 4.82 0 0 1 -.1-.75zm-1-1.55a.09.09 0 0 1 .07 0h.06a1.11 1.11 0 0 0 .32.21s.07 0 .09 0 0 0 0-.08v-.14a.64.64 0 0 0 -.14-.22l-.09-.1a.34.34 0 0 1 -.09-.08.07.07 0 0 1 0-.05 1.85 1.85 0 0 1 .33.46 1.22 1.22 0 0 1 .14.65c-.25-.17-.51-.37-.75-.56l-.08-.08a.11.11 0 0 1 .11-.01z"
        fill="#d4af3a" />
    <path
        d="m18.23 13.29a.86.86 0 0 1 -.6.18 1.63 1.63 0 0 1 -.63-.17 2.45 2.45 0 0 0 -.51-.2.86.86 0 0 0 -.42 0 .11.11 0 0 1 -.11 0 .08.08 0 0 1 0-.09.35.35 0 0 1 .05-.08.71.71 0 0 1 .51-.24 1.24 1.24 0 0 1 .57.09 2.27 2.27 0 0 1 .64.37s.05 0 .05 0l-.15-.15s.13 0 .15 0a.9.9 0 0 0 .16 0 1.42 1.42 0 0 0 .29-.1l.14-.07s.1-.09.11 0a.66.66 0 0 1 -.05.28.62.62 0 0 1 -.2.18z"
        fill="#d4af3a" />
    <path d="m16.22 13.39a.15.15 0 0 0 .15.15.16.16 0 0 0 .16-.15.16.16 0 0 0 -.16-.16.16.16 0 0 0 -.15.16z"
        fill="#d4af3a" />
    <path
        d="m15.21 14.15-.39.08a.85.85 0 0 1 -.39 0 .59.59 0 0 1 -.39-.46.44.44 0 0 0 0 .51.69.69 0 0 0 .46.27 1.41 1.41 0 0 0 .54-.06c.18 0 .35-.09.53-.12a.89.89 0 0 1 .54.06 1.09 1.09 0 0 0 .23.09.2.2 0 0 0 .13 0s.07-.06.05-.1a.41.41 0 0 0 -.13-.08l-.15-.06a1.73 1.73 0 0 0 -.64-.12 1.53 1.53 0 0 0 -.39-.01z"
        fill="#c52126" />
    <path
        d="m23.58 20.36a.65.65 0 0 0 .59-.06 3.64 3.64 0 0 0 .34-.34.79.79 0 0 1 .5-.13.91.91 0 0 0 .23 0 1.21 1.21 0 0 0 .25-.08.51.51 0 0 0 .27-.29.48.48 0 0 0 0-.24.53.53 0 0 0 -.07-.28.84.84 0 0 0 -.38-.29.87.87 0 0 1 -.51-.62 1 1 0 0 1 .26-.68c.15-.2.3-.39.46-.57s.31-.38.45-.58l.17-.28.07-.14v-.07s0-.06 0 0a.6.6 0 0 1 .08.29v.31a0 0 0 0 0 0 0 1.14 1.14 0 0 1 .23-.15.82.82 0 0 1 .3-.07.32.32 0 0 1 .25.07.34.34 0 0 1 .08.32.62.62 0 0 1 -.18.29 1 1 0 0 0 -.2.21 0 0 0 0 0 .23.02.05.05 0 0 0 0 0h.06l.16-.08a1 1 0 0 0 .13-.09.77.77 0 0 1 .33-.12.32.32 0 0 1 .33.17.33.33 0 0 1 -.06.29.87.87 0 0 1 -.17.16c-.07.06-.17.09-.24.14a0 0 0 0 0 0 0s0 0 .06 0c.18 0 .37-.08.53 0a.2.2 0 0 1 .11.26.66.66 0 0 1 -.2.24 1.18 1.18 0 0 1 -.28.12l-.23.06s-.07 0-.06.06.07 0 .1 0a.38.38 0 0 1 .15 0 .65.65 0 0 1 .2.05.26.26 0 0 1 .13.18.28.28 0 0 1 -.1.24.88.88 0 0 1 -.23.14 1.43 1.43 0 0 1 -.27.09h-.15s-.09 0-.07.05a.09.09 0 0 0 .06 0 .8.8 0 0 1 .31.14.33.33 0 0 1 0 .44.47.47 0 0 1 -.43.15c-.09 0-.17 0-.25-.06h-.07a.08.08 0 0 0 0 .1s.05.05.08.06h.11a.21.21 0 0 1 .08.2.26.26 0 0 1 -.13.18.41.41 0 0 1 -.22.07.74.74 0 0 1 -.48-.1s-.08 0-.11 0 0 .08 0 .1.24.11.29.23 0 .2-.07.29a.51.51 0 0 1 -.63.11.67.67 0 0 0 -.12-.06.11.11 0 0 0 -.12 0v.16a.45.45 0 0 1 0 .36.36.36 0 0 1 -.24.25.42.42 0 0 1 -.31 0 1.24 1.24 0 0 1 -.26-.19s-.1-.06-.14 0 0 .14 0 .19a.37.37 0 0 1 0 .21.41.41 0 0 1 -.22.19.49.49 0 0 1 -.29 0 .81.81 0 0 1 -.27-.11 1.06 1.06 0 0 1 -.33-.45 1.75 1.75 0 0 1 .11-1.06z"
        fill="#d4af3a" />
    <path d="m26.62 16.65a1.61 1.61 0 0 1 .3-.21 1.55 1.55 0 0 0 -.24.27 0 0 0 0 1 -.07-.05z" fill="#b96b29" />
    <path d="m27.24 17.25.38-.18-.34.26s-.05 0-.06 0 0-.05 0-.06z" fill="#b96b29" />
    <path d="m27.21 17.92a.61.61 0 0 1 .13 0h.13.25l-.25.06a1.13 1.13 0 0 0 -.22.08s-.05 0-.06 0a0 0 0 0 1 0-.06z"
        fill="#b96b29" />
    <path d="m27.06 18.65.36.14-.42-.06a.05.05 0 0 1 0-.05.07.07 0 0 1 .05 0z" fill="#b96b29" />
    <path d="m26.77 19.3a2.31 2.31 0 0 0 .35.18 2.36 2.36 0 0 1 -.38-.1s0 0 0-.06a0 0 0 0 1 .06 0z" fill="#b96b29" />
    <path d="m26.1 19.86.39.28-.44-.2a0 0 0 1 1 0-.08z" fill="#b96b29" />
    <path d="m25.49 20.4a3.87 3.87 0 0 0 .45.35 3.53 3.53 0 0 1 -.5-.28 0 0 0 0 1 0-.06 0 0 0 0 1 .06 0z"
        fill="#b96b29" />
    <path
        d="m22.23 10.22a2 2 0 0 0 -.34-.61 2.85 2.85 0 0 0 -.23-.26l-.12-.1-.11-.08s-.1-.06-.11 0 0 0 0 0 0 .05 0 .07a.16.16 0 0 1 -.09.07.18.18 0 0 1 -.23-.08.17.17 0 0 1 0-.18s0 0 0 0v-.13l-.13-.05a.29.29 0 0 0 -.16 0 .16.16 0 0 0 -.09.13v.17l.17.1.32.23.15.15a1.07 1.07 0 0 1 .3.77v.33a.17.17 0 0 0 0 .12.22.22 0 0 0 .1.09.5.5 0 0 0 .34.04.46.46 0 0 0 .26-.25.81.81 0 0 0 -.03-.53zm-.61-.33a.21.21 0 1 1 .21-.21.21.21 0 0 1 -.21.21zm.26.63a.24.24 0 1 1 0-.48.24.24 0 1 1 0 .48z"
        fill="#d4af3a" />
    <path d="m24.72 20.93c.11.11.23.23.35.33a3.62 3.62 0 0 1 -.41-.27 0 0 0 0 1 0-.06 0 0 0 0 1 .05 0z"
        fill="#b96b29" />
    <path d="m24.23 21.8-.34-.31a0 0 0 0 1 .06-.06 3.18 3.18 0 0 0 .28.37z" fill="#b96b29" />
    <path d="m27.07 15.75a5.36 5.36 0 0 1 .4-.43 4.07 4.07 0 0 0 -.33.48 0 0 0 0 1 -.06 0 0 0 0 0 1 0-.06z"
        fill="#b96b29" />
    <path d="m27.55 16.33a1.73 1.73 0 0 0 .4-.41 1.57 1.57 0 0 1 -.34.47s-.05 0-.06 0 0 0 0-.06z" fill="#b96b29" />
    <path d="m28.12 16.73a2 2 0 0 0 .26-.25 3.28 3.28 0 0 1 -.2.31 0 0 0 0 1 -.06 0s0 0 0-.06z" fill="#b96b29" />
    <path d="m28.27 17.41a1 1 0 0 0 .3-.21 1.75 1.75 0 0 1 -.26.29 0 0 0 0 1 -.06 0s0-.05 0-.06z" fill="#b96b29" />
    <path d="m28.23 18.25.42-.26-.37.33a0 0 0 0 1 -.06 0s0-.05 0-.06z" fill="#b96b29" />
    <path d="m28.23 19h.23a1 1 0 0 1 -.21.09 0 0 0 0 1 -.06 0 .07.07 0 0 1 0-.06z" fill="#b96b29" />
    <path d="m27.92 19.83a1.14 1.14 0 0 0 .41 0 1 1 0 0 1 -.42.09 0 0 0 0 1 0 0z" fill="#b96b29" />
    <path d="m27.2 20.7a1.15 1.15 0 0 0 .61.07 1.16 1.16 0 0 1 -.64 0s0 0 0-.05 0 0 .05 0z" fill="#b96b29" />
    <path
        d="m12.73 13.66v-.07c0-.13-.09-.27-.13-.4s-.06-.25-.09-.38a7.63 7.63 0 0 1 -.17-.83 8 8 0 0 1 -.08-.84c0-.14 0-.28 0-.42s0-.13 0-.2v-.1s0-.05 0-.06-.06 0-.08.08a1.35 1.35 0 0 0 -.15.26c0 .08-.09.16-.13.25a2.52 2.52 0 0 0 -.17.53 4.79 4.79 0 0 0 -.08 1.31 3.73 3.73 0 0 0 0 .47c.05.26.1.53.17.79s.08.26.13.39.08.15 0 .15-.08-.13-.09-.16a5.3 5.3 0 0 1 -.56-1.43 8.17 8.17 0 0 1 -.14-.84c0-.15 0-.29 0-.43a2 2 0 0 1 0-.23 1.92 1.92 0 0 1 0-.24.38.38 0 0 0 -.09.13 3.84 3.84 0 0 0 -.37 1.82 7.2 7.2 0 0 0 .3 1.79 1.81 1.81 0 0 0 .57 1 1.25 1.25 0 0 1 -.6-.62 9.12 9.12 0 0 1 -.87-2.38 1.71 1.71 0 0 0 -.29.88 3.49 3.49 0 0 0 .28 1.56 3.78 3.78 0 0 0 .17.35c.05.12.14.23.19.35a1.6 1.6 0 0 0 .22.31c.09.11.18.22.26.34a.83.83 0 0 1 -.23-.15 5.94 5.94 0 0 1 -1.28-1.91 1.78 1.78 0 0 0 0 1 5 5 0 0 0 .33.92 3.5 3.5 0 0 0 1.39 1.35 3.48 3.48 0 0 1 -1.07-.66 11 11 0 0 1 -.88-.93 1.08 1.08 0 0 0 0 .59 1.8 1.8 0 0 0 .24.55 3 3 0 0 0 1.57 1.26 2.14 2.14 0 0 1 -.35-.06 3 3 0 0 1 -.85-.39 8.36 8.36 0 0 1 -.76-.57 1.85 1.85 0 0 0 .47 1.12 3.3 3.3 0 0 0 1 .7 8.76 8.76 0 0 0 1.19.4 5 5 0 0 1 -2.43-.86 2.73 2.73 0 0 0 .18.68 1.41 1.41 0 0 0 .43.54 2.22 2.22 0 0 0 .71.29l.52.13a2.24 2.24 0 0 0 .52.06 1.39 1.39 0 0 1 -.41 0 2.52 2.52 0 0 1 -.55-.08 5.45 5.45 0 0 1 -.82-.2 1.77 1.77 0 0 0 .26.67 1.44 1.44 0 0 0 .86.51c.33.07.68.08 1 .12a2.89 2.89 0 0 1 -1.34-.09.82.82 0 0 0 .2.63 1.13 1.13 0 0 0 .48.29 2.11 2.11 0 0 0 .5.1h.26a2.21 2.21 0 0 1 .25 0 .17.17 0 0 1 -.11.09.44.44 0 0 1 -.15.05l-.51.1a.77.77 0 0 0 .37.51.88.88 0 0 0 .24.11 1.09 1.09 0 0 0 .26 0 1 1 0 0 0 .25 0h.19l.46-.09a1.38 1.38 0 0 1 -.83.28.78.78 0 0 0 .35.32 1.93 1.93 0 0 0 1.47.13l-.22.23a.1.1 0 0 0 -.05.06.13.13 0 0 0 0 .1.31.31 0 0 0 .21.09 2.6 2.6 0 0 0 .68.05 1.09 1.09 0 0 0 .63-.24 2 2 0 0 1 .3-.28.16.16 0 0 1 0 .11c-.06.08-.13.16-.19.25a.36.36 0 0 0 -.08.12.13.13 0 0 0 0 .13.23.23 0 0 0 .15.06 1 1 0 0 0 .34 0 .62.62 0 0 0 .32-.14 2.82 2.82 0 0 0 .29-.39c0-.1-.11-.19-.15-.29a.59.59 0 0 1 0-.29 1 1 0 0 0 0-.43.19.19 0 0 0 -.12-.11.53.53 0 0 0 -.12 0 .35.35 0 0 1 -.28-.09 2.67 2.67 0 0 1 -.32-.43l-.37-.49c-.25-.33-.49-.66-.71-1a15.4 15.4 0 0 1 -1.82-6 12.09 12.09 0 0 1 -.09-1.32 1.62 1.62 0 0 1 .02-.34z"
        fill="#b96b29" />
    <path
        d="m12.61 13.62a11.53 11.53 0 0 1 -.44-3.25 3.06 3.06 0 0 0 -.5 1.53 6 6 0 0 0 .08 1.63 2.47 2.47 0 0 0 .2.69 1.21 1.21 0 0 0 .18.28 1.66 1.66 0 0 1 .15.33.29.29 0 0 1 -.2-.09.75.75 0 0 1 -.14-.17c-.07-.1-.16-.19-.23-.28a.51.51 0 0 1 -.09-.16l-.09-.19a5.28 5.28 0 0 1 -.24-.77 2.46 2.46 0 0 1 -.07-.29 11 11 0 0 1 -.15-1.51 1.55 1.55 0 0 0 -.26.62 4.17 4.17 0 0 0 -.06 1.65 7.08 7.08 0 0 0 .17.77 4.79 4.79 0 0 0 .24.73 6.29 6.29 0 0 0 .65 1.23 3.21 3.21 0 0 1 -1.16-1.44 8.79 8.79 0 0 1 -.5-1.58c0-.06 0-.12 0-.17s0-.08 0 0a.11.11 0 0 0 0 .09 3 3 0 0 0 -.08.41 4.21 4.21 0 0 0 .33 2 2.9 2.9 0 0 0 1.29 1.49.21.21 0 0 1 0 .11.08.08 0 0 1 -.06.08.13.13 0 0 1 -.08 0 4.17 4.17 0 0 1 -.55-.36 3.78 3.78 0 0 1 -1.2-1.4 6.44 6.44 0 0 1 -.4-.73 2.45 2.45 0 0 0 0 .54 2.21 2.21 0 0 0 .14.52 4.35 4.35 0 0 0 .25.59 3.32 3.32 0 0 0 1 1.13 11.23 11.23 0 0 0 1.26.81.53.53 0 0 0 -.12 0h-.13l-.25-.08-.48-.21a5 5 0 0 1 -.88-.55 5.18 5.18 0 0 1 -.76-.72l-.11-.15s-.07-.12-.11 0a.11.11 0 0 0 0 .08 2.24 2.24 0 0 0 .93 1.53 4.25 4.25 0 0 0 .93.52 9.34 9.34 0 0 0 1 .27 4.24 4.24 0 0 1 -3-1.06 1.81 1.81 0 0 0 .55.94 3.77 3.77 0 0 0 1.43.81 11.28 11.28 0 0 0 1.63.36 2.42 2.42 0 0 1 -.76.05 4.8 4.8 0 0 1 -.75-.09 5.2 5.2 0 0 1 -1.43-.51l-.36-.22a.76.76 0 0 0 .23.63 2.56 2.56 0 0 0 1.33.75 3.68 3.68 0 0 0 1.55 0 .69.69 0 0 1 -.37.23 2.12 2.12 0 0 1 -.44.06 5 5 0 0 1 -1.68-.36 1.44 1.44 0 0 0 .67.77 2.33 2.33 0 0 0 1 .24 3.55 3.55 0 0 0 1.7-.34.81.81 0 0 1 -.33.33 2.32 2.32 0 0 1 -.44.16 4.13 4.13 0 0 1 -1.85 0 1 1 0 0 0 .2.36 1.41 1.41 0 0 0 1 .42 2.41 2.41 0 0 0 1.05-.21 6.68 6.68 0 0 0 .93-.55.78.78 0 0 1 -.37.43 5.71 5.71 0 0 1 -1.78.75.87.87 0 0 0 .56.43 1.75 1.75 0 0 0 .72 0 3.62 3.62 0 0 0 1.86-1.05 3.18 3.18 0 0 1 -2.11 1.45.59.59 0 0 0 .28.18 1.28 1.28 0 0 0 .33.06 3.76 3.76 0 0 0 .58 0 1 1 0 0 0 .55-.18 1.43 1.43 0 0 0 .28-.27c.2-.23.38-.47.56-.71a4.11 4.11 0 0 1 -.89 1.36s-.09.09-.07.14.08.06.13.07a1.62 1.62 0 0 0 .79 0 1.14 1.14 0 0 0 .44-.34 2.27 2.27 0 0 0 .39-.58 4.24 4.24 0 0 0 .28-1.1 2.82 2.82 0 0 1 -.58 2 .13.13 0 0 0 0 .12c0 .05.07.09.13.1a.59.59 0 0 0 .49-.13 1 1 0 0 0 .29-.44 1.81 1.81 0 0 0 .07-.52 2.53 2.53 0 0 0 -.11-.91 1.42 1.42 0 0 0 -.51-.74 5.58 5.58 0 0 1 -2.05-2.65c-.23-.68-.32-1.4-.49-2.11a10 10 0 0 0 -.82-2.24c-.3-.41-.14-.94-.27-1.42z"
        fill="#d4af3a" />
    <path
        d="m12.36 14.33a1.35 1.35 0 0 1 -.18-.47 4.26 4.26 0 0 1 -.1-.49 5.57 5.57 0 0 1 0-1 4.62 4.62 0 0 0 .07 1 4.21 4.21 0 0 0 .12.48 1.25 1.25 0 0 0 .19.44s0 .05 0 .06a0 0 0 0 1 -.06 0z"
        fill="#b96b29" />
    <path
        d="m11.73 15.5a1.47 1.47 0 0 1 -.23-.5c-.06-.16-.11-.32-.16-.49s-.09-.32-.13-.49-.07-.33-.1-.5a6.78 6.78 0 0 0 .27 1l.18.48a1.45 1.45 0 0 0 .24.44 0 0 0 0 1 0 .05s0 0-.06 0z"
        fill="#b96b29" />
    <path
        d="m11.17 16.45a.67.67 0 0 0 -.11-.14l-.13-.14a2.2 2.2 0 0 1 -.21-.32 2.42 2.42 0 0 1 -.27-.72 2.67 2.67 0 0 0 .3.69 3.55 3.55 0 0 0 .23.31l.13.13a.67.67 0 0 1 .14.15s0 0 0 .06 0 0-.05 0z"
        fill="#b96b29" />
    <path d="m11.19 17.53a3.94 3.94 0 0 1 -1-1 3.71 3.71 0 0 0 1 .88s0 0 0 .06 0 0-.06 0z" fill="#b96b29" />
    <path d="m11.33 18.56a4.36 4.36 0 0 1 -1.22-.75 4.31 4.31 0 0 0 1.25.67.07.07 0 0 1 0 .06 0 0 0 0 1 -.06 0z"
        fill="#b96b29" />
    <path d="m11.87 19.42a4.29 4.29 0 0 1 -1.49-.42 4.3 4.3 0 0 0 1.5.37 0 0 0 0 1 0 0 0 0 0 0 1 -.05 0z"
        fill="#b96b29" />
    <path
        d="m12.17 20.43a2.77 2.77 0 0 1 -.76-.08c-.25-.06-.49-.13-.73-.21.24.06.49.13.74.17a3.15 3.15 0 0 0 .75 0 0 0 0 0 1 0 0s0 0 0 0z"
        fill="#b96b29" />
    <path d="m12.72 21.18a2.51 2.51 0 0 1 -1.15.12 2.53 2.53 0 0 0 1.12-.2 0 0 0 0 1 .06 0s0 0 0 .05z" fill="#b96b29" />
    <path d="m13.46 21.92a3.64 3.64 0 0 1 -1.11.33 3.25 3.25 0 0 0 1.07-.41 0 0 0 0 1 .05 0s0 0 0 .06z"
        fill="#b96b29" />
    <path d="m14.12 22.45a3.3 3.3 0 0 1 -.93.56 3.36 3.36 0 0 0 .87-.62s0 0 .06 0a0 0 0 0 1 0 .06z" fill="#b96b29" />
    <path d="m14.86 23.11a3.61 3.61 0 0 1 -.8.61 3.38 3.38 0 0 0 .74-.67s0 0 .06 0 0 .05 0 .06z" fill="#b96b29" />
    <path d="m16.61 23.93-.27.41.2-.45a0 0 0 0 1 .06 0 0 0 0 0 1 0 .05z" fill="#b96b29" />
    <path
        d="m14.14 16a5.3 5.3 0 0 1 -1.37-2.78.17.17 0 0 0 -.14 0 .27.27 0 0 0 -.09.12 1.89 1.89 0 0 0 -.28 1.31.76.76 0 0 1 -.17-.24c0-.08-.07-.17-.15-.2a.17.17 0 0 0 -.18.05c-.11.12-.07.28-.07.43v.53a.15.15 0 0 0 0 .07.16.16 0 0 0 -.14-.12.17.17 0 0 0 -.16.07.27.27 0 0 0 -.06.17 1.21 1.21 0 0 0 0 .19l.05.47c0-.05-.07-.07-.12-.07a.17.17 0 0 0 -.13.07.34.34 0 0 0 -.05.14.9.9 0 0 0 0 .4 2.43 2.43 0 0 0 .13.38.27.27 0 0 0 -.15.13.63.63 0 0 0 0 .19 1.41 1.41 0 0 0 0 .29 1.24 1.24 0 0 0 .12.32 2.47 2.47 0 0 0 .21.27.25.25 0 0 0 -.19.12.38.38 0 0 0 0 .21.78.78 0 0 0 .21.49 1.52 1.52 0 0 0 .44.31h-.18a.28.28 0 0 0 -.14.1.31.31 0 0 0 0 .21.63.63 0 0 0 .28.41 1.15 1.15 0 0 0 .48.13c-.11.06-.24.12-.27.24a.34.34 0 0 0 .05.28.83.83 0 0 0 .6.4.42.42 0 0 0 .06.39.71.71 0 0 0 .33.23c.12 0 .24.05.36.08s.05 0 .05.09a1.1 1.1 0 0 0 0 .18.41.41 0 0 0 .13.23.43.43 0 0 0 .23.1h.17a.28.28 0 0 0 -.12.33.38.38 0 0 0 .25.24.89.89 0 0 0 .36 0 .4.4 0 0 1 .19 0 .47.47 0 0 1 .11.21.63.63 0 0 0 .51.33 1.24 1.24 0 0 0 .63-.11 1 1 0 0 0 .62-1.41c-.1-.33-.28-.62-.41-.94a1.93 1.93 0 0 0 -.88-.86 2.11 2.11 0 0 1 -.91-.86 2.06 2.06 0 0 1 -.13-.74c0-.74-.05-1.64-.08-2.58z"
        fill="#b96b29" />
    <path
        d="m14 16a2.26 2.26 0 0 1 -.5-.64 5.68 5.68 0 0 1 -.64-1.28c-.06-.21-.1-.43-.15-.65a.06.06 0 0 0 0-.06s-.05 0-.07 0a1.45 1.45 0 0 0 -.24.52 3.81 3.81 0 0 0 -.08.59 1.29 1.29 0 0 0 .06.4 2.54 2.54 0 0 0 .32.55 1.19 1.19 0 0 1 .16.23.16.16 0 0 1 0 .07.36.36 0 0 1 0 .09.05.05 0 0 1 .14.18l-.06-.08a5.79 5.79 0 0 1 -.94-1.47s0-.08-.08-.08a1 1 0 0 0 -.12.76 2 2 0 0 0 .35.69c.13.17.27.33.4.49s.07.06.07.11 0 0 0 0h-.07l-.05-.05a4.25 4.25 0 0 1 -.8-1s-.06-.08-.1-.06 0 0 0 0a1 1 0 0 0 0 .76 2 2 0 0 0 .19.31l.13.14.12.13.26.27s0 0 0 0a3.51 3.51 0 0 1 -.75-.74s-.05 0-.08-.06a.07.07 0 0 0 -.09 0 .1.1 0 0 0 -.05.1 1.07 1.07 0 0 0 .12.63 1.64 1.64 0 0 0 .41.5c.11.09.22.21.33.3a0 0 0 0 1 0 0 6.84 6.84 0 0 1 -.72-.47s-.08-.05-.11 0 0 .16 0 .21a1.21 1.21 0 0 0 .05.18 1.33 1.33 0 0 0 .15.32.42.42 0 0 0 .09.14v.05l.07.06a2 2 0 0 0 .48.33.34.34 0 0 1 .16.1 0 0 0 0 1 0 0l-.28-.1-.27-.11-.21-.07s-.06 0-.09 0a.12.12 0 0 0 0 .08.66.66 0 0 0 .13.43 1.12 1.12 0 0 0 .42.33l.26.09h.12a.24.24 0 0 1 .12 0 0 0 0 0 1 0 0s0 0 0 0h-.18-.18a1 1 0 0 0 -.25 0 .2.2 0 0 0 -.16.16.28.28 0 0 0 .07.17 1 1 0 0 0 .46.31 2.45 2.45 0 0 0 .55.13s.09 0 .08.06a.07.07 0 0 1 -.07 0h-.3a.44.44 0 0 0 -.27.09.27.27 0 0 0 0 .31.56.56 0 0 0 .27.18 1.32 1.32 0 0 0 .44.08h.54s0 .07 0 .09-.08 0-.11 0h-.45-.19a.29.29 0 0 0 -.2.17.25.25 0 0 0 .07.2.72.72 0 0 0 .19.11l.2.05h.2.19a1.46 1.46 0 0 0 .42 0h.12s0 0 0 0a.56.56 0 0 1 -.19.09.8.8 0 0 0 -.23.1.19.19 0 0 0 -.07.23.25.25 0 0 0 .18.1 1.9 1.9 0 0 0 .41 0 .87.87 0 0 0 .35-.07.59.59 0 0 1 .14-.06s0 0 0 0a.11.11 0 0 1 -.07.11.88.88 0 0 1 -.2.09l-.22.07c-.09.05-.17.14-.15.23s.16.18.28.2a1.55 1.55 0 0 0 .43 0 3.06 3.06 0 0 0 .41-.1h.1.07a.41.41 0 0 1 .15-.07s0 0 .05 0a0 0 0 0 1 0 0 .28.28 0 0 1 -.21.17c-.12 0-.26.07-.32.18a.27.27 0 0 0 .08.32.53.53 0 0 0 .34.11 1.2 1.2 0 0 0 .74-.22.6.6 0 0 0 .2-.22.71.71 0 0 0 0-.41 7 7 0 0 1 -.2-1.87 6.51 6.51 0 0 1 -1.13-.31 2.31 2.31 0 0 1 -.73-1.2 4.46 4.46 0 0 1 0-1.41c.1-.48.19-1.11-.21-1.39z"
        fill="#d4af3a" />
    <path
        d="m16.92 20.27a.47.47 0 0 1 -.6-.15 1 1 0 0 0 -.13-.23.56.56 0 0 0 -.44-.13 1.17 1.17 0 0 1 -.56-.07.43.43 0 0 1 -.28-.44.49.49 0 0 1 .22-.29c.1-.07.22-.12.32-.2a.88.88 0 0 0 .36-.56.86.86 0 0 0 -.15-.66 17.47 17.47 0 0 1 -1.43-2c0-.05-.07-.1-.12-.06a.31.31 0 0 0 -.1.15.85.85 0 0 0 0 .23v.26l-.3-.12a.88.88 0 0 0 -.27-.06.37.37 0 0 0 -.25.06.47.47 0 0 0 -.17.33.48.48 0 0 0 .07.31c-.12 0-.24 0-.36 0a.41.41 0 0 0 -.31.17.36.36 0 0 0 -.05.21.5.5 0 0 0 .19.41.35.35 0 0 0 -.34.23.44.44 0 0 0 .06.4.6.6 0 0 0 .35.23.38.38 0 0 0 -.22.32.5.5 0 0 0 .15.38.67.67 0 0 0 .35.19 1 1 0 0 0 -.15.29.52.52 0 0 0 .15.44 1 1 0 0 0 .42.24.52.52 0 0 0 .2.39 1 1 0 0 0 .4.2.51.51 0 0 0 .13.37.67.67 0 0 0 .35.19 1.34 1.34 0 0 0 .4 0 .5.5 0 0 0 .13.52.57.57 0 0 0 .35.16.78.78 0 0 0 .37 0 .75.75 0 0 0 .69.46.84.84 0 0 0 .53-.26 1.24 1.24 0 0 0 .28-.53 1.72 1.72 0 0 0 -.24-1.38z"
        fill="#b96b29" />
    <path
        d="m16.92 20.36a.63.63 0 0 1 -.58-.06 2.19 2.19 0 0 1 -.34-.3.83.83 0 0 0 -.51-.13.78.78 0 0 1 -.22 0 1.12 1.12 0 0 1 -.26-.08.55.55 0 0 1 -.27-.29.48.48 0 0 1 0-.24.53.53 0 0 1 .07-.28.84.84 0 0 1 .38-.29.83.83 0 0 0 .51-.62 1 1 0 0 0 -.26-.68c-.14-.2-.3-.39-.45-.57a6 6 0 0 1 -.45-.58 2.61 2.61 0 0 1 -.17-.28s-.05-.09-.08-.14v-.07s0-.06 0 0a.59.59 0 0 0 -.07.29v.31s0 0 0 0a.91.91 0 0 0 -.23-.15.73.73 0 0 0 -.3-.07.32.32 0 0 0 -.25.07.34.34 0 0 0 -.08.32.62.62 0 0 0 .18.29 1 1 0 0 1 .21.21.09.09 0 0 1 0 .07.06.06 0 0 1 -.06 0h-.05l-.38-.09a1 1 0 0 1 -.13-.09.78.78 0 0 0 -.32-.12.32.32 0 0 0 -.34.17.33.33 0 0 0 .06.29 1.29 1.29 0 0 0 .17.16 2 2 0 0 0 .25.14 0 0 0 0 1 0 0s0 0-.06 0c-.17 0-.36-.08-.53 0a.2.2 0 0 0 -.11.26.66.66 0 0 0 .2.24 1.39 1.39 0 0 0 .28.12l.23.06s.07 0 .06.06-.06 0-.09 0a.43.43 0 0 0 -.16 0 .65.65 0 0 0 -.2.05.26.26 0 0 0 -.13.18.31.31 0 0 0 .1.24 1.09 1.09 0 0 0 .23.14 1.31 1.31 0 0 0 .28.09h.14s.1 0 .07.05a.07.07 0 0 1 -.06 0 1 1 0 0 0 -.31.14.36.36 0 0 0 0 .44.48.48 0 0 0 .44.15c.08 0 .16 0 .24-.06h.08a.08.08 0 0 1 0 .1.18.18 0 0 1 -.09.06h-.1a.2.2 0 0 0 -.09.2.34.34 0 0 0 .13.18.41.41 0 0 0 .22.07.74.74 0 0 0 .48-.1s.09 0 .11 0a.07.07 0 0 1 0 .1c-.1.09-.25.11-.3.23s0 .2.08.29a.51.51 0 0 0 .63.11.6.6 0 0 1 .11-.06.1.1 0 0 1 .12 0v.16a.56.56 0 0 0 0 .36.38.38 0 0 0 .24.25.41.41 0 0 0 .31 0 1.65 1.65 0 0 0 .27-.19s.09-.06.13 0 0 .14 0 .19a.26.26 0 0 0 0 .21.35.35 0 0 0 .22.19.48.48 0 0 0 .29 0 .85.85 0 0 0 .26-.11 1.08 1.08 0 0 0 .34-.45 1.8 1.8 0 0 0 -.09-1.14z"
        fill="#d4af3a" />
    <path d="m13.82 16.71a1.22 1.22 0 0 0 -.24-.27 2.11 2.11 0 0 1 .31.21s0 0 0 .06 0 0-.06 0z" fill="#b96b29" />
    <path d="m13.22 17.33-.34-.26.39.18a0 0 0 1 1 0 .08z" fill="#b96b29" />
    <path d="m13.26 18a1.23 1.23 0 0 0 -.23-.08l-.25-.06h.26.12.14a0 0 0 0 1 0 .06 0 0 0 0 1 -.06 0z" fill="#b96b29" />
    <path d="m13.47 18.73-.39.06.36-.14a0 0 0 0 1 .06 0z" fill="#b96b29" />
    <path d="m13.76 19.38a2.36 2.36 0 0 1 -.38.1 2.31 2.31 0 0 0 .35-.18 0 0 0 0 1 .06 0 0 0 0 0 1 0 .06z"
        fill="#b96b29" />
    <path d="m14.45 19.94-.43.2.39-.28a0 0 0 0 1 .05 0 0 0 0 0 1 0 .06z" fill="#b96b29" />
    <path
        d="m20 9.35a1.56 1.56 0 0 0 -.71.47 1 1 0 0 0 -.21.81.54.54 0 0 1 0 .33.35.35 0 0 1 -.29.15.53.53 0 0 1 -.28 0 .48.48 0 0 1 -.34-.38 1 1 0 0 1 0-.53c.06-.16.15-.32.22-.49a1.81 1.81 0 0 0 -.39.29.69.69 0 0 0 -.2.46 1.35 1.35 0 0 0 .05.29.57.57 0 0 1 0 .29.26.26 0 0 1 -.21.18c-.12 0-.22-.11-.29-.23a.75.75 0 0 1 -.12-.39s-.06 0-.07-.07a.27.27 0 0 1 0-.12.18.18 0 0 1 .08-.14s.1 0 .13-.06a.16.16 0 0 0 0-.09v-.1a.24.24 0 0 1 .12-.14.33.33 0 0 1 0-.14.17.17 0 0 1 .18-.18h.15l.2-.11h.09a.24.24 0 0 0 .06-.08s0-.1.06-.13a.17.17 0 0 1 .14 0h.1s0 0 .07 0a.49.49 0 0 1 .17-.06 1.66 1.66 0 0 0 .22 0 2.14 2.14 0 0 0 .42-.16.76.76 0 0 1 .44-.09.14.14 0 0 1 .09 0 .22.22 0 0 1 .12.07 2.26 2.26 0 0 0 0 .35z"
        fill="#b96b29" />
    <path
        d="m18.26 10.73a.4.4 0 0 0 .26.25.47.47 0 0 0 .35 0 .22.22 0 0 0 .1-.09.25.25 0 0 0 0-.12c0-.11 0-.22 0-.33a1.07 1.07 0 0 1 .3-.77l.16-.15a2.49 2.49 0 0 1 .31-.23l.17-.1c.05 0 .05-.12 0-.17a.16.16 0 0 0 -.09-.13.26.26 0 0 0 -.15 0l-.14.05-.11.06a.08.08 0 0 1 0 0 .15.15 0 0 1 0 .18.18.18 0 0 1 -.22.09.16.16 0 0 1 -.09-.07.17.17 0 0 1 0-.07s0 0 0 0-.09 0-.11 0a.39.39 0 0 0 -.1.08l-.12.1a2 2 0 0 0 -.24.26 2 2 0 0 0 -.34.61.69.69 0 0 0 .06.55zm.42-1.05a.2.2 0 0 1 .2-.2.2.2 0 0 1 .21.2.21.21 0 0 1 -.21.21.2.2 0 0 1 -.2-.21zm-.29.6a.24.24 0 1 1 .24.24.24.24 0 0 1 -.24-.24z"
        fill="#d4af3a" />
    <path d="m15.07 20.47a3.15 3.15 0 0 1 -.51.28 3.87 3.87 0 0 0 .44-.35h.06s0 .05 0 .06z" fill="#b96b29" />
    <path d="m15.84 21a3.62 3.62 0 0 1 -.41.27 3.68 3.68 0 0 0 .35-.33s.05 0 .06 0 0 0 0 .06z" fill="#b96b29" />
    <path d="m16.27 21.8c.1-.12.19-.24.28-.37a.06.06 0 0 1 .06 0 0 0 0 0 1 0 .06z" fill="#b96b29" />
    <path d="m13.37 15.8a4.07 4.07 0 0 0 -.33-.48c.14.14.27.28.4.43a0 0 0 1 1 -.07.05z" fill="#b96b29" />
    <path d="m12.9 16.39a1.6 1.6 0 0 1 -.35-.47 1.73 1.73 0 0 0 .4.41s0 0 0 .06 0 0-.06 0z" fill="#b96b29" />
    <path d="m12.33 16.79a1.49 1.49 0 0 1 -.2-.31 1.24 1.24 0 0 0 .26.25s0 0 0 .06 0 0-.06 0z" fill="#b96b29" />
    <path
        d="m14.84 27.05a1.42 1.42 0 0 1 -.86.53c-.24.05-.48 0-.72.05a1.21 1.21 0 0 1 -.19 0h-.2-.39a1.12 1.12 0 0 0 -.32 0 1.1 1.1 0 0 0 -.5.38.23.23 0 0 0 -.17.07 1.18 1.18 0 0 0 -.24.26.51.51 0 0 0 -.07.34.53.53 0 0 0 .13.23l.07.07s.07 0 .08.07 0 .12 0 .16a.4.4 0 0 0 .13.33.76.76 0 0 0 .42.15.4.4 0 0 0 .12.33.42.42 0 0 0 .34.1c.1 0 .22-.08.3 0a.24.24 0 0 1 .07.2 5.15 5.15 0 0 1 0 .68c.11 0 .21-.09.32-.1s.31.16.48.19a1.19 1.19 0 0 0 0-.53 3 3 0 0 0 .36-.06c.05 0 .12 0 .12-.1s-.05-.09-.1-.11l-.41-.19a.32.32 0 0 1 -.2-.19.26.26 0 0 1 0-.15 1.73 1.73 0 0 1 .2-.32 10.06 10.06 0 0 1 .76-.94 3.42 3.42 0 0 1 .84-.53 1.52 1.52 0 0 0 .68-.67.65.65 0 0 0 0-.39.37.37 0 0 0 -.25-.28.53.53 0 0 0 -.33 0 1.23 1.23 0 0 0 -.47.42z"
        fill="#b96b29" />
    <path d="m12.19 17.49a1.33 1.33 0 0 1 -.25-.29.9.9 0 0 0 .3.21s0 0 0 .06a0 0 0 0 1 -.05 0z" fill="#b96b29" />
    <path d="m12.23 18.32-.38-.32.43.26a0 0 0 0 1 0 .06 0 0 0 0 1 -.06 0z" fill="#b96b29" />
    <path
        d="m20.79 10.29a3.06 3.06 0 0 0 -.07-.4 4 4 0 0 1 -.07-.78.74.74 0 0 0 0-.26.25.25 0 0 0 -.2-.15h-.33a.23.23 0 0 0 -.2.15.57.57 0 0 0 0 .26 4 4 0 0 1 -.08.78c0 .14-.06.27-.07.4a.88.88 0 0 0 .05.4.68.68 0 0 0 .33.36h.16.17a.71.71 0 0 0 .32-.36.77.77 0 0 0 -.01-.4z"
        fill="#b96b29" />
    <path
        d="m29.09 24.81h-.33a1.34 1.34 0 0 1 .14-.52l.23.16v-.41l.53.15s0 0 0 0a0 0 0 0 1 0 0l-.14.29a2 2 0 0 1 .34 0c-.06.15-.11.3-.16.45s0 .06 0 .06h-.05l-.21-.11v.44a.13.13 0 0 1 0 .06.13.13 0 0 1 -.09 0 .74.74 0 0 1 -.33 0c-.08 0-.2-.09-.21-.19s0-.07.06-.1a.58.58 0 0 0 .13-.09.65.65 0 0 0 .09-.19z"
        fill="#b96b29" />
    <path
        d="m29.21 24.74a.08.08 0 0 0 0-.08h-.33a.47.47 0 0 1 .09-.28 0 0 0 0 1 0 0 .76.76 0 0 0 .09.09.13.13 0 0 0 .13 0 .12.12 0 0 0 .08-.1.29.29 0 0 0 0-.13.29.29 0 0 1 0-.13 1 1 0 0 1 .28.07.05.05 0 0 1 .05 0 .09.09 0 0 1 0 .07v.05a.48.48 0 0 0 -.12.22h.34s0 0 0 .06a.76.76 0 0 1 -.09.18 0 0 0 0 1 0 0l-.11-.07h-.06-.07a.13.13 0 0 0 0 .1 1.71 1.71 0 0 1 0 .32.08.08 0 0 1 0 .05h-.05-.15s-.1 0-.12-.05 0-.07 0-.1l.07-.15c-.08 0-.05-.06-.03-.12z"
        fill="#d4af3a" />
    <path d="m12.25 19a1 1 0 0 1 -.21-.09h.22a0 0 0 0 1 0 0 0 0 0 0 1 0 .05z" fill="#b96b29" />
    <path d="m12.59 19.91a.91.91 0 0 1 -.41-.09 1.08 1.08 0 0 0 .4 0 0 0 0 0 1 .05 0 0 0 0 0 1 0 .05z" fill="#b96b29" />
    <path d="m13.33 20.78a1.16 1.16 0 0 1 -.64 0 1.15 1.15 0 0 0 .61-.07 0 0 0 0 1 0 .08z" fill="#b96b29" />
    <path d="m13.87 21.38a.87.87 0 0 1 -.57.07.82.82 0 0 0 .53-.14 0 0 0 0 1 .06 0s0 .05 0 .06z" fill="#b96b29" />
    <path d="m14.54 21.86a1.59 1.59 0 0 1 -.43.26 1.26 1.26 0 0 0 .37-.32 0 0 0 0 1 .06 0s0 0 0 .06z" fill="#b96b29" />
    <path d="m15.12 22.44a1.05 1.05 0 0 1 -.47.21 1 1 0 0 0 .41-.27s0 0 .06 0 0 0 0 .06z" fill="#b96b29" />
    <path
        d="m12.27 28.47a.32.32 0 0 1 -.4.08.41.41 0 0 1 -.16-.39.55.55 0 0 1 .25-.35.86.86 0 0 1 .42-.13 2.13 2.13 0 0 1 .44 0 5.13 5.13 0 0 0 1 0 1.75 1.75 0 0 0 .88-.35 5.27 5.27 0 0 1 .56-.5.25.25 0 0 1 .44.21.61.61 0 0 1 -.08.4 1 1 0 0 1 -.41.3 4.47 4.47 0 0 0 -1.57 1.26.47.47 0 0 0 -.23-.3.73.73 0 0 1 -.25.47 3 3 0 0 1 0-.43.82.82 0 0 0 0-.22.39.39 0 0 0 -.26-.27 1 1 0 0 1 0 .16.22.22 0 0 1 -.09.14.85.85 0 0 0 -.09-.44h.19a1.52 1.52 0 0 1 .2.06l.19.06a.41.41 0 0 0 .19 0l-.1-.05-.13-.05-.29-.08a1.53 1.53 0 0 0 -.3 0 .75.75 0 0 0 -.15 0 .32.32 0 0 0 -.14 0s0 0 0 0 0 .06 0 .09a.34.34 0 0 1 -.11.33z"
        fill="#d4af3a" />
    <path d="m30.36 26.61a1.56 1.56 0 1 1 -1.56-1.49 1.53 1.53 0 0 1 1.56 1.49z" fill="#b96b29" />
    <path
        d="m30.28 26.61a1.19 1.19 0 0 1 -.12.54 1 1 0 0 1 -.12.23 1.49 1.49 0 0 1 -1.24.62 1.46 1.46 0 0 1 -1.48-1.32v-.16a1.39 1.39 0 0 1 .21-.66.56.56 0 0 1 0-.08 1.51 1.51 0 0 1 1.22-.61h.12a1.48 1.48 0 0 1 .62.18l.09.06a1.4 1.4 0 0 1 .64 1v.1a.13.13 0 0 1 .06.1z"
        fill="#1d5e91" />
    <path d="m15.89 23a1.7 1.7 0 0 1 -.44.24 1.45 1.45 0 0 0 .39-.3 0 0 0 0 1 .06.06z" fill="#b96b29" />
    <path
        d="m15.7 23.57a2.63 2.63 0 0 1 -.3.38.85.85 0 0 1 -.41.26.92.92 0 0 0 .38-.29 2.75 2.75 0 0 0 .26-.4 0 0 0 0 1 .06 0s0 0 0 .06z"
        fill="#b96b29" />
    <path
        d="m30.28 26.61a1.35 1.35 0 0 1 -.24.77 1.31 1.31 0 0 1 -.28-.09c-.76-.29-1.65-.29-2.44-.58v-.1a1.37 1.37 0 0 1 .26-.8c.28.08.55.15.83.21a.29.29 0 0 0 .13 0s.05-.07.07-.11c.07-.24.13-.47.2-.7a1.42 1.42 0 0 1 .82.25c0 .12-.08.25-.11.38s-.08.26-.12.39l.4.09.45.12c.02.06.03.12.03.17z"
        fill="#b96b29" />
    <path
        d="m30.28 26.61a1.19 1.19 0 0 1 -.12.54h-.14l-2.36-.47a1 1 0 0 1 -.34-.11 1.39 1.39 0 0 1 .21-.66l1 .25a.14.14 0 0 0 .11 0s.05-.06.07-.1l.24-.83a1.48 1.48 0 0 1 .62.18l-.27.9c.33.1.66.19 1 .26a.13.13 0 0 1 -.02.04z"
        fill="#d4af3a" />
    <path
        d="m16.87 24.13a1.65 1.65 0 0 1 -.62 1.08 2.12 2.12 0 0 1 -.66.36l-.24.08h-.12-.11a.06.06 0 0 0 0 .11.76.76 0 0 0 .11.14s.06.07 0 .1h-.05-.15l-.21.06-.41.11s-.06 0-.06 0 0 0 0 .05a.83.83 0 0 0 .16.09.19.19 0 0 1 .11.15.18.18 0 0 1 -.12.15l-.37.22a.92.92 0 0 0 .52.21 1.54 1.54 0 0 0 .83-.33 2 2 0 0 0 -.14 1.2.2.2 0 0 0 .08.14.13.13 0 0 0 .12 0 .23.23 0 0 0 .1-.07 5.65 5.65 0 0 1 1.11-.71.88.88 0 0 1 .12.21.23.23 0 0 0 .19.11.19.19 0 0 0 .13-.07 1.42 1.42 0 0 0 .25-.34 7.41 7.41 0 0 1 1.2-1.42 1.15 1.15 0 0 0 .21-.23.33.33 0 0 0 0-.29c-.19-.49-.92-.48-1.38-.73a2.55 2.55 0 0 1 -.6-.38z"
        fill="#b96b29" />
    <path
        d="m16.59 25-.09.08a2.23 2.23 0 0 1 -.42.39 1.14 1.14 0 0 1 -.3.13 3.29 3.29 0 0 1 -.43.09 1.14 1.14 0 0 0 .75.13c.17 0 .34-.09.52-.12a.46.46 0 0 1 -.29.15 7 7 0 0 1 -.8.07 1.8 1.8 0 0 0 1.3.22 1.27 1.27 0 0 0 .16 1.3 4.86 4.86 0 0 1 .27-.92 6.63 6.63 0 0 0 -.11.76l.28-.33a8.77 8.77 0 0 1 1.15-1.29l-.42-.2h-.06-.06a3.12 3.12 0 0 0 -.47.49.71.71 0 0 1 .16-.34 3.31 3.31 0 0 1 .26-.27 2.27 2.27 0 0 1 -.57-.31h-.06a.64.64 0 0 1 -.35.3 1.31 1.31 0 0 0 .21-.36.22.22 0 0 0 0-.11.19.19 0 0 0 -.08-.1l-.14-.06-.08-.06-.06-.05a0 0 0 0 0 0 0s0 0 0 0a.83.83 0 0 1 -.08.22l-.06.09a.86.86 0 0 1 -.13.1z"
        fill="#d4af3a" />
    <path
        d="m16.7 27.17s0 0 0-.06v-.11a1 1 0 0 1 0-.17.78.78 0 0 0 -.07-.3c0-.08-.14.07-.17.1a1.6 1.6 0 0 1 -.39.43 1 1 0 0 1 .06-.16 1.19 1.19 0 0 1 .09-.15 2 2 0 0 1 .2-.28s0 0 0 0-.05 0-.07 0h-.1-.19a1.86 1.86 0 0 1 -.37-.14l-.12-.06a.53.53 0 0 0 -.17-.08h-.15l-.41.14s-.07 0-.07.06 0 .05.05.06l.13.06h.07.05a1.71 1.71 0 0 0 .3.09h.12.24a.07.07 0 0 1 0 .05.14.14 0 0 1 0 .06c0 .07-.09.13-.13.21a2 2 0 0 0 -.13.34 1.7 1.7 0 0 0 -.05.71 3.46 3.46 0 0 1 .6-.47l.33-.19.17-.09h.08z"
        fill="#d4af3a" />
    <path
        d="m14.91 26.72a.16.16 0 0 0 -.09 0h-.05a1.29 1.29 0 0 1 -.35.22h.47.11a.41.41 0 0 0 .11-.07s.09-.06.06-.08 0 0-.06 0h-.08z"
        fill="#d4af3a" />
    <path d="m26.67 21.31a.82.82 0 0 0 .53.14.87.87 0 0 1 -.57-.07 0 0 0 0 1 0-.05 0 0 0 0 1 .06 0z" fill="#b96b29" />
    <path
        d="m26.7 27.67.29.21.09.05s.08 0 .1 0a.06.06 0 0 0 0-.09.73.73 0 0 0 -.16-.36 2.11 2.11 0 0 1 -.21-.31.44.44 0 0 1 0-.37c.05-.09.13-.14.18-.22a1.14 1.14 0 0 0 .09-.26.33.33 0 0 1 .16-.22.12.12 0 0 1 .1 0c.05 0 0 .13 0 .19a.67.67 0 0 0 0 .28 1.34 1.34 0 0 1 .09.26 1 1 0 0 0 .11.29 1.25 1.25 0 0 0 .36.4.7.7 0 0 0 .53.08.83.83 0 0 0 .47-.45 1.19 1.19 0 0 1 .12-.22l.11-.08s.09 0 .12 0 0-.06 0-.1v-.18s0-.08.05-.09.05 0 .07 0a.52.52 0 0 1 .17.38.44.44 0 0 0 0 .16l.08.09a.24.24 0 0 1 .06.23.27.27 0 0 1 -.17.16.85.85 0 0 0 -.19.1.18.18 0 0 0 -.05.19.17.17 0 0 0 .21.08.7.7 0 0 0 .52-.37.64.64 0 0 0 .08-.19c0-.06.05-.11.07-.17a.94.94 0 0 1 .11-.36.09.09 0 0 1 .05 0 .05.05 0 0 1 .05 0 .37.37 0 0 1 .1.22 1.92 1.92 0 0 1 0 .24.47.47 0 0 1 .07.55.93.93 0 0 1 -.46.34 14 14 0 0 1 -2.36.81 1.75 1.75 0 0 1 -.33 0 1 1 0 0 1 -.34-.07 2.24 2.24 0 0 1 -.46-.35 2.47 2.47 0 0 0 -.87-.4 1.94 1.94 0 0 1 -.45-.14.93.93 0 0 1 -.32-.24 1.5 1.5 0 0 1 -.18-.5 5.54 5.54 0 0 1 -.07-.57.2.2 0 0 1 0-.13.17.17 0 0 1 .14-.1.49.49 0 0 1 .4.12l.69.5z"
        fill="#b96b29" />
    <path
        d="m25.78 27.1a.18.18 0 0 0 0 .1s.06.05.09.07a1.88 1.88 0 0 1 .23.16l.44.36a2.15 2.15 0 0 1 .24.18.7.7 0 0 0 .28.12.17.17 0 0 0 .14 0 .14.14 0 0 0 .06-.13.71.71 0 0 0 -.23-.5.86.86 0 0 1 -.25-.49.43.43 0 0 1 .1-.27c.06-.07.15-.13.23-.1a.59.59 0 0 1 .21.26 2 2 0 0 1 .11.35.83.83 0 0 0 .31.55.69.69 0 0 0 .4.08.85.85 0 0 0 .71-.35c.1-.18.11-.42.29-.52a.28.28 0 0 1 .39.37.89.89 0 0 1 -.29.25.34.34 0 0 0 -.19.31.23.23 0 0 0 .15.17.39.39 0 0 0 .24 0 .81.81 0 0 0 .63-.57c0-.1 0-.23.14-.27s.21.05.25.14a.46.46 0 0 1 -.14.48 1.07 1.07 0 0 1 -.45.26 18.81 18.81 0 0 1 -2.1.63 1.24 1.24 0 0 1 -.38.05.73.73 0 0 1 -.35-.12l-.37-.22-.67-.45-.47-.23a2.77 2.77 0 0 1 -.55-.33 1.08 1.08 0 0 1 -.33-.73.22.22 0 0 1 0-.14.25.25 0 0 1 .12-.08.82.82 0 0 1 .59-.07.62.62 0 0 1 .27.26 1.6 1.6 0 0 1 .1.23v.1.05z"
        fill="#d4af3a" />
    <path
        d="m24.16 30.19c0-.08-.11-.13-.19-.17a2.71 2.71 0 0 1 -.37-.21l-.23-.17a1.18 1.18 0 0 1 -.21-.18 2.64 2.64 0 0 1 -.34-.41.73.73 0 0 1 -.1-.28 1 1 0 0 0 0-.3 1.48 1.48 0 0 0 -.43-.56l-.14-.32-1.85-.11-1.85.11-.14.32a1.59 1.59 0 0 0 -.43.56 1.57 1.57 0 0 0 0 .3.92.92 0 0 1 -.09.28 3.44 3.44 0 0 1 -.35.41.74.74 0 0 1 -.21.18l-.23.17a2.71 2.71 0 0 1 -.37.21c-.08 0-.17.09-.19.17a.24.24 0 0 0 .13.21 1.25 1.25 0 0 0 .83.24 1 1 0 0 0 -.21.71.08.08 0 0 0 0 .08s.06 0 .1 0a1.53 1.53 0 0 0 .69-.2 2 2 0 0 0 0 .49c0 .07 0 .15.09.17s.1 0 .16 0l.22-.08.46-.17a.8.8 0 0 0 0 .57.6.6 0 0 0 .13.25c0 .06.13.18.21.19a.12.12 0 0 0 .1-.08.71.71 0 0 1 .1-.14 2 2 0 0 1 .22-.27 2.25 2.25 0 0 0 .7 1.22 2.25 2.25 0 0 0 .7-1.22 1.44 1.44 0 0 1 .22.27.71.71 0 0 1 .1.14s.05.08.1.08.17-.13.22-.19a1 1 0 0 0 .13-.25.85.85 0 0 0 0-.57l.46.17.23.08c.05 0 .09.06.16 0s.08-.1.08-.17a1.61 1.61 0 0 0 0-.49 1.53 1.53 0 0 0 .69.2.14.14 0 0 0 .11 0s0-.05 0-.08a1.11 1.11 0 0 0 -.22-.71 1.23 1.23 0 0 0 .65-.24.24.24 0 0 0 .16-.21z"
        fill="#b96b29" />
    <path
        d="m22.57 28.74a1.36 1.36 0 0 0 -.06-.29 1.33 1.33 0 0 0 -.33-.49l-.27-.46-.91-.05-.78.78-.77-.78-.89.05-.27.46a1.19 1.19 0 0 0 -.32.49 1 1 0 0 0 -.07.29c0 .06 0 .19.05.23s.07 0 .1 0a.83.83 0 0 0 .28-.21l.05-.05a.06.06 0 0 1 .06 0 .13.13 0 0 1 0 .06 2.54 2.54 0 0 1 0 .29.5.5 0 0 0 0 .27s0 .14.08.16.14 0 .18-.08l.19-.18s.13-.11.13 0a.13.13 0 0 1 0 .06 1 1 0 0 0 -.05.35.73.73 0 0 0 .03.36c.09.14.28-.16.32-.22a1.85 1.85 0 0 0 .19-.37s0-.09.05-.11h.06a0 0 0 0 1 0 0v.17.22a3.12 3.12 0 0 0 .15.43c.06.15.18.4.38.4s.32-.25.39-.4a2.16 2.16 0 0 0 .14-.43v-.22c0-.06 0-.12 0-.17a0 0 0 0 1 0 0h.06s0 .07.05.11a1.85 1.85 0 0 0 .19.37c.05.06.23.36.32.22a.62.62 0 0 0 .08-.33.83.83 0 0 0 -.05-.35s0 0 0-.06.1 0 .13 0l.2.18s.11.11.17.08.07-.12.09-.16a.62.62 0 0 0 0-.27 2.5 2.5 0 0 1 -.05-.29.13.13 0 0 1 0-.06.06.06 0 0 1 .06 0l.06.05a.79.79 0 0 0 .27.21s.08 0 .11 0 .21-.2.2-.26z"
        fill="#d4af3a" />
    <path
        d="m22.46 27.57a1.61 1.61 0 0 0 -.07-.43 3 3 0 0 0 -.54-.7 1.84 1.84 0 0 1 -.37-.9l-1.23-.25-1.25.25a2 2 0 0 1 -.38.9 2.7 2.7 0 0 0 -.53.7 1.08 1.08 0 0 0 -.07.43.5.5 0 0 0 0 .21.22.22 0 0 0 .26.18.43.43 0 0 0 .32-.14 1 1 0 0 0 0 .43.33.33 0 0 0 .25.28.32.32 0 0 0 .33-.16 1.54 1.54 0 0 0 .05.31.44.44 0 0 0 .16.26.28.28 0 0 0 .29 0 .44.44 0 0 0 .17-.27s.09.49.38.49.39-.49.39-.49a.42.42 0 0 0 .16.27.28.28 0 0 0 .29 0 .4.4 0 0 0 .16-.26.81.81 0 0 0 .05-.31.33.33 0 0 0 .33.16.34.34 0 0 0 .26-.28 1.23 1.23 0 0 0 0-.43.43.43 0 0 0 .32.14.21.21 0 0 0 .26-.18.75.75 0 0 0 .01-.21z"
        fill="#b96b29" />
    <path
        d="m22.14 27c-.13-.16-.28-.29-.4-.45a2.55 2.55 0 0 1 -.38-.86h-2.21a2.78 2.78 0 0 1 -.39.86c-.12.16-.27.29-.4.45a.9.9 0 0 0 -.23.55.32.32 0 0 0 0 .16.19.19 0 0 0 .13.1c.13 0 .23-.08.3-.18a1.58 1.58 0 0 0 .2-.36 2.17 2.17 0 0 0 -.07.57 1 1 0 0 0 0 .25.3.3 0 0 0 .14.19.12.12 0 0 0 .1 0 .14.14 0 0 0 .08-.07 1 1 0 0 0 .19-.27.62.62 0 0 1 .2-.25c0 .2-.1.4-.12.6a1.22 1.22 0 0 0 0 .27c0 .07 0 .19.09.23a.18.18 0 0 0 .16 0 .32.32 0 0 0 .11-.12 3.37 3.37 0 0 0 .23-.72s0 1 .33 1 .34-1 .34-1a3.35 3.35 0 0 0 .22.72.34.34 0 0 0 .12.12.18.18 0 0 0 .16 0c.06 0 .07-.16.08-.23a1.22 1.22 0 0 0 0-.27c0-.2-.1-.4-.13-.6a.62.62 0 0 1 .2.25 1 1 0 0 0 .19.27.18.18 0 0 0 .08.07.12.12 0 0 0 .1 0 .3.3 0 0 0 .14-.19.7.7 0 0 0 0-.25 1.82 1.82 0 0 0 -.07-.57 2.12 2.12 0 0 0 .21.36.3.3 0 0 0 .3.18.17.17 0 0 0 .12-.1.32.32 0 0 0 0-.16.9.9 0 0 0 -.12-.55z"
        fill="#d4af3a" />
    <path
        d="m21.71 26.92a.36.36 0 0 1 .14.1.49.49 0 0 1 .11.14.52.52 0 0 1 .06.16.37.37 0 0 1 0 .18 1 1 0 0 0 -.08-.15l-.07-.15-.09-.14z"
        fill="#b96b29" />
    <path
        d="m21.28 27.34.1.12.06.14a.58.58 0 0 1 0 .14.77.77 0 0 1 0 .15.35.35 0 0 1 -.08-.13.38.38 0 0 1 -.06-.13.78.78 0 0 1 -.05-.14.83.83 0 0 1 .03-.15z"
        fill="#b96b29" />
    <path
        d="m20.74 27.7a.16.16 0 0 1 .06.08.31.31 0 0 1 .05.1v.1a.4.4 0 0 1 0 .11l-.03-.09a.41.41 0 0 1 -.05-.09v-.1a.41.41 0 0 1 -.03-.11z"
        fill="#b96b29" />
    <path
        d="m18.79 26.92-.09.14a1 1 0 0 0 -.08.14l-.08.15-.08.15a.55.55 0 0 1 0-.18.52.52 0 0 1 .06-.16.76.76 0 0 1 .11-.14.36.36 0 0 1 .16-.1z"
        fill="#b96b29" />
    <path
        d="m19.22 27.34v.15l-.05.14-.06.13-.08.13a.38.38 0 0 1 0-.15.58.58 0 0 1 0-.14.91.91 0 0 1 .07-.14.47.47 0 0 1 .12-.12z"
        fill="#b96b29" />
    <path d="m19.77 27.7a.41.41 0 0 1 0 .11v.1.09l-.07.09a.4.4 0 0 1 0-.11v-.1a.31.31 0 0 1 .05-.1.27.27 0 0 1 .02-.08z"
        fill="#b96b29" />
    <path
        d="m20.25 27.75a.23.23 0 0 1 0 .11.31.31 0 0 1 0 .1.34.34 0 0 1 0 .1.23.23 0 0 1 0 .11.23.23 0 0 1 0-.11.34.34 0 0 1 0-.1.31.31 0 0 1 0-.1.45.45 0 0 1 0-.11z"
        fill="#b96b29" />
    <path d="m21.94 28.25.24.15-.28-.29s0 0 0 0 0 .07 0 .09.02.03.04.05z" fill="#b96b29" />
    <path
        d="m21.69 29a.51.51 0 0 0 -.07-.31c0-.08-.08-.16-.13-.24s-.12-.14-.13-.06 0 .07.06.09l.06.1a2.12 2.12 0 0 1 .11.21l.06.11s.05.1.04.1z"
        fill="#b96b29" />
    <path d="m21.2 29.36-.08-.36a.19.19 0 0 0 0-.08s0-.05-.07-.05 0 .18 0 .22a.78.78 0 0 0 .15.27z" fill="#b96b29" />
    <path d="m20.29 29.19v.61-.61a0 0 0 0 1 0 0z" fill="#b96b29" />
    <path
        d="m24 30.16c-.13-.06-.25-.14-.37-.21a2.8 2.8 0 0 1 -.53-.37 1.06 1.06 0 0 1 -.1-.12l-.1-.12a.84.84 0 0 1 -.13-.27s0 0 0 0 0 0-.05 0 0 0 0 .05a.11.11 0 0 1 -.06.09.18.18 0 0 1 -.1 0h-.1a.87.87 0 0 1 -.14-.12.1.1 0 0 0 -.07 0c-.05 0 0 .05 0 .08v.11a1.09 1.09 0 0 1 0 .18v.15a.28.28 0 0 1 0 .09.1.1 0 0 1 -.07.07h-.18c0 .05 0 .12.07.15a.91.91 0 0 0 .23.21l.25.15.2.14a1 1 0 0 0 .5.17 1.08 1.08 0 0 0 .72-.21s.05 0 .05-.05a.05.05 0 0 0 -.02-.17zm-1.21-.22a2.4 2.4 0 0 1 -.24-.22s-.08-.06-.08-.09.07-.05.1 0l.06.06a1.84 1.84 0 0 0 .55.45.85.85 0 0 1 -.4-.2z"
        fill="#d4af3a" />
    <path
        d="m23.26 31a.47.47 0 0 0 -.12-.19c-.31-.36-.77-.54-1.1-.87a.8.8 0 0 1 -.15-.17l-.27-.3a1.19 1.19 0 0 1 0 .42.37.37 0 0 1 -.08.18.37.37 0 0 1 -.13.12s0 0 0 .06a.36.36 0 0 0 0 .09 1.2 1.2 0 0 0 .26.29 2.39 2.39 0 0 0 .45.31 2.2 2.2 0 0 0 .79.34.31.31 0 0 0 .27-.07.22.22 0 0 0 .08-.21zm-.91-.31a1.41 1.41 0 0 1 -.35-.21l-.14-.15s-.06-.06-.06-.08.05 0 .07 0h.08a7.57 7.57 0 0 0 .63.49z"
        fill="#d4af3a" />
    <path
        d="m22.26 31c-.15-.12-.32-.21-.48-.32a1.16 1.16 0 0 0 -.16-.11l-.13-.1a1 1 0 0 1 -.18-.28.14.14 0 0 0 0-.08s0 0-.05 0-.07-.06-.1-.11a2.44 2.44 0 0 1 -.14-.28.1.1 0 0 0 0-.05s0 0 0 0a.5.5 0 0 1 0 .12 1.74 1.74 0 0 1 -.05.22 1.68 1.68 0 0 1 -.15.3c0 .08 0 .21.07.28a1.3 1.3 0 0 0 .38.49 2.12 2.12 0 0 0 .78.39 1.32 1.32 0 0 1 .38.13c.05 0 .1.08.16.06a.15.15 0 0 0 .09-.17.67.67 0 0 0 -.42-.49zm-.42.14h-.11a1.09 1.09 0 0 1 -.35-.19 1.85 1.85 0 0 1 -.14-.14s0 0 0-.08.06 0 .09 0l.06.05a2.11 2.11 0 0 0 .58.41z"
        fill="#d4af3a" />
    <path
        d="m21.62 31.73a.84.84 0 0 0 -.22-.31l-.47-.42a1 1 0 0 1 -.17-.23s-.05-.08-.07-.13v-.07a.14.14 0 0 0 0-.06s0 0 0 0a.05.05 0 0 0 0 0l-.13.12a.63.63 0 0 0 -.11.12.17.17 0 0 0 0 .12 1 1 0 0 0 .12.49 1 1 0 0 0 .14.24 2.58 2.58 0 0 0 .29.4l.42.33a.26.26 0 0 0 .09.05.15.15 0 0 0 .12-.07.57.57 0 0 0 0-.14.9.9 0 0 0 -.01-.44zm-.62-.14a1.38 1.38 0 0 1 -.26-.22s-.13-.22 0-.19l.05.05.06.05.12.09a1.37 1.37 0 0 1 .25.23.48.48 0 0 1 .13.32 2.5 2.5 0 0 0 -.35-.33z"
        fill="#d4af3a" />
    <path d="m18.56 28.25-.24.15.28-.29a0 0 0 0 1 0 0s0 .07 0 .09-.01.03-.04.05z" fill="#b96b29" />
    <path
        d="m18.81 29a.59.59 0 0 1 .07-.31c0-.08.08-.16.13-.24s.13-.14.13-.06 0 .07-.05.09l-.07.1a2.12 2.12 0 0 0 -.11.21.54.54 0 0 0 -.05.11.24.24 0 0 0 -.05.1z"
        fill="#b96b29" />
    <path d="m19.3 29.36.08-.35s0-.06 0-.08a.08.08 0 0 1 .07-.05c.12 0 0 .18 0 .22a.65.65 0 0 1 -.15.26z"
        fill="#b96b29" />
    <path d="m20.29 29.19v.61-.61a0 0 0 0 1 0 0z" fill="#b96b29" />
    <path
        d="m16.49 30.2s0 0 .05.05a1.09 1.09 0 0 0 .72.21 1 1 0 0 0 .5-.17l.2-.14a2.07 2.07 0 0 0 .25-.15 1 1 0 0 0 .24-.21s.12-.1.06-.15h-.07a.12.12 0 0 1 -.07-.07.28.28 0 0 1 0-.09c0-.05 0-.1 0-.15s0-.12 0-.18v-.15s0-.08 0-.08a.1.1 0 0 0 -.07 0l-.13.12h-.11a.16.16 0 0 1 -.1 0s-.06-.06-.05-.09a.07.07 0 0 0 0-.05 0 0 0 0 0 0 0s0 0 0 0a.68.68 0 0 1 -.13.27.94.94 0 0 0 -.09.12l-.11.12a3.08 3.08 0 0 1 -.52.37c-.12.07-.24.15-.37.21a.05.05 0 0 0 -.2.21zm.84-.09a1.77 1.77 0 0 0 .56-.45.17.17 0 0 1 .11-.06s.1 0 .09 0-.06.07-.08.09a1.26 1.26 0 0 1 -.24.22.77.77 0 0 1 -.44.2z"
        fill="#d4af3a" />
    <path
        d="m17.28 31.16a.32.32 0 0 0 .27.07 2.13 2.13 0 0 0 .79-.34 2.85 2.85 0 0 0 .46-.31 1.16 1.16 0 0 0 .25-.29l.05-.09s0 0 0-.06a.46.46 0 0 1 -.21-.3 1.19 1.19 0 0 1 0-.42l-.26.3-.15.17c-.34.33-.8.51-1.11.87a.47.47 0 0 0 -.12.19.22.22 0 0 0 .03.21zm.65-.45c.21-.15.42-.32.62-.49h.08s.07 0 .07 0 0 .06-.05.08l-.15.15a1.13 1.13 0 0 1 -.35.21z"
        fill="#d4af3a" />
    <path
        d="m18 31.52c0 .07 0 .15.09.17s.11 0 .16-.06a1.32 1.32 0 0 1 .38-.13 2 2 0 0 0 .78-.39 1.44 1.44 0 0 0 .39-.49c0-.07.1-.2.06-.28a2.8 2.8 0 0 1 -.15-.3 1.74 1.74 0 0 1 -.05-.22.49.49 0 0 1 0-.12s0 0 0 0a.1.1 0 0 0 0 .05 1.47 1.47 0 0 1 -.14.28.2.2 0 0 1 -.09.11h-.06a.56.56 0 0 0 0 .08.84.84 0 0 1 -.18.28l-.13.1a.72.72 0 0 0 -.15.11c-.16.11-.34.2-.49.32a.67.67 0 0 0 -.42.49zm.59-.34a2 2 0 0 0 .58-.41l.06-.05a.09.09 0 0 1 .1 0s0 .06 0 .08a1 1 0 0 1 -.49.33h-.11z"
        fill="#d4af3a" />
    <path
        d="m18.88 32.13a.57.57 0 0 0 0 .14.17.17 0 0 0 .12.07.19.19 0 0 0 .09-.05l.42-.33a2.58 2.58 0 0 0 .38-.36 1 1 0 0 0 .15-.24 1.17 1.17 0 0 0 .11-.49.17.17 0 0 0 0-.12 1.27 1.27 0 0 0 -.1-.12l-.14-.12a.05.05 0 0 0 0 0s0 0 0 .06v.07a.54.54 0 0 1 -.07.13.76.76 0 0 1 -.17.23l-.47.42a.84.84 0 0 0 -.22.31.9.9 0 0 0 -.1.4zm.29-.21a.54.54 0 0 1 .13-.32 1.16 1.16 0 0 1 .26-.23l.11-.09.06-.05.05-.05c.1 0 0 .16 0 .19a1.71 1.71 0 0 1 -.25.22 2.57 2.57 0 0 0 -.36.33z"
        fill="#d4af3a" />
    <path d="m20.79 32s-.44-.42-.54-.55c-.1.13-.54.55-.54.55-.05.5.54 1 .54 1s.59-.46.54-1z" fill="#d4af3a" />
    <path d="m20.31 31.85-.06.54-.06-.54s0-.06 0-.07.07 0 .07.06z" fill="#b96b29" />
    <path d="m27.15 26.28a.73.73 0 0 1 .16-.14l-.06.41s-.14-.05-.16-.08.03-.15.06-.19z" fill="#d4af3a" />
    <path d="m29.35 26.53a0 0 0 0 1 0 0 .65.65 0 0 1 .11.32c-.07 0-.17 0-.18-.06a.86.86 0 0 1 .07-.26z"
        fill="#d4af3a" />
    <path
        d="m30.26 27a.23.23 0 0 1 0-.14.1.1 0 0 1 .06.05.11.11 0 0 1 0 .07.29.29 0 0 1 0 .09s0 .07-.05.08-.02-.1-.01-.15z"
        fill="#d4af3a" />
    <path d="m26 21.8a1.26 1.26 0 0 0 .37.32 1.59 1.59 0 0 1 -.43-.26s0 0 0-.06 0 0 .06 0z" fill="#b96b29" />
    <path d="m25.45 22.38a1 1 0 0 0 .4.27 1 1 0 0 1 -.46-.21 0 0 0 0 1 0-.06 0 0 0 0 1 .06 0z" fill="#b96b29" />
    <path d="m24.66 22.93a1.85 1.85 0 0 0 .39.3 1.88 1.88 0 0 1 -.44-.24s0 0 0 0a0 0 0 0 1 .06 0z" fill="#b96b29" />
    <path
        d="m24.16 22.25a4.76 4.76 0 0 1 -.32-1.66c0-1.5.39-1.93.39-1.93l-1.23-1.4a2.8 2.8 0 0 1 -2.77 0 2.8 2.8 0 0 1 -2.77 0l-1.2 1.4s.38.43.38 1.93a5 5 0 0 1 -.31 1.66 2.56 2.56 0 0 0 1.17 2.88 6.2 6.2 0 0 1 2.73 1.78 6.26 6.26 0 0 1 2.77-1.78 2.58 2.58 0 0 0 1.16-2.88z"
        fill="#b96b29" />
    <path
        d="m24.87 23.52a2.75 2.75 0 0 0 .26.4 1 1 0 0 0 .38.29.85.85 0 0 1 -.41-.21 2.63 2.63 0 0 1 -.3-.38s0-.05 0-.06 0 0 .06 0z"
        fill="#b96b29" />
    <path
        d="m23.63 24.13a1.69 1.69 0 0 0 .62 1.08 2.12 2.12 0 0 0 .66.36l.24.08h.13.11a.07.07 0 0 1 .06 0s0 .06 0 .08a.76.76 0 0 1 -.11.14s-.06.07 0 .1h.15l.21.06.41.11s.06 0 .06 0 0 0 0 .05a.61.61 0 0 1 -.16.09.19.19 0 0 0 -.11.15c0 .07.07.12.12.15l.37.22a.92.92 0 0 1 -.51.21 1.54 1.54 0 0 1 -.84-.33 2 2 0 0 1 .14 1.2.23.23 0 0 1 -.07.14.15.15 0 0 1 -.13 0 .3.3 0 0 1 -.1-.07 5.37 5.37 0 0 0 -1.11-.71 1.43 1.43 0 0 0 -.12.21.21.21 0 0 1 -.19.11.19.19 0 0 1 -.13-.07 1.76 1.76 0 0 1 -.25-.34 7.06 7.06 0 0 0 -1.2-1.42 1.1 1.1 0 0 1 -.2-.23.33.33 0 0 1 -.05-.29c.19-.49.93-.48 1.38-.73a2.55 2.55 0 0 0 .62-.35z"
        fill="#b96b29" />
    <path
        d="m23.92 25 .08.08a2.23 2.23 0 0 0 .42.39 1.07 1.07 0 0 0 .31.13 3.15 3.15 0 0 0 .42.09 1.12 1.12 0 0 1 -.74.13c-.18 0-.35-.09-.53-.12a.46.46 0 0 0 .29.15 7 7 0 0 0 .8.07 1.77 1.77 0 0 1 -1.29.22 1.32 1.32 0 0 1 .1.68 1.23 1.23 0 0 1 -.27.62 4.86 4.86 0 0 0 -.27-.92 5 5 0 0 1 .11.76c-.08-.11-.19-.22-.28-.33a9.31 9.31 0 0 0 -1.14-1.29l.41-.2h.06.06a3.12 3.12 0 0 1 .47.49.71.71 0 0 0 -.16-.34 2.2 2.2 0 0 0 -.26-.27 2.27 2.27 0 0 0 .57-.31h.06a.05.05 0 0 1 0 0 .64.64 0 0 0 .35.3 1.31 1.31 0 0 1 -.21-.36.22.22 0 0 1 0-.11s.05-.07.08-.1l.15-.11.07-.06.06-.05a0 0 0 0 1 0 0s0 0 0 0a1.43 1.43 0 0 0 .08.22l.07.09a.36.36 0 0 0 .13.15z"
        fill="#d4af3a" />
    <path
        d="m23.8 27.17s0 0 0-.06 0-.06 0-.09v-.17a.78.78 0 0 1 .07-.3c0-.08.15.07.17.1a1.49 1.49 0 0 0 .4.43 1.11 1.11 0 0 0 -.07-.16 1.09 1.09 0 0 0 -.08-.15 1.46 1.46 0 0 0 -.21-.28s0 0 0 0 0 0 .06 0h.1.19a1.66 1.66 0 0 0 .37-.14l.12-.06a.53.53 0 0 1 .17-.08h.15l.41.14s.07 0 .07.06 0 .05 0 .06l-.13.06h-.07a1.71 1.71 0 0 1 -.3.09h-.12-.24a.07.07 0 0 0 0 .05.14.14 0 0 0 0 .06c0 .07.09.13.13.21a1.4 1.4 0 0 1 .13.34 1.55 1.55 0 0 1 .05.71 3.46 3.46 0 0 0 -.6-.47l-.33-.19-.24-.08h-.08z"
        fill="#d4af3a" />
    <path
        d="m24.06 22.29a6.77 6.77 0 0 1 -.3-1.7 4 4 0 0 1 .33-1.93l-1.09-1.27a3.23 3.23 0 0 1 -1.39.34 3.13 3.13 0 0 1 -1.35-.33 3.08 3.08 0 0 1 -1.34.33 3.24 3.24 0 0 1 -1.4-.34l-1.1 1.27a4 4 0 0 1 .33 1.93 7.16 7.16 0 0 1 -.29 1.7 2.47 2.47 0 0 0 1.11 2.71c.16.09.36.18.56.27a4.19 4.19 0 0 1 2.12 1.35 4.19 4.19 0 0 1 2.12-1.35c.2-.09.4-.18.56-.27a2.49 2.49 0 0 0 1.13-2.71z"
        fill="#d4af3a" />
    <path
        d="m25.6 26.72a.11.11 0 0 1 .08 0h.06a1.11 1.11 0 0 0 .34.22h-.47-.12a.41.41 0 0 1 -.11-.07s-.09-.06-.06-.08.05 0 .07 0h.07z"
        fill="#d4af3a" />
    <path
        d="m23.43 20.5a2.82 2.82 0 0 1 .05-1 2 2 0 0 1 .25-.67l-.92-1.07a3.08 3.08 0 0 1 -2.56-.05 3.07 3.07 0 0 1 -2.56.05l-.91 1.07a2 2 0 0 1 .25.67 3.1 3.1 0 0 1 0 1c-.09.6-.34 1.88-.34 2.37a2.47 2.47 0 0 0 1.19 1.91c.72.45 1.78.6 2.32 1.4.54-.8 1.6-.95 2.33-1.4a2.48 2.48 0 0 0 1.18-1.91c.05-.49-.2-1.77-.28-2.37z"
        fill="#b96b29" />
    <path
        d="m23.62 23a.81.81 0 0 1 0 .16.13.13 0 0 1 0 .06s0 .07 0 .1v.11a.36.36 0 0 1 0 .11 2.52 2.52 0 0 1 -1.34 1.38c-.38.16-.74.32-1.08.5a3.21 3.21 0 0 0 -.85.62 5.61 5.61 0 0 0 -1.93-1.12 2.55 2.55 0 0 1 -1.42-1.42s0-.07 0-.11a.43.43 0 0 1 0-.11.3.3 0 0 1 0-.1s0 0 0-.06a.81.81 0 0 1 0-.16c0-.81.34-2.13.34-2.82a3 3 0 0 0 -.28-1.23l.82-.92a2.3 2.3 0 0 0 1 .22 4.38 4.38 0 0 0 1.46-.28 3.59 3.59 0 0 0 2.5.06l.81.92a3 3 0 0 0 -.27 1.23c-.09.69.24 2.01.24 2.86z"
        fill="#1d5e91" />
    <path
        d="m23.59 23.28v.11a.36.36 0 0 1 0 .11 2.52 2.52 0 0 1 -1.34 1.38c-.38.16-.74.32-1.08.5a3.21 3.21 0 0 0 -.85.62 5.61 5.61 0 0 0 -1.93-1.12 2.55 2.55 0 0 1 -1.39-1.38s0-.07 0-.11a.43.43 0 0 1 0-.11z"
        fill="#6d8c3e" />
    <path
        d="m17.65 23.22a.18.18 0 0 1 .11-.18h.09s.07 0 .08-.06 0-.09 0-.13a.16.16 0 0 1 .11-.07h.14a.42.42 0 0 0 .16-.11 1 1 0 0 0 .2-.41 2.32 2.32 0 0 0 .07-.46s-.12 0-.15 0a.26.26 0 0 1 0-.15.45.45 0 0 1 0-.2.35.35 0 0 0 .05-.08.12.12 0 0 0 0-.1.13.13 0 0 0 -.09-.07h-.12a.43.43 0 0 1 -.41-.28 1.82 1.82 0 0 1 0-.33.38.38 0 0 0 -.12-.28.71.71 0 0 0 -.15-.08.49.49 0 0 1 -.28-.48.14.14 0 0 1 0-.07h.07a.1.1 0 0 1 .05.06l.06.08s.08 0 .1 0a.06.06 0 0 0 0-.07.16.16 0 0 0 0-.07.86.86 0 0 1 -.08-.48s0-.08 0-.09a.08.08 0 0 1 .09 0l.06.07s.07 0 .09 0 0-.07 0-.12a.12.12 0 0 1 .09-.1.1.1 0 0 1 .13.04.48.48 0 0 1 0 .12s0 .07.07.06 0-.06 0-.09 0-.08 0-.09a.07.07 0 0 1 .06 0v.06a.78.78 0 0 1 0 .14.91.91 0 0 1 0 .17v.37a.65.65 0 0 0 0 .24.85.85 0 0 0 .11.26c0 .1.11.28.26.25a.23.23 0 0 0 .12-.1.61.61 0 0 1 .07-.14.38.38 0 0 1 .31-.15.69.69 0 0 1 .25 0s.06 0 .07 0a0 0 0 0 0 0-.06h-.06a.9.9 0 0 1 -.16 0 .18.18 0 0 1 -.09-.06s0-.05 0-.08a.22.22 0 0 0 -.12-.15 1.08 1.08 0 0 1 -.24-.12.3.3 0 0 1 -.1-.31s.06-.1.1-.09.09.06.11.11a.17.17 0 0 0 .09.11s.11 0 .1-.05 0-.06 0-.09a.12.12 0 0 1 0-.17.27.27 0 0 1 .05-.14h.17a.29.29 0 0 0 .14-.05.38.38 0 0 1 .27-.1.88.88 0 0 0 .28 0 1.22 1.22 0 0 0 .17-.07c.15-.06.37 0 .34.22a.43.43 0 0 1 .25 0 .15.15 0 0 1 .08.21c0 .06-.13.1-.12.17s0 .07.08.09a.53.53 0 0 1 .1.06.15.15 0 0 1 0 .19.4.4 0 0 1 -.18.1s-.08 0-.08.08 0 0 .05.06a1 1 0 0 1 .22.19.17.17 0 0 1 .06.11c0 .06-.06.1-.11.12a.39.39 0 0 1 -.15 0 .68.68 0 0 0 -.14 0 .08.08 0 0 0 0 .07s0 .05.06.07a.2.2 0 0 1 .06.11.1.1 0 0 0 0 .07s0 0 .09 0h.14a1.31 1.31 0 0 0 .28 0 3.64 3.64 0 0 1 .57 0c.15 0 .29 0 .44.07a.82.82 0 0 0 .44 0c.08 0 .16-.09.15-.18a.18.18 0 0 0 -.1-.15.58.58 0 0 0 -.19 0 3.49 3.49 0 0 1 -.85-.12.81.81 0 0 1 -.3-.17.44.44 0 0 1 -.14-.3.46.46 0 0 1 .19-.35 1.24 1.24 0 0 1 .37-.17 1.51 1.51 0 0 1 .78-.12.93.93 0 0 0 .24.05h.27.07a.08.08 0 0 1 0 .09.61.61 0 0 1 -.42.34 1.34 1.34 0 0 1 -.69 0 .9.9 0 0 0 -.27-.07.23.23 0 0 0 -.23.14.2.2 0 0 0 .09.21.54.54 0 0 0 .22.09 4.22 4.22 0 0 0 .7.1 1.86 1.86 0 0 1 .33 0 .53.53 0 0 1 .29.14.38.38 0 0 1 .13.22.41.41 0 0 1 -.16.43.66.66 0 0 1 -.21.08 4.21 4.21 0 0 1 -.48.12.67.67 0 0 0 .07.31.25.25 0 0 0 .2.18h.16a.31.31 0 0 1 .22.11.74.74 0 0 1 .05.25.69.69 0 0 0 0 .25s0 .07 0 .11v.14a.78.78 0 0 1 0 .3.47.47 0 0 1 -.07.12l-.06.15a.51.51 0 0 1 -.14.18.59.59 0 0 1 -.22.05 4.24 4.24 0 0 1 -.71 0h-.12a.16.16 0 0 1 -.07-.09.15.15 0 0 1 .08-.12.43.43 0 0 0 .13-.09.61.61 0 0 0 .07-.1.42.42 0 0 1 .18-.11 1.17 1.17 0 0 0 .2-.06.32.32 0 0 0 .16-.14.29.29 0 0 0 0-.16.14.14 0 0 0 -.07-.11.12.12 0 0 0 -.14 0s0 .07-.06.1h-.09a.62.62 0 0 1 -.48-.23s-.06-.09-.11-.09a.11.11 0 0 0 -.11.05.25.25 0 0 0 -.05.26 1 1 0 0 1 .08.18.29.29 0 0 1 -.05.2c0 .06-.07.12-.1.19s-.05.16-.11.22a.32.32 0 0 1 -.25.08 6.28 6.28 0 0 1 -1 0c.09-.06.07-.2.15-.27s.15-.05.2-.11 0-.08.08-.1a.14.14 0 0 1 .11 0h.12a.24.24 0 0 0 .25-.15.22.22 0 0 0 -.09-.27h-.09a.19.19 0 0 1 -.09-.16.5.5 0 0 1 .06-.32 2.69 2.69 0 0 1 -1 .18.49.49 0 0 0 -.21 0 .37.37 0 0 0 -.18.14 1.36 1.36 0 0 0 -.23.71.55.55 0 0 1 -.16.37.72.72 0 0 1 -.21.05 4.41 4.41 0 0 1 -.95-.13z"
        fill="#b96b29" />
    <path d="m17.61 19.11a.16.16 0 0 1 .12.09s0 0 0 0-.06.06-.08 0-.02-.09-.04-.09z" fill="#d4af3a" />
    <path d="m17.89 19s0 0 0 0a.16.16 0 0 1 0 .07s0 .12-.06.08.06-.1.06-.15z" fill="#d4af3a" />
    <path d="m18.14 19.15s0 0 0 0 0 .06 0 .07 0-.05 0-.07z" fill="#d4af3a" />
    <path
        d="m17.81 19.86a.15.15 0 0 0 0-.16.61.61 0 0 0 -.1-.14.23.23 0 0 1 0-.16s.07-.1.12-.08 0 0 .06.05.05 0 .06 0 0-.06 0-.09a0 0 0 0 1 0-.06.06.06 0 0 1 .07 0s0 0 0 .06 0 .05.05 0 0 0 0-.06.07 0 .09 0a.17.17 0 0 1 0 .1 2.34 2.34 0 0 0 -.09.46 1.08 1.08 0 0 0 .24.55l.08.1a.18.18 0 0 0 .12.05l-.06.29a.22.22 0 0 1 -.05.11.18.18 0 0 1 -.14 0 .34.34 0 0 1 -.2-.22.94.94 0 0 1 -.06-.29 1.16 1.16 0 0 0 0-.18.25.25 0 0 0 -.1-.15.48.48 0 0 0 -.17-.05c-.07 0-.17-.06-.17-.15s.1-.05.15 0a.13.13 0 0 0 .1.02z"
        fill="#d4af3a" />
    <path d="m17.42 19.7h.06s0 0 0 0a0 0 0 0 1 0 0s0 0-.05 0a.15.15 0 0 1 -.01 0z" fill="#d4af3a" />
    <path
        d="m18.72 19.53a.59.59 0 0 0 .34.1h.08a.07.07 0 0 0 0-.05.08.08 0 0 0 -.06-.09h-.08a.47.47 0 0 1 -.31-.11l-.07-.06s0 0-.05 0 0 .12 0 .14a.33.33 0 0 0 .15.07z"
        fill="#d4af3a" />
    <path
        d="m20.6 20-.15-.11a.51.51 0 0 0 -.16-.09.54.54 0 0 0 -.46.1 1.13 1.13 0 0 0 .12-.21.2.2 0 0 0 0-.15.14.14 0 0 0 -.08 0h-.12a.21.21 0 0 0 0-.06s.06-.09.11-.09.08 0 .11 0 .06-.05.08-.08a.43.43 0 0 0 .06-.18.16.16 0 0 0 -.09-.15.16.16 0 0 0 -.02.02.53.53 0 0 0 -.08.17c-.06-.08 0-.21-.09-.29a.18.18 0 0 0 -.16-.06c-.19 0-.34.2-.53.21h-.14a.12.12 0 0 0 -.09.08c0 .05.05.09.09.12a.08.08 0 0 0 -.05.09.11.11 0 0 0 .09.07.35.35 0 0 0 .11 0 .13.13 0 0 1 .1.2.29.29 0 0 1 -.16.07h-.09a.07.07 0 0 0 0 .06.06.06 0 0 0 .07 0h.15.23c.05 0 .11.07.09.13s-.05.06-.09.08-.31.08-.46.14a.59.59 0 0 0 -.33.33.68.68 0 0 0 .36-.15h.05.07a.09.09 0 0 1 0 .07.25.25 0 0 0 0 .07 0 0 0 0 0 0 .06h.05l.18-.13s0 0 0 0 0 0 0 .05v.17a.08.08 0 0 0 0 .08s0 0 .06 0 0 0 .05 0a.64.64 0 0 0 .13-.15.14.14 0 0 1 0 .16.29.29 0 0 1 -.1.12.21.21 0 0 1 -.1.06.1.1 0 0 1 -.1 0s0-.12 0-.18a.1.1 0 0 0 -.13-.06s-.07.07-.12.08-.06 0-.08-.06a.32.32 0 0 1 0-.09l-.35.21a.19.19 0 0 0 -.07.06.12.12 0 0 0 0 .1.36.36 0 0 0 .06.2.14.14 0 0 0 .11.07.15.15 0 0 0 .1-.06l.17-.08a.7.7 0 0 1 .06-.09.16.16 0 0 1 .11-.05 1.29 1.29 0 0 0 0 .48v.08a.1.1 0 0 0 .07 0 .14.14 0 0 0 .08-.07 1.06 1.06 0 0 0 .09-.25 0 0 0 0 1 .08 0 .11.11 0 0 1 0 .08.51.51 0 0 0 .1.21.06.06 0 0 0 .06 0 .08.08 0 0 0 .07 0 .14.14 0 0 0 0-.07l.05-.24c0-.05 0-.15.09-.07l.12.11s.07 0 .09 0a.07.07 0 0 0 0-.06.88.88 0 0 0 0-.23 0 0 0 0 1 0-.06.29.29 0 0 1 .12.07s.07.07.11.06.06-.06.06-.1-.16-.29-.24-.42 0-.1 0-.13a.13.13 0 0 1 .12 0h.2s.08 0 .09-.06.09-.13.07-.19zm-1-.85a.12.12 0 0 1 -.13-.12.13.13 0 0 1 .26 0 .12.12 0 0 1 -.11.16z"
        fill="#d4af3a" />
    <path
        d="m19.88 18.89a.07.07 0 0 1 0-.06.77.77 0 0 1 .19-.08h.09s0 0 0 .06a.1.1 0 0 1 0 .05h-.05-.15s-.05.06-.08.03z"
        fill="#d4af3a" />
    <path
        d="m20.32 19a.18.18 0 0 1 .16-.05h.06a.05.05 0 0 1 0 .05.06.06 0 0 1 0 .07.1.1 0 0 1 -.05 0 .38.38 0 0 1 -.17.08s-.09 0-.07-.06a.59.59 0 0 1 .07-.09z"
        fill="#d4af3a" />
    <path
        d="m20.2 19.36a.25.25 0 0 1 .17 0 .35.35 0 0 1 .21.15.08.08 0 0 1 0 .08.11.11 0 0 1 -.09.07l-.38.12a.05.05 0 0 1 0-.05.34.34 0 0 1 0-.22c-.04-.08.04-.12.09-.15z"
        fill="#d4af3a" />
    <path
        d="m18 23a.11.11 0 0 1 .05-.14.67.67 0 0 1 .15-.06.65.65 0 0 0 .39-.39 1.46 1.46 0 0 0 .11-.55.22.22 0 0 1 0-.11.08.08 0 0 1 .08-.05s.06 0 .08.07a.59.59 0 0 1 .12.42 1.08 1.08 0 0 1 -.12.24 3.75 3.75 0 0 0 -.13.58.32.32 0 0 1 -.09.16.2.2 0 0 1 -.21 0 .2.2 0 0 1 -.13-.16.2.2 0 0 0 0-.11.09.09 0 0 0 -.11 0s-.05 0-.09.07a.17.17 0 0 1 -.1.03z"
        fill="#d4af3a" />
    <path
        d="m17.8 23.1a.1.1 0 0 1 .08-.05.08.08 0 0 1 .07 0 .05.05 0 0 1 0 .05.07.07 0 0 1 0 .07s0 0-.06 0-.09 0-.11 0a.13.13 0 0 1 .02-.07z"
        fill="#d4af3a" />
    <path d="m18.12 23.05h.13s0 0 0 .06 0 .06 0 .08h-.06s-.13 0-.15 0 .04-.12.08-.14z" fill="#d4af3a" />
    <path
        d="m20.45 22.8h.14a.35.35 0 0 0 .23-.12.39.39 0 0 0 .09-.31.24.24 0 0 0 -.21-.21h-.05a.08.08 0 0 1 0-.05 1.08 1.08 0 0 1 0-.18.3.3 0 0 1 .08-.16.39.39 0 0 1 .18-.06 1.22 1.22 0 0 1 .27 0 .32.32 0 0 1 .16 0 .15.15 0 0 1 0 .19c-.05.1-.21.13-.24.24a.19.19 0 0 0 0 .16.64.64 0 0 1 .08.14.26.26 0 0 1 0 .21c0 .1-.15.16-.22.25a2.43 2.43 0 0 1 -.14.2.29.29 0 0 1 -.23.08.24.24 0 0 1 -.19-.15s0-.09-.05-.12-.06 0-.08 0a.08.08 0 0 1 0-.1.13.13 0 0 1 .18-.01z"
        fill="#d4af3a" />
    <path d="m20 23.08a.28.28 0 0 1 .12-.12 0 0 0 0 1 0 0 .13.13 0 0 1 0 .08l-.06.1s-.08.09-.1.06.04-.09.04-.12z"
        fill="#d4af3a" />
    <path
        d="m20.23 23.08.11-.08a0 0 0 0 1 0 0s0 0 0 0v.1a.09.09 0 0 1 0 .05.09.09 0 0 1 -.06 0s-.09 0-.11 0 .04-.04.06-.07z"
        fill="#d4af3a" />
    <path
        d="m18.73 21.34c.07 0 .13-.11.21-.1s.11.11.14.18.09.16.17.13.07-.14.14-.17.11 0 .15.09.08.11.14.11.1-.09.12-.15.07-.15.14-.14.07 0 .11 0 .1-.07.1-.13a.31.31 0 0 1 .05-.16c.09-.09.29 0 .35-.1s0-.07 0-.1a.15.15 0 0 1 .13 0h.64a1.49 1.49 0 0 1 .47 0 .53.53 0 0 1 .36.29 1.17 1.17 0 0 1 .05.27.36.36 0 0 0 .13.24c.11.07.26 0 .35.12a.27.27 0 0 1 .1.19 1.5 1.5 0 0 1 -.1 1.09.8.8 0 0 1 -.08.16.27.27 0 0 1 -.15.11.18.18 0 0 1 -.17-.06s0-.09-.05-.12a.15.15 0 0 0 -.2 0s-.05 0-.08 0a.09.09 0 0 1 -.08-.11.22.22 0 0 1 .1-.11l.15-.05a.54.54 0 0 0 .31-.2.34.34 0 0 0 0-.36.38.38 0 0 0 -.19-.14h-.24a.07.07 0 0 1 0 .09.12.12 0 0 1 -.1 0l-.1-.06a1.53 1.53 0 0 1 -.21-.14.48.48 0 0 1 -.13-.3 1.23 1.23 0 0 1 0-.33 1.33 1.33 0 0 0 -.79.07h.63a.1.1 0 0 1 .07 0 .08.08 0 0 1 0 .09h-.1a3.66 3.66 0 0 0 -1.39.27s0 0 0-.06.05 0 .05-.06-.05-.05-.08 0a.21.21 0 0 0 0 .11.14.14 0 0 1 0 .11.11.11 0 0 1 -.13 0s-.06-.07-.09-.1a.15.15 0 0 0 -.11-.07c-.07 0-.11.08-.13.15s-.06.15-.13.16a.14.14 0 0 1 -.13-.12 1.08 1.08 0 0 1 0-.19.16.16 0 0 0 -.11-.14c-.11 0-.18.12-.29.13a.14.14 0 0 1 -.09 0 .17.17 0 0 1 0-.12c0-.07.05-.1.11-.12z"
        fill="#d4af3a" />
    <path
        d="m21.7 23.14s0-.08.08-.09a0 0 0 0 1 0 0 .08.08 0 0 1 0 .05.07.07 0 0 1 0 0 .07.07 0 0 1 -.07.06s-.07 0-.09 0 .07 0 .08-.02z"
        fill="#d4af3a" />
    <path d="m22 23.08a.1.1 0 0 1 .1 0 .12.12 0 0 1 .08.09.11.11 0 0 1 0 .05h-.06s-.12 0-.15 0 .03-.12.03-.14z"
        fill="#d4af3a" />
    <path
        d="m23 20.4a.39.39 0 0 0 -.27-.23 1.34 1.34 0 0 0 -.35-.05l-.47-.05h-.23-.09-.09l-.14-.08a.28.28 0 0 1 -.06-.35.31.31 0 0 1 .11-.09.63.63 0 0 1 .33-.06c.12 0 .22.06.34.07a2.06 2.06 0 0 0 .35 0 .53.53 0 0 0 .41-.26 3.52 3.52 0 0 1 -.64-.05 1.48 1.48 0 0 0 -.86.24.39.39 0 0 0 -.23.24.32.32 0 0 0 .14.32 1 1 0 0 0 .33.13 3.68 3.68 0 0 0 .65.11h.27a.42.42 0 0 1 .24.12.23.23 0 0 1 0 .25.3.3 0 0 1 -.15.12 1.17 1.17 0 0 1 -.45.09.07.07 0 0 0 .05.1.32.32 0 0 0 .14 0 1.13 1.13 0 0 0 .32-.06.53.53 0 0 0 .27-.19.35.35 0 0 0 .08-.32zm-.91-1.11h.14.28s.05 0 .06 0a0 0 0 0 1 0 .06.07.07 0 0 1 -.06 0 1.22 1.22 0 0 1 -.27 0h-.13a.5.5 0 0 1 -.13 0 .27.27 0 0 1 .1-.06z"
        fill="#d4af3a" />
    <path
        d="m23.61 23.12a.13.13 0 0 1 0 .06 1.55 1.55 0 0 1 0 .21.36.36 0 0 1 0 .11h-6.61s0-.07 0-.11a1.55 1.55 0 0 1 0-.21s0 0 0-.06z"
        fill="#b96b29" />
    <path d="m23.6 23.18s0 .07 0 .1v.11h-6.66a.43.43 0 0 1 0-.11.3.3 0 0 1 0-.1z" fill="#d4af3a" />
    <path d="m28 26.25a.19.19 0 0 1 -.19.19.18.18 0 0 1 -.19-.19.19.19 0 0 1 .19-.19.2.2 0 0 1 .19.19z"
        fill="#b96b29" />
    <path d="m27.87 26.25a.12.12 0 0 1 -.11.12.12.12 0 0 1 0-.24.12.12 0 0 1 .11.12z" fill="#d4af3a" />
    <path d="m28.51 26.39a.19.19 0 0 1 -.19.19.18.18 0 0 1 -.19-.19.19.19 0 0 1 .19-.19.2.2 0 0 1 .19.19z"
        fill="#b96b29" />
    <circle cx="28.32" cy="26.39" fill="#d4af3a" r=".12" />
    <path d="m29.05 26.52a.18.18 0 0 1 -.19.19.19.19 0 0 1 -.19-.19.2.2 0 0 1 .19-.19.19.19 0 0 1 .19.19z"
        fill="#b96b29" />
    <circle cx="28.86" cy="26.52" fill="#d4af3a" r=".12" />
    <path d="m29.2 26a.2.2 0 0 1 -.19.19.19.19 0 0 1 -.19-.19.18.18 0 0 1 .19-.19.19.19 0 0 1 .19.19z" fill="#b96b29" />
    <circle cx="29.01" cy="26.03" fill="#d4af3a" r=".12" />
    <path d="m29.35 25.55a.2.2 0 0 1 -.19.19.19.19 0 0 1 -.19-.19.18.18 0 0 1 .19-.19.19.19 0 0 1 .19.19z"
        fill="#b96b29" />
    <circle cx="29.16" cy="25.55" fill="#d4af3a" r=".12" />
    <path d="m30.12 26.74a.19.19 0 0 1 -.19.19.2.2 0 0 1 -.19-.19.19.19 0 0 1 .19-.19.18.18 0 0 1 .19.19z"
        fill="#b96b29" />
    <circle cx="29.93" cy="26.74" fill="#d4af3a" r=".12" />
    <path
        d="m13.3 30.72a.15.15 0 0 0 .09.13.08.08 0 0 0 .07 0 .1.1 0 0 0 0-.05s0 0 0-.05a.33.33 0 0 0 0-.1c0-.07-.06-.14-.13-.12s-.04.13-.03.19z"
        fill="#d4af3a" />
    <path
        d="m13 30.71a.82.82 0 0 0 -.13-.77.65.65 0 0 0 .34 0h.06a1.47 1.47 0 0 0 .54.42 1.86 1.86 0 0 1 -.47 0s0 0-.06 0a.25.25 0 0 0 0 .07.49.49 0 0 1 -.2.25.1.1 0 0 1 -.08.03z"
        fill="#d4af3a" />
    <path
        d="m12.28 29.93a.39.39 0 0 0 .18 0 .38.38 0 0 0 .17-.08.65.65 0 0 1 .15-.1.67.67 0 0 1 .19-.05.65.65 0 0 0 .2 0 .31.31 0 0 0 .18-.09.19.19 0 0 0 0-.18.22.22 0 0 0 -.11-.1.25.25 0 0 0 -.19 0 1.12 1.12 0 0 0 -.24.13c-.08 0-.17.05-.25.09s-.16.11-.24.15a.37.37 0 0 1 -.14 0s-.1 0-.12 0 .17.21.22.23z"
        fill="#d4af3a" />
    <path
        d="m18.65 9.19s0 .05 0 .08a.17.17 0 0 1 -.2.13h-.11-.06l-.33.2a.15.15 0 0 1 0 .16.22.22 0 0 1 -.12.11h-.11s-.05 0-.06 0l-.1.2a.32.32 0 0 0 0 .09s0 .06 0 .09a.16.16 0 0 1 0 .12.21.21 0 0 1 -.08.16s-.08.05-.09.1a.44.44 0 0 0 0 .16.37.37 0 0 0 .12.22.17.17 0 0 0 .22 0c.07 0 .08-.13.09-.21s0-.28 0-.43a.82.82 0 0 1 .09-.41 1 1 0 0 1 .29-.29 6.23 6.23 0 0 0 .8-.54 2.84 2.84 0 0 0 -.35.06z"
        fill="#d4af3a" />
    <path
        d="m13.34 29.13a.09.09 0 0 0 0 .08.18.18 0 0 0 0 .07h.05a.09.09 0 0 0 .06 0 .21.21 0 0 0 .07-.18c0-.05 0-.14-.1-.13s-.06.11-.08.16z"
        fill="#d4af3a" />
    <path
        d="m12 28.93a.32.32 0 0 1 0-.09s0-.07 0-.07a.08.08 0 0 1 .08 0 .2.2 0 0 1 .08.12.22.22 0 0 1 0 .14c0 .11-.16-.03-.16-.1z"
        fill="#d4af3a" />
    <path
        d="m12.09 29.18a.29.29 0 0 0 .16 0 .24.24 0 0 0 .11-.06l.21-.17a.48.48 0 0 1 .16-.08.22.22 0 0 1 .2.07.26.26 0 0 1 .06.21.24.24 0 0 1 0 .12.2.2 0 0 1 -.16.07h-.19a.42.42 0 0 0 -.25.12s-.08.1-.13.12a.38.38 0 0 1 -.15 0 1.28 1.28 0 0 1 -.27-.05.43.43 0 0 1 -.23-.14c0-.06-.1-.2 0-.27a.23.23 0 0 1 .14 0h.19z"
        fill="#d4af3a" />
    <path
        d="m12.25 28.8a.17.17 0 0 1 .05-.13s.07-.07.08-.11v-.08a.11.11 0 0 1 .07 0 .17.17 0 0 1 .17.12.2.2 0 0 1 0 .21.3.3 0 0 1 -.19.12.14.14 0 0 1 -.18-.13z"
        fill="#d4af3a" />
    <path
        d="m20.62 9.76a6.77 6.77 0 0 1 -.05-1l-.32.06-.31-.06a8.43 8.43 0 0 1 -.06 1 3.58 3.58 0 0 0 -.07.64.67.67 0 0 0 .3.54l.14-.06.14.06a.64.64 0 0 0 .3-.54 2.37 2.37 0 0 0 -.07-.64zm-.37.79a.22.22 0 0 1 -.22-.22.22.22 0 1 1 .44 0 .22.22 0 0 1 -.22.22zm0-.56a.22.22 0 0 1 -.25-.22.22.22 0 1 1 .44 0 .22.22 0 0 1 -.19.23zm0-.52a.22.22 0 1 1 .22-.22.22.22 0 0 1 -.22.22z"
        fill="#d4af3a" />
    <path
        d="m23.17 10.71c0-.05-.05-.07-.09-.1a.25.25 0 0 1 -.08-.16.23.23 0 0 1 0-.12s0-.05 0-.09a.16.16 0 0 0 0-.09 1.21 1.21 0 0 1 -.09-.2s0 0-.06 0h-.12a.22.22 0 0 1 -.12-.11.15.15 0 0 1 0-.16l-.33-.2h-.06-.11a.18.18 0 0 1 -.2-.13s0-.06 0-.08l-.32-.06a6.23 6.23 0 0 0 .81.65 1 1 0 0 1 .29.29.82.82 0 0 1 .09.41v.43a.23.23 0 0 0 .08.21.18.18 0 0 0 .23 0 .42.42 0 0 0 .11-.22.3.3 0 0 0 -.03-.27z"
        fill="#d4af3a" />
    <path d="m12.85 28.64a.17.17 0 0 0 .05-.13s0 0 0 0a.5.5 0 0 1 .05.21.16.16 0 0 1 -.05.09s-.09 0-.13 0 0 0 0 0z"
        fill="#d4af3a" />
    <path
        d="m11.54 28.84a.38.38 0 0 1 -.14-.11.29.29 0 0 1 -.07-.2.34.34 0 0 1 0-.2.24.24 0 0 1 .14-.14.09.09 0 0 1 .11 0 .19.19 0 0 1 0 .07.7.7 0 0 0 0 .25c0 .07.12.11.16.19s.07.21 0 .24-.1 0-.13 0z"
        fill="#d4af3a" />
    <path d="m12.48 28.18s0 0 0 0a0 0 0 0 1 0 0l.06.07s0 .18-.05.13a.19.19 0 0 1 -.01-.2z" fill="#d4af3a" />
    <path
        d="m12.29 27.59a2.06 2.06 0 0 0 -.65-1.45.56.56 0 0 0 0-.44.52.52 0 0 0 -.33-.28 2.59 2.59 0 0 0 -.23-1.37c-.2-.45-.52-.83-.73-1.28a2.79 2.79 0 0 1 -.24-1.25.55.55 0 0 1 .05-.17.17.17 0 0 0 0-.17.13.13 0 0 0 -.15 0 .35.35 0 0 0 -.11.13.45.45 0 0 1 -.1.13.69.69 0 0 1 -.32.08.66.66 0 0 0 -.28.09s-.09.06-.08.11a.1.1 0 0 0 0 .07.87.87 0 0 0 .27.14.48.48 0 0 1 .21.19 1.88 1.88 0 0 1 .28.59 4 4 0 0 1 .11.91 6 6 0 0 0 .1.84s0 .1.05.15l.06.16a3.18 3.18 0 0 0 .16.32 2.25 2.25 0 0 0 .34.41l.1.09s.09.06.08.09a.33.33 0 0 1 0 .06v.06a.35.35 0 0 0 0 .14.49.49 0 0 0 .12.25 1.24 1.24 0 0 0 .23.17 4.17 4.17 0 0 0 .1.94 1.28 1.28 0 0 0 .19.34 1 1 0 0 0 .22.25.52.52 0 0 0 .2.09.24.24 0 0 0 .18-.05.41.41 0 0 0 .17-.34z"
        fill="#b96b29" />
    <path
        d="m9.33 21.17-.18.1s-.08 0-.11 0 0 0-.06-.07a2.61 2.61 0 0 1 -.16-.42l.34-.09a0 0 0 0 1 0 0s0 0 0 0l-.16-.37a3.35 3.35 0 0 1 .53-.19v.35a.08.08 0 0 0 0 .05s0 0 .08 0l.24-.13a.88.88 0 0 0 .06.26.52.52 0 0 0 .06.13.1.1 0 0 1 0 .09l-.18.12a.08.08 0 0 0 0 .08.53.53 0 0 0 .06.1 1.27 1.27 0 0 1 .07.12.3.3 0 0 1 0 .29.36.36 0 0 1 -.26.14.22.22 0 0 1 -.17 0s0-.07 0-.11a.71.71 0 0 0 -.16-.45z"
        fill="#b96b29" />
    <path
        d="m23.22 11.09s0-.08 0-.11a.22.22 0 0 1 0-.14.49.49 0 0 0 -.34.2c0 .05-.06.11-.12.13h-.11a.83.83 0 0 0 -.22.08.24.24 0 0 1 -.22 0 .58.58 0 0 1 -.1-.12.27.27 0 0 0 -.18-.1v-.41s-.46.56-.9.56-.71-.53-.71-.53-.26.53-.71.53-.9-.56-.9-.56v.41a.27.27 0 0 0 -.18.1.38.38 0 0 1 -.1.12.24.24 0 0 1 -.22 0 .83.83 0 0 0 -.22-.08h-.11c-.06 0-.09-.08-.12-.13a.49.49 0 0 0 -.34-.2.22.22 0 0 1 0 .14s0 .07 0 .11 0 .05 0 .08a.29.29 0 0 0 .22.24s0 0 0 0h.06s.12 0 .17 0a.15.15 0 0 1 .09 0h.06l.13.06h.05a.38.38 0 0 1 .09.09.34.34 0 0 1 .05.11v.08a.54.54 0 0 0 -.12.09.12.12 0 0 0 0 .13.18.18 0 0 0 .07 0h.11s.06 0 .08 0a.55.55 0 0 1 .1.31s.12.38 1.8.38 1.8-.38 1.8-.38a.55.55 0 0 1 .1-.31s.05 0 .09 0h.11a.15.15 0 0 0 .06 0 .11.11 0 0 0 0-.13s-.08-.06-.11-.09-.05 0 0-.08a.3.3 0 0 1 0-.11.76.76 0 0 1 .09-.09h.05l.13-.06h.07a.13.13 0 0 1 .09 0h.16.06s0 0 0 0a.28.28 0 0 0 .22-.24.19.19 0 0 0 -.08-.08z"
        fill="#b96b29" />
    <g fill="#d4af3a">
        <path
            d="m9.41 21s0 0 0 0h-.05l-.1.08a.09.09 0 0 1 -.15 0l-.11-.19s0 0 0 0a.08.08 0 0 1 .07 0 .49.49 0 0 0 .2-.05s.06 0 .06-.08 0 0 0-.05l-.18-.32.25-.1s0 0 0 .06a1.7 1.7 0 0 0 0 .22.14.14 0 0 0 .07.11.13.13 0 0 0 .12 0l.12-.06a0 0 0 0 1 .05 0l.06.23a1.6 1.6 0 0 0 -.31.1l.21.37a.12.12 0 0 1 0 .1c0 .06-.1.1-.15.11a.09.09 0 0 1 -.11 0 .73.73 0 0 1 -.07-.19 1.55 1.55 0 0 0 .02-.34z" />
        <path
            d="m12.05 26.86a2.25 2.25 0 0 0 -.24-.36l-.15-.21s-.08-.08-.13-.07-.1.07-.12.13a1.16 1.16 0 0 0 0 .69 1.58 1.58 0 0 0 .35.6.34.34 0 0 0 .09.08h.19s.12-.07.13-.13a1.7 1.7 0 0 0 0-.22 1.22 1.22 0 0 0 -.12-.51z" />
        <path d="m11.57 25.85a.27.27 0 0 1 -.28.28.28.28 0 0 1 -.28-.28.29.29 0 0 1 .28-.28.28.28 0 0 1 .28.28z" />
        <path
            d="m11.12 25.36a.29.29 0 0 0 0-.1 1.62 1.62 0 0 0 0-.58 2.67 2.67 0 0 0 -.26-.66v-.08c-.19-.37-.4-.73-.56-1.12a5.27 5.27 0 0 1 -.19-.56c0-.1-.05-.2-.07-.3a.5.5 0 0 1 0-.13.76.76 0 0 1 0-.15.75.75 0 0 1 .06-.33s.05-.07 0-.11a.43.43 0 0 0 -.25.23.16.16 0 0 1 0 .09.21.21 0 0 1 -.14 0 1.26 1.26 0 0 0 -.33.05.08.08 0 0 0 -.06 0s0 .06.07.08a.66.66 0 0 1 .53.58l.22.9c.09.32.08.68.17 1a2.66 2.66 0 0 0 .21.53 1.94 1.94 0 0 0 .15.24c.06.09.14.17.2.25a.57.57 0 0 0 .14.13.17.17 0 0 0 .11.04z" />
        <path
            d="m21.58 12.6a3.77 3.77 0 0 1 -1.3.18h-.06a3.77 3.77 0 0 1 -1.3-.18l-.31.07a3.49 3.49 0 0 0 1.64.27 3.49 3.49 0 0 0 1.64-.27z" />
        <path
            d="m20.25 12.48a5.2 5.2 0 0 0 -1.13.11 2.79 2.79 0 0 0 1.13.12 2.71 2.71 0 0 0 1.13-.12 5.2 5.2 0 0 0 -1.13-.11z" />
        <path d="m21.33 11.93a.17.17 0 0 1 -.17.16.16.16 0 1 1 0-.32.17.17 0 0 1 .17.16z" />
        <circle cx="20.25" cy="11.2" r=".07" />
        <path d="m20.25 11.77-.27.13.27.17.27-.17z" />
        <path d="m21.82 12.03.29-.08.21.14-.23.13z" />
        <path
            d="m20.29 11.33a.62.62 0 0 0 0 .13.14.14 0 0 0 .07.1.17.17 0 0 0 .12 0h.68a.34.34 0 0 0 .14 0 .26.26 0 0 0 .11-.07s.09-.08.09-.14a1 1 0 0 0 -.17.1.34.34 0 0 1 -.19.05.21.21 0 0 1 -.14-.1l-.08-.15a.52.52 0 0 1 -.19.2.37.37 0 0 1 -.25 0 .31.31 0 0 1 -.19-.12z" />
        <path d="m20.25 10.76s-.19.22 0 .34c.19-.1 0-.34 0-.34z" />
        <path d="m20.69 11.2s-.22-.19-.33 0c.11.19.33 0 .33 0z" />
        <path d="m21.62 11.25a.05.05 0 0 1 -.07 0 .06.06 0 0 1 0-.07s0-.05.07 0 .02.03 0 .07z" />
        <path d="m22 11.22a.18.18 0 0 0 -.18-.08.22.22 0 0 0 -.16.12.29.29 0 0 0 .18.05.26.26 0 0 0 .16-.09z" />
        <path
            d="m21.63 10.92a.58.58 0 0 1 .13-.14s0 0 0 0v.22a.22.22 0 0 1 -.05.08.15.15 0 0 1 -.09 0s-.12 0-.12 0a.35.35 0 0 1 .13-.16z" />
        <path
            d="m21.47 11.2a.23.23 0 0 1 -.15.1.21.21 0 0 1 -.17-.08 1 1 0 0 1 .22-.13s.06 0 .08 0a.12.12 0 0 1 .02.11z" />
        <path
            d="m21.58 11.36a.24.24 0 0 0 .17.12.38.38 0 0 0 .21 0 .72.72 0 0 0 .19-.11.29.29 0 0 0 .26.24.66.66 0 0 1 -.61.06s-.06 0-.09-.06a.41.41 0 0 1 -.1-.09.24.24 0 0 1 -.03-.16z" />
        <path
            d="m22.67 11.22v.09a.25.25 0 0 1 0 .07.15.15 0 0 1 -.09 0 .25.25 0 0 1 -.12 0 .16.16 0 0 1 -.08-.05s0 0 .05-.06z" />
        <path d="m22.84 11.43h.08s0-.06-.07-.05a0 0 0 0 0 -.01.05z" />
        <path
            d="m22.83 11.16.05-.05.17-.13s0 0 0 0a.33.33 0 0 1 0 .14.15.15 0 0 1 -.08.11.14.14 0 0 1 -.11 0h-.1s.06-.05.07-.07z" />
        <path d="m19.18 11.93a.16.16 0 1 0 .16-.16.16.16 0 0 0 -.16.16z" />
        <path
            d="m21.71 12a1 1 0 0 1 .24-.07.37.37 0 0 0 .22-.12s-.09-.2-1.92-.2-1.92.2-1.92.2a.37.37 0 0 0 .22.12 1 1 0 0 1 .24.07s.06.05.06.08 0 .06-.06.09l-.26.18a0 0 0 0 0 0 .06 11.45 11.45 0 0 1 1.71-.15 11.65 11.65 0 0 1 1.72.15s0 0 0 0a0 0 0 0 0 0 0l-.26-.18s-.06 0-.06-.09.04-.14.07-.14zm-2.3.22a.24.24 0 0 1 -.29-.3.24.24 0 0 1 .18-.18.25.25 0 0 1 .3.3.24.24 0 0 1 -.19.19zm1.25-.22a.1.1 0 0 1 0 .07h-.07l-.21.1h-.1l-.28-.07h-.07a.16.16 0 0 1 0-.07.24.24 0 0 1 0-.08.29.29 0 0 1 .12-.07l.13-.07.1-.06a.11.11 0 0 1 .08 0l.11.06.12.07a.29.29 0 0 1 .12.07.08.08 0 0 1 -.05.05zm.54.24a.25.25 0 1 1 -.11-.48.25.25 0 1 1 .11.48z" />
        <path d="m18.69 12.03-.29-.08-.22.14.23.13z" />
        <path
            d="m20.21 11.33a.2.2 0 0 1 0 .13.14.14 0 0 1 -.07.1.17.17 0 0 1 -.12 0h-.67a.39.39 0 0 1 -.15 0 .34.34 0 0 1 -.11-.07.26.26 0 0 1 -.09-.14 1 1 0 0 1 .17.1.35.35 0 0 0 .2.05.21.21 0 0 0 .13-.1.55.55 0 0 0 .08-.15.48.48 0 0 0 .2.2.33.33 0 0 0 .24 0 .31.31 0 0 0 .19-.12z" />
        <path d="m19.81 11.2s.22-.19.34 0c-.15.19-.34 0-.34 0z" />
        <path d="m18.88 11.25a.05.05 0 0 0 .07 0 .06.06 0 0 0 0-.07s0-.05-.07 0-.01.03 0 .07z" />
        <path d="m18.48 11.22a.19.19 0 0 1 .18-.08.22.22 0 0 1 .16.12.29.29 0 0 1 -.18.05c-.06 0-.11-.05-.16-.09z" />
        <path
            d="m18.87 10.92a.44.44 0 0 0 -.13-.14s0 0 0 0a.31.31 0 0 0 0 .1.28.28 0 0 0 0 .09.12.12 0 0 0 0 .08.15.15 0 0 0 .09 0s.12 0 .12 0a.21.21 0 0 0 -.08-.13z" />
        <path
            d="m19 11.2a.23.23 0 0 0 .15.1.21.21 0 0 0 .17-.08 1 1 0 0 0 -.22-.13s-.06 0-.08 0a.12.12 0 0 0 -.02.11z" />
        <path
            d="m18.92 11.36a.24.24 0 0 1 -.17.12.39.39 0 0 1 -.21 0 .72.72 0 0 1 -.19-.11.29.29 0 0 1 -.26.24.66.66 0 0 0 .61.06.13.13 0 0 0 .09-.06.28.28 0 0 0 .1-.09.24.24 0 0 0 .03-.16z" />
        <path
            d="m17.83 11.22a.06.06 0 0 0 0 0 .28.28 0 0 0 0 .09.15.15 0 0 0 .05.07.11.11 0 0 0 .08 0 .3.3 0 0 0 .13 0 .18.18 0 0 0 .07-.05s0 0 0-.06z" />
        <path d="m17.66 11.43h-.07s0-.06.07-.05a0 0 0 0 1 0 .05z" />
        <path
            d="m17.67 11.16-.05-.05-.17-.11s0 0 0 0a.34.34 0 0 0 0 .14.15.15 0 0 0 .08.11.14.14 0 0 0 .11 0h.1a0 0 0 0 0 -.07-.09z" />
        <path d="m20.4 10.3a.15.15 0 0 1 -.3 0 .15.15 0 1 1 .3 0z" />
        <path d="m20.4 9.74a.15.15 0 0 1 -.3 0 .15.15 0 0 1 .3 0z" />
        <path d="m20.4 9.22a.15.15 0 1 1 -.15-.15.15.15 0 0 1 .15.15z" />
        <circle cx="21.15" cy="9.13" r=".11" />
        <circle cx="21.63" cy="9.63" r=".13" />
        <path d="m22 10.24a.14.14 0 0 1 -.14.14.14.14 0 0 1 0-.28.14.14 0 0 1 .14.14z" />
        <path d="m22.2 9.26a.09.09 0 0 1 -.1.09.09.09 0 0 1 -.1-.09.09.09 0 0 1 .09-.1.09.09 0 0 1 .11.1z" />
        <path d="m22.94 9.73a.11.11 0 1 1 -.11-.11.11.11 0 0 1 .11.11z" />
        <path d="m23.31 10.4a.12.12 0 0 1 -.24 0 .12.12 0 1 1 .24 0z" />
        <path d="m19.24 9.13a.11.11 0 1 0 .11-.13.11.11 0 0 0 -.11.13z" />
        <circle cx="18.87" cy="9.63" r=".13" />
        <path d="m18.48 10.24a.14.14 0 1 0 .14-.14.14.14 0 0 0 -.14.14z" />
        <path d="m18.31 9.26a.09.09 0 0 0 .18 0 .09.09 0 1 0 -.18 0z" />
        <path d="m17.56 9.73a.11.11 0 1 0 .11-.11.11.11 0 0 0 -.11.11z" />
        <path d="m17.2 10.4a.11.11 0 0 0 .11.11.11.11 0 0 0 .12-.11.12.12 0 0 0 -.12-.12.11.11 0 0 0 -.11.12z" />
    </g>
    <path d="m20.82 8.46a.57.57 0 1 1 -.57-.52.55.55 0 0 1 .57.52z" fill="#b96b29" />
    <path
        d="m20.72 8.46a.22.22 0 0 1 0 .08.47.47 0 0 1 -.46.31.45.45 0 0 1 -.45-.31.24.24 0 0 1 0-.08.59.59 0 0 1 0-.14s0 0 0 0a.49.49 0 0 1 .86 0s0 0 0 0a.32.32 0 0 1 .05.14z"
        fill="#1d5e91" />
    <path
        d="m20.7 8.32s0 0 0 0h-.24v-.51h.24v-.3h-.24v-.23h-.38v.23h-.24v.3h.24v.47h-.24s0 0 0 0a.59.59 0 0 0 0 .14.24.24 0 0 0 0 .08h.91a.22.22 0 0 0 0-.08.32.32 0 0 0 -.05-.1z"
        fill="#b96b29" />
    <path
        d="m20.7 8.32h-.32v-.56h.25v-.2h-.25v-.24h-.26v.24h-.24v.2h.24v.56h-.32a.59.59 0 0 0 0 .14h.94a.32.32 0 0 0 -.04-.14z"
        fill="#d4af3a" />
</svg>