<svg viewBox="0 0 40.45 40.5" xmlns="http://www.w3.org/2000/svg">
    <path d="m13.49 1.15v38.2a20.26 20.26 0 0 1 -13.49-18.06v-2.08a20.26 20.26 0 0 1 13.49-18.06z" fill="#da2032" />
    <path d="m27 1.15v38.2a20.3 20.3 0 0 1 -13.47 0v-38.2a20.3 20.3 0 0 1 13.47 0z" fill="#0066b3" />
    <path d="m40.45 19.21v2.08a20.26 20.26 0 0 1 -13.45 18.06v-38.2a20.26 20.26 0 0 1 13.45 18.06z" fill="#da2032" />
    <g fill="#ffd900">
        <path d="m8.09 16.55a1.35 1.35 0 1 1 -1.35-1.35 1.35 1.35 0 0 1 1.35 1.35z" />
        <path d="m6.74 18.23a2 2 0 0 1 -1.86-1.23 1.86 1.86 0 1 0 3.72 0 2 2 0 0 1 -1.86 1.23z" />
        <path d="m6.74 20.25-.83-.5-.84-.51h1.67 1.66l-.83.51z" />
        <path d="m6.74 27.33-.83-.5-.84-.51h1.67 1.66l-.83.51z" />
        <path d="m5.07 20.6h3.33v.65h-3.33z" />
        <path d="m5.07 25.32h3.33v.65h-3.33z" />
        <path d="m3.03 19.24h1.67v8.08h-1.67z" />
        <path d="m8.78 19.24h1.67v8.08h-1.67z" transform="matrix(-1 0 0 -1 19.22 46.57)" />
        <path
            d="m7.53 21.8a.94.94 0 0 1 .21.57c0 .89-.72 1-1.1 1a.78.78 0 0 0 .1 1.63 1.49 1.49 0 0 0 1.49-1 1.67 1.67 0 0 0 -.7-2.2zm-.79 2.7a.34.34 0 1 1 0-.67.34.34 0 0 1 0 .67z" />
        <path
            d="m6.74 21.6a1.52 1.52 0 0 0 -1.5.92 1.69 1.69 0 0 0 .7 2.25 1 1 0 0 1 -.2-.58c0-.89.71-1 1.09-1a.79.79 0 0 0 -.09-1.59zm0 1.13a.33.33 0 0 1 -.34-.33.34.34 0 0 1 .34-.34.33.33 0 0 1 .33.34.32.32 0 0 1 -.33.33z" />
        <path
            d="m6.72 12.14a.27.27 0 0 0 .06.35 1.34 1.34 0 0 1 .3.81 1.16 1.16 0 0 1 -.14.39.21.21 0 0 0 .06.31.17.17 0 0 0 .23-.21.63.63 0 0 1 -.08-.32.67.67 0 0 1 .08-.23.16.16 0 0 0 0-.22.35.35 0 0 1 .13.39.17.17 0 0 0 0 .22c.1.11.27.28.06.79a.88.88 0 0 1 -.85.45.84.84 0 0 1 -.57-.5.64.64 0 0 1 .09-.78.27.27 0 0 0 0-.22c-.06-.14.08-.33.13-.36a.26.26 0 0 0 0 .21c.06.1.11.16.1.26a.6.6 0 0 1 -.07.24c0 .09 0 .28.12.29s.22 0 .2-.2a1.09 1.09 0 0 0 -.09-.24.49.49 0 0 1 0-.49.51.51 0 0 0 .08-.43c-.03-.26.02-.43.16-.51z" />
    </g>
</svg>