<svg viewBox="0 0 40.5 40.5" xmlns="http://www.w3.org/2000/svg">
    <path
        d="m39.89 15.28-17.59 11.72h-21.14s0-.05 0-.08a16.44 16.44 0 0 1 -.51-1.69l17.58-11.73h21.11a.3.3 0 0 1 0 .11c.23.55.4 1.11.55 1.67z"
        fill="#fff" />
    <path d="m39.34 13.5h-21.11l14.17-9.45c.47.36.92.73 1.35 1.12a20.08 20.08 0 0 1 5.59 8.33z" fill="#ed2939" />
    <path d="m32.4 4.05-14.17 9.45-17.61 11.73a20.46 20.46 0 0 1 -.62-5 20.25 20.25 0 0 1 32.4-16.18z" fill="#003580" />
    <path d="m40.5 20.25a20.25 20.25 0 0 1 -32.39 16.21l14.19-9.46 17.59-11.72a20.94 20.94 0 0 1 .61 4.97z"
        fill="#009543" />
    <path d="m22.3 27-14.19 9.46c-.47-.36-.93-.74-1.36-1.13a20.08 20.08 0 0 1 -5.59-8.33z" fill="#ed2939" />
    <path
        d="m39.89 15.28-17.59 11.72-14.19 9.46c-.47-.36-.93-.74-1.36-1.13a20.08 20.08 0 0 1 -5.59-8.33s0-.05 0-.08a16.44 16.44 0 0 1 -.51-1.69l17.58-11.73 14.17-9.45c.47.36.92.73 1.35 1.12a20.08 20.08 0 0 1 5.59 8.33.3.3 0 0 1 0 .11c.23.55.4 1.11.55 1.67z"
        fill="#fff" />
    <path
        d="m39.38 13.61-20.12 13.39-12.51 8.33a20.08 20.08 0 0 1 -5.59-8.33s0-.05 0-.08l20.1-13.42 12.49-8.33a20.08 20.08 0 0 1 5.59 8.33.3.3 0 0 1 .04.11z"
        fill="#d21034" />
    <g fill="#ffce00">
        <path d="m14.39 9.59a2.65 2.65 0 1 1 -2.64-2.59 2.65 2.65 0 0 1 2.64 2.59z" />
        <path d="m10.9 6.5a3.19 3.19 0 0 0 -1.4.81l-.4-2.31z" />
        <path d="m9.46 7.34a3.18 3.18 0 0 0 -.81 1.4l-1.49-1.74z" />
        <path d="m8.54 9.59a3.1 3.1 0 0 0 .1.81l-2.19-.81 2.19-.81a3.1 3.1 0 0 0 -.1.81z" />
        <path d="m9.46 11.85-2.3.39 1.49-1.8a3.2 3.2 0 0 0 .81 1.39z" />
        <path d="m10.9 12.69-1.8 1.49.39-2.3a3.29 3.29 0 0 0 1.4.81z" />
        <path d="m12.56 12.7-.81 2.18-.81-2.18a3.33 3.33 0 0 0 1.62 0z" />
        <path d="m12.56 6.48-.81-2.18-.81 2.18a3.33 3.33 0 0 1 1.62 0z" />
        <path d="m14.39 14.18-1.79-1.49a3.18 3.18 0 0 0 1.4-.81z" />
        <path d="m16.33 12.24-2.33-.39a3.1 3.1 0 0 0 .81-1.39z" />
        <path d="m14.86 10.4a3.33 3.33 0 0 0 0-1.62l2.14.81z" />
        <path d="m16.33 7-1.49 1.74a3.08 3.08 0 0 0 -.84-1.4z" />
        <path d="m14.39 5-.39 2.31a3.08 3.08 0 0 0 -1.4-.81z" />
    </g>
</svg>