<svg viewBox="0 0 40.5 40.5" xmlns="http://www.w3.org/2000/svg">
    <path
        d="m40.5 20.25c0 .57 0 1.12-.08 1.66a20.24 20.24 0 0 1 -40.34 0c-.08-.54-.08-1.09-.08-1.66s0-1.15.08-1.7a20.24 20.24 0 0 1 40.34 0c.05.55.08 1.12.08 1.7z"
        fill="#002b7f" />
    <path
        d="m40.5 20.25c0 .57 0 1.12-.08 1.66h-40.34c-.08-.54-.08-1.09-.08-1.66s0-1.15.08-1.7h40.34c.05.55.08 1.12.08 1.7z"
        fill="#ffc61e" />
    <path
        d="m11.08 22.01.87 3.47 2.48-2.57-.98 3.43 3.44-.98-2.57 2.49 3.46.87-3.46.86 2.57 2.49-3.44-.98.98 3.43-2.48-2.57-.87 3.47-.87-3.47-2.48 2.57.98-3.43-3.44.98 2.57-2.49-3.47-.86 3.47-.87-2.57-2.49 3.44.98-.98-3.43 2.48 2.57z"
        fill="#fff" />
</svg>