<svg viewBox="0 0 40.5 40.5" xmlns="http://www.w3.org/2000/svg">
    <path d="m39.34 13.5h-38.18a20.25 20.25 0 0 1 19.05-13.5 20.24 20.24 0 0 1 19.13 13.5z" fill="#fff" />
    <path
        d="m40.5 20.25a20.19 20.19 0 0 1 -1.16 6.75h-38.18a20.22 20.22 0 0 1 0-13.5h38.18a20.19 20.19 0 0 1 1.16 6.75z"
        fill="#db161b" />
    <path d="m39.34 27a20.24 20.24 0 0 1 -19.09 13.5 20.25 20.25 0 0 1 -19.09-13.5z" fill="#008000" />
    <path d="m20.21 0v40.5a20.25 20.25 0 0 1 -19.05-13.5 20.22 20.22 0 0 1 0-13.5 20.25 20.25 0 0 1 19.05-13.5z"
        fill="#db161b" />
    <path
        d="m13.5 4.52a.4.4 0 0 1 -.15.31l-.08.05a.92.92 0 0 1 -.38.08.93.93 0 0 1 -.39-.08l-.08-.05a.44.44 0 0 1 -.15-.31.42.42 0 0 1 .15-.3h.08a.93.93 0 0 1 .39-.08.92.92 0 0 1 .38.08h.08a.38.38 0 0 1 .15.3z"
        fill="#fff" />
    <path d="m13 4.55a.16.16 0 1 1 -.16-.16.16.16 0 0 1 .16.16z" fill="#fff" />
    <path d="m12.83 4.73a.18.18 0 1 1 .17-.18.18.18 0 0 1 -.17.18zm0-.32a.14.14 0 1 0 0 .28.14.14 0 0 0 0-.28z"
        fill="#db161b" />
    <circle cx="12.83" cy="4.06" fill="#fff" r=".16" />
    <path
        d="m12.83 4.24a.18.18 0 1 1 .17-.18.18.18 0 0 1 -.17.18zm0-.33a.15.15 0 0 0 -.15.15.15.15 0 0 0 .15.14.14.14 0 0 0 .17-.14.15.15 0 0 0 -.17-.15z"
        fill="#db161b" />
    <path d="m13.67 4.55a.16.16 0 0 1 -.16.16.16.16 0 0 1 0-.32.16.16 0 0 1 .16.16z" fill="#fff" />
    <path d="m13.51 4.73a.18.18 0 0 1 0-.36.18.18 0 1 1 0 .36zm0-.32a.14.14 0 0 0 0 .28.14.14 0 1 0 0-.28z"
        fill="#db161b" />
    <path d="m12 4.55a.16.16 0 1 0 .16-.16.16.16 0 0 0 -.16.16z" fill="#fff" />
    <path d="m12.14 4.73a.18.18 0 1 1 .18-.18.18.18 0 0 1 -.18.18zm0-.32a.14.14 0 1 0 .14.14.14.14 0 0 0 -.14-.14z"
        fill="#db161b" />
    <path d="m13.35 4.83a.45.45 0 0 1 -.16-.35.48.48 0 0 1 .16-.3.46.46 0 0 0 -.15.28.42.42 0 0 0 .15.37z"
        fill="#db161b" />
    <path d="m13.24 4.9a.57.57 0 0 1 0-.79.53.53 0 0 0 0 .79z" fill="#db161b" />
    <path d="m12.49 4.5a.42.42 0 0 1 -.16.35.47.47 0 0 0 .16-.33.46.46 0 0 0 -.16-.28.44.44 0 0 1 .16.26z"
        fill="#db161b" />
    <path d="m12.44 4.92a.52.52 0 0 0 0-.75.56.56 0 0 1 0 .75z" fill="#db161b" />
    <path d="m12.54 5h.58v.21h-.58z" fill="#fff" />
    <path d="m13.13 5.23h-.61v-.23h.61zm-.58 0h.55v-.23h-.55z" fill="#db161b" />
    <path d="m12.59 5.21h.46v.4h-.46z" fill="#fff" />
    <path d="m13.08 5.62h-.5v-.43h.5zm-.47 0h.39v-.39h-.43z" fill="#db161b" />
    <path d="m12.51 5.6h.64v.32h-.64z" fill="#fff" />
    <path d="m13.16 5.94h-.67v-.35h.67zm-.63 0h.6v-.32h-.6z" fill="#db161b" />
    <path d="m12.51 5.92h.64v.29h-.64z" fill="#fff" />
    <path d="m13.16 6.23h-.67v-.33h.67zm-.63 0h.6v-.29h-.6z" fill="#db161b" />
    <path d="m12.47 6.21h.71v.29h-.71z" fill="#fff" />
    <path d="m13.2 6.52h-.74v-.33h.74zm-.71 0h.67v-.29h-.67z" fill="#db161b" />
    <path d="m13.18 6.5h-.7a.47.47 0 0 1 -.48.33v1.44h1.65v-1.44a.46.46 0 0 1 -.47-.33z" fill="#fff" />
    <path
        d="m13.65 6.81a.44.44 0 0 1 -.45-.31h-.73a.45.45 0 0 1 -.46.31v1.48h1.69v-1.48zm-1.65.03a.48.48 0 0 0 .47-.32h.68a.47.47 0 0 0 .47.32v1.41h-1.62z"
        fill="#db161b" />
    <path d="m12.83 7.1a.23.23 0 1 1 0-.46.23.23 0 1 1 0 .46zm0-.43a.2.2 0 1 0 0 .4.2.2 0 0 0 0-.4z" fill="#db161b" />
    <path
        d="m13.31 7.1a.18.18 0 0 1 -.18-.17.18.18 0 0 1 .36 0 .18.18 0 0 1 -.18.17zm0-.31a.14.14 0 0 0 -.14.14.14.14 0 1 0 .28 0 .14.14 0 0 0 -.14-.14z"
        fill="#db161b" />
    <path
        d="m12.34 7.1a.18.18 0 0 1 -.17-.17.18.18 0 0 1 .17-.18.18.18 0 0 1 .18.18.18.18 0 0 1 -.18.17zm0-.31a.14.14 0 0 0 -.14.14.15.15 0 0 0 .14.14.14.14 0 0 0 .14-.14.14.14 0 0 0 -.14-.14z"
        fill="#db161b" />
    <path d="m12.53 6.53h.04v.28h-.04z" fill="#db161b"
        transform="matrix(.69966334 -.71447268 .71447268 .69966334 -1 10.97)" />
    <path d="m13.2 6.56-.2.18.02.03.2-.18z" fill="#db161b" />
    <path d="m12 7.07h1.65v.04h-1.65z" fill="#db161b" />
    <path d="m13.65 7.22a6.51 6.51 0 0 1 -1.64 0 5.08 5.08 0 0 0 .78 0h.88z" fill="#db161b" />
    <path d="m13.65 7.47a6.51 6.51 0 0 1 -1.64 0 5.08 5.08 0 0 0 .78 0 7.4 7.4 0 0 0 .88 0z" fill="#db161b" />
    <path d="m12.78 7.81a5.08 5.08 0 0 1 -.78 0 6.51 6.51 0 0 0 1.64 0c-.32-.02-.64 0-.86 0z" fill="#db161b" />
    <path d="m12.78 8.05a5.08 5.08 0 0 1 -.78-.05 5.52 5.52 0 0 0 1.64 0 7.4 7.4 0 0 1 -.86.05z" fill="#db161b" />
    <path
        d="m13 7.49c-.06 0-.11 0-.11-.07s.05-.08.11-.08.11 0 .11.08-.11.07-.11.07zm0-.11s-.07 0-.07 0 0 0 .07 0 .08 0 .08 0-.08 0-.08 0z"
        fill="#db161b" />
    <path d="m13.65 8.11.22-.33.47-.06.17.4-.86 1.11z" fill="#fff" />
    <path d="m13.64 9.28v-1.18l.22-.34.49-.06.18.43zm0-1.17v1.06l.82-1.05-.16-.38h-.45z" fill="#db161b" />
    <path d="m14.57 8.11c1.78-3.11 1.81-3.53 1.86-3.92a.06.06 0 0 0 -.09-.07c-.67.4-2.54 3.62-2.54 3.62z" fill="#fff" />
    <path
        d="m14.58 8.13-.8-.38c.07-.13 1.88-3.22 2.54-3.62a.06.06 0 0 1 .08 0 .09.09 0 0 1 0 .08c-.05.39-.1.84-1.86 3.92zm-.75-.4.73.35c1.75-3 1.81-3.49 1.85-3.88s0 0 0 0c-.69.32-2.41 3.28-2.58 3.53z"
        fill="#db161b" />
    <path d="m13.86 7.77a22.59 22.59 0 0 1 2.43-3.52 0 0 0 0 1 .06 0c-.06.38-.25 1-1.84 3.79z" fill="#fff" />
    <path
        d="m14.52 8.09-.68-.31a23.26 23.26 0 0 1 2.43-3.53.06.06 0 0 1 .06 0 .05.05 0 0 1 0 0c-.06.38-.25 1-1.84 3.8zm-.63-.33.61.29c1.58-2.77 1.78-3.4 1.83-3.77a0 0 0 0 0 0 0 23.3 23.3 0 0 0 -2.44 3.48z"
        fill="#db161b" />
    <path d="m14.47 8-.47-.24.39-.69.51.22zm-.47-.25.43.2.36-.65-.43-.18z" fill="#db161b" />
    <path d="m14.95 7.3-.63-.28.01-.03.64.27z" fill="#db161b" />
    <path d="m16.18 4.86-.31-.15.02-.03.31.15z" fill="#db161b" />
    <path d="m16.27 4.54a.1.1 0 0 1 -.1.11.11.11 0 1 1 0-.22.1.1 0 0 1 .1.11z" fill="#db161b" />
    <path d="m14.44 7.89-.35-.17.3-.55.37.16zm-.3-.18.29.13.28-.49-.3-.13z" fill="#db161b" />
    <path d="m14.4 7.19h.04v.67h-.04z" fill="#db161b"
        transform="matrix(.99859275 -.05303312 .05303312 .99859275 -.38 .78)" />
    <path d="m12 8.11-.22-.33-.47-.06-.17.4.86 1.11z" fill="#fff" />
    <path d="m12 9.28-.9-1.15.18-.43.49.06.23.34zm-.86-1.16.86 1.05v-1.06l-.21-.32h-.45z" fill="#db161b" />
    <path d="m11.08 8.11c-1.78-3.11-1.81-3.53-1.86-3.92 0-.06 0-.09.09-.07.67.4 2.54 3.62 2.54 3.62z" fill="#fff" />
    <path
        d="m11.08 8.13c-1.77-3.13-1.83-3.54-1.87-3.93a.09.09 0 0 1 0-.08.06.06 0 0 1 .08 0c.67.4 2.47 3.49 2.55 3.62zm-1.8-4a0 0 0 0 0 0 0c0 .39.1.83 1.85 3.88l.74-.35c-.15-.25-1.89-3.21-2.53-3.59z"
        fill="#db161b" />
    <path d="m11.79 7.77a22.59 22.59 0 0 0 -2.43-3.52 0 0 0 0 0 0 0c0 .38.24 1 1.83 3.79z" fill="#fff" />
    <path
        d="m11.14 8.09c-1.6-2.79-1.8-3.43-1.85-3.81a.06.06 0 0 1 .06 0 23.41 23.41 0 0 1 2.44 3.53zm-1.8-3.83a0 0 0 0 0 0 0c.06.37.25 1 1.83 3.77l.62-.29a22.7 22.7 0 0 0 -2.42-3.5z"
        fill="#db161b" />
    <path d="m11.19 8-.4-.71.5-.22.4.69zm-.35-.7.36.7.44-.2-.37-.63z" fill="#db161b" />
    <path d="m10.67 7.12h.69v.04h-.69z" fill="#db161b"
        transform="matrix(.91712966 -.39858901 .39858901 .91712966 -1.93 4.98)" />
    <path d="m9.47 4.86-.01-.03.31-.15.01.03z" fill="#db161b" />
    <path d="m9.38 4.54a.11.11 0 1 0 .11-.11.11.11 0 0 0 -.11.11z" fill="#db161b" />
    <path d="m11.21 7.89-.32-.56.37-.16.3.55zm-.27-.54.28.49.29-.13-.26-.49z" fill="#db161b" />
    <path d="m10.9 7.51h.67v.04h-.67z" fill="#db161b"
        transform="matrix(.0532074 -.99858348 .99858348 .0532074 3.12 18.35)" />
    <path d="m11.53 7.73-.62-.37.02-.03.62.37z" fill="#db161b" />
    <path
        d="m13.29 7.48c-.07 0-.12 0-.12-.08s.05-.07.12-.07.11 0 .11.07-.05.08-.11.08zm0-.11s-.08 0-.08 0 0 0 .08 0 .07 0 .07 0-.03 0-.07 0z"
        fill="#db161b" />
    <path d="m13.66 7.31h-.06c-.06 0-.11 0-.11.07s0 .07.11.07h.07v-.14zm0 .09h-.06s-.07 0-.07 0 0 0 .07 0h.05z"
        fill="#db161b" />
    <path
        d="m12.68 7.49c-.06 0-.11 0-.11-.07s0-.08.11-.08.11 0 .11.08-.04.07-.11.07zm0-.11s-.07 0-.07 0 0 0 .07 0 .08 0 .08 0-.03 0-.08 0z"
        fill="#db161b" />
    <path
        d="m12.37 7.48c-.06 0-.11 0-.11-.08s.05-.07.11-.07.11 0 .11.07-.05.08-.11.08zm0-.11s-.08 0-.08 0 0 0 .08 0 .07 0 .07 0-.03 0-.07 0z"
        fill="#db161b" />
    <path
        d="m12.05 7.3h-.05v.12h.07c.07 0 .12 0 .12-.07s-.07-.05-.14-.05zm0 .11h-.05v-.06h.05s.08 0 .08 0-.03.06-.08.06z"
        fill="#db161b" />
    <path d="m11.08 10.92s-1.25 1.18-1.9 1.69l.79.25 2.13-1.86-.83-.2z" fill="#fff" />
    <path
        d="m10 12.88-.82-.27c.64-.49 1.89-1.67 1.9-1.68l.19-.17.87.21zm-.75-.28.75.24 2.06-1.84-.79-.19-.18.16s-1.22 1.12-1.87 1.63z"
        fill="#db161b" />
    <path d="m10.12 12.73s-1.36 1.28-2.23 1c-.06 0-.1-.07.1-.24a13.76 13.76 0 0 0 1.16-1z" fill="#fff" />
    <path
        d="m8.12 13.83a.85.85 0 0 1 -.23 0s-.06 0-.06-.06 0-.12.15-.21l.09-.08a11 11 0 0 0 1.07-1l1 .25a4 4 0 0 1 -2.02 1.1zm1-1.32c-.28.3-.76.7-1.07 1l-.05.04c-.13.12-.14.16-.14.18s0 0 0 0c.78.21 2-.85 2.18-1z"
        fill="#db161b" />
    <path
        d="m8.12 13.74a.64.64 0 0 1 -.2 0 .59.59 0 0 1 .08-.15l.08-.07a13.57 13.57 0 0 0 1.06-.95l.79.19a3.64 3.64 0 0 1 -1.81.98z"
        fill="#fff" />
    <path
        d="m8.12 13.75a.65.65 0 0 1 -.2 0 .46.46 0 0 1 .08-.17l.09-.07a13.51 13.51 0 0 0 1.06-1l.84.21a3.61 3.61 0 0 1 -1.87 1.03zm-.12-.05h.17a3.64 3.64 0 0 0 1.81-1l-.75-.18a13.43 13.43 0 0 1 -1 .95l-.08.07z"
        fill="#db161b" />
    <path
        d="m9.47 12.75a.13.13 0 0 0 -.1 0 .12.12 0 0 1 -.07 0s0 .06 0 .06a.16.16 0 0 0 .09 0 .15.15 0 0 1 .08 0 .15.15 0 0 1 .15.13s-.06.05-.09.05h-.06c-.1 0-.12 0-.12.06 0 .07 0 .11-.08.11s0 0-.06-.11 0-.12-.07-.12a.05.05 0 0 0 0 0s0 0 0 0h-.14s0 0 0 0-.15.18-.15.19a.38.38 0 0 1 0 .14l-.11-.06a.37.37 0 0 0 -.14-.07.16.16 0 0 0 -.15.16 0 0 0 0 0 0 0s0 .08 0 .09h-.16.11a.11.11 0 0 0 .07 0 .17.17 0 0 0 0-.12v-.07a.12.12 0 0 1 .11-.12.27.27 0 0 1 .12.06.36.36 0 0 0 .13.06s0 0 0-.05a.34.34 0 0 0 -.06-.16.91.91 0 0 1 .23.02s0 0 0 0a.07.07 0 0 0 .07 0s0 0 0 .08 0 .14.09.14.1 0 .11-.14 0 0 .09 0h.06s.12 0 .12-.08a.18.18 0 0 0 -.07-.25z"
        fill="#db161b" />
    <path
        d="m9.85 12.62v-.07a.13.13 0 0 0 0-.06v-.06s0 0 0 0a.24.24 0 0 0 .2.07c.13 0 .17 0 .17-.1a.65.65 0 0 0 -.08-.17s0-.05.07-.05a.15.15 0 0 1 .09 0 .07.07 0 0 0 .06 0 .18.18 0 0 0 .17-.16v-.02a0 0 0 0 1 0 0s0 0 0 0a.1.1 0 0 0 .1.07h-.06a.14.14 0 0 1 -.11-.05.22.22 0 0 1 -.21.2.09.09 0 0 1 -.08 0 .08.08 0 0 0 -.07 0 .48.48 0 0 1 .08.19c0 .13-.09.14-.2.14a.39.39 0 0 1 -.2 0v.15z"
        fill="#db161b" />
    <path
        d="m10.67 11.93a.19.19 0 0 1 -.07-.14.25.25 0 0 1 .24-.22h.15s.09 0 .09 0a.06.06 0 0 0 0-.05.2.2 0 0 1 0-.1 1.5 1.5 0 0 1 .31-.24h.12-.12a1.24 1.24 0 0 0 -.27.21.14.14 0 0 0 0 .07.09.09 0 0 1 0 .07c0 .06-.09.08-.14.08h-.14a.23.23 0 0 0 -.21.19c0 .05 0 .07.06.11z"
        fill="#db161b" />
    <path d="m14.56 10.92s1.25 1.18 1.9 1.69l-.79.25-2.55-2.3.3-.66z" fill="#fff" />
    <path
        d="m15.67 12.88-2.57-2.31.32-.7 1.15 1s1.26 1.19 1.9 1.68zm-2.53-2.32 2.54 2.28.74-.24c-.64-.51-1.85-1.65-1.87-1.67l-1.12-1z"
        fill="#db161b" />
    <path d="m15.52 12.73s1.37 1.28 2.23 1c.06 0 .1-.07-.1-.24a13.76 13.76 0 0 1 -1.16-1z" fill="#fff" />
    <path
        d="m17.52 13.83a4 4 0 0 1 -2-1.09l1-.25a11.11 11.11 0 0 0 1.08 1l.08.08c.12.09.17.16.16.21a.09.09 0 0 1 -.07.06.85.85 0 0 1 -.25-.01zm-2-1.09c.19.17 1.4 1.23 2.18 1s0-.06-.14-.18l-.09-.07c-.31-.27-.79-.67-1.07-1z"
        fill="#db161b" />
    <path d="m17.52 13.74a.64.64 0 0 0 .2 0l-.11-.12-.09-.07c-.31-.26-.77-.65-1.06-.95l-.79.19a3.68 3.68 0 0 0 1.85.95z"
        fill="#fff" />
    <path
        d="m17.52 13.75a3.65 3.65 0 0 1 -1.86-1l.84-.21a11.82 11.82 0 0 0 1.05 1l.09.07a1.25 1.25 0 0 1 .12.12.71.71 0 0 1 -.24.02zm-1.81-1a3.64 3.64 0 0 0 1.81 1h.17l-.09-.09-.09-.07a13.43 13.43 0 0 1 -1.05-.95z"
        fill="#db161b" />
    <path
        d="m17.25 13.55a.1.1 0 0 1 -.07 0s0-.06 0-.12v-.07a.12.12 0 0 0 -.11-.12.27.27 0 0 0 -.12.06.3.3 0 0 1 -.13.06s0 0 0-.05a.5.5 0 0 1 .05-.16l-.18-.15s0 0-.05 0a.08.08 0 0 1 -.07 0s0 0 0 0 0 0 0 .08 0 .14-.09.14-.1 0-.11-.14 0 0-.08 0h-.07s-.22-.08-.22-.17a.19.19 0 0 1 .19-.16.12.12 0 0 1 .09 0h.07.05s0 0 0 0 0 .06-.05.06h-.05a.19.19 0 0 1 -.09 0 .15.15 0 0 0 -.07 0 .15.15 0 0 0 -.15.13s0 .05.08.05h.07c.09 0 .11 0 .11.06 0 .07 0 .11.08.11s.05 0 .06-.11 0-.12.07-.12.05 0 .06 0a0 0 0 0 0 0 0s0 0 0 0 .15.18.15.19a.38.38 0 0 0 0 .14l.11-.06a.37.37 0 0 1 .14-.07.16.16 0 0 1 .15.16v.07s0 .08 0 .09h.16-.11z"
        fill="#db161b" />
    <path
        d="m15.83 12.62s0 0 0-.06v-.09a.37.37 0 0 1 -.2 0c-.1 0-.2 0-.2-.14a.4.4 0 0 1 .09-.19.06.06 0 0 0 -.06 0 .11.11 0 0 1 -.09 0 .21.21 0 0 1 -.2-.2.11.11 0 0 1 -.1.05h-.07a.12.12 0 0 0 .1-.07s0 0 0 0v.08a.18.18 0 0 0 .17.16.07.07 0 0 0 .06 0 .15.15 0 0 1 .09 0s.07 0 .07.05a.44.44 0 0 0 -.08.17c0 .08 0 .1.16.1s.18 0 .2-.07 0 0 0 0a.08.08 0 0 1 0 0 .35.35 0 0 0 0 .06s0 0 0 .06z"
        fill="#db161b" />
    <path
        d="m15 11.93s.06-.06.06-.11a.23.23 0 0 0 -.2-.19h-.14s-.13 0-.13-.08a.1.1 0 0 1 0-.07v-.07a1.57 1.57 0 0 0 -.28-.21h-.12.12a1.5 1.5 0 0 1 .31.24.2.2 0 0 1 0 .1.06.06 0 0 0 0 .05s.06 0 .1 0h.15a.26.26 0 0 1 .24.22.22.22 0 0 1 -.11.12z"
        fill="#db161b" />
    <path
        d="m13 8.25c-.06 0-.11 0-.11-.07s.05-.07.11-.07.11 0 .11.07-.11.07-.11.07zm0-.11s-.07 0-.07 0 0 0 .07 0 .08 0 .08 0-.08 0-.08 0z"
        fill="#db161b" />
    <path
        d="m13.29 8.24c-.07 0-.12 0-.12-.08s.05-.07.12-.07.11 0 .11.07-.05.08-.11.08zm0-.11s-.08 0-.08 0 0 0 .08 0 .07 0 .07 0-.03 0-.07 0z"
        fill="#db161b" />
    <path d="m13.66 8.07h-.06c-.06 0-.11 0-.11.07s0 .08.11.08h.07v-.14zm0 .09h-.06s-.07 0-.07 0 0 0 .07 0h.05z"
        fill="#db161b" />
    <path
        d="m12.68 8.25c-.06 0-.11 0-.11-.07s0-.07.11-.07.11 0 .11.07-.04.07-.11.07zm0-.11s-.07 0-.07 0 0 0 .07 0 .08 0 .08 0-.03 0-.08 0z"
        fill="#db161b" />
    <path
        d="m12.37 8.24c-.06 0-.11 0-.11-.08s.05-.07.11-.07.11 0 .11.07-.05.08-.11.08zm0-.11s-.08 0-.08 0 0 0 .08 0 .07 0 .07 0-.03 0-.07 0z"
        fill="#db161b" />
    <path
        d="m12.05 8.06h-.05v.11h.07c.07 0 .12 0 .12-.08s-.07-.03-.14-.03zm0 .11h-.05v-.06h.05s.08 0 .08 0-.03.06-.08.06z"
        fill="#db161b" />
    <path
        d="m13.65 8.27v1.65a.9.9 0 0 1 -.06.22.69.69 0 0 1 -.07.15 1.41 1.41 0 0 1 -.63.56 1.69 1.69 0 0 1 -.27.1h-.22-.19-.67-.15-.16-.15-.15-.15-.15-.15-.15-.14l-.69-.15-.32-.09c-.53-.16-.87-.34-.87-.52s.36-.26.87-.33h.34c.58-.06 1.29-.08 1.89-.1h.36.06a.15.15 0 0 0 .07-.1c0-.05 0-.12 0-.19l.1-.47c0-.2 0-.45 0-.72z"
        fill="#fff" />
    <path
        d="m12.06 11h-.67-.16-.15-.15-.16-.15-.14-.15-.15l-.68-.15-.33-.09c-.58-.18-.88-.36-.88-.54s.29-.27.89-.35h.34c.6-.06 1.32-.08 1.89-.09h.36.05a.15.15 0 0 0 .06-.09c0-.05 0-.12 0-.2s0-.12 0-.2a5.79 5.79 0 0 0 0-.72h1.69v1.35a.86.86 0 0 1 -.06.23 1 1 0 0 1 -.07.15 1.53 1.53 0 0 1 -.64.57 2.29 2.29 0 0 1 -.28.09h-.22-.19zm-.21-1.52h-.06-.37c-.56 0-1.29 0-1.89.1h-.34c-.7.09-.85.22-.85.31s.3.33.85.5l.32.09c.21.05.44.11.69.15h.14.09.06.15.15.15.15.16.15.16.14.5.2.21a1.69 1.69 0 0 0 .27-.1 1.46 1.46 0 0 0 .63-.55l.07-.14a1.55 1.55 0 0 0 .05-.23s0-.07 0-.1v-1.22h-1.63a5.74 5.74 0 0 1 0 .71v.2.2a.18.18 0 0 1 -.15.11z"
        fill="#db161b" />
    <path d="m9.5 10.62-.32-.09a2.57 2.57 0 0 1 0-.85h.34a3.43 3.43 0 0 0 -.02.94z" fill="#fff" />
    <path
        d="m9.52 10.64-.33-.09a2.87 2.87 0 0 1 0-.85h.35a3.38 3.38 0 0 0 0 1zm-.33-.13.29.08a3.49 3.49 0 0 1 0-.93h-.31a3 3 0 0 0 .02.85z"
        fill="#db161b" />
    <path d="m8.82 9.68h.04v.9h-.04z" fill="#db161b"
        transform="matrix(.67533281 -.73751312 .73751312 .67533281 -4.6 9.8)" />
    <path d="m8.39 9.97h.85v.04h-.85z" fill="#db161b"
        transform="matrix(.81350696 -.58155518 .58155518 .81350696 -4.16 6.99)" />
    <path
        d="m11.81 10.88s0 .08 0 .13h-.27a1 1 0 0 1 0-.15s0-.1 0-.16 0-.1 0-.16v-.35c0-.06 0-.12 0-.18s0-.13 0-.19a1.23 1.23 0 0 0 0-.19h.21.06a1.48 1.48 0 0 0 0 .16v.19a1.15 1.15 0 0 1 0 .18v.52.17s0-.02 0 .03z"
        fill="#fff" />
    <g fill="#db161b">
        <path
            d="m11.85 11h-.31a.78.78 0 0 1 0-.16c0-.05 0-.1 0-.16s0-.11 0-.16v-.35c0-.06 0-.12 0-.18s0-.13 0-.19a1.23 1.23 0 0 1 0-.2v-.08h.23.05s0 .05 0 .15a1.34 1.34 0 0 1 0 .19v.18.52a1 1 0 0 0 0 .17s0 .1 0 .16 0 .08 0 .12zm-.28 0h.13.11a.41.41 0 0 1 0-.11c0-.05 0-.11 0-.16a1 1 0 0 0 0-.17v-.34a1.09 1.09 0 0 1 0-.18 1 1 0 0 1 0-.18 1 1 0 0 1 0-.19c0-.05 0-.1 0-.12h-.24v.19s0 .12 0 .19a1.09 1.09 0 0 0 0 .18v.35a.92.92 0 0 0 0 .16s0 .11 0 .16a1 1 0 0 1 0 .15z" />
        <path d="m9.46 9.71h.52v.04h-.52z" transform="matrix(.87436574 -.4852675 .4852675 .87436574 -3.5 5.94)" />
        <path d="m9.48 10.03v-.01l-.01-.02.78-.43.01.03z" />
        <path d="m9.4 9.84h1.19v.04h-1.19z" transform="matrix(.87436574 -.4852675 .4852675 .87436574 -3.53 6.09)" />
        <path d="m8.94 10.47v-.04z" />
        <path d="m9.38 9.91h1.52v.04h-1.52z" transform="matrix(.87470431 -.48465696 .48465696 .87470431 -3.54 6.16)" />
        <path d="m9.36 9.98h1.83v.04h-1.83z" transform="matrix(.87402675 -.48587781 .48587781 .87402675 -3.56 6.25)" />
        <path d="m9.36 10.04h2.1v.04h-2.1z" transform="matrix(.87453508 -.48496226 .48496226 .87453508 -3.57 6.31)" />
        <path d="m9.44 10.07h2.26v.04h-2.26z" transform="matrix(.87385709 -.48618287 .48618287 .87385709 -3.57 6.41)" />
        <path d="m10.1 10.77-.02-.03 1.43-.8.02.03z" />
        <path d="m10.2 10.43h1.4v.04h-1.4z" transform="matrix(.87521136 -.48374071 .48374071 .87521136 -3.7 6.58)" />
        <path d="m10.37 10.5h1.22v.04h-1.22z" transform="matrix(.87334748 -.48709771 .48709771 .87334748 -3.74 6.68)" />
        <path d="m10.6 10.6h.97v.04h-.97z" transform="matrix(.87453508 -.48496226 .48496226 .87453508 -3.76 6.71)" />
        <path d="m10.8 10.68h.75v.04h-.75z" transform="matrix(.8741963 -.48557269 .48557269 .8741963 -3.79 6.78)" />
        <path d="m11.02 10.93v-.02l-.01-.02.5-.27.02.03z" />
        <path d="m11.18 10.82h.38v.04h-.38z" transform="matrix(.87334748 -.48709771 .48709771 .87334748 -3.84 6.91)" />
        <path d="m11.38 10.97-.01-.03.16-.09.02.03z" />
        <path d="m9.8 10.25h1.84v.04h-1.84z" transform="matrix(.87436574 -.4852675 .4852675 .87436574 -3.64 6.49)" />
        <path d="m9.6 10.17h2.07v.04h-2.07z" transform="matrix(.88220906 -.47085791 .47085791 .88220906 -3.54 6.21)" />
        <path d="m11.83 9.56v-.03z" />
        <path d="m9.52 9.74-.02-.03.19-.1h.01v.01l.01.02z" />
        <path d="m11.9 10.76h.04v.3h-.04z" transform="matrix(.70685991 -.70735356 .70735356 .70685991 -4.22 11.62)" />
        <path d="m11.97 10.54h.04v.56h-.04z" transform="matrix(.70710678 -.70710678 .70710678 .70710678 -4.13 11.65)" />
        <path d="m12.34 11.01-.56-.56.02-.02.56.55z" />
        <path d="m12.13 10.12h.04v1h-.04z" transform="matrix(.70710678 -.70710678 .70710678 .70710678 -3.95 11.7)" />
        <path d="m12.2 9.92h.04v1.2h-.04z" transform="matrix(.70710678 -.70710678 .70710678 .70710678 -3.86 11.72)" />
        <path d="m12.76 10.91-.97-.97.02-.03.97.97z" />
        <path d="m12.33 9.54h.04v1.53h-.04z" transform="matrix(.70710678 -.70710678 .70710678 .70710678 -3.67 11.75)" />
        <path d="m12.4 9.35h.04v1.68h-.04z" transform="matrix(.70710678 -.70710678 .70710678 .70710678 -3.57 11.76)" />
        <path d="m12.47 9.21h.04v1.77h-.04z" transform="matrix(.70710678 -.70710678 .70710678 .70710678 -3.48 11.79)" />
        <path d="m12.54 9.07h.04v1.84h-.04z" transform="matrix(.70710678 -.70710678 .70710678 .70710678 -3.39 11.81)" />
        <path d="m12.6 8.91h.04v1.94h-.04z" transform="matrix(.70710678 -.70710678 .70710678 .70710678 -3.29 11.82)" />
        <path d="m12.65 8.74h.04v2.03h-.04z" transform="matrix(.70710678 -.70710678 .70710678 .70710678 -3.19 11.82)" />
        <path d="m12.7 8.57h.04v2.11h-.04z" transform="matrix(.70710678 -.70710678 .70710678 .70710678 -3.08 11.81)" />
        <path d="m12.74 8.4h.04v2.19h-.04z" transform="matrix(.70710678 -.70710678 .70710678 .70710678 -2.98 11.8)" />
        <path d="m12.78 8.23h.04v2.25h-.04z" transform="matrix(.70710678 -.70710678 .70710678 .70710678 -2.87 11.79)" />
        <path d="m12.8 8.05h.04v2.3h-.04z" transform="matrix(.70710678 -.70710678 .70710678 .70710678 -2.75 11.76)" />
        <path d="m13.64 9.88-1.6-1.6.03-.02 1.59 1.59z" />
        <path d="m12.92 7.98h.04v2.01h-.04z" transform="matrix(.70710678 -.70710678 .70710678 .70710678 -2.56 11.78)" />
        <path d="m13.01 8.01h.04v1.77h-.04z" transform="matrix(.70710678 -.70710678 .70710678 .70710678 -2.47 11.82)" />
        <path d="m13.1 8.05h.04v1.52h-.04z" transform="matrix(.70710678 -.70710678 .70710678 .70710678 -2.39 11.85)" />
        <path d="m13.19 8.08h.04v1.28h-.04z" transform="matrix(.70710678 -.70710678 .70710678 .70710678 -2.3 11.89)" />
        <path d="m13.27 8.12h.04v1.03h-.04z" transform="matrix(.70710678 -.70710678 .70710678 .70710678 -2.21 11.93)" />
        <path d="m13.36 8.16h.04v.78h-.04z" transform="matrix(.70723018 -.70698336 .70698336 .70723018 -2.13 11.96)" />
        <path d="m13.45 8.19h.04v.54h-.04z" transform="matrix(.70723018 -.70698336 .70698336 .70723018 -2.04 12)" />
        <path d="m13.53 8.23h.04v.29h-.04z" transform="matrix(.70723018 -.70698336 .70698336 .70723018 -1.95 12.03)" />
        <path d="m12.74 10.48h1v.04h-1z" transform="matrix(.70846302 -.70574793 .70574793 .70846302 -3.55 12.4)" />
        <path d="m12.4 10.41h1.46v.04h-1.46z"
            transform="matrix(.70710678 -.70710678 .70710678 .70710678 -3.53 12.34)" />
        <path d="m12.41 11-.02-.02 1.25-1.26.03.03z" />
        <path d="m12.22 11.02-.03-.02 1.45-1.45.03.02z" />
        <path d="m11.69 10.18h2.3v.04h-2.3z" transform="matrix(.70710678 -.70710678 .70710678 .70710678 -3.45 12.07)" />
        <path d="m11.87 11.02-.02-.02 1.79-1.8.03.03z" />
        <path d="m11.43 9.94h2.6v.04h-2.6z" transform="matrix(.70574793 -.70846302 .70846302 .70574793 -3.31 11.95)" />
        <path d="m11.81 10.73-.02-.02 1.85-1.86.03.03z" />
        <path d="m11.54 10.95h.02v.04h-.02z" transform="matrix(.70710678 -.70710678 .70710678 .70710678 -4.37 11.38)" />
        <path d="m11.8 10.57-.02-.03 1.86-1.86.03.03z" />
        <path d="m11.4 9.44h2.63v.04h-2.63z" transform="matrix(.70735356 -.70685991 .70685991 .70735356 -2.96 11.76)" />
        <path d="m11.4 9.26h2.64v.04h-2.64z" transform="matrix(.70685991 -.70735356 .70735356 .70685991 -2.83 11.72)" />
        <path d="m11.81 10.04-.03-.02 1.76-1.76.03.02z" />
        <path d="m11.82 9.86-.03-.02 1.58-1.58.02.02z" />
        <path d="m11.83 9.67-.03-.02 1.39-1.39.03.02z" />
        <path d="m11.66 8.82h1.6v.04h-1.6z" transform="matrix(.70710678 -.70710678 .70710678 .70710678 -2.6 11.4)" />
        <path d="m11.95 9.21-.03-.03.93-.92.02.02z" />
        <path d="m11.81 8.61h1.02v.04h-1.02z" transform="matrix(.70710678 -.70710678 .70710678 .70710678 -2.5 11.24)" />
        <path d="m11.87 8.52h.76v.04h-.76z" transform="matrix(.70685991 -.70735356 .70735356 .70685991 -2.45 11.17)" />
        <path d="m11.92 8.43h.51v.04h-.51z" transform="matrix(.70710678 -.70710678 .70710678 .70710678 -2.41 11.08)" />
        <path d="m11.96 8.34h.26v.04h-.26z" transform="matrix(.70710678 -.70710678 .70710678 .70710678 -2.37 11)" />
    </g>
    <path
        d="m13.59 8.12a.37.37 0 0 0 -.31.4.32.32 0 1 0 .62 0 .37.37 0 0 0 -.31-.4zm0 .65c-.1 0-.18-.11-.18-.25s.08-.25.18-.25.18.11.18.25-.08.25-.18.25z"
        fill="#fff" />
    <path
        d="m13.59 8.93a.37.37 0 0 1 -.32-.41.37.37 0 0 1 .32-.41.42.42 0 0 1 0 .82zm0-.79a.39.39 0 1 0 .29.38.34.34 0 0 0 -.29-.38zm0 .64c-.11 0-.2-.11-.2-.26s.09-.27.2-.27.2.12.2.27-.09.26-.2.26zm0-.49c-.09 0-.16.1-.16.23s.07.23.16.23.16-.1.16-.23-.07-.23-.16-.23z"
        fill="#db161b" />
    <path d="m13.07 8.36h.42v.36h-.42z" fill="#fff" />
    <path d="m13.51 8.74h-.45v-.4h.45zm-.42 0h.38v-.36h-.38z" fill="#db161b" />
    <path d="m11.93 8.39h1.14v.3h-1.14z" fill="#fff" />
    <path d="m13.09 8.71h-1.17v-.34h1.17zm-1.09-.04h1.11v-.26h-1.11z" fill="#db161b" />
    <path
        d="m12.13 8.08c-.16 0-.28.19-.28.42s.12.42.28.42.28-.18.28-.42-.13-.42-.28-.42zm0 .75c-.12 0-.22-.15-.22-.33s.1-.32.22-.32.19.14.19.32-.07.33-.19.33z"
        fill="#fff" />
    <path
        d="m12.13 8.94c-.17 0-.3-.19-.3-.44s.13-.43.3-.43.29.19.29.43-.13.44-.29.44zm0-.84c-.15 0-.26.18-.26.4s.11.41.26.41.26-.18.26-.41-.12-.4-.26-.4zm0 .75c-.13 0-.24-.16-.24-.35s.11-.34.24-.34.2.14.2.34-.08.35-.2.35zm0-.65c-.11 0-.2.13-.2.3s.09.31.2.31.17-.12.17-.31-.07-.3-.17-.3z"
        fill="#db161b" />
    <path
        d="m11 8.05a.54.54 0 0 0 -.59.47.54.54 0 0 0 .59.48.54.54 0 0 0 .59-.48.54.54 0 0 0 -.59-.47zm0 .85a.38.38 0 1 1 .36-.38.37.37 0 0 1 -.36.38z"
        fill="#fff" />
    <path
        d="m11 9a.56.56 0 0 1 -.6-.5.62.62 0 0 1 1.21 0 .57.57 0 0 1 -.61.5zm0-.95a.52.52 0 0 0 -.57.45.59.59 0 0 0 1.15 0 .53.53 0 0 0 -.58-.43zm0 .85a.39.39 0 0 1 -.37-.4.38.38 0 1 1 .75 0 .39.39 0 0 1 -.38.42zm0-.76a.36.36 0 0 0 0 .72.36.36 0 0 0 0-.72z"
        fill="#db161b" />
    <path
        d="m11.67 8.18a.35.35 0 0 0 0 .68c.15 0 .26-.15.26-.34s-.11-.34-.26-.34zm0 .55c-.09 0-.16-.09-.16-.21s.07-.21.16-.21.16.09.16.21-.07.21-.16.21z"
        fill="#fff" />
    <path
        d="m11.67 8.88a.37.37 0 0 1 0-.72.37.37 0 0 1 0 .72zm0-.68a.33.33 0 1 0 .25.32.29.29 0 0 0 -.25-.32zm0 .55a.24.24 0 0 1 0-.46c.1 0 .17.1.17.23s-.07.23-.17.23zm0-.43c-.08 0-.14.09-.14.2s.06.19.14.19.14-.08.14-.19-.06-.2-.14-.2z"
        fill="#db161b" />
    <path d="m8.04 7.98h2.16v1.2h-2.16z" fill="#fff" />
    <path d="m8.11 8.05h2.02v1.07h-2.02z" fill="#fff" />
    <path d="m10.13 9.13h-2s0 0 0 0v-1.08a0 0 0 0 1 0 0h2s0 0 0 0v1.07s.01.01 0 .01zm0-1.06h-2v1h2z" fill="#db161b" />
    <path d="m11.22 8.36h.42v.36h-.42z" fill="#fff" />
    <path d="m11.65 8.74h-.45v-.4h.45zm-.41 0h.38v-.36h-.38z" fill="#db161b" />
    <path d="m9.16 8.59a.09.09 0 1 1 -.09-.09.09.09 0 0 1 .09.09z" fill="#fff" />
    <path d="m9.07 8.7a.11.11 0 0 1 0-.22.11.11 0 0 1 0 .22zm0-.18a.07.07 0 0 0 0 .14.07.07 0 1 0 0-.14z"
        fill="#db161b" />
    <path
        d="m9.15 8.87h-.15v-.07h-.08v.05l-.08-.08h-.15s0 0 0 0v-.24s0 0 0 0h.13l-.07-.07.1-.08.15.02h.12.05l.06-.05.08.07h-.06.1v.1l.05.05s0 0 0 0l-.07.08-.05-.06h-.08v.07zm-.09 0h.08v-.12a.15.15 0 0 0 .09 0h.05v-.05s0 0 0 0h.08v-.14h-.03a0 0 0 0 1 0 0s0 0 0 0v-.05h-.05s0 0 0 0a.11.11 0 0 0 -.07 0h-.16l-.05-.07-.08-.06-.07.06.06.06a0 0 0 0 1 0 0s0 0 0 0h-.2v.07h.11s0 0 0 0h.05a.19.19 0 0 0 .1 0z"
        fill="#db161b" />
    <path d="m9.97 8.29h.79v.5h-.79z" fill="#fff" />
    <path d="m10.78 8.81h-.78v-.54h.83zm-.79 0h.75v-.5h-.74z" fill="#db161b" />
    <path d="m8.2 9.1-.02-.03.13-.13.03.02z" fill="#db161b" />
    <path d="m8.29 9h.19v.04h-.19z" fill="#db161b"
        transform="matrix(.70735356 -.70685991 .70685991 .70735356 -3.92 8.57)" />
    <path d="m8.42 9h.19v.04h-.19z" fill="#db161b"
        transform="matrix(.70685991 -.70735356 .70735356 .70685991 -3.88 8.66)" />
    <path d="m8.54 9h.19v.04h-.19z" fill="#db161b"
        transform="matrix(.70574793 -.70846302 .70846302 .70574793 -3.85 8.77)" />
    <path d="m8.67 9h.19v.04h-.19z" fill="#db161b"
        transform="matrix(.70710678 -.70710678 .70710678 .70710678 -3.81 8.84)" />
    <path d="m8.84 9.1-.03-.03.14-.13.02.02z" fill="#db161b" />
    <path d="m8.92 9h.19v.04h-.19z" fill="#db161b"
        transform="matrix(.70574793 -.70846302 .70846302 .70574793 -3.74 9.04)" />
    <path d="m9.05 9h.19v.04h-.19z" fill="#db161b"
        transform="matrix(.70735356 -.70685991 .70685991 .70735356 -3.7 9.1)" />
    <path d="m9.22 9.1-.03-.03.13-.13.03.02z" fill="#db161b" />
    <path d="m9.3 9h.19v.04h-.19z" fill="#db161b"
        transform="matrix(.70710678 -.70710678 .70710678 .70710678 -3.62 9.29)" />
    <path d="m9.47 9.1-.02-.03.13-.13.02.02z" fill="#db161b" />
    <path d="m9.56 9h.19v.04h-.19z" fill="#db161b"
        transform="matrix(.70574793 -.70846302 .70846302 .70574793 -3.55 9.49)" />
    <path d="m9.69 9h.19v.04h-.19z" fill="#db161b"
        transform="matrix(.70710678 -.70710678 .70710678 .70710678 -3.51 9.56)" />
    <path d="m9.85 9.1-.02-.03.13-.13.02.02z" fill="#db161b" />
    <path d="m9.93 8.92h.04v.19h-.04z" fill="#db161b"
        transform="matrix(.70685991 -.70735356 .70735356 .70685991 -3.46 9.68)" />
    <path d="m9.81 8.92h.04v.19h-.04z" fill="#db161b"
        transform="matrix(.70710678 -.70710678 .70710678 .70710678 -3.5 9.59)" />
    <path d="m9.68 8.92h.04v.19h-.04z" fill="#db161b"
        transform="matrix(.70710678 -.70710678 .70710678 .70710678 -3.54 9.5)" />
    <path d="m9.62 9.1-.13-.14.03-.02.13.13z" fill="#db161b" />
    <path d="m9.42 8.92h.04v.19h-.04z" fill="#db161b"
        transform="matrix(.70710678 -.70710678 .70710678 .70710678 -3.61 9.32)" />
    <path d="m9.3 8.92h.04v.19h-.04z" fill="#db161b"
        transform="matrix(.70710678 -.70710678 .70710678 .70710678 -3.65 9.23)" />
    <path d="m9.17 8.92h.04v.19h-.04z" fill="#db161b"
        transform="matrix(.70710678 -.70710678 .70710678 .70710678 -3.69 9.14)" />
    <path d="m9.11 9.1-.13-.14.02-.02.14.13z" fill="#db161b" />
    <path d="m8.91 8.92h.04v.19h-.04z" fill="#db161b"
        transform="matrix(.70710678 -.70710678 .70710678 .70710678 -3.76 8.96)" />
    <path d="m8.78 8.92h.04v.19h-.04z" fill="#db161b"
        transform="matrix(.70710678 -.70710678 .70710678 .70710678 -3.8 8.87)" />
    <path d="m8.73 9.1-.13-.14.02-.02.13.13z" fill="#db161b" />
    <path d="m8.53 8.92h.04v.19h-.04z" fill="#db161b"
        transform="matrix(.70685991 -.70735356 .70735356 .70685991 -3.87 8.69)" />
    <path d="m8.4 8.92h.04v.19h-.04z" fill="#db161b"
        transform="matrix(.70685991 -.70735356 .70735356 .70685991 -3.91 8.6)" />
    <path d="m8.27 8.92h.04v.19h-.04z" fill="#db161b"
        transform="matrix(.70710678 -.70710678 .70710678 .70710678 -3.95 8.5)" />
    <path d="m8.24 8.07h.04v.19h-.04z" fill="#db161b"
        transform="matrix(.70710678 -.70710678 .70710678 .70710678 -3.36 8.23)" />
    <path d="m8.44 8.24-.14-.13.03-.02.13.13z" fill="#db161b" />
    <path d="m8.49 8.07h.04v.19h-.04z" fill="#db161b"
        transform="matrix(.70710678 -.70710678 .70710678 .70710678 -3.28 8.41)" />
    <path d="m8.62 8.07h.04v.19h-.04z" fill="#db161b"
        transform="matrix(.70685991 -.70735356 .70735356 .70685991 -3.24 8.5)" />
    <path d="m8.82 8.24-.13-.13.02-.02.13.13z" fill="#db161b" />
    <path d="m8.87 8.07h.04v.19h-.04z" fill="#db161b"
        transform="matrix(.70710678 -.70710678 .70710678 .70710678 -3.17 8.68)" />
    <path d="m9 8.07h.04v.19h-.04z" fill="#db161b"
        transform="matrix(.70685991 -.70735356 .70735356 .70685991 -3.13 8.77)" />
    <path d="m9.2 8.24-.13-.13.02-.02.13.13z" fill="#db161b" />
    <path d="m9.25 8.07h.04v.19h-.04z" fill="#db161b"
        transform="matrix(.70710678 -.70710678 .70710678 .70710678 -3.06 8.95)" />
    <path d="m9.45 8.24-.13-.13.03-.02.13.13z" fill="#db161b" />
    <path d="m9.51 8.07h.04v.19h-.04z" fill="#db161b"
        transform="matrix(.70710678 -.70710678 .70710678 .70710678 -2.98 9.13)" />
    <path d="m9.63 8.07h.04v.19h-.04z" fill="#db161b"
        transform="matrix(.70685991 -.70735356 .70735356 .70685991 -2.95 9.22)" />
    <path d="m9.83 8.24-.13-.13.02-.02.14.13z" fill="#db161b" />
    <path d="m9.89 8.07h.04v.19h-.04z" fill="#db161b"
        transform="matrix(.70710678 -.70710678 .70710678 .70710678 -2.87 9.4)" />
    <path d="m9.86 8.15h.19v.04h-.19z" fill="#db161b"
        transform="matrix(.70710678 -.70710678 .70710678 .70710678 -2.86 9.43)" />
    <path d="m9.77 8.24-.03-.02.14-.13.02.02z" fill="#db161b" />
    <path d="m9.6 8.15h.19v.04h-.19z" fill="#db161b"
        transform="matrix(.70846302 -.70574793 .70574793 .70846302 -2.94 9.22)" />
    <path d="m9.48 8.15h.19v.04h-.19z" fill="#db161b"
        transform="matrix(.70710678 -.70710678 .70710678 .70710678 -2.97 9.16)" />
    <path d="m9.39 8.24-.03-.02.13-.13.03.02z" fill="#db161b" />
    <path d="m9.26 8.24-.03-.02.14-.13.02.02z" fill="#db161b" />
    <path d="m9.09 8.15h.19v.04h-.19z" fill="#db161b"
        transform="matrix(.70846302 -.70574793 .70574793 .70846302 -3.08 8.86)" />
    <path d="m8.96 8.15h.19v.04h-.19z" fill="#db161b"
        transform="matrix(.70710678 -.70710678 .70710678 .70710678 -3.12 8.8)" />
    <path d="m8.88 8.24-.03-.02.13-.13.03.02z" fill="#db161b" />
    <path d="m8.75 8.24-.03-.02.14-.13.02.02z" fill="#db161b" />
    <path d="m8.58 8.15h.19v.04h-.19z" fill="#db161b"
        transform="matrix(.70710678 -.70710678 .70710678 .70710678 -3.23 8.53)" />
    <path d="m8.45 8.15h.19v.04h-.19z" fill="#db161b"
        transform="matrix(.70710678 -.70710678 .70710678 .70710678 -3.27 8.44)" />
    <path d="m8.33 8.15h.19v.04h-.19z" fill="#db161b"
        transform="matrix(.70710678 -.70710678 .70710678 .70710678 -3.31 8.35)" />
    <path d="m8.24 8.24-.03-.02.14-.13.02.02z" fill="#db161b" />
    <path
        d="m14.11 8.52a.54.54 0 0 0 .59.48.54.54 0 0 0 .59-.48.54.54 0 0 0 -.59-.47.54.54 0 0 0 -.59.47zm.23 0a.36.36 0 1 1 .36.38.37.37 0 0 1 -.36-.38z"
        fill="#fff" />
    <path
        d="m14.7 9a.57.57 0 0 1 -.61-.5.62.62 0 0 1 1.21 0 .56.56 0 0 1 -.6.5zm0-.95a.52.52 0 0 0 -.57.45.52.52 0 0 0 .57.5.53.53 0 0 0 .57-.46.52.52 0 0 0 -.57-.47zm0 .85a.39.39 0 0 1 -.38-.4.38.38 0 1 1 .75 0 .39.39 0 0 1 -.37.42zm0-.76a.36.36 0 0 0 0 .72.36.36 0 0 0 0-.72z"
        fill="#db161b" />
    <path d="m15.49 7.98h2.16v1.2h-2.16z" fill="#fff" transform="matrix(-1 0 0 -1 33.15 17.16)" />
    <path d="m15.57 8.05h2.02v1.07h-2.02z" fill="#fff" transform="matrix(-1 0 0 -1 33.15 17.16)" />
    <path d="m17.6 9.13h-2.05v-1.13h2.05zm0-1.06h-2v1h2z" fill="#db161b" />
    <path d="m16.53 8.59a.09.09 0 1 0 .09-.09.09.09 0 0 0 -.09.09z" fill="#fff" />
    <path d="m16.62 8.7a.11.11 0 1 1 .11-.11.11.11 0 0 1 -.11.11zm0-.18a.07.07 0 1 0 0 .14.07.07 0 0 0 0-.14z"
        fill="#db161b" />
    <path
        d="m16.65 8.87h-.13v-.08h-.08l-.05.06-.07-.08s0 0 0 0l.05-.05h-.08v-.1h.1-.06l.08-.07.06.05h.05v-.25a0 0 0 0 1 0 0h.12.06l.09-.07.1.08-.07.07h.18a0 0 0 0 1 0 0v.11a0 0 0 0 1 0 0h-.13l-.08.08-.06-.05h-.08v.06zm-.09 0h.07v-.09a.19.19 0 0 0 .1 0h.05.06s0 0 0 0h.16v-.23h-.12a0 0 0 0 1 0 0l.06-.06-.07-.06-.08.06h-.08s0 0 0 0h-.09v.05a.13.13 0 0 0 -.08 0h-.05-.05l.05.05s0 0 0 0h-.08v.06h.08s0 0 0 0v.05h.05a.18.18 0 0 0 .09 0z"
        fill="#db161b" />
    <path d="m14.93 8.29h.79v.5h-.79z" fill="#fff" transform="matrix(-1 0 0 -1 30.66 17.08)" />
    <path d="m15.74 8.81h-.83v-.54h.83zm-.79 0h.76v-.5h-.71z" fill="#db161b" />
    <path d="m17.49 9.1-.13-.14.02-.02.13.13z" fill="#db161b" />
    <path d="m17.29 8.92h.04v.19h-.04z" fill="#db161b"
        transform="matrix(.70710678 -.70710678 .70710678 .70710678 -1.31 14.88)" />
    <path d="m17.16 8.92h.04v.19h-.04z" fill="#db161b"
        transform="matrix(.70685991 -.70735356 .70735356 .70685991 -1.34 14.8)" />
    <path d="m13.67 8.39h.7v.3h-.7z" fill="#fff" />
    <path d="m14.39 8.71h-.74v-.34h.74zm-.7 0h.66v-.3h-.66z" fill="#db161b" />
    <path d="m17.11 9.1-.13-.14.02-.02.13.13z" fill="#db161b" />
    <path d="m16.91 8.92h.04v.19h-.04z" fill="#db161b"
        transform="matrix(.70710678 -.70710678 .70710678 .70710678 -1.42 14.61)" />
    <path d="m16.78 8.92h.04v.19h-.04z" fill="#db161b"
        transform="matrix(.70685991 -.70735356 .70735356 .70685991 -1.45 14.53)" />
    <path d="m16.73 9.1-.14-.14.03-.02.13.13z" fill="#db161b" />
    <path d="m16.53 8.92h.04v.19h-.04z" fill="#db161b"
        transform="matrix(.70710678 -.70710678 .70710678 .70710678 -1.53 14.34)" />
    <path d="m16.47 9.1-.13-.14.03-.02.13.13z" fill="#db161b" />
    <path d="m16.28 8.92h.04v.19h-.04z" fill="#db161b"
        transform="matrix(.70710678 -.70710678 .70710678 .70710678 -1.6 14.16)" />
    <path d="m16.15 8.92h.04v.19h-.04z" fill="#db161b"
        transform="matrix(.70685991 -.70735356 .70735356 .70685991 -1.64 14.08)" />
    <path d="m16.09 9.1-.13-.14.03-.02.13.13z" fill="#db161b" />
    <path d="m15.89 8.92h.04v.19h-.04z" fill="#db161b"
        transform="matrix(.70710678 -.70710678 .70710678 .70710678 -1.72 13.89)" />
    <path d="m15.77 8.92h.04v.19h-.04z" fill="#db161b"
        transform="matrix(.70685991 -.70735356 .70735356 .70685991 -1.75 13.81)" />
    <path d="m15.65 9h.19v.04h-.19z" fill="#db161b"
        transform="matrix(.70710678 -.70710678 .70710678 .70710678 -1.77 13.77)" />
    <path d="m15.77 9h.19v.04h-.19z" fill="#db161b"
        transform="matrix(.70685991 -.70735356 .70735356 .70685991 -1.73 13.87)" />
    <path d="m15.9 9h.19v.04h-.19z" fill="#db161b"
        transform="matrix(.70710678 -.70710678 .70710678 .70710678 -1.69 13.95)" />
    <path d="m16.07 9.1-.03-.03.14-.13.02.02z" fill="#db161b" />
    <path d="m16.16 9h.19v.04h-.19z" fill="#db161b"
        transform="matrix(.70685991 -.70735356 .70735356 .70685991 -1.62 14.14)" />
    <path d="m16.28 9h.19v.04h-.19z" fill="#db161b"
        transform="matrix(.70710678 -.70710678 .70710678 .70710678 -1.58 14.22)" />
    <path d="m16.41 9h.19v.04h-.19z" fill="#db161b"
        transform="matrix(.70574793 -.70846302 .70846302 .70574793 -1.53 14.35)" />
    <path d="m16.58 9.1-.03-.03.14-.13.02.02z" fill="#db161b" />
    <path d="m16.67 9h.19v.04h-.19z" fill="#db161b"
        transform="matrix(.70710678 -.70710678 .70710678 .70710678 -1.47 14.49)" />
    <path d="m16.8 9h.19v.04h-.19z" fill="#db161b"
        transform="matrix(.70710678 -.70710678 .70710678 .70710678 -1.43 14.58)" />
    <path d="m16.92 9h.19v.04h-.19z" fill="#db161b"
        transform="matrix(.70574793 -.70846302 .70846302 .70574793 -1.38 14.71)" />
    <path d="m17.09 9.1-.02-.03.13-.13.02.02z" fill="#db161b" />
    <path d="m17.18 9h.19v.04h-.19z" fill="#db161b"
        transform="matrix(.70710678 -.70710678 .70710678 .70710678 -1.32 14.85)" />
    <path d="m17.31 9h.19v.04h-.19z" fill="#db161b"
        transform="matrix(.70710678 -.70710678 .70710678 .70710678 -1.28 14.94)" />
    <path d="m17.34 8.15h.19v.04h-.19z" fill="#db161b"
        transform="matrix(.70710678 -.70710678 .70710678 .70710678 -.67 14.72)" />
    <path d="m17.21 8.15h.19v.04h-.19z" fill="#db161b"
        transform="matrix(.70846302 -.70574793 .70574793 .70846302 -.72 14.59)" />
    <path d="m17.09 8.15h.19v.04h-.19z" fill="#db161b"
        transform="matrix(.70710678 -.70710678 .70710678 .70710678 -.74 14.54)" />
    <path d="m16.96 8.15h.19v.04h-.19z" fill="#db161b"
        transform="matrix(.70710678 -.70710678 .70710678 .70710678 -.78 14.45)" />
    <path d="m16.87 8.24-.02-.02.13-.13.03.02z" fill="#db161b" />
    <path d="m16.71 8.15h.19v.04h-.19z" fill="#db161b"
        transform="matrix(.70685991 -.70735356 .70735356 .70685991 -.85 14.28)" />
    <path d="m16.58 8.15h.19v.04h-.19z" fill="#db161b"
        transform="matrix(.70710678 -.70710678 .70710678 .70710678 -.89 14.18)" />
    <path d="m16.49 8.24-.02-.02.13-.13.03.02z" fill="#db161b" />
    <path d="m16.33 8.15h.19v.04h-.19z" fill="#db161b"
        transform="matrix(.70710678 -.70710678 .70710678 .70710678 -.96 14)" />
    <path d="m16.24 8.24-.03-.02.14-.13.02.02z" fill="#db161b" />
    <path d="m16.07 8.15h.19v.04h-.19z" fill="#db161b"
        transform="matrix(.70710678 -.70710678 .70710678 .70710678 -1.04 13.82)" />
    <path d="m15.95 8.15h.19v.04h-.19z" fill="#db161b"
        transform="matrix(.70685991 -.70735356 .70735356 .70685991 -1.07 13.74)" />
    <path d="m15.86 8.24-.03-.02.14-.13.02.02z" fill="#db161b" />
    <path d="m15.69 8.15h.19v.04h-.19z" fill="#db161b"
        transform="matrix(.70735356 -.70685991 .70685991 .70735356 -1.15 13.55)" />
    <path d="m15.72 8.07h.04v.19h-.04z" fill="#db161b"
        transform="matrix(.70710678 -.70710678 .70710678 .70710678 -1.16 13.52)" />
    <path d="m15.92 8.24-.13-.13.02-.02.14.13z" fill="#db161b" />
    <path d="m16.05 8.24-.13-.13.02-.02.13.13z" fill="#db161b" />
    <path d="m16.11 8.07h.04v.19h-.04z" fill="#db161b"
        transform="matrix(.70710678 -.70710678 .70710678 .70710678 -1.05 13.79)" />
    <path d="m16.23 8.07h.04v.19h-.04z" fill="#db161b"
        transform="matrix(.70710678 -.70710678 .70710678 .70710678 -1.01 13.88)" />
    <path d="m16.43 8.24-.13-.13.02-.02.14.13z" fill="#db161b" />
    <path d="m16.49 8.07h.04v.19h-.04z" fill="#db161b"
        transform="matrix(.70685991 -.70735356 .70735356 .70685991 -.94 14.07)" />
    <path d="m16.62 8.07h.04v.19h-.04z" fill="#db161b"
        transform="matrix(.70710678 -.70710678 .70710678 .70710678 -.9 14.15)" />
    <path d="m16.74 8.07h.04v.19h-.04z" fill="#db161b"
        transform="matrix(.70710678 -.70710678 .70710678 .70710678 -.86 14.24)" />
    <path d="m16.94 8.24-.13-.13.03-.02.13.13z" fill="#db161b" />
    <path d="m17 8.07h.04v.19h-.04z" fill="#db161b"
        transform="matrix(.70685991 -.70735356 .70735356 .70685991 -.79 14.43)" />
    <path d="m17.13 8.07h.04v.19h-.04z" fill="#db161b"
        transform="matrix(.70710678 -.70710678 .70710678 .70710678 -.75 14.51)" />
    <path d="m17.25 8.07h.04v.19h-.04z" fill="#db161b"
        transform="matrix(.70710678 -.70710678 .70710678 .70710678 -.71 14.6)" />
    <path d="m17.45 8.24-.13-.13.03-.02.13.13z" fill="#db161b" />
    <path d="m14.06 7.51h.72v.04h-.72z" fill="#db161b"
        transform="matrix(.8557257 -.51742973 .51742973 .8557257 -1.81 8.55)" />
    <path
        d="m14.33 11h-.06s0 0 0 0-.11-.17-.18-.17h-.19s0 0 0 0a0 0 0 0 0 0 0s0 0 0 0h-.06s0 0 0 0-.23-.19-.23-.31c0 .11.09.27.2.27h.05a.08.08 0 0 1 .06.07h.06.11c.08 0 .22.16.22.21h.17-.1z"
        fill="#db161b" />
</svg>