<svg viewBox="0 0 40.5 40.5" xmlns="http://www.w3.org/2000/svg">
    <path d="m40.5 20.25h-40.5a20.3 20.3 0 0 1 20.25-20.25 20.25 20.25 0 0 1 20.25 20.25z" fill="#0038a8" />
    <path d="m40.5 20.25a20.23 20.23 0 0 1 -35.38 13.43 20.05 20.05 0 0 1 -5.12-13.43z" fill="#ce1126" />
    <path d="m28.42 20.25-23.3 13.43a20.17 20.17 0 0 1 0-26.86z" fill="#fff" />
    <g fill="#fcd116">
        <path d="m14 20.25a4 4 0 1 1 -4-4 4 4 0 0 1 4 4z" />
        <path d="m9.93 11.69-.53.54.29 4.26h.24.24l.28-4.26z" />
        <path d="m10.92 12.62.46.42-.76 3.68-.22-.02z" />
        <path d="m8.94 12.62-.46.42.75 3.68.23-.02z" />
        <path d="m3.88 14.2v.75l3.22 2.81.17-.17.17-.17-2.82-3.21z" />
        <path d="m5.23 14.15.63-.02 2.07 3.13-.18.15z" />
        <path d="m3.83 15.55-.02.63 3.13 2.07.14-.18z" />
        <path d="m1.37 20.25.53.52 4.27-.28v-.24-.24l-4.27-.28z" />
        <path d="m2.29 19.26.43-.46 3.68.75-.02.23z" />
        <path d="m2.29 21.24.43.46 3.68-.75-.02-.23z" />
        <path d="m3.88 26.3.74-.01 2.82-3.21-.17-.17-.17-.17-3.22 2.81z" />
        <path d="m3.83 24.95-.02-.63 3.13-2.07.14.18z" />
        <path d="m5.23 26.35.63.02 2.07-3.13-.18-.15z" />
        <path d="m9.93 28.81.52-.54-.28-4.26h-.24-.24l-.29 4.26z" />
        <path d="m8.94 27.88-.46-.42.75-3.68.23.02z" />
        <path d="m10.92 27.88.46-.42-.76-3.68-.22.02z" />
        <path d="m15.98 26.3-.01-.75-3.21-2.81-.18.17-.17.17 2.82 3.21z" />
        <path d="m14.62 26.35-.62.02-2.07-3.13.18-.15z" />
        <path d="m16.02 24.95.03-.63-3.14-2.07-.14.18z" />
        <path d="m18.48 20.25-.53-.52-4.27.28v.24.24l4.27.28z" />
        <path d="m17.56 21.24-.43.46-3.68-.75.03-.23z" />
        <path d="m17.56 19.26-.43-.46-3.68.75.03.23z" />
        <path d="m15.98 14.2-.75.01-2.82 3.21.17.17.18.17 3.21-2.81z" />
        <path d="m16.02 15.55.03.63-3.14 2.07-.14-.18z" />
        <path d="m14.62 14.15-.62-.02-2.07 3.13.18.15z" />
        <path d="m22.76 18.13-.96 1.3-1.54-.51.94 1.32-.96 1.3 1.55-.49.94 1.32.01-1.62 1.55-.49-1.54-.51z" />
    </g>
</svg>