<svg viewBox="0 0 40.5 40.5" xmlns="http://www.w3.org/2000/svg">
    <path d="m35.33 6.75h-30.16a20.22 20.22 0 0 1 30.16 0z" fill="#024fa2" />
    <path d="m36.26 7.87h-32c.3-.39.61-.76.93-1.12h30.14c.32.36.67.73.93 1.12z" fill="#fff" />
    <path d="m35.33 33.75a20.22 20.22 0 0 1 -30.16 0z" fill="#024fa2" />
    <path d="m36.26 32.63c-.3.39-.61.76-.93 1.12h-30.16c-.32-.36-.63-.73-.93-1.12z" fill="#fff" />
    <path d="m40.5 20.25a20.1 20.1 0 0 1 -4.24 12.38h-32a20.19 20.19 0 0 1 0-24.76h32a20.1 20.1 0 0 1 4.24 12.38z"
        fill="#ed1c27" />
    <circle cx="10.78" cy="20.25" fill="#fff" r="8.99" />
    <path d="m10.78 11.6 1.94 5.98h6.28l-5.08 3.69 1.94 5.98-5.08-3.7-5.08 3.7 1.94-5.98-5.08-3.69h6.28z"
        fill="#ed1c27" />
</svg>