<svg viewBox="0 0 40.5 40.5" xmlns="http://www.w3.org/2000/svg">
    <path d="m39.34 13.5h-38.18a20.25 20.25 0 0 1 38.18 0z" fill="#d52b1e" />
    <path
        d="m40.5 20.25a20.15 20.15 0 0 1 -1.16 6.75h-38.18a20.22 20.22 0 0 1 0-13.5h38.18a20.19 20.19 0 0 1 1.16 6.75z"
        fill="#fff" />
    <path d="m39.34 27a20.25 20.25 0 0 1 -38.18 0z" fill="#0038a8" />
    <path
        d="m20.6 22.51a.79.79 0 0 1 .23-.09.26.26 0 0 0 .18-.14.28.28 0 0 0 0-.09s0-.06 0-.1 0-.06 0-.08.13-.11.17-.18 0-.06 0-.09a.33.33 0 0 1 .13-.13.64.64 0 0 1 .18-.06.06.06 0 0 1 0 .08s0 0 0 .07 0 .05 0 .07.12-.16.19-.24.14-.11.17-.18 0 0 0 .06a0 0 0 0 0 .06 0s0 0 0-.06a.42.42 0 0 0 0-.16v-.15s.09-.04.09-.04v-.06a.29.29 0 0 0 0-.16.25.25 0 0 1 0-.19.12.12 0 0 1 .05 0 .09.09 0 0 1 .09 0l.06.08s0-.05.06-.06.06 0 .09 0a0 0 0 0 0 0 0 .16.16 0 0 0 0-.09 1.63 1.63 0 0 1 -.24-.4.17.17 0 0 1 0-.07.19.19 0 0 1 0-.08v-.15h.08.05v-.29a.27.27 0 0 1 .14.07.17.17 0 0 0 -.11-.16c-.14-.08-.32-.1-.44-.22s-.11-.19-.2-.26a.1.1 0 0 1 .09 0 .19.19 0 0 0 .08 0s0 0 0 0v-.3s-.07-.05-.09-.09a.12.12 0 0 1 0 .09.08.08 0 0 1 -.08 0 .11.11 0 0 1 -.07-.09.67.67 0 0 1 -.31-.05 1.19 1.19 0 0 1 -.3-.18s-.07-.06-.08-.1h.13s.17 0 .17 0v-.05l-.17-.19a.33.33 0 0 1 0-.17 1 1 0 0 0 .42.12s0 0 0 0-.09-.18-.1-.27a.37.37 0 0 1 .2.07 1.88 1.88 0 0 1 .18.12v.05a.33.33 0 0 1 0 .06v.14a.24.24 0 0 1 0 .08h.07a.07.07 0 0 1 0 .05.13.13 0 0 1 0 .06l.28.27c0-.07 0-.15.05-.22a.22.22 0 0 1 .05-.11.31.31 0 0 1 .09.14 1.22 1.22 0 0 1 0 .17l.05.38a.66.66 0 0 1 .13-.36.14.14 0 0 1 0 .09v.43.05a.42.42 0 0 1 -.06.14.08.08 0 0 0 0 .05.17.17 0 0 0 0 .14s0 0 0 0 .05-.05.08-.06a.29.29 0 0 0 0 .09.13.13 0 0 1 0 .06 1.7 1.7 0 0 1 0 .22.31.31 0 0 1 .56-.19.57.57 0 0 0 .11-.11 3 3 0 0 1 0 .31.62.62 0 0 1 0 .19l-.11.11s0 .11-.07.16a.55.55 0 0 1 -.13.17l-.17.16s-.06.07 0 .1h.09a.05.05 0 0 1 0 0 .14.14 0 0 1 0 .11.16.16 0 0 1 -.07.09.27.27 0 0 0 .25-.08.19.19 0 0 1 -.05.13l-.07.11a.33.33 0 0 0 0 .16s0 0 0 0a.32.32 0 0 1 .17-.06.37.37 0 0 1 -.07.2l-.15.2a.49.49 0 0 1 -.17.15.58.58 0 0 1 -.18 0h-.17a.15.15 0 0 1 -.14.18s0 0-.06 0-.05 0 0 0 0 0 0 0a1.06 1.06 0 0 0 .31 0 .22.22 0 0 1 -.11.14.48.48 0 0 1 -.17.05l-.27.06.14.07a1 1 0 0 1 -.89.1.15.15 0 0 0 -.13 0 .1.1 0 0 0 -.07 0 .26.26 0 0 1 -.22.21z"
        fill="#009b3a" />
    <path
        d="m21.41 22.6a.88.88 0 0 1 -.33-.06s-.07 0-.11 0a.27.27 0 0 1 -.31 0 .58.58 0 0 1 .18-.08h.05a.25.25 0 0 0 .18-.14v-.09s0-.06 0-.09v-.09a.38.38 0 0 1 .09-.09.26.26 0 0 0 .09-.09.17.17 0 0 1 0-.05.39.39 0 0 1 .15-.14 1.27 1.27 0 0 1 .18-.06.08.08 0 0 1 0 .09v.06a1.25 1.25 0 0 0 .09-.12.61.61 0 0 1 .07-.1l.07-.06a.38.38 0 0 0 .1-.12s0 0 0 0 0 0 0 .06a.05.05 0 0 0 0-.05.28.28 0 0 0 0-.13.83.83 0 0 1 0-.15.34.34 0 0 1 0-.1s0 0 0 0a.24.24 0 0 0 0-.15.25.25 0 0 1 0-.17s0-.05.07-.05a.1.1 0 0 1 .1 0 .12.12 0 0 1 0-.05h.09s0-.05 0-.07a.36.36 0 0 1 -.07-.1.85.85 0 0 1 -.17-.31.14.14 0 0 1 0-.06.28.28 0 0 1 0-.09v-.15a.12.12 0 0 1 .1 0h.07v-.28s0 0 0 0a.25.25 0 0 1 .12 0c0-.05-.07-.09-.09-.11l-.18-.07a.56.56 0 0 1 -.27-.15.34.34 0 0 1 -.09-.12.75.75 0 0 0 -.11-.13.11.11 0 0 1 .11 0h.05a0 0 0 0 0 0 0v-.29s0 0 0 0a.09.09 0 0 1 0 .06.09.09 0 0 1 -.1 0 .13.13 0 0 1 -.07-.09.61.61 0 0 1 -.3-.05 1.45 1.45 0 0 1 -.31-.18.38.38 0 0 1 -.09-.12s0 0 0 0h.23.14l-.14-.27a.27.27 0 0 1 -.05-.18 0 0 0 0 1 0 0 1.32 1.32 0 0 0 .42.12s0 0 0 0a.21.21 0 0 0 -.05-.13.78.78 0 0 1 0-.14 0 0 0 0 1 0 0 .58.58 0 0 1 .21.07l.18.13v.05a.14.14 0 0 1 0 .06v.14s0 0 0 .06h.06a.06.06 0 0 1 .06 0s0 0 .05 0a.2.2 0 0 1 0 .07l.25.24c0-.06 0-.12 0-.18a.31.31 0 0 1 .06-.13.37.37 0 0 1 .1.16v.17.26a.58.58 0 0 1 .12-.25.13.13 0 0 1 0 .09v.44.05a.33.33 0 0 1 -.05.15.2.2 0 0 0 0 .11v-.05l.08-.05s0 0 0 0 0 0 0 .05v.07a1.08 1.08 0 0 1 0 .18l.11-.11a0 0 0 0 1 0 0v.1a1.36 1.36 0 0 1 0 .21.42.42 0 0 1 0 .19v.07.08.09a.58.58 0 0 1 -.14.17l-.17.16a.1.1 0 0 0 0 .07.13.13 0 0 1 .08 0s0 0 .06 0a.2.2 0 0 1 0 .13.18.18 0 0 1 -.05.07.3.3 0 0 0 .2-.08.23.23 0 0 1 0 .14v.05l-.05.06a.28.28 0 0 0 0 .15s0 0 0 0a.34.34 0 0 1 .19-.07.27.27 0 0 1 -.06.2 1.92 1.92 0 0 1 -.16.21.49.49 0 0 1 -.17.15.7.7 0 0 1 -.18.05h-.16a.13.13 0 0 1 0 .12.17.17 0 0 1 -.12.07h-.07s0 0 0 0a.76.76 0 0 0 .3 0 .21.21 0 0 1 -.11.15.39.39 0 0 1 -.17.06l-.23.05h.1s0 0 0 0a0 0 0 0 1 0 0 1.17 1.17 0 0 1 -.23.5zm-.41-.12h.09a1 1 0 0 0 .88-.1l-.14-.07a0 0 0 0 1 0 0l.28-.05a.52.52 0 0 0 .16-.06.15.15 0 0 0 .09-.1.88.88 0 0 1 -.28 0 .09.09 0 0 1 -.08-.1s0-.05 0-.06h.08a.12.12 0 0 0 .09-.05.11.11 0 0 0 0-.11h.17a.48.48 0 0 0 .17 0 .44.44 0 0 0 .16-.14 1.56 1.56 0 0 0 .16-.2.35.35 0 0 0 .06-.17.26.26 0 0 0 -.14.05s0 0 0-.06a.33.33 0 0 1 0-.17l.05-.06a.16.16 0 0 0 0-.08.33.33 0 0 1 -.22.05s0 0 0 0a.24.24 0 0 0 .06-.08.09.09 0 0 0 0-.1h-.09a.11.11 0 0 1 .05-.12l.16-.16a.52.52 0 0 0 .14-.16v-.09-.08l.1-.21v-.06a.58.58 0 0 0 0-.18 1.48 1.48 0 0 0 0-.21v-.06l-.09.09h-.06a0 0 0 0 1 0 0 1.48 1.48 0 0 0 0-.21.13.13 0 0 0 0-.06.11.11 0 0 0 0-.05.1.1 0 0 0 -.05 0h-.05a.29.29 0 0 1 0-.16s0 0 0-.05a.43.43 0 0 0 .05-.13v.08c0-.14 0-.29 0-.43a.13.13 0 0 0 0-.06.55.55 0 0 0 -.11.33s0 0 0 0v-.37a.85.85 0 0 0 0-.17.27.27 0 0 0 -.07-.13.3.3 0 0 0 0 .1v.21a0 0 0 0 1 0 0l-.62-.22a0 0 0 0 1 0 0s0 0 0-.06 0 0 0 0h-.07s0 0 0 0 0-.05 0-.08v-.14s0 0 0-.06h-.05l-.17-.12a.58.58 0 0 0 -.17-.06v.1a.27.27 0 0 1 .05.15s0 0 0 0a.05.05 0 0 1 0 0 1.35 1.35 0 0 1 -.41-.11.5.5 0 0 0 0 .13l.07.14s0 0 0 .05-.07 0-.18 0h-.17l.07.07a1.4 1.4 0 0 0 .3.18.76.76 0 0 0 .3.05s0 .07.05.08a.1.1 0 0 0 .07 0 .11.11 0 0 0 0-.08 0 0 0 0 1 0 0s0 0 0 0l.05.05a.06.06 0 0 1 0 0v.3a.08.08 0 0 1 0 .05.15.15 0 0 1 -.07 0h-.07a.47.47 0 0 1 .09.12 1.25 1.25 0 0 0 .09.12.72.72 0 0 0 .26.14l.18.07c.08.05.13.12.12.18a0 0 0 0 1 0 0 .24.24 0 0 0 -.11-.06v.27a.06.06 0 0 1 -.06 0h-.06v.26s0 0 0 .06a.9.9 0 0 0 .17.3l.06.1a.18.18 0 0 1 0 .1.08.08 0 0 1 0 0 .07.07 0 0 1 -.06 0s0 0 0 .06-.05 0-.07 0a.07.07 0 0 0 -.05 0 .32.32 0 0 0 0 .14.26.26 0 0 1 0 .17.14.14 0 0 0 0 .09.35.35 0 0 0 0 .14.32.32 0 0 1 0 .14.07.07 0 0 1 0 .08.08.08 0 0 1 -.08 0s0 0 0 0l-.09.09-.06.06a.61.61 0 0 0 -.07.1.61.61 0 0 1 -.13.15.16.16 0 0 1 0-.09v-.05s0 0 0-.05l-.17.05a.29.29 0 0 0 -.13.12s0 0 0 0 0 0 0 .06a.24.24 0 0 1 -.08.09.36.36 0 0 0 -.09.08.29.29 0 0 0 0 .09.29.29 0 0 0 0 .09.17.17 0 0 1 0 .07.27.27 0 0 1 -.2.16 1 1 0 0 0 -.16.06.23.23 0 0 0 .26 0h.05z" />
    <path
        d="m20.22 22.43a.32.32 0 0 1 .15-.06 2.89 2.89 0 0 1 .86.43s-.12.06-.21.05a3.39 3.39 0 0 1 -.81-.39 0 0 0 0 1 .01-.03z"
        fill="#009b3a" />
    <path
        d="m21.07 22.87h-.07c-.06 0-.83-.32-.83-.41a.05.05 0 0 1 0 0 .29.29 0 0 1 .16-.06c.06 0 .88.33.88.44a.24.24 0 0 1 -.14.03zm-.7-.48a.34.34 0 0 0 -.14.05 3.62 3.62 0 0 0 .79.37.27.27 0 0 0 .19 0 3.13 3.13 0 0 0 -.84-.42z" />
    <path
        d="m20.26 23.52a3.27 3.27 0 1 1 3.26-3.27 3.28 3.28 0 0 1 -3.26 3.27zm0-6.43a3.17 3.17 0 1 0 3.16 3.16 3.17 3.17 0 0 0 -3.16-3.16z" />
    <path
        d="m19.41 22.74a0 0 0 0 0 0 0s.1.06.16.06a1.84 1.84 0 0 0 .62-.25.14.14 0 0 0 -.09-.05 6.19 6.19 0 0 0 -.69.24z"
        fill="#009b3a" />
    <path
        d="m19.55 22.86c-.05 0-.17 0-.17-.08a0 0 0 0 1 0 0 3.83 3.83 0 0 1 .65-.22.17.17 0 0 1 .13 0 0 0 0 0 1 0 0 1.78 1.78 0 0 1 -.61.3zm-.13-.1s.07 0 .14 0a1.94 1.94 0 0 0 .6-.24.09.09 0 0 0 -.09 0 3.45 3.45 0 0 0 -.65.24z" />
    <path
        d="m20.26 24.6a4.35 4.35 0 1 1 4.35-4.35 4.35 4.35 0 0 1 -4.35 4.35zm0-8.6a4.25 4.25 0 1 0 4.25 4.25 4.25 4.25 0 0 0 -4.25-4.25z" />
    <path d="m20.26 25.5a5.25 5.25 0 1 1 5.24-5.25 5.25 5.25 0 0 1 -5.24 5.25zm0-10.29a5 5 0 1 0 5 5 5 5 0 0 0 -5-5z" />
    <path d="m20.26 19.04.26.81h.86l-.7.5.27.82-.69-.51-.7.51.27-.82-.69-.5h.85z" fill="#fedf00" />
    <path
        d="m21 21.18-.68-.5-.69.5.26-.8-.68-.5s0 0 0 0h.79l.26-.8s0 0 0 0l.26.8h.86a0 0 0 0 1 0 0l-.69.5.27.8a0 0 0 0 1 0 0zm-.69-.53.65.47-.25-.76.66-.47h-.81s0 0 0 0l-.25-.76-.25.76a0 0 0 0 1 0 0h-.8l.65.47a0 0 0 0 1 0 0l-.24.76.65-.47z" />
    <path
        d="m19.15 21.91c.07.05.12.16.21.17s0 0 0 0-.38-.51-.38-.59a0 0 0 0 1 0-.05c.42.29.37.65 1 1 .13.06.57.23.24.23a4.25 4.25 0 0 0 -.94-.29h-.2a1 1 0 0 1 -1-.46 1.36 1.36 0 0 0 .66.16s.26-.08.26-.08c-.09-.13-1.14-.31-1.2-1.09a1.9 1.9 0 0 0 .72.6c0-.1-1-1.17-.81-1.17s.13.07.19.1 0 0 0-.05c0-.32-.44-.89-.49-1 .21.09.3.31.43.49s0 0 0-.09-.05-.21-.05-.35.21-.44.21-.66c0-.59.1.11.1.28l.1-.47c.06-.34.29-.41.44-.73a.29.29 0 0 1 0 .09c0 .28-.3.24-.3.75v.05a2.19 2.19 0 0 0 -.1.38s0 .05 0 .05 0 0 0-.07a1.18 1.18 0 0 1 .06-.18c0-.14.2-.22.2-.34s0-.07 0-.1a1.08 1.08 0 0 1 .51-.74 1.47 1.47 0 0 0 -.32.63 5.11 5.11 0 0 1 .44-.32c.27-.17.43-.22.45-.2s-.19.27-.45.48-.36.21-.5.34a1.08 1.08 0 0 0 -.36.52c0 .13.29-.44.48-.48s.21 0 .26-.06.23-.27.26-.23a.41.41 0 0 1 -.29.37 1.28 1.28 0 0 0 -.81.85 1.16 1.16 0 0 1 .83-.65s-.17.17-.44.45a1.25 1.25 0 0 0 -.39.83c0 .16.23.77.14.35a1.47 1.47 0 0 1 -.05-.29c0-.07.25-.65.25-.66a0 0 0 0 1 0 0 .29.29 0 0 1 0 .16c0 .05-.14.56-.14.6s0 0 .09 0c.29 0 .35.79.36 1.08a.56.56 0 0 0 .33.39z"
        fill="#009b3a" />
    <path
        d="m20.35 22.64a1 1 0 0 1 -.25-.09 2 2 0 0 0 -.69-.2h-.2c-.68 0-.88-.3-1-.45s0 0 0 0a1.34 1.34 0 0 0 .65.16s0 0 0 0a.73.73 0 0 0 -.23-.12c-.34-.15-.92-.4-1-1a2 2 0 0 0 .69.59 3.48 3.48 0 0 0 -.34-.46c-.32-.39-.52-.64-.49-.7a.25.25 0 0 1 .14.06h.06s0 0 0 0a2 2 0 0 0 -.37-.81l-.12-.21a.72.72 0 0 1 .36.37l.08.12a.1.1 0 0 0 0-.07 1 1 0 0 0 0-.17.48.48 0 0 1 0-.18 1.25 1.25 0 0 1 0-.29 1.07 1.07 0 0 0 .06-.32.87.87 0 0 1 0-.18s0-.07 0-.07.08.25.09.4c0-.14.07-.34.07-.35a.9.9 0 0 1 .23-.42 1.11 1.11 0 0 0 .21-.31 0 0 0 0 1 0 0 .18.18 0 0 1 0 .1.36.36 0 0 1 -.12.26.64.64 0 0 0 -.18.49v.05a.45.45 0 0 1 0 .11 1.31 1.31 0 0 0 -.06.27s0 0 0 0a.37.37 0 0 1 0-.09.34.34 0 0 0 0-.08.5.5 0 0 1 .11-.17.29.29 0 0 0 .09-.17v-.1c0-.28.38-.76.52-.76s0 0 0 0a1.46 1.46 0 0 0 -.31.57l.41-.3c.23-.14.44-.23.47-.19s0 0 0 0a1.78 1.78 0 0 1 -.46.49l-.23.15a1.59 1.59 0 0 0 -.27.18 1.16 1.16 0 0 0 -.35.5l.1-.13c.1-.14.24-.33.35-.36h.63.14a.94.94 0 0 1 .1-.1c.07-.09.12-.14.16-.14s0 0 0 0 0 0 0 .06a.51.51 0 0 1 -.31.34 1.37 1.37 0 0 0 -.69.58 1 1 0 0 1 .6-.5s0 0 0 0 0 0-.11.14-.21.19-.34.34a1.2 1.2 0 0 0 -.39.81 1.91 1.91 0 0 0 .13.45.51.51 0 0 0 0-.09v-.07a1 1 0 0 1 0-.23c0-.07.25-.66.25-.67a0 0 0 0 1 0 0 .34.34 0 0 1 .05.17 2.55 2.55 0 0 1 -.08.33c0 .12-.06.25-.06.27h.07c.32 0 .37.84.38 1.1a.51.51 0 0 0 .25.39.34.34 0 0 1 .09.08s.07.08.12.09 0 0 0 0a1 1 0 0 0 -.21-.32 1 1 0 0 1 -.17-.27c0-.06.05-.08.08-.06a1.57 1.57 0 0 1 .38.4 1.42 1.42 0 0 0 .66.57h.07c.22.1.32.15.31.2s-.04.01-.13.01zm-.94-.32a1.78 1.78 0 0 1 .7.2.93.93 0 0 0 .24.09.21.21 0 0 0 .11 0 1.78 1.78 0 0 0 -.29-.16h-.07a1.51 1.51 0 0 1 -.68-.58 1.45 1.45 0 0 0 -.36-.39s0 0 0 0a.79.79 0 0 0 .16.24 1.08 1.08 0 0 1 .22.35 0 0 0 0 1 0 .05.23.23 0 0 1 -.15-.1.23.23 0 0 0 -.07-.07.56.56 0 0 1 -.27-.42c0-.18-.06-1.07-.35-1.07a.07.07 0 0 0 -.06 0s0 0 0 0 0 0 0-.06a2 2 0 0 1 .06-.27c0-.14.07-.31.07-.33a.32.32 0 0 0 0-.14 6.27 6.27 0 0 0 -.23.63 1.66 1.66 0 0 0 0 .22s0 0 0 .07 0 .15 0 .16a1.27 1.27 0 0 1 -.17-.51 1.28 1.28 0 0 1 .39-.84l.34-.34v-.05a1.22 1.22 0 0 0 -.7.69 1.32 1.32 0 0 1 .82-.86.44.44 0 0 0 .29-.35s-.09.08-.14.13l-.1.11a.25.25 0 0 1 -.16 0h-.11c-.1 0-.24.21-.33.34s-.12.16-.15.15 0 0 0 0a1.15 1.15 0 0 1 .37-.54 2.53 2.53 0 0 1 .21-.17l.23-.15a2 2 0 0 0 .44-.46 1.28 1.28 0 0 0 -.42.2c-.13.08-.26.19-.44.32a1.26 1.26 0 0 1 .32-.62 1.1 1.1 0 0 0 -.49.72.13.13 0 0 1 0 .06.32.32 0 0 1 -.1.19.57.57 0 0 0 -.11.16.37.37 0 0 0 0 .09.26.26 0 0 0 0 .08s0 .07 0 .07c-.05 0-.05-.05-.05-.07a1 1 0 0 1 .07-.28.43.43 0 0 0 0-.1v-.01a.63.63 0 0 1 .19-.51.32.32 0 0 0 .11-.24.13.13 0 0 0 0-.06 1.14 1.14 0 0 1 -.21.3.85.85 0 0 0 -.22.4s0 0-.09.47a0 0 0 0 1 0 0s0 0 0 0a2.21 2.21 0 0 0 -.07-.47s0 .08 0 .19a1.53 1.53 0 0 1 0 .33.82.82 0 0 0 -.06.28 1 1 0 0 0 0 .18.86.86 0 0 1 0 .17c0 .08 0 .11-.06.11l-.08-.13a.85.85 0 0 0 -.31-.34l.1.17a2.12 2.12 0 0 1 .38.83s0 .06-.05.06h-.07a.23.23 0 0 0 -.12-.06 3.25 3.25 0 0 0 .48.67 2.5 2.5 0 0 1 .36.48 0 0 0 0 1 0 0 1.9 1.9 0 0 1 -.93-.53c.08.52.62.75.95.89.13.05.22.09.24.13s0 0 0 0h-.08a1.44 1.44 0 0 1 -.63-.14 1 1 0 0 0 .93.42h.2z" />
    <path d="m18.76 21.68a.7.7 0 0 1 -.22-.14 0 0 0 0 1 0 0s0 0 0 0a.76.76 0 0 0 .21.14s0 0 0 0z" />
    <path
        d="m18.83 21.63a1.56 1.56 0 0 1 -.47-.64 1.25 1.25 0 0 0 -.45-.57 1.3 1.3 0 0 1 .46.59 1.47 1.47 0 0 0 .47.62z" />
    <path
        d="m18.83 21.62-.09-.11a.71.71 0 0 1 -.18-.55 1.48 1.48 0 0 1 0-.21v-.21a.15.15 0 0 0 0-.09 0 0 0 0 1 0 0 .19.19 0 0 1 0 .1v.2s0 .13 0 .2a.62.62 0 0 0 .18.52l.09.12s0 0 0 0z" />
    <path
        d="m18.51 21.25s0 0 0 0a2.2 2.2 0 0 0 0-.27 3.29 3.29 0 0 1 0-.38.28.28 0 0 1 0-.09s0 0 0 0a.19.19 0 0 0 0 .08 3.19 3.19 0 0 0 0 .37 1.78 1.78 0 0 1 0 .28s0 0 0 0z" />
    <path d="m18.1 20.3v-.12c-.06-.11-.14-.29-.16-.33a0 0 0 0 1 0 0s0 0 0 0l.16.33c0 .05 0 .11.05.11z" />
    <path d="m18.13 19.92a.77.77 0 0 1 -.06-.4v-.09a1.09 1.09 0 0 1 0-.18v-.25.46a.7.7 0 0 0 0 .38s0 0 0 0z" />
    <path d="m18.57 18.73s0 0 0 0v-.06a.69.69 0 0 0 .17-.25s0 0 0 0a.77.77 0 0 1 -.17.26l-.05.06z" />
    <path d="m18.22 19.45s0 0 0 0a.46.46 0 0 1 .06-.23s0 0 0 0a0 0 0 0 1 0 0 .54.54 0 0 0 -.05.22 0 0 0 0 1 0 0z" />
    <path d="m19.7 22.83a0 0 0 0 1 0 0 .2.2 0 0 0 -.19-.06 0 0 0 0 1 0 0 .27.27 0 0 1 .23.1 0 0 0 0 1 -.04-.04z" />
    <path d="m20.86 22.8s0 0 0 0c0-.06.14-.1.19-.1a0 0 0 0 1 0 0s-.15 0-.15.08 0 0 0 0z" />
    <path
        d="m21.2 22.4s0-.08.15-.29l.22-.31s0 0 0 0a0 0 0 0 1 0 0l-.22.31c-.09.14-.16.23-.15.25s.05 0 .1 0a2.29 2.29 0 0 1 .49-.06h.05s0 0 0 0h-.06a1.69 1.69 0 0 0 -.48.07z" />
    <path
        d="m21.08 22.33a2.63 2.63 0 0 1 .15-.35 1.29 1.29 0 0 1 .09-.16.42.42 0 0 1 .16-.11.49.49 0 0 0 -.11.14 1.3 1.3 0 0 0 -.08.17 1.54 1.54 0 0 1 -.21.31z" />
    <path d="m21.23 22.48a1 1 0 0 1 .24-.05.69.69 0 0 1 .25 0 1 1 0 0 1 -.24.05.71.71 0 0 1 -.25 0z" />
    <path
        d="m22.08 21.65a.1.1 0 0 1 -.06-.09c0-.12.07-.18.11-.19a.18.18 0 0 1 .12 0 .21.21 0 0 1 -.17.28zm0-.27a.26.26 0 0 0 -.08.16s0 0 0 .06a.17.17 0 0 0 .12-.16.13.13 0 0 0 -.09 0z" />
    <path d="m21.5 22.32a0 0 0 0 1 0 0 1.94 1.94 0 0 0 .57-.67s0 0 0 0a2 2 0 0 1 -.57.68z" />
    <path d="m21.65 22.21s0 0 0 0a1.87 1.87 0 0 0 .45 0h.13a0 0 0 0 1 0 0h-.12a2.34 2.34 0 0 1 -.46.05z" />
    <path d="m21.83 22.06s0 0 0 0a.4.4 0 0 0 .17-.06s0 0 0 0a.47.47 0 0 1 -.17.06z" />
    <path
        d="m22.08 22a.12.12 0 0 1 0-.07c0-.08.07-.13.16-.13h.09s0 0 0 0h-.09c-.08 0-.12 0-.12.1s0 0 0 .05a0 0 0 0 1 0 0z" />
    <path
        d="m22.16 21.38s0 0 0 0 0-.07 0-.07a.91.91 0 0 0 0-.17c0-.06 0-.14 0-.21a.41.41 0 0 1 0-.1.13.13 0 0 1 .05-.12 0 0 0 0 1 0 0 .1.1 0 0 0 0 .09s0 .06 0 .1a1.49 1.49 0 0 1 0 .21v.2a0 0 0 0 1 -.05.07z" />
    <path
        d="m22.37 20.82c-.07 0-.11 0-.12-.08a.24.24 0 0 1 0-.07 0 0 0 0 1 0 0 .06.06 0 0 0 0 0s0 .05.09.06.08 0 .08-.1a.1.1 0 0 0 0-.08s0 0 0 0a.15.15 0 0 1 .06.11.14.14 0 0 1 -.11.16z" />
    <path
        d="m22.19 21.77a0 0 0 0 1 0 0 .44.44 0 0 1 .31-.27c.13-.06.26-.12.28-.25s0 0 0 0a0 0 0 0 1 0 0c0 .16-.16.22-.3.28a.44.44 0 0 0 -.29.24 0 0 0 0 1 0 0z" />
    <path
        d="m22.35 21.48a.85.85 0 0 0 .14-.19 1.37 1.37 0 0 1 .27-.31s0 0 0 0a0 0 0 0 1 0 0 1.1 1.1 0 0 0 -.26.3.85.85 0 0 1 -.14.19z" />
    <path
        d="m22.28 21.31s0 0 0-.07a.93.93 0 0 0 0-.27c0-.09 0-.13 0-.14s0 0 0 0 0 .07 0 .15a.86.86 0 0 1 -.05.26l.06-.09.21-.26a0 0 0 0 1 0 0l-.2.26c.02.14 0 .16-.02.16z" />
    <path
        d="m22.65 20.9a.14.14 0 0 1 -.13-.07.49.49 0 0 1 0-.11s0 0 0 0a.63.63 0 0 0 0 .09c0 .05.06.06.1.06h.06a0 0 0 0 1 0 0h-.06z" />
    <path
        d="m21.44 22.22c0-.07.07-.12.09-.18a1 1 0 0 1 .11-.17 1.93 1.93 0 0 1 .27-.3 2.46 2.46 0 0 1 -.22.34l-.11.16-.07.07z" />
    <path
        d="m22.23 21.7.18-.05.17-.08a.78.78 0 0 0 .15-.1.28.28 0 0 0 .12-.14.3.3 0 0 1 -.08.18.61.61 0 0 1 -.16.12.67.67 0 0 1 -.18.07.45.45 0 0 1 -.2 0z" />
    <path
        d="m22.46 20.63s0 0 0 0a0 0 0 0 1 0 0v-.12a.46.46 0 0 0 -.09-.23.43.43 0 0 1 -.1-.24.65.65 0 0 1 0-.2s0 0 0 0a.58.58 0 0 0 0 .19.47.47 0 0 0 .09.22.44.44 0 0 1 .11.25.22.22 0 0 1 0 .06s0 0 0 0z" />
    <path d="m22.47 20.63a0 0 0 0 1 0 0 .22.22 0 0 1 .14-.1s.07 0 .09 0a0 0 0 0 1 0 0h-.07a.14.14 0 0 0 -.1.08z" />
    <path d="m22.49 20.57a0 0 0 0 1 0 0c0-.21 0-.46 0-.56a1.12 1.12 0 0 0 -.07-.38s0 0 0 0a1 1 0 0 1 .09.4v.55.05z" />
    <path d="m22.5 20.36s0 0 0 0a1 1 0 0 1 .36-.68 0 0 0 0 1 0 0 1 1 0 0 0 -.36.66 0 0 0 0 1 0 .02z" />
    <path
        d="m22.71 19.78h-.07a.21.21 0 0 1 -.08-.18.17.17 0 0 1 .12-.17s0 0 0 0a.13.13 0 0 0 -.09.14.16.16 0 0 0 .06.15h.13s0 0 0 0h-.09z" />
    <path d="m22.87 19.57s0 0 0 0-.08-.06-.11-.07a0 0 0 0 1 0 0s0 0 0 0c.07 0 .13.06.14.1z" />
    <path
        d="m22.6 20.43a.42.42 0 0 1 .06-.19c0-.07.07-.12.1-.18l.11-.17a1 1 0 0 0 .09-.18.35.35 0 0 1 -.05.2.76.76 0 0 1 -.09.18l-.11.17a1.63 1.63 0 0 0 -.11.17z" />
    <path d="m21.88 19 .12.12.13.1.14.09s.1.07.12.13h-.07-.08l-.14-.09-.1-.22a.48.48 0 0 1 -.12-.13z" />
    <path
        d="m21.57 18.53a0 0 0 0 1 0 0 .1.1 0 0 1 .1 0 .11.11 0 0 1 .11.06s0 0 0 0a0 0 0 0 1 0 0s0 0-.08 0-.05 0-.07 0z" />
    <path
        d="m21.75 18.48h-.06s0 0 0 0v-.05c0-.05 0-.07 0-.07a.09.09 0 0 1 .08 0 .12.12 0 0 1 .13.12.12.12 0 0 1 -.15 0zm0 0c.06 0 .07 0 .11-.06a.1.1 0 0 0 -.1-.09s0 0-.05 0 0 0 0 .06z" />
    <path d="m21.84 18.29a.36.36 0 0 1 0-.1s0 0 0 0a.24.24 0 0 0 0 .08z" />
    <path d="m21.9 18.34s0 0 0 0h.08s0 0 0 0a0 0 0 0 1 0 0h-.1z" />
    <path d="m21.7 18.3h-.09a.62.62 0 0 1 -.35-.2l-.09-.1s0 0 0 0l.09.07a.63.63 0 0 0 .34.2h.08s0 0 0 0z" />
    <path d="m21.78 18.28a0 0 0 0 1 0 0 .9.9 0 0 0 -.19-.36 0 0 0 0 1 0 0 .84.84 0 0 1 .21.38z" />
    <path
        d="m21.73 18.27a.42.42 0 0 1 -.1-.12l-.05-.06-.13-.09a0 0 0 0 1 0 0l.13.13v.06a.59.59 0 0 0 .09.11s0 0 0 0z" />
    <path d="m21.55 18.38a.38.38 0 0 1 -.29-.1.5.5 0 0 0 -.12-.08s0 0 0 0l.13.08a.31.31 0 0 0 .27.1h.11s0 0 0 0z" />
    <path d="m21.06 18.27.18.09h.09.1-.11-.1a.29.29 0 0 1 -.16-.09z" />
    <path d="m22.42 19.28a1.3 1.3 0 0 1 -.57-.59s0 0 0 0a1.29 1.29 0 0 0 .55.56 0 0 0 0 1 0 0z" />
    <path d="m22.42 19.28a0 0 0 0 0 0 0 .6.6 0 0 0 -.47-.47h-.08a0 0 0 0 1 0 0h.06a.62.62 0 0 1 .5.5z" />
    <path
        d="m22.29 18.93s0 0 0 0a1.63 1.63 0 0 0 -.11-.17 1.12 1.12 0 0 1 -.21-.4s0 0 0 0a1.15 1.15 0 0 0 .21.39 1.08 1.08 0 0 1 .11.18 0 0 0 0 1 0 0z" />
    <path d="m22.28 18.62a1.19 1.19 0 0 1 -.19-.2 0 0 0 0 1 0 0 1.14 1.14 0 0 0 .19.19z" />
    <path d="m22.28 18.59v.07a.22.22 0 0 1 0 .08.25.25 0 0 1 0 .08v-.08a.17.17 0 0 1 0-.07v-.07s-.01.02 0-.01z" />
    <path
        d="m22.5 19.25a0 0 0 0 1 0 0c0-.08 0-.2 0-.27a.28.28 0 0 1 0-.05 1 1 0 0 1 0-.11.31.31 0 0 0 0-.11.15.15 0 0 0 0-.07s0-.07 0-.13a0 0 0 0 1 0 0 .33.33 0 0 0 0 .12.25.25 0 0 0 0 .08v.12a.22.22 0 0 0 0 .1 1.26 1.26 0 0 1 0 .28s0 0 0 0z" />
    <path d="m22.59 19.49a.15.15 0 0 1 0-.07.38.38 0 0 1 .05-.16s0 0 0 0a.57.57 0 0 0 0 .14s0 0 0 .06 0 0 0 0z" />
    <path d="m22.5 19.25a0 0 0 0 1 0 0 .73.73 0 0 0 .24-.05s0 0 0 0a1.15 1.15 0 0 1 -.24.06z" />
    <path
        d="m22.65 19.2a.23.23 0 0 1 0-.11.34.34 0 0 1 0-.1.7.7 0 0 1 .08-.2.66.66 0 0 1 0 .2s0 .07 0 .1-.07.07-.08.11z" />
    <path
        d="m16.89 22.51a1.56 1.56 0 0 1 -.12-.17.35.35 0 0 1 -.06-.22.15.15 0 0 1 .09-.12.18.18 0 0 1 .2 0 .14.14 0 0 1 .06-.14l.14-.15.08.14a1.25 1.25 0 0 1 -.12.12c-.06.06-.06.1 0 .15l.23-.14.08.14zm.17-.28v-.06c0-.06-.09-.08-.14-.05s-.06.08 0 .14a.19.19 0 0 0 0 .06z" />
    <path d="m16.73 21.24.08.24.15-.05-.09-.27h.12l.14.41-.65.22-.13-.4h.12l.08.25h.14l-.08-.24z" />
    <path
        d="m16.27 21a1.58 1.58 0 0 1 0-.21.34.34 0 0 1 0-.21.2.2 0 0 1 .15-.09.21.21 0 0 1 .17 0 .34.34 0 0 1 .09.21.11.11 0 0 1 0 .05h.24v.15zm.29-.19v-.05c0-.08-.06-.13-.13-.12s-.09.05-.08.13 0 .05 0 .06z" />
    <path d="m16.21 20h.39c.12 0 .18 0 .19-.11s0-.13-.17-.14h-.39v-.15h.38c.21 0 .3.13.28.31s-.12.26-.34.24h-.38z" />
    <path
        d="m16.35 19.18a1.43 1.43 0 0 1 0-.2.43.43 0 0 1 .1-.18.16.16 0 0 1 .15 0 .17.17 0 0 1 .11.15.17.17 0 0 1 .2-.07.15.15 0 0 1 .11.11.4.4 0 0 1 0 .28 1.13 1.13 0 0 1 -.07.15zm.3-.06v-.05c0-.08 0-.13 0-.15s-.09 0-.11.08 0 .05 0 .06zm.28.09s0 0 0-.05.07-.16-.03-.16-.11 0-.13.1z" />
    <path d="m16.66 18.36.08-.13.48.28.14-.23.11.06-.22.37z" />
    <path d="m17.18 17.61.52.44-.1.12-.52-.44z" />
    <path
        d="m18.24 17.51a.49.49 0 0 1 -.11.14.32.32 0 0 1 -.49 0 .34.34 0 0 1 0-.51.27.27 0 0 1 .15-.09l.05.11a.28.28 0 0 0 -.11.07.2.2 0 0 0 0 .31.21.21 0 0 0 .31 0l.09-.11z" />
    <path d="m18.5 17.17v.17l-.14.08-.13-.7.17-.1.51.51-.15.08-.12-.13zm.1-.19-.1-.1-.1-.1v.13.14z" />
    <path
        d="m19.38 16.29h.2a.43.43 0 0 1 .29 0 .3.3 0 0 1 .15.24.34.34 0 0 1 -.07.29.49.49 0 0 1 -.3.13h-.17zm.23.53h.05a.22.22 0 0 0 .2-.27.2.2 0 0 0 -.25-.19h-.06z" />
    <path d="m20.72 16.62h-.25v.16h.28v.13h-.43v-.68h.42v.13h-.26v.14h.25z" />
    <path d="m21.13 16.29h.15l-.14.53.26.07v.13l-.4-.02z" />
    <path
        d="m22.24 16.72a.56.56 0 0 1 .18.1.35.35 0 0 1 .15.15.2.2 0 0 1 0 .18.21.21 0 0 1 -.14.1.31.31 0 0 1 -.22-.06h-.05l-.13.21-.13-.09zm0 .34h.17a.1.1 0 0 0 -.05-.15h-.05z" />
    <path d="m22.65 17.63-.16.09-.11-.11.62-.35.15.15-.33.63-.12-.11.09-.16zm.2 0 .07-.14.07-.12-.12.08-.13.07z" />
    <path
        d="m23.51 17.84a1.47 1.47 0 0 1 .13.17.33.33 0 0 1 .07.21.16.16 0 0 1 -.08.13.18.18 0 0 1 -.21 0 .16.16 0 0 1 -.05.14l-.14.15-.08-.13.1-.13c.07-.06.07-.1 0-.15l-.22.15-.03-.17zm-.16.29v.05a.1.1 0 0 0 .15.05c.05 0 .05-.09 0-.15z" />
    <path d="m23.55 18.92h-.18l-.06-.15h.71l.07.19-.56.43-.06-.15.15-.11zm.17.13.12-.09.11-.08h-.29z" />
    <path
        d="m23.67 20.11a.71.71 0 0 1 -.07-.22.4.4 0 0 1 .06-.28.34.34 0 0 1 .23-.13.36.36 0 0 1 .41.34.5.5 0 0 1 0 .19h-.13a.39.39 0 0 0 0-.16.21.21 0 0 0 -.25-.2.2.2 0 0 0 -.19.24.1.1 0 0 0 0 .07h.14v-.11h.13v.25z" />
    <path
        d="m24.3 20.59-.39-.05c-.12 0-.18 0-.19.11s0 .13.16.14h.39v.16h-.38c-.21 0-.29-.14-.27-.31s.12-.26.34-.24h.38z" />
    <path d="m23.64 21.33-.15-.1.05-.15.58.42-.07.19h-.72l.06-.16h.18zm.05.2h.31l-.12-.07-.12-.09z" />
    <path d="m23.2 21.91.24.14h.45l-.09.15h-.17-.14a1 1 0 0 1 .08.11l.11.14-.09.15-.23-.4-.24-.2z" />
</svg>