<svg viewBox="0 0 40.5 40.5" xmlns="http://www.w3.org/2000/svg">
    <circle cx="20.25" cy="20.25" fill="#006c35" r="20.25" />
    <g fill="#fff">
        <path
            d="m30.73 28.67a11.76 11.76 0 0 1 -2.67 0 .14.14 0 0 1 0-.06c0-.06.12-.23.12-.36s-.33-.06-.33-.28c0-.07 0-.11-.09-.11a.45.45 0 0 0 -.37.43c0 .15 0 .2.19.4l-15.33-.1-3.08-.08s.27 1.1 3.08 1.1h15.31a.9.9 0 0 0 0 .91c.29.48.52 0 .52 0h2.29a.5.5 0 0 0 .77.18c.94-.78 0-2.22-.41-2.03zm-.43 1.41h-.68s-.31-.42-.6 0h-.94a.25.25 0 0 1 0-.4h2.22a.33.33 0 0 1 0 .4z" />
        <path
            d="m10.35 11.74s0-.13 0-.13a.22.22 0 0 0 .15.06c.09 0 .09 0 .09-.12a1.13 1.13 0 0 0 -.77-.88c-.31 0-.4.25-.4.55 0 .76.66 1.14.66 1.68 0 .22-.08.27-.17.27s-.84-.47-.84-.65a3.54 3.54 0 0 0 .11-.64c0-.29-.31-1.13-.64-1.13s-.28.56-.28.79a3.59 3.59 0 0 0 .39 1.3.15.15 0 0 1 -.14.16c-.67 0 0-3-.92-3-.08 0-.22 0-.22.12v.55a22.8 22.8 0 0 0 .33 2.27c0 .14 0 .43-.19.43s-.26-.26-.26-.4a5.1 5.1 0 0 0 .12-.89c0-.32-.09-1-.41-1-.66 0-.92 2.2-1.06 2.2a.06.06 0 0 1 -.07-.05c-.2 0-.33-1.81-.62-1.81-.11 0-.1 1-.1 1.15 0 .54.07 1.72.75 1.72.94 0 .39-2.1.82-2.1a.1.1 0 0 1 .11.11 8.38 8.38 0 0 0 0 .86c0 2.37 1.16.55 1.16 2v.51a2.06 2.06 0 0 0 0 .35v1.26h.08c.4 0 .55-1 .55-1.36 0-.1 0-.2 0-.3l-.08-1.45c0-.17.05-.39.22-.39.33 0 .33.37.83.37s1.17-.55 1.17-.87a5 5 0 0 0 -.37-1.54z" />
        <path
            d="m9 10.18c-.12-.13.06-.25-.16-.25s-.2 0-.2.31.28.54.65.54.55-.26.55-.62-.09-.27-.18-.27-.12.32-.2.32a.08.08 0 0 1 -.09-.09v-.07a.12.12 0 0 0 -.14-.13c-.13 0 0 .27-.2.27z" />
        <path
            d="m5.89 9.86c-.06.11-.11.09-.11.23a1.85 1.85 0 0 1 .42.9v.14s0 .09.08.09.3-.49.3-.64c0-.35-.16-.8-.49-.8h-.09a.16.16 0 0 0 -.11.08z" />
        <path
            d="m6.64 15.12c-.35.26-1.31 1-1.31 1.43a17.39 17.39 0 0 0 2.55-1.22.45.45 0 0 0 -.49-.33 1.63 1.63 0 0 0 -.39 0c-.15 0-.25.09-.36.12z" />
        <path
            d="m5.47 17.67a3.13 3.13 0 0 0 -.47 1.67c0 .26.08.87.57.87s.5-.45.5-.84c0-.13-.12-.28-.17-.28s-.22.3-.35.3-.12-.09-.12-.14a.84.84 0 0 0 0-.12v-.59c0-.35.1-.46.1-.77 0-.06 0-.1 0-.1z" />
        <path
            d="m13.13 17.33v-.12c0-.25-.38-.41-.38-.64s.09-.13.17-.13c.43 0 .54.47.54.9a.87.87 0 0 1 -.29.54.42.42 0 0 1 -.05-.22c0-.09 0-.18 0-.27z" />
        <path
            d="m14 13.16c-.11-.06-.16-.07-.16-.23s.1-.19.1-.34 0-.15-.11-.15a.87.87 0 0 0 -.47.62c0 .2.16.53.41.53a.64.64 0 0 0 .64-.54s0-.05-.07-.05-.24.17-.32.17z" />
        <path
            d="m15.89 10.31a.5.5 0 0 1 0-.12c0-.24.26-.31.26-.55 0-.07 0-.08-.08-.08s-.57.48-.57.93a.4.4 0 0 0 .31.31.48.48 0 0 0 .34-.37s0-.06-.08-.06h-.07a.11.11 0 0 1 -.11-.06z" />
        <path
            d="m15 10.69c-.14 0-.18 1-.18 1.15 0 .46.38 1.7 1 1.7s.56-1.61.9-1.61c.1 0 .12.13.12.23s0 .28 0 .46a1.09 1.09 0 0 0 1 1.24c.59 0 .86-.78 1.17-.78s.2.66 1 .66c.53 0 .74-.25.74-.38 0-.08.27-.48.42-.48s.15 0 .15.09-.09.08-.09.2a.17.17 0 0 0 .17.19c.29 0 .69-.81.69-.94s-.06-.16-.14-.16c-.25 0-.21.25-.61.25s-.42-.35-.42-.49v-.02a3.8 3.8 0 0 0 -.27-.9c0-.08 0-.11.12-.11a1.3 1.3 0 0 1 .15 0c.13 0 .14-.16.14-.28a1 1 0 0 0 -.84-.86c-.21 0-.48.22-.48.75s.62.89.62 1.79c0 .2-.09.37-.55.37-.87 0-.14-3.14-.93-3.14-.14 0-.42.68-.42.85 0 .34.24.41.24 1v.22.38a.9.9 0 0 1 -.63.77.76.76 0 0 1 -.68-.8c0-.25 0-.28 0-.62s0-1-.32-1c-.64 0-1.12 1.62-1.12 1.84 0 .11-.11.37-.24.37-.53 0-.31-2-.73-2z" />
        <path
            d="m17.81 9.72a1.43 1.43 0 0 0 -.16.52v.08a4.78 4.78 0 0 0 0 .49c0 .12 0 .18.11.18s.39-.71.39-1.13c0-.1 0-.25-.1-.25a.26.26 0 0 0 -.2.11z" />
        <path
            d="m18.54 14.07c-.13 0-.14.17-.14.3 0 .46.23.54.69.54s.46-.18.46-.44 0-.39-.21-.39 0 .24-.17.29c-.18 0 0-.29-.24-.29a.16.16 0 0 0 -.1.13c0 .06 0 .1-.07.1s-.08-.15-.14-.23a.05.05 0 0 0 -.08-.01z" />
        <path d="m24.56 11.16v.12a.34.34 0 0 0 0-.1z" />
        <path
            d="m24.32 10a.22.22 0 0 0 -.24.24c0 .4.47.6.48.89v.22-.12c0 .13-.05.28-.05.35s.05.14.08.14.33-.57.33-.74-.17-.98-.6-.98z" />
        <path
            d="m24.52 12.63c-.25 0-.06-.26-.27-.26a.12.12 0 0 0 -.13.12v.3c0 .32.31.44.55.44.49 0 .6-.24.6-.55 0-.16-.07-.32-.18-.32a.19.19 0 0 0 -.16.17v.08c0 .05 0 .1-.07.1s-.05-.3-.21-.3a.09.09 0 0 0 -.1.1v.07a.11.11 0 0 1 -.03.05z" />
        <path
            d="m21.85 19.2a.17.17 0 0 1 0-.07c0-.13.1-.17.1-.27a.19.19 0 0 0 -.21-.19c-.1 0-.61.37-.61.51a.14.14 0 0 0 .14.14h.2c.1 0 .09.14.09.24v.08c0 .16 0 .25.18.25l.85-.27c.11-.05.37-.1.37-.22s0-.21-.27-.21a1.46 1.46 0 0 0 -.64.19.16.16 0 0 1 -.12 0 1.27 1.27 0 0 1 -.08-.18z" />
        <path
            d="m29.21 13.23c-.14-.05-.14-.27-.32-.27s-.38.07-.38.45.91 1.1 1.09 1.1.11-.13.11-.3 0-.4 0-.5 0-.43.17-.43.11.07.18.07.09-.07.09-.17-.06-.64-.47-.64a.36.36 0 0 0 -.36.4v.24s0 .06-.08.06z" />
        <path
            d="m32 19.75c0-.09 0 0 0-.15 0-.13-.29-.08-.29-.35 0-.07 0-.14.14-.14h.23c.14 0 .36 0 .36.16s-.16.14-.16.34.46 0 .46.25-.75.49-1 .49c-.08 0-.13 0-.13-.14s.33-.26.39-.4 0-.05 0-.06z" />
        <path
            d="m30.31 17v-.07c0-.38-.26-.56-.26-.93 0-.17.05-.31.22-.31.33 0 .43.79.43 1.07s-.19.78-.34.78-.07-.23-.07-.29a2.11 2.11 0 0 1 .02-.25z" />
        <path
            d="m28.88 15.7c.07-.09 1.64-1.17 1.67-1.17a.1.1 0 0 1 .07 0 .42.42 0 0 1 .05.22c0 .46-1.57 1.43-1.71 1.43s-.13-.18-.13-.34a.3.3 0 0 1 .05-.14z" />
        <path
            d="m33.37 11.9a4.07 4.07 0 0 1 -.35-.69v-.11a.21.21 0 0 1 .22-.21c.44 0 .47.84.47 1.27a1.52 1.52 0 0 1 -.25.63s0-.29 0-.33.06-.29.06-.37a.5.5 0 0 0 0-.12s-.14-.04-.15-.07z" />
        <path
            d="m26.46 14.21a6.39 6.39 0 0 1 .11 1v.41.84.38.74c0 .77-.89 2.84-2.35 2.84a.62.62 0 0 1 -.61-.42c0-.14 2.35-1.28 2.35-2.08 0-.64-.16-1.24-.16-1.62v-.34l-.1-1.96c-.05-.49-.13-1-.14-1.46 0-.09-.2-1.43-.2-1.59s.24-1 .37-1a4 4 0 0 1 .68 1.49c0 .4-.29.09-.29.55s.28 1 .3 2a1.48 1.48 0 0 0 .04.22z" />
        <path
            d="m27.54 11.91c0-.17.12-.25.28-.25s.16.07.16-.08a1 1 0 0 0 -.27-.51v-.05s-.71-1.15-.71-1.15a1.84 1.84 0 0 0 -.34 1.13s1 6 1 7.23v.52s.64-.52.64-1.28a34.38 34.38 0 0 0 -.76-5.56z" />
        <path
            d="m27.25 17.55v.41c0 .66.38 1.48.7 1.48.59 0 .71-2.17 1.55-2.17.4 0 .6 1 1 1s.5-1.1.5-1.57a14.71 14.71 0 0 0 -.08-1.7c0-.09 0-.19 0-.29l-.07-1.36s0 0 0-.05c0-.14-1.68-2-1.68-2.38 0-.11 0-1.07.11-1.07a4.62 4.62 0 0 1 1.16 1.15s0 0-.07 0h-.05c-.06 0-.1 0-.1.09a.87.87 0 0 0 .28.36c.05 0 0-.16 0-.22 0-.25-.14-.93-.14-1a.55.55 0 0 1 .35-.43 6.94 6.94 0 0 1 .91 1.68c0 .09 0 .09-.06.09s-.23-.17-.23 0a2.9 2.9 0 0 0 .92 2.43 0 0 0 0 0 0 0v-.1c0-.5-.54-3.06-.54-3.25 0-.56.29-.78.51-.78a3.51 3.51 0 0 1 .72 1.8c0 .37-.28 0-.28.36 0 .1.44 2.7.44 2.73l.07.69 1.15 1.55a1.31 1.31 0 0 1 .17.73c0 .16-.08.73-.16.73-.34-.26-1-2.16-1-1.41v.24c0 .61-.3 1.29-.76 1.38a3.1 3.1 0 0 1 0-.44c0-.42 0-.84 0-1.26s0-.73 0-.75v-.31a2.65 2.65 0 0 0 -.74-1.45s0 .31 0 .35c0 .52.09 1.45.09 2.15 0 1-.14 2.25-1.22 2.25-.44 0-1-.76-1.36-.76s-.27 1.88-1.1 1.88a1.77 1.77 0 0 1 -1.27-1.76c0-.35.19-1.11.32-1.11s.06 0 .06.08z" />
        <path
            d="m34.54 16.4-.14-1.1c0-.34-.11-1.07-.11-1.11v-.44l-.17-1.24c0-.09-.16-1.34-.16-1.35v-.07c0-.64.06-1 .27-1.22l.61.9c.28.44.32.45.32.55s-.05.14-.09.14h-.07c-.17 0-.16 0-.16.18 0 .62.27 1.38.27 2v.15s.14 1.24.14 2.23v1.35.86a2.13 2.13 0 0 1 -2.26 2.31c-.11 0-.08 0-.11 0-.08 0-.25-.08-.25-.16 0-.7 2.06-.54 2.06-2.54v-.3c0-.1 0-.7 0-.8z" />
        <path
            d="m22.15 16.41a2.06 2.06 0 0 0 -.33 0h-.14c-.33 0-.66 0-1 0-.08 0-.7 0-.7-.09s.1-.12.17-.12c.76 0 1.95-.42 1.95-1.53a1 1 0 0 0 -1.1-1c-.37 0-.82.32-.82 1.13v.06c0 .08 0 .41-.08.43-2 .48-2.39 1.29-2.39 1.29s-.13-.52-.13-.62 0-.13 0-.19a3.82 3.82 0 0 0 -1-2.14c-.11 0-.32.23-.32.57 0 .61.72 1.67.72 2.71a3.13 3.13 0 0 1 -2.07 2.45c-.45 0-.71-.29-.71-.44s2-1.18 2-2.47a2.14 2.14 0 0 0 -.39-1.32s0 0 .08 0 .18.09.21.09 0 0 0-.08a1.19 1.19 0 0 0 -.77-1.14.65.65 0 0 0 -.51.68c0 .72.76.8.76 1.57 0 .37-1.22 1.52-1.36 1.52s-.1-.19-.1-.27 0-.19 0-.29c0-.37-.18-.15-.48.9-.11.39-2.78 1.74-2.78 2.05 0 .07.05.12.15.12a1.52 1.52 0 0 0 .43-.14l2.05-.75a1.15 1.15 0 0 0 1.24.95 3 3 0 0 0 2.1-1.34c.15-.18.3-.52.53-.52h.07a3.44 3.44 0 0 0 2.69 1.52.43.43 0 0 0 .44-.42c0-.39-1-.49-1-.92 0-.84 3.11-.58 3.11-1.12a1.94 1.94 0 0 1 .45-1c-.01-.09-.88-.13-.97-.13zm-1.33-1.74a.54.54 0 0 1 .3.13l.08.07a.1.1 0 0 1 0 .09c0 .1 0 .1-.11.1s-.37-.12-.37-.28.06-.11.1-.11zm-1.82 3.54v.12c0 .06.05.13.05.2s0 .14-.13.14c-.37 0-1-.81-1-1.27a.26.26 0 0 1 .16-.26h.07c.13 0 1.69.08 1.69.31s-.84.17-.84.76z" />
        <path
            d="m23.77 13.22v-.07c0-.47-.08-.94-.09-1.42a0 0 0 0 1 0 0s.06.09.11.09.08 0 .08-.11a2.74 2.74 0 0 0 -.59-1.24c-.44-.65-.62-1-.82.27-.13 0-.88-1-1.31-1a.22.22 0 0 0 -.22.24l.06.57c0 .44 2.09 2.77 2.09 3.2v.09l.15 1.9v.35s0 .46 0 .69 0 .49 0 .5 0 .22 0 .33l.05 1.68c.63-.19.74-1.06.74-1.72 0-.49-.14-2.25-.14-2.57s1.84 3 1.84 3 .14-.71.14-.79c0-1.01-2.09-3.89-2.09-3.99zm-1.39-2s0-.06 0-.09h.26a2.31 2.31 0 0 1 .11.5c-.04.16-.27-.24-.37-.38z" />
        <path
            d="m14.45 14.25a.42.42 0 0 0 -.45.42c0 .19 0 .25-.18.25s-.14-.49-.41-.49-.4.69-.77.69-.28-.07-.28-.21 0-.08 0-.12 0-.29-.19-.29-.36.07-.36.14c0-.17-.25-1.84-.25-1.84l-.1-.88c0-.1 0-.12.13-.12h.11c.06 0 .18 0 .18-.07s-.46-1.73-.82-1.73c-.17 0-.48.1-.48.32l.29 2.34a15.18 15.18 0 0 1 .35 2.06c0 .24-.15.4-.25.4s-.51-.64-1-.64c-.7 0-.94.81-.94 1.51a.56.56 0 0 0 .5.54 1.24 1.24 0 0 0 .92-.32c.07 0 .08.06.08.13 0 .73-1.16 1.6-2.08 1.6s-.4-1.85-.9-1.85c-.21 0-.36 1-.36 1.24a1.46 1.46 0 0 0 1.5 1.58c1.5 0 2.35-1.95 2.35-2.41v-.09c0-.23.12-.36.17-.36s.13.06.13.22a3.06 3.06 0 0 1 -2.89 3.1c-.94 0-1.35-.6-1.35-1.48v-.09c0-.2-.09-.53-.23-.53-.3 0-.32 1.22-.32 1.52a1.65 1.65 0 0 0 1.8 1.52 3.56 3.56 0 0 0 3.56-3.46c0-.08-.06-.45-.06-.81v-.12l.15.08c.13.08.13.16.35.16a1.25 1.25 0 0 0 .84-.44 1.14 1.14 0 0 0 .51.21c.42 0 .79-.12.79-.89v-.13c0-.26.05-.35.05-.55s-.04-.11-.09-.11zm-4.59 1.51c-.13 0-.23 0-.23-.15a.35.35 0 0 1 .22-.28h.15a.22.22 0 0 1 .15.2c-.05.15-.15.23-.29.23z" />
        <path
            d="m14.37 10.88a.68.68 0 0 0 .27-.46.48.48 0 0 0 -.54-.5.52.52 0 0 0 -.55.42c0 .41.37.55.37.62 0 .37-1.82 1.52-1.82 1.65a.05.05 0 0 0 0 0h.66.18a8.89 8.89 0 0 0 1.62-1.56c.04-.05-.19-.05-.19-.17zm-.23-.12c-.09 0-.21-.16-.21-.24a.16.16 0 0 1 0-.12h.12a.3.3 0 0 1 .11.22.12.12 0 0 1 -.02.14z" />
    </g>
</svg>