<svg viewBox="0 0 40.5 40.5" xmlns="http://www.w3.org/2000/svg">
    <path d="m39.34 13.5h-38.18a19.81 19.81 0 0 1 1.09-2.5 20.25 20.25 0 0 1 37.09 2.5z" fill="#d21034" />
    <path
        d="m40.5 20.25a20.19 20.19 0 0 1 -1.16 6.75h-38.18a20.22 20.22 0 0 1 0-13.5h38.18a20.19 20.19 0 0 1 1.16 6.75z"
        fill="#fff" />
    <path d="m39.34 27a20.25 20.25 0 0 1 -37.09 2.54 19.81 19.81 0 0 1 -1.09-2.54z" />
    <path
        d="m14.46 20.25-8.87 6.75-3.34 2.54a19.81 19.81 0 0 1 -1.09-2.54 20.22 20.22 0 0 1 0-13.5 19.81 19.81 0 0 1 1.09-2.5l3.34 2.5z"
        fill="#007229" />
</svg>