<svg viewBox="0 0 40.5 40.5" xmlns="http://www.w3.org/2000/svg">
    <path d="m38.8 12.14h-37.1a15.77 15.77 0 0 1 .84-1.7 20.24 20.24 0 0 1 36.26 1.7z" />
    <path d="m38.8 28.36a20.24 20.24 0 0 1 -36.26 1.7 15.77 15.77 0 0 1 -.84-1.7z" fill="#078930" />
    <path d="m40.5 20.25a19.79 19.79 0 0 1 -.94 6.09h-38.62a20.2 20.2 0 0 1 0-12.18h38.62a19.79 19.79 0 0 1 .94 6.09z"
        fill="#da121a" />
    <path d="m39.56 14.16h-38.62a16.4 16.4 0 0 1 .76-2h37.1a16.4 16.4 0 0 1 .76 2z" fill="#fff" />
    <path d="m39.56 26.34a16.4 16.4 0 0 1 -.76 2h-37.1a16.4 16.4 0 0 1 -.76-2z" fill="#fff" />
    <path
        d="m19.53 20.25-10.53 6.09-3.51 2-2.94 1.7a15.77 15.77 0 0 1 -.84-1.7 16.4 16.4 0 0 1 -.76-2 20.2 20.2 0 0 1 0-12.18 16.4 16.4 0 0 1 .76-2 15.77 15.77 0 0 1 .84-1.7l2.94 1.7 3.51 2z"
        fill="#0f47af" />
    <path d="m4.16 15.52 2.08 2.85 3.35-1.1-2.07 2.86 2.08 2.85-3.36-1.09-2.06 2.86-.01-3.52-3.35-1.09 3.35-1.09z"
        fill="#fcdd09" />
</svg>