<svg viewBox="0 0 40.5 40.5" xmlns="http://www.w3.org/2000/svg">
    <path
        d="m40.5 20.25a20.08 20.08 0 0 1 -1.67 8.06h-37.16a20.29 20.29 0 0 1 0-16.12h37.16a20.08 20.08 0 0 1 1.67 8.06z"
        fill="#b40a2d" />
    <path d="m36.41 8.06h-32.32a20.23 20.23 0 0 1 32.32 0z" fill="#377e3f" />
    <path d="m36.41 32.44a20.23 20.23 0 0 1 -32.32 0z" fill="#377e3f" />
    <path d="m38.83 12.19h-37.16a20.32 20.32 0 0 1 2.42-4.13h32.32a20.32 20.32 0 0 1 2.42 4.13z" fill="#fff" />
    <path d="m38.83 28.31a20.32 20.32 0 0 1 -2.42 4.13h-32.32a20.32 20.32 0 0 1 -2.42-4.13z" fill="#fff" />
    <path d="m20.26 13.05 1.8 5.54h5.82l-4.71 3.42 1.8 5.53-4.71-3.42-4.71 3.42 1.8-5.53-4.71-3.42h5.82z"
        fill="#ecc81d" />
</svg>