<svg viewBox="0 0 40.5 40.5" xmlns="http://www.w3.org/2000/svg">
    <path
        d="m40.5 20.25a20.82 20.82 0 0 1 -.39 4 20.27 20.27 0 0 1 -19.86 16.25h-1.46a20.1 20.1 0 0 1 -7.95-2.27 20.32 20.32 0 0 1 -10.45-14 20.5 20.5 0 0 1 0-8 20.32 20.32 0 0 1 10.45-13.91 20.1 20.1 0 0 1 8-2.27v-.05h1.46a20.27 20.27 0 0 1 19.81 16.27 20.82 20.82 0 0 1 .39 3.98z"
        fill="#006aa7" />
    <path
        d="m40.5 20.25a20.82 20.82 0 0 1 -.39 4h-21.32v16.2a20.1 20.1 0 0 1 -7.95-2.27v-13.95h-10.45a20.5 20.5 0 0 1 0-8h10.45v-13.91a20.1 20.1 0 0 1 8-2.27v16.22h21.27a20.82 20.82 0 0 1 .39 3.98z"
        fill="#fecc00" />
</svg>