<svg viewBox="0 0 40.5 40.5" xmlns="http://www.w3.org/2000/svg">
    <path
        d="m40.5 20.25a20.69 20.69 0 0 1 -.38 3.89 20.21 20.21 0 0 1 -33.42 11.14 20 20 0 0 1 -5.9-9.44 19.52 19.52 0 0 1 -.8-5.59 20.25 20.25 0 0 1 17.9-20.1l.1-.15h2.25a20.31 20.31 0 0 1 20.25 20.25z"
        fill="#fff" />
    <path d="m17.9.15-17.1 25.69a19.52 19.52 0 0 1 -.8-5.59 20.25 20.25 0 0 1 17.9-20.1z" fill="#003f87" />
    <path d="m35.61 7.09-32.32 24.22a19.93 19.93 0 0 1 -2.49-5.47l17.1-25.69.1-.15h2.25a20.12 20.12 0 0 1 15.36 7.09z"
        fill="#fcd856" />
    <path
        d="m40.5 20.25a20.69 20.69 0 0 1 -.38 3.89l-33.42 11.14a19.89 19.89 0 0 1 -3.41-4l32.32-24.19a20.08 20.08 0 0 1 4.89 13.16z"
        fill="#d62828" />
    <path d="m36 33a20.22 20.22 0 0 1 -26.48 4.42z" fill="#007a3d" />
</svg>