<svg viewBox="0 0 40.5 40.5" xmlns="http://www.w3.org/2000/svg">
    <path d="m40.5 20.25a20 20 0 0 1 -1.16 6.75h-38.18a20.22 20.22 0 0 1 0-13.5h38.18a20 20 0 0 1 1.16 6.75z"
        fill="#fff" />
    <path d="m39.34 13.5h-38.18a20.25 20.25 0 0 1 38.18 0z" fill="#ce1126" />
    <path d="m39.34 27a20.25 20.25 0 0 1 -38.18 0z" />
    <g fill="#007a3d">
        <path d="m8.12 16.06.93 2.88h3.04l-2.46 1.79.94 2.88-2.45-1.78-2.46 1.78.94-2.88-2.46-1.79h3.04z" />
        <path d="m32.43 16.06.93 2.88h3.04l-2.46 1.79.94 2.88-2.45-1.78-2.46 1.78.94-2.88-2.46-1.79h3.04z" />
    </g>
</svg>