<svg viewBox="0 0 40.5 40.5" xmlns="http://www.w3.org/2000/svg">
    <path d="m40.5 20.25a20 20 0 0 1 -1.16 6.75h-38.18a20.22 20.22 0 0 1 0-13.5h38.18a20 20 0 0 1 1.16 6.75z"
        fill="#2d2a4a" />
    <path d="m35.33 6.75h-30.16a20.22 20.22 0 0 1 30.16 0z" fill="#a51931" />
    <path d="m35.33 33.75a20.22 20.22 0 0 1 -30.16 0z" fill="#a51931" />
    <g fill="#f4f5f8">
        <path d="m39.34 13.5h-38.18a20 20 0 0 1 4-6.75h30.17a20 20 0 0 1 4.01 6.75z" />
        <path d="m39.34 27a20 20 0 0 1 -4 6.75h-30.17a20 20 0 0 1 -4-6.75z" />
    </g>
</svg>