<svg viewBox="0 0 40.5 40.5" xmlns="http://www.w3.org/2000/svg">
    <path d="m38.54 11.56h-36.54a20.25 20.25 0 0 1 36.58 0z" fill="#c00" />
    <path d="m38.54 28.94a20.25 20.25 0 0 1 -36.54 0z" fill="#060" />
    <path d="m40.5 20.25a20 20 0 0 1 -2 8.69h-36.5a20.24 20.24 0 0 1 0-17.38h36.54a20 20 0 0 1 1.96 8.69z"
        fill="#fff" />
    <g fill="#f8c300">
        <path d="m20.25 12.42.32 1h1.06l-.85.62.32 1-.85-.62-.85.62.32-1-.85-.62h1.06z" />
        <path d="m24.3 13.52.33 1h1.05l-.85.62.32 1-.85-.62-.85.62.32-1-.85-.62h1.06z" />
        <path d="m27.28 16.51.32 1h1.05l-.85.62.33 1-.85-.62-.85.62.32-1-.85-.62h1.05z" />
        <path d="m28.36 20.54.33 1h1.05l-.85.62.32 1-.85-.62-.85.62.33-1-.85-.62h1.05z" />
        <path d="m16.2 13.52-.32 1h-1.06l.85.62-.32 1 .85-.62.85.62-.32-1 .85-.62h-1.06z" />
        <path d="m13.22 16.51-.32 1h-1.05l.85.62-.33 1 .85-.62.85.62-.32-1 .85-.62h-1.05z" />
        <path d="m12.14 20.54-.33 1h-1.05l.85.62-.32 1 .85-.62.85.62-.33-1 .85-.62h-1.05z" />
        <path
            d="m20.65 25.24a1.24 1.24 0 0 0 -.4-.76 1.23 1.23 0 0 0 -.41.76 1.28 1.28 0 0 0 -.65.18 1.18 1.18 0 0 0 2.12 0 1.3 1.3 0 0 0 -.66-.18z" />
        <path
            d="m24.14 25.59a1.2 1.2 0 0 0 -.3-.81 1.21 1.21 0 0 0 -.5.69 1.27 1.27 0 0 0 -.68.09 1.24 1.24 0 0 0 1 .81 1.23 1.23 0 0 0 1.14-.51 1.2 1.2 0 0 0 -.66-.27z" />
        <path
            d="m16.36 25.59a1.21 1.21 0 0 1 .29-.81 1.25 1.25 0 0 1 .51.69 1.23 1.23 0 0 1 .67.09 1.17 1.17 0 0 1 -2.09.3 1.2 1.2 0 0 1 .62-.27z" />
        <path
            d="m25.72 28.13a17.66 17.66 0 0 0 -10.95 0c-.1-.3-.19-.6-.29-.9a18.62 18.62 0 0 1 11.53 0c-.09.3-.19.6-.29.9z" />
        <path
            d="m26.37 24.64a2.57 2.57 0 0 1 -2.18-1.42 2 2 0 0 1 -1.59.57 2.21 2.21 0 0 1 -2.05-2v-1.7a.56.56 0 0 1 .09-.39.74.74 0 0 1 1.24 0 1.69 1.69 0 0 0 -.09-1.22 1.67 1.67 0 0 0 -3.07 0 1.8 1.8 0 0 0 -.09 1.22.74.74 0 0 1 1.24 0 .49.49 0 0 1 .11.39v1.71a2.21 2.21 0 0 1 -2.05 2 2 2 0 0 1 -1.61-.57 2.53 2.53 0 0 1 -2.17 1.42 2.22 2.22 0 0 1 -1.3-.43 1.52 1.52 0 0 0 1.49 1.4 2.08 2.08 0 0 0 2.1-1.76 1.92 1.92 0 0 0 1.7 1c.41 0 1.49-.1 2.12-1.91.62 1.81 1.7 1.91 2.11 1.91a1.93 1.93 0 0 0 1.71-1 2.08 2.08 0 0 0 2.1 1.76 1.52 1.52 0 0 0 1.49-1.4 2.22 2.22 0 0 1 -1.3.42zm-6.11-5.15a1.1 1.1 0 0 0 -1.2-.55 1.23 1.23 0 0 1 1.2-1.07 1.21 1.21 0 0 1 1.19 1.07 1.11 1.11 0 0 0 -1.19.55z" />
    </g>
</svg>