<svg viewBox="0 0 40.5 40.5" xmlns="http://www.w3.org/2000/svg">
    <path
        d="m40.5 20.25a20.25 20.25 0 0 1 -20.25 20.25 19.29 19.29 0 0 1 -2.42-.15 18.35 18.35 0 0 1 -3.25-.66c-.46-.13-.92-.28-1.36-.45a20.26 20.26 0 0 1 -4.76-2.52l-.14-.11c-.09-.07-.18-.12-.26-.19s0 0-.05 0a14.33 14.33 0 0 1 -1.14-.92 20.27 20.27 0 0 1 0-30.5l.18-.15c.19-.16.37-.31.57-.46l.08-.08a.18.18 0 0 1 .09-.08s0 0 0 0 .27-.2.42-.29a.05.05 0 0 1 0 0h.05a.06.06 0 0 1 0 0 .69.69 0 0 1 .13-.11s0 0 0 0h.05s0 0 0 0l.56-.43a1.88 1.88 0 0 1 .31-.21c.11-.09.25-.15.35-.23h.07.17a.2.2 0 0 1 .1-.17 0 0 0 0 1 0 0l.1-.06c.15-.1.31-.18.47-.27s0 0 0 0 0 0 .06 0 0 0 .06 0 0 0 0 0l.3-.16.19-.1h.05a.19.19 0 0 0 .09 0h.05s0 0 .07 0l.56-.42.27-.12h.09.05a.11.11 0 0 1 .09 0l.19-.08s.06 0 .1 0h.09a.14.14 0 0 1 .1 0 4.14 4.14 0 0 1 .53-.19s0 0 .06 0h.06a.69.69 0 0 1 .37-.39l.1-.05h.07.15c.42-.12.84-.24 1.25-.33h.22.21l.34-.07s0 0 .05 0h.08a2 2 0 0 1 .34 0h.07l.39-.06a.58.58 0 0 1 .19 0h.29a19.29 19.29 0 0 1 2.5-.49 20.25 20.25 0 0 1 20.25 20.25z"
        fill="#00843d" />
    <path
        d="m17.83.15v40.2a18.35 18.35 0 0 1 -3.25-.66c-.46-.13-.92-.28-1.36-.45a20.26 20.26 0 0 1 -4.76-2.52l-.14-.11c-.09-.07-.18-.12-.26-.19s0 0-.05 0a14.33 14.33 0 0 1 -1.14-.92v-30.5l.18-.15c.19-.16.37-.31.57-.46l.08-.08a.18.18 0 0 1 .09-.08s0 0 0 0 .27-.2.42-.29a.05.05 0 0 1 0 0h.05a.06.06 0 0 1 0 0 .69.69 0 0 1 .13-.11s0 0 0 0h.05s0 0 0 0l.56-.43a1.88 1.88 0 0 1 .31-.21c.11-.09.25-.15.35-.23h.07.17a.2.2 0 0 1 .1-.17 0 0 0 0 1 0 0l.1-.06c.15-.1.31-.18.47-.27s0 0 0 0 0 0 .06 0 0 0 .06 0 0 0 0 0l.3-.16.19-.1h.05.09.05s0 0 .07 0l.56-.42.27-.12h.09.05a.11.11 0 0 1 .09 0l.19-.08a2 2 0 0 1 .19-.07.14.14 0 0 1 .1 0 4.14 4.14 0 0 1 .53-.19s0 0 .06 0h.06a.69.69 0 0 1 .37-.32l.1-.05h.07.15c.42-.12.84-.24 1.25-.33h.22.21l.34-.07s0 0 .05 0h.08a2 2 0 0 1 .34 0 0 0 0 0 1 0 0l.39-.06a.58.58 0 0 1 .19 0z"
        fill="#d22630" />
    <path d="m29.81 4.48a5.07 5.07 0 0 1 -3.33 8.88 5 5 0 0 1 -2-.4 5.06 5.06 0 1 0 5.31-8.48z" fill="#fff" />
    <path d="m25.52 3.88-.22.66.56.41-.7-.01-.22.66-.2-.66-.69-.01.56-.4-.21-.66.56.41z" fill="#fff" />
    <path d="m25.52 6.46-.22.66.56.41-.7-.01-.22.66-.2-.67h-.69l.56-.4-.21-.66.56.41z" fill="#fff" />
    <path d="m28.09 5.22-.22.65.56.42-.7-.01-.22.65-.2-.66-.7-.01.57-.39-.21-.67.56.42z" fill="#fff" />
    <path d="m25.52 9.05-.22.66.56.41-.7-.01-.22.66-.2-.66-.69-.01.56-.4-.21-.66.56.41z" fill="#fff" />
    <path
        d="m17.24 3.58h-4.89v-2s0 0 0 0h.09s0 0 0 0l.29-.11h.09a.14.14 0 0 1 .1 0 4.14 4.14 0 0 1 .53-.19s0 0 .06 0h.06a.69.69 0 0 1 .43-.28l.1-.05.71.39h.66l.72.41v.65l.89.55z"
        fill="#fff" />
    <path
        d="m17.2 3s0 0 0 0l-.88-.56v-.63s0 0 0 0l-.71-.4h-.65l-.76-.48h-.07l.76.41h.66l.69.4v.64s0 0 0 0l.89.55.05.57h-4.8v-.84-1.07s0 0 0 0v1 .92h4.94z" />
    <path d="m22.97 7.71-.22.65.55.41h-.69l-.22.65-.21-.66-.69-.01.57-.4-.21-.66.56.42z" fill="#fff" />
    <path
        d="m14.16 1.28-.11.21-.29-.18h-.22l-.54.55v.14l-.14.15-.4-.3v-.24s0 0 0 0h.09s0 0 0 0l.29-.11h.09a.14.14 0 0 1 .1 0 4.14 4.14 0 0 1 .53-.19s0 0 .06 0h.06z"
        fill="#d22630" />
    <path
        d="m14.18 1.27-.37-.2s0 0 0 0h-.06s0 0-.06 0h.12l.33.19-.08.16-.28-.18h-.23s0 0 0 0l-.5.56-.12.2-.13.13-.4-.31v-.23s0 0 0 0v.22s0 0 0 0l.39.29s0 0 0 0a0 0 0 0 0 0 0l.14-.1.07-.08.5-.55h.21l.28.17a0 0 0 0 0 0 0l.11-.2s.09-.07.08-.07z" />
    <path d="m15.3 3.57v-.51h.3l.05-.04v-.24l-.17-.14h.31l.28.19v.1l.54.64z" fill="#d22630" />
    <path
        d="m16.61 3.6h-1.31s0 0 0 0v-.54a0 0 0 0 1 0 0h.29v-.27l-.15-.13a0 0 0 0 1 0 0s0 0 0 0h.33l.27.19s0 0 0 0v.09l.54.64s0 0 0 0zm-1.29-.05h1.24l-.51-.61v-.1l-.25-.18h-.24l.11.1s0 0 0 0v.24h-.3z" />
    <path d="m14.41 2.31.43-.38v-.3l.68.44h-.54l-.32.31z" fill="#d22630" />
    <path
        d="m14.66 2.41-.26-.08s0 0 0 0l.42-.37v-.35a0 0 0 0 1 0 0l.68.44s0 0 0 0a0 0 0 0 1 0 0h-.5l-.31.3zm-.21-.11.21.06.34-.31h.47l-.58-.38v.26s0 0 0 0z" />
    <path d="m12.35 3.02h.37v.27h.45v.28h-.82z" fill="#d22630" />
    <path
        d="m13.17 3.6h-.82s0 0 0 0v-.6s0 0 0 0h.37s0 0 0 0v.24h.43a0 0 0 0 1 0 0v.28a0 0 0 0 1 .02.08zm-.8-.05h.78v-.24h-.43s0 0 0 0v-.31h-.32z" />
    <path d="m13 1.44-.05-.05a.56.56 0 0 1 .16-.07z" fill="#ffc72c" />
    <path
        d="m16.42 3.58h-2.42l-1.57-1.3v-.67s0 0 0 0h.09s0 0 0 0l.5.31.66.41h1v.84l.38.29h.52l.23-.23h-.11l.23-.23.15.13v.08l.31.34z"
        fill="#ffc72c" />
    <path
        d="m13.08 1.32-.08.08.05.06a0 0 0 0 0 0 0l.1-.11s0 0 0 0zm3.35 2.23-.32-.35v-.07l-.17-.13-.2.22s0 0 0 0h.08l-.19.18h-.5l-.36-.27v-.82a0 0 0 0 0 0 0h-1l-.65-.39-.5-.29s0 0 0 0l.38.27.66.4s0 0 0 0h1v.83l.38.3h.54s0 0 0 0l.24-.23h-.08l.19-.2.12.11v.08l.31.32h-2.36l-1.62-1.3v-.62s0 0 0 0v.61a0 0 0 0 0 0 0l1.52 1.35h2.49a0 0 0 0 0 .04 0z" />
    <path d="m12.35 1.64 1.26.76h.94v.79l.5.38h-1.36l-1.34-.92z" fill="#d22630" />
    <path
        d="m14.58 3.19v-.8h-1l-.58-.39-.55-.33h-.05v1l1.24.85h1.41s0 0 0 0zm-.89.36-1.31-.92v-.94l.53.31.68.4h.92v.8l.43.34z" />
    <path d="m13.05 3.13.39-.34v-.3l.69.44h-.54l-.34.34z" fill="#00843d" />
    <path
        d="m13.25 3.29-.25-.14s0 0 0 0l.38-.34v-.32s0 0 0 0l.69.44a0 0 0 0 1 0 0h-.47l-.33.33zm-.16-.16.16.11.32-.32h.48l-.59-.38v.28z" />
    <path d="m13.71 2.66.22-.21.19.14-.21.2z" fill="#00843d" />
    <path
        d="m13.91 2.82-.2-.13a0 0 0 0 1 0 0l.22-.22a0 0 0 0 1 0 0l.19.14a0 0 0 0 1 0 0zm-.16-.16.16.1.17-.17-.15-.11z" />
    <path d="m13.45 2.15.37-.32v-.31l.69.45h-.54l-.32.31z" fill="#d22630" />
    <path
        d="m13.65 2.3-.2-.12a0 0 0 0 1 0 0l.37-.32v-.3a0 0 0 0 1 0 0l.68.45s0 0 0 0a0 0 0 0 1 0 0h-.5l-.31.31zm-.16-.15.16.1.35-.25h.48l-.58-.37v.26s0 0 0 0z" />
    <path d="m14.09 1.7.22-.22.19.14-.21.21z" fill="#d22630" />
    <path
        d="m14.29 1.85-.2-.13s0 0 0 0l.21-.22s0 0 0 0l.2.14s0 0 0 0l-.21.2s.01.01 0 .01zm-.16-.16.16.11.17-.18-.15-.11z" />
    <path d="m15.11 1.8.21-.21.19.14-.2.2z" fill="#d22630" />
    <path d="m15.31 2-.2-.13s0 0 0 0l.22-.22s0 0 0 0l.19.14s0 0 0 0l-.2.21zm-.17-.16.16.1.18-.17-.16-.11z" />
    <path d="m14.69 2.7.23-.2v-.31l.69.45h-.54l-.38.37z" fill="#d22630" />
    <path
        d="m14.69 3s0 0 0 0v-.3s0 0 0 0l.22-.19v-.34l.69.45s0 0 0 0h-.53l-.36.38zm0-.32v.32l.33-.33h.48l-.5-.43v.26s0 0 0 0z" />
    <path d="m15.19 2.37.22-.22.19.14-.21.21z" fill="#d22630" />
    <path d="m15.39 2.52-.2-.13s0 0 0 0l.21-.22.19.14s0 0 0 0l-.21.21zm-.16-.16.16.11.17-.18-.15-.11z" />
    <path d="m15.8 3.57.15-.23.15.23z" fill="#fff" />
    <path d="m16.1 3.6h-.32s0 0 0 0l.15-.23a0 0 0 0 1 0 0l.15.23zm-.26-.05h.21l-.05-.17z" />
    <path d="m12.35 2.65v.92h-1.33z" fill="#fff" />
    <path d="m12.35 2.62-.68.47-.15.11-.52.35s0 0 0 0h1.39v-.89zm0 .93h-1.25l.35-.26.2-.13.67-.46z" />
    <path
        d="m12.35 1.62v1l-.69.47-.2.14-.37.27h-2.33s0 0 0 0l.24-.1a1.88 1.88 0 0 1 .31-.21c.11-.09.25-.15.35-.23h.07.17a.2.2 0 0 1 .1-.17 0 0 0 0 1 0 0l.1-.06c.15-.1.31-.18.47-.27s0 0 0 0 0 0 .06 0 0 0 .06 0 0 0 0 0l.3-.16.19-.1h.05a.19.19 0 0 0 .09 0h.05s0 0 .07 0l.56-.42.27-.12h.09z"
        fill="#ffc72c" />
    <path d="m12.37 1.61v1l-.68.47-.15.11-.54.36h-2.2s0 0 0 0h2.2l.35-.26.2-.13.67-.46v-1z" />
    <path d="m12.35 1.61v.23l-.41.3-.15-.14-.06-.05s0 0 .07 0l.2-.17c.13-.07.25-.11.36-.16z" fill="#d22630" />
    <path d="m12.35 1.61v.2l-.41.31-.14-.12v-.06l.05.06.14.15s0 0 0 0l.4-.29a0 0 0 0 0 0 0v-.27s-.02.02-.04.02z" />
    <path d="m9.4 3.16v.42h-.64s0 0 0 0l.24-.18a1.88 1.88 0 0 1 .31-.21z" fill="#d22630" />
    <path d="m9.4 3.16v.38h-.6s0 0 0 0h.66v-.39z" />
    <path d="m12.35 3.02h-.37v.27h-.45v.28h.82z" fill="#d22630" />
    <path
        d="m12.35 3.6h-.82s0 0 0 0v-.31s0 0 0 0h.47v-.29s0 0 0 0h.37s0 0 0 0v.55s-.01.05-.02.05zm-.8-.05h.78v-.55h-.33v.25s0 0 0 0h-.43z" />
    <path
        d="m12.35 1.62v.61l-.87.77-.14.11-.51.42h-2s0 0 0 0l.17-.13h.06.52l.42-.25v-.37l.1-.06c.15-.1.31-.18.47-.27s0 0 0 0 0 0 .06 0 0 0 .06 0h.31.06l.2-.12.32-.2h.05s0 0 .07 0l.3-.35.27-.12h.09z"
        fill="#fff" />
    <path
        d="m11.46 2.93-.13.11-.53.45h.07l.49-.4.09-.09.85-.71zm-1.46-.15a0 0 0 0 0 0 0v.36l-.36.27h-.53-.11l.06.06h.55l.39-.3v-.4zm1.7-.89-.21.11h-.05l-.44.28h-.09s0 0 0 0 0 0-.06 0h.15a0 0 0 0 0 0 0l.66-.4s.07.01.04.01zm.67-.28v.59l-.87.72-.13.11-.53.45h-2.04s0 0 0 0h2l.49-.4.13-.1.83-.69v-.68z" />
    <path d="m12.35 1.65v1l-.69.47-.2.14-.37.27h-1.44l.46-.35v-.48c.15-.1.31-.18.47-.27s0 0 0 0h.39l1.25-.74z"
        fill="#00843d" />
    <path
        d="m9.72 3.55.45-.34v-.52.5l-.46.35h1.08zm2.65-1.93-.6.38-.65.4h-.35s0 0 0 0h.44l.67-.4.53-.31v.94l-.68.47-.15.11-.58.34h-1.28l.45-.34v-.52.48l-.48.36h1.31l.35-.26.2-.13.67-.46v-1z" />
    <path d="m11.65 3.13-.39-.34v-.3l-.69.44h.54l.34.34z" fill="#d22630" />
    <path
        d="m11.66 3.12-.16-.12-.17-.15v-.3l-.33.08-.16.11-.2.13s0 0 0 0v.13h.53l.16.14.13.12s0 0 0 0l.2-.13s0 0 0 0zm-.35 0-.17-.16s0 0 0 0h-.46l.14-.08.2-.12.23-.15v.25l.17.16v-.02l.15.13-.15.11-.13-.14z" />
    <path d="m10.99 2.66-.22-.21-.19.14.21.2z" fill="#d22630" />
    <path d="m11 2.65-.2-.2s0 0 0 0l-.19.14a0 0 0 0 0 0 0l.19.18.2-.12s0 0 0 0zm-.23-.17.18.18-.16.11-.17-.18z" />
    <path d="m10 2.78v.22l-.15-.15h.05a.2.2 0 0 1 .1-.06 0 0 0 0 1 0-.01z" fill="#d22630" />
    <path d="m9.85 2.86.15.14zm.15-.08a0 0 0 0 0 0 0v.15l-.1-.08h-.05l.15.15a0 0 0 0 0 0 0v-.23z" />
    <path d="m8.91 3.55h-.11s0 0 0 0h.16s-.04 0-.05 0z" />
    <path d="m13.69 3.57-1.34.92v-.92z" fill="#fff" />
    <path d="m12.35 4.52a0 0 0 0 1 0 0v-.95h1.36a0 0 0 0 1 0 0l-1.34.92zm0-.93v.86l1.24-.86z" />
    <path d="m17.25 3.57-.08.6-.89.56-.01.65-.72.41-.65.03-1.29.69h-1.26v-2.02l1.34-.92z" fill="#ffc72c" />
    <path
        d="m13.61 6.53h-1.26a0 0 0 0 1 0 0v-2l1.33-.92h3.57s0 0 0 0l-.07.6-.89.55v.64l-.71.41h-.66l-1.28.69zm-1.24 0h1.23l1.28-.7h.66l.69-.4v-.7a0 0 0 0 1 0 0l.88-.55.07-.57h-3.49l-1.32.92z" />
    <path d="m12.92 6.36.29-.3h.59l.36-.21-.1-.2-.3.18h-.22l-.76-.85-.43.33v1.05z" fill="#d22630" />
    <path
        d="m12.92 6.38h-.57v-1.07s0 0 0 0l.42-.31.75.84h.21l.27-.21.1.2s0 0 0 0l-.36.21h-.59l-.28.29zm-.55 0h.54l.29-.38h.59l.34-.2-.08-.15-.27.16h-.26l-.74-.81-.41.31z" />
    <path d="m15.3 3.57v.51h.3l.05.04v.25l-.17.13h.31l.28-.18v-.1l.54-.65z" fill="#d22630" />
    <path
        d="m15.79 4.53h-.31s0 0 0 0l.15-.14v-.26h-.33a0 0 0 0 1 0 0v-.56a0 0 0 0 1 0 0h1.34a0 0 0 0 1 0 0l-.54.64v.09l-.27.19zm-.24 0h.24l.21-.23v-.1l.51-.6h-1.19v.45h.3v.05.24s0 0 0 0z" />
    <path d="m14.41 4.83.43.38v.3l.68-.44h-.54l-.32-.31z" fill="#d22630" />
    <path
        d="m14.83 5.54v-.32l-.42-.37s0 0 0 0l.26-.07.31.31h.55a0 0 0 0 1 0 0l-.68.44zm-.38-.69.4.34v.28l.58-.38h-.43l-.31-.3z" />
    <path d="m12.35 4.13h.37v-.27h.45v-.29h-.82z" fill="#d22630" />
    <path d="m12.72 4.15h-.37v-.58h.82v.29s0 0 0 0h-.43v.25zm-.35-.05h.32v-.24a0 0 0 0 1 0 0h.43v-.26h-.78z" />
    <path
        d="m12.46 6.36.62-.47v-.09l-.1-.1-.2.2h-.13l-.14-.15v-.19l1.19-.73h.99v-.84l.38-.29h.52l.24.23h-.12l.21.21.15-.13v-.08l.35-.36h-2.45l-1.62 1.35v1.44z"
        fill="#fff" />
    <path
        d="m12.46 6.38h-.11v-1.46s0 0 0 0l1.65-1.37h2.49a0 0 0 0 1 0 0l-.33.35v.1l-.15.13-.31-.13a0 0 0 0 1 0 0h.08l-.19-.19h-.5l-.37.19v.84s0 0 0 0h-1l-1.18.71v.17l.13.14h.11l.19-.2.1.11v.09l-.63.48zm-.09 0h.08l.61-.46v-.11l-.06-.08-.18.19h-.16l-.15-.15v-.21l1.19-.72h1v-.84s0 0 0 0l.38-.29h.55l.23.23a0 0 0 0 1 0 0h-.08l.15.16.12-.1v-.07s0 0 0 0l.3-.31h-2.35l-1.63 1.31z" />
    <path d="m15.05 3.57-.5.38v.8h-.94l-1.26.75v-1.01l1.34-.92z" fill="#00843d" />
    <path
        d="m12.35 5.52s0 0 0 0v-1l1.33-.92h1.38s0 0 0 0a0 0 0 0 1 0 0l-.48.4v.79s0 0 0 0h-.93l-1.26.75zm0-1v1l1.23-.73h.93v-.79s0 0 0 0l.49-.41h-1.31z" />
    <path d="m13.05 4.01.39.34v.3l.69-.44h-.54l-.34-.34z" fill="#d22630" />
    <path
        d="m13.44 4.68s0 0 0 0v-.32l-.44-.36s0 0 0 0l.2-.14.33.33h.55a0 0 0 0 1 0 0l-.69.44zm-.35-.68.37.32v.28l.59-.38h-.48l-.32-.33z" />
    <path d="m13.71 4.48.22.22.19-.14-.21-.21z" fill="#d22630" />
    <path d="m13.93 4.72-.22-.21s0 0 0 0l.2-.13.21.21s0 0 0 0l-.19.14zm-.18-.24.18.19.15-.12-.17-.17z" />
    <path d="m13.45 4.99.37.32v.31l.69-.44h-.54l-.32-.32z" fill="#d22630" />
    <path
        d="m13.82 5.64s0 0 0 0v-.31l-.39-.33a0 0 0 0 1 0 0l.2-.13.31.3h.53a0 0 0 0 1 0 0l-.68.44zm-.33-.64.35.31v.27l.58-.38h-.42l-.3-.3z" />
    <path d="m14.09 5.44.22.22.19-.14-.21-.21z" fill="#d22630" />
    <path d="m14.31 5.69-.21-.22s0 0 0 0l.2-.13.21.21s0 0 0 0zm-.18-.24.18.18.15-.11-.17-.18z" />
    <path d="m15.11 5.34.21.22.19-.14-.2-.21z" fill="#d22630" />
    <path d="m15.32 5.58-.22-.21.2-.13s0 0 0 0l.21.21s0 0 0 0l-.19.14zm-.18-.24.18.19.16-.12-.18-.17z" />
    <path d="m14.69 4.44.23.2v.31l.69-.45h-.54l-.38-.36z" fill="#d22630" />
    <path
        d="m14.92 5s0 0 0 0v-.3l-.22-.19s0 0 0 0v-.3a0 0 0 0 1 0 0l.37.36h.53a0 0 0 0 1 0 0l-.67.43zm-.2-.54.22.2v.27l.58-.38h-.48l-.33-.33z" />
    <path d="m15.19 4.77.22.22.19-.14-.21-.21z" fill="#d22630" />
    <path d="m15.41 5-.21-.22s0 0 0 0l.2-.13.21.2s0 0 0 0l-.19.15zm-.18-.24.18.18.15-.11-.17-.18z" />
    <path d="m15.8 3.57.15.23.15-.23z" fill="#ffc72c" />
    <path d="m16 3.82-.15-.23s0 0 0 0h.32l-.17.22zm-.11-.22.11.15.1-.16z" />
    <path d="m12.35 6.14.21-.14-.21-.14z" fill="#ffc72c" />
    <path d="m12.35 6.16s0 0 0 0v-.3s0 0 0 0l.22.14-.22.14zm0-.25v.18l.17-.09z" />
    <path
        d="m12.35 3.58v2.93h-1.25l-1.3-.69h-.65l-.71-.42v-.64l-.67-.42a.18.18 0 0 1 .09-.08s0 0 0 0l.41-.31s0 0 .05 0a.05.05 0 0 0 0 0 .75.75 0 0 0 .15-.09s0 0 0 0h.05 3.62z"
        fill="#fff" />
    <path
        d="m12.35 3.55h-3.55s0 0 0 0h3.57v2.93h-1.27l-1.29-.69h-.65l-.69-.4v-.68l-.66-.42.66.42v.63s0 0 0 0l.72.41h.66l1.28.7h1.27s0 0 0 0v-2.87a0 0 0 0 0 -.05-.03z" />
    <path d="m11.78 6.36-.29-.3h-.59l-.36-.21.11-.2.29.18h.22l.76-.85.43.33v1.05z" fill="#d22630" />
    <path
        d="m12.35 6.38h-.58l-.29-.29h-.59l-.36-.21a0 0 0 0 1 0 0l.1-.2.29.18h.2l.78-.86.44.33v1.03zm-.56 0h.54v-1l-.41-.38-.74.84h-.25l-.28-.16-.08.15.34.2h.59z" />
    <path
        d="m9.4 3.55h-.6s0 0 0 0h.62v.46h-.33l-.09.09v.26l.1.09h-.19l-.26-.17v-.08l-.28-.34.28.34v.09l.27.19h.33l-.16-.12v-.23h.31v-.5s.01-.08 0-.08z" />
    <path
        d="m16.44 2.38v-.68l-.79-.48h-.65l-.61-.34a1.66 1.66 0 0 0 -.39.12l.87.5h.67l.61.39v.66l.9.56v.89l-.9.56v.66l-.61.4h-.67l-1.23.7h-2.58l-1.23-.7h-.68l-.62-.4v-.62l-.65-.4c-.08 0-.14.12-.23.19l.61.38v.67l.8.49h.67l1.27.71h2.77l1.23-.71h.68l.79-.49v-.67l.91-.57v-1.26z"
        fill="#00843d" />
    <path
        d="m16.19 2.52v-.66l-.64-.39h-.66l-.89-.47.89.51h.68l.61.38v.66l.89.57v.88l-.89.57v.66l-.61.38h-.66l-1.24.7h-2.6l-1.23-.7h-.69l-.59-.38v-.64l-.65-.41s0 0 0 0l.65.41v.66l.62.39h.67l1.23.7h2.59l1.24-.72h.66l.64-.39v-.61l.9-.57v-1zm.28-.16v-.67l-.82-.5h-.65l-.58-.33.61.35h.67l.79.47v.68l.9.57v1.25l-.9.57v.68l-.79.47h-.7l-1.23.71h-2.77l-1.25-.71h-.69l-.77-.47v-.68l-.61-.38.59.38v.67l.82.5h.67l1.24.75h2.78l1.22-.67h.68l.82-.5v-.72l.9-.57v-1.28zm-.28.16v-.66l-.64-.39h-.66l-.89-.47.89.51h.68l.61.38v.66l.89.57v.88l-.89.57v.66l-.61.38h-.66l-1.24.7h-2.6l-1.23-.7h-.69l-.59-.38v-.64l-.65-.41s0 0 0 0l.65.41v.66l.62.39h.67l1.23.7h2.59l1.24-.72h.66l.64-.39v-.61l.9-.57v-1zm0 0v-.66l-.64-.39h-.66l-.89-.47.89.51h.68l.61.38v.66l.89.57v.88l-.89.57v.66l-.61.38h-.66l-1.24.7h-2.6l-1.23-.7h-.69l-.59-.38v-.64l-.65-.41s0 0 0 0l.65.41v.66l.62.39h.67l1.23.7h2.59l1.24-.72h.66l.64-.39v-.61l.9-.57v-1z" />
    <path d="m10.29 4.83-.42.38v.3l-.69-.44h.54l.32-.31z" fill="#d22630" />
    <path
        d="m9.87 5.54-.68-.44s0 0 0 0h.55l.26-.36.26.07s0 0 0 0l-.42.37v.29s0 0 0 0zm-.61-.45.58.38v-.28l.4-.34-.24-.06-.31.3z" />
    <path d="m12.35 4.13h-.37v-.27h-.45v-.29h.82z" fill="#d22630" />
    <path d="m12.35 4.15h-.35v-.27h-.43a0 0 0 0 1 0 0v-.31h.82v.56zm-.35-.05h.32v-.5h-.78v.23h.46a0 0 0 0 1 0 0z" />
    <path d="m12.35 4.91v1.45h-.11l-.62-.47v-.09l.1-.1.2.2h.12l.15-.15v-.19l-1.19-.73h-1v-.83l-.37-.3h-.23v-.12h1.33z"
        fill="#ffc72c" />
    <path
        d="m12.35 4.89-1.55-1.3h-2s0 0 0 0h2l1.61 1.34v1.4h-.07l-.62-.46.08-.08.19.17s0 0 0 0h.01s0 0 0 0l.15-.15v-.25s0 0 0 0l-1.15-.74h-1v-.82l-.39-.28s0 0 0 0h-.5l-.23.23v.05h.07l-.17.14-.13-.14v-.07a0 0 0 0 0 0 0l-.13-.15a.05.05 0 0 1 0 0l.14.15v.07l.15.14.19-.2s0 0 0 0h-.06l.17-.17h.52l.37.23v.83s0 0 0 0h1l1.18.72v.16l-.18.16h-.11l-.19-.19-.1.11v.1s0 0 0 0l.57.43h.05.11a0 0 0 0 0 0 0v-1.41z" />
    <path d="m12.35 5.5-1.26-.75h-.94v-.8l-.5-.38h1.37l1.33.92z" fill="#d22630" />
    <path
        d="m12.37 4.47-1.25-.85h-1.49s0 0 0 0l.46.37v.79s0 0 0 0h.93l1.25.74a0 0 0 0 0 0 0v-1s.1-.04.1-.05zm-1.37-.88 1.3.92v.94l-1.2-.72h-.92v-.79l-.45-.34z" />
    <path d="m11.65 4.01-.39.34v.3l-.69-.44h.54l.34-.34z" fill="#00843d" />
    <path
        d="m11.26 4.68-.69-.44a0 0 0 0 1 0 0h.55l.34-.33.19.14s0 0 0 0v-.05l-.39.33v.29s0 0 0 0zm-.6-.45.58.38v-.28l.37-.33-.15-.11-.33.33h-.47z" />
    <path d="m10.99 4.48-.22.22-.19-.14.21-.21z" fill="#00843d" />
    <path d="m10.77 4.72-.19-.14s0 0 0 0l.2-.21.2.13s0 0 0 0l-.22.21zm-.15-.17.15.12.23-.19-.16-.1z" />
    <path d="m11.25 4.99-.37.32v.31l-.69-.44h.54l.32-.32z" fill="#d22630" />
    <path
        d="m10.88 5.64-.69-.44a0 0 0 0 1 0 0h.53l.31-.3.21.13v-.03l-.37.32v.29s0 0 0 0zm-.61-.44.59.38v-.27l.35-.31-.16-.1-.3.3z" />
    <path d="m10.61 5.44-.22.22-.19-.14.21-.21z" fill="#d22630" />
    <path d="m10.39 5.69-.19-.14s0 0 0 0l.21-.21.2.13s0 0 0 0zm-.15-.17.15.11.18-.18-.16-.11z" />
    <path d="m9.6 5.34-.22.22-.19-.14.2-.21z" fill="#d22630" />
    <path d="m9.38 5.58-.2-.14s0 0 0 0l.21-.21a0 0 0 0 1 0 0l.2.13s0 0 0 0l-.21.21zm-.16-.17.16.12.18-.19-.16-.1z" />
    <path d="m10.01 4.44-.23.2v.31l-.69-.45h.54l.38-.36z" fill="#d22630" />
    <path
        d="m9.78 5-.69-.44a0 0 0 0 1 0 0h.53l.38-.44a0 0 0 0 1 0 0v.3s0 0 0 0l-.22.19v.39s0 0 0 0zm-.61-.44.59.38v-.3l.23-.2v-.25l-.34.33h-.48z" />
    <path d="m9.51 4.77-.22.22-.19-.14.21-.21z" fill="#d22630" />
    <path d="m9.29 5-.19-.14s0 0 0 0l.21-.2.2.13-.2.21zm-.15-.17.15.17.18-.18-.16-.11z" />
    <path d="m8.9 3.58-.13.19-.1-.13s0 0 0 0h.05.18z" fill="#fff" />
    <path d="m8.91 3.55h-.11s0 0 0 0h.1l-.11.15-.07-.11s0 0 0 0l.09.13a0 0 0 0 0 0 0s0 0 0 0l.15-.2s-.04.03-.05.03z" />
    <path d="m12.35 6.14-.21-.14.21-.14z" fill="#fff" />
    <path d="m12.35 6.16-.23-.16.22-.14s0 0 0 0v.28s0 0 0 0zm-.17-.16.15.09v-.18z" />
    <path
        d="m16.48 10.95v-.09-1.07l-.29.25v-.34l-.25.28-.25-.28v.34l-.3-.25v1.07h.32v.19h.48v.13.13h-.48v.19h-.32v1.07l.3-.25v.34l.25-.28.25.28v-.34l.29.25v-1.07-.09h.33v-.23-.23z"
        fill="#00843d" />
    <path
        d="m16.19 12.68-.23-.25-.24.25v-.29l-.26.22s0 0 0 0v-1.11s0 0 0 0h.3v-.16s0 0 0 0h.44v-.22h-.44s0 0 0 0v-.16h-.3s0 0 0 0v-1.17s0 0 0 0l.26.22v-.31l.24.25.23-.25v.3l.26-.22v1.14h.3a0 0 0 0 1 0 0v.46a0 0 0 0 1 0 0h-.3v1.14l-.26-.22v.29zm-.5-.38v.3l.21-.24.21.24v-.28l.26.22v-1.13s0 0 0 0h.31v-.41h-.31s0 0 0 0v-1.16l-.26.22a0 0 0 0 1 0 0v-.3l-.11.24-.21-.24v.24a0 0 0 0 1 0 0l-.26-.22v1h.31v.22h.45s0 0 0 0v.26s0 0 0 0h-.45v.16h-.31v1l.26-.22z" />
    <path d="m13.25 9.05.28.25v-.34l.24.28.24-.28v.34l.29-.25v1.81l-1.05-.67z" fill="#00843d" />
    <path
        d="m14.3 10.89-1-.67v-1.17a0 0 0 0 1 0 0l.25.22v-.27s0 0 0 0l.22.25.23-.25a0 0 0 0 1 0 0v.29l.28-.29a0 0 0 0 1 0 0v1.81s0 0 0 0zm-1-.71 1 .64v-1.72l-.3.22s0 0 0 0v-.32l-.2.22a0 0 0 0 1 0 0l-.24-.22v.3a0 0 0 0 1 0 0l-.25-.22z" />
    <path d="m14.3 9.43.29.25v-.34l.25.28.25-.28v.34l.3-.25v1.43h-1.09z" fill="#ffc72c" />
    <path
        d="m15.39 10.89h-1.09a0 0 0 0 1 0 0v-1.46l.26.22v-.33l.23.25.24-.25v.29l.25-.22s0 0 0 0v1.43s.12.07.11.07zm-1.07-.05h1v-1.36l-.26.22s0 0 0 0v-.3l-.21.24-.21-.24v.28l-.26-.22z" />
    <path d="m13.96 9.85v.14l-.13.13v-.36l.14-.13-.2-.2-.2.2.14.13v.36l-.13-.13v-.14l-.15.15.34.34.34-.34z"
        fill="#fff" />
    <path
        d="m13.77 10.36-.35-.36.15-.15v.15l.08.08v-.31l-.13-.13a0 0 0 0 1 0 0l.19-.2.19.2a0 0 0 0 1 0 0l-.13.13v.29l.09-.08v-.13s0 0 0 0l.15.15-.34.34zm-.3-.36.3.3.31-.3-.08-.1v.1l-.13.12s0 0 0 0v-.36l.12-.12-.16-.17-.16.17.12.12v.36a0 0 0 0 1 0 0l-.22-.12v-.1z" />
    <path d="m15.03 10.19v.14l-.13.13v-.36l.14-.14-.2-.19-.19.19.13.14v.36l-.13-.13v-.14l-.14.15.33.33.34-.33z"
        fill="#d22630" />
    <path
        d="m14.84 10.7-.34-.34s0 0 0 0l.15-.15v.13l.08.08v-.29l-.1-.13a0 0 0 0 1 0 0l.2-.2.2.2a0 0 0 0 1 0 0l-.13.13v.29l.08-.08v-.13a0 0 0 0 1 0 0l.15.15-.34.34zm-.3-.36.3.3.31-.3-.09-.1v.09l-.13.13v-.36l.07-.1-.17-.17-.16.17.12.12v.36l-.13-.13v-.09z" />
    <path d="m16.14 10.32-.12.13-.08-.12-.08.12-.13-.13s0 .43.21.43.2-.43.2-.43z" fill="#fff" />
    <path
        d="m15.94 10.77a.17.17 0 0 1 -.14-.06.63.63 0 0 1 -.09-.39 0 0 0 0 1 0 0l.1.11.07-.1.06.1.1-.11s0 0 0 0a.6.6 0 0 1 -.08.39.2.2 0 0 1 -.02.06zm-.18-.39a.48.48 0 0 0 .07.3.14.14 0 0 0 .11 0 .13.13 0 0 0 .1 0 .49.49 0 0 0 .08-.3l-.09.08-.06-.09-.06.09z" />
    <path d="m12.87 8.99v-.42l-.52.35-.52-.35v.42l-.37-.34v1.54h.89.9v-1.54z" fill="#ffc72c" />
    <path
        d="m13.25 10.22h-1.8s0 0 0 0v-1.57s0 0 0 0l.34.31v-.41l.51.34.51-.34v.37l.33-.31a0 0 0 0 1 0 0v1.56s.12.05.11.05zm-1.77-.05h1.74v-1.47l-.33.3a0 0 0 0 1 0 0v-.38l-.49.32-.49-.32v.38a0 0 0 0 1 0 0l-.33-.31z" />
    <path
        d="m12.91 9.77-.19-.2v.11l-.18.18v-.34l.25-.24-.44-.29-.43.29.25.24v.34l-.19-.18v-.11l-.19.2.27.28-.12.14h.41.41l-.12-.14z"
        fill="#d22630" />
    <path
        d="m12.76 10.22h-.82a0 0 0 0 1 0 0s0 0 0 0l.11-.13-.26-.26.21-.27v.12l.14.13v-.28l-.24-.23s0 0 0 0l.44-.3.44.29s0 0 0 0l-.24.23v.28l.14-.13v-.12l.19.19-.26.26.11.13s0 0 0 0zm-.76-.05h.72l-.09-.11a0 0 0 0 1 0 0l.26-.26-.14-.14v.04l-.19.17v-.37l.23-.21-.44-.29-.4.27.23.21v.38l-.18-.16v-.07l-.14.14.26.26a0 0 0 0 1 0 0z" />
    <path d="m12.35 9.17-.19.12.19.11.19-.11z" fill="#00843d" />
    <path d="m12.35 9.43-.19-.11s0 0 0 0l.19-.12.19.12s0 0 0 0zm-.14-.14.14.09.14-.09-.14-.09z" />
    <path d="m11.46 9.05-.29.25v-.34l-.24.28-.24-.28v.34l-.29-.25v1.81l1.06-.67z" fill="#00843d" />
    <path
        d="m10.4 10.89v-1.84a0 0 0 0 1 0 0l.25.22v-.27s0 0 0 0l.22.25.28-.25s0 0 0 0v.29l.29-.29a0 0 0 0 1 0 0v1.16l-1.05.67zm0-1.79v1.72l1-.64v-1.08l-.24.22s0 0 0 0v-.32l-.2.22a0 0 0 0 1 0 0l-.25-.22v.3s0 0 0 0z" />
    <path d="m10.4 9.43-.29.25v-.34l-.25.28-.25-.28v.34l-.3-.25v1.43h1.09z" fill="#ffc72c" />
    <path
        d="m10.4 10.89h-1.09s0 0 0 0v-1.46s0 0 0 0l.25.22v-.31l.23.25.23-.25s0 0 0 0v.29l.26-.22v1.43a0 0 0 0 1 .12.05zm-1.06-.05h1v-1.36l-.26.22v-.3l-.2.24-.25-.24v.28s0 0 0 0l-.25-.22z" />
    <path
        d="m8.51 11.05h.48v-.19h.32v-1.07l-.29.25v-.34l-.25.28-.25-.28v.34l-.3-.25v1.07.09h-.33v.23.23h.33v.09 1.07l.3-.25v.34l.25-.28.25.28v-.34l.29.25v-1.07h-.32v-.19h-.48v-.13z"
        fill="#00843d" />
    <path
        d="m8.52 12.68v-.29l-.26.22a0 0 0 0 1 0 0v-1.18h-.3v-.43h.3v-1.21a0 0 0 0 1 0 0l.26.22v-.31l.24.25.24-.26v.31l.26-.22v1.07a0 0 0 0 1 0 0h-.26v.16h-.46v.22h.46a0 0 0 0 1 0 0v.16h.3a0 0 0 0 1 0 0v1.07l-.3-.09v.29l-.23-.25-.24.25zm.25-.32.23.24v-.28l.26.22v-1h-.26s0 0 0 0v-.16h-.49s0 0 0 0v-.26s0 0 0 0h.49v-.16s0 0 0 0h.3v-1l-.3.1a0 0 0 0 1 0 0v-.3l-.22.24-.21-.24v.24a0 0 0 0 1 0 0l-.26-.22v1.22s0 0 0 0h-.3v.4h.3s0 0 0 0v1.11l.26-.22v.3l.21-.24z" />
    <path d="m10.74 9.85v.14l.13.13v-.36l-.14-.13.2-.2.2.2-.14.13v.36l.13-.13v-.14l.15.15-.34.34-.34-.34z"
        fill="#fff" />
    <path
        d="m10.93 10.36-.36-.36.15-.15v.15l.08.08v-.31l-.13-.13a0 0 0 0 1 0 0l.19-.2.19.2a0 0 0 0 1 0 0l-.05.13v.29l.08-.08v-.13l.14.15-.33.34zm-.3-.36.3.3.3-.3-.09-.1v.1l-.13.12s0 0 0 0v-.36l.12-.12-.16-.17-.16.17.12.12v.36s0 0 0 0l-.21-.12v-.1z" />
    <path d="m9.67 10.19v.14l.13.13v-.36l-.14-.14.2-.19.19.19-.13.14v.36l.13-.13v-.14l.15.15-.34.33-.34-.33z"
        fill="#d22630" />
    <path
        d="m9.86 10.7-.34-.34.15-.15a0 0 0 0 1 0 0v.13l.09.08v-.29l-.11-.13a0 0 0 0 1 0 0l.19-.2.19.2a0 0 0 0 1 0 0l-.13.13v.29l.08-.08v-.13l.15.15s0 0 0 0l-.33.34zm-.31-.36.31.3.3-.3-.09-.1v.09l-.13.13v-.36l.06-.1-.14-.2-.16.2.12.12v.38l-.13-.13v-.09z" />
    <path d="m8.56 10.32.12.13.09-.12.08.12.15-.13s0 .43-.2.43-.24-.43-.24-.43z" fill="#fff" />
    <path
        d="m8.77 10.77a.17.17 0 0 1 -.14-.06.63.63 0 0 1 -.09-.39s0 0 0 0l.1.11.07-.1.06.1.23-.13s0 0 0 0a.6.6 0 0 1 -.08.39.2.2 0 0 1 -.15.08zm-.19-.39a.49.49 0 0 0 .08.3.14.14 0 0 0 .11 0 .13.13 0 0 0 .1 0 .49.49 0 0 0 .08-.3l-.09.08-.06-.09-.07.09z" />
    <path d="m13.25 13.31.28-.25v.34l.24-.28.24.28v-.34l.29.25v-1.81l-1.05.67z" fill="#00843d" />
    <path
        d="m14 13.42-.22-.25-.22.25s0 0 0 0v-.29l-.25.22v-1.2l1-.67s0 0 0 0v1.83l-.31-.2v.29zm-.24-.32.2.22v-.27s0 0 0 0l.24.22v-1.73l-1 .64v1.08l.25-.22a0 0 0 0 1 0 0v.27l.19-.22z" />
    <path d="m14.3 12.93.29-.25v.34l.25-.28.25.28v-.34l.3.25v-1.43h-1.09z" fill="#ffc72c" />
    <path
        d="m15.09 13-.24-.25-.23.25v-.31l-.26.22v-1.41a0 0 0 0 1 0 0h1.09s0 0 0 0v1.43s0 0 0 0l-.25-.22v.29zm-.25-.32.21.24v-.28s0 0 0 0l.26.22v-1.34h-1v1.36l.26-.22v.34l.21-.24z" />
    <path d="m13.96 12.51v-.14l-.13-.13v.36l.14.13-.2.2-.2-.2.14-.13v-.36l-.13.13v.14l-.15-.15.34-.33.34.33z"
        fill="#fff" />
    <path
        d="m13.77 13-.19-.2a0 0 0 0 1 0 0l.13-.13v-.37l-.08.08v.13l-.15-.15.33-.34.34.34-.15.15s0 0 0 0v-.13l-.09-.08v.29l.13.13a0 0 0 0 1 0 0l-.19.2zm-.16-.22.16.17.16-.17-.12-.12v-.36s0 0 0 0l.13.12v.1l.1-.09-.31-.3-.3.3.09.09v-.1l.13-.12v.36z" />
    <path d="m15.03 12.17v-.14l-.13-.13v.36l.14.13-.2.2-.19-.2.13-.13v-.36l-.13.13v.14l-.14-.15.33-.33.34.33z"
        fill="#d22630" />
    <path
        d="m14.84 12.61-.2-.2a0 0 0 0 1 0 0l.13-.13v-.28l-.08.08v.13l-.2-.21s0 0 0 0l.34-.34.34.34-.15.15a0 0 0 0 1 0 0v-.15h-.09v.29l.13.13a0 0 0 0 1 0 0l-.2.2zm-.16-.22.16.17.17-.17-.12-.12v-.38l.13.13v.09l.09-.1-.31-.3-.3.3.09.1v-.11l.13-.13v.36z" />
    <path d="m16.14 12-.14-.09-.08.12-.08-.12-.13.13s0-.43.21-.43.22.39.22.39z" fill="#fff" />
    <path
        d="m16.14 12.06-.14-.06-.06.1-.07-.1-.1.11a0 0 0 0 1 0 0 .63.63 0 0 1 .09-.39.17.17 0 0 1 .14-.06.2.2 0 0 1 .14.06.6.6 0 0 1 .08.39 0 0 0 0 1 0 0zm-.28-.17.06.09.08-.08.09.08a.49.49 0 0 0 -.08-.3.13.13 0 0 0 -.1 0 .14.14 0 0 0 -.11 0 .48.48 0 0 0 -.07.3l.08-.08z" />
    <path d="m12.87 13.37v.42l-.52-.35-.52.35v-.42l-.37.34v-1.54h.89.9v1.54z" fill="#ffc72c" />
    <path
        d="m12.87 13.81-.51-.34-.51.34a0 0 0 0 1 0 0v-.37l-.34.31v-1.58s0 0 0 0h1.8s0 0 0 0v1.56l-.33-.31v.37zm-.52-.39.49.32v-.37a0 0 0 0 1 0 0l.33.31v-1.49h-1.69v1.47l.33-.31a0 0 0 0 1 0 0v.37l.49-.32z" />
    <path
        d="m12.91 12.59-.19.2v-.11l-.18-.18v.34l.25.24-.44.29-.43-.29.25-.24v-.34l-.19.18v.11l-.19-.2.27-.28-.12-.14h.41.41l-.12.14z"
        fill="#d22630" />
    <path
        d="m12.35 13.4-.44-.29s0 0 0 0l.24-.23v-.27l-.14.13v.1s0 0 0 0l-.19-.19.26-.26-.11-.13s0 0 0 0h.82l-.11.13.26.26-.19.19s0 0 0 0v-.1l-.14-.13v.27l.24.23s0 0 0 0l-.44.29zm-.4-.33.4.27.4-.27-.23-.22v-.35l.19.17v.07l.14-.14-.26-.26a0 0 0 0 1 0 0l.09-.11h-.68l.09.11a0 0 0 0 1 0 0l-.26.26.14.14v-.07l.19-.17v.36z" />
    <path d="m12.35 13.19-.19-.12.19-.11.19.11z" fill="#00843d" />
    <path d="m12.35 13.21-.19-.12s0 0 0 0l.19-.11.19.11s0 0 0 0zm-.14-.14.14.09.14-.09-.14-.07z" />
    <path d="m11.46 13.31-.29-.25v.34l-.24-.28-.24.28v-.34l-.29.25v-1.81l1.06.67z" fill="#00843d" />
    <path
        d="m11.17 13.42-.22-.25-.22.25s0 0 0 0v-.29l-.25.22v-1.87l1.05.67v1.16l-.25-.22v.29s0 0 0 0zm-.24-.32.2.22v-.27s0 0 0 0l.24.22v-1.09l-1-.64v1.72l.24-.22s0 0 0 0v.27l.2-.22z" />
    <path d="m10.4 12.93-.29-.25v.34l-.25-.28-.25.28v-.34l-.3.25v-1.43h1.09z" fill="#ffc72c" />
    <path
        d="m10.11 13-.23-.25-.25.25v-.29l-.3.29s0 0 0 0v-1.5s0 0 0 0h1.07a0 0 0 0 1 0 0v1.43l-.26-.22v.29s0 0 0 0zm-.25-.32.2.24v-.28l.26.22v-1.34h-1v1.36l.25-.22s0 0 0 0v.34l.21-.24z" />
    <path d="m10.74 12.51v-.14l.13-.13v.36l-.14.13.2.2.2-.2-.14-.13v-.36l.13.13v.14l.15-.15-.34-.33-.34.33z"
        fill="#fff" />
    <path
        d="m10.93 13-.19-.2a0 0 0 0 1 0 0l.13-.13v-.37l-.08.08v.13l-.15-.15.34-.34.33.34-.14.15v-.13l-.17-.08v.29l.13.13a0 0 0 0 1 0 0l-.13.28zm-.16-.22.16.17.16-.17-.09-.17v-.36s0 0 0 0l.13.12v.1l.09-.09-.3-.3-.3.3.09.09v-.1l.13-.12s0 0 0 0v.36z" />
    <path d="m9.67 12.17v-.14l.13-.13v.36l-.14.13.2.2.19-.2-.13-.13v-.36l.13.13v.14l.15-.15-.34-.33-.34.33z"
        fill="#d22630" />
    <path
        d="m9.86 12.61-.19-.2a0 0 0 0 1 0 0l.13-.13v-.28h-.11v.13a0 0 0 0 1 0 0l-.19-.13.34-.34.33.34s0 0 0 0l-.15.15v-.15h-.08v.29l.13.13a0 0 0 0 1 0 0l-.19.2zm-.16-.22.16.17.16-.17-.12-.12v-.37l.13.13v.09l.09-.1-.3-.3-.31.3.1.1v-.12l.13-.13v.38z" />
    <path d="m8.56 12 .12-.13.09.12.08-.12.15.13s0-.43-.2-.43-.24.43-.24.43z" fill="#fff" />
    <path
        d="m8.56 12.06a0 0 0 0 1 0 0 .63.63 0 0 1 .09-.39.17.17 0 0 1 .14-.06.2.2 0 0 1 .14.06.6.6 0 0 1 .07.33 0 0 0 0 1 0 0h-.15l-.06.1-.11-.1-.1.11zm.12-.17.07.09.06-.09.19.11a.49.49 0 0 0 -.08-.3.13.13 0 0 0 -.1 0 .14.14 0 0 0 -.11 0 .49.49 0 0 0 -.08.3l.09-.08z" />
    <path
        d="m13.64 10.85-.37-.3-.21.19.12.1.11-.09.1.08-.31.24-.57-.42.3-.24h-.28l-.18.14-.2-.14h-.26l.31.23-.58.43-.3-.24.09-.08.11.09.12-.1-.2-.19-.38.3.42.33-.42.33.38.3.2-.19-.12-.1-.11.09-.09-.08.3-.24.58.43-.31.23h.26l.2-.14.18.14h.28l-.3-.24.57-.42.31.24-.1.08-.11-.09-.12.1.21.19.37-.3-.42-.33zm-1.29.76-.57-.43.57-.43.57.43z"
        fill="#ffc72c" />
    <path
        d="m12.81 12h-.29l-.17-.13-.18.13h-.28s0 0 0 0l.29-.21-.54-.4-.27.21.06.05.09-.08.12.1s0 0 0 0l-.21.19-.37-.3s0 0 0 0l.4-.31-.4-.31s0 0 0 0l.37-.3.21.19s0 0 0 0l-.12.1-.09-.08-.06.05.27.21.54-.4-.29-.21s0 0 0 0h.28l.18.13.17-.13h.29a0 0 0 0 1 0 0l-.28.22.53.39.27-.21-.06-.05-.09.08-.12-.1s0 0 0 0l.2-.19.37.3s0 0 0 0l-.39.31.39.31s0 0 0 0l-.37.3-.2-.19a0 0 0 0 1 0 0s0 0 0 0l.12-.1.09.08.06-.05-.27-.21-.53.39.28.22a0 0 0 0 1 0 0zm-.27-.05h.2l-.25-.2.58-.42.3.24s0 0 0 0l-.09.08-.09-.08-.08.07.17.16.33-.27-.4-.31.4-.31-.33-.27-.17.16.08.07.09-.08.09.08s0 0 0 0l-.3.24-.58-.43.25-.2h-.2l-.17.14-.2-.14h-.17l.26.19s0 0 0 0l-.59.43-.3-.24s0 0 0 0l.1-.08.09.08.08-.07-.17-.16-.33.27.4.31-.4.31.33.27.17-.16-.08-.07-.09.08-.1-.08s0 0 0 0l.3-.24.59.43-.26.19h.18l.2-.14zm-.19-.3-.58-.43.58-.43.57.43zm-.53-.45.53.4.53-.4-.53-.4z" />
    <path d="m12.11 11.18.24.17.24-.17-.24-.17z" fill="#00843d" />
    <path d="m12.35 11.38a0 0 0 0 1 0 0l-.25-.17.25-.17.25.17-.25.17s.01 0 0 0zm-.2-.2.2.14.2-.14-.2-.14z" />
    <path d="m13.47 11.18.24.17.24-.17-.24-.17z" fill="#00843d" />
    <path d="m13.71 11.38s0 0 0 0l-.25-.17.24-.21.25.17-.25.17a0 0 0 0 1 .01.04zm-.2-.2.2.14.2-.14-.2-.14z" />
    <path d="m11.23 11.18-.24.17-.24-.17.24-.17z" fill="#00843d" />
    <path d="m11 11.38a0 0 0 0 1 0 0l-.24-.17.24-.21.24.17-.24.17zm-.2-.2.2.14.2-.14-.2-.18z" />
    <path
        d="m13.18 12.09h-1.67l-1-.61s0 0 0 0v-.06h-1a0 0 0 0 1 0 0v-.42h1v-.08l1-.61h1.68l1 .61v.08h1v.38s0 0 0 0h-1v.06s0 0 0 0l-1 .61zm-1.65-.09h1.64l.95-.61v-.06a0 0 0 0 1 0 0h1v-.33h-1a0 0 0 0 1 0 0v-.07l-.95-.6h-1.64l-.95.6v.07s0 0 0 0h-1v.32h1s0 0 0 0v.06z" />
    <path
        d="m16.51 9.88h-.05v-.15h-1.09v-.36h-1.1v-.38h-1.05v-.39h-1.74v.39h-1.05v.38h-1.09v.36h-1.1v.15h-.04v-.2h1.09v-.36h1.09v-.38h1.05v-.39h1.84v.39h1.05v.38h1.09v.36h1.1z" />
    <path
        d="m13.27 13.81h-1.84v-.39h-1.05v-.38h-1.09v-.36h-1.09v-.21h.04v.16h1.1v.36h1.09v.38h1.05v.39h1.74v-.39h1.05v-.38h1.1v-.36h1.09v-.16h.05v.21h-1.1v.36h-1.09v.38h-1.05z" />
    <path
        d="m16.81 11s0 0 0 0v-1.55h-1.09s0 0 0 0v-.39h-1.1a0 0 0 0 1 0 0v-.41h-1s0 0 0 0v-.38h-2.44v.36h-1.08v.37a0 0 0 0 1 0 0h-1.1v.37h-1.08v1.63a0 0 0 0 1 0 0s0 0 0 0v-1.57h1.08v-.43a0 0 0 0 1 0 0h1.06v-.37s0 0 0 0h1.05v-.39s0 0 0 0h2.39v.37h1s0 0 0 0v.39h1.07s0 0 0 0v.37h1.07a0 0 0 0 1 0 0v1.63s.18 0 .17 0z" />
    <path
        d="m13.55 14.14h-2.39s0 0 0 0v-.37h-1.08v-.38h-1.08a0 0 0 0 1 0 0v-.39h-1.11v-1.59s0 0 0 0a0 0 0 0 1 0 0v1.5h1.11v.37h1.07v.39h1.06v.36h2.34v-.36s0 0 0 0h1v-.39h1.07v-.37s0 0 0 0h1.07v-1.5s0 0 0 0v1.52a0 0 0 0 1 0 0h-.87v.37s0 0 0 0h-1.09v.38s0 0 0 0h-1v.37a0 0 0 0 1 -.1.09z" />
    <path d="m11.01 36.39-2.78-1.52v-2.5l2.78-1.53h2.68l2.78 1.53v2.5l-2.78 1.52z" fill="#00843d" />
    <path
        d="m13.69 36.42h-2.69l-2.78-1.53s0 0 0 0v-2.5a0 0 0 0 1 0 0l2.78-1.57h2.7l2.78 1.52v2.5a0 0 0 0 1 0 0l-2.78 1.57zm-2.69-.05h2.67l2.76-1.51v-2.48l-2.76-1.51h-2.67l-2.75 1.51v2.48z" />
    <path d="m12.35 18.03v.76h1.09v-.24h-.33v-.24h-.29v-.28z" fill="#fff" />
    <path
        d="m13.44 18.81h-1.09a0 0 0 0 1 0 0v-.81a0 0 0 0 1 0 0h.47a0 0 0 0 1 0 0v.25h.27s0 0 0 0v.21h.31s0 0 0 0v.24a0 0 0 0 1 .04.11zm-1.07 0h1.05v-.19h-.31s0 0 0 0v-.22h-.26a0 0 0 0 1 0 0v-.25h-.43z" />
    <path d="m12.35 18.34.42.25v.2h-.42z" fill="#d22630" />
    <path
        d="m12.77 18.81h-.42a0 0 0 0 1 0 0v-.44a0 0 0 0 1 0 0l.42.25s0 0 0 0v.2a0 0 0 0 1 0-.01zm-.4 0h.38v-.15l-.38-.22z" />
    <path d="m12.35 18.03v.76h-1.09v-.24h.33v-.24h.29v-.28z" fill="#ffc72c" />
    <path
        d="m12.35 18.81h-1.09a0 0 0 0 1 0 0v-.24s0 0 0 0h.31v-.21s0 0 0 0h.27v-.36a0 0 0 0 1 0 0h.47a0 0 0 0 1 0 0v.76a0 0 0 0 1 .04.05zm-1.07 0h1.05v-.7h-.43v.25a0 0 0 0 1 0 0h-.26v.22s0 0 0 0h-.31z" />
    <path d="m12.35 18.34-.42.25v.2h.42z" fill="#00843d" />
    <path
        d="m12.35 18.81h-.42a0 0 0 0 1 0 0v-.2s0 0 0 0l.42-.25a0 0 0 0 1 0 0v.44a0 0 0 0 1 0 .01zm-.39 0h.37v-.37l-.37.22z" />
    <path d="m12.35 19.54v-.75h1.09v.23h-.33v.25h-.29v.27z" fill="#ffc72c" />
    <path
        d="m12.82 19.56h-.47a0 0 0 0 1 0 0v-.75s0 0 0 0h1.09s0 0 0 0v.19s0 0 0 0h-.31v.21s0 0 0 0h-.27v.25a0 0 0 0 1 -.04.1zm-.45 0h.43v-.26a0 0 0 0 1 0 0h.26v-.3s0 0 0 0h.31v-.19h-1z" />
    <path d="m12.35 19.23.42-.25v-.19h-.42z" fill="#00843d" />
    <path d="m12.35 19.25v-.46s0 0 0 0h.42s0 0 0 0v.21zm0-.44v.37l.38-.22v-.15z" />
    <path d="m12.35 19.54v-.75h-1.09v.23h.33v.25h.29v.27z" fill="#fff" />
    <path
        d="m12.35 19.56h-.47a0 0 0 0 1 0 0v-.25h-.27s0 0 0 0v-.21h-.31s0 0 0 0v-.23s0 0 0 0h1.09s0 0 0 0v.75a0 0 0 0 1 -.04-.06zm-.45 0h.43v-.71h-1.05v.15h.31s0 0 0 0v.22h.26a0 0 0 0 1 0 0z" />
    <path d="m12.35 19.23-.42-.25v-.19h.42z" fill="#d22630" />
    <path d="m12.35 19.25-.43-.25v-.21s0 0 0 0h.42s0 0 0 0v.46zm-.35-.25.37.22v-.37h-.37z" />
    <path d="m12.58 16.08.2-.2-.2-.18-.23.23-.23-.23-.19.18.19.2-.23.24h.3l.16-.18.16.18h.3z" fill="#00843d" />
    <path
        d="m12.82 16.34h-.33l-.14-.15-.14.15h-.32a0 0 0 0 1 0 0l.21-.22-.17-.18a0 0 0 0 1 0 0l.19-.19.22.22.22-.22.19.19a0 0 0 0 1 0 0l-.17.18.21.22a0 0 0 0 1 0 0s.04 0 .03 0zm-.3-.05h.24l-.19-.2s0 0 0 0l.17-.18-.16-.15-.21.22a0 0 0 0 1 0 0l-.21-.22-.16.15.17.18s0 0 0 0l-.19.2h.24l.15-.16z" />
    <path d="m12.35 31.82v-.74h1.28l2.6 1.43v1.11h-3.88z" fill="#fff" />
    <path
        d="m16.23 33.64h-3.88a0 0 0 0 1 0 0v-2.56a0 0 0 0 1 0 0h1.29l2.61 1.43v1.13s0 0-.02 0zm-3.86 0h3.84v-1.12l-2.59-1.41h-1.25z" />
    <path d="m12.35 31.82v-.74h-1.28l-2.6 1.43v1.11h3.88z" fill="#ffc72c" />
    <path
        d="m12.35 33.64h-3.88s0 0 0 0v-1.13l2.6-1.43h1.29a0 0 0 0 1 0 0v2.54a0 0 0 0 1 -.01.02zm-3.86 0h3.84v-2.53h-1.25l-2.59 1.41z" />
    <path d="m12.35 35.42v.74h1.28l2.6-1.43v-1.11h-3.88z" fill="#ffc72c" />
    <path
        d="m13.63 36.18h-1.28a0 0 0 0 1 0 0v-2.56h3.88s0 0 0 0v1.11a0 0 0 0 1 0 0l-2.61 1.43zm-1.26 0h1.25l2.59-1.41v-1.13h-3.84z" />
    <path d="m12.35 35.42v.74h-1.28l-2.6-1.43v-1.11h3.88z" fill="#fff" />
    <path
        d="m12.35 36.18h-1.29l-2.6-1.43a0 0 0 0 1 0 0v-1.13s0 0 0 0h3.88v2.54a0 0 0 0 1 .01.02zm-1.27 0h1.25v-2.54h-3.84v1.08z" />
    <path d="m13.65 16.08.2-.2-.19-.18-.24.23-.23-.23-.19.18.19.2-.23.24h.3l.16-.18.16.18h.31z" fill="#00843d" />
    <path
        d="m13.89 16.34h-.31a0 0 0 0 1 0 0l-.15-.15-.14.15h-.29a0 0 0 0 1 0 0s0 0 0 0l.22-.22-.22-.22.19-.19.21.22.22-.22.19.19a0 0 0 0 1 0 0l-.17.18.21.22a0 0 0 0 1 0 0 0 0 0 0 1 .04.04zm-.3-.05h.24l-.19-.2s0 0 0 0l.17-.18-.15-.15-.22.22a0 0 0 0 1 0 0l-.22-.22-.16.15.18.18s0 0 0 0l-.2.2h.24l.16-.16z" />
    <path d="m11.05 16.08-.2-.2.2-.18.23.23.23-.23.19.18-.19.2.23.24h-.3l-.16-.18-.16.18h-.31z" fill="#00843d" />
    <path
        d="m11.74 16.34h-.32l-.14-.15-.14.15h-.33a0 0 0 0 1 0 0l.21-.22-.17-.18a0 0 0 0 1 0 0l.19-.19.22.22.22-.22.19.19a0 0 0 0 1 0 0l-.17.18.21.22a0 0 0 0 1 0 0zm-.29-.05h.24l-.2-.2.18-.18-.16-.15-.21.24a0 0 0 0 1 0 0l-.21-.22-.16.15.17.18s0 0 0 0l-.19.2h.24l.15-.16z" />
    <path d="m12.58 21.49.2.2-.2.18-.23-.23-.23.23-.19-.18.19-.2-.23-.24h.3l.16.18.16-.18h.3z" fill="#00843d" />
    <path
        d="m12.12 21.9-.19-.18s0 0 0 0l.17-.18-.21-.22s0 0 0 0h.32l.14.15.14-.15h.33s0 0 0 0l-.21.22.17.18s0 0 0 0l-.19.18-.22-.22-.22.22zm.23-.28.21.22.16-.15-.17-.18a0 0 0 0 1 0 0l.19-.2h-.24l-.15.16-.15-.16h-.24l.19.2a0 0 0 0 1 0 0l-.17.18.16.15z" />
    <path d="m13.65 21.49.2.2-.19.18-.24-.23-.23.23-.19-.18.19-.2-.23-.24h.3l.16.18.16-.18h.31z" fill="#00843d" />
    <path
        d="m13.66 21.9-.22-.22-.21.22-.23-.19s0 0 0 0l.18-.18-.22-.22s0 0 0 0a0 0 0 0 1 0 0h.32l.14.15.15-.15h.32a0 0 0 0 1 0 0s0 0 0 0l-.21.22.17.18s0 0 0 0l-.19.18zm-.66-.21.16.15.22-.22.22.22.15-.15-.17-.18a0 0 0 0 1 0 0l.19-.2h-.24l-.15.16-.16-.16h-.22l.2.2a0 0 0 0 1 0 0z" />
    <path d="m11.05 21.49-.2.2.2.18.23-.23.23.23.19-.18-.19-.2.23-.24h-.3l-.16.18-.16-.18h-.31z" fill="#00843d" />
    <path
        d="m11.05 21.9-.19-.18s0 0 0 0l.17-.18-.21-.22s0 0 0 0h.33l.14.15.14-.15h.32s0 0 0 0l-.21.22.17.18s0 0 0 0l-.19.18-.22-.22-.22.22zm.23-.28.21.22.16-.15-.18-.18.2-.2h-.24l-.15.16-.15-.16h-.24l.19.2a0 0 0 0 1 0 0l-.17.18.16.15z" />
    <path
        d="m12.54 17.35.27-.28h-.92l.28.28a.75.75 0 0 0 -.15.13.17.17 0 0 0 0 .12c.14.3.33 0 .33 0s.2.3.33 0a.13.13 0 0 0 0-.12.76.76 0 0 0 -.14-.13z"
        fill="#00843d" />
    <path
        d="m12.54 17.76a.27.27 0 0 1 -.19-.12.29.29 0 0 1 -.19.12c-.07 0-.12-.06-.16-.15a.17.17 0 0 1 0-.14.77.77 0 0 1 .13-.12l-.26-.26h1s0 0 0 0l-.26.26a.87.87 0 0 1 .14.12.33.33 0 0 1 0 .14c-.05.09-.1.14-.16.15zm-.54-.66.23.24s0 0 0 0-.13.1-.14.13a.14.14 0 0 0 0 .09.18.18 0 0 0 .12.12c.07 0 .15-.09.17-.13s.1.13.17.13a.18.18 0 0 0 .12-.12.14.14 0 0 0 0-.09s-.09-.09-.14-.13 0 0 0 0l.23-.24z" />
    <path d="m12.35 17.07h-.17l.17.21.17-.21z" fill="#fff" />
    <path d="m12.35 17.31-.17-.21a0 0 0 0 1 0 0h.39a0 0 0 0 1 0 0l-.17.21zm-.12-.21.12.14.12-.14z" />
    <path
        d="m13.43 17.35.27-.28h-.92l.28.28a.75.75 0 0 0 -.15.13.17.17 0 0 0 0 .12c.14.3.33 0 .33 0s.2.3.33 0a.13.13 0 0 0 0-.12.76.76 0 0 0 -.14-.13z"
        fill="#00843d" />
    <path
        d="m13.43 17.76a.27.27 0 0 1 -.19-.12.29.29 0 0 1 -.19.12c-.07 0-.12-.06-.16-.15a.17.17 0 0 1 0-.14.77.77 0 0 1 .13-.12l-.26-.26h1s0 0 0 0l-.26.26a.87.87 0 0 1 .14.12.33.33 0 0 1 0 .14c0 .09-.1.14-.16.15zm-.59-.66.23.24s0 0 0 0c-.05 0-.13.1-.14.13a.14.14 0 0 0 0 .09.18.18 0 0 0 .12.12c.07 0 .15-.09.17-.13s.1.13.17.13a.18.18 0 0 0 .12-.12.14.14 0 0 0 0-.09s-.09-.09-.14-.13 0 0 0 0l.23-.24z" />
    <path d="m13.24 17.07h-.17l.17.21.17-.21z" fill="#fff" />
    <path d="m13.24 17.31-.17-.21a0 0 0 0 1 0 0h.39a0 0 0 0 1 0 0l-.17.21zm-.12-.21.12.14.12-.14z" />
    <path
        d="m14.37 18.93.26.22v-.73l-.26.22a.81.81 0 0 0 -.13-.12h-.1c-.28.11 0 .27 0 .27s-.28.15 0 .26h.1a.81.81 0 0 0 .13-.12z"
        fill="#00843d" />
    <path
        d="m14.63 19.17-.24-.2a.63.63 0 0 1 -.12.11h-.12c-.15-.08-.15-.08-.15-.14a.19.19 0 0 1 .1-.15.23.23 0 0 1 -.1-.16c0-.05 0-.09.14-.13a.24.24 0 0 1 .12 0 .63.63 0 0 1 .12.11l.24-.2s0 0 0 0v.72s0 0 0 0zm-.26-.26.22.19v-.62l-.22.18a.4.4 0 0 0 -.12-.11.11.11 0 0 0 -.08 0c-.05 0-.11.05-.11.09s.08.11.11.12a0 0 0 0 1 0 0s-.12.07-.11.12.06.08.11.1h.08l.12-.11a0 0 0 0 1 0 0z" />
    <path d="m14.63 18.79v-.14l-.17.14.17.13z" fill="#fff" />
    <path d="m14.63 18.94-.16-.14a0 0 0 0 1 0 0s0 0 0 0l.16-.14v.31zm-.13-.15.1.08v-.17z" />
    <path
        d="m14.37 18.22.26.22v-.72l-.26.21a.88.88 0 0 0 -.13-.11.17.17 0 0 0 -.1 0c-.28.11 0 .26 0 .26s-.28.15 0 .26a.17.17 0 0 0 .1 0 .81.81 0 0 0 .13-.12z"
        fill="#00843d" />
    <path
        d="m14.63 18.46-.24-.2s-.08.09-.12.1a.17.17 0 0 1 -.12 0c-.09 0-.14-.08-.14-.13a.21.21 0 0 1 .1-.15.23.23 0 0 1 -.1-.15c0-.06 0-.1.14-.13a.13.13 0 0 1 .12 0s.09.07.12.1l.24-.2zm-.26-.26a0 0 0 0 1 0 0l.22.18v-.62l-.22.18s0 0 0 0a.4.4 0 0 0 -.12-.11.11.11 0 0 0 -.08 0c-.05 0-.11.05-.11.09s.08.11.11.13 0 0 0 0-.12.08-.11.13.06.07.11.09h.08a.4.4 0 0 0 .12-.11 0 0 0 0 1 0 0z" />
    <path d="m14.63 18.08v-.14l-.17.14.17.13z" fill="#fff" />
    <path d="m14.63 18.24-.16-.13s0 0 0 0l.16-.13s0 0 0 0v.3zm-.13-.16.1.08v-.16z" />
    <path
        d="m14.37 19.35.26-.22v.72l-.26-.21s-.09.1-.13.11a.17.17 0 0 1 -.1 0c-.28-.11 0-.26 0-.26s-.28-.15 0-.26a.17.17 0 0 1 .1 0 .81.81 0 0 1 .13.12z"
        fill="#00843d" />
    <path
        d="m14.63 19.88-.24-.2a.63.63 0 0 1 -.12.11h-.12c-.09 0-.14-.08-.14-.14a.23.23 0 0 1 .1-.15.21.21 0 0 1 -.1-.15c0-.05 0-.1.14-.13a.17.17 0 0 1 .12 0s.09.07.12.1l.24-.2zm-.26-.27.22.18v-.62l-.22.18s0 0 0 0a0 0 0 0 1 0 0 .6.6 0 0 0 -.12-.11.11.11 0 0 0 -.08 0c-.05 0-.11.05-.11.09s.08.11.11.13 0 0 0 0-.12.08-.11.13.06.07.11.09h.08a.4.4 0 0 0 .12-.11z" />
    <path d="m14.63 19.49v.14l-.17-.14.17-.13z" fill="#fff" />
    <path d="m14.63 19.65-.16-.14s0 0 0 0l.16-.13s0 0 0 0v.27a0 0 0 0 1 0 0zm-.13-.16.1.09v-.17z" />
    <path
        d="m10.34 18.93-.26.22v-.73l.26.22a.66.66 0 0 1 .12-.12h.1c.28.11 0 .27 0 .27s.28.15 0 .26h-.1a.66.66 0 0 1 -.12-.12z"
        fill="#00843d" />
    <path
        d="m10.08 19.17s0 0 0 0v-.72l.24.2a.63.63 0 0 1 .12-.11.24.24 0 0 1 .12 0c.09 0 .14.08.14.13s-.06.13-.1.16.11.08.1.15-.05.09-.14.13h-.12a.63.63 0 0 1 -.12-.11l-.24.2a0 0 0 0 1 0-.03zm0-.69v.62l.22-.19a0 0 0 0 1 0 0l.12.11h.08s.11-.05.11-.1-.08-.11-.11-.12a0 0 0 0 1 0 0s.12-.07.11-.12-.06-.08-.11-.09a.11.11 0 0 0 -.08 0 .4.4 0 0 0 -.12.11z" />
    <path d="m10.08 18.79v-.14l.16.14-.16.13z" fill="#fff" />
    <path d="m10.08 18.94a0 0 0 0 1 0 0v-.27a0 0 0 0 1 0 0l.16.14s0 0 0 0a0 0 0 0 1 0 0l-.16.14zm0-.24v.17l.1-.08z" />
    <path
        d="m16.91 18.79s.29-.16 0-.27h-.11l-.24.12-.52-.31v.22l.33.24-.33.23v.22l.52-.31.24.12h.11c.29-.11 0-.26 0-.26z"
        fill="#00843d" />
    <path
        d="m16.05 19.27a0 0 0 0 1 0 0v-.27l.31-.21-.36-.22v-.26l.51.3.23-.11a.24.24 0 0 1 .12 0c.09 0 .14.08.14.13s-.06.13-.1.16.11.08.1.15 0 .09-.14.13h-.06l-.23-.07-.51.3zm0-.24v.17l.49-.29.24.12h.09c.05 0 .1-.05.11-.1s-.09-.11-.12-.12.12-.07.12-.12a.15.15 0 0 0 -.11-.09.14.14 0 0 0 -.09 0l-.24.11a0 0 0 0 1 0 0l-.49-.29v.17l.32.23s0 0 0 0a0 0 0 0 1 0 0z" />
    <path
        d="m16.91 17.84s.29-.16 0-.27a.4.4 0 0 0 -.11 0l-.24.12-.52-.31v.22l.33.24-.33.23v.22l.52-.31.24.12h.11c.29-.1 0-.26 0-.26z"
        fill="#00843d" />
    <path
        d="m16.05 18.32s0 0 0 0v-.22a0 0 0 0 1 0 0l.31-.21-.36-.27v-.26l.51.3.23-.11a.24.24 0 0 1 .12 0c.09 0 .14.08.14.13s-.06.13-.1.16.11.08.1.15 0 .09-.14.13h-.06l-.23-.12-.51.3zm0-.24v.17l.49-.29.24.12h.09c.05 0 .1 0 .11-.1s-.09-.11-.12-.12a0 0 0 0 1 0 0s.12-.08.12-.13-.06-.07-.11-.09a.14.14 0 0 0 -.09 0l-.24.11-.49-.29v.17l.32.23s0 0 0 0a0 0 0 0 1 0 0z" />
    <path
        d="m16.91 19.74s.29.15 0 .26a.2.2 0 0 1 -.11 0l-.24-.12-.52.31v-.19l.33-.23-.33-.24v-.22l.52.31.24-.12h.11c.29.08 0 .24 0 .24z"
        fill="#00843d" />
    <path
        d="m16.05 20.22v-.22l.31-.21-.36-.27a0 0 0 0 1 0 0v-.22a0 0 0 0 1 0 0l.51.3.23-.11h.12c.09 0 .14.08.14.13s-.06.13-.1.16.11.08.1.15 0 .09-.14.13a.24.24 0 0 1 -.12 0l-.23-.11-.51.3zm0-.24v.17l.49-.29.24.12h.09a.15.15 0 0 0 .11-.09c0-.05-.09-.11-.12-.12a0 0 0 0 0 0 0s.12-.07.12-.12a.15.15 0 0 0 -.11-.09.14.14 0 0 0 -.09 0l-.24.11-.49-.29v.17l.32.23s0 0 0 0a0 0 0 0 1 0 0z" />
    <path
        d="m7.79 18.79s-.28-.16 0-.27h.1l.24.12.53-.31v.22l-.34.24.34.23v.22l-.53-.31-.24.12h-.1c-.28-.11 0-.26 0-.26z"
        fill="#00843d" />
    <path
        d="m8.66 19.27-.53-.27-.23.11h-.12c-.09 0-.14-.08-.14-.13s.06-.13.1-.15-.11-.09-.1-.16.05-.09.14-.13a.24.24 0 0 1 .12 0l.23.11.51-.3s0 0 0 0v.22s0 0 0 0l-.3.22.3.21s0 0 0 0v.22s0 0 0 0zm-.53-.36.49.29v-.2l-.32-.22a0 0 0 0 1 0 0s0 0 0 0l.32-.23v-.17l-.49.29a0 0 0 0 1 0 0l-.24-.11a.11.11 0 0 0 -.08 0s-.11.05-.11.09.08.11.11.12a0 0 0 0 1 0 0s-.12.07-.11.12.06.08.11.1h.08l.24-.12z" />
    <path
        d="m7.79 17.84s-.28-.16 0-.27a.34.34 0 0 1 .1 0l.24.12.53-.31v.22l-.34.24.34.23v.22l-.53-.29-.24.12h-.1c-.28-.12 0-.28 0-.28z"
        fill="#00843d" />
    <path
        d="m8.66 18.32-.53-.32-.23.11h-.12c-.09 0-.14-.08-.14-.13s.06-.12.1-.15-.11-.09-.1-.16.05-.09.14-.13a.24.24 0 0 1 .12 0l.23.11.51-.3s0 0 0 0v.22s0 0 0 0l-.3.22.3.21s0 0 0 0v.22a0 0 0 0 1 0 0zm-.53-.32.49.29v-.17l-.32-.22a0 0 0 0 1 0 0s0 0 0 0l.32-.23v-.17l-.49.29-.24-.11a.11.11 0 0 0 -.08 0s-.11 0-.11.09.08.11.11.13 0 0 0 0a0 0 0 0 1 0 0s-.12.07-.11.12.06.08.11.1h.08l.23-.12z" />
    <path
        d="m7.79 19.74s-.28.15 0 .26a.17.17 0 0 0 .1 0l.24-.12.53.31v-.19l-.34-.23.34-.24v-.22l-.53.31-.24-.12h-.1c-.28.08 0 .24 0 .24z"
        fill="#00843d" />
    <path
        d="m8.66 20.22-.51-.3-.25.08a.24.24 0 0 1 -.12 0c-.09 0-.14-.08-.14-.13s.06-.13.1-.15-.11-.09-.1-.16.05-.09.14-.13h.12l.23.11.51-.3a0 0 0 0 1 0 0s0 0 0 0v.22s0 0 0 0l-.3.22.3.21s0 0 0 0v.22s0 0 0 0zm-.53-.36.49.29v-.15l-.32-.23a0 0 0 0 1 0 0s0 0 0 0l.32-.23v-.17l-.49.29-.24-.11a.11.11 0 0 0 -.08 0s-.11.05-.11.09.08.11.11.12a0 0 0 0 1 0 0s-.12.07-.11.12.06.08.11.09h.08l.24-.12z" />
    <path
        d="m10.34 18.22-.26.22v-.72l.26.21a.69.69 0 0 1 .12-.11.17.17 0 0 1 .1 0c.28.11 0 .26 0 .26s.28.15 0 .26a.17.17 0 0 1 -.1 0 .66.66 0 0 1 -.12-.12z"
        fill="#00843d" />
    <path
        d="m10.08 18.46v-.72a0 0 0 0 1 0 0l.24.2s.08-.09.12-.1a.13.13 0 0 1 .12 0c.09 0 .14.07.14.13s-.06.12-.1.15.11.08.1.15-.05.1-.14.13a.17.17 0 0 1 -.12 0s-.09-.07-.12-.1l-.24.2zm0-.69v.62l.22-.18s0 0 0 0a.4.4 0 0 0 .12.11h.08s.11-.05.11-.09-.08-.11-.11-.13 0 0 0 0 .12-.08.11-.13-.06-.07-.11-.09a.11.11 0 0 0 -.08 0 .4.4 0 0 0 -.12.11 0 0 0 0 1 0 0z" />
    <path d="m10.08 18.08v-.14l.16.14-.16.13z" fill="#fff" />
    <path d="m10.08 18.24v-.28s0 0 0 0l.16.13s0 0 0 0l-.16.13zm0-.25v.17l.1-.08z" />
    <path
        d="m10.34 19.35-.26-.22v.72l.26-.21s.08.1.12.11a.17.17 0 0 0 .1 0c.28-.11 0-.26 0-.26s.28-.15 0-.26a.17.17 0 0 0 -.1 0 .66.66 0 0 0 -.12.12z"
        fill="#00843d" />
    <path
        d="m10.08 19.88a0 0 0 0 1 0 0v-.72l.24.2s.08-.09.12-.1a.17.17 0 0 1 .12 0c.09 0 .14.08.14.13s-.06.12-.1.15.11.09.1.15-.05.1-.14.14h-.12a.63.63 0 0 1 -.12-.11l-.24.2zm0-.7v.62l.22-.18s0 0 0 0a.4.4 0 0 0 .12.11h.08s.11-.05.11-.09-.08-.11-.11-.13 0 0 0 0 .12-.07.11-.13-.06-.07-.11-.09a.11.11 0 0 0 -.08 0 .6.6 0 0 0 -.12.11s0 0 0 0z" />
    <path
        d="m15.79 18.81a0 0 0 0 1 0 0v-1.47h-.95a0 0 0 0 1 0 0v-.73h-2.49a0 0 0 0 1 0 0s0 0 0 0h2.47s0 0 0 0v.73h.95a0 0 0 0 1 0 0v1.48a0 0 0 0 1 .02-.01z" />
    <path d="m10.08 19.49v.14l.16-.14-.16-.13z" fill="#fff" />
    <path d="m10.08 19.65a0 0 0 0 1 0 0v-.27l.16.13s0 0 0 0zm0-.24v.17l.1-.09z" />
    <path
        d="m8.91 18.81a0 0 0 0 1 0 0v-1.5h.95v-.73s0 0 0 0h2.47s0 0 0 0a0 0 0 0 1 0 0h-2.42v.73a0 0 0 0 1 0 0h-.97v1.45s-.01.05-.03.05z" />
    <path
        d="m14.82 21h-2.47s0 0 0 0a0 0 0 0 1 0 0h2.44v-.73s0 0 0 0h.95v-1.48s0 0 0 0v1.47a0 0 0 0 1 0 0h-.95v.74s.04 0 .03 0z" />
    <path
        d="m12.35 21h-2.47s0 0 0 0v-.73h-.97v-1.48s0 0 0 0a0 0 0 0 1 0 0v1.45h.94s0 0 0 0v.76h2.44a0 0 0 0 1 0 0s.07 0 .06 0z" />
    <path
        d="m14.05 16.56h-3.39l-1.75 1.33v1.79l1.75 1.32h3.39l1.74-1.33v-1.78zm.81 2.23v1.47h-.52v.33h-4v-.33h-.5v-3h.53v-.26h4v.33h.52z"
        fill="#00843d" />
    <path
        d="m14.05 21h-3.41l-1.74-1.3s0 0 0 0v-1.81s0 0 0 0l1.74-1.33h3.42l1.74 1.33s0 0 0 0v1.79s0 0 0 0l-1.74 1.32zm-3.39 0h3.34l1.73-1.32v-1.78l-1.73-1.32h-3.34l-1.72 1.32v1.77zm3.68-.38h-4s0 0 0 0v-.31h-.5v-3h.5v-.31s0 0 0 0h4a0 0 0 0 1 0 0v.31h.5v3h-.5v.31a0 0 0 0 1 0-.01zm-3.95 0h3.92v-.31s0 0 0 0h.5v-2.9h-.5a0 0 0 0 1 0 0v-.41h-3.92v.31s0 0 0 0h-.53v2.9h.51a0 0 0 0 1 0 0z" />
    <path
        d="m11.28 17.35-.28-.28h.92l-.27.28a.76.76 0 0 1 .14.13.13.13 0 0 1 0 .12c-.13.3-.33 0-.33 0s-.19.3-.33 0a.17.17 0 0 1 0-.12.75.75 0 0 1 .15-.13z"
        fill="#00843d" />
    <path
        d="m11.65 17.76a.27.27 0 0 1 -.19-.12.29.29 0 0 1 -.19.12c-.07 0-.12-.06-.16-.15a.17.17 0 0 1 0-.14.77.77 0 0 1 .13-.12l-.24-.26h1s0 0 0 0l-.26.26a.87.87 0 0 1 .14.12.33.33 0 0 1 0 .14c-.05.09-.1.14-.16.15zm-.59-.66.23.24s0 0 0 0-.13.1-.14.13a.14.14 0 0 0 0 .09.18.18 0 0 0 .12.12c.07 0 .15-.09.17-.13s.1.13.17.13a.18.18 0 0 0 .12-.12.14.14 0 0 0 0-.09s-.09-.09-.14-.13 0 0 0 0l.23-.24z" />
    <path d="m11.46 17.07h.17l-.17.21-.17-.21z" fill="#fff" />
    <path d="m11.46 17.31-.17-.21a0 0 0 0 1 0 0h.39a0 0 0 0 1 0 0l-.17.21zm-.12-.21.12.14.12-.14z" />
    <path
        d="m12.54 20.22.27.28h-.92l.28-.28a.75.75 0 0 1 -.15-.13.17.17 0 0 1 -.02-.09c.14-.3.33 0 .33 0s.2-.3.33 0a.13.13 0 0 1 0 .12.76.76 0 0 1 -.12.1z"
        fill="#00843d" />
    <path
        d="m12.81 20.52h-.94l.26-.26a.77.77 0 0 1 -.13-.16.17.17 0 0 1 0-.1c0-.09.09-.14.16-.14s.16.07.19.11.11-.12.2-.11.11.05.16.14a.33.33 0 0 1 0 .14.87.87 0 0 1 -.14.12l.26.26s0 0 0 0zm-.81-.05h.8l-.23-.24a0 0 0 0 1 0 0 .6.6 0 0 0 .14-.12.17.17 0 0 0 0-.1.18.18 0 0 0 -.12-.12c-.07 0-.15.09-.17.13s-.1-.13-.17-.13a.18.18 0 0 0 -.25.11.17.17 0 0 0 0 .1.6.6 0 0 0 .14.12 0 0 0 0 1 0 0z" />
    <path d="m12.35 20.5h-.17l.17-.21.17.21z" fill="#fff" />
    <path d="m12.52 20.52h-.36a0 0 0 0 1 0 0l.17-.21.17.21a0 0 0 0 1 0 0zm-.29-.05h.24l-.12-.14z" />
    <path
        d="m13.43 20.22.27.28h-.92l.28-.28a.75.75 0 0 1 -.15-.13.17.17 0 0 1 0-.12c.14-.3.33 0 .33 0s.2-.3.33 0a.13.13 0 0 1 0 .12.76.76 0 0 1 -.14.13z"
        fill="#00843d" />
    <path
        d="m13.7 20.52h-.94l.26-.26a.77.77 0 0 1 -.13-.12.17.17 0 0 1 0-.14c0-.09.09-.14.16-.14s.16.07.19.11.11-.12.2-.11.11.05.16.14a.33.33 0 0 1 0 .14.87.87 0 0 1 -.14.12l.26.26s0 0 0 0zm-.86-.05h.8l-.23-.24a0 0 0 0 1 0 0 .6.6 0 0 0 .14-.12.17.17 0 0 0 0-.1.18.18 0 0 0 -.12-.12c-.07 0-.15.09-.17.13s-.1-.13-.17-.13a.18.18 0 0 0 -.12.12.17.17 0 0 0 0 .1.6.6 0 0 0 .14.12 0 0 0 0 1 0 0z" />
    <path d="m13.24 20.5h-.17l.17-.21.17.21z" fill="#fff" />
    <path d="m13.41 20.52h-.36a0 0 0 0 1 0 0l.17-.21.17.21a0 0 0 0 1 0 0zm-.29-.05h.24l-.12-.14z" />
    <path
        d="m11.28 20.22-.28.28h.92l-.27-.28a.76.76 0 0 0 .14-.13.13.13 0 0 0 0-.12c-.13-.3-.33 0-.33 0s-.19-.3-.33 0a.17.17 0 0 0 0 .12.75.75 0 0 0 .15.13z"
        fill="#00843d" />
    <path
        d="m11.92 20.52h-.92l.26-.26a.77.77 0 0 1 -.13-.12.17.17 0 0 1 0-.14c0-.09.09-.14.16-.14s.16.07.19.11.11-.12.2-.11.11.05.16.14a.33.33 0 0 1 0 .14.87.87 0 0 1 -.14.12l.26.26s0 0 0 0zm-.86-.05h.8l-.23-.24a0 0 0 0 1 0 0 .6.6 0 0 0 .14-.12.17.17 0 0 0 0-.1.18.18 0 0 0 -.12-.12c-.07 0-.15.09-.17.13s-.1-.13-.17-.13a.18.18 0 0 0 -.12.12.17.17 0 0 0 0 .1.6.6 0 0 0 .14.12 0 0 0 0 1 0 0z" />
    <path d="m11.46 20.5h.17l-.17-.21-.17.21z" fill="#fff" />
    <path d="m11.63 20.52h-.36a0 0 0 0 1 0 0l.17-.21.17.21a0 0 0 0 1 0 0zm-.29-.05h.24l-.12-.14z" />
    <path d="m12.35 16.67-.23.21v.15h.23.23v-.15z" fill="#d22630" />
    <path
        d="m12.58 17.05h-.46a0 0 0 0 1 0 0v-.17l.22-.21.23.21v.12a0 0 0 0 1 .01.05zm-.43 0h.41v-.12l-.21-.19-.2.19z" />
    <path d="m15.54 18.79-.21-.23h-.47v.23.23h.47z" fill="#ffc72c" />
    <path d="m15.33 19h-.47s0 0 0 0v-.45s0 0 0 0h.49l.21.23a0 0 0 0 1 0 0l-.21.23zm-.45 0h.44l.19-.2-.19-.21h-.44z" />
    <path d="m15.54 18.33-.21-.23h-.47v.23.23h.47z" fill="#d22630" />
    <path
        d="m15.33 18.58h-.47a0 0 0 0 1 0 0v-.48s0 0 0 0h.49l.21.23a0 0 0 0 1 0 0l-.21.23zm-.45 0h.44l.19-.2-.19-.21h-.44z" />
    <path d="m15.54 17.87-.21-.23h-.47v.23.23h.47z" fill="#ffc72c" />
    <path
        d="m15.33 18.12h-.47a0 0 0 0 1 0 0v-.46a0 0 0 0 1 0 0h.49l.21.23s0 0 0 0l-.21.23zm-.45-.05h.44l.19-.2-.19-.21h-.44z" />
    <path d="m15.54 19.24-.21.23h-.47v-.23-.22h.47z" fill="#d22630" />
    <path
        d="m15.33 19.5h-.47s0 0 0 0v-.5a0 0 0 0 1 0 0h.49l.21.23a0 0 0 0 1 0 0l-.21.23zm-.45-.05h.44l.19-.21-.19-.2h-.44z" />
    <path d="m15.54 19.7-.21.23h-.47v-.23-.23h.47z" fill="#ffc72c" />
    <path
        d="m15.33 20h-.47s0 0 0 0v-.46a0 0 0 0 1 0 0h.49l.21.23a0 0 0 0 1 0 0l-.21.23zm-.45-.05h.44l.19-.21-.19-.2h-.44z" />
    <path d="m9.16 18.79.21-.23h.47v.23.23h-.47z" fill="#ffc72c" />
    <path d="m9.84 19h-.49l-.21-.23a0 0 0 0 1 0 0l.21-.23h.49s0 0 0 0v.46s.01 0 0 0zm-.46 0h.44v-.41h-.44l-.19.21z" />
    <path d="m9.16 18.33.21-.23h.47v.23.23h-.47z" fill="#d22630" />
    <path
        d="m9.84 18.58h-.49l-.21-.23a0 0 0 0 1 0 0l.21-.23h.49s0 0 0 0v.46a0 0 0 0 1 0 0zm-.46 0h.44v-.41h-.44l-.19.21z" />
    <path d="m9.16 17.87.21-.23h.47v.23.23h-.47z" fill="#ffc72c" />
    <path
        d="m9.84 18.12h-.49l-.21-.23s0 0 0 0l.21-.23h.49a0 0 0 0 1 0 0v.46a0 0 0 0 1 0 0zm-.46-.05h.44v-.41h-.44l-.19.21z" />
    <path d="m9.16 19.24.21.23h.47v-.23-.22h-.47z" fill="#d22630" />
    <path
        d="m9.84 19.5h-.49l-.21-.23a0 0 0 0 1 0 0l.21-.27h.49a0 0 0 0 1 0 0v.46s.01.04 0 .04zm-.46-.05h.44v-.45h-.44l-.19.2z" />
    <path d="m9.16 19.7.21.23h.47v-.23-.23h-.47z" fill="#ffc72c" />
    <path
        d="m9.84 20h-.49l-.21-.23a0 0 0 0 1 0 0l.21-.23h.49a0 0 0 0 1 0 0v.46s.01 0 0 0zm-.46-.05h.44v-.45h-.44l-.19.2z" />
    <path d="m12.81 16.67-.23.21v.15h.23.23v-.15z" fill="#ffc72c" />
    <path d="m13 17.05h-.46a0 0 0 0 1 0 0v-.17l.23-.21.22.21v.12a0 0 0 0 1 .01.05zm-.44 0h.44v-.12l-.2-.19-.21.19z" />
    <path
        d="m11.54 28.58h-2.32v-.76h-.76v-.71h-.76v-1.4h.76v-.71h.76v-.76h2.32l.81-.53.82.53h2.31v.76h.76v.71h.76v1.4h-.76v.71h-.76v.76h-2.31l-.82.53z"
        fill="#ffc72c" />
    <path
        d="m12.35 29.13-.81-.52h-2.32a0 0 0 0 1 0 0v-.74h-.76s0 0 0 0v-.68h-.76a0 0 0 0 1 0 0v-1.4a0 0 0 0 1 0 0h.74v-.79a0 0 0 0 1 0 0h.76v-.74h2.31l.81-.53.81.53h2.31v.74h.73s0 0 0 0v.69h.83a0 0 0 0 1 0 0v1.4a0 0 0 0 1 0 0h-.73v.68a0 0 0 0 1 0 0h-.73v.74s0 0 0 0h-2.37l-.81.52zm-3.11-.58h2.31l.8.52.8-.52h2.31v-.74h.74v-.68h.8v-1.4h-.74v-.73h-.74s0 0 0 0v-.74h-2.37l-.8-.52-.8.52h-2.31v.74s0 0 0 0h-.76v.68a0 0 0 0 1 0 0h-.75v1.36h.73a0 0 0 0 1 0 0v.68h.74z" />
    <path d="m13.27 16.67-.23.21v.15h.23.23v-.15z" fill="#d22630" />
    <path d="m13.5 17.05h-.5v-.15s0 0 0 0l.23-.21.23.21v.1a0 0 0 0 1 .04.05zm-.44 0h.41v-.12l-.2-.19-.21.19z" />
    <path d="m11.89 16.67.23.21v.15h-.23-.23v-.15z" fill="#ffc72c" />
    <path d="m12.12 17.05h-.46a0 0 0 0 1 0 0v-.17l.23-.21.23.21s0 0 0 0v.12zm-.43 0h.41v-.12l-.21-.19-.2.19z" />
    <path d="m11.43 16.67.23.21v.15h-.23-.22v-.15z" fill="#d22630" />
    <path d="m11.66 17.05h-.45s0 0 0 0v-.17l.23-.21.23.21s0 0 0 0v.12s.01.05-.01.05zm-.43 0h.41v-.12l-.21-.19-.2.19z" />
    <path d="m12.35 20.9-.23-.21v-.15h.23.23v.15z" fill="#d22630" />
    <path d="m12.35 20.93-.22-.21v-.17a0 0 0 0 1 0 0h.46a0 0 0 0 1 0 0v.17l-.23.21zm-.2-.25.2.19.21-.19v-.12h-.41z" />
    <path d="m12.81 20.9-.23-.21v-.15h.23.23v.15z" fill="#ffc72c" />
    <path d="m12.81 20.93-.23-.21v-.17a0 0 0 0 1 0 0h.42a0 0 0 0 1 0 0v.17l-.22.21zm-.21-.25.21.19.2-.19v-.12h-.41z" />
    <path d="m13.27 20.9-.23-.21v-.15h.23.23v.15z" fill="#d22630" />
    <path d="m13.27 20.93-.27-.22s0 0 0 0v-.15h.46a0 0 0 0 1 0 0v.17l-.23.21zm-.21-.25.21.19.2-.19v-.12h-.41z" />
    <path
        d="m16.05 25.9v-.71h-.76v-.76h-2.18l-.76-.49-.76.49h-2.18v.76h-.76v.71h-.76v.51.51h.76v.71h.76v.76h2.18l.76.49.76-.49h2.18v-.76h.76v-.71h.76v-.51-.51z"
        fill="#00843d" />
    <path
        d="m12.35 28.9-.76-.49h-2.18a0 0 0 0 1 0 0v-.74h-.76s0 0 0 0v-.68h-.76a0 0 0 0 1 0 0v-1a0 0 0 0 1 0 0h.74v-.69a0 0 0 0 1 0 0h.74v-.74a0 0 0 0 1 0 0h2.17l.76-.49.76.49h2.17v.74h.73s0 0 0 0v.69h.73a0 0 0 0 1 0 0v1a0 0 0 0 1 0 0h-.73v.68a0 0 0 0 1 0 0h-.73v.74h-2.11l-.76.49zm-2.92-.54h2.17l.75.48.75-.48h2.17v-.74a0 0 0 0 1 0 0h.73v-.68a0 0 0 0 1 0 0h.74v-1h-.74a0 0 0 0 1 0 0v-.68h-.74s0 0 0 0v-.74h-2.16l-.75-.52-.75.48h-2.17v.74s0 0 0 0h-.76v.68a0 0 0 0 1 0 0h-.75v1h.73a0 0 0 0 1 0 0v.68h.74a0 0 0 0 1 0 0z" />
    <path d="m11.89 20.9.23-.21v-.15h-.23-.23v.15z" fill="#ffc72c" />
    <path d="m11.89 20.93-.23-.21v-.17a0 0 0 0 1 0 0h.46v.15s0 0 0 0l-.23.21zm-.2-.25.2.19.21-.19v-.12h-.41z" />
    <path d="m11.43 20.9.23-.21v-.15h-.23-.22v.15z" fill="#d22630" />
    <path d="m11.43 20.93-.23-.21v-.17s0 0 0 0h.45s0 0 0 0v.15s0 0 0 0l-.23.21zm-.2-.25.2.19.21-.19v-.12h-.41z" />
    <path
        d="m16.05 18.81s0 0 0 0v-1.81h-.83a0 0 0 0 1 0 0v-.59h-2.87a0 0 0 0 1 0 0s0 0 0 0h2.84a0 0 0 0 1 0 0v.59h.83v1.86a0 0 0 0 1 .03-.05z" />
    <path
        d="m8.66 18.81s0 0 0 0v-1.88s0 0 0 0h.82v-.59a0 0 0 0 1 0 0h2.84s0 0 0 0a0 0 0 0 1 0 0h-2.79v.59a0 0 0 0 1 0 0h-.85v1.84a0 0 0 0 1 -.02.04z" />
    <path
        d="m15.19 21.28h-2.84s0 0 0 0h2.82v-.59a0 0 0 0 1 0 0h.83v-1.9a0 0 0 0 1 0 0s0 0 0 0v1.85h-.83v.6s.04.04.02.04z" />
    <path
        d="m12.35 21.28h-2.84s0 0 0 0v-.6h-.85s0 0 0 0v-1.89a0 0 0 0 1 0 0s0 0 0 0v1.83h.83a0 0 0 0 1 0 0v.59h2.82s0 0 0 0z" />
    <path d="m14.91 16.32v-.39h.29v.24h.28v.28h-.29v-.13z" fill="#00843d" />
    <path
        d="m15.48 16.48h-.29s0 0 0 0v-.11h-.26s0 0 0 0v-.39s0 0 0 0h.29a0 0 0 0 1 0 0v.21h.26s0 0 0 0v.28s.01.01 0 .01zm-.26-.05h.24v-.24h-.26v-.19h-.24v.34h.26a0 0 0 0 1 0 0z" />
    <path d="m15.76 16.93v-.38h.29v.23h.28v.29h-.28v-.14z" fill="#00843d" />
    <path
        d="m16.33 17.09h-.28s0 0 0 0v-.09h-.26a0 0 0 0 1 0 0v-.38s0 0 0 0h.29s0 0 0 0v.21h.26a0 0 0 0 1 0 0v.29a0 0 0 0 1 -.01-.03zm-.26 0h.24v-.24h-.26s0 0 0 0v-.21h-.25v.34h.27z" />
    <path d="m9.79 16.32v-.39h-.29v.24h-.28v.28h.29v-.13z" fill="#00843d" />
    <path
        d="m9.51 16.48h-.29s0 0 0 0v-.28s0 0 0 0h.26v-.21h.29s0 0 0 0v.39s0 0 0 0h-.24v.11s-.01-.01-.02-.01zm-.26-.05h.23v-.11a0 0 0 0 1 0 0h.26v-.32h-.21v.22s0 0 0 0h-.28z" />
    <path d="m8.94 16.93v-.38h-.29v.23h-.28v.29h.29v-.14z" fill="#00843d" />
    <path
        d="m8.66 17.09h-.29a0 0 0 0 1 0 0v-.29a0 0 0 0 1 0 0h.26v-.21s0 0 0 0h.29a0 0 0 0 1 0 0v.38s0 0 0 0h-.24v.12a0 0 0 0 1 -.02 0zm-.27 0h.24v-.12s0 0 0 0h.26v-.34h-.21v.21a0 0 0 0 1 0 0h-.29z" />
    <path d="m14.91 21.25v.39h.29v-.24h.28v-.28h-.29v.13z" fill="#00843d" />
    <path
        d="m15.2 21.67h-.29a0 0 0 0 1 0 0v-.38a0 0 0 0 1 0 0h.26v-.11s0 0 0 0h.29s0 0 0 0v.28s0 0 0 0h-.26v.21s.01 0 0 0zm-.27-.05h.24v-.22h.26v-.24h-.24v.12s0 0 0 0h-.26z" />
    <path d="m15.76 20.64v.39h.29v-.24h.28v-.29h-.28v.14z" fill="#00843d" />
    <path
        d="m16.05 21.05h-.29a0 0 0 0 1 0 0v-.39a0 0 0 0 1 0 0h.24v-.16s0 0 0 0h.28a0 0 0 0 1 0 0v.29a0 0 0 0 1 0 0h-.26v.21zm-.27-.05h.22v-.21s0 0 0 0h.26v-.23h-.24v.11h-.27z" />
    <path d="m9.79 21.25v.39h-.29v-.24h-.28v-.28h.29v.13z" fill="#00843d" />
    <path
        d="m9.79 21.67h-.29s0 0 0 0v-.21h-.28s0 0 0 0v-.28s0 0 0 0h.29s0 0 0 0v.11h.26a0 0 0 0 1 0 0v.38a0 0 0 0 1 .02 0zm-.26-.05h.24v-.34h-.26s0 0 0 0v-.12h-.26v.24h.25s0 0 0 0z" />
    <path d="m11.21 27.33h.76v.38h-.76z" fill="#d22630" />
    <path
        d="m12 27.73h-.76a0 0 0 0 1 0 0v-.38a0 0 0 0 1 0 0h.76a0 0 0 0 1 0 0v.38a0 0 0 0 1 0 0zm-.73-.05h.73v-.33h-.71z" />
    <path d="m8.94 20.64v.39h-.29v-.24h-.28v-.29h.29v.14z" fill="#00843d" />
    <path
        d="m8.94 21.05h-.29a0 0 0 0 1 0 0v-.22h-.28a0 0 0 0 1 0 0v-.33a0 0 0 0 1 0 0h.29a0 0 0 0 1 0 0v.12h.26s0 0 0 0v.38s.08.05.02.05zm-.26-.05h.24v-.34h-.26s0 0 0 0v-.11h-.27v.23h.26z" />
    <path d="m13.93 17h-3.16l-.84.71v2.19l.84.71h3.16l.84-.71v-2.21zm.7 2.8-.8.67h-2.95l-.8-.67v-2l.8-.67h2.95l.8.67z"
        fill="#00843d" />
    <path
        d="m13.93 20.61h-3.17l-.84-.71a0 0 0 0 1 0 0v-2.21a0 0 0 0 1 0 0l.84-.72h3.24l.83.72a0 0 0 0 1 0 0v2.19a0 0 0 0 1 0 0l-.83.71zm-3.15 0h3.14l.82-.7v-2.21l-.82-.7h-3.14l-.82.7v2.17zm3.05-.1h-3l-.8-.67s0 0 0 0v-2a0 0 0 0 0 0 0l.8-.67h3l.8.67v2zm-2.95 0h2.94l.78-.66v-2l-.78-.66h-2.94l-.78.66v2z" />
    <path d="m11.97 25.14h.76v.38h-.76z" fill="#d22630" />
    <path
        d="m12.73 25.55h-.73s0 0 0 0v-.38a0 0 0 0 1 0 0h.76a0 0 0 0 1 0 0v.38s-.02 0-.03 0zm-.73-.05h.72v-.33h-.72z" />
    <path d="m12.2 25.25h.3v.17h-.3z" fill="#fff" />
    <path d="m12.5 25.44h-.3a0 0 0 0 1 0 0v-.17a0 0 0 0 1 0 0h.3s0 0 0 0zm-.28 0h.26v-.13h-.26z" />
    <path d="m12.73 25.14h.76v.38h-.76z" fill="#d22630" />
    <path d="m13.49 25.55h-.76s0 0 0 0v-.38a0 0 0 0 1 0 0h.76a0 0 0 0 1 0 0v.38s.01 0 0 0zm-.74-.05h.72v-.33h-.72z" />
    <path d="m12.96 25.25h.3v.17h-.3z" fill="#fff" />
    <path
        d="m13.26 25.44h-.26a0 0 0 0 1 0 0v-.17a0 0 0 0 1 0 0h.3a0 0 0 0 1 0 0v.17a0 0 0 0 1 -.04 0zm-.28 0h.26v-.13h-.24z" />
    <path d="m11.21 25.14h.76v.38h-.76z" fill="#d22630" />
    <path d="m12 25.55h-.76s0 0 0 0v-.38a0 0 0 0 1 0 0h.76a0 0 0 0 1 0 0v.38s0 0 0 0zm-.73-.05h.73v-.33h-.71z" />
    <path d="m11.44 25.25h.3v.17h-.3z" fill="#fff" />
    <path d="m11.74 25.44h-.3a0 0 0 0 1 0 0v-.17a0 0 0 0 1 0 0h.3s0 0 0 0v.17s.02 0 0 0zm-.28 0h.26v-.13h-.26z" />
    <path d="m11.44 27.43h.3v.17h-.3z" fill="#fff" />
    <path d="m11.74 27.63h-.3s0 0 0 0v-.17a0 0 0 0 1 0 0h.3s0 0 0 0v.17a0 0 0 0 1 0 0zm-.28-.05h.26v-.12h-.26z" />
    <path d="m11.59 24.76h.76v.38h-.76z" fill="#d22630" />
    <path d="m12.35 25.17h-.76s0 0 0 0v-.38a0 0 0 0 1 0 0h.76a0 0 0 0 1 0 0v.38s.01 0 0 0zm-.73-.05h.71v-.33h-.71z" />
    <path d="m11.82 24.87h.3v.17h-.3z" fill="#fff" />
    <path d="m12.12 25.06h-.3a0 0 0 0 1 0 0v-.17a0 0 0 0 1 0 0h.3s0 0 0 0v.11s.01.06 0 .06zm-.28 0h.26v-.13h-.26z" />
    <path d="m12.35 24.76h.76v.38h-.76z" fill="#d22630" />
    <path d="m13.11 25.17h-.76s0 0 0 0v-.38a0 0 0 0 1 0 0h.76a0 0 0 0 1 0 0v.38s.01 0 0 0zm-.74-.05h.72v-.33h-.72z" />
    <path d="m12.58 24.87h.3v.17h-.3z" fill="#fff" />
    <path
        d="m12.88 25.06h-.3a0 0 0 0 1 0 0v-.17a0 0 0 0 1 0 0h.3a0 0 0 0 1 0 0v.11a0 0 0 0 1 0 .06zm-.28 0h.26v-.13h-.26z" />
    <path d="m11.59 25.52h.76v.38h-.76z" fill="#d22630" />
    <path d="m12.35 25.93h-.76s0 0 0 0v-.38h.76v.38s.01 0 0 0zm-.73-.05h.71v-.33h-.71z" />
    <path d="m11.82 25.63h.3v.17h-.3z" fill="#fff" />
    <path d="m12.12 25.82h-.3v-.17h.3zm-.28 0h.26v-.13h-.26z" />
    <path d="m12.35 25.52h.76v.38h-.76z" fill="#d22630" />
    <path d="m13.11 25.93h-.76s0 0 0 0v-.38h.76v.38s.01 0 0 0zm-.74-.05h.72v-.33h-.72z" />
    <path d="m12.58 25.63h.3v.17h-.3z" fill="#fff" />
    <path d="m12.88 25.82h-.3v-.17h.3zm-.28 0h.26v-.13h-.26z" />
    <path d="m12.35 24.34-.65.43h1.3z" fill="#ffc72c" />
    <path
        d="m13 24.79h-1.3a0 0 0 0 1 0 0s0 0 0 0l.65-.43s0 0 0 0l.65.43s0 0 0 0a0 0 0 0 1 0 0zm-1.22-.05h1.14l-.57-.37z" />
    <path d="m12.35 26.33-.65-.42h1.3z" fill="#ffc72c" />
    <path d="m12.35 26.35-.65-.43s0 0 0 0a0 0 0 0 1 0 0h1.3a0 0 0 0 1 0 0s0 0 0 0zm-.57-.42.57.37.57-.37z" />
    <path d="m11.97 27.33h.76v.38h-.76z" fill="#d22630" />
    <path d="m12.73 27.73h-.73v-.38h.76a0 0 0 0 1 0 0v.38a0 0 0 0 1 -.03 0zm-.73-.05h.72v-.33h-.72z" />
    <path d="m12.2 27.43h.3v.17h-.3z" fill="#fff" />
    <path d="m12.5 27.63h-.3s0 0 0 0v-.17a0 0 0 0 1 0 0h.3v.17a0 0 0 0 1 0 0zm-.28-.05h.26v-.12h-.26z" />
    <path d="m12.73 27.33h.76v.38h-.76z" fill="#d22630" />
    <path
        d="m13.49 27.73h-.76a0 0 0 0 1 0 0v-.38a0 0 0 0 1 0 0h.76a0 0 0 0 1 0 0v.38a0 0 0 0 1 0 0zm-.74-.05h.72v-.33h-.72z" />
    <path d="m12.96 27.43h.3v.17h-.3z" fill="#fff" />
    <path d="m13.26 27.63h-.26s0 0 0 0v-.17a0 0 0 0 1 0 0h.3a0 0 0 0 1 0 0v.17s-.03 0-.04 0zm-.26-.05h.26v-.12h-.26z" />
    <path d="m11.59 27.71h.76v.38h-.76z" fill="#d22630" />
    <path d="m12.35 28.11h-.76a0 0 0 0 1 0 0v-.38s0 0 0 0h.76s0 0 0 0v.38a0 0 0 0 1 0 0zm-.73-.05h.71v-.33h-.71z" />
    <path d="m11.82 27.81h.3v.17h-.3z" fill="#fff" />
    <path d="m12.12 28h-.3s0 0 0 0v-.17h.3v.17a0 0 0 0 1 0 0zm-.28 0h.26v-.12h-.26z" />
    <path d="m12.35 27.71h.76v.38h-.76z" fill="#d22630" />
    <path d="m13.11 28.11h-.76a0 0 0 0 1 0 0v-.38s0 0 0 0h.76s0 0 0 0v.38a0 0 0 0 1 0 0zm-.74-.05h.72v-.33h-.72z" />
    <path d="m12.58 27.81h.3v.17h-.3z" fill="#fff" />
    <path d="m12.88 28h-.3s0 0 0 0v-.17h.3v.17s.01 0 0 0zm-.28 0h.26v-.12h-.26z" />
    <path d="m11.59 26.95h.76v.38h-.76z" fill="#d22630" />
    <path d="m12.35 27.35h-.76a0 0 0 0 1 0 0v-.35h.76v.38a0 0 0 0 1 0-.03zm-.73 0h.71v-.35h-.71z" />
    <path d="m11.82 27.05h.3v.17h-.3z" fill="#fff" />
    <path d="m12.12 27.25h-.3s0 0 0 0v-.17a0 0 0 0 1 0 0h.3s0 0 0 0v.17a0 0 0 0 1 0 0zm-.28-.05h.26v-.12h-.26z" />
    <path d="m12.35 26.95h.76v.38h-.76z" fill="#d22630" />
    <path d="m13.11 27.35h-.76a0 0 0 0 1 0 0v-.35h.76v.38a0 0 0 0 1 0-.03zm-.74 0h.72v-.35h-.72z" />
    <path d="m12.58 27.05h.3v.17h-.3z" fill="#fff" />
    <path d="m12.88 27.25h-.3s0 0 0 0v-.17a0 0 0 0 1 0 0h.3a0 0 0 0 1 0 0v.17s.01 0 0 0zm-.28-.05h.26v-.12h-.26z" />
    <path d="m12.35 28.51-.65-.42h1.3z" fill="#ffc72c" />
    <path d="m12.35 28.54-.65-.42a0 0 0 0 1 0 0h1.3a0 0 0 0 1 0 0zm-.57-.43.57.38.57-.38z" />
    <path d="m12.35 26.52-.65.43h1.3z" fill="#ffc72c" />
    <path d="m13 27h-1.32s0 0 0 0l.65-.43.65.43s0 0 0 0zm-1.22 0h1.14l-.57-.38z" />
    <path d="m13.84 26.22h.76v.38h-.76z" fill="#ffc72c" />
    <path d="m14.6 26.62h-.76a0 0 0 0 1 0 0v-.38a0 0 0 0 1 0 0h.76s0 0 0 0v.38s.02 0 0 0zm-.73 0h.71v-.34h-.71z" />
    <path d="m14.07 26.32h.3v.17h-.3z" fill="#fff" />
    <path d="m14.37 26.52h-.3s0 0 0 0v-.17a0 0 0 0 1 0 0h.3s0 0 0 0v.17a0 0 0 0 1 0 0zm-.27-.05h.25v-.12h-.25z" />
    <path d="m14.6 26.22h.76v.38h-.76z" fill="#ffc72c" />
    <path d="m15.36 26.62h-.76a0 0 0 0 1 0 0v-.38a0 0 0 0 1 0 0h.76zm-.73 0h.71v-.34h-.71z" />
    <path d="m14.83 26.32h.3v.17h-.3z" fill="#fff" />
    <path d="m15.13 26.52h-.3s0 0 0 0v-.17a0 0 0 0 1 0 0h.3s0 0 0 0v.17a0 0 0 0 1 0 0zm-.28-.05h.26v-.12h-.26z" />
    <path d="m13.08 26.22h.76v.38h-.76z" fill="#ffc72c" />
    <path d="m13.84 26.62h-.76a0 0 0 0 1 0 0v-.38a0 0 0 0 1 0 0h.76s0 0 0 0v.38s.02 0 0 0zm-.73 0h.71v-.34h-.71z" />
    <path d="m13.31 26.32h.3v.17h-.3z" fill="#fff" />
    <path d="m13.61 26.52h-.3s0 0 0 0v-.17a0 0 0 0 1 0 0h.3s0 0 0 0v.17a0 0 0 0 1 0 0zm-.27-.05h.25v-.12h-.25z" />
    <path d="m13.46 25.84h.76v.38h-.76z" fill="#ffc72c" />
    <path d="m14.22 26.24h-.76a0 0 0 0 1 0 0v-.38a0 0 0 0 1 0 0h.76s0 0 0 0v.38s.02 0 0 0zm-.73 0h.71v-.34h-.71z" />
    <path d="m13.69 25.95h.3v.17h-.3z" fill="#fff" />
    <path d="m14 26.14h-.3s0 0 0 0v-.14s0 0 0 0h.3a0 0 0 0 1 0 0v.16a0 0 0 0 1 0-.02zm-.27-.05h.27v-.09h-.25z" />
    <path d="m14.22 25.84h.76v.38h-.76z" fill="#ffc72c" />
    <path d="m15 26.24h-.76a0 0 0 0 1 0 0v-.38a0 0 0 0 1 0 0h.76s0 0 0 0v.38s0 0 0 0zm-.73 0h.73v-.34h-.71z" />
    <path d="m14.45 25.95h.3v.17h-.3z" fill="#fff" />
    <path d="m14.75 26.14h-.3s0 0 0 0v-.14s0 0 0 0h.3a0 0 0 0 1 0 0v.16a0 0 0 0 1 0-.02zm-.27-.05h.25v-.09h-.25z" />
    <path d="m13.46 26.6h.76v.38h-.76z" fill="#ffc72c" />
    <path d="m14.22 27h-.76a0 0 0 0 1 0 0v-.4a0 0 0 0 1 0 0h.76s0 0 0 0v.4s.02 0 0 0zm-.73 0h.71v-.34h-.71z" />
    <path d="m13.69 26.7h.3v.17h-.3z" fill="#fff" />
    <path d="m14 26.9h-.3s0 0 0 0v-.2h.3s0 0 0 0v.17a0 0 0 0 1 0 .03zm-.27 0h.27v-.12h-.25z" />
    <path d="m14.22 26.6h.76v.38h-.76z" fill="#ffc72c" />
    <path d="m15 27h-.76v-.4a0 0 0 0 1 0 0h.76s0 0 0 0zm-.73 0h.73v-.34h-.71z" />
    <path d="m14.45 26.7h.3v.17h-.3z" fill="#fff" />
    <path d="m14.75 26.9h-.3s0 0 0 0v-.2h.3s0 0 0 0v.17a0 0 0 0 1 0 .03zm-.27 0h.25v-.12h-.25z" />
    <path d="m14.22 25.41-.64.43h1.29z" fill="#d22630" />
    <path d="m14.87 25.86h-1.32a0 0 0 0 1 0 0l.65-.43.64.43a0 0 0 0 1 0 0zm-1.21 0h1.13l-.57-.38z" />
    <path d="m14.22 27.41-.64-.43h1.29z" fill="#d22630" />
    <path d="m14.22 27.43-.66-.43a0 0 0 0 1 0 0h1.34a0 0 0 0 1 0 0l-.64.42zm-.56-.43.56.38.57-.38z" />
    <path d="m10.1 26.22h.76v.38h-.76z" fill="#ffc72c" />
    <path d="m10.86 26.62h-.76a0 0 0 0 1 0 0v-.38a0 0 0 0 1 0 0h.76zm-.74 0h.72v-.34h-.72z" />
    <path d="m10.33 26.32h.3v.17h-.3z" fill="#fff" transform="matrix(-1 0 0 -1 20.96 52.82)" />
    <path d="m10.63 26.52h-.3a0 0 0 0 1 0 0v-.17s0 0 0 0h.3a0 0 0 0 1 0 0v.17s.01 0 0 0zm-.28-.05h.26v-.12h-.26z" />
    <path d="m9.34 26.22h.76v.38h-.76z" fill="#ffc72c" />
    <path
        d="m10.1 26.62h-.76a0 0 0 0 1 0 0v-.38a0 0 0 0 1 0 0h.76a0 0 0 0 1 0 0v.38a0 0 0 0 1 0 0zm-.74 0h.72v-.34h-.72z" />
    <path d="m9.57 26.32h.3v.17h-.3z" fill="#fff" transform="matrix(-1 0 0 -1 19.44 52.82)" />
    <path d="m9.87 26.52h-.3s0 0 0 0v-.17a0 0 0 0 1 0 0h.3a0 0 0 0 1 0 0v.17s.01 0 0 0zm-.28-.05h.26v-.12h-.26z" />
    <path d="m10.86 26.22h.76v.38h-.76z" fill="#ffc72c" />
    <path
        d="m11.62 26.62h-.76a0 0 0 0 1 0 0v-.38a0 0 0 0 1 0 0h.76a0 0 0 0 1 0 0v.38a0 0 0 0 1 0 0zm-.74 0h.71v-.34h-.71z" />
    <path d="m11.09 26.32h.3v.17h-.3z" fill="#fff" transform="matrix(-1 0 0 -1 22.48 52.82)" />
    <path d="m11.39 26.52h-.3a0 0 0 0 1 0 0v-.17s0 0 0 0h.3a0 0 0 0 1 0 0v.17s.01 0 0 0zm-.28-.05h.26v-.12h-.26z" />
    <path d="m10.48 25.84h.76v.38h-.76z" fill="#ffc72c" />
    <path
        d="m11.24 26.24h-.76a0 0 0 0 1 0 0v-.38a0 0 0 0 1 0 0h.76a0 0 0 0 1 0 0v.38a0 0 0 0 1 0 0zm-.74 0h.71v-.34h-.71z" />
    <path d="m10.71 25.95h.3v.17h-.3z" fill="#fff" transform="matrix(-1 0 0 -1 21.72 52.06)" />
    <path d="m11 26.14h-.3a0 0 0 0 1 0 0v-.14a0 0 0 0 1 0 0h.3s0 0 0 0v.16s0-.02 0-.02zm-.28-.05h.28v-.09h-.26z" />
    <path d="m9.72 25.84h.76v.38h-.76z" fill="#ffc72c" />
    <path
        d="m10.48 26.24h-.76a0 0 0 0 1 0 0v-.38a0 0 0 0 1 0 0h.76a0 0 0 0 1 0 0v.38a0 0 0 0 1 0 0zm-.74 0h.72v-.34h-.72z" />
    <path d="m9.95 25.95h.3v.17h-.3z" fill="#fff" transform="matrix(-1 0 0 -1 20.2 52.06)" />
    <path
        d="m10.25 26.14h-.25a0 0 0 0 1 0 0v-.14a0 0 0 0 1 0 0h.3s0 0 0 0v.16s-.04-.02-.05-.02zm-.25-.05h.26v-.09h-.26z" />
    <path d="m10.48 26.6h.76v.38h-.76z" fill="#ffc72c" />
    <path d="m11.24 27h-.76v-.4a0 0 0 0 1 0 0h.76a0 0 0 0 1 0 0zm-.74 0h.71v-.34h-.71z" />
    <path d="m10.71 26.7h.3v.17h-.3z" fill="#fff" transform="matrix(-1 0 0 -1 21.72 53.58)" />
    <path d="m11 26.9h-.3a0 0 0 0 1 0 0v-.2s0 0 0 0h.3v.17s0 .03 0 .03zm-.28 0h.28v-.12h-.26z" />
    <path d="m9.72 26.6h.76v.38h-.76z" fill="#ffc72c" />
    <path d="m10.48 27h-.76v-.4a0 0 0 0 1 0 0h.76a0 0 0 0 1 0 0zm-.74 0h.72v-.34h-.72z" />
    <path d="m9.95 26.7h.3v.17h-.3z" fill="#fff" transform="matrix(-1 0 0 -1 20.2 53.58)" />
    <path d="m10.25 26.9h-.25a0 0 0 0 1 0 0v-.2h.3v.17s-.04.03-.05.03zm-.28 0h.26v-.12h-.23z" />
    <path d="m10.48 25.41.65.43h-1.3z" fill="#d22630" />
    <path d="m11.13 25.86h-1.32a0 0 0 0 1 0 0l.65-.43.65.43a0 0 0 0 1 0 0zm-1.22 0h1.14l-.57-.38z" />
    <path d="m10.48 27.41.65-.43h-1.3z" fill="#d22630" />
    <path d="m10.48 27.43-.66-.43a0 0 0 0 1 0 0h1.34a0 0 0 0 1 0 0l-.65.42zm-.57-.43.57.38.57-.38z" />
    <path d="m13.93 24.77h1.05v.7z" fill="#d22630" />
    <path d="m15 25.5-1.06-.71s0 0 0 0h1.06s0 0 0 0v.71s0 0 0 0zm-1-.71 1 .64v-.64z" />
    <path d="m10.78 24.77h-1.06v.7z" fill="#d22630" />
    <path d="m9.72 25.5a0 0 0 0 1 0 0v-.71a0 0 0 0 1 0 0h1.06a0 0 0 0 1 0 0s0 0 0 0zm0-.71v.64l1-.64z" />
    <path d="m13.93 28.05h1.05v-.71z" fill="#d22630" />
    <path d="m15 28.08h-1.07a0 0 0 0 1 0 0l1.06-.7v.71a0 0 0 0 1 .01-.01zm-1 0h1v-.64z" />
    <path d="m10.78 28.05h-1.06v-.71z" fill="#d22630" />
    <path d="m10.78 28.08h-1.06s0 0 0 0v-.71a0 0 0 0 1 0 0l1.06.7a0 0 0 0 1 0 0 0 0 0 0 1 0 .01zm-1 0h1l-1-.64z" />
    <path
        d="m17.33 26.43a0 0 0 0 1 0 0v-1h-.74a0 0 0 0 1 0 0v-.69h-.73v-.73h-2.76l-.53-.34s0 0 0 0a0 0 0 0 1 0 0l.24-.14h1l.14.14a0 0 0 0 1 0 0h-.84l.15.15h1.16l-.49-.52h-1.15l-.42.24-.42-.24h-1.18l-.48.52h1.15l.16-.15h-.85a0 0 0 0 1 0 0l.14-.14a0 0 0 0 1 0 0h1l.24.14a0 0 0 0 1 0 0l-.53.34h-2.67v.73s0 0 0 0h-.76v.69a0 0 0 0 1 0 0h-.77v1a0 0 0 0 1 0 0v-1h.74v-.69s0 0 0 0h.74v-.73a0 0 0 0 1 0 0h2.69l.5-.31-.21-.12h-1l-.09.09h.84s0 0 0 0l-.2.2h-1.18l.53-.57h1.21l.41.24.41-.24h1.22l.53.57a0 0 0 0 1 0 0h-1.29l-.2-.2s0 0 0 0h.84l-.09-.09h-1l-.2.12.49.31h2.69a0 0 0 0 1 0 0v.73h.74s0 0 0 0v.69h.74s0 0 0 0v1s.1 0 .08 0z" />
    <path
        d="m14 29.64h-1.24l-.41-.24-.41.24h-1.21l-.53-.57h1.24l.2.2s0 0 0 0h-.84l.09.09h1l.21-.12-.5-.31h-2.71s0 0 0 0v-.73h-.76a0 0 0 0 1 0 0v-.69h-.76s0 0 0 0v-1a0 0 0 0 1 0 0v1h.74s0 0 0 0v.7h.73s0 0 0 0v.73h2.76l.53.34a0 0 0 0 1 0 0l-.24.15h-1a0 0 0 0 1 0 0l-.14-.14a0 0 0 0 1 0 0h.87l-.16-.15h-1.18l.48.52h1.16l.42-.24.42.24h1.16l.49-.52h-1.14l-.15.15h.88l-.14.14h-1l-.24-.15s0 0 0 0l.53-.34h2.69v-.73h.73v-.7s0 0 0 0h.74v-1a0 0 0 0 1 0 0s0 0 0 0v1a0 0 0 0 1 0 0h-.74v.69a0 0 0 0 1 0 0h-.74v.73s0 0 0 0h-2.71l-.49.31.2.12h1l.09-.09h-.84s0 0 0 0l.2-.2h1.24a0 0 0 0 1 0 0s0 0 0 0l-.53.57z" />
    <path d="m13.53 32.84-1.18-.76-1.18.76h-.38v.78.78h.38l1.18.76 1.18-.76h.38v-.78-.78z" fill="#d22630" />
    <path
        d="m12.35 35.18-1.17-.75h-.38s0 0 0 0v-1.59s0 0 0 0h.38l1.17-.75 1.17.75h.38s0 0 0 0v1.56s0 0 0 0h-.38l-1.17.75zm-1.54-.8h.38l1.16.75 1.16-.75h.38v-1.52h-.38l-1.16-.75-1.16.75h-.38z" />
    <path
        d="m13.25 33.41v.14h.38v-.47h-.43v-.39h-.71v.47h.29v-.14h-.15v-.18h.43v.25l-.71.44-.71-.44v-.25h.43v.18h-.14v.14h.29v-.47h-.72v.39h-.43v.47h.38v-.14h-.19v-.19h.24l.66.4-.66.4h-.24v-.19h.19v-.14h-.38v.47h.43v.38h.72v-.46h-.29v.14h.14v.18h-.43v-.25l.71-.44.71.44v.25h-.43v-.18h.15v-.14h-.29v.46h.71v-.38h.43v-.47h-.38v.14h.19v.19h-.24l-.66-.4.66-.4h.24v.19z"
        fill="#fff" />
    <path
        d="m13.2 34.57h-.71a0 0 0 0 1 0 0v-.47s0 0 0 0h.29v.15h-.13v.14h.35v-.22l-.69-.43-.69.43v.22h.39v-.14h-.12s0 0 0 0v-.15s0 0 0 0h.29a0 0 0 0 1 0 0v.47s0 0 0 0h-.68s0 0 0 0v-.35h-.41s0 0 0 0v-.47s0 0 0 0h.38a0 0 0 0 1 0 0v.14s0 0 0 0h-.16v.11h.2l.63-.38-.63-.38h-.2v.15h.16s0 0 0 0v.14a0 0 0 0 1 0 0h-.38s0 0 0 0v-.47s0 0 0 0h.41v-.36h.72v.47s0 0 0 0h-.29a0 0 0 0 1 0 0v-.17s0 0 0 0h.12v-.14h-.39v.22l.69.42.69-.42v-.22h-.39v.14h.13a0 0 0 0 1 0 0v.14s0 0 0 0h-.29a0 0 0 0 1 0 0v-.47s0 0 0 0h.71s0 0 0 0v.36h.4s0 0 0 0v.47s0 0 0 0h-.38s0 0 0 0v-.14h.17v-.15h-.21l-.62.38.62.38h.21v-.15h-.17a0 0 0 0 1 0 0v-.14s0 0 0 0h.38s0 0 0 0v.47s0 0 0 0h-.4v.35a0 0 0 0 1 0 .07zm-.69 0h.67v-.36h.41v-.43h-.34v.09h.17s0 0 0 0v.13s0 0 0 0h-.25l-.66-.4s0 0 0 0l.66-.41h.25v.2a0 0 0 0 1 0 0h-.17v.1h.34v-.39h-.39a0 0 0 0 1 0 0v-.36h-.67v.42h.24v-.16h-.12v-.18s0 0 0 0h.43a0 0 0 0 1 0 0v.27l-.72.44s0 0 0 0l-.72-.44v-.27a0 0 0 0 1 0 0h.43a0 0 0 0 1 0 0v.18s0 0 0 0h-.07v.1h.24v-.42h-.67v.36a0 0 0 0 1 0 0h-.41v.43h.34v-.1h-.17a0 0 0 0 1 0 0v-.2a0 0 0 0 1 0 0h.25l.66.41s0 0 0 0l-.66.4h-.25s0 0 0 0v-.19s0 0 0 0h.17v-.09h-.34v.43h.41v.36h.67v-.39h-.24v.09h.12a0 0 0 0 1 0 0v.18a0 0 0 0 1 0 0h-.43a0 0 0 0 1 0 0v-.27l.72-.44.72.44v.27a0 0 0 0 1 0 0h-.43s0 0 0 0v-.18s0 0 0 0h.12v-.09h-.24z" />
    <path d="m13.53 32.84h.38v.78h.2v-1.02h-.53l-.76-.48v-.52l.48-.38h-.67v.79l-.28-.19v.26z" fill="#ffc72c" />
    <path
        d="m14.1 33.64h-.19a0 0 0 0 1 0 0v-.76h-.38l-1.17-.76s0 0 0 0v-.26s0 0 0 0l.25.17v-.75a0 0 0 0 1 0 0h.67s0 0 0 0l-.48.37v.5l.75.47h.51s0 0 0 0v1s.06.02.04.02zm-.17 0h.15v-1h-.51l-.77-.48a0 0 0 0 1 0 0v-.56s0 0 0 0l.43-.33h-.57v.73a0 0 0 0 1 0 0l-.25-.16v.2l1.16.74h.38s0 0 0 0z" />
    <path d="m11.17 32.84h-.38v.78h-.19v-1.02h.52l.76-.48v-.52l-.48-.38h.67v.79l.28-.19v.26z" fill="#fff" />
    <path
        d="m10.79 33.64h-.19s0 0 0 0v-1s0 0 0 0h.51l.75-.47v-.5l-.48-.37a0 0 0 0 1 0 0h.67a0 0 0 0 1 0 0v.7l.25-.17s0 0 0 0v.26s0 0 0 0l-1.17.76h-.38v.76a0 0 0 0 1 .04.03zm-.17 0h.15v-.76s0 0 0 0h.38l1.16-.74v-.2l-.25.16s0 0 0 0v-.76h-.58l.43.33s0 0 0 0v.52a0 0 0 0 1 0 0l-.77.48h-.51z" />
    <path d="m13.53 34.4h.38v-.78h.2v1.01h-.53l-.76.49v.52l.48.37h-.67v-.78l-.28.19v-.26z" fill="#fff" />
    <path
        d="m13.3 36h-.67s0 0 0 0v-.74l-.25.17v-.28s0 0 0 0l1.17-.76h.38v-.76h.19s0 0 0 0v1a0 0 0 0 1 0 0h-.51l-.75.47v.49l.48.38s0 0 0 0zm-.64 0h.57l-.43-.34v-.56l.77-.49h.51v-1h-.15v.76s0 0 0 0h-.38l-1.16.74v.2l.25-.16z" />
    <path d="m11.17 34.4h-.38v-.78h-.19v1.01h.52l.76.49v.52l-.48.37h.67v-.78l.28.19v-.26z" fill="#ffc72c" />
    <path
        d="m12.07 36h-.67a0 0 0 0 1 0 0l.48-.38v-.49l-.75-.47h-.53a0 0 0 0 1 0 0v-1s0 0 0 0h.19v.76h.38l1.17.76s0 0 0 0v.28l-.25-.17v.71s-.01 0-.02 0zm-.6 0h.58v-.8l.25.16v-.2l-1.16-.74h-.38s0 0 0 0v-.76h-.15v1h.51l.77.49v.54z"
        fill="#231f20" />
    <path d="m14.14 31.64v.27h-.37v-.27h-.33v.77h.33v-.27h.37v.27h.33v-.77z" fill="#d22630" />
    <path
        d="m14.47 32.43h-.33a0 0 0 0 1 0 0v-.24h-.34v.24s0 0 0 0h-.33a0 0 0 0 1 0 0v-.77a0 0 0 0 1 0 0h.33s0 0 0 0v.24h.32v-.24a0 0 0 0 1 0 0h.33a0 0 0 0 1 0 0v.77a0 0 0 0 1 .02 0zm-.3 0h.28v-.71h-.28v.24s0 0 0 0h-.37a0 0 0 0 1 0 0v-.24h-.28v.71h.28v-.24h.37s0 0 0 0z" />
    <path d="m15.35 32.73v.26h-.37v-.26h-.33v.76h.33v-.26h.37v.26h.33v-.76z" fill="#d22630" />
    <path
        d="m15.68 33.51h-.33s0 0 0 0v-.24h-.35v.24h-.33v-.77h.33v.26h.32v-.25s0 0 0 0h.33v.77zm-.31 0h.28v-.72h-.28v.21h-.37s0 0 0 0v-.24h-.28v.72h.28v-.24a0 0 0 0 1 0 0h.37s0 0 0 0z" />
    <path d="m14.67 31.89v.54h1z" fill="#ffc72c" />
    <path d="m15.67 32.45h-1a0 0 0 0 1 0 0v-.54s0 0 0 0l1 .54s0 0 0 0a0 0 0 0 1 0 0zm-1-.05h.87l-.87-.47z" />
    <path d="m10.56 31.64v.27h.37v-.27h.33v.77h-.33v-.27h-.37v.27h-.33v-.77z" fill="#d22630" />
    <path
        d="m11.26 32.43h-.33a0 0 0 0 1 0 0v-.24h-.33v.24a0 0 0 0 1 0 0h-.33a0 0 0 0 1 0 0v-.77a0 0 0 0 1 0 0h.33a0 0 0 0 1 0 0v.24h.33v-.24a0 0 0 0 1 0 0h.33a0 0 0 0 1 0 0v.77a0 0 0 0 1 0 0zm-.31 0h.28v-.71h-.23v.24a0 0 0 0 1 0 0h-.37a0 0 0 0 1 0 0v-.24h-.29v.71h.29v-.24h.37z" />
    <path d="m9.36 32.73v.26h.36v-.26h.33v.76h-.33v-.26h-.36v.26h-.33v-.76z" fill="#d22630" />
    <path
        d="m10.05 33.51h-.33v-.24h-.34v.24s0 0 0 0h-.38s0 0 0 0v-.77s0 0 0 0h.32s0 0 0 0v.26h.38v-.25h.33s0 0 0 0v.77s.04-.01.02-.01zm-.3 0h.25v-.72h-.25v.21s0 0 0 0h-.4v-.24h-.3v.72h.28v-.24s0 0 0 0h.37a0 0 0 0 1 0 0z" />
    <path d="m10.03 31.89v.54h-.99z" fill="#fff" />
    <path d="m10 32.45h-1l1-.54s0 0 0 0zm-.9-.05h.9v-.47z" />
    <path d="m14.14 35.6v-.27h-.37v.27h-.33v-.77h.33v.26h.37v-.26h.33v.77z" fill="#d22630" />
    <path
        d="m14.47 35.62h-.33v-.24h-.34v.24s0 0 0 0h-.33v-.77h.33s0 0 0 0v.24h.32v-.24h.33v.77zm-.3 0h.28v-.72h-.28v.24a0 0 0 0 1 0 0h-.37s0 0 0 0v-.24h-.28v.72h.28v-.24h.37s0 0 0 0z" />
    <path d="m15.35 34.51v-.26h-.37v.26h-.33v-.76h.33v.26h.37v-.26h.33v.76z" fill="#d22630" />
    <path
        d="m15.68 34.54h-.33a0 0 0 0 1 0 0v-.24h-.35v.24s0 0 0 0h-.33s0 0 0 0v-.76s0 0 0 0h.33s0 0 0 0v.22h.32v-.24a0 0 0 0 1 0 0h.33s0 0 0 0v.76s.04.02.03.02zm-.31 0h.28v-.72h-.28v.18s0 0 0 0h-.37a0 0 0 0 1 0 0v-.24h-.28v.72h.28v-.24s0 0 0 0h.37z" />
    <path d="m14.67 35.35v-.54h1z" fill="#fff" />
    <path d="m14.67 35.37s0 0 0 0v-.54a0 0 0 0 1 0 0h1s0 0 0 0zm0-.54v.48l.87-.48z" />
    <path d="m10.56 35.6v-.27h.37v.27h.33v-.77h-.33v.26h-.37v-.26h-.33v.77z" fill="#d22630" />
    <path
        d="m11.26 35.62h-.33v-.24h-.33v.24h-.33v-.77h.33v.24h.33v-.24h.33zm-.31 0h.28v-.72h-.23v.24s0 0 0 0h-.37s0 0 0 0v-.24h-.29v.72h.29v-.24h.37z" />
    <path d="m9.36 34.51v-.26h.36v.26h.33v-.76h-.33v.26h-.36v-.26h-.33v.76z" fill="#d22630" />
    <path
        d="m10.05 34.54h-.33s0 0 0 0v-.24h-.34v.24a0 0 0 0 1 0 0h-.38a0 0 0 0 1 0 0v-.76a0 0 0 0 1 0 0h.32a0 0 0 0 1 0 0v.22h.38v-.24s0 0 0 0h.33a0 0 0 0 1 0 0v.76a0 0 0 0 1 .02.02zm-.3 0h.25v-.72h-.25v.18a0 0 0 0 1 0 0h-.4s0 0 0 0v-.24h-.3v.72h.28v-.24h.37s0 0 0 0z" />
    <path d="m10.03 35.35v-.54h-.99z" fill="#ffc72c" />
    <path d="m10 35.37-1-.54a.1.1 0 0 1 0 0h1a0 0 0 0 1 0 0v.54s0 0 0 0zm-.9-.54.87.48v-.48z" />
    <g fill="#ffc72c">
        <path
            d="m14.22 39.17c.13-.19.51-.72.82-.82a1.68 1.68 0 0 1 -.47.76 4 4 0 0 1 1.35-.11 1.21 1.21 0 0 1 -.6.29c-.23 0-.84 0-1.06 0-.04-.04-.06-.08-.04-.12z" />
        <path
            d="m15.19 38.81a2.66 2.66 0 0 1 .4-1 .68.68 0 0 1 -.14.77 6.76 6.76 0 0 0 1.26-.58s.12.31-.49.62a1.69 1.69 0 0 1 -1.03.19z" />
        <path
            d="m16.05 38.05a2 2 0 0 0 -.13-.54c-.09-.17.09-.52.09-.52a2.21 2.21 0 0 1 .17.73 2.67 2.67 0 0 0 .79-.57s.1.12-.08.35a4 4 0 0 1 -.84.55z" />
        <path
            d="m16.42 37.24a.84.84 0 0 0 -.14-.39 1 1 0 0 1 -.1-.55 1.91 1.91 0 0 1 .35.66.53.53 0 0 0 .19-.18c.05-.11.2-.45.42-.52s-.1.49-.17.58a2.31 2.31 0 0 1 -.55.4z" />
        <path
            d="m16.67 36.43c-.05.06-.17-.29-.09-.67a1.05 1.05 0 0 1 .22-.51 1 1 0 0 1 .17.47 2.26 2.26 0 0 1 -.3.71z" />
        <path d="m15.34 39.54h-.15a2.91 2.91 0 0 1 -.56.11h-.05c-.46-.13-.92-.28-1.36-.45.19.06 2.12.31 2.12.34z" />
        <path d="m8.46 36.72-.14-.11a3.52 3.52 0 0 1 .2-.31.86.86 0 0 1 -.06.42z" />
        <path d="m8.06 36.42s0 0-.05 0a1.81 1.81 0 0 1 -.27-.66.93.93 0 0 1 .16-.47 1.31 1.31 0 0 1 .16 1.17z" />
        <path d="m17.83.15v.58l-.21-.22v-.29h-.27a.58.58 0 0 1 .19 0z" />
    </g>
    <path d="m17.63.5v-.28s0 0 0 0h-.08a.58.58 0 0 0 -.19 0h.24v.31l.24.24v-.07z" />
    <path
        d="m17.83 2.3v.37l-1-1 .17-.13-.45-.42.45-.38-.31-.24-.49.5-.49-.47h.22l.19.17.38-.34a2 2 0 0 1 .34 0l.63.6v.28h-.27v-.36l-.2.23.43.42-.19.18z"
        fill="#ffc72c" />
    <path
        d="m17.24 1.71.19-.17-.43-.43.17-.17v.22a0 0 0 0 0 0 0h.32a0 0 0 0 0 0 0v-.3l-.57-.58h-.07l.65.59v.26h-.29v-.25s0 0 0 0l-.23.22.43.41-.18.16.64.59v-.01zm-.81-1.35s0 0-.05 0h.05l-.24.23-.19-.14.21.2.3-.28s0 0 0 0h-.08zm.43 1.35.14-.16s0 0 0 0l-.42-.41.42-.38a0 0 0 0 0 0 0l-.3-.27a0 0 0 0 0 0 0l-.5.45-.46-.43s0 0 0 0l.48.47s0 0 0 0l.48-.47.24.21-.38.37.42.41-.16.16 1 1v-.01z" />
    <path d="m17.13 7.37.21.21h.27v.29l.23.22v-.72z" fill="#ffc72c" />
    <path d="m17.1 7.37.22.22h.27v.29l.24.24v-.06l-.2-.2v-.28a0 0 0 0 0 0 0h-.26l-.19-.18z" />
    <path
        d="m16.68 7.86.28.25-.39.37.44.42-.18.18 1.01.96v-.39l-.63-.58.2-.19-.45-.42.23-.21v.28h.33v-.29l-.81-.75h-.43v.23h.22l-.31.28-.69-.63h-.33l1.03.98z"
        fill="#ffc72c" />
    <path
        d="m15.15 7.37 1 1 .47-.47.25.22-.38.36.42.4-.16.16 1 1v-.04l-1-.93.25-.15s0 0 0 0l-.42-.41.42-.39-.28-.25-.47.47-1-.94zm2 1.72.65.59v-.06l-.6-.55.18-.17s0 0 0 0a0 0 0 0 0 0 0l-.38-.44.17-.16v.23a0 0 0 0 0 0 0h.33a0 0 0 0 0 0 0v-.29l-.81-.76h-.45s0 0 0 0v.23s0 0 0 0h.15l-.2.29-.65-.6h-.07l.71.65.3-.28a0 0 0 0 0 0 0h-.21v-.26h.39l.8.74v.26h-.28v-.26l-.18.2s0 0 0 0l.42.4-.18.17z" />
    <path d="m15.85 7.37.21.18v-.18z" fill="#ffc72c" />
    <path d="m15.84 7.37.2.17v-.17.1l-.11-.1z" />
    <path d="m17.13 7.37.21-.21h.27v-.3l.23-.22v.73z" fill="#ffc72c" />
    <path d="m17.16 7.37.19-.19h.26s0 0 0 0v-.31l.2-.2v-.06l-.24.24a0 0 0 0 0 0 0v.27h-.27l-.22.23z" />
    <path
        d="m16.68 6.87.28-.24-.39-.38.44-.42-.18-.17 1.01-.97v.39l-.63.58.2.19-.45.42.23.22v-.29h.33v.29l-.81.76h-.43v-.24h.22l-.31-.28-.69.64h-.33l1.03-.98z"
        fill="#ffc72c" />
    <path
        d="m15.21 7.37 1-1 .47.47a0 0 0 0 0 0 0l.32-.2-.38-.36.42-.4-.16-.15 1-.94v-.13l-1 1s0 0 0 0l.16.16-.42.4.38.36-.25.21-.47-.47-1 1s0 0 0 0zm2-1.71.18.17-.42.4s0 0 0 0l.23.22a0 0 0 0 0 0 0v-.22h.28v.25l-.8.74h-.39v-.22h.21a0 0 0 0 0 0 0l-.3-.28-.71.66h.07l.65-.61.24.23h-.15a0 0 0 0 0 0 0v.24a0 0 0 0 0 0 0h.45l.81-.75v-.29a0 0 0 0 0 0 0h-.33a0 0 0 0 0 0 0v.23l-.23-.16.42-.4s0 0 0 0l-.18-.17.6-.55v-.1l-.65.6z" />
    <path d="m15.85 7.37.21-.19v.19z" fill="#ffc72c" />
    <path d="m15.92 7.37.08-.11v.11-.16s0 0 0 0l-.2.18z" />
    <path d="m7.57 7.37-.21.21h-.27v.29l-.22.22v-.72z" fill="#ffc72c" />
    <path d="m7.54 7.37-.19.18h-.26a0 0 0 0 0 0 0v.28l-.19.2v.07l.24-.24v-.26h.27l.22-.22z" />
    <path
        d="m8.02 7.86-.28.25.39.37-.44.42.19.18-1.01.96v-.39l.63-.58-.2-.19.44-.42-.23-.21v.28h-.33v-.29l.81-.75h.43v.23h-.21l.3.28.69-.63h.33l-1.02.98z"
        fill="#ffc72c" />
    <path
        d="m9.49 7.37-1 .94-.49-.47-.27.25s0 0 0 0l.38.36-.42.41s0 0 0 0l.16.16-1 .93v.07l1-1-.12-.12.42-.4-.37-.36.22-.25.47.47 1-1h.02zm-2 1.7-.18-.17.42-.4s0 0 0 0l-.22-.22v.26h-.31v-.29l.8-.74h.39v.19h-.21a0 0 0 0 0 0 0l.3.28.7-.65h-.02l-.65.67-.24-.22h.15s0 0 0 0v-.29s0 0 0 0h-.42l-.82.76v.29a0 0 0 0 0 0 0h.33v-.24l.17.16-.42.41.18.17-.59.55v.06l.64-.59z" />
    <path d="m8.85 7.37-.21.18v-.18z" fill="#ffc72c" />
    <path d="m8.79 7.37-.12.1v-.1h-.05v.18l.2-.17z" />
    <path d="m7.57 7.37-.21-.21h-.27v-.3l-.22-.22v.73z" fill="#ffc72c" />
    <path d="m7.6 7.37-.22-.23h-.27v-.28l-.24-.24v.06l.19.2v.29h.26l.19.19z" />
    <path
        d="m9.53 7.37h-.34l-.68-.63-.3.26h.21v.24h-.42l-.81-.76v-.27h.33v.28l.23-.23-.45-.41.2-.19-.62-.57v-.09l.18-.15.81.79-.18.17.44.42-.39.38.26.26.49-.48z"
        fill="#ffc72c" />
    <path
        d="m8.53 6.71-.34.29h.21v.19h-.4l-.8-.74v-.23h.27v.27a0 0 0 0 0 0 0l.23-.22s0 0 0 0l-.42-.4.18-.17s0 0 0 0l-.64-.59v.07l.6.54-.19.17.43.39-.18.18v-.25s0 0 0 0h-.3v.28a0 0 0 0 0 0 0l.82.77h.43s0 0 0 0v-.26s0 0 0 0h-.17l.25-.23.66.61h.06zm1 .63-1-1-.53.5-.24-.21.37-.37-.43-.41.18-.16-.83-.78.79.77-.16.16s0 0 0 0l.42.4-.38.36.28.29s0 0 0 0l.48-.46 1 .94h.07s-.01-.01-.01-.03z" />
    <path d="m8.85 7.37-.21-.19v.19z" fill="#ffc72c" />
    <path d="m8.86 7.37-.2-.18v.18h.05v-.11l.12.11z" />
    <path d="m17.13 14.99.21.21h.27v.3l.23.22v-.73z" fill="#ffc72c" />
    <path d="m17.1 15 .22.23h.27v.27l.24.24v-.06l-.2-.2v-.28s0 0 0 0h-.26l-.21-.2z" />
    <path
        d="m16.68 15.49.28.24-.39.38.44.42-.18.17 1.01.97v-.39l-.63-.58.2-.19-.45-.42.23-.22v.29h.33v-.29l-.81-.76h-.43v.24h.22l-.31.28-.69-.64h-.33l1.03.98z"
        fill="#ffc72c" />
    <path
        d="m15.15 15s0 0 0 0l1 1 .47-.47.25.21-.38.36.42.4-.16.16s0 0 0 0l1 1v-.06l-1-.94.16-.15s0 0 0 0l-.42-.4.38-.36-.28-.24-.47.47-1-.95zm2 1.72.65.6v-.06l-.6-.55.18-.17s0 0 0 0l-.42-.4.17-.16v.23a0 0 0 0 0 0 0h.33a0 0 0 0 0 0 0v-.31l-.81-.75h-.45a0 0 0 0 0 0 0v.24a0 0 0 0 0 0 0h.15l-.24.23-.57-.62h-.07l.71.66.3-.28a0 0 0 0 0 0 0h-.21v-.19h.39l.8.74v.25h-.28v-.26a0 0 0 0 0 0 0l-.23.22s0 0 0 0l.42.4-.18.17z" />
    <path d="m15.85 14.99.21.19v-.19z" fill="#ffc72c" />
    <path d="m15.84 15 .2.18s0 0 0 0v-.18.11l-.12-.11z" />
    <path d="m17.13 14.99.21-.21h.27v-.29l.23-.22v.72z" fill="#ffc72c" />
    <path d="m17.16 15 .19-.18h.26a0 0 0 0 0 0 0v-.32l.2-.2v-.07l-.24.24v.29h-.27l-.2.24z" />
    <path
        d="m16.68 14.5.28-.25-.39-.37.44-.42-.18-.18 1.01-.96v.39l-.63.58.2.19-.45.41.23.22v-.28h.33v.29l-.81.75h-.43v-.23h.22l-.31-.28-.69.63h-.33l1.03-.98z"
        fill="#ffc72c" />
    <path
        d="m15.21 15 1-.94.47.47.28-.25-.38-.36.42-.41s0 0 0 0l-.16-.16 1-.93v-.07l-1 1 .16.16-.42.4.38.36-.25.22-.5-.49-1 1h.05zm2-1.7.18.17-.42.4s0 0 0 0l.23.22v-.26h.28v.26l-.8.74h-.39v-.19h.21a0 0 0 0 0 0 0l-.3-.28-.71.65h.07l.65-.6.24.22h-.15s0 0 0 0v.23s0 0 0 0h.45l.81-.76v-.29a0 0 0 0 0 0 0h-.33a0 0 0 0 0 0 0v.23l-.23-.14.42-.41s0 0 0 0l-.18-.17.6-.55v-.06l-.65.59z" />
    <path d="m15.85 14.99.21-.18v.18z" fill="#ffc72c" />
    <path d="m15.92 15 .11-.1v.1-.18l-.2.17z" />
    <path d="m7.57 14.99-.21.21h-.27v.3l-.22.22v-.73z" fill="#ffc72c" />
    <path d="m7.54 15-.19.19h-.26v.29l-.19.2v.06l.24-.24v-.27h.27l.19-.23z" />
    <path
        d="m8.02 15.49-.28.24.39.38-.44.42.19.17-1.01.97v-.39l.63-.58-.2-.19.44-.42-.23-.22v.29h-.33v-.29l.81-.76h.43v.24h-.21l.3.28.69-.64h.33l-1.02.98z"
        fill="#ffc72c" />
    <path
        d="m9.49 15-1 .95-.49-.48-.27.24.38.36-.42.4s0 0 0 0l.16.15-1 .94v.06l1-1s0 0 0 0l-.16-.16.42-.4s0 0 0 0l-.37-.36.26-.18.47.47 1-1zm-2 1.71s0 0 0 0l-.18-.17.42-.4s0 0 0 0l-.22-.22v.26h-.31v-.25l.8-.74h.39v.19h-.21a0 0 0 0 0 0 0l.3.28.7-.66h-.02l-.65.61-.24-.23h.15v-.24h-.42l-.82.75v.31a0 0 0 0 0 0 0h.33a0 0 0 0 0 0 0v-.23l.17.16-.42.4s0 0 0 0a0 0 0 0 1 0 0l.18.17-.59.55v.06l.64-.6a0 0 0 0 0 .03-.01z" />
    <path d="m8.85 14.99-.21.19v-.19z" fill="#ffc72c" />
    <path d="m8.79 15-.12.11v-.11h-.05v.18l.2-.18z" />
    <path d="m7.57 14.99-.21-.21h-.27v-.29l-.22-.22v.72z" fill="#ffc72c" />
    <path d="m7.6 15-.22-.22h-.27v-.29l-.24-.24v.07l.19.2v.28a0 0 0 0 0 0 0h.26l.19.18z" />
    <path
        d="m8.02 14.5-.28-.25.39-.37-.44-.42.19-.18-1.01-.96v.39l.63.58-.2.19.44.41-.23.22v-.28h-.33v.29l.81.75h.43v-.23h-.21l.3-.28.69.63h.33l-1.02-.98z"
        fill="#ffc72c" />
    <path
        d="m9.55 15-1-1-.55.47-.24-.22.37-.36a0 0 0 0 0 0 0l-.42-.4.16-.16-1-1v.07l1 .93-.16.16s0 0 0 0l.42.41-.38.36s0 0 0 0l.27.25h-.02l.47-.47 1 .94zm-2-1.72-.64-.59v.06l.59.55-.18.17.42.41-.17.16v-.23h-.39v.29l.82.76h.44s0 0 0 0v-.23s0 0 0 0h-.17l.24-.22.65.6h.07l-.7-.65-.3.28a0 0 0 0 0 0 0h.21v.19h-.44l-.8-.74v-.26h.28v.26l.22-.22s0 0 0 0l-.42-.4.18-.17a0 0 0 0 0 0 0z" />
    <path d="m8.85 14.99-.21-.18v.18z" fill="#ffc72c" />
    <path d="m8.86 15-.2-.17v.17h.05v-.1l.12.1z" />
    <path d="m17.13 22.6.21.21h.27v.3l.23.22v-.73z" fill="#ffc72c" />
    <path d="m17.1 22.6.22.23h.27v.26s0 0 0 0l.24.24v-.07l-.2-.19v-.29s0 0 0 0h-.26l-.19-.19z" />
    <path
        d="m16.68 23.09.28.25-.39.38.44.42-.18.17 1.01.97v-.39l-.63-.59.2-.18-.45-.42.23-.22v.28h.33v-.28l-.81-.76h-.43v.24h.22l-.31.28-.69-.64h-.33l1.03.98z"
        fill="#ffc72c" />
    <path
        d="m15.15 22.6 1 1 .47-.47.25.21-.38.36.42.4-.16.16s0 0 0 0l1 1v-.07l-1-.93.16-.16s0 0 0 0l-.42-.4.38-.36-.28-.24-.47.47-1-.95zm2 1.72.65.6v-.07l-.6-.55.18-.17s0 0 0 0l-.38-.43.17-.17v.23s0 0 0 0h.33s0 0 0 0v-.3l-.81-.76h-.45a0 0 0 0 0 0 0v.3a0 0 0 0 0 0 0h.15l-.24.22-.65-.6h-.07l.71.65s0 0 0 0l.3-.28s0 0 0 0h-.18v-.18h.39l.8.74v.25h-.28v-.26a0 0 0 0 0 0 0l-.23.22s0 0 0 0l.42.4-.18.17z" />
    <path d="m15.85 22.6.21.18v-.18z" fill="#ffc72c" />
    <path d="m15.84 22.6.2.18s0 0 0 0v-.18.11l-.11-.11z" />
    <path d="m17.13 22.6.21-.21h.27v-.29l.23-.23v.73z" fill="#ffc72c" />
    <path d="m17.16 22.6.19-.19h.26s0 0 0 0v-.28l.2-.2v-.07l-.24.24s0 0 0 0v.27h-.27l-.22.23z" />
    <path
        d="m16.68 22.11.28-.25-.39-.38.44-.41-.18-.18 1.01-.96v.39l-.63.58.2.19-.45.41.23.22v-.28h.33v.29l-.81.75h-.43v-.23h.22l-.31-.29-.69.64h-.33l1.03-.98z"
        fill="#ffc72c" />
    <path
        d="m15.21 22.6 1-1 .47.47.28-.24-.38-.36.42-.4s0 0 0 0l-.16-.16 1-.93v-.07l-1 1s0 0 0 0l.16.15-.42.41.38.36-.25.21-.47-.47-1 1s0 0 0 0zm2-1.7.18.18-.42.4a0 0 0 0 0 0 0s0 0 0 0l.23.22s0 0 0 0a0 0 0 0 0 0 0v-.26h.28v.25l-.8.75h-.39v-.19h.18s0 0 0 0l-.3-.28-.71.65h.07l.65-.6.24.22h-.15a0 0 0 0 0 0 0v.24a0 0 0 0 0 0 0h.45l.81-.76v-.29s0 0 0 0h-.33s0 0 0 0v.23l-.2-.16.42-.4a0 0 0 0 0 0 0s0 0 0 0l-.18-.17.6-.55v-.07l-.65.6z" />
    <path d="m15.85 22.6.21-.18v.18z" fill="#ffc72c" />
    <path d="m15.92 22.6.11-.11v.11-.16s0 0 0 0l-.2.18z" />
    <path d="m7.57 22.6-.21.21h-.27v.3l-.22.22v-.73z" fill="#ffc72c" />
    <path d="m7.54 22.6-.19.19h-.26v.29l-.19.19v.07l.24-.24v-.28h.27l.22-.23z" />
    <path
        d="m8.02 23.09-.28.25.39.38-.44.42.19.17-1.01.97v-.39l.63-.59-.2-.18.44-.42-.23-.22v.28h-.33v-.28l.81-.76h.43v.24h-.21l.3.28.69-.64h.33l-1.02.98z"
        fill="#ffc72c" />
    <path
        d="m9.49 22.6-1 .95-.49-.47-.27.24s0 0 0 0l.38.36-.42.4s0 0 0 0l.16.16-1 .93v.07l1-1s0 0 0 0l-.16-.16.42-.4s0 0 0 0l-.37-.36.26-.19.47.47 1-1zm-2 1.71s0 0 0 0l-.18-.17.42-.4s0 0 0 0l-.22-.22s0 0 0 0a0 0 0 0 0 0 0v.26h-.31v-.25l.8-.74h.39v.18h-.18s0 0 0 0l.3.28a0 0 0 0 0 0 0l.7-.65h-.05l-.65.6-.24-.2h.15a0 0 0 0 0 0 0v-.24a0 0 0 0 0 0 0h-.42l-.82.76v.3s0 0 0 0h.33s0 0 0 0v-.23l.17.17-.42.4a0 0 0 0 0 0 0l.18.17-.59.55v.07l.64-.6a0 0 0 0 0 .03-.04z" />
    <path d="m8.85 22.6-.21.18v-.18z" fill="#ffc72c" />
    <path d="m8.79 22.6-.12.11v-.11h-.05v.18l.2-.18z" />
    <path d="m7.57 22.6-.21-.21h-.27v-.29l-.22-.23v.73z" fill="#ffc72c" />
    <path d="m7.6 22.6-.22-.23h-.27v-.29l-.24-.24v.07l.19.2v.28h.26l.19.19z" />
    <path
        d="m8.02 22.11-.28-.25.39-.38-.44-.41.19-.18-1.01-.96v.39l.63.58-.2.19.44.41-.23.22v-.28h-.33v.29l.81.75h.43v-.23h-.21l.3-.29.69.64h.33l-1.02-.98z"
        fill="#ffc72c" />
    <path
        d="m9.55 22.6-1-1-.55.47-.24-.21.37-.36-.42-.41.16-.15s0 0 0 0l-1-1v.06l1 .93-.16.16s0 0 0 0l.42.4-.38.36s0 0 0 0l.27.24h-.02l.47-.47 1 1zm-2-1.72-.64-.6v.07l.59.55-.18.17a0 0 0 0 0 0 0l.42.4-.17.17v-.23s0 0 0 0h-.39s0 0 0 0v.29l.82.8h.44v-.24h-.17l.24-.26.65.6h.07l-.7-.6-.3.28s0 0 0 0h.18v.19h-.41l-.8-.75v-.25h.28v.26a0 0 0 0 0 0 0l.22-.22s0 0 0 0a0 0 0 0 0 0 0l-.42-.4.18-.18a0 0 0 0 0 0 0s.06-.05.05-.05z" />
    <path d="m8.85 22.6-.21-.18v.18z" fill="#ffc72c" />
    <path d="m8.86 22.6-.2-.18a0 0 0 0 0 0 0v.16h.05v-.11l.12.11z" />
    <path d="m17.13 30.23.21.21h.27v.29l.23.22v-.72z" fill="#ffc72c" />
    <path d="m17.1 30.23.22.22h.27v.29l.24.24v-.07l-.2-.2v-.28a0 0 0 0 0 0 0h-.26l-.19-.18z" />
    <path
        d="m16.68 30.72.28.24-.39.38.44.42-.18.18 1.01.96v-.39l-.63-.58.2-.19-.45-.42.23-.22v.29h.33v-.29l-.81-.75h-.43v.23h.22l-.31.28-.69-.63h-.33l1.03.97z"
        fill="#ffc72c" />
    <path
        d="m15.15 30.23 1 1a0 0 0 0 0 0 0l.47-.47.25.22-.38.36.42.4-.16.16s0 0 0 0l1 1v-.06l-1-.93.16-.16s0 0 0 0l-.42-.4.51-.35-.28-.25-.47.47-1-.94zm2 1.72.65.59v-.06l-.6-.55.18-.17s0 0 0 0l-.42-.4.17-.16v.23a0 0 0 0 0 0 0h.33a0 0 0 0 0 0 0v-.31l-.81-.75h-.45s0 0 0 0v.23a0 0 0 0 0 0 0h.15l-.24.23-.65-.6h-.07l.71.65s0 0 0 0l.3-.28a0 0 0 0 0 0 0h-.21v-.19h.39l.8.74v.25h-.28v-.3s0 0 0 0l-.23.22a0 0 0 0 0 0 0s0 0 0 0l.42.4-.18.17s0 0 0 0 .08.05.08.11z" />
    <path d="m15.85 30.23.21.18v-.18z" fill="#ffc72c" />
    <path d="m15.84 30.23.2.17a0 0 0 0 0 0 0v-.15.1l-.11-.1z" />
    <path d="m17.13 30.23.21-.22h.27v-.29l.23-.22v.73z" fill="#ffc72c" />
    <path d="m17.16 30.23.19-.19h.26a0 0 0 0 0 0 0v-.28l.2-.2v-.07l-.24.24v.27h-.27l-.22.23z" />
    <path
        d="m16.68 29.73.28-.25-.39-.37.44-.42-.18-.18 1.01-.96v.39l-.63.58.2.19-.45.42.23.22v-.29h.33v.29l-.81.75h-.43v-.23h.22l-.31-.28-.69.64h-.33l1.03-.98z"
        fill="#ffc72c" />
    <path
        d="m15.21 30.23 1-.95.47.47a0 0 0 0 0 0 0l.32-.25-.38-.36.42-.4s0 0 0 0l-.16-.16 1-.93v-.06l-1 1a0 0 0 0 0 0 0s0 0 0 0l.16.16-.42.4.38.36-.25.22-.47-.47a0 0 0 0 0 0 0l-1 1s0 0 0 0zm2-1.71s0 0 0 0l.18.17-.42.4s0 0 0 0a0 0 0 0 0 0 0l.23.22s0 0 0 0v-.26h.28v.25l-.8.74h-.39v-.19h.21a0 0 0 0 0 0 0l-.3-.28s0 0 0 0l-.71.66h.07l.65-.61.24.23h-.15a0 0 0 0 0 0 0v.23s0 0 0 0h.45l.81-.75v-.31a0 0 0 0 0 0 0h-.33a0 0 0 0 0 0 0v.23l-.23-.12.42-.4s0 0 0 0l-.18-.17.6-.55v-.06l-.65.59s-.01-.03-.01-.02z" />
    <path d="m15.85 30.23.21-.19v.19z" fill="#ffc72c" />
    <path d="m15.92 30.23.11-.11v.11-.16a0 0 0 0 0 0 0l-.2.18z" />
    <path d="m7.57 30.23-.21.21h-.27v.29l-.22.22v-.72z" fill="#ffc72c" />
    <path d="m7.54 30.23-.19.18h-.26a0 0 0 0 0 0 0v.28l-.19.2v.11l.24-.24v-.29h.27l.22-.22z" />
    <path
        d="m8.02 30.72-.28.24.39.38-.44.42.19.18-1.01.96v-.39l.63-.58-.2-.19.44-.42-.23-.22v.29h-.33v-.29l.81-.75h.43v.23h-.21l.3.28.69-.63h.33l-1.02.97z"
        fill="#ffc72c" />
    <path
        d="m9.49 30.23-1 .94-.49-.47-.27.3a0 0 0 0 0 0 0l.38.36-.42.4s0 0 0 0l.16.16-1 .93v.06l1-1s0 0 0 0l-.16-.16.42-.4a0 0 0 0 0 0 0l-.33-.35.22-.25.47.47a0 0 0 0 0 0 0l1-1h.02zm-2 1.7-.18-.17.42-.4s0 0 0 0a0 0 0 0 0 0 0l-.22-.22s0 0 0 0v.26h-.31v-.25l.8-.74h.39v.19h-.21a0 0 0 0 0 0 0l.3.28a0 0 0 0 0 0 0l.7-.65h-.02l-.65.6-.24-.23h.15a0 0 0 0 0 0 0v-.23s0 0 0 0h-.42l-.82.75v.31a0 0 0 0 0 0 0h.33v-.23l.17.16-.42.4s0 0 0 0l.18.17-.59.55v.06l.66-.54s.01-.06.01-.07z" />
    <path d="m8.85 30.23-.21.18v-.18z" fill="#ffc72c" />
    <path d="m8.79 30.23-.12.1v-.1h-.05v.15s0 0 0 0l.2-.17z" />
    <path d="m7.57 30.23-.21-.22h-.27v-.29l-.22-.22v.73z" fill="#ffc72c" />
    <path d="m7.6 30.23-.22-.23h-.27v-.3l-.24-.24v.07l.19.2v.27a0 0 0 0 0 0 0h.26l.19.19z" />
    <path
        d="m8.02 29.73-.28-.25.39-.37-.44-.42.19-.18-1.01-.96v.39l.63.58-.2.19.44.42-.23.22v-.29h-.33v.29l.81.75h.43v-.23h-.21l.3-.28.69.64h.33l-1.02-.98z"
        fill="#ffc72c" />
    <path
        d="m9.55 30.23-1-1a0 0 0 0 0 0 0l-.55.47-.24-.22.37-.36-.42-.4.16-.16s0 0 0 0a0 0 0 0 0 0 0l-1-1v.06l1 .93-.16.16s0 0 0 0l.42.4-.38.36a0 0 0 0 0 0 0l.27.25a0 0 0 0 0 0 0l.47-.47 1 .95zm-2-1.73-.64-.59v.09l.59.55-.18.17s0 0 0 0l.42.4-.17.16v-.23h-.39v.31l.82.75h.44s0 0 0 0v-.23a0 0 0 0 0 0 0h-.17l.24-.23.65.61h.07l-.7-.66a0 0 0 0 0 0 0l-.3.28a0 0 0 0 0 0 0h.21v.19h-.44l-.8-.74v-.25h.28v.26l.22-.22a0 0 0 0 0 0 0s0 0 0 0l-.42-.4.18-.17s0 0 0 0z" />
    <path d="m8.85 30.23-.21-.19v.19z" fill="#ffc72c" />
    <path d="m8.86 30.23-.2-.18s0 0 0 0v.16h.05v-.11l.12.11z" />
</svg>