<svg viewBox="0 0 40.5 40.5" xmlns="http://www.w3.org/2000/svg">
    <path d="m38.12 29.75a20.08 20.08 0 0 1 -5.88 6.81l-29.86-25.81a20.08 20.08 0 0 1 5.88-6.81z" />
    <path d="m32.24 36.56a20.1 20.1 0 0 1 -12 3.94 20.26 20.26 0 0 1 -18.85-27.63 16.35 16.35 0 0 1 1-2.12z"
        fill="#da1a35" />
    <path
        d="m40.5 20.25a20.09 20.09 0 0 1 -1.39 7.38 16.35 16.35 0 0 1 -1 2.12l-29.85-25.81a20.1 20.1 0 0 1 11.99-3.94 20.25 20.25 0 0 1 20.25 20.25z"
        fill="#da1a35" />
    <g fill="#fff">
        <path d="m32.24 36.56a20 20 0 0 1 -2 1.28l-28.89-25a16.35 16.35 0 0 1 1-2.12z" />
        <path d="m39.11 27.63a16.35 16.35 0 0 1 -1 2.12l-29.85-25.81a20 20 0 0 1 2-1.28z" />
    </g>
</svg>