<svg viewBox="0 0 40.5 40.5" xmlns="http://www.w3.org/2000/svg">
    <path
        d="m31 3.12h-21.54a19.86 19.86 0 0 1 2.07-1.12l.39-.17a2.52 2.52 0 0 1 .34-.15c.13-.07.27-.12.4-.18a20.22 20.22 0 0 1 7.48-1.5h.11a20.15 20.15 0 0 1 10.75 3.12z"
        fill="#b22234" />
    <path d="m34.84 6.24h-29.18a19.33 19.33 0 0 1 3.8-3.12h21.54a19.33 19.33 0 0 1 3.84 3.12z" fill="#fff" />
    <path d="m37.3 9.34h-34.1c.19-.29.38-.58.58-.86l.09-.14a21.1 21.1 0 0 1 1.79-2.1h29.18a19.49 19.49 0 0 1 2.46 3.1z"
        fill="#b22234" />
    <path d="m39 12.46h-37.45c.12-.28.25-.57.38-.85l.55-1.09c.23-.41.46-.8.72-1.18h34.1a21.11 21.11 0 0 1 1.7 3.12z"
        fill="#fff" />
    <path d="m40 15.58h-39.46a20.3 20.3 0 0 1 1-3.12h37.46a20.3 20.3 0 0 1 1 3.12z" fill="#b22234" />
    <path
        d="m40.43 18.7h-40.36a2 2 0 0 1 0-.43 3.85 3.85 0 0 1 .05-.5 1.52 1.52 0 0 1 0-.21c0-.16 0-.32 0-.47.08-.51.18-1 .3-1.51h39.58a18.78 18.78 0 0 1 .43 3.12z"
        fill="#fff" />
    <path
        d="m40.5 20.25a13.2 13.2 0 0 1 -.07 1.55h-40.36a13.2 13.2 0 0 1 -.07-1.55 13.2 13.2 0 0 1 .07-1.55h40.36a13.2 13.2 0 0 1 .07 1.55z"
        fill="#b22234" />
    <path d="m40.43 21.8a18.78 18.78 0 0 1 -.43 3.12h-39.46a18.78 18.78 0 0 1 -.47-3.12z" fill="#fff" />
    <path d="m40 24.92a20.3 20.3 0 0 1 -1 3.08h-37.45a20.3 20.3 0 0 1 -1-3.12z" fill="#b22234" />
    <path d="m39 28a21.11 21.11 0 0 1 -1.65 3.12h-34.15a21.11 21.11 0 0 1 -1.65-3.12z" fill="#fff" />
    <path d="m37.3 31.16a19.49 19.49 0 0 1 -2.46 3.1h-29.18a19.49 19.49 0 0 1 -2.46-3.1z" fill="#b22234" />
    <path d="m34.84 34.26a19.33 19.33 0 0 1 -3.84 3.12h-21.54a19.33 19.33 0 0 1 -3.8-3.12z" fill="#fff" />
    <path d="m31 37.38a20.22 20.22 0 0 1 -21.58 0z" fill="#b22234" />
    <path
        d="m20.14 0v21.8h-20.07a13.2 13.2 0 0 1 -.07-1.55 13.2 13.2 0 0 1 .07-1.55 2 2 0 0 1 0-.43 3.85 3.85 0 0 1 .05-.5 1.52 1.52 0 0 1 0-.21c0-.16 0-.32 0-.47.08-.51.18-1 .3-1.51a20.3 20.3 0 0 1 1-3.12c.12-.28.25-.57.38-.85l.55-1.09c.23-.41.46-.8.72-1.18s.38-.58.58-.86l.09-.14a21.1 21.1 0 0 1 1.79-2.1 19.33 19.33 0 0 1 3.8-3.12 19.86 19.86 0 0 1 2.2-1.12l.39-.17a2.52 2.52 0 0 1 .34-.15c.13-.07.27-.12.4-.18a20.22 20.22 0 0 1 7.48-1.5z"
        fill="#3c3b6e" />
    <g fill="#fff">
        <path d="m9.92 3.12.28.86h.9l-.73.53.28.86-.73-.54-.73.54.27-.86-.73-.53h.91z" />
        <path d="m15.05 3.12.28.86h.9l-.73.53.28.86-.73-.54-.73.54.28-.86-.74-.53h.91z" />
        <path
            d="m5.39 9.34.13.39-.52-.39-.19-.13-.19.13-.55.39.13-.39.15-.46-.55-.4.09-.14h.64l.28-.85.27.85h.92l-.73.54z" />
        <path d="m9.92 7.49.28.86h.9l-.73.53.28.86-.73-.53-.73.53.27-.86-.73-.53h.91z" />
        <path d="m15.05 7.49.28.86h.9l-.73.53.28.86-.73-.53-.73.53.28-.86-.74-.53h.91z" />
        <path d="m4.79 11.86.28.86h.9l-.73.53.28.86-.73-.53-.74.53.28-.86-.73-.53h.91z" />
        <path d="m9.92 11.86.28.86h.9l-.73.53.28.86-.73-.53-.73.53.27-.86-.73-.53h.91z" />
        <path d="m15.05 11.86.28.86h.9l-.73.53.28.86-.73-.53-.73.53.28-.86-.74-.53h.91z" />
        <path d="m.16 17.77.23.71-.28-.21a3.85 3.85 0 0 1 .05-.5z" />
        <path d="m.84 17.09-.65.47c0-.16 0-.32 0-.47z" />
        <path d="m4.79 16.23.28.86h.9l-.73.53.28.86-.73-.53-.74.53.28-.86-.73-.53h.91z" />
        <path d="m9.92 16.23.28.86h.9l-.73.53.28.86-.73-.53-.73.53.27-.86-.73-.53h.91z" />
        <path d="m15.05 16.23.28.86h.9l-.73.53.28.86-.73-.53-.73.53.28-.86-.74-.53h.91z" />
        <path
            d="m13.19 3.12v.07l-.1-.07-.63-.46-.65.46-.09.07v-.07l.28-.78-.47-.34.39-.17h.28l.06-.15c.13-.07.27-.12.4-.18l.1.33h.9l-.73.54z" />
        <path d="m17.61.94.28.86h.91l-.74.53.28.86-.73-.53-.73.53.28-.86-.73-.53h.9z" />
        <path d="m7.35 5.31.28.86h.9l-.73.53.28.86-.73-.53-.73.53.28-.86-.73-.53h.9z" />
        <path d="m12.48 5.31.28.86h.9l-.73.53.28.86-.73-.53-.73.53.28-.86-.73-.53h.9z" />
        <path d="m17.61 5.31.28.86h.91l-.74.53.28.86-.73-.53-.73.53.28-.86-.73-.53h.9z" />
        <path d="m2.67 11.07.29.86-.73-.52-.3.2.55-1.09h.9z" />
        <path d="m7.35 9.68.28.86h.9l-.73.53.28.86-.73-.53-.73.53.28-.86-.73-.53h.9z" />
        <path d="m12.48 9.68.28.86h.9l-.73.53.28.86-.73-.53-.73.53.28-.86-.73-.53h.9z" />
        <path d="m17.61 9.68.28.86h.91l-.74.53.28.86-.73-.53-.73.53.28-.86-.73-.53h.9z" />
        <path d="m2.22 14.06.28.86h.9l-.73.53.28.86-.73-.53-.73.53.28-.86-.73-.53h.9z" />
        <path d="m7.35 14.06.28.86h.9l-.73.53.28.86-.73-.53-.73.53.28-.86-.73-.53h.9z" />
        <path d="m12.48 14.06.28.86h.9l-.73.53.28.86-.73-.53-.73.53.28-.86-.73-.53h.9z" />
        <path d="m17.61 14.06.28.86h.91l-.74.53.28.86-.73-.53-.73.53.28-.86-.73-.53h.9z" />
        <path d="m2.22 18.38.28.86h.9l-.73.53.28.86-.73-.53-.73.53.28-.86-.73-.53h.9z" />
        <path d="m7.35 18.38.28.86h.9l-.73.53.28.86-.73-.53-.73.53.28-.86-.73-.53h.9z" />
        <path d="m12.48 18.38.28.86h.9l-.73.53.28.86-.73-.53-.73.53.28-.86-.73-.53h.9z" />
        <path d="m17.61 18.38.28.86h.91l-.74.53.28.86-.73-.53-.73.53.28-.86-.73-.53h.9z" />
    </g>
</svg>