<svg viewBox="0 0 40.5 40.5" xmlns="http://www.w3.org/2000/svg">
    <path d="m39.87 15.19h-39.24a20.27 20.27 0 0 1 39.24 0z" fill="#0099b5" />
    <path d="m38.12 29.77a20.25 20.25 0 0 1 -35.74 0z" fill="#1eb53a" />
    <path
        d="m40.5 20.25a20 20 0 0 1 -2 8.72h-36.5a20 20 0 0 1 -2-8.72 20.76 20.76 0 0 1 .45-4.25h39.6a20.76 20.76 0 0 1 .45 4.25z"
        fill="#fff" />
    <path d="m40.05 16h-39.6l.18-.79h39.24z" fill="#ce1126" />
    <path d="m38.53 29a8.62 8.62 0 0 1 -.41.8h-35.74a8.62 8.62 0 0 1 -.38-.8z" fill="#ce1126" />
    <g fill="#fff">
        <path
            d="m8.12 8.71a4.86 4.86 0 0 1 4.12-4.8 4.58 4.58 0 0 0 -.9-.09 4.89 4.89 0 0 0 0 9.77 4.58 4.58 0 0 0 .9-.09 4.85 4.85 0 0 1 -4.12-4.79z" />
        <path d="m14.26 11.61.22.69h.73l-.59.43.23.69-.59-.43-.59.43.23-.69-.59-.43h.73z" />
        <path d="m18.15 11.61.22.69h.73l-.59.43.23.69-.59-.43-.59.43.22-.69-.58-.43h.72z" />
        <path d="m22.03 11.61.23.69h.73l-.59.43.22.69-.59-.43-.58.43.22-.69-.59-.43h.73z" />
        <path d="m25.92 11.61.23.69h.72l-.58.43.22.69-.59-.43-.59.43.23-.69-.59-.43h.73z" />
        <path d="m29.81 11.61.22.69h.73l-.59.43.23.69-.59-.43-.59.43.22-.69-.58-.43h.72z" />
        <path d="m18.15 7.71.22.69h.73l-.59.43.23.69-.59-.42-.59.42.22-.69-.58-.43h.72z" />
        <path d="m22.03 7.71.23.69h.73l-.59.43.22.69-.59-.42-.58.42.22-.69-.59-.43h.73z" />
        <path d="m25.92 7.71.23.69h.72l-.58.43.22.69-.59-.42-.59.42.23-.69-.59-.43h.73z" />
        <path d="m29.81 7.71.22.69h.73l-.59.43.23.69-.59-.42-.59.42.22-.69-.58-.43h.72z" />
        <path d="m22.03 3.81.23.7h.73l-.59.42.22.7-.59-.43-.58.43.22-.7-.59-.42h.73z" />
        <path d="m25.92 3.81.23.7h.72l-.58.42.22.7-.59-.43-.59.43.23-.7-.59-.42h.73z" />
        <path d="m29.81 3.81.22.7h.73l-.59.42.23.7-.59-.43-.59.43.22-.7-.58-.42h.72z" />
    </g>
</svg>