<svg viewBox="0 0 40.5 40.5" xmlns="http://www.w3.org/2000/svg">
    <path d="m10.14 2.71v35.08a20.24 20.24 0 0 1 0-35.08z" fill="#0072c6" />
    <path d="m40.5 20.25a20.24 20.24 0 0 1 -10.14 17.54v-35.08a20.24 20.24 0 0 1 10.14 17.54z" fill="#009e60" />
    <path d="m30.36 2.71v35.08a20.21 20.21 0 0 1 -20.22 0v-35.08a20.21 20.21 0 0 1 20.22 0z" fill="#fcd116" />
    <g fill="#009e60">
        <path d="m20.26 21.43 2.19 4.36-2.19 4.53-2.26-4.45z" />
        <path d="m23.07 15.81 2.19 4.36-2.19 4.52-2.26-4.44z" />
        <path d="m17.45 15.81-2.2 4.36 2.2 4.52 2.26-4.44z" />
    </g>
</svg>