<svg viewBox="0 0 40.5 40.5" xmlns="http://www.w3.org/2000/svg">
    <path
        d="m40.5 20.25h-40.5a20.11 20.11 0 0 1 3.9-11.95c.45-.59.91-1.16 1.41-1.7a17.93 17.93 0 0 1 1.94-1.86 20.24 20.24 0 0 1 32.93 11.86 22 22 0 0 1 .29 2.6q.03.53.03 1.05z"
        fill="#d21034" />
    <path
        d="m40.5 20.25q0 .53 0 1.05a21.65 21.65 0 0 1 -.29 2.58 20.24 20.24 0 0 1 -32.96 11.88 17.93 17.93 0 0 1 -1.94-1.86c-.5-.54-1-1.11-1.41-1.7a20.11 20.11 0 0 1 -3.9-12z"
        fill="#009543" />
    <path
        d="m37.38 20.25-2 1.05-5 2.58-23.13 11.88a17.93 17.93 0 0 1 -1.94-1.86c-.5-.54-1-1.11-1.41-1.7a20.26 20.26 0 0 1 0-23.9c.45-.59.91-1.16 1.41-1.7a17.93 17.93 0 0 1 1.94-1.86l23.06 11.86 5 2.6z" />
    <path
        d="m40.5 20.25q0 .53 0 1.05a21.65 21.65 0 0 1 -.29 2.58h-11.21v-7.28h11.18a22 22 0 0 1 .29 2.6q.03.53.03 1.05z" />
    <path
        d="m31.81 20.25-2 1.05-.81.42-23.69 12.18c-.5-.54-1-1.11-1.41-1.7a20.26 20.26 0 0 1 0-23.9c.45-.59.91-1.16 1.41-1.7l23.69 12.18.79.42z"
        fill="#fdce12" />
    <path d="m27.09 20.25-23.19 11.95a20.26 20.26 0 0 1 0-23.9z" />
    <g fill="#fdce12">
        <path
            d="m9.42 19.83a3.06 3.06 0 0 1 -3 2.54 3.07 3.07 0 0 1 -3.32-2.87 3.52 3.52 0 0 1 3.05-3.59c2.73-.38 3.94 2.57 4 3.27a4.08 4.08 0 0 1 -1.84 4.24 4.55 4.55 0 0 1 -2.07.69v2.29a6.06 6.06 0 0 0 5.94-5.72c.69-5.78-4.2-6.56-5-6.58-1.78-.06-5.05.63-5.58 4.37a4.21 4.21 0 0 0 3.54 4.84 3.26 3.26 0 0 0 4.28-3.48z" />
        <path
            d="m8.44 21.22c-.1-.18-.2-.36-.31-.53s-.23-.35-.35-.52a10.37 10.37 0 0 0 -.77-1l-.43-.45-.23-.21-.24-.21a6.23 6.23 0 0 0 -1-.72 7.31 7.31 0 0 1 1 .69 2.43 2.43 0 0 1 .25.2 2.29 2.29 0 0 1 .23.21 6.14 6.14 0 0 1 .45.43c.29.31.56.63.82 1l.37.51c.11.18.23.35.33.54z" />
        <path
            d="m8.16 20.42a.5.5 0 0 1 0-.12v-.09a2.45 2.45 0 0 1 0-.27s0-.05 0-.07a.12.12 0 0 1 .1 0 .18.18 0 0 1 .08.07.59.59 0 0 1 0 .23v.22a.56.56 0 0 1 -.08.2v.07a.09.09 0 0 1 -.06 0s-.06 0-.07-.08a.75.75 0 0 1 .03-.16z" />
        <path
            d="m7.94 20a1 1 0 0 1 0-.35.14.14 0 0 1 0-.06s0 0 .06 0h.05.06s0 0 0 .06a.5.5 0 0 1 0 .12 1.36 1.36 0 0 1 0 .2 3.4 3.4 0 0 0 -.06.46.19.19 0 0 1 -.1-.2 2.62 2.62 0 0 0 -.01-.23z" />
        <path
            d="m7.7 19.27s0 0 0 0a.08.08 0 0 1 .08 0 .21.21 0 0 1 0 .11 3.22 3.22 0 0 1 0 .62.18.18 0 0 1 0 .12s0 0 0 0a.89.89 0 0 1 -.15-.64z" />
        <path
            d="m7.37 19.4a.46.46 0 0 0 0-.2.88.88 0 0 1 0-.17.34.34 0 0 1 0-.1.08.08 0 0 1 .08 0 .36.36 0 0 1 .1.18 1.52 1.52 0 0 1 0 .21 1.9 1.9 0 0 1 0 .34s0 .06 0 .05l-.13-.15c-.08-.08-.06-.1-.05-.16z" />
        <path
            d="m7.06 18.91c0-.07 0-.15 0-.22a.09.09 0 0 1 0-.05 0 0 0 0 1 .06 0 .06.06 0 0 1 .06 0 .27.27 0 0 1 .1.16.49.49 0 0 1 0 .12v.35s0 0 0 0-.07 0-.09-.07-.09-.1-.07-.16a.55.55 0 0 0 -.06-.13z" />
        <path
            d="m6.78 18.45s0-.05 0-.05a.11.11 0 0 1 .09.06s0 0 0 .05a.13.13 0 0 1 0 .06 1.6 1.6 0 0 1 0 .38.06.06 0 0 1 0 0 .28.28 0 0 1 -.09-.1s0-.08 0-.13a1.5 1.5 0 0 0 0-.27z" />
        <path
            d="m6.38 18.32a1.12 1.12 0 0 0 0-.13.13.13 0 0 0 0-.06s0 0 0-.06a.09.09 0 0 1 0 0s.06 0 .08.06a.42.42 0 0 1 0 .1.9.9 0 0 1 0 .28.14.14 0 0 1 0 .07s0 .05 0 .05a.11.11 0 0 1 -.09-.09.61.61 0 0 0 .01-.22z" />
        <path
            d="m6.6 18.5a.61.61 0 0 1 0-.12.17.17 0 0 1 0-.07.07.07 0 0 1 0 0 0 0 0 0 1 0 0s.07 0 .08.06a.36.36 0 0 1 0 .11.84.84 0 0 1 0 .27.22.22 0 0 1 0 .08.08.08 0 0 1 -.06 0 .11.11 0 0 1 -.09-.09.59.59 0 0 0 .07-.24z" />
        <path
            d="m6.12 18.16c0-.06 0-.11-.07-.16a.67.67 0 0 1 0-.24h-.05a.12.12 0 0 1 .13 0 .27.27 0 0 1 .06.12 2.37 2.37 0 0 1 .09.36v.09a.13.13 0 0 1 0 .06 0 0 0 0 1 0 0s-.08-.05-.09-.09-.05-.1-.07-.14z" />
        <path
            d="m5.82 18s0 0 0-.06a1.43 1.43 0 0 1 -.13-.28s0-.06 0-.08a.1.1 0 0 1 .07 0 .66.66 0 0 1 .14.2s0 .05 0 .07l.1.15a.37.37 0 0 1 0 .18s0 0 0 0l-.1-.07s0 0 0 0z" />
        <path
            d="m5.39 17.62a.54.54 0 0 1 -.07-.13.39.39 0 0 1 0-.15.09.09 0 0 1 .07 0 .3.3 0 0 1 .13.12.53.53 0 0 1 .08.17 1.23 1.23 0 0 0 .19.31s0 0 0 .06h-.06-.06a.2.2 0 0 1 -.13-.12 1.32 1.32 0 0 0 -.15-.26z" />
        <path
            d="m5.34 17.79a.85.85 0 0 0 -.34-.06 1.32 1.32 0 0 1 -.39-.1.13.13 0 0 1 -.07-.05 0 0 0 0 1 0-.07.76.76 0 0 1 .44.09.31.31 0 0 0 -.07-.09l-.15-.08a.26.26 0 0 1 -.14-.15.34.34 0 0 1 0-.1s0 0 0 0a.1.1 0 0 1 .09 0 .18.18 0 0 1 .07.05 1.46 1.46 0 0 1 .16.19l.06.1.07.06a.1.1 0 0 0 0-.09v-.07a.86.86 0 0 1 -.07-.1s0-.05 0-.07 0 0 .07 0a.49.49 0 0 1 .23.28v.07s0 .06.07.1l.06.07s.09 0 .11.07a0 0 0 0 1 0 0h-.11s0 0 0 0z" />
        <path
            d="m5.63 17.88a.24.24 0 0 0 -.12 0h-.11-.08-.2a.16.16 0 0 0 -.1.05.1.1 0 0 0 -.02.07h.07a3.25 3.25 0 0 0 .54 0 0 0 0 0 0 0 0 .11.11 0 0 0 .02-.12z" />
        <path
            d="m5.6 18.06h-.21-.1a0 0 0 0 0 0 0 .1.1 0 0 0 .05 0l.15.05h.06.38a.07.07 0 0 0 0 0v-.05s0 0-.06 0a.86.86 0 0 1 -.27 0z" />
        <path
            d="m6.14 18.32a.29.29 0 0 0 -.13 0h-.38s0 0 0 .05a.1.1 0 0 0 0 .05.34.34 0 0 0 .14.05h.13.1a.89.89 0 0 0 .23 0s0-.06 0-.08a.27.27 0 0 0 -.07-.08z" />
        <path
            d="m6.2 18.65a.32.32 0 0 0 -.14 0h-.06a.1.1 0 0 0 0 .09s0 0 .06.06a.18.18 0 0 0 .07.05h.09a3.42 3.42 0 0 0 .45 0 0 0 0 0 0 0 0s0 0 0-.05l-.08-.08a.24.24 0 0 0 -.18-.07z" />
        <path
            d="m6.63 19a.06.06 0 0 0 -.06 0 .11.11 0 0 0 0 .08s0 0 .06.06l.08.06h.11.3l-.07-.09a.2.2 0 0 0 -.05 0h-.1-.13z" />
        <path
            d="m7.28 19.54a1.34 1.34 0 0 0 -.28-.12l-.12-.05s0 0-.06 0h-.05a.13.13 0 0 0 0 .06.09.09 0 0 0 0 .05.53.53 0 0 0 .14.12 2.79 2.79 0 0 0 .37.14.34.34 0 0 0 .17 0 0 0 0 0 0 0-.05.55.55 0 0 0 -.17-.15z" />
        <path
            d="m7.6 19.91-.33-.12h-.06s0 0 0 0a.11.11 0 0 0 0 .11h.07l.19.11h.09.1.11.08a.13.13 0 0 0 0-.06v-.05l-.12.1z" />
        <path
            d="m7.48 20.15h-.08a.07.07 0 0 0 -.06 0 .11.11 0 0 0 0 .09.08.08 0 0 0 0 0 .73.73 0 0 0 .28.17l.33.1a.2.2 0 0 0 .11 0 .14.14 0 0 0 0-.1.2.2 0 0 0 -.06-.03h-.1l-.25-.13z" />
        <path
            d="m8.1 20.66-.1-.07-.19-.07a.5.5 0 0 0 -.21 0 0 0 0 0 0 0 .06.13.13 0 0 0 0 .06.91.91 0 0 0 .17.09 2.44 2.44 0 0 0 .46.14s.06 0 .07 0a0 0 0 0 0 0 0 .14.14 0 0 0 0-.07s0 0-.06 0z" />
        <path d="m5.74 18s.09 0 .11.06a0 0 0 0 1 0 0s0 0 0 0h-.09s0 0 0 0a.15.15 0 0 0 -.14-.06 0 0 0 0 1 0 0h.07z" />
        <path
            d="m6.1 18.22a.33.33 0 0 1 .06.1 0 0 0 0 1 0 0 .06.06 0 0 1 -.08 0l-.08-.04a.6.6 0 0 1 -.08-.08.15.15 0 0 1 0-.09s.06 0 .09 0z" />
        <path
            d="m6.39 18.45.1.08.14.16.14.11s0 0 0 .05a.33.33 0 0 1 -.17 0l-.1-.09h-.06a.92.92 0 0 1 -.23-.25.43.43 0 0 0 0-.05c0-.05 0 0 .07 0z" />
        <path
            d="m4.63 21.21c.1-.18.2-.36.31-.53s.23-.35.35-.52a12.3 12.3 0 0 1 .77-1l.43-.45.23-.21.28-.19a6.63 6.63 0 0 1 1-.71 6.5 6.5 0 0 0 -1.05.68l-.25.2-.23.21a4.67 4.67 0 0 0 -.45.44 12.41 12.41 0 0 0 -.82.95c-.12.17-.25.34-.36.51a6.1 6.1 0 0 0 -.34.54z" />
        <path
            d="m4.92 20.41v-.12-.09a2.45 2.45 0 0 0 0-.27s0-.05 0-.07a.11.11 0 0 0 -.1 0 .16.16 0 0 0 -.07.07.46.46 0 0 0 0 .23v.22a.84.84 0 0 0 .08.2v.07a.09.09 0 0 0 .07 0s.06-.05.07-.08a.76.76 0 0 0 -.05-.16z" />
        <path
            d="m5.13 20a1.37 1.37 0 0 0 0-.35v-.06a.07.07 0 0 0 -.06 0h-.07l-.06.05s0 0 0 .06a.5.5 0 0 0 0 .12.69.69 0 0 0 0 .2 2.31 2.31 0 0 1 0 .46s0 0 0 0a0 0 0 0 0 0 0 .21.21 0 0 0 .11-.19 1.4 1.4 0 0 1 .08-.29z" />
        <path
            d="m5.37 19.27s0 0 0 0a.11.11 0 0 0 -.08 0 .21.21 0 0 0 0 .11v.62a.27.27 0 0 0 0 .12s0 0 0 0a.79.79 0 0 0 .15-.63z" />
        <path
            d="m5.7 19.39a.68.68 0 0 1 0-.2.88.88 0 0 0 0-.17.09.09 0 0 0 0-.09.07.07 0 0 0 -.08-.05.46.46 0 0 0 -.1.18 1.52 1.52 0 0 0 0 .21v.35s0 .05 0 .05a.93.93 0 0 0 .13-.15c.08-.05.06-.07.05-.13z" />
        <path
            d="m6 18.9c0-.07 0-.14 0-.22a.09.09 0 0 0 0-.05 0 0 0 0 0 -.06 0 .09.09 0 0 0 -.06 0 .34.34 0 0 0 -.1.16v.5s0 0 0 0 .07 0 .09-.07.09-.1.07-.16a.53.53 0 0 1 .06-.16z" />
        <path
            d="m6.29 18.44s0 0 0-.05a.11.11 0 0 0 -.09.06s0 0 0 0a.13.13 0 0 0 0 .06 2.38 2.38 0 0 0 0 .38.06.06 0 0 0 0 0s0 0 0 0a.28.28 0 0 0 .09-.1.13.13 0 0 0 0-.12 1.6 1.6 0 0 1 0-.23z" />
        <path
            d="m6.69 18.31a.61.61 0 0 1 0-.12s0-.05 0-.07a.13.13 0 0 0 0-.06.09.09 0 0 0 0 0s-.06 0-.08.06a.42.42 0 0 0 0 .1.67.67 0 0 0 0 .28.22.22 0 0 0 0 .08.07.07 0 0 0 0 0 .11.11 0 0 0 .09-.09.61.61 0 0 1 -.01-.18z" />
        <path
            d="m6.48 18.49s0-.08 0-.12a.17.17 0 0 0 0-.07s0 0 0-.05a.07.07 0 0 0 0 0s-.06 0-.08.06a.36.36 0 0 0 0 .11.86.86 0 0 0 0 .28.19.19 0 0 0 0 .07.07.07 0 0 0 0 0 .11.11 0 0 0 .09-.09.6.6 0 0 1 -.01-.19z" />
        <path
            d="m7 18.15v-.15a.5.5 0 0 0 0-.24.12.12 0 0 0 -.13 0 .39.39 0 0 0 -.06.13 2 2 0 0 0 -.09.35v.09s0 .05 0 .06 0 0 0 0 .08-.05.09-.08.12-.12.19-.16z" />
        <path
            d="m7.25 18v-.06a1.43 1.43 0 0 0 .13-.28.08.08 0 0 0 0-.08.06.06 0 0 0 -.07 0 .07.07 0 0 0 0 0 .52.52 0 0 0 -.14.19s0 .05 0 .07v.08a.37.37 0 0 0 0 .18s0 0 0 0l.1-.07s0 0 0 0z" />
        <path
            d="m7.68 17.61a.33.33 0 0 0 .07-.13.39.39 0 0 0 0-.15.09.09 0 0 0 -.07 0 .37.37 0 0 0 -.13.12.89.89 0 0 0 -.08.17 1.2 1.2 0 0 1 -.18.31s0 0 0 .06a.09.09 0 0 0 .07 0s0 0 0 0a.24.24 0 0 0 .14-.12.78.78 0 0 1 .18-.26z" />
        <path
            d="m7.73 17.78a.88.88 0 0 1 .36-.06 1.47 1.47 0 0 0 .4-.1l.07-.05s0-.06 0-.07a.85.85 0 0 0 -.44.09.31.31 0 0 1 .07-.09l.15-.08a.26.26 0 0 0 .14-.15.31.31 0 0 0 0-.1s-.06 0-.09 0a.19.19 0 0 0 -.07.06.93.93 0 0 0 -.16.18.53.53 0 0 1 -.06.1l-.1.03a.1.1 0 0 1 0-.09v-.06l.07-.11s0-.05 0-.07 0 0-.07 0a.49.49 0 0 0 -.23.28v.07a.23.23 0 0 1 -.07.1l-.06.07a.26.26 0 0 0 -.11.07s0 0 0 0h.06a.08.08 0 0 0 0 0z" />
        <path
            d="m7.44 17.87a.42.42 0 0 1 .12 0 .41.41 0 0 0 .11 0h.08.25a.16.16 0 0 1 .1.05.11.11 0 0 1 0 .1h-.16a3.25 3.25 0 0 1 -.54 0 .11.11 0 0 1 .04-.15z" />
        <path
            d="m7.47 18.05h.21.1a0 0 0 0 1 0 0 .1.1 0 0 1 0 0 .44.44 0 0 1 -.15.05h-.09-.38a0 0 0 0 1 0 0l.06-.05a.09.09 0 0 1 .06 0h.2z" />
        <path
            d="m6.93 18.32a.3.3 0 0 1 .13 0h.38s0 0 0 .05a.1.1 0 0 1 0 .05.19.19 0 0 1 -.14.05h-.13-.17a.89.89 0 0 1 -.23 0 .07.07 0 0 1 0-.08.23.23 0 0 1 .07-.07.26.26 0 0 1 .09 0z" />
        <path
            d="m6.87 18.64a.34.34 0 0 1 .14 0 0 0 0 0 1 0 0 .08.08 0 0 1 0 .08.17.17 0 0 1 -.06.06.18.18 0 0 1 -.07 0 .15.15 0 0 1 -.09 0h-.45a0 0 0 0 1 0 0s0 0 0-.05l.08-.08a.24.24 0 0 1 .18-.07z" />
        <path
            d="m6.44 19a.06.06 0 0 1 .06.05.11.11 0 0 1 0 .08.1.1 0 0 1 0 .06l-.08.06h-.12-.3a0 0 0 0 1 0 0s0 0 0 0v-.07a.2.2 0 0 1 .08-.08h.1.13z" />
        <path
            d="m5.79 19.53a1.92 1.92 0 0 1 .21-.12h.11a.07.07 0 0 1 .06 0 .07.07 0 0 1 0 .06.05.05 0 0 1 0 0 .53.53 0 0 1 -.14.12 2.79 2.79 0 0 1 -.37.14.53.53 0 0 1 -.17 0 0 0 0 0 1 0-.05.55.55 0 0 1 .3-.15z" />
        <path
            d="m5.47 19.9.33-.12s0 0 .06 0a.11.11 0 0 1 0 .11l-.06.11-.2.11-.09.05h-.09-.12-.08a.06.06 0 0 1 0-.06s0 0 0-.05a1.21 1.21 0 0 1 .1-.14.47.47 0 0 1 .15-.01z" />
        <path
            d="m5.59 20.14h.08a.07.07 0 0 1 .06 0 .09.09 0 0 1 0 .05.62.62 0 0 1 -.28.17l-.32.1a.25.25 0 0 1 -.12 0 .14.14 0 0 1 0-.1.2.2 0 0 1 .09-.06h.1l.25-.13z" />
        <path
            d="m5 20.65.14-.07.19-.07a.5.5 0 0 1 .21 0 0 0 0 0 1 0 .06.07.07 0 0 1 0 .06.65.65 0 0 1 -.16.09 2.79 2.79 0 0 1 -.47.14s-.06 0-.07 0a0 0 0 0 1 0 0 .19.19 0 0 1 0-.07h.06z" />
        <path
            d="m7.33 17.94s-.09 0-.11.06a0 0 0 0 0 0 0s0 0 0 0h.09a.18.18 0 0 1 .14 0 0 0 0 0 0 0 0s0 0-.07 0-.03-.08-.05-.06z" />
        <path
            d="m7 18.21a.19.19 0 0 0 0 .1 0 0 0 0 0 0 0 .06.06 0 0 0 .08 0 .34.34 0 0 0 .06-.06l.08-.07a.14.14 0 0 0 0-.1 0 0 0 0 0 0 0s-.07 0-.09 0z" />
        <path
            d="m6.68 18.44-.1.08-.14.16-.14.11a.05.05 0 0 0 0 .05.33.33 0 0 0 .17 0l.1-.09h.06a.79.79 0 0 0 .23-.25.11.11 0 0 0 0-.05c0-.05 0 0-.07 0s-.07-.03-.11-.01z" />
        <path d="m40.5 20.25q0 .53 0 1.05h-11.5v-2.1h11.47q.03.53.03 1.05z" />
    </g>
</svg>