<svg viewBox="0 0 40.5 40.5" xmlns="http://www.w3.org/2000/svg">
    <path d="m15.65 20.25h-4.86l-9.72-6.47a18.74 18.74 0 0 1 1.05-2.55z" fill="#de3831" />
    <path
        d="m40.11 16.28h-15.81l-17.17-11.43a20.09 20.09 0 0 1 13.12-4.85 20.26 20.26 0 0 1 19.12 13.57 20 20 0 0 1 .74 2.71z"
        fill="#de3831" />
    <path d="m40.11 16.28h-15.95l-17.09-11.39h.06a20 20 0 0 1 2.29-1.7l15.58 10.38h14.37a20 20 0 0 1 .74 2.71z"
        fill="#fff" />
    <path d="m10.79 20.25-9.72 6.47a20.1 20.1 0 0 1 0-12.94z" />
    <path
        d="m40.5 20.25a20.72 20.72 0 0 1 -.39 4h-15.81l-17.17 11.4h-.06a20 20 0 0 1 -4.95-6.34l13.53-9-13.53-9a20 20 0 0 1 5-6.34h.06l17.12 11.31h15.81a20.72 20.72 0 0 1 .39 3.97z"
        fill="#007a4d" />
    <path d="m15.65 20.25-13.53 9a18.74 18.74 0 0 1 -1-2.55l9.72-6.47z" fill="#de3831" />
    <path d="m40.11 24.22a20 20 0 0 1 -.74 2.71 20.24 20.24 0 0 1 -29.95 10.42 20 20 0 0 1 -2.29-1.7l17.17-11.43z"
        fill="#002395" />
    <path d="m15.65 20.25-13.53 9a18.74 18.74 0 0 1 -1-2.55l9.72-6.47-9.77-6.45a18.74 18.74 0 0 1 1.05-2.55z"
        fill="#ffb612" />
    <path d="m40.11 24.22a20 20 0 0 1 -.74 2.71h-14.37l-15.58 10.42a20 20 0 0 1 -2.29-1.7h-.06l17.09-11.43z"
        fill="#fff" />
</svg>