<svg viewBox="0 0 40.5 40.5" xmlns="http://www.w3.org/2000/svg">
    <path d="m34.43 5.79h-28.36c.23-.23.48-.46.73-.69l.79-.66a20.26 20.26 0 0 1 26.84 1.35z" fill="#006400" />
    <path d="m38.54 11.57h-36.54a20 20 0 0 1 4.07-5.78h28.36a20 20 0 0 1 4.11 5.78z" fill="#ffd200" />
    <path d="m40.3 17.36h-40.1a19.77 19.77 0 0 1 1.8-5.79h36.54a19.77 19.77 0 0 1 1.76 5.79z" fill="#d40000" />
    <path d="m40.5 20.25a21.18 21.18 0 0 1 -.2 2.9h-40.1a21.05 21.05 0 0 1 0-5.79h40.1a21.14 21.14 0 0 1 .2 2.89z" />
    <path d="m40.3 23.15a20.4 20.4 0 0 1 -1.74 5.78h-36.62a20.4 20.4 0 0 1 -1.74-5.78z" fill="#d40000" />
    <path d="m38.56 28.93a20.59 20.59 0 0 1 -4.15 5.79h-28.32a20.59 20.59 0 0 1 -4.15-5.79z" fill="#ffd200" />
    <path d="m34.41 34.72a20.24 20.24 0 0 1 -26.81 1.34l-.8-.66-.71-.68z" fill="#006400" />
    <path
        d="m28.65 20.25-3.85 2.9-7.7 5.78-7.72 5.79-1.78 1.34-.8-.66-.71-.68a20.59 20.59 0 0 1 -4.15-5.79 20.4 20.4 0 0 1 -1.74-5.78 21.05 21.05 0 0 1 0-5.79 19.77 19.77 0 0 1 1.8-5.79 20 20 0 0 1 4.07-5.78c.23-.23.48-.46.73-.69l.79-.66 1.79 1.35 7.7 5.78 7.72 5.79z" />
    <path
        d="m27 20.25-3.86 2.9-7.69 5.78-7.76 5.79-.89.68-.71-.68a20.59 20.59 0 0 1 -4.15-5.79 20.4 20.4 0 0 1 -1.74-5.78 21.05 21.05 0 0 1 0-5.79 19.77 19.77 0 0 1 1.8-5.79 20 20 0 0 1 4.07-5.78c.23-.23.48-.46.73-.69l.91.69 7.71 5.78 7.71 5.79z"
        fill="#fff" />
    <path d="m10.28 10.13 2.03 6.24h6.57l-5.32 3.87 2.04 6.25-5.32-3.87-5.32 3.87 2.03-6.25-5.31-3.87h6.57z"
        fill="#d40000" />
    <path
        d="m7.24 14.42s-.12-.47.66-.48c0 0 .88-.5 1.44.06.25.25.34.85.48 2.22l-.09.59-1 1-.53.45s.11-2.56 0-3-.34-.37-.34-.37-.4-.13-.4-.25a2.79 2.79 0 0 1 .54-.06s.21-.28-.76-.16z"
        fill="#fc0" />
    <path
        d="m8.22 18.31a.05.05 0 0 1 0-.05s.11-2.56.06-2.95-.28-.31-.34-.31c-.14 0-.45-.15-.45-.3a.07.07 0 0 1 0-.05 3.54 3.54 0 0 1 .48-.1h.03s-.11-.12-.74 0a0 0 0 0 1 -.06 0 .36.36 0 0 1 .07-.33.79.79 0 0 1 .62-.23c.12-.06 1-.46 1.5.08.25.25.35.81.5 2.25l-.09.59s0 0 0 0l-1 1-.54.44zm-.28-3.45c.06 0 .33 0 .39.42s0 2.31-.05 2.84l.43-.36 1-1 .08-.56c-.13-1.35-.23-1.95-.46-2.18-.52-.52-1.37-.06-1.37 0a.67.67 0 0 0 -.55.18.28.28 0 0 0 -.06.18c.46 0 .72 0 .8.1a.19.19 0 0 1 0 .15h-.05a4 4 0 0 0 -.42.08 1.38 1.38 0 0 0 .26.15z" />
    <path
        d="m8.49 14.39a.21.21 0 0 1 -.2-.21.2.2 0 0 1 .2-.2.21.21 0 0 1 .21.2.22.22 0 0 1 -.21.21zm0-.3a.09.09 0 1 0 .09.09.09.09 0 0 0 -.09-.09z" />
    <path
        d="m9.94 16.24a53.89 53.89 0 0 1 4.94 3.82.1.1 0 0 1 -.09.17l-.74-.23a8.37 8.37 0 0 0 -1.19 4.44 10.29 10.29 0 0 0 -4.86 0s-.58-2.32-.69-2.55a.45.45 0 0 1 0-.64 2.39 2.39 0 0 1 .91-1.62 2.59 2.59 0 0 1 0-1.93 4.6 4.6 0 0 1 1.55-1.5.14.14 0 0 1 .17.04z"
        fill="#fc0" />
    <path
        d="m8 24.54a.05.05 0 0 1 0-.05c-.2-.79-.59-2.31-.68-2.53a.51.51 0 0 1 0-.7 2.51 2.51 0 0 1 .91-1.61 2.53 2.53 0 0 1 0-1.94 4.63 4.63 0 0 1 1.57-1.52.2.2 0 0 1 .21 0 56.47 56.47 0 0 1 4.91 3.81.17.17 0 0 1 0 .2.18.18 0 0 1 -.18.08l-.7-.18a8.36 8.36 0 0 0 -1.16 4.37.08.08 0 0 1 0 0s0 0-.05 0a10.59 10.59 0 0 0 -4.83 0zm1.87-8.26a4.53 4.53 0 0 0 -1.53 1.47 2.5 2.5 0 0 0 0 1.88.09.09 0 0 1 0 .07 2.33 2.33 0 0 0 -.9 1.57.05.05 0 0 1 0 0 .41.41 0 0 0 0 .57s0 0 0 0c.1.21.59 2.14.68 2.5a10.75 10.75 0 0 1 4.76 0 8.42 8.42 0 0 1 1.12-4.34s0 0 .06 0l.75.18s0 0 0 0a52.94 52.94 0 0 0 -4.93-3.81z" />
    <path
        d="m14.05 20.1-4.5-1.34a.59.59 0 0 1 -.33-.33.82.82 0 0 1 .21-.71.06.06 0 0 1 .08 0 .05.05 0 0 1 0 .08.73.73 0 0 0 -.19.6.42.42 0 0 0 .26.26l4.49 1.34a.07.07 0 0 1 0 .07.08.08 0 0 1 -.02.03z" />
    <path
        d="m8.6 24.42a.06.06 0 0 1 -.06-.06 7.74 7.74 0 0 0 -.43-2 4.17 4.17 0 0 0 -.81-.36.06.06 0 0 1 0-.07s0-.05.07-.05a5.65 5.65 0 0 1 .86.36s0 0 0 0a8.29 8.29 0 0 1 .45 2.1.06.06 0 0 1 -.06.06z" />
    <path
        d="m7.55 22.06a0 0 0 0 1 0 0 .57.57 0 0 1 0-.32 2.06 2.06 0 0 0 .16-.34.49.49 0 0 1 0-.24l.29-.39c.38-.41 1.16-1.25 1.23-1.39a.82.82 0 0 0 0-.5.06.06 0 0 1 .11 0 .84.84 0 0 1 0 .58 14.59 14.59 0 0 1 -1.25 1.42l-.3.32a.61.61 0 0 0 0 .18s-.12.28-.18.37a.69.69 0 0 0 0 .25.06.06 0 0 1 -.05.06z" />
    <path
        d="m8.16 22.34a.07.07 0 0 1 0-.08 4.59 4.59 0 0 0 .24-.74s0 0 0 0a8.32 8.32 0 0 0 1.56-.92c.13-.24.62-.31.64-.31.2 0 .51-.12.55-.21s0 0 .07 0 .05 0 0 0c-.07.19-.55.29-.65.3s-.47.1-.55.26a7.7 7.7 0 0 1 -1.58.95 6.89 6.89 0 0 1 -.24.73.05.05 0 0 1 -.04.02z" />
    <path
        d="m13.54 21.08a17.47 17.47 0 0 0 -3.54-.43.06.06 0 0 1 -.05-.06.06.06 0 0 1 .06-.06 17.74 17.74 0 0 1 3.61.45.05.05 0 0 1 0 .08.05.05 0 0 1 -.08.02z" />
    <path d="m10.39 22a.51.51 0 1 1 .5-.51.5.5 0 0 1 -.5.51zm0-.89a.39.39 0 1 0 .39.38.39.39 0 0 0 -.39-.42z" />
    <path
        d="m12 22a.51.51 0 0 1 -.5-.5.51.51 0 0 1 1 0 .51.51 0 0 1 -.5.5zm0-.89a.39.39 0 1 0 .39.39.38.38 0 0 0 -.39-.38z" />
    <path
        d="m8.32 22.87a.05.05 0 0 1 -.05-.05 0 0 0 0 1 0-.06 14.8 14.8 0 0 1 4.71 0s.06 0 .05.07a.08.08 0 0 1 -.07.05 14.68 14.68 0 0 0 -4.67 0z" />
    <path
        d="m13 23.2a14.32 14.32 0 0 0 -4.54-.08 0 0 0 0 1 -.06 0s0-.07 0-.07a14.24 14.24 0 0 1 4.58.08.08.08 0 0 1 0 .07.05.05 0 0 1 .02 0z" />
    <path
        d="m12.9 23.63a13 13 0 0 0 -4.38-.07.05.05 0 0 1 -.07 0 0 0 0 0 1 0-.06 12.71 12.71 0 0 1 4.43.07s.05 0 .05.07a.07.07 0 0 1 -.03-.01z" />
    <path
        d="m8.32 22.87a.08.08 0 0 1 0-.09l.38-.42-.46.07a.06.06 0 0 1 -.07 0s0-.06 0-.07l.62-.09c.23 0 .51-.06.84-.08s0 0 0 0l.94-.05h.84.79l.85.09a.05.05 0 0 1 0 0s0 0 0 .05l-.44.44-.38-.48-.41.39s0 0 0 0l-.32-.42-.38.4-.33-.41-.45.43a0 0 0 0 1 -.07 0l-.44-.38-.33.44a.05.05 0 0 1 0 0l-.46-.37-.45.49zm4.07-.61.3.38.31-.31zm-3.39.06.34.28.26-.34zm.86-.08.34.3.34-.33zm1.76 0 .24.33.31-.3zm-.8 0 .25.3.29-.3a4.86 4.86 0 0 0 -.58-.03z" />
    <path
        d="m12.56 23.57a.05.05 0 0 1 0 0l-.28-.43-.34.34a0 0 0 0 1 0 0 .05.05 0 0 1 0 0l-.5-.48-.37.37a.07.07 0 0 1 -.09 0l-.41-.4-.36.39a.07.07 0 0 1 -.09 0l-.4-.36-.37.42h-.08l-.34-.36-.39.46a.06.06 0 0 1 -.08 0 .06.06 0 0 1 0-.09l.43-.5.11.07.34.35.36-.41.41.38.36-.39a0 0 0 0 1 0 0l.41.41.38-.38a0 0 0 0 1 0 0l.37.43.35-.35s0 0 0 0l.27.43.27-.32a.06.06 0 0 1 .09.07l-.32.38s.29-.03.27-.03z" />
    <path d="m7.87 22.13c.06-.15.17-.49.17-.49s.06.08.06.13a1 1 0 0 1 0 .17s0 .21-.05.21h-.05a.14.14 0 0 1 -.11-.05z" />
    <path
        d="m7.33 21.92v-.25s0-.27.07-.27a.05.05 0 0 1 0 .05v.05.23s0 .12 0 .18 0 .09 0 .09a0 0 0 0 1 0 0 .09.09 0 0 1 -.07-.08z" />
    <path d="m7.67 22c.07-.19.07-.44.16-.47s0 .15 0 .18 0 .35-.11.35h-.07z" />
    <path
        d="m10.9 19.14c.69.21.21.92.21.92 1.14.29 1.4-.44 1.4-.44zm1.2.39a.08.08 0 0 1 .09.07s0 .06-.09.06-.08 0-.08-.06a.08.08 0 0 1 .08-.07zm0 .19s0 .06-.09.06-.08 0-.08-.06a.08.08 0 0 1 .08-.07.08.08 0 0 1 .05.07zm-.18-.22a.08.08 0 0 1 .09.07s0 .06-.09.06-.09 0-.09-.06a.08.08 0 0 1 .05-.07zm-.07.19s0 .06-.08.06-.09 0-.09-.06a.08.08 0 0 1 .09-.07.07.07 0 0 1 .04.07zm-.19-.25c.05 0 .09 0 .09.06a.09.09 0 0 1 -.18 0s0-.06.05-.06zm0 .21a.09.09 0 1 1 -.09-.07.08.08 0 0 1 .02.07zm-.19-.25a.08.08 0 0 1 .08.07s0 .06-.08.06-.09 0-.09-.06a.08.08 0 0 1 .02-.07zm-.13.62s-.09 0-.09-.06a.08.08 0 0 1 .09-.07.07.07 0 0 1 .08.07s-.1.04-.15.04zm0-.2a.08.08 0 0 1 .08-.07.07.07 0 1 1 0 .14.08.08 0 0 1 -.14-.07zm.21.21c-.05 0-.08 0-.08-.06a.07.07 0 0 1 .08-.07.08.08 0 0 1 .09.07s-.1.03-.15.03zm0-.21a.07.07 0 0 1 .08-.07.07.07 0 1 1 0 .14.07.07 0 0 1 -.11-.07zm.22.22c-.05 0-.08 0-.08-.06a.07.07 0 0 1 .08-.07.08.08 0 0 1 .09.07s-.07.02-.12.02zm0-.19a.09.09 0 1 1 .09.07.08.08 0 0 1 -.07-.07zm.23.15s-.09 0-.09-.06a.08.08 0 0 1 .09-.04.08.08 0 0 1 .08.07s-.02.03-.08.03zm.13-.12a.07.07 0 1 1 0-.14.07.07 0 1 1 0 .14zm.08-.13a.07.07 0 1 1 0-.14.07.07 0 1 1 0 .14z" />
</svg>